<svg id="Layer_1" data-name="Layer 1" xmlns="http://www.w3.org/2000/svg" viewBox="0 0 254 64"><defs><style>.cls-1{fill:#425a68;}.cls-2{fill:#00b1a8;}</style></defs><title>bizagi-cluod-logo</title><path id="_Path_" data-name="&lt;Path&gt;" class="cls-1" d="M140.7,22.4a2.1,2.1,0,0,0-1.5-.6h-3.5a.7.7,0,0,0-.7.7V47a2,2,0,0,0,.6,1.5,2,2,0,0,0,1.5.6h3.6a.7.7,0,0,0,.7-.7V23.8a2.1,2.1,0,0,0-.6-1.5"/><path id="_Path_2" data-name="&lt;Path&gt;" class="cls-1" d="M41.4,21.7H37.8a.7.7,0,0,0-.7.7V47a2,2,0,0,0,.6,1.5,2.1,2.1,0,0,0,1.5.6h3.6a.7.7,0,0,0,.7-.7V23.8a2,2,0,0,0-.6-1.5,2.1,2.1,0,0,0-1.5-.6"/><path id="_Path_3" data-name="&lt;Path&gt;" class="cls-1" d="M29.1,25.7a14.5,14.5,0,0,0-10.2-4,13.6,13.6,0,0,0-6.3,1.6l-1.5.9s0,.1,0,.1a11.3,11.3,0,0,1,4-1.3,0,0,0,0,1,0,.1,12.7,12.7,0,0,0-4,1.7s0,.1,0,.1a11.1,11.1,0,0,1,4-1.1,0,0,0,0,1,0,.1A14.1,14.1,0,0,0,11,25.3s0,.1,0,.1a11.5,11.5,0,0,1,4.1-.9s.1.1,0,.1A16.2,16.2,0,0,0,11,25.8c-.1,0,0,.1,0,.1a12.8,12.8,0,0,1,4.1-.6,0,0,0,0,1,0,.1A17.7,17.7,0,0,0,11,26.3s0,.1,0,.1a15.3,15.3,0,0,1,4.1-.4s.1.1,0,.1a22.8,22.8,0,0,0-4.2.9,0,0,0,0,0,0,.1,21.5,21.5,0,0,1,4.2-.2s0,.1,0,.1a31.2,31.2,0,0,0-4.2.7,0,0,0,0,0,0,.1h7.8a7.8,7.8,0,0,1,5.7,2.3,7.6,7.6,0,0,1,2.3,5.5,7.9,7.9,0,0,1-8,7.9,7.9,7.9,0,0,1-8-7.9V12.9a2.1,2.1,0,0,0-.6-1.5,2.1,2.1,0,0,0-1.5-.6H5.2a.7.7,0,0,0-.7.7V35.4A13,13,0,0,0,8.7,45a14.3,14.3,0,0,0,10.2,4,14.4,14.4,0,0,0,10.2-4,13.1,13.1,0,0,0,0-19.3"/><path id="_Path_4" data-name="&lt;Path&gt;" class="cls-1" d="M95.5,25.8a14.9,14.9,0,0,0-20.3,0,12.9,12.9,0,0,0-4.2,9.7,12.8,12.8,0,0,0,4.2,9.6,14.3,14.3,0,0,0,10.1,4,13.6,13.6,0,0,0,4.8-.8,11.3,11.3,0,0,0,2.9-1.5h0a10.1,10.1,0,0,1-4,1.3,0,0,0,0,1,0-.1,15.1,15.1,0,0,0,4-1.7h0a10.3,10.3,0,0,1-4,1.1,0,0,0,1,1,0-.1,17.7,17.7,0,0,0,4-1.5s0-.1,0-.1a10.8,10.8,0,0,1-4,.9s-.1-.1,0-.1A19.3,19.3,0,0,0,93,45a0,0,0,0,0,0-.1,11.5,11.5,0,0,1-4.1.7s-.1-.1,0-.1A21.5,21.5,0,0,0,93,44.5s0-.1,0-.1a13.9,13.9,0,0,1-4.1.5,0,0,0,0,1,0-.1,25.6,25.6,0,0,0,4.1-.9,0,0,0,0,0,0-.1,17.7,17.7,0,0,1-4.1.3,0,0,0,1,1,0-.1,40.3,40.3,0,0,0,4.1-.7,0,0,0,0,0,0-.1c-2.4.2-3.5,0-5.1,0H85.3A7.7,7.7,0,0,1,79.6,41a7.6,7.6,0,0,1-2.4-5.6,8.1,8.1,0,0,1,16.1,0V48.3a.7.7,0,0,0,.2.5l.5.2h5a.7.7,0,0,0,.7-.7V35.4a12.9,12.9,0,0,0-4.2-9.7"/><path id="_Path_5" data-name="&lt;Path&gt;" class="cls-1" d="M49.5,27.6h9.3c1.8-.1,2.9-.6,4.2-.7a0,0,0,0,0,0-.1c-1.3,0-3.3.2-3.7.2s0-.1,0-.1a26,26,0,0,1,4.3-.7,0,0,0,0,0,0-.1,28.6,28.6,0,0,0-3.7.2s0-.1,0-.1a19.9,19.9,0,0,1,4.3-.6,0,0,0,1,0,0-.1,25,25,0,0,0-3.8.1s0-.1,0-.1a22.3,22.3,0,0,1,4.2-.6,0,0,0,0,0,0-.1,19.5,19.5,0,0,0-3.8,0c-.1,0,0-.1,0-.1a17.3,17.3,0,0,1,4.1-.5,0,0,0,0,0,0-.1,15.8,15.8,0,0,0-3.8,0c-.1,0,0-.1,0-.1a16.1,16.1,0,0,1,4-.5,0,0,0,0,0,0-.1,13.4,13.4,0,0,0-3.8-.1c-.1,0,0-.1,0-.1a13.9,13.9,0,0,1,3.9-.4,0,0,0,0,0,0-.1,11.9,11.9,0,0,0-3.8-.1c-.1,0,0-.1,0-.1a10.9,10.9,0,0,1,3.6-.3s0-.1,0-.1a9.5,9.5,0,0,0-3.7-.2c-.1,0-.1-.1,0-.1a11.3,11.3,0,0,1,3.3-.3,0,0,0,0,0,0-.1l-1.7-.2H48.1a.7.7,0,0,0-.7.7v3.1A2.1,2.1,0,0,0,48,27a2,2,0,0,0,1.5.6"/><path id="_Path_6" data-name="&lt;Path&gt;" class="cls-1" d="M66.5,43.2H57.3c-1.8.1-2.9.6-4.2.7a0,0,0,0,0,0,.1,36.7,36.7,0,0,0,3.7-.2c.1,0,0,.1,0,.1a25.9,25.9,0,0,1-4.3.7s-.1.1,0,.1a29,29,0,0,0,3.7-.2s0,.1,0,.1a20,20,0,0,1-4.3.6,0,0,0,1,0,0,.1,22.8,22.8,0,0,0,3.8-.1s0,.1,0,.1a20.6,20.6,0,0,1-4.2.6,0,0,0,0,0,0,.1,19.5,19.5,0,0,0,3.8,0c.1,0,0,.1,0,.1a17.4,17.4,0,0,1-4.1.5,0,0,0,0,0,0,.1,15.7,15.7,0,0,0,3.8,0c.1,0,0,.1,0,.1a16,16,0,0,1-4.1.5,0,0,0,0,0,0,.1,13.4,13.4,0,0,0,3.8.1c.1,0,0,.1,0,.1a14.1,14.1,0,0,1-3.9.4s0,.1,0,.1a12.2,12.2,0,0,0,3.8.1c.1,0,0,.1,0,.1a11,11,0,0,1-3.6.3s0,.1,0,.1a9.6,9.6,0,0,0,3.8.2s.1.1,0,.1a11.1,11.1,0,0,1-3.3.3s-.1,0,0,.1l1.7.2H67.9a.7.7,0,0,0,.7-.7V45.3a2.1,2.1,0,0,0-.6-1.5,2,2,0,0,0-1.5-.6"/><path id="_Path_7" data-name="&lt;Path&gt;" class="cls-1" d="M53.5,43.2,67,31.4A5.7,5.7,0,0,0,65,22.2h0c1.3,1.3-.4,3.4-1.7,4.7L49,39.4a5.8,5.8,0,0,0-1.6,4,5.6,5.6,0,0,0,3.3,5.2h0c-1.2-1.9,2.7-5.3,2.8-5.3"/><path id="_Path_8" data-name="&lt;Path&gt;" class="cls-1" d="M126.8,25.8a14.9,14.9,0,0,0-20.4,0,12.9,12.9,0,0,0-4.2,9.7,12.8,12.8,0,0,0,4.2,9.6,14.4,14.4,0,0,0,10.2,4h.9a13.5,13.5,0,0,0,3.9-.8,11.3,11.3,0,0,0,2.9-1.5h0a10,10,0,0,1-4,1.3,0,0,0,0,1,0-.1,14.8,14.8,0,0,0,4-1.7h0a10.1,10.1,0,0,1-4,1.1,0,0,0,1,1,0-.1,17.4,17.4,0,0,0,4-1.5s0-.1,0-.1a10.7,10.7,0,0,1-4,.9s-.1-.1,0-.1a19.2,19.2,0,0,0,4.1-1.3,0,0,0,0,0,0-.1,11.4,11.4,0,0,1-4.1.7s-.1-.1,0-.1a21.5,21.5,0,0,0,4.1-1.1,0,0,0,0,0,0-.1,13.7,13.7,0,0,1-4.1.5,0,0,0,1,1,0-.1,25.7,25.7,0,0,0,4.1-.9,0,0,0,0,0,0-.1,17.6,17.6,0,0,1-4.1.3s-.1-.1,0-.1a40.5,40.5,0,0,0,4.1-.7,0,0,0,0,0,0-.1c-2.3.2-3.5,0-5.1,0h-2.7a7.8,7.8,0,0,1-5.7-2.3,7.6,7.6,0,0,1-2.4-5.6,7.6,7.6,0,0,1,2.3-5.6,8,8,0,0,1,13.8,5.6s.1,12.4.1,12.5a7.1,7.1,0,0,1-2.4,4.8,8,8,0,0,1-5.6,2.2h-6.4a2.1,2.1,0,0,0-1.5.6,2.1,2.1,0,0,0-.6,1.5v3a.7.7,0,0,0,.7.7h7.8a14.6,14.6,0,0,0,10.2-4,12.9,12.9,0,0,0,4.2-9.7V35.4a13,13,0,0,0-4.2-9.7"/><path class="cls-2" d="M166.5,48.1a39.7,39.7,0,0,1-7.3.8c-7.9,0-9.6-4.8-9.6-13.5s1.7-13.6,9.6-13.6a38.7,38.7,0,0,1,7.3.8v2.5a46.9,46.9,0,0,0-6.9-.7c-5.9,0-6.9,3.5-6.9,11s1,10.9,7,10.9a41.7,41.7,0,0,0,6.8-.7Z"/><path class="cls-2" d="M171,21.2h2.9V48.5H171Z"/><path class="cls-2" d="M195,38.8c0,6.9-1.7,10.1-8.1,10.1s-8.1-3.2-8.1-10.1,2.1-9.7,8.1-9.7S195,32.2,195,38.8Zm-2.9,0c0-5.3-1.1-7.2-5.2-7.2s-5.2,1.9-5.2,7.2.7,7.7,5.2,7.7S192.1,44.2,192.1,38.8Z"/><path class="cls-2" d="M214.4,29.5v19h-2.9V47.2a12.9,12.9,0,0,1-5.6,1.7c-5.3,0-6.4-2.5-6.4-9.5V29.5h2.9v9.9c0,5.3.5,7,4,7a11.5,11.5,0,0,0,5.2-1.4V29.5Z"/><path class="cls-2" d="M234.5,48.5h-2.8V47.2a13.7,13.7,0,0,1-5.8,1.7c-3.7,0-6.9-1.5-6.9-9.7,0-6.7,2.2-10.1,8-10.1a31.9,31.9,0,0,1,4.7.5V21.2h2.8Zm-2.8-3.6V32a32.3,32.3,0,0,0-4.5-.5c-4,0-5.2,2.6-5.2,7.6s2,7.2,4.3,7.2A13.8,13.8,0,0,0,231.7,44.9Z"/><g id="_84Xip1" data-name="84Xip1"><path class="cls-2" d="M239.8,42.5a9.8,9.8,0,0,1-2.4-.3l.5-1.8a8.4,8.4,0,0,0,9.7-5.1V35l.5-2.1v-.9a8.3,8.3,0,0,0-6.2-8.5l-.6-.2v-.6a8.5,8.5,0,0,0-1.1-3.4c-1.4-2.3-3-3.6-7.6-4H232l-.2-.6a11.2,11.2,0,0,0-6.6-7.4,10.7,10.7,0,0,0-9.5,1,11.7,11.7,0,0,0-5.3,7.4v.6h-.6a8.6,8.6,0,0,0-6.5,5.2h0l-.2.3-.6,2.3-1.8-.4.7-2.7.2-.3a10.3,10.3,0,0,1,7.3-6.1,13.4,13.4,0,0,1,5.9-7.9,12.6,12.6,0,0,1,11.2-1.2,12.9,12.9,0,0,1,7.5,8c4.9.6,6.9,2.3,8.4,4.9a10.1,10.1,0,0,1,1.3,3.5,10.2,10.2,0,0,1,7,10.1v1.2l-.6,2.5-.2.4-.8-.4.8.5A10.4,10.4,0,0,1,239.8,42.5Z"/></g></svg>