<?xml version="1.0" encoding="utf-8"?>
<!-- Generator: Adobe Illustrator 21.0.2, SVG Export Plug-In . SVG Version: 6.00 Build 0)  -->
<svg version="1.1" id="Layer_1" xmlns="http://www.w3.org/2000/svg" xmlns:xlink="http://www.w3.org/1999/xlink" x="0px" y="0px"
	 viewBox="0 0 126.1 146.7" style="enable-background:new 0 0 126.1 146.7;" xml:space="preserve">
<style type="text/css">
	.st0{fill:#FFFFFF;}
</style>
<title>logo-bizagisites</title>
<g id="App">
	<g id="logo_genome">
		<g id="genome_horitzontal">
			<g id="logo_genome-2">
				<path id="Fill-4" class="st0" d="M8.6,108.6c0.3-2-0.9-4-2.8-4.6V43.2c0.9-0.2,1.8-0.7,2.4-1.4l51.7,31
					c-0.8,2.2,0.4,4.7,2.7,5.5c1.5,0.5,3.2,0.2,4.3-0.9l50.7,30.3c0,0.1,0,0.3,0,0.4c0,0.2,0,0.3,0,0.5L66,138.9
					c-1.8-1.2-4.2-0.9-5.7,0.8L8.6,108.6z M8.5,36.6L60,6.4c0.5,0.9,1.4,1.7,2.4,2v61.7c-0.3,0.1-0.5,0.2-0.7,0.4L9.2,39.1l0,0
					C9.2,38.2,8.9,37.4,8.5,36.6L8.5,36.6z M118.8,105L68.2,74.8c0-0.2,0.1-0.4,0.1-0.7c0-1.9-1.2-3.5-3-4.1V8.3
					c0.5-0.2,0.9-0.4,1.3-0.7l51.1,30.6c-0.4,2.1,0.8,4.2,2.8,4.9v61C119.7,104.3,119.2,104.6,118.8,105L118.8,105z M123.2,104V43
					c2.2-0.8,3.4-3.2,2.6-5.5c-0.8-2.2-3.2-3.4-5.5-2.6c-0.5,0.2-1,0.5-1.4,0.8L68,5.1c0.1-0.3,0.1-0.6,0.1-0.8
					c0-2.4-1.9-4.3-4.3-4.3c-2,0-3.8,1.4-4.2,3.3L5.9,34.8c-2.3-0.6-4.6,0.8-5.2,3.1c-0.1,0.3-0.1,0.7-0.1,1c0,1.6,0.9,3.1,2.3,3.8
					V104c-2.2,0.8-3.4,3.3-2.6,5.5s3.3,3.4,5.5,2.6c0.6-0.2,1.1-0.5,1.5-0.9l52,31.1c0,0,0,0.1,0,0.1c0,2.4,2,4.3,4.3,4.3
					c2.4,0,4.3-2,4.3-4.3c0-0.4-0.1-0.8-0.2-1.2l51.1-30c1.7,1.6,4.4,1.6,6.1-0.1c1.6-1.7,1.6-4.4-0.1-6.1
					C124.3,104.5,123.8,104.2,123.2,104L123.2,104z"/>
			</g>
		</g>
	</g>
</g>
</svg>
