<svg xmlns="http://www.w3.org/2000/svg" viewBox="0 0 283.5 103.3"><defs><style>.a{fill:#fff;}</style></defs><title>logo-bizagi</title><path class="a" d="M282.2,23.9a4.3,4.3,0,0,0-3.1-1.3h-7.4a1.5,1.5,0,0,0-1.5,1.5V74.9a4.2,4.2,0,0,0,1.3,3,4.2,4.2,0,0,0,3,1.3h7.4a1.4,1.4,0,0,0,1.4-1.5V26.9A4.3,4.3,0,0,0,282.2,23.9Z"/><path class="a" d="M76.5,22.6H69.1A1.5,1.5,0,0,0,67.7,24V74.9a4.1,4.1,0,0,0,1.3,3,4.3,4.3,0,0,0,3,1.3h7.4a1.5,1.5,0,0,0,1.5-1.5V26.9a4.2,4.2,0,0,0-1.3-3A4.3,4.3,0,0,0,76.5,22.6Z"/><path class="a" d="M51,30.8a30.1,30.1,0,0,0-21.1-8.2,28.3,28.3,0,0,0-13.2,3.2c-1.2.7-3,1.9-3.1,1.9s0,.2.1.1a23.3,23.3,0,0,1,8.3-2.7.1.1,0,0,1,0,.1,26.2,26.2,0,0,0-8.3,3.5c-.1.1,0,.2.1.1A23,23,0,0,1,22,26.6c.1,0,.1.1,0,.1a29.2,29.2,0,0,0-8.4,3.1c-.1.1,0,.2,0,.1a23.6,23.6,0,0,1,8.4-1.8c.1,0,.1.1,0,.1A33.3,33.3,0,0,0,13.6,31c-.1.1,0,.2,0,.1a26.6,26.6,0,0,1,8.5-1.3.1.1,0,0,1,0,.1c-1,.2-5.6.8-8.5,2.2-.1,0,0,.2,0,.1a31.7,31.7,0,0,1,8.6-.9s.1.1,0,.1a47.6,47.6,0,0,0-8.6,1.8.1.1,0,0,0,0,.1,44.5,44.5,0,0,1,8.7-.5c.1,0,.1.1,0,.1a63.9,63.9,0,0,0-8.7,1.4.1.1,0,0,0,0,.1c2.6-.1,3.6-.1,8.1,0h8a16.2,16.2,0,0,1,11.8,4.8,15.7,15.7,0,0,1,4.9,11.5A16.5,16.5,0,0,1,29.8,67.3,15.9,15.9,0,0,1,18,62.5a15.9,15.9,0,0,1-4.8-11.6V4.3a4.3,4.3,0,0,0-1.3-3.1A4.5,4.5,0,0,0,8.8,0H1.5A1.4,1.4,0,0,0,0,1.4V50.8a26.9,26.9,0,0,0,8.8,20,29.6,29.6,0,0,0,21.1,8.3A29.8,29.8,0,0,0,51,70.9a26.7,26.7,0,0,0,8.8-20A26.5,26.5,0,0,0,51,30.8Z"/><path class="a" d="M188.6,30.9a30.8,30.8,0,0,0-42.2,0,26.7,26.7,0,0,0-8.8,20,26.4,26.4,0,0,0,8.8,20,29.6,29.6,0,0,0,21,8.3,28.1,28.1,0,0,0,10-1.7,23.4,23.4,0,0,0,6.1-3.2.1.1,0,0,0-.1-.1,21.1,21.1,0,0,1-8.2,2.6c-.1,0-.1-.1,0-.1a31.5,31.5,0,0,0,8.3-3.5c.1-.1,0-.2-.1-.1a21.4,21.4,0,0,1-8.3,2.3.1.1,0,1,1,0-.1,36.4,36.4,0,0,0,8.3-3.2c.1,0,0-.2,0-.1a22.4,22.4,0,0,1-8.4,1.9c-.1,0-.1-.1,0-.1a39.9,39.9,0,0,0,8.4-2.8.1.1,0,0,0,0-.1,23.9,23.9,0,0,1-8.4,1.5c-.1,0-.1-.1,0-.1a44.7,44.7,0,0,0,8.5-2.4c.1,0,0-.2,0-.1a28.9,28.9,0,0,1-8.5,1.1.1.1,0,1,1,0-.1,53.5,53.5,0,0,0,8.5-1.9.1.1,0,0,0,0-.1,37,37,0,0,1-8.5.7.1.1,0,1,1,0-.1,82.9,82.9,0,0,0,8.5-1.5.1.1,0,0,0,0-.1c-4.9.4-7.2.1-10.6.1h-5.5a15.9,15.9,0,0,1-11.7-4.8A15.7,15.7,0,0,1,150.8,51a16.7,16.7,0,0,1,33.4,0V77.7a1.5,1.5,0,0,0,1.5,1.5h10.3a1.5,1.5,0,0,0,1.5-1.5V51A26.6,26.6,0,0,0,188.6,30.9Z"/><path class="a" d="M93.2,34.7h14.2l5.1-.2c3.6-.2,5.9-1.3,8.8-1.5a.1.1,0,0,0,0-.1c-2.8-.1-6.8.3-7.7.4s-.1-.1,0-.1a53.9,53.9,0,0,1,8.9-1.4.1.1,0,0,0,0-.1,59,59,0,0,0-7.7.3c-.1,0-.1-.1,0-.1a41.2,41.2,0,0,1,8.9-1.3.1.1,0,1,0,0-.1,51.8,51.8,0,0,0-7.9.3c-.1,0-.1-.1,0-.1a46,46,0,0,1,8.8-1.2.1.1,0,0,0,0-.1,40.1,40.1,0,0,0-7.9.1c-.1,0-.1-.1,0-.1a35.8,35.8,0,0,1,8.6-1,.1.1,0,0,0,0-.1,32.7,32.7,0,0,0-7.9,0c-.1,0-.1-.1,0-.1a33.4,33.4,0,0,1,8.4-.9.1.1,0,0,0,0-.1,27.6,27.6,0,0,0-7.9-.1c-.1,0-.1-.1,0-.1a29,29,0,0,1,8-.7.1.1,0,0,0,0-.1,24.5,24.5,0,0,0-7.9-.3c-.1,0-.1-.1,0-.1a22.6,22.6,0,0,1,7.4-.7c.1,0,.1-.1,0-.1a19.7,19.7,0,0,0-7.8-.4c-.1,0-.1-.1,0-.1a23.2,23.2,0,0,1,6.8-.5.1.1,0,0,0,0-.1,14.7,14.7,0,0,0-3.5-.5H90.4A1.4,1.4,0,0,0,88.9,24v6.3a4.3,4.3,0,0,0,1.3,3.1A4.2,4.2,0,0,0,93.2,34.7Z"/><path class="a" d="M128.6,67.1H114.5l-5.1.2c-3.7.2-6,1.3-8.8,1.5a.1.1,0,0,0,0,.1c2.8.1,6.8-.3,7.7-.4s.1.1,0,.1A53.7,53.7,0,0,1,99.4,70a.1.1,0,0,0,0,.1,59.6,59.6,0,0,0,7.7-.3c.1,0,.1.1,0,.1a41.7,41.7,0,0,1-8.9,1.3.1.1,0,1,0,0,.1,46.7,46.7,0,0,0,7.8-.3c.1,0,.1.1,0,.1a42.7,42.7,0,0,1-8.8,1.2.1.1,0,0,0,0,.1,40.2,40.2,0,0,0,7.9-.1c.1,0,.1.1,0,.1a36,36,0,0,1-8.6,1,.1.1,0,0,0,0,.1,32.8,32.8,0,0,0,7.9,0c.1,0,.1.1,0,.1a33.3,33.3,0,0,1-8.4.9.1.1,0,0,0,0,.1,27.8,27.8,0,0,0,7.9.1c.1,0,.1.1,0,.1a29.2,29.2,0,0,1-8,.7c-.1,0-.1.1,0,.1a25.3,25.3,0,0,0,7.9.2c.1,0,.1.1,0,.1a22.8,22.8,0,0,1-7.5.7c-.1,0-.1.1,0,.1a20,20,0,0,0,7.8.4c.1,0,.1.1,0,.1a23.3,23.3,0,0,1-6.8.5.1.1,0,0,0,0,.1,14.7,14.7,0,0,0,3.4.5h30.6a1.4,1.4,0,0,0,1.5-1.5V71.4a4.3,4.3,0,0,0-1.3-3.1A4.2,4.2,0,0,0,128.6,67.1Z"/><path class="a" d="M101.6,67.1l27.9-24.4a11.9,11.9,0,0,0-4-19.2c-.1,0-.1,0-.1.1,2.7,2.6-.8,7-3.5,9.6L92.4,59.1A12,12,0,0,0,89,67.4a11.6,11.6,0,0,0,6.8,10.7h0C93.3,74.1,101.6,67.1,101.6,67.1Z"/><path class="a" d="M253.5,30.9a31,31,0,0,0-42.3,0,26.8,26.8,0,0,0-8.8,20,26.5,26.5,0,0,0,8.7,20,29.8,29.8,0,0,0,21.1,8.3h2a28.1,28.1,0,0,0,8.2-1.7,23.6,23.6,0,0,0,6-3.2.1.1,0,0,0-.1-.1,20.7,20.7,0,0,1-8.2,2.6c-.1,0-.1-.1,0-.1a30.8,30.8,0,0,0,8.3-3.5c.1-.1,0-.2-.1-.1a21,21,0,0,1-8.3,2.3.1.1,0,1,1,0-.1,35.9,35.9,0,0,0,8.3-3.2c.1,0,0-.2,0-.1a22.1,22.1,0,0,1-8.4,1.9c-.1,0-.1-.1,0-.1a39.6,39.6,0,0,0,8.4-2.8.1.1,0,0,0,0-.1,23.5,23.5,0,0,1-8.4,1.5c-.1,0-.1-.1,0-.1a44.7,44.7,0,0,0,8.5-2.4.1.1,0,0,0,0-.1,28.6,28.6,0,0,1-8.5,1.1.1.1,0,1,1,0-.1,53.6,53.6,0,0,0,8.5-1.9.1.1,0,0,0,0-.1,36.8,36.8,0,0,1-8.5.7c-.1,0-.1-.1,0-.1a83,83,0,0,0,8.5-1.5.1.1,0,0,0,0-.1c-4.9.4-7.2.1-10.6.1h-5.5a16.1,16.1,0,0,1-11.8-4.8A15.7,15.7,0,0,1,215.5,51a15.9,15.9,0,0,1,4.9-11.6A16.7,16.7,0,0,1,248.9,51s.2,25.7.1,26a14.6,14.6,0,0,1-5,9.9,16.5,16.5,0,0,1-11.7,4.6H219a4.3,4.3,0,0,0-3.1,1.3,4.4,4.4,0,0,0-1.2,3.1v6.1a1.4,1.4,0,0,0,1.4,1.5h16.2a30.2,30.2,0,0,0,21.1-8.2,26.7,26.7,0,0,0,8.8-20V51A26.9,26.9,0,0,0,253.5,30.9Z"/></svg>