<svg xmlns="http://www.w3.org/2000/svg" viewBox="0 0 96 96"><defs><style>.cls-1{opacity:0;}.cls-2{fill:#fff;}.cls-3{fill:#a7a7a7;}.cls-4{fill:#dcdcdc;opacity:0.4;}.cls-5,.cls-6{opacity:0.2;}</style></defs><title>ilust-laptop-email</title><g id="BG"><g class="cls-1"><rect class="cls-2" width="96" height="96"/></g></g><g id="Layer_1" data-name="Layer 1"><path class="cls-3" d="M88.13,71.67V26.31a4.91,4.91,0,0,0-4.91-4.91H12.54a4.91,4.91,0,0,0-4.91,4.91V71.67H2.37v2.27a4.92,4.92,0,0,0,4.92,4.92H88.71a4.92,4.92,0,0,0,4.92-4.92V71.67ZM54,75H42a3.36,3.36,0,0,1-3.35-3.36H57.32A3.36,3.36,0,0,1,54,75Zm30.12-9.26a3,3,0,0,1-3,2.9H14.65a3,3,0,0,1-3-2.9V28.5a3,3,0,0,1,3-2.9H81.11a3,3,0,0,1,3,2.9Z"/><rect class="cls-4" x="2" y="77.24" width="92" height="3.37" rx="1.47"/><g class="cls-5"><path d="M47.71,24.16,41.23,8.07a1.94,1.94,0,0,0-.43-.65L31.13,22.86a2.6,2.6,0,0,1-2.6,1L11,19.43a2.15,2.15,0,0,0,.15.77l6.48,16.08a2,2,0,0,0,2.61,1.11L46.61,26.76A2,2,0,0,0,47.71,24.16Z"/><path d="M30.71,22,40.39,6.51a2,2,0,0,0-2.18-.46L11.85,16.68a2,2,0,0,0-1.25,1.84L28.12,23A2.61,2.61,0,0,0,30.71,22Z"/></g><path class="cls-6" d="M90.9,31.34l-33.3-8a1.55,1.55,0,0,0-1.88,1.15L49.84,48.86A1.57,1.57,0,0,0,51,50.74l33.3,8a1.57,1.57,0,0,0,1.89-1.15l5.87-24.39A1.55,1.55,0,0,0,90.9,31.34ZM62.32,26.06a.81.81,0,1,1-1,.6A.81.81,0,0,1,62.32,26.06Zm-2.16-.52a.81.81,0,1,1-1,.6A.8.8,0,0,1,60.16,25.54Zm1,5.82a3.35,3.35,0,1,1-4,2.48A3.36,3.36,0,0,1,61.15,31.36ZM57.62,26.6a.81.81,0,1,1,1-.6A.81.81,0,0,1,57.62,26.6ZM73.79,51,55.12,46.46a1,1,0,0,1,.48-2L74.27,49A1,1,0,0,1,75,50.2,1,1,0,0,1,73.79,51Zm.74-3-18.68-4.5a1,1,0,0,1-.75-1.24,1,1,0,0,1,1.23-.75L75,45.93a1,1,0,0,1-.48,2Zm5.39,5.29a3.35,3.35,0,1,1,4-2.47A3.35,3.35,0,0,1,79.92,53.21Zm4.82-10.06-18.67-4.5a1,1,0,0,1-.76-1.23,1,1,0,0,1,1.24-.76l18.67,4.5a1,1,0,0,1-.48,2Zm.73-3L66.8,35.62a1,1,0,0,1,.48-2L86,38.12a1,1,0,0,1-.48,2Z"/></g></svg>