<?xml version="1.0" encoding="utf-8"?>
<!-- Generator: Adobe Illustrator 21.1.0, SVG Export Plug-In . SVG Version: 6.00 Build 0)  -->
<svg version="1.1" id="icon-bizagi-sites" xmlns="http://www.w3.org/2000/svg" xmlns:xlink="http://www.w3.org/1999/xlink" x="0px"
	 y="0px" viewBox="0 0 46 46" style="enable-background:new 0 0 46 46;" xml:space="preserve">
<style type="text/css">
	.st0{fill:#FFFFFF;}
	.st1{opacity:0.3;fill:#FFFFFF;enable-background:new    ;}
</style>
<title>Icon Sites</title>
<g>
	<path class="st0" d="M22.6,46c-0.3,0-0.5-0.2-0.5-0.5v-45c0-0.3,0.2-0.5,0.5-0.5s0.5,0.2,0.5,0.5v45C23.1,45.8,22.9,46,22.6,46z"/>
	<path class="st1" d="M38.1,38c-0.3,0-0.5-0.2-0.5-0.5v-29c0-0.3,0.2-0.5,0.5-0.5s0.5,0.2,0.5,0.5v29C38.6,37.8,38.4,38,38.1,38z"/>
	<path class="st1" d="M42.8,17.4h-0.2L22.3,5.6c-0.2-0.1-0.3-0.5-0.2-0.7c0.1-0.2,0.5-0.3,0.7-0.2l20.3,11.8
		c0.2,0.2,0.3,0.5,0.1,0.7C43.1,17.3,43,17.4,42.8,17.4z"/>
	<path class="st1" d="M22.6,41.5c-0.3,0-0.5-0.2-0.5-0.5c0-0.2,0.1-0.3,0.2-0.4l20.3-11.8c0.2-0.1,0.6,0,0.7,0.2s0,0.6-0.2,0.7
		L22.9,41.4L22.6,41.5z"/>
	<path class="st0" d="M22.6,41.5h-0.2L6.6,32.3V13.8l15.8-9.1c0.2-0.1,0.6,0,0.7,0.2s0,0.6-0.2,0.7l0,0L7.6,14.4v17.3l15.3,8.8
		c0.2,0.2,0.3,0.5,0.1,0.7C23,41.3,22.8,41.4,22.6,41.5L22.6,41.5z"/>
	<path class="st0" d="M22.6,41.5c-0.3,0-0.5-0.3-0.4-0.6c0-0.1,0.1-0.2,0.2-0.3l0.9-0.5c0.2-0.1,0.6,0,0.7,0.2s0,0.6-0.2,0.7
		l-0.9,0.5C22.9,41.5,22.6,41.5,22.6,41.5z"/>
	<path class="st0" d="M26.9,39c-0.3,0-0.5-0.3-0.4-0.6c0-0.1,0.1-0.2,0.2-0.3l1.7-1c0.2-0.1,0.6,0,0.7,0.2s0,0.6-0.2,0.7l-1.7,1
		C27.2,39,26.9,39,26.9,39z M32.1,36c-0.3,0-0.5-0.3-0.4-0.6c0-0.1,0.1-0.2,0.2-0.3l1.7-1c0.2-0.1,0.6,0,0.7,0.2s0,0.6-0.2,0.7
		l-1.7,1C32.4,36,32.1,36,32.1,36z"/>
	<path class="st0" d="M37.2,33c-0.3,0-0.5-0.3-0.4-0.6c0-0.1,0.1-0.2,0.2-0.3l0.6-0.4V31c0-0.3,0.2-0.5,0.5-0.5s0.5,0.2,0.5,0.5v1.3
		l-1.1,0.6L37.2,33z"/>
	<path class="st0" d="M38.1,27.5c-0.3,0-0.5-0.2-0.5-0.5v-2c0-0.3,0.2-0.5,0.5-0.5s0.5,0.2,0.5,0.5v2C38.6,27.3,38.4,27.5,38.1,27.5
		z M38.1,21.5c-0.3,0-0.5-0.2-0.5-0.5v-2c0-0.3,0.2-0.5,0.5-0.5s0.5,0.2,0.5,0.5v2c0.1,0.3-0.1,0.5-0.4,0.6h-0.1V21.5z"/>
	<path class="st0" d="M38.1,15.6c-0.3,0-0.5-0.2-0.5-0.5v-0.7L37,14c-0.2-0.1-0.3-0.5-0.2-0.7s0.5-0.3,0.7-0.2l1.1,0.6V15
		C38.7,15.3,38.5,15.5,38.1,15.6C38.2,15.6,38.2,15.6,38.1,15.6z"/>
	<path class="st0" d="M33.8,12.1h-0.2l-1.7-1c-0.2-0.1-0.3-0.5-0.2-0.7c0.1-0.2,0.5-0.3,0.7-0.2l0,0l1.7,1c0.2,0.2,0.3,0.5,0.1,0.7
		C34.2,12,34,12.1,33.8,12.1L33.8,12.1z M28.6,9.1h-0.2l-1.7-1c-0.2-0.1-0.3-0.5-0.2-0.7c0.1-0.2,0.5-0.3,0.7-0.2l0,0l1.7,1
		c0.2,0.2,0.3,0.5,0.1,0.7C29,9,28.8,9.1,28.6,9.1L28.6,9.1z"/>
	<path class="st0" d="M23.5,6.2h-0.2l-0.9-0.5c-0.2-0.1-0.3-0.5-0.2-0.7s0.5-0.3,0.7-0.2l0,0l0.9,0.5C24,5.5,24.1,5.8,23.9,6
		c-0.1,0.1-0.2,0.2-0.3,0.2H23.5z"/>
	<path class="st1" d="M22.6,38c-0.3,0-0.5-0.2-0.5-0.5s0.2-0.5,0.5-0.5c7.7,0,14-6.3,14-14s-6.3-14-14-14c-0.3,0-0.5-0.2-0.5-0.5
		S22.3,8,22.6,8c8.3,0,15,6.7,15,15S30.9,38,22.6,38z"/>
	<path class="st1" d="M22.6,31c-0.3,0-0.5-0.2-0.5-0.5s0.2-0.5,0.5-0.5c3.9,0,7-3.1,7-7s-3.1-7-7-7c-0.3,0-0.5-0.2-0.5-0.5
		s0.2-0.5,0.5-0.5c4.4,0,8,3.6,8,8S27,31,22.6,31z"/>
	<path class="st0" d="M20.1,22.1h-0.2L6.9,15c-0.2-0.1-0.3-0.5-0.2-0.7c0.1-0.2,0.5-0.3,0.7-0.2l13,7.1c0.2,0.2,0.3,0.5,0.1,0.7
		C20.5,22,20.3,22.1,20.1,22.1L20.1,22.1z"/>
	<path class="st0" d="M37.2,32H37l-1.7-1c-0.2-0.1-0.3-0.5-0.2-0.7s0.5-0.3,0.7-0.2l1.7,1c0.2,0.2,0.3,0.5,0.1,0.7
		C37.6,31.9,37.4,32,37.2,32L37.2,32z M32,29h-0.2l-1.7-1c-0.2-0.1-0.3-0.5-0.2-0.7s0.5-0.3,0.7-0.2l1.7,1c0.2,0.2,0.3,0.5,0.1,0.7
		C32.4,28.9,32.2,29,32,29L32,29z M26.8,26h-0.2l-1.7-1c-0.2-0.1-0.3-0.5-0.2-0.7s0.5-0.3,0.7-0.2l1.7,1c0.2,0.2,0.3,0.5,0.1,0.7
		c0,0.1-0.2,0.2-0.3,0.2H26.8z"/>
	<polygon class="st0" points="25.1,24.5 25.1,21.6 22.6,20.2 20.1,21.6 20.1,24.5 22.6,25.9 	"/>
</g>
</svg>
