<svg id="Layer_1" data-name="Layer 1" xmlns="http://www.w3.org/2000/svg" viewBox="0 0 478.81 122.03"><defs><style>.cls-1{fill:#fff;}</style></defs><title>Artboard 1</title><path class="cls-1" d="M333.29,28.18a5.1,5.1,0,0,0-3.64-1.51H321a1.71,1.71,0,0,0-1.71,1.72V88.5A4.9,4.9,0,0,0,320.76,92a5,5,0,0,0,3.55,1.51h8.77a1.67,1.67,0,0,0,1.65-1.72V31.78A5.06,5.06,0,0,0,333.29,28.18Z"/><path class="cls-1" d="M90.36,26.68H81.65a1.71,1.71,0,0,0-1.71,1.72V88.5A4.9,4.9,0,0,0,81.45,92,5.07,5.07,0,0,0,85,93.56h8.73a1.72,1.72,0,0,0,1.72-1.72V31.78A5,5,0,0,0,94,28.18,5.09,5.09,0,0,0,90.36,26.68Z"/><path class="cls-1" d="M60.21,36.41a35.53,35.53,0,0,0-25-9.73,33.36,33.36,0,0,0-15.54,3.79c-1.45.77-3.55,2.2-3.61,2.25s0,.19.06.15a27.47,27.47,0,0,1,9.75-3.2.08.08,0,0,1,0,.16A31,31,0,0,0,16.1,34c-.11.06,0,.19.06.15A27.18,27.18,0,0,1,26,31.46c.07,0,.15.13,0,.16a34.47,34.47,0,0,0-9.92,3.69c-.11.07,0,.18.05.15a27.92,27.92,0,0,1,9.94-2.16c.1,0,.14.14,0,.16-1.23.25-6.39,1.17-10,3.1-.12.06,0,.19,0,.15a31.45,31.45,0,0,1,10-1.57.08.08,0,0,1,0,.16c-1.21.21-6.64,1-10.09,2.58-.1.06-.05.18,0,.16a37.38,37.38,0,0,1,10.15-1.1c.06,0,.13.14,0,.16-1.19.17-6.89.86-10.18,2.11a.08.08,0,0,0,0,.16,52.58,52.58,0,0,1,10.25-.59c.07,0,.12.15,0,.16a75.43,75.43,0,0,0-10.26,1.63.08.08,0,0,0,0,.17c3.11-.15,4.28-.1,9.62,0H35.2a19.11,19.11,0,0,1,14,5.69A18.55,18.55,0,0,1,54.9,60,19.43,19.43,0,0,1,35.2,79.46a18.82,18.82,0,0,1-14-5.69A18.82,18.82,0,0,1,15.53,60V5.1A5.09,5.09,0,0,0,14,1.47,5.27,5.27,0,0,0,10.41,0H1.72A1.71,1.71,0,0,0,0,1.67V60A31.71,31.71,0,0,0,10.34,83.7a35,35,0,0,0,24.9,9.86,35.18,35.18,0,0,0,25-9.86A31.53,31.53,0,0,0,70.58,60,31.3,31.3,0,0,0,60.21,36.41Z"/><path class="cls-1" d="M222.72,36.53a36.37,36.37,0,0,0-49.78,0A31.54,31.54,0,0,0,162.56,60.2a31.2,31.2,0,0,0,10.37,23.59,35,35,0,0,0,24.83,9.78,33.21,33.21,0,0,0,11.84-2,27.64,27.64,0,0,0,7.17-3.78.08.08,0,0,0-.09-.13A24.87,24.87,0,0,1,207,90.68c-.06,0-.15-.13,0-.16a37.15,37.15,0,0,0,9.8-4.12c.09-.09,0-.18-.08-.14a25.25,25.25,0,0,1-9.78,2.67.08.08,0,1,1,0-.16A43,43,0,0,0,216.75,85c.09-.05,0-.18-.05-.15a26.48,26.48,0,0,1-9.87,2.2c-.09,0-.13-.14,0-.16a47.14,47.14,0,0,0,9.93-3.26.08.08,0,0,0-.05-.15,28.18,28.18,0,0,1-9.93,1.72c-.1,0-.12-.14,0-.16a52.76,52.76,0,0,0,10-2.78c.09-.06,0-.18,0-.15a34.09,34.09,0,0,1-10,1.25.08.08,0,1,1,0-.16,63.23,63.23,0,0,0,10-2.3.08.08,0,0,0,0-.16,43.68,43.68,0,0,1-10.07.77.08.08,0,1,1,0-.16,97.91,97.91,0,0,0,10.09-1.82.08.08,0,0,0,0-.16c-5.84.42-8.56.07-12.51.07h-6.48a18.79,18.79,0,0,1-13.87-5.64,18.52,18.52,0,0,1-5.79-13.62,19.7,19.7,0,0,1,39.4,0V91.77a1.78,1.78,0,0,0,1.78,1.78h12.12a1.72,1.72,0,0,0,1.72-1.72V60.2A31.46,31.46,0,0,0,222.72,36.53Z"/><path class="cls-1" d="M110.09,41h16.72c1.83,0,1.2,0,6-.19,4.28-.18,7-1.53,10.34-1.82a.08.08,0,0,0,0-.16c-3.28-.07-8,.41-9,.5-.12,0-.07-.15,0-.16a63.6,63.6,0,0,1,10.55-1.67.08.08,0,0,0,0-.16,69.67,69.67,0,0,0-9.13.38c-.12,0-.07-.16,0-.16A48.68,48.68,0,0,1,145.91,36a.08.08,0,1,0,0-.16,61.18,61.18,0,0,0-9.29.31c-.12,0-.08-.16,0-.16A54.3,54.3,0,0,1,147,34.58a.08.08,0,0,0,0-.16,47.34,47.34,0,0,0-9.33.1c-.13,0-.06-.16,0-.16a42.26,42.26,0,0,1,10.11-1.21.08.08,0,0,0,0-.16,38.66,38.66,0,0,0-9.33,0c-.13,0-.07-.16,0-.16a39.42,39.42,0,0,1,9.89-1.11.08.08,0,0,0,0-.16,32.61,32.61,0,0,0-9.33-.17c-.13,0-.07-.16,0-.16a34.21,34.21,0,0,1,9.44-.86.09.09,0,0,0,0-.17,28.91,28.91,0,0,0-9.28-.33c-.14,0-.08-.16,0-.16a26.66,26.66,0,0,1,8.79-.79c.1,0,.11-.14,0-.16a23.3,23.3,0,0,0-9.16-.5c-.12,0-.12-.14,0-.16a27.43,27.43,0,0,1,8-.63.08.08,0,0,0,0-.16,17.39,17.39,0,0,0-4.1-.59H106.7A1.71,1.71,0,0,0,105,28.39v7.49a5.12,5.12,0,0,0,1.5,3.64A5,5,0,0,0,110.09,41Z"/><path class="cls-1" d="M151.88,79.2H135.16c-1.83,0-1.2,0-6,.19-4.32.18-7,1.53-10.34,1.82a.08.08,0,0,0,0,.16c3.28.07,8-.41,9-.5.13,0,.07.15,0,.16a63.47,63.47,0,0,1-10.56,1.67.08.08,0,0,0,0,.17,70.33,70.33,0,0,0,9.14-.38c.12,0,.07.16,0,.16a49.28,49.28,0,0,1-10.46,1.56.08.08,0,1,0,0,.16,55.18,55.18,0,0,0,9.25-.31c.12,0,.08.16,0,.16A50.41,50.41,0,0,1,115,85.69a.08.08,0,0,0,0,.16,47.47,47.47,0,0,0,9.34-.1c.13,0,.06.15,0,.16a42.54,42.54,0,0,1-10.15,1.21.08.08,0,0,0,0,.16,38.79,38.79,0,0,0,9.37,0c.13,0,.07.16,0,.16a39.3,39.3,0,0,1-9.94,1.12.08.08,0,0,0,0,.16,32.88,32.88,0,0,0,9.37.18c.13,0,.07.16,0,.17a34.47,34.47,0,0,1-9.48.86c-.09,0-.1.14,0,.17a29.93,29.93,0,0,0,9.31.29c.14,0,.08.16,0,.17a26.87,26.87,0,0,1-8.83.79c-.1,0-.11.14,0,.16a23.56,23.56,0,0,0,9.21.5c.12,0,.12.14,0,.16a27.46,27.46,0,0,1-8,.63.08.08,0,0,0,0,.16,17.37,17.37,0,0,0,4.07.59h36.13A1.71,1.71,0,0,0,157,91.84V84.35a5.12,5.12,0,0,0-1.51-3.65A5,5,0,0,0,151.88,79.2Z"/><path class="cls-1" d="M120,79.18,152.91,50.4a14,14,0,0,0-4.76-22.66c-.09,0-.14,0-.08.08,3.19,3.1-1,8.27-4.13,11.39,0,0-34.88,30.61-34.88,30.61a14.15,14.15,0,0,0-3.92,9.71,13.68,13.68,0,0,0,8.06,12.69c.05,0,.08,0,.05-.06C110.22,87.51,120,79.18,120,79.18Z"/><path class="cls-1" d="M299.29,36.53a36.57,36.57,0,0,0-49.93,0A31.68,31.68,0,0,0,239,60.2a31.34,31.34,0,0,0,10.33,23.59,35.15,35.15,0,0,0,24.92,9.78h.41c.65,0,1.29,0,1.91-.06h0a33.2,33.2,0,0,0,9.63-2,27.89,27.89,0,0,0,7.08-3.78.08.08,0,0,0-.09-.13,24.44,24.44,0,0,1-9.71,3.06c-.06,0-.15-.13,0-.16a36.42,36.42,0,0,0,9.8-4.12c.09-.09,0-.18-.08-.14a24.84,24.84,0,0,1-9.77,2.67.08.08,0,1,1,0-.16A42.4,42.4,0,0,0,293.27,85c.09-.05,0-.18-.06-.15a26.07,26.07,0,0,1-9.87,2.2c-.09,0-.12-.14,0-.16a46.81,46.81,0,0,0,9.93-3.26.08.08,0,0,0-.06-.15,27.8,27.8,0,0,1-9.93,1.72c-.09,0-.12-.14,0-.16a52.76,52.76,0,0,0,10-2.78.08.08,0,0,0,0-.15,33.73,33.73,0,0,1-10,1.25.08.08,0,1,1,0-.16,63.25,63.25,0,0,0,10-2.3.08.08,0,0,0,0-.16,43.46,43.46,0,0,1-10.07.77c-.09,0-.14-.14,0-.16a98,98,0,0,0,10.09-1.82.08.08,0,0,0,0-.16c-5.75.42-8.5.07-12.51.07h-6.5a19,19,0,0,1-14-5.64,18.5,18.5,0,0,1-5.79-13.62,18.72,18.72,0,0,1,5.73-13.69A19.67,19.67,0,0,1,293.87,60.2s.19,30.37.17,30.65c-.25,4.55-2.54,8.47-5.94,11.65a19.53,19.53,0,0,1-13.76,5.46H258.65a5.11,5.11,0,0,0-3.64,1.51,5.19,5.19,0,0,0-1.41,3.63v7.24a1.65,1.65,0,0,0,1.62,1.72h19.13a35.69,35.69,0,0,0,25-9.73,31.52,31.52,0,0,0,10.36-23.62V60.2A31.74,31.74,0,0,0,299.29,36.53Z"/><path class="cls-1" d="M388.57,53s-8.22-1-11.7-1c-6.84,0-10.68,2.4-10.68,8.4,0,7.32,3.72,8.22,11.28,9.42,7.92,1.26,12.24,3.06,12.24,10.62,0,9.36-4.44,12.6-12.72,12.6-4.5,0-12.84-1-12.84-1l.24-2.1s8.28,1,12.54,1c6.84,0,10.5-2.88,10.5-10.38,0-6.12-3.12-7.5-10.5-8.64-8.22-1.26-13-2.64-13-11.46,0-7.74,5-10.56,13-10.56a118.52,118.52,0,0,1,11.94,1Z"/><path class="cls-1" d="M397.69,50.56h2.1v3.3h-2.1Zm0,12h2.1v30h-2.1Z"/><path class="cls-1" d="M413.11,64.48V80.2c0,8.94.66,11,5.52,11,1.68,0,5.88-.48,5.88-.48l.18,1.92s-4,.48-6.06.48c-5.46,0-7.62-2-7.62-10.68v-18h-4.74V62.56H411V52.78h2.1v9.78H424v1.92Z"/><path class="cls-1" d="M450.79,90.64l.12,1.92s-6.72.54-11.1.54c-8.94-.06-11.28-5.76-11.28-15.54,0-11.88,5.28-15.54,12.12-15.54C448,62,452,66,452,76.42v2h-21.3c0,8.28,2.16,12.78,9.12,12.78C444.07,91.18,450.79,90.64,450.79,90.64Zm-1-14.16c0-9.18-2.94-12.54-9.18-12.54-6,0-9.9,3.42-9.9,12.54Z"/><path class="cls-1" d="M478.69,64.9a83.5,83.5,0,0,0-10.2-1c-3.84,0-8,1.14-8,6,0,3.72,1.62,4.86,8.52,5.94,7.86,1.26,10.92,2.4,10.92,8,0,7-4.32,9.18-11.4,9.18a93.38,93.38,0,0,1-9.9-1l.24-2a89.05,89.05,0,0,0,9.54,1c5.64,0,9.3-1.32,9.3-7.08,0-4.32-2.16-5.16-9.3-6.24s-10.14-2.22-10.14-7.8c0-6.36,5.4-8,10.26-8a79.32,79.32,0,0,1,10.32.9Z"/></svg>