<svg id="Layer_1" data-name="Layer 1" xmlns="http://www.w3.org/2000/svg" viewBox="0 0 200 32"><defs><style>.cls-1{fill:#f8f8f8;}.cls-2{fill:#d8d8d8;}.cls-3{fill:#404f5b;}</style></defs><title>Experience-NewCase</title><rect class="cls-1" width="200" height="32" rx="4" ry="4"/><rect class="cls-2" x="35" y="12" width="96" height="8"/><path class="cls-3" d="M18,8.5A7.5,7.5,0,1,0,25.5,16,7.5,7.5,0,0,0,18,8.5Zm0,14A6.5,6.5,0,1,1,24.5,16,6.5,6.5,0,0,1,18,22.5Z"/><path class="cls-3" d="M21.5,15.5h-3v-3a.5.5,0,0,0-1,0v3h-3a.5.5,0,0,0,0,1h3v3a.5.5,0,0,0,1,0v-3h3a.5.5,0,0,0,0-1Z"/></svg>