<svg id="Layer_1" data-name="Layer 1" xmlns="http://www.w3.org/2000/svg" viewBox="0 0 200 48.7"><defs><style>.cls-1{fill:#f8f8f8;}.cls-2{fill:#d8d8d8;}.cls-3{fill:#404f5b;}</style></defs><title>Experience-Inbox</title><rect class="cls-1" width="95.8" height="48.53" rx="3.4" ry="3.4"/><rect class="cls-2" x="30.4" y="18.1" width="58.1" height="7.37"/><circle class="cls-2" cx="16.1" cy="16.7" r="8.8"/><rect class="cls-2" x="7.4" y="31" width="81.1" height="3.8"/><rect class="cls-2" x="7.4" y="37.4" width="81.1" height="3.8"/><path class="cls-3" d="M87.5,12.9l-2-2a2.5,2.5,0,1,0-.6.6l2,2ZM81.9,9.5a1.6,1.6,0,1,1,1.6,1.6A1.6,1.6,0,0,1,81.9,9.5Z"/><rect class="cls-1" x="104.2" width="95.8" height="48.53" rx="3.4" ry="3.4"/><rect class="cls-2" x="134.6" y="18.1" width="58.1" height="7.37"/><circle class="cls-2" cx="120.3" cy="16.7" r="8.8"/><rect class="cls-2" x="111.5" y="31" width="81.1" height="3.8"/><rect class="cls-2" x="111.5" y="37.4" width="81.1" height="3.8"/><path class="cls-3" d="M191.7,12.9l-2-2a2.5,2.5,0,1,0-.6.6l2,2Zm-5.6-3.4a1.6,1.6,0,1,1,1.6,1.6A1.6,1.6,0,0,1,186.1,9.5Z"/></svg>