<svg id="Layer_1" data-name="Layer 1" xmlns="http://www.w3.org/2000/svg" viewBox="0 0 200 32"><defs><style>.cls-1{fill:#f8f8f8;}.cls-2{fill:#d8d8d8;}.cls-3{fill:#404f5b;}</style></defs><title>Experience-Pendings</title><rect class="cls-1" width="200" height="32" rx="4" ry="4"/><rect class="cls-2" x="35" y="12" width="96" height="8"/><polygon class="cls-3" points="24 22.7 13.5 22.7 13.5 10.2 16 10.2 16 10.7 14 10.7 14 22.2 23.5 22.2 23.5 10.7 21.7 10.7 21.7 10.2 24 10.2 24 22.7"/><circle class="cls-3" cx="16" cy="15.9" r="0.5"/><path class="cls-3" d="M21.5,16.3h-4a.4.4,0,0,1,0-.8h4a.4.4,0,0,1,0,.8Z"/><circle class="cls-3" cx="16" cy="17.9" r="0.5"/><path class="cls-3" d="M21.5,18.3h-4a.4.4,0,0,1,0-.8h4a.4.4,0,0,1,0,.8Z"/><circle class="cls-3" cx="16" cy="19.9" r="0.5"/><path class="cls-3" d="M21.5,20.3h-4a.4.4,0,0,1,0-.8h4a.4.4,0,0,1,0,.8Z"/><path class="cls-3" d="M21.9,12.6H15.5V10.2h1v-1h4.5v1h1Zm-6-.5h5.5V10.6h-1v-1H16.9v1h-1Z"/></svg>