<svg id="Layer_1" data-name="Layer 1" xmlns="http://www.w3.org/2000/svg" viewBox="0 0 200 20.3"><defs><style>.cls-1{fill:#555;}</style></defs><title>SubtitleRegular-EN</title><path class="cls-1" d="M9,11.4a3.5,3.5,0,0,1-1.4,2.9,5.9,5.9,0,0,1-3.7,1.1A9.3,9.3,0,0,1,0,14.7V13.1l1.9.6,2.1.2a4.1,4.1,0,0,0,2.5-.6,2.1,2.1,0,0,0,.8-1.8A2.3,2.3,0,0,0,7,10.3a2.8,2.8,0,0,0-1-.9L3.9,8.6A6.8,6.8,0,0,1,1,6.9,3.7,3.7,0,0,1,.2,4.3,3.2,3.2,0,0,1,1.4,1.7,5.2,5.2,0,0,1,4.7.7a9.7,9.7,0,0,1,3.9.8L8.1,2.9a8.8,8.8,0,0,0-3.4-.7,3.3,3.3,0,0,0-2.1.6,1.9,1.9,0,0,0-.7,1.6,2.4,2.4,0,0,0,.3,1.2,2.6,2.6,0,0,0,.9.9l2,.9A7.9,7.9,0,0,1,8.1,9,3.4,3.4,0,0,1,9,11.4Z"/><path class="cls-1" d="M13.2,4.5v6.9a2.8,2.8,0,0,0,.6,2,2.4,2.4,0,0,0,1.9.6,3,3,0,0,0,2.5-.9,4.6,4.6,0,0,0,.8-3V4.5h1.6V15.2H19.2l-.2-1.4h-.1A3.2,3.2,0,0,1,17.5,15a4.6,4.6,0,0,1-2,.4,4.1,4.1,0,0,1-2.9-.9,4,4,0,0,1-1-3v-7Z"/><path class="cls-1" d="M28.9,4.3a4,4,0,0,1,3.3,1.4,6.3,6.3,0,0,1,1.2,4.1,6.4,6.4,0,0,1-1.2,4.1,4,4,0,0,1-3.3,1.5A4.6,4.6,0,0,1,27,15a3.6,3.6,0,0,1-1.5-1.2h-.1l-.3,1.4H23.9V0h1.6V3.7q0,1.2-.1,2.2h.1A3.8,3.8,0,0,1,28.9,4.3Zm-.2,1.4a2.8,2.8,0,0,0-2.4,1,5.4,5.4,0,0,0-.7,3.2,5.4,5.4,0,0,0,.8,3.2,2.9,2.9,0,0,0,2.4,1,2.5,2.5,0,0,0,2.2-1.1,5.6,5.6,0,0,0,.7-3.1,5.4,5.4,0,0,0-.7-3.1A2.6,2.6,0,0,0,28.7,5.7Z"/><path class="cls-1" d="M39.6,14.1h1.5v1.2l-.8.2h-.9q-3.1,0-3.1-3.3V5.8H34.8V5l1.5-.7L37,2h.9V4.5H41V5.8H37.9v6.3a2.2,2.2,0,0,0,.5,1.5A1.6,1.6,0,0,0,39.6,14.1Z"/><path class="cls-1" d="M43.1,1.6a1.1,1.1,0,0,1,.3-.8,1,1,0,0,1,1.4,0,1.1,1.1,0,0,1,.3.8,1.1,1.1,0,0,1-.3.8,1,1,0,0,1-1.4,0A1.1,1.1,0,0,1,43.1,1.6Zm1.8,13.6H43.3V4.5h1.6Z"/><path class="cls-1" d="M51.8,14.1h1.5v1.2l-.8.2h-.9q-3.1,0-3.1-3.3V5.8H46.9V5l1.5-.7L49.1,2H50V4.5h3.1V5.8H50v6.3a2.2,2.2,0,0,0,.5,1.5A1.6,1.6,0,0,0,51.8,14.1Z"/><path class="cls-1" d="M57,15.2H55.4V0H57Z"/><path class="cls-1" d="M65,15.4a4.9,4.9,0,0,1-3.7-1.4,5.6,5.6,0,0,1-1.4-4,6.2,6.2,0,0,1,1.3-4.1,4.2,4.2,0,0,1,3.4-1.5,4,4,0,0,1,3.2,1.3,5.1,5.1,0,0,1,1.2,3.5v1H61.5a4.2,4.2,0,0,0,1,2.9A3.3,3.3,0,0,0,65,14a8.6,8.6,0,0,0,3.4-.7v1.4l-1.6.5Zm-.4-9.7a2.6,2.6,0,0,0-2.1.8,3.9,3.9,0,0,0-.9,2.3h5.6a3.6,3.6,0,0,0-.7-2.3A2.4,2.4,0,0,0,64.5,5.7Z"/><path class="cls-1" d="M78.8,9.3v5.9H77.1V.9H81a6.2,6.2,0,0,1,3.9,1,3.6,3.6,0,0,1,1.3,3,3.8,3.8,0,0,1-2.9,3.8l3.9,6.4h-2L81.7,9.3Zm0-1.4H81a3.9,3.9,0,0,0,2.6-.7A2.6,2.6,0,0,0,84.4,5a2.4,2.4,0,0,0-.8-2,4.5,4.5,0,0,0-2.7-.6H78.8Z"/><path class="cls-1" d="M93.7,15.4A4.9,4.9,0,0,1,90,13.9a5.6,5.6,0,0,1-1.4-4,6.2,6.2,0,0,1,1.3-4.1,4.2,4.2,0,0,1,3.4-1.5,4,4,0,0,1,3.2,1.3,5.1,5.1,0,0,1,1.2,3.5v1H90.3a4.2,4.2,0,0,0,1,2.9,3.3,3.3,0,0,0,2.5,1,8.6,8.6,0,0,0,3.4-.7v1.4l-1.6.5Zm-.4-9.7a2.6,2.6,0,0,0-2.1.8,3.9,3.9,0,0,0-.9,2.3h5.6a3.6,3.6,0,0,0-.7-2.3A2.4,2.4,0,0,0,93.3,5.7Z"/><path class="cls-1" d="M109.2,4.5v1l-2,.2a3.5,3.5,0,0,1,.7,2.1,3.2,3.2,0,0,1-1.1,2.5,4.3,4.3,0,0,1-2.9.9H103a1.6,1.6,0,0,0-1,1.4.7.7,0,0,0,.4.6l1.2.2h1.9a4.2,4.2,0,0,1,2.7.7,2.5,2.5,0,0,1,.9,2.1,3,3,0,0,1-1.4,2.7,7.6,7.6,0,0,1-4.2.9,5.7,5.7,0,0,1-3.2-.8A2.5,2.5,0,0,1,99.1,17a2.5,2.5,0,0,1,.6-1.7,3.2,3.2,0,0,1,1.8-1,1.7,1.7,0,0,1-.7-.6,1.5,1.5,0,0,1-.3-.9,1.7,1.7,0,0,1,.3-1,3.3,3.3,0,0,1,1-.8,2.9,2.9,0,0,1-1.4-1.2A3.4,3.4,0,0,1,99.9,8,3.5,3.5,0,0,1,101,5.2a4.3,4.3,0,0,1,3-1l1.5.2ZM100.7,17a1.5,1.5,0,0,0,.7,1.3,4,4,0,0,0,2.1.4,5.9,5.9,0,0,0,3-.6,1.9,1.9,0,0,0,1-1.7,1.3,1.3,0,0,0-.5-1.2,4.2,4.2,0,0,0-2-.3H103a2.6,2.6,0,0,0-1.7.5A1.9,1.9,0,0,0,100.7,17Zm.9-9.1a2.2,2.2,0,0,0,.6,1.7,2.5,2.5,0,0,0,1.8.6,2.1,2.1,0,0,0,2.4-2.3,2.1,2.1,0,0,0-2.4-2.4,2.4,2.4,0,0,0-1.8.6A2.5,2.5,0,0,0,101.5,7.9Z"/><path class="cls-1" d="M112.9,4.5v6.9a2.8,2.8,0,0,0,.6,2,2.4,2.4,0,0,0,1.9.6,3,3,0,0,0,2.5-.9,4.6,4.6,0,0,0,.8-3V4.5h1.6V15.2h-1.3l-.2-1.4h-.1a3.2,3.2,0,0,1-1.4,1.2,4.6,4.6,0,0,1-2,.4,4.1,4.1,0,0,1-2.9-.9,4,4,0,0,1-1-3v-7Z"/><path class="cls-1" d="M125.3,15.2h-1.6V0h1.6Z"/><path class="cls-1" d="M135.3,15.2l-.3-1.5h-.1a4.5,4.5,0,0,1-1.6,1.4,4.9,4.9,0,0,1-2,.4,3.6,3.6,0,0,1-2.5-.8,3,3,0,0,1-.9-2.3q0-3.2,5.2-3.4h1.8V8.1a2.7,2.7,0,0,0-.5-1.9,2.2,2.2,0,0,0-1.7-.6,7.1,7.1,0,0,0-3,.8l-.5-1.2,1.7-.7,1.9-.2a4.1,4.1,0,0,1,2.8.8,3.5,3.5,0,0,1,.9,2.7v7.3Zm-3.7-1.1a3.3,3.3,0,0,0,2.4-.8,3.1,3.1,0,0,0,.9-2.3v-1h-1.6a5.9,5.9,0,0,0-2.8.6,1.8,1.8,0,0,0-.9,1.7,1.7,1.7,0,0,0,.5,1.3A2.2,2.2,0,0,0,131.6,14.1Z"/><path class="cls-1" d="M144.7,4.3H146l-.2,1.5h-1.2a2.9,2.9,0,0,0-2.2,1.1,3.8,3.8,0,0,0-.9,2.6v5.7h-1.6V4.5h1.3l.2,2h.1a4.7,4.7,0,0,1,1.4-1.6A3.2,3.2,0,0,1,144.7,4.3Z"/></svg>