<svg id="Layer_1" data-name="Layer 1" xmlns="http://www.w3.org/2000/svg" viewBox="0 0 200 27"><defs><style>.cls-1{fill:#f6f6f6;fill-rule:evenodd;}.cls-2{fill:#cfcfcf;}.cls-3{fill:#293741;}</style></defs><title>button-Floating</title><path class="cls-1" d="M13.5,26.6A13.1,13.1,0,1,1,26.6,13.5,13.1,13.1,0,0,1,13.5,26.6Z"/><path class="cls-2" d="M13.5.8A12.7,12.7,0,1,1,.8,13.5,12.7,12.7,0,0,1,13.5.8m0-.8A13.5,13.5,0,1,0,27,13.5,13.5,13.5,0,0,0,13.5,0Z"/><path class="cls-3" d="M18.1,13.1H13.9V8.9a.4.4,0,0,0-.8,0v4.2H8.9a.4.4,0,0,0,0,.8h4.2v4.2a.4.4,0,0,0,.8,0V13.9h4.2a.4.4,0,0,0,0-.8Z"/></svg>