<svg id="Layer_1" data-name="Layer 1" xmlns="http://www.w3.org/2000/svg" viewBox="0 0 200 59"><defs><style>.cls-1{fill:#e2e2e2;}.cls-2{fill:#b7b7b7;}.cls-3{fill:#babec1;}.cls-4{fill:#e5e5e5;}.cls-5{fill:#576673;}</style></defs><title>Collections-Image Gallery</title><path class="cls-1" d="M1,58.5H.6a.5.5,0,0,1,0-.7l56-56a.5.5,0,0,1,.7.7l-56,56Z"/><path class="cls-1" d="M9,58.5H8.6a.5.5,0,0,1,0-.7l50-50a.5.5,0,0,1,.7.7l-50,50Z"/><path class="cls-1" d="M17.5,58h-.4a.5.5,0,0,1,0-.7L57.6,16.6a.5.5,0,1,1,.7.7L17.9,57.9Z"/><path class="cls-1" d="M25,58.5h-.4a.5.5,0,0,1,0-.7l33-33a.5.5,0,1,1,.7.7l-33,33Z"/><path class="cls-1" d="M32.5,58h-.4a.5.5,0,0,1,0-.7L57.6,31.6a.5.5,0,1,1,.7.7L32.9,57.9Z"/><path class="cls-1" d="M40,58.5h-.4a.5.5,0,0,1,0-.7l17-17a.5.5,0,0,1,.7.7l-17,17Z"/><path class="cls-1" d="M47.5,59h-.4a.5.5,0,0,1,0-.7L57.7,47.7a.5.5,0,0,1,.7.7L47.9,58.9Z"/><path class="cls-1" d="M54.5,59h-.4a.5.5,0,0,1,0-.7l3-3a.5.5,0,0,1,.7.7l-3,3Z"/><path class="cls-1" d="M.7,12.8H.3a.5.5,0,0,1,0-.7L11.6.6a.5.5,0,1,1,.7.7L1,12.7Z"/><path class="cls-1" d="M.6,5.9H.2a.5.5,0,0,1,0-.7L4.6.6a.5.5,0,0,1,.7.7L.9,5.8Z"/><path class="cls-1" d="M.6,20.9H.2a.5.5,0,0,1,0-.7L19.6.6a.5.5,0,1,1,.7.7L.9,20.8Z"/><path class="cls-1" d="M.9,27.6H.5a.5.5,0,0,1,0-.7L26.6.6a.5.5,0,1,1,.7.7L1.2,27.5Z"/><path class="cls-1" d="M.8,35.7H.5a.5.5,0,0,1,0-.7L34.6.6a.5.5,0,0,1,.7.7L1.2,35.5Z"/><path class="cls-1" d="M.8,42.7H.4a.5.5,0,0,1,0-.7L41.1,1.1a.5.5,0,0,1,.7.7L1.1,42.6Z"/><path class="cls-1" d="M2,49.5H1.6a.5.5,0,0,1,0-.7L49.1,1.1a.5.5,0,0,1,.7.7L2.4,49.4Z"/><rect class="cls-2" x="5.5" y="48" width="48" height="5"/><path class="cls-3" d="M51,0H47a.5.5,0,0,0,0,1h4a.5.5,0,0,0,0-1ZM43,0H39a.5.5,0,0,0,0,1h4a.5.5,0,0,0,0-1ZM35,0H31a.5.5,0,0,0,0,1h4a.5.5,0,0,0,0-1ZM27,0H23a.5.5,0,0,0,0,1h4a.5.5,0,0,0,0-1ZM19,0H15a.5.5,0,0,0,0,1h4a.5.5,0,0,0,0-1ZM11,0H7A.5.5,0,0,0,7,1h4a.5.5,0,0,0,0-1ZM3,0H0V1H0A.5.5,0,1,0,1,1H3A.5.5,0,0,0,3,0ZM.5,4.5A.5.5,0,0,0,0,5V9A.5.5,0,1,0,1,9V5a.5.5,0,0,0-.5-.5Zm0,8A.5.5,0,0,0,0,13v4a.5.5,0,1,0,1,0V13a.5.5,0,0,0-.5-.5Zm0,8A.5.5,0,0,0,0,21v4a.5.5,0,1,0,1,0V21a.5.5,0,0,0-.5-.5Zm0,8A.5.5,0,0,0,0,29v4a.5.5,0,1,0,1,0V29a.5.5,0,0,0-.5-.5Zm0,8A.5.5,0,0,0,0,37v4a.5.5,0,1,0,1,0V37a.5.5,0,0,0-.5-.5Zm0,8A.5.5,0,0,0,0,45v4a.5.5,0,1,0,1,0V45a.5.5,0,0,0-.5-.5Zm0,8A.5.5,0,0,0,0,53v4a.5.5,0,1,0,1,0V53a.5.5,0,0,0-.5-.5ZM6,58H2a.5.5,0,0,0,0,1H6a.5.5,0,1,0,0-1Zm8,0H10a.5.5,0,0,0,0,1h4a.5.5,0,1,0,0-1Zm8,0H18a.5.5,0,0,0,0,1h4a.5.5,0,0,0,0-1Zm8,0H26a.5.5,0,0,0,0,1h4a.5.5,0,0,0,0-1Zm8,0H34a.5.5,0,0,0,0,1h4a.5.5,0,0,0,0-1Zm8,0H42a.5.5,0,0,0,0,1h4a.5.5,0,0,0,0-1Zm8,0H50a.5.5,0,0,0,0,1h4a.5.5,0,0,0,0-1Zm4.5-2.5a.5.5,0,0,0-.5.5v2h0a.5.5,0,0,0,0,1h1V56a.5.5,0,0,0-.5-.5Zm0-8a.5.5,0,0,0-.5.5v4a.5.5,0,0,0,1,0V48a.5.5,0,0,0-.5-.5Zm0-8a.5.5,0,0,0-.5.5v4a.5.5,0,0,0,1,0V40a.5.5,0,0,0-.5-.5Zm0-8a.5.5,0,0,0-.5.5v4a.5.5,0,0,0,1,0V32a.5.5,0,0,0-.5-.5Zm0-8a.5.5,0,0,0-.5.5v4a.5.5,0,0,0,1,0V24a.5.5,0,0,0-.5-.5Zm0-8a.5.5,0,0,0-.5.5v4a.5.5,0,0,0,1,0V16a.5.5,0,0,0-.5-.5Zm0-8A.5.5,0,0,0,58,8v4a.5.5,0,0,0,1,0V8a.5.5,0,0,0-.5-.5ZM59,0H55a.5.5,0,0,0,0,1h3V4a.5.5,0,0,0,1,0V0Z"/><rect class="cls-4" x="17.1" y="10" width="24.9" height="24.88" rx="3" ry="3"/><path class="cls-5" d="M38.3,31.2H20.8V13.7H38.3Zm-17-.5H37.8V14.2H21.3Z"/><polygon class="cls-5" points="22.2 31.1 21.8 30.8 30 20.5 34.1 25.7 38 25.7 38 26.2 33.9 26.2 30 21.3 22.2 31.1"/><path class="cls-5" d="M25.5,20.2a1.8,1.8,0,1,1,1.8-1.7A1.8,1.8,0,0,1,25.5,20.2Zm0-3a1.3,1.3,0,1,0,1.3,1.3A1.3,1.3,0,0,0,25.5,17.2Z"/><path class="cls-1" d="M71.2,58.5h-.4a.5.5,0,0,1,0-.7l56-56a.5.5,0,0,1,.7.7l-56,56Z"/><path class="cls-1" d="M79.3,58.5h-.4a.5.5,0,0,1,0-.7l50-50a.5.5,0,1,1,.7.7l-50,50Z"/><path class="cls-1" d="M87.8,58h-.4a.5.5,0,0,1,0-.7l40.5-40.5a.5.5,0,0,1,.7.7L88.1,57.9Z"/><path class="cls-1" d="M95.3,58.5h-.4a.5.5,0,0,1,0-.7l33-33a.5.5,0,0,1,.7.7l-33,33Z"/><path class="cls-1" d="M102.8,58h-.4a.5.5,0,0,1,0-.7l25.5-25.5a.5.5,0,0,1,.7.7L103.1,57.9Z"/><path class="cls-1" d="M110.3,58.5h-.4a.5.5,0,0,1,0-.7l17-17a.5.5,0,0,1,.7.7l-17,17Z"/><path class="cls-1" d="M117.8,59h-.4a.5.5,0,0,1,0-.7l10.5-10.5a.5.5,0,0,1,.7.7L118.1,58.9Z"/><path class="cls-1" d="M124.8,59h-.4a.5.5,0,0,1,0-.7l3-3a.5.5,0,0,1,.7.7l-3,3Z"/><path class="cls-1" d="M70.9,12.8h-.4a.5.5,0,0,1,0-.7L81.9.6a.5.5,0,0,1,.7.7L71.3,12.7Z"/><path class="cls-1" d="M70.8,5.9h-.4a.5.5,0,0,1,0-.7L74.9.6a.5.5,0,0,1,.7.7L71.2,5.8Z"/><path class="cls-1" d="M70.8,20.9h-.4a.5.5,0,0,1,0-.7L89.9.6a.5.5,0,0,1,.7.7L71.2,20.8Z"/><path class="cls-1" d="M71.1,27.6h-.4a.5.5,0,0,1,0-.7L96.9.6a.5.5,0,0,1,.7.7L71.5,27.5Z"/><path class="cls-1" d="M71.1,35.7h-.4a.5.5,0,0,1,0-.7L104.9.6a.5.5,0,0,1,.7.7L71.4,35.5Z"/><path class="cls-1" d="M71,42.7h-.4a.5.5,0,0,1,0-.7L111.4,1.1a.5.5,0,0,1,.7.7L71.4,42.6Z"/><path class="cls-1" d="M72.3,49.5h-.4a.5.5,0,0,1,0-.7L119.4,1.1a.5.5,0,0,1,.7.7L72.6,49.4Z"/><rect class="cls-2" x="75.8" y="48" width="48" height="5"/><path class="cls-3" d="M121.3,0h-4a.5.5,0,0,0,0,1h4a.5.5,0,0,0,0-1Zm-8,0h-4a.5.5,0,0,0,0,1h4a.5.5,0,0,0,0-1Zm-8,0h-4a.5.5,0,0,0,0,1h4a.5.5,0,0,0,0-1Zm-8,0h-4a.5.5,0,0,0,0,1h4a.5.5,0,0,0,0-1Zm-8,0h-4a.5.5,0,0,0,0,1h4a.5.5,0,0,0,0-1Zm-8,0h-4a.5.5,0,0,0,0,1h4a.5.5,0,0,0,0-1Zm-8,0h-3V1h0a.5.5,0,0,0,1,0h2a.5.5,0,0,0,0-1ZM70.8,4.5a.5.5,0,0,0-.5.5V9a.5.5,0,0,0,1,0V5a.5.5,0,0,0-.5-.5Zm0,8a.5.5,0,0,0-.5.5v4a.5.5,0,0,0,1,0V13a.5.5,0,0,0-.5-.5Zm0,8a.5.5,0,0,0-.5.5v4a.5.5,0,0,0,1,0V21a.5.5,0,0,0-.5-.5Zm0,8a.5.5,0,0,0-.5.5v4a.5.5,0,0,0,1,0V29a.5.5,0,0,0-.5-.5Zm0,8a.5.5,0,0,0-.5.5v4a.5.5,0,0,0,1,0V37a.5.5,0,0,0-.5-.5Zm0,8a.5.5,0,0,0-.5.5v4a.5.5,0,0,0,1,0V45a.5.5,0,0,0-.5-.5Zm0,8a.5.5,0,0,0-.5.5v4a.5.5,0,0,0,1,0V53a.5.5,0,0,0-.5-.5ZM76.3,58h-4a.5.5,0,0,0,0,1h4a.5.5,0,1,0,0-1Zm8,0h-4a.5.5,0,0,0,0,1h4a.5.5,0,1,0,0-1Zm8,0h-4a.5.5,0,0,0,0,1h4a.5.5,0,1,0,0-1Zm8,0h-4a.5.5,0,0,0,0,1h4a.5.5,0,0,0,0-1Zm8,0h-4a.5.5,0,1,0,0,1h4a.5.5,0,0,0,0-1Zm8,0h-4a.5.5,0,1,0,0,1h4a.5.5,0,0,0,0-1Zm8,0h-4a.5.5,0,1,0,0,1h4a.5.5,0,0,0,0-1Zm4.5-2.5a.5.5,0,0,0-.5.5v2h0a.5.5,0,0,0,0,1h1V56a.5.5,0,0,0-.5-.5Zm0-8a.5.5,0,0,0-.5.5v4a.5.5,0,0,0,1,0V48a.5.5,0,0,0-.5-.5Zm0-8a.5.5,0,0,0-.5.5v4a.5.5,0,0,0,1,0V40a.5.5,0,0,0-.5-.5Zm0-8a.5.5,0,0,0-.5.5v4a.5.5,0,0,0,1,0V32a.5.5,0,0,0-.5-.5Zm0-8a.5.5,0,0,0-.5.5v4a.5.5,0,0,0,1,0V24a.5.5,0,0,0-.5-.5Zm0-8a.5.5,0,0,0-.5.5v4a.5.5,0,0,0,1,0V16a.5.5,0,0,0-.5-.5Zm0-8a.5.5,0,0,0-.5.5v4a.5.5,0,0,0,1,0V8a.5.5,0,0,0-.5-.5Zm.5-7.5h-4a.5.5,0,0,0,0,1h3V4a.5.5,0,0,0,1,0V0Z"/><rect class="cls-4" x="87.3" y="10" width="24.9" height="24.88" rx="3" ry="3"/><path class="cls-5" d="M108.5,31.2H91V13.7h17.5Zm-17-.5H108V14.2H91.5Z"/><polygon class="cls-5" points="92.5 31.1 92.1 30.8 100.3 20.5 104.4 25.7 108.3 25.7 108.3 26.2 104.2 26.2 100.3 21.3 92.5 31.1"/><path class="cls-5" d="M95.8,20.2a1.8,1.8,0,1,1,1.8-1.7A1.8,1.8,0,0,1,95.8,20.2Zm0-3A1.3,1.3,0,1,0,97,18.4,1.3,1.3,0,0,0,95.8,17.2Z"/><path class="cls-1" d="M141.5,58.5h-.4a.5.5,0,0,1,0-.7l56-56a.5.5,0,1,1,.7.7l-56,56Z"/><path class="cls-1" d="M149.5,58.5h-.4a.5.5,0,0,1,0-.7l50-50a.5.5,0,1,1,.7.7l-50,50Z"/><path class="cls-1" d="M158,58h-.4a.5.5,0,0,1,0-.7l40.5-40.5a.5.5,0,0,1,.7.7L158.4,57.9Z"/><path class="cls-1" d="M165.5,58.5h-.4a.5.5,0,0,1,0-.7l33-33a.5.5,0,0,1,.7.7l-33,33Z"/><path class="cls-1" d="M173,58h-.4a.5.5,0,0,1,0-.7l25.5-25.5a.5.5,0,1,1,.7.7L173.4,57.9Z"/><path class="cls-1" d="M180.5,58.5h-.4a.5.5,0,0,1,0-.7l17-17a.5.5,0,0,1,.7.7l-17,17Z"/><path class="cls-1" d="M188,59h-.4a.5.5,0,0,1,0-.7l10.5-10.5a.5.5,0,1,1,.7.7L188.4,58.9Z"/><path class="cls-1" d="M195,59h-.4a.5.5,0,0,1,0-.7l3-3a.5.5,0,0,1,.7.7l-3,3Z"/><path class="cls-1" d="M141.2,12.8h-.4a.5.5,0,0,1,0-.7L152.1.6a.5.5,0,1,1,.7.7L141.5,12.7Z"/><path class="cls-1" d="M141.1,5.9h-.4a.5.5,0,0,1,0-.7L145.1.6a.5.5,0,1,1,.7.7l-4.4,4.4Z"/><path class="cls-1" d="M141.1,20.9h-.4a.5.5,0,0,1,0-.7L160.1.6a.5.5,0,1,1,.7.7L141.4,20.8Z"/><path class="cls-1" d="M141.4,27.6H141a.5.5,0,0,1,0-.7L167.1.6a.5.5,0,1,1,.7.7L141.7,27.5Z"/><path class="cls-1" d="M141.3,35.7H141a.5.5,0,0,1,0-.7L175.1.6a.5.5,0,1,1,.7.7L141.7,35.5Z"/><path class="cls-1" d="M141.3,42.7h-.4a.5.5,0,0,1,0-.7L181.6,1.1a.5.5,0,1,1,.7.7L141.6,42.6Z"/><path class="cls-1" d="M142.5,49.5h-.4a.5.5,0,0,1,0-.7L189.6,1.1a.5.5,0,1,1,.7.7L142.9,49.4Z"/><rect class="cls-2" x="146" y="48" width="48" height="5"/><path class="cls-3" d="M191.5,0h-4a.5.5,0,0,0,0,1h4a.5.5,0,0,0,0-1Zm-8,0h-4a.5.5,0,0,0,0,1h4a.5.5,0,0,0,0-1Zm-8,0h-4a.5.5,0,0,0,0,1h4a.5.5,0,0,0,0-1Zm-8,0h-4a.5.5,0,0,0,0,1h4a.5.5,0,0,0,0-1Zm-8,0h-4a.5.5,0,0,0,0,1h4a.5.5,0,0,0,0-1Zm-8,0h-4a.5.5,0,0,0,0,1h4a.5.5,0,0,0,0-1Zm-8,0h-3V1h0a.5.5,0,0,0,1,0h2a.5.5,0,0,0,0-1ZM141,4.5a.5.5,0,0,0-.5.5V9a.5.5,0,0,0,1,0V5a.5.5,0,0,0-.5-.5Zm0,8a.5.5,0,0,0-.5.5v4a.5.5,0,0,0,1,0V13a.5.5,0,0,0-.5-.5Zm0,8a.5.5,0,0,0-.5.5v4a.5.5,0,0,0,1,0V21a.5.5,0,0,0-.5-.5Zm0,8a.5.5,0,0,0-.5.5v4a.5.5,0,0,0,1,0V29a.5.5,0,0,0-.5-.5Zm0,8a.5.5,0,0,0-.5.5v4a.5.5,0,0,0,1,0V37a.5.5,0,0,0-.5-.5Zm0,8a.5.5,0,0,0-.5.5v4a.5.5,0,0,0,1,0V45a.5.5,0,0,0-.5-.5Zm0,8a.5.5,0,0,0-.5.5v4a.5.5,0,0,0,1,0V53a.5.5,0,0,0-.5-.5Zm5.5,5.5h-4a.5.5,0,0,0,0,1h4a.5.5,0,0,0,0-1Zm8,0h-4a.5.5,0,0,0,0,1h4a.5.5,0,0,0,0-1Zm8,0h-4a.5.5,0,0,0,0,1h4a.5.5,0,0,0,0-1Zm8,0h-4a.5.5,0,0,0,0,1h4a.5.5,0,0,0,0-1Zm8,0h-4a.5.5,0,0,0,0,1h4a.5.5,0,0,0,0-1Zm8,0h-4a.5.5,0,0,0,0,1h4a.5.5,0,0,0,0-1Zm8,0h-4a.5.5,0,0,0,0,1h4a.5.5,0,0,0,0-1Zm4.5-2.5a.5.5,0,0,0-.5.5v2h0a.5.5,0,0,0,0,1h1V56a.5.5,0,0,0-.5-.5Zm0-8a.5.5,0,0,0-.5.5v4a.5.5,0,0,0,1,0V48a.5.5,0,0,0-.5-.5Zm0-8a.5.5,0,0,0-.5.5v4a.5.5,0,0,0,1,0V40a.5.5,0,0,0-.5-.5Zm0-8a.5.5,0,0,0-.5.5v4a.5.5,0,0,0,1,0V32a.5.5,0,0,0-.5-.5Zm0-8a.5.5,0,0,0-.5.5v4a.5.5,0,0,0,1,0V24a.5.5,0,0,0-.5-.5Zm0-8a.5.5,0,0,0-.5.5v4a.5.5,0,0,0,1,0V16a.5.5,0,0,0-.5-.5Zm0-8a.5.5,0,0,0-.5.5v4a.5.5,0,0,0,1,0V8a.5.5,0,0,0-.5-.5Zm.5-7.5h-4a.5.5,0,0,0,0,1h3V4a.5.5,0,0,0,1,0V0Z"/><rect class="cls-4" x="157.6" y="10" width="24.9" height="24.88" rx="3" ry="3"/><path class="cls-5" d="M178.8,31.2H161.3V13.7h17.5Zm-17-.5h16.5V14.2H161.8Z"/><polygon class="cls-5" points="162.7 31.1 162.3 30.8 170.5 20.5 174.6 25.7 178.5 25.7 178.5 26.2 174.4 26.2 170.5 21.3 162.7 31.1"/><path class="cls-5" d="M166,20.2a1.8,1.8,0,1,1,1.8-1.7A1.8,1.8,0,0,1,166,20.2Zm0-3a1.3,1.3,0,1,0,1.3,1.3A1.3,1.3,0,0,0,166,17.2Z"/></svg>