<svg id="Layer_1" data-name="Layer 1" xmlns="http://www.w3.org/2000/svg" viewBox="0 0 200 73"><defs><style>.cls-1{fill:#e2e2e2;}.cls-2{fill:#cfcfcf;}.cls-3{fill:#babec1;}.cls-4{fill:#e5e5e5;}.cls-5{fill:#576673;}.cls-6{fill:#d8d8d8;}</style></defs><title>Collections-Carousel</title><polygon class="cls-1" points="1.1 7.1 0.6 6.7 8.6 0.4 9.1 0.8 1.1 7.1"/><polygon class="cls-1" points="127 57.8 126.5 57.4 199.4 0 199.9 0.4 127 57.8"/><polygon class="cls-1" points="119 57.8 118.6 57.4 191.5 0 191.9 0.4 119 57.8"/><polygon class="cls-1" points="111.7 57.8 111.3 57.4 184.2 0 184.6 0.4 111.7 57.8"/><polygon class="cls-1" points="103.8 57.8 103.3 57.4 176.2 0 176.7 0.4 103.8 57.8"/><polygon class="cls-1" points="95.8 57.8 95.3 57.4 168.2 0 168.7 0.4 95.8 57.8"/><polygon class="cls-1" points="87.5 57.8 87 57.4 159.9 0 160.4 0.4 87.5 57.8"/><polygon class="cls-1" points="79.5 57.8 79 57.4 151.9 0 152.4 0.4 79.5 57.8"/><polygon class="cls-1" points="183 57.8 182.5 57.4 199.5 44 200 44.4 183 57.8"/><polygon class="cls-2" points="194.6 57.9 194.1 57.5 199.3 53.5 199.8 53.9 194.6 57.9"/><polygon class="cls-1" points="175 57.8 174.5 57.4 198.3 38.7 198.8 39.1 175 57.8"/><polygon class="cls-1" points="167.7 57.8 167.2 57.4 198.7 32.7 199.1 33 167.7 57.8"/><polygon class="cls-1" points="159.7 57.8 159.2 57.4 198.7 26.3 199.2 26.7 159.7 57.8"/><polygon class="cls-1" points="151.8 57.8 151.3 57.4 198.7 20 199.2 20.4 151.8 57.8"/><polygon class="cls-1" points="143.5 57.8 143 57.4 198.6 13.6 199.1 14 143.5 57.8"/><polygon class="cls-1" points="135.5 57.8 135 57.4 198.6 7.3 199.1 7.7 135.5 57.8"/><polygon class="cls-1" points="71.6 57.8 71.1 57.4 144 0 144.5 0.4 71.6 57.8"/><polygon class="cls-1" points="64.2 57.8 63.8 57.4 136.7 0 137.1 0.4 64.2 57.8"/><polygon class="cls-1" points="56.3 57.8 55.8 57.4 128.7 0 129.2 0.4 56.3 57.8"/><polygon class="cls-1" points="48.3 57.8 47.8 57.4 120.7 0 121.2 0.4 48.3 57.8"/><polygon class="cls-1" points="40 57.8 39.5 57.4 112.4 0 112.9 0.4 40 57.8"/><polygon class="cls-1" points="31.7 57.8 31.2 57.4 104.1 0 104.6 0.4 31.7 57.8"/><polygon class="cls-1" points="23.7 57.8 23.2 57.4 96.1 0 96.6 0.4 23.7 57.8"/><polygon class="cls-1" points="16.4 57.8 15.9 57.4 88.8 0 89.3 0.4 16.4 57.8"/><polygon class="cls-1" points="8.5 57.8 8 57.4 80.9 0 81.4 0.4 8.5 57.8"/><polygon class="cls-1" points="0.5 57.8 0 57.4 72.9 0 73.4 0.4 0.5 57.8"/><polygon class="cls-1" points="1 51.1 0.5 50.7 64.6 0 65.1 0.4 1 51.1"/><polygon class="cls-1" points="1 44.8 0.5 44.5 56.8 0.1 57.3 0.5 1 44.8"/><polygon class="cls-1" points="0.7 38.4 0.2 38 48.2 0.2 48.7 0.6 0.7 38.4"/><polygon class="cls-1" points="1 32.3 0.5 31.9 40.5 0.4 41 0.8 1 32.3"/><polygon class="cls-1" points="1 26 0.5 25.6 32 0.8 32.5 1.2 1 26"/><polygon class="cls-1" points="1.3 19.9 0.8 19.5 24.8 0.6 25.3 1 1.3 19.9"/><polygon class="cls-1" points="0.8 14.4 0.3 14 17.9 0.1 18.4 0.5 0.8 14.4"/><path class="cls-3" d="M191.7.2h-4V1h4V.2Zm-8,0h-4V1h4V.2Zm-8,0h-4V1h4V.2Zm-8,0h-4V1h4V.2Zm-8,0h-4V1h4V.2Zm-8,0h-4V1h4V.2Zm-8,0h-4V1h4V.2Zm-8,0h-4V1h4V.2Zm-8,0h-4V1h4V.2Zm-8,0h-4V1h4V.2Zm-8,0h-4V1h4V.2Zm-8,0h-4V1h4V.2Zm-8,0h-4V1h4V.2Zm-8,0h-4V1h4V.2Zm-8,0h-4V1h4V.2Zm-8,0h-4V1h4V.2Zm-8,0h-4V1h4V.2Zm-8,0h-4V1h4V.2Zm-8,0h-4V1h4V.2Zm-8,0h-4V1h4V.2Zm-8,0h-4V1h4V.2Zm-8,0h-4V1h4V.2Zm-8,0h-4V1h4V.2Zm-8,0h-4V1h4V.2Zm-7,0H.4V3.4h1V.2Zm0,6.3H.4V9.7h1V6.5Zm0,6.3H.4V16h1V12.9Zm0,6.3H.4v3.2h1V19.2Zm0,6.3H.4v3.2h1V25.5Zm0,6.3H.4V35h1V31.9Zm0,6.3H.4v3.2h1V38.2Zm0,6.3H.4v3.2h1V44.5Zm0,6.3H.4V54h1V50.9Zm2,6.3H.4V58h3v-.8Zm8,0h-4V58h4v-.8Zm8,0h-4V58h4v-.8Zm8,0h-4V58h4v-.8Zm8,0h-4V58h4v-.8Zm8,0h-4V58h4v-.8Zm8,0h-4V58h4v-.8Zm8,0h-4V58h4v-.8Zm8,0h-4V58h4v-.8Zm8,0h-4V58h4v-.8Zm8,0h-4V58h4v-.8Zm8,0h-4V58h4v-.8Zm8,0h-4V58h4v-.8Zm8,0h-4V58h4v-.8Zm8,0h-4V58h4v-.8Zm8,0h-4V58h4v-.8Zm8,0h-4V58h4v-.8Zm8,0h-4V58h4v-.8Zm8,0h-4V58h4v-.8Zm8,0h-4V58h4v-.8Zm8,0h-4V58h4v-.8Zm8,0h-4V58h4v-.8Zm8,0h-4V58h4v-.8Zm8,0h-4V58h4v-.8Zm8,0h-4V58h4v-.8Zm5-1.6h-1v1.6h0V58h1V55.6Zm0-6.3h-1v3.2h1V49.3Zm0-6.3h-1v3.2h1V43Zm0-6.3h-1v3.2h1V36.6Zm0-6.3h-1v3.2h1V30.3Zm0-6.3h-1v3.2h1V23.9Zm0-6.3h-1v3.2h1V17.6Zm0-6.3h-1v3.2h1V11.3Zm0-6.3h-1V8.1h1V4.9Zm0-4.8h-4V1h3v.8h1V.2Z"/><rect class="cls-4" x="87.6" y="15.1" width="24.9" height="24.88" rx="3" ry="3"/><path class="cls-5" d="M108.8,36.3H91.3V18.8h17.5Zm-17-.5h16.5V19.3H91.8Z"/><polygon class="cls-5" points="92.7 36.2 92.3 35.9 100.5 25.7 104.6 30.8 108.5 30.8 108.5 31.3 104.4 31.3 100.5 26.5 92.7 36.2"/><path class="cls-5" d="M96,25.3a1.8,1.8,0,1,1,1.8-1.7A1.8,1.8,0,0,1,96,25.3Zm0-3a1.3,1.3,0,1,0,1.3,1.3A1.3,1.3,0,0,0,96,22.3Z"/><rect class="cls-6" x="70.8" y="63" width="17" height="10"/><rect class="cls-6" x="91.3" y="63" width="17" height="10"/><rect class="cls-6" x="112.3" y="63" width="17" height="10"/></svg>