<svg id="Layer_1" data-name="Layer 1" xmlns="http://www.w3.org/2000/svg" viewBox="0 0 200 73"><defs><style>.cls-1{fill:#d1d3d4;}.cls-2{fill:none;}.cls-3{fill:#bcbec0;}.cls-4{fill:#939598;}.cls-5{fill:#f2f2f2;}.cls-6{fill:#555;}.cls-7{fill:#fff;}</style></defs><title>media-map</title><rect class="cls-1" width="200" height="73"/><path class="cls-2" d="M197.8,65.9a1.7,1.7,0,0,1-1.4,2l-5.1.9c0,.8,0,2.2.1,4.1V73H200V64.4h-2.5Z"/><path class="cls-2" d="M170.3,63.7h-3.5l-.7,8.8V73h5.6v-.4Z"/><path class="cls-2" d="M194.2,44.9l5.2-.8h.6V38.1l-6.6,1.3Z"/><path class="cls-2" d="M191.8,28.2l1.1,7.5,7.1-1.4V15.9l-9.7,1.6Z"/><path class="cls-2" d="M187.6,67.1a1.7,1.7,0,0,1,1.4-1.5l4.8-.8V64l-7.5-.2V73h1.7v-.2C187.6,68.5,187.6,67.1,187.6,67.1Z"/><path class="cls-2" d="M183,63.8h-6.2l1.3,8.9V73h4.7V63.8Z"/><path class="cls-2" d="M194.7,47.8c.8,5.3,1.5,9.3,2,12.2H200V46.9h-.2Z"/><path class="cls-2" d="M20.9,3.5,33.2,1.2,32.5,0H0V7.2L20.8,3.5Z"/><path class="cls-2" d="M189.7,13.8,200,12.1V6.9l-11,2Z"/><path class="cls-2" d="M44.4,6.8A73.9,73.9,0,0,1,54.6,26.9C62.6,21.1,72.2,13.6,83.8,4c1.6-1.3,3.4-2.7,5.4-4H49.6L42,3.1Z"/><path class="cls-2" d="M200,3.4h0V0H187.4c.3,1.7.7,3.5,1,5.5Z"/><path class="cls-2" d="M167.6,9.1,185.1,6c-.4-2.1-.7-4.1-1.1-6H165.9Z"/><path class="cls-2" d="M46.2,72.2l-1.4-2.1L40.1,73h7.2A1.9,1.9,0,0,1,46.2,72.2Z"/><path class="cls-2" d="M5.7,63.5,0,67.2V73H28.8L19.2,56A129.1,129.1,0,0,0,5.7,63.5Z"/><path class="cls-2" d="M6.1,19.4,8.7,24l-.8-2.8Z"/><path class="cls-2" d="M55.4,60.1a1.9,1.9,0,0,1,.3,3.3L48,68.2l1.3,2a1.9,1.9,0,0,1-.5,2.6l-.6.3h5L68.4,60.5Z"/><path class="cls-2" d="M163.5,64h-4.4l.4,8.6V73h3.3v-.4Z"/><path class="cls-2" d="M78.6,60.9l-5-.2a1.9,1.9,0,0,1-.6.8L59.1,73H79.8Z"/><path class="cls-2" d="M3.4,57.4,0,51.3v8.4l2.1-1.4Z"/><path class="cls-2" d="M16,50.2,8.7,37.4,0,42.1v1.4L6.6,55.2C9.7,53.4,12.7,51.8,16,50.2Z"/><polygon class="cls-2" points="137 63 131.3 62.8 132 72.7 132 73 137.2 73 137.2 72.6 137 63"/><path class="cls-2" d="M155.6,63.6l-6.7-.2v3.8a1.5,1.5,0,0,1-2.9.1v-4l-5.3-.2.2,9.5V73h15.1v-.4Z"/><path class="cls-2" d="M99.9,61.6,82.4,61l1.1,12h16.6A89.9,89.9,0,0,0,99.9,61.6Z"/><polygon class="cls-2" points="127.5 62.6 120 62.4 120.8 72.8 120.8 73 128.2 73 128.2 72.7 127.5 62.6"/><path class="cls-2" d="M116.3,62.2l-12.6-.4a93.7,93.7,0,0,1,.2,11.1h13.3v-.2Z"/><path class="cls-2" d="M99.7,7a11,11,0,0,1,6.9-1.7l3,.2,7.6.5.6-.2a1.9,1.9,0,0,1,1.1.2c5.6,0,11.9-.5,16.6-2.9A42.9,42.9,0,0,1,144.3,0H101.6L97.8,2.3A27.2,27.2,0,0,1,99.7,7Z"/><path class="cls-2" d="M111.8,42.5l7.9-.9L116.3,9.3l-7-.4-2.9-.2c-3.5-.2-5.3,1.4-5.9,2l.3,1.8C101.6,18.1,109.6,37.3,111.8,42.5Z"/><path class="cls-2" d="M125.1,58.4l11.7.4L129.9,8.4a53.2,53.2,0,0,1-9.9.9l5.1,48.4A1.9,1.9,0,0,1,125.1,58.4Z"/><path class="cls-2" d="M140.6,30.3,138.1,5.5l-1.2.5-3.4,1.4,3.2,23.5Z"/><path class="cls-2" d="M87,31.9l3.9,13,17-1.9c-1.5-3.6-4.5-10.9-7-17.6L87,31.7Z"/><path class="cls-2" d="M140.6,58.8v.2h2.8v-.5l-2.4-24.9-3.6.5Z"/><path class="cls-2" d="M149.6,28.9l-5-25.6-2.8.8,2.5,25.6Z"/><path class="cls-2" d="M6.8,34.2,0,22.2V37.8Z"/><path class="cls-2" d="M62.1,44.2,56.9,33.4c-5.4,3.9-10.1,7-14.4,9.7L48,54.7Z"/><path class="cls-2" d="M53.8,60.2l.5-.2L47,59.8a2.1,2.1,0,0,1-1.8-1.2L39,45.3c-5.3,3.2-9.8,5.6-13.8,7.7L35.5,71.4Z"/><path class="cls-2" d="M99.7,21.8a55.9,55.9,0,0,1-2.5-8.9,28.2,28.2,0,0,0-2.5-8.6,80.3,80.3,0,0,0-6.6,4.9l-10,8.1L85,28.5Z"/><path class="cls-2" d="M156.8,28.2,152.3,4.7a1.7,1.7,0,1,1,3.3-.7l4.8,25.3a1.8,1.8,0,0,1-.3,1.3,1.7,1.7,0,0,1-1.1.7h0l-5.1.8,5.1,26h0V60h10.5c-.9-5.7-1.7-10.8-2.3-14.5l-2-11.5c-1.8-10-3.8-21.8-5.9-32.5l-2.7.4h-.2A71.9,71.9,0,0,0,148.2,3l5.1,25.8Z"/><path class="cls-2" d="M150.2,32.3l-5.6.9L147,58.2a1.9,1.9,0,0,1-.2.9l8.5.3V58.3Z"/><path class="cls-2" d="M176.4,59.6l16.9.3c-.5-2.9-1.1-6.7-1.9-11.6l-16.3,2.8Z"/><polygon class="cls-2" points="52.8 55.8 68 56.4 63.8 47.6 52.8 55.8"/><path class="cls-2" d="M173.9,43.9l.8,4.4,16.3-2.9-.8-5.4-16.4,3.1Z"/><path class="cls-2" d="M120.1,45.3l-9.2,1h-.1l-6.4.7,2.1,10.6,14.9.5h0Z"/><path class="cls-2" d="M92,48.5l2.6,8.8,6.9.2h1.2l-2-10.1Z"/><path class="cls-2" d="M178.1,16.2a1.5,1.5,0,1,1,.9,2.8l-9,2.8,1.9,10.7,1.2,7.1,16.5-3.2-1.1-7.7c-1-7.5-1.9-13.8-2.8-19.3l-17.4,3.1,1.2,6.4Z"/><path class="cls-3" d="M76.9,48.9l-6.7,3.5,2,4.1,18.5.7-2.9-9.7h0L83.5,33.2,75.1,19.6C69.6,24,64.5,27.9,60,31.2L68.6,49l6.6-3.5a1.9,1.9,0,0,1,1.7,3.3Z"/><path class="cls-4" d="M48.8,31c-.6-2.7-2.8-10.2-9.8-20.4-1.4-2-2.6-4-3.8-5.9L24,6.7,35,29a1.9,1.9,0,0,1-.8,2.5l-.5.2a1.9,1.9,0,0,1-2-1L20.1,7.4l-19,3.4,4.9,8.6,1.8,1.8L8.7,24,21.9,47.2A221.2,221.2,0,0,0,48.8,31Z"/><path class="cls-5" d="M117.1,72.8V73h3.7v-.2Z"/><path class="cls-5" d="M187.7,72.8V73h3.7v-.2Z"/><path class="cls-5" d="M79.8,73h0Z"/><path class="cls-5" d="M0,37.8v4.2l8.7-4.7L16,50.2c-3.3,1.6-6.3,3.2-9.4,4.9L0,43.5v7.8l3.4,6.1-1.3.9L0,59.7v7.6l5.7-3.7A129.1,129.1,0,0,1,19.2,56l9.5,17H40.1l4.7-2.9,1.4,2.1a1.9,1.9,0,0,0,1.1.8h.8l.6-.3a1.9,1.9,0,0,0,.5-2.6l-1.3-2,7.7-4.8a1.9,1.9,0,0,0-.3-3.3l12.9.5L53.2,73h5.9l14-11.5a1.9,1.9,0,0,0,.6-.8l5,.2L79.8,73h3.8L82.4,61l17.5.6a89.9,89.9,0,0,1,.2,11.3h3.7a93.7,93.7,0,0,0-.2-11.1l12.6.4.8,10.6h3.7L120,62.4l7.5.3.7,10.1H132l-.7-9.9,5.7.2.2,9.7h3.7l-.2-9.5,5.3.2v4a1.5,1.5,0,0,0,2.9-.1V63.4l6.7.2.5,9h3.4l-.4-8.6h4.4l-.7,8.6H166l.7-8.8h3.5l1.3,8.9h6.6l-1.3-8.9H183v8.9h3.2V63.9l7.5.2v.7l-4.8.8a1.7,1.7,0,0,0-1.4,1.5c0,.1-.1,1.4.1,5.7h3.7c-.1-1.9-.1-3.2-.1-4.1l5.1-.9a1.7,1.7,0,0,0,1.4-2l-.3-1.6H200V60.1h-3.4c-.5-2.9-1.2-6.9-2-12.2l5.2-.8h.2V44h-.6l-5.2.8-.8-5.5,6.6-1.3V34.3l-7.1,1.4-1.1-7.5-1.5-10.7,9.7-1.6V12.1l-10.3,1.7-.8-5,11-2V3.4h0l-11.6,2c-.3-1.9-.7-3.7-1-5.5H184c.4,1.9.7,3.9,1.1,6L167.6,9.1l-1.7-9H144.3a42.9,42.9,0,0,0-8.9,3.1C130.7,5.4,124.4,6,118.8,6a1.9,1.9,0,0,0-1.1-.2l-.6.2-7.6-.5-3-.2A11,11,0,0,0,99.7,7a27.2,27.2,0,0,0-1.9-4.7L101.6,0H89.2c-1.9,1.3-3.7,2.7-5.4,4-11.6,9.6-21.2,17-29.3,22.9A73.9,73.9,0,0,0,44.4,6.8L42,3.1,49.6,0H32.5l.7,1.2L20.9,3.5h-.1L0,7.2V9.8L36.3,3.1,48.1,19l7,12.7L16,50.4,8.7,24,6.1,19.4,0,13.6v8.6l6.8,12Zm52.8,18,11-8.2L68,56.4Zm49,1.7h-.2l-6.9-.2L92,48.5l8.7-1,2,10.1Zm4.8.2-2.1-10.6,6.4-.7h.1l9.2-1,1.3,12.8h0Zm40.3,1.4a1.9,1.9,0,0,0,.2-.9l-2.5-25.1,5.6-.9,5.1,26v1.2Zm46.3.7-16.9-.3-1.3-8.4,16.3-2.8C192.1,53.2,192.8,57,193.2,59.9ZM190.1,40l.8,5.4-16.3,2.9-.8-4.4v-.8ZM185.7,9.4c.9,5.4,1.8,11.7,2.8,19.3l1.1,7.7-16.5,3.2-1.2-7.1-1.9-10.7,9-2.8a1.5,1.5,0,1,0-.9-2.8l-8.7,2.7-1.2-6.4ZM156.5,1.9h.2l2.7-.4c2.1,10.7,4.2,22.5,5.9,32.5l2,11.5c.7,3.7,1.5,8.8,2.3,14.5H159.1V58.2h0l-5.1-26,5.1-.8h0a1.7,1.7,0,0,0,1.1-.7,1.8,1.8,0,0,0,.3-1.3L155.6,4a1.7,1.7,0,1,0-3.3.7l4.5,23.6-3.5.5L148.2,3A71.9,71.9,0,0,1,156.5,1.9ZM144.6,3.4l5,25.6-5.3.8L141.7,4.2Zm-1.2,55.2V59h-2.8v-.2l-3.3-24.5,3.6-.5ZM137,6.1l1.2-.5,2.4,24.8-3.8.6L133.6,7.4Zm-7,2.3,6.9,50.4-11.7-.4a1.9,1.9,0,0,0,0-.7L120,9.3A53.2,53.2,0,0,0,129.9,8.4Zm-23.5.3,2.9.2,7,.4,3.4,32.4-7.9.9c-2.2-5.2-10.2-24.5-11-30.1l-.3-1.8C101.1,10,102.9,8.4,106.4,8.6Zm-5.5,16.7c2.5,6.7,5.5,14,7,17.6l-17,1.9L87,31.9v-.2ZM88.1,9.2a80.3,80.3,0,0,1,6.6-4.9,28.2,28.2,0,0,1,2.5,8.6,55.9,55.9,0,0,0,2.5,8.9L85,28.5,78.1,17.3ZM75.6,17.8,86.1,36.6,92.3,59H70.7L56.9,29.7ZM56.9,33.4l5.2,10.8L48,54.7,42.5,43.1C46.7,40.5,51.5,37.3,56.9,33.4ZM39,45.3l6.3,13.3A2.1,2.1,0,0,0,47,59.8l7.2.3-.5.2L35.5,71.4,25.2,53C29.2,50.9,33.7,48.5,39,45.3Z"/><path class="cls-5" d="M100.1,72.9h0Z"/><path class="cls-5" d="M171.5,72.6V73h6.6v-.4Z"/><path class="cls-5" d="M128.2,72.7V73H132v-.3Z"/><path class="cls-5" d="M182.9,72.7V73h3.2v-.3Z"/><path class="cls-5" d="M162.8,72.6V73H166v-.4Z"/><path class="cls-5" d="M137.2,72.6V73h3.7v-.4Z"/><path class="cls-5" d="M156.1,72.6V73h3.4v-.4Z"/><path class="cls-5" d="M92.3,59,86.1,36.6,75.6,17.8,56.9,29.7,70.7,59ZM77.7,46.3a1.9,1.9,0,0,0-2.5-.8L68.6,49,60,31.2c4.6-3.3,9.6-7.2,15.2-11.6l8.4,13.6,4.2,14.2h0l2.9,9.7-18.5-.7-2-4.1,6.7-3.5A1.9,1.9,0,0,0,77.7,46.3Z"/><path class="cls-5" d="M1.2,10.8l19-3.4L31.7,30.7a1.9,1.9,0,0,0,2,1l.5-.2A1.9,1.9,0,0,0,35,29L24,6.7l11.2-2c1.1,1.9,2.4,3.9,3.8,5.9,7,10.2,9.2,17.7,9.8,20.4A221.2,221.2,0,0,1,21.9,47.2L8.7,24,16,50.4,55.1,31.7,48.1,19,36.3,3.1,0,9.8v3.8l6.1,5.8ZM52.7,31.6h-.8V31l.8-.2Zm-.5-2.3-.8.2-.4-1.4.8-.2Zm-1.1-3.5.3.8-.8.3-.3-.8Z"/><path class="cls-5" d="M51.9,31.7h.8v-.8l-.8.2Z"/><path class="cls-5" d="M51.5,29.6l.8-.2L51.9,28l-.8.2Z"/><path class="cls-5" d="M51.4,26.6l-.3-.8-.8.3.3.8Z"/><path class="cls-6" d="M141,37.5c.1,5.3-9.4,19.5-9.4,19.5s-9.7-13.8-9.8-19.1a9.6,9.6,0,1,1,19.2-.5Z"/><circle class="cls-7" cx="131.4" cy="37.1" r="5.6"/></svg>