<svg xmlns="http://www.w3.org/2000/svg" viewBox="0 0 30 20"><defs><style>.cls-1{fill:#197b63;}.cls-2{fill:#ce2931;}.cls-3{fill:#fbd632;}</style></defs><title>cm</title><g id="Layer_70" data-name="Layer 70"><path class="cls-1" d="M2.6,0A2.5,2.5,0,0,0,0,2.5v15A2.5,2.5,0,0,0,2.6,20H9.9V0Z"/><path class="cls-2" d="M9.9,0V20H20.1V0Zm3.5,12.2.6-1.9L12.4,9.2h2L15,7.3l.6,1.9h2L16,10.3l.6,1.9L15,11Z"/><path class="cls-3" d="M27.5,0H20.1V20h7.4A2.5,2.5,0,0,0,30,17.5V2.5A2.5,2.5,0,0,0,27.5,0Z"/><polygon class="cls-3" points="17.6 9.2 15.6 9.2 15 7.3 14.4 9.2 12.4 9.2 14 10.3 13.4 12.2 15 11 16.6 12.2 16 10.3 17.6 9.2"/></g></svg>