<svg xmlns="http://www.w3.org/2000/svg" viewBox="0 0 30 20"><defs><style>.cls-1{fill:#6fb2e2;}.cls-2{fill:#23ad50;}.cls-3{fill:#fafafa;}.cls-4{fill:#ed2f31;}</style></defs><title>dj</title><g id="Layer_53" data-name="Layer 53"><path class="cls-1" d="M27.5,0H2.5A2.5,2.5,0,0,0,.9.6L8.6,5l8.7,5H30V2.5A2.5,2.5,0,0,0,27.5,0Z"/><path class="cls-2" d="M8.6,15,.9,19.4a2.5,2.5,0,0,0,1.6.6h25A2.5,2.5,0,0,0,30,17.5V10H17.3Z"/><path class="cls-3" d="M17.3,10,8.6,5,.9.6A2.5,2.5,0,0,0,0,2.5v15a2.5,2.5,0,0,0,.9,1.9L8.6,15Zm-11.6.8-1.2.8.4-1.4L3.8,9.4H5.2L5.7,8l.4,1.4H7.6l-1.2.8.5,1.4Z"/><polygon class="cls-4" points="7.6 9.4 6.1 9.4 5.7 8 5.2 9.4 3.8 9.4 4.9 10.2 4.5 11.6 5.7 10.8 6.9 11.6 6.4 10.2 7.6 9.4"/></g></svg>