<svg xmlns="http://www.w3.org/2000/svg" viewBox="0 0 30 20"><defs><style>.cls-1{fill:#ce2931;}.cls-2{fill:#fff;}.cls-3{fill:#121212;}.cls-4{fill:#fbd118;}</style></defs><title>eg</title><g id="Layer_48" data-name="Layer 48"><path class="cls-1" d="M27.4,0H2.6A2.5,2.5,0,0,0,0,2.5V6.6H30V2.5A2.5,2.5,0,0,0,27.4,0Z"/><path class="cls-2" d="M0,13.4H30V6.6H0Zm12.8-1.1V7h4.5v5.3h0v.8H12.8v-.8Z"/><path class="cls-3" d="M0,17.5A2.5,2.5,0,0,0,2.6,20H27.4A2.5,2.5,0,0,0,30,17.5V13.4H0Z"/><path class="cls-2" d="M15,7h.2l.2.2h0c0,.1.1.2,0,.4h0v.2l.2.4h.7c0-.1.1-.1.2-.2h.4a.5.5,0,0,1,.2.4.7.7,0,0,0,.1.5v1.8c0,.4.1.8.1,1.3V7H15Z"/><path class="cls-2" d="M17.2,12.2h-.4c0,.1,0,.1-.1.1h.2V13h.6v-.8h-.1Z"/><path class="cls-4" d="M16.5,8.8c0,.4.1.7.1,1v1.3a.7.7,0,0,0,.1.5h0c0,.1.1.1.2.2H17a1.3,1.3,0,0,1-.1-.6c0-1-.1-1.9-.1-2.9h-.3Z"/><path class="cls-2" d="M16.7,12.4H15.2c-.1,0,0,.1,0,.1v-.2H15v.2H13.6a.1.1,0,0,0-.1-.1h-.4v.2h.1v.2h3.5v-.2h.1v-.2h-.2Zm-3.1,0Zm0,.1Zm0,.3c-.1,0-.1-.1,0-.1Zm.1.1h0Zm.1,0c-.1,0-.1-.1,0-.1h0Zm0-.1a.1.1,0,0,1-.1-.1h-.1c0-.1,0-.2.1-.2h0v.2h.2s.1.1.1,0h0C13.9,12.8,13.9,12.8,13.8,12.8Zm.7,0h-.4a.1.1,0,0,1-.1.1h.5Zm0,0h0v-.2h.1C14.6,12.7,14.5,12.7,14.5,12.8Zm.8.1h-.7a.1.1,0,0,1,.1-.1h.2c0,.1,0,.1.1.1a.1.1,0,0,0,.1-.1h.1a.1.1,0,0,1,.1.1Zm.1-.4h0C15.3,12.6,15.3,12.5,15.4,12.5Zm-.1.2h0Zm.2.3c-.1,0-.1-.1,0-.1Zm.1,0h0Zm.1-.2h-.2c0-.1,0-.2-.1-.2h.1v.2h.2Zm0,.2h.1c-.1,0-.1,0-.1-.1h.1Zm.9-.3h.1C16.7,12.8,16.6,12.8,16.6,12.7Zm.1-.1h-.2a.1.1,0,0,1-.2,0h0a.1.1,0,0,1-.1.1h-.1v-.2h.6Z"/><path class="cls-2" d="M16.6,12.2h.1c0-.2,0-.2-.1-.2Z"/><path class="cls-4" d="M16.6,12.7h0c0,.1.1.1.1,0Z"/><path class="cls-4" d="M16.3,9.8v1.5h.1l.2.2h0v-.5a6.2,6.2,0,0,1-.1-1.3V8.7h0c-.1,0-.1,0-.1.1h-.2A2.8,2.8,0,0,1,16.3,9.8Z"/><path class="cls-2" d="M16.5,12.1H15.3a.1.1,0,0,0-.1.1h.6a.1.1,0,0,1,.1-.1h.6s.1-.1,0-.1Zm-1.2.2Zm.5,0h-.2c0-.1.1-.1.2,0Zm.3-.1Zm.2,0h0Z"/><path class="cls-2" d="M16.4,12.7Z"/><path class="cls-4" d="M16.3,12.1h0Z"/><path class="cls-2" d="M13.5,12h.2l.3-.9h0c-.1.1-.1.2-.2.2h0c0-.8.1-1.6.1-2.4h.5l.6-.3.7.3h.5v1.2a4.9,4.9,0,0,1,.1,1.2.2.2,0,0,1-.2-.2h0c.1.3.1.6.2.9h.9L17,12h0v-.5a.6.6,0,0,0-.1-.4V9.3c0-.3-.1-.6-.1-.9h.3c0-.2-.1-.3-.2-.3h-.2l-.4.2h-.7l-.4-.2-.2.2V8.5l-.4.2H13.2c-.1,0-.2.1-.2.3h.2v1.8c0,.1-.1.1-.1.2V12h0l-.2.2h.4Zm3-3.4h.3c0,1,.1,1.9.1,2.9a1.3,1.3,0,0,0,.1.6h-.1c-.1-.1-.2-.1-.2-.2h0a.7.7,0,0,1-.1-.5V9.8c0-.3-.1-.6-.1-1h0Zm-.2.2h.1c0-.1,0-.1.1-.1h0V9.8a6.2,6.2,0,0,0,.1,1.3v.5h0l-.2-.2h-.1V9.8a2.8,2.8,0,0,0-.1-.9h.1Zm-2.7-.1h.2v1.2c0,.3-.1.6-.1.9v.3h0l-.2.2h0V10.1A3.7,3.7,0,0,0,13.6,9Zm-.5,3.2c.1-1,.1-2.1.2-3.1V8.4l.2.2h0v1.4c0,.4-.1.8-.1,1.2v.3h0l-.3.2Z"/><path class="cls-4" d="M16.1,12.2Z"/><path class="cls-2" d="M16.2,12.8h0Z"/><path class="cls-2" d="M16.2,12.7Z"/><path class="cls-2" d="M16.1,12.7Z"/><path class="cls-2" d="M16,11.8c-.1,0-.1-.1-.2-.2v.3c-.1-.1-.1-.2-.2-.2h0v.2h.1a.4.4,0,0,0,.1-.3l.2.2h0v-.3l.2.3h.1c-.1-.1-.1-.3-.2-.5S16,11.7,16,11.8Z"/><path class="cls-2" d="M15.9,12.1h.2v-.2C16,12,16,12.1,15.9,12.1Z"/><path class="cls-2" d="M15,8.8l-.9.2a1.7,1.7,0,0,0,.1.7.9.9,0,0,0,.3.7l.5.5c.2,0,.3-.2.4-.3l.3-.4a1.7,1.7,0,0,0,.2-.5A1.7,1.7,0,0,0,16,9Zm.7,1.4a2.3,2.3,0,0,1-.7.7,2,2,0,0,1-.8-1.2c0-.2-.1-.4-.1-.6H15a1.4,1.4,0,0,0,.9.3A3.6,3.6,0,0,1,15.7,10.2Z"/><path class="cls-2" d="M16,9.6h-.1c0,.3.1.6.1.9h0V9.6Z"/><path class="cls-4" d="M16.7,12.6h-.6v.2h.1a.1.1,0,0,0,.1-.1h0a.1.1,0,0,0,.2,0h.2Zm-.8.2c0-.1,0-.1.1-.1h-.1Zm.2-.1Zm.1,0Zm0,.1Zm.2-.1Z"/><path class="cls-2" d="M15.9,12.8H16C15.9,12.7,15.9,12.7,15.9,12.8Z"/><path class="cls-2" d="M15.9,12.2h0a.1.1,0,0,0,0,.2H16A.1.1,0,0,0,15.9,12.2Z"/><path class="cls-2" d="M15.9,10.7c0-.2-.1-.3-.1-.5a.1.1,0,0,0-.1.1h0v.2l.2.2h.1Z"/><path class="cls-4" d="M15.8,12.7h-.1c0,.1,0,.1.1.1h-.1v-.2Zm-.1,0a.1.1,0,0,1,.1.1A.1.1,0,0,1,15.7,12.7Z"/><path class="cls-2" d="M15.7,12.7a.1.1,0,0,0,.1.1A.1.1,0,0,0,15.7,12.7Z"/><path class="cls-2" d="M15.7,12.2h0Z"/><path class="cls-4" d="M15.6,12.7h-.1v-.2h-.1c.1,0,.1.1.1.2h.1Zm-.2.1h0Z"/><path class="cls-2" d="M15.9,10.9l-.3-.2v.4c0,.1.1.1.1.2v-.2l.3.2h0c-.1-.2-.1-.4-.2-.5Z"/><path class="cls-4" d="M15.6,12.3h.2C15.7,12.2,15.6,12.2,15.6,12.3Z"/><path class="cls-4" d="M15.5,12.3h0Z"/><path class="cls-4" d="M14.8,8.9h-.7c0,.2.1.4.1.6a2,2,0,0,0,.8,1.2,2.3,2.3,0,0,0,.7-.7,3.6,3.6,0,0,0,.2-1.1,1.4,1.4,0,0,1-.9-.3Zm.5,1.7h0l-.3.2c-.1,0-.1-.1-.2-.2h-.1V9.1h.6v1.5Z"/><path class="cls-4" d="M15.6,12.9h0Z"/><path class="cls-2" d="M15.4,10.7c0,.1.1.2.2.3v-.5Z"/><path class="cls-2" d="M16.1,11.3h0a.2.2,0,0,1-.2-.2.4.4,0,0,0-.1.3l-.2-.2c0,.1-.1.2-.1.4l-.2-.2h0a.7.7,0,0,1,.1.5v-.3l.2.2h0c0-.1.1-.2.1-.3l.2.2v-.3Z"/><path class="cls-4" d="M15.5,12.9c-.1,0-.1.1,0,.1Z"/><path class="cls-2" d="M15.5,12.8h0Z"/><path class="cls-2" d="M14.7,12.1h-.1v.2h.9V12h-.2v-.4a.4.4,0,0,1-.1-.3,2,2,0,0,0,.1.7h-.1v.2h-.1a1.5,1.5,0,0,1,.1-.7h0c-.1.2-.1.5-.2.7Z"/><path class="cls-2" d="M15.3,11.2h0l.2.2h0v-.4l-.2-.2Z"/><path class="cls-2" d="M14.7,8.5h0c0-.2.1-.3.1-.5h0a.7.7,0,0,1-.1.5h-.1l.3-.2V8.2c.1,0,.1-.1.1-.2h0c0,.2,0,.3-.1.4V8h0v.2c0,.1,0,.2.1.2s.1.2.3.2h-.1a.8.8,0,0,1-.2-.5h.1a.7.7,0,0,0,.1.5h.3a.9.9,0,0,1-.3-.7V7.2h-.1c-.1,0-.2,0-.2.1h-.3c0-.1,0-.1-.1-.1h-.2q.3.2.3.3h-.1v.2c0,.4-.1.7-.3.8h.3Z"/><path class="cls-4" d="M15.4,12.6h0C15.3,12.5,15.3,12.6,15.4,12.6Z"/><path class="cls-4" d="M15.4,12.7h0Z"/><path class="cls-2" d="M15.2,12.8Z"/><path class="cls-2" d="M15.2,10.9a.4.4,0,0,0,.1.3c0-.1.1-.2.1-.4h-.2Z"/><path class="cls-2" d="M15.2,12.4h0a.4.4,0,0,0-.1.3Z"/><path class="cls-2" d="M14.9,12.8Z"/><path class="cls-2" d="M15.1,12.3Z"/><path class="cls-2" d="M14.9,7.2h0Z"/><path class="cls-2" d="M14.9,12.5h0a.1.1,0,0,0,0-.2h0Z"/><path class="cls-2" d="M15,8.9h-.3v1.4h.1c.1.1.1.2.2.2l.3-.2h0V9Z"/><path class="cls-2" d="M13.6,12.2H14a.1.1,0,0,1,.1-.1h-.5Zm1.1.1h0Zm-.3-.1s.1.1.1,0h-.2A.1.1,0,0,1,14.4,12.2Zm-.6,0h0Zm-.2-.1Z"/><path class="cls-2" d="M14.8,11.2a.4.4,0,0,1,.1-.3h-.2Z"/><path class="cls-2" d="M14.5,10.5V11l.2-.3Z"/><path class="cls-2" d="M14.7,12.8Z"/><path class="cls-2" d="M14.2,11.1c.1,0,.1.1.1.2v-.2c.1.1.1.3.2.4h0v-.2h.1l-.2-.3h0v.2a.6.6,0,0,0-.1-.4c0,.1-.1.1-.2.2h-.1a4.3,4.3,0,0,0-.1.5Z"/><path class="cls-4" d="M15.2,12.7h-.1a.1.1,0,0,1-.1.1c-.1,0-.1,0-.1-.1h-.2a.1.1,0,0,0-.1.1h.7A.1.1,0,0,0,15.2,12.7Zm-.5.1Zm.4.1Zm.1-.1Z"/><path class="cls-4" d="M14.5,12.3h0Z"/><path class="cls-4" d="M14.5,12.8h0c0-.1.1-.1.1-.2h-.1Z"/><path class="cls-4" d="M14.3,12.3h.2c0,.1-.1,0-.1,0a.1.1,0,0,0-.1.1Z"/><path class="cls-4" d="M14.4,12.6H14a.1.1,0,0,0,.1-.1h.4v-.2Zm-.2.1Z"/><path class="cls-2" d="M14,11.3h0a.4.4,0,0,0,.1.3l.2-.2a.4.4,0,0,0,.1.3.2.2,0,0,1,.2-.2v.3a1.1,1.1,0,0,0,.1-.5v.2l-.2-.4c0,.1,0,.1-.1.2v-.3c-.1.1-.1.2-.2.2Z"/><path class="cls-2" d="M14.3,12.1h.1V12Z"/><path class="cls-2" d="M14.3,10.2a.9.9,0,0,0-.1.5v.2l.2-.2h0v-.2C14.4,10.3,14.3,10.3,14.3,10.2Z"/><path class="cls-2" d="M14.3,12.7h0Z"/><path class="cls-2" d="M14.2,12.2a.1.1,0,0,0-.1.1h.1Z"/><path class="cls-2" d="M14.1,10.8h0V9.8h0A6.6,6.6,0,0,1,14,11Z"/><path class="cls-4" d="M12.9,12.2h.2c0,.1.1.1.1.2V13h3.4v-.4h-.2c.1,0,.1,0,.1-.1h.5v-.2c0-.5-.1-.9-.1-1.3V9a.7.7,0,0,1-.1-.5.5.5,0,0,0-.2-.4h-.4c-.1.1-.2.1-.2.2h-.7l-.2-.4V7.7h0c.1-.2,0-.3,0-.4h0L15.2,7h-.8a.3.3,0,0,0-.1.2h.2c.1,0,.1,0,.1.1s.1.1.1.2v.2a.9.9,0,0,1-.3.7l-.5-.2h-.1l-.3-.2h-.3c-.1.1-.2.1-.2.2a.6.6,0,0,0-.1.4V9.8a3.4,3.4,0,0,1-.1,1v1.5h.1Zm3.9.2h.1v.2h-.1v.2H13.3v-.2h-.1v-.2h.4a.1.1,0,0,1,.1.1h1.3v-.2h.1v.2s-.1-.1,0-.1h1.6Zm-3.3-.2h-.2a.2.2,0,0,1,.2-.2h0Zm0-.1h.6a.1.1,0,0,0-.1.1h-.5Zm3,.1h-.6a.1.1,0,0,0-.1.1h-.6a.1.1,0,0,1,.1-.1h1.2C16.6,12.1,16.5,12.2,16.5,12.2Zm-.5.1h-.1a.1.1,0,0,1,0-.2h0a.1.1,0,0,1,.1.1Zm-1.3-1.5h.2a.4.4,0,0,0-.1.3v-.3h0Zm-.2.2v-.5l.2.2Zm.3,1c.1-.2.1-.5.2-.7h0a1.5,1.5,0,0,0-.1.7H15V12h.1a2,2,0,0,1-.1-.7.4.4,0,0,0,.1.3V12h.2v.2h-.9V12h.2Zm.8-1c-.1-.1-.2-.2-.2-.3l.2-.2Zm0,.1v.4h0l-.2-.2h0v-.3Zm-.2-.3c0,.2-.1.3-.1.4a.4.4,0,0,1-.1-.3h.2Zm-.5,1.5a.1.1,0,0,1,0,.2h0Zm0-.1h0Zm.3,0h-.1A.4.4,0,0,1,15.2,12.2Zm.5,0V12h0Zm.2-.1c.1,0,.1-.1.1-.2v.2Zm.3,0-.2-.3v.3h0l-.2-.2a.4.4,0,0,1-.1.3h-.1v-.2h0c.1,0,.1.1.2.2v-.3c.1.1.1.2.2.2s.1-.2.1-.3.1.4.2.5Zm-.2-.4-.2-.2c0,.1-.1.2-.1.3h0l-.2-.2v.3a.7.7,0,0,0-.1-.5h0l.2.2c0-.2.1-.3.1-.4l.2.2a.4.4,0,0,1,.1-.3.2.2,0,0,0,.2.2h0Zm.1-.4-.3-.2v.2c0-.1-.1-.1-.1-.2v-.4l.3.2h0c.1.1.1.3.2.5Zm-.5-.7v-.2h0a.1.1,0,0,1,.1-.1c0,.2.1.3.1.5v.2h-.1Zm.4.2h0c0-.3-.1-.6-.1-.9H16v1.2Zm-.1-1.1a1.7,1.7,0,0,1-.2.5l-.3.4c-.1.1-.2.3-.4.3l-.5-.5a.9.9,0,0,1-.3-.7,1.7,1.7,0,0,1-.1-.7l.9-.2L16,9A1.7,1.7,0,0,1,15.9,9.7Zm-1.5.9h0l-.2.2v-.2a.9.9,0,0,1,.1-.5c0,.1.1.1.1.2v.2Zm-.3-1h0v.9h0V11A6.6,6.6,0,0,0,14.1,9.6Zm0,1.2h.1c.1-.1.2-.1.2-.2a.6.6,0,0,1,.1.4v-.2h0l.2.3h-.1v.2h0c-.1-.1-.1-.3-.2-.4v.2c0-.1,0-.2-.1-.2l-.2.2A4.3,4.3,0,0,1,14.1,10.8Zm-.1.5c.1,0,.1-.1.2-.2v.3c.1-.1.1-.1.1-.2l.2.4v-.2a1.1,1.1,0,0,1-.1.5v-.3a.2.2,0,0,0-.2.2.4.4,0,0,1-.1-.3l-.2.2a.4.4,0,0,1-.1-.3Zm.1.5.2-.2a.4.4,0,0,0,.1.3.2.2,0,0,1,.2-.2v.2h-.2a.4.4,0,0,0-.1-.3c0,.1,0,.2-.1.2h0a.4.4,0,0,1-.1-.3l-.2.3h-.1a4.3,4.3,0,0,0,.1-.5Zm.3.4h-.1Zm-.3-.1h-.2l.2-.2Zm.1.3h-.1a.1.1,0,0,1,.1-.1h0Zm2.4-.3c.1,0,.1,0,.1.2h-.1Zm-1.7-5Zm-.5,1.4c.2-.1.3-.4.3-.8V7.5h.1q0-.2-.3-.3h.2c.1,0,.1,0,.1.1h.3c0-.1.1-.1.2-.1h.1v.7a.9.9,0,0,0,.3.7h-.3a.7.7,0,0,1-.1-.5h-.1a.8.8,0,0,0,.2.5h.1c-.2,0-.3-.1-.3-.2s-.1-.1-.1-.2V8h0v.4c.1-.1.1-.2.1-.4h0c0,.1,0,.2-.1.2v.2l-.3.2h.1a.7.7,0,0,0,.1-.5h0c0,.2-.1.3-.1.5h-.3Zm-1.5,3.7.2-.2h0V10.4c0-.1.1-.1.1-.2V8.4H13c0-.2.1-.3.2-.3h1.3l.4-.2v.2l.2-.2.4.2h.7l.4-.2h.2c.1,0,.2.1.2.3h-.3c0,.3.1.6.1.9v1.8a.6.6,0,0,1,.1.4V12h0l.2.2h-.9c-.1-.3-.1-.6-.2-.9h0a.2.2,0,0,0,.2.2,4.9,4.9,0,0,0-.1-1.2V8.9h-.5L15,8.7l-.6.3h-.5c0,.8-.1,1.6-.1,2.4h0c.1,0,.1-.1.2-.2h0l-.3.9h-.2l-.2.2Z"/><path class="cls-2" d="M13.8,12h.1l.2-.3a.4.4,0,0,0,.1.3h0c.1,0,.1-.1.1-.2a.4.4,0,0,1,.1.3h.2v-.2a.2.2,0,0,0-.2.2.4.4,0,0,1-.1-.3l-.2.2-.2-.3A4.3,4.3,0,0,1,13.8,12Z"/><path class="cls-2" d="M13.9,12.1h.2v-.2Z"/><path class="cls-4" d="M13.9,12.6h0c0,.1-.1,0-.1,0h-.2v-.2h0c-.1,0-.1.1-.1.2h.1a.1.1,0,0,0,.1.1c.1,0,.1,0,.1-.1h0Zm-.3.1h0Z"/><path class="cls-4" d="M14,12.2h0Z"/><path class="cls-4" d="M13.5,11.6h0l.2-.2h0V11c0-.3.1-.6.1-.9V8.9h-.2V9a3.7,3.7,0,0,1-.1,1.1Z"/><path class="cls-4" d="M13.8,12.8c-.1,0-.1.1,0,.1Z"/><path class="cls-4" d="M13.7,12.8Z"/><path class="cls-4" d="M13.6,12.5Z"/><path class="cls-4" d="M13.8,12.2h0Z"/><path class="cls-2" d="M13.6,12.7h0Z"/><path class="cls-4" d="M13.6,12.4Z"/><path class="cls-4" d="M13.6,12.7c-.1,0-.1.1,0,.1Z"/><path class="cls-4" d="M13.4,11.7h0v-.3c0-.4.1-.8.1-1.2V8.7h0l-.2-.2v.4c-.1,1-.1,2.1-.2,3.1h0l.3-.2Z"/><path class="cls-2" d="M13.5,12.1h0a.2.2,0,0,0-.2.2h.2Z"/><path class="cls-2" d="M12.9,9.8V8.7a.6.6,0,0,1,.1-.4c0-.1.1-.1.2-.2h.3l.3.2h.1l.5.2a.9.9,0,0,0,.3-.7V7.6c0-.1,0-.2-.1-.2s0-.1-.1-.1h-.2a.3.3,0,0,1,.1-.2H12.8v3.8A3.4,3.4,0,0,0,12.9,9.8Z"/><path class="cls-2" d="M14.9,13.1H13.3v-.2c0-.1-.1-.1-.1-.2h-.3v.8Z"/></g></svg>