<svg xmlns="http://www.w3.org/2000/svg" viewBox="0 0 30 20"><defs><style>.cls-1{fill:#fafafa;}.cls-2{fill:#2f4fa2;}</style></defs><title>il</title><g id="Layer_14" data-name="Layer 14"><path class="cls-1" d="M2.5,20h25a2.6,2.6,0,0,0,2.4-1.8H.1A2.6,2.6,0,0,0,2.5,20Z"/><rect class="cls-1" y="5" width="30" height="10.05"/><path class="cls-1" d="M27.5,0H2.5A2.6,2.6,0,0,0,.1,1.8H29.9A2.6,2.6,0,0,0,27.5,0Z"/><path class="cls-2" d="M0,2.5V5H30V2.5a2,2,0,0,0-.1-.7H.1A2,2,0,0,0,0,2.5Z"/><path class="cls-2" d="M0,17.5a2,2,0,0,0,.1.7H29.9a2,2,0,0,0,.1-.7V15H0Z"/><path class="cls-2" d="M18.9,12.2H11.1L15,5.5Zm-6.4-.8h5L15,7.2Z"/><path class="cls-2" d="M15,14.5,11.1,7.8h7.8ZM12.5,8.6,15,12.8l2.5-4.2Z"/></g></svg>