<svg xmlns="http://www.w3.org/2000/svg" viewBox="0 0 30 20"><defs><style>.cls-1{fill:#121212;}.cls-2{fill:#fafafa;}.cls-3{fill:#197b49;}.cls-4{fill:#ce2931;}.cls-5{fill:#fff;}</style></defs><title>jo</title><g id="Layer_9" data-name="Layer 9"><path class="cls-1" d="M27.4,0H2.6A2.4,2.4,0,0,0,.9.6L10,6.7H30V2.5A2.5,2.5,0,0,0,27.4,0Z"/><polygon class="cls-2" points="15 10 10 13.3 30 13.3 30 6.7 10 6.7 15 10"/><path class="cls-3" d="M.9,19.4a2.4,2.4,0,0,0,1.7.6H27.4A2.5,2.5,0,0,0,30,17.5V13.3H10Z"/><path class="cls-4" d="M15,10,10,6.7.9.6A2.5,2.5,0,0,0,0,2.5v15a2.5,2.5,0,0,0,.9,1.9L10,13.3ZM4.2,9.1l.9.3.3-.8.3.8.8-.3-.4.7.7.5H5.9v.9l-.6-.6-.7.6v-.9H4l.7-.5Z"/><polygon class="cls-5" points="4.8 10.4 4.7 11.3 5.4 10.7 6 11.3 5.9 10.4 6.8 10.3 6.1 9.8 6.5 9.1 5.7 9.4 5.4 8.6 5.1 9.4 4.2 9.1 4.7 9.8 4 10.3 4.8 10.4"/></g></svg>