<svg xmlns="http://www.w3.org/2000/svg" viewBox="0 0 30 20"><defs><style>.cls-1{fill:#fc3;}.cls-2{fill:#fafafa;}.cls-3{fill:#ce2931;}.cls-4{fill:#4075ba;}.cls-5{fill:#fff;}.cls-6{fill:#3f8f42;}</style></defs><title>km</title><g id="Layer_21" data-name="Layer 21"><path class="cls-1" d="M27.5,0H2.5A2.5,2.5,0,0,0,.9.6L8.3,5H30V2.5A2.5,2.5,0,0,0,27.5,0Z"/><polygon class="cls-2" points="16.7 10 30 10 30 5 8.3 5 16.7 10"/><polygon class="cls-3" points="8.3 15 30 15 30 10 16.7 10 8.3 15"/><path class="cls-4" d="M.9,19.4a2.5,2.5,0,0,0,1.6.6h25A2.5,2.5,0,0,0,30,17.5V15H8.3Z"/><path class="cls-5" d="M1,10a4.6,4.6,0,0,0,4.6,4.5h1A4.6,4.6,0,0,1,3,10H3A4.7,4.7,0,0,1,6.6,5.6h-1A4.6,4.6,0,0,0,1,10Z"/><path class="cls-6" d="M8.3,5,.9.6A2.8,2.8,0,0,0,0,2.5v15a2.8,2.8,0,0,0,.9,1.9L8.3,15l8.4-5ZM5.8,13h.6l.2-.6.2.6h.6l-.5.3.2.6-.5-.3-.5.3.2-.6ZM7.4,6.5l-.5.4.2.5-.5-.3-.5.3.2-.5-.5-.4h.6l.2-.6.2.6Zm-1,2.2.2-.6.2.6h.6L6.9,9l.2.6-.5-.4-.5.4L6.3,9l-.5-.3Zm0,2.1.2-.6.2.6h.6l-.5.4.2.6-.5-.4-.5.4.2-.6-.5-.4Zm-.8,3.7A4.6,4.6,0,0,1,1,10H1A4.6,4.6,0,0,1,5.6,5.5h1A4.7,4.7,0,0,0,3,10H3a4.6,4.6,0,0,0,3.6,4.4Z"/><polygon class="cls-5" points="6.6 13.6 7.1 13.9 6.9 13.3 7.4 13 6.8 13 6.6 12.4 6.4 13 5.8 13 6.3 13.3 6.1 13.9 6.6 13.6"/><polygon class="cls-5" points="6.1 7.4 6.6 7.1 7.1 7.4 6.9 6.9 7.4 6.5 6.8 6.5 6.6 5.9 6.4 6.5 5.8 6.5 6.3 6.9 6.1 7.4"/><polygon class="cls-5" points="6.1 9.6 6.6 9.2 7.1 9.6 6.9 9 7.4 8.7 6.8 8.7 6.6 8.1 6.4 8.7 5.8 8.7 6.3 9 6.1 9.6"/><polygon class="cls-5" points="6.8 10.8 6.6 10.2 6.4 10.8 5.8 10.8 6.3 11.2 6.1 11.8 6.6 11.4 7.1 11.8 6.9 11.2 7.4 10.8 6.8 10.8"/></g></svg>