<svg xmlns="http://www.w3.org/2000/svg" viewBox="0 0 30 20"><defs><style>.cls-1{fill:#fafafa;}.cls-2{fill:#ef4630;}.cls-3{fill:#209e56;}</style></defs><title>lb</title><g id="Layer_1" data-name="Layer 1"><path class="cls-1" d="M16.5,11.1h.6c.3-.2.2-.4-.1-.4h-.4C16.4,11,16.4,11,16.5,11.1Z"/><path class="cls-1" d="M15.9,8.4c-.1.2,0,.2.1.2s.5.1.5-.1,0-.1-.1-.2h-.5Z"/><path class="cls-1" d="M16.8,9.4c.2.1.4.1.4-.1s-.1-.2-.2-.2h-.2C16.7,9.3,16.7,9.3,16.8,9.4Z"/><path class="cls-1" d="M15.9,7.4c.1,0,.2,0,.2-.1s.1-.2-.1-.2h0l-.2.2C15.8,7.4,15.8,7.4,15.9,7.4Z"/><path class="cls-1" d="M13.6,7.9h0a.4.4,0,0,0,.4-.2c.2-.1.3-.4.2-.4h-.1A1.2,1.2,0,0,0,13.6,7.9Z"/><path class="cls-1" d="M13.6,7.2h0c.1,0,.1,0,.1-.1h0c-.1,0-.1,0-.1.2Z"/><path class="cls-1" d="M13.5,11.2h-.1c-.1,0-.1,0,0,.3s.3.4.3.1S13.6,11.2,13.5,11.2Z"/><path class="cls-1" d="M16.8,14.8a1,1,0,0,0-.7-.4h-.5v.2a.3.3,0,0,1,.1.2h0c-.1,0-.2,0-.2-.1l-.4-.3c-.2-.1-.2-.2-.2-.2s-.1-.2-.4-.2h-.3c-.2-.1-.4,0-.7.2a1.1,1.1,0,0,1-.9.4,1.1,1.1,0,0,0-.7.3h5.1Z"/><path class="cls-1" d="M13.2,10.2H12.1v.2c.1.2.1.2.3.2l.5-.2a.2.2,0,0,0,.2-.2Z"/><path class="cls-1" d="M17.6,11.4h.5c.1-.2.1-.2,0-.3h-.2l-.5.4h.2Z"/><path class="cls-1" d="M12.8,8.4h-.2v.3c.2.2.2.2.4.1h.1V8.6C13,8.5,13,8.4,12.8,8.4Z"/><path class="cls-1" d="M15.4,8.2v.2h.3c.1-.2,0-.2-.1-.2Z"/><path class="cls-1" d="M14.4,7.5h.4c.2-.1.2-.1.2-.3s0-.1-.1-.1h-.3C14.4,7.3,14.4,7.4,14.4,7.5Z"/><path class="cls-1" d="M15,8.1h0c.2-.1.1-.2,0-.2Z"/><path class="cls-1" d="M15,9.7a.2.2,0,0,0,.1.4c.2.1.3,0,.2-.2V9.6H15Z"/><path class="cls-1" d="M15.4,7.3h.2c0-.1-.1-.1-.2-.1h0c-.1,0-.2,0-.2.1h.2Z"/><path class="cls-1" d="M15,5.3a1.6,1.6,0,0,0,.7.7h.5c.2,0,.4.1.8.4l.5.4h-.7l.9.6H16.5c0,.1,0,.2.2.3s.5.3.7.5l.9.6c.4.2.6.4.5.4h-.6c-.3-.1-.5-.1-.5,0h.4l.7.3q.9.1-.3.3c-.7,0-.9.1-.8.2H18a.7.7,0,0,1,.6.3l.6.5.5.4h-.2c-.2.1-.3,0-.6-.1s-.3-.2-.6-.1-.2.3.6.7,1.2.8,1.1,1-.3.1-.5,0l-.5-.4a1.7,1.7,0,0,0-1.1-.2H16.8c-.4-.2-.5-.2-.7-.1s-.1.3-.1.7.1.9.8,1.4l.5.5H30V5H14.9Z"/><path class="cls-1" d="M11.8,15c0-.1.3-.4.5-.5a1.1,1.1,0,0,0,.9-.6c.7-.7.7-1.2.2-1.5s-.2-.1-.9.2l-.9.4h-1v-.2h0l.7-.2c1-.3,1.5-.6,1.2-.8a.6.6,0,0,0-.7.1,3.9,3.9,0,0,1-1.4.5h-.2c.2,0,.3-.1.6-.4l.9-.7c.4-.2.5-.2.5-.4l-.2-.2c-.1-.2-.1-.2-.4,0l-.4.3-.4-.2h0l.5-.4a1,1,0,0,1,.7-.5c.2,0,.3-.1.5-.3s.2-.3.1-.5-.1-.2-.2-.2-.8.2-.8,0h0l.9-.6.4-.3c0-.2.3-.4.5-.4s.2,0,.1-.2-.1-.1-.2-.1-.2.1-.2,0h0l.6-.4c.2-.1.5-.3.5-.4h-.5V6.2l.5-.4.5-.5.2-.3H0V15Z"/><path class="cls-1" d="M13.5,8.3h-.2v.3c0,.1,0,.1.1,0l.2-.2C13.8,8.4,13.8,8.3,13.5,8.3Z"/><path class="cls-1" d="M14.2,11.4h-.1v.2h.2a.1.1,0,0,0,0-.2Z"/><path class="cls-1" d="M14.1,9.8h.1c0-.1-.1-.1-.1-.2h-.3a.3.3,0,0,1,.1.2Z"/><path class="cls-1" d="M15.5,9.8h0c0,.2,0,.3.1.3h0C15.6,9.9,15.6,9.8,15.5,9.8Z"/><path class="cls-1" d="M14.7,9.4h-.1c-.1,0-.1.1-.1.2s.2.1.2,0Z"/><path class="cls-1" d="M15.1,11.4h-.4v.3l.2-.2Z"/><path class="cls-2" d="M17.1,15H0v2.5A2.5,2.5,0,0,0,2.5,20h25A2.5,2.5,0,0,0,30,17.5V15H17.1Z"/><path class="cls-2" d="M27.5,0H2.5A2.5,2.5,0,0,0,0,2.5V5H30V2.5A2.5,2.5,0,0,0,27.5,0Z"/><path class="cls-3" d="M14.2,5.8l-.5.4v.2h.5c0,.1-.3.3-.5.4l-.6.4h0c0,.1.1.1.2,0s.2,0,.2.1,0,.2-.1.2-.5.2-.5.4l-.4.3-.9.6h0c0,.2.3.1.8,0s.1,0,.2.2.1.2-.1.5-.3.3-.5.3a1,1,0,0,0-.7.5l-.5.4h0l.4.2.4-.3c.3-.2.3-.2.4,0l.2.2c0,.2-.1.2-.5.4l-.9.7c-.3.3-.4.4-.6.4h.2a3.9,3.9,0,0,0,1.4-.5.6.6,0,0,1,.7-.1c.3.2-.2.5-1.2.8l-.7.2h0V13h1l.9-.4c.7-.3.7-.3.9-.2s.5.8-.2,1.5a1.1,1.1,0,0,1-.9.6c-.2.1-.5.4-.5.5H12a1.1,1.1,0,0,1,.7-.3,1.1,1.1,0,0,0,.9-.4c.3-.2.5-.3.7-.2h.3c.3,0,.4,0,.4.2s0,.1.2.2l.4.3c0,.1.1.1.2.1h0a.3.3,0,0,0-.1-.2v-.2h.5a1,1,0,0,1,.7.4l.3.2h.2l-.5-.5c-.7-.5-.8-.7-.8-1.4s0-.6.1-.7.3-.1.7.1h1.1a1.7,1.7,0,0,1,1.1.2l.5.4c.2.1.5.2.5,0s-.3-.5-1.1-1-.9-.5-.6-.7.3-.1.6.1.4.2.6.1h.2l-.5-.4-.6-.5a.7.7,0,0,0-.6-.3h-.3c-.1-.1.1-.2.8-.2s.9-.2.3-.3l-.7-.3h-.4c0-.1.2-.1.5,0h.6c.1,0-.1-.2-.5-.4l-.9-.6c-.2-.2-.5-.5-.7-.5s-.2-.2-.2-.3h1.2l-.9-.6h.7L17,6.5c-.4-.3-.6-.4-.8-.4h-.5a1.6,1.6,0,0,1-.7-.7V5l-.2.3Zm-1,4.4a.2.2,0,0,1-.2.2l-.5.2c-.2,0-.2,0-.3-.2v-.2h1.1Zm-.1-1.3c-.2.1-.2.1-.4-.1V8.5h.2c.2,0,.2.1.3.2v.2Zm4.3,2.4.5-.4h.2c.1.1.1.1,0,.3h-.7Zm-.6-2.1H17c.1,0,.2,0,.2.2s-.2.2-.4.1S16.7,9.3,16.8,9.2Zm.2,1.5c.3,0,.4.2.1.4h-.6c-.1-.1-.1-.1.1-.3Zm-.8-2.4h.2c.1.1.2.1.1.2s-.1.3-.5.1-.2,0-.1-.2Zm-.4-1,.2-.2h0c.2,0,.2.1.1.2s-.1.1-.2.1S15.8,7.4,15.8,7.3Zm-1.7.1h.1c.1,0,0,.3-.2.4a.4.4,0,0,1-.4.2h0A1.2,1.2,0,0,1,14.1,7.4Zm-.4-.5h0c0,.1,0,.1-.1.1h0C13.6,6.9,13.6,6.9,13.7,6.9Zm-.3,4.6c-.1-.3-.1-.3,0-.3h.1c.1,0,.2.1.2.4S13.5,11.9,13.4,11.5Zm.3-3-.2.2c-.1.1-.1.1-.1,0V8.4h.2C13.8,8.3,13.8,8.4,13.7,8.5Zm.1,1.1h.3c0,.1.1.1.1.2h-.3A.3.3,0,0,0,13.8,9.6Zm.5,2.1h-.2v-.2h.2A.1.1,0,0,1,14.3,11.7Zm.2-2.1c0-.1,0-.2.1-.2h.1v.2C14.7,9.7,14.6,9.8,14.5,9.6Zm.6,1.8h0l-.2.2v-.3h.4Zm.5-1.3h0c-.1,0-.1-.1-.1-.3h0c.1,0,.1.1.1.2Zm0-1.8h-.3V8.2h.1C15.6,8.1,15.7,8.1,15.6,8.3Zm-.4-1.1c0-.1.1-.1.2-.1h0c.1,0,.2,0,.2.1h-.4Zm0,2.4v.3c.1.2,0,.3-.2.2a.2.2,0,0,1-.1-.4h.2ZM15,8.3h0C15.1,8.1,15.2,8.2,15,8.3Zm-.1-1.2c.1,0,.1,0,.1.1s0,.2-.2.3h-.4c0-.1,0-.2.2-.3Z"/></g></svg>