<svg xmlns="http://www.w3.org/2000/svg" viewBox="0 0 30 20"><defs><style>.cls-1{fill:#e52e34;}.cls-2{fill:#1b8549;}</style></defs><title>ma</title><g id="Layer_78" data-name="Layer 78"><path class="cls-1" d="M27.4,0H2.5A2.5,2.5,0,0,0,0,2.5v15A2.5,2.5,0,0,0,2.5,20H27.4A2.5,2.5,0,0,0,30,17.5V2.5A2.5,2.5,0,0,0,27.4,0ZM13.7,8.6l-.2.9H12.2l2.7,2.1-.6.6L9.8,8.6Zm2.6.9h.1l1.7,5.8-3.2-2.6.7-.5,1,.8-.4-1.6v.3l-4.5,3.6L13,11.1l.6.6L13.3,13,16,10.8l-.4-1.3H14.3l-.4,1.3-.7-.5,1.7-5.8,1.3,4.1h-.9l-.4-1.3-.4,1.4h5.6l-3.2,2.5-.2-.8,1-.8Z"/><polygon class="cls-2" points="14.9 11.6 12.2 9.5 13.5 9.5 13.7 8.6 9.8 8.6 14.3 12.2 14.9 11.6"/><polygon class="cls-2" points="14.5 8.7 14.9 7.3 15.3 8.6 16.2 8.6 14.9 4.5 13.2 10.3 13.9 10.8 14.3 9.5 14.3 9.5 14.5 8.7"/><polygon class="cls-2" points="16.9 11.1 20.1 8.6 14.6 8.6 14.5 8.7 14.3 9.5 14.3 9.5 15.6 9.5 15.6 9.5 16.3 9.5 17.7 9.5 16.7 10.3 16.9 11.1"/><polygon class="cls-2" points="15.6 9.5 16 10.8 16 10.8 16.2 11.4 16.6 13 15.6 12.2 14.9 12.7 18.1 15.3 16.4 9.5 16.3 9.5 15.6 9.5 15.6 9.5"/><polygon class="cls-2" points="16 10.8 13.3 13 13.6 11.7 13 11.1 11.7 15.3 16.2 11.7 16.2 11.4 16 10.8 16 10.8"/></g></svg>