<svg xmlns="http://www.w3.org/2000/svg" viewBox="0 0 30 20"><defs><style>.cls-1{fill:#418140;}.cls-2{fill:#fafafa;}.cls-3{fill:#333;}.cls-4{fill:#cc3533;}</style></defs><title>ps</title><g id="Layer_63" data-name="Layer 63"><path class="cls-1" d="M.7,19.2a2.5,2.5,0,0,0,1.8.8h25A2.5,2.5,0,0,0,30,17.5V13.3H6.6Z"/><polygon class="cls-2" points="9.9 10 6.6 13.3 30 13.3 30 6.7 6.6 6.7 9.9 10"/><path class="cls-3" d="M27.5,0H2.5A2.5,2.5,0,0,0,.7.8L6.6,6.7H30V2.5A2.5,2.5,0,0,0,27.5,0Z"/><path class="cls-4" d="M9.9,10,6.6,6.7.7.8A2.8,2.8,0,0,0,0,2.5v15a2.8,2.8,0,0,0,.7,1.7l5.9-5.9Z"/></g></svg>