<svg xmlns="http://www.w3.org/2000/svg" viewBox="0 0 30 20"><defs><style>.cls-1{fill:#6e2240;}.cls-2{fill:#fafafa;}</style></defs><title>qa</title><g id="Layer_54" data-name="Layer 54"><path class="cls-1" d="M27.5,0H5.7L9.1,1.1,5.5,2.2,9.1,3.3,5.5,4.4,9.1,5.5,5.5,6.6,9.1,7.8,5.5,8.9,9.1,10,5.5,11.1l3.6,1.1L5.5,13.4l3.6,1.1L5.5,15.6l3.6,1.1L5.5,17.8l3.6,1.1L5.7,20H27.5A2.5,2.5,0,0,0,30,17.5V2.5A2.5,2.5,0,0,0,27.5,0Z"/><path class="cls-2" d="M5.5,17.8l3.6-1.1L5.5,15.6l3.6-1.1L5.5,13.4l3.6-1.2L5.5,11.1,9.1,10,5.5,8.9,9.1,7.8,5.5,6.6,9.1,5.5,5.5,4.4,9.1,3.3,5.5,2.2,9.1,1.1,5.7,0H2.5A2.5,2.5,0,0,0,0,2.5v15A2.5,2.5,0,0,0,2.5,20H5.7l3.4-1.1Z"/></g></svg>