<svg id="Flags" xmlns="http://www.w3.org/2000/svg" viewBox="0 0 30 20"><defs><style>.cls-1{fill:#d32a40;}.cls-2{fill:#fafafa;}.cls-3{fill:#121212;}.cls-4{fill:#177341;}</style></defs><title>Artboard 37</title><path class="cls-1" d="M27.5,0H2.5A2.8,2.8,0,0,0,.8.7l8,6H30V2.5A2.5,2.5,0,0,0,27.5,0Z"/><polygon class="cls-2" points="13.3 10 8.8 13.3 30 13.3 30 6.7 8.8 6.7 13.3 10"/><path class="cls-3" d="M.8,19.3a2.8,2.8,0,0,0,1.7.7h25A2.5,2.5,0,0,0,30,17.5V13.3H8.8Z"/><path class="cls-4" d="M13.3,10,8.8,6.7.8.7A2.5,2.5,0,0,0,0,2.5v15a2.5,2.5,0,0,0,.8,1.8l8-6Z"/></svg>