<svg xmlns="http://www.w3.org/2000/svg" viewBox="0 0 30 20"><defs><style>.cls-1{fill:#1e9551;}.cls-2{fill:#fff;}</style></defs><title>sa</title><g id="Layer_48" data-name="Layer 48"><path class="cls-1" d="M15.3,7.5h-.2v.2h.2C15.6,7.6,15.5,7.6,15.3,7.5Z"/><path class="cls-1" d="M27.4,0H2.5A2.5,2.5,0,0,0,0,2.5v15A2.5,2.5,0,0,0,2.5,20H27.4A2.5,2.5,0,0,0,30,17.5V2.5A2.5,2.5,0,0,0,27.4,0ZM21.5,5.4c0-.1.1-.1.1.1a1.5,1.5,0,0,1,.1.6c0,.2-.1.2-.1.1a1.3,1.3,0,0,0-.1-.6C21.4,5.5,21.4,5.5,21.5,5.4ZM19.2,6.5h.1c.1,0,.2.3.2.3s.1.1.1,0V6.5c0-.1,0-.2.1-.2h.1c0,.1.1.1.1.2h-.2c-.1.1,0,.4,0,.5s-.1.2-.1.1l-.3-.4h-.1ZM19.8,8h0c.1-.1.1-.1.2,0s.2.3.1.4-.1.1-.1,0S19.9,8,19.8,8Zm.2-.5-.5.3h-.2s0-.1.2-.2l.4-.3h.2C20.1,7.4,20.1,7.5,20,7.5ZM18.4,5.2c.1-.2.1-.2.2,0a1.1,1.1,0,0,0,.2.6c.1.2,0,.2-.2.1h0A13.3,13.3,0,0,0,18.9,8a2,2,0,0,1-.1,1.3c-.1.2-.1.1-.1,0s0-.5,0-.9-.2-1.3-.3-2.4S18.2,5.4,18.4,5.2Zm-.8.1.2-.2s.1,0,.1.2.1.3.2.5-.1.1-.2,0,.2,1.3.2,2.6a1.9,1.9,0,0,1-.3,1.3c-.4.4-.4.5-.9.5s-.3-.1,0-.1a2.7,2.7,0,0,0,.7-.6c.4-.4.3-.6.3-1.2s-.1-1.2-.3-2.7Zm-.2,1c0-.2,0-.2.1-.1v.2h-.3c-.1.1-.2,0-.2-.1h0c.1.1.1.1.2,0h0C17.3,6.4,17.4,6.4,17.4,6.3ZM17,5.1s.1-.1.1.1a.6.6,0,0,1,.1.6c-.1.2-.1.1-.1-.1s0-.3-.1-.4S16.9,5.2,17,5.1Zm-1.4,0,.5.4c.1.2,0,.2-.2.2a1,1,0,0,1,.4.5c0-.2-.1-.5-.1-.6V5.2c.1-.1.2-.1.2,0l.3.7c0,.1,0,.2-.1.1v.7a7.1,7.1,0,0,1,1.1,2.1c.1.3,0,.3-.1,0a11.9,11.9,0,0,0-1-1.7,2.8,2.8,0,0,1,.1.9,3.3,3.3,0,0,1,0,1.4c-.2.4-.2.3-.2,0a5.7,5.7,0,0,0-.1-1.8,2.8,2.8,0,0,0-.1-.9l-.7-1.1c-.2,0-.2-.1-.2-.2V5.1C15.4,5,15.4,4.9,15.6,5.1Zm-1.9,0s.1,0,.2.2v.5c-.1.2-.1.1-.1,0a.7.7,0,0,0-.1-.5C13.6,5.2,13.6,5.2,13.7,5.1Zm-1.4.4c.1-.2.1-.1.1.1a1.1,1.1,0,0,0,0,.8.2.2,0,0,0,.4,0,2.6,2.6,0,0,1,.4-1,.2.2,0,0,1,.3,0v.3a1.7,1.7,0,0,0-.1.7c0,.2.2.4.5.2s.4-.5.2-1.2-.1-.1,0-.2,0-.1.1-.2h.1a1.7,1.7,0,0,1,.1.8c0,.2.2.7.4.7s.2-.7,0-1.1-.1-.2,0-.2V5.1H15l.3.4c.1.2-.1.1-.1.1h-.1c.1.1.1.5.1.7s-.4.9-.9.3-.5.6-.8.4-.3-.6-.3-.9,0-.2-.1,0a3.9,3.9,0,0,1-.2.6c-.1.2-.2.3-.4.1A1.5,1.5,0,0,1,12.3,5.5Zm2,2.1h-.1c0,.1-.1.1-.1,0s-.1-.1-.1-.3h.1c0,.3.1.2.1,0h.1c.1.2.2.2.2,0h0C14.6,7.6,14.4,7.6,14.3,7.6Zm-1.8.5c0-.2-.1-.3-.1-.4s-.2-.2-.1-.4.1-.2.3,0,.2.4.1.4.2,1-.2,1.3l-.6.5c0,.2,0,.3.4.3a2.1,2.1,0,0,0,1.1-1,5,5,0,0,0-.5-1.3c0-.2,0-.3.1-.4s.1-.2.2,0,.2.6.3,1.1.1.9.4,1.2l.4.2c-.1-.4.2-.6.5-.7s-.5-.2-.9-.2-.2-.1-.1-.3.1-.2.3-.3l.8-.3c-.2-.3-.1-.4.1-.6s.4-.2.7,0a.4.4,0,0,1-.1.7l-.3.2h-.1l-.8.3h1.7c.2,0,.2,0,.1.2s-.1.2-.3.2l-1.2.4c-.3.1-.2.4.2.5s.2.1.2.3-.1.2-.4.1a1.3,1.3,0,0,1-1.2-.9c-.5.7-1,1.1-1.5,1a.9.9,0,0,1-.4-.6l-1.1.5c-.1,0-.2,0-.1-.1l1.3-.7a1.9,1.9,0,0,1,.2-.7H12a1,1,0,0,0-.1.4l.3-.2C12.4,8.6,12.8,8.5,12.5,8.1Zm3,1.6h-.1l.3-.2s.1,0,0,.2,0,.2.1.2l.3-.2c.1,0,.2,0,.1.1l-.4.2c-.2.1-.3,0-.2-.1S15.6,9.6,15.5,9.7ZM11.3,8.6c-.1,0-.1-.1-.1-.2h.2v.6h-.1C11.4,8.8,11.4,8.6,11.3,8.6ZM11,6.3l.8-.6a.2.2,0,0,1-.1-.4c.1-.3.5-.3.4.1v.2c.1.1,0,.2-.1.2a1.8,1.8,0,0,1-.8.6C10.9,6.5,10.9,6.4,11,6.3Zm.8.4c.2-.2.2-.1.1,0s-.2.3-.3.2a.3.3,0,0,1,0-.5c.1-.2.2-.2.1,0S11.7,6.9,11.8,6.7ZM9.2,5.1c.1-.1.1,0,.1.1h.2c0,.2.2.2.2.1h0c.1,0,0,.1,0,.1a.1.1,0,0,1-.1.1c-.1-.1-.1-.1-.1,0s-.2,0-.2-.1S9.2,5.2,9.2,5.1Zm-1.4,0c.1-.1.3-.2.3,0a.8.8,0,0,1-.2.5c.1-.3.1-.5,0-.4S7.8,5.2,7.8,5.1Zm-.3.7h0a2.9,2.9,0,0,0,.2.9h.2c0-.1.1-.3.1-.4a1.4,1.4,0,0,1,.2-.7c.1-.1.2-.2.3-.1s0,.3,0,.4a.8.8,0,0,0,0,.7c0,.1.1.2.3.2a3.9,3.9,0,0,1-.1-.9,1,1,0,0,0-.1-.4c0-.1-.1-.2,0-.3s.1-.2.2,0,.2.5.1.5a3.4,3.4,0,0,0,.1,1l.2-.3a1.3,1.3,0,0,1-.1-.6c-.1-.1,0-.3,0-.4s0-.1.1.1a.8.8,0,0,1,.1.4.9.9,0,0,0,.1.5c.1.3.2.3.3.3s.2,0,.2-.2-.1-.5-.3-.7V5.4h.2a.3.3,0,0,1,.1.2c.1.1.1.2,0,.2s.2.9-.1,1.1-.5.1-.6-.2H9.2L9,7.1a2.2,2.2,0,0,0,.1.9.7.7,0,0,1-.1.5c0,.1-.1.2-.1,0s-.1-1-.1-1.3-.6-.6-.5-1,0-.4-.1-.1-.1.6-.2.9a.2.2,0,0,1-.4,0A1.6,1.6,0,0,1,7.5,5.8Zm.1,2.3.8-.6h.2c0,.2,0,.2-.1.2l-.9.4ZM8,9.6c0,.5-.4.5-.4.1s.1-.6.1-.8v0a.4.4,0,0,1-.1.3c-.1.4.1.6.2.4Zm.3.2a3.1,3.1,0,0,1-.1-1.3c.1-.2.2-.3.2,0s-.1.2-.1.3.2,1,.9.9l.8-.4a.8.8,0,0,0,.4-.8V8h-.1v.2c0,.5-.4.8-.9,1s-.7.1-.8-.2-.1-.6,0-.9h0c0,.3,0,.6.2.7s.8,0,1.2-.4V8.2c-.1,0-.2,0-.2.1H9.5c-.2-.1-.1-.2-.2-.4s0-.2.2-.4a.2.2,0,0,1,.4,0c.2.1.2.2.3.3h.2a4.9,4.9,0,0,0-.2-1.5V5.5c-.1-.1-.1-.1,0-.3s.2-.2.2,0a3.3,3.3,0,0,0,.3.6c0,.2-.1.3-.2.2a8.6,8.6,0,0,1,.1,1.5h.2c0-.1.1-.1.1,0s.4.5.5,0,.1-.2.1.1.4.4.3,0-.1-.1,0-.2.2-.1.2.1a1.1,1.1,0,0,1-.1.5c0,.2-.4.1-.4,0s-.1-.1-.2,0a.4.4,0,0,1-.6,0h-.1a.9.9,0,0,1,.1.5A1.4,1.4,0,0,1,10,9.8C9.4,10.1,8.6,10.2,8.3,9.8Zm12,5.1H18.7c-.1-.1-.1-.1,0-.3h-7c-1,0-2.1,0-2.4-.5h9.4c-.1-.2-.1-.2,0-.3h.2c0,.1.1.1-.1.3H20c.4,0,.6,0,.6.3S20.5,14.9,20.3,14.9Zm.4-4.9h-.4c-.1,0-.1-.1,0-.1h.1V9.7h.2c-.1.1-.1.1,0,.1h.1Zm-.5-.6a.5.5,0,0,1-.5-.3h-.2c-.2.2-.2.5-.5.9s-.2.1-.5-.1-.3-.3-.1-1,.1-.2.1,0a1.7,1.7,0,0,0,.1.7c.2.2.3.1.4-.1l.4-.7c.1-.2.2-.3.4,0s.3.3.4.2.2-.2.2-.4a18.2,18.2,0,0,0-.1-2l-.6-.9c-.2-.1-.2-.2-.1-.3V5.2c0-.1,0-.1.1,0l.4.3c.1.1,0,.2-.1.1l.3.4c0-.1-.1-.3-.1-.4s0-.3.1-.5h.1a2.1,2.1,0,0,1,.2.6c.1.1,0,.2-.1.1a1.3,1.3,0,0,1,.1.6,4.3,4.3,0,0,1,.4.7c0-.5-.1-1.1-.1-1.7s0-.1,0-.3h.2a2.1,2.1,0,0,1,.2.6c0,.2,0,.2-.1.2s.1.9.1,1.5l.5.8c.2.2.2.4.3.5s-.1.3-.2.1L21.4,8v.8c-.1.3-.2.3-.2,0a4,4,0,0,0,0-1.1L20.6,7a9.7,9.7,0,0,1,.1,1.6C20.7,9.3,20.4,9.5,20.2,9.4Zm1.2.6c-.5.1-.2,0,0-.2a1.4,1.4,0,0,0,.8-1.5c0-.5-.1-1.3-.3-2.9a.4.4,0,0,1,.1-.3h.2a.8.8,0,0,0,.2.5c.1.2,0,.2-.1.1a13.6,13.6,0,0,0,.2,2.4C22.5,9.5,22,9.9,21.4,10Z"/><path class="cls-1" d="M9.7,7.7c-.1-.1-.1,0-.1.1s0,.2.2.1h.1C9.8,7.8,9.8,7.7,9.7,7.7Z"/><path class="cls-1" d="M11.9,5.3c-.1.1-.1.1,0,.2h0Z"/><path class="cls-1" d="M18.8,14.5h1.3v-.3Z"/><path class="cls-2" d="M20,14.1H18.8c.2-.2.1-.2.1-.3h-.2c-.1.1-.1.1,0,.3H9.3c.3.5,1.4.5,2.4.5h7c-.1.2-.1.2,0,.3h1.6c.2,0,.3-.2.3-.5S20.4,14.1,20,14.1Zm.1.6h0Z"/><path class="cls-2" d="M7.9,5.2c.1-.1.1.1,0,.4a.8.8,0,0,0,.2-.5c0-.2-.2-.1-.3,0S7.8,5.3,7.9,5.2Z"/><path class="cls-2" d="M8,7c.1-.3,0-.5.2-.9s.1-.1.1.1-.1,1,.5,1,.1,1,.1,1.3.1.1.1,0A.7.7,0,0,0,9.1,8,2.2,2.2,0,0,1,9,7.1l.2-.3h.1c.1.3.3.4.6.2s.2-.7.1-1.1.1-.1,0-.2a.3.3,0,0,0-.1-.2H9.7v.4c.2.2.2.5.3.7s-.1.2-.2.2-.2,0-.3-.3a.9.9,0,0,1-.1-.5.8.8,0,0,0-.1-.4c-.1-.2-.1-.1-.1-.1s-.1.3,0,.4a1.3,1.3,0,0,0,.1.6L9,6.7a3.4,3.4,0,0,1-.1-1c.1,0,0-.3-.1-.5s-.1-.1-.2,0,0,.2,0,.3a1,1,0,0,1,.1.4,3.9,3.9,0,0,0,.1.9c-.2,0-.3-.1-.3-.2a.8.8,0,0,1,0-.7c0-.1.1-.4,0-.4s-.2,0-.3.1a1.4,1.4,0,0,0-.2.7c0,.1-.1.3-.1.4H7.7a2.9,2.9,0,0,1-.2-.9h0A1.6,1.6,0,0,0,7.6,7,.2.2,0,0,0,8,7Z"/><path class="cls-2" d="M9.5,5.4c0-.1,0-.1.1,0a.1.1,0,0,0,.1-.1s.1-.1,0-.1h0c0,.1-.2.1-.2-.1H9.3c0-.1,0-.2-.1-.1s0,.2.1.2S9.4,5.4,9.5,5.4Z"/><path class="cls-2" d="M8.5,7.7c.1,0,.1,0,.1-.2H8.4l-.8.6c-.1.1,0,.1,0,0Z"/><path class="cls-2" d="M7.9,9.6c-.1.2-.3,0-.2-.4a.4.4,0,0,0,.1-.3v0c0,.2-.2.3-.1.8s.4.4.4-.1Z"/><path class="cls-2" d="M10.7,8.4a.9.9,0,0,0-.1-.5h.1a.4.4,0,0,0,.6,0c.1-.1.1-.1.2,0s.4.2.4,0a1.1,1.1,0,0,0,.1-.5c0-.2-.1-.2-.2-.1s0,.1,0,.2-.3.4-.3,0-.1-.2-.1-.1-.5.6-.5,0-.1-.1-.1,0h-.2A8.6,8.6,0,0,0,10.5,6c.1.1.2,0,.2-.2a3.3,3.3,0,0,1-.3-.6c0-.2,0-.1-.2,0s-.1.2,0,.3v.7a4.9,4.9,0,0,1,.2,1.5h-.2c-.1-.1-.1-.2-.3-.3a.2.2,0,0,0-.4,0c-.2.2-.2.3-.2.4s0,.3.2.4h.3c0-.1.1-.1.2-.1v.3c-.4.4-1,.7-1.2.4s-.2-.4-.2-.7,0-.1,0,0-.2.7,0,.9.4.4.8.2.9-.5.9-1V8.1h.1v.5a.8.8,0,0,1-.4.8l-.8.4c-.7.1-.9-.4-.9-.9s.1-.2.1-.3-.1-.2-.2,0a3.1,3.1,0,0,0,.1,1.3c.3.4,1.1.3,1.7,0A1.4,1.4,0,0,0,10.7,8.4Zm-.9-.5c-.2.1-.2,0-.2-.1s0-.2.1-.1.1.1.2.2Z"/><path class="cls-2" d="M11.4,8.9V8.3h-.2c0,.1,0,.2.1.2s.1.2,0,.3Z"/><path class="cls-2" d="M11.6,6.4a.3.3,0,0,0,0,.5c.1.1.3,0,.3-.2s.1-.2-.1,0-.3,0-.1-.3S11.7,6.2,11.6,6.4Z"/><path class="cls-2" d="M11.1,6.4a1.8,1.8,0,0,0,.8-.6c.1,0,.2-.1.1-.2V5.4c.1-.4-.3-.4-.4-.1a.2.2,0,0,0,.1.4l-.8.6C10.9,6.4,10.9,6.5,11.1,6.4Zm.8-1.1h0C11.8,5.4,11.8,5.4,11.9,5.3Z"/><path class="cls-2" d="M12.9,6.7a3.9,3.9,0,0,0,.2-.6c.1-.2.2-.2.1,0s0,.7.3.9.7-.1.8-.4.9.3.9-.3,0-.6-.1-.7h.1s.2.1.1-.1L15,5.1h-.1v.2c-.1,0-.1,0,0,.2s.3,1,0,1.1-.4-.5-.4-.7a1.7,1.7,0,0,0-.1-.8h-.1c-.1.1-.1.1-.1.2s0,.1,0,.2.1,1-.2,1.2-.5,0-.5-.2a1.7,1.7,0,0,1,.1-.7V5.4a.2.2,0,0,0-.3,0,2.6,2.6,0,0,0-.4,1,.2.2,0,0,1-.4,0,1.1,1.1,0,0,1,0-.8c0-.2,0-.3-.1-.1a1.5,1.5,0,0,0,.2,1.3C12.7,7,12.8,6.9,12.9,6.7Z"/><path class="cls-2" d="M13.8,5.8c0,.1,0,.2.1,0V5.3c-.1-.2-.2-.2-.2-.2s-.1.1,0,.2A.7.7,0,0,1,13.8,5.8Z"/><path class="cls-2" d="M12.2,8.9l-.3.2a1,1,0,0,1,.1-.4h-.1a1.9,1.9,0,0,0-.2.7l-1.3.7c-.1.1,0,.1.1.1l1.1-.5a.9.9,0,0,0,.4.6c.5.1,1-.3,1.5-1a1.3,1.3,0,0,0,1.2.9c.3.1.3,0,.4-.1s0-.2-.2-.3-.5-.4-.2-.5l1.2-.4c.2,0,.3,0,.3-.2s.1-.2-.1-.2H14.4l.8-.3h.1l.3-.2a.4.4,0,0,0,.1-.7c-.3-.2-.6-.2-.7,0s-.3.3-.1.6l-.8.3c-.2.1-.3.1-.3.3s-.1.3.1.3.7,0,.9.2-.6.3-.5.7l-.4-.2c-.3-.3-.2-.7-.4-1.2s-.3-1-.3-1.1-.1-.1-.2,0-.1.2-.1.4a5,5,0,0,1,.5,1.3,2.1,2.1,0,0,1-1.1,1c-.4,0-.4-.1-.4-.3l.6-.5c.4-.3.4-.7.2-1.3s.1-.1-.1-.4-.2-.1-.3,0-.1.3.1.4.1.2.1.4S12.4,8.6,12.2,8.9Zm2.9-1.4h.2c.2.1.3.1.1.2h-.2Z"/><path class="cls-2" d="M14.5,7.3c0,.2-.1.2-.2,0h-.1c0,.2-.1.3-.1,0H14c0,.2,0,.2.1.3s.1.1.1,0h.1c.1,0,.3,0,.2-.4Z"/><path class="cls-2" d="M17,5.3c.1.1.2.3.1.4s0,.3.1.1a.6.6,0,0,0-.1-.6c0-.2-.1-.1-.1-.1S16.9,5.3,17,5.3Z"/><path class="cls-2" d="M15.4,5.4c0,.1,0,.2.2.2l.7,1.1a2.8,2.8,0,0,1,.1.9,5.7,5.7,0,0,1,.1,1.8c0,.3,0,.4.2,0a3.3,3.3,0,0,0,0-1.4,2.8,2.8,0,0,0-.1-.9,11.9,11.9,0,0,1,1,1.7c.1.3.2.3.1,0a7.1,7.1,0,0,0-1.1-2.1V6c.1.1.1,0,.1-.1l-.3-.7c0-.1-.1-.1-.2,0v.4c0,.1.1.4.1.6a1,1,0,0,0-.4-.5c.2,0,.3,0,.2-.2l-.5-.4c-.2-.2-.2-.1-.2,0Z"/><path class="cls-2" d="M17.2,6.3c-.1.1-.1.1-.2,0h0c0,.1.1.2.2.1h.3V6.2c-.1-.1-.1-.1-.1.1s-.1.1-.2,0Z"/><path class="cls-2" d="M15.8,10l.4-.2c.1-.1,0-.1-.1-.1l-.3.2c-.1,0-.1,0-.1-.2s0-.2,0-.2l-.3.2h.1c.1-.1.1,0,.1.2S15.6,10.1,15.8,10Z"/><path class="cls-2" d="M17.9,8.3c0,.6.1.8-.3,1.2a2.7,2.7,0,0,1-.7.6c-.3,0-.3.1,0,.1s.5-.1.9-.5a1.9,1.9,0,0,0,.3-1.3c0-1.3-.2-1.9-.2-2.6s.2.1.2,0-.1-.4-.2-.5-.1-.2-.1-.2l-.2.2v.3C17.8,7.1,17.8,7.8,17.9,8.3Z"/><path class="cls-2" d="M18.7,8.4c0,.4.1.6,0,.9s0,.2.1,0A2,2,0,0,0,18.9,8a13.3,13.3,0,0,1-.3-2.1h0c.2.1.3.1.2-.1a1.1,1.1,0,0,1-.2-.6c-.1-.2-.1-.2-.2,0s-.1.5,0,.8S18.7,8.2,18.7,8.4Z"/><path class="cls-2" d="M19.3,6.7l.3.4c0,.1.1,0,.1-.1s-.1-.4,0-.5h.2c0-.1-.1-.1-.1-.2h-.1c-.1,0-.1.1-.1.2v.3c0,.1,0,.1-.1,0s-.1-.3-.2-.3h-.1v.2Z"/><path class="cls-2" d="M19.9,7.4l-.4.3c-.2.1-.2.2-.2.2h.2l.5-.3c.1,0,.1-.1.1-.2Z"/><path class="cls-2" d="M20.6,7l.6.7a4,4,0,0,1,0,1.1c0,.3.1.3.2,0V8l.5.8c.1.2.2.3.2-.1s-.1-.3-.3-.5l-.5-.8c0-.6-.1-1.2-.1-1.5s.1,0,.1-.2a2.1,2.1,0,0,0-.2-.6h-.2c0,.2-.1.2,0,.3s.1,1.2.1,1.7a4.3,4.3,0,0,0-.4-.7,1.3,1.3,0,0,0-.1-.6c.1.1.2,0,.1-.1a2.1,2.1,0,0,0-.2-.6h-.1c-.1.2-.2.3-.1.5s.1.3.1.4L20,5.6c.1.1.2,0,.1-.1l-.4-.3c-.1-.1-.1-.1-.1,0v.2c-.1.1-.1.2.1.3l.6.9a18.2,18.2,0,0,1,.1,2c0,.2-.1.4-.2.4s-.3,0-.4-.2-.3-.2-.4,0l-.4.7c-.1.2-.2.3-.4.1a1.7,1.7,0,0,1-.1-.7c0-.2,0-.3-.1,0s-.1.9.1,1,.4.3.5.1.3-.7.5-.9h.2a.5.5,0,0,0,.5.3c.2.1.5-.1.5-.8A9.7,9.7,0,0,0,20.6,7Z"/><path class="cls-2" d="M21.6,6.2c0,.1.1.1.1-.1a1.5,1.5,0,0,0-.1-.6c0-.2-.1-.2-.1-.1s-.1.1,0,.2A1.3,1.3,0,0,1,21.6,6.2Z"/><path class="cls-2" d="M22.3,5.7c.1.1.2.1.1-.1a.8.8,0,0,1-.2-.5H22a.4.4,0,0,0-.1.3c.2,1.6.3,2.4.3,2.9a1.4,1.4,0,0,1-.8,1.5c-.2.2-.5.3,0,.2s1.1-.5,1.1-1.9A13.6,13.6,0,0,1,22.3,5.7Z"/><path class="cls-2" d="M20.1,8.3c.1-.1,0-.3-.1-.4s-.1-.1-.2,0h0c.1,0,.3.2.2.3S20,8.5,20.1,8.3Z"/><path class="cls-2" d="M20.6,9.8c-.1,0-.1,0,0-.1h-.2v.2h-.1c-.1,0-.1.1,0,.1h.3Z"/></g></svg>