<svg xmlns="http://www.w3.org/2000/svg" viewBox="0 0 30 20"><defs><style>.cls-1{fill:#e52e34;}.cls-2{fill:#fff;}</style></defs><title>tn</title><g id="Layer_16" data-name="Layer 16"><path class="cls-1" d="M27.4,0H2.6A2.5,2.5,0,0,0,0,2.5v15A2.5,2.5,0,0,0,2.6,20H27.4A2.5,2.5,0,0,0,30,17.5V2.5A2.5,2.5,0,0,0,27.4,0ZM15,15a5,5,0,1,1,5.1-5A5,5,0,0,1,15,15Z"/><path class="cls-2" d="M15,5a5,5,0,1,0,5.1,5A5,5,0,0,0,15,5Zm0,8.8a3.8,3.8,0,0,1,0-7.6,3.7,3.7,0,0,1,3.1,1.6A3.2,3.2,0,0,0,16,7a2.9,2.9,0,0,0-3,3,2.9,2.9,0,0,0,3,3,3.2,3.2,0,0,0,2.1-.8A3.7,3.7,0,0,1,15,13.8Zm2.9-2.5-1.6-.5-1,1.4V10.5L13.7,10l1.6-.5V7.8l1,1.4,1.6-.5-1,1.3Z"/><path class="cls-1" d="M13,10a2.9,2.9,0,0,1,3-3,3.2,3.2,0,0,1,2.1.8A3.7,3.7,0,0,0,15,6.2a3.8,3.8,0,0,0,0,7.6,3.7,3.7,0,0,0,3.1-1.6A3.2,3.2,0,0,1,16,13,2.9,2.9,0,0,1,13,10Z"/><polygon class="cls-1" points="16.3 9.2 15.3 7.8 15.3 9.5 13.7 10 15.3 10.5 15.3 12.2 16.3 10.8 17.9 11.3 16.9 10 17.9 8.7 16.3 9.2"/></g></svg>