<svg id="Flags" xmlns="http://www.w3.org/2000/svg" viewBox="0 0 30 20"><defs><style>.cls-1{fill:#c62127;}.cls-2{fill:#fecd33;}.cls-3{fill:#ac1f24;}.cls-4{fill:#010101;}.cls-5{fill:#c8b22e;}.cls-6{fill:#fff;}.cls-7{fill:#038e6f;}.cls-8{fill:#295fac;}.cls-9{fill:#cdcccc;}.cls-10{fill:#c6b52e;}.cls-11{fill:#db4546;}.cls-12{fill:#ec73a9;}.cls-13{fill:none;}.cls-14{fill:#ffd692;}.cls-15{fill:#3c57a7;}</style></defs><title>Artboard 62</title><path class="cls-1" d="M0,17.5A2.5,2.5,0,0,0,2.5,20h25A2.5,2.5,0,0,0,30,17.5V15H0Z"/><path class="cls-1" d="M27.5,0H2.5A2.5,2.5,0,0,0,0,2.5V5H30V2.5A2.5,2.5,0,0,0,27.5,0Z"/><rect class="cls-2" y="5" width="30" height="10.03"/><path class="cls-3" d="M6.7,8.9h0Z"/><path class="cls-4" d="M7.3,8.9ZM7,8.8H7Z"/><path class="cls-5" d="M6.9,8.6h0Z"/><path class="cls-4" d="M7,8.7H7Zm0-.2H7Z"/><path class="cls-5" d="M6.9,8.6h0Z"/><path class="cls-4" d="M7,8.7H7Zm0-.1Z"/><path class="cls-5" d="M6.9,8.5h0Z"/><polygon class="cls-5" points="7 8.5 7 8.5 6.9 8.5 6.9 8.5 7 8.5 7 8.5 6.9 8.5 6.9 8.4 7 8.4 7 8.4 7 8.4 7 8.4 7 8.4 7 8.5 7 8.5 7 8.5 7 8.5 7 8.5"/><polygon class="cls-4" points="7 8.6 6.9 8.6 6.9 8.5 6.9 8.5 6.9 8.5 6.9 8.5 6.9 8.4 6.9 8.4 6.9 8.4 7 8.4 7 8.4 7 8.4 7 8.5 7 8.5 7 8.5 7 8.5 7 8.6"/><polygon class="cls-5" points="7 8.5 7 8.5 6.9 8.5 6.9 8.5 7 8.5 7 8.5 6.9 8.5 6.9 8.4 7 8.4 7 8.4 7 8.4 7 8.4 7 8.4 7 8.5 7 8.5 7 8.5 7 8.5 7 8.5"/><polygon class="cls-4" points="7 8.6 6.9 8.6 6.9 8.5 6.9 8.5 6.9 8.5 6.9 8.5 6.9 8.4 6.9 8.4 6.9 8.4 7 8.4 7 8.4 7 8.4 7 8.5 7 8.5 7 8.5 7 8.5 7 8.6"/><path class="cls-4" d="M7,8.6H7Z"/><path class="cls-5" d="M7,8.9H7c.1,0,.1,0,.1-.1H7Z"/><path class="cls-4" d="M7.2,8.9H7c.1-.1.2-.2.3-.1H7.2Zm-.4,0h0Z"/><path class="cls-4" d="M7.1,8.8h0a.2.2,0,0,1,.2-.2h0Zm-.3,0-.2-.2h.1a.3.3,0,0,1,.1.2Z"/><path class="cls-5" d="M6.7,9h0Z"/><path class="cls-4" d="M6.7,9Zm0-.1h0Z"/><path class="cls-5" d="M7,9.1H7Z"/><path class="cls-4" d="M7,9.1H7ZM7,9H7Z"/><path class="cls-5" d="M7.3,8.9Z"/><path class="cls-4" d="M7.3,8.9Z"/><path class="cls-5" d="M7,8.8Z"/><path class="cls-4" d="M7.3,8.9Z"/><path class="cls-5" d="M7,8.9H7Z"/><path class="cls-4" d="M7.3,8.9Z"/><path class="cls-6" d="M6.8,8.9h0Z"/><path class="cls-4" d="M6.9,9h0Z"/><path class="cls-3" d="M7,8.9H7Z"/><path class="cls-4" d="M7,9H7Z"/><path class="cls-7" d="M6.8,9h0Z"/><path class="cls-4" d="M6.7,9h0Z"/><polygon class="cls-3" points="6.7 9 6.7 9 6.7 9 6.7 9 6.7 9 6.7 9"/><polygon class="cls-4" points="6.7 9 6.6 9 6.7 8.9 6.7 8.9 6.7 9"/><path class="cls-6" d="M7,8.9H7Z"/><path class="cls-4" d="M7.1,9h0Z"/><path class="cls-7" d="M7.2,9Z"/><path class="cls-4" d="M7.2,9Z"/><polygon class="cls-3" points="7.3 9 7.3 9 7.2 9 7.2 9 7.3 9 7.3 9"/><polygon class="cls-4" points="7.2 9 7.2 8.9 7.3 8.9 7.3 9 7.2 9"/><path class="cls-3" d="M7,9H7Z"/><path class="cls-4" d="M7,9.1ZM6.8,9h0Z"/><path class="cls-5" d="M7.3,8.8Z"/><path class="cls-4" d="M7.3,8.9Z"/><path class="cls-5" d="M7.1,8.8Z"/><path class="cls-4" d="M7.1,8.8Z"/><path class="cls-5" d="M6.9,8.8Z"/><path class="cls-4" d="M6.9,8.8h0Z"/><path class="cls-5" d="M6.7,8.8Z"/><path class="cls-4" d="M6.7,8.9h0Z"/><polygon class="cls-5" points="7 8.7 6.9 8.7 7 8.8 7 8.8 7 8.8 7 8.7 7 8.7 7 8.7"/><polygon class="cls-4" points="7 8.8 6.9 8.8 6.9 8.7 7 8.7 7 8.7 7 8.8 7 8.8"/><polygon class="cls-5" points="6.9 8.8 6.9 8.8 7 8.8 7 8.8 7 8.8 6.9 8.7 6.9 8.8 6.9 8.8"/><polygon class="cls-4" points="6.9 8.8 6.9 8.8 6.9 8.7 7 8.7 7 8.8 7 8.8 6.9 8.8"/><polygon class="cls-5" points="7 8.8 7 8.8 7 8.8 7 8.8 7 8.8 7 8.7 7 8.8 7 8.8"/><polygon class="cls-4" points="7 8.8 7 8.8 6.9 8.8 7 8.7 7 8.7 7.1 8.8 7 8.8"/><polygon class="cls-5" points="6.7 8.7 6.7 8.7 6.7 8.8 6.8 8.8 6.8 8.8 6.8 8.7 6.7 8.7 6.7 8.7"/><polygon class="cls-4" points="6.8 8.8 6.7 8.8 6.7 8.7 6.7 8.7 6.8 8.7 6.8 8.8 6.8 8.8"/><polygon class="cls-5" points="6.7 8.8 6.7 8.8 6.8 8.8 6.8 8.8 6.7 8.8 6.7 8.8 6.7 8.8 6.7 8.8"/><polygon class="cls-4" points="6.7 8.8 6.7 8.8 6.7 8.8 6.8 8.8 6.8 8.8 6.8 8.8 6.7 8.8"/><polygon class="cls-5" points="6.8 8.8 6.8 8.8 6.8 8.8 6.8 8.8 6.8 8.8 6.8 8.8 6.8 8.8 6.8 8.8"/><polygon class="cls-4" points="6.8 8.8 6.8 8.8 6.7 8.8 6.7 8.8 6.8 8.7 6.9 8.8 6.8 8.8"/><polygon class="cls-5" points="6.6 8.8 6.6 8.8 6.6 8.8 6.6 8.8 6.6 8.8 6.6 8.8 6.6 8.8 6.6 8.8"/><polygon class="cls-4" points="6.6 8.9 6.5 8.8 6.5 8.8 6.6 8.8 6.6 8.8 6.6 8.9 6.6 8.9"/><path class="cls-5" d="M6.7,8.8h0Z"/><path class="cls-4" d="M6.8,8.8H6.7a.1.1,0,0,1,.1-.1Z"/><polygon class="cls-5" points="7.2 8.7 7.2 8.7 7.2 8.8 7.2 8.8 7.2 8.8 7.2 8.7 7.2 8.7 7.2 8.7"/><polygon class="cls-4" points="7.2 8.8 7.1 8.8 7.1 8.7 7.2 8.7 7.2 8.7 7.2 8.8 7.2 8.8"/><polygon class="cls-5" points="7.2 8.8 7.2 8.8 7.2 8.8 7.2 8.8 7.2 8.8 7.2 8.8 7.2 8.8 7.2 8.8"/><polygon class="cls-4" points="7.2 8.8 7.2 8.8 7.2 8.8 7.2 8.8 7.3 8.8 7.3 8.8 7.2 8.8"/><polygon class="cls-5" points="7.1 8.8 7.1 8.8 7.2 8.8 7.2 8.8 7.2 8.8 7.1 8.8 7.1 8.8 7.1 8.8"/><polygon class="cls-4" points="7.1 8.8 7.1 8.8 7.1 8.7 7.2 8.8 7.2 8.8 7.2 8.8 7.1 8.8"/><polygon class="cls-5" points="7.3 8.8 7.3 8.8 7.4 8.8 7.4 8.8 7.4 8.8 7.3 8.8 7.3 8.8 7.3 8.8"/><polygon class="cls-4" points="7.4 8.9 7.3 8.9 7.3 8.8 7.3 8.8 7.4 8.8 7.4 8.8 7.4 8.9"/><path class="cls-5" d="M6.9,8.8h0Z"/><path class="cls-4" d="M7,8.8H6.9c0-.1,0-.1.1-.1Z"/><path class="cls-5" d="M7.2,8.8Z"/><path class="cls-4" d="M7.2,8.8h0Z"/><path class="cls-5" d="M6.6,8.8h0Z"/><path class="cls-4" d="M6.6,8.9h0Z"/><path class="cls-5" d="M6.6,8.8Z"/><path class="cls-4" d="M6.6,8.9h0Z"/><path class="cls-5" d="M7.4,8.8Z"/><path class="cls-4" d="M7.4,8.9Z"/><path class="cls-5" d="M7.4,8.8h0Z"/><path class="cls-4" d="M7.4,8.9h0Z"/><rect class="cls-5" x="6.5" y="9.1" width="0.9" height="0.23"/><path class="cls-4" d="M7.4,9.3H6.5V9h.9Zm-.9,0h.9V9.1H6.5Z"/><path class="cls-5" d="M6.6,9.5h0Z"/><path class="cls-4" d="M6.6,9.5Zm.1-.1h0Z"/><path class="cls-5" d="M6.6,9.4h0Z"/><path class="cls-4" d="M7.3,9.5h0Zm-.7,0Z"/><path class="cls-5" d="M6.6,9.3h0Z"/><path class="cls-4" d="M7.3,9.4h0Zm-.7-.1Z"/><path class="cls-8" d="M7.6,13.2h0Z"/><path class="cls-4" d="M7.6,13.4H6.3v-.2H7.6Zm-.9-.2h.4c.1-.1.3-.1.3,0H7.1a.2.2,0,0,1-.3,0Z"/><path class="cls-9" d="M7.6,13.3h0Z"/><path class="cls-4" d="M7.6,13.5H6.3v-.2h.8c.1-.1.3-.1.3,0h.2Zm-.9-.2h0Z"/><path class="cls-8" d="M7.6,13.4h0Z"/><path class="cls-4" d="M7.6,13.5Zm-.9-.1h0Z"/><path class="cls-9" d="M7.6,13.6h0Z"/><path class="cls-4" d="M7.6,13.6Zm-.9-.1h0Z"/><path class="cls-8" d="M7.6,13.7h0Z"/><path class="cls-4" d="M7.6,13.7H7.1a.2.2,0,0,1-.3,0h.8Zm-.9-.1h0Z"/><path class="cls-5" d="M6.6,12.8h0Z"/><path class="cls-4" d="M7.4,13h0Zm-.8,0h0Z"/><path class="cls-5" d="M6.6,12.8h0Z"/><path class="cls-4" d="M7.3,12.9h0Zm-.7-.1Z"/><rect class="cls-5" x="6.5" y="13" width="0.9" height="0.23"/><path class="cls-4" d="M7.4,13.2H6.5V13h.9Zm-.9,0h.9V13H6.5Z"/><path class="cls-3" d="M6.4,12h0s.1.1,0,.1.1-.1.1-.2Z"/><path class="cls-4" d="M6.5,12.3H6.3v-.2h0v.4ZM6.4,12h0c0,.1.1.1.1.2v-.2Z"/><rect class="cls-9" x="6.6" y="9.5" width="0.7" height="3.19"/><path class="cls-4" d="M7.2,12.7h0V9.6h0Zm-.1,0h0V9.6h0Z"/><path class="cls-4" d="M7.3,12.8H6.6V9.5h.7Zm-.6-.1h.6V9.6H6.7Z"/><path class="cls-3" d="M8,10.7H7c-.4,0-.7.2-.7.3h0v-.3c-.1-.2.3-.3.7-.4H8v.4Z"/><path class="cls-4" d="M6.3,11h0c-.1-.1-.1-.3-.2-.3h.1a1.1,1.1,0,0,1,.7-.3H8v.4H7c-.3,0-.6.1-.6.2Zm1-.7H6.9l-.7.3h0v.2h0l.7-.3h.9v-.3Z"/><path class="cls-3" d="M6.6,11.1H6.3l.2-.2h.1v.3Z"/><path class="cls-4" d="M6.7,11.2H6.6L6.3,11l.2-.2h.2Zm-.2-.4-.2.2h.3v-.2Z"/><path class="cls-3" d="M7.3,10.9h.2l-.2.2v-.3Z"/><path class="cls-4" d="M7.3,11.2v-.3h.3l-.3.2Zm0-.3v.3l.2-.2H7.3Z"/><path class="cls-3" d="M6.2,11.8c0-.1.2-.2.4-.3H7c.3-.2.6-.3.5-.4h0c.1,0,.1.3.1.3l-.5.4-.5.2-.3.2v-.3Z"/><path class="cls-4" d="M6.3,12.1h0v-.3c0-.1.4-.3.4-.3H7l.5-.4h.1v.3h0c0,.1-.2.3-.5.4l-.5.2-.3.2Zm1.2-1-.5.3H6.6c-.2.1-.4.2-.4.3V12l.3-.2h.5l.5-.4h0A.3.3,0,0,0,7.5,11.1Z"/><path class="cls-5" d="M6.6,10.6H6.5v.2h0Zm-.1-.1h0Z"/><path class="cls-5" d="M6.8,10.4h0v.2h.1v-.2Z"/><path class="cls-5" d="M7.2,10.6v-.3h0v0H7l.2.3Z"/><path class="cls-5" d="M7.6,10.4Z"/><path class="cls-3" d="M13,8.8h-.4c-.1-.1,0-.1,0-.1h.7c.1,0,.1,0,.1.1H13Z"/><path class="cls-4" d="M13.3,8.9h-.8a.1.1,0,0,1,.1-.1h.7c.1,0,.1,0,.1.1h-.1Zm-.6,0h.7a.1.1,0,0,0-.1-.1h-.6Z"/><path class="cls-5" d="M12.9,8.6h0Z"/><path class="cls-4" d="M13,8.7h0Zm0-.1h0Z"/><path class="cls-5" d="M13,8.6Z"/><path class="cls-4" d="M13,8.7h0Zm0-.1Z"/><path class="cls-5" d="M12.7,9h0Z"/><path class="cls-4" d="M12.7,9Zm0-.1h0Z"/><path class="cls-5" d="M13,9.1h0Z"/><path class="cls-4" d="M13,9.1h0ZM13,9h0Z"/><path class="cls-6" d="M13.2,8.7Z"/><path class="cls-4" d="M13.2,8.7Z"/><path class="cls-4" d="M13.2,8.7h0Z"/><path class="cls-4" d="M13.4,8.8h-.1c.1,0,.1.1.1.2Zm-.1-.1h.1a.1.1,0,0,0-.1-.1Z"/><path class="cls-4" d="M13.2,8.7h0Zm-.1-.1h0Z"/><path class="cls-4" d="M13.4,8.8h.1C13.5,8.8,13.5,8.8,13.4,8.8Z"/><path class="cls-5" d="M13.3,8.9Z"/><path class="cls-4" d="M13.3,8.9Z"/><path class="cls-6" d="M12.7,8.7Z"/><path class="cls-4" d="M12.7,8.7Z"/><path class="cls-4" d="M12.7,8.7h0Z"/><path class="cls-4" d="M12.5,8.8h0a.2.2,0,0,1,.2-.2h-.2Zm.2-.1c-.1,0-.1,0-.1.1h.1Z"/><path class="cls-4" d="M12.8,8.7h0Zm.1-.1h0Z"/><path class="cls-4" d="M12.5,8.8h.1A.1.1,0,0,1,12.5,8.8Z"/><path class="cls-5" d="M13,8.8Z"/><path class="cls-4" d="M13.3,8.9Z"/><path class="cls-5" d="M13,8.9h0Z"/><path class="cls-4" d="M13.3,8.9Z"/><path class="cls-6" d="M12.9,8.9Z"/><path class="cls-4" d="M12.9,9h0Z"/><path class="cls-3" d="M13,8.9h0Z"/><path class="cls-4" d="M13,9h0Z"/><path class="cls-7" d="M12.8,9Z"/><path class="cls-4" d="M12.8,9h0Z"/><polygon class="cls-3" points="12.7 9 12.7 9 12.7 9 12.7 9 12.7 9 12.7 9"/><polygon class="cls-4" points="12.7 9 12.6 9 12.7 8.9 12.7 8.9 12.7 9"/><path class="cls-6" d="M13.1,8.9Z"/><path class="cls-4" d="M13.1,9h0Z"/><path class="cls-7" d="M13.2,9Z"/><path class="cls-4" d="M13.2,9Z"/><polygon class="cls-3" points="13.3 9 13.3 9 13.2 9 13.3 9 13.3 9 13.3 9"/><polygon class="cls-4" points="13.2 9 13.2 8.9 13.3 8.9 13.3 9 13.2 9"/><path class="cls-3" d="M13,9h0Z"/><path class="cls-4" d="M13,9.1ZM12.8,9h0Z"/><path class="cls-5" d="M13.3,8.8Z"/><path class="cls-4" d="M13.3,8.9Z"/><path class="cls-5" d="M13.1,8.8Z"/><path class="cls-4" d="M13.1,8.8Z"/><path class="cls-5" d="M12.9,8.8Z"/><path class="cls-4" d="M12.9,8.8h0Z"/><path class="cls-5" d="M12.7,8.8Z"/><path class="cls-4" d="M12.7,8.9h0Z"/><polygon class="cls-5" points="13 8.7 12.9 8.7 13 8.8 13 8.8 13 8.8 13 8.7 13 8.7 13 8.7"/><polygon class="cls-4" points="13 8.8 13 8.8 12.9 8.7 13 8.7 13 8.7 13 8.8 13 8.8"/><polygon class="cls-5" points="12.9 8.8 12.9 8.8 13 8.8 13 8.8 13 8.8 12.9 8.7 12.9 8.8 12.9 8.8"/><polygon class="cls-4" points="12.9 8.8 12.9 8.8 12.9 8.7 13 8.7 13 8.8 13 8.8 12.9 8.8"/><polygon class="cls-5" points="13.1 8.8 13 8.8 13 8.8 13 8.8 13 8.8 13 8.7 13.1 8.8 13.1 8.8"/><polygon class="cls-4" points="13 8.8 13 8.8 13 8.8 13 8.7 13 8.7 13.1 8.8 13 8.8"/><polygon class="cls-5" points="12.8 8.7 12.7 8.7 12.8 8.8 12.8 8.8 12.8 8.8 12.8 8.7 12.8 8.7 12.8 8.7"/><polygon class="cls-4" points="12.8 8.8 12.7 8.8 12.7 8.7 12.7 8.7 12.8 8.7 12.8 8.8 12.8 8.8"/><polygon class="cls-5" points="12.7 8.8 12.7 8.8 12.8 8.8 12.8 8.8 12.8 8.8 12.7 8.8 12.7 8.8 12.7 8.8"/><polygon class="cls-4" points="12.7 8.8 12.7 8.8 12.7 8.8 12.8 8.8 12.8 8.8 12.8 8.8 12.7 8.8"/><polygon class="cls-5" points="12.8 8.8 12.8 8.8 12.8 8.8 12.8 8.8 12.8 8.8 12.8 8.8 12.8 8.8 12.8 8.8"/><polygon class="cls-4" points="12.8 8.8 12.8 8.8 12.7 8.8 12.8 8.8 12.8 8.7 12.9 8.8 12.8 8.8"/><polygon class="cls-5" points="12.6 8.8 12.6 8.8 12.6 8.8 12.6 8.8 12.6 8.8 12.6 8.8 12.6 8.8 12.6 8.8"/><polygon class="cls-4" points="12.6 8.9 12.6 8.8 12.6 8.8 12.6 8.8 12.7 8.8 12.7 8.9 12.6 8.9"/><path class="cls-5" d="M12.7,8.8h0Z"/><path class="cls-4" d="M12.8,8.8h-.1a.1.1,0,0,1,.1-.1Z"/><polygon class="cls-5" points="13.2 8.7 13.2 8.7 13.2 8.8 13.2 8.8 13.2 8.8 13.2 8.7 13.2 8.7 13.2 8.7"/><polygon class="cls-4" points="13.2 8.8 13.2 8.8 13.1 8.7 13.2 8.7 13.3 8.7 13.2 8.8 13.2 8.8"/><polygon class="cls-5" points="13.3 8.8 13.2 8.8 13.2 8.8 13.2 8.8 13.2 8.8 13.3 8.8 13.3 8.8 13.3 8.8"/><polygon class="cls-4" points="13.2 8.8 13.2 8.8 13.2 8.8 13.2 8.8 13.3 8.8 13.3 8.8 13.2 8.8"/><polygon class="cls-5" points="13.1 8.8 13.1 8.8 13.2 8.8 13.2 8.8 13.2 8.8 13.1 8.8 13.1 8.8 13.1 8.8"/><polygon class="cls-4" points="13.1 8.8 13.1 8.8 13.1 8.7 13.2 8.8 13.2 8.8 13.2 8.8 13.1 8.8"/><polygon class="cls-5" points="13.3 8.8 13.3 8.8 13.4 8.8 13.4 8.8 13.4 8.8 13.3 8.8 13.3 8.8 13.3 8.8"/><polygon class="cls-4" points="13.4 8.9 13.3 8.9 13.3 8.8 13.3 8.8 13.4 8.8 13.4 8.8 13.4 8.9"/><path class="cls-5" d="M13,8.8h0Z"/><path class="cls-4" d="M13,8.8h-.1a.1.1,0,0,1,.1-.1Z"/><path class="cls-5" d="M13.2,8.8Z"/><circle class="cls-4" cx="13.2" cy="8.8"/><path class="cls-5" d="M12.9,8.6h0Z"/><polygon class="cls-5" points="13 8.5 13 8.6 12.9 8.6 12.9 8.5 13 8.5 13 8.5 12.9 8.5 12.9 8.5 13 8.5 13 8.4 13 8.4 13 8.5 13 8.5 13 8.5 13 8.5 13 8.5 13 8.5 13 8.5"/><polygon class="cls-4" points="13 8.6 12.9 8.6 12.9 8.5 12.9 8.5 12.9 8.5 12.9 8.5 12.9 8.4 12.9 8.4 12.9 8.4 13 8.4 13 8.4 13 8.4 13 8.5 13 8.5 13 8.5 13 8.5 13 8.6"/><polygon class="cls-5" points="13 8.5 13 8.6 12.9 8.6 12.9 8.5 13 8.5 13 8.5 12.9 8.5 12.9 8.5 13 8.5 13 8.4 13 8.4 13 8.5 13 8.5 13 8.5 13 8.5 13 8.5 13 8.5 13 8.5"/><path class="cls-4" d="M13,8.6h0Z"/><path class="cls-5" d="M12.6,8.8h0Z"/><path class="cls-4" d="M12.6,8.9h0Z"/><path class="cls-5" d="M12.6,8.8Z"/><path class="cls-4" d="M12.6,8.9Z"/><path class="cls-5" d="M13.4,8.8Z"/><path class="cls-4" d="M13.4,8.9Z"/><path class="cls-5" d="M13.4,8.8Z"/><path class="cls-4" d="M13.4,8.9h0Z"/><rect class="cls-5" x="12.5" y="9.1" width="0.9" height="0.23"/><path class="cls-4" d="M13.4,9.3h-.9V9h.9Zm-.9,0h.9V9.1h-.9Z"/><path class="cls-5" d="M13.3,9.5h0Z"/><path class="cls-4" d="M12.6,9.5Zm.1-.1h0Z"/><path class="cls-5" d="M12.6,9.4h0Z"/><path class="cls-4" d="M13.3,9.5h0Zm-.7,0Z"/><path class="cls-5" d="M12.6,9.3h0Z"/><path class="cls-4" d="M13.3,9.4h0Zm-.7-.1Z"/><path class="cls-8" d="M12.4,13.2h0Z"/><path class="cls-4" d="M13.6,13.4H12.3v-.2h1.3Zm-.9-.2h.4c0,.1-.2.1-.3,0h-.1Z"/><path class="cls-9" d="M12.4,13.3h0Z"/><path class="cls-4" d="M13.6,13.5H12.3v-.2h1.3Zm-.9-.2h0Z"/><path class="cls-8" d="M12.4,13.4h0Z"/><path class="cls-4" d="M13.6,13.5Zm-.9-.1h0Z"/><path class="cls-9" d="M12.4,13.6h0Z"/><path class="cls-4" d="M13.6,13.6Zm-.9-.1h0Z"/><path class="cls-8" d="M12.4,13.7h0Z"/><path class="cls-4" d="M13.6,13.7h-.5c0,.1-.2.1-.3,0h.8Zm-.9-.1h0Z"/><path class="cls-5" d="M13.3,12.8h0Z"/><path class="cls-4" d="M13.4,13h0Zm-.8,0h0Z"/><path class="cls-5" d="M12.6,12.8h0Z"/><path class="cls-4" d="M13.3,12.9h0Zm-.7-.1Z"/><rect class="cls-5" x="12.5" y="13" width="0.9" height="0.23"/><path class="cls-4" d="M13.5,13.2h-1V13h1Zm-1,0h.9V13h-.9Z"/><path class="cls-3" d="M13.5,12h.1a.1.1,0,0,0-.1.1v-.2Z"/><path class="cls-4" d="M13.5,12.3c-.1,0-.1-.1-.1-.2v-.2h0l.2.2h-.1a.1.1,0,0,0-.1.1Zm0-.3h-.1c0,.1.1.1.1.2s0-.1.1-.2h-.1Z"/><rect class="cls-9" x="12.7" y="9.5" width="0.7" height="3.19"/><path class="cls-4" d="M13.2,12.7h0V9.5h0Zm-.1,0h0V9.5h0Z"/><path class="cls-4" d="M13.3,12.8h-.7V9.5h.7Zm-.6-.1h.6V9.6h-.6Z"/><path class="cls-3" d="M12,10.7h1c.4,0,.7.2.6.3h0l.2-.3c0-.2-.3-.3-.8-.4H12v.4Z"/><path class="cls-4" d="M13.6,11h0a.8.8,0,0,0-.6-.2H12v-.4h1a1.2,1.2,0,0,1,.8.3h0l-.2.3Zm-1-.4H13l.6.3h0l.2-.2h-.1l-.7-.3H12v.3Z"/><path class="cls-3" d="M13.3,11.1h.3v-.2h-.2v.3Z"/><path class="cls-4" d="M13.3,11.2v-.4h.2c.1.1.2.1.1.2l-.3.2Zm0-.3v.2h.3v-.2h-.2Z"/><path class="cls-3" d="M12.7,10.9h-.3l.3.2v-.3Z"/><path class="cls-4" d="M12.7,11.2h-.1l-.2-.2h.3Zm-.3-.2h0l.2.2v-.3Z"/><path class="cls-3" d="M13.7,11.8c0-.1-.1-.2-.4-.3H13l-.6-.4h0v.3c-.1.1.2.2.5.4l.4.2.4.2v-.3Z"/><path class="cls-4" d="M13.7,12.1h-.1c0-.1-.1-.2-.3-.2l-.4-.2-.6-.4h0V11h0l.6.4h.3c.1,0,.5.2.4.3v.3Zm-1.3-1v.2h0l.5.4h.4l.3.2v-.2c0-.1-.1-.2-.4-.3H13Z"/><path class="cls-5" d="M12.4,10.6a.4.4,0,0,1,.1-.3h-.1v.2h-.2l.2.2Z"/><path class="cls-5" d="M12.6,10.3h0v.3h0v-.3Z"/><path class="cls-5" d="M12.9,10.4h0v.2h.1v-.2Z"/><path class="cls-5" d="M13,10.6h.3v-.2h-.1v.2Zm.2-.2h0Z"/><path class="cls-5" d="M13.5,10.7h0v-.3h-.1l-.2.2h.2Zm-.1-.1h0Z"/><path class="cls-4" d="M9,8.1H9ZM9,8Z"/><path class="cls-3" d="M9.9,7.3h1.8l.3.2h-.1l-.2.2H8.2L8,8H7.9l.4-.2H9.9Z"/><path class="cls-4" d="M11.3,8.6,10,8.4l-1.4.2H8.5l-.2-.2H8.2L8,8H7.9l.3-.2h3.5l.3.2h-.1l-.2.2h-.1l-.2.2h-.1ZM10,8.4h1.7l.2-.2V7.8h0l-.3-.2H8.3L8,7.8H8V8l.2.2H10Z"/><path class="cls-5" d="M10,9H8.7L10,8.6l1.2.2H10Z"/><path class="cls-4" d="M10,9.1h0L8.7,8.9h0L10,8.6l1.2.2h0Zm0-.4h0Z"/><path class="cls-3" d="M10,9H8.8L10,8.7l1.1.2Z"/><rect class="cls-4" x="10" y="8.7" height="0.26"/><rect class="cls-4" x="9.9" y="8.7" height="0.26"/><rect class="cls-4" x="9.8" y="8.7" height="0.26"/><rect class="cls-4" x="9.8" y="8.7" height="0.26"/><rect class="cls-4" x="9.7" y="8.7" height="0.26"/><path class="cls-4" d="M9.7,9h0V8.7h0ZM9.6,9V8.7h0V9Z"/><path class="cls-4" d="M9.5,9V8.7h.1V9Zm0,0h0V8.7h0Z"/><path class="cls-4" d="M9.5,9H9.4V8.7h.1ZM9.4,9h0V8.7h0Zm0-.1Z"/><rect class="cls-4" x="9.3" y="8.8" height="0.19"/><rect class="cls-4" x="9.3" y="8.8" height="0.18"/><rect class="cls-4" x="9.2" y="8.8" height="0.16"/><path class="cls-4" d="M9.2,8.9Zm-.1,0h0Z"/><rect class="cls-4" x="9.1" y="8.8" height="0.11"/><rect class="cls-4" x="9" y="8.8" height="0.09"/><path class="cls-4" d="M10.1,9h0V8.7h0Zm.1,0h-.1V8.7h.1Zm.1,0h0V8.7h0Z"/><path class="cls-5" d="M10,8.6l-1.3.2H8.6L10,8.4l1.3.2h-.1L10,8.6Z"/><path class="cls-4" d="M8.7,8.8H8.6L10,8.4l1.4.2H8.7ZM10,8.6l1.2.2h.1L10,8.4l-1.4.2h.1Z"/><path class="cls-5" d="M10,8.4l-1.4.2h0L10,8.3l1.4.2h-.1L10,8.4Z"/><path class="cls-4" d="M11.4,8.6h-.1L10,8.4l-1.4.2h0L10,8.3l1.4.2h0ZM10,8.4l1.4.2h0L10,8.3l-1.4.2h0Z"/><path class="cls-4" d="M10,9ZM8.9,8.9H11l-1-.2Z"/><path class="cls-6" d="M9.6,8.5Z"/><path class="cls-4" d="M9.6,8.6h0Zm0-.1Z"/><path class="cls-3" d="M10,8.6h0Z"/><path class="cls-4" d="M10.1,8.6h0Zm-.3-.1Z"/><path class="cls-7" d="M9.3,8.6h0Z"/><path class="cls-4" d="M9.2,8.6h0Zm.2-.1h0Z"/><path class="cls-6" d="M8.9,8.6h0Z"/><path class="cls-4" d="M9,8.7H9Zm0-.1H9Z"/><polygon class="cls-3" points="8.6 8.7 8.7 8.6 8.8 8.6 8.7 8.7 8.6 8.7 8.6 8.7"/><path class="cls-4" d="M8.7,8.7h0Zm-.1,0h0Z"/><path class="cls-7" d="M10.6,8.6h0Z"/><path class="cls-4" d="M10.7,8.6Zm-.2-.1Z"/><path class="cls-6" d="M10.3,8.5Z"/><path class="cls-4" d="M10.3,8.6h0Zm0-.1Z"/><path class="cls-6" d="M10.9,8.6h0Z"/><path class="cls-4" d="M11,8.7h0Zm0-.1h0Z"/><polygon class="cls-3" points="11.3 8.7 11.3 8.6 11.1 8.6 11.2 8.7 11.3 8.7 11.3 8.7"/><path class="cls-4" d="M11.2,8.7h0Zm0,0Z"/><path class="cls-4" d="M11.2,8.9h0ZM8.9,8.8h0Z"/><path class="cls-5" d="M9,7.7h.1A.4.4,0,0,1,9,7.3H9a.4.4,0,0,1,.4-.4h0a.5.5,0,0,0-.5.4h0a.4.4,0,0,0,.1.3Z"/><path class="cls-4" d="M9,7.7H9a.4.4,0,0,1-.1-.3h0c0-.3.2-.4.5-.4h0c-.2,0-.4.1-.4.3H9c0,.1,0,.2.1.2H9Zm0-.1h.1c-.1-.1-.2-.2-.2-.3h0c0-.2.3-.4.5-.4h0c-.2,0-.5.2-.5.4h0a.4.4,0,0,0,.1.3Z"/><path class="cls-5" d="M9,7.7l-.2-.3A.5.5,0,0,1,9,7a.4.4,0,0,0-.1.3h0a.4.4,0,0,0,.1.3Z"/><path class="cls-4" d="M9,7.7H9c-.2-.1-.2-.2-.2-.3A.5.5,0,0,1,9,7H9v.3h0a.4.4,0,0,0,.1.3H9Zm-.1-.5c-.1,0-.1.1-.1.2l.2.2H9a.4.4,0,0,1-.1-.3h0Z"/><path class="cls-5" d="M8,7.8V7.5H8c.1-.2.3-.3.7-.3h0L8,7.4H8V8H8Z"/><path class="cls-4" d="M8,8H8V7.5H8c.1-.2.3-.3.7-.3h0c-.3,0-.6.1-.6.2H8v.3h0Zm0-.1h.1A.4.4,0,0,1,8,7.5H8a.8.8,0,0,1,.7-.3h0c-.4,0-.6.1-.7.3H8v.3H8Z"/><path class="cls-5" d="M8.1,7.2c0,.1-.1.1-.1.2H7.9v.3H8a.4.4,0,0,1-.1-.3.8.8,0,0,1,.2-.4Z"/><path class="cls-4" d="M8,7.9H8a.4.4,0,0,1-.1-.3.8.8,0,0,1,.2-.4h.1c-.1.1-.2.1-.2.2H8v.3H8Zm-.1-.4h0a.4.4,0,0,0,.1.3H8V7.5Z"/><path class="cls-5" d="M10,6.8V7h0c0,.1,0,.3.1.3l-.2.2-.3-.2c.1,0,.1-.2.1-.3h0a.2.2,0,0,1,.2-.2Z"/><path class="cls-4" d="M10,7.8l-.3-.3h0a.4.4,0,0,0,.1-.3h0a.2.2,0,0,1,.2-.2h.1v.2h0v.3h0Zm-.2-.3.2.2.2-.2a.4.4,0,0,1-.1-.3H9.8Z"/><path class="cls-5" d="M10,6.9h.1v.3H9.8V7.2H10Z"/><path class="cls-4" d="M10,7.7l-.2-.2h0V7.2h.3v.3h0Zm-.2-.2h.3V7.2H9.9A.4.4,0,0,1,9.8,7.5Z"/><path class="cls-5" d="M11,7.7h-.2c.1-.1.2-.2.2-.3h0c0-.2-.3-.4-.5-.4h0a.5.5,0,0,1,.5.4h0a.4.4,0,0,1-.1.3Z"/><path class="cls-4" d="M10.9,7.7h-.1a.2.2,0,0,0,.2-.2h-.1c0-.2-.2-.3-.4-.3h0a.5.5,0,0,1,.6.4h0c0,.1-.1.2-.2.3h0Zm-.1-.1h.1a.4.4,0,0,0,.1-.3h0a.5.5,0,0,0-.5-.4h0a.5.5,0,0,1,.5.4h0C11,7.4,10.9,7.5,10.8,7.6Z"/><path class="cls-5" d="M11,7.7a.4.4,0,0,0,.1-.3.5.5,0,0,0-.2-.4.4.4,0,0,1,.1.3h0a.4.4,0,0,1-.1.3Z"/><path class="cls-4" d="M10.9,7.7h0a.4.4,0,0,0,.1-.3h0a.4.4,0,0,0-.1-.3h0c.2.1.2.2.2.4a.4.4,0,0,1-.1.3Zm0-.1H11V7.4c0-.1,0-.2-.1-.2h.1C11.1,7.4,11,7.5,10.9,7.6Z"/><path class="cls-5" d="M11.9,7.8V7.5h-.1c0-.2-.3-.3-.6-.3h0l.6.2h0a.4.4,0,0,1-.1.3V8h0Z"/><path class="cls-4" d="M11.9,8V7.8h0a.4.4,0,0,0,.1-.3h0l-.6-.2h-.2a.1.1,0,0,1-.1-.1h.3a.8.8,0,0,1,.7.3h0a.4.4,0,0,1-.1.3h0Zm-.1-.2h.1V7.5h-.1a.6.6,0,0,0-.6-.3h0a.6.6,0,0,1,.6.3h0A.4.4,0,0,1,11.8,7.8Z"/><path class="cls-5" d="M11.8,7.2c.1.1.1.1.1.2H12v.3H12c0-.1.1-.2.1-.3l-.3-.4Z"/><path class="cls-4" d="M12,7.9h-.1V7.5h-.1c0-.1-.1-.1-.1-.2h0a.5.5,0,0,1,.3.4c0,.1-.1.2-.1.3Zm-.1-.1H12V7.6h0A.4.4,0,0,1,11.9,7.8Z"/><path class="cls-6" d="M9.9,7.6h0Z"/><path class="cls-4" d="M10,7.6h0Zm0-.1h0Z"/><path class="cls-6" d="M9.9,7.4a.1.1,0,0,1,.1-.1H9.9Z"/><path class="cls-4" d="M10,7.5H9.9a.1.1,0,0,1,.1-.1h0Zm0-.1h0Z"/><path class="cls-6" d="M9.9,7.3h0Z"/><path class="cls-4" d="M10,7.3h0Zm0-.1h0Z"/><path class="cls-6" d="M9.9,7.1H10a.1.1,0,0,1-.1-.1Z"/><path class="cls-4" d="M10,7.2c-.1,0-.1,0-.1-.1H10Zm0-.1h0Z"/><path class="cls-6" d="M9.9,7h0Z"/><path class="cls-4" d="M10,7.1h0Z"/><path class="cls-5" d="M10,8h.4a.2.2,0,0,0,.2.2l.2-.2h.1c0,.1.1.1.2.1h-.9c-.1,0-.2,0-.2-.1H8.3a.1.1,0,0,0,.1.1h.4c.1,0,.2,0,.2-.1h.1a.2.2,0,0,0,.4,0H10Z"/><path class="cls-4" d="M11.4,8.5H10.2c-.1,0-.2,0-.2-.1H8.4l-.2-.2h.1a.1.1,0,0,0,.1.1h.4c.1,0,.2,0,.2-.1h.1a.2.2,0,0,0,.4,0h.9c.1.1.1.2.2.2l.2-.2h.1c0,.1.1.1.2.1h.6l-.2.2Zm-.2-.1h-.1a.2.2,0,0,1-.2-.2h-.1l-.2.2a.2.2,0,0,1-.2-.2h0a.2.2,0,0,1-.4,0H9.9a.2.2,0,0,1-.2.2c-.1,0-.1-.1-.2-.2h0a.2.2,0,0,1-.4,0h0c0,.1-.1.2-.3.2h.5c.1,0,.2,0,.2-.1H10c0,.1.1.1.2.1h1Z"/><path class="cls-6" d="M11.3,8.2h-.1a.1.1,0,0,0,.1.1Z"/><path class="cls-4" d="M11.3,8.3Zm0-.1Z"/><path class="cls-6" d="M10.5,8.1h0Z"/><path class="cls-4" d="M10.4,8.1Zm0-.1h0c.1,0,0-.1,0-.1Z"/><path class="cls-6" d="M9.5,8.1h0Z"/><path class="cls-4" d="M9.5,8.1h0Zm0-.1Z"/><path class="cls-6" d="M8.6,8.2h.1c-.1,0-.1,0-.1-.1Z"/><path class="cls-4" d="M8.7,8.3c-.1,0-.1,0-.1-.1h.1Zm-.1-.1h0a.1.1,0,0,0,.1.1H8.6Z"/><path class="cls-5" d="M9,7.7H9Z"/><path class="cls-4" d="M9,8H8.9a.1.1,0,0,0-.1-.1H9c0,.1.1.1.1.2h.1a.1.1,0,0,0-.1.1H9Zm-.1-.2Z"/><path class="cls-5" d="M9,8.1H9Z"/><path class="cls-4" d="M8.8,8.2Zm0-.1Z"/><path class="cls-5" d="M9.1,8.1h0Z"/><path class="cls-4" d="M9.4,8.1h0ZM9.1,8h0Z"/><path class="cls-3" d="M9,8H9Z"/><path class="cls-4" d="M9,8.1H9ZM9,8Z"/><path class="cls-5" d="M10,7.5v.2h.1a.1.1,0,0,1-.1.1H9.9c0-.1,0-.1.1-.2Z"/><path class="cls-4" d="M10,7.9H9.9c0-.1,0-.1.1-.2h0v.2h0a.1.1,0,0,1-.1.1Zm-.2-.2h.1c0-.1.1-.1.1,0s0-.1.1-.1H10c-.1,0-.1,0-.1.1H9.8Z"/><path class="cls-5" d="M9.9,8h0Z"/><path class="cls-4" d="M9.6,8.1h.2a.1.1,0,0,1,.1.1H9.6Zm0-.2h.2a.1.1,0,0,0-.1-.1H9.6Z"/><path class="cls-5" d="M10,8h0a.1.1,0,0,0,.1-.1H10Z"/><path class="cls-4" d="M10.3,8.1ZM10.1,8h.1a.1.1,0,0,0-.1.1h0Z"/><path class="cls-5" d="M11,7.7h0Z"/><path class="cls-4" d="M11,8h-.1V7.6H11Zm-.1-.1Z"/><path class="cls-5" d="M10.9,8.1h0Z"/><path class="cls-4" d="M11.1,8.2ZM11,8.1Z"/><path class="cls-5" d="M10.8,8.1h0Z"/><path class="cls-4" d="M10.6,8.1ZM10.5,8h0Z"/><path class="cls-3" d="M10.8,8h0Z"/><path class="cls-4" d="M10.9,8.1h0Zm0-.1h0Z"/><path class="cls-3" d="M11.8,8.2h-.1c-.1,0-.1.1,0,.1h.1Z"/><path class="cls-4" d="M11.7,8.3h-.1c0-.1,0-.1.1-.1h0Zm0-.1h0a.1.1,0,0,0,.1-.1h-.1Z"/><path class="cls-5" d="M11.7,8.3h0v.2h0Z"/><path class="cls-4" d="M11.6,8.3h.3c.1,0,.1.1.1.2h-.4Zm-.1-.1Zm.2,0h0v.2Z"/><path class="cls-5" d="M8.3,8.3H8.2v.2h.1Z"/><path class="cls-4" d="M8.4,8.3H8.3c0-.1,0-.1-.1-.1H7.9V7.9h.4Zm-.1-.1h0Zm-.4-.1h.3V8H7.9Z"/><path class="cls-3" d="M8.2,8.2h0c-.1,0-.1-.1,0-.1Z"/><path class="cls-4" d="M8.2,8.3h0c-.1,0-.1,0-.1-.1h.1Zm0-.1h.1a.1.1,0,0,0-.1-.1Z"/><path class="cls-3" d="M9.9,7.9h0Z"/><path class="cls-4" d="M10,8H9.9a.1.1,0,0,1,.1-.1h0Zm0-.1h0Z"/><path class="cls-8" d="M9.8,6.7a.2.2,0,0,1,.2-.2c.1,0,.1.1.1.2s0,.2-.1.2l-.2-.2Z"/><path class="cls-4" d="M10,6.9l-.2-.2a.2.2,0,1,1,.4,0Zm0-.4a.2.2,0,0,0-.2.2h.3C10.1,6.6,10.1,6.5,10,6.5Z"/><path class="cls-5" d="M9.9,6.2h0v.2H10V6.5H9.9Z"/><path class="cls-4" d="M10.1,6.8H9.9V6.4H10v.2h.1Zm-.3-.1H10V6.4H9.9v.3Z"/><path class="cls-9" d="M10,13.8a2.6,2.6,0,0,1-1.5-.4.8.8,0,0,1-.5-.8V11.3h4v1.3a.8.8,0,0,1-.5.8,2.8,2.8,0,0,1-1.5.4Z"/><path class="cls-4" d="M10,13.8a3.7,3.7,0,0,1-1.5-.3,1,1,0,0,1-.6-.9V11.2H12v1.4a1.1,1.1,0,0,1-.5.9ZM8,11.3v1.3a.9.9,0,0,0,.5.8,4.2,4.2,0,0,0,1.5.4,2.8,2.8,0,0,0,1.5-.4.9.9,0,0,0,.5-.8V11.3Z"/><rect class="cls-9" x="10" y="9" width="2" height="2.24"/><path class="cls-4" d="M12,11.3H10V9h2Zm-2-.1h2V9H10Z"/><path class="cls-3" d="M10,12.6a1,1,0,0,1-1,.9,1,1,0,0,1-1.1-.9V11.3H10v1.3Z"/><path class="cls-5" d="M8.4,13.4h.2V11.2H8.4Z"/><path class="cls-4" d="M8.7,13.5H8.4V11.2h.2Zm-.3-.1h.2V11.2H8.4Z"/><path class="cls-5" d="M7.9,12.6a1.6,1.6,0,0,0,.3.6v-2H7.9Z"/><path class="cls-4" d="M8.2,13.2h0a.9.9,0,0,1-.3-.6V11.2h.3v2Zm-.2-2v1.4a.8.8,0,0,0,.2.5V11.2Z"/><path class="cls-10" d="M8.8,13.5h.3V11.2H8.8Z"/><path class="cls-4" d="M9,13.6H8.8V11.2h.3v2.4H9Zm-.1-.1h.2V11.2H8.9Z"/><path class="cls-5" d="M9.3,13.5h.2V11.2H9.3Z"/><path class="cls-4" d="M9.3,13.5h0V11.2h.3v2.2H9.3Zm0-2.3v2.3h.2V11.2Z"/><rect class="cls-3" x="7.9" y="9" width="2" height="2.24"/><path class="cls-4" d="M10,11.3H7.9V9H10Zm-2-.1h2V9H8Z"/><path class="cls-5" d="M9.8,13.2c.1-.1.1-.3.2-.5V11.2H9.7Z"/><path class="cls-4" d="M9.7,13.2v-2H10v1.5a.8.8,0,0,1-.2.5Zm.1-2v1.9c.1-.1.1-.2.2-.4V11.2Z"/><path class="cls-4" d="M9,13.6a1.1,1.1,0,0,1-1.1-1V11.2H10v1.4A1.1,1.1,0,0,1,9,13.6ZM8,11.3v1.3a.9.9,0,0,0,1,.9,1,1,0,0,0,1-.9V11.3Z"/><path class="cls-3" d="M12,11.3v1.3a1,1,0,0,1-1,.9.9.9,0,0,1-1-.9V11.3Z"/><path class="cls-4" d="M11,13.6a1,1,0,0,1-1-1V11.2h2v1.4A1,1,0,0,1,11,13.6Zm-1-2.3v1.3a.9.9,0,0,0,1,.9,1,1,0,0,0,1-.9V11.3Z"/><path class="cls-5" d="M10.3,12.3Zm1,0h-.2l.2.3h-.1l-.2-.2h0v.3h-.1v-.3h0l-.2.2h0l.2-.3h.4Zm.1,0Zm-.3.9h-.2v-.2H11v.2Zm-.5-.1h0l-.2-.2h-.1v-.2h.1l.2-.2h.1l-.2.2h.1Zm-.2-.2h0c.1,0,.1,0,0,.1h0C10.3,12.9,10.3,12.9,10.4,12.9Zm-.1-.2h-.1v-.2h.1Zm0-.2h0Zm.3.6h0Zm-.1,0h0Zm.1-.4h.1v-.2h-.2Zm0,0h.1v.2Zm.7.4h.1V13h.1c.1,0,.1-.1,0-.1h0a.3.3,0,0,0,.1-.2h-.2l-.2-.2h0l.2.2c-.1,0-.1,0,0,.1Zm.3-.2h0Zm.1-.2h0v-.2h-.1Zm-.1-.2h0Zm-.2.6h0Zm0,0h0Zm-.1-.4h0l-.2-.2h.2Zm.1,0h-.2l.2.2Zm-.9-.4h0Zm.9,0h0Zm-.5.9H11A.1.1,0,0,1,10.9,13.2Zm.1-.3h.1v-.2H11v.2Zm-.1,0h0v-.2h0v.2Z"/><path class="cls-5" d="M10.2,12.3c0-.1,0-.1.1-.1V12h0v.2c.1,0,.1,0,.1.1h-.2Zm.5,0h.2l-.2-.2h0l.2.2h0v-.3H11v.3h0l.2-.2h.1l-.2.2h-.4Zm.9,0a.1.1,0,0,1,.1-.1h.1a.1.1,0,0,0-.1-.1V12h-.1v.2h0Zm-1.3-.7.3.3h.1l-.3-.3h-.1v.3h0v-.3Zm1.4,0v.3h-.1v-.3h0l-.2.3h-.1l.3-.3h.1Zm-.7,0v.2h-.1v-.2H11Zm-.7.2h-.1V12h.1v-.2Zm0,0h.1V12h-.1v-.2Zm1.3,0h-.1V12h.1v-.2Zm.1,0h.1V12h-.1v-.2Zm-1.1,0h.2l-.2-.2Zm0,.1h-.1v.2h0Zm.7-.1h-.1v-.2Zm.1.1h0v.2h.1Zm-.9.4h0Zm-.2-.8Zm.5.1h0Zm0-.1h0Zm.6.8h0Zm.2-.8h0Zm-.7,0h0Zm.3.1Zm0-.1h0Zm-.3.2h0v.2h0v-.2Zm.1,0h.1v.2H11v-.2Z"/><path class="cls-5" d="M11,13.4h-.8v-.2h0v-.3h.2v.3h0l.2-.2h.1l-.2.2h.4v-.3H11v.3h0Zm-.2-.2h.1c0,.1,0,.1.1.1a.1.1,0,0,0,.1-.1H11v-.2h0v.2h-.2Zm-.3,0h0Zm.1-.1h0Zm0,0h0Zm-.1,0h0v-.2h0l-.2.2h0a.1.1,0,0,1-.1-.1h.2Zm-.3-.4h0Zm.2-.2h0Zm-.1.1Zm0-.1h.1c0-.1,0-.1-.1-.1h0V12h0v.2h0c-.1,0-.1,0-.1.1h.1Zm.1.5Zm0-.1Zm.6-.1h-.1v-.4l-.2.2h0l.2-.3h0l-.3-.2h.1l.2.3v-.3H11v.3l.2-.3h.1l-.2.2h0l.2.3h-.1l-.2-.2Zm0-.1h0v-.3h0l.2.2h0v-.3h0l.2-.2h-.1l-.2.2h0v-.3h0v.3h-.1l-.2-.2h0l.2.2h0l-.2.3h0l.2-.2H11Zm-.4-.7-.2-.3v.2h-.2v-.4h.2l.3.3Zm-.2-.4h0l.2.3h0l-.2-.3h-.1v.2h0v-.2h.1Z"/><path class="cls-5" d="M11.3,13.3h.1v-.2h0l.2.2h.1V12h-.1v-.2h.1l-.2.2h-.1l.2-.3h.3v.4h0v.3c.1,0,.1,0,.1.1h0v.2h-.5Zm0-.1h0a.1.1,0,0,1,.1-.1h-.1Zm-.1-.1Zm.2,0h-.1l.2.2h-.1Zm.3-.5h0v-.2h0Zm-.1.1Zm0-.1Zm-.2-.3h.3V12h-.1v.2h-.2Zm.2-.3h0v-.2h0Zm-.3-.1h0l.3-.3h0v.2h.1v-.2h-.1Zm.3,1.1Zm0-.1h0Zm-.9-.1h-.1l.2-.2h0Zm0-.1Zm-.1,0h.2Zm0-.1h0v-.2h-.1Zm-.3-.3h0Zm0,0Zm0-.3v-.2h.1V12Zm.1-.2V12h0v-.2Zm-.1.2h-.1v-.2h.1Zm-.1,0h0v-.2h0Zm.8-.2h0Zm0,0h0v-.2h0Z"/><path class="cls-5" d="M11,13.3c-.1,0-.1,0-.1-.1H11Zm0-.1Zm0-.3v-.2h.1v.2Zm0-.2v.2h.1v-.2Zm0,.2h-.1v-.2H11Zm-.1,0h0v-.2h0Zm.4-.1-.2-.2h.1l.2.2Zm-.1-.2h0Zm.2.1-.2-.2h.2Zm-.1-.2v.2h-.1Zm.1-.1h0Zm-.2,0h0Zm-.4,0h0Zm-.2,0h0Zm1.1-.1h-.1a.1.1,0,0,1,.1-.1Zm0,0h0Zm-.3,0h0Zm-.2-.1h0Zm-.4.1h0Zm-.2-.1h0Zm0-.1v-.2h.1v.2Zm-.1-.2v.2h-.1Zm.8.2h-.1l.2-.3h.1Zm0-.1Zm.4,0v-.2h.1V12Zm0-.2V12h0v-.2Zm-.9.2-.2-.2h.2Zm-.2-.2.2.2h-.2Zm.6.2h.2Zm0-.1h0v-.2h-.1Zm.2-.2h0Zm-.2-.1h0Zm-.4.1h0Zm-.2-.1h0Zm1.1,0h0Zm0-.1h0Zm-.7.1h0Zm0-.1h0Zm-.7.1h0Zm0-.1Zm1.1,0h0Zm-.2,0h0Zm-.4,0h0Zm-.2,0h0Z"/><path class="cls-5" d="M11,12h-.1v-.2H11Zm-.1-.1h0v-.2h0Zm.1.1v-.3h.1v.2Zm0-.3v.2h0Z"/><path class="cls-7" d="M10.9,12.3c0-.1,0-.1.1-.1a.1.1,0,0,1,.1.1h-.2Z"/><path class="cls-11" d="M11,9.6h0Z"/><path class="cls-4" d="M11,9.6Zm-.3-.1Z"/><path class="cls-12" d="M11.3,9.5h-.1v.2h.3c.1,0,0-.2,0-.3V9.8h0V9.5h.1c-.1,0-.1.2-.1.2v.4h-.2s.1.1,0,.1H11c0,.1.1.1,0,.1h.3Z"/><path class="cls-4" d="M11.4,11h-.3a.1.1,0,0,0-.1.1h0a.1.1,0,0,0-.1-.1H11a.1.1,0,0,0-.1-.1h0s-.1-.1,0-.1h.3v.2h0a.1.1,0,0,0,.1.1h.1V9.8h0V9.5h.1c-.1,0,0,.2,0,.2h0v.2h0v.2h-.2Zm-.1-.1h.1v-.2h.1c.1,0,.1-.1.1-.2h-.1V9.7h0V10c.1.1.1.2,0,.2h-.3c0-.1,0-.2-.1-.2h.2c.1,0,.1.1,0,.1h0Zm0-.2Z"/><path class="cls-4" d="M10.9,9.5h0Z"/><path class="cls-4" d="M10.9,9.5Z"/><path class="cls-4" d="M11.1,9.4h0Z"/><path class="cls-4" d="M11.1,9.4Z"/><path class="cls-13" d="M11.3,9.6Z"/><path class="cls-11" d="M10.4,9.4h0Z"/><path class="cls-4" d="M10.5,9.5Z"/><path class="cls-11" d="M10.3,9.5Z"/><path class="cls-4" d="M10.3,9.6h0Z"/><path class="cls-11" d="M10.3,9.6Z"/><path class="cls-4" d="M10.2,9.7Z"/><polygon class="cls-4" points="10.9 9.6 10.9 9.6 10.9 9.6 10.9 9.6 10.9 9.6"/><polygon class="cls-4" points="10.9 9.6 10.9 9.6 11 9.6 10.9 9.6"/><polygon class="cls-4" points="10.9 9.6 10.9 9.6 11 9.6 10.9 9.6 10.9 9.6"/><polygon class="cls-4" points="10.9 9.6 10.9 9.6 11 9.6 10.9 9.6"/><polygon class="cls-4" points="10.9 9.5 10.9 9.5 10.9 9.5 10.9 9.5 10.9 9.5"/><polygon class="cls-4" points="10.9 9.5 10.9 9.4 11 9.5 10.9 9.5"/><polygon class="cls-4" points="10.9 9.5 11 9.5 11 9.5 10.9 9.5 10.9 9.5"/><polygon class="cls-4" points="10.9 9.5 10.9 9.5 11 9.5 10.9 9.5"/><path class="cls-4" d="M10.9,10.1h0Zm0-.2h0Zm-.2-.1Z"/><path class="cls-11" d="M10.4,10Z"/><path class="cls-4" d="M10.4,10.1Z"/><path class="cls-11" d="M10.4,10.1h0Z"/><path class="cls-4" d="M10.3,10.2Z"/><path class="cls-11" d="M10.4,10.2h0Z"/><path class="cls-4" d="M10.5,10.3Z"/><path class="cls-4" d="M11.1,10.5v-.2h0Zm0-.2h0Z"/><path class="cls-11" d="M10.7,10.5Z"/><path class="cls-4" d="M10.7,10.6Z"/><path class="cls-11" d="M10.6,10.6h0Z"/><path class="cls-4" d="M10.5,10.8h0Z"/><path class="cls-11" d="M10.7,10.8Z"/><path class="cls-4" d="M10.8,10.9Z"/><path class="cls-11" d="M11.2,10.8Z"/><path class="cls-4" d="M11.1,10.9Z"/><path class="cls-11" d="M11.2,10.9h0Z"/><path class="cls-4" d="M11.3,11.1h0Z"/><path class="cls-11" d="M11.4,11Z"/><path class="cls-4" d="M11.5,11.1h0Z"/><path class="cls-14" d="M10.1,13.2c.1,0,.1.1.1.2H9.8c0-.1,0-.2.1-.2h.2Z"/><path class="cls-4" d="M10,13.5H9.8c0-.1,0-.2.1-.2h.2c.1,0,.1.1.1.2Zm-.1-.3h0c-.1,0-.1.1-.1.2h.4v-.2H9.9Z"/><path class="cls-7" d="M10,13.6h0Z"/><path class="cls-4" d="M9.8,13.7h0Zm-.2-.2Z"/><path class="cls-7" d="M10,13.6h0Z"/><path class="cls-4" d="M10,13.7h0Zm.1-.1Z"/><path class="cls-3" d="M10,13.5H9.9c0-.1,0-.2.1-.2v.2Z"/><path class="cls-4" d="M10,13.5H9.9c0-.1,0-.2.1-.2h0v.2Zm0-.3c0,.1-.1.1-.1.2H10Z"/><path class="cls-7" d="M9.9,13.7h0Z"/><path class="cls-4" d="M9.9,13.8h0Zm.1-.2Z"/><path class="cls-6" d="M12,7.9Z"/><path class="cls-4" d="M12,8h0Zm0-.1Z"/><path class="cls-6" d="M12,7.8h.1a.1.1,0,0,1-.1-.1Z"/><path class="cls-4" d="M12.1,7.9c-.1,0-.1,0-.1-.1h.1Zm0-.1Z"/><path class="cls-6" d="M12.1,7.7Z"/><path class="cls-4" d="M12.1,7.8h0Zm0-.1Z"/><path class="cls-6" d="M12.1,7.6h0Z"/><path class="cls-4" d="M12.1,7.6Zm0,0Z"/><path class="cls-6" d="M12,7.5h0Z"/><path class="cls-4" d="M12.1,7.5h0Zm0-.1h0Z"/><path class="cls-6" d="M12,7.3h.1c0,.1,0,.1-.1.1Z"/><path class="cls-4" d="M12,7.4h.1C12.1,7.4,12.1,7.4,12,7.4Zm0-.1Z"/><path class="cls-6" d="M11.9,7.2Z"/><path class="cls-4" d="M11.9,7.3h0Zm0-.1Z"/><path class="cls-6" d="M11.8,7.2h0c.1,0,.1,0,.1.1Z"/><path class="cls-4" d="M11.8,7.2h0c.1,0,.1,0,.1.1Zm0-.1h.1A.1.1,0,0,0,11.8,7.1Z"/><path class="cls-6" d="M11.7,7.1h0Z"/><path class="cls-4" d="M11.7,7.1h0Zm0,0Z"/><path class="cls-6" d="M11.5,7h0Z"/><path class="cls-4" d="M11.6,7.1h0Zm0-.1h0Z"/><path class="cls-6" d="M11.4,7Z"/><path class="cls-4" d="M11.4,7.1h0Zm0-.1Z"/><path class="cls-6" d="M11.2,7h0Z"/><path class="cls-4" d="M11.3,7.1h0Zm0-.1Z"/><path class="cls-6" d="M11.1,7h0Z"/><path class="cls-4" d="M11.2,7.1h0Zm0-.1h0Z"/><path class="cls-6" d="M11,7Z"/><path class="cls-4" d="M11,7.1h0ZM11,7Z"/><path class="cls-6" d="M11,7.1h.1a.1.1,0,0,1-.1-.1Z"/><path class="cls-4" d="M11.1,7.2a.1.1,0,0,1-.1-.1h.1Zm0-.1Z"/><path class="cls-6" d="M11.1,7.3h0Z"/><path class="cls-4" d="M11.1,7.3h0Zm0-.1h0Z"/><path class="cls-6" d="M11.1,7.4h0Z"/><path class="cls-4" d="M11.1,7.4h0a.1.1,0,0,1,.1.1Zm0,0Z"/><path class="cls-6" d="M11,7.5h0Z"/><path class="cls-4" d="M11.1,7.6h0Zm0-.1Z"/><path class="cls-6" d="M11,7.6Z"/><path class="cls-4" d="M11,7.7h0Zm0-.1Z"/><path class="cls-6" d="M10.9,6.9Z"/><path class="cls-4" d="M10.9,7h0Zm0-.1Z"/><path class="cls-6" d="M10.7,6.9a.1.1,0,0,1,.1-.1h-.1Z"/><path class="cls-4" d="M10.8,6.9h-.1a.1.1,0,1,1,.2,0Zm0-.1h0Z"/><path class="cls-6" d="M10.6,6.8h.1a.1.1,0,0,1-.1-.1Z"/><path class="cls-4" d="M10.7,6.9c-.1,0-.1,0-.1-.1h.1Zm0-.1h0Z"/><path class="cls-6" d="M10.5,6.8Z"/><path class="cls-4" d="M10.5,6.9h.1A.1.1,0,0,1,10.5,6.9Zm0-.1Z"/><path class="cls-6" d="M10.3,6.8h0Z"/><path class="cls-4" d="M10.4,6.9h0Zm0-.1Z"/><path class="cls-6" d="M10.2,6.8h.1c0,.1,0,.1-.1.1Z"/><path class="cls-4" d="M10.2,6.9h.1C10.3,6.9,10.3,6.9,10.2,6.9Zm0-.1h0a.1.1,0,0,0,.1-.1Z"/><path class="cls-6" d="M10.1,6.9h0Z"/><path class="cls-4" d="M10.1,6.9h0a.1.1,0,0,1,.1.1Zm0,0Z"/><path class="cls-6" d="M7.9,7.9Z"/><path class="cls-4" d="M7.9,8h0Zm0-.1Z"/><path class="cls-6" d="M7.8,7.8h.1c0,.1,0,.1-.1.1Z"/><path class="cls-4" d="M7.8,7.9h.1C7.9,7.9,7.9,7.9,7.8,7.9Zm0-.1h0a.1.1,0,0,0,.1-.1Z"/><path class="cls-6" d="M7.8,7.7Z"/><path class="cls-4" d="M7.8,7.8h0Zm0-.1Z"/><path class="cls-6" d="M7.8,7.6h0Z"/><path class="cls-4" d="M7.8,7.6h0Zm0,0Z"/><path class="cls-6" d="M7.8,7.5h0Z"/><path class="cls-4" d="M7.8,7.5Zm0-.1h0Z"/><path class="cls-6" d="M7.9,7.3Z"/><path class="cls-4" d="M7.9,7.4a.1.1,0,0,1-.1-.1H8A.1.1,0,0,1,7.9,7.4Zm0-.1Z"/><path class="cls-6" d="M7.9,7.2h0Z"/><path class="cls-4" d="M8,7.3H8Zm0-.1Z"/><path class="cls-6" d="M8,7.2a.1.1,0,0,1,.1-.1H8Z"/><path class="cls-4" d="M8.1,7.2H8a.1.1,0,1,1,.2,0Zm0-.1h0Z"/><path class="cls-6" d="M8.2,7.1h0Z"/><path class="cls-4" d="M8.2,7.1Zm0,0Z"/><path class="cls-6" d="M8.3,7Z"/><path class="cls-4" d="M8.3,7.1h0Zm0-.1Z"/><path class="cls-6" d="M8.5,7Z"/><path class="cls-4" d="M8.5,7.1h0Zm0-.1Z"/><path class="cls-6" d="M8.6,7Z"/><path class="cls-4" d="M8.6,7.1h0Zm0-.1Z"/><path class="cls-6" d="M8.7,7h0Z"/><path class="cls-4" d="M8.8,7.1h0Zm0-.1h0Z"/><path class="cls-6" d="M8.9,7Z"/><path class="cls-4" d="M8.9,7.1h0Zm0-.1Z"/><path class="cls-6" d="M8.8,7.1h.1c0,.1,0,.1-.1.1Z"/><path class="cls-4" d="M8.8,7.2h.1C8.9,7.2,8.9,7.2,8.8,7.2Zm0-.1h0a.1.1,0,0,0,.1-.1Z"/><path class="cls-6" d="M8.8,7.3h0Z"/><path class="cls-4" d="M8.8,7.3h0Zm0-.1h0Z"/><path class="cls-6" d="M8.8,7.4h0Z"/><path class="cls-4" d="M8.8,7.4h0Zm0,0Z"/><path class="cls-6" d="M8.8,7.5Z"/><path class="cls-4" d="M8.8,7.6h0Zm0-.1Z"/><path class="cls-6" d="M8.9,7.6Z"/><path class="cls-4" d="M8.9,7.7H9A.1.1,0,0,1,8.9,7.7Zm0-.1Z"/><path class="cls-6" d="M9,6.9Z"/><path class="cls-4" d="M9,7H9Zm0-.1Z"/><path class="cls-6" d="M9.1,6.9h0c.1,0,.1,0,.1.1Z"/><path class="cls-4" d="M9.1,6.9h0c.1,0,.1,0,.1.1Zm0-.1h0Z"/><path class="cls-6" d="M9.2,6.8h.1a.1.1,0,0,1-.1-.1Z"/><path class="cls-4" d="M9.3,6.9c-.1,0-.1,0-.1-.1h.1Zm0-.1h0Z"/><path class="cls-6" d="M9.4,6.8Z"/><path class="cls-4" d="M9.4,6.9h0Zm0-.1Z"/><path class="cls-6" d="M9.5,6.8Z"/><path class="cls-4" d="M9.5,6.9h.1A.1.1,0,0,1,9.5,6.9Zm0-.1Z"/><path class="cls-6" d="M9.6,6.8h.1a.1.1,0,0,1-.1-.1Z"/><path class="cls-4" d="M9.7,6.9c-.1,0-.1,0-.1-.1h.1Zm0-.1Z"/><path class="cls-6" d="M9.8,6.9h0Z"/><path class="cls-4" d="M9.8,6.9H9.7a.1.1,0,0,1,.2,0Zm0,0Z"/><path class="cls-5" d="M8.6,9.5h0v.2H8.5V10h0v.6H8.4v.3H9.5v-.3H9.4V10h.1V9.8H9.3V9.6H9.2v.2H9V9.4H8.9v.4H8.8V9.6H8.6Zm-.2,1.4h0Zm0,0h0Zm0-.1h0Zm0-.1h0Zm0-.1h0Zm.1,0h0Zm0-.1h0Zm0-.1h0Zm0-.1h0Zm0,0h0Zm0-.1h0Zm0-.1h0Zm0-.1h0Zm0,0h0Zm0-.1h0Zm0-.1h0Zm.1,0h0Zm.3-.1h0Zm0-.1h0Zm0-.1h0Zm0,0h0Zm-.1-.1h0Zm-.2.3h0Zm-.1-.1h0Zm0,1.3Zm0-.1h0Zm0,0h0Zm.1.1h0Zm.1,0Zm0-.1h0Zm0-.2Zm0-.1h0Zm-.1.2h0Zm-.1,0h0Zm.3-.1h0Zm0,0Zm-.2-.1h0Zm.2,0h0Zm.1,0h0Zm-.1,0h0Zm.1-.2h0Zm0-.1h0Zm-.1-.1h0Zm.1-.1h0Zm-.1,0h0Zm-.2,0h0Zm-.1,0Zm.2,0Zm.1,0Zm.1-.1h0Zm-.1,0h0Zm-.2,0h0Zm-.1-.1h0Zm.3,0h0Zm-.1-.1h0Zm.6,0h0Zm.1-.1h0Zm0,1.3Zm0-.1h0Zm.1,0h0Zm-.2.1h0Zm-.1,0Zm0-.1h0Zm0-.2Zm0-.1h0Zm.1.2h0Zm.2,0h0Zm-.3-.1h0Zm-.1,0Zm.2-.1h0Zm-.1,0h0Zm-.2,0H9Zm.1,0h0ZM9,10.3H9Zm0-.1H9Zm.1-.1h0ZM9,10H9Zm.2,0h0Zm.1,0h0Zm.1,0Zm-.2,0Zm-.1,0ZM9,9.9H9Zm.2,0h0Zm.1,0h0Zm.1-.1h0Zm-.3,0h0Zm.1-.1h0Zm-.2.8H9Zm0-.3H9Zm0,.1ZM9,10Zm0-.1H9Zm0-.2H9Zm0-.2Zm-.4.1h0Zm.3-.2h0Zm.3.2h0Z"/><path class="cls-4" d="M9.6,11H8.4v-.4h.1v-.5H8.4V9.7h.1V9.5h.3v.2h.1V9.4h.2v.3h0V9.5h.3v.2h.1v.4H9.4v.5h.2Zm-.2-.1h0Zm-.1,0h0Zm-.6,0h0Zm-.1,0h0Zm-.2,0h0Zm1,0Zm-.1,0Zm-.7,0Zm.9-.1Zm-.2,0h0Zm-.6,0h0Zm-.1,0h0Zm-.1,0Zm.9-.1Zm-.1,0Zm-.5,0h0Zm-.1,0Zm-.1,0Zm.7-.1h0Zm-.1,0Zm-.4,0h0Zm0,0Zm-.2,0h0Zm.7,0Zm-.2,0h0Zm-.2,0h0Zm-.1,0h0Zm-.1,0Zm.6-.1h0Zm-.1,0Zm-.1,0Zm-.2,0Zm-.1,0Zm-.2,0h0Zm.7-.1h0Zm-.3,0Zm-.2,0h0Zm.3-.1h0Zm-.2,0Zm.2,0h0Zm-.1,0Zm-.4,0h0Zm.5-.1h0Zm0,0Zm-.2,0Zm-.3,0h0Zm.6-.1h0Zm-.1,0h0Zm-.1,0Zm-.2,0h0Zm-.2,0h0Zm.7-.1h0Zm-.1,0Zm-.1,0Zm-.2,0Zm-.1,0Zm-.2,0h0Zm.8,0Zm-.1,0Zm-.2,0h0ZM9,10Zm-.2,0h0Zm-.1,0Zm-.1,0Zm.7-.1h0Zm-.2,0Zm-.2,0Zm-.1,0Zm.6-.1Zm-.5-.1h0Zm.4-.1h0Zm-.6,0h0Zm.3,0Zm.1,0h0Zm-.5,0h0ZM9,9.4H9Zm-.2-.1h0Z"/><path class="cls-5" d="M9.2,10.9h0a.2.2,0,0,0-.2-.2c-.2,0-.2.1-.2.2h.4Z"/><path class="cls-4" d="M9.2,11H8.8v-.2c0-.1,0-.2.2-.2s.2.1.2.2Zm-.4-.1h.3c0-.1,0-.2-.1-.2s-.2.1-.2.2Z"/><path class="cls-5" d="M8.8,10.8H8.7c0-.1.1-.1.1-.2h.1A.1.1,0,0,0,8.8,10.8Z"/><path class="cls-4" d="M8.9,10.8H8.7c0-.1,0-.1.1-.2h.1Zm-.1-.1Z"/><path class="cls-5" d="M9.1,10.8h.1c0-.1,0-.1-.1-.2h0Z"/><path class="cls-4" d="M9.1,10.8h0a.1.1,0,0,0-.1-.1h.2v.2H9.1Zm0-.1Z"/><path class="cls-5" d="M9,10.7H9Z"/><path class="cls-4" d="M9,10.7H9Zm-.1-.1h0Z"/><path class="cls-5" d="M8.8,10.4v-.2H8.6v.2Z"/><path class="cls-4" d="M8.8,10.5H8.6v-.3h.2Zm-.2-.1h.2v-.2H8.6Z"/><path class="cls-5" d="M9.1,10.4v-.2h.2v.2Z"/><path class="cls-4" d="M9.3,10.5H9.1v-.3h.2Zm-.2-.1h.2v-.2H9.1Z"/><polygon class="cls-5" points="9 9.9 9.1 9.8 8.9 9.8 8.9 9.9 9 9.9"/><path class="cls-4" d="M9.1,10H8.9V9.7h.2Zm-.2-.1h0Z"/><polygon class="cls-5" points="9.2 9.9 9.2 9.8 9.3 9.8 9.3 9.9 9.2 9.9"/><path class="cls-4" d="M9.3,10H9.2V9.7h.3Zm-.1-.1h0Z"/><polygon class="cls-5" points="8.8 9.9 8.8 9.8 8.6 9.8 8.6 9.9 8.8 9.9"/><path class="cls-4" d="M8.8,10H8.6V9.7h.2Zm-.2-.1h0Z"/><path class="cls-15" d="M9.1,10.9h0a.1.1,0,0,0-.1-.1h.1Z"/><path class="cls-15" d="M8.8,10.4v-.2H8.6v.2Z"/><path class="cls-15" d="M9.1,10.4v-.2h.2v.2Z"/><path class="cls-3" d="M9.3,11.2a.7.7,0,0,1,.7-.7.7.7,0,0,1,.6.7c0,.5-.3.8-.6.8a.7.7,0,0,1-.7-.8Z"/><path class="cls-4" d="M10,12a.7.7,0,0,1-.7-.8.7.7,0,0,1,.7-.7.8.8,0,0,1,.7.7A.8.8,0,0,1,10,12Zm0-1.5a.8.8,0,0,0-.7.7.8.8,0,0,0,.7.8c.3,0,.6-.4.6-.8S10.3,10.5,10,10.5Z"/><path class="cls-8" d="M9.5,11.2a.5.5,0,0,1,.5-.5.5.5,0,0,1,.4.5c0,.3-.2.6-.4.6a.6.6,0,0,1-.5-.6Z"/><path class="cls-4" d="M10,11.8c-.3,0-.5-.2-.5-.6a.5.5,0,0,1,.5-.5.5.5,0,0,1,.5.5A.6.6,0,0,1,10,11.8Zm0-1.1a.5.5,0,0,0-.5.5.6.6,0,0,0,.5.6c.2,0,.4-.3.4-.6S10.2,10.7,10,10.7Z"/><path class="cls-5" d="M9.8,10.9h0Z"/><path class="cls-4" d="M9.8,11.4Zm-.1-.1Z"/><rect class="cls-5" x="9.7" y="11.2" width="0.2" height="0.04"/><path class="cls-4" d="M9.9,11.3h0Zm-.2-.1h0Z"/><path class="cls-5" d="M10.2,10.9h0Z"/><path class="cls-4" d="M10.2,11.4Zm0-.1Z"/><rect class="cls-5" x="10.1" y="11.2" width="0.2" height="0.04"/><path class="cls-4" d="M10.3,11.3h0Zm-.2-.1h0Z"/><path class="cls-5" d="M10,11.2v.2H10v-.2Z"/><path class="cls-4" d="M10,11.7H9.9v-.2h0v.2h0Zm-.1-.1h0Z"/><rect class="cls-5" x="9.9" y="11.6" width="0.2" height="0.04"/><path class="cls-4" d="M10.1,11.6h0Zm-.2,0h0Z"/><path class="cls-5" d="M11.3,9.3Z"/><path class="cls-4" d="M11.3,9.5Zm-.2-.2h0Z"/><polygon class="cls-4" points="11.2 9.3 11.2 9.3 11.2 9.3 11.2 9.3 11.2 9.3 11.2 9.3"/><path class="cls-4" d="M11.2,9.4Z"/><polygon class="cls-4" points="11.2 9.4 11.2 9.4 11.2 9.4 11.2 9.4 11.2 9.4 11.3 9.4 11.3 9.4 11.2 9.4 11.2 9.4 11.2 9.4"/><path class="cls-4" d="M11.3,9.4h0Z"/><polygon class="cls-4" points="11.2 9.3 11.2 9.3 11.2 9.3 11.2 9.3 11.2 9.3 11.2 9.3 11.2 9.3 11.2 9.3 11.2 9.3 11.2 9.3"/><path class="cls-4" d="M11.2,9.3Z"/><polygon class="cls-4" points="11.1 9.3 11.1 9.3 11.1 9.3 11.1 9.3 11.1 9.3 11.1 9.3"/><path class="cls-4" d="M11.1,9.3Z"/><polygon class="cls-4" points="11.3 9.4 11.3 9.4 11.3 9.4 11.3 9.4 11.3 9.4 11.3 9.4"/><path class="cls-4" d="M11.3,9.4Z"/><polygon class="cls-4" points="11.3 9.4 11.3 9.4 11.3 9.4 11.3 9.4 11.3 9.4 11.3 9.4 11.3 9.4 11.3 9.4 11.3 9.4 11.3 9.4"/><path class="cls-4" d="M11.3,9.5h0Z"/><polygon class="cls-4" points="11.3 9.5 11.3 9.4 11.3 9.4 11.3 9.5 11.3 9.5 11.3 9.5"/><path class="cls-4" d="M11.3,9.5Z"/><polygon class="cls-5" points="11.2 9.2 11.2 9.2 11.2 9.3 11.2 9.3 11.2 9.3 11.2 9.2 11.2 9.2 11.2 9.2"/><polygon class="cls-4" points="11.2 9.3 11.2 9.3 11.2 9.2 11.2 9.2 11.3 9.2 11.2 9.3 11.2 9.3"/><polygon class="cls-5" points="11.2 9.2 11.2 9.3 11.2 9.3 11.2 9.3 11.2 9.3 11.2 9.2 11.2 9.2 11.2 9.2"/><polygon class="cls-4" points="11.2 9.3 11.1 9.3 11.1 9.2 11.2 9.2 11.2 9.2 11.2 9.3 11.2 9.3"/><polygon class="cls-5" points="11.2 9.3 11.2 9.3 11.2 9.3 11.2 9.3 11.2 9.3 11.2 9.3 11.2 9.3 11.2 9.3"/><polygon class="cls-4" points="11.2 9.3 11.2 9.3 11.2 9.2 11.2 9.2 11.3 9.2 11.3 9.3 11.2 9.3"/><path class="cls-5" d="M11.2,9.3h0Z"/><path class="cls-4" d="M11.2,9.3Z"/><path class="cls-5" d="M11.1,9.2Z"/><path class="cls-4" d="M11.1,9.2Z"/><polygon class="cls-5" points="11.1 9.2 11.1 9.2 11.1 9.2 11.1 9.2 11.1 9.2 11.1 9.2 11.1 9.2 11.1 9.2"/><polygon class="cls-4" points="11.1 9.3 11.1 9.2 11.1 9.2 11.1 9.2 11.2 9.2 11.2 9.2 11.1 9.3"/><path class="cls-5" d="M11.1,9.2Z"/><path class="cls-4" d="M11.1,9.2Z"/><polygon class="cls-5" points="11.3 9.3 11.3 9.3 11.3 9.3 11.3 9.3 11.3 9.3 11.3 9.3 11.3 9.3 11.3 9.3"/><polygon class="cls-4" points="11.3 9.3 11.3 9.3 11.3 9.3 11.3 9.2 11.3 9.3 11.3 9.3 11.3 9.3"/><polygon class="cls-5" points="11.3 9.3 11.2 9.3 11.3 9.3 11.3 9.3 11.3 9.3 11.3 9.3 11.3 9.3 11.3 9.3"/><polygon class="cls-4" points="11.3 9.3 11.2 9.3 11.2 9.3 11.3 9.3 11.3 9.3 11.3 9.3 11.3 9.3"/><polygon class="cls-5" points="11.3 9.3 11.3 9.3 11.3 9.3 11.3 9.3 11.3 9.3 11.3 9.3 11.3 9.3 11.3 9.3"/><polygon class="cls-4" points="11.3 9.4 11.3 9.3 11.3 9.3 11.3 9.3 11.3 9.3 11.3 9.3 11.3 9.4"/><path class="cls-5" d="M11.3,9.3Z"/><path class="cls-4" d="M11.3,9.3Z"/><polygon class="cls-5" points="11.4 9.3 11.4 9.4 11.4 9.4 11.4 9.4 11.4 9.4 11.4 9.3 11.4 9.3 11.4 9.3"/><polygon class="cls-4" points="11.4 9.4 11.3 9.4 11.3 9.4 11.4 9.3 11.4 9.3 11.4 9.4 11.4 9.4"/><polygon class="cls-5" points="11.4 9.4 11.4 9.4 11.4 9.4 11.4 9.4 11.4 9.4 11.4 9.4 11.4 9.4 11.4 9.4"/><polygon class="cls-4" points="11.4 9.4 11.3 9.4 11.3 9.4 11.4 9.4 11.4 9.4 11.4 9.4 11.4 9.4"/><polygon class="cls-5" points="11.3 9.3 11.3 9.4 11.4 9.4 11.4 9.4 11.4 9.4 11.4 9.3 11.3 9.3 11.3 9.3"/><polygon class="cls-4" points="11.4 9.4 11.3 9.4 11.3 9.3 11.4 9.3 11.4 9.4 11.4 9.4 11.4 9.4"/><path class="cls-5" d="M11.4,9.4Z"/><path class="cls-4" d="M11.4,9.4h0Z"/><path class="cls-5" d="M11.4,9.5h0Z"/><path class="cls-4" d="M11.5,9.5Z"/><polygon class="cls-5" points="11.4 9.4 11.4 9.4 11.4 9.5 11.4 9.5 11.4 9.5 11.4 9.4 11.4 9.4 11.4 9.4"/><polygon class="cls-4" points="11.4 9.5 11.4 9.4 11.4 9.4 11.4 9.4 11.4 9.5 11.4 9.5 11.4 9.5"/><path class="cls-5" d="M11.4,9.5Z"/><path class="cls-4" d="M11.4,9.5h0c.1.1.1.1,0,.1Z"/><polygon class="cls-4" points="13 8.6 12.9 8.6 12.9 8.5 12.9 8.5 12.9 8.5 12.9 8.5 12.9 8.4 12.9 8.4 12.9 8.4 13 8.4 13 8.4 13 8.4 13 8.5 13 8.5 13 8.5 13 8.5 13 8.6"/><path class="cls-13" d="M6.9,9Zm0,0Z"/><path class="cls-13" d="M6.9,9Zm0,0Z"/><polygon class="cls-4" points="6.9 9 6.8 9 6.8 9 6.9 9 6.9 9"/><path class="cls-13" d="M6.8,9Zm0,0Z"/><polygon class="cls-4" points="7 9 7 9 7 9 7 9 7 9 7 9"/><path class="cls-13" d="M12.9,9Zm0,0Z"/><path class="cls-13" d="M12.9,9Zm0,0Z"/><polygon class="cls-4" points="12.9 9 12.8 9 12.8 9 12.9 9 12.9 9"/><path class="cls-13" d="M12.8,9Zm0,0Z"/><polygon class="cls-4" points="13 9 13 9 13 9 13 9 13 9 13 9"/></svg>