<svg id="Flags" xmlns="http://www.w3.org/2000/svg" viewBox="0 0 30 20"><defs><style>.cls-1{fill:#289dc8;}.cls-2{fill:#23ae77;}.cls-3{fill:#fff;}.cls-4{fill:#e92f49;}</style></defs><title>Artboard 34</title><path class="cls-1" d="M27.5,0H2.5A2.5,2.5,0,0,0,0,2.5V6.6H30V2.5A2.5,2.5,0,0,0,27.5,0Z"/><path class="cls-2" d="M0,17.5A2.5,2.5,0,0,0,2.5,20h25A2.5,2.5,0,0,0,30,17.5V13.4H0Z"/><path class="cls-3" d="M13.6,12.8a3,3,0,0,0,2.1-.8,2.8,2.8,0,0,1-1.3.4,2.4,2.4,0,1,1,0-4.8,2.8,2.8,0,0,1,1.3.4,3,3,0,0,0-2.1-.8,2.8,2.8,0,1,0,0,5.6Z"/><path class="cls-4" d="M0,6.6v6.8H30V6.6Zm13.6,6.2a2.8,2.8,0,1,1,0-5.6,3,3,0,0,1,2.1.8,2.8,2.8,0,0,0-1.3-.4,2.4,2.4,0,1,0,0,4.8,2.8,2.8,0,0,0,1.3-.4A3,3,0,0,1,13.6,12.8Zm4-1.7-.8-.4-.3.8v-.3l-.2-.5-.8.4.4-.8L15,10l.8-.3-.4-.8.8.4.2-.5V8.5l.3.8.8-.4-.4.8.8.3-.8.3Z"/><polygon class="cls-3" points="16.2 9.3 15.4 8.9 15.8 9.7 15 10 15.8 10.3 15.4 11.1 16.2 10.7 16.4 11.2 16.5 11.5 16.8 10.7 17.6 11.1 17.2 10.3 18 10 17.2 9.7 17.6 8.9 16.8 9.3 16.5 8.5 16.4 8.8 16.2 9.3"/></svg>