<svg xmlns="http://www.w3.org/2000/svg" viewBox="0 0 30 20"><defs><style>.cls-1{fill:none;}.cls-2{fill:#228c43;}.cls-3{fill:#ee8530;}.cls-4{fill:#121212;}.cls-5{fill:#dd2d2c;}.cls-6{fill:#ee7e22;}.cls-7{fill:#010101;}</style></defs><title>zm</title><g id="Layer_2" data-name="Layer 2"><path class="cls-1" d="M27.5,0h0Z"/><path class="cls-1" d="M23,20h0Z"/><path class="cls-2" d="M19.4,7.2H30V2.5A2.5,2.5,0,0,0,27.7,0H2.3A2.5,2.5,0,0,0,0,2.5v15A2.5,2.5,0,0,0,2.3,20H19.4Z"/><polygon class="cls-2" points="26.5 20 23 20 23 20 27.7 20 27.7 20 26.5 20 26.5 20"/><path class="cls-3" d="M26.5,20h1.2A2.6,2.6,0,0,0,30,17.5V7.2H26.5Z"/><polygon class="cls-4" points="23 20 26.5 20 26.5 20 26.5 7.2 26.5 7.2 23 7.2 23 7.2 23 7.2 23 20"/><polygon class="cls-5" points="23 7.2 23 7.2 19.4 7.2 19.4 20 23 20 23 20 23 7.2"/><path class="cls-6" d="M27.6,2.4,29,1.7c.1.1-.5.8-1.7,1.1a17.9,17.9,0,0,0,2.2-1s0,.7-2.4,1.4A12.8,12.8,0,0,0,29.7,2s-.2.7-1.6,1.1c.4-.1,1.5-.7,1.5-.6a3,3,0,0,1-3.1,1,3.5,3.5,0,0,0,2.8-.6s-.3.9-2.3.9h.7a1.2,1.2,0,0,1-1.2.2l.6.2a1.6,1.6,0,0,1-.9-.1l.6.2s-.2.2-.4.1l-2-1.2,3.1-.8Z"/><path class="cls-7" d="M26.5,4.5h-.1l-2-1.2h-.1a.1.1,0,0,1,.1-.1l3-.8h.2L29,1.7h.5a.1.1,0,0,1,.1.1V2h.2a.1.1,0,0,1,.1.1h0l-.2.3h.1c0,.1-.1.2-.3.4h0c0,.2-.3.8-1.6,1h-.1q0,.1-.6.3h-.2C26.9,4.4,26.7,4.5,26.5,4.5ZM26.2,4h.2c0-.1-.1-.1,0-.1s0-.1.1-.1h.4a.1.1,0,0,1,.1-.1h.6A2.4,2.4,0,0,0,29,3.2h-.3l-.6.3a4.3,4.3,0,0,1-1.6,0s-.1-.1,0-.1,0-.1.1-.1h1.5l.6-.2.7-.5h-.3l-.7.3H28c0-.1,0-.1.1-.2h.2l.6-.3H29l.5-.3-.8.4-1.2.5H27c0-.1,0-.1.1-.1h.3l1.2-.5c.5-.2.7-.5.7-.6s-.1.1-.3.2l-.8.4a2,2,0,0,1-.8.4.1.1,0,0,1-.1-.1c-.1-.1,0-.1,0-.1l.8-.3.6-.4-1.1.5h-.1l-2.8.7c.3.3,1,.6,1.4.9h.1Z"/><path class="cls-6" d="M24,5.4c-.3,0-.3.2-.3.2h.1s.1.1.3-.1,0,.3,0,.3-.1.1.1.1a.1.1,0,0,1-.1-.1.2.2,0,0,0,.2-.2c0,.2.1.2.1.2s0,.1.2.2a.3.3,0,0,1-.1-.2s.2-.1,0-.3.2-.2.2-.2h-.2V5.1C24.3,5,24.3,5.4,24,5.4Z"/><path class="cls-7" d="M24.6,6.1h-.3c0,.1,0,.1-.1.1h-.6c0-.2.2-.3.4-.3a.2.2,0,0,0,.2-.2h0l.2-.6h.1v.4h0v.3h0q.1.3,0,.3h0s.1.1,0,.1Zm-.3-.6h.1c0,.1,0,.1.1.1h-.1V5.1c0,.1,0,.3-.2.3h.1v.2a.1.1,0,0,0-.1.1h0c.1,0,.1,0,.1-.1Zm-.5,0h0Z"/><path class="cls-6" d="M25.3,4.5s.2.3.4.2-.1-.1-.1-.2.4.4.6.3-.2-.1-.4-.4a1.1,1.1,0,0,0,.8.2c.1-.1-.5-.3-.7-.6l-.4-.2-.7.5Z"/><path class="cls-7" d="M26.1,4.9h-.4c-.2,0-.4-.1-.4-.2l-.5-.2h0l.6-.5h.1l.5.2h0l.4.3q.3.2.3.3a.1.1,0,0,1-.1.1h-.5Zm-.5-.5h0l.4.2-.3-.3h.1l.6.3-.2-.2-.3-.3-.4-.2-.5.4.4.2h.2Z"/><path class="cls-6" d="M24.6,2.8s.2-.2,1.1-.1l.7-.2a5,5,0,0,0,1.3-.4c.2,0,0,.3-.2.3l-1.2.4c.3,0,.1.2-.4.1s.1.2.1.2h-.5c.3.1.1.1.1.1s-.3.1-.4,0H25A1.4,1.4,0,0,1,24.6,2.8Z"/><path class="cls-7" d="M25.2,3.3h-.3l-.3-.4a.1.1,0,0,1-.1-.1h1.2l.6-.2h.1c.3-.1,1.1-.2,1.2-.4h.1c.1,0,.1,0,.1.1s-.1.4-.3.4l-1,.3c0,.2-.1.2-.4.2h-.9Zm-.5-.5c.1.1.2.3.3.3h.1a.1.1,0,0,1,.1-.1h.6c0-.1,0-.1.1-.1h.4l1.1-.3h.2l-1.2.3h-.1l-.6.2h-1Z"/><path class="cls-6" d="M24.9,4.7v.5h-.1s-.4-.1-.3.2,0,.2.1.2h0s.1.1.2-.1,0,.2,0,.2-.1.2.1.2,0-.1,0-.1a.4.4,0,0,0,.1-.3h.2c.1,0,0,.1,0,.1a.1.1,0,0,0,.1-.1.2.2,0,0,0-.1-.3h.1a.1.1,0,0,1,.1.1s0-.2-.1-.2h-.2V4.6Z"/><path class="cls-7" d="M25,6c-.1,0-.2,0-.2-.2h-.2a.4.4,0,0,1-.1-.3V5.3h.4V4.7a.1.1,0,0,1,.1-.1h.4v.5h.1c.2,0,.2.2.2.3h-.1v.2H25Zm-.1-.3H25V5.5h0C24.9,5.6,24.9,5.6,24.9,5.7Zm-.2-.2h.4a.1.1,0,0,1,.1.1h-.1V4.7H25v.5H25a.1.1,0,0,1-.1.1h-.2Z"/><path class="cls-6" d="M25.5,5.1s-.3-.3-.2-.4.2.2.3.1-.1,0-.2-.2-.1-.4-.5-.7.7.5.7.4-.4-.5-.4-.5a1.9,1.9,0,0,0,.9.5l-.4-.4L25,3.2c-.2-.3-.3-.4-.4-.4h0c-.2-.3,0-.4.1-.4h0c0,.1.3,0,.2.2s.3-.3-.2-.3-.9-.4-1.1.5,0,.1.1.1l-1.1-.2-1.3-.6c-.1.1.3.5.3.5l-1.1-.6L20,1.6c0,.2.4.6.5.7l.8.3c-1.1-.4-1.2-.5-1.3-.6s-.3-.3-.3-.3,0,.5.5.7,1,.4,1,.5l-1.1-.5c-.3-.1-.5-.4-.6-.3a1.4,1.4,0,0,0,.4.4l.9.4-1-.4-.3-.2s.1.5,1.2.8h-.3s.1.2.7.2l.4-.2c0,.1-.5.2-.6.2h.2a1.5,1.5,0,0,0,.8-.1l-.5.2h-.2s.3.3,1.1,0l-.5.2L22,4h.3l.5-.3-.5.3h.5a2.2,2.2,0,0,0,.8-.5c0,.1-1,.6-.9.6s.3,0,.4,0l.4-.2-.4.3c-.1.2.7-.1.8-.2l-.4.3a.5.5,0,0,0,.6.1s-.1.2,0,.1h.1v.2c0,.2,0,.3-.1.4s.3-.1.3-.5a3.5,3.5,0,0,1-.1.6c.1,0,.2-.2.2-.3s.2.2.2.2V4.2a1.9,1.9,0,0,1,.3.9,1,1,0,0,0,.1-.4C25.1,5.1,25.5,5.2,25.5,5.1Z"/><path class="cls-7" d="M25.5,5.2h0a.4.4,0,0,1-.4-.2H25a.1.1,0,0,1-.1.1h-.1a1.3,1.3,0,0,0-.1-.6V5h-.1l-.2-.2c0,.2-.1.3-.2.3H24V4.6h-.2c-.2,0-.3,0-.4-.2h0c-.2,0-.3.1-.4,0h-.4a.1.1,0,0,0-.1.1H22c-.1,0-.3-.1-.3-.2h-.6a.6.6,0,0,1-.5-.2h0c0-.1,0-.1.1-.1h-.3c-.1-.1-.1-.1,0-.1h0c-.9-.3-1-.7-1-.7s0-.1.1-.1h.1V1.7h.3V2h.2c-.2-.2-.3-.4-.2-.5s0-.1.1-.1h.2l.3.2.7.3c-.1-.1-.1-.1-.1-.2h.1l.4.2.9.4h.1l.8.2c.2-.7.6-.7.8-.7h.4c.3,0,.4.1.4.2s-.1.3-.2.3h0a.1.1,0,0,0-.1-.1h-.1a.1.1,0,0,0-.1.1v.2h0a1,1,0,0,1,.4.5h.1l.7.7h0l.2.2.2.2h-.5a.1.1,0,0,1-.1.1h-.3c0,.1.1.1.1.2h.1c.1.1.1.1.1.2h-.1ZM25,4.7h.1c0,.2.1.3.2.3a.8.8,0,0,1-.1-.4h0L25,4.1a.3.3,0,0,1-.1-.2c-.1,0,0-.1,0-.1H25a.2.2,0,0,0,.2.2l.3.2h-.1c-.2-.2-.3-.3-.2-.4h.1a1.5,1.5,0,0,0,.6.5h0L25.7,4l-.8-.8-.3-.3h-.1a.2.2,0,0,1,0-.3.1.1,0,0,1,.1-.1h0a.1.1,0,0,1,.1-.1h-.4c-.2,0-.5.1-.6.6h-.1l-.9-.2h-.1l-1-.4h-.2c.1.1.1.2.2.2s.1.1.1.2h-.1l-1.1-.5-.3-.2h-.1c.1.1.4.4.4.5l.5.2.3.2h-.1L20,2.1c-.1,0-.1-.1-.2-.2h-.1c.1.1.2.4.5.5h.5c.6.2.6.2.6.3h-.1l-.9-.3H20l-.3-.2h.2a.1.1,0,0,0,.1.1l.4.2H21c.1,0,.1,0,.1.1h0c0,.1,0,.1-.3.1h.8l-.7.2h.3l.6-.2h.1a.1.1,0,0,1,.1.1h0c0,.1,0,.1-.3.2h.5c.1-.1.1,0,.1,0h0l-.3.2h.3l.4-.3h.2c0,.1-.1.2-.4.4h.3l.7-.4h.1c.1.1,0,.1-.6.5h.5c.1,0,0,0,0,.1h0c-.2.1-.3.1-.3.2l.6-.2h0l-.2.2c0,.1.2.1.2.1s.2,0,.2-.1h.3v.2h.2a1.8,1.8,0,0,1,.1-.6h.1l.3.7ZM19.7,2.5a1.5,1.5,0,0,0,1,.5h.1l-.5-.2-.6-.2Z"/><path class="cls-6" d="M24.4,2.1s0-.2-.3,0S24.4,2.2,24.4,2.1Z"/><path class="cls-7" d="M24.3,2.2h-.4l.2-.2h.2c.2,0,.2.1.2.2h0C24.5,2.2,24.4,2.2,24.3,2.2Z"/></g></svg>