<svg id="Flags" xmlns="http://www.w3.org/2000/svg" viewBox="0 0 30 20"><defs><style>.cls-1{fill:#2c328a;}.cls-2{fill:#ffd733;}.cls-3{fill:#fff;}</style></defs><title>Artboard 75</title><path class="cls-1" d="M27.5,0H25.7V20h1.8A2.5,2.5,0,0,0,30,17.5V2.5A2.5,2.5,0,0,0,27.5,0Z"/><path class="cls-1" d="M2.6,0,3,1.3,1.9.5.8,1.3,1.1.5A2.3,2.3,0,0,0,0,2.5v15A2.5,2.5,0,0,0,2.5,20H21.3l-1.1-.8h1.4l.4-1.3.5,1.3h1.4l-1.1.8h2.9L5.6,0Zm0,1.7H4L4.4.4l.5,1.3H6.3l-1.2.8.5,1.3L4.4,3l-1.1.8.4-1.3Zm18.7,15-1.1.8.5,1.3L19.5,18l-1.1.8.4-1.3-1.1-.8h1.4l.4-1.3.5,1.3Zm-2.5-2.5-1.1.8.4,1.3L17,15.5l-1.1.8.4-1.3-1.1-.8h1.4l.4-1.3.4,1.3Zm-2.5-2.5-1.1.8.4,1.3L14.5,13l-1.1.8.4-1.3-1.1-.8h1.4l.4-1.3.4,1.3ZM13.8,9.2l-1.1.8.4,1.3L12,10.5l-1.1.8.4-1.3-1.1-.8h1.4L12,7.9l.4,1.3ZM11.3,6.7l-1.1.8.4,1.3L9.5,8l-1.2.8.5-1.3L7.6,6.7H9l.5-1.3.4,1.3ZM8.8,4.2,7.6,5l.5,1.3L7,5.5l-1.2.8L6.3,5,5.1,4.2H6.5L7,2.9l.4,1.3Z"/><polygon class="cls-2" points="5.6 0 25.7 20 25.7 20 25.7 0 5.6 0"/><path class="cls-3" d="M1.9.5,3,1.3,2.6,0H2.5A2.4,2.4,0,0,0,1.1.5l-.3.8Z"/><polygon class="cls-3" points="22.5 19.2 22 17.9 21.6 19.2 20.2 19.2 21.3 20 22.8 20 23.9 19.2 22.5 19.2"/><polygon class="cls-3" points="4.4 3 5.6 3.8 5.1 2.5 6.3 1.7 4.9 1.7 4.4 0.4 4 1.7 2.6 1.7 3.7 2.5 3.3 3.8 4.4 3"/><polygon class="cls-3" points="6.5 4.2 5.1 4.2 6.3 5 5.8 6.3 7 5.5 8.1 6.3 7.6 5 8.8 4.2 7.4 4.2 7 2.9 6.5 4.2"/><polygon class="cls-3" points="9 6.7 7.6 6.7 8.8 7.5 8.3 8.8 9.5 8 10.6 8.8 10.2 7.5 11.3 6.7 9.9 6.7 9.5 5.4 9 6.7"/><polygon class="cls-3" points="11.6 9.2 10.2 9.2 11.3 10 10.9 11.3 12 10.5 13.1 11.3 12.7 10 13.8 9.2 12.4 9.2 12 7.9 11.6 9.2"/><polygon class="cls-3" points="14.1 11.7 12.7 11.7 13.8 12.5 13.4 13.8 14.5 13 15.6 13.8 15.2 12.5 16.3 11.7 14.9 11.7 14.5 10.4 14.1 11.7"/><polygon class="cls-3" points="16.6 14.2 15.2 14.2 16.3 15 15.9 16.3 17 15.5 18.1 16.3 17.7 15 18.8 14.2 17.4 14.2 17 12.9 16.6 14.2"/><polygon class="cls-3" points="19.1 16.7 17.7 16.7 18.8 17.5 18.4 18.8 19.5 18 20.7 18.8 20.2 17.5 21.3 16.7 20 16.7 19.5 15.4 19.1 16.7"/></svg>