<svg id="Flags" xmlns="http://www.w3.org/2000/svg" viewBox="0 0 30 20"><defs><style>.cls-1{fill:#2a3782;}.cls-2{fill:#f4e731;}.cls-3{fill:#ec2f3b;}.cls-4{fill:#e2c390;}.cls-5{fill:#ec2330;}.cls-6{fill:#f4e403;}.cls-7{fill:#fff;}.cls-8{fill:#3f5aa9;}.cls-9{fill:#fae004;}.cls-10{fill:#4d2613;}</style></defs><title>Artboard 29</title><path class="cls-1" d="M2.5,0A2.5,2.5,0,0,0,0,2.5v15A2.5,2.5,0,0,0,2.5,20h7V0Z"/><path class="cls-2" d="M9.5,0V20h11V0Zm9.7,11.7h0c.5.6.1,1.9-1.4,1.9s-1.6.2-1.7.3a.4.4,0,0,1-.2.7.4.4,0,0,1-.6,0L15,15l-.4-.3c-.2.1-.3.2-.5,0s-.7-.4-.3-.7-.8-.3-1.3-.3-2.3-1.3-1.6-2.1-.5-.8.2-.7.2-.6.1-.8-.7-.1-.4-.5-.5-2.1.6-1.9.2,0,.3-.1-.1-.4-.4-.7a.4.4,0,0,1-.1-.7l.3-.3c.1-.2.4-.2.5-.2a.3.3,0,0,1,.4,0,.5.5,0,0,1,.4,0,.4.4,0,0,1,.2.5.6.6,0,0,0,.5.2c.4-.1.4-.4.2-.6s.3-1,.7-.7.8.3,1.1,0a.5.5,0,0,1,.8.7c-.2.2-.2.5.2.5H17a.4.4,0,0,1,.2-.6.2.2,0,0,1,.3,0c.1-.1.4,0,.4.1a.5.5,0,0,1,.6.2c.2,0,.3.1.3.2a.6.6,0,0,1-.2.8.5.5,0,0,0-.3.5c0,.1.1.3.3.2s1.4,1.5.6,1.9,0,.5-.4.5,0,.8.2.9S19.7,11.7,19.2,11.7Z"/><path class="cls-3" d="M27.4,0H20.5V20h6.9A2.5,2.5,0,0,0,30,17.5V2.5A2.5,2.5,0,0,0,27.4,0Z"/><polygon class="cls-4" points="15.5 13.3 15.6 13.3 15.6 13.2 15.5 13.3"/><path class="cls-4" d="M12.7,12.9h-.1V13h.2Z"/><path class="cls-4" d="M18.2,12.8a.1.1,0,0,0-.1-.1h.1Z"/><path class="cls-4" d="M19,11c-.2-.1-.4-.7-.2-.9s.5-.3.4-.5.7-2.1-.6-1.9-.3-.1-.3-.2a.5.5,0,0,1,.3-.5.6.6,0,0,0,.2-.8c0-.1-.1-.2-.3-.2a.5.5,0,0,0-.6-.2c0-.1-.3-.2-.4-.1a.2.2,0,0,0-.3,0,.4.4,0,0,0-.2.6h-.5c-.4,0-.4-.3-.2-.5a.5.5,0,0,0-.8-.7c-.3.3-.6.3-1.1,0s-1,.1-.7.7.2.5-.2.6a.6.6,0,0,1-.5-.2.4.4,0,0,0-.2-.5.5.5,0,0,0-.4,0,.3.3,0,0,0-.4,0c-.1,0-.4,0-.5.2l-.3.3a.4.4,0,0,0,.1.7c.3.3.4.5.4.7s-.1.2-.3.1-1.5,1.5-.6,1.9.1.7.4.5.1.8-.1.8-.7.6-.2.7-.2,2.3,1.6,2.1,1.1,0,1.3.3-.1.7.3.7.3.1.5,0l.4.3.3-.3a.4.4,0,0,0,.6,0,.4.4,0,0,0,.2-.7c.1-.1.5-.3,1.7-.3s1.9-1.3,1.4-1.9h0C19.7,11.7,19.5,10.8,19,11Zm-4.1,1.2c0,.1-.1-.1-.3-.1h-2c-.2-.2-.3-.3-.3-.5V9.7h2.6Zm0-5.3V9.5H12.3V6.9h2.6ZM12,13.1v-.4H12V13l.2-.3h0l-.2.4Zm.4,0h-.1v-.2h.1v.3h.1Zm.4.1h-.2V13h-.2v-.3h.2c.1.1.1.1,0,.1h.1Zm.3-.2H13v.3h-.1c0,.1.1.1.1,0h0v-.3h.1Zm.2.4h0V13h.1v.3l.2-.2h0Zm.5-.2h-.1a.1.1,0,0,0,.1.1h-.1a.1.1,0,0,1-.1-.1h.2Zm1-.1h0v.3h0l-.3-.3v.2h0v-.3h-.2v.3h0l-.2-.4h.1v0h.2l.3.3v-.2h0Zm.2,0h0v.2h-.1v-.2H15Zm.1-6.2h2.6V9.5H15.1Zm2.6,4.6c0,.2-.6.6-.8.6H15.4c-.2,0-.3.2-.3.1V9.7h2.6Zm-2.4,1.6h0v.3h-.1v-.3h.1Zm.5.4h-.4l.2-.3h0v.3Zm.4-.4H16v.2h.2v.2h-.1v.2H16v-.3h.2Zm.4.2h-.2c-.1-.1-.1-.1-.1-.2V13h.3A.1.1,0,0,1,16.6,13.3Zm.4,0-.2-.2h0v.2h0V13H17Zm.3-.4h-.1v.3c.1,0,.1,0,.1.1h-.1v-.3h.2Zm.1.4h.1v-.3h.1v.3h-.1Zm.5-.2h-.2v-.4h.3V13Zm.4,0-.2-.2h0v-.3h.3Z"/><path class="cls-4" d="M17.7,12.8h0c-.1.1-.1.1,0,.2v.2h.2c0-.1,0-.2-.1-.2Z"/><path class="cls-4" d="M16.9,13h-.1v.2h.1Z"/><path class="cls-4" d="M16.4,13h0v.2a.1.1,0,0,0,.1.1h.2c0-.1,0-.2-.1-.2Z"/><path class="cls-5" d="M12.3,9.5h2.6V6.9H12.3Zm.6-1.6s.6-.8.7-.8a5.7,5.7,0,0,1,.7.8h0a3.6,3.6,0,0,1-.4.9h-.7l-.3-.8A.1.1,0,0,1,12.9,7.9Z"/><path class="cls-6" d="M12.3,11.5c0,.2.1.3.3.5V9.8h.2v2.3h1.8c.2,0,.3.2.3.1V9.7H12.3Zm2-1.7h.3v2.3h-.3Zm-.6,0H14v2.3h-.3Zm-.5,0h.2v2.3h-.2Z"/><path class="cls-6" d="M15.1,9.7v2.5c0,.1.1-.1.3-.1h1.5c.2,0,.8-.4.8-.6V9.7Zm.4.5h1.4c.1,0,.1.2,0,.2H17v.2h-.1v-.2h-.5c.1,0,.1,0,.1-.1h-.3v-.2h-.7ZM17,11.8h-.1c-.1,0,0,0,0-.1h-.7v-.2h-.1c0,.1.1,0,0,.1h-.2c0-.1,0-.2.1-.2h.9c.1,0,.1.2,0,.2H17v.2Z"/><path class="cls-6" d="M17.7,6.9H15.1V9.5h2.6ZM15.8,9.4h-.4V7h.4Zm.8,0h-.5V7h.5Zm.7,0h-.4V7h.4Z"/><path class="cls-7" d="M13.2,8.9h.7a3.6,3.6,0,0,0,.4-.9h0a5.7,5.7,0,0,0-.7-.8c-.1,0-.7.8-.7.8a.1.1,0,0,0,0,.2Zm.4-1.5.5.6-.2.6a.2.2,0,0,1-.3.1Zm-.1,0V8.7s-.2.1-.2-.1a2.1,2.1,0,0,1-.2-.6Z"/><path class="cls-5" d="M13.9,8.6l.2-.6-.5-.6V8.7A.2.2,0,0,0,13.9,8.6Z"/><path class="cls-5" d="M13.5,8.7V7.4l-.4.6a2.1,2.1,0,0,0,.2.6C13.3,8.8,13.5,8.7,13.5,8.7Z"/><path class="cls-5" d="M16.9,11.5h0c.1,0,.1-.2,0-.2H16c0,.2-.1.3-.1.4h.3v.2h.7c0,.1-.1.1,0,.1H17v-.2Zm0-.1s-.2-.3-.1-.2S17,11.3,16.9,11.4Z"/><path class="cls-5" d="M15.9,11h0Z"/><path class="cls-5" d="M15.8,11.3c.1,0,.1-.1.1-.3h-.1Z"/><path class="cls-8" d="M15.6,11Z"/><path class="cls-9" d="M16.8,11.2c-.1-.1.1.2.1.2S17,11.2,16.8,11.2Z"/><path class="cls-8" d="M16,11h-.1c0,.2,0,.3-.1.3h.1C15.9,11.3,16,11.2,16,11Z"/><path class="cls-5" d="M15.8,11.4h0Z"/><rect class="cls-5" x="15.4" y="7" width="0.5" height="2.46"/><rect class="cls-5" x="14.3" y="9.8" width="0.3" height="2.34"/><rect class="cls-5" x="16.1" y="7" width="0.5" height="2.46"/><rect class="cls-5" x="16.9" y="7" width="0.5" height="2.46"/><rect class="cls-5" x="13.7" y="9.8" width="0.3" height="2.37"/><rect class="cls-5" x="13.2" y="9.8" width="0.3" height="2.36"/><polygon class="cls-5" points="12.8 9.8 12.6 9.8 12.6 12 12.6 12.1 12.8 12.1 12.8 12.1 12.8 9.8"/><path class="cls-5" d="M16,11.5h0c-.1,0-.1.1-.1.2h.2c.1-.1,0,0,0-.1H16Z"/><path class="cls-8" d="M15.8,11Z"/><path class="cls-5" d="M15.6,10.3h.2c.1,0,.1-.1.1-.2h-.3Z"/><path class="cls-5" d="M15.9,10.4h.3v.2h.3c0,.1,0,.1-.1.1h.5v.2H17v-.2h-.1c.1,0,.1-.2,0-.2H16Zm.9-.2c.2,0,.2.1.1.2S16.7,10.1,16.8,10.2Z"/><path class="cls-5" d="M15.9,10.1h0Z"/><path class="cls-8" d="M15.6,10Z"/><path class="cls-9" d="M16.8,10.2c-.1-.1.1.2.1.2S17,10.2,16.8,10.2Z"/><path class="cls-8" d="M15.9,10.1c0,.1,0,.2-.1.2h.1v-.3h-.1Z"/><path class="cls-5" d="M15.8,10.5Z"/><path class="cls-5" d="M16,10.5h0Z"/><path class="cls-8" d="M15.8,10Z"/><path class="cls-10" d="M14.4,13.1h-.1v0H14l.2.4h0v-.3Z"/><path class="cls-10" d="M14.7,13.1h.1v.2l-.3-.3h0v.3h0v-.2l.3.3h0v-.3h-.1Z"/><path class="cls-10" d="M14.9,13.1h0v.2H15v-.2h-.1Z"/><path class="cls-10" d="M15.4,13.2h-.2v.3h.1v-.3h.1Z"/><path class="cls-10" d="M15.7,13.4v-.3h0l-.2.3h.3Zm-.2-.1h0Z"/><path class="cls-10" d="M15.9,13H16v.3h.1v-.2h.1v-.2H16V13h-.1Z"/><path class="cls-10" d="M16.4,13h-.1v.2c0,.1,0,.1.1.2h.2a.1.1,0,0,0,0-.2h-.2Zm.2.3h-.2a.1.1,0,0,1-.1-.1V13h.1c.1,0,.1.1.1.2Z"/><path class="cls-10" d="M17,13.3h-.3v.3h0v-.2h0l.2.2h0Zm-.2-.2h0v-.2h0Z"/><path class="cls-10" d="M17,12.9h.1v.3h.1c0-.1,0-.1-.1-.1v-.3H17Z"/><path class="cls-10" d="M17.6,13.2h-.1v-.3h-.1v.3h.1Z"/><path class="cls-10" d="M17.7,12.8h-.1v.4H18v-.2Zm.2.3h-.2V13c-.1-.1-.1-.1,0-.2h.1c.1,0,.1.1.1.2Z"/><path class="cls-10" d="M18.4,13.1H18v.3h0l.2.2Zm-.3-.2h0a.1.1,0,0,1,.1.1h-.1Z"/><path class="cls-10" d="M12.2,12.7h0L12,13v-.3h-.1v.4h0l.2-.4Z"/><path class="cls-10" d="M12.3,13.1h0v-.3h-.1V13h0Z"/><path class="cls-10" d="M12.7,13.1h0c.1,0,.1,0,0-.1h-.2v.3h.2v.2h.1Zm-.1-.1h-.1v-.2h0Z"/><path class="cls-10" d="M12.8,12.9H13v.3h0c0,.1-.1.1-.1,0h.1v-.3h-.2Z"/><path class="cls-10" d="M13.6,13h-.1l-.2.2V13h-.1v.4h0l.2-.3h.1Z"/><path class="cls-10" d="M13.8,13.1h-.2a.1.1,0,0,0,.1.1h.1a.1.1,0,0,1-.1-.1h.1Z"/></svg>