<svg xmlns="http://www.w3.org/2000/svg" viewBox="0 0 30 20"><defs><style>.cls-1{fill:#fff;}.cls-2{fill:#121212;}.cls-3{fill:#166734;}.cls-4{fill:#ba252a;}.cls-5{fill:#010101;}</style></defs><title>ke</title><g id="Layer_6" data-name="Layer 6"><path class="cls-1" d="M17.2,6.5l.2.5H30V6H17.5Z"/><path class="cls-1" d="M16.9,14h.3l-.2-.2Z"/><path class="cls-1" d="M17.2,6h-.3c.1.1.1.1.1.2Z"/><path class="cls-1" d="M12.8,14h.3v-.2Z"/><path class="cls-1" d="M17.2,13.5l.3.5H30V13H17.4Z"/><path class="cls-1" d="M12.8,6.5,12.5,6H0V7H12.6Z"/><path class="cls-1" d="M12.8,13.5l-.2-.5H0v1H12.5Z"/><path class="cls-1" d="M13.1,6h-.3l.2.2C13,6.1,13,6.1,13.1,6Z"/><path class="cls-2" d="M27.4,0H2.6A2.5,2.5,0,0,0,0,2.5V6H12.5c-.4-.1-.5-.4-.7-.7A5.2,5.2,0,0,1,10.9,3a5.8,5.8,0,0,1,1.5,1.8,1.3,1.3,0,0,1,.3,1V6h.3c.5-1,1.4-2,1.9-2s1.4,1,1.9,2h.3V5.8a1.3,1.3,0,0,1,.3-1A5.8,5.8,0,0,1,19.1,3a5.2,5.2,0,0,1-.9,2.2,1.6,1.6,0,0,1-.7.7H30V2.5A2.5,2.5,0,0,0,27.4,0Z"/><path class="cls-3" d="M18.6,16h-.2L17.2,14h-.3c-.5,1-1.4,2-1.9,2s-1.4-1-1.9-2h-.3l-1.2,2.1h-.2l1.1-2H0v3.5A2.5,2.5,0,0,0,2.6,20H27.4A2.5,2.5,0,0,0,30,17.5V14H17.5Z"/><path class="cls-1" d="M12.8,13.5l-.3.5-1.1,2h.2L12.8,14l.2-.2Z"/><path class="cls-1" d="M17.2,6.5l.3-.5h0a1.6,1.6,0,0,0,.7-.7A5.2,5.2,0,0,0,19.1,3a5.8,5.8,0,0,0-1.5,1.8,1.3,1.3,0,0,0-.3,1V6l-.2.2Z"/><path class="cls-1" d="M13,6.2,12.8,6V5.8a1.3,1.3,0,0,0-.3-1A5.8,5.8,0,0,0,10.9,3a5.2,5.2,0,0,0,.9,2.2c.2.3.3.6.7.7h0l.3.5Z"/><path class="cls-1" d="M17.2,14l1.2,2.1h.2l-1.1-2-.3-.5-.2.3Z"/><path class="cls-4" d="M12,10a8,8,0,0,1,.6-3H0v6H12.6A8,8,0,0,1,12,10Z"/><path class="cls-4" d="M18,10a8,8,0,0,1-.6,3H30V7H17.4A8,8,0,0,1,18,10Z"/><path class="cls-4" d="M12.8,6.5l-.2.5a7.8,7.8,0,0,1,0,6l.2.5.2.3V14c.5,1,1.4,2,1.9,2s1.4-1,1.9-2v-.2l.2-.3.2-.5a7.8,7.8,0,0,1,0-6l-.2-.5L17,6.2c0-.1,0-.1-.1-.2S15.5,4,15,4s-1.4,1-1.9,2-.1.1-.1.2Zm1.6,6.9a6.5,6.5,0,0,1,.5-2.7V16A6.3,6.3,0,0,1,14.4,13.4Zm.7,2.6V10.7a6.5,6.5,0,0,1,.5,2.7A6.3,6.3,0,0,1,15.1,16Zm.4-6c0,.4-.2.8-.5.8s-.5-.4-.5-.8.2-.8.5-.8S15.5,9.6,15.5,10Zm.1-3.4a6.5,6.5,0,0,1-.5,2.7V4A6.3,6.3,0,0,1,15.6,6.6ZM14.9,4V9.3a6.5,6.5,0,0,1-.5-2.7A6.3,6.3,0,0,1,14.9,4Z"/><path class="cls-5" d="M17.4,13a7.8,7.8,0,0,0,0-6,7.8,7.8,0,0,0,0,6Z"/><path class="cls-5" d="M12.6,7a7.8,7.8,0,0,0,0,6,7.8,7.8,0,0,0,0-6Z"/><path class="cls-1" d="M14.5,10c0,.4.2.8.5.8s.5-.4.5-.8-.2-.8-.5-.8S14.5,9.6,14.5,10Z"/><path class="cls-1" d="M15.1,10.7V16a6.3,6.3,0,0,0,.5-2.6A6.5,6.5,0,0,0,15.1,10.7Z"/><path class="cls-1" d="M14.9,9.3V4a6.3,6.3,0,0,0-.5,2.6A6.5,6.5,0,0,0,14.9,9.3Z"/><path class="cls-1" d="M14.9,10.7a6.5,6.5,0,0,0-.5,2.7,6.3,6.3,0,0,0,.5,2.6Z"/><path class="cls-1" d="M15.1,9.3a6.5,6.5,0,0,0,.5-2.7A6.3,6.3,0,0,0,15.1,4Z"/></g></svg>