<svg id="Flags" xmlns="http://www.w3.org/2000/svg" viewBox="0 0 30 20"><defs><style>.cls-1{fill:#d72b2c;}.cls-2{fill:#fff;}</style></defs><title>Artboard 43</title><path class="cls-1" d="M27.5,0H2.5A2.5,2.5,0,0,0,0,2.5v15A2.5,2.5,0,0,0,2.5,20h25A2.5,2.5,0,0,0,30,17.5V2.5A2.5,2.5,0,0,0,27.5,0ZM22,12.1H17.1v4.8H12.9V12.1H8V7.9h4.9V3.1h4.2V7.9H22Z"/><polygon class="cls-2" points="17.1 3.1 12.9 3.1 12.9 7.9 8 7.9 8 12.1 12.9 12.1 12.9 16.9 17.1 16.9 17.1 12.1 22 12.1 22 7.9 17.1 7.9 17.1 3.1"/></svg>