<svg xmlns="http://www.w3.org/2000/svg" viewBox="0 0 30 20"><defs><style>.cls-1{fill:#d32a40;}.cls-2{fill:#fff;}.cls-3{fill:#067f40;}</style></defs><title>mv</title><g id="Layer_89" data-name="Layer 89"><path class="cls-1" d="M27.4,0H2.6A2.5,2.5,0,0,0,0,2.5v15A2.5,2.5,0,0,0,2.6,20H27.4A2.5,2.5,0,0,0,30,17.5V2.5A2.5,2.5,0,0,0,27.4,0ZM25.1,15H4.9V5H25.1Z"/><path class="cls-2" d="M16.3,13.3h.6a3.4,3.4,0,0,1,0-6.6h-.6A3.4,3.4,0,0,0,12.9,10,3.4,3.4,0,0,0,16.3,13.3Z"/><path class="cls-3" d="M4.9,5V15H25.1V5Zm11.4,8.3A3.4,3.4,0,0,1,12.9,10a3.4,3.4,0,0,1,3.4-3.3h.6a3.4,3.4,0,0,0,0,6.6Z"/></g></svg>