<svg xmlns="http://www.w3.org/2000/svg" viewBox="0 0 30 20"><defs><style>.cls-1{fill:#eeb330;}.cls-2{fill:#e2432d;}.cls-3{fill:#fff;}.cls-4{fill:#010101;}</style></defs><title>bt</title><g id="Layer_77" data-name="Layer 77"><path class="cls-1" d="M19.1,7c-.1.2-.3.1-.5.1l.3.3,1-.7h0A1.1,1.1,0,0,0,19.1,7Z"/><path class="cls-1" d="M13.7,10.7h-1c0,.1,0,.2-.1.2h-.2v.4a.1.1,0,0,1-.1.1h.1l1.4-1Z"/><path class="cls-1" d="M18.6,7l.4-.2c.3,0,.2-.3.4-.3H18.3v.2Z"/><path class="cls-1" d="M18.8,3.4h-.1a4.6,4.6,0,0,1,.7.7h.3l-.4-.2Z"/><path class="cls-1" d="M17.1,3.5c.1,0,.2,0,.2.1a1.8,1.8,0,0,1,.9.4C17.8,3.5,17.4,3.4,17.1,3.5Z"/><path class="cls-1" d="M18.8,3.7h-.2a.6.6,0,0,0,.1.4h.4C19,4,19,3.8,18.8,3.7Z"/><path class="cls-1" d="M2.6,0A2.5,2.5,0,0,0,0,2.5v15a2.5,2.5,0,0,0,.9,1.9l3.5-2.3c-.1,0-.2,0-.2-.1a1.8,1.8,0,0,0,1-.7,3.1,3.1,0,0,1,1-.5h.3l-.8.2c-.3,0-.7.5-1,.3s.3-.1.5-.4l.9-.3c.4-.4.8-.1,1.2-.6H6.7c-.2.2-.5,0-.8.1s.7-.1,1-.4a1.8,1.8,0,0,1,1-.1c-.3-.1-.6-.4-1.1-.3s-.6-.4-.8-.2.3-.3.6-.1.4-.2,1,.2.7-.1,1,.1L8.2,14c.1-.2.5-.2.9-.1h0v-.2h.6v-.2l.4-.2L9.5,13c.2,0,.3-.3.6-.3s.1-.4.3-.4-.1-.2-.1-.3.1-.3.2-.4h-.1c-.1-.1-.6.3-.8-.1s.7-.4,1.1-.5v-.4l.3-.3c-.1-.1,0-.3,0-.3V9.8a.1.1,0,0,0-.2,0c-.1,0-.3-.2-.4,0s.3-.1.5-.3.4-.2.6,0a.4.4,0,0,1,.1-.3h.5c-.1-.2,0-.4.2-.4s.2-.1.4,0,0-.2-.1-.2-.3-.2-.2-.4.3.2.4.2.3.2.4.3h.2c.1.1.2.1.2.2H14a.2.2,0,0,1,.2.2h.4V8.6c-.1-.1-.2-.2-.1-.3s.1.2.3.2,0,.4.3.5v.2h.3c.2,0,.2.2.1.3h.3l.6-.4c-.1,0-.3-.2-.4-.1s.5,0,.6-.2h-.1c-.1-.2-.2-.4-.1-.5h-.3a.6.6,0,0,1-.1-.4h-.3c-.1,0-.3.1-.4.4s.2-.5.3-.8V6.9l-.6.4c.2-.5.5-.7.7-.7h0c0-.2,0-.2.1-.3a.1.1,0,0,1,0-.2c0-.2.1-.2.2-.2a.2.2,0,0,1,0-.3H16c-.3.1-1.1-.2-1.6.2s.5-.4,1.1-.4a1.2,1.2,0,0,1,.9-.4q-.1,0,0-.3c.1.4.7.1,1,.3h.1c-.8-.4-1.7-.6-1.9-.4s.2.4.3.3-.7.1-.5-.3.8-.5,1.7-.2V4a.4.4,0,0,0-.5,0,.5.5,0,0,1,.6-.1h.2a.9.9,0,0,0-1-.1c0-.3.4-.3.7-.2s.8-.2,1.3.2,0-.2.1-.2L18,3.2h.6a1.2,1.2,0,0,0-.9-.3,1.7,1.7,0,0,1,1.6.5c.2.2.7.1,1,.5a.7.7,0,0,1,.9.1h.2c.2-.1.4.2.5.4h0l.6.2h.7c.2-.4-.1-.5.3-.9s.1-.6.5-.8l.4-.5c.1.4-.5.5-.5,1.1s-.1.4-.3.8L29.1.6A2.4,2.4,0,0,0,27.4,0Z"/><polygon class="cls-1" points="14.6 9.1 14.6 9.1 14.6 9.1 14.6 9.1"/><path class="cls-1" d="M18.4,6.1h-.1v.2l.6-.2Z"/><path class="cls-1" d="M21.5,5.7h0c-.2,0-.4.2-.6.4h0Z"/><path class="cls-1" d="M17.7,3.9h-.2l.7.3h0A.9.9,0,0,0,17.7,3.9Z"/><path class="cls-1" d="M17.8,4.5H18a.9.9,0,0,0-.6-.3C17.4,4.2,17.6,4.3,17.8,4.5Z"/><path class="cls-2" d="M22.9,6.1l-.2.4c-.1.1-.1.1-.1.2h.3A.9.9,0,0,1,22.9,6.1Z"/><path class="cls-2" d="M23.4,4.9Z"/><path class="cls-2" d="M22.6,8.2h0c.1,0,.1.1.1.2h.1Z"/><path class="cls-2" d="M21.2,13.1c-.1.1-.1.1-.1.2s.1-.1.2-.1Z"/><path class="cls-2" d="M22.6,8Z"/><path class="cls-2" d="M23.1,8.6h0Z"/><path class="cls-2" d="M23.8,8.4v.2c0-.2.2-.2.3-.2A.6.6,0,0,1,24,8,.5.5,0,0,1,23.8,8.4Z"/><path class="cls-2" d="M21.5,6a.2.2,0,0,0,0-.3l-.6.4,1.2.3h0c.3-.1.2-.3.4-.4H22a.4.4,0,0,0,.1-.3h-.3Z"/><path class="cls-2" d="M21.3,6.5l.4.2c0-.1.1-.1.2-.2l-.8-.2A.2.2,0,0,0,21.3,6.5Z"/><path class="cls-2" d="M22.3,6.5h.1V6.4Z"/><path class="cls-2" d="M16.4,9.7h0c0-.1.1-.1.2-.1h.1c.1,0,0-.1-.1-.1s-.3-.3-.2-.4.3.2.5.2h.2a.4.4,0,0,1-.1-.3h-.5l-.6.4H16C16.3,9.5,16.4,9.6,16.4,9.7Z"/><path class="cls-2" d="M9.6,13.6Z"/><path class="cls-2" d="M6.4,15.7H6.2C6.3,15.8,6.4,15.8,6.4,15.7Z"/><path class="cls-2" d="M9.1,13.9Z"/><path class="cls-2" d="M23.6,4.4l.2-.2c.3-.3.7.1,1.2-.2s-.7.3-.9.5-.2.3-.4.3h.5c.7-.4,1,0,1.5-.2s-1,.1-1.4.4l-1,.3c.1.1-.1.1-.2.1h0c.2.1.1.2,0,.2h0c.1,0,.1.1,0,.1s-.1.7-.1,1.1h.3c.4-.1.2-.4,0-.4a.3.3,0,0,1,.5.4c.4-.2.2-.6,0-.5s.5.1.5.3,1,.4.7.7-.8-.5-1.3-.3a2,2,0,0,1-1.1-.1.8.8,0,0,1-.2.7,1.6,1.6,0,0,0,0-.7h-.3l-.2.2.3.2a.6.6,0,0,1-.1.4A.3.3,0,0,1,22,8c.1-.2-.1-.3-.1-.4s-.3.2-.2.4a.4.4,0,0,1-.2-.4.4.4,0,0,1-.5.1c.2,0,.2-.3.4-.4h-.1a1,1,0,0,0-.8-.5h-.6l-1,.7c.1.1.1.2.3.2a2.5,2.5,0,0,1,.9.4,1.6,1.6,0,0,0,1.2.3c.2-.1.7-.3.9-.1l.3-.5a.4.4,0,0,0,.1.3c-.1-.1-.1-.1-.1-.2a.8.8,0,0,1,.8-.7.7.7,0,0,1,.7.6c.4.1.3.5.5.5s.2.5-.1.6-.4.5-.6.4-.4.3-.6.2h-.4c-.2,0-.3-.1-.5-.3l-.7.4h-.7c0,.3.4.6.1.8a.5.5,0,0,0-.3-.5c.1.2-.2.3-.1.6a.6.6,0,0,1-.2-.8.4.4,0,0,1-.5.2c.3-.1.3-.3.3-.5a.8.8,0,0,0-.8.1,2,2,0,0,1-.4,1.7c-.2.3-.1.4-.4.6s-.2.2-.1.6.3,0,.4.2h.3c.2-.1.3,0,.5.1a.4.4,0,0,1,.4.2c.1-.2.2-.2.4-.2s.1-.3.3-.3.2-.4.4-.3a.6.6,0,0,1,.8,0c-.3-.1-.3.3-.6.3l-.2.3h.6c.1,0,.2,0,.3.2a.5.5,0,0,1,.2.6l-.3-.3h-.4a.9.9,0,0,1,.9,1,.9.9,0,0,1-.9.9,1,1,0,0,1-1-.9.9.9,0,0,1,.3-.7h-.2c.1.1-.1.4-.2.5a.2.2,0,0,1,.1.4c.3.1.1.3.5.5s-.7,0-.7-.3-.4-.3-.4-.5a.4.4,0,0,1,0-.6c-.2.1-.3-.3-.6-.1s-.6-.1-.6-.2-.5,0-.5-.1-.4-.1-.4-.3-.4,0-.4-.2h-.1a.3.3,0,0,1-.3.3c.1-.2-.1-.4,0-.4s-.4.5-.7.2.2-.5.6-.5-.3-.2-.5-.3h.3c.1.1.2-.2.5,0h0a.2.2,0,0,1,0-.3h-.9l-.6-.2h-.2l-.5-.2H13.7l-1.4,1a.4.4,0,0,1-.1.3c0,.1-.1.2,0,.3h0c.6,1.2-.1,1.4.1,2.3s.3.2.3.4.2.1.2.3h.3a.3.3,0,0,1,.5,0c.3,0,.4.2.4.5a.8.8,0,0,1-.1.8v-.4c0-.2-.2-.2-.2-.3s-.3-.1-.3-.2h-.3c.2,0,.3.3.2.5a.3.3,0,0,1,0,.4.3.3,0,0,1-.1.2h0a.9.9,0,0,1-.8.8.9.9,0,0,1-.9-.8c0-.2-.2-.4-.2-.5a.7.7,0,0,1,.6-.9.1.1,0,0,1,0-.2c-.1-.1,0-.2.1-.3s-.3-.1-.1-.1h0c-.2,0-.3-.2-.2-.3h0c-.3,0-.2.4-.4.4s-.1-.2-.1-.4-.4.3-.5.1.2-.3.4-.3.1-.2-.1-.2-.1-.1,0-.1h.4c0-.2.1-.3.1-.5h-.6c-.3.3-.8.4-.9.7s-.5.3-1,.9-.6.1-1,.5.4-.2.7-.7H8.6c-.5,0-.7.6-1.1.5s.4-.6.7-.7-.4.4-.7.4-.4.5-.8.5-.4.5-1.1.5-.9.4-1.2.5L.9,19.4a2.4,2.4,0,0,0,1.7.6H27.4A2.5,2.5,0,0,0,30,17.5V2.5A2.5,2.5,0,0,0,29.1.6L23.6,4.3ZM14,14.2a.7.7,0,0,1,0-1.4.8.8,0,0,1,.8.7A.8.8,0,0,1,14,14.2Z"/><path class="cls-3" d="M16,6.3h-.1c-.1.1-.1.1-.1.3H16Z"/><path class="cls-3" d="M16,6.3c0-.2.1-.3.1-.4h0c-.1,0-.2,0-.2.2a.1.1,0,0,0,0,.2Z"/><path class="cls-3" d="M16.1,5.9c.1-.2.1-.3.2-.4h-.2a.2.2,0,0,0,0,.3Z"/><path class="cls-3" d="M16.6,7.9l-.3-.5h-.2a.6.6,0,0,0,.1.4h.4Z"/><path class="cls-3" d="M16,6.9h-.3v.3c-.1.3-.5.4-.3.8s.3-.4.4-.4h.5Z"/><path class="cls-3" d="M17.1,8.5,16.7,8h-.2c-.1.1,0,.3.1.5h.2C16.8,8.5,16.9,8.4,17.1,8.5Z"/><path class="cls-3" d="M17.1,9.5h-.2c-.2,0-.5,0-.5-.2s0,.3.2.4.2.1.1.1a.6.6,0,0,0,.6-.1Z"/><path class="cls-3" d="M17,9.1l.2-.3c0-.1-.1-.2-.1-.3s-.3,0-.3.1h-.1c-.1.2-.5-.1-.6.2s.3.1.4.1H17Z"/><path class="cls-3" d="M17,9.1h0a.4.4,0,0,0,.1.3l.2.2c.2-.2.1-.6-.1-.9Z"/><path class="cls-3" d="M16.6,9.7c-.1,0-.2,0-.2.1h.2Z"/><path class="cls-3" d="M15.6,9.5c.1-.1.1-.3-.1-.3h-.3a.1.1,0,0,1-.1.1Z"/><path class="cls-3" d="M16.2,9.7h.2c0-.1-.1-.2-.4-.3h-.4Z"/><path class="cls-3" d="M14.6,9.1h0l.5.2a.1.1,0,0,0,.1-.1V9c-.3-.1-.2-.4-.3-.5s-.3-.1-.3-.2,0,.2.1.3v.5Z"/><path class="cls-3" d="M11.7,9.6a1,1,0,0,1,.5-.4h-.5a.4.4,0,0,0-.1.3Z"/><path class="cls-3" d="M12.8,8.8c-.2-.1-.3-.1-.4,0s-.3.2-.2.4l.6-.2Z"/><path class="cls-3" d="M12.8,9h.4V8.7c-.1-.1-.2-.3-.4-.3s-.4,0-.4-.2,0,.3.2.4,0,.1.1.2Z"/><path class="cls-3" d="M13.2,8.9h.5c0-.1-.1-.1-.2-.2h-.2Z"/><path class="cls-3" d="M13.7,8.9h.5a.2.2,0,0,0-.2-.2h-.3Z"/><path class="cls-3" d="M14.1,9h.5V8.9h-.5Z"/><path class="cls-3" d="M10.6,12.2a1.4,1.4,0,0,0,.2-.6h-.3c-.1.1-.1.2-.2.4s.1.2.1.3Z"/><path class="cls-3" d="M10.8,11.6h0c0-.1.1-.2.1-.3l-.2-.2c-.4.1-.7.7-1.1.5s.7,0,.8.1h.4Z"/><path class="cls-3" d="M10.4,12.7c.1-.1.1-.3.2-.5h-.2c-.2,0-.3.3-.3.4Z"/><path class="cls-3" d="M6.7,16.1c.4,0,.5-.5.8-.5s.4-.5.7-.4-.3.6-.7.7.6-.5,1.1-.5h.2a1.5,1.5,0,0,1,.7-.7,9.4,9.4,0,0,0-2.2.7c-.3.2-.5.2-.2-.1a6,6,0,0,1,1.6-.8,1,1,0,0,0,.5-.4H9.1c-.4-.1-.8-.1-.9.1l.4.2c-.3-.2-.8.1-1-.1s-.7-.1-1-.2S6,13.8,6,14s.5.2.8.2.8.2,1.1.3a1.8,1.8,0,0,0-1,.1c-.3.3-1,.1-1,.4s.6.1.8-.1h.6c-.4.5-.8.2-1.2.6l-.9.3c-.2.3-.3.4-.5.4s.7-.3,1-.3l.8-.2H6.4c0,.1-.1.1-.2.1a3.1,3.1,0,0,0-1,.5,1.8,1.8,0,0,1-1,.7c0,.1.1.1.2.1s.8-.5,1.2-.5S6.4,16,6.7,16.1Z"/><path class="cls-3" d="M9.2,14l.5-.3H9v.2h.1Z"/><path class="cls-3" d="M9.7,13.7l.4-.5H9.9l-.4.2v.2h.1Z"/><path class="cls-3" d="M10.4,12.7h-.3c-.3,0-.4.3-.6.3l.4.2h.2Z"/><path class="cls-3" d="M10.9,11.2l.3-.8H11l-.3.3V11Z"/><path class="cls-3" d="M11.4,9.9h-.3V10s-.1.2,0,.3h.2A.8.8,0,0,1,11.4,9.9Z"/><path class="cls-3" d="M11.4,9.9l.3-.3h-.1c-.2-.2-.4-.1-.6,0s-.5.1-.5.3.3,0,.4,0a.1.1,0,0,1,.2,0Z"/><path class="cls-3" d="M11.2,13.4v.3c.1.1.1.2-.1.3h.4a.6.6,0,0,1-.1-.4Z"/><path class="cls-3" d="M11.2,13.7l-.3.3h.2C11.3,13.9,11.3,13.8,11.2,13.7Z"/><path class="cls-3" d="M11.2,13.7v-.3c-.1-.1-.3.1-.7.5a2,2,0,0,1-1,.7,1.5,1.5,0,0,0-.7.7H8.7c-.3.5-.7.3-.7.7s.8-.2,1-.5.8-.5,1-.9.6-.4.9-.7Z"/><path class="cls-3" d="M20.2,9.3c0,.2,0,.4-.3.5a.4.4,0,0,0,.5-.2.6.6,0,0,0,.2.8c-.1-.3.2-.4.1-.6a.5.5,0,0,1,.3.5c.3-.2-.1-.5-.1-.8l-.7-.2Z"/><path class="cls-3" d="M17.3,12.3a.2.2,0,0,1,0-.3c-.3-.2-.4.1-.5,0h-.3c.2.1.1.2.5.3s-.3.5-.6.5.4-.3.7-.2.1.2,0,.4a.3.3,0,0,0,.3-.3A.4.4,0,0,1,17.3,12.3Z"/><path class="cls-3" d="M12,15.4c-.1.1-.2.2-.1.3A.4.4,0,0,0,12,15.4Z"/><path class="cls-3" d="M11.9,15.3l-.2-.3C11.6,15.1,11.7,15.3,11.9,15.3Z"/><path class="cls-3" d="M11.4,14.5H11c-.1,0-.1,0,0,.1s.3.2.1.2-.1.3-.4.3.4.1.5-.1.2.3.1.4.1-.4.4-.4-.2-.3-.4-.4Z"/><path class="cls-3" d="M12,15.4h-.1C11.7,15.3,11.8,15.5,12,15.4Z"/><path class="cls-3" d="M22.6,8v.2l.2.2h.6c-.1-.1,0-.4-.2-.5s.5.2.5.3h.1A.5.5,0,0,0,24,8c0-.1,0-.2-.1-.2H24a.7.7,0,0,0-.7-.6.8.8,0,0,0-.8.7c0,.1,0,.1.1.2Z"/><path class="cls-3" d="M18.3,7c.2.5.6,1,.9,1.6a1.9,1.9,0,0,1,.2.8.8.8,0,0,1,.8-.1h0l.7.2h.7l.7-.4c.2.2.3.3.5.3h.4c.2.1.4,0,.6-.2s.5-.1.6-.4.3-.4.1-.6-.1-.4-.5-.5h-.1c.1,0,.1.1.1.2a.6.6,0,0,0,.1.4c-.1,0-.3,0-.3.2V8.4h-.1c0-.1-.3-.4-.5-.3s.1.4.2.5h-.7c0-.1,0-.2-.1-.2h0V8h0a.4.4,0,0,1-.1-.3l-.3.5c-.2-.2-.7,0-.9.1A1.6,1.6,0,0,1,20.1,8a2.5,2.5,0,0,0-.9-.4c-.2,0-.2-.1-.3-.2l-.3-.3Z"/><path class="cls-3" d="M18.3,6.7V7h.3Z"/><path class="cls-3" d="M14,12.8a.7.7,0,0,0,0,1.4.8.8,0,0,0,.8-.7A.8.8,0,0,0,14,12.8Z"/><path class="cls-3" d="M12.2,11.8H12a1.4,1.4,0,0,0,.2.6c-.1-.1,0-.2,0-.3a.4.4,0,0,0,.1-.3Z"/><path class="cls-3" d="M12.2,11.8a.1.1,0,0,0,.1-.1v-.2h-.2a.8.8,0,0,0-.1.4Z"/><path class="cls-3" d="M12.3,11.5v-.2h-.2a.4.4,0,0,0-.1.3Z"/><path class="cls-3" d="M12.4,11.2h.2c.1,0,.1-.1.1-.2l-.2-.2-.3.4Z"/><path class="cls-3" d="M12.7,10.9h.5a.4.4,0,0,1-.2-.4l-.5.3Z"/><path class="cls-3" d="M13.2,10.8h.5a.5.5,0,0,1-.1-.3H13A.4.4,0,0,0,13.2,10.8Z"/><path class="cls-3" d="M14,10.4h-.4a.5.5,0,0,0,.1.3h.5Z"/><path class="cls-3" d="M14.5,10.5H14l.2.5h.4C14.5,10.8,14.4,10.6,14.5,10.5Z"/><path class="cls-3" d="M15,10.7l-.4-.2h-.1c-.1.1,0,.3.1.5h.5C14.9,11,14.9,10.7,15,10.7Z"/><path class="cls-3" d="M15.7,10.9l-.7-.2c-.1,0-.1.3.1.4l.5.2h.2A.8.8,0,0,1,15.7,10.9Z"/><path class="cls-3" d="M16.4,11h-.7a.8.8,0,0,0,.1.4l.6.2h.1C16.4,11.3,16.4,11.2,16.4,11Z"/><path class="cls-3" d="M16.8,11.1h-.4c0,.2,0,.3.1.4H17A.4.4,0,0,1,16.8,11.1Z"/><path class="cls-3" d="M17.2,11.2h-.4a.4.4,0,0,0,.2.4h.3A.4.4,0,0,1,17.2,11.2Z"/><path class="cls-3" d="M12.9,17.2a.4.4,0,0,0,.1-.3v-.3a.4.4,0,0,1-.5-.2.9.9,0,0,0-.9.9.9.9,0,0,0,.9.8.9.9,0,0,0,.8-.8h0A.2.2,0,0,1,12.9,17.2Z"/><path class="cls-3" d="M16.3,5.5c-.1.1-.1.2-.2.4s-.1.2-.1.4v.2c.3,0,.6.1.9-.1s.4-.4.5-.7H16.3Z"/><path class="cls-3" d="M11.7,9.6l-.3.3a.8.8,0,0,0-.2.5l-.3.8c0,.1-.1.2-.1.3h0a1.4,1.4,0,0,1-.2.6c-.1.2-.1.4-.2.5l-.3.5-.4.5-.5.3a1,1,0,0,1-.5.4,6,6,0,0,0-1.6.8c-.3.3-.1.3.2.1a9.4,9.4,0,0,1,2.2-.7,2,2,0,0,0,1-.7c.4-.4.6-.6.7-.5l.2.2a.6.6,0,0,0,.1.4c0,.2-.1.3-.1.5h-.1c.2.1.3.3.4.4h0l.2.3H12a.4.4,0,0,1-.1.3.1.1,0,0,0,0,.2.7.7,0,0,0-.6.9c0,.1.2.3.2.5a.9.9,0,0,1,.9-.9.4.4,0,0,0,.5.2v.3a.4.4,0,0,1-.1.3.2.2,0,0,0,.3,0,.3.3,0,0,0,.1-.2.3.3,0,0,0,0-.4c.1-.2,0-.5-.2-.5h.3c0,.1.2.2.3.2s.2.1.2.3v.4a.8.8,0,0,0,.1-.8c0-.3-.1-.5-.4-.5a.3.3,0,0,0-.5,0h-.3c0-.2,0-.3-.2-.3s-.1-.4-.3-.4.5-1.1-.1-2.3h0a1.4,1.4,0,0,1-.2-.6.8.8,0,0,1,.1-.4.4.4,0,0,1,.1-.3l.3-.4.5-.3h1.6l.4.2.7.2h1.5a.4.4,0,0,0,.1.3h0a.2.2,0,0,0,0,.3h0a.2.2,0,0,0,0,.3.4.4,0,0,0,.1.3h.1c0,.2.2.3.4.2s.3.3.4.3.4.2.5.1.4.2.6.2.4.2.6.1a.4.4,0,0,0,0,.6c0,.2.1.5.4.5s.5.4.7.3-.2-.4-.5-.5a.2.2,0,0,0-.1-.4c.1-.1.3-.4.2-.5h.4c0-.1,0-.1.1-.2H22l.3.3a.5.5,0,0,0-.2-.6c-.1-.2-.2-.2-.3-.2h-.6l.2-.3c.3,0,.3-.4.6-.3a.6.6,0,0,0-.8,0c-.2-.1-.4.1-.4.3s-.4.1-.3.3-.3,0-.4.2a.4.4,0,0,0-.4-.2c-.2-.1-.3-.2-.5-.1h-.3c-.1-.2-.3-.3-.4-.2s0-.5.1-.6.2-.3.4-.6a2,2,0,0,0,.4-1.7,1.9,1.9,0,0,0-.2-.8c-.3-.6-.7-1.1-.9-1.6h0V6.5h-.4l.4-.2V6.2h.1c-.3-.1-.5-.3-.6-.2s-.3,1.1-1.5,1H16l.3.5.3.5h.1l.4.5c0,.1.1.2.1.3s.3.7.1.9a.6.6,0,0,1-.6.1h-.5l-.6-.2h0l-.5-.2-.5-.2H12.8l-.6.2h0A1,1,0,0,0,11.7,9.6Z"/><path class="cls-3" d="M21.1,13.3h-.2a.9.9,0,0,0-.3.7,1,1,0,0,0,1,.9.9.9,0,0,0,.9-.9.9.9,0,0,0-.9-1h-.3C21.2,13.2,21.1,13.2,21.1,13.3Z"/><path class="cls-3" d="M16.6,4a.4.4,0,0,1,.5,0h.1A.5.5,0,0,0,16.6,4Z"/><path class="cls-3" d="M17.4,4.1a.9.9,0,0,1,.6.3h0l.2-.2-.7-.3C17.5,4,17.4,4,17.4,4.1Z"/><path class="cls-3" d="M17.9,3.8h-.2a.9.9,0,0,1,.5.3h0a1.8,1.8,0,0,0-.9-.4c0-.1-.1-.1-.2-.1H17a.1.1,0,0,1,.1-.1c-.3-.1-.7-.1-.7.2a.9.9,0,0,1,1,.1Z"/><path class="cls-3" d="M19.1,3.3c-.1,0-.3,0-.3.1l.5.4.4.2h0c.2-.1.4,0,.6,0h0c-.3-.4-.8-.3-1-.5A1.7,1.7,0,0,0,17.7,3a1.2,1.2,0,0,1,.9.3A.3.3,0,0,1,19.1,3.3Z"/><path class="cls-3" d="M18,3.2l.5.3V3.3Z"/><path class="cls-3" d="M18.7,3.4c0,.1-.1.1-.1.2h.2c.2.1.2.3.3.3h.3A4.6,4.6,0,0,0,18.7,3.4Z"/><path class="cls-3" d="M17.1,5.2a.3.3,0,0,1,.1-.2h-.8a1.2,1.2,0,0,0-.9.4h.4C16.3,5.4,16.7,5.1,17.1,5.2Z"/><path class="cls-3" d="M17.4,5.5q-.4-.1-.3-.3c-.4-.1-.8.2-1.2.1h-.4c-.6,0-1,0-1.1.4s1.3-.1,1.6-.2h1.4Z"/><path class="cls-3" d="M17.1,3.5c.3-.1.7,0,1.1.5h.5a.6.6,0,0,1-.1-.4c0-.1.1-.1.1-.2h.1c0-.1.2-.1.3-.1a.3.3,0,0,0-.5,0h-.1v.2c-.1,0-.1.1-.1.2s-1.1-.5-1.3-.2a.1.1,0,0,0-.1.1Z"/><path class="cls-3" d="M17.9,4.7c-.2,0-.2-.1-.1-.2s-.4-.3-.4-.4.1-.1.1-.2h-.4v.3c-.9-.3-1.6-.2-1.7.2s.4.6.5.3-.5,0-.3-.3,1.1,0,1.9.4h.4Z"/><path class="cls-3" d="M17.2,5h.2c-.3-.2-.9.1-1-.3s-.1.3,0,.3Z"/><path class="cls-3" d="M23.2,5.3a.1.1,0,0,0-.1.1c.1,0,.3,0,.2-.1Z"/><path class="cls-3" d="M23.1,5.7h0c.1,0,.1-.1,0-.1h0Z"/><path class="cls-3" d="M23.1,5.4v.2C23.2,5.6,23.3,5.5,23.1,5.4Z"/><path class="cls-3" d="M23.4,4.7c0-.1.1-.2.2-.3h0c.2-.4.3-.5.3-.8s.6-.7.5-1.1l-.4.5c-.4.2-.1.5-.5.8s-.1.5-.3.9Z"/><path class="cls-3" d="M23.4,4.7h.3c.2,0,.3-.1.4-.3s.8-.1.9-.5-.9-.1-1.2.2l-.2.2C23.5,4.5,23.4,4.6,23.4,4.7Z"/><path class="cls-3" d="M23.4,4.9l-.2.4h.1l1-.3c.4-.3,1.3,0,1.4-.4s-.8-.2-1.5.2h-.8Z"/><path class="cls-3" d="M21.6,6.8h.1l-.4-.2a.2.2,0,0,1-.2-.2h-.3v.2l.4.3Z"/><path class="cls-3" d="M21.7,6.9h.5l-.3-.2Z"/><path class="cls-3" d="M21.4,7.3c-.2.1-.2.4-.4.4a.4.4,0,0,0,.5-.1V7.4Z"/><path class="cls-3" d="M21.9,7.4h-.3v.2a.4.4,0,0,0,.2.4c-.1-.2.1-.3.2-.4A.1.1,0,0,1,21.9,7.4Z"/><path class="cls-3" d="M21.9,7.4a.1.1,0,0,0,0,.2c0,.1.2.2.1.4a.3.3,0,0,0,.1-.6h-.2Z"/><path class="cls-3" d="M21.8,6.9h-.1V6.8h-.4l-.4-.3-.3.3a1,1,0,0,1,.8.5h.8a.6.6,0,0,0,.1-.4Z"/><path class="cls-3" d="M22.9,6.8h-.3a2,2,0,0,0,1.1.1c.5-.2,1.4-.3,1.3.3s-.1-.6-.7-.7-.3-.5-.5-.3.4.3,0,.5a.3.3,0,0,0-.5-.4c.2,0,.4.3,0,.4h-.4Z"/><path class="cls-3" d="M22.3,6.5Z"/><path class="cls-3" d="M21.9,6.5h.2l-1.2-.3h0a.1.1,0,0,1-.1.1h.3Z"/><path class="cls-3" d="M22.4,6.4c0-.1.2-.2.2-.4h-.1c-.2.1-.1.3-.4.4h-.2c-.1.1-.2.1-.2.2h-.1v.1h.2l.2-.2h.3Z"/><path class="cls-3" d="M22.6,6c0,.2-.2.3-.2.4v.2h0a1.6,1.6,0,0,1,0,.7.8.8,0,0,0,.2-.7h0c0-.1,0-.1.1-.2l.2-.4a.9.9,0,0,0,0,.7H23c0-.4.4-.7.1-1.1h0A.5.5,0,0,1,22.6,6Z"/><path class="cls-3" d="M21.5,6l.3-.3h-.3A.2.2,0,0,1,21.5,6Z"/><path class="cls-3" d="M22,6.1h.1A.4.4,0,0,1,22,6.1Z"/><path class="cls-3" d="M16.3,6.9c1.2.1,1-.7,1.5-1s.3.1.6.2h.5l-.6.2-.4.2h1.5c-.2,0-.1.3-.4.3l-.4.2h0c.2,0,.4.1.5-.1a1.1,1.1,0,0,1,.8-.3h.6l.3-.3V6.2a.1.1,0,0,0,.1-.1h0c.2-.2.4-.4.6-.4h1.1a.5.5,0,0,0,.5-.3h0V5.4h0a.1.1,0,0,1,.1-.1l.2-.4h-.9l-.6-.2h0q-.1,0-.3.3c-.1-.3.2-.4.3-.3s-.3-.5-.5-.4h-.2a.7.7,0,0,0-.9-.1h0c-.2,0-.4-.1-.6,0H18.2l-.2.2h-.2c-.1.1-.1.2.1.2h-.7a.3.3,0,0,0-.1.2q-.2.1.3.3h0c-.1.3-.3.4-.5.7s-.6.1-.9.1h-.2c-.2,0-.5.2-.7.7l.6-.4h.6Zm4.4-2.1h.5l-.3.3A.4.4,0,0,1,20.7,4.8Zm-.1,1.1c0,.3-.2.5-.7.5a.6.6,0,0,1-.6-.6c0-.2.1-.5.6-.5A.7.7,0,0,1,20.6,5.9Z"/><path class="cls-3" d="M19.3,5.8a.6.6,0,0,0,.6.6c.5,0,.7-.2.7-.5a.7.7,0,0,0-.7-.6C19.4,5.3,19.3,5.6,19.3,5.8Z"/><path class="cls-3" d="M21.3,4.9h0Z"/><path class="cls-3" d="M21.4,5h0Z"/><path class="cls-3" d="M21.3,4.8Z"/><path class="cls-3" d="M21.3,5.1h0Z"/><path class="cls-3" d="M20.9,5.4l.3-.3h0c-.2-.1,0-.3,0-.3h-.5A.4.4,0,0,0,20.9,5.4Z"/><path class="cls-3" d="M21.3,5h0Z"/><path class="cls-4" d="M21.6,4.7q.1-.3.3-.3h0C21.8,4.3,21.5,4.4,21.6,4.7Z"/><path class="cls-4" d="M21.2,5.1h0S21,5,21.2,5.1Z"/></g></svg>