<svg xmlns="http://www.w3.org/2000/svg" viewBox="0 0 30 20"><defs><style>.cls-1{fill:#166c48;}.cls-2{fill:#fbd632;}.cls-3{fill:#ce2931;}.cls-4{fill:#121212;}</style></defs><title>gh</title><g id="Layer_34" data-name="Layer 34"><path class="cls-1" d="M12.8,13.4H0v4.1A2.5,2.5,0,0,0,2.5,20h25A2.5,2.5,0,0,0,30,17.5V13.4H12.8Z"/><polygon class="cls-2" points="13.6 10.8 11.5 9.2 14.2 9.2 15 6.6 0 6.6 0 13.4 12.8 13.4 13.6 10.8"/><polygon class="cls-2" points="15.8 9.2 18.5 9.2 16.4 10.8 17.2 13.4 30 13.4 30 6.6 15 6.6 15.8 9.2"/><polygon class="cls-2" points="12.8 13.4 17.2 13.4 15 11.8 12.8 13.4"/><path class="cls-3" d="M27.5,0H2.5A2.5,2.5,0,0,0,0,2.5V6.6H30V2.5A2.5,2.5,0,0,0,27.5,0Z"/><polygon class="cls-4" points="11.5 9.2 13.6 10.8 12.8 13.4 15 11.8 17.2 13.4 16.4 10.8 18.5 9.2 15.8 9.2 15 6.6 14.2 9.2 11.5 9.2"/></g></svg>