<svg id="Flags" xmlns="http://www.w3.org/2000/svg" viewBox="0 0 30 20"><defs><style>.cls-1{fill:#282a74;}.cls-2{fill:#fff;}</style></defs><title>Artboard 52</title><rect class="cls-1" y="6.7" width="4.4" height="4.45"/><path class="cls-1" d="M2.6,20H27.4A2.7,2.7,0,0,0,30,17.8H0A2.7,2.7,0,0,0,2.6,20Z"/><path class="cls-1" d="M11.1,4.4V2.2H30A2.7,2.7,0,0,0,27.4,0H6.6V4.4Z"/><path class="cls-1" d="M4.4,0H2.6A2.5,2.5,0,0,0,0,2.5V4.4H4.4Z"/><polygon class="cls-1" points="0 13.3 0 15.6 30 15.6 30 13.3 18.9 13.3 0 13.3"/><rect class="cls-1" x="11.1" y="4.4" width="18.9" height="2.23"/><polygon class="cls-1" points="11.1 6.7 6.6 6.7 6.6 11.1 18.9 11.1 30 11.1 30 8.9 11.1 8.9 11.1 6.7"/><path class="cls-2" d="M0,17.5v.3H30V15.6H0Z"/><path class="cls-2" d="M11.1,2.2V4.4H30V2.2Z"/><rect class="cls-2" x="11.1" y="6.7" width="18.9" height="2.23"/><polygon class="cls-2" points="6.6 11.1 6.6 6.7 11.1 6.7 11.1 4.4 6.6 4.4 6.6 0 4.4 0 4.4 4.4 0 4.4 0 6.7 4.4 6.7 4.4 11.1 0 11.1 0 13.3 18.9 13.3 30 13.3 30 11.1 18.9 11.1 6.6 11.1"/></svg>