<svg xmlns="http://www.w3.org/2000/svg" viewBox="0 0 30 20"><defs><style>.cls-1{fill:#21205f;}.cls-2{fill:#fff;}.cls-3{fill:#cb2026;}.cls-4{fill:#cccc32;}.cls-5{fill:#9fc9eb;}.cls-6{fill:#f8991d;}</style></defs><title>ai</title><g id="Layer_93" data-name="Layer 93"><path class="cls-1" d="M6.2,0H1.9L6.2,2.2Z"/><path class="cls-1" d="M27.5,0H15V.7L11.7,2.4H15V4.9H11.7L15,6.6v.8H13.3L8.7,5.1V7.4H6.2V5.1L1.6,7.4H0V17.5A2.5,2.5,0,0,0,2.5,20h25A2.5,2.5,0,0,0,30,17.5V2.5A2.5,2.5,0,0,0,27.5,0ZM24.2,9.9a7.7,7.7,0,0,1-1.6,1.3,5.6,5.6,0,0,1-1.7-1.4c-1.1-1-1.4-2.3-1.4-6a3.1,3.1,0,0,0,1.7.2,3.1,3.1,0,0,0,1.3-.3,8.3,8.3,0,0,0,1.5.4,3.4,3.4,0,0,0,1.6-.4C25.6,7.6,25.1,9,24.2,9.9Z"/><path class="cls-1" d="M.5,1A2.4,2.4,0,0,0,0,2.4H3.2Z"/><polygon class="cls-1" points="0 4.9 0 6.5 3.2 4.9 0 4.9"/><polygon class="cls-1" points="13.1 0 8.7 0 8.7 2.2 13.1 0"/><polygon class="cls-2" points="3.2 4.9 0 6.5 0 7.4 4.9 4.9 3.2 4.9"/><polygon class="cls-2" points="15 6.9 15 6.6 11.7 4.9 11.1 4.9 15 6.9"/><polygon class="cls-2" points="8.7 4.9 8.7 5.1 13.3 7.4 15 7.4 10 4.9 8.7 4.9"/><polygon class="cls-2" points="6 4.9 1 7.4 1.6 7.4 6.2 5.1 6.2 4.9 6 4.9"/><polygon class="cls-2" points="8.7 2.4 8.8 2.4 13.7 0 13.1 0 8.7 2.2 8.7 2.4"/><path class="cls-2" d="M3.8,2.4.7.8.5,1,3.2,2.4Z"/><polygon class="cls-2" points="8.2 2.9 15 2.9 15 2.4 11.7 2.4 10 2.4 8.8 2.4 8.7 2.4 8.7 2.2 8.7 0 8.2 0 8.2 2.9"/><path class="cls-2" d="M6.7,2.9V0H6.2V2.4H0v.4Z"/><path class="cls-2" d="M6.2,2.4V2.2L1.9.1a2,2,0,0,0-.8.4L4.9,2.4Z"/><polygon class="cls-2" points="14.8 0 10 2.4 11.7 2.4 15 0.7 15 0 14.8 0"/><polygon class="cls-2" points="8.2 7.4 8.7 7.4 8.7 5.1 8.7 4.9 10 4.9 11.1 4.9 11.7 4.9 15 4.9 15 4.4 8.2 4.4 8.2 7.4"/><polygon class="cls-2" points="0 4.9 3.2 4.9 4.9 4.9 6 4.9 6.2 4.9 6.2 5.1 6.2 7.4 6.7 7.4 6.7 4.4 0 4.4 0 4.9"/><polygon class="cls-3" points="6.7 4.4 6.7 7.4 8.2 7.4 8.2 4.4 15 4.4 15 2.9 8.2 2.9 8.2 0 6.7 0 6.7 2.9 0 2.9 0 4.4 6.7 4.4"/><polygon class="cls-3" points="6 4.9 4.9 4.9 0 7.4 0 7.4 1 7.4 6 4.9"/><polygon class="cls-3" points="10 2.4 14.8 0 13.7 0 8.8 2.4 10 2.4"/><path class="cls-3" d="M4.9,2.4,1.1.5.7.8,3.8,2.4Z"/><polygon class="cls-3" points="10 4.9 15 7.4 15 6.9 11.1 4.9 10 4.9"/><path class="cls-4" d="M22.5,3.7a3.1,3.1,0,0,1-1.3.3,3.1,3.1,0,0,1-1.7-.2c0,3.7.3,5,1.4,6a5.6,5.6,0,0,0,1.7,1.4,7.7,7.7,0,0,0,1.6-1.3c.9-.9,1.4-2.3,1.4-6.2a3.4,3.4,0,0,1-1.6.4A8.3,8.3,0,0,1,22.5,3.7Zm2.9.2a18.9,18.9,0,0,1-.2,3.6A5.3,5.3,0,0,1,24.7,9h0a9.8,9.8,0,0,1-2.1,2,10,10,0,0,1-2.2-2h0a6.2,6.2,0,0,1-.5-1.4A20,20,0,0,1,19.7,4a3.2,3.2,0,0,0,1.6.2,1.8,1.8,0,0,0,1.3-.4,2,2,0,0,0,1.3.4A2.5,2.5,0,0,0,25.4,3.9Z"/><path class="cls-2" d="M22.6,3.8a1.8,1.8,0,0,1-1.3.4A3.2,3.2,0,0,1,19.7,4a20,20,0,0,0,.2,3.6A6.2,6.2,0,0,0,20.4,9h4.3a5.3,5.3,0,0,0,.5-1.5,18.9,18.9,0,0,0,.2-3.6,2.5,2.5,0,0,1-1.5.3A2,2,0,0,1,22.6,3.8ZM21.5,8.2c-.2,0-.3.3-.7.1l.3-.3c-.3-.3-.2-1.1-.6-1.4s-.4-.3-.3-.4l.5.2c.2-.1.1-.4.4-.5s-.2.4-.2.7.5,1,1,.9.2-.2,0-.5.3.1.4.3a3.4,3.4,0,0,1,1.1-.1l-.4.3c-.3.1-.2.1-.4.4A1.4,1.4,0,0,1,21.5,8.2Zm3-1.5c.1.1.5.1.6.5h-.6c0,.4-.8.8-.9,1.2s-.1.5-.2.5,0-.4-.1-.6-.4.2-.6,0,.4,0,.7-.2a.9.9,0,0,0,.2-1.3l-.4.3c0-.3,0-.3.2-.5s-.6-.5-.7-.8h.4c.3.2.2.1.6.2A1.4,1.4,0,0,1,24.5,6.7ZM24.1,5c-.1.1-.4.1-.5.3s.4.3.3.5-.2-.3-.5-.5-1.2-.1-1.3.4,0,.2.4.3H22a6.9,6.9,0,0,1-.4,1c-.1.1-.2-.3-.1-.5s-.1-.2-.2-.5a1.2,1.2,0,0,1,.3-1c.1-.2-.1-.4.3-.7a.7.7,0,0,0,.1.5c.4-.2,1.1.3,1.6.2S24,4.8,24.1,5Z"/><path class="cls-5" d="M20.4,9a10,10,0,0,0,2.2,2,9.8,9.8,0,0,0,2.1-2H20.4Z"/><path class="cls-6" d="M23.1,5.8h-.4c.1.3.5.6.7.8s-.2.2-.2.5l.4-.3A.9.9,0,0,1,23.4,8c-.3.2-.3,0-.7.2s.4,0,.6,0,0,.4.1.6.1-.4.2-.5.9-.8.9-1.2h.6c-.1-.4-.5-.4-.6-.5a1.4,1.4,0,0,0-.8-.7C23.3,5.9,23.4,6,23.1,5.8Zm.5.3h0Z"/><path class="cls-2" d="M23.6,6h0Z"/><path class="cls-6" d="M22,4.8a.7.7,0,0,1-.1-.5c-.4.3-.2.5-.3.7a1.2,1.2,0,0,0-.3,1c.1.3.2.3.2.5s0,.6.1.5A6.9,6.9,0,0,0,22,6h.5c-.4-.1-.4-.1-.4-.3s1-.6,1.3-.4.1.2.5.5-.2-.4-.3-.5.4-.2.5-.3-.4,0-.5,0S22.4,4.6,22,4.8Zm-.5,1.3h0Z"/><path class="cls-2" d="M21.4,6h0Z"/><path class="cls-6" d="M23,7.5l.4-.3a3.4,3.4,0,0,0-1.1.1c-.1-.2-.1-.2-.4-.3s.2.3,0,.5-1-.6-1-.9.2-.2.2-.7-.2.4-.4.5l-.5-.2c-.1.1.2.3.3.4s.3,1.1.6,1.4l-.3.3c.4.2.5-.1.7-.1a1.4,1.4,0,0,0,1.1-.3C22.8,7.6,22.7,7.6,23,7.5Zm-.4.3h0S22.7,7.7,22.6,7.8Z"/><path class="cls-2" d="M22.6,7.7h0C22.7,7.7,22.6,7.7,22.6,7.7Z"/></g></svg>