<svg id="Flags" xmlns="http://www.w3.org/2000/svg" viewBox="0 0 30 20"><defs><style>.cls-1{fill:#1b2b8c;}.cls-2{fill:#ce0e2d;}.cls-3{fill:#f9f9f9;}.cls-4{fill:#231f20;}.cls-5{fill:#88431d;}.cls-6{fill:#9b552b;}.cls-7{fill:#b3b9c0;}.cls-8{fill:#fff;}.cls-9{fill:#f3c300;}.cls-10{fill:#d47e00;}</style></defs><title>as</title><path class="cls-1" d="M28.8.4A2,2,0,0,0,27.5,0H2.5A2.5,2.5,0,0,0,0,2.5V10Z"/><path class="cls-1" d="M0,17.5A2.5,2.5,0,0,0,2.5,20H27.4a2.1,2.1,0,0,0,1.4-.4L0,10Z"/><path class="cls-2" d="M28.8,19.6a1.8,1.8,0,0,0,.8-.9L3.4,10,29.6,1.3a1.8,1.8,0,0,0-.8-.9L0,10Z"/><path class="cls-3" d="M23.5,11v-.2l-.2.2h.1Z"/><path class="cls-3" d="M29.6,18.7a1.7,1.7,0,0,0,.4-1.2V2.5a1.7,1.7,0,0,0-.4-1.2L3.4,10Zm-8-7.1h.5l.8-.4H23a1.9,1.9,0,0,0,.9.4H24c0-.1,0-.2.1-.2h.2c.1,0,.1.1.1.2h1.2v-.2h.4a1.4,1.4,0,0,0,.2-.6,1,1,0,0,1-.4-.9H24.7l-.6.5h-.2v.2a.5.5,0,0,1-.3.3h-.4v-.3c.1,0,.1-.2.1-.3a.5.5,0,0,1,.1-.3l.5-.8.3-.5v.2l.2-.3h0V8.7h-.2l-.3.3h-.2a.4.4,0,0,1-.1-.5.6.6,0,0,1,.3-.5h-.2a.3.3,0,0,1,0-.4c0-.2.2-.4.4-.6l.6-.4.2-.3v.2l.3-.2a1.5,1.5,0,0,0,.6-.5v.2l.9-.6a3.6,3.6,0,0,0,.9-.8v.2l.7-.6s0,.3-.1.4h0l.5-.4s.1.1,0,.4h.1a.5.5,0,0,1-.1.3l-.2.2h.2l-.2.2-.3.4v.2l-.2.2h.2a.6.6,0,0,1-.2.4l.7-.3a1.4,1.4,0,0,1-.2.4l-.5.3h.4a1.4,1.4,0,0,1-.4.5h.1l.3-.2.5-.3h.5a.4.4,0,0,1,.3.2s.1,0,.2.2v.2s.1,0,0,.1v.2a.1.1,0,0,1,0,.2l-.5.2h-1l-.2.2h-.2l-.2.2-.4.3a.5.5,0,0,0,.5.1.3.3,0,0,0-.1.2s.2-.2.3-.1a.6.6,0,0,1-.2.4H28a.4.4,0,0,1-.3.4.1.1,0,0,1,0,.2h-.1v.5h-.2s0,.3-.1.4h-.1l-.2.3v.4h1a.1.1,0,0,1,.1.1H26.6s.1.2,0,.2h-.4v-.2a.1.1,0,0,0-.1.1h.1l1.7-.3a.1.1,0,0,1,.1.1h-.1l-1.6.2h-1c0-.1,0-.2-.1-.2h-1v.4a.1.1,0,0,1,0,.2h1.2c.1,0,.1,0,.1-.1h1.2l.2.2h0V14h0a.1.1,0,0,1,.1-.1h0v.2h-.2l.3.2h.1V15h-.5l.2.2h0l-.2-.2h-.4v.4h-.1c-.1,0,0,0,0,.1h-.1v-.2H25.1v-.2H23.9l-.3-.2h-.4v-.2h0l-.2-.2a.2.2,0,0,1,.1-.3h0a.2.2,0,0,1,0-.3c0-.1.1-.1.2-.1V13h.9l1-.2v-.2h.4l.2-.2h-.2l-.4.3H24v-.2h-.5l-.5.2h0l-1-.5Z"/><path class="cls-3" d="M26.2,15.1c.1.1.1.1.1.2h-.1Z"/><path class="cls-4" d="M24.8,7.3h.1l.2-.2h-.3C24.7,7.3,24.7,7.3,24.8,7.3Z"/><path class="cls-4" d="M26.5,9.7h0Z"/><path class="cls-4" d="M26.5,9.9h0Z"/><path class="cls-4" d="M29,7.8h-.3c.1.1,0,.1,0,.1h.6c0-.1.2-.1.3-.2H29Z"/><path class="cls-4" d="M29.8,7.6Z"/><path class="cls-4" d="M25.4,7.9h0a.4.4,0,0,0,.3-.2c-.1,0-.2,0-.2-.1h.1c-.1,0-.1,0-.1.1h-.1Z"/><path class="cls-4" d="M26.5,8.6h0c.1-.1,0-.1,0-.1h0Z"/><path class="cls-4" d="M24.4,9.5v.2h-.2v.2H24a.1.1,0,0,0,.1.1h.2c0-.1,0-.1.1-.1a.1.1,0,0,0,.1.1V9.6h.1c0-.1,0-.2.1-.2h-.3Z"/><path class="cls-4" d="M25.9,7.9h0c.1,0,.1-.1,0,0Z"/><path class="cls-4" d="M26.2,11.3V11a.5.5,0,0,0,.1-.3.1.1,0,0,0,0-.2c-.1,0-.3-.2-.4-.8H26l.2.2c.1.1.4.1.5.3l-.2.2v.7h.2v.2h.1v.4h-.1v.2H27v-.4l.2-.3h.1c.1-.1.1-.4.1-.4h.2v-.5h.1a.1.1,0,0,0,0-.2.4.4,0,0,0,.3-.4h-.2a.6.6,0,0,0,.2-.4c-.1-.1-.3.1-.3.1a.3.3,0,0,1,.1-.2.5.5,0,0,1-.5-.1l.4-.3.2-.2h.2l.2-.2h1l.5-.2a.1.1,0,0,0,0-.2V7.5c.1-.1,0-.1,0-.1V7.2c-.1-.2-.2-.2-.2-.2a.4.4,0,0,0-.3-.2h-.5l-.5.3-.3.2H28a1.4,1.4,0,0,0,.4-.5H28l.5-.3a1.4,1.4,0,0,0,.2-.4l-.7.3a.6.6,0,0,0,.2-.4H28l.2-.2V5.7l.3-.4.2-.2h-.2l.2-.2a.5.5,0,0,0,.1-.3h-.1c.1-.3,0-.4,0-.4l-.5.4h0c.1-.1.1-.4.1-.4l-.7.6V4.5a3.6,3.6,0,0,1-.9.8l-.9.6V5.7a1.5,1.5,0,0,1-.6.5l-.3.2V6.2l-.2.3-.6.4c-.2.2-.4.4-.4.6a.3.3,0,0,0,0,.4h.2a.6.6,0,0,0-.3.5.4.4,0,0,0,.1.5h.2l.3-.3h.2v.2h0l-.2.3V8.9l-.3.5-.5.8a.5.5,0,0,0-.1.3c0,.1,0,.3-.1.3v.3h.4a.5.5,0,0,0,.3-.3v-.2h.2l.6-.5h1.2a1,1,0,0,0,.4.9,1.4,1.4,0,0,1-.2.6h.1ZM28.5,8h-.3l-.3.2h-.3c-.1.1-.1,0-.1-.1s-.1.3-.2.3h-.7s.1,0,0-.2H27v.2h.3l.2-.3h0l.2-.2h.1a.1.1,0,0,0,.1-.1H28v.2h0c-.1.1-.1,0-.1,0a.1.1,0,0,1-.1.1h0s-.1.2-.2.2h-.1a.5.5,0,0,1-.1.3h-.1v.2h0c-.1-.1,0-.1,0-.1h.2c0-.1-.1-.1-.1-.2h.2c.1-.1.1-.2,0-.2s0-.1-.2-.1h.4c.1,0,0,0,0-.1h.1a.3.3,0,0,0,.1.2h0c0-.1.1,0,.2,0h0l.2.2h.1V7.6h.1c.1,0,.1-.1.1-.2h.2v.2a.1.1,0,0,1-.1-.1A.3.3,0,0,1,28.5,8ZM27,8.3h-.1l.2-.2h-.2c0-.1.2-.2.3-.4s.1.2,0,.3,0,.1,0,.1.1-.1.1,0,.1.1,0,.2H27c.1,0,.1,0,.1.1h.1l-.4.2H27Zm1.8-1.5h0Zm-.5.4h.5l.3-.2h.2L29,7h-.2l-.2.2h.1l.2-.2h.7c.1,0,0,0,0,.1h-.3l-.2.2h.2l.3-.2h.1a.3.3,0,0,1,.1.2h-.3l.2-.2h.1s.1.1,0,.1.1.1,0,.1h0v.2H28.6V7.8c0-.1,0-.2-.1-.2l-.2-.2-.2-.2Zm-.2.1h.3c.1.1.1.1,0,.1h-.1a.1.1,0,0,0-.2,0,.1.1,0,0,0-.1-.1s-.1,0,0,.1h-.2a.7.7,0,0,0-.4-.2h.1c0,.1,0,.1.1.1h-.2V7.3Zm-.9,0h-.1V7.1l.2-.2h.2c.1,0,.1.1,0,.1l-.2.2a.1.1,0,0,0-.1.1Zm1.4-1-.2.2-.5.3-.3.3.3-.2h.4l-.2.2-.4.2h-.3l.2-.2a.4.4,0,0,0,.1-.3h-.2l.4-.4Zm-.5-.2c.1,0,.1.1,0,.1l-.3.3-.4.3-.3.3v.3h-.3a.1.1,0,0,0-.1.1h.1l.2-.2h.3c0,.1-.1.2-.1.3l-.3.2a.1.1,0,0,0-.1.1l-.4.3.2-.3h-.2l.2-.3.2-.3h0l.3-.4a.1.1,0,0,0,.1-.1l.3-.2.4-.4Zm.5-1-.2.3-.3.3-.3.3-.3.4-.3.2-.2.2-.2.3h-.2l.2-.2c0-.1.2-.3.3-.4l.5-.4.2-.4H28l.4-.3C28.5,5.2,28.6,5.2,28.6,5.1ZM26.3,7.3h.2c.1,0,.1.1.1.2l-.4.4h-.1l.2-.2Zm2.4-2.6v.2l-.4.4-.4.3a.1.1,0,0,0-.1.1l-.2.3-.5.4-.3.4-.2.2-.2.2h-.3l.3-.3c0-.1.2-.2.2-.3l.2-.2.6-.5.3-.3.2-.2.3-.3ZM25.6,7.5h.2c0-.1.1-.1.2-.2h-.1s-.1,0,0-.1H26c.1.1.1.1.1.2s-.2.5-.4.5A.3.3,0,0,0,25.6,7.5Zm.1-.4h.1c.1,0,.1.1,0,.1s0,.3-.2.3h-.1l.3-.2ZM25.6,7h-.1l.4-.4.5-.3a.2.2,0,0,1,.2-.2c.1-.1.1-.2.2-.2l.2-.2.4-.3.2-.3h.2a.2.2,0,0,1,.2-.2v0l-.3.4h-.2v.2l-.5.5-.5.4a.1.1,0,0,1-.1.1l-.5.6S25.7,6.8,25.6,7ZM26,7l.3-.3.2-.3.3-.3.3-.2.4-.4.2-.3.3-.3h.1l.3-.2a.5.5,0,0,1,.3-.3v.2q0,.2-.3.3l-.3.3-.5.5-.5.5-.4.3v.2l-.4.4Zm2.6-2.7h0c0,.1-.2.3-.3.4h-.1Zm-.4,0c.1-.1,0,0,0,.1h-.1l-.3.3h-.3ZM25.8,6l.7-.5a2.1,2.1,0,0,0,.7-.5l.4-.4v.2l-.4.3-.3.3-.3.2-.2.2c0,.1-.1.1-.2.2l-.4.3.3-.2.3-.2c.1-.1.1-.2.2-.2l.4-.3.2-.2.2-.2h.1l-.2.2-.3.3a.2.2,0,0,0-.2.2h-.2l-.3.2a.3.3,0,0,1-.1.2l-.6.3V6.4A.4.4,0,0,0,25.8,6Zm-.8.4c0-.1.3-.2.4-.3l.3-.2s.1,0,0,.1l-.2.2v.2H25C24.9,6.4,25,6.4,25,6.4Zm-.1.2h.3l.3-.2h0l.3-.3a.5.5,0,0,1-.1.3l-.3.3-.3.2-.2.2H25V6.8c.1-.1.2-.1.2-.2h.3c0,.1-.2.3-.2.3l-.2.2a.3.3,0,0,1-.1.2v.2h0a.1.1,0,0,1,.1-.1c.1,0,.1-.1.1-.2s-.1.2-.2.2h0a.3.3,0,0,0,.1-.2h.3l-.2.3s.2-.1.2,0v.2a.1.1,0,0,1,.1.1h-.1a.1.1,0,0,1,.1.1v.2h.1s-.1,0,0-.1h-.1l.2-.2.2-.2H26V7.3h.2c0,.1-.1.2-.1.3H26s.1,0,.1.2l-.2.2h.2a.3.3,0,0,0,.1-.2l.2-.2c.1-.1.2-.2.2-.3l.2-.2s.2-.2.2-.3h.2c0-.1.3-.3.4-.4s.3-.4.4-.4.1-.1.2-.2V6l-.4.3c-.1.2-.4.5-.6.5l-.2.3c-.1.1-.2.2-.2.3h0l-.3.3-.2.2h.1c0,.1,0,.2-.1.2h.1c.1-.1.1-.2,0-.2h.4c.1,0,.1.2.1.2h0l-.4.2h.4v.2h-.7c0,.1-.1.1-.1,0h0c.1,0,.1-.1.2-.2h-.3c-.1,0,0,0,0-.1h.2s-.1,0,0-.1h-.3c-.1.1,0,.1,0,.1h0c0,.1-.1,0,0,0h-.1s-.1-.1,0-.1h-.1a.1.1,0,0,1,.1-.1h.8v.2h.8l.3.2H27v.2h.2s-.1.1,0,.1h0c0,.1,0,.2-.1.2v.2h-.1v-.2h.1c0-.1.1-.1.1-.2h0c.1,0,.1,0,0-.1h.1c.1.1,0,.1,0,.1h0s-.1,0,0,.1h-.1v.2h-.2a.1.1,0,0,1,.1-.1h.1v-.4h.3a.1.1,0,0,0-.1-.1h-.1c-.1,0,0-.1,0-.1h0V9.2c.1,0,.1.2.1.2l.2-.2v.2l-.2.3h.2a.4.4,0,0,1-.2.3h-.2v.4h-.2c0,.1,0,.2-.1.2h0l-.3.4H27c0-.1,0-.2-.2-.2h.1a.1.1,0,0,0,.1-.1h.1V9.9h-.1s.1-.1,0-.1-.1-.1-.2-.1h-.6a.3.3,0,0,1,.1-.2l-.3.2a.1.1,0,0,0-.1-.1h-.2V9.2l-.2-.3a.5.5,0,0,1-.1.3h-.1V8.9l-.3.4h-.4a.3.3,0,0,1,.1-.2h.2a.3.3,0,0,1-.1-.2h.5a.5.5,0,0,0,0-.4h.1a1.3,1.3,0,0,0-.1-.5h-.1l-.3-.2a.2.2,0,0,0,.1-.3.1.1,0,0,1-.1.1c-.1,0-.3-.1-.4,0l.2-.2h-.3l.2-.2h.3Zm.5,2.7h-.1A.1.1,0,0,1,25.4,9.3ZM23.7,7.8a.4.4,0,0,1,.1-.5l.5-.5.6-.4h0l-.2.3a.3.3,0,0,1-.1.2h-.2c-.1,0,0,.1,0,.1h-.2c0-.1.1-.1.2-.1a.1.1,0,0,0,0-.2s.2,0,.2-.1a.2.2,0,0,0,.2-.2l-.2.2h-.4c-.1,0-.2.2-.2.4a.4.4,0,0,1,.3-.2c.1,0,.1.1.1.2h.3l.5.3h.1v.2h-.1v.5h-.1v.2h-.1V8.3c-.1-.1-.2-.3-.4-.4a1.1,1.1,0,0,0-.8,0C23.9,7.9,23.7,8,23.7,7.8Zm.5.9-.3.2h-.2c-.1-.1-.1-.2-.1-.4s.1-.2.1-.3l.2-.2h1c-.1,0-.1,0,0-.1h-.3c-.1.1,0,.1,0,.1h.1l-.2.2Zm.2.1.2-.2V8.4h.1l.2-.2a.3.3,0,0,1,.1.2v.2h-.3s-.1.1,0,.3h-.1V9h-.1v.2h-.2V8.8Zm-1.1,2.3a.2.2,0,0,1-.2-.2h.1c0-.1.1-.1.1-.2h.1l.3-.2h0l-.2.2h-.2Zm.1-.1.2-.2V11h-.1Zm.5-.4-.4.5.2-.3v-.3h.2Zm.6-.5h-.1a.2.2,0,0,1-.2.2c-.1.1-.1.2-.2.2h-.1s.1-.2,0-.2h-.2a.2.2,0,0,0,0-.3V9.9h0v.3h-.3v-.2h0l.3-.4.4-.6h.1v.2l.2-.3v.2h.3v.2h.4l-.2.3h0a.1.1,0,0,1-.1.1h.1Zm-.9.1h.1v.2h-.1C23.7,10.3,23.6,10.2,23.6,10.2Zm2.3-.6-.9.2h-.2s.1-.2.2-.2h-.3l.3-.3h.2s.2.1,0,.3.3-.1.3-.3a.3.3,0,0,1,.1.2h.1v.2H26c.1,0,0,.1,0,.1h.8c.1,0,0,.1,0,.2a.1.1,0,0,1,.2,0s.1.1,0,.1h-.1s.2,0,.1.1-.1,0-.1,0-.1.1,0,.2h-.1v.3h0v.3s-.2-.1-.2-.5V11s-.1-.2,0-.3,0-.2.1-.2l.2-.5s-.1.2-.3,0a.4.4,0,0,1-.4-.3h-.2Z"/><path class="cls-4" d="M28.6,7.4Z"/><path class="cls-4" d="M25.6,9.4h0Z"/><path class="cls-4" d="M29,8c.1,0,0-.1,0-.1Z"/><path class="cls-4" d="M25.8,9.5h0Z"/><path class="cls-4" d="M24.7,8.1V7.9h-.4c-.1,0-.1.2-.1.2s.2-.1.2-.1,0,.1,0,.1h-.2c.1,0,.1.2.1.2V8.4h.1c0-.1.1-.1.1,0s.1.2.1.2.1-.2.1-.3h.1Zm-.1.1h0Zm0,0h0Z"/><path class="cls-4" d="M29.5,7.8h.1c.1-.1,0-.1,0,0h-.1Z"/><path class="cls-4" d="M25.4,9.6h0Z"/><path class="cls-4" d="M29,7.9h.5c.1,0,.1-.1,0-.1s-.2.1-.3.2Z"/><path class="cls-4" d="M25.2,9.5h0Z"/><path class="cls-4" d="M25,9.7h0c.1,0,0-.1,0-.1Z"/><path class="cls-4" d="M29.3,7.8c0,.1-.2.1-.2.1h.3C29.5,7.9,29.4,7.8,29.3,7.8Z"/><path class="cls-4" d="M26.6,12.1v.2c-.1,0-.2,0-.2-.1h-.2a.3.3,0,0,0-.1-.2h0v.2h.4c.1,0,0-.2,0-.2h0Z"/><path class="cls-4" d="M28.3,7.9h.1A.1.1,0,0,1,28.3,7.9Z"/><path class="cls-4" d="M29.7,7.4h0Z"/><path class="cls-4" d="M27.2,8h0Z"/><path class="cls-4" d="M23.4,10.6Z"/><polygon class="cls-4" points="29.6 7.5 29.6 7.5 29.6 7.5 29.6 7.5"/><path class="cls-5" d="M25.3,9.3h.1a.1.1,0,0,0-.1-.1Z"/><path class="cls-5" d="M26,8.2Z"/><path class="cls-5" d="M26.1,9.7h0a.4.4,0,0,0,.4.3c.2.2.3,0,.3,0l-.2.5c-.1,0-.1.2-.1.2s0,.3,0,.3v-.2c0,.4.2.5.2.5V11h0v-.3h.1c-.1-.1-.1-.1,0-.2s0,.1.1,0-.1-.1-.1-.1H27c.1,0,0-.1,0-.1a.1.1,0,0,0-.2,0c0-.1.1-.2,0-.2H26s.1-.1,0-.1h-.3V9.2h-.1a.3.3,0,0,0-.1-.2c0,.2-.3.3-.3.3s0-.3,0-.3H25l-.3.3H25c-.1,0-.2.2-.2.2H25l.9-.2Zm.5.1Zm-.2-.2h0ZM25,9.7h0S25.1,9.7,25,9.7Zm.3-.1h0Zm.2,0h0Zm.1-.1h0Zm.2.1Z"/><path class="cls-5" d="M24.5,8.2h0Z"/><path class="cls-5" d="M24.7,8.4h-.1s-.1,0,0-.1h0c0,.1-.1.2-.1.3s0-.2-.1-.2-.1-.1-.1,0h-.1v.2s0-.2-.1-.2h-.4c0,.1-.1.2-.1.3s0,.3.1.4h.2l.3-.2h.3Z"/><path class="cls-5" d="M27.3,8.4h-.2s-.1,0,0,.1h0V8.5h.1a.5.5,0,0,0,.1-.3h.1c.1,0,.2-.2.2-.2h0a.1.1,0,0,0,.1-.1s0,.1.1,0h-.7C27.2,8.3,27.3,8.3,27.3,8.4Z"/><path class="cls-5" d="M26.1,8.2c-.1.1,0,.1,0,.1h-.2c0,.1-.1.1,0,.1h.3c-.1.1-.1.2-.2.2h0c0,.1.1.1.1,0h.7V8.3h-.4l.4-.2h-.5c.1,0,.1.1,0,.2h-.1c.1,0,.1-.1.1-.2h-.2Zm.6.3h-.2s.1,0,0,.1h.2Z"/><path class="cls-5" d="M26.8,8.5h0l.4-.2h-.1c0-.1,0-.1-.1-.1h-.2Z"/><path class="cls-5" d="M25.4,8.2h-.1a.5.5,0,0,1,0,.4h-.5a.3.3,0,0,0,.1.2h-.2a.3.3,0,0,0-.1.2H25l.3-.4v.2h.1a.5.5,0,0,0,.1-.3l.2.3v.1H26a.1.1,0,0,1,.1.1l.3-.2a.3.3,0,0,0-.1.2h.6c.1,0,.2,0,.2.1s0,.1,0,.1h.1v.2H27a.1.1,0,0,1-.1.1h-.1c.2,0,.2.1.2.2h-.1l.3-.4h0c.1,0,.1-.1.1-.2h.2v-.4h.2a.4.4,0,0,0,.2-.3h-.2l.2-.3V9.2l-.2.2s0-.2-.1-.2v.2h0s-.1.1,0,.1h.1a.1.1,0,0,1,.1.1h-.3v.4h-.1a.1.1,0,0,0-.1.1h.2v-.2h.1c-.1-.1,0-.1,0-.1h0s.1,0,0-.1h-.1c.1.1.1.1,0,.1h0c0,.1-.1.1-.1.2h-.1v.2h.1v-.2c.1,0,.1-.1.1-.2h0c-.1,0,0-.1,0-.1h-.2V9.3h.5L27.2,9h-.8V8.9H25.4Z"/><path class="cls-5" d="M25.6,8.3h.1c-.1,0,0,.1,0,.1h.1c-.1,0,0,.1,0,0h0s-.1,0,0-.1h-.1A.1.1,0,0,0,25.6,8.3Z"/><path class="cls-5" d="M24.4,8.1Z"/><path class="cls-5" d="M24.5,8h0Z"/><path class="cls-5" d="M27,8.2h.3c.1-.1.1-.2,0-.2s-.1,0-.1,0-.1,0,0-.1,0-.3,0-.3-.3.3-.3.4h.2l-.2.2H27Zm.2-.2Z"/><path class="cls-5" d="M28.3,7.9a.1.1,0,0,0,.1-.1h.1c0,.1,0,.2-.1.2h-.1v.2h-.1L28,7.6h0c-.1,0-.2-.1-.2,0h0a.3.3,0,0,1-.1-.2h-.1c0,.1.1.1,0,.1h-.4c.2,0,.2,0,.2.1s.1.1,0,.2h.5V8h.3Z"/><path class="cls-5" d="M24.3,8.1s-.1-.1-.2.1,0-.2.1-.2h.4v.2h.2c-.1.1-.1.1,0,.1h-1l-.2.2h.6S24.4,8.1,24.3,8.1Z"/><path class="cls-5" d="M26.7,8h.1S26.8,8,26.7,8Z"/><path class="cls-5" d="M25.3,8.1h0Z"/><path class="cls-5" d="M27.4,7.1l.2-.2c.1,0,.1-.1,0-.1h-.2l-.2.2v.2h.2A.1.1,0,0,1,27.4,7.1Z"/><path class="cls-5" d="M27.5,6.6l-.3.2a.1.1,0,0,1-.1.1l-.3.4h0l-.2.3-.2.3h.2l-.2.3.4-.3a.1.1,0,0,1,.1-.1l.3-.2c0-.1.1-.2.1-.3H27l-.2.2h-.1a.1.1,0,0,1,.1-.1h.3V7.1l.3-.3.4-.3.3-.3c.1,0,.1-.1,0-.1h-.2Z"/><path class="cls-5" d="M28,5.6h-.2l-.2.4-.5.4c-.1.1-.3.3-.3.4l-.2.2h.2l.2-.3.2-.2.3-.2.3-.4.3-.3.3-.3.2-.3c0,.1-.1.1-.2.2Z"/><path class="cls-5" d="M24.7,6.9h-.1l-.2.2h.3l-.2.2c.1-.1.3,0,.4,0a.1.1,0,0,0,.1-.1.2.2,0,0,1-.1.3l.3.2h.1a1.3,1.3,0,0,1,.1.5h.8l.2-.2.3-.3h0c0-.1.1-.2.2-.3l.2-.3c.2,0,.5-.3.6-.5l.4-.3V5.7c-.1.1-.2.1-.2.2s-.2.2-.4.4-.4.3-.4.4H27c0,.1-.2.3-.2.3l-.2.2c0,.1-.1.2-.2.3l-.2.2a.3.3,0,0,1-.1.2h-.2l.2-.2c0-.2-.1-.2-.1-.2h.2c0-.1.1-.2.1-.3h-.2v.2h.1l-.2.2-.2.2h.1c-.1.1,0,.1,0,.1h-.1V7.9a.1.1,0,0,0-.1-.1h.1a.1.1,0,0,0-.1-.1V7.4c0-.1-.2,0-.2,0l.2-.3h-.3a.3.3,0,0,1-.1.2h0c.1,0,.2-.2.2-.2s0,.2-.1.2a.1.1,0,0,0-.1.1h0V7.3a.3.3,0,0,0,.1-.2l.2-.2s.2-.2.2-.3h-.3c0,.1-.1.1-.2.2V7h-.1l.2-.2.3-.2.3-.3a.5.5,0,0,0,.1-.3l-.3.3h0l-.3.2h-.3v.2Zm1.2,1h0c.1-.1.1,0,0,0Zm-.4-.2h0c0-.1,0-.1.1-.1h-.1c0,.1.1.1.2.1a.4.4,0,0,1-.3.2h0V7.7Zm-.7-.6h.3l-.2.2h-.1c-.1,0-.1,0,0-.1Z"/><path class="cls-5" d="M25.5,7.3h.1c.2,0,.2-.3.2-.3s.1-.1,0-.1h0Z"/><path class="cls-5" d="M26.1,7.2c0-.1,0-.1-.1-.2h-.1c-.1.1,0,.1,0,.1H26c-.1.1-.2.1-.2.2h-.2a.3.3,0,0,1,.1.2C25.9,7.7,26,7.3,26.1,7.2Z"/><path class="cls-5" d="M26.1,7.7h.1l.4-.4c0-.1,0-.2-.1-.2h-.2v.2Z"/><path class="cls-6" d="M26.4,10.9v-.5l.2-.2c-.1-.2-.4-.2-.5-.3L26,9.7h-.1c.1.6.3.8.4.8a.1.1,0,0,1,0,.2.5.5,0,0,1-.1.3v.3h.1a.3.3,0,0,1,.1-.2Z"/><path class="cls-6" d="M26.9,11.6v-.4h-.1v.2h.1c0,.1.1.1,0,.2h.2v-.2Z"/><path class="cls-6" d="M28.7,7.9V7.7h-.8a.1.1,0,0,1-.1.1h-.1l-.2.2h0l-.2.3H27V8.6h-.4c.1.2,0,.2,0,.2h.7c.1,0,.2-.3.2-.3s0,.2.1.1h.3l.3-.2h.3a.3.3,0,0,0,.1-.2A.1.1,0,0,0,28.7,7.9Z"/><path class="cls-6" d="M27.3,7.5v.2h.2c-.1,0-.1,0-.1-.1h-.1a.7.7,0,0,1,.4.2H28c-.1-.1,0-.1,0-.1a.1.1,0,0,1,.1.1.1.1,0,0,1,.2,0h.1c.1,0,.1,0,0-.1H27.3Z"/><path class="cls-6" d="M26.4,12.2c0,.1.1.1.2.1v-.2h-.5a.3.3,0,0,1,.1.2Z"/><path class="cls-6" d="M25.1,6.5h.3V6.2l.2-.2c.1-.1,0-.1,0-.1l-.3.2c-.1.1-.4.2-.4.3s-.1,0,0,.1Z"/><path class="cls-6" d="M24.8,7.9c.2.1.3.3.4.4v.3h.1V8.4h.1V8h.1V7.9h-.1l-.5-.3h-.3c0-.1,0-.2-.1-.2a.4.4,0,0,0-.3.2c0-.2.1-.4.2-.4h.4l.2-.2a.2.2,0,0,1-.2.2c0,.1-.2.1-.2.1a.1.1,0,0,1,0,.2c-.1,0-.2,0-.2.1h.2s-.1-.1,0-.1h.2a.3.3,0,0,0,.1-.2l.2-.3h0l-.6.4-.5.5a.4.4,0,0,0-.1.5c0,.2.2.1.3.1A1.1,1.1,0,0,1,24.8,7.9Z"/><path class="cls-6" d="M24.6,9.1V8.9h.1V8.8h.1c-.1-.2,0-.3,0-.3h.3V8.3a.3.3,0,0,0-.1-.2l-.2.2h-.1v.2l-.2.2v.4Z"/><path class="cls-7" d="M28.7,7.3h0Z"/><path class="cls-7" d="M28.8,6.9h0Z"/><path class="cls-7" d="M28.6,7.6c.1,0,.1.1.1.2V8h1.1V7.7h0c.1,0,0-.1,0-.1s0-.1,0-.1h-.2c-.1.1-.3.1-.3.2h-.6s.1,0,0-.1h.1c-.1,0-.1,0,0-.1h-.1c0-.1-.1-.1-.1-.2h-.2V7.1h-.3l.2.2Zm1.1,0h0Zm-.3.3h-.3s.2,0,.2-.1S29.5,7.9,29.4,7.9Zm.2-.1Zm-.6.1h.2c.1-.1.3-.1.3-.2s.1.1,0,.1H29Zm0,0s.1.1,0,.1Zm-.4-.5Z"/><path class="cls-8" d="M28.4,7.3h.2c0,.1.1.1.1.2h.1c-.1.1-.1.1,0,.1h1a.3.3,0,0,0-.1-.2h-.1l-.3.2h-.2l.2-.2h.3c0-.1.1-.1,0-.1h-.7l-.2.2h-.1l.2-.2H29l.3-.2h-.2l-.3.2h-.3Z"/><path class="cls-8" d="M29.5,7.5h.2l-.2.2Z"/><path class="cls-8" d="M29,7.7h0Z"/><path class="cls-8" d="M24.5,9.5Z"/><path class="cls-8" d="M24.8,9.9Z"/><path class="cls-8" d="M24,9.2h0Z"/><path class="cls-8" d="M23.3,10.3h0Z"/><path class="cls-8" d="M24.8,9.9Z"/><path class="cls-8" d="M24.5,9.5h0Z"/><path class="cls-8" d="M23.3,10.4h0Z"/><path class="cls-8" d="M24.8,9.9h0Z"/><path class="cls-8" d="M23.3,10.4h0v.2h0Z"/><path class="cls-8" d="M24.4,9.9l.3-.2h-.2v.2a.1.1,0,0,1-.1-.1c-.1,0-.1,0-.1.1h-.2a.1.1,0,0,1-.1-.1h.1V9.6h.2V9.5h.1V9.4h-.1v.2h-.2a.4.4,0,0,0-.1-.3h0l-.4.6-.3.4c0,.1.1.1.2.1h.1V9.9h0v.2a.2.2,0,0,1,0,.3h.2c.1,0,0,.2,0,.2H24c.1,0,.1-.1.2-.2a.2.2,0,0,0,.2-.2h.1l.2-.2h-.3Z"/><path class="cls-8" d="M23.5,10.3h0Z"/><path class="cls-8" d="M23.5,10.4h.2v-.2h-.1s.1.1,0,.1Z"/><path class="cls-8" d="M24.5,9.6Z"/><path class="cls-9" d="M23.8,10.5h-.1v.3l-.2.3.4-.5Z"/><path class="cls-9" d="M23.4,11h.1l.2-.2h0l-.3.2h-.1c0,.1-.1.1-.1.2h-.1a.2.2,0,0,0,.2.2h.1Zm0-.4Z"/><path class="cls-7" d="M23.3,10.2h.2C23.4,10.3,23.3,10.3,23.3,10.2Z"/><path class="cls-7" d="M24.8,9.9h-.2a.1.1,0,0,0,.1-.1h0l.2-.3h-.4V9.1h-.3V9l-.2.3V9.1H24a.4.4,0,0,1,.1.3h.2V9.3h.1v.2h.2c-.1,0-.1.1-.1.2h.1l-.3.2h.4Z"/><path class="cls-4" d="M25.3,11.6v.2h.1c0-.1,0-.2-.1-.2Z"/><path class="cls-4" d="M23.9,14h-.8l.8.3H24Z"/><path class="cls-4" d="M25.7,14.8s0-.1-.1,0h.1Z"/><path class="cls-4" d="M24.6,14.3h.1c0,.1,0,.2.1.1h-.2Zm.7.2h0Z"/><path class="cls-4" d="M26.1,14.6h0Z"/><path class="cls-4" d="M23.8,14.6H24l-.3-.2Z"/><path class="cls-4" d="M24.7,14.5h0Z"/><polygon class="cls-4" points="25.8 14.8 25.8 14.8 25.8 14.8 25.8 14.8"/><path class="cls-4" d="M23.5,14.3h-.1c-.1.1-.1.1,0,.2A.1.1,0,0,0,23.5,14.3Zm-.1-.3h0Z"/><path class="cls-4" d="M23.9,14h.9a.1.1,0,0,1,.1-.1h-.7l-.3-.2h0Z"/><path class="cls-4" d="M25.1,14.3h1.1c-.1,0-.1,0,0,.1H25.1Z"/><path class="cls-4" d="M24.1,14.2h0Z"/><path class="cls-4" d="M26.2,14.8h0Z"/><path class="cls-4" d="M25.9,14.7h.3c-.1,0-.2,0-.2-.1Z"/><path class="cls-4" d="M23.8,14v-.3h0v-.2a.3.3,0,0,1,.1-.2h0l-.3.2h-.1c-.1.1,0,.2,0,.3h0v-.2h0c0-.1,0-.2.1-.2s0-.1.1-.1h.1l-.2.2a.4.4,0,0,0-.1.3c-.1,0-.2-.2-.2-.2h0c-.1.1,0,.2,0,.3v.2h.4Zm-.1-.9h0Zm-.1.8h-.2c0-.1-.1-.1-.1-.2v-.2h.2c0,.1,0,.2.1.2h.1v-.2h.1l.2-.2v.2h-.1v.2Z"/><path class="cls-4" d="M21.6,11.6h.3l1,.5h0l.5-.2h.5v.2h1.3l.4-.3h.2l-.2.2h-.4v.2l-1,.2h-.9v.2c-.1,0-.2,0-.2.1a.2.2,0,0,0,0,.3h0a.2.2,0,0,0-.1.3l.2.2h0v.2h.4l.3.2h1.2v.2h1.1v.2h.1c0-.1-.1-.1,0-.1h.1v-.4h.4l.2.2h0l-.2-.2h.5v-.2h-.1l-.3-.2h.2v-.2h0a.1.1,0,0,0-.1.1h0v-.2h0l-.2-.2H25.4c0,.1,0,.1-.1.1H24.1a.1.1,0,0,0,0-.2v-.4h1c.1,0,.1.1.1.2h1l1.6-.2h.1a.1.1,0,0,0-.1-.1l-1.7.3H26a.1.1,0,0,1,.1-.1h2a.1.1,0,0,0-.1-.1H26.6c.1-.1,0-.1,0-.2h-.1v-.2h0v-.2h-.2a.3.3,0,0,0-.1.2h-.6v.2H24.4c0-.1,0-.2-.1-.2h-.2c-.1,0-.1.1-.1.2h-.1a1.9,1.9,0,0,1-.9-.4h-.1l-.8.4h-.5ZM25.3,15Zm.3,0h0Zm.3,0h0Zm.4.3h0c0-.1,0-.1-.1-.2h.1Zm.6-.1h0l-.2-.2h.2Zm.1-1a.1.1,0,0,1,.1.1H27Zm-.3-.2Zm-2.6-.9h0v.2h0v.4a.1.1,0,0,0-.1.1h2.5a.1.1,0,0,1-.1.1h.2l.3.2h-.7l.2.2v.2h0V15H25l-.2-.2h-.1l.3.2h-.2c-.1-.1-.2-.1-.2-.2h-.3a.4.4,0,0,1-.4-.3h0v.2l.2.2v.2h.1a.1.1,0,0,0,.2,0,.2.2,0,0,0,.2.2h-.5a.1.1,0,0,1-.1-.1h0a.1.1,0,0,0-.1.1h-.2l-.2-.2h-.1c-.1.1-.2,0-.3-.1h-.1v-.2h-.1l-.2-.2c-.1-.1.1-.3.1-.3h0v-.3h.1c0,.1-.1.1,0,.2h.1v-.2h.1c0-.1.1-.1,0-.2h.9Zm2.2,1.1h0ZM25.9,12Zm-.7.8h.2c0,.1,0,.1-.1.1Zm.5-.1h0Zm0-.1Zm-.1.1h0Zm-.1,0h0Zm0,.3h-.2v-.2h.3Zm.3,0h-.3a.4.4,0,0,0,.1-.3h.2Zm.3-.2h-.3v-.2H26v.2h.1Zm.3-.3,1.4-.3h0l-1.4.3h-.2v-.2Zm-.3,0h0c0-.1-.1-.1-.1-.2h.1Zm-.1,0Zm0-.2h0a.1.1,0,0,0-.1-.1h-.7v-.2h.4a.2.2,0,0,0,.2-.2h.3A.2.2,0,0,0,26,12.3Zm.4-.3h0Zm0,0h0Zm1.6-.1Zm0-.2a.1.1,0,0,0-.1.1H28Zm-1.5-.2h-.1v-.2h-.2a.1.1,0,0,1-.1-.1h.4Zm-.4-.2h.5v.2h-.7a.1.1,0,0,0,.1.1h0a.1.1,0,0,1,.1-.1h0Zm-.4.3h0v-.2h.1c-.1,0-.1-.1-.1-.2h0ZM25,12h0v-.5h.2l.2.2h.2v-.2h.2l-.4.3H25Zm-.9.2H24v-.2h.2v.2h-.1Zm.3-.7h0v.4h.1v-.4h0v.4h.1v-.4h.1v.4h0v-.4h.1v.4h0v-.4h.1v.4h0v-.4H25V12h-.7v-.3h0v.4h.1Zm-.1-.2h0v.2h-.2v.3h0v-.3h0v-.3Zm-.3.4v-.2h.2v.3h0c0,.1.1.1.1.2H24v-.2Zm-.6.2h-.2l-.3.2h0l-.5-.2H23a.7.7,0,0,1,.4-.2h0Zm-1.5-.4h.2c.3-.1.7-.2.8-.4a1.9,1.9,0,0,0,1,.4v.2h-.5l-.4.2a2.3,2.3,0,0,0-1-.3.2.2,0,0,1,.2.2l-.3-.2h0Z"/><path class="cls-4" d="M23.1,13.9h.1v.2h.1v-.2h0v-.2h-.1C23,13.8,23.1,13.9,23.1,13.9Zm0-.1h0Z"/><path class="cls-4" d="M25.2,12.1h0Z"/><path class="cls-4" d="M25.4,11.9h0Z"/><path class="cls-4" d="M25.3,11.9h0Z"/><path class="cls-4" d="M26.3,11.5Z"/><path class="cls-4" d="M26.2,11.9Z"/><path class="cls-9" d="M24.8,14.3Z"/><polygon class="cls-9" points="24.2 12.9 24.2 13 24.8 12.9 24.8 12.8 24.2 12.9"/><polygon class="cls-9" points="23.9 14.1 23.9 14.1 23.9 14.1 23.9 14.1"/><path class="cls-9" d="M24.1,14.2h-.2a.4.4,0,0,0,.4.3h-.2Z"/><path class="cls-9" d="M24.3,14.3h-.2l-.2-.2h0v.2Z"/><path class="cls-9" d="M24.2,14.1h0Z"/><path class="cls-9" d="M23.8,14Z"/><path class="cls-9" d="M24.8,14.5h0c-.1.1-.1,0-.1-.1h.1Z"/><path class="cls-9" d="M23.9,12.9h-.7c.1.1,0,.1,0,.2h-.1v.2h-.1c-.1-.1,0-.1,0-.2H23v.3h0s-.2.2-.1.3l.2.2h.1v.2h.1c.1.1.2.2.3.1h.1l.2.2h.2a.1.1,0,0,1,.1-.1h0a.1.1,0,0,0,.1.1h.5a.2.2,0,0,1-.2-.2.1.1,0,0,1-.2,0h-.1v-.2l-.2-.2v-.2l-.8-.3h.1V14h0v.2h-.1V14h-.1s-.1-.1,0-.1h.3v-.2c0-.1-.1-.2,0-.3h0s.1.2.2.2a.4.4,0,0,1,.1-.3l.2-.2h-.1c-.1,0-.1,0-.1.1s-.1.1-.1.2h0v.2h0c0-.1-.1-.2,0-.3h.1l.3-.2h0a.3.3,0,0,0-.1.2v.2h0V14h.1l.3.2h.6v-.2H24a.1.1,0,0,1,.1-.1v-.4h0v-.2h-.2Zm.1,1.7h-.2v-.2Zm-.6-.6h.1a.1.1,0,0,1-.1-.1C23.3,14.1,23.3,14.1,23.4,14Z"/><path class="cls-9" d="M24.2,11.7h0V12h0v-.3h.2v-.2h-.1Z"/><path class="cls-9" d="M24,11.7h0v.2h.2c0-.1-.1-.1-.1-.2h0v-.3H24v.2Z"/><path class="cls-9" d="M24.3,11.9v-.4h0v.3h.5v-.5h0v.4h0v-.4h-.1v.4h0v-.4h-.1v.4h-.1v-.4h0v.4h-.1v-.4h0v.4h-.1Z"/><path class="cls-9" d="M22.2,11.8a.2.2,0,0,0-.2-.2,2.3,2.3,0,0,1,1,.3l.4-.2h.5v-.2a1.9,1.9,0,0,1-1-.4c-.1.2-.5.3-.8.4h-.2Z"/><path class="cls-9" d="M26.8,15.1h-.1l.2.2h-.1Z"/><path class="cls-9" d="M27,14.3h.1a.1.1,0,0,0-.1-.1h0Z"/><path class="cls-9" d="M26.7,14Z"/><path class="cls-9" d="M25.6,14.6h0Z"/><path class="cls-9" d="M25.8,14.5h0Z"/><path class="cls-9" d="M24.8,14.4Z"/><path class="cls-9" d="M25.6,14.8h0c.1-.1.1,0,.1,0h-.1Z"/><path class="cls-9" d="M25.6,13.1Z"/><path class="cls-9" d="M25.7,13.1Z"/><path class="cls-9" d="M24.9,14h0a.1.1,0,0,0-.1.1H26c0,.1.1.1.2.1h.2c0,.1,0,.1-.1.1H24.8l.2.2h1.2v.2h0v-.2l-.2-.2h.7l-.3-.2h-.2a.1.1,0,0,0,.1-.1H24.8v.2Z"/><path class="cls-9" d="M25.4,13.1h0Z"/><path class="cls-9" d="M25.4,13.1Z"/><path class="cls-9" d="M25,12v-.5h-.1v.4h0v-.4h-.1V12Z"/><path class="cls-9" d="M25.5,12.9h-.3v.2h.2Z"/><path class="cls-9" d="M25.5,12.6h0Z"/><path class="cls-9" d="M25.6,12.7h0Z"/><path class="cls-9" d="M25.4,12.7h-.1C25.4,12.8,25.4,12.8,25.4,12.7Z"/><path class="cls-9" d="M26,12.6h0c0,.1.1.1.1.2H26Z"/><path class="cls-9" d="M25.8,12.6h0Z"/><path class="cls-9" d="M25.9,12.1Z"/><path class="cls-9" d="M25.9,12.5Z"/><path class="cls-9" d="M26.2,12.7h.2v-.2h-.2v.2Z"/><path class="cls-9" d="M26,11.3h.1a.1.1,0,0,0-.1.1h0a.1.1,0,0,1-.1-.1H26Z"/><path class="cls-9" d="M25.7,11.8h0c0,.1,0,.2.1.2h-.1v.2h0Z"/><path class="cls-9" d="M25.5,11.8h0v.2h-.2l-.2-.2H25V12h.5Zm-.2,0v-.2h0c.1,0,.1.1.1.2Z"/><path class="cls-9" d="M25.7,13h-.1a.4.4,0,0,1-.1.3h.2Z"/><path class="cls-9" d="M26,12.8h0v-.2h-.2v.2H26Z"/><path class="cls-9" d="M25.7,12.6Z"/><path class="cls-9" d="M26.1,12h-.2a.2.2,0,0,1-.2.2h-.4v.2h.7a.1.1,0,0,1,.1.1h0a.2.2,0,0,1,.2-.2Z"/><path class="cls-9" d="M26.3,12h0Z"/><path class="cls-9" d="M26.3,11.4h-.2a.1.1,0,0,0,.1.1h.1Zm0,.5Zm0-.4Z"/><path class="cls-9" d="M26.4,11.7Z"/><path class="cls-9" d="M27.8,12.4h0l-1.4.3v.2Z"/><path class="cls-9" d="M26.5,11.5h-.1v.2h.1Z"/><path class="cls-9" d="M26.4,12Z"/><path class="cls-9" d="M26.4,11.4h.2v-.2h-.2Z"/><path class="cls-9" d="M26.4,11.9h0Z"/><path class="cls-9" d="M26.4,11.7h1.5a.1.1,0,0,1,.1-.1Z"/><path class="cls-9" d="M26.4,12h0Z"/><path class="cls-5" d="M23.8,13.7h.1v-.2l-.2.2h-.1v.2h-.1c-.1,0-.1-.1-.1-.2h-.2v.2c0,.1.1.1.1.2h.4v-.2Z"/><path class="cls-5" d="M23.1,14h0Z"/><path class="cls-5" d="M26.3,14.1h0Z"/><path class="cls-5" d="M23.8,13.1h0Z"/><path class="cls-5" d="M25.9,14.9Z"/><path class="cls-5" d="M26.3,14.7h0c.1,0,.1,0,.1-.1h-.1Z"/><path class="cls-5" d="M25.9,14.5h.3c-.1-.1-.1-.1,0-.1h-.3Z"/><path class="cls-5" d="M25.6,15Z"/><path class="cls-5" d="M25.1,14.1H23.9l.2.2h1Z"/><path class="cls-5" d="M25.3,15Z"/><path class="cls-5" d="M23.5,14.3h-.1v.2Z"/><path class="cls-5" d="M25.6,14.8h-1c0,.1.1.1.2.2H25l-.3-.2h.9Z"/><path class="cls-5" d="M28,11.9h0Z"/><path class="cls-5" d="M27.9,11.9h0Z"/><path class="cls-5" d="M24.2,11.9H24v.2h.2Z"/><path class="cls-5" d="M23.4,11.7a.7.7,0,0,0-.4.2h-.6l.5.2h0l.3-.2h.2Z"/><path class="cls-5" d="M25.1,12.2h.2l.4-.3h-.6Zm.3-.3h0Zm-.1,0Zm-.1.2h0Z"/><path class="cls-5" d="M24.2,12.1h0Z"/><path class="cls-10" d="M25.6,6.4v.2l.6-.3a.3.3,0,0,0,.1-.2l.3-.2h.2a.2.2,0,0,1,.2-.2l.3-.3.2-.2h-.1l-.2.2-.2.2-.4.3c-.1,0-.1.1-.2.2l-.3.2-.3.2.4-.3c.1-.1.2-.1.2-.2l.2-.2.3-.2.3-.3.4-.3V4.6l-.4.4a2.1,2.1,0,0,1-.7.5l-.7.5A.4.4,0,0,1,25.6,6.4Z"/><path class="cls-10" d="M27.5,4.9h.3l.3-.3h.1c0-.1.1-.2,0-.1Z"/><path class="cls-10" d="M27.9,5.4l-.2.2-.3.3-.6.5-.2.2c0,.1-.2.2-.2.3l-.3.3h.3l.2-.2.2-.2.3-.4.5-.4.2-.3a.1.1,0,0,1,.1-.1l.4-.3.4-.4V4.7l-.5.4Z"/><path class="cls-10" d="M27.5,6.8h.2a.4.4,0,0,1-.1.3l-.2.2h.3l.4-.2.2-.2h-.4l-.3.2.3-.3.5-.3.2-.2h-.7Z"/><path class="cls-10" d="M25.9,7l.5-.6a.1.1,0,0,0,.1-.1l.5-.4.5-.5V5.2h.2l.3-.4v0a.2.2,0,0,0-.2.2h-.2l-.2.3-.4.3-.2.2c-.1,0-.1.1-.2.2a.2.2,0,0,0-.2.2l-.5.3-.4.4h.1C25.7,6.8,25.9,7,25.9,7Z"/><path class="cls-10" d="M28.1,4.8h.2c.1-.1.3-.3.3-.4h0l-.4.4Z"/><path class="cls-10" d="M26.1,7.1l.4-.4V6.5l.4-.3.5-.5.5-.5.3-.3q.3-.2.3-.3V4.4a.5.5,0,0,0-.3.3l-.3.2H28l-.3.3-.2.3-.4.4-.3.2-.3.3-.2.3L26,7Z"/></svg>