<svg id="Flags" xmlns="http://www.w3.org/2000/svg" viewBox="0 0 30 20"><defs><style>.cls-1{fill:#2a2d7c;}.cls-2{fill:#fff;}.cls-3{fill:#ed2f31;}</style></defs><title>Artboard 58</title><path class="cls-1" d="M27.5,0H15V.7L11.7,2.4H15V4.9H11.7L15,6.6v.8H13.3L8.7,5.1V7.4H6.2V5.1L1.6,7.4H0V17.5A2.5,2.5,0,0,0,2.6,20H27.5A2.5,2.5,0,0,0,30,17.5V2.5A2.5,2.5,0,0,0,27.5,0ZM8.4,13.2l-.9-1-1,1,.2-1.4H5.3l1.2-.8L5.7,9.8l1.3.5.5-1.4.4,1.4,1.3-.5-.8,1.1,1.3.8H8.2ZM21.7,1.7l.6.3.2-.7.2.7.7-.3-.4.6.6.3h-.7v.7l-.5-.5-.4.5V2.7h-.7l.6-.3ZM19.2,7.4l-.4-.5-.5.5V6.8h-.7l.6-.3-.4-.6.7.2.2-.6L19,6l.6-.2-.4.6.6.3h-.7Zm3.8,6-.5-.5-.4.5v-.7h-.7l.6-.4-.4-.6.6.3.2-.7.2.7.7-.3-.4.6.6.4h-.7Zm1.4-4.9L24,8.3l-.3.2V8.1l-.3-.3h.4V7.4l.2.4h.4l-.3.3Zm2-2.1-.5-.5-.5.5V5.8h-.7l.6-.3L25,4.8l.7.2.2-.6.2.6.6-.2-.3.6.5.3h-.6Z"/><polygon class="cls-1" points="0 4.9 0 6.5 3.3 4.9 0 4.9"/><path class="cls-1" d="M.5,1A2.4,2.4,0,0,0,0,2.4H3.3Z"/><path class="cls-1" d="M6.2,0H1.9L6.2,2.2Z"/><polygon class="cls-1" points="13.1 0 8.7 0 8.7 2.2 13.1 0"/><polygon class="cls-2" points="8.4 10.9 9.2 9.8 7.9 10.3 7.5 8.9 7 10.3 5.7 9.8 6.5 10.9 5.3 11.7 6.7 11.8 6.5 13.2 7.5 12.2 8.4 13.2 8.2 11.8 9.7 11.7 8.4 10.9"/><polygon class="cls-2" points="23 12.3 23.4 11.7 22.7 12 22.5 11.3 22.3 12 21.7 11.7 22.1 12.3 21.5 12.7 22.2 12.7 22.1 13.4 22.5 12.9 23 13.4 22.9 12.7 23.6 12.7 23 12.3"/><polygon class="cls-2" points="19.2 6.4 19.6 5.8 19 6 18.8 5.4 18.6 6 17.9 5.8 18.3 6.4 17.7 6.7 18.4 6.8 18.3 7.4 18.8 6.9 19.2 7.4 19.1 6.8 19.8 6.7 19.2 6.4"/><polygon class="cls-2" points="22.2 2.7 22.1 3.4 22.5 2.9 23 3.4 22.9 2.7 23.6 2.6 23 2.3 23.4 1.7 22.7 2 22.5 1.3 22.3 2 21.7 1.7 22.1 2.3 21.5 2.6 22.2 2.7"/><polygon class="cls-2" points="26.4 5.4 26.7 4.8 26.1 5 25.9 4.4 25.7 5 25 4.8 25.4 5.4 24.8 5.7 25.5 5.8 25.4 6.4 25.9 5.9 26.4 6.4 26.3 5.8 26.9 5.7 26.4 5.4"/><polygon class="cls-2" points="24.2 7.8 24 7.4 23.9 7.8 23.4 7.8 23.8 8.1 23.7 8.5 24 8.3 24.4 8.5 24.3 8.1 24.6 7.8 24.2 7.8"/><polygon class="cls-2" points="4.3 4.4 0 4.4 0 4.9 3.3 4.9 4.3 4.4"/><polygon class="cls-2" points="8.7 2.2 8.7 0 8.2 0 8.2 2.4 8.7 2.2"/><polygon class="cls-2" points="15 2.9 15 2.4 11.7 2.4 10.7 2.9 15 2.9"/><polygon class="cls-2" points="11.7 4.9 15 4.9 15 4.4 10.7 4.4 11.7 4.9"/><polygon class="cls-2" points="8.2 7.4 8.7 7.4 8.7 5.1 8.2 4.9 8.2 7.4"/><polygon class="cls-2" points="6.7 2.4 6.7 0 6.2 0 6.2 2.2 6.7 2.4"/><path class="cls-2" d="M3.3,2.4H0v.4H4.3Z"/><polygon class="cls-2" points="6.2 5.1 6.2 7.4 6.7 7.4 6.7 4.9 6.2 5.1"/><polygon class="cls-2" points="8.2 4.4 8.2 4.9 8.7 5.1 13.3 7.4 15 7.4 10 4.9 11.1 4.9 15 6.9 15 6.6 11.7 4.9 10.7 4.4 8.2 4.4"/><path class="cls-2" d="M4.3,2.9H6.7V2.4l-.5-.2L1.9.1a2,2,0,0,0-.8.4L4.9,2.4H3.8L.7.8.5,1,3.3,2.4Z"/><polygon class="cls-2" points="8.2 2.4 8.2 2.9 10.7 2.9 11.7 2.4 15 0.7 15 0 14.8 0 10 2.4 8.8 2.4 13.7 0 13.1 0 8.7 2.2 8.2 2.4"/><polygon class="cls-2" points="6.1 4.9 1 7.4 1.6 7.4 6.2 5.1 6.7 4.9 6.7 4.4 4.3 4.4 3.3 4.9 0 6.5 0 7.4 4.9 4.9 6.1 4.9"/><polygon class="cls-3" points="6.7 4.4 6.7 4.9 6.7 7.4 8.2 7.4 8.2 4.9 8.2 4.4 10.7 4.4 15 4.4 15 2.9 10.7 2.9 8.2 2.9 8.2 2.4 8.2 0 6.7 0 6.7 2.4 6.7 2.9 4.3 2.9 0 2.9 0 4.4 4.3 4.4 6.7 4.4"/><path class="cls-3" d="M4.9,2.4,1.1.5.7.8,3.8,2.4Z"/><polygon class="cls-3" points="10 2.4 14.8 0 13.7 0 8.8 2.4 10 2.4"/><polygon class="cls-3" points="10 4.9 15 7.4 15 6.9 11.1 4.9 10 4.9"/><polygon class="cls-3" points="6.1 4.9 4.9 4.9 0 7.4 0 7.4 1 7.4 6.1 4.9"/></svg>