<svg xmlns="http://www.w3.org/2000/svg" viewBox="0 0 30 20"><defs><style>.cls-1{fill:#fff;}.cls-2{fill:none;}.cls-3{fill:#121212;}.cls-4{fill:#fbd632;}.cls-5{fill:#2573b9;}.cls-6{fill:#ce2931;}</style></defs><title>ag</title><g id="Layer_91" data-name="Layer 91"><rect class="cls-1" x="6.9" y="10.8" width="17.1" height="9.18"/><polygon class="cls-2" points="9.1 12.2 15 20 15 20 20.9 12.2 9.1 12.2"/><path class="cls-3" d="M27.5,0H2.5A2.8,2.8,0,0,0,.6.9L5.8,7.8H8.4l3.3-.6L8.9,5.3l3.3.7L10.3,3.2,13.1,5l-.6-3.2,1.8,2.7L15,1.3l.7,3.2,1.8-2.7L16.9,5l2.8-1.8L17.8,6l3.3-.7L18.3,7.2l3.3.6h2.6L29.4.9A2.8,2.8,0,0,0,27.5,0Z"/><polygon class="cls-4" points="18.3 7.2 21.1 5.3 17.8 6 19.7 3.2 16.9 5 17.5 1.8 15.7 4.5 15 1.3 14.3 4.5 12.5 1.8 13.1 5 10.3 3.2 12.2 6 8.9 5.3 11.7 7.2 8.4 7.8 15.1 7.8 15.2 7.8 15.2 7.8 16.5 7.8 21.6 7.8 18.3 7.2"/><polygon class="cls-5" points="20.9 12.2 24.2 7.8 21.6 7.8 16.5 7.8 15.2 7.8 15.2 7.8 15.1 7.8 8.4 7.8 5.8 7.8 9.1 12.2 20.9 12.2"/><path class="cls-6" d="M20.9,12.2,15,20H27.5A2.5,2.5,0,0,0,30,17.5V2.5A2.5,2.5,0,0,0,29.4.9L24.2,7.8Z"/><path class="cls-6" d="M5.8,7.8.6.9A2.5,2.5,0,0,0,0,2.5v15A2.5,2.5,0,0,0,2.5,20H15L9.1,12.2Z"/></g></svg>