<svg xmlns="http://www.w3.org/2000/svg" viewBox="0 0 30 20"><defs><style>.cls-1{fill:#28b1c9;}.cls-2{fill:#fae044;}.cls-3{fill:#121212;}</style></defs><title>bs</title><g id="Layer_84" data-name="Layer 84"><path class="cls-1" d="M27.5,0H2.5A2.5,2.5,0,0,0,0,2.5v.4L6.4,6.6H30V2.5A2.5,2.5,0,0,0,27.5,0Z"/><path class="cls-1" d="M0,17.1v.4A2.5,2.5,0,0,0,2.5,20h25A2.5,2.5,0,0,0,30,17.5V13.4H6.4Z"/><polygon class="cls-2" points="12.3 10 6.4 13.4 30 13.4 30 6.6 6.4 6.6 12.3 10"/><polygon class="cls-3" points="12.3 10 6.4 6.6 0 2.9 0 17.1 6.4 13.4 12.3 10"/></g></svg>