<svg id="Flags" xmlns="http://www.w3.org/2000/svg" viewBox="0 0 30 20"><defs><style>.cls-1{fill:#263678;}.cls-2{fill:#ffcb33;}.cls-3{fill:#121212;}</style></defs><title>Artboard 35</title><path class="cls-1" d="M2.5,0A2.5,2.5,0,0,0,0,2.5v15A2.5,2.5,0,0,0,2.5,20H9.9V0Z"/><path class="cls-1" d="M27.5,0H20.1V20h7.4A2.5,2.5,0,0,0,30,17.5V2.5A2.5,2.5,0,0,0,27.5,0Z"/><path class="cls-2" d="M9.9,0V20H20.1V0Zm7.5,12.5-1.9-.3v2.7h-1V12.2l-1.9.3a10.6,10.6,0,0,0-1.9-5.9c-.1-.1,0-.1,0-.1a4.2,4.2,0,0,1,2.2,1.1c.1.1-.3,0-.4,0s.1.4.2.5a15,15,0,0,1,.7,3.2h1.1V7.5l-.9.2A7.3,7.3,0,0,0,15,5.1a7.3,7.3,0,0,0,1.4,2.6l-.9-.2v3.8h1.1a15,15,0,0,1,.7-3.2c.1-.1.5-.6.2-.5s-.5.1-.4,0a4.2,4.2,0,0,1,2.2-1.1s.1,0,0,.1A10.6,10.6,0,0,0,17.4,12.5Z"/><path class="cls-3" d="M19.3,6.5a4.2,4.2,0,0,0-2.2,1.1c-.1.1.3,0,.4,0s-.1.4-.2.5a15,15,0,0,0-.7,3.2H15.5V7.5l.9.2A7.3,7.3,0,0,1,15,5.1a7.3,7.3,0,0,1-1.4,2.6l.9-.2v3.8H13.4a15,15,0,0,0-.7-3.2c-.1-.1-.5-.6-.2-.5s.5.1.4,0a4.2,4.2,0,0,0-2.2-1.1s-.1,0,0,.1a10.6,10.6,0,0,1,1.9,5.9l1.9-.3v2.7h1V12.2l1.9.3a10.6,10.6,0,0,1,1.9-5.9C19.4,6.5,19.3,6.5,19.3,6.5Z"/></svg>