<svg xmlns="http://www.w3.org/2000/svg" viewBox="0 0 30 20"><defs><style>.cls-1{fill:#cb292e;}.cls-2{fill:#21205f;}.cls-3{fill:#fff;}.cls-4{fill:#cb2026;}.cls-5{fill:#329044;}.cls-6{fill:#010101;}.cls-7{fill:#d31f26;}.cls-8{fill:#fffcfd;}.cls-9{fill:#a91e22;}.cls-10{fill:#5758a6;}.cls-11{fill:#dfda4d;}.cls-12{fill:#d9d34e;}.cls-13{fill:#dad44b;}.cls-14{fill:#48499d;}.cls-15{fill:#e4cb5e;}.cls-16{fill:#dcc56a;}.cls-17{fill:#e2cc75;}.cls-18{fill:#ddd458;}.cls-19{fill:#dbd55e;}.cls-20{fill:#e6dd5e;}.cls-21{fill:#d8d642;}.cls-22{fill:#cdcccc;}.cls-23{fill:#504ea0;}.cls-24{fill:#494ca0;}.cls-25{fill:#794522;}.cls-26{fill:#76411c;}.cls-27{fill:#a15b2c;}.cls-28{fill:#44b3cb;}.cls-29{fill:#51aece;}.cls-30{fill:#50afce;}.cls-31{fill:#51abce;}.cls-32{fill:#50b0ce;}.cls-33{fill:#50b3cd;}.cls-34{fill:#65b4d2;}.cls-35{fill:#676767;}.cls-36{fill:#818181;}.cls-37{fill:#989898;}.cls-38,.cls-40{fill:none;stroke-linecap:round;stroke-linejoin:round;stroke-width:0;}.cls-38{stroke:#e3d67e;}.cls-39{fill:#ddd791;}.cls-40{stroke:#fffcfd;}.cls-41{fill:#c87237;}.cls-42{fill:#d18d5f;}.cls-43{fill:#5eb8d3;}.cls-44{fill:#e3d67e;}.cls-45{fill:#d2c55f;}.cls-46{fill:#d2c75f;}.cls-47{fill:#d3c960;}</style></defs><title>bm</title><g id="Layer_81" data-name="Layer 81"><path class="cls-1" d="M27.4,0H15V7.7H0v9.8A2.5,2.5,0,0,0,2.6,20H27.4A2.5,2.5,0,0,0,30,17.5V2.5A2.5,2.5,0,0,0,27.4,0ZM26.2,10.2h0l-.4.5-.6.4-2.4,1.3-1.3-.8-1.1-.6-.6-.5-.3-.3h0V3.7h6.7Z"/><path class="cls-2" d="M5.9,0H2.6L1.6.2,5.9,2.3Z"/><polygon class="cls-2" points="15 2.5 15 0.8 11.5 2.5 15 2.5"/><polygon class="cls-2" points="0 5.1 0 6.5 2.8 5.1 0 5.1"/><polygon class="cls-2" points="1.1 7.7 5.9 7.7 5.9 5.3 1.1 7.7"/><polygon class="cls-2" points="15 6.8 15 5.1 11.5 5.1 15 6.8"/><path class="cls-2" d="M.3,1.3A2.1,2.1,0,0,0,0,2.5H2.8Z"/><polygon class="cls-2" points="13 0 8.5 0 8.5 2.3 13 0"/><polygon class="cls-2" points="8.5 7.7 13.2 7.7 8.5 5.3 8.5 7.7"/><path class="cls-3" d="M3.4,2.5.5,1.1l-.2.2L2.8,2.5Z"/><polygon class="cls-3" points="8.5 5.1 8.5 5.3 13.2 7.7 15 7.7 9.8 5.1 8.5 5.1"/><polygon class="cls-3" points="2.8 5.1 0 6.5 0 7.4 4.5 5.1 2.8 5.1"/><path class="cls-3" d="M5.9,2.5V2.3L1.6.2A1.8,1.8,0,0,0,.8.7L4.5,2.5Z"/><polygon class="cls-3" points="8.5 2.5 8.6 2.5 13.6 0 13 0 8.5 2.3 8.5 2.5"/><polygon class="cls-3" points="5.9 5.1 5.7 5.1 0.5 7.7 1.1 7.7 5.9 5.3 5.9 5.1"/><polygon class="cls-3" points="10.9 5.1 15 7.1 15 6.8 11.5 5.1 10.9 5.1"/><polygon class="cls-3" points="11.5 2.5 15 0.8 15 0 14.8 0 9.8 2.5 11.5 2.5"/><polygon class="cls-3" points="7.9 3 15 3 15 2.5 11.5 2.5 9.8 2.5 8.6 2.5 8.5 2.5 8.5 2.3 8.5 0 7.9 0 7.9 3"/><polygon class="cls-3" points="7.9 4.6 7.9 7.7 8.5 7.7 8.5 5.3 8.5 5.1 9.8 5.1 10.9 5.1 11.5 5.1 15 5.1 15 4.6 7.9 4.6"/><path class="cls-3" d="M6.4,3V0H5.9V2.5H0V3Z"/><polygon class="cls-3" points="4.5 5.1 5.7 5.1 5.9 5.1 5.9 5.3 5.9 7.7 6.4 7.7 6.4 4.6 0 4.6 0 5.1 2.8 5.1 4.5 5.1"/><polygon class="cls-1" points="6.4 4.6 6.4 7.7 7.9 7.7 7.9 4.6 15 4.6 15 3 7.9 3 7.9 0 6.4 0 6.4 3 0 3 0 4.6 6.4 4.6"/><polygon class="cls-4" points="5.7 5.1 4.5 5.1 0 7.4 0 7.7 0.5 7.7 5.7 5.1"/><polygon class="cls-4" points="9.8 5.1 15 7.7 15 7.1 10.9 5.1 9.8 5.1"/><polygon class="cls-4" points="9.8 2.5 14.8 0 13.6 0 8.6 2.5 9.8 2.5"/><path class="cls-4" d="M4.5,2.5.8.7l-.3.4L3.4,2.5Z"/><path class="cls-3" d="M19.5,10.2h0V10h.1V9.7h.1v.2h.1v.1h0v.1h.1V9.6h.1V9.5h-.1v.3h.1V9.5h0V10h.1V9.2h-.5V8.9h3.4v.2h.2v.2H24v.2h1v.2h0v.2h.1v.2h.4v.2h.2v.6H25v.4H25V9.4h.1v.2h.1V9.5h.1v.2h.2V9.4h0v.2h.1V9.5h.2v.2h.1V9.6h0v.2l.2-.2v.1h.1v.3h0V3.7H19.5Z"/><polygon class="cls-5" points="26.1 9.5 26.1 9.7 26.1 9.9 26 9.8 26 9.5 26 9.7 25.8 9.9 25.8 9.7 25.8 9.6 25.8 9.4 25.8 9.7 25.7 9.8 25.7 9.8 25.7 9.6 25.7 9.5 25.6 9.5 25.6 9.6 25.6 9.6 25.6 9.7 25.6 9.7 25.5 9.7 25.6 9.6 25.5 9.5 25.5 9.4 25.5 9.5 25.4 9.7 25.4 9.8 25.3 9.7 25.3 9.5 25.3 9.4 25.3 9.7 25.2 9.8 25.2 9.8 25.1 9.7 25.1 9.6 25.2 9.4 25.1 9.5 25.1 9.7 25 9.7 25 9.6 25.1 9.4 25 9.4 25 9.7 24.9 9.7 24.8 9.7 24.8 9.7 24.8 9.7 24.8 9.8 24.8 9.9 24.7 10 24.6 10 24.5 10.1 24.5 10.1 24.4 10.1 24.4 10.1 24.5 10.2 24.5 10.2 24.6 10.3 24.6 10.3 24.6 10.2 24.7 10.2 24.8 10.2 24.9 10.3 24.9 10.3 24.9 10.4 24.9 10.4 25 10.5 25 10.6 25.1 10.7 25 10.8 25 10.9 24.9 11 24.9 11 24.9 10.9 24.8 10.8 24.7 10.8 24.7 10.8 24.7 10.9 24.7 10.9 24.7 11 24.7 11.1 24.6 11.2 24.6 11.3 24.5 11.3 24.5 11.2 24.5 11.1 24.5 11 24.4 11 24.4 10.9 24.4 10.9 24.3 10.9 24.3 11 24.3 11 24.2 11 24.1 11.2 24 11.2 24 11.1 24 11 24 10.9 24 10.9 24 10.8 24.1 10.8 24 10.8 24 10.7 23.9 10.7 23.9 10.6 23.8 10.6 23.8 10.5 23.7 10.5 23.7 10.4 23.7 10.4 23.6 10.5 23.5 10.5 23.5 10.5 23.4 10.5 23.2 10.6 23.1 10.7 23.1 10.7 23.2 10.7 23.2 10.7 23.3 10.8 23.3 10.8 23.2 10.8 23.2 10.9 23.2 10.9 23.1 10.9 23 10.9 23 11 23 11 22.9 11 22.8 10.9 22.7 10.9 22.7 11 22.6 10.9 22.6 11 22.4 11 22.4 10.9 22.4 10.8 22.4 10.7 22.4 10.7 22.5 10.7 22.5 10.7 22.5 10.7 22.5 10.6 22.4 10.6 22.4 10.6 22.3 10.6 22.2 10.6 22.1 10.5 21.9 10.5 21.8 10.6 21.8 10.6 21.7 10.7 21.7 10.7 21.6 10.7 21.6 10.7 21.6 10.7 21.6 10.7 21.6 10.8 21.6 10.8 21.6 10.9 21.6 11 21.4 11.1 21.4 11.1 21.4 11.1 21.4 11 21.4 11 21.4 10.9 21.3 10.9 21.3 10.9 21.3 10.9 21.3 10.9 21.3 10.9 21.2 11 21.1 11 21.1 11 21.1 11.2 21.1 11.3 21 11.2 21 11.1 20.9 11 20.9 10.9 20.9 10.9 20.9 10.8 20.8 10.9 20.8 10.8 20.7 10.9 20.7 11 20.7 11 20.7 11 20.6 10.9 20.6 10.8 20.6 10.7 20.6 10.6 20.6 10.6 20.6 10.5 20.7 10.4 20.7 10.4 20.7 10.3 20.8 10.3 20.8 10.3 20.9 10.3 21 10.2 21 10.3 21.1 10.3 21.2 10.3 21.3 10.3 21.3 10.2 21.3 10.1 21.4 10.1 21.4 10 21.2 10 21.1 10 21.1 9.9 21 9.9 21 9.9 20.9 9.8 20.9 9.9 20.8 10 20.7 9.7 20.7 10 20.6 9.8 20.6 9.5 20.6 9.5 20.6 9.7 20.6 9.9 20.5 10.1 20.5 10 20.4 9.9 20.4 9.6 20.4 9.5 20.4 9.7 20.4 9.9 20.4 10.1 20.3 9.9 20.3 9.7 20.2 9.6 20.2 9.8 20.2 9.9 20.1 9.8 20 9.4 20 9.7 20 9.8 20 9.9 19.9 9.7 19.9 9.5 19.8 9.3 19.8 9.6 19.9 9.8 19.8 9.8 19.8 9.8 19.7 9.6 19.7 9.4 19.7 9.6 19.6 9.7 19.6 9.9 19.6 10 19.5 10 19.5 10.2 19.5 10.3 19.8 10.6 20.4 11.1 21.5 11.7 22.8 12.5 25.2 11.2 25.8 10.8 26.2 10.3 26.2 10.2 26.2 9.7 26.1 9.5"/><path class="cls-6" d="M21.1,10h0V11h3V11h.7V9.2h.6V8.7h-.2V8.3h-.4V7.4h-.1V7.1h0V6.4h-1V6.1h-.3V4.4h-.2V4.1H20.2v.2h.5v.4h.2Zm-.3.3h0Zm0,.5h-.1V11h.1Zm.3.2Zm.5-.1h0Zm.2-.4h0Zm.8.4h-.9V10h0v.2h.8ZM21.5,9.8h.3v.5h0v.2h-.3Zm.3-2.1Zm0-.1Zm0,.1Zm0,.1Zm0,0Zm1.3,0-.3-.7.4.8Zm.1.2Zm-.5-.8.3.7h-.1Zm.2.8h0Zm-.1,0-.2-.8.2.7Zm0,0h0Zm0,0Zm0-.1V7.2l.2.7ZM23,8Zm0-.1-.2-.8.3.8Zm.1.1h0Zm-.3-.9h0Zm-.2.1v.7h0V7.3Zm.1.8h0Zm0,.2h1v.8h-.3v.2h-.6V9.1h-.2V8.7h.2Zm1,.3V8h0l.2.2v.2h.3v.2h-.4V8.6Zm.2-.7h.4v.4l.2.2h-.4L24,8.4h0V7.9h.1Zm-.3.1h0Zm0-.1Zm0,.1Zm-.1,0Zm0,0h0Zm-.1,0h0Zm-.1.1Zm-.1-.1h0Zm-.9.1h0Zm0,0Zm0,.1h0Zm.1.1Zm.1.1Zm0,0Zm0-.1Zm-.1-.1Zm0,0Zm0-.1h0Zm-.1,0Zm0-.1Zm0,0Zm-.1-.1Zm-.1-.1Zm.1.1Zm0,0Zm0,.1h0Zm.1,0h0Zm-.1-.1Zm0,0Zm0-.1Zm0,0Zm-.1-.1h0Zm.1.3h.1v.4h0V9h-.1V8.5h-.1V7.9h0V7.6h.1ZM22,8h.1v.4H22V8.6h0V8h-.1V7.5h.1v.3Zm-.2-.1h0Zm0-.1Zm.1.2h0Zm0,0Zm-.1.1Zm0,0Zm0,.2Zm0-.2h0Zm.1,0Zm0,.1Zm0,.1Zm-.1.5h0Zm0,0h0Zm.1-.1h0Zm0-.1Zm0-.1Zm0,0Zm0-.1h0Zm-.1.3Zm0,.2h0Zm.1.1Zm0,0h0Zm0-.2h0Zm.1,0Zm0,.1Zm0,0h0Zm-.2-1.1Zm0-.1Zm0,0Zm0-.1h0Zm0,.3Zm0,0h0Zm0,.1Zm0,0Zm0,.2Zm0,.2Zm0,0h0Zm0,.1h0Zm0,.1h0ZM23,10.9H22V9.7h0V9.3h1.3V9.2h.6v.2h0V8.9h.6V9h.2v.2h0v.4H23Zm1.7-2.1h0Zm-1.1,1.6h-.1l-.3.2h-.1v.2h.7l.2-.2h-.1Zm.5.7Zm.6,0h-.1V11h.1Zm.3-.4h0Zm-.6-.5h-.5l.2-.2h.3Zm.4-2.4h.9V9h-.2V9h0v.2h-.1V9.1h-.5Zm.4-.4h-.4l-.2.2h-.1v.7l.2.2H25v.7h-.1l-.2.2h0l.2-.2h0V9h0l-.2-.2h-.1l-.2-.3V7.8h.1l.2-.2h.4Zm-.1-1.2h0Zm-1,.2h0Zm.9,0Zm-1.7.2Zm-.2-.1h0Zm-.6.1Zm-1.6-.1h0V6.3h0Zm.3-.1h0Zm.1.2ZM22.5,6Zm.6.3h0Zm1.4.3Zm.3-.1h0Zm.1,0V6.3h0Zm-1-.3Zm-.1,0h0Zm-.1-1.7Zm-1.5-.1h0Zm.6.7ZM22.7,5c0-.1.2-.2.2,0Zm.3-.1c0-.1.2,0,.2.1S23,5.1,23,4.9Zm-.9,0Zm-.1.8h.2V5.3h-.1v.2h.1l.2-.2h.4v.2h.4a1,1,0,0,0,.1-.3h.3l.2.2h-.2V5.1h0v.2h.1V6h.1V5.8h-.4V5.7h0V6h-.2v0h0v.2h-.5v.2h-.1V5.5H22Zm.1.1h.2v.2h-.2ZM22,6h0Zm-.2.2h0Zm-1.1.1h0Zm0,.2h0Zm-.1.7h3.9v.2H23.2V7.5l-.2-.3h-.2v0h0v.4h-.3v.2h.3V8h-.1v.2h-.1V7.8h-.1L22,7.4h-.1V7.2h-.2V8.9h-.2v0h-.2V8.6h.1V7.7h-.2V7.2h0V7.3h-.4Zm1.9-.3h0ZM20.6,8.7h-.1v.2h-.1V9h-.2v0h-.1V8.7h.1V8h.8V8h-.6v.2h0ZM21,9.8V9.6h-.1V9.2h0V8.8h0l.3-.3h.1V8.3h0V8h0V7.7h.1v.2h0v.2h-.1v.2H21l-.2.2h0V9l.2.5v.2h.1Z"/><path class="cls-7" d="M22.9,5c0-.2-.2-.1-.2,0Z"/><path class="cls-7" d="M23.2,5c0-.1-.2-.2-.2-.1S23.2,5.1,23.2,5Z"/><path class="cls-7" d="M22.3,4.5Zm.3,0Z"/><path class="cls-6" d="M22.6,4.6Zm.5,0Zm-.4-.1Z"/><polygon class="cls-8" points="22.7 4.6 22.7 4.6 22.8 4.6 22.8 4.6 22.8 4.6 22.8 4.6 22.7 4.6 22.7 4.5 22.7 4.5 22.7 4.5 22.6 4.5 22.6 4.6 22.7 4.6"/><polygon class="cls-8" points="23.2 4.6 23.3 4.5 23.3 4.5 23.2 4.5 23.2 4.5 23.2 4.5 23.2 4.5 23.2 4.5 23.2 4.6 23.1 4.6 23.1 4.6 23.1 4.6 23.1 4.6 23.2 4.6"/><polygon class="cls-7" points="22.2 4.9 22.2 4.9 22.3 4.8 22.3 4.8 22.3 4.8 22.4 4.7 22.4 4.8 22.4 4.8 22.4 4.7 22.5 4.7 22.4 4.7 22.4 4.7 22.4 4.6 22.4 4.6 22.3 4.6 22.3 4.5 22.3 4.5 22.3 4.5 22.2 4.4 22.2 4.4 22.2 4.5 22.2 4.5 22.2 4.5 22.2 4.5 22.2 4.5 22.3 4.6 22.3 4.6 22.3 4.6 22.3 4.6 22.3 4.7 22.3 4.7 22.3 4.7 22.2 4.8 22.2 4.8 22.1 4.9 22.1 4.9 22.1 4.9 22.1 4.8 22.1 4.8 22.1 4.8 22.1 4.8 22.1 4.9 22.1 4.9 22.1 4.9 22.2 4.9 22.2 4.9"/><polygon class="cls-9" points="23.5 4.5 23.5 4.6 23.5 4.6 23.4 4.6 23.4 4.7 23.4 4.7 23.5 4.7 23.5 4.7 23.5 4.7 23.6 4.7 23.6 4.7 23.6 4.7 23.6 4.7 23.6 4.6 23.7 4.6 23.7 4.6 23.7 4.6 23.7 4.5 23.7 4.5 23.7 4.5 23.6 4.5 23.5 4.5"/><polygon class="cls-7" points="22.7 5.2 22.8 5.2 22.8 5.2 22.8 5.2 22.9 5.3 22.9 5.3 22.9 5.4 22.9 5.4 23 5.4 23 5.3 23 5.3 23 5.3 23 5.2 23 5.3 23.1 5.2 23.1 5.2 23.1 5.2 23.1 5.1 23.1 5.1 23 5.1 23 5.1 22.9 5.1 22.9 5.1 22.8 5.1 22.8 5.1 22.8 5.2 22.7 5.2"/><path class="cls-7" d="M22.2,5.6h.1v.2h.1V5.7H23V6h0v0h.2V5.8h0V6h.4V6h-.1V5.8h-.1V5.5h0v.2h.2l-.2-.2h-.3a1,1,0,0,1-.1.3h-.4V5.2h-.4l-.2.2h-.1V5h.1v.2h0Z"/><polygon class="cls-7" points="20.7 6.3 20.7 6.3 20.8 6.3 20.8 6.3 20.8 6.3 20.9 6.2 21 6.2 21 6.2 21 6.3 21 6.3 21.1 6.3 21.1 6.3 21.1 6.3 21.2 6.3 21.2 6.3 21.3 6.3 21.3 6.3 21.3 6.4 21.2 6.4 21.2 6.4 21.3 6.4 21.3 6.5 21.2 6.5 21.2 6.5 21.3 6.5 21.3 6.6 21.3 6.6 21.3 6.7 21.3 6.7 21.4 6.6 21.5 6.6 21.6 6.6 21.8 6.5 21.8 6.4 21.8 6.4 21.8 6.3 21.7 6.3 21.6 6.4 21.4 6.4 21.4 6.3 21.4 6.2 21.3 6.1 21.3 6.1 21.2 6.1 21.2 6.1 21.1 6.2 21.1 6.2 21 6.1 20.9 6.1 20.9 6.1 20.8 6.1 20.8 6.2 20.8 6.2 20.7 6.1 20.7 6.1 20.6 6.2 20.6 6.2 20.6 6.2 20.6 6.3 20.6 6.3 20.6 6.3 20.7 6.3 20.7 6.3 20.7 6.3"/><polygon class="cls-10" points="20.8 6.5 20.8 6.4 20.8 6.3 20.8 6.3 20.7 6.3 20.7 6.4 20.7 6.4 20.7 6.4 20.7 6.5 20.8 6.5 20.8 6.5"/><polygon class="cls-10" points="21 6.3 21 6.3 20.9 6.3 20.9 6.3 20.9 6.5 20.9 6.5 21 6.4 21 6.3"/><polygon class="cls-10" points="21.2 6.3 21.2 6.3 21.1 6.3 21.1 6.4 21 6.5 21 6.5 21.1 6.5 21.2 6.4 21.2 6.4 21.2 6.3 21.2 6.3"/><polygon class="cls-10" points="21.1 6.6 21.1 6.6 21.1 6.6 21.2 6.6 21.2 6.6 21.3 6.6 21.3 6.6 21.3 6.6 21.2 6.5 21.2 6.5 21.1 6.6"/><polygon class="cls-11" points="22.5 6.5 22.4 6.5 22.4 6.5 22.4 6.5 22.3 6.6 22.4 6.7 22.4 6.7 22.5 6.7 22.5 6.7 22.6 6.6 22.7 6.5 22.6 6.4 22.6 6.4 22.5 6.3 22.5 6.3 22.3 6.3 22.2 6.3 22.2 6.3 22.1 6.4 22 6.4 21.9 6.4 21.9 6.5 21.9 6.5 21.8 6.5 21.7 6.6 21.6 6.6 21.5 6.6 21.4 6.7 21.3 6.7 21.2 6.7 21.2 6.7 21.1 6.7 21.1 6.6 21 6.6 21 6.6 20.9 6.6 20.9 6.6 20.9 6.6 21 6.7 21.1 6.7 21.1 6.8 21.2 6.8 21.3 6.8 21.4 6.8 21.5 6.8 21.6 6.8 21.7 6.7 21.7 6.7 21.8 6.7 21.8 6.6 21.9 6.6 22 6.6 22.1 6.5 22.3 6.4 22.4 6.4 22.5 6.4 22.5 6.4 22.5 6.5 22.5 6.5 22.5 6.6 22.5 6.6 22.5 6.6 22.5 6.5 22.5 6.5"/><polygon class="cls-7" points="21.8 6.4 21.9 6.5 21.9 6.4 21.9 6.4 22 6.4 22 6.4 22 6.3 22.1 6.3 22.1 6.3 22.2 6.3 22.2 6.3 22.2 6.2 22.1 6.2 22 6.2 22 6.2 21.9 6.2 21.9 6.2 21.8 6.2 21.8 6.3 21.8 6.4 21.8 6.4"/><polygon class="cls-7" points="22.2 6.2 22.3 6.2 22.3 6.2 22.4 6.2 22.5 6.1 22.5 6.1 22.5 6.1 22.4 6.1 22.3 6.1 22.3 6 22.2 6 22.2 6 22.2 5.9 22.2 5.9 22.1 5.9 22.1 5.9 22 6 22 6.1 22.1 6.1 22.2 6.2"/><polygon class="cls-7" points="22.2 5.8 22.3 5.9 22.3 5.9 22.3 5.7 22.3 5.7 22.3 5.7 22.3 5.6 22.3 5.6 22.2 5.7 22.1 5.8 22.1 5.8 22.1 5.8 22.1 5.8 22.1 5.8 22.2 5.8"/><polygon class="cls-7" points="22.5 6.1 22.5 6.2 22.4 6.2 22.4 6.2 22.3 6.2 22.3 6.3 22.4 6.2 22.5 6.3 22.5 6.3 22.6 6.3 22.7 6.3 22.8 6.3 22.7 6.3 22.7 6.2 22.7 6.2 22.7 6.1 22.6 6.2 22.6 6.1 22.6 6.1 22.6 6.1 22.5 6 22.5 6 22.5 6 22.5 6 22.5 6.1 22.5 6.1 22.5 6.1"/><polygon class="cls-12" points="23.1 6.4 22.7 6.4 22.7 6.5 22.6 6.6 22.7 6.6 22.8 6.6 22.9 6.6 22.9 6.6 23 6.6 23.1 6.6 23.1 6.6 23.1 6.5 23.1 6.5 23.1 6.4 23.1 6.4"/><polygon class="cls-7" points="23.2 6.3 23.2 6.2 23.2 6.2 23.2 6.2 23.1 6.1 23.1 6.1 23.1 6.2 23.1 6.3 23.2 6.3 23.2 6.3"/><polygon class="cls-7" points="23.8 6.2 23.7 6.2 23.6 6.2 23.6 6.2 23.6 6.2 23.5 6.2 23.7 6.3 23.7 6.3 23.8 6.3 23.8 6.3 23.8 6.2 23.8 6.1 23.8 6.1 23.8 6.2"/><polygon class="cls-7" points="23.8 6.3 23.8 6.3 23.8 6.4 23.8 6.4 24 6.4 24 6.3 24 6.3 24 6.2 24 6.2 23.9 6.1 23.9 6.2 23.9 6.2 23.8 6.3 23.8 6.3"/><polygon class="cls-7" points="24.1 6.5 24.2 6.5 24.2 6.6 24.2 6.6 24.3 6.6 24.3 6.6 24.4 6.6 24.5 6.6 24.5 6.6 24.5 6.5 24.5 6.5 24.5 6.5 24.5 6.5 24.5 6.4 24.5 6.4 24.5 6.5 24.6 6.5 24.6 6.5 24.7 6.5 24.7 6.5 24.8 6.5 24.8 6.5 24.7 6.4 24.7 6.4 24.6 6.4 24.6 6.3 24.7 6.3 24.7 6.3 24.8 6.3 24.8 6.3 24.8 6.2 24.9 6.2 24.9 6.2 24.9 6.3 24.9 6.3 25 6.3 25 6.3 25 6.3 25 6.3 25 6.3 25 6.2 25.1 6.1 25.1 6.2 25.1 6.1 25.1 6.1 25 6.1 24.9 6.1 24.8 6.1 24.7 6.2 24.6 6.2 24.6 6.2 24.5 6.2 24.4 6.3 24.4 6.3 24.2 6.3 24.1 6.3 24.1 6.4 24.1 6.4 24.1 6.5 24.1 6.5"/><polygon class="cls-13" points="23.3 6.4 23.4 6.4 23.4 6.4 23.5 6.4 23.6 6.4 23.7 6.5 23.7 6.5 23.8 6.5 23.9 6.5 23.9 6.6 24 6.6 24.2 6.7 24.3 6.7 24.4 6.7 24.6 6.7 24.7 6.7 24.7 6.7 24.7 6.7 24.8 6.6 24.9 6.5 24.9 6.5 24.8 6.5 24.7 6.6 24.7 6.6 24.6 6.7 24.5 6.7 24.4 6.7 24.4 6.7 24.2 6.6 24.1 6.5 23.9 6.4 23.8 6.4 23.5 6.3 23.4 6.3 23.3 6.3 23.2 6.3 23.2 6.4 23.1 6.4 23.1 6.5 23.2 6.6 23.2 6.6 23.3 6.7 23.4 6.6 23.5 6.6 23.5 6.5 23.4 6.5 23.3 6.5 23.3 6.5 23.3 6.5 23.4 6.6 23.4 6.5 23.4 6.5 23.4 6.6 23.3 6.6 23.3 6.6 23.3 6.5 23.3 6.5 23.3 6.4"/><polygon class="cls-14" points="24.6 6.6 24.6 6.6 24.7 6.6 24.8 6.6 24.8 6.5 24.7 6.5 24.6 6.5 24.6 6.5 24.5 6.5 24.5 6.6 24.5 6.6 24.6 6.6 24.6 6.6"/><path class="cls-14" d="M25,6.2Z"/><polygon class="cls-14" points="24.9 6.4 24.9 6.3 24.9 6.3 24.9 6.2 24.8 6.2 24.8 6.3 24.9 6.3 24.9 6.5 24.9 6.4 24.9 6.4"/><polygon class="cls-14" points="24.8 6.4 24.8 6.3 24.8 6.3 24.7 6.3 24.7 6.3 24.6 6.3 24.6 6.4 24.7 6.4 24.8 6.4 24.8 6.5 24.8 6.5 24.8 6.4 24.8 6.4"/><path class="cls-15" d="M21.3,7.1h-.2v.2h.2v.4h-.1v.2h.2v0h.2V7.6h.2v.2H22l.2.3h.1v.4h.1V8h.1V7.6h-.3V7.3h-1Zm-.1.3h0Zm.2,1.1v.1h0Zm1.1-.4v0Zm-.9-.3h0V7.4h0V8h0v.2h-.1V8.4h0V8.3h0V7.8h0Z"/><polygon class="cls-16" points="21.9 7.6 21.8 7.5 21.8 7.7 21.9 7.7 21.9 7.8 21.9 7.9 21.9 8 21.9 8.2 22 8.5 22 8.6 22 8.8 22 8.9 22 8.9 22.1 9 22.1 9 22.1 9 22.2 8.9 22.2 8.9 22.2 8.8 22.1 8.6 22.1 8.4 22 8.3 22 8.2 22 8.1 22 8 21.9 7.9 21.9 7.6"/><polygon class="cls-17" points="22 7.6 22 7.5 21.9 7.5 21.9 7.5 22 7.6 22 7.8 22 7.9 22.1 8.1 22.1 8.3 22.2 8.4 22.2 8.5 22.3 8.8 22.3 8.9 22.4 9 22.4 9 22.4 8.8 22.4 8.7 22.5 8.6 22.5 8.6 22.5 8.5 22.4 8.4 22.3 8.2 22.3 8 22.2 8 22.2 7.9 22.1 7.7 22 7.6"/><path class="cls-18" d="M21.3,10h-.2V9.5L20.8,9V8.8h0l.2-.2h.2V8.3h.1V8h0V7.7h-.1v.2h0v.2h0v.2H21l-.3.3h0V9h0v.3H21v.2l.2.2Z"/><polygon class="cls-19" points="22.5 10.6 22.4 10.5 22.2 10.4 22 10.4 21.9 10.3 21.8 10.2 21.7 10 21.8 9.9 21.8 9.9 21.9 9.9 21.8 9.9 21.8 9.9 21.8 10 21.9 10 21.9 9.9 21.9 9.9 21.9 9.8 21.9 9.8 21.8 9.8 21.7 9.9 21.7 9.9 21.7 10 21.7 10.2 21.8 10.3 22 10.4 22.3 10.5 22.4 10.6 22.5 10.7 22.6 10.8 22.5 10.9 22.5 10.9 22.5 10.8 22.5 10.8 22.5 10.8 22.5 10.8 22.4 10.7 22.4 10.8 22.4 10.9 22.4 10.9 22.5 10.9 22.6 10.9 22.6 10.9 22.6 10.8 22.6 10.7 22.5 10.6"/><polygon class="cls-20" points="23.9 10.1 24 10 23.9 9.9 23.9 9.9 23.8 9.9 23.7 9.9 23.7 10 23.8 10 23.9 10 23.9 9.9 23.8 9.9 23.9 9.9 23.9 10 23.9 10.1 23.7 10.3 23.4 10.4 23.2 10.5 23.1 10.6 23 10.7 23 10.7 23 10.8 23 10.9 23.1 10.9 23.2 10.9 23.2 10.8 23.2 10.8 23.1 10.7 23.1 10.7 23.1 10.8 23.1 10.8 23.1 10.9 23.1 10.8 23 10.8 23.1 10.6 23.2 10.6 23.5 10.4 23.6 10.4 23.8 10.2 23.9 10.1"/><polygon class="cls-21" points="25 7.4 24.9 7.4 24.8 7.4 24.6 7.6 24.6 7.7 24.5 7.8 24.4 8 24.4 8.3 24.6 8.6 24.7 8.7 24.9 8.9 25 8.9 24.9 9 24.8 9.4 24.7 9.6 24.7 9.7 24.5 9.9 24.3 10 24.1 10 24 9.9 24 9.9 24 9.8 24.1 9.8 24.1 9.8 24.1 9.8 24.1 9.8 24.2 9.7 24.1 9.7 24.1 9.7 24 9.7 24 9.7 24 9.8 24 9.9 24 10 24.1 10 24.2 10.1 24.4 10 24.5 10 24.7 9.8 24.8 9.7 24.9 9.4 25 9 25 8.9 25.1 8.9 25.1 8.8 25 8.8 24.9 8.7 24.8 8.7 24.6 8.5 24.5 8.3 24.5 8.1 24.5 7.8 24.6 7.7 24.8 7.5 24.9 7.4 25.1 7.4 25.1 7.5 25.1 7.5 25.1 7.5 25 7.5 25 7.6 25 7.6 25.1 7.6 25.2 7.5 25.2 7.4 25.1 7.4 25 7.4"/><polygon class="cls-22" points="23.5 7.7 23.4 7.7 23.3 7.8 23.3 7.8 23.2 7.8 23.2 7.8 23.3 7.8 23.3 7.8 23.4 7.8 23.4 7.8 23.4 7.8 23.5 7.8 23.5 7.8 23.6 7.8 23.6 7.8 23.6 7.7 23.5 7.7 23.5 7.7"/><polygon class="cls-14" points="25 6.4 25 6.4 25 6.4 25 6.4 25 6.4"/><polygon class="cls-22" points="23.8 7.7 23.7 7.7 23.7 7.7 23.7 7.8 23.7 7.8 23.7 7.8 23.8 7.9 23.9 8.2 24 8.4 24 8.4 24.2 8.6 24.2 8.7 24.2 8.7 24.3 8.7 24.3 8.6 24.4 8.6 24.4 8.6 24.5 8.6 24.6 8.6 24.4 8.4 24.4 8.2 24.3 8 24.4 8 24.4 8 24.4 7.9 24.3 7.9 24.3 7.9 24.3 7.9 24.2 7.9 24.2 7.9 24.2 7.9 24.1 7.9 24 7.8 24 7.8 23.9 7.8 23.8 7.8 23.8 7.8 23.8 7.7"/><path class="cls-22" d="M22.9,10.7h1.7V9.3h0V9h-.2V8.8H24v.2h0V9h-.6v.2H21.9v.2h0v.2h.9Zm1.4-1.4h0Zm-.9.3h0Zm-.7,0h0Zm0,.1h-.1Zm-.4-.3h0Zm.1.4h-.1V9.4h.1Zm0,.5h0Zm.5.6h0Z"/><path class="cls-22" d="M21.5,9.7h.3V9.6h0V9.1h-.3Zm-.3-.1Zm.1.1h0Z"/><polygon class="cls-8" points="24.7 8.8 24.7 8.8 24.7 8.8 24.7 8.8 24.7 8.7 24.7 8.8 24.7 8.8 24.7 8.8 24.7 8.8"/><path class="cls-7" d="M24.7,7.8h.6v.2h.1V9.1h0V8.8h.2V8.8h-1Z"/><polygon class="cls-7" points="20.7 8.7 20.6 8.6 20.6 8.4 20.7 8.5 20.7 8.6 20.7 8.6 20.8 8.7 20.8 8.6 20.8 8.6 20.8 8.5 20.7 8.5 20.7 8.4 20.8 8.5 20.8 8.6 20.9 8.6 20.9 8.5 21 8.4 21 8.4 20.9 8.4 20.9 8.4 20.8 8.3 20.8 8.2 20.8 8.3 20.8 8.3 20.9 8.4 20.9 8.4 21 8.4 21.1 8.3 21.2 8.2 21.2 8.1 21.1 8 21.1 7.8 21.1 7.8 21 7.8 20.8 7.8 20.8 7.8 20.7 7.8 20.6 7.8 20.5 7.9 20.5 7.9 20.4 7.9 20.3 8 20.3 8.2 20.3 8.2 20.3 8.3 20.3 8.4 20.3 8.5 20.3 8.6 20.2 8.7 20.2 8.9 20.2 9.1 20.2 9.1 20.1 9.2 20.1 9.3 20.2 9.2 20.2 9.2 20.2 9.3 20.3 9.2 20.3 9.2 20.3 9.2 20.3 9.1 20.3 8.8 20.3 9.1 20.4 9.1 20.4 9.1 20.4 9 20.4 9.1 20.4 9.2 20.5 9.2 20.5 9.1 20.5 9 20.4 8.8 20.4 8.6 20.5 8.8 20.5 8.9 20.6 9 20.6 9.1 20.6 9.2 20.7 9.2 20.7 9.1 20.6 9.1 20.7 9.1 20.7 9 20.6 8.9 20.6 8.9 20.5 8.7 20.6 8.8 20.6 8.8 20.6 8.8 20.6 8.7 20.6 8.6 20.7 8.7 20.7 8.7"/><polygon class="cls-7" points="24.3 10.1 24.2 10.1 24.1 10.1 23.9 10.3 23.8 10.3 23.8 10.4 23.8 10.4 23.8 10.5 23.9 10.5 23.9 10.5 24 10.6 24 10.7 24.1 10.7 24.1 10.8 24 10.8 24.1 10.9 24.1 10.9 24.2 10.9 24.2 10.9 24.2 11 24.2 11 24.3 11 24.3 10.9 24.3 10.8 24.3 10.8 24.3 10.7 24.3 10.8 24.4 10.8 24.4 10.8 24.4 10.9 24.5 11 24.5 11 24.5 11 24.5 10.9 24.5 10.8 24.6 10.7 24.6 10.7 24.6 10.7 24.7 10.8 24.7 10.8 24.7 10.8 24.7 10.7 24.6 10.6 24.6 10.6 24.5 10.5 24.5 10.4 24.5 10.5 24.6 10.5 24.7 10.6 24.7 10.6 24.8 10.7 24.8 10.8 24.8 10.7 24.9 10.6 24.9 10.5 24.9 10.5 25 10.6 25 10.5 24.9 10.4 24.8 10.3 24.8 10.3 24.7 10.2 24.6 10.3 24.6 10.3 24.6 10.3 24.5 10.3 24.4 10.2 24.4 10.2 24.4 10.1 24.3 10.1"/><polygon class="cls-23" points="24.7 10.9 24.6 10.8 24.6 10.8 24.6 10.9 24.6 11 24.6 11 24.6 11.2 24.7 11.1 24.7 11 24.7 10.9 24.7 10.9"/><polygon class="cls-23" points="25 10.6 24.9 10.6 24.9 10.7 24.9 10.8 24.9 10.8 24.9 10.9 24.9 11 24.9 10.9 25 10.8 25 10.7 25 10.7 25 10.6 25 10.6"/><polygon class="cls-23" points="24.2 10.9 24.1 10.9 24.1 10.9 24 11 24 11.1 24 11.1 24.1 11.1 24.1 11.1 24.2 11 24.2 10.9 24.2 10.9"/><polygon class="cls-24" points="21.5 10.8 21.4 10.8 21.4 10.8 21.4 10.9 21.4 10.9 21.4 11 21.4 11 21.5 11 21.6 10.9 21.6 10.8 21.5 10.8 21.5 10.8"/><polygon class="cls-24" points="21 10.8 21 10.8 21 10.9 20.9 11 20.9 11 21 11.1 21.1 11.2 21.1 11.1 21.1 11.1 21.1 11 21.1 11 21.1 10.9 21.1 10.9 21 10.8"/><polygon class="cls-24" points="20.7 10.6 20.7 10.6 20.6 10.6 20.6 10.7 20.6 10.8 20.6 10.9 20.7 10.9 20.7 11 20.7 10.8 20.7 10.8 20.8 10.8 20.8 10.7 20.8 10.7 20.7 10.6"/><path class="cls-24" d="M20.8,10.3h0Z"/><polygon class="cls-7" points="21.7 10.3 21.7 10.2 21.7 10.2 21.6 10.1 21.6 10.1 21.6 10 21.5 10 21.4 10.1 21.3 10.2 21.3 10.3 21.2 10.3 21.2 10.3 21.1 10.3 21 10.3 20.9 10.3 20.9 10.3 20.8 10.4 20.8 10.4 20.7 10.5 20.6 10.5 20.7 10.5 20.7 10.5 20.8 10.6 20.8 10.6 20.8 10.7 20.8 10.8 20.8 10.8 20.9 10.7 21 10.6 21.1 10.6 21.2 10.5 21.2 10.6 21.2 10.6 21.1 10.6 21.1 10.6 21 10.7 20.9 10.8 20.9 10.8 21 10.8 21.1 10.8 21.1 10.8 21.1 10.9 21.2 10.9 21.3 10.9 21.3 10.9 21.3 10.8 21.3 10.8 21.3 10.8 21.3 10.7 21.3 10.7 21.3 10.8 21.3 10.8 21.4 10.8 21.4 10.7 21.5 10.7 21.6 10.7 21.5 10.7 21.5 10.6 21.6 10.6 21.7 10.6 21.8 10.5 21.9 10.4 21.8 10.4 21.7 10.3"/><path class="cls-25" d="M22.6,8.3h-.1V9h.2v.2h.6V9.1h.3V8.1H22.6Zm-.1.2h0Zm.1.8h0Zm-.1-.4h-.1l1.2-.2Zm1.1-.7Zm-.1,0h0Zm-.1,0Zm-.1,0Zm-.1.1Zm-.1,0h0Zm-.2,0h0Zm0,.1h0Zm-.1,0Zm.8-.1-.9.3h-.2Zm-.9.1Zm0,.1h0Z"/><path class="cls-25" d="M23.8,8.9h.3V8.7h-.3V8.2L23.7,8h0v.5h0v.3Zm.3-.4h0Z"/><polygon class="cls-26" points="22.5 6.9 22.6 6.9 22.6 6.8 22.5 6.9"/><polygon class="cls-27" points="22.5 7.2 22.8 7.1 22.8 7 22.5 7.1 22.5 7.2"/><polygon class="cls-28" points="22.7 8 22.7 8 22.7 7.9 22.6 7.2 22.6 7.3 22.6 7.5 22.7 8"/><polygon class="cls-29" points="22.6 7.2 22.8 8 22.8 7.9 22.6 7.2"/><polygon class="cls-30" points="22.7 7.2 22.8 7.9 22.9 7.9 22.7 7.2"/><polygon class="cls-31" points="23 7.9 22.7 7.2 22.9 7.9 23 7.9"/><polygon class="cls-32" points="22.8 7.1 23 7.9 23.1 7.9 22.8 7.1"/><polygon class="cls-33" points="22.8 7.1 23.1 7.8 23.2 7.9 22.8 7.1"/><path class="cls-34" d="M20.6,7.3H21v.2h1.5V7.2h0v0h.2l.2.3v.3h1.2V7.6H20.6Z"/><polygon class="cls-8" points="21.3 9.5 21.2 9.5 21.2 9.6 21.2 9.6 21.2 9.5 21.3 9.5"/><polygon class="cls-8" points="21.3 9.4 21.3 9.5 21.3 9.5 21.3 9.4"/><polygon class="cls-8" points="21.3 9.7 21.2 9.6 21.2 9.6 21.3 9.7"/><polygon class="cls-8" points="21.3 9.5 21.3 9.5 21.3 9.5 21.3 9.5"/><polygon class="cls-8" points="21.2 9.6 21.2 9.7 21.2 9.6 21.2 9.6"/><polygon class="cls-35" points="22.6 9.6 22.7 9.7 22.6 9.5 22.6 9.5 22.6 9.6"/><polygon class="cls-36" points="22.7 9.7 22.8 9.7 22.7 9.6 22.6 9.5 22.7 9.6 22.7 9.7"/><path class="cls-35" d="M22.4,9.4h0Z"/><polygon class="cls-35" points="22.5 9.8 22.4 9.8 22.4 9.7 22.4 9.6 22.3 9.5 22.3 9.4 22.4 9.4 22.4 9.4 22.3 9.4 22.3 9.6 22.3 9.7 22.4 9.8 22.4 9.8 22.4 9.8 22.5 9.8 22.5 9.8"/><polygon class="cls-36" points="23.5 9.7 23.5 9.6 23.5 9.6 23.5 9.7 23.6 9.7 23.6 9.7 23.6 9.7 23.7 9.8 23.8 9.7 23.8 9.6 23.9 9.6 23.9 9.6 23.9 9.5 24 9.5 24 9.5 24 9.4 23.9 9.3 23.9 9.3 23.8 9.2 23.8 9.3 23.9 9.3 23.9 9.4 23.9 9.5 23.9 9.5 23.8 9.6 23.8 9.7 23.7 9.7 23.6 9.7 23.6 9.7 23.6 9.6 23.6 9.6 23.6 9.6 23.6 9.5 23.5 9.6 23.4 9.6 23.3 9.7 23.4 9.7 23.5 9.7"/><polygon class="cls-36" points="24.3 9.4 24.4 9.4 24.5 9.4 24.6 9.4 24.6 9.3 24.7 9.2 24.7 9.1 24.7 9.1 24.7 9 24.6 9 24.6 9 24.6 9.1 24.6 9.1 24.6 9.1 24.6 9.1 24.6 9.2 24.6 9.3 24.6 9.3 24.6 9.3 24.6 9.3 24.6 9.3 24.5 9.3 24.4 9.4 24.4 9.4 24.3 9.4 24.3 9.3 24.3 9.2 24.3 9.2 24.3 9.3 24.3 9.3 24.3 9.4 24.3 9.4"/><polygon class="cls-35" points="22.2 10.4 22.2 10.4 22.3 10.4 22.3 10.4 22.4 10.3 22.5 10.3 22.4 10.3 22.2 10.4"/><path class="cls-37" d="M22.7,10.8h0Z"/><polygon class="cls-8" points="21.2 7.3 21.2 7.4 21.2 7.5 21.2 7.4 21.2 7.3"/><polygon class="cls-8" points="21.2 7.3 21.2 7.3 21.2 7.3 21.2 7.3"/><polygon class="cls-8" points="21.2 7.3 21.2 7.3 21.2 7.2 21.2 7.3"/><polygon class="cls-6" points="21.6 8.2 21.6 8.1 21.6 8 21.6 8 21.6 8 21.6 8.3 21.6 8.2"/><polygon class="cls-6" points="21.6 8.5 21.5 8.3 21.5 8.7 21.6 8.5 21.6 8.4 21.6 8.6 21.7 8.6 21.6 8.4 21.6 8.3 21.6 8.3 21.6 8.5"/><polygon class="cls-6" points="21.6 8 21.6 7.2 21.6 7.4 21.6 7.4 21.6 7.6 21.6 7.7 21.6 7.8 21.5 7.7 21.6 7.8 21.6 8"/><line class="cls-38" x1="22.5" y1="8.1" x2="22.4" y2="7.6"/><polygon class="cls-39" points="21.4 8.5 21.4 8.6 21.3 8.3 21.4 8.5"/><polygon class="cls-39" points="21.4 8.6 21.4 8.6 21.4 8.7 21.4 8.6"/><line class="cls-40" x1="23.3" y1="9.2" x2="22.6" y2="9.3"/><polygon class="cls-41" points="22.5 8.9 23.6 8.7 22.4 8.9 22.5 8.9"/><polygon class="cls-41" points="22.7 8.6 23.6 8.3 22.5 8.6 22.7 8.6"/><polygon class="cls-42" points="22.6 8.4 22.5 8.5 22.5 8.5 22.6 8.5 22.6 8.4"/><polygon class="cls-42" points="22.6 8.5 22.7 8.5 22.7 8.4 22.6 8.4 22.6 8.5"/><polygon class="cls-42" points="22.7 8.4 22.7 8.4 22.7 8.5 22.7 8.5 22.7 8.4"/><polygon class="cls-42" points="22.8 8.4 22.8 8.4 22.8 8.5 22.8 8.5 22.8 8.4"/><polygon class="cls-42" points="22.9 8.3 22.9 8.4 22.9 8.4 22.9 8.4 22.9 8.3"/><polygon class="cls-42" points="23 8.3 22.9 8.3 22.9 8.4 23 8.4 23 8.3"/><polygon class="cls-42" points="23.1 8.4 23.1 8.3 23.1 8.3 23.1 8.4 23.1 8.4"/><polygon class="cls-42" points="23.2 8.3 23.2 8.3 23.2 8.4 23.2 8.4 23.2 8.3"/><polygon class="cls-42" points="23.3 8.2 23.3 8.2 23.3 8.3 23.3 8.3 23.3 8.2"/><polygon class="cls-42" points="23.4 8.2 23.4 8.2 23.4 8.3 23.4 8.3 23.4 8.2"/><polygon class="cls-42" points="23.5 8.3 23.5 8.2 23.5 8.2 23.5 8.3 23.5 8.3"/><polygon class="cls-42" points="23.6 8.2 23.6 8.2 23.6 8.3 23.6 8.2 23.6 8.2"/><polygon class="cls-43" points="22.6 8.2 22.7 8.1 22.7 8 22.6 8.1 22.6 8.2"/><rect class="cls-43" x="22.7" y="8" height="0.08"/><polygon class="cls-43" points="22.8 8 22.8 8 22.8 8.1 22.9 8.1 22.8 8"/><polygon class="cls-43" points="22.9 8.1 22.9 8 22.9 8 22.9 8.1 22.9 8.1"/><polygon class="cls-43" points="23 8 23 8 23 8.1 23 8.1 23 8"/><polygon class="cls-43" points="23.1 7.9 23.1 8 23.1 8 23.1 8 23.1 7.9"/><polygon class="cls-22" points="23.1 8 23.2 8 23.2 7.9 23.1 7.9 23.1 8"/><rect class="cls-22" x="23.2" y="7.9" height="0.05"/><polygon class="cls-22" points="23.3 7.9 23.3 8 23.3 8 23.3 7.9 23.3 7.9"/><polygon class="cls-22" points="23.4 8 23.4 8 23.4 7.9 23.4 7.9 23.4 8"/><polygon class="cls-22" points="23.4 7.9 23.4 7.9 23.5 7.9 23.5 7.9 23.4 7.9"/><polygon class="cls-22" points="23.5 7.9 23.5 7.9 23.5 7.9 23.5 7.9 23.5 7.9"/><polygon class="cls-22" points="23.6 7.9 23.6 7.9 23.6 7.9 23.6 7.8 23.6 7.9"/><polygon class="cls-22" points="23.6 7.8 23.6 7.9 23.7 7.9 23.7 7.8 23.6 7.8"/><line class="cls-40" x1="23.7" y1="8.6" x2="24.1" y2="8.5"/><polygon class="cls-39" points="21.9 9.1 21.9 9.1 21.9 9 21.9 9.1 21.9 9.1 21.9 9.1"/><polygon class="cls-39" points="21.9 9 21.9 9 21.9 9 21.9 9 21.8 9 21.9 9 21.9 9"/><polygon class="cls-39" points="22 9 22 9 22 8.9 21.9 9 22 9 22 9"/><polygon class="cls-39" points="22 8.9 22 8.9 22 8.9 21.9 8.9 21.9 8.9 22 8.9"/><polygon class="cls-39" points="21.8 8.9 21.9 8.9 21.9 8.9 21.8 8.9 21.8 8.9 21.8 8.9"/><polygon class="cls-39" points="21.9 8.8 21.9 8.8 21.8 8.8 21.8 8.9 21.9 8.9 21.9 8.8"/><polygon class="cls-39" points="21.9 8.8 21.9 8.8 22 8.8 22 8.8 22 8.8 21.9 8.8"/><polygon class="cls-39" points="21.9 8.8 21.9 8.7 21.9 8.7 21.8 8.7 21.8 8.8 21.9 8.8 21.9 8.8"/><polygon class="cls-39" points="22 8.7 22 8.7 21.9 8.7 21.9 8.8 22 8.8 22 8.7"/><polygon class="cls-39" points="21.8 8.7 21.8 8.7 21.9 8.7 21.9 8.7 21.8 8.7"/><polygon class="cls-39" points="22 8.6 21.9 8.6 21.9 8.6 21.9 8.7 22 8.7 22 8.6"/><polygon class="cls-39" points="21.9 8.6 21.9 8.6 22 8.6 21.9 8.6 21.9 8.6"/><polygon class="cls-39" points="21.9 8.6 21.8 8.6 21.8 8.6 21.8 8.6 21.9 8.6"/><polygon class="cls-39" points="21.9 8.5 21.8 8.5 21.8 8.6 21.9 8.6 21.9 8.5"/><polygon class="cls-39" points="21.9 8.5 21.9 8.5 22 8.5 21.9 8.5 21.9 8.5"/><polygon class="cls-39" points="21.9 8.4 21.8 8.4 21.8 8.5 21.8 8.5 21.9 8.4"/><polygon class="cls-39" points="21.9 8.4 21.9 8.5 21.9 8.5 21.9 8.4 21.9 8.4 21.9 8.4"/><polygon class="cls-39" points="21.8 8.4 21.8 8.4 21.8 8.4 21.8 8.4 21.8 8.4"/><polygon class="cls-44" points="21.9 8.3 21.9 8.3 21.9 8.4 21.9 8.4 21.9 8.3"/><polygon class="cls-44" points="21.9 8.3 21.9 8.3 21.9 8.3 21.9 8.3 21.9 8.3"/><polygon class="cls-44" points="21.8 8.3 21.8 8.3 21.8 8.3 21.8 8.3 21.8 8.3"/><polygon class="cls-44" points="21.8 8.2 21.8 8.2 21.8 8.2 21.8 8.2 21.8 8.3 21.8 8.2"/><polygon class="cls-44" points="21.9 8.2 21.9 8.2 21.9 8.2 21.9 8.2 21.9 8.2 21.9 8.2 21.9 8.2"/><path class="cls-44" d="M21.8,8.2Z"/><path class="cls-44" d="M21.9,8.2h0Z"/><path class="cls-44" d="M21.8,8.1Z"/><path class="cls-44" d="M21.9,8.1Z"/><polygon class="cls-44" points="21.8 8 21.8 8 21.8 8 21.8 8.1 21.8 8.1 21.8 8"/><path class="cls-44" d="M21.8,8Z"/><path class="cls-44" d="M21.8,8Z"/><path class="cls-44" d="M21.8,7.9h0Z"/><polygon class="cls-44" points="21.8 7.9 21.8 7.9 21.8 7.9 21.8 7.9 21.8 7.9 21.8 7.9"/><polygon class="cls-44" points="21.9 7.9 21.8 7.9 21.8 7.9 21.9 7.9 21.9 7.9"/><polygon class="cls-44" points="21.8 7.9 21.8 7.8 21.8 7.8 21.8 7.9 21.8 7.9"/><polygon class="cls-44" points="21.9 7.8 21.8 7.8 21.8 7.8 21.8 7.8 21.8 7.9 21.9 7.8 21.9 7.8"/><polygon class="cls-44" points="21.8 7.8 21.8 7.8 21.8 7.8 21.8 7.8 21.8 7.8 21.8 7.8"/><polygon class="cls-44" points="21.8 7.8 21.8 7.8 21.8 7.8 21.8 7.8 21.8 7.8 21.8 7.8"/><polygon class="cls-44" points="21.8 7.7 21.8 7.7 21.8 7.8 21.8 7.8 21.8 7.7 21.8 7.7"/><polygon class="cls-44" points="21.8 7.7 21.8 7.7 21.8 7.7 21.8 7.7 21.8 7.7"/><path class="cls-44" d="M21.8,7.7Z"/><polygon class="cls-44" points="21.8 7.7 21.8 7.7 21.8 7.7 21.8 7.7 21.8 7.7"/><polygon class="cls-44" points="21.8 7.6 21.8 7.6 21.8 7.6 21.8 7.6"/><polygon class="cls-44" points="21.8 7.7 21.8 7.6 21.8 7.7 21.8 7.7"/><path class="cls-44" d="M21.8,7.7Z"/><polygon class="cls-45" points="22.5 8.4 22.5 8.3 22.5 8.3 22.4 8.3 22.4 8.3 22.5 8.4"/><path class="cls-46" d="M22.5,8.2h0Z"/><path class="cls-44" d="M22.4,8.1h0Z"/><path class="cls-47" d="M22.4,8.3h0Z"/><path class="cls-44" d="M22.4,8.2Z"/><path class="cls-44" d="M22.4,8.1Z"/><path class="cls-44" d="M22.4,8h0Z"/><polygon class="cls-44" points="22.3 8.1 22.4 8.1 22.3 8.1 22.3 8 22.3 8.1 22.3 8.1 22.3 8.1"/><polygon class="cls-44" points="22.3 8 22.3 8 22.3 8 22.3 8 22.3 8 22.3 8 22.3 8 22.3 8"/><polygon class="cls-44" points="22.4 8 22.3 8 22.4 8 22.4 8 22.4 8 22.4 8"/><polygon class="cls-44" points="22.3 7.9 22.3 8 22.3 8 22.3 7.9 22.3 7.9 22.3 7.9"/><path class="cls-44" d="M22.3,8Z"/><polygon class="cls-44" points="22.3 7.9 22.3 7.9 22.2 7.9 22.2 7.9 22.2 7.9 22.3 7.9"/><polygon class="cls-44" points="22.3 7.9 22.3 7.9 22.3 7.9 22.3 7.9 22.3 7.9 22.3 7.9 22.3 7.9"/><polygon class="cls-44" points="22.2 7.9 22.2 7.8 22.2 7.8 22.2 7.9 22.2 7.9 22.2 7.9"/><polygon class="cls-44" points="22.3 7.8 22.3 7.9 22.3 7.9 22.3 7.8 22.3 7.8"/><path class="cls-44" d="M22.2,7.8Z"/><polygon class="cls-44" points="22.2 7.8 22.2 7.8 22.3 7.8 22.3 7.8 22.2 7.8"/><polygon class="cls-44" points="22.2 7.8 22.2 7.8 22.2 7.8 22.2 7.8 22.2 7.8"/><rect class="cls-44" x="22.2" y="7.7" height="0.02" transform="matrix(1, -0.04, 0.04, 1, -0.3, 0.91)"/><path class="cls-44" d="M22.2,7.7Z"/><polygon class="cls-44" points="22.2 7.7 22.1 7.7 22.1 7.7 22.2 7.7 22.2 7.7 22.2 7.7"/><path class="cls-44" d="M22.1,7.7h0Z"/><path class="cls-44" d="M22.2,7.7h0Z"/></g></svg>