<svg xmlns="http://www.w3.org/2000/svg" xmlns:xlink="http://www.w3.org/1999/xlink" viewBox="0 0 30 20"><defs><style>.cls-1{fill:none;}.cls-2{fill:#ce2931;}.cls-3{fill:#1e4384;}.cls-4{fill:#fff;}.cls-5{fill:#108040;}.cls-6{fill:#1e592c;}.cls-7{fill:#2b9546;}.cls-8{fill:#a3d5f3;}.cls-9{fill:#721011;}.cls-10{fill:#ed2027;}.cls-11{fill:#296bb4;}.cls-12{fill:#ffd83d;}.cls-13{fill:#b34e26;}.cls-14{fill:#7f4c7f;}.cls-15{fill:#8ac652;}.cls-16{fill:#7392cb;}.cls-17{fill:#010101;}.cls-18{fill:url(#radial-gradient);}.cls-19{fill:url(#radial-gradient-2);}.cls-20{fill:url(#radial-gradient-3);}.cls-21{fill:url(#radial-gradient-4);}.cls-22{fill:url(#radial-gradient-5);}.cls-23{fill:url(#radial-gradient-6);}.cls-24{fill:url(#radial-gradient-7);}.cls-25{fill:url(#radial-gradient-8);}.cls-26{fill:url(#radial-gradient-9);}.cls-27{fill:url(#radial-gradient-10);}.cls-28{fill:url(#radial-gradient-11);}.cls-29{fill:url(#radial-gradient-12);}.cls-30{fill:url(#radial-gradient-13);}.cls-31{fill:url(#radial-gradient-14);}.cls-32{fill:url(#radial-gradient-15);}.cls-33{fill:url(#radial-gradient-16);}.cls-34{fill:#fbb267;}.cls-35{fill:#9a6126;}.cls-36{fill:#faa44e;}.cls-37{fill:url(#radial-gradient-17);}.cls-38{fill:url(#radial-gradient-18);}.cls-39{fill:url(#radial-gradient-19);}.cls-40{fill:url(#radial-gradient-20);}.cls-41{fill:url(#radial-gradient-21);}.cls-42{fill:url(#radial-gradient-22);}.cls-43{fill:url(#radial-gradient-23);}.cls-44{fill:url(#radial-gradient-24);}.cls-45{fill:url(#radial-gradient-25);}.cls-46{fill:url(#radial-gradient-26);}.cls-47{fill:url(#radial-gradient-27);}.cls-48{fill:url(#radial-gradient-28);}.cls-49{clip-path:url(#clip-path);}.cls-50{fill:#4f150e;}.cls-51{fill:#50150e;}.cls-52{fill:#51160e;}.cls-53{fill:#52160f;}.cls-54{fill:#53170f;}.cls-55{fill:#54170f;}.cls-56{fill:#55170f;}.cls-57{fill:#561810;}.cls-58{fill:#571810;}.cls-59{fill:#581810;}.cls-60{fill:#591910;}.cls-61{fill:#5a1911;}.cls-62{fill:#5b1a11;}.cls-63{fill:#5c1a11;}.cls-64{fill:#5d1a11;}.cls-65{fill:#5e1b12;}.cls-66{fill:#5f1b12;}.cls-67{fill:#601c12;}.cls-68{fill:#611c12;}.cls-69{fill:#621c13;}.cls-70{fill:#631d13;}.cls-71{fill:#641d13;}.cls-72{fill:#651d13;}.cls-73{fill:#661e14;}.cls-74{clip-path:url(#clip-path-2);}.cls-75{fill:#671e14;}.cls-76{fill:#681f14;}.cls-77{fill:#691f14;}.cls-78{fill:#6a1f15;}.cls-79{fill:#6b2015;}.cls-80{fill:#6c2015;}.cls-81{fill:#6d2115;}.cls-82{fill:#6e2116;}.cls-83{fill:#6f2116;}.cls-84{fill:#702216;}.cls-85{fill:#712216;}.cls-86{fill:#732317;}.cls-87{fill:#742317;}.cls-88{fill:#752317;}.cls-89{fill:#762417;}.cls-90{fill:#772417;}.cls-91{fill:#782418;}.cls-92{fill:#792518;}.cls-93{fill:#7a2518;}.cls-94{fill:#7b2618;}.cls-95{fill:#7c2619;}.cls-96{fill:#7d2619;}.cls-97{fill:#7e2719;}.cls-98{fill:#7f2719;}.cls-99{fill:#80281a;}.cls-100{fill:#81281a;}.cls-101{fill:#82281a;}.cls-102{fill:#83291a;}.cls-103{fill:#84291b;}.cls-104{fill:#85291b;}.cls-105{fill:#862a1b;}.cls-106{fill:#872a1b;}.cls-107{fill:#882b1c;}.cls-108{fill:#892b1c;}.cls-109{fill:#8a2b1c;}.cls-110{fill:#8b2c1c;}.cls-111{fill:#8c2c1d;}.cls-112{fill:#8d2d1d;}.cls-113{fill:#8e2d1d;}.cls-114{fill:#8f2d1d;}.cls-115{fill:#902e1e;}.cls-116{fill:#912e1e;}.cls-117{fill:#922e1e;}.cls-118{fill:#932f1e;}.cls-119{fill:#942f1f;}.cls-120{fill:#95301f;}.cls-121{fill:#96301f;}.cls-122{fill:#65bc46;}.cls-123{fill:#fdd800;}</style><radialGradient id="radial-gradient" cx="1189.46" cy="1727.66" r="6.64" gradientTransform="matrix(0.06, 0, 0, -0.07, -57.91, 122.32)" gradientUnits="userSpaceOnUse"><stop offset="0" stop-color="#feef5d"/><stop offset="1" stop-color="#e85a24"/></radialGradient><radialGradient id="radial-gradient-2" cx="1189.5" cy="1727.65" r="6.6" xlink:href="#radial-gradient"/><radialGradient id="radial-gradient-3" cx="1189.52" cy="1727.66" r="6.58" xlink:href="#radial-gradient"/><radialGradient id="radial-gradient-4" cx="1189.46" cy="1727.66" r="6.64" xlink:href="#radial-gradient"/><radialGradient id="radial-gradient-5" cx="1190.57" cy="2376.41" r="30.12" gradientTransform="matrix(0.06, 0, 0, -0.04, -57.91, 100.46)" xlink:href="#radial-gradient"/><radialGradient id="radial-gradient-6" cx="1190.58" cy="2376.41" r="30.13" gradientTransform="matrix(0.06, 0, 0, -0.04, -57.91, 100.46)" xlink:href="#radial-gradient"/><radialGradient id="radial-gradient-7" cx="1190.57" cy="2376.41" r="30.12" gradientTransform="matrix(0.06, 0, 0, -0.04, -57.91, 100.46)" xlink:href="#radial-gradient"/><radialGradient id="radial-gradient-8" cx="1190.58" cy="2376.41" r="30.13" gradientTransform="matrix(0.06, 0, 0, -0.04, -57.91, 100.46)" xlink:href="#radial-gradient"/><radialGradient id="radial-gradient-9" cx="1189.36" cy="1727.76" r="6.79" xlink:href="#radial-gradient"/><radialGradient id="radial-gradient-10" cx="1190.49" cy="2376.31" r="30.23" gradientTransform="matrix(0.06, 0, 0, -0.04, -57.91, 100.46)" xlink:href="#radial-gradient"/><radialGradient id="radial-gradient-11" cx="1189.46" cy="1727.65" r="6.64" xlink:href="#radial-gradient"/><radialGradient id="radial-gradient-12" cx="1190.57" cy="2376.41" r="30.12" gradientTransform="matrix(0.06, 0, 0, -0.04, -57.91, 100.46)" xlink:href="#radial-gradient"/><radialGradient id="radial-gradient-13" cx="1189.44" cy="1727.64" r="6.64" xlink:href="#radial-gradient"/><radialGradient id="radial-gradient-14" cx="1190.56" cy="2376.36" r="30.18" gradientTransform="matrix(0.06, 0, 0, -0.04, -57.91, 100.46)" xlink:href="#radial-gradient"/><radialGradient id="radial-gradient-15" cx="1189.46" cy="1727.65" r="6.63" xlink:href="#radial-gradient"/><radialGradient id="radial-gradient-16" cx="1190.57" cy="2376.41" r="30.11" gradientTransform="matrix(0.06, 0, 0, -0.04, -57.91, 100.46)" xlink:href="#radial-gradient"/><radialGradient id="radial-gradient-17" cx="1290.01" cy="1767.71" r="6.89" gradientTransform="matrix(0.06, 0, 0, -0.06, -57.91, 119.99)" gradientUnits="userSpaceOnUse"><stop offset="0" stop-color="#96301f"/><stop offset="1" stop-color="#4f150e"/></radialGradient><radialGradient id="radial-gradient-18" cx="1290" cy="1767.71" r="6.89" xlink:href="#radial-gradient-17"/><radialGradient id="radial-gradient-19" cx="1288.82" cy="2375.42" r="30.14" gradientTransform="matrix(0.06, 0, 0, -0.04, -57.91, 100.45)" xlink:href="#radial-gradient-17"/><radialGradient id="radial-gradient-20" cx="1288.68" cy="2375.38" r="30.31" gradientTransform="matrix(0.06, 0, 0, -0.04, -57.91, 100.45)" xlink:href="#radial-gradient-17"/><radialGradient id="radial-gradient-21" cx="1288.8" cy="2375.43" r="30.13" gradientTransform="matrix(0.06, 0, 0, -0.04, -57.91, 100.45)" xlink:href="#radial-gradient-17"/><radialGradient id="radial-gradient-22" cx="1288.82" cy="2375.42" r="30.13" gradientTransform="matrix(0.06, 0, 0, -0.04, -57.91, 100.45)" xlink:href="#radial-gradient-17"/><radialGradient id="radial-gradient-23" cx="1288.82" cy="2375.42" r="30.14" gradientTransform="matrix(0.06, 0, 0, -0.04, -57.91, 100.45)" xlink:href="#radial-gradient-17"/><radialGradient id="radial-gradient-24" cx="1290" cy="1767.71" r="6.89" xlink:href="#radial-gradient-17"/><radialGradient id="radial-gradient-25" cx="1288.81" cy="2375.37" r="30.21" gradientTransform="matrix(0.06, 0, 0, -0.04, -57.91, 100.45)" xlink:href="#radial-gradient-17"/><radialGradient id="radial-gradient-26" cx="1290.01" cy="1767.69" r="6.89" xlink:href="#radial-gradient-17"/><radialGradient id="radial-gradient-27" cx="1288.82" cy="2375.97" r="29.6" gradientTransform="matrix(0.06, 0, 0, -0.04, -57.91, 100.45)" xlink:href="#radial-gradient-17"/><radialGradient id="radial-gradient-28" cx="1289.82" cy="1767.76" r="6.81" xlink:href="#radial-gradient-17"/><clipPath id="clip-path"><path class="cls-1" d="M17.7,6.9Z"/></clipPath><clipPath id="clip-path-2"><polygon class="cls-1" points="17.6 6.6 17.6 6.6 17.6 6.6 17.6 6.6"/></clipPath></defs><title>bz</title><g id="Layer_82" data-name="Layer 82"><path class="cls-2" d="M27.5,0H2.5A2.6,2.6,0,0,0,.3,1.4H29.7A2.6,2.6,0,0,0,27.5,0Z"/><path class="cls-2" d="M2.5,20h25a2.6,2.6,0,0,0,2.2-1.4H.3A2.6,2.6,0,0,0,2.5,20Z"/><path class="cls-3" d="M0,2.5v15a2,2,0,0,0,.3,1.1H29.7a2,2,0,0,0,.3-1.1V2.5a2,2,0,0,0-.3-1.1H.3A2,2,0,0,0,0,2.5Zm15-.4A7.9,7.9,0,1,1,7,10,7.9,7.9,0,0,1,15,2.1Z"/><path class="cls-4" d="M13.2,13.9h0Z"/><path class="cls-4" d="M13.5,14.1h0v0Z"/><path class="cls-4" d="M16.8,13.9h0Z"/><path class="cls-4" d="M13.3,13.7h0v.2h0Z"/><path class="cls-4" d="M13.5,15.3a.5.5,0,0,0,.2-.4h0A.5.5,0,0,1,13.5,15.3Z"/><path class="cls-4" d="M13.7,14.9h0Z"/><rect class="cls-4" x="11.7" y="6.2" transform="translate(0.8 13.7) rotate(-62.4)"/><path class="cls-4" d="M13.3,13.9h0Z"/><path class="cls-4" d="M12.4,6.6h0Z"/><path class="cls-4" d="M13.7,14.9h0Z"/><path class="cls-4" d="M11.8,6.2h0Z"/><path class="cls-4" d="M16.7,13.7v.2h0v-.2c-.1,0-.2,0-.2.2S16.6,13.7,16.7,13.7Z"/><path class="cls-4" d="M16.5,13.9v.2h0Z"/><path class="cls-4" d="M17.9,13.5Z"/><path class="cls-4" d="M17.6,13.5Z"/><path class="cls-4" d="M17.2,14.4h0Z"/><path class="cls-4" d="M17.5,14.2Z"/><path class="cls-4" d="M17.6,14.2h0Z"/><path class="cls-4" d="M17.6,14.2Z"/><path class="cls-4" d="M17.4,14.3h0Z"/><path class="cls-4" d="M17.7,14.2Z"/><path class="cls-4" d="M16.1,5.8c-.1-.1-.2-.2-.3-.1s.2,0,.3.1l.8.4h0Z"/><path class="cls-4" d="M12.3,14.2Z"/><path class="cls-4" d="M17.7,14.2h0c.2,0,.4,0,.4.1v0C18.1,14.2,17.9,14.2,17.7,14.2Z"/><polygon class="cls-4" points="12.8 6.4 12.5 6.5 12.7 6.4 12.8 6.4"/><path class="cls-4" d="M19,7.8c-.1,0-.1,0,0,.1v.2h.1V7.8h-.3C19,7.6,19,7.7,19,7.8Z"/><path class="cls-4" d="M12.6,14.2h0Z"/><path class="cls-4" d="M12.5,14.2Z"/><path class="cls-4" d="M17,14.5h0Z"/><path class="cls-4" d="M12.4,14.2Z"/><path class="cls-4" d="M12.4,14.2Z"/><path class="cls-4" d="M12.7,14.3h0Z"/><path class="cls-4" d="M13,14.5h0Z"/><path class="cls-4" d="M13.2,12a3.2,3.2,0,0,1-.2-1.2V8.9h-.1l-.2-.2a1,1,0,0,0-.1-.3v.3h0v.3h0v.2c0,.2.1,1.1.1,1.3a1.2,1.2,0,0,1,.1.5,6.6,6.6,0,0,0,.1,1.3.4.4,0,0,1,.1-.3v.2l.2-.2Z"/><path class="cls-4" d="M12.3,14.2h0c-.2,0-.4,0-.4.1S12.1,14.2,12.3,14.2Z"/><polygon class="cls-4" points="13.3 6.4 13.3 6.4 13.3 6.2 13.2 6.2 13.3 6.2 13.3 6.4"/><path class="cls-4" d="M15.6,13.4Z"/><path class="cls-4" d="M13.8,12.5Z"/><path class="cls-4" d="M15.7,12.5Z"/><path class="cls-4" d="M13.5,12.5h0Z"/><path class="cls-4" d="M13.7,12.8h0Z"/><path class="cls-4" d="M15.4,13.5h0Z"/><path class="cls-4" d="M14.3,13.3h0Z"/><path class="cls-4" d="M17.9,12.5s.3,0,.2.1h.2a4.9,4.9,0,0,0-.1-1.4,4.5,4.5,0,0,0-.2-.8,1.1,1.1,0,0,1-.2.5v1.8h.1Z"/><path class="cls-4" d="M16.7,12.2l.3.3h.1a6.2,6.2,0,0,0,.1-1.3,1.2,1.2,0,0,1,.1-.5c0-.2.1-1.1.1-1.3V9.1h0V8.8h0V8.5a.5.5,0,0,1-.1.3l-.2.2H17v1.9a2.6,2.6,0,0,1-.2,1.1h0v.2Z"/><path class="cls-4" d="M16.7,12.3h0Z"/><path class="cls-4" d="M13.4,12.3h0Z"/><path class="cls-4" d="M16.2,12.5Z"/><path class="cls-4" d="M16,12.5h0Z"/><path class="cls-4" d="M15.5,12.5Z"/><path class="cls-4" d="M16.2,12.5Z"/><path class="cls-4" d="M12.2,11v-.2a1.1,1.1,0,0,1-.2-.5,4.5,4.5,0,0,0-.2.8s-.1.8-.1,1.2h.1v.2s.2-.1.2-.2,0,.1,0,.2.1.1.1.2h.1Z"/><path class="cls-4" d="M18.4,8.9h0Z"/><path class="cls-4" d="M14.3,12.5h0Z"/><path class="cls-4" d="M14.1,12.5h0Z"/><path class="cls-4" d="M13.3,12.2h0Z"/><path class="cls-4" d="M13.8,6.7c.3,0,.4,0,.4-.3h-.6S13.5,6.7,13.8,6.7Z"/><path class="cls-4" d="M10.8,7.8V8h.1V7.9h.1c-.1-.2,0-.3,0-.3l.4-.2-.6.3A.3.3,0,0,1,10.8,7.8Z"/><path class="cls-4" d="M14.7,7.6h-.3l.2.3V7.7h0Z"/><polygon class="cls-4" points="13.5 12.5 13.5 12.5 13.5 12.5 13.5 12.5"/><polygon class="cls-4" points="10.7 7.7 10.7 7.7 10.4 7.9 10.7 7.7"/><rect class="cls-4" x="13" y="8.6" width="0.4"/><path class="cls-4" d="M14.9,7.4v.2h0v.5H15a4.7,4.7,0,0,0,0-1.2c0-.1-.1-.1-.1-.2h0V7h0v.2h.1Z"/><path class="cls-4" d="M13.3,6.4v.2h0V6.4Z"/><path class="cls-4" d="M17.6,6h0Z"/><path class="cls-4" d="M12.9,7.2a1.8,1.8,0,0,0-.1-.6l-.4.3c-.1,0-.1.1,0,.1l.2.3h.3V8c.1.1.1.4.1.4h1.7s.1-.3,0-.4l-.4-.5h0v.2h-.1s0,.2-.1.2h-.1l-.2.2V8h-.1V7.9h0s-.1-.1,0-.1h1.1a.1.1,0,0,1,.1.1.1.1,0,0,1,.1-.1l-.3-.3h-.7A1,1,0,0,1,12.9,7.2Z"/><path class="cls-4" d="M16.5,12.5h0Z"/><path class="cls-4" d="M14.9,13.7Z"/><polygon class="cls-4" points="13.5 6.5 13.5 6.6 13.4 6.6 13.5 6.6 13.5 6.5"/><path class="cls-4" d="M14.4,7.7Z"/><polygon class="cls-4" points="15 10.4 15 10.4 15 10.4 15 10.4"/><rect class="cls-4" x="16.8" y="8.4" height="0.35" transform="matrix(0.99, -0.13, 0.13, 0.99, -0.95, 2.19)"/><path class="cls-4" d="M12.5,6.3h0v0Z"/><polygon class="cls-4" points="13.1 6.2 13.1 6.2 13.1 6.2 12.8 6.4 12.8 6.4 12.8 6.4 13.1 6.2"/><path class="cls-4" d="M12.4,6.4Z"/><polygon class="cls-4" points="14.3 6.4 14.3 6.4 14.2 6.4 14.3 6.4 14.3 6.4"/><path class="cls-4" d="M16.5,12.6Z"/><path class="cls-4" d="M15.5,7h-.2v.2h0V7h0v.3h.2c.1,0,.1-.1.1-.2h0Z"/><polygon class="cls-4" points="14.3 5.1 14.3 5.1 14.3 5.1 14.3 5.1"/><path class="cls-4" d="M14.7,5.2h-.1s-.1-.1,0-.1h-.3v.3l.3.4c.1,0,.2-.1.1-.3V5.2Z"/><path class="cls-4" d="M15.5,7.1h0Z"/><path class="cls-4" d="M13.2,5.5h-.3a.3.3,0,0,1,.1.2h.2Z"/><path class="cls-4" d="M12.9,5.6h0Z"/><path class="cls-4" d="M15.6,7.1Z"/><path class="cls-4" d="M17.6,6.5s-.1,0-.1-.2h0l-.2-.2c.1.1,0,.1,0,.1H17s-.1-.2-.2-.1h.1l.7.4Z"/><path class="cls-4" d="M14.2,5.2Z"/><path class="cls-4" d="M16.3,5H16s-.1.1,0,.1h-.4c-.1,0,0,.1,0,.1h.2c-.1,0,0,.1,0,.1s-.1-.1,0-.1h.3c0,.1.1,0,.1,0h.1Z"/><path class="cls-4" d="M15.5,5.3Z"/><path class="cls-4" d="M15.9,7h-.3c0,.2,0,.2.1.2l.2-.2h0Z"/><path class="cls-4" d="M18.3,6.2h0Z"/><path class="cls-4" d="M14.9,6.7h0Z"/><path class="cls-4" d="M15.5,5.3h0Z"/><polygon class="cls-4" points="17.6 6.4 17.6 6.4 17.6 6.4 17.6 6.4"/><path class="cls-4" d="M15,17.9A7.9,7.9,0,1,0,7,10,7.9,7.9,0,0,0,15,17.9ZM8.4,10.3c.4-.1,1.3.3.8,1a.4.4,0,0,0-.1-.3c-.1-.3-.5-.3-.6-.5h0c.1.3-.5.5-.2,1.1A.6.6,0,0,1,8.4,10.3ZM8.7,13c-.8-.4-.2-1.1.1-1.2s1.3.3.8,1v-.3c-.2-.3-.6-.3-.7-.5h0C9,12.2,8.4,12.5,8.7,13Zm.7.3c.3-.1,1.3-.1,1,.7s0-.2-.1-.2-.6-.2-.8-.3h0c.1.3-.3.7.1,1.1S9.1,13.5,9.4,13.3Zm2.2,1.9V15c-.3-.2-.7-.1-.8-.3h-.1c.2.2-.2.7.2,1s-.6-.9-.3-1.1S11.8,14.4,11.6,15.2Zm.5.5H12c.3.1.1.7.7.8s-1-.6-.8-.9,1.1-.7,1.3.1h-.3C12.6,15.5,12.3,15.8,12.1,15.7Zm1.7.6h-.1c.3.1.2.7.7.8s-1-.5-.8-.8,1-.8,1.3,0l-.3-.2C14.3,16.1,14,16.4,13.8,16.3Zm2.3.6a.6.6,0,0,1-1-.6c.1-.4.8-1,1.3-.3h-.3l-.8.4h0C15.5,16.3,15.5,17,16.1,16.9Zm.8-.7c0-.4.3-1.3,1-.8h-.3c-.2.2-.3.6-.5.7h0c.2-.1.5.5,1,.2S17,16.5,16.9,16.2Zm1.6-.6c-.3-.2-.4-1.2.5-1.1a.2.2,0,0,0-.2.2c-.2.2-.1.6-.2.8h0c.2-.2.7.2,1-.3S18.7,15.9,18.5,15.6Zm1.3-1.1c-.3-.3-.4-1.2.4-1.2l-.2.2c-.2.3,0,.6-.1.8h0c.2-.2.7.1,1-.4S20,14.7,19.8,14.5Zm1-1.4c-.3-.1-.8-1,0-1.2v.2c-.1.3.2.6.2.8h-.1c.1-.3.8-.1.8-.7S21.1,13.3,20.8,13.1Zm.6-1.6c-.4-.1-1.1-.7-.4-1.2a.4.4,0,0,0-.1.3c.1.3.5.4.5.6h0c0-.3.6-.3.5-.9S21.7,11.5,21.4,11.5Zm.1-1.6c-.3,0-1.1-.6-.5-1.1V9c.1.4.5.5.5.7h0c0-.3.6-.5.5-1S21.9,9.9,21.5,9.9Zm-.1-2.7a.6.6,0,0,1,0,1.2c-.3.2-1.2-.1-.9-.8s.1.1.1.2.6.3.7.5h.1C21.3,8,21.8,7.7,21.4,7.2ZM20.8,7c-.3.2-1.3.1-1.1-.7l.2.3c.2.2.6.1.8.3h0c-.2-.2.3-.6-.1-1S21.1,6.9,20.8,7ZM19.4,4.8c.9-.2.8.7.6,1s-1.2.5-1.2-.3H19c.3.2.6,0,.8.1h.1C19.6,5.5,19.9,5,19.4,4.8Zm-.7-.2h0c-.2-.1,0-.7-.6-.8s.9.6.8.9-1.1.7-1.3-.1l.2.2Zm-1.6-.7h.1c-.3-.1-.2-.7-.8-.7a.6.6,0,0,1,.9.8c-.1.3-1,.8-1.2,0h.2C16.6,4.2,16.9,3.9,17.1,3.9Zm-2.8-.8c.6-.7,1.1.1,1.1.4s-.6,1.1-1.2.5h.3c.3-.1.5-.4.7-.5h0C15,3.5,14.8,2.9,14.3,3.1Zm-.7.6c0,.3-.4,1.2-1.1.6h.3c.3-.1.4-.5.6-.6h.1c-.3,0-.5-.5-1.1-.3A.6.6,0,0,1,13.6,3.7Zm-1,2.5H13l-.2-.3h-.4V5.6l-.2.2a.5.5,0,0,0,.1-.3h.7a.1.1,0,0,0,.1.1h.3a.1.1,0,0,0,.1.1h-.1c.2.1,0,.2,0,.2s-.2,0-.1,0h-.1a.3.3,0,0,1-.1.2h.2c0,.1.1,0,.1,0a.3.3,0,0,0,.1-.2h.7v.2a.2.2,0,0,0,.2.2.1.1,0,0,1,.1.1c0-.1,0-.1.1-.1h.1c0-.2-.1-.3-.1-.6s-.2,0-.4-.4-.2-.1-.4-.2h-.1c-.1.1-.1,0-.1,0h.1c.1,0,0-.1,0-.1h.7v.2h.7a.1.1,0,0,0-.1.1h0a.1.1,0,0,0-.1-.1h-.2a.3.3,0,0,1-.1.2v.6a.8.8,0,0,0,.2.4h.1c0-.1.1-.2.1-.3a.4.4,0,0,0,.1-.3h.1V6h.1l-.5.7h1.2V6.3h0v.3h1s0,.1-.2.1h0a.1.1,0,0,1-.1.1h-.1s-.1-.2-.2-.2h-.4l-.2-.2h0a.1.1,0,0,0-.1.1h-.1l-.3.2h.2v0h.6s.1.2,0,.3h-.3v0c-.1,0-.1.2-.1.2V8h-.1V7.9h-.1l-.2.2h-.2v.7H17V8.1a.1.1,0,0,0,0-.2V7.6c0-.2.2-.3.3-.4s.3-.1.3-.2h0L16,6.1h0a.1.1,0,0,1-.1.1h0s.1,0,0,.1h-.3V5.9H15a.1.1,0,0,1-.1.1.3.3,0,0,1,.1-.2h.4V4.9h.1c-.1.2,0,.3,0,.3h.2c0-.1.1-.1.1-.2h-.6a.1.1,0,0,1-.1.1H15s-.1-.2.1-.2H16c.1.1,0,.1,0,.1h.4V5h-.2c.1,0,.1.2.1.2H17s-.1-.1,0-.1h.1a.1.1,0,0,1,.1.1h.2v.2h.8s.1.1,0,.1a.3.3,0,0,1,.1.2s-.1,0,0,.1v.3a.1.1,0,0,0-.1.1l1.1.6h.9c.1.1.1.2,0,.2s-.1-.2-.2-.1h.2s0,.2-.1.1h-.2c-.1-.1,0-.2-.2-.3h-.1l-.2.6c-.1.2-.1.1-.1.1H19c0-.1-.1-.1-.1-.2l-.3-.3a2,2,0,0,0-.1.5h.1V9h0c0,.1.2.3.2.6h0c0,.4.1,1.4.1,1.5s-.1.1,0,.4.2,1.3.2,1.3h.1v.2h.1c.1,0,0,.1-.2.2h-.1v.2h-.2s-.3,0-.4-.2-.1.1,0,.1l.2.3-.3.7c-.2.3-1.1,0-1.2,0h-.1a.4.4,0,0,1,.1.3c0,.3-.2.3-.3.3h0l-.7.2-.2-.2v-.2H14.2v.2l-.2.2-.7-.2h0c-.1,0-.3,0-.3-.3a.4.4,0,0,1,.1-.3h.2l-.2-.2h-.1c-.1,0-1,.3-1.2,0l-.3-.7a.7.7,0,0,1,.6-.4l.9.3h0c0-.1.2-.2.2-.2l.8.4a.6.6,0,0,1,.1.4l-.5-.2a2.3,2.3,0,0,0,1.3.3,2.3,2.3,0,0,0,1.3-.3l-.5.2a.6.6,0,0,1,.1-.4l.8-.4s.2.1.2.2h0l.7-.3h-.7v.2h-.3c-.1,0,0,0,0,.1h-.4v.2h-.2s-.3-.1-.3,0H14.1v-.2H12.1s-.1-.1,0-.1h-.6l-.5.2h-.4s-.2-.2-.2-.3h.3v-.3l.2.3c.1-.3.1-.7.2-1.2s0-.3,0-.4.1-1.1.1-1.5h0l.2-.6h0V8.8h.1a2,2,0,0,0-.1-.5l-.3.3c0,.1-.1.1-.1.2h-.3s0,.1-.1-.1L10.4,8h-.1l-.2.3c-.1.1-.1.2-.2.1h0V8.1H9.8V7.9l.3-.3h.4a.1.1,0,0,0,.1.1h0l1.1-.5h-.1V6.2h0c-.1,0-.1,0,0-.1H12a.2.2,0,0,1,.3,0h.1c.1,0,.1.1.1.3Zm-.5-2.1c.1.3,0,1.2-.8.9h.3c.2-.2.1-.6.3-.7h0c-.2.2-.6-.3-1,.1S11.9,3.7,12.1,4.1Zm-1.2.7c.2.3.3,1.2-.5,1.1h.2c.2-.3,0-.7.1-.8h.1c-.2.2-.7-.2-1.1.3A.7.7,0,0,1,10.9,4.8ZM9.8,5.9c.2.2.4,1.2-.4,1.2l.2-.2c.1-.3-.1-.7.1-.9h0c-.2.2-.7-.1-1,.4S9.5,5.6,9.8,5.9ZM9,7.3c.3.1.7,1-.1,1.2V8.3c.1-.4-.2-.7-.1-.9h0c-.1.2-.7.1-.8.6S8.7,7.1,9,7.3ZM8.6,8.7c.3.1,1,.9.2,1.3a.4.4,0,0,0,.1-.3c0-.3-.3-.5-.3-.8h0c-.1.3-.7.2-.7.8S8.3,8.7,8.6,8.7Z"/><path class="cls-4" d="M14.2,12.5Z"/><path class="cls-4" d="M15.1,6.7Z"/><polygon class="cls-4" points="15.2 6.9 15.2 6.9 15.2 6.9 15.2 6.9"/><path class="cls-4" d="M14.9,5.3h0Z"/><polygon class="cls-4" points="12.9 5.6 12.9 5.6 12.9 5.6 12.9 5.6"/><path class="cls-5" d="M15.2,3.5c-.2.2-.6.7-1,.5s1.2-.2,1.2-.5-.6-.7-1.1-.4.7.4.9.4Z"/><path class="cls-5" d="M14.5,4h0Z"/><path class="cls-6" d="M15.2,3.5h0c-.2.1-.4.4-.7.5h-.3C14.6,4.2,15,3.7,15.2,3.5Z"/><path class="cls-6" d="M15.4,3.5c0-.3-.5-1.1-1.1-.4S14.9,2.7,15.4,3.5Z"/><path class="cls-5" d="M8.9,8.5v0Z"/><path class="cls-5" d="M8.1,8c.1-.5.7-.4.8-.6h0c.1.2.4.8,0,1.1s.4-1.1.1-1.2S8,7.5,8.1,8Z"/><path class="cls-6" d="M8.9,7.4h0c-.1.2.2.5.1.9v.2C9.3,8.2,9,7.6,8.9,7.4Z"/><path class="cls-6" d="M9,7.3c-.3-.2-1.3-.1-.9.7S8,7.3,9,7.3Z"/><path class="cls-5" d="M20.5,7.6c0,.1.1.1.1.2S20.5,7.7,20.5,7.6Z"/><path class="cls-5" d="M21.3,8.3c-.2-.1-.8-.3-.8-.7s.6,1,.9.8.5-.8,0-1.2-.1.8,0,1.1Z"/><path class="cls-6" d="M21.3,8.3h0c-.1-.2-.5-.2-.7-.5s-.1-.1-.1-.2S21.1,8.2,21.3,8.3Z"/><path class="cls-6" d="M21.4,8.4a.6.6,0,0,0,0-1.2C21.9,7.6,22,7.7,21.4,8.4Z"/><path class="cls-5" d="M11.5,15v0Z"/><path class="cls-5" d="M10.5,14.6c-.4.9-.2.9.3,1.1s0-.8-.2-1h0c.3,0,1,.1,1,.5S10.8,14.4,10.5,14.6Z"/><path class="cls-6" d="M10.6,14.7h.1c.1.2.5.1.8.3v.2C11.6,14.8,10.9,14.7,10.6,14.7Z"/><path class="cls-6" d="M10.5,14.6c-.3.2-.5,1.1.3,1.1S10.1,15.5,10.5,14.6Z"/><path class="cls-5" d="M18.6,15.5h0c0-.2-.1-.9.4-1s-.8.9-.5,1.1.9.1,1.1-.4S18.8,15.3,18.6,15.5Z"/><path class="cls-5" d="M18.8,14.7a.2.2,0,0,1,.2-.2A.2.2,0,0,0,18.8,14.7Z"/><path class="cls-6" d="M18.6,15.5h0c.1-.2,0-.6.2-.8a.2.2,0,0,1,.2-.2C18.5,14.6,18.6,15.3,18.6,15.5Z"/><path class="cls-6" d="M18.5,15.6c.2.3,1.1.5,1.1-.4S19.4,15.9,18.5,15.6Z"/><path class="cls-5" d="M8.7,6.4c.3-.5.8-.2,1-.4h0c0,.3.1.9-.3,1.1s.6-1,.4-1.2S8.8,5.9,8.7,6.4Z"/><path class="cls-5" d="M9.6,6.9l-.2.2Z"/><path class="cls-6" d="M9.7,6h0c-.2.2,0,.6-.1.9l-.2.2C9.8,6.9,9.7,6.3,9.7,6Z"/><path class="cls-6" d="M9.8,5.9c-.3-.3-1.2-.4-1.1.5S8.8,5.7,9.8,5.9Z"/><path class="cls-5" d="M10.3,13.8c.1,0,.1.1.1.2S10.4,13.8,10.3,13.8Z"/><path class="cls-5" d="M9.5,13.4h0c.3,0,.9.1.9.5s-.7-.8-1-.7-.3.9.2,1.2S9.6,13.7,9.5,13.4Z"/><path class="cls-6" d="M9.5,13.5h0c.2.1.6.1.8.3s.1.1.1.2S9.8,13.5,9.5,13.5Z"/><path class="cls-6" d="M9.4,13.3c-.3.2-.6,1.1.2,1.2S8.9,14.2,9.4,13.3Z"/><path class="cls-5" d="M16.1,4c.2.8,1.1.3,1.2,0s-.3-.9-.9-.8.5.6.8.7h0C16.9,4.1,16.3,4.4,16.1,4Z"/><path class="cls-5" d="M16.3,4.1h0Z"/><path class="cls-6" d="M17.2,3.9h-.1c-.2,0-.5.3-.8.2h-.2C16.3,4.4,16.9,4.1,17.2,3.9Z"/><path class="cls-6" d="M17.3,4a.6.6,0,0,0-.9-.8C17,3.1,17.2,3,17.3,4Z"/><path class="cls-5" d="M17.1,16.1h0c.1-.2.4-.8.8-.7s-1,.4-1,.8.9.5,1.2.1S17.3,16,17.1,16.1Z"/><path class="cls-5" d="M17.9,15.4h0Z"/><path class="cls-6" d="M17.1,16.1h0c.2-.1.3-.5.5-.7h.3C17.5,15.3,17.2,15.9,17.1,16.1Z"/><path class="cls-6" d="M16.9,16.2c.1.3.9.9,1.2.1S17.6,16.8,16.9,16.2Z"/><path class="cls-5" d="M21.5,9.8h0c-.2-.1-.7-.5-.5-.9s.2,1.1.5,1.1.7-.6.5-1.1S21.5,9.5,21.5,9.8Z"/><path class="cls-5" d="M21,9V9Z"/><path class="cls-6" d="M21.5,9.7h0c0-.2-.4-.3-.5-.7V8.8C20.8,9.2,21.3,9.6,21.5,9.7Z"/><path class="cls-6" d="M21.5,9.9c.4,0,1.1-.5.5-1.1S22.4,9.4,21.5,9.9Z"/><path class="cls-5" d="M11.6,4.9h0Z"/><path class="cls-5" d="M11.9,4.1h0c0,.3-.1.9-.6.9s.9-.6.8-.9-.9-.4-1.2.1S11.7,4.3,11.9,4.1Z"/><path class="cls-6" d="M11.9,4.1h0c-.2.1-.1.5-.3.7h-.3C11.8,5,11.9,4.4,11.9,4.1Z"/><path class="cls-6" d="M12.1,4.1c-.2-.4-1-.7-1.2.1S11.2,3.6,12.1,4.1Z"/><path class="cls-5" d="M8.5,10.4h0c.2.1.8.4.7.9s-.4-1.1-.8-1-.5.8-.1,1.2S8.6,10.7,8.5,10.4Z"/><path class="cls-5" d="M9.2,11.3a.4.4,0,0,0-.1-.3A.4.4,0,0,1,9.2,11.3Z"/><path class="cls-6" d="M8.5,10.4h0c.1.2.5.2.6.5a.4.4,0,0,1,.1.3C9.3,10.8,8.7,10.5,8.5,10.4Z"/><path class="cls-6" d="M8.4,10.3a.6.6,0,0,0-.1,1.2C7.9,11.1,7.7,10.9,8.4,10.3Z"/><path class="cls-5" d="M19.8,5.7c-.2.1-.9.2-1-.2s.9.6,1.2.3-.1-.9-.6-1,.2.7.5.9Z"/><path class="cls-5" d="M19,5.6h0Z"/><path class="cls-6" d="M19.8,5.7h0c-.2-.1-.5.1-.8-.1h-.2C18.9,5.9,19.6,5.8,19.8,5.7Z"/><path class="cls-6" d="M20,5.8c.2-.3.3-1.2-.6-1S20.1,4.8,20,5.8Z"/><path class="cls-5" d="M14.6,16.1l.3.2Z"/><path class="cls-5" d="M14.9,16.3c-.3-.8-1.2-.3-1.3,0s.3.9.8.8-.4-.7-.7-.8h.1C14,16.2,14.6,15.9,14.9,16.3Z"/><path class="cls-6" d="M13.8,16.3h0c.2.1.5-.2.8-.2l.3.2C14.6,15.9,14,16.2,13.8,16.3Z"/><path class="cls-6" d="M13.6,16.3c-.2.3,0,1.2.8.8S13.7,17.2,13.6,16.3Z"/><path class="cls-5" d="M21.6,12.3c0,.6-.7.4-.8.7h0c-.1-.3-.4-.9,0-1.1s-.3,1.1,0,1.2S21.7,12.8,21.6,12.3Z"/><path class="cls-5" d="M20.8,11.9v0Z"/><path class="cls-6" d="M20.8,13h.1c0-.2-.3-.5-.2-.8v-.2C20.4,12.1,20.7,12.7,20.8,13Z"/><path class="cls-6" d="M20.8,13.1c.3.2,1.2,0,.8-.8S21.8,13,20.8,13.1Z"/><path class="cls-5" d="M7.9,9.7c0-.6.6-.5.7-.8h0c.1.2.5.7.2,1.1s.1-1.2-.2-1.3S7.8,9.2,7.9,9.7Z"/><path class="cls-5" d="M8.9,9.7a.4.4,0,0,1-.1.3A.4.4,0,0,0,8.9,9.7Z"/><path class="cls-6" d="M8.6,8.9h0c0,.3.3.5.3.8a.4.4,0,0,1-.1.3C9.1,9.6,8.7,9.1,8.6,8.9Z"/><path class="cls-6" d="M7.9,9.7c-.1-.5-.2-.7.7-1S7.4,9,7.9,9.7Z"/><path class="cls-5" d="M12.9,15.6h0Z"/><path class="cls-5" d="M13.2,15.7c-.2-.8-1.1-.4-1.3-.1s.2.9.8.9-.4-.7-.7-.8h.1C12.3,15.6,12.9,15.3,13.2,15.7Z"/><path class="cls-6" d="M12.1,15.7h0c.2.1.5-.2.8-.1h.3C12.9,15.3,12.3,15.6,12.1,15.7Z"/><path class="cls-6" d="M11.9,15.6c-.2.3,0,1.2.8.9S11.9,16.6,11.9,15.6Z"/><path class="cls-5" d="M13.5,3.7h-.1c-.1.2-.4.8-.9.6s1.1-.3,1.1-.6-.7-.6-1.2-.3S13.2,3.7,13.5,3.7Z"/><path class="cls-5" d="M12.8,4.3h-.3C12.6,4.4,12.7,4.3,12.8,4.3Z"/><path class="cls-6" d="M13.4,3.7h0c-.2.1-.3.5-.6.6s-.2.1-.3,0S13.3,3.9,13.4,3.7Z"/><path class="cls-6" d="M13.6,3.7a.6.6,0,0,0-1.2-.3C12.9,3.1,13,2.9,13.6,3.7Z"/><path class="cls-5" d="M19.9,14.4h0c-.1-.3-.1-1,.3-1.1s-.7.9-.4,1.2.9,0,1.1-.5S20.1,14.2,19.9,14.4Z"/><path class="cls-5" d="M20,13.5l.2-.2Z"/><path class="cls-6" d="M19.9,14.4h0c.1-.2-.1-.5.1-.8l.2-.2C19.8,13.4,19.8,14.1,19.9,14.4Z"/><path class="cls-6" d="M19.8,14.5c.2.2,1.1.4,1.1-.5S20.7,14.7,19.8,14.5Z"/><path class="cls-5" d="M20.7,6.9h0c-.3,0-.9-.1-1-.6s.8.9,1.1.7.3-.9-.2-1.1S20.5,6.7,20.7,6.9Z"/><path class="cls-5" d="M19.9,6.6l-.2-.3Z"/><path class="cls-6" d="M20.7,6.9h0c-.2-.2-.6-.1-.8-.3l-.2-.3C19.8,6.8,20.4,6.9,20.7,6.9Z"/><path class="cls-6" d="M20.8,7c.3-.1.6-1-.2-1.1S21.2,6.2,20.8,7Z"/><path class="cls-5" d="M10.8,4.9h0c0,.3,0,.9-.4,1s.7-.8.5-1.1-1-.1-1.2.4S10.6,5.1,10.8,4.9Z"/><path class="cls-5" d="M10.6,5.8h0Z"/><path class="cls-6" d="M10.8,4.9h-.1c-.1.1.1.5-.1.8h-.2C10.8,5.8,10.8,5.2,10.8,4.9Z"/><path class="cls-6" d="M10.9,4.8a.7.7,0,0,0-1.2.4C9.9,4.7,9.9,4.5,10.9,4.8Z"/><path class="cls-5" d="M9.6,12.8v0Z"/><path class="cls-5" d="M8.9,12c.2.1.8.4.7.8s-.4-1-.8-1-.5.8-.1,1.2.3-.8.2-1Z"/><path class="cls-6" d="M8.9,12h0c.1.2.5.2.7.5v.3C9.7,12.4,9.1,12.1,8.9,12Z"/><path class="cls-6" d="M8.8,11.8c-.3.1-.9.8-.1,1.2S8.2,12.5,8.8,11.8Z"/><path class="cls-5" d="M17.8,4.8l-.2-.2Z"/><path class="cls-5" d="M17.6,4.6c.2.8,1.1.4,1.3.1s-.3-.9-.8-.9.4.7.6.8h0C18.5,4.7,17.9,5,17.6,4.6Z"/><path class="cls-6" d="M18.7,4.6h0l-.9.2-.2-.2C17.9,5,18.5,4.7,18.7,4.6Z"/><path class="cls-6" d="M18.9,4.7c.1-.3,0-1.2-.8-.9S18.8,3.7,18.9,4.7Z"/><path class="cls-5" d="M15.3,16.3h0c.2-.2.7-.6,1.1-.3s-1.2-.1-1.3.3.5.8,1,.6-.6-.6-.8-.6Z"/><path class="cls-5" d="M16.1,15.9h0Z"/><path class="cls-6" d="M15.3,16.3h0l.8-.4h.3C16,15.7,15.5,16.1,15.3,16.3Z"/><path class="cls-6" d="M15.1,16.3a.6.6,0,0,0,1,.6C15.6,17.1,15.4,17.2,15.1,16.3Z"/><path class="cls-5" d="M21.9,10.4c.1.6-.5.6-.5.9h0c-.2-.2-.7-.7-.4-1s0,1.1.4,1.2S22.1,10.9,21.9,10.4Z"/><path class="cls-5" d="M20.9,10.6a.4.4,0,0,1,.1-.3A.4.4,0,0,0,20.9,10.6Z"/><path class="cls-6" d="M21.4,11.3h0c0-.2-.4-.3-.5-.6a.4.4,0,0,1,.1-.3C20.7,10.6,21.2,11.1,21.4,11.3Z"/><path class="cls-6" d="M21.4,11.5c.3,0,1.1-.5.5-1.1S22.3,11,21.4,11.5Z"/><path class="cls-7" d="M18.7,13H19v.4a.1.1,0,0,1-.1-.1h-.4v-.2a.1.1,0,0,1,0-.2h.1l-.3-.3v-.2h-.2c.1-.1-.2-.1-.2-.1h-.2a.1.1,0,0,1,.1.1c0,.1,0,.2-.2.2h-.5v-.3H17l-.3-.3h-.2l-.4.4v.2l-.4.2h-.7l-.6-.3h-.1l-.5-.4h-.1v-.2h-.2l-.2.2v-.2a.4.4,0,0,0-.1.3v.3h-.5c-.2,0-.2-.1-.2-.2a.1.1,0,0,1,.1-.1h-.2c0-.1-.2-.2-.1-.2s.1-.3,0-.2-.2.2-.2.2v-.2h-.1v.4l-.4.3h.2a.1.1,0,0,1,0,.2v.2c-.1,0-.1-.1-.1-.2s0,.1-.1.1h-.2c-.1,0-.1-.1-.1-.2v-.2h.2l-.4-.2h0l-.2-.3v.3h-.3c0,.1.2.3.2.3H11l.5-.2h.6c-.1,0,0,.1,0,.1H14v.2h1.5c0-.1.3,0,.3,0h.2v-.2h.4c0-.1-.1-.1,0-.1h.3v-.2h1.3c-.1,0,0-.1,0-.1s.4.2.4.2h.2v-.2H19c.2-.1.3-.2.2-.2h-.1V13h-.1Z"/><polygon class="cls-8" points="16.8 11.9 16.8 12 16.8 11.9 16.8 11.9"/><path class="cls-8" d="M15,12.5Z"/><polygon class="cls-8" points="15.2 12.5 15.2 12.5 15.2 12.5 15.2 12.5"/><path class="cls-8" d="M13.2,12h1c-.1-.1-.3-.2-.4-.4h0l.3.2h1.6l-.2.2h1.2V12L15,10.4h0Zm1.8-.8Zm-.5.1h0Zm-.6.8h0l.4-.4v.2l-.2.3Zm.4.1h-.2s.1-.2.2-.2Zm.4-.5s-.1.2,0,.2h0s-.1.2,0,.3-.3-.1-.4,0-.1-.2,0-.3v-.3h.1a.1.1,0,0,1,0-.2h.3s-.1.2,0,.2Zm0,.6s-.1-.2,0-.3h.4v.3S14.8,12.2,14.7,12.3Zm.9-.3s0-.2-.1-.2.2-.1.2-.1V12h-.1s0,.2.1.2h-.5s-.1-.2,0-.3h.3v.2Zm-.2-.8h0Zm-.2.2h.3v.2h-.4A.5.5,0,0,1,15.2,11.4Zm0,.3h.3v.2h-.4Zm-.1.2h-.4a.1.1,0,0,1,0-.2v-.3H15v.2h.1A.1.1,0,0,0,15.1,11.9Z"/><path class="cls-9" d="M14.7,12.5h.8l.2-.2H14.1l-.3-.2c.1.2.3.3.4.4h.5Z"/><path class="cls-9" d="M15.8,12.3h0Z"/><polygon class="cls-9" points="13.8 12.1 13.8 12.1 13.8 12.1 13.8 12.1"/><polygon class="cls-10" points="14.5 11.3 14.3 11.4 14.5 11.4 14.5 11.3"/><polygon class="cls-10" points="15 11.2 14.7 11.3 15 11.3 15 11.2"/><polygon class="cls-10" points="15.4 11.2 15.2 11.3 15.4 11.3 15.4 11.2"/><path class="cls-4" d="M14.3,11.9v-.2l-.4.4h.2Z"/><path class="cls-4" d="M14.1,12.2h.2V12C14.2,12,14.1,12.2,14.1,12.2Z"/><path class="cls-4" d="M15,11.6v-.2h-.3v.3Z"/><path class="cls-4" d="M14.7,11.5h-.3a.1.1,0,0,0,0,.2h.3C14.6,11.7,14.7,11.5,14.7,11.5Z"/><path class="cls-4" d="M14.3,11.7h0V12h.4c-.1,0,0-.2,0-.2h-.4Z"/><path class="cls-4" d="M14.7,11.7a.1.1,0,0,0,0,.2h.4a.1.1,0,0,1,0-.2Z"/><path class="cls-4" d="M14.3,12.3c.1-.1.4,0,.4,0s0-.3,0-.3h-.4C14.2,12.1,14.3,12.3,14.3,12.3Z"/><path class="cls-4" d="M15.1,12h-.4c-.1.1,0,.3,0,.3s.5,0,.5,0Z"/><path class="cls-4" d="M15.5,11.6v-.2h-.3a.5.5,0,0,0-.1.3Z"/><path class="cls-4" d="M15.5,11.9v-.2h-.3v.2Z"/><path class="cls-4" d="M15.2,11.9c-.1.1,0,.3,0,.3h.3v-.2Z"/><path class="cls-10" d="M15.7,11.7s-.2,0-.2.1.1.2.1.2h.1Z"/><path class="cls-4" d="M15.5,12.2h.2c-.1,0-.1-.2-.1-.2h-.1Z"/><path class="cls-11" d="M14.2,13.3Z"/><path class="cls-11" d="M14.8,13.3h0Z"/><path class="cls-11" d="M15.6,13.3Z"/><path class="cls-11" d="M14.4,13.2a.1.1,0,0,1-.1.1h.1Z"/><path class="cls-11" d="M14.4,13.3Z"/><path class="cls-11" d="M15.7,13.3h0l-.7.4h.6l.4-.2Z"/><polygon class="cls-11" points="15 13.3 15 13.3 15 13.3 15 13.3"/><path class="cls-11" d="M16.4,12.5H13.5v.2h2.7l-.2.2.4-.4h-.1Z"/><path class="cls-4" d="M14.4,9.4Z"/><path class="cls-4" d="M13.6,8.6H13v2.2a3.2,3.2,0,0,0,.2,1.2h0L15,10.4h0V8.6H13.6Zm.8.3a.7.7,0,0,1,.4.4l-.2.2h-.1l-.4.4.2.3.2.2h-.1c0-.1,0-.3-.1-.3L14,10l-.6.7h-.2l.7-.8-.7-.7c-.1-.1-.1-.3,0-.3s.2,0,.3,0l.5.9.3-.4a.1.1,0,0,0-.1-.1A.4.4,0,0,1,14.4,8.9Z"/><path class="cls-12" d="M15,10.4h0L16.8,12h0a2.6,2.6,0,0,0,.2-1.1V8.6H15Zm.5-1.3h.1l.2.2h0l.2.3.5-.5c-.1-.1-.1-.2,0-.2s.1,0,0,.1h.1l.3.3h-.3c-.1,0,0,.1,0,.1h-.1c-.1,0,0,.1,0,.1h-.1c-.1,0,0,.1,0,.1s-.1-.1-.1,0h0l.2.3.4.4h-.1l-.3-.3-.4-.5h-.5l-.3-.2h.1l.5-.4-.2-.2c-.1,0-.2.3-.2.3a.7.7,0,0,1-.4-.4A.4.4,0,0,0,15.5,9.1Z"/><path class="cls-13" d="M14.3,10.3c.1,0,.1.2.1.3h.1l-.2-.2-.2-.3V10Z"/><path class="cls-13" d="M13.5,8.8c-.1,0-.2-.1-.3,0s-.1.2,0,.3l.7.7H14Z"/><path class="cls-9" d="M14.4,9.4h-.1l-.3.4h-.1l-.7.8h.2L14,10V9.8l.4-.4Z"/><path class="cls-4" d="M14.3,9.3h.3l.2-.2a.7.7,0,0,0-.4-.4.4.4,0,0,0-.2.3A.1.1,0,0,1,14.3,9.3Z"/><path class="cls-9" d="M15.7,9.4h0l.2.2H16l-.2-.3A.3.3,0,0,1,15.7,9.4Z"/><path class="cls-9" d="M16.2,9.9h-.1l.4.5.3.3h.1l-.4-.4-.2-.3h-.1Z"/><path class="cls-9" d="M15.6,9h0Z"/><path class="cls-4" d="M15.5,9.7s.1-.3.2-.3h0a.3.3,0,0,0,.1-.2h0L15.6,9h-.1a.4.4,0,0,1-.4.2A.7.7,0,0,0,15.5,9.7Z"/><polygon class="cls-4" points="15.3 10.2 15.3 10.2 15.3 10.2 15.3 10.2"/><path class="cls-4" d="M15.4,10h-.1l.3.2h.7c0-.1.1,0,.1,0s-.1-.1,0-.1h.1s-.1-.1,0-.1h.1s-.1-.1,0-.1h.3L16.6,9h-.1l-.5.5h-.1Zm.2,0h-.1V10Zm.9-.9v.3h-.1V9.2Zm-.2.1v.3h0V9.3Z"/><path class="cls-14" d="M16.5,9.4h0V9.1h-.1v.3Z"/><path class="cls-14" d="M16.3,9.6h0V9.2h-.1v.3Z"/><path class="cls-14" d="M15.5,10.2h0Z"/><path class="cls-9" d="M15.4,10h0Z"/><path class="cls-9" d="M16.5,9h0c.1-.1.1-.1,0-.1s-.1.1,0,.2Z"/><path class="cls-9" d="M19.7,7.8h-.3Z"/><path class="cls-9" d="M16.3,5h0v.2h.1s0-.2-.1-.2Z"/><path class="cls-9" d="M15.9,6.3h0c.1-.1,0-.1,0-.1h0Z"/><polygon class="cls-15" points="16.4 5 16.4 5 16.4 5 16.4 5"/><polygon class="cls-9" points="17 6.1 17 6.1 17 6.1 17 6.1"/><path class="cls-9" d="M17,6.1h0Z"/><path class="cls-9" d="M14.9,7.6Z"/><path class="cls-9" d="M14.2,6.4h0c0,.3-.1.3-.4.3s-.2-.2-.2-.2h.7l.3.3h0v.2h.1V7.1h0V6.8h0c0,.1.1.1.1.2a4.7,4.7,0,0,1,0,1.2h-.1V7.7h-.2v.2l-.2-.3h-.1l.4.5c.1.1,0,.4,0,.4h.5V7.7h.4l.3-.2H16a.1.1,0,0,1,.1-.1h-.2l-.2.2c-.1,0-.1,0-.1-.2h-.1c0,.1,0,.2-.1.2h-.2V7.1h-.1V6.9h-.1V6.7H15a.8.8,0,0,1-.2-.4V5.5a.3.3,0,0,0,.1-.2h-.2v.3c.1.2,0,.3-.1.3l-.3-.4V5.1h-.4c.2.1.3,0,.4.2s.4.4.4.4.1.4.1.6h-.1c-.1,0-.1,0-.1.1a.1.1,0,0,0-.1-.1.2.2,0,0,1-.2-.2V6.4h-.1Zm.7.3Z"/><path class="cls-9" d="M15,6.6h0l.5-.7h-.1V5.8h-.1a.4.4,0,0,1-.1.3c0,.1-.1.2-.1.3H15Z"/><path class="cls-9" d="M13,5.9a.3.3,0,0,0-.1-.2h-.1l.2.3Z"/><path class="cls-9" d="M13.2,5.6h0v.3h0a.3.3,0,0,0,.1-.2Z"/><path class="cls-9" d="M15.5,5.3h.3c0,.1-.1.1-.1.2h-.2s-.1-.1,0-.3h-.1v.4Z"/><path class="cls-9" d="M16.3,6.6V6.3h0v.3h.1Z"/><path class="cls-9" d="M16.5,6.5h0Z"/><path class="cls-7" d="M15.7,5.8h.1c.1-.1.2,0,.3.1l.8.4h-.1c.1-.1.2.1.2.1h.3s.1,0,0-.1l.2.2h0c0-.1,0-.1.1-.1h-.1V5.3h-.2a.1.1,0,0,0-.1-.1H17c-.1,0,0,.1,0,.1h-.8s-.1.1-.1,0h-.3c-.1,0,0,.1,0,.1s-.1-.1,0-.1h-.2s-.1-.1,0-.1H15a.3.3,0,0,0-.1.2.1.1,0,0,0,.1-.1h.6v.2h.3a.1.1,0,0,0,.1-.1Q15.7,6,15.7,5.8Z"/><path class="cls-7" d="M15.8,5.1H16c-.1,0,0-.1,0-.1h.5V4.8H16s.1,0,0-.1h-.9c-.2,0-.1.2-.1.2h.1a.1.1,0,0,0,.1-.1h.6Z"/><path class="cls-7" d="M12.5,6.5h.3l.3-.2h.2v.2h0v.2h.3a.3.3,0,0,1-.1.2s-.1.1-.1,0h-.9Z"/><path class="cls-7" d="M15.2,7.6h0v.2h.2l.2-.2h.1v.2h.1v.3s0-.2.1-.2v0h.3c.1-.1,0-.3,0-.3H16v0h-.6Z"/><path class="cls-7" d="M14.1,5.3h.5c-.1,0,0,.1,0,.1h.5a.1.1,0,0,1,.1.1h0a.1.1,0,0,1,.1-.1h-.7V4.4h-.7s.1.1,0,.1h-.1s0,.1.1,0h.3Z"/><path class="cls-7" d="M12.9,5.6h.5c-.1,0,.1-.1.1,0s.2-.1,0-.2h.1a.1.1,0,0,1-.1-.1h-.3a.1.1,0,0,1-.1-.1h-.7a.5.5,0,0,1-.1.3l.2-.2v.2h.5Z"/><path class="cls-7" d="M14.5,7.2a.1.1,0,0,0-.1-.1H13.3c-.1,0,0,.1,0,.1h0v.2h.1v.2l.2-.2h.1c.1,0,.1-.2.1-.2H14V7.7h.4v.2h.2V7.4h-.2V7.1h0A.1.1,0,0,0,14.5,7.2Z"/><polygon class="cls-7" points="15.2 7.2 15.2 7.2 15.2 7.2 15.2 7.2"/><path class="cls-7" d="M15.1,6.7h0v.2h.1v.2h.1V7h.8l.2.2h.4c.1,0,.2.2.2.2H17a.1.1,0,0,0,.1-.1h0c.2,0,.2-.1.2-.1H15.1Z"/><polygon class="cls-4" points="16.5 14.1 16.5 14.1 16.5 14.1 16.5 14.1"/><path class="cls-4" d="M17.9,13.5h-.3l-.7.3h-.6a2.3,2.3,0,0,1-1.3.3,2.3,2.3,0,0,1-1.3-.3h-.6l-.9-.3a.7.7,0,0,0-.6.4l.3.7c.2.3,1.1,0,1.2,0h.1l.2.2h2.4l.5-.2h.6c.1,0,1,.3,1.2,0l.3-.7-.2-.3h-.3Zm-5.4.4h.2a.1.1,0,0,1-.1-.1v.2h-.1c0,.1,0,.2.1.2h.1v-.2h-.3C12.4,14.1,12.4,14,12.5,13.9Zm-.4.2h.1c0-.1-.1-.1-.1-.2h.2v.2h-.2a.1.1,0,0,0,.1.1h-.1Zm.3.5h0c-.2,0-.5-.1-.5-.3s.2-.1.4-.1h.1Zm.8-.5H13c.1,0,.1,0,.1.1h-.2v-.2h.2Zm4.4-.5h.3c0,.2,0,.3-.2.3h-.2A.4.4,0,0,1,17.6,13.6Zm-.5.2h.1V14h.1V14h-.1Zm-3.6.9h-.1a.2.2,0,0,1,0-.3h.1a.1.1,0,0,0-.1-.1h0c.1,0,.1,0,.1.1h0Zm.8-.1h-.1v.3h-.1a.5.5,0,0,1,.1-.3l-.3.3v-.4h0c0,.1-.1.2-.1.3h-.1l.2-.3H14v.3l.2-.2h.1Zm.3.3h-.2v-.2h0v-.2h.2Zm.5.2-.2-.2h-.1v-.2H15c0,.1,0,.1-.1.1l.2.3Zm.3-.1h-.3v-.3h.1a.1.1,0,0,0,.1.1V15h-.1Zm.6-.2h-.1a.1.1,0,0,1,.1.1Zm.4,0h-.2v-.2h.1v.2a.1.1,0,0,0,.1-.1h0c.1.1.1.1.1.2Zm.3-.2h-.3c-.1,0-.1-.2.1-.2s0-.1.1-.1.1,0,.1.1A.2.2,0,0,1,16.7,14.6Zm.2-.2h0v-.2h.1Zm1.1.1h-.3c.2,0,.4,0,.4.1Z"/><path class="cls-16" d="M12.8,14.4h-.5c-.2,0-.4,0-.4.1s.3.3.5.3h.4Z"/><path class="cls-16" d="M18.1,14.3c0-.1-.2-.1-.4-.1H18Z"/><path class="cls-16" d="M13.5,13.9h-.2v.2h.3Z"/><path class="cls-4" d="M13.2,13.9h0v-.2h.2v.2h.2l.5.2a.6.6,0,0,0-.1-.4l-.8-.4s-.2.1-.2.2h.1Z"/><path class="cls-4" d="M13.7,14.9h-.1c0,.2,0,.4-.2.4l-.2-.2a.4.4,0,0,1,.1-.3h-.1a.4.4,0,0,0-.1.3c0,.3.2.3.3.3h.1A.5.5,0,0,0,13.7,14.9Z"/><path class="cls-4" d="M13.4,15.2c.2,0,.2-.2.2-.4h-.3a.4.4,0,0,0-.1.3Z"/><path class="cls-16" d="M14,15h-.3a.5.5,0,0,1-.2.4h-.1l.7.2.2-.2v-.2H14Z"/><path class="cls-16" d="M16.7,13.7c-.1,0-.2,0-.2.2h0v.2h.3Z"/><path class="cls-4" d="M16.5,14.1h0v-.2h0c0-.2.1-.2.2-.2v.2h.1c0-.1-.2-.2-.2-.2l-.8.4a.6.6,0,0,0-.1.4l.5-.2Z"/><path class="cls-4" d="M16.6,15.2c-.2,0-.2-.2-.2-.4h-.1c0,.3.1.4.3.4s.3,0,.3-.3a.4.4,0,0,0-.1-.3h-.1a.4.4,0,0,1,.1.3Z"/><path class="cls-4" d="M16.4,14.8c0,.2,0,.4.2.4l.2-.2a.4.4,0,0,0-.1-.3h-.3Z"/><path class="cls-16" d="M16.3,14.9l-.5.2h0v.2l.2.2.7-.2h0C16.4,15.3,16.3,15.2,16.3,14.9Z"/><path class="cls-17" d="M12.1,14h.1a.1.1,0,0,1-.1-.1h.2v-.2h-.2c0,.1.1.1.1.2h-.1Z"/><path class="cls-17" d="M12.5,14.1h.3V14h-.1c-.1,0-.1-.1-.1-.2h.1v-.2a.1.1,0,0,0,.1.1h-.2C12.4,14,12.4,14.1,12.5,14.1Z"/><path class="cls-17" d="M13.7,14.5h-.2c0-.1,0-.1-.1-.1h0a.1.1,0,0,1,.1.1h-.1a.2.2,0,0,0,0,.3h.3Z"/><path class="cls-17" d="M14.1,14.5h.1l-.2.2v-.3h-.1l-.2.3h.1c0-.1.1-.2.1-.3h0v.4l.3-.3a.5.5,0,0,0-.1.3h.1v-.3h-.1Z"/><path class="cls-17" d="M15.9,14.7H16a.1.1,0,0,0-.1-.1Z"/><path class="cls-17" d="M16.3,14.6h0a.1.1,0,0,1-.1.1v-.2h-.1v.2h.2c0-.1,0-.1-.1-.2Z"/><path class="cls-17" d="M17.1,13.9h.1v.2h-.1v-.2h-.1Z"/><path class="cls-17" d="M13.1,14H13v.2h.2c0-.1,0-.1-.1-.1h.1Zm-.1.3h0Zm.1-.2h0Z"/><path class="cls-4" d="M13,14.1h0Z"/><path class="cls-4" d="M13.1,14h0Z"/><path class="cls-17" d="M14.6,14.8h-.2v.2h0V15h.2Zm-.1.1h0Zm0-.1h0Z"/><path class="cls-4" d="M14.4,14.8Z"/><path class="cls-4" d="M14.5,14.7Z"/><path class="cls-17" d="M15,14.7h-.2V15h.1l.2.2h0l-.2-.3C15,14.8,15,14.8,15,14.7Zm-.1.1h-.1c.1,0,.1,0,.1.1Z"/><path class="cls-4" d="M14.8,14.7h.1C14.9,14.7,14.9,14.7,14.8,14.7Z"/><path class="cls-17" d="M17,14.3h-.2v.2H17Zm-.1-.1h0Z"/><path class="cls-4" d="M16.9,14.1h0Z"/><path class="cls-17" d="M15.5,15v-.2a.1.1,0,0,1-.1-.1h-.1V15h.4Zm-.3-.2a.1.1,0,0,1,.1-.1h-.1Z"/><path class="cls-4" d="M15.3,14.7a.1.1,0,0,0-.1.1h.1Z"/><path class="cls-17" d="M16.6,14.2c-.1,0-.1,0-.1.1s-.2.2-.1.2h.3a.2.2,0,0,0,0-.3C16.7,14.2,16.7,14.2,16.6,14.2Zm0,.3h-.2c0-.1,0-.2.1-.2h.1Z"/><path class="cls-4" d="M16.7,14.4h-.2c-.1,0-.1.1-.1.2h.3Z"/><path class="cls-17" d="M17.6,14h.1c.2,0,.2-.1.2-.3h-.3a.4.4,0,0,0-.1.3Zm0-.3c.1,0,.2,0,.2.1h-.2C17.5,13.8,17.6,13.7,17.6,13.7Z"/><path class="cls-4" d="M17.7,13.9h.1c0-.1-.1-.1-.2-.1s-.1.1,0,.1Z"/><path class="cls-9" d="M12.3,6.9Z"/><path class="cls-9" d="M12.4,6.6h0v.3l.4-.3h0V6.4h-.3Z"/><path class="cls-9" d="M12.2,6.9Z"/><path class="cls-9" d="M12.4,6.7Z"/><path class="cls-9" d="M13.3,6.4h0V6.2h-.1A.3.3,0,0,1,13.3,6.4Z"/><path class="cls-9" d="M10.4,7.9l.3-.2h.2l.6-.3h.2c.2-.1.1-.2.1-.2h0l-1.1.5h-.4c0-.1,0-.1-.1-.1l-.3.3v.3h.1v.2h0c.1.1.1,0,.2-.1l.2-.3h.1Z"/><path class="cls-4" d="M12.8,6.6h0a1.8,1.8,0,0,1,.1.6,1,1,0,0,0,.7-.4h-.3V6.4h0a.3.3,0,0,0-.1-.2h-.1l-.3.2h-.1Z"/><path class="cls-4" d="M12.4,6.6h0c0-.1-.1-.2,0-.2h-.7v.6h.1l.6-.3Zm-.6-.1Zm.3,0h0Z"/><path class="cls-18" d="M12.4,6.6h0c0-.1-.1-.2,0-.2h-.7v.6h.1l.6-.3Zm-.6-.1Zm.3,0h0Z"/><path class="cls-7" d="M12.4,6.5Z"/><path class="cls-19" d="M12.4,6.5Z"/><path class="cls-7" d="M12.4,6.6Z"/><path class="cls-20" d="M12.4,6.6Z"/><path class="cls-9" d="M11.8,7h.1c.1.1.2,0,.3-.1h.2l-.6.3Z"/><path class="cls-21" d="M11.8,7h.1c.1.1.2,0,.3-.1h.2l-.6.3Z"/><path class="cls-17" d="M12.4,6h-.1a.2.2,0,0,0-.3,0h-.3c-.1.1-.1.1,0,.1h.7c-.1,0,0,.1,0,.2h.1V6.3h0C12.5,6.1,12.5,6,12.4,6Zm-.6,0h0S11.7,6,11.8,6Z"/><polygon class="cls-17" points="11.7 6.2 11.7 6.2 11.7 6.2 11.7 6.2"/><path class="cls-4" d="M11.8,6.1h0c-.1,0,0,.1,0,.1Z"/><path class="cls-4" d="M11.8,8.9h.8V8.5a1,1,0,0,1,.1.3l.2.2H13V8.6h0s0-.3-.1-.4V7.4h-.3L12.4,7c-.1,0-.1-.1,0-.1l-.9.4-.4.2s-.1.1,0,.3H11v.2h-.1V7.8a.3.3,0,0,0,.1-.2h-.2l-.3.2h0l.2.6c.1.2.1.1.1.1H11c0-.1.1-.1.1-.2l.3-.3a2,2,0,0,1,.1.5Zm.7-1h0Zm-.9.1h0Z"/><path class="cls-22" d="M11.8,8.9h.8V8.5a1,1,0,0,1,.1.3l.2.2H13V8.6h0s0-.3-.1-.4V7.4h-.3L12.4,7c-.1,0-.1-.1,0-.1l-.9.4-.4.2s-.1.1,0,.3H11v.2h-.1V7.8a.3.3,0,0,0,.1-.2h-.2l-.3.2h0l.2.6c.1.2.1.1.1.1H11c0-.1.1-.1.1-.2l.3-.3a2,2,0,0,1,.1.5Zm.7-1h0Zm-.9.1h0Z"/><path class="cls-9" d="M10.9,7.6h0Z"/><path class="cls-23" d="M10.9,7.6h0Z"/><path class="cls-9" d="M12.4,6.7h-.2c-.1.1-.2.2-.3.1h-.1s.1.1-.1.2h-.2l.9-.4V6.6Z"/><path class="cls-24" d="M12.4,6.7h-.2c-.1.1-.2.2-.3.1h-.1s.1.1-.1.2h-.2l.9-.4V6.6Z"/><polygon class="cls-9" points="10.3 7.9 10.3 7.9 10.4 7.9 10.3 7.9"/><polygon class="cls-25" points="10.3 7.9 10.3 7.9 10.4 7.9 10.3 7.9"/><path class="cls-9" d="M12.4,6.7Z"/><path class="cls-26" d="M12.4,6.7Z"/><path class="cls-27" d="M12.4,6.7Z"/><path class="cls-9" d="M12.3,6.9h0Z"/><path class="cls-28" d="M12.3,6.9h0Z"/><path class="cls-29" d="M12.3,6.9h0Z"/><path class="cls-9" d="M12.3,6.9Z"/><path class="cls-30" d="M12.3,6.9Z"/><path class="cls-31" d="M12.3,6.9Z"/><path class="cls-9" d="M12.2,6.9c-.1.1-.2.2-.3.1h0C12,7.1,12.1,7,12.2,6.9Z"/><path class="cls-32" d="M12.2,6.9c-.1.1-.2.2-.3.1h0C12,7.1,12.1,7,12.2,6.9Z"/><path class="cls-33" d="M12.2,6.9c-.1.1-.2.2-.3.1h0C12,7.1,12.1,7,12.2,6.9Z"/><path class="cls-17" d="M11.6,7.9h0Z"/><path class="cls-17" d="M12.5,8h0Z"/><path class="cls-4" d="M11.8,6.5Z"/><path class="cls-4" d="M11.8,6.4h0Z"/><path class="cls-17" d="M11.7,6.5h0Z"/><path class="cls-4" d="M12.1,6.4h0Z"/><path class="cls-17" d="M12.1,6.5Z"/><path class="cls-34" d="M10.3,7.7h.4a.1.1,0,0,1-.1-.1h-.4C10.3,7.6,10.3,7.6,10.3,7.7Z"/><path class="cls-4" d="M10.9,12.8l.4.2h0l.4-.3v-.4c0-.4.1-1.2.1-1.2a4.5,4.5,0,0,1,.2-.8,1.1,1.1,0,0,0,.2.5v1.8h.7v-.3a6.6,6.6,0,0,1-.1-1.3,1.2,1.2,0,0,0-.1-.5c0-.2-.1-1.1-.1-1.3V9.1H11.4l-.2.6h0c0,.4-.1,1.4-.1,1.5s.1.1,0,.4-.1.9-.2,1.2Z"/><path class="cls-35" d="M12.4,8.9h-.6v.2h.6Z"/><path class="cls-35" d="M12.6,8.8h-.1v.2h.1Z"/><path class="cls-35" d="M11.8,9.1V8.9h-.2v.2h-.1V8.8h-.1V9h.4Z"/><polygon class="cls-4" points="11.6 9.1 11.6 8.9 11.6 8.9 11.5 8.8 11.5 8.8 11.5 9 11.6 9.1"/><polygon class="cls-4" points="12.5 8.9 12.4 8.9 12.4 8.9 12.4 8.9 12.4 9.1 12.4 9.1 12.5 9.1 12.5 9.1 12.5 8.9"/><polygon class="cls-4" points="11.8 9.1 11.8 9.1 11.8 9.1 11.8 9.1 11.8 8.9 11.8 8.9 11.8 8.9 11.8 8.9 11.8 8.9 11.8 9.1"/><path class="cls-36" d="M11.3,13h-.2v.2c0,.1,0,.2.1.2h.2c.1,0,.1,0,.1-.1s0,.2.1.2v-.2a.1.1,0,0,0,0-.2h-.2Z"/><path class="cls-36" d="M12.4,12.7h-.1a.1.1,0,0,0-.1.1c0,.1,0,.2.2.2h0Z"/><path class="cls-13" d="M17.6,6.7h0Z"/><path class="cls-13" d="M17.7,6.9h0Z"/><path class="cls-13" d="M17.6,6.6h0Z"/><path class="cls-13" d="M18.2,7h0s-.1.1.1.2l.6.3h.4l-1.1-.6Z"/><path class="cls-13" d="M17.6,6.6h0l-.7-.4h0l-.8-.4c-.1-.1-.2-.2-.3-.1h-.1q0,.2.3.3h0l1.6.8Z"/><path class="cls-13" d="M19.3,7.6h0l.4.2h0c.2.1.1.2.2.3h.2c.1.1.1-.1.1-.1H20c.1-.1.1.1.2.1s.1-.1,0-.2h-.5l-.3-.3h-.1Z"/><path class="cls-4" d="M18.3,6.2h-.6v.2h0l.6.3a.1.1,0,0,1,.1-.1V6.5c-.1-.1,0-.1,0-.1a.3.3,0,0,0-.1-.2Zm-.3.3h0Zm.3,0h0s-.2,0-.1-.1h.1Z"/><path class="cls-37" d="M18.3,6.2h-.6v.2h0l.6.3a.1.1,0,0,1,.1-.1V6.5c-.1-.1,0-.1,0-.1a.3.3,0,0,0-.1-.2Zm-.3.3h0Zm.3,0h0s-.2,0-.1-.1h.1Z"/><path class="cls-13" d="M17.6,6.6h.6l-.6-.3Z"/><path class="cls-38" d="M17.6,6.6h.6l-.6-.3Z"/><path class="cls-17" d="M17.6,6h0c-.1,0-.1,0-.1.1h0c0,.2.1.2.1.2h0V6.1h.6c.1,0,0-.1,0-.1h-.7Z"/><path class="cls-4" d="M16.6,8.6H17v.3h.1l.2-.2a.5.5,0,0,0,.1-.3v.3h1.1a2,2,0,0,1,.1-.5l.3.3c0,.1.1.1.1.2h.3s0,.1.1-.1l.2-.6h.1l-.5-.2h0V8h-.1V7.9c-.1-.1-.1-.1,0-.1s0-.2-.1-.2l-1.3-.7h0c0,.1-.1.2-.3.2s-.3.2-.3.4v.3a.1.1,0,0,1,0,.2v.3h-.4Zm1.8-.7h0Zm-.9,0Z"/><path class="cls-39" d="M16.6,8.6H17v.3h.1l.2-.2a.5.5,0,0,0,.1-.3v.3h1.1a2,2,0,0,1,.1-.5l.3.3c0,.1.1.1.1.2h.3s0,.1.1-.1l.2-.6h.1l-.5-.2h0V8h-.1V7.9c-.1-.1-.1-.1,0-.1s0-.2-.1-.2l-1.3-.7h0c0,.1-.1.2-.3.2s-.3.2-.3.4v.3a.1.1,0,0,1,0,.2v.3h-.4Zm1.8-.7h0Zm-.9,0Z"/><path class="cls-4" d="M19.3,7.5Z"/><path class="cls-40" d="M19.3,7.5Z"/><path class="cls-12" d="M16.4,8.6h0Z"/><path class="cls-41" d="M16.4,8.6h0Z"/><path class="cls-13" d="M19.1,7.6h.1l.5.2-.4-.2h-.2Z"/><path class="cls-42" d="M19.1,7.6h.1l.5.2-.4-.2h-.2Z"/><path class="cls-13" d="M18.9,7.5l-.6-.3c-.2-.1-.1-.2-.1-.2h-.6v.3l1.3.7Z"/><path class="cls-43" d="M18.9,7.5l-.6-.3c-.2-.1-.1-.2-.1-.2h-.6v.3l1.3.7Z"/><path class="cls-13" d="M18,7h0Z"/><path class="cls-44" d="M18,7h0Z"/><path class="cls-45" d="M18,7h0Z"/><path class="cls-13" d="M17.6,6.6Z"/><path class="cls-46" d="M17.6,6.6Z"/><path class="cls-47" d="M17.6,6.6Z"/><path class="cls-13" d="M17.7,6.9Z"/><path class="cls-48" d="M17.7,6.9Z"/><g class="cls-49"><rect class="cls-50" x="17.7" y="6.9"/><path class="cls-50" d="M17.9,7V6.7h0a2.5,2.5,0,0,0-1.3.4h1.3Z"/><path class="cls-51" d="M17.9,7V6.7h0a2.8,2.8,0,0,0-1.3.3h1.3Z"/><path class="cls-52" d="M17.9,7V6.7h0a2.1,2.1,0,0,0-1.2.3h1.2Z"/><path class="cls-53" d="M17.9,7V6.7h0a2.1,2.1,0,0,0-1.2.3h1.2Z"/><path class="cls-54" d="M17.9,7V6.7h0a2.1,2.1,0,0,0-1.2.3h1.2Z"/><path class="cls-55" d="M17.9,7V6.7h0a2.1,2.1,0,0,0-1.2.3h1.2Z"/><path class="cls-56" d="M17.9,7V6.7h0a2.1,2.1,0,0,0-1.2.4h1.2Z"/><path class="cls-57" d="M17.9,7V6.8h0a2.1,2.1,0,0,0-1.2.3h1.2Z"/><path class="cls-58" d="M17.9,7V6.8h0a1.6,1.6,0,0,0-1.1.3h1.1Z"/><path class="cls-59" d="M17.9,7V6.8h0a2,2,0,0,0-1.1.3h1.1Z"/><path class="cls-60" d="M17.9,7V6.8h0a2,2,0,0,0-1.1.3h1.1Z"/><path class="cls-61" d="M17.9,7V6.8h0a2,2,0,0,0-1.1.3h1.1Z"/><path class="cls-62" d="M17.9,7V6.8h0a2,2,0,0,0-1.1.3h1.1Z"/><path class="cls-63" d="M17.9,7h0l-1,.2h1Z"/><path class="cls-64" d="M17.9,7h0l-1,.2h1Z"/><path class="cls-65" d="M17.9,7h0a1.5,1.5,0,0,0-1,.3l.7-.2Z"/><path class="cls-66" d="M17.9,7h0a1.7,1.7,0,0,0-1,.3l.7-.2Z"/><path class="cls-67" d="M17.9,7h0c-.8,0-1.4.4-1.4.9L17.6,7Z"/><path class="cls-68" d="M17.9,7h0c-.8,0-1.4.4-1.4.9L17.6,7Z"/><path class="cls-69" d="M17.9,7h0c-.7,0-1.3.3-1.3.8l1-.8Z"/><path class="cls-70" d="M17.9,7h0c-.7,0-1.3.4-1.3.8l1-.8Z"/><path class="cls-71" d="M17.9,7h0c-.7,0-1.3.4-1.3.8l1-.8Z"/><path class="cls-72" d="M17.9,7h0c-.7,0-1.3.4-1.3.8l1-.8Z"/><path class="cls-73" d="M17.9,7h0c-.7,0-1.2.4-1.2.8l.9-.8Z"/></g><g class="cls-74"><path class="cls-50" d="M17.7,6.6h0Z"/><path class="cls-51" d="M17.7,6.6h0Z"/><path class="cls-52" d="M17.7,6.6h0Z"/><path class="cls-53" d="M17.7,6.6h0Z"/><path class="cls-54" d="M17.7,6.6h0Z"/><path class="cls-55" d="M17.7,6.6h0Z"/><path class="cls-56" d="M17.7,6.6h0Z"/><path class="cls-57" d="M17.7,6.6h0Z"/><path class="cls-58" d="M17.7,6.6h0Z"/><path class="cls-59" d="M17.7,6.6h0Z"/><path class="cls-60" d="M17.7,6.6h0Z"/><path class="cls-61" d="M17.7,6.6h0Z"/><path class="cls-62" d="M17.7,6.6h0Z"/><path class="cls-63" d="M17.7,6.6h0Z"/><path class="cls-64" d="M17.7,6.6h0Z"/><path class="cls-65" d="M17.7,6.6h0Z"/><path class="cls-66" d="M17.7,6.6h0Z"/><path class="cls-67" d="M17.7,6.6h0Z"/><path class="cls-68" d="M17.7,6.6h0Z"/><path class="cls-69" d="M17.7,6.6h0Z"/><path class="cls-70" d="M17.7,6.6h0Z"/><path class="cls-71" d="M17.7,6.6h0Z"/><path class="cls-72" d="M17.7,6.6h0Z"/><path class="cls-73" d="M17.7,6.6h0Z"/><path class="cls-75" d="M17.7,6.6h0Z"/><path class="cls-76" d="M17.7,6.6h0Z"/><path class="cls-77" d="M17.7,6.6h0Z"/><path class="cls-78" d="M17.7,6.6h0Z"/><path class="cls-79" d="M17.7,6.6h0Z"/><path class="cls-80" d="M17.6,6.6Z"/><path class="cls-81" d="M17.6,6.6Z"/><path class="cls-82" d="M17.6,6.6Z"/><path class="cls-83" d="M17.6,6.6Z"/><path class="cls-84" d="M17.6,6.6Z"/><path class="cls-85" d="M17.6,6.6Z"/><path class="cls-86" d="M17.6,6.6Z"/><path class="cls-87" d="M17.6,6.6Z"/><path class="cls-88" d="M17.6,6.6Z"/><path class="cls-89" d="M17.6,6.6Z"/><path class="cls-90" d="M17.6,6.6Z"/><path class="cls-91" d="M17.6,6.6Z"/><path class="cls-92" d="M17.6,6.6Z"/><path class="cls-93" d="M17.6,6.6Z"/><path class="cls-94" d="M17.6,6.6Z"/><path class="cls-95" d="M17.6,6.6Z"/><path class="cls-96" d="M17.6,6.6Z"/><path class="cls-97" d="M17.6,6.6Z"/><path class="cls-98" d="M17.6,6.6Z"/><path class="cls-99" d="M17.6,6.6Z"/><path class="cls-100" d="M17.6,6.6Z"/><path class="cls-101" d="M17.6,6.6Z"/><path class="cls-102" d="M17.6,6.6Z"/><path class="cls-103" d="M17.6,6.6Z"/><path class="cls-104" d="M17.6,6.6Z"/><path class="cls-105" d="M17.6,6.6Z"/><path class="cls-106" d="M17.6,6.6Z"/><path class="cls-107" d="M17.6,6.6Z"/><path class="cls-108" d="M17.6,6.6Z"/><path class="cls-109" d="M17.6,6.6Z"/><path class="cls-110" d="M17.6,6.6Z"/><path class="cls-111" d="M17.6,6.6Z"/><path class="cls-112" d="M17.6,6.6Z"/><polygon class="cls-113" points="17.6 6.6 17.6 6.6 17.6 6.6 17.6 6.6 17.6 6.6"/><polygon class="cls-114" points="17.6 6.6 17.6 6.6 17.6 6.6 17.6 6.6 17.6 6.6"/><polygon class="cls-115" points="17.6 6.6 17.6 6.6 17.6 6.6 17.6 6.6 17.6 6.6"/><polygon class="cls-116" points="17.6 6.6 17.6 6.6 17.6 6.6 17.6 6.6 17.6 6.6"/><polygon class="cls-117" points="17.6 6.6 17.6 6.6 17.6 6.6 17.6 6.6 17.6 6.6"/><polygon class="cls-118" points="17.6 6.6 17.6 6.6 17.6 6.6 17.6 6.6 17.6 6.6"/><polygon class="cls-119" points="17.6 6.6 17.6 6.6 17.6 6.6 17.6 6.6 17.6 6.6"/><polygon class="cls-120" points="17.6 6.6 17.6 6.6 17.6 6.6 17.6 6.6 17.6 6.6"/><polygon class="cls-121" points="17.6 6.6 17.6 6.6 17.6 6.6 17.6 6.6 17.6 6.6"/></g><g class="cls-74"><polygon class="cls-50" points="17.6 6.6 17.6 6.6 17.6 6.6 17.6 6.6 17.6 6.6"/><polygon class="cls-51" points="17.6 6.6 17.6 6.6 17.6 6.6 17.6 6.6 17.6 6.6"/><polygon class="cls-52" points="17.6 6.6 17.6 6.6 17.6 6.6 17.6 6.6 17.6 6.6"/><polygon class="cls-53" points="17.6 6.6 17.6 6.6 17.6 6.6 17.6 6.6 17.6 6.6"/><polygon class="cls-54" points="17.6 6.6 17.6 6.6 17.6 6.6 17.6 6.6 17.6 6.6"/><polygon class="cls-55" points="17.6 6.6 17.6 6.6 17.6 6.6 17.6 6.6 17.6 6.6"/><polygon class="cls-56" points="17.6 6.6 17.6 6.6 17.6 6.6 17.6 6.6 17.6 6.6"/><polygon class="cls-57" points="17.6 6.6 17.6 6.6 17.6 6.6 17.6 6.6 17.6 6.6"/><polygon class="cls-58" points="17.6 6.6 17.6 6.6 17.6 6.6 17.6 6.6 17.6 6.6"/><polygon class="cls-59" points="17.6 6.6 17.6 6.6 17.6 6.6 17.6 6.6 17.6 6.6"/><polygon class="cls-60" points="17.6 6.6 17.6 6.6 17.6 6.6 17.6 6.6 17.6 6.6"/><polygon class="cls-61" points="17.6 6.6 17.6 6.6 17.6 6.6 17.6 6.6 17.6 6.6"/><polygon class="cls-62" points="17.6 6.6 17.6 6.6 17.6 6.6 17.6 6.6 17.6 6.6"/><polygon class="cls-63" points="17.6 6.6 17.6 6.6 17.6 6.6 17.6 6.6 17.6 6.6"/><polygon class="cls-64" points="17.6 6.6 17.6 6.6 17.6 6.6 17.6 6.6 17.6 6.6"/><polygon class="cls-65" points="17.6 6.6 17.6 6.6 17.6 6.6 17.6 6.6 17.6 6.6"/><polygon class="cls-66" points="17.6 6.6 17.6 6.6 17.6 6.6 17.6 6.6 17.6 6.6"/><polygon class="cls-67" points="17.6 6.6 17.6 6.6 17.6 6.6 17.6 6.6 17.6 6.6"/><polygon class="cls-68" points="17.6 6.6 17.6 6.6 17.6 6.6 17.6 6.6 17.6 6.6"/><polygon class="cls-69" points="17.6 6.6 17.6 6.6 17.6 6.6 17.6 6.6 17.6 6.6"/><polygon class="cls-70" points="17.6 6.6 17.6 6.6 17.6 6.6 17.6 6.6 17.6 6.6"/><polygon class="cls-71" points="17.6 6.6 17.6 6.6 17.6 6.6 17.6 6.6 17.6 6.6"/><polygon class="cls-72" points="17.6 6.6 17.6 6.6 17.6 6.6 17.6 6.6 17.6 6.6"/><polygon class="cls-73" points="17.6 6.6 17.6 6.6 17.6 6.6 17.6 6.6 17.6 6.6"/><polygon class="cls-75" points="17.6 6.6 17.6 6.6 17.6 6.6 17.6 6.6 17.6 6.6"/><polygon class="cls-76" points="17.6 6.6 17.6 6.6 17.6 6.6 17.6 6.6 17.6 6.6"/><polygon class="cls-77" points="17.6 6.6 17.6 6.6 17.6 6.6 17.6 6.6 17.6 6.6"/><polygon class="cls-78" points="17.6 6.6 17.6 6.6 17.6 6.6 17.6 6.6 17.6 6.6"/><polygon class="cls-79" points="17.6 6.6 17.6 6.6 17.6 6.6 17.6 6.6 17.6 6.6"/><polygon class="cls-80" points="17.6 6.6 17.6 6.6 17.6 6.6 17.6 6.6 17.6 6.6"/><polygon class="cls-81" points="17.6 6.6 17.6 6.6 17.6 6.6 17.6 6.6 17.6 6.6"/><polygon class="cls-82" points="17.6 6.6 17.6 6.6 17.6 6.6 17.6 6.6 17.6 6.6"/><polygon class="cls-83" points="17.6 6.6 17.6 6.6 17.6 6.6 17.6 6.6 17.6 6.6"/><polygon class="cls-84" points="17.6 6.6 17.6 6.6 17.6 6.6 17.6 6.6 17.6 6.6"/><polygon class="cls-85" points="17.6 6.6 17.6 6.6 17.6 6.6 17.6 6.6 17.6 6.6"/><polygon class="cls-86" points="17.6 6.6 17.6 6.6 17.6 6.6 17.6 6.6 17.6 6.6"/><polygon class="cls-87" points="17.6 6.6 17.6 6.6 17.6 6.6 17.6 6.6 17.6 6.6"/><polygon class="cls-88" points="17.6 6.6 17.6 6.6 17.6 6.6 17.6 6.6 17.6 6.6"/><polygon class="cls-89" points="17.6 6.6 17.6 6.6 17.6 6.6 17.6 6.6 17.6 6.6"/><polygon class="cls-90" points="17.6 6.6 17.6 6.6 17.6 6.6 17.6 6.6 17.6 6.6"/><polygon class="cls-91" points="17.6 6.6 17.6 6.6 17.6 6.6 17.6 6.6 17.6 6.6"/><polygon class="cls-92" points="17.6 6.6 17.6 6.6 17.6 6.6 17.6 6.6 17.6 6.6"/><polygon class="cls-93" points="17.6 6.6 17.6 6.6 17.6 6.6 17.6 6.6 17.6 6.6"/><polygon class="cls-94" points="17.6 6.6 17.6 6.6 17.6 6.6 17.6 6.6 17.6 6.6"/><polygon class="cls-95" points="17.6 6.6 17.6 6.6 17.6 6.6 17.6 6.6 17.6 6.6"/><polygon class="cls-96" points="17.6 6.6 17.6 6.6 17.6 6.6 17.6 6.6 17.6 6.6"/><polygon class="cls-97" points="17.6 6.6 17.6 6.6 17.6 6.6 17.6 6.6 17.6 6.6"/><polygon class="cls-98" points="17.6 6.6 17.6 6.6 17.6 6.6 17.6 6.6 17.6 6.6"/><polygon class="cls-99" points="17.6 6.6 17.6 6.6 17.6 6.6 17.6 6.6 17.6 6.6"/><polygon class="cls-100" points="17.6 6.6 17.6 6.6 17.6 6.6 17.6 6.6 17.6 6.6"/><polygon class="cls-101" points="17.6 6.6 17.6 6.6 17.6 6.6 17.6 6.6 17.6 6.6"/><polygon class="cls-102" points="17.6 6.6 17.6 6.6 17.6 6.6 17.6 6.6 17.6 6.6"/><polygon class="cls-103" points="17.6 6.6 17.6 6.6 17.6 6.6 17.6 6.6 17.6 6.6"/><polygon class="cls-104" points="17.6 6.6 17.6 6.6 17.6 6.6 17.6 6.6 17.6 6.6"/><polygon class="cls-105" points="17.6 6.6 17.6 6.6 17.6 6.6 17.6 6.6 17.6 6.6"/><polygon class="cls-106" points="17.6 6.6 17.6 6.6 17.6 6.6 17.6 6.6 17.6 6.6"/><polygon class="cls-107" points="17.6 6.6 17.6 6.6 17.6 6.6 17.6 6.6 17.6 6.6"/><polygon class="cls-108" points="17.6 6.6 17.6 6.6 17.6 6.6 17.6 6.6 17.6 6.6"/></g><path class="cls-17" d="M18.4,8h0Z"/><path class="cls-17" d="M17.5,8h0Z"/><path class="cls-4" d="M18.3,6.4h-.1c-.1.1.1.1.1.1h0Z"/><path class="cls-17" d="M18.2,6.5h0Z"/><path class="cls-4" d="M17.9,6.4h0Z"/><path class="cls-17" d="M17.9,6.5Z"/><path class="cls-4" d="M18.3,9.1h-.9v.2c0,.2-.1,1.1-.1,1.3a1.2,1.2,0,0,0-.1.5,6.2,6.2,0,0,1-.1,1.3v.3h.7V10.8a1.1,1.1,0,0,0,.2-.5,4.5,4.5,0,0,1,.2.8,4.9,4.9,0,0,1,.1,1.4v.2l.3.3h.1l.4-.2h0s-.1-.5-.2-1.3,0-.3,0-.4-.1-1.1-.1-1.5h0c0-.3-.2-.5-.2-.6h-.3Z"/><path class="cls-35" d="M18.4,9.1V8.9h-.2v.2h.3V8.8h-.1V9Z"/><path class="cls-35" d="M17.6,9.1h.6V8.9h-.6Z"/><path class="cls-35" d="M17.4,9.1h.1V8.9h-.2Z"/><polygon class="cls-4" points="18.4 8.9 18.4 8.9 18.4 9.1 18.5 9 18.5 8.8 18.5 8.8 18.4 8.9 18.4 8.9 18.4 8.9"/><polygon class="cls-4" points="17.5 9.1 17.5 9.1 17.6 9.1 17.6 9.1 17.6 8.9 17.6 8.9 17.6 8.9 17.6 8.9 17.5 9.1"/><polygon class="cls-4" points="18.2 9.1 18.2 9.1 18.3 9.1 18.3 9.1 18.2 8.9 18.2 8.9 18.2 8.9 18.2 8.9 18.2 9.1"/><path class="cls-9" d="M18.5,13a.1.1,0,0,0,0,.2v.2h.4a.1.1,0,0,0,.1.1v-.4h-.5Z"/><path class="cls-9" d="M17,12.8h.6c.2,0,.2-.1.2-.2a.1.1,0,0,0-.1-.1H17Z"/><path class="cls-122" d="M13.7,12.8h0Z"/><path class="cls-122" d="M16.3,12.8H13.7l.5.4h.1a.1.1,0,0,0,.1-.1H16V13Z"/><path class="cls-123" d="M15,13.7l.7-.4H14.3l.6.3H15Z"/><path class="cls-123" d="M15.6,13.3Z"/></g></svg>