<svg id="Flags" xmlns="http://www.w3.org/2000/svg" viewBox="0 0 30 20"><defs><style>.cls-1{fill:none;}.cls-2{fill:#19367d;}.cls-3{fill:#fff;}.cls-4{fill:#cf142b;}</style></defs><title>ck</title><polygon class="cls-1" points="0 6.7 0 5 0 4.5 0 3 0 2.5 0 2.5 0 6.7 0 13.3 0 17.5 0 17.5 0 7.5 0 6.7"/><path class="cls-2" d="M.5,1.1A2.2,2.2,0,0,0,0,2.5H3.2Z"/><path class="cls-2" d="M6.2,0H8.7V2.3L13.3,0H1.9L6.2,2.2Z"/><path class="cls-2" d="M30,17.5V2.5A2.5,2.5,0,0,0,27.5,0H15V.9L11.8,2.5H15V5H11.7L15,6.6v.9H13.3L8.7,5.2V7.5H6.2V5.2L1.7,7.5H0v10A2.5,2.5,0,0,0,2.6,20H27.5A2.5,2.5,0,0,0,30,17.5ZM27.6,7h.8l-.6.5.2.8-.7-.5-.6.5.2-.8L26.3,7h.8l.3-.7ZM26.4,5.1l.7-.3-.3.7.5.6-.8-.2-.4.8V5.8h-.8l.7-.4V4.5ZM23.7,3.6l.8.3.5-.6v.8l.7.3-.8.2v.8l-.4-.7-.8.2.5-.6ZM20,3.3l.5.6.8-.3-.4.7.5.6-.8-.2-.4.7V4.6l-.8-.2.7-.3ZM17.9,4.8l.7.3.6-.5v.7l.7.4-.7.2-.2.7L18.5,6h-.8l.6-.6ZM17.4,7l.3-.7.2.7h.8l-.6.5.2.8-.6-.5-.7.5.2-.8L16.6,7ZM16.3,9.6l.7-.3V8.5l.6.6.7-.4-.4.7.6.6h-.8l-.4.7V9.8Zm2,3-.4-.7-.8.2.5-.7-.4-.6.8.3.5-.6v.8l.8.3-.8.2Zm1.2.9-.7.5.3-.8-.7-.5h.8l.3-.7.3.7h.8l-.7.5.3.8Zm2.1.8-.4.7v-.8h-.8l.8-.4v-.8l.5.6.8-.3-.4.7.5.6Zm.2-9.5.3-.8-.7-.5h.9l.2-.7.3.7h.8l-.7.5.3.8-.7-.5Zm2.1,9.4V15l-.4-.7-.8.2.5-.6-.4-.7.8.3.5-.6v.8l.8.4Zm2.2-.2-.6-.5-.7.5.3-.8-.7-.5h.8l.3-.7.2.7h.9l-.7.5Zm1-2.1-.4.7v-.8l-.8-.2.7-.3v-.8l.6.6.7-.3-.4.7.6.6Zm.8-2.1v.8l-.4-.7-.8.2.6-.7-.4-.7.7.4.6-.6v.8l.7.3Z"/><polygon class="cls-2" points="0 5 0 6.7 3.4 5 0 5"/><polygon class="cls-3" points="22.9 4 23.6 3.5 22.8 3.5 22.5 2.8 22.3 3.5 21.4 3.5 22.1 4 21.8 4.8 22.5 4.3 23.2 4.8 22.9 4"/><polygon class="cls-3" points="24.4 4.7 24.8 5.4 24.9 4.6 25.7 4.4 25 4.1 25 3.3 24.5 3.9 23.7 3.6 24.1 4.3 23.6 4.9 24.4 4.7"/><polygon class="cls-3" points="25.2 5.7 26 5.8 26.1 6.7 26.5 5.9 27.3 6.1 26.8 5.5 27.1 4.8 26.4 5.1 25.9 4.5 25.9 5.3 25.2 5.7"/><polygon class="cls-3" points="26.3 7 26.9 7.5 26.7 8.3 27.3 7.8 28 8.3 27.8 7.5 28.4 7 27.6 7 27.4 6.3 27.1 7 26.3 7"/><polygon class="cls-3" points="28.1 8.5 27.5 9.1 26.8 8.7 27.2 9.4 26.6 10.1 27.4 9.9 27.8 10.6 27.9 9.8 28.7 9.6 28 9.3 28.1 8.5"/><polygon class="cls-3" points="27.7 10.8 27 11.1 26.4 10.5 26.5 11.3 25.8 11.6 26.6 11.8 26.7 12.6 27.1 11.9 27.9 12.1 27.3 11.5 27.7 10.8"/><polygon class="cls-3" points="25.7 12.7 25.5 12 25.2 12.7 24.4 12.7 25.1 13.2 24.8 14 25.5 13.5 26.1 14 25.9 13.2 26.6 12.7 25.7 12.7"/><polygon class="cls-3" points="24 12.9 23.5 13.5 22.7 13.2 23.1 13.9 22.6 14.5 23.4 14.3 23.8 15 23.9 14.2 24.7 14.1 23.9 13.7 24 12.9"/><polygon class="cls-3" points="22.3 13.2 21.5 13.5 21 12.9 21.1 13.7 20.3 14.1 21.1 14.2 21.2 15 21.6 14.3 22.4 14.5 21.9 13.9 22.3 13.2"/><polygon class="cls-3" points="20.6 12.7 19.8 12.7 19.5 12 19.3 12.7 18.4 12.7 19.1 13.2 18.8 14 19.5 13.5 20.2 14 19.9 13.2 20.6 12.7"/><polygon class="cls-3" points="18.4 11.3 18.5 10.5 18 11.1 17.2 10.8 17.6 11.4 17.1 12.1 17.9 11.9 18.3 12.6 18.4 11.8 19.2 11.6 18.4 11.3"/><polygon class="cls-3" points="18.5 6 18.9 6.6 19.1 5.9 19.8 5.7 19.1 5.3 19.2 4.6 18.6 5.1 17.9 4.8 18.3 5.5 17.7 6.1 18.5 6"/><polygon class="cls-3" points="17 8.3 17.7 7.8 18.3 8.3 18.1 7.5 18.7 7 17.9 7 17.7 6.3 17.4 7 16.6 7 17.2 7.5 17 8.3"/><polygon class="cls-3" points="17.6 9.9 18.4 10 17.8 9.4 18.2 8.7 17.5 9.1 16.9 8.5 17 9.3 16.3 9.6 17.1 9.8 17.2 10.6 17.6 9.9"/><polygon class="cls-3" points="20.1 4.6 20.2 5.4 20.6 4.7 21.4 4.9 20.9 4.3 21.3 3.6 20.5 3.9 20 3.3 20 4.1 19.3 4.4 20.1 4.6"/><polygon class="cls-3" points="8.3 7.5 8.7 7.5 8.7 5.2 8.3 5 8.3 7.5"/><polygon class="cls-3" points="6.7 5 6.2 5.2 6.2 7.5 6.7 7.5 6.7 5 6.7 5"/><polygon class="cls-3" points="8.4 2.5 8.7 2.3 8.7 0 8.3 0 8.3 2.5 8.4 2.5"/><polygon class="cls-3" points="6.7 0 6.2 0 6.2 2.2 6.7 2.5 6.7 2.5 6.7 0"/><polygon class="cls-3" points="4.4 4.5 0 4.5 0 5 3.4 5 4.4 4.5"/><polygon class="cls-3" points="11.7 5 15 5 15 4.5 10.7 4.5 11.7 5"/><path class="cls-3" d="M4.3,3,3.2,2.5H0V3Z"/><polygon class="cls-3" points="15 3 15 2.5 11.8 2.5 10.7 3 15 3"/><polygon class="cls-3" points="6.7 2.5 6.7 2.5 6.7 2.5 6.7 2.5"/><polygon class="cls-3" points="8.3 2.5 8.4 2.5 8.3 2.5 8.3 2.5"/><polygon class="cls-3" points="10.1 2.5 8.9 2.5 13.9 0 13.3 0 8.7 2.3 8.4 2.5 8.3 2.5 8.3 3 10.7 3 11.8 2.5 15 0.9 15 0 10.1 2.5"/><polygon class="cls-3" points="6.7 5 6.7 4.5 4.4 4.5 3.4 5 0 6.7 0 7.5 4.9 5 6.1 5 1.2 7.5 1.7 7.5 6.2 5.2 6.7 5 6.7 5"/><path class="cls-3" d="M4.3,3H6.7V2.5h0l-.5-.3L1.9.1,1,.5l3.9,2h-1L.6.9a.3.3,0,0,0-.1.2L3.2,2.5Z"/><polygon class="cls-3" points="8.3 4.5 8.3 5 8.7 5.2 13.3 7.5 15 7.5 10 5 11.2 5 15 6.9 15 7.5 15 6.6 11.7 5 10.7 4.5 8.3 4.5"/><polygon class="cls-4" points="8.3 4.5 6.7 4.5 6.7 5 6.7 5 6.7 7.5 8.3 7.5 8.3 5 8.3 4.5"/><polygon class="cls-4" points="8.3 3 8.3 2.5 8.3 2.5 8.3 0 6.7 0 6.7 2.5 6.7 2.5 6.7 3 8.3 3"/><polygon class="cls-4" points="8.3 3 6.7 3 4.3 3 0 3 0 4.5 4.4 4.5 6.7 4.5 8.3 4.5 10.7 4.5 15 4.5 15 3 10.7 3 8.3 3"/><path class="cls-4" d="M3.9,2.5h1L1,.5C.9.6.7.7.6.9Z"/><polygon class="cls-4" points="11.2 5 10 5 15 7.5 15 6.9 11.2 5"/><polygon class="cls-4" points="8.9 2.5 10.1 2.5 15 0 15 0 13.9 0 13.9 0 8.9 2.5"/><polygon class="cls-4" points="4.9 5 0 7.5 1.2 7.5 1.2 7.5 6.1 5 4.9 5"/></svg>