<svg id="Flags" xmlns="http://www.w3.org/2000/svg" viewBox="0 0 30 20"><defs><style>.cls-1{fill:#ed2224;}.cls-2{fill:#fafafa;}</style></defs><title>Artboard 39</title><path class="cls-1" d="M27.4,0H22.6V20h4.8A2.5,2.5,0,0,0,30,17.5V2.5A2.5,2.5,0,0,0,27.4,0Z"/><path class="cls-1" d="M2.5,0A2.5,2.5,0,0,0,0,2.5v15A2.5,2.5,0,0,0,2.5,20H7.4V0Z"/><path class="cls-2" d="M7.4,0V20H22.6V0Zm7.9,13.2-.2.2v3h-.4v-3l-.2-.2-2.8.4.3-.9c0-.1,0-.3-.2-.3L9.3,10l.6-.2c.2-.1.2-.3.1-.6L9.6,7.6l1.5.3c.2.1.3,0,.3-.1l.2-.8,1.3,1.5c.2.2.5.2.4-.3l-.5-3,.7.4c.2.1.4.1.5-.1l1-1.9,1,1.9s.3.2.5.1l.7-.4-.5,3c-.1.5.2.5.4.3L18.4,7l.2.8c0,.1.1.2.3.1l1.5-.3L20,9.2c-.1.3-.1.5.1.6l.6.2L18,12.4c-.2,0-.2.2-.2.3l.3.9Z"/><path class="cls-1" d="M18,12.4,20.7,10l-.6-.2c-.2-.1-.2-.3-.1-.6l.4-1.6-1.5.3c-.2.1-.3,0-.3-.1L18.4,7,17.1,8.5c-.2.2-.5.2-.4-.3l.5-3-.7.4c-.2.1-.5-.1-.5-.1L15,3.6,14,5.5c-.1.2-.3.2-.5.1l-.7-.4.5,3c.1.5-.2.5-.4.3L11.6,7l-.2.8c0,.1-.1.2-.3.1L9.6,7.6,10,9.2c.1.3.1.5-.1.6l-.6.2L12,12.4c.2,0,.2.2.2.3l-.3.9,2.8-.4.2.2v3h.4v-3l.2-.2,2.8.4-.3-.9C17.8,12.6,17.8,12.4,18,12.4Z"/></svg>