<svg id="Flags" xmlns="http://www.w3.org/2000/svg" viewBox="0 0 30 20"><defs><style>.cls-1{fill:#118312;}.cls-2{fill:#ffe000;}.cls-3{fill:#832101;}.cls-4{fill:#008301;}</style></defs><title>cc</title><path class="cls-1" d="M27.4,0H2.6A2.5,2.5,0,0,0,0,2.5v15A2.5,2.5,0,0,0,2.6,20H27.4A2.5,2.5,0,0,0,30,17.5V2.5A2.5,2.5,0,0,0,27.4,0ZM22.2,4.2l.6.2.2-.6.2.6.7-.2-.4.6.6.3h-.7v.6L23,5.3l-.5.5V5.2H22l.6-.4ZM5,10.4A3.5,3.5,0,0,1,1.5,6.9,3.5,3.5,0,0,1,5,3.5,3.4,3.4,0,0,1,8.4,6.9,3.5,3.5,0,0,1,5,10.4Zm11.4,2.2H17a2.6,2.6,0,0,1-1.7.5,3.1,3.1,0,0,1-3.1-3.2,3.1,3.1,0,0,1,3.1-3.2,2.6,2.6,0,0,1,1.9.7l-.8-.2a2.8,2.8,0,0,0-2.7,2.8A2.7,2.7,0,0,0,16.4,12.6ZM19.6,10l-.5-.5-.4.5V9.3h-.7l.6-.4-.4-.6.6.3.3-.7.2.7.6-.2-.4.5.6.4h-.7Zm3.8,6-.4-.5-.5.5v-.7h-.7l.6-.4-.4-.6.7.3.2-.7.2.7.6-.2-.3.5.5.4h-.6Zm1.5-4.9-.3-.2-.4.2v-.4l-.3-.3h.4l.2-.4v.4h.5l-.4.3Zm1.9-2.8V9l-.5-.5L26,9V8.3h-.7l.6-.4-.4-.6.6.3.3-.7.2.7.6-.3-.4.6.6.4Z"/><path class="cls-2" d="M5,3.5A3.5,3.5,0,0,0,1.5,6.9,3.5,3.5,0,0,0,5,10.4,3.5,3.5,0,0,0,8.4,6.9,3.4,3.4,0,0,0,5,3.5ZM7.5,6.1c.1.1,0,.1,0,.2s.1.2,0,.2v.2c-.3-.1-.7-.3-.9-.1s.4.2.5.4-.1.1,0,.1H6.9v.2h0c-.5-.2-.7-.6-1.1-.9S5.7,8.3,5.6,9s.1.1.1.3H4.8a8.7,8.7,0,0,0,.7-1.7,3.8,3.8,0,0,1,.1-1c-.2.3,0,.9-.2,1s0-.7-.2-1h0a1.3,1.3,0,0,0-.2.9H4.8v.2c-.1.1-.1-.1-.3-.1s-.1,0,0-.1V7.2l.3-.8H3.4c-.2.1-.3.3-.5.3V6.6H2.7c-.1-.1.1-.3.3-.4s.1-.2.2-.2h.6l.4-.2H3.3c0-.5.5-.6,1.2-.4s-.7-.3-.6-.5h.2c.8.1.8.3,1,.6s.3.5.4.4l-.4-.5V5.1h.2c.1-.3.1-.6.2-.9s0,.2.1.2.5-.3.7-.1-.2.2-.2.3h.4c0,.3-.2.4-.5.5s.1.1.2.1-.2.3-.2.5a.3.3,0,0,0,.3-.3c.3,0,.4-.1.6,0H6.8c-.1.1.1.1.1.2H6.7v.2h.7Z"/><path class="cls-3" d="M5.6,6.6h0a3.8,3.8,0,0,0-.1,1,8.7,8.7,0,0,1-.7,1.7h.9c0-.2-.1-.2-.1-.3s.1-1.6.2-2.3h0C5.8,6.6,5.7,6.6,5.6,6.6Z"/><path class="cls-4" d="M6.8,5.9V5.7h.2c0-.1-.2-.1-.1-.2h.1c-.2-.1-.3,0-.6,0a.3.3,0,0,1-.3.3c0-.2.2-.2.2-.5S6,5.2,6,5.1s.5-.2.5-.5H6.1c0-.1.1-.3.2-.3s-.6,0-.7.1,0-.2-.1-.2-.1.6-.2.9H5.1v.2l.4.5c-.1.1-.4-.1-.4-.4s-.2-.5-1-.6H3.9c-.1.2.6.3.6.5s-1.2-.1-1.2.4h.9L3.8,6H3.2c-.1,0,0,.2-.2.2s-.4.3-.3.4H3v.2c.2,0,.3-.2.5-.3H4.8l-.3.8v.3c-.1.1-.1.1,0,.1s.2.2.3.1V7.5H5a1.3,1.3,0,0,1,.2-.9h0c.2.3-.4,1,.2,1s0-.7.2-1h.2c.4.3.6.7,1.1.9h0V7.2h.2c-.1,0-.2-.1,0-.1s-.4-.2-.5-.4.6,0,.9.1V6.5c.1,0,0-.1,0-.2s.1-.1,0-.2H6.8Z"/><path class="cls-4" d="M5.7,6.5H5.6c.1,0,.2,0,.2.1H5.7Z"/><path class="cls-2" d="M16.4,7.1l.8.2a2.6,2.6,0,0,0-1.9-.7,3.1,3.1,0,0,0-3.1,3.2A3.1,3.1,0,0,0,15.3,13a2.6,2.6,0,0,0,1.7-.5h-.6a2.7,2.7,0,0,1-2.7-2.7A2.8,2.8,0,0,1,16.4,7.1Z"/><polygon class="cls-2" points="19.6 8.9 20 8.4 19.4 8.6 19.2 7.9 18.9 8.6 18.3 8.3 18.7 8.9 18.1 9.3 18.8 9.3 18.7 10 19.1 9.5 19.6 10 19.5 9.3 20.2 9.3 19.6 8.9"/><polygon class="cls-2" points="22.6 5.2 22.5 5.8 23 5.3 23.5 5.8 23.4 5.2 24.1 5.1 23.5 4.8 23.9 4.2 23.2 4.4 23 3.8 22.8 4.4 22.2 4.2 22.6 4.7 22 5.1 22.6 5.2"/><polygon class="cls-2" points="27.3 7.3 26.7 7.6 26.5 6.9 26.2 7.6 25.6 7.3 26 7.9 25.4 8.3 26.1 8.3 26 9 26.4 8.5 26.9 9 26.8 8.3 27.5 8.3 26.9 7.9 27.3 7.3"/><polygon class="cls-2" points="23.5 14.9 23.8 14.4 23.2 14.6 23 13.9 22.8 14.6 22.1 14.3 22.5 14.9 21.9 15.3 22.6 15.3 22.5 16 23 15.5 23.4 16 23.4 15.3 24 15.3 23.5 14.9"/><polygon class="cls-2" points="24.7 10.4 24.6 10 24.4 10.4 24 10.4 24.3 10.7 24.2 11.1 24.6 10.9 24.9 11.1 24.8 10.7 25.2 10.4 24.7 10.4"/></svg>