<svg id="Flags" xmlns="http://www.w3.org/2000/svg" viewBox="0 0 30 20"><defs><style>.cls-1{fill:#00539e;}.cls-2{fill:#23913c;}.cls-3{fill:#fff100;}.cls-4{fill:#fff;}</style></defs><title>cx</title><path class="cls-1" d="M15.1,12.6a2.5,2.5,0,0,1-2.5-2.5A3.3,3.3,0,0,1,13,8.7L1,.7a2.9,2.9,0,0,0-.9,2V17.6a2.6,2.6,0,0,0,2.2,2.5H28a2.3,2.3,0,0,0,1.2-.6l-12-8A2.7,2.7,0,0,1,15.1,12.6Zm-12.6-1-.4-.3-.4.3v-.5H1.2l.4-.4-.2-.4h.5l.2-.5.2.5h.6l-.3.4L3,11H2.5ZM4.6,6.8h.5l.2-.5.3.5h.5l-.2.5.4.3H5.8v.5l-.4-.3-.5.3V7.7H4.4l.4-.3Zm1.2,9.7-.4-.3-.5.3V16H4.4l.4-.3-.2-.5h.5l.2-.5.3.5h.5l-.2.5.4.3H5.8Zm1.2-4-.4-.2-.3.2v-.4l-.3-.2h.4v-.4l.2.4h.4l-.3.2Zm1.7-1.8-.4-.4-.4.4v-.5L7.3,10l.5-.3-.3-.5.6.2.2-.5.2.5L9,9.2l-.2.5.4.3-.5.2Z"/><path class="cls-2" d="M27.6.1H2.7A3.2,3.2,0,0,0,1,.7l12,8a2.7,2.7,0,0,1,2.1-1.1,2.5,2.5,0,0,1,2.5,2.5,3.3,3.3,0,0,1-.4,1.4l12,8a2.4,2.4,0,0,0,.9-1.5V2.2A2.6,2.6,0,0,0,27.6.1Zm0,8.6-.7.4A9.9,9.9,0,0,0,24,10.2a7.7,7.7,0,0,1-5.5.7c-.5-.2-.3-.3,0-.2a6.7,6.7,0,0,0,6-1.3c.5-.4.7-1.1.3-1.3a3.6,3.6,0,0,0-.9-.8,7,7,0,0,1-2.1-1.4c-.3-.3-.2-.3,0-.3l.8.2,2.6,1.1a3.4,3.4,0,0,0,0-1A12.4,12.4,0,0,1,24,3.6c-.2-.5-.1-.5.3-.3a17.9,17.9,0,0,1,1.5,1.4,3.5,3.5,0,0,1,.5.8c0,.3.1.7.1,1.2a1.7,1.7,0,0,0,.5,1.2c.4,0,.7-.3,1.1.1s.5.1.5.3S27.7,8.5,27.6,8.7Z"/><path class="cls-3" d="M15.1,12.6a2.7,2.7,0,0,0,2.1-1.1,3.3,3.3,0,0,0,.4-1.4,2.5,2.5,0,0,0-2.5-2.5A2.7,2.7,0,0,0,13,8.7a3.3,3.3,0,0,0-.4,1.4A2.5,2.5,0,0,0,15.1,12.6Zm-2.1-2h.1l.2-.2V9.8c.1-.1,0-.1,0-.1h-.1c.1-.1.2-.1.3.1h.4c.1.1.3,0,.3,0s.2,0,.3,0,.5,0,.7-.1.4-.3.6-.4V9H16V8.8c0-.1.1-.1.2-.1h.5c0,.1.1.2,0,.3v.2a.3.3,0,0,1-.1.2v.2c-.1,0,0,.1.1.2s0,.1,0,.1h-.3v.2a.1.1,0,0,1-.1.1l-.2.3c-.1.1-.1.1-.1.2s.1.2,0,.2a.4.4,0,0,0-.1.3c-.1.5.1.6,0,.7h-.9c0-.1-.1-.1,0-.3s-.1-.2-.1-.4.1-.1,0-.2a.9.9,0,0,0-.7-.1h-.8c-.1-.1-.2.1-.3.1H13c-.1,0-.1-.1-.1-.2Z"/><path class="cls-2" d="M13,10.9h.2c.1,0,.2-.2.3-.1h.8a.9.9,0,0,1,.7.1c.1.1.1.2,0,.2s.1.3.1.4,0,.2,0,.3H16c.1-.1-.1-.2,0-.7a.4.4,0,0,1,.1-.3c.1,0,.1-.1,0-.2s0-.1.1-.2l.2-.3a.1.1,0,0,0,.1-.1V10h.3s.1,0,0-.1-.2-.2-.1-.2V9.4a.3.3,0,0,0,.1-.2V9c.1-.1,0-.2,0-.3h-.5c-.1,0-.2,0-.2.1V9h-.1v.2c-.2.1-.1.2-.6.4s-.6.2-.7.1-.2.1-.3,0-.2.1-.3,0h-.4c-.1-.2-.2-.2-.3-.1h.1s.1,0,0,.1v.5l-.2.2h-.2C12.9,10.8,12.9,10.9,13,10.9Z"/><path class="cls-3" d="M28,8c-.4-.4-.7-.1-1.1-.1a1.7,1.7,0,0,1-.5-1.2c0-.5-.1-.9-.1-1.2a3.5,3.5,0,0,0-.5-.8,17.9,17.9,0,0,0-1.5-1.4c-.4-.2-.5-.2-.3.3a12.4,12.4,0,0,0,1.2,2.3,3.4,3.4,0,0,1,0,1L22.6,5.8l-.8-.2c-.2,0-.3,0,0,.3a7,7,0,0,0,2.1,1.4,3.6,3.6,0,0,1,.9.8c.4.2.2.9-.3,1.3a6.7,6.7,0,0,1-6,1.3c-.3-.1-.5,0,0,.2a7.7,7.7,0,0,0,5.5-.7,9.9,9.9,0,0,1,2.9-1.1l.7-.4c.1-.2.3-.4.9-.4S28.2,8.1,28,8Zm-.5.2h0C27.6,8.1,27.6,8.2,27.5,8.2Z"/><path class="cls-2" d="M27.5,8.1h0C27.6,8.2,27.6,8.1,27.5,8.1Z"/><polygon class="cls-4" points="5 7.7 4.9 8.2 5.4 7.9 5.8 8.2 5.8 7.7 6.3 7.6 5.9 7.3 6.1 6.8 5.6 6.9 5.3 6.4 5.1 6.9 4.6 6.8 4.8 7.3 4.4 7.6 5 7.7"/><polygon class="cls-4" points="2.6 10.6 2.9 10.2 2.3 10.3 2.1 9.8 1.9 10.3 1.4 10.2 1.6 10.6 1.2 11 1.7 11.1 1.7 11.6 2.1 11.3 2.5 11.6 2.5 11.1 3 11 2.6 10.6"/><polygon class="cls-4" points="8.8 9.7 9 9.2 8.5 9.4 8.3 8.9 8.1 9.4 7.5 9.2 7.8 9.7 7.3 10 7.9 10.2 7.9 10.7 8.3 10.3 8.7 10.7 8.7 10.2 9.2 10 8.8 9.7"/><polygon class="cls-4" points="5.9 15.6 6.1 15.1 5.6 15.2 5.3 14.7 5.1 15.2 4.6 15.1 4.8 15.6 4.4 15.9 5 16 4.9 16.5 5.4 16.2 5.8 16.5 5.8 16 6.3 15.9 5.9 15.6"/><polygon class="cls-4" points="6.8 11.9 6.6 11.5 6.5 11.9 6.1 11.9 6.4 12.1 6.3 12.5 6.6 12.3 7 12.5 6.9 12.1 7.2 11.9 6.8 11.9"/></svg>