<svg xmlns="http://www.w3.org/2000/svg" viewBox="0 0 30 20"><defs><style>.cls-1{fill:#1e9554;}.cls-2{fill:#fff;}.cls-3{fill:#010101;}.cls-4{fill:#fed733;}.cls-5{fill:#e92f49;}.cls-6{fill:#069547;}.cls-7{fill:#a85926;}.cls-8{fill:#fecf0a;}.cls-9{fill:#932e91;}.cls-10{fill:#e91c39;}</style></defs><title>dm</title><g id="Layer_52" data-name="Layer 52"><path class="cls-1" d="M27.5,0h-10V5.6a5.8,5.8,0,0,1,1.9,1.9H30v-5A2.5,2.5,0,0,0,27.5,0Z"/><path class="cls-1" d="M17.5,14.4V20h10A2.5,2.5,0,0,0,30,17.5v-5H19.4A5.8,5.8,0,0,1,17.5,14.4Z"/><path class="cls-1" d="M10.6,12.5H0v5A2.5,2.5,0,0,0,2.5,20h10V14.4A5.8,5.8,0,0,1,10.6,12.5Zm-2,4.3Z"/><path class="cls-1" d="M12.5,5.6V0H2.5A2.5,2.5,0,0,0,0,2.5v5H10.6A5.8,5.8,0,0,1,12.5,5.6Zm-7.9.6V5.8H4l.4-.3L4.2,5l.4.3L5,5v.5l.3.3H4.8Z"/><path class="cls-2" d="M10,10.8H0v1.7H10.6A4.9,4.9,0,0,1,10,10.8Zm-2.5,1Z"/><path class="cls-2" d="M19.4,12.5H30V10.8H20A4.9,4.9,0,0,1,19.4,12.5Z"/><path class="cls-3" d="M20,10v.8H30V9.2H20Z"/><path class="cls-3" d="M10,10V9.2H0v1.6H10Z"/><path class="cls-4" d="M20,9.2H30V7.5H19.4A4.9,4.9,0,0,1,20,9.2Z"/><path class="cls-4" d="M10.6,7.5H0V9.2H10A4.9,4.9,0,0,1,10.6,7.5Z"/><path class="cls-4" d="M12.5,14.4V20h1.7V15A8.5,8.5,0,0,1,12.5,14.4Z"/><path class="cls-4" d="M14.2,5V0H12.5V5.6A8.5,8.5,0,0,1,14.2,5Z"/><path class="cls-3" d="M15,5h.8V0H14.2V5Zm.7-2.1h0Z"/><path class="cls-3" d="M15,15h-.8v5h1.6V15Zm-.3,1.8Z"/><path class="cls-2" d="M15.8,15v5h1.7V14.4A8.5,8.5,0,0,1,15.8,15Z"/><path class="cls-2" d="M17.5,5.6V0H15.8V5A8.5,8.5,0,0,1,17.5,5.6Z"/><path class="cls-5" d="M15,5h-.8a8.5,8.5,0,0,0-1.7.6,5.8,5.8,0,0,0-1.9,1.9A4.9,4.9,0,0,0,10,9.2v1.6a4.9,4.9,0,0,0,.6,1.7,5.8,5.8,0,0,0,1.9,1.9,8.5,8.5,0,0,0,1.7.6h1.6a8.5,8.5,0,0,0,1.7-.6,5.8,5.8,0,0,0,1.9-1.9,4.9,4.9,0,0,0,.6-1.7V9.2a4.9,4.9,0,0,0-.6-1.7,5.8,5.8,0,0,0-1.9-1.9A8.5,8.5,0,0,0,15.8,5Zm-.2,1,.2-.4V6h.5l-.3.3v.5L15,6.5l-.4.3V6.3L14.4,6Zm-.6,1.6h0ZM12.3,6.4l.4.3.4-.3v.5l.3.3h-.4l-.2.5V7.2h-.5l.4-.3ZM10.7,8.7h.5l.2-.4v.4H12l-.4.3.2.5-.4-.3-.5.3c.1,0,.2-.5.2-.5Zm.3,1.9.4.3.4-.3v.5l.3.3h-.4l-.2.5-.2-.5h-.4l.3-.3Zm2.2,3-.4-.3-.4.3v-.5l-.4-.3h.5l.2-.4v.4h.5l-.4.3Zm2,.4-.2.4V14h-.5l.3-.3v-.5l.4.3.4-.3v.5l.3.3Zm.9-1.2h0V13l-.2-.2h0c-.1,0-.1,0-.2-.2H13.7c-.1,0-.2-.3-.2-.3s.2-.2.3-.2h.4v.2h.7c0-.1-.1-.2-.1-.3h0a.4.4,0,0,1-.1-.3v-.2h-.1a2.2,2.2,0,0,1-.5-1.3,2,2,0,0,1,.2-1.3h.1V8.2h-.3v.2c-.1-.4,0-.5.2-.6h0l.2-.3a.9.9,0,0,1,.7,0l.8.6h-.3l.3.2h.2l-.2.2h.3c-.1.2-.3.2-.5.1a5.6,5.6,0,0,1,.5.8,2.7,2.7,0,0,1,.2,1.4.8.8,0,0,1,.1.4v.6l-.2-.4v.3h0a.2.2,0,0,1,0,.3h0C16.2,12.6,16.2,12.8,16.1,12.8ZM18.2,11Zm-.5,2.6-.4-.3-.5.3c.1,0,.2-.5.2-.5l-.4-.3h.5l.2-.5v.5h.5l-.4.3Zm1.5-2.3h-.4l-.2.4v-.4H18l.4-.3-.2-.5.4.3.4-.3V11ZM19,9.4l-.4-.3-.4.3V8.9l-.4-.3h.5l.2-.4v.4h.5l-.4.3Zm-2.2-3,.4.3.4-.3-.2.5.4.3h-.5v.4L17,7.2h-.5l.4-.3Z"/><polygon class="cls-5" points="15.6 12.5 15.6 12.5 15.6 12.5 15.6 12.5"/><path class="cls-5" d="M15.1,11.9Z"/><path class="cls-6" d="M14.6,6.8l.4-.3.4.3V6.3l.3-.3h-.5V5.6l-.2.4h-.4l.3.3Z"/><path class="cls-6" d="M15.4,13.2l-.4.3-.4-.3v.5l-.3.3h.5v.4l.2-.4h.4l-.3-.3Z"/><path class="cls-6" d="M17,7.2l.2.4V7.2h.5l-.4-.3.2-.5-.4.3-.4-.3v.5l-.4.3Z"/><path class="cls-6" d="M19,10.5l-.4.3-.4-.3.2.5-.4.3h.5v.4l.2-.4h.4l-.3-.3Z"/><path class="cls-6" d="M10.8,11.4h.4l.2.5.2-.5H12l-.3-.3v-.5l-.4.3-.4-.3v.5Z"/><path class="cls-6" d="M4.9,5.5V5l-.4.3L4.2,5l.2.5L4,5.8h.5v.4l.2-.4h.4Z"/><path class="cls-6" d="M12.6,7.2v.5l.2-.5h.4L13,6.9V6.4l-.4.3-.4-.3.2.5-.4.3Z"/><path class="cls-6" d="M10.9,9.5l.5-.3.4.3L11.6,9l.4-.3h-.5V8.3l-.2.4h-.5l.4.3S11,9.5,10.9,9.5Zm.7-.6Z"/><path class="cls-6" d="M12.9,12.8v-.4l-.2.4h-.5l.4.3v.5l.4-.3.4.3-.2-.5.4-.3Z"/><path class="cls-6" d="M19.2,8.6h-.5V8.2l-.2.4h-.5l.4.3v.5l.4-.3.4.3-.2-.5Z"/><path class="cls-6" d="M17.9,12.8h-.5v-.5l-.2.5h-.5l.4.3s-.1.5-.2.5l.5-.3.4.3-.2-.5Z"/><path class="cls-6" d="M15.7,12.4h-.1c.1.2.1.2.2.2h0C15.8,12.7,15.7,12.6,15.7,12.4Z"/><path class="cls-6" d="M15.5,11.9Z"/><path class="cls-6" d="M15.7,12.1h0Z"/><path class="cls-6" d="M16.1,12.1h.2v-.3c0-.1-.1-.2-.2-.3Z"/><path class="cls-6" d="M16.3,12.4h-.2v.4h0C16.2,12.8,16.2,12.6,16.3,12.4Z"/><path class="cls-6" d="M16.1,12.1v-.6H16c0,.2-.1.4-.2.4h0c0,.1-.1.2-.1.3h.4Z"/><path class="cls-6" d="M16.1,12.4h-.4c0,.2.1.3.1.4l.2.2v-.6Z"/><path class="cls-7" d="M14.7,12.1h-.5v-.2h-.4c-.1,0,0,.2-.3.2s.1.3.2.3h1v-.4Z"/><path class="cls-7" d="M16.4,12.3h-.3c0-.1,0-.2.1-.2h-.6a.2.2,0,0,0-.2.2l.2.2h.7a.2.2,0,0,0,0-.3h0A.3.3,0,0,1,16.4,12.3Z"/><path class="cls-8" d="M14.9,12.3A.4.4,0,0,1,15,12h-.3v.4h.4C15,12.6,14.9,12.5,14.9,12.3Z"/><path class="cls-8" d="M15.1,12h0Z"/><path class="cls-8" d="M15,12.3c0-.1.1-.2.2-.3H15a.4.4,0,0,0-.1.3c0,.2.1.3.2.3h.2A.3.3,0,0,1,15,12.3Z"/><path class="cls-8" d="M15.2,12.3c0-.2.2-.3.3-.4h-.3c-.1.1-.2.2-.2.3a.3.3,0,0,0,.3.3h.2A.3.3,0,0,1,15.2,12.3Z"/><path class="cls-8" d="M15.7,12.6h-.1l-.2-.2a.2.2,0,0,1,.2-.2h0c-.1,0-.1-.1-.1-.2s-.3.2-.3.4a.3.3,0,0,0,.3.3h.2Z"/><path class="cls-7" d="M16.1,12.3h.3a.3.3,0,0,0-.1-.2h-.1C16.1,12.1,16.1,12.2,16.1,12.3Z"/><path class="cls-6" d="M15.2,11.7h-.1v.2h.2A1,1,0,0,1,15.2,11.7Z"/><path class="cls-6" d="M15,12h.1v-.2h0l-.2-.2c0,.1,0,.2-.1.2h0c0,.1.1.2.1.3Z"/><path class="cls-6" d="M14.9,11.5h-.1c-.1,0-.1,0-.1-.1v.2a.4.4,0,0,0,.1.3h0C14.9,11.7,14.9,11.6,14.9,11.5Z"/><path class="cls-6" d="M15.1,11.5h-.2l.2.2h0Z"/><path class="cls-6" d="M15,11.4h0Z"/><path class="cls-6" d="M14.8,11.3h0c0-.1-.1-.1-.2-.2h.1C14.7,11.3,14.7,11.3,14.8,11.3Z"/><path class="cls-9" d="M14.8,11.3h.3v-.2h0v-.3c0-.1.1-.3.2-.3v-.2a2.6,2.6,0,0,1-.3-1.1V8.8a.1.1,0,0,1-.1-.1h-.5a2,2,0,0,0-.2,1.3,2.2,2.2,0,0,0,.5,1.3C14.7,11.2,14.8,11.2,14.8,11.3Z"/><path class="cls-6" d="M15.8,11.7h-.3v.2h0c0,.1,0,.2.1.2h.1C15.7,11.9,15.8,11.8,15.8,11.7Z"/><path class="cls-6" d="M15.5,11.7h0c-.1,0-.1-.1-.1-.2s-.1.2-.2.2h0a1,1,0,0,0,.1.3h.2Z"/><path class="cls-6" d="M15.2,11.7h0c.1,0,.1-.1.2-.2h0a.1.1,0,0,1-.1-.1c0,.1,0,.1-.1.1a.1.1,0,0,0-.1-.1h0v.2h.1Z"/><path class="cls-6" d="M15.5,11.3h-.1c0,.1,0,.2.1.2h.1C15.6,11.5,15.5,11.5,15.5,11.3Z"/><path class="cls-6" d="M15.8,11.3a.4.4,0,0,1-.1.3h.1c.1,0,.2-.2.2-.4h-.2Z"/><path class="cls-6" d="M15.8,11.3l-.2-.2c0,.1,0,.2-.1.2s.1.2.1.3h.1A.4.4,0,0,0,15.8,11.3Z"/><path class="cls-6" d="M15.4,11.4h.1c.1,0,.1-.1.1-.2l-.2-.3h0c0,.2,0,.3-.1.3a.1.1,0,0,0,.1.1Z"/><path class="cls-6" d="M15.2,11.3c.1,0,.1,0,.1-.1s.1-.1.1-.3h0v-.2c-.1,0-.2.2-.2.3v.3A.1.1,0,0,1,15.2,11.3Z"/><path class="cls-10" d="M15.4,10.8l.2.3.2.2H16c-.3-.1-.6-.6-.8-1.1a3.2,3.2,0,0,1-.3-.9,2.6,2.6,0,0,0,.3,1.1v.4Z"/><path class="cls-6" d="M15.1,8.6Z"/><path class="cls-6" d="M15.1,8.3v.2h.2V8.3Z"/><path class="cls-6" d="M15.1,8.6h-.3a.1.1,0,0,0,.1.1C14.9,8.7,15,8.7,15.1,8.6Z"/><path class="cls-6" d="M15.1,8.6h0V8.3h0Z"/><path class="cls-6" d="M14.9,8.6h0Z"/><path class="cls-6" d="M15,8.3h0Z"/><path class="cls-6" d="M14.9,8.4h-.1a.1.1,0,0,1-.1.1h.2Z"/><path class="cls-6" d="M14.5,8.6h0Z"/><path class="cls-6" d="M14.5,8.5h.1a.2.2,0,0,1-.2-.2v.2h.1Z"/><path class="cls-6" d="M14.6,8.4h.1a.1.1,0,0,0,.1-.1h-.4A.2.2,0,0,0,14.6,8.4Z"/><path class="cls-6" d="M15.3,8.8V8.6h-.2c-.1.1-.2.1-.2.2v.5a3.2,3.2,0,0,0,.3.9c.2.5.5,1,.8,1.1s-.1-.1-.2-.2a.8.8,0,0,1-.2-.4c-.1-.1-.3-.2-.3-.4s-.1-.5,0-.5h.1a.3.3,0,0,1-.1-.2c-.1,0-.2-.1-.2-.3s-.1-.3,0-.3h.1c0-.1,0-.2.1-.2l.2.2h.1c.1-.1.3.1.4.4s.1.2.1.3v.5a2,2,0,0,1,.1.7h0a2.7,2.7,0,0,0-.2-1.4,5.6,5.6,0,0,0-.5-.8Z"/><path class="cls-6" d="M16.1,10.3a.2.2,0,0,0,.2.2v-.2Z"/><path class="cls-6" d="M16.1,10.3h-.3v.2l.2.3a.9.9,0,0,1,.3.5,2,2,0,0,0-.1-.7A.2.2,0,0,1,16.1,10.3Z"/><path class="cls-6" d="M16.1,10.7l-.2-.3h-.2l.4.5.4.6a.8.8,0,0,0-.1-.4h0A.9.9,0,0,0,16.1,10.7Z"/><path class="cls-6" d="M16.1,11l-.4-.5h-.1c.1.1.1.3,0,.3h0a.8.8,0,0,0,.2.4c.1.1.1.2.2.2h.1c.1.1.2.2.2.3l.2.4v-.6Z"/><path class="cls-6" d="M15.7,9.5a.8.8,0,0,1,.1.4h0v.2h.3V10c0-.1-.1-.2-.1-.3s-.3-.5-.4-.4h-.1Z"/><path class="cls-6" d="M15.6,10.2v.2h.3V10h-.2V10h-.2Z"/><path class="cls-6" d="M15.6,10.7c.1,0,.1-.2,0-.3v-.2l-.2-.3h-.1c-.1,0-.1.2,0,.5s.2.3.3.4Z"/><path class="cls-6" d="M15.5,9.3q.1.3,0,.3h.3a.8.8,0,0,0-.1-.4l-.2-.2h0Z"/><path class="cls-6" d="M15.6,10V9.8h-.2c0,.1,0,.2-.1.2h0a.3.3,0,0,0,.1.2Z"/><path class="cls-6" d="M15.3,9.4h.2q.1,0,0-.3h0L15.3,9c-.1,0-.1.1-.1.2Z"/><path class="cls-6" d="M15.4,9.5h-.1V9.2h-.1q-.2,0,0,.3c0,.2.1.3.2.3h0C15.4,9.7,15.4,9.6,15.4,9.5Z"/><path class="cls-9" d="M15.3,8.5h0v.2l.4.2c.2.1.4.1.5-.1H16C15.7,8.9,15.4,8.6,15.3,8.5Z"/><path class="cls-9" d="M15.2,8.3h0v.2h0c.1.1.4.4.7.3h-.1C15.6,8.7,15.3,8.3,15.2,8.3Z"/><path class="cls-9" d="M15.2,8.1h0c.1,0,.4.4.7.3l.2-.2h-.3C15.6,8.4,15.3,8.2,15.2,8.1Z"/><path class="cls-9" d="M15.2,8.1c.1.1.4.3.6.2h.1L15.6,8h-.4Z"/><path class="cls-9" d="M14.8,8.2h1.1l-.8-.6a.9.9,0,0,0-.7,0l-.2.3h.6Zm-.1-.4h-.1a.1.1,0,0,1,.1-.1c.1,0,.2,0,.2.1Z"/><path class="cls-10" d="M14.7,7.6a.1.1,0,0,0-.1.1h.3C14.9,7.6,14.8,7.6,14.7,7.6Zm0,.1h0a.1.1,0,0,1,.1.1Z"/><path class="cls-8" d="M14.5,8h0Z"/><path class="cls-3" d="M14.7,7.6h.1A.1.1,0,0,0,14.7,7.6Z"/><path class="cls-8" d="M14.3,8h-.1c-.2.1-.3.2-.2.6V8.1Zm0-.2h0c-.1,0-.1,0-.1-.1Z"/><path class="cls-3" d="M14.3,7.9h-.1C14.2,7.9,14.2,7.9,14.3,7.9Z"/></g></svg>