<svg id="Flags" xmlns="http://www.w3.org/2000/svg" viewBox="0 0 30 20"><defs><style>.cls-1{fill:#5cc9e7;}.cls-2{fill:#171f69;}.cls-3{fill:#fff;}.cls-4{fill:#ec1c2e;}.cls-5{fill:#b03427;}.cls-6{fill:#ffe152;}.cls-7{fill:#009c57;}</style></defs><title>fj</title><path class="cls-1" d="M27.4,0H15V7.5H0v10A2.5,2.5,0,0,0,2.6,20H27.4A2.5,2.5,0,0,0,30,17.5V2.5A2.5,2.5,0,0,0,27.4,0ZM25.1,5.8V8.4h-.8a.1.1,0,0,1-.1.1h-.8l-.9.4-.9-.4h-.8c-.1,0-.1,0-.1-.1h-.8V4.1h5.2Z"/><polygon class="cls-2" points="0 5 0 6.6 3.2 5 0 5"/><path class="cls-2" d="M.4,1.1A3.3,3.3,0,0,0,0,2.5H3.2Z"/><polygon class="cls-2" points="13.2 0 8.7 0 8.7 2.2 13.2 0"/><polygon class="cls-2" points="15 2.5 15 0.9 11.8 2.5 15 2.5"/><polygon class="cls-2" points="15 6.6 15 5 11.8 5 15 6.6"/><polygon class="cls-2" points="1.8 7.5 6.2 7.5 6.2 5.3 1.8 7.5"/><polygon class="cls-2" points="8.7 7.5 13.2 7.5 8.7 5.3 8.7 7.5"/><path class="cls-2" d="M6.2,0H2L6.2,2.2Z"/><polygon class="cls-3" points="8.2 7.5 8.7 7.5 8.7 5.3 13.2 7.5 15 7.5 10 5 11.2 5 15 6.9 15 6.6 11.8 5 15 5 15 4.5 8.2 4.5 8.2 7.5"/><polygon class="cls-3" points="15 3 15 2.5 11.8 2.5 15 0.9 15 0 10 2.5 8.8 2.5 13.8 0 13.2 0 8.7 2.2 8.7 0 8.2 0 8.2 3 15 3"/><polygon class="cls-3" points="6.2 5 1.2 7.5 1.8 7.5 6.2 5.3 6.2 7.5 6.8 7.5 6.8 4.5 0 4.5 0 5 3.2 5 0 6.6 0 6.7 0 7.5 5 5 6.2 5"/><path class="cls-3" d="M6.8,0H6.2V2.2L2,.1,1,.5l4,2H3.8L.6.9l-.2.2L3.2,2.5H0V3H6.8Z"/><polygon class="cls-4" points="10 2.5 15 0 13.8 0 8.8 2.5 10 2.5"/><polygon class="cls-4" points="10 5 15 7.5 15 6.9 11.2 5 10 5"/><path class="cls-4" d="M5,2.5,1,.5.6.9,3.8,2.5Z"/><polygon class="cls-4" points="6.2 5 5 5 0 7.5 1.2 7.5 6.2 5"/><polygon class="cls-4" points="6.8 7.5 8.2 7.5 8.2 4.5 15 4.5 15 3 8.2 3 8.2 0 6.8 0 6.8 3 0 3 0 4.5 6.8 4.5 6.8 7.5"/><path class="cls-4" d="M19.9,8.6h0Z"/><path class="cls-4" d="M20,8.8h0Z"/><path class="cls-4" d="M20.5,5.5h.3c.1-.1.1-.3.2-.3a.1.1,0,0,1-.2,0h.1l-.2-.2h-.2c-.1,0-.1,0,0,.1h-.1a.7.7,0,0,1,.1.6Z"/><path class="cls-4" d="M19.9,5.8H22V7.4H19.9v1H22v2.2l-.4-.2.9.4.9-.4-.4.2V8.4h2.1v-1H23V5.8h2.1V4.1H19.9Zm.2-1h.1c0-.1.1-.1.1,0h.5c0,.1.1.1.2.1h.3c-.1,0,0-.1,0-.1h0V4.2h0a.1.1,0,0,0,.2,0h0c.1.1.1.1,0,.1s.1,0,.1.1h0s.1,0,0,.1h.1c0,.1.1.1,0,.1h-.2l.4.2h0c.8.1,1.3-.6,1.9-.2s.5-.2.2-.4-.8.3-1.4.1h-.3c-.2,0-.2.1-.2.2s-.1-.1,0-.2-.2-.1-.1-.2.6-.2.6.1,1.2-.4,1.6,0a.1.1,0,0,1,0-.2h.1c.1,0,.3.1.2.2h-.2c-.1.1-.2.4-.5.3s.2.3.6.3h.3c.1.3.2.2.2.3l-.2.2c0,.1,0,.1-.1.1h-.3c-.1-.1,0-.1,0-.2h.4V5.3h-.6c-.1-.1-.2,0-.3-.2s0,.1-.1.2V5.1c0,.1-.1.1-.2.1a.2.2,0,0,0,0,.3c-.2.2-.4.2-.5.1h.3c-.1-.1-.2-.2-.1-.3h.1c-.2-.1-1.2.8-1.7.6h0c-.1-.1-.3-.1-.3-.2s-.1.1-.1.2V5.3a.2.2,0,0,1-.2.2h-.2c-.1.1-.2.1-.4,0h-.4a.6.6,0,0,1,0-.6Z"/><path class="cls-4" d="M20.1,8.9h0Z"/><path class="cls-4" d="M20.5,9.6h0Z"/><path class="cls-4" d="M21,10h0Z"/><path class="cls-4" d="M20.8,9.8c-.1,0-.1,0-.1-.1S20.7,9.8,20.8,9.8Z"/><path class="cls-4" d="M25.1,8.5h0Z"/><path class="cls-4" d="M25,8.9h0Z"/><path class="cls-4" d="M25,8.7h0Z"/><path class="cls-4" d="M24,10h0Z"/><path class="cls-4" d="M23.8,10.1h0Z"/><path class="cls-4" d="M21.2,10.1h0Z"/><path class="cls-4" d="M21.6,10.4h0Z"/><path class="cls-4" d="M21.4,10.2h0Z"/><path class="cls-4" d="M24.5,9.5h0Z"/><path class="cls-4" d="M20.4,9.4h0Z"/><path class="cls-4" d="M24.7,9.4h0Z"/><path class="cls-4" d="M24.3,9.7a.1.1,0,0,1-.1.1A.1.1,0,0,0,24.3,9.7Z"/><path class="cls-4" d="M20.3,9.3h0Z"/><path class="cls-4" d="M24.1,9.9h0Z"/><path class="cls-4" d="M20.2,9.1h0Z"/><path class="cls-4" d="M23.6,10.3h0Z"/><path class="cls-4" d="M24.8,9.2h0Z"/><path class="cls-4" d="M24.9,9h0Z"/><path class="cls-3" d="M22,8.4H20.7c0,.1,0,.1.1.1h.8l.4.2Zm-.1,1.4h-.3c0-.2-.1-.2-.2-.2h-.5V9a.4.4,0,0,0-.1-.3h0v.3h-.1a.3.3,0,0,0-.1.2c-.1-.1,0-.2,0-.3h-.2l.2.2v0H21c.1.1.1.1.1.2h.1s-.1-.2.1-.2h.2l.4-.2s.1,0-.1.2.1,0,0,.1h-.3c.1.1.1.3.2.4h.2S22,9.7,21.9,9.8Z"/><path class="cls-3" d="M22,5.8H19.9V7.4H22Zm-.4.7c.1,0,.2-.1.3.3h-.2c-.1-.1-.1,0-.1,0h0c.1.1,0,.2,0,.4s-.1-.2,0-.2-.1-.2-.2-.1v.4h-.2l.3-.4c0-.2-.1-.3,0-.4s0-.1-.1-.1h-.1l-.2.3c.3-.3.3-.1.3,0s-.1.2,0,.3-.1,0-.1-.2H21v.4c0,.1-.2.1-.2,0V6.6c0-.2,0-.2-.1-.1h0v.3c-.1-.3-.2-.3-.1-.5s.2,0,.2.1,0-.3-.1-.3h0c-.1,0-.2.3-.2.4s.1.4.2.5-.1.2-.2.1a.6.6,0,0,0-.1-.4c-.1-.1-.2.2-.2.4s-.1-.1-.1-.3.1-.2.3-.2h-.3v.2c-.1-.1-.2-.1,0-.3s.2,0,.3.1l-.2-.3c-.1,0-.1,0-.1.1s-.1-.1-.1-.2.2-.2.3,0a.4.4,0,0,1,.1.3.4.4,0,0,1,.2-.4H21c.1.1,0,.1,0,.3s.1-.3.2-.3h.2c.2-.1.2,0,0,.1h0l.2.2c.2-.2.3-.2.3.1s-.2,0-.2-.1-.1.1-.2.2h.1Z"/><polygon class="cls-3" points="23.7 9.4 23.7 9.4 23.7 9.4 23.7 9.4"/><polygon class="cls-3" points="23.9 9.6 23.9 9.6 23.9 9.6 23.9 9.6"/><path class="cls-3" d="M23,10.6l.4-.2h.8a.1.1,0,0,0,.1-.1H23Zm.3-.7h.1a.1.1,0,0,1,.1-.1h-.1V9a.2.2,0,0,1,.2-.2h0l.2-.2h.5c.1,0,0,.2,0,.2l-.2.2H24v.2h-.2c-.1,0-.1,0,0-.1h-.6C23.2,10,23.1,10,23.3,9.9Z"/><path class="cls-3" d="M23,7.4h2.1V5.8H23ZM23.4,6h.1c.1,0,.1-.1,0-.1h.2l.2.2h-.1l.2.2a.1.1,0,0,0-.1-.1H24V5.9h.2v.2h.1c-.1.1-.1.1-.1.2l.3-.3h.3c.1,0,.2,0,.2.1s-.1-.1-.1,0h-.5a.3.3,0,0,1,.3.5V6.6a.1.1,0,0,1-.1.1h0c0-.1-.1-.1-.1-.2h-.3a.5.5,0,0,1,.3.3c0,.2,0,.3-.1.3h-.1V6.9h-.1V6.8a.1.1,0,0,1-.1.1c0-.1.1-.1,0-.2h-.1a4.3,4.3,0,0,0,.1.5h-.3a.6.6,0,0,0,.1-.6h0V6.6a.4.4,0,0,0-.1.3V6.7a.4.4,0,0,1-.1.3h0v.2h-.1a.5.5,0,0,1,.4-.6h-.2v0c0,.1,0,.2-.1.2h-.1v.2h-.1a.1.1,0,0,1-.1.1c0-.3.3-.5.7-.4h-.4c-.1,0-.1.1-.1.2s-.1-.1,0-.2h-.1c-.1,0,0-.1,0-.1a.2.2,0,0,0-.2.2.4.4,0,0,1,.1-.3h-.2Z"/><path class="cls-5" d="M24.2,8.7Z"/><path class="cls-5" d="M23.4,10.2h.2c-.1,0-.1,0-.1-.1h0a.1.1,0,0,0-.1.1h-.1c-.2.1-.1.1-.2.3h.3Z"/><path class="cls-6" d="M24.3,9.2h0l.2-.2s.1-.2,0-.2h0v.2Z"/><path class="cls-6" d="M24.2,9.2h.2V9h0l-.2.2Z"/><path class="cls-6" d="M24.1,9.1h.2l.2-.2h-.1l-.2.2Z"/><path class="cls-6" d="M24.1,9h.1l.2-.2h-.3Z"/><path class="cls-6" d="M23.8,8.9h.1c0-.1,0-.2.1-.2h0l-.2.2h0Z"/><path class="cls-6" d="M23.9,8.9H24C23.9,8.7,23.9,8.8,23.9,8.9Z"/><path class="cls-6" d="M24.2,8.7h0Z"/><path class="cls-6" d="M23.6,9.3h0c0-.1.1-.2.1-.3h.1a.2.2,0,0,0-.2.2v.2h0C23.6,9.2,23.6,9.2,23.6,9.3Z"/><path class="cls-6" d="M23.7,9.3V8.9h-.2c0,.1-.1.2-.1.3h.1Z"/><path class="cls-6" d="M23.8,9.1v.2h.1V9h-.1Z"/><path class="cls-6" d="M24.3,9.3h0l-.2.2h.2Z"/><path class="cls-6" d="M24.1,9.3l-.2.2h.2l.2-.2h-.2Z"/><path class="cls-6" d="M24,9.2a.3.3,0,0,1-.1.2h0l.2-.2H24Z"/><path class="cls-6" d="M23.9,9.2v.2h.1a.3.3,0,0,0,.1-.2h0Z"/><path class="cls-6" d="M23.6,9.3c0-.1,0-.1-.1-.1h0v.4h.1C23.5,9.4,23.5,9.3,23.6,9.3Z"/><path class="cls-6" d="M23.5,9.7V9.3h-.1c-.1,0-.1.1-.1.2h0Z"/><path class="cls-6" d="M23.9,9.6h-.1a.1.1,0,0,1-.1.1h.2V9.6h-.1Z"/><path class="cls-6" d="M23.9,9.6h-.2c-.1.1-.1.1,0,.1h0a.1.1,0,0,0,.1-.1Z"/><path class="cls-6" d="M23.8,9.6h-.1v.2h-.2c0,.1,0,.1.1.1h.2Z"/><path class="cls-6" d="M23.7,9.6V9.4h0v.4h.2Z"/><path class="cls-3" d="M20.1,5.4h.1c-.1-.1-.1-.1,0-.2h.2a.1.1,0,0,1,.1.1h0a.7.7,0,0,0-.1-.6h0c0,.1,0,.1-.1.1h-.1a.1.1,0,0,1-.1-.1A.6.6,0,0,0,20.1,5.4Z"/><path class="cls-6" d="M20.2,4.9h.1c.1,0,.1,0,.1-.1h.1c-.1-.1-.1-.1,0-.1h.2l.2.2c0-.1,0-.1.1-.1h0c-.1,0-.2,0-.2-.1h-.5c0-.1-.1-.1-.1,0h-.1A.1.1,0,0,0,20.2,4.9Z"/><path class="cls-6" d="M21,5.4h-.5a.1.1,0,0,0-.1-.1h-.2c-.1.1-.1.1,0,.2h.3c.2.1.3.1.4,0h.2V5.3A.1.1,0,0,0,21,5.4Z"/><path class="cls-6" d="M22.1,5.1c0,.1-.2.1-.3.1a.2.2,0,0,1,.2.2c-.1,0-.3,0-.3-.1v.2c.5.2,1.5-.7,1.7-.6h-.1c-.1.1,0,.2.1.3h-.3c.1.1.3.1.5-.1a.2.2,0,0,1,0-.3c.1,0,.2,0,.2-.1v.2c.1-.1.1-.1.1-.2s.2.1.3.2h.6v.2h-.4c0,.1-.1.1,0,.2h.3c.1,0,.1,0,.1-.1l.2-.2c0-.1-.1,0-.2-.3h-.3c-.4,0-.4-.2-.6-.3s.4-.2.5-.3h.2c.1-.1-.1-.2-.2-.2h-.1a.1.1,0,0,0,0,.2c-.4-.4-1.1.2-1.6,0s-.7.2-.6-.1,0,.2.1.2-.1.2,0,.2,0-.2.2-.2h.3c.6.2,1.2-.3,1.4-.1s0,.4-.2.4-1.1.3-1.9.2h-.1C22,5,22,5.2,22.1,5.1Z"/><path class="cls-6" d="M21.6,4.7a.4.4,0,0,0,.1.3h-.1c-.1.2,0,.2,0,.2h-.2v.2c-.1,0-.1-.1-.1-.2s-.2.2-.2.1H21c-.1,0-.1,0-.1.1h-.1a.1.1,0,0,0,.2,0c-.1,0-.1.2-.2.3H21a.1.1,0,0,1,.1-.1v.2h0a.2.2,0,0,0,.2-.2v.2c0-.1.1-.1.1-.2s.2.1.3.2h0V5.3c0,.1.2.1.3.1a.2.2,0,0,0-.2-.2c.1,0,.3,0,.3-.1S22,5,21.9,5H22l-.4-.2Z"/><path class="cls-6" d="M21,4.8h.1c0,.1.1,0,.2-.1s0,.2.1.2V5h.2s-.1,0,0-.2h.1a.4.4,0,0,1-.1-.3h0l-.2.2h-.2s-.1,0,0-.1H21Z"/><path class="cls-6" d="M21.2,4.7h0c-.1.1,0,.1,0,.1h.1c0,.1,0,.1-.1.1h.2l.2-.2h-.3s-.1.1,0,.1h-.1Z"/><path class="cls-6" d="M21.3,4.5h.5c.1,0,0,0,0-.1h-.1c.1-.1,0-.1,0-.1h0c0-.1,0-.1-.1-.1s.1,0,0-.1h0a.1.1,0,0,1-.2,0h0v.2h0Z"/><path class="cls-6" d="M21.3,4.8h-.1C21.3,4.9,21.3,4.9,21.3,4.8Z"/><path class="cls-5" d="M24.1,6.6h0c0-.1,0-.1-.1-.1h0a.6.6,0,0,1-.1.6h.3a4.3,4.3,0,0,1-.1-.5Z"/><path class="cls-7" d="M23.2,6.4a.2.2,0,0,1,.2-.2s-.1.1,0,.1h.1c-.1.1-.1.1,0,.2s0-.2.1-.2H24c-.4-.1-.7.1-.7.4a.1.1,0,0,0,.1-.1h.1V6.5h.1c.1,0,.1-.1.1-.2v0H24a.5.5,0,0,0-.4.6h.1V6.9h0a.4.4,0,0,0,.1-.3v.2a.4.4,0,0,1,.1-.3v.2h0c.1,0,.1,0,.1.1h.1a.1.1,0,0,1,0,.2h0c.1.1,0,.1,0,.2a.1.1,0,0,0,.1-.1V7h.1v.2h.1c.1,0,.1-.1.1-.3a.5.5,0,0,0-.3-.3h.3c0,.1.1.1.1.2h0a.1.1,0,0,0,.1-.1v.2a.3.3,0,0,0-.3-.5h.5c0-.1.1,0,.1,0s-.1-.1-.2-.1h-.3l-.3.3c0-.1,0-.1.1-.2h-.1V5.9H24v.2h-.1a.1.1,0,0,1,.1.1L23.8,6h.1l-.2-.2h-.2c.1,0,.1.1,0,.1h-.1l-.3.2h.2A.4.4,0,0,0,23.2,6.4Z"/><path class="cls-5" d="M24.2,6.6h-.1v.2h.1A.1.1,0,0,0,24.2,6.6Z"/><path class="cls-7" d="M20.8,8.6h-.2v0l-.2-.2h.2c0,.1-.1.2,0,.3a.3.3,0,0,1,.1-.2h.1V8.9h0Z"/><path class="cls-3" d="M21.9,9.7h-.2c-.1-.1-.1-.3-.2-.4h.3c.1-.1.1-.1,0-.1s.1-.2.1-.2l-.4.2h-.2c-.2,0-.1.2-.1.2h-.1c0-.1,0-.1-.1-.2h-.2a.4.4,0,0,1,.1.3v.3h.5c.1,0,.2,0,.2.2h.3C22,9.7,21.9,9.7,21.9,9.7Zm-1-1.1Z"/><path d="M20.9,8.6Z"/><path class="cls-5" d="M21.4,6.8h0l-.3.4h.2V6.9h0S21.3,6.9,21.4,6.8Z"/><path class="cls-5" d="M20.6,6.7h-.1a.6.6,0,0,1,.1.4c.1.1.2,0,.2-.1s-.1-.4-.2-.5h0Z"/><path class="cls-5" d="M20.9,6.6v.5c0,.1.2.1.2,0V6.7h0A.1.1,0,0,1,20.9,6.6Z"/><path class="cls-7" d="M20.7,6.1a.4.4,0,0,0-.2.4.4.4,0,0,0-.1-.3c-.1-.2-.2-.1-.3,0s0,.2.1.2,0-.1.1-.1l.2.3c-.1-.1-.2-.2-.3-.1s-.1.2,0,.3V6.6h.4c0-.1.1-.4.2-.4h0A.1.1,0,0,0,20.7,6.1Z"/><path class="cls-7" d="M21,6h0Z"/><path class="cls-7" d="M20.6,6.8h-.1c-.2,0-.3.1-.3.2s0,.2.1.3.1-.5.2-.4Z"/><path class="cls-7" d="M21.4,6h0C21.6,6,21.6,5.9,21.4,6Z"/><path class="cls-7" d="M21,6.4c0-.2.1-.2,0-.3h-.3a.1.1,0,0,1,.1.1h0c.1,0,.1,0,.1.3s-.1-.2-.2-.1,0,.2.1.5V6.6h0c.1-.1.1-.1.1.1a.1.1,0,0,0,.1.1h.2c0,.2.1.2.1.2s0-.1,0-.3,0-.3-.3,0l.2-.3h0C21.1,6.1,21,6.2,21,6.4Z"/><path class="cls-7" d="M21.5,6.3h.1l-.2-.2h-.1c.1,0,.1,0,.1.1Z"/><path class="cls-7" d="M21.5,6.5v.2h0Z"/><path class="cls-7" d="M21.4,6.8h.1V6.5h0c.1-.1.2-.1.2-.2s.1.1.2.1-.1-.3-.3-.1h-.2c-.1.1,0,.2,0,.4Z"/><path class="cls-7" d="M21.5,6.7h.1s0-.1.1,0h.2c-.1-.4-.2-.3-.3-.3h-.1Z"/><path class="cls-7" d="M21.5,6.7h-.1c-.1.1,0,.1,0,.1h0c.1-.1.2,0,.2.1s-.1.1,0,.2.1-.3,0-.4h-.1Z"/></svg>