<svg id="Flags" xmlns="http://www.w3.org/2000/svg" viewBox="0 0 30 20"><defs><style>.cls-1{fill:#006bb5;}.cls-2{fill:#fff;}</style></defs><title>fm</title><path class="cls-1" d="M30,17.5V2.5A2.5,2.5,0,0,0,27.4,0H2.5A2.5,2.5,0,0,0,0,2.5v15A2.5,2.5,0,0,0,2.5,20H27.4A2.5,2.5,0,0,0,30,17.5ZM12.9,11l-1.2-.4-.7,1V10.4L9.8,10,11,9.6V8.4l.7,1L12.9,9l-.8,1Zm2.5,3.9L15,16.1l-.4-1.2H13.4l1-.7L14,13l1,.8,1-.8-.4,1.2,1,.7Zm.2-9.1L16,7l-1-.7L14,7l.4-1.2-1-.7h1.2L15,3.9l.4,1.2h1.2Zm3.5,4.6v1.2l-.8-1-1.2.4.8-1-.8-1,1.2.4.8-1V9.6l1.1.4Z"/><polygon class="cls-2" points="15 3.9 14.6 5.1 13.4 5.1 14.4 5.8 14 7 15 6.3 16 7 15.6 5.8 16.6 5.1 15.4 5.1 15 3.9"/><polygon class="cls-2" points="11.7 9.4 11 8.4 11 9.6 9.8 10 11 10.4 11 11.7 11.7 10.6 12.9 11 12.1 10 12.9 9 11.7 9.4"/><polygon class="cls-2" points="16 13 15 13.8 14 13 14.4 14.2 13.4 14.9 14.6 14.9 15 16.1 15.4 14.9 16.6 14.9 15.6 14.2 16 13"/><polygon class="cls-2" points="19.1 8.4 18.3 9.4 17.1 9 17.9 10 17.1 11 18.3 10.6 19.1 11.7 19.1 10.4 20.2 10 19.1 9.6 19.1 8.4"/></svg>