<svg xmlns="http://www.w3.org/2000/svg" viewBox="0 0 30 20"><defs><style>.cls-1{fill:#fff;}.cls-2{fill:#fafafa;}.cls-3{fill:#d92b32;}.cls-4{fill:#f7d80f;}.cls-5{fill:#010101;}.cls-6{fill:#d91f26;}</style></defs><title>gi</title><g id="Layer_33" data-name="Layer 33"><rect class="cls-1" x="10.2" y="7.3" width="1.2"/><rect class="cls-1" x="18.5" y="7.3" width="1.2"/><path class="cls-1" d="M15.2,13.3h-.4v.2h.4Z"/><path class="cls-1" d="M15.2,13.3h0Z"/><path class="cls-2" d="M27.5,0H2.5A2.5,2.5,0,0,0,0,2.5V13.4H14.7v-.2H12.4V13H9.9v-.5l.6-.5h0V7.6h-.3V7.3H9.9V6.5h.3v.4h.6V6.5h.4V3.7H11V3.3h-.2V2.6h.4V3h.5V2.6h.7V3h.4V2.6h.4v.7h-.1v.4h-.2V6.5H13v.4h.6V6.5h.2V3h2.4V6.5h.2v.4H17V6.5h.1V3.7h-.2V3.3h-.1V2.6h.4V3h.4V2.6h.7V3h.5V2.6h.4v.7H19v.4h-.2V6.5h.4v.4h.6V6.5h.3v.8h-.3v.3h-.3V12h0l.6.5V13H17.6v.2H15.4v.2H30V2.5A2.5,2.5,0,0,0,27.5,0ZM16.7,2.5h-.3V3H13.6V2.5h-.3V1.9h.4v.3h.5V1.9h.6v.3h.4V1.9h.6v.3h.5V1.9h.4Z"/><path class="cls-3" d="M15,15l.7-.5-.4-.2c0,.1-.1.2-.3.2h0a.3.3,0,0,1-.3-.3l-.5.3Z"/><polygon class="cls-3" points="15.2 13.9 15.2 13.4 14.8 13.4 14.8 13.8 15 13.7 15.2 13.9"/><path class="cls-3" d="M14.8,14.1c0,.2.1.2.2.2h0c.1,0,.2,0,.2-.1L15,14Z"/><path class="cls-3" d="M15.4,14h-.1l.6.4h.2v.4h-.2l-.8.5v4.5h-.3v-.4H13.6v-.6H14V19h.4v-.3h.4v-.3h-.4v-.3H14v.3h-.4v-.6h1.2V15.2l-.8-.5h-.2v-.4H14l.7-.4v-.5H0v4.1A2.5,2.5,0,0,0,2.5,20h25A2.5,2.5,0,0,0,30,17.5V13.4H15.4Z"/><polygon class="cls-4" points="13.6 17.8 13.6 18.4 14 18.4 14 18.1 14.4 18.1 14.4 18.4 14.8 18.4 14.8 17.8 13.6 17.8"/><polygon class="cls-4" points="14.4 18.7 14.4 19 14 19 14 18.7 13.6 18.7 13.6 19.3 14.8 19.3 14.8 18.7 14.4 18.7"/><path class="cls-5" d="M18.6,10.9a.8.8,0,0,0-.7-.9.8.8,0,0,0-.7.9V12h1.4Z"/><path class="cls-5" d="M13.1,12h-.3V10.9a.8.8,0,0,0-.7-.9.8.8,0,0,0-.7.9V12h1.7Z"/><path class="cls-5" d="M16,12.1h0Z"/><path class="cls-5" d="M14,12.1v.2h.3Z"/><path class="cls-5" d="M15.3,12.3h.1l.4-.3H16V10.7a1,1,0,0,0-1-1.1c-.6,0-1,.3-1,1.1v1.1l.8.5h.5Z"/><polygon class="cls-6" points="12.4 12.6 12.4 12.6 12.4 12.6 12.7 12.5 9.9 12.5 9.9 13 12.4 13 12.4 12.6 12.4 12.6"/><polygon class="cls-6" points="12.7 12.5 13.1 12.3 13.2 12.3 13.2 12.3 13.1 12.3 13.1 12 10.9 12 10.5 12 9.9 12.5 12.7 12.5"/><polygon class="cls-6" points="17.3 12.5 17.6 12.6 17.6 12.6 17.6 12.6 17.6 12.6 17.6 13 20.1 13 20.1 12.5 17.3 12.5"/><polygon class="cls-6" points="16.9 12.3 16.8 12.3 16.8 12.3 16.9 12.3 17.3 12.5 20.1 12.5 19.5 12 19.1 12 16.9 12 16.9 12.3"/><path class="cls-6" d="M14.9,13Z"/><path class="cls-6" d="M14.9,13h0Z"/><path class="cls-6" d="M14.8,13h-.1c0-.1.1-.1.1-.2H12.4v.6h2.3c0-.1,0-.2.1-.2Z"/><path class="cls-6" d="M14.9,13.1Z"/><polygon class="cls-6" points="15.1 13 15.1 13 15.1 13 15.1 13"/><path class="cls-6" d="M15.1,12.8Z"/><polygon class="cls-6" points="15.2 13 15.2 13 15.2 13 15.2 13 15.2 13"/><polygon class="cls-6" points="14.8 13.2 14.8 13.2 14.8 13.2 14.8 13.2 14.8 13.2 14.8 13.2"/><path class="cls-6" d="M15,13Z"/><path class="cls-6" d="M15.5,12.5h1.8l-.4-.2H15.8Z"/><path class="cls-6" d="M14.7,12.5l-.4-.2H13.1l-.4.2h2Z"/><path class="cls-6" d="M15.3,12.3h-.5l.3.2C15.2,12.4,15.2,12.3,15.3,12.3Z"/><path class="cls-6" d="M17.6,12.6H15.3v.2a.4.4,0,0,1-.1.3h2.3v-.6Z"/><path class="cls-4" d="M15.1,12.8h-.3c0,.1-.1.1-.1.2h.1l.2-.2h.1Z"/><path class="cls-4" d="M15.3,12.7h0Z"/><path class="cls-4" d="M15.5,12.5l.3-.2H16v-.3h-.2l-.4.3h-.1c-.1,0-.1.1-.2.2h.4Z"/><path class="cls-6" d="M11.4,10.9a.8.8,0,0,1,.7-.9.8.8,0,0,1,.7.9V12h.3V8h-.4V7.6H10.5V12h.9Z"/><path class="cls-5" d="M12.5,6.5V5.7a.5.5,0,0,0-.4-.5H12a.5.5,0,0,0-.4.5V6.9h.9V6.5Z"/><rect class="cls-5" x="11.5" y="7.3" width="1.1"/><polygon class="cls-6" points="12.5 7.3 11.5 7.3 10.2 7.3 10.2 7.6 10.5 7.6 12.5 7.6 12.5 7.3"/><polygon class="cls-6" points="11.5 7.3 12.5 7.3 12.5 6.9 11.6 6.9 11.6 6.5 11.2 6.5 10.8 6.5 10.8 6.9 10.2 6.9 10.2 6.5 9.9 6.5 9.9 7.3 10.2 7.3 10.2 7.3 11.5 7.3"/><path class="cls-6" d="M11.6,6.5V5.7a.5.5,0,0,1,.4-.5h.1a.5.5,0,0,1,.4.5v.8h.4V3.7H11.2V6.5Z"/><polygon class="cls-5" points="15.1 4.6 15.1 3.4 15 3.4 14.9 3.4 14.9 4.6 15 4.6 15.1 4.6"/><path class="cls-5" d="M15,4.9a.5.5,0,0,0-.5.5V6.5h0v.4h1V6.5h0V5.4A.5.5,0,0,0,15,4.9Z"/><polygon class="cls-5" points="16 3 16 3 14 3 14 3 15 3 16 3"/><rect class="cls-5" x="15.5" y="3.6" width="0.2" height="0.88"/><rect class="cls-5" x="14.3" y="3.6" width="0.2" height="0.88"/><path class="cls-6" d="M14.5,6.5V5.4a.5.5,0,1,1,1,0V6.5h.7V3H13.8V6.5Zm1-2.9h.2v.9h-.2Zm-.6-.2h.2V4.6h-.2Zm-.6.2h.2v.9h-.2Z"/><polygon class="cls-6" points="13.6 2.5 13.6 3 15 3 16.4 3 16.4 2.5 15 2.5 13.6 2.5"/><polygon class="cls-6" points="16.3 2.2 15.8 2.2 15.8 1.9 15.2 1.9 15.2 2.2 15 2.2 14.8 2.2 14.8 1.9 14.2 1.9 14.2 2.2 13.8 2.2 13.8 1.9 13.3 1.9 13.3 2.5 13.6 2.5 15 2.5 16.4 2.5 16.7 2.5 16.7 1.9 16.3 1.9 16.3 2.2"/><polygon class="cls-6" points="13.1 3.7 13.1 3.3 11 3.3 11 3.7 11.2 3.7 12.9 3.7 13.1 3.7"/><polygon class="cls-6" points="13.2 3.3 13.2 2.6 12.8 2.6 12.8 3 12.4 3 12.4 2.6 11.7 2.6 11.7 3 11.2 3 11.2 2.6 10.8 2.6 10.8 3.3 11 3.3 13.1 3.3 13.2 3.3"/><polygon class="cls-4" points="14.8 15.2 14.8 15.5 15.1 15.5 15.1 15.2 15 15.3 14.8 15.2"/><rect class="cls-4" x="14.8" y="19.5" width="0.3" height="0.24"/><path class="cls-4" d="M15.2,13.9l-.2-.2h-.2v.3H15l.2.2h.1l.4.2L15,15l-.8-.5.5-.3h0v-.2l-.7.4h-.2v.4H14l.8.5h.3l.8-.5h.2v-.4h-.2l-.6-.4Z"/><path class="cls-4" d="M14.8,13.2h.5a.4.4,0,0,0,.1-.3v-.2h-.2l-.3-.2h0l-.8-.5v.3l.3.2.4.2h.1Z"/><path class="cls-4" d="M15.4,13.2h-.2v.5h.2v-.8Z"/><path class="cls-4" d="M14.7,14.1h0a.3.3,0,0,0,.3.3h0c.2,0,.3-.1.3-.2h-.1c0,.1-.1.1-.2.1h0c-.1,0-.2,0-.2-.2h0v-.9H15l-.2.2c-.1,0-.1.1-.1.2h0v.9Z"/><path class="cls-6" d="M17.4,7.6h-.1V8h-.4v4h.3V10.9a.8.8,0,0,1,.7-.9.8.8,0,0,1,.7.9V12h.9V7.6H17.4Z"/><polygon class="cls-6" points="15 8 16.9 8 17.3 8 17.3 7.6 16.7 7.6 15 7.6 13.3 7.6 12.7 7.6 12.7 8 13.1 8 15 8"/><rect class="cls-5" x="17.5" y="7.3" width="1.1"/><path class="cls-5" d="M18.4,6.5V5.7a.5.5,0,0,0-.4-.5h-.1a.5.5,0,0,0-.4.5v.8h0v.4h.9Z"/><polygon class="cls-6" points="18.4 6.5 18.4 6.9 17.5 6.9 17.5 7.3 18.5 7.3 19.8 7.3 19.8 7.3 20.1 7.3 20.1 6.5 19.8 6.5 19.8 6.9 19.2 6.9 19.2 6.5 18.8 6.5 18.4 6.5"/><polygon class="cls-6" points="17.5 7.3 17.5 7.6 19.5 7.6 19.8 7.6 19.8 7.3 18.5 7.3 17.5 7.3"/><path class="cls-6" d="M17.5,6.5V5.7a.5.5,0,0,1,.4-.5H18a.5.5,0,0,1,.4.5v.8h.4V3.7H17.1V6.5Z"/><polygon class="cls-6" points="12.5 6.5 12.5 6.5 12.5 6.9 12.5 7.3 12.5 7.3 12.5 7.6 12.6 7.6 12.7 7.6 13.3 7.6 15 7.6 16.7 7.6 17.3 7.6 17.4 7.6 17.5 7.6 17.5 7.3 17.5 7.3 17.5 6.9 17.5 6.5 17.5 6.5 17.1 6.5 17 6.5 17 6.9 16.4 6.9 16.4 6.5 16.2 6.5 15.5 6.5 15.5 6.5 15.5 6.9 15 6.9 14.5 6.9 14.5 6.5 14.5 6.5 13.8 6.5 13.6 6.5 13.6 6.9 13 6.9 13 6.5 12.9 6.5 12.5 6.5"/><polygon class="cls-6" points="19 3.7 19 3.3 16.9 3.3 16.9 3.7 17.1 3.7 18.8 3.7 19 3.7"/><polygon class="cls-6" points="19.2 3.3 19.2 2.6 18.8 2.6 18.8 3 18.3 3 18.3 2.6 17.6 2.6 17.6 3 17.2 3 17.2 2.6 16.8 2.6 16.8 3.3 16.9 3.3 19 3.3 19.2 3.3"/><polygon class="cls-4" points="14.8 17.8 14.8 18.4 14.8 18.7 14.8 19.3 14.8 19.5 15.1 19.5 15.1 15.5 14.8 15.5 14.8 17.8"/><path class="cls-6" d="M14,12.1V10.7c0-.8.4-1.1,1-1.1a1,1,0,0,1,1,1.1v1.6h.9V12h0V8H13.1v4h0v.3H14Z"/></g></svg>