<svg xmlns="http://www.w3.org/2000/svg" viewBox="0 0 30 20"><defs><style>.cls-1{fill:#209e56;}.cls-2{fill:#fff;}.cls-3{fill:#fbd632;}.cls-4{fill:#121212;}.cls-5{fill:#ce2931;}</style></defs><title>gy</title><g id="Layer_25" data-name="Layer 25"><path class="cls-1" d="M2.5,20h25A2.5,2.5,0,0,0,30,17.5V10L1.2,19.6A2.2,2.2,0,0,0,2.5,20Z"/><path class="cls-1" d="M27.5,0H2.5A2.2,2.2,0,0,0,1.2.4L30,10V2.5A2.5,2.5,0,0,0,27.5,0Z"/><path class="cls-2" d="M.9.6,2.6,1.7,27.4,10,2.6,18.3.9,19.4l.3.2L30,10h0L1.2.4Z"/><polygon class="cls-3" points="2.6 18.3 27.4 10 2.6 1.7 15 10 2.6 18.3"/><path class="cls-4" d="M15,10,2.6,1.7.9.6a2.4,2.4,0,0,0-.6.8L13.2,10,.3,18.6a2.4,2.4,0,0,0,.6.8l1.7-1.1Z"/><path class="cls-5" d="M.3,1.4A2,2,0,0,0,0,2.5v15a2,2,0,0,0,.3,1.1L13.2,10Z"/></g></svg>