<svg id="Flags" xmlns="http://www.w3.org/2000/svg" viewBox="0 0 30 20"><defs><style>.cls-1{fill:#ec3b4a;}.cls-2{fill:#003876;}.cls-3{fill:#ec2d3d;}.cls-4{fill:#00aee7;}.cls-5{fill:#d4d5d6;}.cls-6{fill:#fff31c;}.cls-7{fill:#009370;}.cls-8{fill:#81683b;}.cls-9{fill:#fff;}.cls-10{fill:#ec2f40;}</style></defs><title>gu</title><path class="cls-1" d="M30,17.5V2.5A2.5,2.5,0,0,0,27.4,0H2.5A2.5,2.5,0,0,0,0,2.5v15A2.5,2.5,0,0,0,2.5,20H27.4A2.5,2.5,0,0,0,30,17.5ZM.7,19.1V.9H29.3V19.1Z"/><path class="cls-2" d="M29.3.9H.7V19.1H29.3ZM15,14.4c-1.4-1.2-2.9-2.5-2.9-4.4S13.6,6.8,15,5.6c1.4,1.2,2.9,2.5,2.9,4.4S16.4,13.2,15,14.4Z"/><path class="cls-3" d="M15,5.6c-1.4,1.2-2.9,2.5-2.9,4.4s1.5,3.2,2.9,4.4c1.4-1.2,2.9-2.5,2.9-4.4S16.4,6.8,15,5.6Zm2.6,4.6h0v.2h-.1v.2l-.3.8h0v.2h0c0,.1-.1.1-.1.2h0v.2h-.1c0,.1-.1.1-.1.2h0c-.1.1-.1.2-.2.2h0v.2h-.3v.2h0c-.1.1-.2.1-.2.2h-.6L15,14l-.4-.4h0l-.4-.3h0l-.5-.6h0l-.2-.2h-.1v-.2h0v-.2H13a3.3,3.3,0,0,1-.5-1.2,1.5,1.5,0,0,1-.1-.7c0-1.7,1.4-2.9,2.6-4,1.2,1.1,2.6,2.3,2.6,4v.2Z"/><path class="cls-2" d="M13.3,12.3Z"/><path class="cls-2" d="M14.6,13.6l-.4-.3Z"/><path class="cls-2" d="M13.5,12.5h0Z"/><path class="cls-2" d="M17.1,11.7Z"/><path class="cls-2" d="M15,14l-.4-.4Z"/><path class="cls-2" d="M14,11.6h0Z"/><path class="cls-2" d="M13.2,12.1h0Z"/><path class="cls-2" d="M15.6,12.6c0-.3-.3-.5-.6-.6h-.1a.6.6,0,0,1,.5-.2,3.6,3.6,0,0,1-.4-1.1h-.8l.3.6h.2c0,.1-.1.2-.4.2h-.7c-.3,0-.4-.1-.4-.2h.2a1.4,1.4,0,0,0,.2-.6H12.5a3.3,3.3,0,0,0,.5,1.2,2.9,2.9,0,0,1,1.8.5c.1,0,.1.1,0,.1a2.2,2.2,0,0,0-1.1.2l.5.6C14.6,12.7,15.6,13.1,15.6,12.6Z"/><path class="cls-2" d="M17,11.9Z"/><path class="cls-2" d="M15.7,11.8h.7a1,1,0,0,1,.8-.2l.3-.8H15.2A1.9,1.9,0,0,0,15.7,11.8Z"/><path class="cls-2" d="M15.6,13.4h0Z"/><path class="cls-2" d="M14.5,11.3h0Z"/><path class="cls-2" d="M15.8,13.3Z"/><path class="cls-2" d="M15.4,13.6h0Z"/><path class="cls-2" d="M15.2,13.8Z"/><path class="cls-2" d="M16,13.1Z"/><path class="cls-2" d="M16.7,12.3Z"/><path class="cls-2" d="M16.5,12.5Z"/><path class="cls-2" d="M16.9,12.1h0Z"/><path class="cls-2" d="M16.2,12.9h0Z"/><path class="cls-2" d="M16.4,12.7h0Z"/><path class="cls-4" d="M15,6c-1.2,1.1-2.6,2.3-2.6,4a1.5,1.5,0,0,0,.1.7h1.1v-.4a.5.5,0,0,1,.5.3v.1h.4v-.3H15a14.7,14.7,0,0,1,0-2.1h0v.2h0v.2h0v.2h-.1v.2h0V9h-.1v.2h-.1v.2h0v.2h0V9.2a.1.1,0,0,1-.1.1.3.3,0,0,1,.1-.2h-.1s0-.2.1-.2h-.1V8.8h0V8.5h-.1l.2-.2h-.2v.2h0l-.2.2h0v0c0,.1-.1.2-.1.3h0a.1.1,0,0,0-.1.1h0c-.1.1-.1.2-.2.2a1.3,1.3,0,0,1,.8-.8h-.4l-.2.2h-.1c-.1.1-.2.1-.2.2h-.2a.1.1,0,0,1,.1-.1h-.3A1.2,1.2,0,0,1,14.8,8c0-.1-.1-.1-.1-.2h-.5a1,1,0,0,1,.7.5H15V7.4h-.1V6.9h.1a.1.1,0,0,1-.1-.1h0V6.6l.2.2h0a.3.3,0,0,1,.1.2V6.7A.4.4,0,0,0,15,7h0v.3h.1v.2h.1v.3h0v.3a1.2,1.2,0,0,1,1-.5h-.1s-.2.1-.2,0a.1.1,0,0,0,.1.1h-.6c.4-.1,1,0,1.1.2h-1c.5,0,1,.3.9.8a.3.3,0,0,1-.1-.2h0a.3.3,0,0,0-.1-.2h0v0c0-.1,0-.2-.1-.2h0c0-.1,0-.2-.1-.2h-.1V8.3c.1.1,0,.1,0,.2V8.3h-.2l.2.2h-.1V9h0v.1h0V9h-.1V8.9h0c0-.1-.1-.2-.1-.3h0V8.6h-.1V8.5h0V8.4h0c-.1,0-.1-.1-.1-.2a14.7,14.7,0,0,0,0,2.1,6.9,6.9,0,0,0,2.5-.2V10C17.6,8.3,16.2,7.1,15,6Zm-.8,3.4h.1v.5h.3V9.4h.1v.5a.3.3,0,0,1-.3.3c-.1,0-.2-.2-.2-.3Zm-.7,0c.1,0,.2.1.2.3h-.2a.2.2,0,0,0-.2.2l.2.2h.2v.3h-.2c-.2,0-.3-.2-.3-.4S13.3,9.4,13.5,9.4Zm2.2.8V10h-.2v.2h-.1l.2-.8h.1l.2.8Zm1,0v0h-.1v0h-.2V9.4h.2v0h.2v.8Z"/><path class="cls-4" d="M15.5,9.9h.1v0Z"/><path class="cls-4" d="M17.5,10.5v0Z"/><path class="cls-4" d="M17.6,10.3v0Z"/><path class="cls-5" d="M15.1,10.4a.4.4,0,0,0,.1.3h2.3v-.2h.1v-.2h0A6.9,6.9,0,0,1,15.1,10.4Z"/><path class="cls-5" d="M15,10.4h-.4v.3H15Z"/><path class="cls-6" d="M14.8,12.5c.1,0,.1-.1,0-.1a2.9,2.9,0,0,0-1.8-.5h.2v.2h0v.2h.1l.2.2h0A2.2,2.2,0,0,1,14.8,12.5Z"/><path class="cls-6" d="M16.4,11.7h-.7l.4.3c.2.1.1.4-.2.2l-.5-.5a.6.6,0,0,0-.5.2H15c.3.1.6.3.6.6s-1,.1-1.4.7h0l.4.3h0l.4.4.2-.2h.6c0-.1.1-.1.2-.2h0v-.2h.3v-.2h0c.1,0,.1-.1.2-.2h0c0-.1.1-.1.1-.2h.1v-.2h0c0-.1.1-.1.1-.2h0v-.2h0A1,1,0,0,0,16.4,11.7Z"/><path class="cls-7" d="M14.9,8.1c-.1,0-.1-.1.1-.1h.1c.2,0,.2.1.1.2a.1.1,0,0,1-.1.1h0c0,.1,0,.2.1.2h0v.2h0v.2h.1v.2h0c0,.1.1.2.1.3h0v.2h.1v.2h0V9.1h0V8.8h.1l-.2-.2h.2v.2c0-.1.1-.1,0-.2v.2h.1c.1,0,.1.1.1.2h0c.1,0,.1.1.1.2v0h0a.3.3,0,0,1,.1.2h0a.3.3,0,0,0,.1.2c.1-.5-.4-.8-.9-.8h1c-.1-.2-.7-.3-1.1-.2H16a.1.1,0,0,1-.1-.1c0,.1.2,0,.2,0h.1a1.2,1.2,0,0,0-1,.5V7.4h0V7.2h-.1V7.1H15V6.9h0a.4.4,0,0,1-.1-.3v.2a.3.3,0,0,0-.1-.2h0l-.2-.2v.2h0a.1.1,0,0,0,.1.1h-.1v.2h.1v.2h-.1a1,1,0,0,0-.7-.5h.5c0,.1.1.1.1.2a1.2,1.2,0,0,0-1.6.3h.3a.1.1,0,0,0-.1.1h.2c0-.1.1-.1.2-.2h.1l.2-.2h.4a1.3,1.3,0,0,0-.8.8c.1,0,.1-.1.2-.2h0a.1.1,0,0,1,.1-.1h0c0-.1.1-.2.1-.3v0h0l.2-.2h0V8.3h.2l-.2.2h.1v.2h0V9h.1c-.1,0-.1.2-.1.2h.1a.3.3,0,0,0-.1.2.1.1,0,0,0,.1-.1v.2h0V9.1h0V9h.1V8.9h.1V8.8h0V8.7h.1V8.5h0V8.4h0V8.3C14.9,8.3,14.8,8.2,14.9,8.1Z"/><path class="cls-8" d="M14.2,11.3h0Z"/><path class="cls-8" d="M14.1,10.2v.4h0Z"/><path class="cls-8" d="M14.5,11.3H13.2c0,.1.1.2.4.2h.7c.3,0,.4-.1.4-.2Z"/><path class="cls-8" d="M14.2,11.5Z"/><path class="cls-8" d="M15.4,11.8l.5.5c.3.2.4-.1.2-.2l-.4-.3a1.9,1.9,0,0,1-.5-1.1.4.4,0,0,1-.1-.3,14.7,14.7,0,0,1,0-2.1H15a14.7,14.7,0,0,0,0,2.1v.3A3.6,3.6,0,0,0,15.4,11.8Z"/><path class="cls-8" d="M15,8.1h0c-.2,0-.2.1-.1.1Z"/><path class="cls-8" d="M15,8.1h.2c.1-.1.1-.2-.1-.2H15Z"/><path class="cls-8" d="M15,8.3V8.1h-.1c-.1.1,0,.2.1.2Z"/><path class="cls-8" d="M15.2,8.2H15v.2h.1A.1.1,0,0,0,15.2,8.2Z"/><path class="cls-9" d="M14.1,11.3h.4l-.3-.6h-.1a.5.5,0,0,0-.5-.3v.4a1.4,1.4,0,0,1-.2.6Z"/><path class="cls-10" d="M13.5,10.2h.2V9.8h-.2l-.2-.2a.2.2,0,0,1,.2-.2h.2c0-.2-.1-.3-.2-.3s-.3.2-.3.4S13.3,10.2,13.5,10.2Z"/><path class="cls-10" d="M14.4,10.2a.3.3,0,0,0,.3-.3V9.4h-.1v.5h-.3V9.4h-.1v.5C14.2,10,14.3,10.2,14.4,10.2Z"/><path class="cls-10" d="M15.5,9.4l-.2.8h.1V10h.2v.2h.1l-.2-.8Zm0,.5h0v0Z"/><polygon class="cls-10" points="16.6 9.4 16.5 10 16.4 9.4 16.2 9.4 16.2 10.2 16.4 10.2 16.4 9.6 16.5 10.2 16.6 10.2 16.7 9.6 16.7 10.2 16.8 10.2 16.8 9.4 16.6 9.4"/></svg>