<svg xmlns="http://www.w3.org/2000/svg" viewBox="0 0 30 20"><defs><style>.cls-1{fill:#fafafa;}.cls-2{fill:#e71d2f;}.cls-3{fill:#f8dd11;}</style></defs><title>gg</title><g id="Layer_28" data-name="Layer 28"><path class="cls-1" d="M27.4,0H2.6A2.5,2.5,0,0,0,0,2.5v15A2.5,2.5,0,0,0,2.6,20H27.4A2.5,2.5,0,0,0,30,17.5V2.5A2.5,2.5,0,0,0,27.4,0ZM22.6,11.7l-.9-.9H15.8v5.9l.9.8H13.3l.9-.8V10.8H8.3l-.9.9V8.3l.9.9h5.9V3.3l-.9-.8h3.4l-.9.8V9.2h5.9l.9-.9Z"/><polygon class="cls-2" points="15.4 20 14.6 20 14.6 10.4 0 10.4 0 9.6 14.6 9.6 14.6 0 15.4 0 15.4 9.6 30 9.6 30 10.4 15.4 10.4 15.4 20"/><polygon class="cls-3" points="15.8 9.2 15.8 3.3 16.7 2.5 13.3 2.5 14.2 3.3 14.2 9.2 8.3 9.2 7.4 8.3 7.4 11.7 8.3 10.8 14.2 10.8 14.2 16.7 13.3 17.5 16.7 17.5 15.8 16.7 15.8 10.8 21.7 10.8 22.6 11.7 22.6 8.3 21.7 9.2 15.8 9.2"/></g></svg>