<svg id="Flags" xmlns="http://www.w3.org/2000/svg" viewBox="0 0 30 20"><defs><style>.cls-1{fill:#273476;}.cls-2{fill:#fff;}.cls-3{fill:#ed2f31;}</style></defs><title>Artboard 53</title><polygon class="cls-1" points="17.5 20 26.3 20 17.5 14 17.5 20"/><path class="cls-1" d="M0,13.3v4.6l6.8-4.5Z"/><path class="cls-1" d="M0,2.1V6.5H6.7Z"/><polygon class="cls-1" points="26.6 0 17.5 0 17.5 6.1 26.6 0"/><path class="cls-1" d="M30,6.5V2.1L23.3,6.6Z"/><path class="cls-1" d="M30,17.9V13.3H23.2Z"/><polygon class="cls-1" points="12.5 0 3.4 0 12.5 6.1 12.5 0"/><polygon class="cls-1" points="3.7 20 12.5 20 12.5 14 3.7 20"/><path class="cls-2" d="M12.5,6.1,3.4,0H2.5A3,3,0,0,0,1,.5l9,6.2H7.7L.2,1.5a2.1,2.1,0,0,1-.2.6L6.7,6.6H0V7.9H13.5V0h-1Z"/><path class="cls-2" d="M16.5,12.1V20h1V14l8.8,6h1.2a2.5,2.5,0,0,0,1.6-.6L20,13.5h2.3l7.5,4.9.2-.5-6.8-4.5H30V11.9l-8.7.2Z"/><path class="cls-2" d="M0,11.9v1.4H6.8L0,17.9a3.8,3.8,0,0,0,.9,1.5L10,13.5h2.2L2.6,20H3.7l8.8-6v6h1V12.1H8.7Z"/><path class="cls-2" d="M23.3,6.6,30,2.1A2.9,2.9,0,0,0,29,.5L20,6.7H17.8L27.4,0h-.8L17.5,6.1V0h-1V8.1H30V6.5Z"/><polygon class="cls-3" points="21.3 8 16.5 8.1 16.5 6.8 16.5 0 13.5 0 13.5 6.8 13.5 8.1 8.7 8 0 7.9 0 11.9 8.7 12.1 13.5 12.1 13.5 13.3 13.5 20 16.5 20 16.5 13.3 16.5 12.1 21.3 12.1 30 11.9 30 7.9 21.3 8"/><path class="cls-3" d="M7.7,6.7H10L1,.5a2.7,2.7,0,0,0-.8,1Z"/><path class="cls-3" d="M17.8,6.7H20L29,.5A3,3,0,0,0,27.5,0h-.1Z"/><path class="cls-3" d="M20,13.5l9.1,5.9a2.3,2.3,0,0,0,.7-1l-7.5-4.9Z"/><path class="cls-3" d="M10,13.5.9,19.4a2.5,2.5,0,0,0,1.6.6h.1l9.6-6.5Z"/></svg>