<svg xmlns="http://www.w3.org/2000/svg" viewBox="0 0 30 20"><defs><style>.cls-1{fill:#ed2f31;}.cls-2{fill:#fff;}.cls-3{fill:#ed2224;}</style></defs><title>hk</title><g id="Layer_22" data-name="Layer 22"><path class="cls-1" d="M27.5,0H2.5A2.5,2.5,0,0,0,0,2.5v15A2.5,2.5,0,0,0,2.5,20h25A2.5,2.5,0,0,0,30,17.5V2.5A2.5,2.5,0,0,0,27.5,0Zm-8,9.6a1.6,1.6,0,0,1-2.3,0,1.3,1.3,0,0,0-2.1.2h.1a3,3,0,0,1,3.5,2.2,2.9,2.9,0,0,1-1.4,3.3.9.9,0,0,0-.5-1.4A1.5,1.5,0,0,1,16,12a1.4,1.4,0,0,0-.8-2h-.1a3.1,3.1,0,0,1-1.1,4,3,3,0,0,1-3.6-.3.9.9,0,0,0,1.2-.9,1.5,1.5,0,0,1,1.8-1.4A1.3,1.3,0,0,0,15,10.2h-.2a3.1,3.1,0,0,1-4.1.2,2.9,2.9,0,0,1-.8-3.5.9.9,0,0,0,1.2.8A1.6,1.6,0,0,1,13,9a1.3,1.3,0,0,0,1.8,1.1h0A3.1,3.1,0,0,1,13.3,6a3,3,0,0,1,3.1-1.8A.9.9,0,0,0,16,5.6a1.6,1.6,0,0,1-.7,2.2,1.3,1.3,0,0,0-.5,2H15a3.2,3.2,0,0,1,3.3-2.6A3,3,0,0,1,21,9.5.9.9,0,0,0,19.5,9.6Z"/><path class="cls-2" d="M14.3,6.8h.1a2.2,2.2,0,0,0,.4,2.9,1.3,1.3,0,0,1,.5-2A1.6,1.6,0,0,0,16,5.6a.9.9,0,0,1,.4-1.4A3,3,0,0,0,13.3,6a3.1,3.1,0,0,0,1.5,3.9A2.4,2.4,0,0,1,14.3,6.8Zm.2-.9.3.2h.3v.3l.2.2h-.3l-.2.3V6.5h0Z"/><polygon class="cls-3" points="14.6 6.5 14.7 6.8 14.9 6.5 15.2 6.5 15 6.3 15.1 6 14.8 6.1 14.5 5.9 14.6 6.3 14.3 6.4 14.6 6.5"/><path class="cls-3" d="M14.9,9.9h-.1a2.2,2.2,0,0,1-.4-2.9h-.1a2.4,2.4,0,0,0,.5,3.1h.1Z"/><path class="cls-2" d="M18.3,7.2A3.2,3.2,0,0,0,15,9.8a2.4,2.4,0,0,1,2.8-1.4h0a2.3,2.3,0,0,0-2.7,1.3,1.3,1.3,0,0,1,2.1-.2,1.6,1.6,0,0,0,2.3,0A.9.9,0,0,1,21,9.5,3,3,0,0,0,18.3,7.2Zm.1,2V8.8h-.4l.4-.2V8.2l.2.3.4-.2-.2.3.3.3h-.4Z"/><polygon class="cls-3" points="18.6 8.6 18.8 8.3 18.4 8.5 18.2 8.2 18.3 8.6 17.9 8.8 18.3 8.8 18.4 9.2 18.5 8.8 18.9 8.9 18.6 8.6"/><path class="cls-3" d="M17.8,8.5h0A2.4,2.4,0,0,0,15,9.8h.1A2.3,2.3,0,0,1,17.8,8.5Z"/><path class="cls-2" d="M11.8,9.7h0a2.3,2.3,0,0,0,3,.5A1.3,1.3,0,0,1,13,9a1.6,1.6,0,0,0-1.9-1.3.9.9,0,0,1-1.2-.8,2.9,2.9,0,0,0,.8,3.5,3.1,3.1,0,0,0,4.1-.2A2.3,2.3,0,0,1,11.8,9.7Zm-.9-.5.4-.2V8.7l.2.2.4-.2-.2.3.3.3h-.4v0Z"/><polygon class="cls-3" points="11.5 9.2 11.9 9.3 11.6 9 11.8 8.7 11.4 8.9 11.2 8.7 11.3 9 10.9 9.2 11.3 9.2 11.4 9.6 11.5 9.2"/><path class="cls-3" d="M14.9,10h-.1a2.3,2.3,0,0,1-3-.5h0a2.3,2.3,0,0,0,3,.5h.1Z"/><path class="cls-2" d="M17.4,12.2h-.1A2.3,2.3,0,0,0,15.2,10a1.4,1.4,0,0,1,.8,2,1.5,1.5,0,0,0,.8,2.1.9.9,0,0,1,.5,1.4,2.9,2.9,0,0,0,1.4-3.3A3,3,0,0,0,15.2,10,2.3,2.3,0,0,1,17.4,12.2Zm.4.8h-.4v0h0v-.4l.3.2h.3l-.2.3Z"/><polygon class="cls-3" points="17.4 12.6 17.1 12.4 17.2 12.8 16.9 12.9 17.2 13 17.3 13.3 17.4 13 17.8 13 17.5 12.8 17.7 12.5 17.4 12.6"/><path class="cls-3" d="M15.1,10h.1a2.3,2.3,0,0,1,2.1,2.2h.1A2.3,2.3,0,0,0,15.2,10Z"/><path class="cls-2" d="M13.7,13h-.1A2.2,2.2,0,0,0,15,10.2a1.3,1.3,0,0,1-1.6,1.4A1.5,1.5,0,0,0,11.6,13a.9.9,0,0,1-1.2.9,3,3,0,0,0,3.6.3,3.1,3.1,0,0,0,1.1-4A2.4,2.4,0,0,1,13.7,13Zm-.7.6v-.4h-.4l.3-.2v-.3l.2.2.4-.2-.2.4.3.2h-.4Z"/><polygon class="cls-3" points="13.2 13.1 13.4 12.7 13 12.9 12.8 12.7 12.8 13 12.5 13.2 12.9 13.2 13 13.6 13.1 13.3 13.5 13.3 13.2 13.1"/><path class="cls-3" d="M15,10.1h0a2.2,2.2,0,0,1-1.4,2.7h.1a2.4,2.4,0,0,0,1.4-2.8H15Z"/><path class="cls-3" d="M15,9.9Z"/></g></svg>