<svg id="Flags" xmlns="http://www.w3.org/2000/svg" viewBox="0 0 30 20"><defs><style>.cls-1{fill:#348b42;}.cls-2{fill:#121212;}.cls-3{fill:#f9e032;}</style></defs><title>Artboard 55</title><polygon class="cls-1" points="26.3 0 3.3 0 14.9 7.3 26.3 0"/><polygon class="cls-1" points="3.3 20 26.3 20 14.9 12.7 3.3 20"/><polygon class="cls-2" points="0 3.2 0 16.8 10.7 10 0 3.2"/><polygon class="cls-2" points="30 16.8 30 3.2 19.2 10 30 16.8"/><path class="cls-3" d="M19.2,10,30,3.2V2.5A2.5,2.5,0,0,0,27.5,0H26.3L14.9,7.3,3.3,0H2.5A2.5,2.5,0,0,0,0,2.5v.7L10.7,10,0,16.8v.7A2.5,2.5,0,0,0,2.5,20h.8l11.6-7.3L26.3,20h1.2A2.5,2.5,0,0,0,30,17.5v-.7Z"/></svg>