<svg xmlns="http://www.w3.org/2000/svg" viewBox="0 0 30 20"><defs><style>.cls-1{fill:#fafafa;}.cls-2{fill:#de2c3c;}.cls-3{fill:#e71d2f;}.cls-4{fill:#f8dd11;}.cls-5{fill:#ed2026;}.cls-6{fill:#2857a7;}</style></defs><title>je</title><g id="Layer_8" data-name="Layer 8"><path class="cls-1" d="M2.1,20H27.9L15,11.3Z"/><path class="cls-1" d="M29.8,18.5a3,3,0,0,0,.2-1V2.5a3,3,0,0,0-.2-1L16.9,10Z"/><path class="cls-1" d="M.2,1.5a3,3,0,0,0-.2,1v15a3,3,0,0,0,.2,1L13.1,10Z"/><path class="cls-1" d="M27.9,0H2.1L15,8.7ZM13.2,3.2h0a3.8,3.8,0,0,0-.6-1.6c.3-.1.4.1.4.3a.5.5,0,0,1,.6-.1c-.4.3-.1.7.2.6s.2-.1.3-.3H14a.4.4,0,0,1-.1-.3.2.2,0,0,1,.3,0c.1,0,.1.2,0,.2h0c.1.2.2.2.4.2s.2-.2.2-.4-.3-.4-.4-.3.4-.5.5-.3A.8.8,0,0,1,15,.5a.8.8,0,0,1,.1.8c.1-.2.5,0,.5.3s-.4,0-.4.3,0,.3.2.4.3,0,.4-.2h0c-.1,0-.1-.2,0-.2a.2.2,0,0,1,.3,0,.4.4,0,0,1-.1.3h-.1c.1.2.1.3.3.3s.6-.3.2-.6a.5.5,0,0,1,.6.1c0-.2.1-.4.4-.3a3.8,3.8,0,0,0-.6,1.6,4.5,4.5,0,0,1-1.8,5A4.5,4.5,0,0,1,13.2,3.2Z"/><path class="cls-2" d="M27.9,0,15,8.7,2.1,0A2.9,2.9,0,0,0,.2,1.5L13.1,10,.2,18.5A2.9,2.9,0,0,0,2.1,20L15,11.3,27.9,20a2.9,2.9,0,0,0,1.9-1.5L16.9,10,29.8,1.5A2.9,2.9,0,0,0,27.9,0Z"/><path class="cls-3" d="M16.8,3.2h0a4.3,4.3,0,0,0-3.6,0,4.5,4.5,0,0,0,1.8,5A4.5,4.5,0,0,0,16.8,3.2ZM13.3,4.3c-.1-.1,0-.1,0-.1h0c.1-.1.1-.1.2,0h.6c-.1-.1-.2,0-.2-.1h-.2c-.2-.1-.2-.1-.2-.2h.1l-.3-.2h-.1s.1-.1.1,0,.1,0,.1,0,0-.1-.1-.1h0s-.1-.1-.1,0a.1.1,0,0,1,.1-.1h.1a.1.1,0,0,1,.1.1l.2.3c.1.1.1.2.3.2h0c0-.1-.1-.1-.1-.2h0c0-.1-.1-.1-.1-.2h.6v.2h0a.4.4,0,0,0,.4.2h1.5c0-.1-.2-.2-.4-.1s-1,.1-1-.2.5-.2.7-.2h-.1c-.1,0-.4,0-.4.1s.4.2.8.1.5,0,.5.2a.3.3,0,0,1-.4.2h.4s.2,0,.2-.1.1,0,.1.1h0c.1,0,.1.1.1.2h-.1c.1.1,0,.2.1.2h-.5a.1.1,0,0,0-.1.1V4.5h-.1V4.4h.2c.1,0,.1,0,.1-.1s-.1-.2-.3-.2H15.1c-.1,0,0-.1,0-.1H15c-.1,0,0-.1,0-.1h0c-.1,0,0-.1.1-.1h.5c0-.1,0-.1-.1-.1l-.3-.2h-.1c0,.1-.1,0-.2.1h-.8c0,.2-.4.1-.4.1h-.1a.1.1,0,0,1-.1-.1c-.1,0-.1,0-.1.1s0-.1,0-.2h-.1Zm.3,1.5h-.1c-.1,0,0-.1,0-.1h-.1a.1.1,0,0,1,.1-.1h.3c-.2-.1-.2-.2-.2-.2h.1l-.3-.2h0a.1.1,0,0,0-.1.1.1.1,0,0,1,.1-.1h0a.1.1,0,1,1,.2,0l.2.3c.1.1.1.2.3.2h0c-.1-.1-.1-.1-.1-.2h.3c.1,0,.2,0,.1.1h1.7c0-.1-.1-.1-.4-.1s-.8.1-.8-.1.4-.3.6-.2h-.1c-.1-.1-.4-.1-.4.1h.7a.4.4,0,0,1,.5.2l-.4.2h.7a.3.3,0,0,0,.1.2h-.1v.2a.1.1,0,0,1-.1-.1c0,.1,0,.1-.1.2H16c-.1-.1,0-.1,0-.1h.3c0-.1,0-.1-.3-.1h-.3c-.1.1,0,.1,0,.2s.1,0,0,.1h-.8c0-.1,0-.2.1-.2h-.1c-.1.1-.2,0-.2.1h-.4c.1,0,.1,0,.1-.1l-.3.2h-.5ZM15,7.1a.1.1,0,0,0-.1.1c0-.1,0-.1.1-.1h-.5c0,.1-.1.1-.1.2h0c0,.1-.3,0-.3,0H14c-.1,0-.1-.1-.1,0h0s-.1-.1-.1,0,0-.1.1-.1a.1.1,0,0,1,.1.1h.2c.1,0,.1-.1,0-.1h-.1l-.2-.2h-.1c0-.1,0-.1.1-.1H14c0,.1,0,.2.1.2s.1.2.2.2h0V6.4h0c0-.1,0-.1.1-.1h.2c.1,0,.1,0,.1.1h.9c-.2,0-.6,0-.6-.2H15c0,.1.3.1.5.1s.4,0,.4.1l-.3.2h.5c0,.1,0,.1.1.2h-.1v.2h-.1v.2h0a.1.1,0,0,1-.1.1.1.1,0,0,1,.1-.1c-.1,0-.1,0-.1.1h-.1c0,.1-.1,0-.1.1a.1.1,0,0,1,.1-.1H16c0-.1-.1-.2-.2-.1h-.3s.1,0,0,.1h0c-.1,0-.2,0-.2.1H15Z"/><path class="cls-4" d="M16.8,3.2h0a3.8,3.8,0,0,1,.6-1.6c-.3-.1-.4.1-.4.3a.5.5,0,0,0-.6-.1c.4.3.1.7-.2.6s-.2-.1-.3-.3H16a.4.4,0,0,0,.1-.3.2.2,0,0,0-.3,0c-.1,0-.1.2,0,.2h0c-.1.2-.2.2-.4.2s-.2-.2-.2-.4.3-.4.4-.3-.4-.5-.5-.3A.8.8,0,0,0,15,.5a.8.8,0,0,0-.1.8c-.1-.2-.5,0-.5.3s.4,0,.4.3,0,.3-.2.4-.3,0-.4-.2h0c.1,0,.1-.2,0-.2a.2.2,0,0,0-.3,0,.4.4,0,0,0,.1.3h.1c-.1.2-.1.3-.3.3s-.6-.3-.2-.6a.5.5,0,0,0-.6.1c0-.2-.1-.4-.4-.3a3.8,3.8,0,0,1,.6,1.6h0a4.2,4.2,0,0,1,3.6,0Z"/><path class="cls-4" d="M13.4,4.2h.1a.1.1,0,0,0,.1.1h.1s.4.1.4-.1h.8c.1-.1.2,0,.2-.1h.1c0-.1.4-.2.6,0h.4c.2,0,.3.1.3.2s0,.1-.1.1h.4c-.1,0,0-.1-.1-.2h.1c0-.1,0-.2-.1-.2h0c0-.1,0-.1-.1-.1s-.2.1-.2.1H16a.3.3,0,0,0,.4-.2c0-.2-.2-.3-.5-.2s-.8,0-.8-.1.3-.1.4-.1h.1c-.2,0-.6,0-.7.2s.5.2,1,.2.4,0,.4.1H14.8a.4.4,0,0,1-.4-.2v.2h-.1c0,.2,0,.2-.1.2V3.9h0c-.1.1,0,.3,0,.3h-.6c-.1-.1-.1-.1-.2,0h.1Z"/><path class="cls-4" d="M13.9,3.4h-.1c0,.1.1.1.1.2Z"/><path class="cls-4" d="M14.4,3.6V3.4h-.1C14.4,3.4,14.4,3.5,14.4,3.6Z"/><path class="cls-4" d="M14.1,3.9H14c.1,0,0-.1,0-.1h.2c.1,0,0,.1,0,.1h.1V3.6h0c0-.1,0-.2-.1-.2h-.4v.2h0c0,.1.1.1.1.2h.1Z"/><path class="cls-4" d="M14.1,3.9H14c-.2,0-.2-.1-.3-.2l-.2-.3a.1.1,0,0,0-.1-.1h-.1c.1,0,0,.1,0,.1h0c.1,0,.1,0,.1.1s-.1-.1-.1,0h0l.3.2h-.1c0,.1,0,.1.2.2h.2c0,.1.1,0,.2.1h0S14,4,14.1,3.9Z"/><path class="cls-4" d="M15.2,4.1h0l.3.2c.1,0,.1,0,.1.1h.2C15.6,3.9,15.2,4,15.2,4.1Z"/><path class="cls-4" d="M13.9,5.9h.2l.3-.2c0,.1,0,.1-.1.1h.4c0-.1.1,0,.2-.1h.3c0-.1.3-.2.5,0H16c.3,0,.3,0,.3.1h.1c.1-.1.1-.1.1-.2a.1.1,0,0,0,.1.1V5.7h.1a.3.3,0,0,1-.1-.2h-.7l.4-.2a.4.4,0,0,0-.5-.2H15c0-.2.3-.2.4-.1h.1c-.2-.1-.6-.1-.6.2s.5.2.8.1.4,0,.4.1H14.3c0,.1,0,.1-.1.1h0v.2c-.1,0-.1-.1-.1-.2h0c-.1.1.1.2.1.3h-.3Z"/><path class="cls-4" d="M14,4.9h0Z"/><path class="cls-4" d="M14.4,5.1h0c.1-.1,0-.1-.1-.1Z"/><path class="cls-4" d="M14.1,5.4h.1c.1,0,0,0,0,.1h0c.1,0,.1,0,.1-.1h.1V4.9H14v.2h0c0,.1,0,.1.1.2Z"/><path class="cls-4" d="M14.1,5.4h0c-.2,0-.2-.1-.3-.2l-.2-.3a.1.1,0,0,0-.1-.1h-.1l.3.2h-.1s0,.1.2.2h.4C14.2,5.6,14,5.5,14.1,5.4Z"/><path class="cls-4" d="M15.2,5.6h.5c.1-.1,0-.1,0-.1s-.1-.1,0-.2h0C15.5,5.4,15.2,5.5,15.2,5.6Z"/><path class="cls-4" d="M15.5,6.9h.3c.1-.1.2,0,.2.1h-.1c0-.1,0-.1.1-.1a.1.1,0,0,0-.1.1.1.1,0,0,0,.1-.1h0V7h.1V6.9h.1c-.1-.1-.1-.1-.1-.2h-.5l.3-.2c0-.1-.1-.2-.4-.1s-.5,0-.5-.1h-.1c0,.2.4.2.6.2h-1a.1.1,0,0,1-.1.1h0v0h-.1v.2H14a.1.1,0,0,0-.1-.1h0c0-.1,0,0,.1,0h.1s.3.1.3,0h0c0-.1.1-.1.1-.2h.6C15.1,6.8,15.4,6.7,15.5,6.9Z"/><path class="cls-4" d="M14.3,6.3c-.1,0-.1,0-.1.1h.1Z"/><path class="cls-4" d="M14.6,6.4h0c0-.1,0-.1-.1-.1A.1.1,0,0,0,14.6,6.4Z"/><path class="cls-4" d="M14.4,6.7h0a.1.1,0,0,1-.1-.1h.1a.1.1,0,0,0,.1-.1h.1a.1.1,0,0,1-.1-.1h-.3v.2h.1Z"/><path class="cls-4" d="M14.3,6.7h0c-.1,0-.1-.1-.2-.2s-.1-.1-.1-.2h-.2c.1.1.1.1,0,.1h.1l.2.2h.1c.1,0,.1.1,0,.1h.2Z"/><path class="cls-4" d="M15,7.1h.3c0-.1.1-.1.2-.1h0c.1-.1,0-.1,0-.1h0c-.1-.2-.4-.1-.4,0H15Z"/><path class="cls-5" d="M14.1,3.8c.1,0,.1,0,.1.1h0s.1-.1,0-.1H14s.1.1,0,.1h.1Z"/><path class="cls-5" d="M14.2,5.3h0c0-.1.1-.1,0-.1h-.1C14.1,5.3,14.1,5.3,14.2,5.3Z"/><path class="cls-5" d="M14.4,6.6h-.1a.1.1,0,0,0,.1.1Z"/><path class="cls-6" d="M13.4,3.3Z"/><path class="cls-6" d="M13.3,3.4h0a.1.1,0,0,0-.1.1c0-.1.1,0,.1,0h0S13.4,3.4,13.3,3.4Z"/><path class="cls-6" d="M13.3,3.6h0c0-.1-.1,0-.1,0Z"/><path class="cls-6" d="M13.4,4.1Z"/><path class="cls-6" d="M13.4,4.2h-.1s-.1,0,0,.1Z"/><path class="cls-6" d="M13.4,4.3h0c0,.1-.1.1,0,.2s0-.1.1-.1h-.1Z"/><path class="cls-6" d="M15.1,4.4H15s-.1.1,0,.1h.1Z"/><path class="cls-6" d="M15.1,4.5h0s-.1.1,0,.1h0Z"/><path class="cls-6" d="M15.1,4.3h0c-.1,0-.2.1-.1.1h.1Z"/><path class="cls-6" d="M16.2,4.4h0v.2h.1Z"/><path class="cls-6" d="M16.2,4.3Z"/><path class="cls-6" d="M16.3,4.5h-.1v.2a.1.1,0,0,1,.1-.1h0Z"/><path class="cls-6" d="M14.1,3.8h0v.2c.1,0,.1,0,.1-.2h0C14.2,3.8,14.2,3.8,14.1,3.8Z"/><path class="cls-6" d="M13.5,4.8h0a.1.1,0,0,0-.1.1h.1Z"/><path class="cls-6" d="M13.5,4.9Z"/><path class="cls-6" d="M13.4,5.1h0a.1.1,0,0,0-.1.1.1.1,0,0,1,.1-.1Z"/><path class="cls-6" d="M13.5,5.5Z"/><path class="cls-6" d="M13.5,5.6h0a.1.1,0,0,0-.1.1h.1Z"/><path class="cls-6" d="M13.6,5.7h-.1s-.1.1,0,.1h.1Z"/><path class="cls-6" d="M15,5.9h0c-.1,0-.1.1-.1.2Z"/><path class="cls-6" d="M15.1,5.9h0Z"/><path class="cls-6" d="M15,5.8Z"/><path class="cls-6" d="M16.1,5.9h0Z"/><path class="cls-6" d="M16.1,5.8H16s-.1,0,0,.1h.1Z"/><path class="cls-6" d="M16.1,6Z"/><path class="cls-6" d="M14.2,5.3c-.1,0-.1,0-.1.1h0c0,.1,0,.2.1.2V5.4h0Z"/><path class="cls-6" d="M13.9,6.2Z"/><path class="cls-6" d="M13.9,6.3h0c-.1,0-.1,0-.1.1h.1Z"/><path class="cls-6" d="M13.8,6.4h0C13.9,6.5,13.9,6.5,13.8,6.4Z"/><path class="cls-6" d="M13.9,6.8h0c-.1,0-.1,0-.1.1s.1,0,.1,0h0Z"/><path class="cls-6" d="M13.9,6.9Z"/><path class="cls-6" d="M13.9,7Z"/><path class="cls-6" d="M15,7.1h0c-.1,0-.1,0-.1.1a.1.1,0,0,1,.1-.1Z"/><path class="cls-6" d="M15.1,7.1h0Z"/><path class="cls-6" d="M15,7Z"/><path class="cls-6" d="M15.8,7.1h0a.1.1,0,0,0-.1.1c0-.1.1,0,.1-.1Z"/><path class="cls-6" d="M15.8,7Z"/><path class="cls-6" d="M15.8,7.1h0Z"/><path class="cls-6" d="M14.4,6.6h0v0h0Z"/></g></svg>