<svg id="Flags" xmlns="http://www.w3.org/2000/svg" viewBox="0 0 30 20"><defs><style>.cls-1{fill:none;}.cls-2{fill:#ec1c2e;}.cls-3{fill:#fff100;}.cls-4{fill:#00498f;}.cls-5{fill:#fff;}</style></defs><title>ki</title><polygon class="cls-1" points="30 2.5 30 10.4 30 11 30 11.9 30 13.3 30 14.8 30 16.3 30 17.5 30 17.5 30 13.3 30 6.7 30 2.5 30 2.5"/><path class="cls-2" d="M3.6,11c1.2-.5,1.8-.6,2.7-.1a3.9,3.9,0,0,0,3.5.1,3.8,3.8,0,0,1,2.1-.4v-.2l-1-.3h.8a1.2,1.2,0,0,1-.4-1,.8.8,0,0,0,.9.3l-.9-.7.9.3a.9.9,0,0,1-.1-1,.8.8,0,0,0,.7.5l-.5-.9.6.6c0-.3,0-.8.3-1a.8.8,0,0,0,.5.7l-.2-1,.4.8c.1-.4.3-.8.6-.9a1,1,0,0,0,.2.9l.2-1v.8a1.1,1.1,0,0,1,.9-.6.8.8,0,0,0-.1.9l.5-.9-.2.9c.3-.2.7-.5,1.1-.3a1,1,0,0,0-.5.8l.8-.7-.4.8a1.1,1.1,0,0,1,1.1.1c-.4.1-.7.3-.7.6l1-.4-.7.6c.3,0,.8.1.9.5a.7.7,0,0,0-.8.3h1l-.8.3.3.2.9.4a4.2,4.2,0,0,0,3.5,0,3.2,3.2,0,0,1,3-.1,3.4,3.4,0,0,0,2.6.1c.6-.2,1.1-.6,1.5-.6V2.5A2.5,2.5,0,0,0,27.5,0H2.5A2.5,2.5,0,0,0,0,2.5v8.1C.6,10.5,1.7,11.9,3.6,11Zm7.8-7.3c.5.2,1.2-.1,1.7-.2a2.3,2.3,0,0,1,1.2.1l.5.5h.1A1.4,1.4,0,0,1,16,3.5a7.9,7.9,0,0,1,2.1-.3c.2.1.3.1.3.2l-.3.2c0,.2-.2.3-.4.2s-.2.2-.4.2h-.1c0,.2-.1.2-.2.1s-.2.2-.2.1-.2.2-.3.1-.1.1-.3.1h-.4a.1.1,0,0,1-.1.1H16a4.8,4.8,0,0,1,1.2,0c.5.2.2.3-.4.3h-.1c.4,0,.5.1.4.2H16l-.4.3a1.8,1.8,0,0,1-1.7-.3c-.1-.1-.2-.3-.4-.3l-.4-.2h-.7c0-.3.4-.3.6-.3h.1c.2-.2.5-.1.7,0a.4.4,0,0,0,.4.2h.1a1.9,1.9,0,0,0-.7-.6,1.7,1.7,0,0,0-1,0H11.5C11.3,3.8,11.3,3.7,11.4,3.7Z"/><path class="cls-3" d="M12.3,9.4a.8.8,0,0,1-.9-.3,1.2,1.2,0,0,0,.4,1h1.3Z"/><path class="cls-3" d="M14.8,7.7a1,1,0,0,1-.2-.9c-.3.1-.5.5-.6.9l.6,1.1Z"/><path class="cls-3" d="M12.9,10.8l-.9-.4v.2A3,3,0,0,1,13,11v-.2Z"/><path class="cls-3" d="M13.8,7.9a.8.8,0,0,1-.5-.7c-.3.2-.3.7-.3,1L14,9Z"/><path class="cls-3" d="M17.6,9.1c0-.3.3-.5.7-.6a1.1,1.1,0,0,0-1.1-.1l-.6,1.1Z"/><path class="cls-3" d="M17.1,10.8H17a2.3,2.3,0,0,1,1.5-.3l-.3-.2Z"/><path class="cls-3" d="M12.9,8.5a.8.8,0,0,1-.7-.5.9.9,0,0,0,.1,1l1.1.5Z"/><path class="cls-3" d="M16.8,8.3a1,1,0,0,1,.5-.8c-.4-.2-.8.1-1.1.3L16,9Z"/><path class="cls-3" d="M15.9,7.8a.8.8,0,0,1,.1-.9,1.1,1.1,0,0,0-.9.6l.3,1.3Z"/><path class="cls-3" d="M18,10.1a.7.7,0,0,1,.8-.3c-.1-.4-.6-.5-.9-.5l-1,.8Z"/><path class="cls-3" d="M15,8.7a2.2,2.2,0,0,1,2.1,2.1l1.1-.4.8-.3H16.9l1-.8.7-.6-1,.4-1,.4.6-1.1.4-.8-.8.7L16,9l.2-1.2.2-.9-.5.9-.5,1-.3-1.3V6.7l-.2,1-.2,1.1L14,7.7l-.4-.8.2,1L14,9l-1-.8-.6-.6.5.9.5,1L12.3,9l-.9-.3.9.7.8.7H11l1,.3.9.4A2.3,2.3,0,0,1,15,8.7Z"/><path class="cls-3" d="M17.1,10.8A2.2,2.2,0,0,0,15,8.7a2.3,2.3,0,0,0-2.1,2.1h0V11h.1a3.4,3.4,0,0,0,3.4.1l.5-.3Z"/><path class="cls-4" d="M3.6,16.9a2.7,2.7,0,0,1,2.7-.2,4,4,0,0,0,3.5.2c1.8-.7,2.2-.6,3.3,0a3.4,3.4,0,0,0,3.4.1c1.4-.7,1.9-.7,2.9-.2a3.9,3.9,0,0,0,3.5.1,3,3,0,0,1,3-.2,3.5,3.5,0,0,0,2.6.2,4.2,4.2,0,0,1,1.5-.6V14.8c-.4,0-.9.4-1.5.6a3.4,3.4,0,0,1-2.6-.1,3.2,3.2,0,0,0-3,.1,3.9,3.9,0,0,1-3.5-.1c-1-.5-1.5-.5-2.9.3a3.5,3.5,0,0,1-3.4-.2c-1.1-.6-1.5-.7-3.3,0a3.9,3.9,0,0,1-3.5-.1c-.9-.5-1.5-.4-2.7.1S.6,14.8,0,15v1.4C.6,16.3,1.7,17.7,3.6,16.9Z"/><path class="cls-4" d="M3.6,13.9c1.2-.5,1.8-.6,2.7-.1a4.3,4.3,0,0,0,3.5.2c1.8-.7,2.2-.7,3.3,0a3.4,3.4,0,0,0,3.4.1c1.4-.8,1.9-.8,2.9-.2a4.3,4.3,0,0,0,3.5.1,3,3,0,0,1,3-.2,4.1,4.1,0,0,0,2.6.2l1.5-.7V11.9a4.2,4.2,0,0,0-1.5.6,3.5,3.5,0,0,1-2.6-.2,3.2,3.2,0,0,0-3,.2,3.9,3.9,0,0,1-3.5-.1c-1-.5-1.5-.5-2.9.2a3.2,3.2,0,0,1-3.4-.1c-1.1-.6-1.5-.7-3.3,0a3.9,3.9,0,0,1-3.5-.1,2.4,2.4,0,0,0-2.7.1c-1.9.9-3-.6-3.6-.5v1.5C.6,13.4,1.7,14.8,3.6,13.9Z"/><path class="cls-4" d="M25.9,18.2a3.2,3.2,0,0,0-3,.1,4.2,4.2,0,0,1-3.5,0c-1-.6-1.5-.6-2.9.2a3.4,3.4,0,0,1-3.4-.1c-1.1-.7-1.5-.8-3.3-.1a3.9,3.9,0,0,1-3.5-.1c-.9-.5-1.5-.4-2.7.1S.7,17.8,0,17.9A2.6,2.6,0,0,0,2.5,20h25A2.5,2.5,0,0,0,30,17.7l-1.5.6A3.4,3.4,0,0,1,25.9,18.2Z"/><path class="cls-3" d="M11.5,3.9h1.1a1.7,1.7,0,0,1,1,0,1.9,1.9,0,0,1,.7.6l.5-.5-.5-.5a2.3,2.3,0,0,0-1.2-.1c-.5.1-1.2.4-1.7.2S11.3,3.8,11.5,3.9Z"/><path class="cls-3" d="M16.6,5.3h.5c.1-.1,0-.2-.4-.2l-.7.3Z"/><path class="cls-3" d="M15.5,4.7h-.2c0,.1-.1.2-.2.1a.2.2,0,0,1-.3.1c0,.2-.1.2-.2.1s-.5-.2-.4-.3V4.6a.4.4,0,0,1-.4-.2c-.2-.1-.5-.2-.7,0H13c-.2,0-.6,0-.6.3h.7l.4.2c.2,0,.3.2.4.3a1.8,1.8,0,0,0,1.7.3l.4-.3.7-.3h.1c.6,0,.9-.1.4-.3a4.8,4.8,0,0,0-1.2,0h-.5Zm-2.2,0c-.1,0-.1-.2,0-.2S13.4,4.7,13.3,4.7Z"/><path class="cls-3" d="M14.3,4.6h-.1v.2c-.1.1.3.3.4.3s.2.1.2-.1a.2.2,0,0,0,.3-.1c.1.1.2,0,.2-.1h.4a.1.1,0,0,0,.1-.1h.4c.2,0,.3,0,.3-.1s.2,0,.3-.1.1.1.2-.1.2.1.2-.1h.1c.2,0,.4,0,.4-.2h0c.2.1.4,0,.4-.2h0l.3-.2c0-.1-.1-.1-.3-.2a7.9,7.9,0,0,0-2.1.3,1.4,1.4,0,0,0-1.1.5h-.1Z"/><path d="M13.3,4.5c-.1,0-.1.2,0,.2S13.4,4.5,13.3,4.5Z"/><path class="cls-3" d="M18.1,3.6h0Z"/><path class="cls-3" d="M17.7,3.8h0Z"/><path class="cls-3" d="M17.3,4h0Z"/><path class="cls-5" d="M3.6,12.5a2.4,2.4,0,0,1,2.7-.1,3.9,3.9,0,0,0,3.5.1c1.8-.7,2.2-.6,3.3,0a3.2,3.2,0,0,0,3.4.1c1.4-.7,1.9-.7,2.9-.2a3.9,3.9,0,0,0,3.5.1,3.2,3.2,0,0,1,3-.2,3.5,3.5,0,0,0,2.6.2,4.2,4.2,0,0,1,1.5-.6V10.4c-.4,0-.9.4-1.5.6a3.4,3.4,0,0,1-2.6-.1,3.2,3.2,0,0,0-3,.1,4.2,4.2,0,0,1-3.5,0l-.9-.4a2.3,2.3,0,0,0-1.5.3l-.5.3a3.4,3.4,0,0,1-3.4-.1H13a3,3,0,0,0-1.1-.4,3.8,3.8,0,0,0-2.1.4,3.9,3.9,0,0,1-3.5-.1c-.9-.5-1.5-.4-2.7.1s-3-.5-3.6-.4V12C.6,11.9,1.7,13.4,3.6,12.5Z"/><path class="cls-5" d="M3.6,15.4c1.2-.5,1.8-.6,2.7-.1a3.9,3.9,0,0,0,3.5.1c1.8-.7,2.2-.6,3.3,0a3.5,3.5,0,0,0,3.4.2c1.4-.8,1.9-.8,2.9-.3a3.9,3.9,0,0,0,3.5.1,3.2,3.2,0,0,1,3-.1,3.4,3.4,0,0,0,2.6.1c.6-.2,1.1-.6,1.5-.6V13.3l-1.5.7a4.1,4.1,0,0,1-2.6-.2,3,3,0,0,0-3,.2,4.3,4.3,0,0,1-3.5-.1c-1-.6-1.5-.6-2.9.2a3.4,3.4,0,0,1-3.4-.1c-1.1-.7-1.5-.7-3.3,0a4.3,4.3,0,0,1-3.5-.2c-.9-.5-1.5-.4-2.7.1s-3-.5-3.6-.4V15C.6,14.8,1.7,16.3,3.6,15.4Z"/><path class="cls-5" d="M28.5,16.9a3.5,3.5,0,0,1-2.6-.2,3,3,0,0,0-3,.2,3.9,3.9,0,0,1-3.5-.1c-1-.5-1.5-.5-2.9.2a3.4,3.4,0,0,1-3.4-.1c-1.1-.6-1.5-.7-3.3,0a4,4,0,0,1-3.5-.2,2.7,2.7,0,0,0-2.7.2c-1.9.8-3-.6-3.6-.5v1.5c.7-.1,1.7,1.3,3.6.4s1.8-.6,2.7-.1a3.9,3.9,0,0,0,3.5.1c1.8-.7,2.2-.6,3.3.1a3.4,3.4,0,0,0,3.4.1c1.4-.8,1.9-.8,2.9-.2a4.2,4.2,0,0,0,3.5,0,3.2,3.2,0,0,1,3-.1,3.4,3.4,0,0,0,2.6.1l1.5-.6V16.3A4.2,4.2,0,0,0,28.5,16.9Z"/></svg>