<svg xmlns="http://www.w3.org/2000/svg" viewBox="0 0 30 20"><defs><style>.cls-1{fill:#21205f;}.cls-2{fill:#fff;}.cls-3{fill:#cb2026;}.cls-4{fill:#fec60c;}.cls-5{fill:#214193;}.cls-6{fill:#0f5229;}.cls-7{fill:#010101;}.cls-8{fill:#0c1c11;}.cls-9{fill:#d42027;}.cls-10{fill:#fddc59;}.cls-11{fill:#2064b0;}.cls-12{fill:#fbc410;}.cls-13{fill:#0f1137;}.cls-14{fill:#0c301c;}</style></defs><title>ky</title><g id="Layer_67" data-name="Layer 67"><path class="cls-1" d="M27.4,0H15V7.5H0v10A2.5,2.5,0,0,0,2.5,20H27.4A2.5,2.5,0,0,0,30,17.5V2.5A2.5,2.5,0,0,0,27.4,0Zm-1,10c0,.1-.2.7-.2.9l-.6.3-.7-.2a3.9,3.9,0,0,1-2.4.9A3.4,3.4,0,0,1,20,11a.9.9,0,0,1-.6.2l-.7-.3a6.9,6.9,0,0,0-.3-.8V9.8a.4.4,0,0,1,.5,0c.1.1.2.4.4.4l-.2-.3c-.1-.1,0-.2,0-.4l.7-.5a.4.4,0,0,1,.4-.1,5.6,5.6,0,0,1-.1-.7,24.2,24.2,0,0,1,0-2.7H21V5.2l.2-.2V4.7c-.1-.1.1-.2,0-.3h-.3c-.1,0-.1-.2-.1-.2h-.1V4a.2.2,0,0,1,.2-.2H21a.5.5,0,0,1,.3.3h.2l-.4-.3V3.2h.3l-.2-.3h.5V2.5l.6.3h.1a4.3,4.3,0,0,0,.1-.5l.2.3h.6v.2h.7s0,.3-.1.3.3,0,.3.1-.3.3-.3.4.4,0,.5,0l-.8.5.4.3c.1,0,.3,0,.3.2s-.3.2-.3.2.1.2.2.3,0,.4,0,.5h.7a26,26,0,0,1,0,2.8c.1.3,0,.5-.1.5h.2l.5.3.4.3c.1,0,.1.2.1.3s-.1.3-.2.4l.2-.2.2-.3h.3C26.4,9.7,26.4,9.9,26.4,10Z"/><path class="cls-1" d="M23.4,10.6l-.8.4.8-.2c.2,0,.7-.4.8-.4l-.2-.3Z"/><polygon class="cls-1" points="13.3 0 8.7 0 8.7 2.3 13.3 0"/><path class="cls-1" d="M.4,1.1A3.3,3.3,0,0,0,0,2.5H3.2Z"/><path class="cls-1" d="M6.2,0H1.8L6.2,2.3Z"/><polygon class="cls-1" points="1.6 7.5 6.2 7.5 6.2 5.2 1.6 7.5"/><polygon class="cls-1" points="8.7 7.5 13.3 7.5 8.7 5.2 8.7 7.5"/><polygon class="cls-1" points="0 5 0 6.6 3.2 5 0 5"/><polygon class="cls-1" points="15 6.7 15 5 11.7 5 15 6.7"/><polygon class="cls-1" points="15 2.5 15 0.8 11.7 2.5 15 2.5"/><polygon class="cls-2" points="8.7 2.5 8.8 2.5 13.8 0 13.3 0 8.7 2.3 8.7 2.5"/><path class="cls-2" d="M6.2,2.5V2.3L1.8.1A2,2,0,0,0,1,.5l3.9,2Z"/><polygon class="cls-2" points="11.7 2.5 15 0.8 15 0 15 0 10 2.5 11.7 2.5"/><polygon class="cls-2" points="3.2 5 0 6.6 0 7.4 4.9 5 3.2 5"/><polygon class="cls-2" points="6.2 5 6 5 1 7.5 1.6 7.5 6.2 5.2 6.2 5"/><polygon class="cls-2" points="11.1 5 15 6.9 15 6.7 11.7 5 11.1 5"/><polygon class="cls-2" points="8.7 5 8.7 5.2 13.3 7.5 15 7.5 10 5 8.7 5"/><path class="cls-2" d="M3.8,2.5.6.9l-.2.2L3.2,2.5Z"/><polygon class="cls-2" points="8.2 3 15 3 15 2.5 11.7 2.5 10 2.5 8.8 2.5 8.7 2.5 8.7 2.3 8.7 0 8.2 0 8.2 3"/><polygon class="cls-2" points="8.2 4.5 8.2 7.5 8.7 7.5 8.7 5.2 8.7 5 10 5 11.1 5 11.7 5 15 5 15 4.5 8.2 4.5"/><polygon class="cls-2" points="4.9 5 6 5 6.2 5 6.2 5.2 6.2 7.5 6.7 7.5 6.7 4.5 0 4.5 0 5 3.2 5 4.9 5"/><path class="cls-2" d="M6.7,3V0H6.2V2.5H0V3Z"/><polygon class="cls-3" points="6.7 4.5 6.7 7.5 8.2 7.5 8.2 4.5 15 4.5 15 3 8.2 3 8.2 0 6.7 0 6.7 3 0 3 0 4.5 6.7 4.5"/><polygon class="cls-3" points="6 5 4.9 5 0 7.4 0 7.5 1 7.5 6 5"/><polygon class="cls-3" points="10 2.5 15 0 13.8 0 8.8 2.5 10 2.5"/><polygon class="cls-3" points="10 5 15 7.5 15 6.9 11.1 5 10 5"/><path class="cls-3" d="M4.9,2.5,1,.5.6.9,3.8,2.5Z"/><path class="cls-2" d="M22.6,3.7Z"/><path class="cls-2" d="M22.7,3.3Z"/><path class="cls-2" d="M23,4h0Z"/><polygon class="cls-2" points="22.4 3.7 22.4 3.7 22.4 3.7 22.4 3.7"/><path class="cls-2" d="M22.4,3.9Z"/><polygon class="cls-2" points="22.6 3.9 22.6 3.9 22.6 3.9 22.6 3.9"/><polygon class="cls-2" points="22.4 3.4 22.4 3.4 22.4 3.4 22.4 3.4"/><path class="cls-2" d="M22.8,3.9Z"/><path class="cls-2" d="M23.4,10.4h0l-.3.2-.7.3-.7-.3h-.3l-.6-.5-.3.5a2.9,2.9,0,0,0,3.8,0l-.4-.5A1.2,1.2,0,0,1,23.4,10.4Zm.8,0c-.1,0-.6.4-.8.4l-.8.2.8-.4.6-.5Z"/><path class="cls-2" d="M21.8,3.9h0Z"/><path class="cls-2" d="M22.4,3.1h-.2c0,.1,0,.1.1.1Z"/><path class="cls-2" d="M26.3,9.7H26l-.2.3-.2.2c.1-.1.1-.3.2-.4s0-.3-.1-.3l-.4-.3-.5-.3h-.2c.1,0,.2-.2.1-.5a26,26,0,0,0,0-2.8H24c0-.1.1-.3,0-.5s-.3-.2-.2-.3.4-.1.3-.2-.2-.2-.3-.2L23.4,4l.8-.5c-.1,0-.4-.1-.5,0s.4-.4.3-.4-.4-.1-.3-.1.1-.3.1-.3h-.7V2.5h-.6l-.2-.3a4.3,4.3,0,0,1-.1.5h-.1l-.6-.3v.3h-.5l.2.3H21v.4l.4.3h-.2a.5.5,0,0,0-.3-.3h-.3a.2.2,0,0,0-.2.2v.3h.1s0,.2.1.2H21c.1.1-.1.2,0,.3V5l-.2.2v.2h-.9a24.2,24.2,0,0,0,0,2.7,5.6,5.6,0,0,0,.1.7.4.4,0,0,0-.4.1l-.7.5c0,.2-.1.3,0,.4l.2.3c-.2,0-.3-.3-.4-.4a.4.4,0,0,0-.5,0v.3a6.9,6.9,0,0,1,.3.8l.7.3A.9.9,0,0,0,20,11a3.4,3.4,0,0,0,2.5.9,3.9,3.9,0,0,0,2.4-.9l.7.2.6-.3c0-.2.2-.8.2-.9S26.4,9.7,26.3,9.7Zm-.1.4-.2.6h0a.7.7,0,0,1-.6.3h-.6a4.4,4.4,0,0,1-2.5.9,3.3,3.3,0,0,1-2.3-1l-.7.2a.5.5,0,0,1-.5-.2h-.1v-.2c-.1-.1-.1-.3-.2-.4s0-.4.1-.4.2-.1.3.2v.2h.5c-.3-.4-.4-.6-.4-.7l.6-.4h0c.1-.1.2-.3.4-.3h.2a.9.9,0,0,1-.1-.5h-.1V5.6h3.5V5.1h-.1s0-.2-.1-.2h-.4c0,.1.1.2.1.3v.2h-.5c-.1,0-.2-.2-.2-.4H22l.2.3h-.4c-.2,0-.3-.3-.4-.5a.3.3,0,0,1-.3-.3.3.3,0,0,1,.1-.2h0a.1.1,0,0,0-.1-.1h-.3a.3.3,0,0,1-.1-.2h-.1c.1-.1.2,0,.2-.1H21c.1-.1.2.1.3.1h.3a.1.1,0,0,0,.1-.1h0l-.2-.2-.3-.2h.3l.3.2h-.1a1.1,1.1,0,0,0-.6-.4l.6.2a2.3,2.3,0,0,0-.5-.5l.6.2h0l-.2-.4.4.3c0,.1.1.1.1.2V3.2l-.4-.5.4.2c0,.1.1.1.1.2a.1.1,0,0,0,.1-.1h.1v0s.1-.3.2-.3v.2l.3-.2-.3.4.3-.2V3h0c.1-.1.2-.3.3-.3h0c-.1,0-.1.2-.1.3s0-.1.1-.1l.3-.2h0l-.4.5v.2l.2-.3.6-.3h0l-.6.6c0,.1-.1.2-.2.3s.3-.3.4-.4l.5-.2-.5.5H24l-.5.3-.3.2h.2l.3.2h.4l-.3.2c0,.1-.1,0-.1,0a.1.1,0,0,1-.1.1l.3.3c.1.1,0,.3,0,.3h0v.2h.8V8.3h0a.9.9,0,0,1-.1.5h.1c.2,0,.3.1.3.2h0s.7.4.8.7a1.5,1.5,0,0,1-.3.6c.3,0,.4-.2.4-.3s.2-.3.3-.3S26.2,10,26.2,10.1Z"/><path class="cls-2" d="M24.6,9.7h0V10h.1Z"/><path class="cls-2" d="M22.4,3.2Z"/><path class="cls-2" d="M22.7,3.1Z"/><path class="cls-2" d="M20,9.7a.5.5,0,0,1-.1.3H20l.2-.2Z"/><path class="cls-4" d="M21.9,3.9h-.1l-.3-.2h-.3l.3.2.2.2h.2Z"/><path class="cls-4" d="M21.2,3.5Z"/><path class="cls-4" d="M21.9,3.9H22l-.3-.4h0l-.6-.2a1.1,1.1,0,0,1,.6.4h.2Z"/><path class="cls-4" d="M23,3c0-.1,0-.3.1-.3s-.2.2-.3.3h.1C22.9,3,22.9,3,23,3Z"/><path class="cls-4" d="M22.7,3.1Z"/><path class="cls-4" d="M22.7,3.3h0Z"/><path class="cls-4" d="M23.1,2.7h0Z"/><polygon class="cls-4" points="22.4 3.9 22.4 3.9 22.4 3.9 22.4 3.9"/><path class="cls-4" d="M22.2,3.8h0Z"/><path class="cls-4" d="M22,3.9h.1a.1.1,0,0,0-.1-.1h0l-.2-.4h0L21.2,3a2.3,2.3,0,0,1,.5.5h0Z"/><path class="cls-4" d="M22,3.8h.1c0-.1-.1-.1-.1-.2l-.4-.3.2.4h0Z"/><path class="cls-4" d="M22.3,3.6Z"/><path class="cls-4" d="M22.2,3.5h0c0-.1,0-.2.1-.2h0c-.1,0-.1,0-.1-.1a.1.1,0,0,0-.1.1.1.1,0,0,1,.1-.1c0-.1-.1-.1-.1-.2l-.4-.2.4.5v.2h.1Z"/><path class="cls-4" d="M23,4h.2l.3-.2.5-.3h-.7Z"/><polygon class="cls-4" points="22.8 3.9 22.8 3.9 22.8 3.9 22.8 3.9"/><path class="cls-4" d="M23.1,3.8A.3.3,0,0,1,23,4h0l.3-.3h.1l.5-.5-.5.2c-.1.1-.2.3-.4.4h.1Z"/><path class="cls-4" d="M23,3.6h0c.1-.1.2-.2.2-.3l.6-.6-.6.3-.2.3h-.1C23,3.5,23,3.5,23,3.6Z"/><path class="cls-4" d="M23.8,2.8Z"/><path class="cls-4" d="M23.4,2.7Z"/><path class="cls-4" d="M22.7,3.3Z"/><path class="cls-4" d="M23,3.1h-.2c.1,0,.1,0,.1.1H23V3.2l.4-.5-.3.2c-.1,0-.1,0-.1.1s-.1,0-.1.1Z"/><path class="cls-4" d="M22.6,3.3h0Z"/><path class="cls-4" d="M22.7,3.1h0Z"/><path class="cls-4" d="M22.7,3.3h.2c0-.1,0-.1-.1-.1h-.1Z"/><path class="cls-4" d="M22.4,3.4h0c0-.1,0-.1.1-.1h-.2A.1.1,0,0,1,22.4,3.4Z"/><path class="cls-4" d="M22.6,3.6h0a.1.1,0,0,1,.1-.1h0c0-.1,0-.1.1-.2h-.2Z"/><path class="cls-4" d="M22.3,3.6h0c0-.1.1-.1.1-.2h0a.1.1,0,0,0-.1-.1h0c-.1,0-.1.1-.1.2A.1.1,0,0,1,22.3,3.6Z"/><path class="cls-4" d="M22.2,3.7a.1.1,0,0,1,.1-.1h0a.1.1,0,0,0-.1-.1h0Z"/><path class="cls-4" d="M22.8,3.4h0c-.1.1-.1.1-.1.2h0c.1,0,.1,0,.1.1a.1.1,0,0,0,.1-.1H23c0-.1,0-.1-.1-.1h-.1Z"/><path class="cls-4" d="M22.4,3.4h.1C22.4,3.3,22.4,3.3,22.4,3.4Z"/><path class="cls-4" d="M22.6,3.7h0V3.4h-.2c0,.1-.1.1-.1.2h0a.1.1,0,0,1,.1.1h.2Z"/><path class="cls-4" d="M23,4a.3.3,0,0,0,.1-.2h-.2a.1.1,0,0,1-.1.1h0c.1,0,.1,0,.1.1H23Z"/><path class="cls-4" d="M22.2,3.8H22a.1.1,0,0,1,.1.1h.1Z"/><path class="cls-4" d="M22.7,3.6h0a.1.1,0,0,0-.1.1h.2C22.8,3.6,22.8,3.6,22.7,3.6Z"/><path class="cls-4" d="M22.3,3.6h0a.1.1,0,0,0-.1.1h.2A.1.1,0,0,0,22.3,3.6Z"/><path class="cls-4" d="M22.6,3.9h-.2C22.5,3.8,22.5,3.8,22.6,3.9Z"/><path class="cls-4" d="M22.1,3Z"/><path class="cls-4" d="M22.1,3.2a.1.1,0,0,1,.1-.1h.6V2.8l-.3.2.3-.4-.3.2V2.6c-.1,0-.2.3-.2.3v0h-.1a.1.1,0,0,1-.1.1A.1.1,0,0,0,22.1,3.2Z"/><path class="cls-5" d="M21.4,5c.1.2.2.5.4.5h.4L22,5.1h-.6Z"/><path class="cls-5" d="M22.6,5h-.2c0,.2.1.4.2.4h.5V5.2c0-.1-.1-.2-.1-.3Z"/><path class="cls-5" d="M23.9,5.4h-.4v.5h.2Z"/><path class="cls-6" d="M21.5,4.5a.3.3,0,0,1-.1-.2h-.2a.3.3,0,0,0-.1.2.3.3,0,0,0,.3.3h.5Z"/><path class="cls-6" d="M23.9,5.3h0s.1-.2,0-.3l-.3-.3h-.2a.1.1,0,0,1-.1.1c.1,0,.1.2.1.2h.5Z"/><path class="cls-6" d="M23.7,4.6s.1.1.1,0l.3-.2h-.4Z"/><path class="cls-6" d="M23.6,4.7a.1.1,0,0,0,.1-.1h-.2l-.2-.2L23,4h-.4L22.4,4H21.3c-.1,0-.2-.2-.3-.1h-.2c0,.1-.1,0-.2.1h.1a.3.3,0,0,0,.1.2h.3a.1.1,0,0,1,.1.1h.2a.3.3,0,0,0,.1.2l.4.3h1.4a.1.1,0,0,0,.1-.1Zm-2.7-.6Zm1.3.1h.3c.1.1,0,.5,0,.5h-.3Zm-.6,0h.5v.4h-.2l-.3-.2Zm1.5.4c0,.1-.5.2-.5.1s0-.4.1-.4h.1C22.9,4.2,23.1,4.6,23.1,4.6Zm.1,0c-.1,0-.3-.5-.3-.5l.3.2.3.2Z"/><path class="cls-6" d="M20.8,4.1h0Z"/><path class="cls-7" d="M20.9,4Z"/><path class="cls-8" d="M21.8,4h-.1a.1.1,0,0,1-.1.1h.2Z"/><path class="cls-8" d="M22.4,3.9Z"/><path class="cls-8" d="M22.8,3.9h-.2c-.1-.1-.1-.1-.2,0h0l.2.2h.3C22.9,3.9,22.9,3.9,22.8,3.9Z"/><path class="cls-8" d="M23,4h0l.3.2.2.2h.2l-.3-.2H23Z"/><path class="cls-8" d="M23.5,4.5l-.3-.2-.3-.2s.2.5.3.5Z"/><path class="cls-8" d="M22.8,4.2h-.1c-.1,0-.1.4-.1.4s.5,0,.5-.1S22.9,4.2,22.8,4.2Z"/><path class="cls-8" d="M22.5,4.7s.1-.4,0-.5h-.3v.5Z"/><path class="cls-8" d="M21.9,4.5h.2V4.2h-.5Z"/><path class="cls-9" d="M19.6,9.5l.3.5a.5.5,0,0,0,.1-.3h.2c0-.1.1-.2.1-.3V9h-.2c-.2,0-.3.2-.4.3A.4.4,0,0,0,19.6,9.5Z"/><path class="cls-9" d="M24.6,9.8h0l.2.2a1,1,0,0,0,.2-.5c.1-.2,0-.3-.1-.3s-.1-.2-.3-.2h-.1l-.2.5Z"/><path class="cls-10" d="M25.9,10.6h-.4c.1,0,.2-.3.3-.6s-.1.3-.4.3l-.6.6h.6a.7.7,0,0,0,.6-.3h-.1Z"/><path class="cls-10" d="M24.3,9.4h0c-.1.1-.2.3-.4.4l.4.5c.2-.1.3-.3.4-.4V9.8Z"/><path class="cls-10" d="M19.5,10.3H19l.2.4h-.4a.5.5,0,0,0,.5.2l.7-.2Z"/><path class="cls-10" d="M18.7,10.7h0v.2h0Z"/><path class="cls-10" d="M20.5,9.5h0v0c0,.1-.1.2-.1.3L20,10l.5.4.3-.5Z"/><path class="cls-10" d="M23.6,11.1h.1a.1.1,0,0,0-.1-.1Z"/><path class="cls-10" d="M21.8,11.2h-.1v.3h.1Z"/><polygon class="cls-10" points="25.2 10 25.1 9.9 25.2 10 25.2 10"/><path class="cls-10" d="M21,11h0Z"/><path class="cls-10" d="M23.4,11.1h-.1v.2h.1Z"/><path class="cls-10" d="M22.3,11.3h-.1v.2h.1Z"/><path class="cls-10" d="M25.4,10.3a1.5,1.5,0,0,0,.3-.6c-.1-.3-.8-.7-.8-.7h0c.1,0,.2.1.1.3a1,1,0,0,1-.2.5h-.1c-.1.1-.2.3-.4.4a2.9,2.9,0,0,1-3.8,0L20,10h-.1l-.3-.5a.4.4,0,0,1,.1-.3h0l-.6.4c0,.1.1.3.4.7l.5.5a3.3,3.3,0,0,0,2.3,1,4.4,4.4,0,0,0,2.5-.9Zm-6.1-.4h.4l-.3.2Zm.4-.1V10h-.3v.2h0V10Zm0,.7h-.1l.3-.2H20l-.2.2Zm.2,0h-.1l.3-.3h.1l-.2.3h-.1Zm.1.3.2-.3h0l.2.2h-.1l-.2.2Zm.3.2h0V11h-.1l.2-.3h0v.2h.2l-.2.4Zm.4,0v.2h0v-.3h0Zm.3.3Zm.3.1h-.2V11h.1v.3h.1V11h.1v.2Zm.2.1v0h-.1v-.4h.1v0h0v.4Zm.4-.2v.2h-.2v-.4h.2Zm.2,0h-.2v-.4h.2Zm.2.2h-.2v-.4h.2ZM25.4,10h-.1L25,9.9h0l.4.2Zm-.2-.4h.2c.1,0,.1,0,.1.1h-.3c-.1,0-.1,0-.1-.1h.1Zm-2.7,2v-.4h.1v.4Zm.3,0h-.1v-.3h0Zm.4-.1H23v-.2H23v.3h0v-.3h.1v.3h0Zm.2-.3h-.1v.2h-.1v-.4h.2Zm.3.1h0Zm.3,0-.2-.3v.3h-.1V11h0l.2.2v-.2h.1v.3Zm.2-.2v-.3h.1v.3Zm.3-.2h-.1V11h-.1l-.2-.3h.1v.2h.1l.2.4Zm.1-.1-.2-.3h.2Zm.4-.3h0Zm-.2-.4h.4v.2Z"/><polygon class="cls-10" points="20.1 10.4 20 10.5 20 10.6 20.1 10.4"/><path class="cls-9" d="M26.1,9.7q-.2,0-.3.3c-.1.3-.2.6-.3.6H26l.2-.6C26.2,10,26.3,9.8,26.1,9.7Z"/><path class="cls-9" d="M18.7,10.8h0Z"/><path class="cls-9" d="M18.7,10.8h0Z"/><path class="cls-9" d="M18.8,10.6h.4l-.2-.4V10c-.1-.3-.2-.2-.3-.2s-.1.2-.1.4.1.3.2.4h.1Z"/><path class="cls-2" d="M22.7,10.3l-.3-.2-.2.2h.5Z"/><path class="cls-2" d="M21.8,9.5h0Z"/><path class="cls-2" d="M23.4,10.5l-.3.2Z"/><path class="cls-2" d="M24.3,8.4l-.4.3v.4l.3-.2h.2a.9.9,0,0,0,.1-.5Z"/><polygon class="cls-2" points="23 9.5 23 9.5 23 9.5 23 9.5"/><path class="cls-2" d="M20.9,9.2c0,.1.1.1.2.1s.3-.2.4-.3h-.2Z"/><path class="cls-2" d="M20.8,9.2l.2-.5c-.2-.1-.3-.3-.5-.3h-.3a.9.9,0,0,0,.1.5h.2C20.7,8.9,20.7,9.1,20.8,9.2Z"/><path class="cls-2" d="M21.1,8.2h.1V8l.4-.2c.3,0,.3.4.6.4s.3-.4.6-.4a.5.5,0,0,1,.4.2V7.7l.2.5c.3,0,.3-.4.6-.4h.3V7.2h-.3c-.3,0-.3.4-.6.4s-.3-.4-.7-.4-.3.4-.6.4-.3-.4-.6-.4-.4.4-.7.4-.3-.3-.6-.4h-.3v.5h.4C20.8,7.8,20.8,8.2,21.1,8.2Z"/><path class="cls-2" d="M21.5,10.6h0Z"/><path class="cls-2" d="M23.3,9c.1.2.2.3.4.3H24l-.5-.3Z"/><path class="cls-2" d="M22.8,10.1H23a.4.4,0,0,1,.4.4,1.2,1.2,0,0,0,.5-.5c.2-.1.3-.3.4-.4s-.3.3-.6.4-.3-.3-.5-.4l-.4.4Z"/><path class="cls-2" d="M21.7,10.7h0Z"/><path class="cls-2" d="M21.4,10.4h0a.4.4,0,0,1,.4-.4H22V9.9l-.5-.4c-.2.1-.2.4-.5.4s-.3-.3-.6-.4l.3.4Z"/><path class="cls-2" d="M22.6,9.3c.1-.1.2-.4.4-.4h.1V8.7l-.4-.3c-.1.1-.2.3-.4.3L22,8.5l-.3.2v.2c.2,0,.3.3.5.4V8.9Z"/><path class="cls-9" d="M20.5,7.2c.3.1.3.4.6.4s.3-.4.7-.4.3.4.6.4.3-.4.6-.4.4.4.7.4.3-.4.6-.4h.3V5.6H20.1V7.3Zm.4-1.4.2.2h-.2Zm-.4,1a.1.1,0,0,1,.1.1h.9s-.2.1-.2,0h-.5l-.2-.2h.1s-.2-.1-.1-.1h.2V5.9h.4a.2.2,0,0,0-.2.2l.4.4h0c0-.2.1-.2.1-.2s.1-.2.1-.2H22v.2h1.6c.2,0,.3-.1.3-.2s-.3-.1-.4-.1a1.1,1.1,0,0,1-.8.2.5.5,0,0,1-.4-.2c0-.1.1-.2.3-.2h1.2l-.4.2h-.9c0,.1.1.1.2.1h.9c.2,0,.5.1.5.2s-.1.2-.3.2h.5v.2h.1s-.1.1,0,.1H24s.1-.1,0-.1h-.1a.1.1,0,0,0,.1-.1l-.3-.2H22.5c-.1,0,0-.1,0-.1H23s-.2-.1-.2-.2l-.7.2H22V7H20.5Z"/><path class="cls-9" d="M21.7,6.6Z"/><path class="cls-9" d="M21.3,6.5h0Z"/><path class="cls-11" d="M21,8.7h0l-.5-.4h.6c-.3,0-.3-.4-.6-.4h-.4v.5h.4C20.7,8.4,20.8,8.6,21,8.7Z"/><path class="cls-11" d="M23.7,8.2h.9V7.8h-.3C24,7.8,24,8.2,23.7,8.2Z"/><path class="cls-11" d="M22.2,8.3l-.2.2.4.2c.2,0,.3-.2.4-.3h.5V8a.5.5,0,0,0-.4-.2c-.3,0-.3.4-.6.4s-.3-.4-.6-.4l-.4.2.2.3Z"/><path class="cls-11" d="M20.5,9.5h0c.3.1.3.4.6.4s.3-.3.5-.4h.6V9.3c-.2-.1-.3-.4-.5-.4v.3L21.5,9c-.1.1-.2.3-.4.3s-.2,0-.2-.1h-.1c-.1-.1-.1-.3-.3-.3h-.2v.5Z"/><path class="cls-11" d="M24,9.1h-.3c-.2,0-.3-.1-.4-.3l-.3.2V8.9H23c-.2,0-.3.3-.4.4v.2h.6c.2.1.2.3.5.4s.3-.4.6-.4h0l.2-.5h-.2Z"/><path class="cls-11" d="M23,10h-.2l.2.4-.3-.2h-.5l-.3.2v-.4h-.2a.4.4,0,0,0-.4.4h.3l.7.3.7-.3.3-.2h0A.4.4,0,0,0,23,10Z"/><path class="cls-12" d="M20.6,6.9H22V6.8H20.6a.1.1,0,0,0-.1-.1h.1Z"/><path class="cls-12" d="M21.1,6Z"/><path class="cls-12" d="M21.5,6.6h-.1a.1.1,0,0,1-.1-.1h0l-.4-.4a.2.2,0,0,1,.2-.2h-.4v.2h-.2c-.1,0,.1.1.1.1h-.1l.2.2h.5c0,.1.2,0,.2,0h0Z"/><path class="cls-7" d="M23.9,7h0Z"/><path class="cls-7" d="M24,7.1h0Z"/><path class="cls-7" d="M24.3,7.1Z"/><path class="cls-7" d="M22.3,7h0Z"/><path class="cls-7" d="M22.5,7s-.1.1,0,.1h0Z"/><path class="cls-7" d="M22.5,6.8Z"/><polygon class="cls-7" points="20.7 6.8 20.7 6.7 20.5 6.7 20.6 6.8 20.6 6.8 20.7 6.8"/><path class="cls-7" d="M20.3,6.9h0Z"/><path class="cls-7" d="M20.6,7Z"/><path class="cls-7" d="M20.7,6h0Z"/><path class="cls-7" d="M20.9,5.9Z"/><path class="cls-7" d="M20.9,5.8h.2Z"/><path class="cls-12" d="M22.9,6.6h-.1c0,.1.2.2.2.2h-.1Z"/><path class="cls-12" d="M22.1,6.6H22c0,.1-.1,0-.1,0h0s.1,0,0,.1h-.1c-.1,0-.1,0-.1-.1h.4l.7-.2h.9l.3.2a.1.1,0,0,1-.1.1H24c.1,0,0,.1,0,.1h.3c-.1,0,0-.1,0-.1h-.1V6.5h-.5c.2,0,.3-.1.3-.2s-.3-.2-.5-.2h-.9c-.1,0-.2,0-.2-.1h.9l.4-.2H22.6c-.2,0-.3.1-.3.2a.5.5,0,0,0,.4.2,1.1,1.1,0,0,0,.8-.2c.1,0,.4,0,.4.1s-.1.2-.3.2H22Z"/><path class="cls-12" d="M21.7,6.8h0c0,.1,0,.1.1.1h.1c.1-.1,0-.1,0-.1h0s.1.1.1,0h.1V6.4h0V6.2h-.5s0,.2-.1.2-.1,0-.1.2h0a.1.1,0,0,0,.1.1h.3Zm.1-.8h0C21.7,6.1,21.8,6,21.8,6Zm-.1.5V6.3h.1Zm-.1-.4h0Z"/><path class="cls-7" d="M21.7,6.1h0Z"/><path class="cls-7" d="M21.8,6.1h0s-.1.1,0,.1Z"/><path class="cls-13" d="M21.6,6.3v0Z"/><path class="cls-12" d="M22,10.1v.4l.3-.2.2-.2.3.2.3.2-.2-.4V9.9l.4-.4h-.6V9.3l-.2-.4v.6h-.6l.5.4Zm-.3-.6h.5l.2-.5.2.5h.6l-.5.3.2.5-.5-.3-.4.3V9.8Z"/><polygon class="cls-14" points="22 10.3 22.4 10 22.9 10.3 22.7 9.8 23.2 9.5 22.6 9.5 22.4 9 22.2 9.5 21.7 9.5 22.1 9.8 22 10.3"/><path class="cls-12" d="M22,8.5l.2-.2h-.6L21.4,8v.2h-.7l.5.4h0l-.2.5h.1l.4-.3h.2l.4.2V8.7Zm-.2.6-.5-.3-.4.3.2-.5-.5-.3h.6V7.9l.2.4h.6l-.5.3Z"/><polygon class="cls-14" points="22.1 8.3 21.5 8.3 21.3 7.9 21.2 8.3 20.6 8.3 21.1 8.6 20.9 9.1 21.3 8.8 21.8 9.1 21.6 8.6 22.1 8.3"/><path class="cls-12" d="M22.7,8.3h.1l.4.3v.5l.3-.2h.2l.5.3h0V8.7l.4-.3h-.6l-.2-.5v.6Zm.8-.4.2.4h.6l-.5.3.2.5-.5-.3-.4.3V8.6l-.4-.3h.5Z"/><polygon class="cls-14" points="23.2 8.6 23.1 9.1 23.5 8.8 24 9.1 23.8 8.6 24.3 8.3 23.7 8.3 23.5 7.9 23.3 8.3 22.8 8.3 23.2 8.6"/><polygon class="cls-7" points="24.2 10.7 24.2 10.7 24 10.8 24 10.9 24.1 10.8 24.2 11.1 24.3 11.1 24.2 10.8 24.2 10.7"/><path class="cls-7" d="M23.7,11.1h0Zm-.1.2h0a.1.1,0,0,1,.1.1Z"/><polygon class="cls-7" points="23.8 10.9 23.9 11.1 23.7 10.9 23.7 11 23.8 11.3 23.9 11.3 23.8 11 24 11.3 24 11.2 23.9 10.9 23.8 10.9"/><polygon class="cls-7" points="25.2 10.2 25.2 10.2 25.1 10.3 25 10.2 25.1 10.1 25.1 10.1 25 10.2 24.9 10.1 25 10 25 10 24.8 10.1 25.1 10.4 25.2 10.2"/><polygon class="cls-7" points="24.3 10.6 24.4 10.7 24.3 10.8 24.3 10.6 24.2 10.7 24.4 11 24.5 11 24.4 10.8 24.4 10.8 24.5 10.9 24.6 10.9 24.4 10.5 24.3 10.6"/><path class="cls-7" d="M23.2,11.1h-.1v.3h0v-.3h-.1v.2h.2Z"/><path class="cls-7" d="M22.3,11.2h-.2v.4h.2Zm0,.2h-.1v-.2h.1Z"/><polygon class="cls-7" points="21.9 11.6 22.1 11.6 22.1 11.5 21.9 11.5 22 11.4 22.1 11.4 22.1 11.3 22 11.3 22 11.2 22.1 11.3 22.1 11.2 21.9 11.2 21.9 11.6"/><polygon class="cls-7" points="21.6 11.1 21.5 11.4 21.5 11.1 21.4 11.1 21.3 11.5 21.4 11.5 21.4 11.2 21.5 11.5 21.5 11.5 21.6 11.1 21.6 11.1"/><path class="cls-7" d="M21.8,11.2h-.1v.4h.2v-.2h-.1Zm0,.1h-.1v-.3h.1Z"/><path class="cls-7" d="M25,9.9l.3.3h.1L25,9.8Zm.2.1Z"/><polygon class="cls-7" points="22.8 11.2 22.6 11.2 22.6 11.3 22.7 11.3 22.7 11.6 22.8 11.6 22.7 11.2 22.8 11.2 22.8 11.2"/><path class="cls-7" d="M23.4,11.1h-.2v.4h.1v-.2h.1Zm0,.1h-.1v-.2h.1Z"/><polygon class="cls-7" points="22.5 11.2 22.5 11.6 22.6 11.6 22.6 11.2 22.5 11.2"/><path class="cls-7" d="M25.1,9.7c0,.1,0,.1.1.1h.3c0-.1,0-.1-.1-.1h-.3Z"/><path class="cls-7" d="M21.1,11h0Zm-.1.1h0Z"/><polygon class="cls-7" points="19.5 10.2 19.5 10 19.6 10 19.6 10.1 19.7 10.1 19.6 10 19.7 9.9 19.7 10 19.8 10 19.7 9.8 19.4 10 19.5 10.2 19.5 10.2"/><path class="cls-7" d="M21.3,11v.3h-.1V11h-.1v.4h.2v-.2Z"/><polygon class="cls-7" points="20.5 10.7 20.4 10.8 20.4 10.8 20.4 10.6 20.4 10.6 20.2 10.9 20.3 11 20.3 10.8 20.4 10.9 20.3 11 20.4 11.1 20.6 10.7 20.5 10.7"/><polygon class="cls-7" points="20.7 11 20.7 10.9 20.9 10.9 20.9 10.9 20.7 10.8 20.6 11.1 20.6 11.2 20.7 11 20.8 11.1 20.8 11 20.7 11"/><polygon class="cls-7" points="19.7 9.8 19.7 9.7 19.5 9.8 19.5 9.7 19.6 9.6 19.6 9.6 19.3 9.7 19.3 9.8 19.4 9.7 19.5 9.8 19.3 9.9 19.4 10 19.7 9.8"/><polygon class="cls-7" points="24.8 10.7 24.7 10.8 24.6 10.7 24.7 10.6 24.7 10.5 24.6 10.6 24.5 10.5 24.6 10.5 24.6 10.4 24.4 10.5 24.6 10.8 24.8 10.7 24.8 10.7"/><path class="cls-7" d="M25,10.3h0Z"/><polygon class="cls-7" points="20 10.2 19.9 10.3 19.8 10.2 19.9 10.1 19.9 10.1 19.6 10.3 19.6 10.4 19.8 10.3 19.8 10.4 19.7 10.5 19.8 10.5 20 10.3 20 10.2"/><polygon class="cls-7" points="20.3 10.6 20.3 10.6 20.4 10.6 20.2 10.4 20.2 10.5 20.2 10.5 20 10.8 20.1 10.8 20.3 10.6"/><path class="cls-7" d="M20,10.7l.2-.3h-.1l-.3.3H20Zm0-.2h.1v.2Z"/></g></svg>