<svg xmlns="http://www.w3.org/2000/svg" viewBox="0 0 30 20"><defs><style>.cls-1{fill:#209e56;}.cls-2{fill:#ce2931;}.cls-3{fill:#ffcd05;}.cls-4{fill:#050505;}.cls-5{fill:#fff;}</style></defs><title>kn</title><g id="Layer_34" data-name="Layer 34"><path class="cls-1" d="M2.5,0A2.5,2.5,0,0,0,0,2.5V15.4L23.3,0Z"/><path class="cls-2" d="M6.7,20H27.5A2.5,2.5,0,0,0,30,17.5V4.5Z"/><polygon class="cls-3" points="23.3 0 0 15.4 0 16.6 25.1 0 23.3 0"/><polygon class="cls-3" points="30 3.3 5 20 6.7 20 30 4.5 30 3.3"/><path class="cls-4" d="M30,2.5A2.5,2.5,0,0,0,27.5,0H25.1L0,16.6v.9A2.5,2.5,0,0,0,2.5,20H5L30,3.3ZM9.1,16.9l-.5-2H6.5l1.7-1.1-.5-2L9.3,13,11,11.9l-.7,1.9,1.6,1.3h-2ZM20.6,9.3l-.5-2H18l1.7-1.1-.5-2,1.6,1.3,1.7-1.1-.7,1.9,1.6,1.2H21.3Z"/><polygon class="cls-5" points="21.8 6.2 22.5 4.3 20.8 5.4 19.2 4.1 19.7 6.1 18 7.2 20.1 7.3 20.6 9.3 21.3 7.4 23.4 7.4 21.8 6.2"/><polygon class="cls-5" points="10.3 13.8 11 11.9 9.3 13 7.7 11.7 8.2 13.7 6.5 14.8 8.6 14.9 9.1 16.9 9.9 15 11.9 15.1 10.3 13.8"/></g></svg>