<svg xmlns="http://www.w3.org/2000/svg" viewBox="0 0 30 20"><defs><style>.cls-1{fill:#6ecaf3;}.cls-2{fill:#fff;}.cls-3{fill:#121212;}.cls-4{fill:#fbd632;}</style></defs><title>lc</title><g id="Layer_33" data-name="Layer 33"><path class="cls-1" d="M27.5,0H2.5A2.5,2.5,0,0,0,0,2.5v15A2.5,2.5,0,0,0,2.5,20h25A2.5,2.5,0,0,0,30,17.5V2.5A2.5,2.5,0,0,0,27.5,0ZM21.7,18.3H8.3L15,1.8l6.7,16.5Z"/><polygon class="cls-2" points="15 1.8 8.3 18.3 8.3 18.3 10.1 16.1 15 4 19.9 16.1 21.7 18.3 21.7 18.3 15 1.8"/><polygon class="cls-3" points="19.9 16.1 15 4 10.1 16.1 15 10 19.9 16.1"/><polygon class="cls-4" points="15 10 10.1 16.1 8.3 18.3 8.3 18.3 21.7 18.3 21.7 18.3 19.9 16.1 15 10"/></g></svg>