<svg xmlns="http://www.w3.org/2000/svg" viewBox="0 0 30 20"><defs><style>.cls-1{fill:#d81e40;}.cls-2{fill:#fff;}.cls-3{fill:#0e2749;}</style></defs><title>lr</title><g id="Layer_99" data-name="Layer 99"><path class="cls-1" d="M2.6,20H27.4a2.5,2.5,0,0,0,2.5-1.8H.1A2.5,2.5,0,0,0,2.6,20Z"/><rect class="cls-1" y="14.6" width="30" height="1.83"/><rect class="cls-1" y="10.9" width="30" height="1.83"/><rect class="cls-1" x="9" y="7.3" width="21" height="1.83"/><path class="cls-1" d="M27.4,0H9V1.8H29.9A2.5,2.5,0,0,0,27.4,0Z"/><rect class="cls-1" x="9" y="3.6" width="21" height="1.83"/><rect class="cls-2" x="9" y="5.4" width="21" height="1.83"/><polygon class="cls-2" points="0 9.1 0 10.9 30 10.9 30 9.1 9 9.1 0 9.1"/><rect class="cls-2" y="12.7" width="30" height="1.83"/><path class="cls-2" d="M9,3.6H30V2.5a1.7,1.7,0,0,0-.1-.7H9Z"/><path class="cls-2" d="M0,17.5a1.7,1.7,0,0,0,.1.7H29.9a1.7,1.7,0,0,0,.1-.7V16.4H0Z"/><path class="cls-3" d="M9,9.1V0H2.6A2.5,2.5,0,0,0,0,2.5V9.1ZM1.8,3.7h2l.6-1.9.7,1.9h2L5.4,4.8l.7,1.9L4.4,5.6,2.8,6.7l.6-1.9Z"/><polygon class="cls-2" points="7.1 3.7 5.1 3.7 4.4 1.8 3.8 3.7 1.8 3.7 3.4 4.8 2.8 6.7 4.4 5.6 6.1 6.7 5.4 4.8 7.1 3.7"/></g></svg>