<svg xmlns="http://www.w3.org/2000/svg" viewBox="0 0 30 20"><defs><style>.cls-1{fill:#121212;}.cls-2{fill:#359f47;}.cls-3{fill:#ce2931;}</style></defs><title>mw</title><g id="Layer_91" data-name="Layer 91"><path class="cls-1" d="M27.5,0H2.5A2.5,2.5,0,0,0,0,2.5V6.7H30V2.5A2.5,2.5,0,0,0,27.5,0ZM20.6,3.7c.1.1,0,.3-.2.4L19,4.8l1.1-1,.4-.2A.1.1,0,0,1,20.6,3.7Zm-.3-.5a.5.5,0,0,1-.3.4,4.8,4.8,0,0,1-1.3.9l1.1-1.2h.5Zm-.5-.4c.2.1,0,.3-.1.4l-1.3,1a8.5,8.5,0,0,1,1-1.3l.4-.2Zm-.5-.5a.1.1,0,0,1,.1.1c.1.1,0,.3-.1.4L18.1,3.9A4.8,4.8,0,0,1,19,2.6Q19.2,2.3,19.3,2.3ZM18.9,2h0c.2.1.1.3-.1.5l-1,1.1a9.1,9.1,0,0,1,.7-1.4Zm-.5-.3h0c.2.1.1.3,0,.5l-1,1.2L18,2C18.1,1.8,18.2,1.7,18.4,1.7Zm-.6-.3h.1a.4.4,0,0,1,0,.5A4.4,4.4,0,0,1,17,3.2c.3-.7.3-1,.5-1.5S17.7,1.4,17.8,1.4Zm-.5-.2h0c.2,0,.2.3.1.5a9,9,0,0,1-.7,1.4A5.7,5.7,0,0,1,17,1.5Q17.2,1.2,17.3,1.2ZM16.7,1h.1c.1,0,.1.3.1.5l-.6,1.4a3.4,3.4,0,0,1,.2-1.5C16.5,1.2,16.6,1,16.7,1Zm-.8.3c.1-.2.1-.4.3-.4h0c.1,0,.2.2.1.4a7.1,7.1,0,0,1-.5,1.6A7.1,7.1,0,0,1,15.9,1.3Zm-.5-.1c0-.2.1-.4.2-.4s.2.2.2.4-.2.8-.4,1.6A8.4,8.4,0,0,1,15.4,1.2ZM15,.8c.1,0,.2.2.2.4A13.7,13.7,0,0,1,15,2.8a13.7,13.7,0,0,1-.2-1.6C14.8,1,14.9.8,15,.8Zm-.6,0c.1,0,.2.2.2.4a8.4,8.4,0,0,1,0,1.6c-.2-.8-.3-1-.4-1.6S14.3.8,14.4.8Zm-.6.1h0c.2,0,.2.2.3.4a7.1,7.1,0,0,1,.1,1.6,7.1,7.1,0,0,1-.5-1.6C13.6,1.1,13.7.9,13.8.9Zm-.6.1h.1c.1,0,.2.2.2.4a3.4,3.4,0,0,1,.2,1.5l-.6-1.4C13.1,1.3,13.1,1,13.2,1Zm-.5.2h0q.2,0,.3.3a5.7,5.7,0,0,1,.3,1.6l-.7-1.4C12.5,1.5,12.5,1.2,12.7,1.2Zm-.6.2h.1q.2,0,.3.3A13.1,13.1,0,0,1,13,3.2a4.4,4.4,0,0,1-.9-1.3A.4.4,0,0,1,12.1,1.4Zm-.5.3h0A.5.5,0,0,1,12,2l.6,1.4-1-1.2C11.5,2,11.4,1.8,11.6,1.7Zm-.5.3h0l.4.2a9.1,9.1,0,0,1,.7,1.4l-1-1.1C11,2.3,10.9,2.1,11.1,2Zm-.5.4a.1.1,0,0,1,.1-.1q.2,0,.3.3a4.8,4.8,0,0,1,.9,1.3L10.7,2.8C10.6,2.7,10.5,2.5,10.6,2.4Zm-.4.4h0a.5.5,0,0,1,.4.2,8.5,8.5,0,0,1,1,1.3l-1.3-1C10.2,3.1,10,2.9,10.2,2.8Zm-.5.4h.5l1.1,1.2A4.8,4.8,0,0,1,10,3.6.5.5,0,0,1,9.7,3.2Zm-.3.5c0-.1,0-.1.1-.1l.4.2,1.1,1L9.6,4.1C9.4,4,9.3,3.8,9.4,3.7ZM8.8,6.2c0-.1,0-.1-.1-.1s-.4-.1-.3-.3h.5l1,.5Zm.1-.6c-.2-.1-.4-.2-.3-.3H9l1.5.7A5.7,5.7,0,0,1,8.9,5.6Zm.2-.5c-.2-.1-.4-.3-.3-.4s.1-.1.2-.1h.3l1.3.9Zm.2-.5c-.1-.1-.3-.3-.2-.4s0-.1.1-.1h.3l1.3,1Zm1.6,1.6a4.3,4.3,0,0,1,8.2,0Zm9.6-2h.3c.1,0,.1,0,.1.1s-.1.3-.2.4l-1.5.6Zm.2.5H21c.1,0,.2,0,.2.1s-.1.3-.3.4l-1.5.5Zm.3.5h.4c.1.1-.1.2-.3.3a5.7,5.7,0,0,1-1.6.3Zm.3.9c-.1,0-.1,0-.1.1H20.1l1-.5h.5C21.7,6,21.5,6.1,21.3,6.1Z"/><path class="cls-2" d="M0,17.5A2.5,2.5,0,0,0,2.5,20h25A2.5,2.5,0,0,0,30,17.5V13.3H0Z"/><rect class="cls-3" y="6.7" width="30" height="6.69"/><path class="cls-3" d="M15,3.3a4.3,4.3,0,0,0-4.1,2.9h8.2A4.3,4.3,0,0,0,15,3.3Z"/><path class="cls-3" d="M8.7,5.2H8.6c-.1.1.1.2.3.3a5.7,5.7,0,0,0,1.6.3L9,5.2Z"/><path class="cls-3" d="M11.6,4.2a8.5,8.5,0,0,0-1-1.3.5.5,0,0,0-.4-.2h0c-.2.1,0,.3.1.4Z"/><path class="cls-3" d="M10,3.6a4.8,4.8,0,0,0,1.3.9L10.2,3.3H9.7A.5.5,0,0,0,10,3.6Z"/><path class="cls-3" d="M11.9,3.9A4.8,4.8,0,0,0,11,2.6q-.1-.3-.3-.3a.1.1,0,0,0-.1.1c-.1.1,0,.3.1.4Z"/><path class="cls-3" d="M12.2,3.6a9.1,9.1,0,0,0-.7-1.4L11.1,2h0c-.2.1-.1.3.1.5Z"/><path class="cls-3" d="M9.6,4.1l1.4.7-1.1-1-.4-.2c-.1,0-.1,0-.1.1S9.4,4,9.6,4.1Z"/><path class="cls-3" d="M13,3.2a13.1,13.1,0,0,0-.5-1.5q-.1-.3-.3-.3h-.1a.4.4,0,0,0,0,.5A4.4,4.4,0,0,0,13,3.2Z"/><path class="cls-3" d="M12.6,3.4,12,2a.5.5,0,0,0-.4-.3h0c-.2.1-.1.3,0,.5Z"/><path class="cls-3" d="M8.6,5.7H8.4c-.1.2.1.3.3.3s.1,0,.1.1H9.9l-1-.5Z"/><path class="cls-3" d="M21.2,4.7c0-.1-.1-.1-.2-.1h-.3l-1.3.9,1.5-.5C21.1,5,21.3,4.8,21.2,4.7Z"/><path class="cls-3" d="M13.3,3.1A5.7,5.7,0,0,0,13,1.5q-.1-.3-.3-.3h0c-.2,0-.2.3-.1.5Z"/><path class="cls-3" d="M21.4,5.7h-.3l-1,.5h1.1c0-.1,0-.1.1-.1s.4-.1.3-.3Z"/><path class="cls-3" d="M21.4,5.3H21l-1.5.7a5.7,5.7,0,0,0,1.6-.3C21.3,5.5,21.5,5.4,21.4,5.3Z"/><path class="cls-3" d="M9,4.6c-.1,0-.2,0-.2.1s.1.3.3.4l1.5.5L9.3,4.7Z"/><path class="cls-3" d="M20.9,4.2c0-.1,0-.1-.1-.1h-.3l-1.3,1,1.5-.6C20.8,4.5,21,4.3,20.9,4.2Z"/><path class="cls-3" d="M9.2,4.1c-.1,0-.1,0-.1.1s.1.3.2.4l1.5.6-1.3-1Z"/><path class="cls-3" d="M16.3,1.3c.1-.2,0-.4-.1-.4h0c-.2,0-.2.2-.3.4a7.1,7.1,0,0,0-.1,1.6A7.1,7.1,0,0,0,16.3,1.3Z"/><path class="cls-3" d="M18.8,2.5c.2-.2.3-.4.1-.5h0l-.4.2a9.1,9.1,0,0,0-.7,1.4Z"/><path class="cls-3" d="M17.4,1.7c.1-.2.1-.5-.1-.5h0q-.2,0-.3.3a5.7,5.7,0,0,0-.3,1.6A9,9,0,0,0,17.4,1.7Z"/><path class="cls-3" d="M17.9,1.9a.4.4,0,0,0,0-.5h-.1q-.2,0-.3.3c-.2.5-.2.8-.5,1.5A4.4,4.4,0,0,0,17.9,1.9Z"/><path class="cls-3" d="M18.4,2.2c.1-.2.2-.4,0-.5h0c-.2,0-.3.1-.4.3l-.6,1.4Z"/><path class="cls-3" d="M18.1,3.9l1.2-1.1c.1-.1.2-.3.1-.4a.1.1,0,0,0-.1-.1q-.2,0-.3.3A4.8,4.8,0,0,0,18.1,3.9Z"/><path class="cls-3" d="M18.7,4.5A4.8,4.8,0,0,0,20,3.6a.5.5,0,0,0,.3-.4h-.5Z"/><path class="cls-3" d="M18.4,4.2l1.3-1c.1-.1.3-.3.1-.4h0l-.4.2A8.5,8.5,0,0,0,18.4,4.2Z"/><path class="cls-3" d="M15.8,1.2c0-.2-.1-.4-.2-.4s-.2.2-.2.4a8.4,8.4,0,0,0,0,1.6C15.6,2,15.7,1.8,15.8,1.2Z"/><path class="cls-3" d="M14.6,2.8a8.4,8.4,0,0,0,0-1.6c0-.2-.1-.4-.2-.4s-.2.2-.2.4S14.4,2,14.6,2.8Z"/><path class="cls-3" d="M15.2,1.2c0-.2-.1-.4-.2-.4s-.2.2-.2.4A13.7,13.7,0,0,0,15,2.8,13.7,13.7,0,0,0,15.2,1.2Z"/><path class="cls-3" d="M14.2,2.9a7.1,7.1,0,0,0-.1-1.6c-.1-.2-.1-.4-.3-.4h0c-.1,0-.2.2-.1.4A7.1,7.1,0,0,0,14.2,2.9Z"/><path class="cls-3" d="M19,4.8l1.4-.7c.2-.1.3-.3.2-.4a.1.1,0,0,0-.1-.1l-.4.2Z"/><path class="cls-3" d="M13.7,2.9a3.4,3.4,0,0,0-.2-1.5c0-.2-.1-.4-.2-.4h-.1c-.1,0-.1.3-.1.5Z"/><path class="cls-3" d="M16.9,1.5c0-.2,0-.5-.1-.5h-.1c-.1,0-.2.2-.2.4a3.4,3.4,0,0,0-.2,1.5Z"/></g></svg>