<svg xmlns="http://www.w3.org/2000/svg" viewBox="0 0 30 20"><defs><style>.cls-1{fill:#21205f;}.cls-2{fill:#fff;}.cls-3{fill:#03a2bd;}.cls-4{fill:#a44023;}.cls-5{fill:#010101;}.cls-6{fill:#f89a1c;}.cls-7{fill:#cb2026;}.cls-8{fill:#108140;}.cls-9{fill:#fee1cf;}.cls-10{fill:#861719;}</style></defs><title>ms</title><g id="Layer_79" data-name="Layer 79"><polygon class="cls-1" points="0 5 0 6.6 3.3 5 0 5"/><path class="cls-1" d="M27.4,0H15V.8L11.7,2.5H15V5H11.7L15,6.7v.8H13.3L8.7,5.2V7.5H6.2V5.2L1.6,7.5H0v10A2.5,2.5,0,0,0,2.6,20H27.4A2.5,2.5,0,0,0,30,17.5V2.5A2.5,2.5,0,0,0,27.4,0ZM25.7,8.3c.1,1.8-1.1,3-3.2,3.5s-3.2-1.1-3.2-3.5V3.7h6.4Z"/><polygon class="cls-1" points="13.2 0 8.7 0 8.7 2.2 13.2 0"/><path class="cls-1" d="M6.2,0H1.9L6.2,2.2Z"/><path class="cls-1" d="M.5,1.1A2.2,2.2,0,0,0,0,2.5H3.3Z"/><path class="cls-2" d="M19.3,8.3c0,2.4,1.7,3.1,3.2,3.5s3.3-1.7,3.2-3.5V3.7H19.3Zm.1-4.5h6.2V8.2c0,1.8-1.1,2.9-3.1,3.4s-3.1-1.1-3.1-3.3Z"/><path class="cls-3" d="M22.5,11.6c2-.5,3.1-1.6,3.1-3.4V3.8H19.4V8.3C19.4,10.5,21.1,11.3,22.5,11.6ZM21.2,8.4a.7.7,0,0,0,.5-.5c0-.1.1-.2.1-.3h.1c0-.1,0-.1.1-.1s.2-.1.2-.2v-1c-.1.1-.2,0-.3,0s-.1,0-.1,0V5.9c-.1-.2,0-.3.1-.5a.8.8,0,0,0,.1-.3H21V4.6h1.2V4.1h.5v.5h1.2v.5h-.4c.1,0,.1,0,.1.1s.1.1,0,.1a.1.1,0,0,1-.1.1h-.2c-.1.1,0,.1.1.2a.1.1,0,0,1,.1.1c.1,0,.2.1.2.4a1.3,1.3,0,0,0-.1.5c0,.3-.1.5-.2.5a3.6,3.6,0,0,1,.3.7,2,2,0,0,1,.1.9h1.7c-.2,1.7-1.5,2.4-3,2.8s-2.8-.9-3.1-2.8h1.4C20.9,8.6,21.1,8.4,21.2,8.4Z"/><path class="cls-3" d="M22.1,7.5H22l.2.2V7.4Z"/><path class="cls-3" d="M21.1,8.8c.1-.1.1-.1.2,0h.9V8.1L22,7.8l-.3.5c-.2.2-.7.3-.6.5Z"/><path class="cls-3" d="M22.1,5.1v.7h0a.1.1,0,0,1,.1-.1V5.1h-.1Z"/><path class="cls-3" d="M22.8,5.6H23V5.4h-.2V6.8h0V5.7Z"/><path class="cls-3" d="M22.7,7.2V8.6h0V7.2Z"/><path class="cls-4" d="M21.1,8.8Z"/><path class="cls-4" d="M21.3,8.8h0V9h0l.9,1V8.8Z"/><path class="cls-4" d="M23.6,10.3h0Z"/><path class="cls-4" d="M22.5,11.6c1.5-.4,2.8-1.1,3-2.8H23.8a2.6,2.6,0,0,0,.2,1.7h-.3c.1.1,0,.1,0,.1h-.3a.4.4,0,0,1,.1-.3h0v-.2a.7.7,0,0,1-.9.3h0c-.1.1-1.3-1.5-1.3-1.5h-.1a.4.4,0,0,1-.3-.2H19.4C19.7,10.7,21.2,11.2,22.5,11.6Zm0-1h0Z"/><path class="cls-4" d="M23.6,10.3h0Z"/><path class="cls-5" d="M22.7,6.8V5.1h.2c0-.2.1-.2.2-.2h.1a.2.2,0,0,1,.2.2h.5V4.6H22.7V4.1h-.5v.5H21v.5h1.2v.7h0v.3h0v1h.3Z"/><path class="cls-5" d="M22.3,7.4h-.1v.4a1.6,1.6,0,0,1,.5.8V7.2Z"/><path class="cls-5" d="M22.2,10h.2c.3-.3.2-1.4-.2-2V10Z"/><path class="cls-6" d="M21.1,9h.1s1.2,1.6,1.3,1.5h0c-.1,0-.1-.1,0-.2a9.3,9.3,0,0,0,.2-1.4V8.6h0a1.6,1.6,0,0,0-.5-.8L22,7.6h-.2V7.6c0,.1-.1.2-.1.3a.7.7,0,0,1-.5.5c-.1,0-.3.2-.4.4h0A.4.4,0,0,0,21.1,9Zm.6-.7.3-.5.2.3c.4.6.5,1.7.2,2h-.2l-.9-1h0V8.8h0c-.1-.1-.1-.1-.2,0h0C21,8.6,21.5,8.5,21.7,8.3Z"/><path class="cls-2" d="M6.2,2.5V2.2L1.9.1,1,.5l3.9,2Z"/><polygon class="cls-2" points="8.7 5 8.7 5.2 13.3 7.5 15 7.5 10 5 8.7 5"/><path class="cls-2" d="M3.8,2.5.6.9a.3.3,0,0,0-.1.2L3.3,2.5Z"/><polygon class="cls-2" points="11.7 2.5 15 0.8 15 0 14.9 0 10 2.5 11.7 2.5"/><polygon class="cls-2" points="8.7 2.5 8.9 2.5 13.7 0 13.2 0 8.7 2.2 8.7 2.5"/><polygon class="cls-2" points="15 7 15 6.7 11.7 5 11.1 5 15 7"/><polygon class="cls-2" points="3.3 5 0 6.6 0 7.5 5 5 3.3 5"/><polygon class="cls-2" points="6.1 5 1 7.5 1.6 7.5 6.2 5.2 6.2 5 6.1 5"/><polygon class="cls-2" points="8.2 3 15 3 15 2.5 11.7 2.5 10 2.5 8.9 2.5 8.7 2.5 8.7 2.2 8.7 0 8.2 0 8.2 3"/><path class="cls-2" d="M6.7,3V0H6.2V2.5H0V3Z"/><polygon class="cls-2" points="5 5 6.1 5 6.2 5 6.2 5.2 6.2 7.5 6.7 7.5 6.7 4.5 0 4.5 0 5 3.3 5 5 5"/><polygon class="cls-2" points="8.2 4.5 8.2 7.5 8.7 7.5 8.7 5.2 8.7 5 10 5 11.1 5 11.7 5 15 5 15 4.5 8.2 4.5"/><polygon class="cls-7" points="6.7 4.5 6.7 7.5 8.2 7.5 8.2 4.5 15 4.5 15 3 8.2 3 8.2 0 6.7 0 6.7 3 0 3 0 4.5 6.7 4.5"/><polygon class="cls-7" points="6.1 5 5 5 0 7.5 0 7.5 1 7.5 6.1 5"/><polygon class="cls-7" points="10 2.5 14.9 0 13.7 0 8.9 2.5 10 2.5"/><path class="cls-7" d="M4.9,2.5,1,.5.6.9,3.8,2.5Z"/><polygon class="cls-7" points="10 5 15 7.5 15 7 11.1 5 10 5"/><path class="cls-8" d="M23.2,5.7c0,.1-.2.1-.2.2a.4.4,0,0,1-.1-.3h-.2V6.8H23a.4.4,0,0,0,.1-.3l.3-.4c.1-.1.2.1.2.2a1.3,1.3,0,0,1-.3.7h-.6V8.9a9.3,9.3,0,0,1-.2,1.4c-.1.1-.1.2,0,.2h0a.7.7,0,0,0,.9-.3H24a2.6,2.6,0,0,1-.2-1.7h0a2,2,0,0,0-.1-.9,3.6,3.6,0,0,0-.3-.7c.1,0,.2-.2.2-.5a1.3,1.3,0,0,1,.1-.5c0-.3-.1-.4-.2-.4a.1.1,0,0,0-.1-.1Z"/><path class="cls-9" d="M23.2,5.3c-.1,0-.1-.1,0-.1h0V4.9H23a.1.1,0,0,0-.1-.1h0v.2h-.1a.4.4,0,0,0,.1.3c0-.1.2-.1.2-.2h.2c-.1-.1-.2-.1-.1-.2a.1.1,0,0,1-.1-.1Zm-.3-.4h0Zm0,.2Z"/><path class="cls-9" d="M22.2,5.8h0a.1.1,0,0,0-.1.1h0V5.1H22a.8.8,0,0,1-.1.3c-.1.2-.2.3-.1.5v.2s0,.1.1,0,.2.1.3,0h0Z"/><path class="cls-9" d="M21.8,7.8h.5l.4-.2h.6a1.3,1.3,0,0,0,.3-.7c0-.1-.1-.3-.2-.2l-.3.4a.4.4,0,0,1-.1.3h-.3l-.2.2h-.3c0,.1-.1.1-.2.2s-.1,0-.1.1h-.1v.2Z"/><path class="cls-9" d="M23.7,10.4h-.3v.2h0a.4.4,0,0,0-.1.3h.3s.1,0,0-.1Z"/><path class="cls-9" d="M22.6,10.6h0Z"/><path class="cls-10" d="M23.5,5h-.1a.2.2,0,0,0-.2-.2h-.1c-.1,0-.2,0-.2.2h0a.1.1,0,0,1,.1.1h.1v.2h0c-.1,0-.1.1,0,.1h0a.1.1,0,0,0,.1.1h.2a.1.1,0,0,0,.1-.1c.1,0,0-.1,0-.1s0-.1-.1-.1Z"/><path class="cls-5" d="M23,5.1h0Z"/><path class="cls-5" d="M22.9,5h0Z"/></g></svg>