<svg xmlns="http://www.w3.org/2000/svg" viewBox="0 0 30 20"><defs><style>.cls-1{fill:#d02a36;}.cls-2{fill:#fafafa;}.cls-3{fill:#e51d30;}.cls-4{fill:#d0202d;}.cls-5{fill:#96877d;}.cls-6{fill:#cdcccc;}.cls-7{fill:#d0d1d1;}.cls-8{fill:#010101;}</style></defs><title>mt</title><g id="Layer_88" data-name="Layer 88"><path class="cls-1" d="M27.4,0H15V20H27.4A2.5,2.5,0,0,0,30,17.5V2.5A2.5,2.5,0,0,0,27.4,0Z"/><path class="cls-2" d="M2.6,0A2.5,2.5,0,0,0,0,2.5v15A2.5,2.5,0,0,0,2.6,20H15V0ZM4.2,4.7H4.1V6.2H2.7V4.7H2.6a.5.5,0,0,1-.4-.5H.7V2.7H2.2a.7.7,0,0,1,.4-.5h.1V.8H4.1V2.2h.1a.7.7,0,0,1,.4.5H6.1V4.2H4.6A.5.5,0,0,1,4.2,4.7Z"/><path class="cls-3" d="M6.1,2.8V4.2h0V2.7h0Z"/><path class="cls-3" d="M4.6,2.7a.7.7,0,0,0-.4-.5l.3.2C4.5,2.5,4.6,2.6,4.6,2.7Z"/><path class="cls-3" d="M4.1,6.1H2.7V4.7h0V6.2H4.1V4.7h0Z"/><path class="cls-3" d="M.7,4.2V2.8h0V4.2h0Z"/><path class="cls-3" d="M4.2,4.7a.5.5,0,0,0,.4-.5v.3Z"/><path class="cls-3" d="M2.2,4.2a.5.5,0,0,0,.4.5l-.3-.2Z"/><path class="cls-3" d="M2.6,2.2a.7.7,0,0,0-.4.5c0-.1.1-.2.1-.3Z"/><path class="cls-3" d="M2.7.8H4.1V2.2h0V.8H2.7V2.2h0Z"/><path class="cls-4" d="M2.8,6.1V4.7H2.7V6.1H4.1V4.7H4V6.1Z"/><path class="cls-4" d="M4,.9V2.2h.1V.8H2.7V2.2h.1V.9Z"/><path class="cls-4" d="M.8,2.8H.7V4.2H.8Z"/><path class="cls-4" d="M6.1,2.8H6V4.1h.1Z"/><path class="cls-5" d="M6,2.8H6V4.1H6Z"/><path class="cls-5" d="M.8,2.9h0V4.1h0Z"/><path class="cls-5" d="M2.8,6V4.7h0V6.1H4V4.7H4V6Z"/><path class="cls-5" d="M4,.9V2.3H4V.9H2.8V2.2h0V.9Z"/><path class="cls-6" d="M2.5,3.5h0c.1,0,.1,0,.1-.1H2.5Z"/><polygon class="cls-6" points="4 2.7 3.9 2.7 3.9 2.8 4 2.7"/><path class="cls-6" d="M2.5,3.1Z"/><path class="cls-6" d="M3.4,3Z"/><polygon class="cls-6" points="3.4 3.1 3.4 3.1 3.4 3.1 3.4 3.1"/><polygon class="cls-6" points="3.4 3.2 3.4 3.2 3.4 3.2 3.4 3.2 3.4 3.3 3.4 3.2"/><path class="cls-6" d="M3.3,3h0a.1.1,0,0,0-.1.1Z"/><path class="cls-6" d="M3.7,3h0a.1.1,0,0,0-.1.1h.1Z"/><polygon class="cls-6" points="3.1 2.6 3.1 2.6 3.2 2.6 3.1 2.6"/><path class="cls-6" d="M3.4,3.3Z"/><polygon class="cls-6" points="3.4 3.2 3.4 3.2 3.4 3.2 3.4 3.2"/><path class="cls-6" d="M3.7,3.8Z"/><path class="cls-6" d="M6,2.9H4.6c-.1.1-.3,0-.5-.2s-.2-.3-.1-.4H4V.9H2.8V2.3h0c.1.1,0,.3-.1.4s-.4.3-.5.2H.8V4.1H2.2c.1-.1.3-.1.5.1s.2.4.1.5h0V6H4V4.7H4c-.1-.1,0-.3.1-.5s.4-.2.5-.1H6Zm-3.6.5h.1a.1.1,0,0,0,.1.1h0c0,.1,0,.1-.1.1H2.4Zm.2.3Zm0-.6h0Zm1.2-.3h.1c0,.1,0,.1.1.1H3.8Zm-.2-.1h0V2.5H3.6Zm-.2,0Zm-.3,0h0V2.5h0Zm-.3,0a.1.1,0,0,1,.1-.1H2.8ZM3,4.4h.1A.1.1,0,0,0,3,4.4Zm.5,0h0Zm.3,0h0a.1.1,0,0,0-.1-.1h.1ZM4,3.3H3.9a.1.1,0,0,0,.1.1H4c0,.1,0,0-.1,0H3.8v.3h0s-.1-.1,0-.1.1,0,.1,0h0s-.1.1-.1,0h0a.1.1,0,0,1,.1-.1H4s0,.1-.2,0H3.2V3.7c-.1,0-.2,0-.2-.1s-.1-.1-.1,0,0,0,0,.1H2.8s-.1,0,0-.1h0V3.5H3c0-.1.1-.1.1-.2H3c-.1.1-.2.2-.2.1H2.7a.1.1,0,0,1,.1-.1A.1.1,0,0,1,2.9,3h.2s.1-.1.1,0h.1c0-.1,0-.1.1-.1a.1.1,0,0,1,.1.1h.2a.1.1,0,0,1-.1.1.1.1,0,0,1,.1.1h.4S4,3.4,4,3.3ZM4.1,3h.1V3h.2a.1.1,0,0,1-.1-.1H4.1Zm.1.2Zm.2.5Zm0-.2Z"/><path class="cls-6" d="M4.3,3.4h0c0,.1,0,.1.1.1H4.3Z"/><polygon class="cls-6" points="3.9 3.6 3.9 3.6 3.9 3.6 3.9 3.6"/><path class="cls-6" d="M3.2,3.4h.1c-.1,0-.1-.1-.1-.2h0Z"/><path class="cls-6" d="M3.4,3.9Z"/><path class="cls-6" d="M3.5,3.8Z"/><path class="cls-6" d="M3.4,3.6h.1s0-.1-.1,0a.2.2,0,0,1,.3,0h0c0-.1,0-.1-.1-.1h0a.1.1,0,0,1-.1-.1H3.4Z"/><path class="cls-7" d="M2.2,2.8h0c.1.1.3,0,.5-.2s.2-.3.1-.4H2.6l-.3.2c.2-.1.3-.1.4,0a.2.2,0,0,1,0,.3c-.2.2-.3.2-.4.1a.3.3,0,0,1,0-.4c0,.1-.1.2-.1.3h0Z"/><path class="cls-5" d="M2.3,2.8c.1.1.2.1.4-.1a.2.2,0,0,0,0-.3c-.1-.1-.2-.1-.4,0A.3.3,0,0,0,2.3,2.8Zm0-.2h.1V2.5h0l.2.3Zm.4,0h0l-.2-.2h0Z"/><polygon class="cls-7" points="2.4 2.5 2.4 2.5 2.5 2.7 2.3 2.6 2.3 2.6 2.6 2.8 2.4 2.5"/><rect class="cls-7" x="2.6" y="2.4" height="0.3" transform="translate(-1 2.6) rotate(-45.1)"/><path class="cls-7" d="M4.5,2.8c-.1.1-.2.1-.4-.1s.4.3.5.2h0c0-.1-.1-.2-.1-.3A.3.3,0,0,1,4.5,2.8Z"/><path class="cls-7" d="M4,2.2H4c-.1.1,0,.3.1.4a.2.2,0,0,1,0-.3c.1-.1.2-.1.4,0l-.3-.2H4Z"/><path class="cls-5" d="M4.5,2.8a.3.3,0,0,0,0-.4c-.2-.1-.3-.1-.4,0a.2.2,0,0,0,0,.3C4.3,2.9,4.4,2.9,4.5,2.8Zm-.4-.2V2.4H4.1Zm.1.2.3-.2h0l-.2.2Z"/><polygon class="cls-7" points="4.4 2.5 4.3 2.5 4.2 2.5 4.3 2.4 4.2 2.4 4.1 2.6 4.4 2.5"/><polygon class="cls-7" points="4.5 2.6 4.5 2.6 4.2 2.8 4.3 2.8 4.5 2.6"/><path class="cls-7" d="M4.1,4.6a.3.3,0,0,1,0-.4c-.1.2-.2.4-.1.5h.2l.3-.2C4.3,4.6,4.2,4.7,4.1,4.6Z"/><path class="cls-7" d="M4.6,4.2h0c-.1-.1-.3-.1-.5.1s.3-.1.4,0,.1.2,0,.3V4.2Z"/><path class="cls-5" d="M4.1,4.6c.1.1.2,0,.4-.1s.1-.3,0-.3-.2-.1-.4,0A.3.3,0,0,0,4.1,4.6Zm.4-.3H4.4l-.2-.3Zm-.2.2h0l-.2-.2h0Z"/><polygon class="cls-7" points="4.4 4.5 4.4 4.4 4.3 4.3 4.5 4.4 4.5 4.3 4.2 4.2 4.4 4.5"/><polygon class="cls-7" points="4.3 4.6 4.3 4.5 4.1 4.3 4.1 4.4 4.3 4.6"/><path class="cls-7" d="M2.3,4.2c.1-.1.2-.1.4,0s-.4-.2-.5-.1h0v.3C2.2,4.4,2.2,4.2,2.3,4.2Z"/><path class="cls-7" d="M2.8,4.7h0c.1-.1,0-.3-.1-.5a.3.3,0,0,1,0,.4c-.1.1-.2,0-.4-.1l.3.2h.2Z"/><path class="cls-5" d="M2.3,4.2c-.1,0-.1.2,0,.3s.3.2.4.1a.3.3,0,0,0,0-.4C2.5,4.1,2.4,4.1,2.3,4.2Zm.4.1v.3H2.5V4.4H2.4Zm-.1-.1-.3.2h0l.2-.3Z"/><polygon class="cls-7" points="2.4 4.5 2.5 4.5 2.6 4.4 2.5 4.6 2.6 4.6 2.7 4.3 2.4 4.5"/><rect class="cls-7" x="2.3" y="4.2" width="0.3" height="0.05" transform="translate(-2.3 3) rotate(-44.9)"/><path class="cls-8" d="M3,4.3H3a.1.1,0,0,1,.1-.1Z"/><path class="cls-8" d="M3.8,4.3H3.7a.1.1,0,0,1,.1.1h0Z"/><path class="cls-8" d="M3.5,4.4h0Z"/><path class="cls-5" d="M4,3.7Z"/><path class="cls-5" d="M3.9,3.6Z"/><path class="cls-5" d="M3.8,4h0Z"/><path class="cls-5" d="M3.6,3.9H3.5C3.5,4,3.5,3.9,3.6,3.9Z"/><path class="cls-5" d="M3.8,3.9h.1a.1.1,0,0,0-.1.1h0c0,.1.1,0,.1,0h0s-.1-.1-.1,0,0,.1,0,.1h0Z"/><path class="cls-5" d="M3.3,3.9Z"/><path class="cls-5" d="M3.4,3.7Z"/><path class="cls-5" d="M3,3.6H2.8v.2h0c-.1.1,0,.1,0,.1h.1c0-.1-.1-.1,0-.1s.1,0,.1,0Z"/><path class="cls-5" d="M3,3.1H2.9a.1.1,0,0,0-.1.1.1.1,0,0,0-.1.1h.1c0,.1.1,0,.2-.1Z"/><path class="cls-5" d="M3.2,3.1Z"/><path class="cls-5" d="M3.3,3h0Z"/><path class="cls-5" d="M3.3,2.9h.2a.1.1,0,0,0-.1-.1c-.1,0-.1,0-.1.1Z"/><path class="cls-5" d="M3.8,3.2H3.7a.1.1,0,0,0-.1-.1H3.4a.1.1,0,0,1,.1.1h.4c.1,0,.1.1.1,0H4a.1.1,0,0,1-.1-.1H4c0,.1.1,0,.1,0H3.8Z"/><path class="cls-5" d="M3.4,3.1h.2A.1.1,0,0,1,3.7,3H3.5A.3.3,0,0,1,3.4,3.1Z"/><polygon class="cls-5" points="3.4 3.2 3.4 3.2 3.4 3.2 3.4 3.2"/><path class="cls-5" d="M3.3,3.9H3.1c0,.1-.1.1-.1.2H3c0,.1.1.1.2.1v.2Z"/><path class="cls-5" d="M3,3.3H3Z"/><path class="cls-5" d="M3.3,3.5h0Z"/><path class="cls-5" d="M3.7,3.7h.1V3.5H3.7Z"/><path class="cls-5" d="M3.3,3Z"/><path class="cls-5" d="M3.3,2.9h0Z"/><path class="cls-5" d="M3.5,2.9Z"/><polygon class="cls-5" points="3.4 2.8 3.4 2.8 3.4 2.8 3.4 2.8"/><path class="cls-5" d="M3.4,2.9Z"/><path class="cls-5" d="M3.4,3.3H3.2c0,.1,0,.2.1.2h.2a.1.1,0,0,0,.1.1h0c.1,0,.1,0,.1.1H3.5A.1.1,0,0,0,3.4,3.3Z"/><path class="cls-5" d="M3.2,3a.1.1,0,0,1,.1-.1H3.2c0-.1-.1,0-.1,0h.1Z"/><path class="cls-5" d="M3.4,3.3h0A.1.1,0,0,1,3.3,3h.1Z"/><path class="cls-5" d="M3.4,3.1h0Z"/><path class="cls-5" d="M3.4,3.1H3.3a.1.1,0,0,0,.1.1Z"/><path class="cls-5" d="M3.4,3h0a.3.3,0,0,0,.1-.2H3.4Z"/><path class="cls-5" d="M3.4,3.2Z"/><path class="cls-5" d="M3.7,3H3.6A.1.1,0,0,0,3.7,3Z"/><path class="cls-5" d="M3.7,3.7a.2.2,0,0,0-.3,0c.1-.1.1,0,.1,0h.2Z"/><path class="cls-5" d="M3.9,3.9H3.8c.2.1.2,0,.2,0H3.9Z"/><path class="cls-5" d="M3.5,4h.1c-.1,0-.1.1-.1,0h0Z"/><path class="cls-8" d="M4.4,3.3h0Zm0,.1h0c-.1,0-.1,0-.1-.1h.1Z"/><path class="cls-8" d="M4.2,2.9a.1.1,0,0,0,.1.1H4.1V2.8h0Z"/><path class="cls-8" d="M4.2,3.2Z"/><path class="cls-8" d="M4.4,3.7Z"/><path class="cls-8" d="M2.6,3.7Z"/><path class="cls-8" d="M2.6,3.1Zm-.1.1Z"/><path class="cls-8" d="M2.9,2.8h0a.1.1,0,0,0-.1.1h.1Z"/><path class="cls-8" d="M2.5,3.5h0c.1,0,.1,0,.1-.1h0a.1.1,0,0,1-.1-.1h0Zm-.1-.1h.2c0,.1,0,.1-.1.1H2.4Z"/><path class="cls-8" d="M3.8,2.8H4c-.1,0-.1,0-.1-.1H3.8Zm.1-.1h0Z"/><path class="cls-8" d="M3.1,2.7h0v.2Zm0-.1h0Z"/><path class="cls-8" d="M3.5,2.6Z"/><path class="cls-8" d="M3.7,2.7h0v.2h.1Z"/></g></svg>