<svg id="Flags" xmlns="http://www.w3.org/2000/svg" viewBox="0 0 30 20"><defs><style>.cls-1{fill:#00285d;}.cls-2{fill:#f7981d;}.cls-3{fill:#fff;}</style></defs><title>mh</title><path class="cls-1" d="M30,17.5V9L.5,19a2.6,2.6,0,0,0,2,1H27.4A2.5,2.5,0,0,0,30,17.5Z"/><path class="cls-1" d="M27.4,0H2.5A2.5,2.5,0,0,0,0,2.5V17.7L29.6,1.1A2.7,2.7,0,0,0,27.4,0ZM9.6,8l-2-.3L9.2,8.9,7.3,8.1,8.6,9.7,7,8.5l.8,1.8L6.5,8.7l.3,2L6.1,8.9,5.8,12,5.6,8.9l-.8,1.8.3-2L3.9,10.3l.8-1.8L3.1,9.7,4.3,8.1l-1.8.8L4.1,7.7,2.1,8,4,7.2.8,7,4,6.8,2.1,6l2,.3L2.5,5.1l1.8.7L3.1,4.2,4.7,5.5,3.9,3.6,5.1,5.2l-.3-2,.8,1.9L5.8,2l.3,3.1.7-1.9-.3,2L7.8,3.6,7,5.5,8.6,4.2,7.3,5.8l1.9-.7L7.6,6.3l2-.3-1.9.8,3.1.2-3.1.2Z"/><path class="cls-2" d="M30,2.5a3.3,3.3,0,0,0-.4-1.4L0,17.7a1.4,1.4,0,0,0,.2.7L30,4.9Z"/><path class="cls-3" d="M30,6.7V4.9L.2,18.4l.3.6L30,9Z"/><polygon class="cls-3" points="7.7 6.8 9.6 6 7.6 6.3 9.2 5.1 7.3 5.8 8.6 4.2 7 5.5 7.8 3.6 6.5 5.2 6.8 3.2 6.1 5.1 5.8 2 5.6 5.1 4.8 3.2 5.1 5.2 3.9 3.6 4.7 5.5 3.1 4.2 4.3 5.8 2.5 5.1 4.1 6.3 2.1 6 4 6.8 0.8 7 4 7.2 2.1 8 4.1 7.7 2.5 8.9 4.3 8.1 3.1 9.7 4.7 8.5 3.9 10.3 5.1 8.7 4.8 10.7 5.6 8.9 5.8 12 6.1 8.9 6.8 10.7 6.5 8.7 7.8 10.3 7 8.5 8.6 9.7 7.3 8.1 9.2 8.9 7.6 7.7 9.6 8 7.7 7.2 10.8 7 7.7 6.8"/></svg>