<svg id="Flags" xmlns="http://www.w3.org/2000/svg" viewBox="0 0 30 20"><defs><style>.cls-1{fill:#004b84;}.cls-2{fill:#fff100;}.cls-3{fill:#fff;}</style></defs><title>nr</title><path class="cls-1" d="M27.4,0H2.5A2.5,2.5,0,0,0,0,2.5V9.2H30V2.5A2.5,2.5,0,0,0,27.4,0Z"/><path class="cls-1" d="M0,13.3v4.2A2.5,2.5,0,0,0,2.5,20H27.4A2.5,2.5,0,0,0,30,17.5V10.8H0Zm5.3.5,1.3.4-.3-1.3.9,1,.3-1.3.3,1.3,1-1-.4,1.3,1.3-.4-1,.9,1.3.4-1.3.3,1,.9-1.3-.4.4,1.3-1-.9-.3,1.2-.3-1.2-.9.9.3-1.3-1.3.4,1-.9L5,15.1l1.3-.4Z"/><rect class="cls-2" y="9.2" width="30" height="1.67"/><polygon class="cls-3" points="6.3 15.4 5.3 16.3 6.6 15.9 6.3 17.2 7.2 16.3 7.5 17.5 7.8 16.3 8.8 17.2 8.4 15.9 9.7 16.3 8.7 15.4 10 15.1 8.7 14.7 9.7 13.8 8.4 14.2 8.8 12.9 7.8 13.9 7.5 12.6 7.2 13.9 6.3 12.9 6.6 14.2 5.3 13.8 6.3 14.7 5 15.1 6.3 15.4"/></svg>