<svg xmlns="http://www.w3.org/2000/svg" viewBox="0 0 30 20"><defs><style>.cls-1{fill:#233c7b;}.cls-2{fill:#069547;}.cls-3{fill:#fecf0a;}.cls-4{fill:#fff;}.cls-5{fill:#d31f36;}</style></defs><title>na</title><g id="Layer_75" data-name="Layer 75"><path class="cls-1" d="M2.5,0A2.5,2.5,0,0,0,0,2.5V15.9L23.9,0ZM7.6,8.4l-1.1-1L5.9,8.8,5.4,7.4l-1.2,1,.3-1.5h0L3,7.2,4,6,2.6,5.5,4,5,3,3.8l1.5.3L4.2,2.6l1.2,1,.5-1.5.6,1.5,1.1-1L7.4,4.1l1.4-.3L7.9,5l1.4.5L7.9,6l.9,1.2L7.4,6.9h0Z"/><path class="cls-2" d="M27.5,20A2.5,2.5,0,0,0,30,17.5V4.1L6,20Z"/><path class="cls-3" d="M5.9,7.5a2,2,0,0,1-1.4-.6L4.2,8.4l1.2-1,.5,1.4.6-1.4,1.1,1L7.4,6.9A2,2,0,0,1,5.9,7.5Z"/><path class="cls-3" d="M5.9,3.5a2,2,0,0,1,2,2,2.2,2.2,0,0,1-.5,1.4l1.4.3L7.9,6l1.4-.5L7.9,5l.9-1.2-1.4.3.2-1.5-1.1,1L5.9,2.1,5.4,3.6l-1.2-1,.3,1.5L3,3.8,4,5l-1.4.5L4,6,3,7.2l1.5-.3a1.8,1.8,0,0,1-.6-1.4A2,2,0,0,1,5.9,3.5Z"/><path class="cls-1" d="M7.9,5.5a2,2,0,0,0-4,0,1.8,1.8,0,0,0,.6,1.4h0a2,2,0,0,0,1.4.6,2,2,0,0,0,1.5-.6h0A2.2,2.2,0,0,0,7.9,5.5Zm-2,1.7A1.8,1.8,0,0,1,4.2,5.5,1.8,1.8,0,0,1,5.9,3.8a1.7,1.7,0,0,1,0,3.4Z"/><path class="cls-3" d="M5.9,3.8A1.8,1.8,0,0,0,4.2,5.5,1.8,1.8,0,0,0,5.9,7.2a1.7,1.7,0,0,0,0-3.4Z"/><polygon class="cls-4" points="23.9 0 0 15.9 0 16.9 25.5 0 23.9 0"/><polygon class="cls-4" points="6 20 30 4.1 30 3.1 4.4 20 6 20"/><path class="cls-5" d="M25.5,0,0,16.9v.6A2.5,2.5,0,0,0,2.5,20H4.4L30,3.1V2.5A2.5,2.5,0,0,0,27.5,0Z"/></g></svg>