<svg xmlns="http://www.w3.org/2000/svg" viewBox="0 0 30 20"><defs><style>.cls-1{fill:#273476;}.cls-2{fill:#fff;}.cls-3{fill:#d0202d;}.cls-4{fill:#ed2224;}</style></defs><title>nz</title><g id="Layer_72" data-name="Layer 72"><polygon class="cls-1" points="0 4.9 0 6.5 3.2 4.9 0 4.9"/><path class="cls-1" d="M27.5,0H15.1V.7L11.7,2.4h3.4V4.9H11.7l3.4,1.7v.8H13.4L8.7,5.1V7.4H6.2V5.1L1.6,7.4H0V17.5A2.5,2.5,0,0,0,2.5,20h25A2.5,2.5,0,0,0,30,17.5V2.5A2.5,2.5,0,0,0,27.5,0ZM22.4,2.5l.3-.8.2.8h.9l-.7.5.3.9-.7-.6-.7.6.2-.9-.7-.5ZM19.9,7.4l-.7-.5-.8.5.3-.9L18,6h.9l.3-.8.2.8h.9l-.7.5ZM23.5,13l-.8-.5-.8.5.3-.9-.8-.5h1l.3-1,.3,1h1l-.8.5Zm2.8-6.6-.6-.5-.6.5.2-.8-.6-.4h.7l.3-.8.2.8h.8l-.6.4Z"/><polygon class="cls-1" points="13.1 0 8.7 0 8.7 2.2 13.1 0"/><path class="cls-1" d="M6.2,0H2L6.2,2.2Z"/><path class="cls-1" d="M.5,1A2.4,2.4,0,0,0,0,2.4H3.2Z"/><path class="cls-2" d="M22,3.9l.7-.6.7.6L23.1,3l.7-.5h-.9l-.2-.8-.3.8h-.9l.7.5Zm-.1-1.3h.6l.2-.5.2.5h.5L23,3v.5l-.4-.3-.5.3.2-.5Z"/><polygon class="cls-3" points="22.2 3.5 22.7 3.2 23.1 3.5 23 3 23.4 2.6 22.9 2.6 22.7 2.1 22.5 2.6 21.9 2.6 22.4 3 22.2 3.5"/><path class="cls-2" d="M19.4,6l-.2-.8-.3.8H18l.7.5-.3.9.8-.5.7.5-.3-.9.7-.5Zm.2,1-.4-.3-.5.3.2-.5-.5-.3H19l.2-.6v.6h.6l-.5.3Z"/><polygon class="cls-3" points="19.3 6.2 19.2 5.6 19 6.2 18.4 6.2 18.9 6.5 18.7 7 19.2 6.7 19.6 7 19.4 6.5 19.9 6.2 19.3 6.2"/><path class="cls-2" d="M25.9,5.2l-.2-.8-.3.8h-.7l.6.4-.2.8.6-.5.6.5-.2-.8.6-.4Zm.2.9-.4-.3-.4.3V5.6L25,5.3h.5l.2-.5v.5h.6l-.5.3Z"/><polygon class="cls-3" points="25.8 5.3 25.7 4.8 25.5 5.3 25 5.3 25.4 5.6 25.3 6.1 25.7 5.8 26.1 6.1 25.9 5.6 26.4 5.3 25.8 5.3"/><path class="cls-2" d="M23,11.6l-.3-1-.3,1h-1l.8.5-.3.9.8-.5.8.5-.3-.9.8-.5Zm.2,1.1-.5-.4-.5.4.2-.6-.6-.4h.7l.2-.6.2.6h.6l-.5.4Z"/><polygon class="cls-3" points="22.9 11.7 22.7 11.1 22.5 11.7 21.8 11.7 22.4 12.1 22.2 12.7 22.7 12.3 23.2 12.7 23 12.1 23.5 11.7 22.9 11.7"/><polygon class="cls-2" points="6.7 2.4 6.7 0 6.2 0 6.2 2.2 6.7 2.4"/><polygon class="cls-2" points="11.7 4.9 15.1 4.9 15.1 4.4 10.7 4.4 11.7 4.9"/><polygon class="cls-2" points="8.2 7.4 8.7 7.4 8.7 5.1 8.2 4.9 8.2 7.4"/><polygon class="cls-2" points="15.1 2.9 15.1 2.4 11.7 2.4 10.7 2.9 15.1 2.9"/><polygon class="cls-2" points="8.7 2.2 8.7 0 8.2 0 8.2 2.4 8.7 2.2"/><path class="cls-2" d="M3.2,2.4H0v.4H4.2Z"/><polygon class="cls-2" points="6.2 5.1 6.2 7.4 6.7 7.4 6.7 4.9 6.2 5.1"/><polygon class="cls-2" points="4.2 4.4 0 4.4 0 4.9 3.2 4.9 4.2 4.4"/><path class="cls-2" d="M4.2,2.9H6.7V2.4l-.5-.2L2,.1a1.5,1.5,0,0,0-.9.4L4.9,2.4H3.8L.7.8.5,1,3.2,2.4Z"/><polygon class="cls-2" points="8.2 4.4 8.2 4.9 8.7 5.1 13.4 7.4 15.1 7.4 10 4.9 11.1 4.9 15.1 6.9 15.1 6.6 11.7 4.9 10.7 4.4 8.2 4.4"/><polygon class="cls-2" points="8.2 2.4 8.2 2.9 10.7 2.9 11.7 2.4 15.1 0.7 15.1 0 14.8 0 10 2.4 8.9 2.4 13.6 0 13.1 0 8.7 2.2 8.2 2.4"/><polygon class="cls-2" points="6.1 4.9 1 7.4 1.6 7.4 6.2 5.1 6.7 4.9 6.7 4.4 4.2 4.4 3.2 4.9 0 6.5 0 7.3 4.9 4.9 6.1 4.9"/><polygon class="cls-4" points="6.7 4.4 6.7 4.9 6.7 7.4 8.2 7.4 8.2 4.9 8.2 4.4 10.7 4.4 15.1 4.4 15.1 2.9 10.7 2.9 8.2 2.9 8.2 2.4 8.2 0 6.7 0 6.7 2.4 6.7 2.9 4.2 2.9 0 2.9 0 4.4 4.2 4.4 6.7 4.4"/><path class="cls-4" d="M4.9,2.4,1.1.5.7.8,3.8,2.4Z"/><polygon class="cls-4" points="10 2.4 14.8 0 13.6 0 8.9 2.4 10 2.4"/><polygon class="cls-4" points="10 4.9 15.1 7.4 15.1 6.9 11.1 4.9 10 4.9"/><polygon class="cls-4" points="6.1 4.9 4.9 4.9 0 7.3 0 7.4 1 7.4 6.1 4.9"/></g></svg>