<svg xmlns="http://www.w3.org/2000/svg" viewBox="0 0 30 20"><defs><style>.cls-1{fill:#f6e331;}.cls-2{fill:#273476;}.cls-3{fill:#fff;}.cls-4{fill:#d0202d;}.cls-5{fill:#ce2028;}.cls-6{fill:#263779;}.cls-7{fill:#f6e012;}</style></defs><title>nu</title><g id="Layer_68" data-name="Layer 68"><path class="cls-1" d="M27.4,0H15V7.5H0v10A2.5,2.5,0,0,0,2.6,20H27.4A2.5,2.5,0,0,0,30,17.5V2.5A2.5,2.5,0,0,0,27.4,0Z"/><path class="cls-2" d="M.5,1.1A2.2,2.2,0,0,0,0,2.5H3.2Z"/><polygon class="cls-2" points="1.6 7.5 6.2 7.5 6.2 5.2 1.6 7.5"/><polygon class="cls-2" points="0 5 0 6.6 3.2 5 0 5"/><polygon class="cls-2" points="8.7 7.5 13.3 7.5 8.7 5.2 8.7 7.5"/><path class="cls-2" d="M6.2,0H1.9L6.2,2.2Z"/><polygon class="cls-2" points="15 6.6 15 5 11.7 5 15 6.6"/><polygon class="cls-2" points="15 2.5 15 0.8 11.7 2.5 15 2.5"/><polygon class="cls-2" points="13.2 0 8.7 0 8.7 2.2 13.2 0"/><polygon class="cls-3" points="6.2 5 6.1 5 1 7.5 1.6 7.5 6.2 5.2 6.2 5"/><polygon class="cls-3" points="3.2 5 0 6.6 0 7.4 4.9 5 3.2 5"/><polygon class="cls-3" points="11.7 2.5 15 0.8 15 0 14.9 0 10 2.5 11.7 2.5"/><polygon class="cls-3" points="8.7 2.5 8.8 2.5 13.8 0 13.2 0 8.7 2.2 8.7 2.5"/><polygon class="cls-3" points="11.1 5 15 6.9 15 6.6 11.7 5 11.1 5"/><polygon class="cls-3" points="8.7 5 8.7 5.2 13.3 7.5 15 7.5 10 5 8.7 5"/><path class="cls-3" d="M6.2,2.5V2.2L1.9.1,1,.5l3.9,2Z"/><path class="cls-3" d="M3.8,2.5.6.9a.3.3,0,0,0-.1.2L3.2,2.5Z"/><polygon class="cls-3" points="8.7 2.5 8.7 2.2 8.7 0 8.2 0 8.2 2.5 8.7 2.5"/><polygon class="cls-3" points="6.2 5 6.2 5.2 6.2 7.5 6.7 7.5 6.7 5 6.2 5"/><polygon class="cls-3" points="6.2 2.5 6.7 2.5 6.7 0 6.2 0 6.2 2.2 6.2 2.5"/><polygon class="cls-3" points="8.7 5 8.2 5 8.2 7.5 8.7 7.5 8.7 5.2 8.7 5"/><path class="cls-3" d="M4.9,5H6.7V4.7l-.3-.2H0V5H4.9Z"/><path class="cls-3" d="M10,2.5H8.2v.2l.3.3H15V2.5H10Z"/><path class="cls-3" d="M8.5,4.5l-.3.2V5H15V4.5Z"/><path class="cls-3" d="M6.4,3l.3-.3V2.5H0V3Z"/><path class="cls-4" d="M8.5,3c0,.1.1.2.1.3h0a.8.8,0,0,1,.1.4,1.9,1.9,0,0,1-.2.8H15V3Zm3.2.6.2-.6v.6h.6l-.5.3.2.5-.4-.3-.5.3.2-.5-.5-.3Z"/><path class="cls-4" d="M6.4,4.5a1.9,1.9,0,0,1-.2-.8.8.8,0,0,1,.1-.4h0c0-.1.1-.2.1-.3H0V4.5ZM3.5,4.4,3,4.1l-.4.3.2-.5-.5-.3h.6V3l.2.6h.6l-.5.3Z"/><path class="cls-5" d="M6.7,2.7l.8-.2.7.2V0H6.7V2.7Zm.6-1.6L7.5.5v.6h.6l-.5.3.2.5-.4-.3L7,1.9l.2-.5-.5-.3Z"/><path class="cls-5" d="M8.2,4.7h0a1.1,1.1,0,0,1-.7.3,1.1,1.1,0,0,1-.8-.3h0V7.5H8.2V4.7ZM7.9,6.9l-.4-.3L7,6.9l.2-.5-.5-.3h.6l.2-.6v.6h.6l-.5.3Z"/><polygon class="cls-4" points="6.1 5 4.9 5 0 7.4 0 7.5 1 7.5 6.1 5"/><polygon class="cls-4" points="10 2.5 14.9 0 13.8 0 8.8 2.5 10 2.5"/><polygon class="cls-4" points="10 5 15 7.5 15 6.9 11.1 5 10 5"/><path class="cls-4" d="M4.9,2.5,1,.5C.9.6.7.7.6.9L3.8,2.5Z"/><path class="cls-6" d="M7.2,3.3l.3-.8-.8.2L6.4,3c0,.1-.1.2-.1.3Z"/><path class="cls-6" d="M7.9,3.9l.3.8h0l.3-.2a1.9,1.9,0,0,0,.2-.8.8.8,0,0,0-.1-.4Z"/><path class="cls-6" d="M7.7,3.3h.9c0-.1-.1-.2-.1-.3l-.3-.3-.7-.2Z"/><path class="cls-6" d="M7,3.9l-.7-.6a.8.8,0,0,0-.1.4,1.9,1.9,0,0,0,.2.8l.3.2h0Z"/><path class="cls-6" d="M7.5,4.2l-.8.5a1.1,1.1,0,0,0,.8.3,1.1,1.1,0,0,0,.7-.3Z"/><polygon class="cls-7" points="7 3.9 6.7 4.7 6.7 4.7 6.7 4.7 7.5 4.2 8.2 4.7 8.2 4.7 8.2 4.7 7.9 3.9 8.6 3.3 8.6 3.3 8.6 3.3 7.7 3.3 7.5 2.5 7.2 3.3 6.3 3.3 6.3 3.3 6.3 3.3 7 3.9"/><polygon class="cls-7" points="7.6 6.1 7.5 5.5 7.3 6.1 6.7 6.1 7.2 6.4 7 6.9 7.5 6.6 7.9 6.9 7.7 6.4 8.2 6.1 7.6 6.1"/><polygon class="cls-7" points="7 1.9 7.5 1.6 7.9 1.9 7.7 1.4 8.2 1.1 7.6 1.1 7.5 0.5 7.3 1.1 6.7 1.1 7.2 1.4 7 1.9"/><polygon class="cls-7" points="3.2 3.6 3 3 2.9 3.6 2.3 3.6 2.8 3.9 2.6 4.4 3 4.1 3.5 4.4 3.3 3.9 3.8 3.6 3.2 3.6"/><polygon class="cls-7" points="11.4 4.4 11.9 4.1 12.3 4.4 12.1 3.9 12.6 3.6 12 3.6 11.9 3 11.7 3.6 11.1 3.6 11.6 3.9 11.4 4.4"/></g></svg>