<svg xmlns="http://www.w3.org/2000/svg" viewBox="0 0 30 20"><defs><style>.cls-1{fill:#1f449b;}.cls-2{fill:#ce2931;}.cls-3{fill:#fafafa;}.cls-4{fill:#fbd118;}</style></defs><title>ph</title><g id="Layer_58" data-name="Layer 58"><path class="cls-1" d="M27.4,0H2.6A2.5,2.5,0,0,0,.9.6L17.4,10H30V2.5A2.5,2.5,0,0,0,27.4,0Z"/><path class="cls-2" d="M.9,19.4a2.5,2.5,0,0,0,1.7.6H27.4A2.5,2.5,0,0,0,30,17.5V10H17.4Z"/><path class="cls-3" d="M.9.6A2.5,2.5,0,0,0,0,2.5v15a2.5,2.5,0,0,0,.9,1.9L17.4,10ZM1,2.4.8,1.5l.6.6.8-.4-.3.8.6.6H1.6l-.3.8-.2-.9H.2ZM2.2,18.1l-.8-.4-.6.6.2-.9-.8-.5h.9l.2-.9.3.8h.9l-.6.6Zm7.4-7.7-1.8-.2v.2l1.5.2-.3.3-1.3-.4h0a1.4,1.4,0,0,1-.2.6l1.1.6v.4l-1.3-.9c0,.1,0,.1-.1.1l1.4,1V13H8.2L7,11.6H6.9L7.8,13H7.4l-.6-1.1h0l-.6.2.4,1.3-.3.3L6,12.1H5.9l.2,1.7-.4.4-.4-.3.2-1.8H5.3l-.2,1.5-.3-.3.4-1.2h0l-.6-.3-.7,1.1H3.6l.8-1.3H4.3l-1,1.3H2.7v-.6L4,11.3H3.9l-1.2.9v-.4l1.1-.6h0c-.1-.2-.1-.4-.2-.6l-1.2.4-.3-.3,1.5-.2v-.2l-1.7.2L1.4,10l.4-.4,1.8.2V9.6L2.1,9.4l.3-.3,1.2.4h0c.1-.2.1-.4.2-.6L2.7,8.3V7.9l1.2.9H4L2.7,7.6V7h.6L4.3,8.4h.1L3.6,7h.3l.7,1.1h0l.6-.3L4.8,6.7l.3-.3.2,1.5h.2L5.3,6.2l.4-.4.4.3L5.9,7.9h.2l.2-1.5.3.3L6.2,8h0l.6.3.7-1.1h.3L7,8.3h.1l1-1.3h.7v.5L7.4,8.7h0L8.7,8v.3L7.5,9a.8.8,0,0,1,.2.5L9,9.2l.3.2-1.5.3h0l1.7-.2.4.4Zm4.3,0-.9.3.5-.7L13,9.3l.9.3.5-.8v.9l.9.3-.9.3v.9Z"/><polygon class="cls-4" points="1.6 16.8 1.3 16 1.1 16.9 0.2 16.9 1 17.4 0.8 18.3 1.4 17.7 2.2 18.1 1.9 17.3 2.5 16.7 1.6 16.8"/><path class="cls-4" d="M2.7,7.9v.4l1.1.6h.1Z"/><path class="cls-4" d="M4.6,8.2,3.9,7.1H3.6l.8,1.3Z"/><path class="cls-4" d="M4.3,8.4,3.2,7H2.6v.6L4,8.7Z"/><path class="cls-4" d="M5.1,6.4l-.3.3.4,1.2h.1Z"/><path class="cls-4" d="M6.2,8l.4-1.3-.3-.3L6.1,7.9h.1Z"/><path class="cls-4" d="M5.9,7.9l.2-1.8-.4-.3-.4.4.2,1.7h.4Z"/><path class="cls-4" d="M8.7,8.3V8l-1.3.8V9Z"/><path class="cls-4" d="M7.4,8.7,8.8,7.6V7.1H8.1l-1,1.3Z"/><path class="cls-4" d="M7.8,7.1H7.5L6.8,8.2H7Z"/><path class="cls-4" d="M9.5,9.6l-1.7.2v.4l1.8.2.3-.4Z"/><path class="cls-4" d="M9.3,9.4,9,9.2l-1.3.3c.1,0,.1.1.1.2Z"/><path class="cls-4" d="M7.7,10.5l1.3.4.3-.3-1.5-.2Z"/><path class="cls-4" d="M7,11.6,8.2,13h.5v-.7l-1.4-1Z"/><path class="cls-4" d="M8.7,12.1v-.4l-1.1-.6H7.4Z"/><path class="cls-4" d="M6.8,11.8l.6,1.1h.4l-.9-1.3a.1.1,0,0,1-.1.1Z"/><path class="cls-4" d="M5.2,12.1l-.4,1.2.3.3.2-1.5Z"/><path class="cls-4" d="M6.3,13.6l.3-.3L6.2,12H6Z"/><path class="cls-4" d="M5.5,12.1l-.2,1.8.4.3.4-.4-.2-1.7H5.5Z"/><path class="cls-4" d="M3.6,13h.3l.7-1.1H4.4Z"/><path class="cls-4" d="M4,11.3,2.6,12.4V13h.6l1-1.3Z"/><path class="cls-4" d="M3.8,11.1l-1.1.6v.4l1.2-.9Z"/><path class="cls-4" d="M3.6,9.8,1.8,9.6l-.4.4.5.4,1.7-.2V9.8Z"/><path class="cls-4" d="M3.6,9.5,2.4,9.1l-.3.3,1.5.2Z"/><path class="cls-4" d="M2.1,10.6l.3.3,1.2-.4h0Z"/><path class="cls-4" d="M7.8,9.8h0c0-.1,0-.2-.1-.2A.8.8,0,0,0,7.5,9V8.8h0l-.3-.3H6.8l-.6-.3h-1l-.6.3H4.3L4,8.7H3.8c-.1.2-.1.4-.2.6h0v.8h0c.1.2.1.4.2.6H4l.3.3h.3l.6.3h1l.6-.2a.1.1,0,0,0,.1-.1H7l.3-.3c.1,0,.1,0,.1-.1h.1a1.4,1.4,0,0,0,.2-.6h.1V9.8Z"/><polygon class="cls-4" points="15.3 10 14.4 9.7 14.4 8.8 13.9 9.6 13 9.3 13.5 10 13 10.7 13.9 10.4 14.4 11.2 14.4 10.3 15.3 10"/><polygon class="cls-4" points="1.3 3.8 1.6 3 2.5 3.1 1.9 2.5 2.2 1.7 1.4 2.1 0.8 1.5 1 2.4 0.2 2.8 1.1 2.9 1.3 3.8"/></g></svg>