<svg id="Flags" xmlns="http://www.w3.org/2000/svg" viewBox="0 0 30 20"><defs><style>.cls-1{fill:#ec2f36;}.cls-2{fill:#fafafa;}.cls-3{fill:#3d5eab;}.cls-4{fill:#fff;}</style></defs><title>Artboard 64</title><path class="cls-1" d="M6.4,16.3.9,19.4a2.5,2.5,0,0,0,1.6.6h25A2.5,2.5,0,0,0,30,17.5V16.3Z"/><polygon class="cls-1" points="17.3 10 13.5 12.2 30 12.2 30 7.9 13.7 7.9 17.3 10"/><path class="cls-1" d="M30,3.8V2.5A2.5,2.5,0,0,0,27.5,0H2.5A2.5,2.5,0,0,0,.9.6L6.6,3.8Z"/><polygon class="cls-2" points="13.7 7.9 30 7.9 30 3.8 6.6 3.8 13.7 7.9"/><polygon class="cls-2" points="6.4 16.3 30 16.3 30 12.2 13.5 12.2 6.4 16.3"/><path class="cls-3" d="M13.5,12.2,17.3,10,13.7,7.9,6.6,3.8.9.6A2.5,2.5,0,0,0,0,2.5v15a2.5,2.5,0,0,0,.9,1.9l5.5-3.1ZM2.4,9H4.8l.8-2.4L6.4,9H8.8l-2,1.4.8,2.3-2-1.4-2,1.4.8-2.3Z"/><polygon class="cls-4" points="8.8 9 6.4 9 5.6 6.6 4.8 9 2.4 9 4.4 10.4 3.6 12.7 5.6 11.3 7.6 12.7 6.8 10.4 8.8 9"/></svg>