<svg id="Flags" xmlns="http://www.w3.org/2000/svg" viewBox="0 0 30 20"><defs><style>.cls-1{fill:#08407d;}.cls-2{fill:#fff;}.cls-3{fill:#e03a3e;}.cls-4{fill:#fff100;}.cls-5{fill:#009a67;}.cls-6{fill:#d4d5d6;}.cls-7{fill:#4d8fcc;}.cls-8{fill:#e6e6e6;}.cls-9{fill:#00ac8d;}</style></defs><title>pn</title><polygon class="cls-1" points="13.2 0 8.7 0 8.7 2.2 13.2 0"/><path class="cls-1" d="M.4,1.1A3.3,3.3,0,0,0,0,2.5H3.2Z"/><path class="cls-1" d="M23.2,6.9h0Z"/><path class="cls-1" d="M27.4,0H15V.9L11.8,2.5H15V5H11.8L15,6.6v.9H13.2L8.7,5.3V7.5H6.2V5.3L1.8,7.5H0v10A2.5,2.5,0,0,0,2.6,20H27.4A2.5,2.5,0,0,0,30,17.5V2.5A2.5,2.5,0,0,0,27.4,0Zm-.5,5a.6.6,0,0,1-.8-.4.4.4,0,0,1-.5.1c0,.1.1.1.1.2a2.9,2.9,0,0,1,.2.9c0,.2.1.3.1.1s.3-.3.3-.4a.1.1,0,0,1,0,.2c.2-.2.4,0,.5,0s-.1.3-.4.4h.3c-.2,0-.2.1-.3.2a.5.5,0,0,0-.5.3,1,1,0,0,1-1.4.2c-.1-.1-.3,0-.1.1a2.7,2.7,0,0,0,1.3.5c1,.2,1.1.9.6,1.4s-.1.5-.5.5,0-.3.1-.4h-.4c.1.6.4.8.7.6s-.4.5-.8.2a1.2,1.2,0,0,1-.4,1.1h-.1c0,.1.1.3-.1.4v.3c0,.1,0,.4.1.4a.2.2,0,0,1-.3,0c0,.1-.2.1-.2,0l-.2-.2c0,.1-.1,0-.1-.2h-.2l.4-.3h.2c0-.2.2-.3.3-.4h0a.4.4,0,0,0,.1-.5A.6.6,0,0,1,25,10a.4.4,0,0,1-.6-.4c.2.1.6.2.7-.2V9.2H25a1.7,1.7,0,0,0-.6-.6V9.6h-.1v.2h0v.2h-.1v.2h0v.2h0a3.5,3.5,0,0,1-1.6,1.6,3.5,3.5,0,0,1-1.6-1.6h0c0-.1,0-.1-.1-.2h0v-.2h-.1V10h-.1V9.7h0V8.5a1.6,1.6,0,0,0-.4.7h0a1.1,1.1,0,0,0-.1.5c.1.1.3,0,.5-.1s-.3.6-.5.4.1.8.2.9h.1c0,.1.2.1.2.3h.1l.4.3h-.2c.1.2,0,.3-.1.2h-.6c.1,0,.1-.3.1-.4v-.3c-.1,0,0-.2-.1-.3h0a1.4,1.4,0,0,1-.6-1.1c-.1.3-.6.2-.6-.2s.6,0,.8-.7h-.3c0,.2,0,.4-.2.5s-.3-.3-.3-.6a.7.7,0,0,1,0-1.1c.7-.6,1.4-.4,1.9-.8h-.1c-.6.3-1.3.1-1.4-.3a.5.5,0,0,0-.5-.3c-.2,0-.3-.1-.5-.3h.3c-.2-.1-.4-.3-.3-.5h.5a.4.4,0,0,1,.1-.3c0,.2.2.2.3.6a4.3,4.3,0,0,0,.2-1.2h-.3c0,.3-.2.5-.5.4s0-.4.2-.5-.3,0-.3-.2.4-.4.7-.3.4-.2.7,0a.7.7,0,0,1,.1.5h0l-.3,1.1c.5-.8.8-.7,1.1-.9a.4.4,0,0,1-.1.3h.7c-.2.3-.4.5-.7.5a.4.4,0,0,1-.2.5.2.2,0,0,0-.3-.3c-.1.1-.6.3-.6.8A1.9,1.9,0,0,0,21.5,6H21a1.5,1.5,0,0,1,.6-.5h0c0-.1.1-.1,0-.2h.1a.1.1,0,0,1,.1.1V4.7a.3.3,0,0,1-.3-.3.3.3,0,0,1,.1-.2h0V4l.3-.2h.7a.8.8,0,0,1-.2-.4h-.2a.2.2,0,0,0-.2.2c-.1,0-.1-.2-.1-.3h0c.1-.1.1-.1.1-.2s.3-.1.4,0V2.7c-.4-.2-.8.3-.8.6s-.2-.1-.1-.2.1-.2.1-.3.2-.1.2-.2h.3a.4.4,0,0,1,.4.2h0a.4.4,0,0,1-.1.3h.3V2.7c.1,0,.1.2.1.2a.1.1,0,0,1,.1-.1h.2l.5.2c.1,0,.1.1,0,.1h-.1c-.1-.1-.2,0-.4,0h-.2a.1.1,0,0,0-.1-.1s-.1.1-.1,0a.1.1,0,0,1,.1-.1c-.2-.1-.3,0-.3.1s0,.1,0,.2h0a.8.8,0,0,0,.2.4l.9-.5h0l-.5.5h.3l.7-.4H24a4.3,4.3,0,0,0-.7,1h.3v.2a.1.1,0,0,1,.1.1v.2h0a2.6,2.6,0,0,0,.7,1.1.8.8,0,0,0,1.2-.1c0-.6-.8-.8-.8-.4s-.4-.3-.3-.5-.6-.2-.5-.5.5-.1.7.1a.2.2,0,0,1,.1-.4c0,.4.6.5.7.9s-.5-.8-.3-1.3a.5.5,0,0,1,.8-.2c.5-.3.6.3,1,.2s-.1.2-.3.2S26.6,4.9,26.9,5Z"/><path class="cls-1" d="M21.8,4.3h0Z"/><path class="cls-1" d="M23.3,6.9h0Z"/><path class="cls-1" d="M22,4.7h0Z"/><path class="cls-1" d="M22.7,5.1h0Z"/><path class="cls-1" d="M23.1,5.1h0Z"/><path class="cls-1" d="M22.3,5Z"/><path class="cls-1" d="M23.4,5.3Z"/><path class="cls-1" d="M23.9,7.3h-.2c.1,0,0,.1,0,.2h-1l.5-.4-.6.5h1.3Z"/><path class="cls-1" d="M24.5,6.9h0Z"/><path class="cls-1" d="M23.4,5.1Z"/><path class="cls-1" d="M21.8,4.7h0Z"/><path class="cls-1" d="M23.4,5.3Z"/><path class="cls-1" d="M23.6,5.4a.1.1,0,0,1-.1-.1A.1.1,0,0,0,23.6,5.4Z"/><path class="cls-1" d="M25.5,6.7h0Z"/><path class="cls-1" d="M23.4,5.3Z"/><path class="cls-1" d="M25.5,6.5h0v.1Z"/><path class="cls-1" d="M6.2,0H2L6.2,2.2Z"/><polygon class="cls-1" points="0 5 0 6.6 3.2 5 0 5"/><path class="cls-1" d="M25.7,4.2Z"/><path class="cls-1" d="M25.6,4.6c.2-.1.2-.2.1-.3S25.6,4.4,25.6,4.6Z"/><path class="cls-1" d="M21.8,7.4Z"/><path class="cls-1" d="M19.1,8.3Z"/><path class="cls-1" d="M21.8,7.5h0Z"/><path class="cls-1" d="M23.4,5.3Z"/><path class="cls-1" d="M21.9,7.7h0a.1.1,0,0,0-.1-.1A.1.1,0,0,1,21.9,7.7Z"/><path class="cls-1" d="M19.5,8.1c.1.1.2.3.1.4h.3a1.3,1.3,0,0,1,.6-.7.1.1,0,0,1,.1-.1V7.6a5.3,5.3,0,0,0-1.5.8C19.3,8.4,19.5,8.3,19.5,8.1Z"/><path class="cls-1" d="M25.3,8.7h.4c-.2,0-.2-.3,0-.4a.4.4,0,0,0,.4.3c.1,0,.1-.1,0-.2a13,13,0,0,0-1.7-.8v.2A2.8,2.8,0,0,1,25.3,8.7Z"/><path class="cls-1" d="M22,7.7h0Z"/><path class="cls-1" d="M22.5,7.4Z"/><path class="cls-1" d="M22.1,7.6Z"/><path class="cls-1" d="M23.5,5.3h0Z"/><path class="cls-1" d="M21.9,4.4h0v.2H22V4.4Z"/><path class="cls-1" d="M21.8,4.4h-.1c-.1,0-.1,0-.1.1h.2Z"/><path class="cls-1" d="M20,9.4h0Z"/><path class="cls-1" d="M20,9.5Z"/><path class="cls-1" d="M20,9.6Z"/><path class="cls-1" d="M21.8,4.4h.1V4.4Z"/><path class="cls-1" d="M20.1,9.7h0Z"/><path class="cls-1" d="M19.5,4.1c0,.1-.1.3.1.3a.4.4,0,0,0-.1-.3h0Z"/><polygon class="cls-2" points="8.2 7.5 8.7 7.5 8.7 5.3 13.2 7.5 15 7.5 10 5 11.2 5 15 6.9 15 6.6 11.8 5 15 5 15 4.5 8.2 4.5 8.2 7.5"/><path class="cls-2" d="M6.8,0H6.2V2.2L2,.1,1,.5l4,2H3.8L.6.9l-.2.2L3.2,2.5H0V3H6.8Z"/><polygon class="cls-2" points="6.2 5 1.2 7.5 1.8 7.5 6.2 5.3 6.2 7.5 6.8 7.5 6.8 4.5 0 4.5 0 5 3.2 5 0 6.6 0 6.7 0 7.5 5 5 6.2 5"/><polygon class="cls-2" points="15 3 15 2.5 11.8 2.5 15 0.9 15 0 10 2.5 8.8 2.5 13.8 0 13.2 0 8.7 2.2 8.7 0 8.2 0 8.2 3 15 3"/><polygon class="cls-3" points="10 2.5 15 0 13.8 0 8.8 2.5 10 2.5"/><polygon class="cls-3" points="10 5 15 7.5 15 6.9 11.2 5 10 5"/><path class="cls-3" d="M5,2.5,1,.5.6.9,3.8,2.5Z"/><polygon class="cls-3" points="6.2 5 5 5 0 7.5 1.2 7.5 6.2 5"/><polygon class="cls-3" points="6.8 7.5 8.2 7.5 8.2 4.5 15 4.5 15 3 8.2 3 8.2 0 6.8 0 6.8 3 0 3 0 4.5 6.8 4.5 6.8 7.5"/><path class="cls-4" d="M19.9,8.6H20a1.6,1.6,0,0,1,.5-.8A1.3,1.3,0,0,0,19.9,8.6Z"/><path class="cls-4" d="M20.1,9.7H20V9.1h-.2c-.2.7-.4.8-.8.7s.5.5.6.2a1.4,1.4,0,0,0,.6,1.1h.1c-.1-.1-.1-.6-.2-.9s.5.1.5-.4-.4.2-.5.1Z"/><path class="cls-4" d="M19.5,4.1h.2c.2-.1.4,0,.4.4a.7.7,0,0,0-.1-.5c-.3-.2-.5-.2-.7,0s-.4.4-.7.3.1.2.3.2,0,.3-.2.5.5-.1.5-.4h.4C19.4,4.4,19.5,4.2,19.5,4.1Z"/><path class="cls-5" d="M19.7,6.5c0-.5.5-.7.6-.8a.2.2,0,0,1,.3.3.4.4,0,0,0,.2-.5c.3,0,.5-.2.7-.5h-.7a.4.4,0,0,0,.1-.3c-.3.2-.6.1-1.1.9l.3-1.1h0c0-.4-.2-.5-.4-.4h-.2a.4.4,0,0,1,.1.3h-.1a4.3,4.3,0,0,1-.2,1.2c-.1-.4-.3-.4-.3-.6a.4.4,0,0,0-.1.3h-.5c-.1.2.1.4.3.5h-.3c.2.2.3.3.5.3a.5.5,0,0,1,.5.3c.1.4.8.6,1.4.3A.7.7,0,0,1,19.7,6.5Z"/><path class="cls-4" d="M19,8.3h.1a5.3,5.3,0,0,1,1.5-.8V7.3h.6a1.6,1.6,0,0,0,.6-.8l-.2-.3a1.5,1.5,0,0,1-.6.5c0-.1.1-.1.1-.2H19.7a.7.7,0,0,0,1.1.4h.1c-.5.4-1.2.2-1.9.8A.5.5,0,0,0,19,8.3Z"/><path class="cls-5" d="M20.5,7.9a1.6,1.6,0,0,0-.5.8.8.8,0,0,1,.2.5,1.6,1.6,0,0,1,.4-.7V7.8A.1.1,0,0,0,20.5,7.9Z"/><polygon class="cls-5" points="21.8 7.4 21.8 7.4 21.8 7.4 21.8 7.4"/><path class="cls-5" d="M22,6.8l-.2-.3a1.6,1.6,0,0,1-.6.8h.6C21.8,7.1,21.8,6.9,22,6.8Z"/><path class="cls-5" d="M20,9.1v.3h.1a1.1,1.1,0,0,1,.1-.5Z"/><path class="cls-5" d="M21.1,6.5c0,.1-.1.1-.1.2a1.5,1.5,0,0,0,.6-.5c0-.1-.1-.1-.1-.2a1.9,1.9,0,0,1-1.8.5Z"/><path class="cls-5" d="M20,8.7h-.4c.1-.1,0-.3-.1-.4s-.2.3-.4.3H19a.5.5,0,0,1,0-.6.7.7,0,0,0,0,1.1c0,.3.3.3.3.6s.2-.3.2-.5h.7A.8.8,0,0,0,20,8.7Z"/><path class="cls-4" d="M20.2,11h0c.1.1,0,.3.1.3h.3c0-.2-.2-.2-.2-.3h-.2Z"/><path class="cls-4" d="M20.4,11.4h-.1v.3c0,.1,0,.4-.1.4h.6c.1.1.2,0,.1-.2h.2l-.4-.3h-.3Z"/><path class="cls-3" d="M23.6,7.3c0-.2,0-.4-.2-.4h-.2l-.5.4Z"/><path class="cls-6" d="M23.1,5.2h0Z"/><path class="cls-6" d="M23.1,5.2h0Z"/><path class="cls-6" d="M23.1,5.2Z"/><path class="cls-6" d="M23.4,5.3Z"/><path class="cls-6" d="M22.7,5.1h0Z"/><path class="cls-6" d="M23.1,5.2Z"/><path class="cls-6" d="M23.5,6.7V6.2h-.2a.6.6,0,0,1,.1.4Z"/><path class="cls-6" d="M21.8,6.5l.2.3c-.2.1-.2.3-.2.5h0a.1.1,0,0,1,.1.1H22a.1.1,0,0,0,.1-.1h0l.4-.2h.1l.6-.5h.2c.2,0,.2.2.2.4h.1c0-.1.1-.2,0-.2h-.5V6.3c-.3.1-.6-.1-.4-.5a.2.2,0,0,0,.4-.1h0c-.1-.1-.6.1-.8.2s-.3.1-.2.4-.1-.2-.2-.2.1.2.1.4a1.1,1.1,0,0,0-.2-.5,4.3,4.3,0,0,1,.2,1.1h.4l-.5.2v.4a2,2,0,0,1,.1-.5,1.7,1.7,0,0,0-.5-1.2.5.5,0,0,0,.6-.1c.2-.1.9-.4,1.1-.3a.2.2,0,0,0-.2-.2H21.6a1.5,1.5,0,0,0-.6.5h.5c0,.1.1.1.1.2Zm-.6-.7.3-.2h-.3Z"/><path d="M23.2,5.5c-.2-.1-.9.2-1.1.3a.5.5,0,0,1-.6.1A1.7,1.7,0,0,1,22,7.1a2,2,0,0,0-.1.5V7.2l.5-.2h-.4A4.3,4.3,0,0,0,21.9,6a1.1,1.1,0,0,1,.2.5c0-.2,0-.4-.1-.4s.1.1.2.2,0-.4.2-.4.7-.3.8-.2Z"/><path d="M23,6.8h.4v.5h-.2a.6.6,0,0,0-.1-.4h0v.4Z"/><path class="cls-3" d="M22,5.7h-.5l-.3.2Z"/><path class="cls-5" d="M25.2,9.1a.4.4,0,0,1-.1.3c-.1.4-.5.3-.7.2a.4.4,0,0,0,.6.4.6.6,0,0,0-.1.4.4.4,0,0,1-.1.5h.1v.2a1.2,1.2,0,0,0,.4-1.1c.4.3.7.2.8-.2s-.6,0-.7-.6h-.3Z"/><path class="cls-5" d="M24.4,7.7h0a3.1,3.1,0,0,1,.8,1h.1A2.8,2.8,0,0,0,24.4,7.7Z"/><path class="cls-4" d="M24.4,7.8v.7a1.7,1.7,0,0,1,.6.6l.2-.3A3.1,3.1,0,0,0,24.4,7.8Z"/><path class="cls-4" d="M25.1,9.2v.2a.4.4,0,0,0,.1-.3Z"/><path class="cls-5" d="M24.2,10.4h0Z"/><path class="cls-5" d="M20.7,10.3h0Z"/><path class="cls-5" d="M20.9,10.8a3.5,3.5,0,0,0,1.6,1.6,3.5,3.5,0,0,0,1.6-1.6l-1.6-3Zm2.3-.7h-.6v1.6l.5-.4H23c.1-.1.4-.1.5-.3a1.3,1.3,0,0,1-.1.6h-.2c-.2.3-.6.5-.7.7s-.7-.5-.8-.8h-.1c-.1-.1-.1-.5-.1-.6s.4.1.5.5h-.2c.2.2.5.1.6.4V10.2h-.6V9.9h.5a.2.2,0,0,1,0-.4h.2v.5h.5C23.2,9.9,23.2,10,23.2,10.1Zm-.4-1.5v.6h-.7V8.7h.7Z"/><path class="cls-5" d="M24.4,9.2v0Z"/><path class="cls-5" d="M22.2,9.7c0,.1,0,.1.1.1h.1V9.6h-.1C22.2,9.5,22.2,9.6,22.2,9.7Z"/><path class="cls-5" d="M20.6,9.6v0Z"/><path class="cls-5" d="M20.6,9.9v0Z"/><path class="cls-5" d="M21.8,7.6h0Z"/><path class="cls-5" d="M20.7,10.2v0Z"/><path class="cls-5" d="M21.8,7.4Z"/><path class="cls-5" d="M20.8,10.6Z"/><path class="cls-5" d="M24.3,9.7v0Z"/><path class="cls-5" d="M24.3,10v0Z"/><path class="cls-5" d="M24.1,10.6Z"/><path class="cls-5" d="M21.8,7.6a.1.1,0,0,1,.1.1h0a.1.1,0,0,0-.1-.1Z"/><path class="cls-7" d="M24.1,10.6Z"/><path class="cls-7" d="M20.8,10.6Z"/><path class="cls-7" d="M24.4,7.7V7.5H22.5l-.4.2h0a.1.1,0,0,1-.1.1h-.1a.1.1,0,0,0-.1-.1H20.6V9.6h0v.2h.1v.2h.1l1.6-2.9h.1l1.7,3h.1V10h0V9.7h.1V7.8Z"/><path class="cls-4" d="M22.5,7.4h-.1l-1.6,2.9h0v.2h0c.1.1.1.1.1.2h0l1.6-3,1.6,3h0v-.2h0v-.2h0Z"/><path class="cls-4" d="M22.4,10.2v1.6c-.1-.3-.4-.2-.6-.4H22c-.1-.4-.4-.4-.5-.5s0,.5.1.6h.1c.1.3.7.3.8.8s.5-.4.7-.7h.2a1.3,1.3,0,0,0,.1-.6c-.1.2-.4.2-.5.3h.1l-.5.4V10.2h-.2Z"/><path class="cls-4" d="M22.6,9.9V9.4h-.1v.2h.1c0,.1,0,.1-.1.2h.2Z"/><path class="cls-4" d="M22.5,9.9h-.7v.2h1.4c0-.1,0-.2-.1-.2h-.6Z"/><path class="cls-4" d="M22.5,9.7h-.2c-.1,0-.1,0-.1-.1s0-.2.1-.2h0a.2.2,0,0,0,0,.4h.1C22.5,9.8,22.5,9.8,22.5,9.7Z"/><polygon class="cls-2" points="22.1 8.7 22.1 8.7 22.1 8.7 22.1 8.7"/><path class="cls-2" d="M22.2,8.7h0Z"/><path class="cls-2" d="M22.2,8.6h.6v.6h0V8.6h-.6Z"/><path class="cls-8" d="M22.8,8.6h-.1v.6h.1Z"/><path class="cls-2" d="M22.7,8.7h-.6v.6h.6Z"/><path class="cls-5" d="M26.9,4.3c-.4.1-.5-.5-1-.2a.5.5,0,0,0-.8.2c0-.2.3-.2.5-.1h.1c.1.1.1.2-.1.3h0a.4.4,0,0,0,.5-.1.6.6,0,0,0,.8.4c-.3-.1-.1-.3-.3-.5S26.9,4.4,26.9,4.3Z"/><path class="cls-5" d="M25.4,6.7h.1V6.4h0a.8.8,0,0,1-1.2.1,2.6,2.6,0,0,1-.7-1.1h0a.1.1,0,0,1-.1-.1h-.1c.1.2.2.5.1.6s-.1,0-.1-.1-.6.3-.6,0,.1.6.4.5h.2V6c.1.4.5.3.6.5h-.3c.2.1.4.3.4.4h-.2c.2.1.1.4.3.5h.2a13,13,0,0,1,1.7.8c.1.1.1.2,0,.2s.6-.8-.4-1A2.7,2.7,0,0,1,24.4,7c-.2-.1,0-.2.1-.1h.2A.5.5,0,0,0,25.4,6.7Z"/><path class="cls-5" d="M23.9,7.2h0Z"/><path class="cls-5" d="M23.8,7.1Z"/><path class="cls-5" d="M23.9,7.3h0Z"/><path class="cls-5" d="M23.7,7Z"/><path class="cls-5" d="M23.7,7h0Z"/><path class="cls-5" d="M23.3,5.3Z"/><path class="cls-5" d="M23,5.3a.2.2,0,0,1,.2.2v.2h0A.4.4,0,0,0,23,5.3Z"/><path class="cls-5" d="M23.5,6.6Z"/><path class="cls-5" d="M23.5,6.7Z"/><path class="cls-5" d="M23.5,6.5Z"/><path class="cls-5" d="M23.4,6.4h0Z"/><path class="cls-5" d="M23.6,6.8Z"/><path class="cls-5" d="M23.4,6.2Z"/><path class="cls-5" d="M24.1,7.4Z"/><path class="cls-5" d="M24,7.3Z"/><path class="cls-4" d="M25.7,4.3h-.1c-.2-.1-.5-.1-.5.1s.3.8.3,1.3-.7-.5-.7-.9a.2.2,0,0,0-.1.4c-.2-.2-.5.2-.7-.1s.3.5.5.5.1.4.3.5.8-.2.8.4h0v.2h-.1a.5.5,0,0,1-.7.3h-.2a1,1,0,0,0,1.4-.2.5.5,0,0,1,.5-.3c.1-.1.1-.2.3-.2h-.3c.3-.1.2-.3.4-.4s-.3-.2-.5,0a.1.1,0,0,0,0-.2c0,.1-.2.1-.3.4s-.1.1-.1-.1a2.9,2.9,0,0,0-.2-.9c0-.1-.1-.1-.1-.2h0C25.6,4.4,25.6,4.3,25.7,4.3Z"/><path class="cls-4" d="M26.1,8.5a.4.4,0,0,1-.4-.3c-.2.1-.2.4,0,.4h-.5l-.2.3h.9c-.1.1,0,.3-.1.4s.6-.4.5-.5.4-1.2-.6-1.4C26.7,7.7,26.4,8.5,26.1,8.5Z"/><path class="cls-4" d="M24.9,10.9h-.1c-.1.1-.3.2-.3.4h.3c.2-.1.1-.3.1-.4H25Z"/><path class="cls-4" d="M24.7,11.4h-.4l-.4.3h.2c0,.2.1.3.1.2l.2.2c0,.1.2.1.2,0a.2.2,0,0,0,.3,0c-.1,0-.1-.3-.1-.4v-.3Z"/><path class="cls-4" d="M23.4,6.2h.8c-.2-.1-.1-.4-.3-.5h.2c0-.1-.2-.3-.4-.4H24c-.1-.2-.5-.1-.6-.5v.2Z"/><path class="cls-4" d="M23.3,5.3H23a.4.4,0,0,1,.2.4.2.2,0,0,1-.4.1c0,.3.4.4.6,0s0,.1.1.1,0-.4-.1-.6Z"/><path class="cls-9" d="M22.5,3.1c0-.1.1-.2.3-.1a.1.1,0,0,0-.1.1c0,.1.1,0,.1,0a.1.1,0,0,1,.1.1h0a.1.1,0,0,0-.1.1s0-.2-.1-.2v.2h-.3a.4.4,0,0,0,.1-.3h0a.4.4,0,0,0-.4-.2h-.3c0,.1-.3.1-.2.2s-.1.2-.1.3,0,.1.1.2.4-.8.8-.6v.4h.1Z"/><path class="cls-9" d="M22.5,3.4a.1.1,0,0,0-.1.1.8.8,0,0,0,.2.4h.1A.8.8,0,0,1,22.5,3.4Z"/><path class="cls-3" d="M22.8,3h.3c.2,0,.3-.1.4,0h.1c.1,0,.1-.1,0-.1l-.5-.2h-.3Zm.3-.1h.4c.1,0,0,.1,0,.1h-.4Z"/><path class="cls-6" d="M21.9,4.3h.2l-.2-.2v.2Z"/><polygon class="cls-6" points="22.1 4.7 22.1 4.7 22.1 4.7 22.1 4.7"/><path class="cls-6" d="M21.9,4.3V4.1h0Z"/><path class="cls-6" d="M22,4.6h-.1Z"/><path class="cls-6" d="M21.9,4a.2.2,0,0,1,.2.2v.2h0v.2h0c0,.1.1.1.1.2a.3.3,0,0,1,.1-.2.3.3,0,0,1,.1.2.1.1,0,0,0,.1-.1v.2c.1-.1.1-.1.1-.2s.1.1.1.2V4.6a.1.1,0,0,1,.1.1h.1v.2c.1-.1.1-.1.1-.2v.2h.1c.1,0,.1-.1.1-.2h.1a4.3,4.3,0,0,1,.7-1h.1l-.7.4h-.3l.5-.5h0l-.9.5h-.8l-.3.2v.2h0Z"/><path class="cls-9" d="M22.5,3.4h0c0-.1.1-.2,0-.2h-.1c-.1-.1-.3-.2-.4,0s0,.1-.1.2h0c0,.1,0,.3.1.3a.2.2,0,0,1,.2-.2h.2A.1.1,0,0,1,22.5,3.4Z"/><path class="cls-6" d="M21.9,4.4h0V4.1h0v.2h0v.2h0V4.4Z"/><path class="cls-6" d="M21.8,4.7h.3V4.4h-.5c0-.1,0-.1.1-.1h.2l.2.2h0V4.2a.2.2,0,0,0-.2-.2l-.3.2a.3.3,0,0,0-.1.2.3.3,0,0,0,.3.3Z"/><path class="cls-9" d="M23.1,5Z"/><path class="cls-9" d="M21.9,5h.4c0-.1.1-.2.2-.1s.1-.1.2,0h.9V4.9h-.4c0,.1,0,.2-.1.2H23V4.6c0,.1,0,.1-.1.2V4.6h-.1a.1.1,0,0,0-.1-.1v.2c0-.1-.1-.1-.1-.2s0,.1-.1.2V4.6a.1.1,0,0,1-.1.1.3.3,0,0,0-.1-.2.3.3,0,0,0-.1.2c0-.1-.1-.1-.1-.2h-.3v.2a.1.1,0,0,0-.1-.1h.2Z"/><path class="cls-4" d="M23.1,3.1h.4s.1-.1,0-.1h-.4Z"/><path class="cls-4" d="M21.8,5.2h-.2c.1.1,0,.1,0,.2h.2Z"/><path class="cls-4" d="M22.7,5h0c-.1-.1-.2.1-.2,0s-.2,0-.2.1h.4Z"/><path class="cls-4" d="M23.4,5.2h0Z"/><path class="cls-5" d="M22.3,5Z"/><path class="cls-5" d="M23,5.2h0Z"/><path class="cls-5" d="M23.5,5.1h0a.1.1,0,0,0,.1.1h0V5.2a.1.1,0,0,0-.1-.1Z"/></svg>