<svg xmlns="http://www.w3.org/2000/svg" viewBox="0 0 30 20"><defs><style>.cls-1{fill:#288ec7;}.cls-2{fill:#f9da32;}.cls-3{fill:#197d5f;}.cls-4{fill:#e9b42f;}</style></defs><title>rw</title><g id="Layer_49" data-name="Layer 49"><path class="cls-1" d="M27.4,0H2.6A2.5,2.5,0,0,0,0,2.5V10H30V2.5A2.5,2.5,0,0,0,27.4,0Zm1.7,5.5-2-.2,1.6,1.2-1.8-.8L28,7.3,26.5,6.1l.7,1.8L26,6.3l.3,2-.8-1.8-.2,1.9L25,6.5l-.7,1.8.2-2L23.3,7.9l.8-1.8L22.5,7.3l1.2-1.6-1.8.8,1.6-1.2-2,.2,1.8-.7-1.9-.3,1.9-.2-1.8-.8,2,.3L21.9,2.6l1.8.7L22.5,1.8,24.1,3l-.8-1.8,1.2,1.5L24.3.8,25,2.6l.3-2,.2,2L26.3.8,26,2.7l1.2-1.5L26.5,3,28,1.8,26.9,3.3l1.8-.7L27.1,3.8l2-.3-1.9.8,2,.2-2,.3Z"/><rect class="cls-2" y="10" width="30" height="5.01"/><path class="cls-3" d="M0,17.5A2.5,2.5,0,0,0,2.6,20H27.4A2.5,2.5,0,0,0,30,17.5V15H0Z"/><polygon class="cls-4" points="27.2 4.8 29.2 4.5 27.2 4.3 29.1 3.5 27.1 3.8 28.7 2.6 26.9 3.3 28 1.8 26.5 3 27.2 1.2 26 2.7 26.3 0.8 25.5 2.6 25.3 0.6 25 2.6 24.3 0.8 24.5 2.7 23.3 1.2 24.1 3 22.5 1.8 23.7 3.3 21.9 2.6 23.5 3.8 21.5 3.5 23.3 4.3 21.4 4.5 23.3 4.8 21.5 5.5 23.5 5.3 21.9 6.5 23.7 5.7 22.5 7.3 24.1 6.1 23.3 7.9 24.5 6.3 24.3 8.3 25 6.5 25.3 8.4 25.5 6.5 26.3 8.3 26 6.3 27.2 7.9 26.5 6.1 28 7.3 26.9 5.7 28.7 6.5 27.1 5.3 29.1 5.5 27.2 4.8"/></g></svg>