<svg xmlns="http://www.w3.org/2000/svg" viewBox="0 0 30 20"><defs><style>.cls-1{fill:#fafafa;}.cls-2{fill:#ee3130;}.cls-3{fill:#3a53a4;}.cls-4{fill:#ee2524;}.cls-5{fill:#fee600;}.cls-6{fill:#fff;}</style></defs><title>si</title><g id="Layer_37" data-name="Layer 37"><path class="cls-1" d="M27.4,0H2.6A2.5,2.5,0,0,0,0,2.5V6.7H7.3V3.9h.1a7,7,0,0,1,2.5-.5,6.4,6.4,0,0,1,2.4.5h.2V6.7H30V2.5A2.5,2.5,0,0,0,27.4,0Z"/><polygon class="cls-1" points="12.1 6.7 12.1 6.7 12.2 3.8 12.2 3.8 12.1 6.7"/><path class="cls-2" d="M0,17.5A2.5,2.5,0,0,0,2.6,20H27.4A2.5,2.5,0,0,0,30,17.5V13.3H0Z"/><path class="cls-3" d="M12.2,6.9a2.9,2.9,0,0,1-1,2.2,4.2,4.2,0,0,1-1.4.9,4.2,4.2,0,0,1-1.4-.9,2.9,2.9,0,0,1-1-2.2V6.7H0v6.6H30V6.7H12.3Z"/><path class="cls-3" d="M12,6.9a3.2,3.2,0,0,1-.7,1.9A3.2,3.2,0,0,0,12,6.9V6.7h0Z"/><path class="cls-4" d="M8.4,9.1a4.2,4.2,0,0,0,1.4.9,4.2,4.2,0,0,0,1.4-.9,2.9,2.9,0,0,0,1-2.2v-3h-.2V6.9a3.2,3.2,0,0,1-.7,1.9l-.2.2a3.5,3.5,0,0,1-1.3.8A3.5,3.5,0,0,1,8.5,9a3.2,3.2,0,0,1-1-2.1L7.3,3.8H7.2v3A2.9,2.9,0,0,0,8.4,9.1Z"/><path class="cls-3" d="M7.5,6.9A3.2,3.2,0,0,0,8.5,9a3.5,3.5,0,0,0,1.3.8A3.5,3.5,0,0,0,11.1,9l.2-.2A3.2,3.2,0,0,0,12,6.9V3.8h0a6.4,6.4,0,0,0-2.4-.5,7,7,0,0,0-2.5.5Zm3.5,2a3.7,3.7,0,0,1-1.2.7,3.7,3.7,0,0,1-1.2-.7l-.2-.3h2.8Zm.4-.5H8.2a.4.4,0,0,1-.1-.3h3.4ZM10.2,3.7h.4V4h-.5V3.8Zm-.7.9H10v.2h0v0H9.6Zm-.7-.9h.5V4H8.8L9,3.8Zm.4,2.9.6-1.2.6,1.2.4-.5,1,1.3a.5.5,0,0,1-.2.4c-.1.2-.3.2-.5.2h-.5c-.1-.1-.3,0-.5,0H9.5c-.2,0-.4-.1-.5,0H8.5c-.2,0-.4,0-.5-.2a.5.5,0,0,1-.2-.4l1-1.3Z"/><polygon class="cls-5" points="9.7 4.9 9.8 5.1 9.9 4.9 10.1 4.9 9.9 4.8 10.1 4.6 9.9 4.6 9.8 4.5 9.7 4.6 9.5 4.6 9.6 4.8 9.5 4.9 9.7 4.9"/><polygon class="cls-5" points="9 4 9.1 4.1 9.2 4 9.4 4 9.3 3.8 9.4 3.7 9.2 3.7 9.1 3.6 9 3.7 8.8 3.7 9 3.8 8.8 4 9 4"/><polygon class="cls-5" points="10.4 4 10.5 4.1 10.6 4 10.7 4 10.6 3.8 10.7 3.7 10.6 3.7 10.5 3.6 10.4 3.7 10.2 3.7 10.3 3.8 10.2 4 10.4 4"/><path class="cls-6" d="M7.8,7.4a.5.5,0,0,0,.2.4c.1.2.3.2.5.2H9c.1-.1.3,0,.5,0h.6c.2,0,.4-.1.5,0h.5c.2,0,.4,0,.5-.2a.5.5,0,0,0,.2-.4l-1-1.3-.4.5L9.8,5.4,9.2,6.6l-.4-.5Z"/><polygon class="cls-6" points="8.1 8.1 8.1 8.1 8.1 8.1 8.1 8.1"/><path class="cls-6" d="M11.4,8.1H8.1a.4.4,0,0,0,.1.3h3.2V8.1Z"/><path class="cls-6" d="M10.8,8.5H8.4l.2.3a3.7,3.7,0,0,0,1.2.7A3.7,3.7,0,0,0,11,8.9l.2-.3Z"/></g></svg>