<svg id="Flags" xmlns="http://www.w3.org/2000/svg" viewBox="0 0 30 20"><defs><style>.cls-1{fill:#003876;}.cls-2{fill:#fff;}.cls-3{fill:#e03a3e;}.cls-4{fill:#4d8fcc;}.cls-5{fill:#fff100;}.cls-6{fill:#d08616;}.cls-7{fill:#008256;}.cls-8{fill:#00948d;}</style></defs><title>sh</title><polygon class="cls-1" points="13.2 0 8.7 0 8.7 2.2 13.2 0"/><path class="cls-1" d="M27.5,0H15V.9L11.8,2.5H15V5H11.8L15,6.6v.9H13.2L8.7,5.3V7.5H6.2V5.3L1.8,7.5H0v10A2.5,2.5,0,0,0,2.6,20H27.5A2.5,2.5,0,0,0,30,17.5V2.5A2.5,2.5,0,0,0,27.5,0ZM24.4,9.1H24a.1.1,0,0,1-.1.1h-.4a.1.1,0,0,0-.1.1h-3c0-.1,0-.1-.1-.1h-.1c0-.1-.1-.2-.1-.3h0V7.6H20V4.6a6.5,6.5,0,0,1,2.5-.5,6,6,0,0,1,2.4.5c0,.5.1,1.1.1,1.8a5.1,5.1,0,0,1-.6,2.7Z"/><path class="cls-1" d="M6.2,0H2L6.2,2.2Z"/><polygon class="cls-1" points="0 5 0 6.6 3.2 5 0 5"/><path class="cls-1" d="M.4,1.1A3.3,3.3,0,0,0,0,2.5H3.2Z"/><polygon class="cls-2" points="15 3 15 2.5 11.8 2.5 15 0.9 15 0 10 2.5 8.8 2.5 13.8 0 13.2 0 8.7 2.2 8.7 0 8.2 0 8.2 3 15 3"/><polygon class="cls-2" points="6.2 5 1.2 7.5 1.8 7.5 6.2 5.3 6.2 7.5 6.8 7.5 6.8 4.5 0 4.5 0 5 3.2 5 0 6.6 0 6.7 0 7.5 5 5 6.2 5"/><polygon class="cls-2" points="8.2 7.5 8.7 7.5 8.7 5.3 13.2 7.5 15 7.5 10 5 11.2 5 15 6.9 15 6.6 11.8 5 15 5 15 4.5 8.2 4.5 8.2 7.5"/><path class="cls-2" d="M6.8,0H6.2V2.2L2,.1,1,.5l4,2H3.8L.6.9l-.2.2L3.2,2.5H0V3H6.8Z"/><polygon class="cls-3" points="10 2.5 15 0 13.8 0 8.8 2.5 10 2.5"/><polygon class="cls-3" points="10 5 15 7.5 15 6.9 11.2 5 10 5"/><path class="cls-3" d="M5,2.5,1,.5.6.9,3.8,2.5Z"/><polygon class="cls-3" points="6.2 5 5 5 0 7.5 1.2 7.5 6.2 5"/><polygon class="cls-3" points="6.8 7.5 8.2 7.5 8.2 4.5 15 4.5 15 3 8.2 3 8.2 0 6.8 0 6.8 3 0 3 0 4.5 6.8 4.5 6.8 7.5"/><path class="cls-4" d="M23.8,9.9h0Z"/><path class="cls-4" d="M21,9.7Z"/><path class="cls-4" d="M20.6,9.3h0Z"/><path class="cls-4" d="M24.2,9.5h0Z"/><path class="cls-4" d="M24.4,9.3h0Z"/><path class="cls-4" d="M20.1,7.8v0Z"/><path class="cls-4" d="M20.2,8.1c0-.1-.1-.2-.1-.3S20.2,8,20.2,8.1Z"/><path class="cls-4" d="M23.7,10h0Z"/><path class="cls-4" d="M20.1,7.6h0Z"/><path class="cls-4" d="M20.1,7.4h0Z"/><path class="cls-4" d="M20.2,8.3h0Z"/><path class="cls-4" d="M24.2,8Z"/><path class="cls-4" d="M20.9,9.7Z"/><path class="cls-4" d="M20.7,9.4h0Z"/><path class="cls-4" d="M20.8,9.5Z"/><path class="cls-4" d="M24.2,8.2Z"/><path class="cls-4" d="M24.4,9.2h0Z"/><path class="cls-4" d="M24.2,9.4Z"/><path class="cls-4" d="M24.3,9.4Z"/><path class="cls-4" d="M24.4,9.2Z"/><path class="cls-4" d="M24,9.7h0Z"/><path class="cls-4" d="M23.9,9.8Z"/><path class="cls-4" d="M22.9,10.5h0Z"/><path class="cls-4" d="M22.7,10.6h0Z"/><path class="cls-4" d="M22.3,10.7h0Z"/><path class="cls-4" d="M21.8,10.4h0Z"/><path class="cls-4" d="M21.9,10.5h0Z"/><path class="cls-4" d="M22.1,10.6h0Z"/><path class="cls-4" d="M23.6,10.1h0Z"/><path class="cls-4" d="M20.3,8.4h0Z"/><path class="cls-4" d="M23.3,10.4h0Z"/><path class="cls-4" d="M23.1,10.5h0Z"/><path class="cls-4" d="M23.4,10.3Z"/><path class="cls-4" d="M21.6,10.3h0Z"/><path class="cls-4" d="M20.6,9.2h0Z"/><path class="cls-4" d="M20.5,8.9h0Z"/><path class="cls-4" d="M20.4,8.8c0-.1,0-.1-.1-.1S20.4,8.7,20.4,8.8Z"/><path class="cls-4" d="M20.3,8.6h0Z"/><path class="cls-4" d="M20.5,9.1h0Z"/><path class="cls-4" d="M21.5,10.2h0Z"/><path class="cls-4" d="M21.1,9.8h0Z"/><path class="cls-4" d="M21.3,10.1h0Z"/><path class="cls-4" d="M21.2,10h0Z"/><path class="cls-4" d="M20,7.2h0Z"/><path class="cls-4" d="M23,6.4v.2h.3s-.1.1-.1,0a.1.1,0,0,1-.2,0h0v.2h0v.4h.3c0,.1-.1.2-.2.1H23v.3h.3s0,.2-.2.1H23v.8c0-.1,0-.1.1-.2h.4V8h0c-.1.1-.2,0-.2-.1h.2V7.5h0V6.9h0c-.1,0-.2,0-.2-.1s-.1,0-.1,0h.3V6.5h0v.3H24c0,.1-.1.2-.2.1h-.1v.5H24c0,.1,0,.2-.1.1h-.2v.4H24c0,.2-.2.2-.2.1h-.1v.4h.4a1.8,1.8,0,0,1,.1-.5c.1-.1.1,0,.1,0h.4V8h0v.2h-.1c0,.1,0,.1-.1.2h0A5.1,5.1,0,0,0,25,6.4Z"/><polygon class="cls-4" points="20.5 9 20.5 9 20.5 9 20.5 9"/><path class="cls-4" d="M20.3,6.7h.2a.1.1,0,0,0,0,.2h.1v.3h.2V7h.2c0,.1,0,.2.1.2h.1c.1.1,0,.3.1.4a.7.7,0,0,0,.1.5h.1v.4c.1,0,.1.1.1.2h.3V8.2H22c-.1,0-.2,0-.2-.2h.4V7.7h-.1c-.1,0-.2,0-.2-.1h.3V7.3h-.1c-.2.1-.3,0-.2-.1h.3V6.9h-.1c-.1,0-.3,0-.3-.1h.4V6.5h0v.3h.4c0,.1-.1.1-.2.1h-.2v.2h.4c0,.2-.1.2-.2.1h-.2v.3h.4a.1.1,0,0,1-.1.1h-.3V8h.4c.1.1,0,.3-.2.2h-.2v.6H23V8h0V7.5h0V7h-.1c-.1.1-.2,0-.2-.1H23V6.7a.1.1,0,0,1-.1-.1c-.1.1-.2.1-.2,0h.2V6.4H20v.7l.2-.2Z"/><path class="cls-2" d="M20.7,9.3Z"/><path class="cls-2" d="M21.9,10.1Z"/><path class="cls-2" d="M24.3,9.1H22.4c-.1.1-.2.1-.3-.1l-.2-.2h-.3v.4h1.8a.1.1,0,0,1,.1-.1h.4a.1.1,0,0,0,.1-.1h.1c-.1-.1,0-.1,0-.2h.1a.1.1,0,0,0,.1-.1h0Zm-.8.1h0Zm-.2,0h0Zm-.1,0c0,.1-.2.1-.3.1h.3Zm-1.1.1h.1c.1,0,.1,0,0-.1h.1a.1.1,0,0,1,.1.1h.1c0-.1,0-.1.1-.1h.1c0,.1.1,0,.1,0H23c0,.1,0,.1-.1.1h-.8Zm1.2.2h0Zm0,0h0Zm-.2,0h.2c-.1.1,0,.1.1.1a.1.1,0,0,0-.1.1h.1c-.1,0-.1,0,0,.1h-.3Zm.3.5Zm-.8-.1h0l-.4.2h0c-.1,0-.1,0,0,.1h-.1c-.1,0-.1,0-.1-.1h.6Zm-.9-.6h.2a.1.1,0,0,1-.1.1h-.1Zm.1.1h0c-.1,0-.1.1,0,.1h.7a.5.5,0,0,1-.5.1h-.2C21.7,9.4,21.8,9.4,21.8,9.4Zm0,.2h0Zm.9.3h0C22.6,10,22.6,10,22.7,9.9Zm.1.1h0Zm-.1-.5h-.6l.4-.2h.2Zm-.6-.2H22c0-.1,0,0-.1,0h.2Zm-.5-.2h0Zm0,.1h0Zm.3.5h0Zm-.7,0h.4c-.1.1-.1,0-.1,0h0a.1.1,0,0,1-.1-.1C21.3,9.8,21.2,9.8,21.2,9.7Zm.3.1c-.1.1,0,.1,0,.1h.2s-.3.1-.4-.1Zm.1.2h0Zm.2,0h0Zm1.5.2h-.9a.1.1,0,0,0,.2,0h-.1c.1,0,.1-.1,0-.1h-.6c-.1,0-.1-.1,0-.1h1.4Zm-.5.1h0C22.9,10.2,22.9,10.3,22.8,10.3Zm.6-.4Zm.3-.2s-.1.1-.1,0-.2,0-.3,0h.4Zm.4-.3Zm0-.2a.1.1,0,0,1-.1.1h-.1s-.1-.1-.1,0,0-.1.1-.1h.2Z"/><path class="cls-2" d="M21.8,10.1h0Z"/><path class="cls-2" d="M20.5,9Z"/><path class="cls-2" d="M21.8,10.1Z"/><path class="cls-2" d="M24.3,9.4h.1Z"/><path class="cls-2" d="M20.9,9.6Z"/><path class="cls-2" d="M24.1,9.6h.1Z"/><path class="cls-2" d="M20.5,9.1h.1C20.6,9.2,20.6,9.2,20.5,9.1Z"/><path class="cls-2" d="M23.1,10.1h0Z"/><path class="cls-2" d="M21.7,10.1h0Z"/><path class="cls-2" d="M20.8,9.4h0Z"/><path d="M21.1,9.7h.5V9.2h-.3a.1.1,0,0,0-.1-.1h0V8.3h0a.4.4,0,0,0-.1-.3h-.2c0-.1,0-.1.1-.2a.1.1,0,0,0,.1-.1h0c0,.1,0,.2.1.2s0,.1-.1.1v.2h.1c.1,0,0-.1,0-.2h.2c.1,0,.1,0,.1.1h.1V8h.2v.2h.1c0,.1.1.1,0,.1h.1c0-.1,0-.2-.1-.2V8.1h-.1a.7.7,0,0,1-.1-.5c-.1-.1,0-.3-.1-.4h-.1c-.1,0-.1-.1-.1-.2H21v.2h-.2V7h-.1a.1.1,0,0,1,0-.2h-.2v.2l-.2.2h.1v.2h0c0,.1.1.2.1.3h.1c.1,0,.1,0,.1.1h.1c.1.1.1.1.1.2h.5Zm-.9-2.8c.1,0,.1,0,.1-.1h.2a.1.1,0,0,1,.1.1h0a.2.2,0,0,0,.2.2V8h.1v.2H21v.3c.1.2.1.3.2.3h-.1c-.1,0-.1,0,0,.1v.2c.1.1.1.1,0,.1h.1c.1-.1.1-.1,0-.1h.4v.4h-.3V9.2H21c-.1,0-.1-.2-.1-.3h0V8.6c0-.1,0-.3-.1-.3h-.1a.1.1,0,0,0-.1-.1h-.2a.8.8,0,0,0-.1-.4c0-.1.1-.1.1-.2h-.1c0-.1,0-.2-.1-.2Zm.7,2.5h-.3V8.7h-.1V8.4h-.1V8.1h0c.1,0,.1-.1.1,0s.1.1.1.2h0a.1.1,0,0,0,.1.1v.4c0,.1,0,.1.1.1V9h.3v.2h-.4Z"/><path class="cls-5" d="M23,6.4h2c0-.7-.1-1.3-.1-1.8a6,6,0,0,0-2.4-.5,6.5,6.5,0,0,0-2.5.5V6.4h3Zm-.1-.3h-.2a.1.1,0,0,1-.1-.1c-.1,0-.1,0-.1.1h-.1c0-.1.1-.1.2-.2h0a.1.1,0,0,0,.1-.1h0V5.5h-.4v.2h-.1a.1.1,0,0,0-.1.1h0V6h-.1c0-.2.1-.2.3-.2h.1a.5.5,0,0,1-.3-.6.3.3,0,0,0-.1-.2h.4c.2,0,.1.1.2.3h.1l.4.3h.5s.1,0,0,.1h-.1c.1.1.2.2.2.3h-.2L23,5.5h-.1c-.1.1-.1.3-.2.5Z"/><path class="cls-6" d="M20.5,7.1a.1.1,0,0,1,.1.1A.1.1,0,0,0,20.5,7.1Z"/><path class="cls-6" d="M20.3,7.2h0c0,.1-.1.1-.1.2a.8.8,0,0,1,.1.4h.2a.1.1,0,0,1,.1.1h.1c.1,0,.1.2.1.3v.2h0c0,.1,0,.3.1.3h.2v.4h.3V9.2h-.4c.1,0,.1,0,0,.1h-.1c.1,0,.1,0,0-.1V8.5c-.1-.1-.1-.1,0-.1h.1c-.1,0-.1-.1-.2-.3V7.9h-.1V7.6h-.1V7.4a.2.2,0,0,1-.2-.2h0a.1.1,0,0,1-.1.1V7.2c-.1,0,0,.1,0,.1h-.1V7.4c0-.1.1,0,0-.1h-.1c0,.1,0,.1-.1.1v.2c.1,0,.1.1.1.2Z"/><path class="cls-6" d="M20.6,8.1h0Z"/><path class="cls-6" d="M20.6,8.2a.1.1,0,0,0,.1.1A.1.1,0,0,1,20.6,8.2Z"/><path class="cls-6" d="M20.6,8.9Z"/><path class="cls-6" d="M20.7,8.9h.2V8.8c-.1,0-.1,0-.1-.1h0a.1.1,0,0,0-.1-.1h-.1c0-.1,0-.1-.1-.2h.1c0-.1,0-.2-.1-.2s0,0-.1,0h0v.2h.1v.2Z"/><path class="cls-6" d="M20.6,8.2Z"/><path class="cls-6" d="M20.4,8.1Z"/><path class="cls-6" d="M20.8,9.1h0Z"/><path class="cls-6" d="M20.9,9.2h0c.1,0,.1,0,.1-.1h-.1Z"/><path class="cls-6" d="M21,9.3h0Z"/><path class="cls-6" d="M20.8,9.3Z"/><path class="cls-6" d="M21,9.5h.3V9.3H21Z"/><path class="cls-6" d="M20.9,9.2h0Z"/><path class="cls-6" d="M20.9,9.2Z"/><path class="cls-6" d="M21.1,8.2h0Z"/><path class="cls-6" d="M21,7.6h.2c0,.1-.1.1,0,.2h0l.3.2h-.2c.1-.1.1,0,.1-.2s-.1,0-.1,0v.2h-.1V7.7h0V7.4h.1c0-.1,0-.1-.1-.1h-.2c0,.1.1.2,0,.2H21V7.4c.1,0,.1,0,.1-.1s-.1-.1-.1-.2h0a.1.1,0,0,1-.1.1c-.1.1-.1.1-.1.2H21Z"/><path class="cls-6" d="M21.5,7.7h0Z"/><path class="cls-6" d="M21.2,8.5Z"/><path class="cls-6" d="M21.3,8.6h.1a.1.1,0,0,1,.1.1h.1s.1-.1,0-.1h-.1l-.4-.3h0v.2h.1Z"/><path class="cls-6" d="M21,7.7h0Z"/><path class="cls-6" d="M21.4,7.6Z"/><path class="cls-6" d="M21.5,7.7Z"/><path class="cls-7" d="M20.4,8.3h0v.2h.1Z"/><path class="cls-7" d="M20.5,8.1c.1.1.1.1.1.2h.1a.1.1,0,0,1,.1.1h0V8.3a.1.1,0,0,1-.1-.1h-.1Z"/><path class="cls-7" d="M20.8,9.3H21c0,.1,0,.1-.1.1h-.1Z"/><path class="cls-7" d="M21.4,7.6h-.1v.2h0v.2h.1V7.7s.1-.1.1,0,0,.1-.1.2h.5c.1,0,0,0,0-.1h-.1V8.2h-.2V7.8h-.1Zm.1.3h0c.1,0,.1.1.1.2s.1.1.1.2h-.2Z"/><path class="cls-7" d="M21.7,8.7h-.1c.1,0,0,.1,0,.1h-.1a.1.1,0,0,0-.1-.1h-.2a.1.1,0,0,1,.1.1h.5A.1.1,0,0,0,21.7,8.7Z"/><path class="cls-7" d="M20.5,7.1h-.1c.1.1,0,0,0,.1v.2h.1s-.1-.1,0-.1v.2a.1.1,0,0,0,.1-.1h0a.1.1,0,0,0-.1-.1Z"/><path class="cls-7" d="M21.2,8.3h0c-.1-.1,0-.1,0-.2H21a.4.4,0,0,1,.1.3h.1Z"/><polygon class="cls-7" points="21.1 8.3 21.1 8.3 21.1 8.3 21.1 8.3"/><path d="M21.4,7.8h.3c0-.1,0-.2-.1-.2s0-.2-.1-.2h-.1Z"/><path class="cls-8" d="M21.5,9.8h0s0,.1.1,0h-.4c0,.1.1.1.2,0A.1.1,0,0,0,21.5,9.8Z"/><path class="cls-8" d="M21.7,9.9h-.2s-.1,0,0-.1h-.2C21.4,10,21.7,9.9,21.7,9.9Z"/><path class="cls-8" d="M21.4,10h0Z"/><path d="M21.6,10h0Z"/><path class="cls-8" d="M21.7,10.1h0Z"/><path class="cls-8" d="M21.9,10.1Z"/><path d="M21.6,9.8h0Z"/><path class="cls-8" d="M22,9.7Z"/><path d="M22.5,9.4l-.4.2h.4Z"/><path class="cls-8" d="M21.8,9.1h0Z"/><path class="cls-8" d="M21.7,9.1h0Z"/><path class="cls-8" d="M21.7,9.3h.1a.1.1,0,0,0,.1-.1h-.2Z"/><path d="M21.8,9.3Z"/><path class="cls-8" d="M21.8,9.5H22a.5.5,0,0,0,.5-.1h-.7c-.1,0-.1-.1,0-.1h0S21.7,9.4,21.8,9.5Z"/><path class="cls-8" d="M22,9.2h-.1c.1,0,.1-.1.1,0h0Z"/><path class="cls-8" d="M22.3,9.3h.3c-.1,0-.1,0-.1.1h-.1a.1.1,0,0,0-.1-.1h-.1c.1.1.1.1,0,.1h.1Z"/><path class="cls-8" d="M22.8,9.3h.1c.1,0,.1,0,.1-.1h-.2s-.1.1-.1,0h.1Z"/><path d="M22.9,9.3c.1,0,.3,0,.3-.1h-.3Z"/><path class="cls-8" d="M22.9,9.3Z"/><path class="cls-8" d="M24.1,9.4h0Z"/><path class="cls-8" d="M23.1,9.4Z"/><path class="cls-8" d="M23.2,9.5Z"/><path class="cls-8" d="M22.9,9.5h0Z"/><path class="cls-8" d="M22.8,9.6h0Z"/><path class="cls-8" d="M22.9,9.5h.5c-.1-.1-.1-.1,0-.1h-.1a.1.1,0,0,1,.1-.1c-.1,0-.2,0-.1-.1h-.4Z"/><path class="cls-8" d="M23.7,9.5h0Z"/><path class="cls-8" d="M23.8,9.7h-.2c0,.1.1,0,.1,0h.1Z"/><path class="cls-8" d="M23.4,9.6h-.1c.1,0,.1.1.3,0h-.2Z"/><path class="cls-8" d="M23.7,9.9Z"/><path class="cls-8" d="M22.7,9.8h0Z"/><path class="cls-8" d="M22.2,9.8H22c0,.1,0,.1.1.1h.1c-.1-.1-.1-.1,0-.1h0Z"/><path d="M22.1,10.1h.1l.4-.2h-.5Z"/><path class="cls-8" d="M23.3,9.9h0Z"/><path class="cls-8" d="M22.9,10h-.2c-.1.1-.1.1,0,.1Z"/><path class="cls-8" d="M22.8,10h0Z"/><path class="cls-8" d="M22.6,10.4h0Z"/><path class="cls-8" d="M22.2,10.2h-.3c-.1,0-.1.1,0,.1h.3Z"/><path class="cls-8" d="M23.1,10.1h-.6c.1,0,.1.1,0,.1h.1a.1.1,0,0,1-.2,0h.7Z"/><path class="cls-8" d="M22.7,10.4h0Z"/><path class="cls-8" d="M23.3,10.2Z"/><path d="M22.7,10.2h.1c.1,0,.1-.1,0-.1Z"/><path d="M23.3,9.2h0Z"/><path class="cls-8" d="M23.6,9.2h0Z"/><path class="cls-8" d="M24,9.2c-.1,0-.2,0-.2.1s.1,0,.1,0H24a.1.1,0,0,0,.1-.1C24,9.3,23.9,9.3,24,9.2Z"/><path class="cls-8" d="M24.1,9.2h-.2c-.1,0-.1,0-.1.1s.1-.1.2-.1,0,.1.1,0h0Z"/><path class="cls-5" d="M22.2,7.3h0v.3h0Z"/><path class="cls-5" d="M22.2,7.7h0V8h0Z"/><path class="cls-5" d="M22.2,8.2h0v.6h0Z"/><path class="cls-5" d="M22.2,6.9h0v.2h0Z"/><path class="cls-5" d="M22.2,6.5h0v.3h0Z"/><path class="cls-5" d="M23,6.7v.2h0V6.7Z"/><path class="cls-5" d="M23,7.5v.3h0V7.5Z"/><path class="cls-5" d="M23,8v.8h.1V8Z"/><path class="cls-5" d="M23,7v.4h0V7Z"/><polygon class="cls-5" points="22.9 6.6 23 6.6 23 6.4 22.9 6.4 22.9 6.6"/><path class="cls-5" d="M23.6,6.5h0v.3h0Z"/><path class="cls-5" d="M23.7,8h-.1v.4h.1Z"/><path class="cls-5" d="M23.7,7.5h-.1v.4h.1Z"/><path class="cls-5" d="M23.7,6.9h-.1v.5h.1Z"/><path class="cls-5" d="M22.2,6.9h.2c.1,0,.2,0,.2-.1h-.8c0,.1.2.1.3.1Z"/><path class="cls-5" d="M22.2,7.3h.2c.1.1.2.1.2-.1h-.7c-.1.1,0,.2.2.1Z"/><path class="cls-5" d="M22.2,7.7h.3a.1.1,0,0,0,.1-.1h-.7c0,.1.1.1.2.1Z"/><path class="cls-5" d="M22.2,8.2h.2c.2.1.3-.1.2-.2h-.8c0,.2.1.2.2.2h.2Z"/><path class="cls-5" d="M22.7,7.9h.4c.2.1.2-.1.2-.1Z"/><path class="cls-5" d="M22.6,7.4h.5c.1.1.2,0,.2-.1h-.7Z"/><path class="cls-5" d="M22.7,6.9h0c0,.1.1.2.2.1h-.2Z"/><path class="cls-5" d="M22.7,6.6c0,.1.1.1.2,0a.1.1,0,0,0,.1.1h0a.1.1,0,0,0,.2,0c0,.1.1,0,.1,0Z"/><path class="cls-5" d="M23.8,6.9c.1.1.2,0,.2-.1h-.7s.1.1.1,0,.1.1.2.1h.2Z"/><path class="cls-5" d="M23.7,7.5h.2c.1.1.1,0,.1-.1h-.3Z"/><path class="cls-5" d="M23.7,8h.1c0,.1.2.1.2-.1h-.6c0,.1.1.2.2.1h.1Z"/><path d="M22.2,8.8h-.7l-.3-.2h-.1l.4.3h.2a.1.1,0,0,1,.1.1h.1l.2.2c.1.2.2.2.3.1h2c.1-.1.1-.1.1-.2H23.2c-.1.1-.1.1-.1.2h-.9Zm1.2.3h0Zm.2-.6h.9v.2h-.1v.2h-.1v.2h0V8.9h-.1v.2H24V8.9h-.1v.2h0V8.9h-.2v.2h0A.7.7,0,0,1,23.6,8.5Zm-.4.1h.3c0,.1,0,.2.1.2h-.5Z"/><path d="M24.1,8.4h.2s0-.1-.1,0a1.8,1.8,0,0,0-.1.5Z"/><path class="cls-2" d="M24.2,8h.2V7.9h-.2Z"/><path class="cls-2" d="M24.5,7.9h0Z"/><path class="cls-2" d="M24.6,8.1h-.1v.2h.2V8.1h-.1Z"/><path class="cls-2" d="M24.2,8.2h.1a.1.1,0,0,0,.1-.1Z"/><path class="cls-2" d="M24.5,8.1h.2V7.8h-.2Z"/><path class="cls-2" d="M24.4,8.3Z"/><path class="cls-2" d="M24.3,8.3Z"/><path class="cls-2" d="M24.4,8.3Z"/><path class="cls-2" d="M24.4,8.3Z"/><path class="cls-2" d="M24.7,8Z"/><path class="cls-7" d="M23.4,9h0Z"/><path class="cls-6" d="M22,8.8h1.6c-.1,0-.1-.1-.1-.2h-.3v.3Zm1.5-.2v.3h-.1V8.6Zm-.2,0h0v.3h-.2Z"/><path class="cls-6" d="M23.8,9.1h0V8.9h.2v.2h0V8.9H24v.2h.1V8.9h.1v.2h0V8.9h.1V8.9h.1V8.7h-.9A.7.7,0,0,0,23.8,9.1Zm.4-.2h-.1V8.7h.2Zm0-.4h0Zm0,.2h.2v.2h-.2Zm0-.2h0Zm-.2.4h-.1V8.7H24Zm0-.4h0Zm-.4,0h0Zm0,.2h.2v.2h-.1A.3.3,0,0,1,23.6,8.7Z"/><path d="M23.8,8.7h-.2a.3.3,0,0,0,.1.2h.1Z"/><path d="M23.9,8.9H24V8.7h-.2Z"/><path d="M23.8,8.6h0Z"/><path d="M24,8.6h0Z"/><path d="M24,8.6h0Z"/><path d="M24.4,8.5h0Z"/><path d="M24.4,8.7h-.2v.2h.2Z"/><path d="M24.1,8.9h.1V8.7H24Z"/><path d="M23.3,8.6h0l-.2.3h.2Z"/><path d="M23.5,8.9V8.6h-.1v.3Z"/><path d="M22.6,8Z"/><path d="M22.6,7.4Z"/><path d="M22.6,7.6Z"/><path d="M22.6,7.1Z"/><path d="M22.6,6.8Z"/><path d="M22.7,6.6Z"/><path d="M22.7,6.9Z"/><path d="M24,7.4Z"/><path d="M24,6.8Z"/><path d="M22.7,7.8h0Z"/><path d="M24,7.9Z"/><path class="cls-3" d="M24.2,8.1h.2a.1.1,0,0,1-.1.1h.1V8.1h0V7.9h-.1v.2Z"/><path d="M22.9,6.1h-.2c.1-.2.1-.4.2-.5H23l.4.2h.2c0-.1-.1-.2-.2-.3h.1c.1-.1,0-.1,0-.1H23l-.4-.3h-.1c-.1-.2,0-.3-.2-.3h-.4a.3.3,0,0,1,.1.2.5.5,0,0,0,.3.6h-.1c-.2,0-.3,0-.3.2H22v.2h0a.1.1,0,0,1,.1-.1h.1V6h.4v.2h0a.1.1,0,0,1-.1.1h0c-.1.1-.2.1-.2.2h.1c0-.1,0-.1.1-.1a.1.1,0,0,0,.1.1h.2Zm-.6-1.5h.1c.1,0,.1.1.1.2h.2c-.1.1,0,.1,0,.1h.1l.3.2h-.3a.1.1,0,0,1,.1.1h-.4c-.2-.1-.2-.2-.2-.3h0Zm-.2.8h0a.1.1,0,0,1,.1.1Zm.3.2Zm.3.1c0-.1-.1-.1-.1-.2H22a.1.1,0,0,1,.1-.1H22c0-.3,0-.4-.1-.4h.2c.1,0,.2.1.1.1s-.1.1-.2.1h.3a.3.3,0,0,0,0,.4h.6c.2,0,.4.1.4.2h0l-.2-.2h.3c.1.1,0,.1,0,.1h0c.1.1,0,.1,0,.1h-.7Z"/><path class="cls-2" d="M22.8,5.5h.6s.1,0,0-.1h0s.1,0,0-.1h-.3l.2.2h0c0-.1-.2-.2-.4-.2h-.6a.3.3,0,0,1,0-.4H22c.1,0,.2,0,.2-.1s0-.1-.1-.1h-.2c.1,0,.1.1.1.4h.1a.1.1,0,0,0,.1-.1h.1v.2h0a.1.1,0,0,0-.1.1h.5c0,.1.1.1.1.2h.1Zm-.6-.9s0,.1-.1,0Z"/><path class="cls-2" d="M22.4,5.6h0Z"/><path class="cls-2" d="M22.6,5.5h0Z"/><path class="cls-2" d="M22.3,5.5Z"/><path class="cls-2" d="M22.3,5.4h0Z"/><path class="cls-2" d="M22.5,5.6h0Z"/><path class="cls-2" d="M22.3,5.5h0Z"/><path class="cls-2" d="M22.3,4.5Z"/><path class="cls-2" d="M22.4,4.5Z"/><path class="cls-2" d="M22.3,4.6Z"/><path class="cls-2" d="M22.9,5.3h0Z"/><path class="cls-2" d="M22.3,4.6h0c.1,0,.1-.1.1,0h-.1Z"/><path class="cls-2" d="M22.4,4.6Z"/><path class="cls-2" d="M22.6,5.3c.1,0,.1.1,0,.1h.3a.1.1,0,0,0-.1-.1h-.2Z"/><path class="cls-2" d="M22.4,4.7h.1c0,.1-.1.1-.1,0h-.1c0,.1,0,.2.2.3h.2s-.1,0,0-.1h-.2c0-.1,0-.2-.1-.2h0Z"/><path class="cls-2" d="M22.4,4.8Z"/><path class="cls-2" d="M22.5,5.4Z"/><path class="cls-2" d="M22.3,4.7Z"/><path class="cls-6" d="M22.4,4.6Z"/><path class="cls-6" d="M22.3,4.5Z"/><path class="cls-6" d="M22.3,4.6h.1c0-.1,0,0-.1,0Z"/><path class="cls-6" d="M22.4,4.7h0c0,.1.1.1.1,0h-.1Z"/><path class="cls-5" d="M22.6,5.3h0c.1,0,.1-.1,0-.1Zm-.3-.1h.2c-.1,0,0-.1,0,0h-.2Z"/><polygon class="cls-6" points="22.3 5.5 22.3 5.5 22.3 5.5 22.3 5.5"/><path class="cls-6" d="M22.4,5.5Z"/><path class="cls-5" d="M22.5,5.5h0Z"/><path class="cls-5" d="M22.1,5.2a.1.1,0,0,1,.1-.1h0V4.9h-.1a.1.1,0,0,1-.1.1h0a.1.1,0,0,0-.1.1Zm0-.1Z"/><path class="cls-6" d="M22.1,5.1h0Zm.1-.2Zm0,0Zm-.1.1h0Zm0,0Zm0,0Zm0,.1Z"/><path d="M22.2,4.9h0Z"/><path d="M22.2,4.9Z"/><path d="M22.2,4.9Z"/><path d="M22.2,5Z"/><path d="M22.1,5h0Z"/><path d="M22.1,5h0Z"/><path d="M22.1,5Z"/><path d="M22.1,5h0Z"/><path d="M22.1,5.1h0Z"/><path d="M22.1,5.1Z"/><path class="cls-6" d="M22.1,5.3h.1A.1.1,0,0,0,22.1,5.3Z"/><path class="cls-5" d="M22.8,5.3h.3l-.3-.2h0Z"/><path class="cls-8" d="M24.4,9.1h-.1a.1.1,0,0,1-.1.1h-.1c0,.1-.1.1,0,.2h0V9.4h.1V9.2h0Z"/><path d="M22.5,5.1Z"/><path d="M22.5,5.1h0Z"/><path d="M22.5,5.3h0Z"/><path d="M22.1,4.6c.1.1.1,0,.1,0Zm0,0h.1c-.1.1-.1,0-.1,0Z"/><path class="cls-2" d="M22.2,4.6h-.1S22.1,4.7,22.2,4.6Z"/><path class="cls-2" d="M22.4,5.7Z"/></svg>