<svg id="Flags" xmlns="http://www.w3.org/2000/svg" viewBox="0 0 30 20"><defs><style>.cls-1{fill:#007ac1;}.cls-2{fill:#006f53;}.cls-3{fill:#ffe152;}.cls-4{fill:#fff;}</style></defs><title>sb</title><path class="cls-1" d="M27.4,0H2.5A2.5,2.5,0,0,0,0,2.5v15a2.2,2.2,0,0,0,.4,1.3L28.3.1ZM3,8.3l-.9-.7-.9.7.4-1.1L.7,6.6H1.8l.3-1,.3,1H3.5l-.9.6ZM2.6,2.7l.4,1-.9-.6-.9.6.4-1L.7,2.1H1.8L2.1,1l.3,1.1H3.5ZM6.1,6l-.9-.6L4.4,6l.3-1-.9-.6H4.9l.3-1.1.4,1.1h1L5.8,5ZM9.2,8.3l-.8-.7-.9.7.3-1.1-.9-.6H8l.4-1,.3,1H9.8l-.9.6ZM8.9,2.7l.3,1-.8-.6-.9.6.3-1-.9-.6H8L8.4,1l.3,1.1H9.8Z"/><path class="cls-2" d="M30,17.5V2.5a2.2,2.2,0,0,0-.4-1.3L1.7,19.9H27.4A2.5,2.5,0,0,0,30,17.5Z"/><path class="cls-3" d="M28.3.1.4,18.8a2.8,2.8,0,0,0,1.3,1.1L29.6,1.2A2.8,2.8,0,0,0,28.3.1Z"/><polygon class="cls-4" points="5.6 4.4 5.2 3.3 4.9 4.4 3.8 4.4 4.7 5 4.4 6 5.2 5.4 6.1 6 5.8 5 6.6 4.4 5.6 4.4"/><polygon class="cls-4" points="2.4 6.6 2.1 5.6 1.8 6.6 0.7 6.6 1.6 7.2 1.2 8.3 2.1 7.6 3 8.3 2.6 7.2 3.5 6.6 2.4 6.6"/><polygon class="cls-4" points="2.1 1 1.8 2.1 0.7 2.1 1.6 2.7 1.2 3.7 2.1 3.1 3 3.7 2.6 2.7 3.5 2.1 2.4 2.1 2.1 1"/><polygon class="cls-4" points="8.7 6.6 8.4 5.6 8 6.6 6.9 6.6 7.8 7.2 7.5 8.3 8.4 7.6 9.2 8.3 8.9 7.2 9.8 6.6 8.7 6.6"/><polygon class="cls-4" points="8.4 1 8 2.1 6.9 2.1 7.8 2.7 7.5 3.7 8.4 3.1 9.2 3.7 8.9 2.7 9.8 2.1 8.7 2.1 8.4 1"/></svg>