<svg xmlns="http://www.w3.org/2000/svg" viewBox="0 0 30 20"><defs><style>.cls-1{fill:#ce2931;}.cls-2{fill:#fafafa;}.cls-3{fill:#121212;}</style></defs><title>tt</title><g id="Layer_17" data-name="Layer 17"><path class="cls-1" d="M0,2.5v15A2.5,2.5,0,0,0,2.6,20H21.5L.2,1.7A1.9,1.9,0,0,0,0,2.5Z"/><path class="cls-1" d="M27.4,0H8.5L29.8,18.3a1.9,1.9,0,0,0,.2-.8V2.5A2.5,2.5,0,0,0,27.4,0Z"/><path class="cls-2" d="M6.8,0,29.2,19.3a2.1,2.1,0,0,0,.6-1L8.5,0Z"/><path class="cls-2" d="M.2,1.7,21.5,20h1.7L.8.7A2.1,2.1,0,0,0,.2,1.7Z"/><path class="cls-3" d="M2.6,0A2.7,2.7,0,0,0,.8.7L23.2,20h4.2a2.7,2.7,0,0,0,1.8-.7L6.8,0Z"/></g></svg>