<svg id="Flags" xmlns="http://www.w3.org/2000/svg" viewBox="0 0 30 20"><defs><style>.cls-1{fill:#003876;}.cls-2{fill:#ffe01b;}.cls-3{fill:#f9aa53;}.cls-4{fill:#f6afbb;}.cls-5{fill:#009370;}.cls-6{fill:#e03a3e;}.cls-7{fill:#fff;}</style></defs><title>tc</title><path class="cls-1" d="M.4,1.1A3.3,3.3,0,0,0,0,2.5H3.2Z"/><path class="cls-1" d="M6.2,0H2L6.2,2.2Z"/><polygon class="cls-1" points="13.2 0 8.7 0 8.7 2.2 13.2 0"/><path class="cls-1" d="M27.5,0H15V.9L11.8,2.5H15V5H11.8L15,6.6v.9H13.2L8.7,5.3V7.5H6.2V5.3L1.8,7.5H0v10A2.5,2.5,0,0,0,2.6,20H27.5A2.5,2.5,0,0,0,30,17.5V2.5A2.5,2.5,0,0,0,27.5,0ZM25,6.5a4.1,4.1,0,0,1-2.5,4,4.1,4.1,0,0,1-2.5-4v-2h5Z"/><polygon class="cls-1" points="0 5 0 6.6 3.2 5 0 5"/><polygon class="cls-2" points="23.6 6.8 23.6 6.8 23.6 6.8 23.6 6.8"/><polygon class="cls-2" points="23.8 6.8 23.8 6.8 23.8 6.8 23.8 6.8"/><polygon class="cls-2" points="23.9 6.8 23.9 6.8 23.9 6.8 23.9 6.8"/><polygon class="cls-2" points="23.6 6.8 23.6 6.8 23.6 6.8 23.6 6.8"/><path class="cls-2" d="M20,6.5a4.1,4.1,0,0,0,2.5,4,4.1,4.1,0,0,0,2.5-4v-2H20ZM24.4,6V5.8c.3,0,.3.1.3.1h-.3Zm0-.3h0Zm.3-.4h0Zm-.3-.5h.2v.2l-.2.3h-.1C24.3,5,24.4,4.9,24.4,4.8ZM24,4.7c-.1,0-.1.2-.1.4h-.2C23.8,4.8,23.8,4.7,24,4.7Zm.1.4h-.2V4.8Zm.1.1a1.1,1.1,0,0,1,.2.8,3.5,3.5,0,0,0-.1,1.4h0a4.5,4.5,0,0,1-.1-1.3c0-.5,0-.7-.1-.8s-.1-.1-.3.1h0c.1,0,.1,0,.1-.1H24v.2h0V5.3a.1.1,0,0,0,.1.1l-.2.2h0l.2-.2v.2H24a3.5,3.5,0,0,1-.1.6h0c.2,0,.3.1.3.2H24v.2c-.1,0-.1,0-.1-.1s0,.1-.1.1-.1,0-.1-.1,0,.1-.1.1a.1.1,0,0,1-.1-.1c0,.1,0,.1-.1.1V7h-.1c-.1-.1,0-.2.2-.2h0a1.8,1.8,0,0,0-.1-.6h-.2V5.4l.2.2h0V5.4a.1.1,0,0,1,.1-.1c0,.1,0,.1.1.2h0c-.1,0-.1-.1-.1-.2h.2c-.1-.2-.3-.2-.3-.1s-.1.3-.1.8a5.5,5.5,0,0,1,0,1.3c-.1.2-.1.1-.1,0a6.5,6.5,0,0,0,0-1.4.8.8,0,0,1,.1-.8.3.3,0,0,1,.5.1A.3.3,0,0,1,24.2,5.2Zm-.5-.1h-.2V4.7C23.6,4.7,23.6,4.8,23.7,5.1Zm-.2-.3v.3h-.2Zm-.5,0,.2.3h-.1c0-.1-.1-.2-.2-.3s-.1-.1-.1-.2Zm-.3.5h0ZM23,6h0Zm-.4-.4h0Zm-.1,1.1c.3,0,.4.2.4.8H23c.1.1,0,.1.1.2s0,.1.1.1,0,.2.1.2,0,.1,0,.2,0,.1.1.2-.1.1,0,.2,0,.1.1.1-.1.2,0,.2a.1.1,0,0,1,0,.2c.1.1,0,.3-.2.3l-.3.2c-.1,0-.4.1-.5,0s-.4,0-.5,0l-.3-.2c-.2,0-.3-.2-.2-.3a.1.1,0,0,1,0-.2c.1,0-.1-.1,0-.2s0-.1.1-.1-.1-.2,0-.2,0-.2.1-.2-.1-.2,0-.2,0-.1.1-.2,0-.1.1-.1,0-.1.1-.2h.1C22.1,6.9,22.2,6.7,22.5,6.7Zm-2-1.1h.1c-.1,0-.1-.1,0-.1h-.1V4.9c-.1,0,0-.1,0-.1H21a.2.2,0,0,1,.2.2h.1c0-.2.1-.3.2-.3s.2.2.2.2a.3.3,0,0,0,.1.2.1.1,0,0,1,.1.1h0c.1.1.1.1.1.2h0V6c-.1,0,0,.1,0,.2v.2h-.1c-.1,0-.1.1-.1.2h-.3c0,.1-.1.2-.2.1s-.2-.2-.3-.3l-.2-.2-.3-.2c-.1,0-.1,0-.2-.2h.1a.1.1,0,0,0,.1-.1V5.6Z"/><path class="cls-2" d="M23.7,6.8Z"/><path class="cls-3" d="M20.5,5.8a.1.1,0,0,1-.1.1h-.1c.1.2.1.2.2.2l.3.2.2.2c.1.1.2.3.3.3s.2,0,.2-.1h0c-.1,0-.1,0-.1-.2s-.1-.3-.3-.4-.1-.4.1-.5.1-.2.1-.4h-.1a.2.2,0,0,0-.2-.2h-.4s-.1.1,0,.1v.2h.1c-.1,0-.1.1,0,.1h0Z"/><path class="cls-3" d="M21.2,5.7c-.2.1-.2.3-.1.5s.2.3.3.4,0,.2.1.2,0-.5,0-.6a.2.2,0,0,1,0-.3c.1-.2,0-.3,0-.4s-.1-.2,0-.2V5.1h.1v.2c-.1.1.1.3,0,.5a.7.7,0,0,0,.1.5c0,.2,0,.5-.2.5h.3c0-.1,0-.2.1-.2H22V6.2c0-.1-.1-.2,0-.2V5.8h0c0-.1,0-.1-.1-.2h0a.1.1,0,0,0-.1-.1.3.3,0,0,1-.1-.2s-.1-.2-.2-.2-.2.1-.2.3h0C21.3,5.5,21.3,5.7,21.2,5.7Z"/><path class="cls-4" d="M21.7,6.3a.7.7,0,0,1-.1-.5c.1-.2-.1-.4,0-.5V5.1h-.1v.2c-.1,0,0,.1,0,.2s.1.2,0,.4a.2.2,0,0,0,0,.3c0,.1.1.6,0,.6h0C21.7,6.8,21.7,6.5,21.7,6.3Z"/><path class="cls-1" d="M23.6,6.8h-.1c-.2,0-.3.1-.2.2h.1l.2-.2Z"/><path class="cls-1" d="M23.9,6.8h0A.3.3,0,0,0,24,7h.2c0-.1-.1-.2-.3-.2Z"/><path class="cls-1" d="M23.6,6.8h0l-.2.2v.2c.1,0,.1,0,.1-.1A1,1,0,0,0,23.6,6.8Z"/><path class="cls-1" d="M23.9,6.8h-.1a.5.5,0,0,1,.1.3c0,.1,0,.1.1.1V7a.3.3,0,0,1-.1-.2Z"/><path class="cls-1" d="M23.7,6.8h-.1a1,1,0,0,1-.1.3.1.1,0,0,0,.1.1c.1,0,.1,0,.1-.1Z"/><path class="cls-1" d="M23.8,6.8h-.1v.3c0,.1,0,.1.1.1s.1,0,.1-.1A.5.5,0,0,0,23.8,6.8Z"/><path class="cls-1" d="M23.2,5.2a.8.8,0,0,0-.1.8,6.5,6.5,0,0,1,0,1.4c0,.1,0,.2.1,0a5.5,5.5,0,0,0,0-1.3c0-.5,0-.7.1-.8s.2-.1.3.1h0a.1.1,0,1,1,.2,0h0c.2-.2.3-.2.3-.1s.1.3.1.8a4.5,4.5,0,0,0,.1,1.3h0A3.5,3.5,0,0,1,24.4,6a1.1,1.1,0,0,0-.2-.8.3.3,0,0,0-.5.1A.3.3,0,0,0,23.2,5.2Z"/><path class="cls-1" d="M22.7,5.9H23V5.8Z"/><path class="cls-1" d="M23.2,5.9h0Z"/><path class="cls-1" d="M23,5.6h0Z"/><path class="cls-1" d="M23.4,5.8h0Z"/><path class="cls-1" d="M23,5.3h0Z"/><path class="cls-1" d="M23.2,5.4v.2h.2Z"/><path class="cls-1" d="M23.1,5.2h.1L23,4.8h-.2c0,.1.1.1.1.2S23.1,5.1,23.1,5.2Z"/><path class="cls-1" d="M23.4,5.3a.1.1,0,0,0-.1.1v.2h.1C23.4,5.4,23.4,5.4,23.4,5.3Z"/><path class="cls-1" d="M23.5,5.1V4.8l-.2.3Z"/><path class="cls-1" d="M23.7,5.2h0c-.1-.3-.1-.4-.2-.4v.4Z"/><path class="cls-1" d="M23.5,5.3h0Z"/><path class="cls-1" d="M23.5,5.4h-.1c0,.1,0,.2.1.2Z"/><path class="cls-1" d="M24.7,5.9s0-.1-.3-.1V6h.3Z"/><path class="cls-1" d="M24.2,6h0Z"/><path class="cls-1" d="M24.4,5.6h0Z"/><path class="cls-1" d="M24,5.9h0Z"/><path class="cls-1" d="M24.4,5.4h0Z"/><path class="cls-1" d="M24.2,5.6V5.4l-.2.2h.2Z"/><path class="cls-1" d="M24.3,5.2l.2-.3V4.7h-.2c0,.1-.1.2-.2.3Z"/><path class="cls-1" d="M24.2,5.4a.1.1,0,0,1-.1-.1v.2h0Z"/><path class="cls-1" d="M23.9,5.1h.2l-.2-.3Z"/><path class="cls-1" d="M23.9,5.1c0-.2,0-.4.1-.4s-.2.1-.3.4h.2Z"/><path class="cls-1" d="M24,5.5V5.3h0Z"/><path class="cls-1" d="M23.9,5.3c0,.1,0,.1-.1.1h.1Z"/><path class="cls-1" d="M23.6,5.4h-.2a1.8,1.8,0,0,1,.1.6h.4a3.5,3.5,0,0,0,.1-.6h-.2a.1.1,0,1,0-.2,0Z"/><path class="cls-5" d="M22.9,7.6H22c-.1.1,0,.1-.1.2s0,.1-.1.1,0,.2-.1.2,0,.1,0,.2,0,.1-.1.2,0,.1,0,.2,0,.1-.1.1.1.2,0,.2a.1.1,0,0,0,0,.2c-.1.1,0,.3.2.3l.3.2c.1,0,.4.1.5,0s.4,0,.5,0l.3-.2c.2,0,.3-.2.2-.3a.1.1,0,0,0,0-.2c-.1,0,.1-.1,0-.2s0-.1-.1-.1.1-.2,0-.2,0-.2-.1-.2.1-.2,0-.2,0-.1-.1-.2,0-.1-.1-.1,0-.1-.1-.2h-.1Zm-.9.9c-.1,0,0,.1-.1.2v.2c-.1,0-.1.2-.1.2s.1.1,0,.1,0,.1-.1.2V9.2c.1,0,0-.1.1-.2V8.8c.1,0,0-.1.1-.2s0-.1,0-.2H22a.1.1,0,0,0,0-.2V7.9h0v.2c-.1,0,0,.1-.1.2A.1.1,0,0,1,22,8.5Zm.3-.4v.2c-.1,0,0,.1-.1.2a.1.1,0,0,1,0,.2h0V9a.1.1,0,0,0,0,.2c-.1,0-.1.2-.1.2h0V9c.1-.1,0-.1,0-.2s0-.1.1-.2a.1.1,0,0,1,0-.2h0a.1.1,0,0,0,0-.2v0Zm.3,1.4c-.1.1-.1,0-.1-.1s-.1-.1,0-.2,0-.1,0-.3v-1c0-.1.1.1,0,.1v.2c-.1,0,0,.1-.1.2v.3a.1.1,0,0,0,0,.2c-.1.1,0,.3,0,.3S22.6,9.3,22.6,9.5Z"/><path class="cls-2" d="M22.1,8.1V7.9h0v.2a.1.1,0,0,1,0,.2h-.1c0,.1.1.2,0,.2s0,.2-.1.2V9c-.1.1,0,.2-.1.2v.2c.1-.1.1-.1.1-.2s0-.1,0-.1,0-.2.1-.2V8.7c.1-.1,0-.2.1-.2a.1.1,0,0,0,0-.2C22.1,8.2,22,8.1,22.1,8.1Z"/><path class="cls-2" d="M22.3,7.9v.2a.1.1,0,0,1,0,.2h0a.1.1,0,0,0,0,.2c-.1.1,0,.1-.1.2s.1.1,0,.2v.4h0s0-.2.1-.2a.1.1,0,0,1,0-.2V8.8h0a.1.1,0,0,0,0-.2c.1-.1,0-.2.1-.2V7.9Z"/><path class="cls-2" d="M22.6,8.9a.1.1,0,0,1,0-.2V8.4c.1-.1,0-.2.1-.2V8c.1,0,0-.2,0-.1v1c0,.2.1.2,0,.3s.1.1,0,.2,0,.2.1.1-.1-.2,0-.3S22.5,9,22.6,8.9Z"/><path class="cls-6" d="M22.2,6.9h0c.1,0,.1.1,0,.1h0c.1,0,.1,0,0,.1h0s.1.1,0,.1h.5c0-.1,0-.3-.1-.3h0c.1.1.1,0,.1,0V6.9h0c.1.1.1,0,0-.1h.1c.1.1.2.2.2.7h0c0-.6-.1-.8-.4-.8S22.2,6.8,22.2,6.9Z"/><path d="M22.2,7.5h0c.1,0,0-.1,0-.1h0c.1-.1.1-.1,0-.1h0c.1,0,.1-.1,0-.1h0c0-.1.1-.2.3-.2s-.4.2-.4.8Z"/><path d="M22.9,7.5c0-.5-.1-.6-.2-.7h-.1c.1.1.1.2,0,.1h0v.2s0,.1-.1,0h0c.1,0,.1.2.1.3h.2Z"/><path class="cls-6" d="M22.9,7.5h0Z"/><polygon class="cls-7" points="6.2 5 1.2 7.5 1.8 7.5 6.2 5.3 6.2 7.5 6.8 7.5 6.8 4.5 0 4.5 0 5 3.2 5 0 6.6 0 6.7 0 7.5 5 5 6.2 5"/><polygon class="cls-7" points="15 3 15 2.5 11.8 2.5 15 0.9 15 0 10 2.5 8.8 2.5 13.8 0 13.2 0 8.7 2.2 8.7 0 8.2 0 8.2 3 15 3"/><path class="cls-7" d="M6.8,0H6.2V2.2L2,.1,1,.5l4,2H3.8L.6.9l-.2.2L3.2,2.5H0V3H6.8Z"/><polygon class="cls-7" points="8.2 7.5 8.7 7.5 8.7 5.3 13.2 7.5 15 7.5 10 5 11.2 5 15 6.9 15 6.6 11.8 5 15 5 15 4.5 8.2 4.5 8.2 7.5"/><polygon class="cls-6" points="10 2.5 15 0 13.8 0 8.8 2.5 10 2.5"/><polygon class="cls-6" points="10 5 15 7.5 15 6.9 11.2 5 10 5"/><path class="cls-6" d="M5,2.5,1,.5.6.9,3.8,2.5Z"/><polygon class="cls-6" points="6.2 5 5 5 0 7.5 1.2 7.5 6.2 5"/><polygon class="cls-6" points="6.8 7.5 8.2 7.5 8.2 4.5 15 4.5 15 3 8.2 3 8.2 0 6.8 0 6.8 3 0 3 0 4.5 6.8 4.5 6.8 7.5"/></svg>