<svg xmlns="http://www.w3.org/2000/svg" viewBox="0 0 30 20"><defs><style>.cls-1{fill:#c0262c;}.cls-2{fill:#fafafa;}.cls-3{fill:#c02026;}</style></defs><title>to</title><g id="Layer_18" data-name="Layer 18"><path class="cls-1" d="M27.4,0H16.5V10H0v7.5A2.5,2.5,0,0,0,2.6,20H27.4A2.5,2.5,0,0,0,30,17.5V2.5A2.5,2.5,0,0,0,27.4,0Z"/><path class="cls-2" d="M16.5,0H2.6A2.5,2.5,0,0,0,0,2.5V10H16.5ZM11.9,6.2H9.4V8.7H6.8V6.2H4.3V3.7H6.8V1.2H9.4V3.7h2.5Z"/><polygon class="cls-3" points="9.4 3.7 9.4 1.2 6.8 1.2 6.8 3.7 4.3 3.7 4.3 6.2 6.8 6.2 6.8 8.7 9.4 8.7 9.4 6.2 11.9 6.2 11.9 3.7 9.4 3.7"/></g></svg>