<svg id="Flags" xmlns="http://www.w3.org/2000/svg" viewBox="0 0 30 20"><defs><style>.cls-1{fill:#5b97b1;}.cls-2{fill:#ffce00;}.cls-3{fill:#00267f;}.cls-4{fill:#fff;}.cls-5{fill:#d21034;}</style></defs><title>tv</title><path class="cls-1" d="M30,17.5V2.5A2.5,2.5,0,0,0,27.4,0H15V7.5H0v10A2.5,2.5,0,0,0,2.5,20H27.4A2.5,2.5,0,0,0,30,17.5ZM27.6,1.6l.3-.9.4.9h1l-.8.6.3,1-.9-.6-.8.6.3-1-.9-.6ZM24.4,3.3l.9.6.9-.6-.4.9.9.6H25.6l-.3,1-.3-1H23.9l.9-.6Zm-2.6.9.8.6.9-.6-.3.9.8.6H23l-.4,1-.3-1H21.2l.9-.6ZM17.3,14.5l-.9-.6-.9.6.4-.9L15,13h1.1l.3-1,.3,1h1.1l-.9.6Zm2.5-1.4-.3.9-.3-.9H18.1l.9-.6-.4-1,.9.6.9-.6-.4,1,.9.6Zm0-3.1-.3,1-.3-1H18.1l.9-.5-.4-1,.9.6.9-.6-.4,1,.9.5ZM23,12.3l-.4,1-.3-1H21.2l.9-.6-.3-.9.8.6.9-.6-.3.9.8.6Zm3.1-1.6-.8-.5-.9.5.3-.9-.8-.6h1l.4-.9.3.9h1.1l-.9.6Zm1.8-2.3-.8.6.3-.9-.9-.6h1.1l.3-1,.4,1h1l-.8.6.3.9Z"/><polygon class="cls-2" points="27.1 3.2 27.9 2.6 28.8 3.2 28.5 2.2 29.3 1.6 28.3 1.6 27.9 0.7 27.6 1.6 26.5 1.6 27.4 2.2 27.1 3.2"/><polygon class="cls-2" points="25.6 9.2 25.3 8.3 24.9 9.2 23.9 9.2 24.7 9.8 24.4 10.7 25.3 10.2 26.1 10.7 25.8 9.8 26.7 9.2 25.6 9.2"/><polygon class="cls-2" points="29.3 7.5 28.3 7.5 27.9 6.5 27.6 7.5 26.5 7.5 27.4 8.1 27.1 9 27.9 8.4 28.8 9 28.5 8.1 29.3 7.5"/><polygon class="cls-2" points="16.7 13 16.4 12 16.1 13 15 13 15.9 13.6 15.5 14.5 16.4 13.9 17.3 14.5 16.9 13.6 17.8 13 16.7 13"/><polygon class="cls-2" points="20.4 8.5 19.5 9.1 18.6 8.5 19 9.5 18.1 10 19.2 10 19.5 11 19.8 10 20.9 10 20 9.5 20.4 8.5"/><polygon class="cls-2" points="22.3 5.7 22.6 6.7 23 5.7 24 5.7 23.2 5.1 23.5 4.2 22.6 4.8 21.8 4.2 22.1 5.1 21.2 5.7 22.3 5.7"/><polygon class="cls-2" points="25 4.8 25.3 5.8 25.6 4.8 26.7 4.8 25.8 4.2 26.2 3.3 25.3 3.9 24.4 3.3 24.8 4.2 23.9 4.8 25 4.8"/><polygon class="cls-2" points="23.5 10.8 22.6 11.4 21.8 10.8 22.1 11.7 21.2 12.3 22.3 12.3 22.6 13.3 23 12.3 24 12.3 23.2 11.7 23.5 10.8"/><polygon class="cls-2" points="20.4 11.5 19.5 12.1 18.6 11.5 19 12.5 18.1 13.1 19.2 13.1 19.5 14 19.8 13.1 20.9 13.1 20 12.5 20.4 11.5"/><path class="cls-3" d="M6.2,0H1.9L6.2,2.3Z"/><path class="cls-3" d="M.5,1.1A2.4,2.4,0,0,0,0,2.5H3.3Z"/><polygon class="cls-3" points="11.7 2.5 15 2.5 15 0.8 11.7 2.5"/><polygon class="cls-3" points="13.3 0 8.8 0 8.8 2.3 13.3 0"/><polygon class="cls-3" points="15 6.6 15 5 11.7 5 15 6.6"/><polygon class="cls-3" points="1.7 7.5 6.3 7.5 6.3 5.2 1.7 7.5"/><polygon class="cls-3" points="8.8 7.5 13.3 7.5 8.8 5.2 8.8 7.5"/><polygon class="cls-3" points="0 5 0 6.6 3.3 5 0 5"/><polygon class="cls-4" points="10 2.5 11.7 2.5 15 0.8 15 0 10 2.5"/><polygon class="cls-4" points="8.8 2.5 8.9 2.5 13.9 0 13.3 0 8.8 2.3 8.8 2.5"/><polygon class="cls-4" points="3.3 5 0 6.6 0 7.5 5 5 3.3 5"/><polygon class="cls-4" points="6.3 5 6.1 5 1.1 7.5 1.7 7.5 6.3 5.2 6.3 5"/><path class="cls-4" d="M3.9,2.5.6.9a.3.3,0,0,0-.1.2L3.3,2.5Z"/><path class="cls-4" d="M6.2,2.5V2.3L1.9.1,1,.5l4,2Z"/><polygon class="cls-4" points="8.8 5 8.8 5.2 13.3 7.5 15 7.5 10 5 8.8 5"/><polygon class="cls-4" points="11.1 5 15 6.9 15 6.6 11.7 5 11.1 5"/><path class="cls-4" d="M0,3H6.7V0H6.2V2.5H0Z"/><polygon class="cls-4" points="8.3 3 15 3 15 2.5 11.7 2.5 10 2.5 8.9 2.5 8.8 2.5 8.8 2.3 8.8 0 8.3 0 8.3 3"/><polygon class="cls-4" points="6.8 4.5 0 4.5 0 5 3.3 5 5 5 6.1 5 6.3 5 6.3 5.2 6.3 7.5 6.8 7.5 6.8 4.5"/><polygon class="cls-4" points="8.3 4.5 8.3 7.5 8.8 7.5 8.8 5.2 8.8 5 10 5 11.1 5 11.7 5 15 5 15 4.5 8.3 4.5"/><polygon class="cls-5" points="6.8 3 0 3 0 4.5 6.8 4.5 6.8 7.5 8.3 7.5 8.3 4.5 15 4.5 15 3 8.3 3 8.3 0 6.8 0 6.8 3"/><polygon class="cls-5" points="10 2.5 15 0 15 0 13.9 0 8.9 2.5 10 2.5"/><path class="cls-5" d="M5,2.5,1,.5C.9.6.7.7.6.9L3.9,2.5Z"/><polygon class="cls-5" points="10 5 15 7.5 15 6.9 11.1 5 10 5"/><polygon class="cls-5" points="5 5 0 7.5 1.1 7.5 6.1 5 5 5"/></svg>