<svg xmlns="http://www.w3.org/2000/svg" viewBox="0 0 30 20"><defs><style>.cls-1{fill:#d32a40;}.cls-2{fill:#1e9554;}.cls-3{fill:#fed733;}.cls-4{fill:#121212;}.cls-5{fill:#fdcf16;}</style></defs><title>vu</title><g id="Layer_7" data-name="Layer 7"><path class="cls-1" d="M27.4,0H2.6A2.8,2.8,0,0,0,1,.5L16,8.2H30V2.5A2.5,2.5,0,0,0,27.4,0Z"/><path class="cls-2" d="M1,19.5a2.8,2.8,0,0,0,1.6.5H27.4A2.5,2.5,0,0,0,30,17.5V11.8H16Z"/><path class="cls-3" d="M15.7,9.5,13.2,8.2.2,1.5a4.4,4.4,0,0,0-.2,1H0L14.4,10,0,17.4H0a4.4,4.4,0,0,0,.2,1l13-6.7,2.5-1.3H30v-1Z"/><path class="cls-4" d="M4.2,9.3Z"/><polygon class="cls-4" points="4.1 9.2 4.1 9.2 4.1 9.2 4.1 9.2 4.1 9.2"/><path class="cls-4" d="M4.3,9.4h.1a1,1,0,0,1-.1-.3h0Z"/><path class="cls-4" d="M3.8,9.5h.1c-.1,0-.1,0-.1-.1Z"/><path class="cls-4" d="M4,9.3H4Z"/><path class="cls-4" d="M4,9.2Z"/><path class="cls-4" d="M4.1,9.2Z"/><path class="cls-4" d="M3.9,9.4Z"/><path class="cls-4" d="M16,8.2,1,.5a3.9,3.9,0,0,0-.8,1l13,6.7,2.5,1.3H30V8.2Z"/><path class="cls-4" d="M13.2,11.8.2,18.5a3.9,3.9,0,0,0,.8,1l15-7.7H30V10.5H15.7Z"/><path class="cls-4" d="M0,2.6V17.4L14.4,10ZM3.9,13.1V11.9a2.1,2.1,0,0,0,2-2.2A1.9,1.9,0,0,0,4.1,7.8,1.8,1.8,0,0,0,2.4,9.6,1.6,1.6,0,0,0,4,11.1,1.5,1.5,0,0,0,5.5,9.7a1.6,1.6,0,0,1-1.6,1.9A2.2,2.2,0,0,1,1.6,9.4,2.6,2.6,0,0,1,4.2,6.9,2.8,2.8,0,0,1,6.9,9.8,3.1,3.1,0,0,1,3.9,13.1Zm1-2.9L4.5,10h.3l-.4-.2c0-.1.2,0,.3.1H4.6l-.4-.2H4l-.4.2H3.5c.1-.1.3-.2.3-.1l-.4.2h.3l-.4.2h.3l-.4.2v.2h0a.3.3,0,0,0,.1-.2s-.1-.3,0-.4.1.3,0,.4h.1s-.1-.4,0-.5.1.4.1.4h0s0-.3.1-.4v.3h.1s-.1-.3,0-.4,0,.3,0,.4h.1a.6.6,0,0,1,.1-.4H3.3c0-.1.3,0,.3,0H3.5s-.5-.1-.4-.2h.2l-.2-.2c.1-.1.2.2.2.2h.1s-.2-.2-.1-.2.2.3.2.3h.1s-.2-.3-.1-.3l.2.4h0s-.1-.3,0-.2.1.3.1.3h.1s-.1-.3,0-.3.1.4.1.4H4V8.9h.1c.1,0,.1.1,0,.2h.1s0-.3.1-.4,0,.3,0,.3h0s.1-.3.2-.3-.1.2-.1.2h.1a1.4,1.4,0,0,1,.2-.4c.1,0-.1.3-.1.3h0l.2-.3c.1,0,0,.2-.1.2h.1L5,8.5c.1.1-.2.2-.2.2h.3l-.4.2H4.6s.3-.1.3,0H4.4a.6.6,0,0,1,.1.4h0c0-.1-.1-.4,0-.4s.1.4.1.4,0,.1.1.1h0s-.1-.4,0-.3,0,.4,0,.4h.1s0-.4.1-.4v.5h0c0-.1,0-.5.1-.4s0,.4,0,.4a.3.3,0,0,0,.1.2H5v-.2l-.4-.2Z"/><path class="cls-5" d="M6.9,9.8A2.8,2.8,0,0,0,4.2,6.9,2.6,2.6,0,0,0,1.6,9.4a2.2,2.2,0,0,0,2.3,2.2A1.6,1.6,0,0,0,5.5,9.7,1.5,1.5,0,0,1,4,11.1,1.6,1.6,0,0,1,2.4,9.6,1.8,1.8,0,0,1,4.1,7.8,1.9,1.9,0,0,1,5.9,9.7a2.1,2.1,0,0,1-2,2.2v1.2A3.1,3.1,0,0,0,6.9,9.8Z"/><path class="cls-5" d="M3.8,9.5h0Z"/><path class="cls-5" d="M3.6,9.7h0Z"/><path class="cls-5" d="M3.7,9.6Z"/><path class="cls-5" d="M3.9,9.4Z"/><path class="cls-5" d="M3.9,9.3Z"/><path class="cls-5" d="M3.9,9.4Z"/><path class="cls-5" d="M3.5,9.9Z"/><polygon class="cls-5" points="4.7 8.7 4.7 8.7 4.7 8.7 4.7 8.7"/><polygon class="cls-5" points="4.4 8.9 4.4 8.9 4.4 8.9 4.4 8.9"/><path class="cls-5" d="M4.6,8.8Z"/><path class="cls-5" d="M4.5,8.9Z"/><polygon class="cls-5" points="4.3 9 4.3 9 4.3 9 4.3 9"/><path class="cls-5" d="M4.3,9Z"/><path class="cls-5" d="M4.8,8.7h0Z"/><path class="cls-5" d="M4.6,8.8Z"/><polygon class="cls-5" points="4.1 9.2 4.1 9.2 4.2 9.2 4.1 9.2"/><polygon class="cls-5" points="4.1 9.2 4.1 9.2 4.1 9.2 4.1 9.2 4.1 9.2"/><path class="cls-5" d="M4.2,9.1Z"/><path class="cls-5" d="M3.2,10.2h0a.3.3,0,0,1-.1.2h0v-.2h0Z"/><path class="cls-5" d="M3.4,10.1h0Z"/><path class="cls-5" d="M3.3,10.1Z"/><path class="cls-5" d="M4,9.1Z"/><path class="cls-5" d="M4.1,9.1c.1-.1.1-.2,0-.2h0Z"/><path class="cls-5" d="M4,9.2H4Z"/><path class="cls-5" d="M4.1,9.4Z"/><path class="cls-5" d="M4.1,9.3h0Z"/><path class="cls-5" d="M4.3,9.2Z"/><path class="cls-5" d="M4.1,9.2Z"/><path class="cls-5" d="M4,9.4H3.8V9.2h0a.6.6,0,0,0-.1.4H3.6c0-.1.1-.4,0-.4s0,.4,0,.4H3.5V9.5c-.1.1-.1.4-.1.4h0s0-.4-.1-.4,0,.5,0,.5H3.2c.1-.1.1-.5,0-.4s0,.4,0,.4h0l.4-.2H3.3l.4-.2H3.4l.4-.2c0-.1-.2,0-.3.1h.1L4,9.6H4Z"/><path class="cls-5" d="M4.1,9.1h.8c0-.1-.3,0-.3,0h.1l.4-.2H4.8s.3-.1.2-.2l-.2.2H4.7c.1,0,.2-.2.1-.2l-.2.3h0s.2-.3.1-.3a1.4,1.4,0,0,0-.2.4H4.4s.2-.3.1-.2-.2.3-.2.3h0s.1-.3,0-.3-.1.4-.1.4H4.1Z"/><path class="cls-5" d="M4,9.2Z"/><path class="cls-5" d="M3.5,8.8h0Z"/><path class="cls-5" d="M3.9,9Z"/><path class="cls-5" d="M4.2,9.3h0Z"/><polygon class="cls-5" points="3.7 8.9 3.7 8.9 3.7 8.9 3.7 8.9"/><path class="cls-5" d="M3.4,8.7h0Z"/><path class="cls-5" d="M3.6,8.8Z"/><path class="cls-5" d="M3.8,8.9h0Z"/><path class="cls-5" d="M4.5,9.7Z"/><path class="cls-5" d="M4.7,9.8c-.1,0-.1,0-.1-.1h.1Z"/><path class="cls-5" d="M4.2,9.4Z"/><path class="cls-5" d="M4.3,9.4h0Z"/><path class="cls-5" d="M4.3,9.4Z"/><path class="cls-5" d="M4.1,9.2Z"/><path class="cls-5" d="M4.6,9.8Z"/><path class="cls-5" d="M4.9,10.2Z"/><path class="cls-5" d="M4.8,10h0Z"/><path class="cls-5" d="M5,10.3H5v.2h.1a.3.3,0,0,1-.1-.2H5Z"/><path class="cls-5" d="M4.1,9.2Z"/><path class="cls-5" d="M5,9.8c-.1-.1-.1.3-.1.4h0V9.6c-.1,0-.1.4-.1.4H4.7s.1-.3,0-.4,0,.3,0,.3H4.6s.1-.3-.1-.4,0,.3,0,.4h0a.6.6,0,0,0-.1-.4H4.3a1,1,0,0,0,.1.3H4.1V8.9H4v.2H4s0-.3-.1-.4,0,.3,0,.3H3.8s0-.3-.1-.3,0,.2,0,.2h0l-.2-.4c-.1,0,.1.3.1.3H3.5s-.1-.3-.2-.3.1.2.1.2H3.3s-.1-.3-.2-.2l.2.2H3.1c-.1.1.4.2.4.2h.1s-.3-.1-.3,0h.5c0,.1,0,.1.1.1h.3l.4.2h.1c-.1-.1-.3-.2-.3-.1l.4.2H4.5l.4.2H4.6l.4.2H5S5.1,9.9,5,9.8Z"/></g></svg>