<svg xmlns="http://www.w3.org/2000/svg" viewBox="0 0 30 20"><defs><style>.cls-1{fill:none;}.cls-2{fill:#fbd632;}.cls-3{fill:#2573b9;}.cls-4{fill:#209e6c;}.cls-5{fill:#019e60;}</style></defs><title>vc</title><g id="Layer_32" data-name="Layer 32"><path class="cls-1" d="M22.6,0h0Z"/><path class="cls-2" d="M22.6,0H7.5V20H22.6V0ZM11.3,10,13,6.7,14.6,10,13,13.3Zm3.8,7.5-1.7-3.3,1.7-3.3,1.6,3.3Zm2.1-4.2L15.5,10l1.6-3.3L18.8,10Z"/><path class="cls-3" d="M2.5,0A2.5,2.5,0,0,0,0,2.5v15A2.5,2.5,0,0,0,2.5,20h5V0Z"/><path class="cls-4" d="M22.6,20h4.9A2.5,2.5,0,0,0,30,17.5V2.5A2.6,2.6,0,0,0,27.7,0H22.6Z"/><polygon class="cls-5" points="12.9 6.7 11.3 10 12.9 13.3 14.6 10 12.9 6.7"/><polygon class="cls-5" points="15.5 10 17.2 13.3 18.8 10 17.1 6.7 15.5 10"/><polygon class="cls-5" points="13.4 14.2 15.1 17.5 16.7 14.2 15.1 10.9 13.4 14.2"/></g></svg>