<svg xmlns="http://www.w3.org/2000/svg" viewBox="0 0 30 20"><defs><style>.cls-1{fill:#fafafa;}.cls-2{fill:#fed600;}.cls-3{fill:#010101;}.cls-4{fill:#f3ea29;}.cls-5{fill:#3ac2d4;}.cls-6{fill:#218541;}.cls-7{fill:#c4203b;}.cls-8{fill:#263779;}.cls-9{fill:#fff;}</style></defs><title>vi</title><g id="Layer_4" data-name="Layer 4"><path class="cls-1" d="M27.5,0H2.5A2.5,2.5,0,0,0,0,2.5v15A2.5,2.5,0,0,0,2.5,20h25A2.5,2.5,0,0,0,30,17.5V2.5A2.5,2.5,0,0,0,27.5,0Z"/><path class="cls-2" d="M17.9,6.9c0-.1,0-.4-.2-.5s-.2-.2-.2-.3l.3-.4H17s-.2-.6-.1-.7.4.2.4.2.1-.3-.4-.9a1.3,1.3,0,0,0-1.3-1.6c-.2,0-.8.2-.9.5s-.3.3-.3.3-.6.1-.7.6a.4.4,0,0,1,.6.1l.5.2c.2,0-.2.5-.2.6l-.5.5s.3.1.3.2-.9.6-.9.7.4,0,.4,0a.4.4,0,0,1-.2.5Z"/><path class="cls-3" d="M18,7H13.7V6.8c.1,0,.1-.2.1-.4h-.4c0-.1.1-.2.5-.4l.4-.3H14c-.1-.1,0-.2.4-.5h.1l.2-.5-.4-.2h-.1s0-.1-.2-.1h-.2l-.2.2V4.1c.1-.5.5-.6.7-.7l.3-.3a1.4,1.4,0,0,1,1-.5h0a1.5,1.5,0,0,1,1.1.5A1.1,1.1,0,0,1,17,4.2c.5.7.4,1,.4,1.1v0L17,5.1c0,.1.1.3.1.4h.8l-.3.3c0,.1,0,.1.2.2s.2.4.2.6Zm-4-.2h3.8V6.5c-.3-.1-.3-.2-.3-.4l.2-.3H17c-.1,0-.1-.1-.1-.2s-.2-.5,0-.7h.3l-.4-.7h0c0-.4,0-.7-.3-.9a1.1,1.1,0,0,0-.9-.5h0a1.2,1.2,0,0,0-.8.4h0c-.3,0-.3.2-.3.2h-.1l-.5.3H14l.4.2.4.2c.1,0,.1,0,.1.1s-.2.6-.3.7a.1.1,0,0,1-.1.1l-.2.3c.1,0,.2.1.2.3s-.2.1-.5.4h0C14.1,6.5,14,6.7,14,6.8Z"/><path class="cls-2" d="M17.7,12.7a1,1,0,0,1-.2.6,1.7,1.7,0,0,1,1.4,1.2c0,.2-.3.4-.3.4s.1.3-.3.4-.2.4-.2.4a.3.3,0,0,1-.4.2.5.5,0,0,1-.5.5s-.3.6-.7.3a.6.6,0,0,1-1.1,0c-.1,0-.4.2-.6-.3s-.6-.4-.6-.4a.7.7,0,0,1-.3-.3c-.4-.1-.3-.4-.3-.4a.4.4,0,0,1-.3-.4.4.4,0,0,1-.2-.5,1.6,1.6,0,0,1,1.3-1.1,1,1,0,0,1-.2-.6Z"/><path class="cls-3" d="M16,17.3a1,1,0,0,1-.7-.4h-.1a.5.5,0,0,1-.5-.4h0c-.3,0-.5-.3-.6-.5l-.3-.2a.5.5,0,0,1-.3-.4.6.6,0,0,1-.3-.5.6.6,0,0,1-.3-.5c.1,0,.3-.9,1.3-1.2a1.3,1.3,0,0,1-.1-.5h3.7a1.3,1.3,0,0,1-.1.5A1.8,1.8,0,0,1,19,14.5c0,.2-.2.3-.3.4v.3l-.2.2-.2.3a.1.1,0,0,0-.1.1l-.4.2a.8.8,0,0,1-.5.5c-.1.1-.3.4-.6.4h-.1C16.4,17.1,16.2,17.3,16,17.3Zm-.6-.7h.1a.5.5,0,0,0,.5.3c.2,0,.3-.1.4-.3h.3c.2,0,.3-.3.4-.4h.1a.7.7,0,0,0,.4-.4h.1a.4.4,0,0,0,.3-.2h.1s.1,0,.1-.2a.1.1,0,0,1,.1-.1h.2v-.2h.1c0-.1.2-.2.2-.3a1.7,1.7,0,0,0-1.3-1.1h-.1a1.1,1.1,0,0,0,.2-.5H14.4a1.1,1.1,0,0,0,.1.5h-.1a1.5,1.5,0,0,0-1.2,1.1h0v.3h.1a.4.4,0,0,0,.2.3c.1,0,.1,0,.1.1s0,.2.2.3H14a.2.2,0,0,0,.2.2h.1s.2.4.5.4h.1c.1.3.2.3.3.3h.2Z"/><path class="cls-2" d="M12.2,7.4s-.6.6-.9.1.4-.6.4-.6a.9.9,0,0,0,.5-.9c0-.8-.9-1.3-1.2-1.4H9.9a32.9,32.9,0,0,1-3.2-.9,26,26,0,0,0-3.1-.7s-.5-.1-.4.3a.5.5,0,0,0,.4.5s-.3.2-.3.4a.8.8,0,0,0,.8.6c-.1.7,1,.8,1,.8s.1,1.2,1.1,1.1a1.1,1.1,0,0,0,1.1.8,1.4,1.4,0,0,0,1,.5,1.1,1.1,0,0,0,1.2.7s-.1.5.2.5.5.7.8.6a.6.6,0,0,0,.8.3.7.7,0,0,0,.8.2s.1.4.6.2S12.2,7.4,12.2,7.4Z"/><path class="cls-3" d="M12.5,10.5h0l-.4-.2h-.3a.6.6,0,0,1-.5-.2H11c-.2,0-.4,0-.5-.3h-.3l-.5-.2c0-.1-.1-.2,0-.4H9.5a.6.6,0,0,1-.1-.4H9.2A1,1,0,0,1,8.3,8a1.5,1.5,0,0,1-1-.5c-.2-.1-.9-.2-1.1-.8S5.1,5.8,5,5.6s-1-.3-1-.9a.8.8,0,0,1-.8-.5.8.8,0,0,1,.2-.5c-.1,0-.3-.2-.3-.5s0-.2.1-.2.4-.2.4-.2a17.7,17.7,0,0,1,3.1.8l3.2.9H11c.3.1,1.3.6,1.3,1.5s-.4.9-.5.9h-.1a.4.4,0,0,0-.4.2v.3h.3a1.6,1.6,0,0,0,.6-.3h.1c.8,2.5.6,2.9.4,3Zm-.4-.4h.1a.4.4,0,0,0,.3.2h.2c0-.1.2-.3-.5-2.8h0c-.2.1-.4.3-.6.3l-.4-.2a.8.8,0,0,1-.1-.4.9.9,0,0,1,.6-.4h0c.1,0,.4-.2.4-.8S11.2,4.7,11,4.7H9.9c-.3-.1-3-.7-3.3-.9a14.8,14.8,0,0,0-3-.7H3.3c0,.4.3.4.3.4a.1.1,0,0,1,.1.1H3.6l-.2.4c0,.2.2.5.7.5h0c.1,0,.1,0,.1.1s.9.8.9.8h.1c0,.1.1,1.1,1,1h.1a1.1,1.1,0,0,0,1,.7h.1a1.8,1.8,0,0,0,1,.6h0a.9.9,0,0,0,.8.6h.3s0,.3.1.4h.2c0,.2,0,.3.1.4l.3.2h.4a.4.4,0,0,0,.7.2h.1c.1.2.2.3.4.3Z"/><path class="cls-4" d="M12.1,10.2s.1-.5-.1-.6Z"/><path class="cls-3" d="M12.1,10.3h0V9.7h.1c.1.1.1.5.1.6s0,.1-.1.1Z"/><path class="cls-4" d="M11.3,10c0-.1.2-.5.1-.6Z"/><path class="cls-3" d="M11.3,10h-.1l.2-.5h.1c0,.2-.1.5-.2.5Z"/><path class="cls-4" d="M10.5,9.7l.6-.6Z"/><path class="cls-3" d="M10.5,9.8a.1.1,0,0,1-.1-.1h0l.6-.5h.1l-.6.5Z"/><path class="cls-4" d="M9.7,9.1l.9-.5Z"/><path class="cls-3" d="M9.7,9.2h0l.9-.6h.1l-.9.6Z"/><path class="cls-4" d="M9.4,8.6s.5-.2.6-.4Z"/><path class="cls-3" d="M9.4,8.6h0l.5-.4H10c0,.1-.1.2-.5.4H9.4Z"/><path class="cls-2" d="M8.3,7.9s1.2.3,1.4,0Z"/><path class="cls-3" d="M9.3,8.1h.4a.1.1,0,0,1,.1.1H9.3Z"/><path class="cls-2" d="M7.4,7.4s1.7.2,1.9-.1Z"/><path class="cls-3" d="M8.7,7.5H7.3c0-.1,0-.1.1-.1H8.7Z"/><path class="cls-2" d="M6.2,6.6s2.1.4,2.6.1Z"/><path class="cls-3" d="M8.1,6.9h0L6.3,6.7h.1l1.7.2h0Z"/><path class="cls-2" d="M5.2,5.6A13.7,13.7,0,0,0,8.3,6Z"/><path class="cls-3" d="M8.1,6.1h0a21.9,21.9,0,0,1-2.7-.4H5.3l3,.4H8.1Z"/><path class="cls-2" d="M4.2,4.6s3.2.8,3.6.5Z"/><path class="cls-3" d="M7.4,5.2h0L4.3,4.7H4.2s-.1,0,0-.1h0L7.8,5H7.4ZM6.4,5h0Z"/><path class="cls-2" d="M3.8,3.7s3,1,3.3.8Z"/><path class="cls-3" d="M6.9,4.6h0a15,15,0,0,1-3-.8H3.8l3.3.7H6.9Z"/><path class="cls-2" d="M19.7,7.4s.7.7,1,.2-.5-.7-.5-.7-.4-.1-.4-.9.9-1.3,1.2-1.4h1a19.7,19.7,0,0,0,3.3-1,26,26,0,0,1,3.1-.7.4.4,0,0,1,.4.4c-.1.4-.4.4-.4.4a.5.5,0,0,1,.2.5c0,.2-.2.5-.7.5s-1.1.9-1.1.9-.1,1.1-1.1,1a1.1,1.1,0,0,1-1.1.8,1.8,1.8,0,0,1-1,.6.9.9,0,0,1-1.1.6s.1.5-.3.5-.5.7-.7.6a.7.7,0,0,1-.9.3.7.7,0,0,1-.8.2.4.4,0,0,1-.5.3C18.8,10.3,19.8,7.4,19.7,7.4Z"/><path class="cls-3" d="M19.5,10.6h-.3c-.2,0-.3-.5.4-2.9V7.4h.1s.3.4.6.4.1-.1.2-.2a.3.3,0,0,0,.1-.2L20.2,7h0c-.2-.1-.5-.3-.5-1s1-1.4,1.3-1.4h1a19,19,0,0,0,3.2-.9,19.5,19.5,0,0,1,3.1-.7h.1l.4.2s.1.1,0,.3-.1.4-.3.4a.8.8,0,0,1,.2.5.8.8,0,0,1-.8.6c0,.5-.6.8-1,.8a1.1,1.1,0,0,1-1.1,1.1h0a1.2,1.2,0,0,1-1.1.8,1.5,1.5,0,0,1-1,.5,1.1,1.1,0,0,1-1,.7h-.1a.4.4,0,0,1-.2.4h-.1c0,.2,0,.3-.1.4l-.5.2h-.2a.5.5,0,0,1-.5.3h-.3a.9.9,0,0,1-.6.3h-.2C19.8,10.4,19.7,10.6,19.5,10.6Zm.3-3.1h0c-.8,2.5-.6,2.8-.5,2.8h.2a.4.4,0,0,0,.3-.2h.3a.5.5,0,0,0,.5-.3h.1c.3.2.5.1.7-.2h.3l.4-.2c.1-.1.1-.2,0-.4h.2a.6.6,0,0,0,.1-.4h.3a.8.8,0,0,0,.8-.6h.1a2,2,0,0,0,1-.5h0a1.1,1.1,0,0,0,1.1-.7h0a1,1,0,0,0,1.1-.9h0c.1,0,1-.1,1-.8h.1a.9.9,0,0,0,.7-.4.4.4,0,0,0-.3-.4h0c.1,0,.4,0,.4-.3s0-.2-.1-.2-.2-.1-.2-.1l-3.1.7a19.2,19.2,0,0,1-3.2.9H21c-.3.1-1.2.6-1.2,1.3s.3.8.5.8h0a.7.7,0,0,1,.5.4c.1.1,0,.3-.1.4s-.2.2-.3.2A.9.9,0,0,1,19.8,7.5Z"/><path class="cls-4" d="M19.8,10.2s0-.4.1-.5Z"/><path class="cls-3" d="M19.8,10.3h0a.1.1,0,0,1-.1-.1c0-.1,0-.5.2-.6H20v.6Z"/><path class="cls-4" d="M20.7,10l-.2-.5Z"/><path class="cls-3" d="M20.7,10.1h-.1a1.2,1.2,0,0,1-.2-.5h.2v.5h0Z"/><path class="cls-4" d="M21.5,9.7l-.6-.6Z"/><path class="cls-3" d="M21.5,9.8h-.1l-.6-.6h.1l.6.6h0Z"/><path class="cls-2" d="M22.2,9.1l-.9-.5Z"/><path class="cls-3" d="M22.2,9.2h0l-.9-.5c-.1-.1-.1-.1,0-.2h.1l.8.6h0Z"/><path class="cls-4" d="M22.5,8.6s-.5-.2-.5-.4Z"/><path class="cls-3" d="M22.5,8.7h0c-.4-.1-.6-.3-.6-.4H22l.6.4h-.1Z"/><path class="cls-2" d="M23.6,8s-1.2.2-1.4-.1Z"/><path class="cls-3" d="M22.7,8.1h0Z"/><path class="cls-2" d="M24.6,7.4c-.1,0-1.8.2-2,0Z"/><path class="cls-3" d="M23.3,7.5h0Z"/><path class="cls-2" d="M25.7,6.6a6.9,6.9,0,0,1-2.6.1Z"/><path class="cls-3" d="M23.8,6.9h2c0,.1,0,.1-.1.1h-.1Z"/><path class="cls-2" d="M26.7,5.6a13,13,0,0,1-3.1.4Z"/><path class="cls-3" d="M23.9,6.1h-.3l3.1-.4h0c0,.1-.1.1-.2.1Z"/><path class="cls-2" d="M27.7,4.7s-3.1.7-3.5.4Z"/><path class="cls-3" d="M24.6,5.2h-.4l3.5-.4h.1c0,.1,0,.1-.1.1h0A13.1,13.1,0,0,1,24.6,5.2Zm1-.2h0Z"/><path class="cls-2" d="M28.1,3.8s-3,.9-3.2.7Z"/><path class="cls-3" d="M25,4.6h-.1l3.2-.7h0A26,26,0,0,1,25,4.6Z"/><path class="cls-5" d="M23.3,8.5v2.6l-.4-.4-1.2,3.6.3.8-.7,2.2-.6-.7-.9.4.8-2.4.6-.4,1.2-3.6h-.6Z"/><path class="cls-3" d="M21.2,17.5l-.6-.8-1,.4.8-2.5.6-.5,1.2-3.4h-.8l2.1-2.6v.3a10.9,10.9,0,0,0-.1,1.3,3.4,3.4,0,0,0-.1.9c0,.5,0,.5-.1.6h-.1l-.3-.3-1.1,3.4.3.8Zm-.5-1,.5.6.6-2-.3-.8,1.2-3.8h.2l.2.3c0-.5.1-1.3.1-2l-1.3,1.6h.6l-1.3,3.7-.6.5-.7,2.1Z"/><path class="cls-5" d="M25.9,9.6l-1.4,2.2v-.6l-2.3,2.2-2.5,2.3v-.5h-.8l1.1-.8h.5L24,11l-.6-.3Z"/><path class="cls-3" d="M19.5,16v-.7h-1l1.3-1h.6L23.8,11l-.7-.3,3.1-1.3-.2.3c-1.4,2.2-1.4,2.2-1.5,2.2h-.1v-.4l-2.1,2Zm-.5-.9h.7v.4L22,13.3,24.5,11v.2a.4.4,0,0,0,.1.3l1-1.6-1.9.8.6.2-3.8,3.4h-.6Z"/><path class="cls-3" d="M19.7,15.3h-.2L20.8,14l.2.2Z"/><path class="cls-5" d="M25.2,7.7l-.7,2.6a3.3,3.3,0,0,0-.3-.6l-2.8,4.8v.8l-1,1.8-.4-.8-1,.2,1.1-1.9.8-.4,2.8-4.6h-.7Z"/><path class="cls-3" d="M20.5,17.4l-.5-.9-1.1.2,1.2-2.2.8-.3,2.7-4.5h-.8l2.6-2.2v.3L24.9,9c-.3,1.4-.3,1.4-.4,1.4h-.1l-.2-.3-2.7,4.5v.8Zm-.3-1.2.3.7.9-1.6v-.8h0l2.9-4.9v.2c0,.1.1.2.1.3L25,8,23.4,9.4H24l-3,4.8-.7.4-.9,1.7Z"/><path class="cls-3" d="M20,16.7v-.4h0l1-1.6h.2Z"/><polygon class="cls-5" points="1.2 7.2 2.9 7.3 2.7 7.7 3.5 10.5 4.4 7.7 4 7.2 5.8 7.2 5.4 7.6 4 11.8 4.3 12.3 2.7 12.3 3 11.8 1.6 7.7 1.2 7.2"/><path class="cls-3" d="M4.6,12.4H2.5l.4-.7-1.4-4L1,7.1H3.1l-.2.6.6,2.4.7-2.4-.4-.6H6l-.5.6-1.4,4Zm-1.7-.2H4.1l-.2-.4L5.3,7.6l.2-.2H4.3l.2.2-1,3.3L2.6,7.6V7.4H1.5l.2.2,1.5,4.2Z"/><polygon class="cls-5" points="27 7.3 28.5 7.3 28.3 7.7 28.3 11.9 28.6 12.3 27 12.3 27.3 11.9 27.3 7.7 27 7.3"/><path class="cls-3" d="M28.9,12.4H26.7l.5-.6V7.7l-.5-.5h2.1l-.4.5v4.1Zm-1.7-.2h1.2l-.2-.3h0V7.5H27.2l.2.2v4.2Z"/><path class="cls-6" d="M12.1,16l.6-.5s-.1-.3-.6-.2l-1.1-1-.4-1a.7.7,0,0,0,.4-.4,2,2,0,0,0-.1-.5h-.4c-.1.2-.2.7-.4.5a.3.3,0,0,1,0-.4l.2-.3a1.6,1.6,0,0,0-.3-.6,2.1,2.1,0,0,1-.2.6c-.1.1-.2.3-.3.2s.1-.4.1-.4.4-.2,0-1a2.5,2.5,0,0,1-.4.6s-.1.2-.2,0a.2.2,0,0,1,.1-.3s.4-.3.4-.6-.5-.7-.5-.7,0,.6-.1.7-.2.2-.4.1.1-.5.1-.5.5-.5.5-.8S9,9.3,9,9.3l-.4.3c0,.2-.2.6-.4.4s.1-.4.1-.4l.2-.3c0-.1-.1-.3-.4-.6S8,8.3,8,8.3l-.2.4v.7c.1.3-.2-.1-.2-.1V8.4a1.9,1.9,0,0,0-.8-.7,1,1,0,0,1,.2.5l-.2.5a1.7,1.7,0,0,0,.6.9C6.8,9,6.1,9.2,5.8,9s.5.6.4.8l.6.3h.6l.4.3c0,.2-.5-.2-.7-.2H6.4l.3.4c.1.1.2.4.4.5H8c0,.1-.3.3-.3.3H7.3c-.1-.1-.1-.3-.6-.3a1,1,0,0,0,.3.8s1.3-.1,1.2.2-1,0-1.1-.1.1.5.3.7a2.6,2.6,0,0,0,.9,0c.1,0,.3,0,.3.1L7.3,13a.8.8,0,0,0,.7.5,1.5,1.5,0,0,0,.8-.2s.3-.1.3.1l-.3.2H8c-.1,0,.1.5.7.5s.5-.2.6-.2h.4l.7.4Z"/><path class="cls-3" d="M12.1,16.1H12l-1.7-1.8-.6-.4H9.3c-.1.1-.2.2-.6.2h0L8,13.9v-.3a.5.5,0,0,1-.5-.3L7.2,13h.2A1.2,1.2,0,0,1,7,12H6.9a.8.8,0,0,1-.3-.8h.2l-.2-.4-.2-.3v-.2h.1c-.3-.2-.3-.3-.3-.4l-.3-.6c-.1,0-.1-.1,0-.1h1a.8.8,0,0,1-.1-.4,1.1,1.1,0,0,1,.2-.5l-.2-.4h.2a3.1,3.1,0,0,1,.8.7h0l.2-.2h.2v.3a2.7,2.7,0,0,1,.4.7l-.2.4a.4.4,0,0,0-.1.3l.2-.4h0L9,9.2h.1a.6.6,0,0,1,.1.4.6.6,0,0,1-.1.4h0c.1.1.5.4.5.8V11h.1a1.4,1.4,0,0,1,.2.6H10c.1,0,.4.5.4.6s-.2.4-.2.5h0a.1.1,0,0,0-.1.1h.1v-.3h.1c.1-.2.4-.2.5-.2H11c.1.1.1.4.1.7a.5.5,0,0,1-.4.3l.4.9a5.9,5.9,0,0,0,1.1.9c.4.1.6.3.6.4h0l-.6.5ZM9.6,13.7h.1l.8.5h0l1.6,1.6.4-.3h-.4a4.6,4.6,0,0,1-1.2-1h0l-.4-1h.1a.4.4,0,0,0,.2-.3.3.3,0,0,0,0-.4h-.3c-.1.2-.2.4-.4.4H10a.4.4,0,0,1-.1-.3.3.3,0,0,1,.1-.2l.2-.3c0-.1-.1-.2-.2-.3s0,.3-.1.4H9.8l-.2.2H9.4v-.2c0-.1.2-.2.2-.3h0s.3-.1.1-.6l-.3.3a.2.2,0,0,1-.2.2H8.9c-.1-.3,0-.5.1-.5a.5.5,0,0,0,.4-.5.9.9,0,0,0-.3-.5.8.8,0,0,1-.2.6H8.3c0-.2.2-.4.2-.5A1.2,1.2,0,0,0,9,9.6H9l-.3.2h0c-.1.2-.2.5-.4.5H8.1c-.2-.2.1-.5.1-.6l.2-.2A1.1,1.1,0,0,0,8,8.8H8c0-.1-.1-.1-.1-.2h0v.9H7.8l-.3-.2h0V8.4L7.1,8v.2h0l-.2.4a.9.9,0,0,0,.4.6l.2.2v.2H7.3l-.2-.2a1.2,1.2,0,0,0-.9-.3H6.1a1.4,1.4,0,0,1,.2.6l.5.2h.7c.1,0,.4.2.4.4H7.8l-.3-.2H6.7l.2.3.2.4h.8l.2.2c.1.2-.3.3-.3.4H7.1l-.3-.2a1.1,1.1,0,0,0,.2.6h.5c.6,0,.7.1.8.2v.2c0,.1-.1.2-.4.2H7.3a.8.8,0,0,0,.2.4h1c.2,0,.2.1.2.2s-.8.3-1.2.3a.5.5,0,0,0,.5.3,1,1,0,0,0,.7-.2h.5v.2l-.4.2H8.2a.6.6,0,0,0,.5.2h.4a.1.1,0,0,1,.1-.1Zm-.8-.3h0Zm.8-1.2h.1c.1,0,.1-.1.1-.2ZM7.3,12h0Zm1.9-.5H9.1l.3-.3-.2.2Zm-1.8-.2Zm1.5-1-.2.2a.4.4,0,0,0-.1.3h.1a.1.1,0,0,1,.1-.1C8.9,10.7,8.9,10.5,8.9,10.3Z"/><path class="cls-3" d="M7.6,9.7H7.5C7,9.4,7,8.4,7,8.4h.2l.5,1.2v.2Z"/><path class="cls-3" d="M7.9,9.9H7.8L8,9.1h.2c0,.1.2.3.1.5l-.4.4Z"/><path class="cls-3" d="M7.3,10h0l-.8-.2a1,1,0,0,1-.1-.4h.2l.9.5H7.3Z"/><path class="cls-3" d="M8.3,10.4H8.2l.6-.4h.1A.6.6,0,0,1,8.3,10.4Z"/><path class="cls-3" d="M8.8,11.4H8.7c-.1,0-.1-.1,0-.1l.4-.5h.2c0,.3,0,.4-.2.5S8.9,11.4,8.8,11.4Z"/><path class="cls-3" d="M7.7,11h0a1.5,1.5,0,0,1-.9-.4h.1l.9.4H7.7Z"/><path class="cls-3" d="M7.6,11.8h0a.8.8,0,0,1-.7-.3c-.1,0-.1-.1,0-.1H7l.8.3H7.6Z"/><path class="cls-3" d="M9.2,12.2H9.1l.3-.4h.2a.6.6,0,0,1-.4.5Z"/><path class="cls-3" d="M7.9,12.6h0c-.4,0-.5-.2-.6-.2h.2l.8.2H7.9Z"/><path class="cls-3" d="M9.7,12.8H9.6v-.2l.4-.4h.2c0,.1-.1.6-.5.6Z"/><path class="cls-3" d="M10.1,13.3H10c-.1,0-.1,0-.1-.1h0l.7-.5h.1c.1.1.1.1.1.2A.8.8,0,0,1,10.1,13.3Z"/><path class="cls-3" d="M8.6,13.9h.6a.1.1,0,0,1-.1.1Z"/><path class="cls-3" d="M8.2,13.3H7.9a.1.1,0,0,1-.1-.1c-.1-.1,0-.1.1-.1h.9c.1.1,0,.1,0,.2Z"/><path class="cls-2" d="M19.2,10.5l.4.5a1.1,1.1,0,0,0,.2.5l.6.4c0,.2.4.7.4.7s.3.6.5.7.8-.1.9.2a2.6,2.6,0,0,1,.1.7s-.1.2-.2.1-.2.4-.4.2a1.1,1.1,0,0,0-1.1-.5s.2-.2-.5-.5-1.3-.9-1.3-.9l-.6-.5Z"/><path class="cls-3" d="M21.8,14.7h-.2a.9.9,0,0,0-.8-.5h-.4l.2-.2h-.1l-.4-.2h-.2a1.3,1.3,0,0,1-1.2-1l-.7-.6,1.2-1.7h.1l.4.5.2.4a1.3,1.3,0,0,1,.6.5l.3.6c.2.3.4.7.5.7h.2c.3,0,.7,0,.8.3a1,1,0,0,1,.1.7h0s-.2.2-.3.1h0l-.3.3Zm-1-.8a1.2,1.2,0,0,1,1,.6v-.2h.3a1.5,1.5,0,0,0-.1-.6c0-.2-.3-.2-.6-.2h-.2a1.2,1.2,0,0,1-.6-.8c-.1,0-.4-.5-.4-.6l-.5-.4c-.2-.1-.3-.5-.3-.6l-.3-.3-.9,1.4.6.5h0s.2.9,1,.9h.3c.3.2.5.3.6.5Z"/><path class="cls-2" d="M12.7,10.6l-.4.5c0,.1-.2.4-.3.4l-.5.5a2.4,2.4,0,0,1-.3.7l-.6.6c-.3,0-.8,0-.9.3s.1.8.2.8.3.2.4.1h.2c-.1-.2-.1-.4.1-.5l.4.2s.1-.4.8-.7a1.2,1.2,0,0,0,1.4-.8c.1-.3.4-.3.6-.5Z"/><path class="cls-3" d="M10.4,14.7H9.9l-.2-.2a.9.9,0,0,1-.1-.7c.1-.4.7-.4,1-.4l.5-.6.3-.6.6-.6.2-.3.4-.5h.1L14,12.3h-.1l-.3.2-.3.2a1.3,1.3,0,0,1-1.3,1h-.2c-.6.2-.7.5-.7.5v.2h-.2l-.3-.2h-.1a.3.3,0,0,0,.1.2h-.2Zm2-3.6-.3.5-.5.5-.3.6a4.6,4.6,0,0,1-.7.7h0c-.2,0-.7,0-.8.3a.6.6,0,0,0,.1.6h.5a.4.4,0,0,1-.1-.3l.2-.2h.4a1.9,1.9,0,0,1,.8-.6H12a1.2,1.2,0,0,0,1.1-.9h0c.1-.2.3-.2.4-.3h.2l-1-1.4Z"/><path class="cls-3" d="M16,13.9h-.1a6.4,6.4,0,0,1-3.6-7.6V6.1h.1a3.4,3.4,0,0,0,1.7.5,5.8,5.8,0,0,0,1.8-.5H16a3.4,3.4,0,0,0,1.7.5,10.9,10.9,0,0,0,1.9-.5h.1A6.6,6.6,0,0,1,16,13.9ZM12.4,6.5A6.4,6.4,0,0,0,16,13.7a6.4,6.4,0,0,0,3.5-7.2,6,6,0,0,1-1.8.4A3.2,3.2,0,0,1,16,6.5L14.1,7A5.8,5.8,0,0,1,12.4,6.5Z"/><path class="cls-7" d="M12.4,6.3a3.4,3.4,0,0,0,1.7.5A5.8,5.8,0,0,0,16,6.3a3,3,0,0,0,1.7.5,10.9,10.9,0,0,0,1.9-.5A6.5,6.5,0,0,1,16,13.8,6.3,6.3,0,0,1,12.4,6.3Z"/><path class="cls-3" d="M16,13.9h-.1a6.5,6.5,0,0,1-3.6-7.6h.1a3.2,3.2,0,0,0,1.7.6l1.8-.5H16a3.7,3.7,0,0,0,1.7.4,5.8,5.8,0,0,0,1.9-.5h.1A6.8,6.8,0,0,1,16,13.9ZM12.4,6.4A6.2,6.2,0,0,0,16,13.7a6.6,6.6,0,0,0,3.6-7.3l-1.9.5A2.8,2.8,0,0,1,16,6.4a5.6,5.6,0,0,1-1.9.5A3.8,3.8,0,0,1,12.4,6.4Z"/><path class="cls-8" d="M12.4,6.3a1.4,1.4,0,0,0,.6.3,2.2,2.2,0,0,0,1.1.2A5.8,5.8,0,0,0,16,6.3a3,3,0,0,0,1.7.5,10.9,10.9,0,0,0,1.9-.5,4.9,4.9,0,0,1,.1,2.4H12.2A4.6,4.6,0,0,1,12.4,6.3Z"/><path class="cls-3" d="M19.8,8.8H12.1a4.6,4.6,0,0,1,.2-2.3h.1l.6.3,1.1.3,1.8-.5H16a3.7,3.7,0,0,0,1.7.4,5.8,5.8,0,0,0,1.9-.5h.1a9.5,9.5,0,0,1,.1,2.4Zm-7.6-.2h7.4a5.4,5.4,0,0,0,0-2.2l-1.9.5A2.8,2.8,0,0,1,16,6.4a5.6,5.6,0,0,1-1.9.5l-1.2-.2-.5-.3A8.2,8.2,0,0,0,12.2,8.6Z"/><polygon class="cls-9" points="12.6 8.7 12.6 10.4 13.1 11.3 13.1 8.7 12.6 8.7"/><polygon class="cls-9" points="13.9 8.7 13.9 12.3 14.4 12.8 14.4 8.7 13.9 8.7"/><polygon class="cls-9" points="15.1 8.7 15.1 13.3 15.6 13.6 15.6 8.7 15.1 8.7"/><polygon class="cls-9" points="19.3 8.7 19.3 10.2 18.9 11.2 18.9 8.7 19.3 8.7"/><polygon class="cls-9" points="18.1 8.7 18.1 12.2 17.6 12.7 17.6 8.7 18.1 8.7"/><polygon class="cls-9" points="16.9 8.7 16.9 13.3 16.4 13.6 16.4 8.7 16.9 8.7"/><path class="cls-3" d="M16,13.9h-.1a6.4,6.4,0,0,1-3.6-7.6V6.1h.1a3.4,3.4,0,0,0,1.7.5,5.8,5.8,0,0,0,1.8-.5H16a3.4,3.4,0,0,0,1.7.5,10.9,10.9,0,0,0,1.9-.5h.1A6.6,6.6,0,0,1,16,13.9ZM12.4,6.5A6.4,6.4,0,0,0,16,13.7a6.4,6.4,0,0,0,3.5-7.2,6,6,0,0,1-1.8.4A3.2,3.2,0,0,1,16,6.5L14.1,7A5.8,5.8,0,0,1,12.4,6.5Z"/></g></svg>