<svg id="Flags" xmlns="http://www.w3.org/2000/svg" viewBox="0 0 30 20"><defs><style>.cls-1{fill:none;}.cls-2{fill:#db1e2a;}.cls-3{fill:#00498f;}.cls-4{fill:#fff;}</style></defs><title>ws</title><polygon class="cls-1" points="30 2.5 30 17.5 30 17.5 30 13.3 30 6.7 30 2.5 30 2.5"/><path class="cls-2" d="M27.5,0H15V8.1H0v9.4A2.5,2.5,0,0,0,2.5,20h25A2.5,2.5,0,0,0,30,17.5V2.5A2.5,2.5,0,0,0,27.5,0Z"/><path class="cls-3" d="M15,0H2.5A2.5,2.5,0,0,0,0,2.5V8.1H15ZM7.3.9,7.5.3l.2.6h.6l-.5.4.2.6-.5-.4L7,1.9l.2-.6L6.7.9ZM5.7,3.8l-.5-.4-.5.4.2-.6-.5-.4H5l.2-.6.2.6H6l-.5.3ZM8.2,7.1l-.7-.4-.6.4.2-.7-.6-.5h.8l.2-.7.3.7h.8l-.7.5ZM9,4.8l-.3-.3-.4.3.2-.4-.4-.2h.4l.2-.4v.4h.4l-.3.2Zm1.3-1.5L9.8,3l-.4.3.2-.5-.5-.4h.6V1.9l.2.5h.6l-.5.4Z"/><polygon class="cls-4" points="5.4 2.8 5.2 2.2 5 2.8 4.4 2.8 4.9 3.2 4.7 3.8 5.2 3.4 5.7 3.8 5.5 3.1 6 2.8 5.4 2.8"/><polygon class="cls-4" points="10 2.4 9.8 1.9 9.7 2.4 9.1 2.4 9.6 2.8 9.4 3.3 9.8 3 10.3 3.3 10.1 2.8 10.6 2.4 10 2.4"/><polygon class="cls-4" points="7.8 5.9 7.5 5.2 7.3 5.9 6.5 5.9 7.1 6.4 6.9 7.1 7.5 6.7 8.2 7.1 7.9 6.4 8.6 5.9 7.8 5.9"/><polygon class="cls-4" points="8.8 4.2 8.7 3.8 8.5 4.2 8.1 4.2 8.5 4.4 8.3 4.8 8.7 4.5 9 4.8 8.9 4.4 9.2 4.2 8.8 4.2"/><polygon class="cls-4" points="7 1.9 7.5 1.5 8 1.9 7.8 1.3 8.3 0.9 7.7 0.9 7.5 0.3 7.3 0.9 6.7 0.9 7.2 1.3 7 1.9"/></svg>