<svg id="Flags" xmlns="http://www.w3.org/2000/svg" viewBox="0 0 30 20"><defs><style>.cls-1{fill:#75aadb;}.cls-2{fill:#fff;}.cls-3{fill:#fbbe4a;}.cls-4{fill:#84371b;}</style></defs><title>Artboard 30</title><path class="cls-1" d="M27.4,0H2.6A2.5,2.5,0,0,0,0,2.5V6.6H30V2.5A2.5,2.5,0,0,0,27.4,0Z"/><path class="cls-1" d="M0,17.5A2.5,2.5,0,0,0,2.6,20H27.4A2.5,2.5,0,0,0,30,17.5V13.4H0Z"/><path class="cls-2" d="M0,13.4H30V6.6H0ZM12.2,10h1.7l-.8-.2c-.3-.2-.4-.1-.6-.1s-.3-.2-.2-.2h.2a1,1,0,0,1,.7.1h.7L12.4,9h0l1.6.6h0c-.2-.2-.4-.2-.6-.5s-.4-.2-.6-.3V8.4l.2.2a.8.8,0,0,1,.6.3l.6.4h0L13,8.1h.1l1.2,1.1h0c-.1-.2-.3-.3-.4-.6s-.3-.4-.4-.6-.1-.3,0-.3a.8.8,0,0,0,.1.3,1.1,1.1,0,0,1,.4.5c.1.3.3.4.5.6h0l-.6-1.5H14l.7,1.5h0c0-.2-.2-.4-.1-.7s-.2-.5-.2-.7a.4.4,0,0,1,.1-.3c.1.1,0,.1,0,.3s.2.3.2.6a2.4,2.4,0,0,0,.2.8h0V7.2h0V8.9h0c.1-.3,0-.4.2-.8s.1-.4.1-.6.2-.3.2-.2-.1,0-.1.2a1,1,0,0,1-.1.7c-.1.2,0,.5-.1.7h0L16,7.4h.1L15.5,9h0c.2-.2.2-.4.5-.6s.2-.4.4-.6h.2s-.1,0-.2.2a.7.7,0,0,1-.3.6c-.2.2-.2.4-.4.6h0L16.9,8H17L15.9,9.3h0c.2-.1.3-.3.6-.4s.4-.3.6-.4h.1l-.6.4c-.3.1-.4.3-.6.5h0l1.6-.6h0l-1.5.7h0c.3,0,.4-.2.7-.1s.5-.2.7-.2h0l-.6.2-.8.2h0l.8.2c.3.2.4.1.6.1s.3.2.2.2h-.2a1,1,0,0,1-.7-.1h-.7l1.5.7h0L16,10.5h0c.2.2.4.2.6.5s.4.2.6.3v.3l-.2-.2a.8.8,0,0,1-.6-.3l-.6-.4h0L17,11.9h-.1l-1.2-1.1h0c.1.2.3.3.4.6s.3.4.4.6.1.3,0,.3v-.3a1.1,1.1,0,0,1-.4-.5c-.1-.3-.3-.4-.5-.6h0l.6,1.5H16l-.7-1.5h0c0,.2.2.4.1.7s.2.5.2.7a.4.4,0,0,1-.1.3c-.1-.1,0-.1,0-.3s-.2-.3-.2-.6a2.4,2.4,0,0,0-.2-.8h0v1.7h0V11.1h0c-.1.3,0,.4-.2.8s-.1.4-.1.6-.2.3-.2.2.1,0,.1-.2a1,1,0,0,1,.1-.7c.1-.2,0-.5.1-.7h0L14,12.6h-.1l.6-1.5h0c-.2.2-.2.4-.5.6s-.2.4-.4.6h-.2s.1,0,.2-.2a.7.7,0,0,1,.3-.6c.2-.2.2-.4.4-.6h0L13.1,12H13l1.1-1.2h0c-.2.1-.3.3-.6.4s-.4.3-.6.4h-.1a1.5,1.5,0,0,1,.6-.4c.3-.1.4-.3.6-.5h0l-1.6.6h0l1.5-.7h0c-.3,0-.4.2-.7.1s-.5.2-.7.2h0l.6-.2.8-.2H12.2Z"/><path class="cls-3" d="M15,11.9v-.8h-.1v1.7h0V11.1H15Z"/><path class="cls-4" d="M15,11.1h0v0Z"/><path class="cls-3" d="M14.6,11.9c.2-.3.1-.5.1-.8h0c-.1.2,0,.5-.1.7a1,1,0,0,0-.1.7c0,.2-.1.2-.1.2s.1,0,.2-.2-.1-.3.1-.6.1-.5.2-.8h-.1C14.7,11.4,14.8,11.7,14.6,11.9Z"/><path class="cls-4" d="M14.8,11.1h-.1c0,.3.1.5-.1.8S14.7,11.4,14.8,11.1Z"/><path class="cls-3" d="M15,8.1v.8h.1V7.2h0V8.9H15Z"/><path class="cls-4" d="M15,8.9h0v0Z"/><path class="cls-3" d="M15.4,8.1c-.2.3-.1.5-.1.8h0c.1-.2,0-.5.1-.7a1,1,0,0,0,.1-.7c0-.2.1-.2.1-.2s-.1,0-.2.2.1.3-.1.6-.1.5-.2.8h.1C15.3,8.6,15.2,8.3,15.4,8.1Z"/><path class="cls-4" d="M15.2,8.9h.1c0-.3-.1-.5.1-.8S15.3,8.6,15.2,8.9Z"/><path class="cls-3" d="M12.2,10h0Z"/><path class="cls-4" d="M13.9,10h0Z"/><path class="cls-3" d="M13.1,9.6c.3.2.5.1.8.1h-.7a1,1,0,0,0-.7-.1h-.2c-.1,0,0,.1.2.2s.3-.1.6.1l.8.2h0C13.6,9.7,13.3,9.8,13.1,9.6Z"/><path class="cls-4" d="M13.9,9.8h0c-.3,0-.5.1-.8-.1S13.6,9.7,13.9,9.8Z"/><path class="cls-3" d="M16.9,10h0Z"/><path class="cls-4" d="M16.1,10Z"/><path class="cls-3" d="M16.9,10.4c-.3-.2-.5-.1-.8-.1h.7a1,1,0,0,0,.7.1h.2c.1,0,0-.1-.2-.2s-.3.1-.6-.1l-.8-.2h0C16.4,10.3,16.7,10.2,16.9,10.4Z"/><path class="cls-4" d="M16.1,10.2h0c.3,0,.5-.1.8.1S16.4,10.3,16.1,10.2Z"/><path class="cls-3" d="M13.6,11.3l.6-.5h-.1L13,11.9h.1l1.2-1.1h-.1Z"/><path class="cls-4" d="M14.2,10.8h0l-.6.5Z"/><path class="cls-3" d="M13.4,11c.3,0,.4-.2.6-.4h0c-.2.2-.3.4-.6.5a1.5,1.5,0,0,0-.6.4h.1c.2-.1.2-.3.6-.4s.4-.3.6-.4h0C13.8,10.8,13.7,11,13.4,11Z"/><path class="cls-4" d="M14.1,10.7H14c-.2.2-.3.4-.6.4S13.8,10.8,14.1,10.7Z"/><path class="cls-3" d="M16.4,8.7l-.6.5h.1L17,8.1h-.1L15.7,9.1h.1Z"/><path class="cls-4" d="M15.8,9.2h0l.6-.5Z"/><path class="cls-3" d="M16.6,9c-.3,0-.4.2-.6.4h0c.2-.2.3-.4.6-.5l.6-.4h-.1c-.2.1-.2.3-.6.4s-.4.3-.6.4h0C16.2,9.2,16.3,9,16.6,9Z"/><path class="cls-4" d="M15.9,9.3H16c.2-.2.3-.4.6-.4S16.2,9.2,15.9,9.3Z"/><path class="cls-3" d="M13.6,8.7l.6.5h.1L13.1,8H13l1.1,1.2h.1Z"/><path class="cls-4" d="M14.2,9.2h0l-.6-.5Z"/><path class="cls-3" d="M14,8.4c0,.3.2.4.4.6h.1c-.2-.2-.4-.3-.5-.6a1.1,1.1,0,0,0-.4-.5.8.8,0,0,1-.1-.3c-.1,0-.1.2,0,.3s.3.2.4.6.3.4.4.6h0C14.2,8.8,14,8.7,14,8.4Z"/><path class="cls-4" d="M14.3,9.1h.1c-.2-.2-.4-.3-.4-.6S14.2,8.8,14.3,9.1Z"/><path class="cls-3" d="M16.4,11.3l-.6-.5h-.1L16.9,12H17l-1.1-1.2h-.1Z"/><path class="cls-4" d="M15.8,10.8h0l.6.5Z"/><path class="cls-3" d="M16,11.6c0-.3-.2-.4-.4-.6h-.1c.2.2.4.3.5.6a1.1,1.1,0,0,0,.4.5v.3c.1,0,.1-.2,0-.3s-.3-.2-.4-.6-.3-.4-.4-.6h0C15.8,11.2,16,11.3,16,11.6Z"/><path class="cls-4" d="M15.7,10.9h-.1c.2.2.4.3.4.6S15.8,11.2,15.7,10.9Z"/><path class="cls-3" d="M14.3,11.8l.2-.8h0l-.6,1.5H14l.7-1.5h-.1Z"/><path class="cls-4" d="M14.6,11.1h-.1l-.2.8Z"/><path class="cls-3" d="M13.9,11.6c.3-.2.3-.4.4-.7h0c-.2.2-.2.4-.4.6a.7.7,0,0,0-.3.6c-.1.2-.2.2-.2.2h.2c.2-.2.1-.3.4-.6s.3-.4.5-.6h-.1C14.2,11.2,14.2,11.5,13.9,11.6Z"/><path class="cls-4" d="M13.9,11.6c.3-.1.3-.4.5-.6h-.1C14.2,11.2,14.2,11.4,13.9,11.6Z"/><path class="cls-3" d="M15.7,8.2l-.2.8h0l.6-1.5H16l-.7,1.5h.1Z"/><path class="cls-4" d="M15.4,8.9h.1l.2-.8Z"/><path class="cls-3" d="M16.1,8.4c-.3.2-.3.4-.4.7h0c.2-.2.2-.4.4-.6a.7.7,0,0,0,.3-.6c.1-.2.2-.2.2-.2h-.2c-.2.2-.1.3-.4.6s-.3.4-.5.6h.1C15.8,8.8,15.8,8.5,16.1,8.4Z"/><path class="cls-4" d="M16.1,8.4c-.3.1-.3.4-.5.6h.1C15.8,8.8,15.8,8.6,16.1,8.4Z"/><path class="cls-3" d="M13.2,9.3l.8.2h0l-1.6-.6h0l1.5.7h0Z"/><path class="cls-4" d="M13.9,9.6H14l-.8-.2Z"/><path class="cls-3" d="M13.4,8.9c.2.3.4.3.7.4h0l-.6-.4a.8.8,0,0,0-.6-.3l-.2-.2v.3c.2.1.3,0,.6.3s.4.3.6.5h0C13.8,9.2,13.5,9.2,13.4,8.9Z"/><path class="cls-4" d="M13.4,8.9c.1.3.4.3.6.5h.1C13.8,9.2,13.6,9.2,13.4,8.9Z"/><path class="cls-3" d="M16.8,10.7l-.8-.2h0l1.6.6h0l-1.5-.7h0Z"/><path class="cls-4" d="M16.1,10.4H16l.8.2Z"/><path class="cls-3" d="M16.6,11.1c-.2-.3-.4-.3-.7-.4h0l.6.4a.8.8,0,0,0,.6.3l.2.2v-.3c-.2-.1-.3,0-.6-.3s-.4-.3-.6-.5h0C16.2,10.8,16.5,10.8,16.6,11.1Z"/><path class="cls-4" d="M16.6,11.1c-.1-.3-.4-.3-.6-.5h-.1C16.2,10.8,16.4,10.8,16.6,11.1Z"/><path class="cls-3" d="M13.2,10.7l.7-.3h0l-1.5.7h0l1.6-.6h0Z"/><path class="cls-4" d="M14,10.5h-.1l-.7.3Z"/><path class="cls-3" d="M13.1,10.4l.8-.2h0l-.8.2-.6.2h0c.2,0,.2-.2.7-.2s.4-.1.7-.1h-.8Z"/><path class="cls-4" d="M13.1,10.4h.8Z"/><path class="cls-3" d="M16.8,9.3l-.7.3h0L17.6,9h0L16,9.5h0Z"/><path class="cls-4" d="M16,9.5h.1l.7-.3Z"/><path class="cls-3" d="M16.9,9.6l-.8.2h0l.8-.2.6-.2h0c-.2,0-.2.2-.7.2s-.4.1-.7.1h.8Z"/><path class="cls-4" d="M16.9,9.6h-.8Z"/><path class="cls-3" d="M14.3,8.2l.3.7h.1L14,7.4h-.1L14.5,9h0Z"/><path class="cls-4" d="M14.5,9h.1l-.3-.7Z"/><path class="cls-3" d="M14.6,8.1c0,.3.2.5.2.8h.1a2.4,2.4,0,0,1-.2-.8c0-.3-.2-.5-.2-.6s.1-.2,0-.3a.4.4,0,0,0-.1.3c0,.2.2.3.2.7s.1.5.1.7h0C14.7,8.6,14.6,8.4,14.6,8.1Z"/><path class="cls-4" d="M14.6,8.1c0,.3.1.5.1.8h.1C14.8,8.6,14.6,8.4,14.6,8.1Z"/><path class="cls-3" d="M15.7,11.8l-.3-.7h-.1l.7,1.5h.1L15.5,11h0Z"/><path class="cls-4" d="M15.5,11h-.1l.3.7Z"/><path class="cls-3" d="M15.4,11.9c0-.3-.2-.5-.2-.8h-.1a2.4,2.4,0,0,1,.2.8c0,.3.2.5.2.6s-.1.2,0,.3a.4.4,0,0,0,.1-.3c0-.2-.2-.3-.2-.7s-.1-.5-.1-.7h0C15.3,11.4,15.4,11.6,15.4,11.9Z"/><path class="cls-4" d="M15.4,11.9c0-.3-.1-.5-.1-.8h-.1C15.2,11.4,15.4,11.6,15.4,11.9Z"/><path class="cls-3" d="M13.9,10Zm.7-.3h0c-.2,0-.2.2-.3.2S14.4,9.7,14.6,9.7Zm.2.5a.1.1,0,0,0,.1.1h0a.1.1,0,0,0,.2,0h0a.1.1,0,0,0,.1-.1h0c.1,0,0,.1,0,.1h-.4s-.1-.1,0-.1Zm.6-.5c.2,0,.3.1.3.2s-.1-.2-.3-.2h0Zm-.2.2a.2.2,0,0,1,.4,0h-.4Zm-.6,0h-.2a.2.2,0,0,1,.4,0Zm-.2,0h0Zm.6.7a.2.2,0,0,1,.2.2.1.1,0,0,1-.1-.1h-.2a.1.1,0,0,1-.1.1.2.2,0,0,1,.2-.2h0Zm.2-.7Zm.5-.1a.5.5,0,0,0-.6-.1.3.3,0,0,0,0,.4h0a.4.4,0,0,1,0-.5C15.3,9.5,15.5,9.5,15.7,9.8Zm-.8-.1a.4.4,0,0,1,0,.5h0a.3.3,0,0,0,0-.4.5.5,0,0,0-.6.1C14.5,9.5,14.7,9.5,14.9,9.7Z"/><path class="cls-3" d="M14.7,10.5h0Z"/><path class="cls-3" d="M14.5,9.8h0Z"/><path class="cls-3" d="M14.7,9.8Z"/><path class="cls-3" d="M15.4,9.8h0Z"/><path class="cls-3" d="M15.3,9.8Z"/><path class="cls-3" d="M15,10.5h0Z"/><path class="cls-4" d="M15.1,9.7a.4.4,0,0,0,0,.5h0a.3.3,0,0,1,0-.4.5.5,0,0,1,.6.1C15.5,9.5,15.3,9.5,15.1,9.7Z"/><path class="cls-4" d="M15.2,9.8h.2c.2,0,.2.2.3.2s-.1-.2-.3-.2Z"/><path class="cls-4" d="M15.2,9.8h.4a.2.2,0,0,0-.4,0Z"/><path class="cls-4" d="M15.5,9.8h0Z"/><polygon class="cls-4" points="15.4 9.9 15.4 9.9 15.4 9.9 15.4 9.9"/><path class="cls-4" d="M15.6,9.9h0Z"/><path class="cls-4" d="M15.3,9.9h0Z"/><path class="cls-4" d="M15,10.3h.2s.1-.1,0-.1h0a.1.1,0,0,1-.1.1h0a.1.1,0,0,1-.1.1Z"/><path class="cls-4" d="M15,10.4h0Z"/><path class="cls-4" d="M15,10.5Z"/><path class="cls-4" d="M15.3,10.5Z"/><path class="cls-4" d="M14.9,10.7a.1.1,0,0,1-.1.1A.1.1,0,0,0,14.9,10.7Z"/><path class="cls-4" d="M15.1,10.7Z"/><path class="cls-4" d="M14.9,10.7Z"/><path class="cls-4" d="M15.1,10.7Z"/><path class="cls-4" d="M14.9,10.7h0Z"/><path class="cls-4" d="M15,10.7Z"/><path class="cls-4" d="M14.9,9.7a.3.3,0,0,1,0,.4h0a.4.4,0,0,0,0-.5c-.2-.2-.4-.2-.6.1A.5.5,0,0,1,14.9,9.7Z"/><path class="cls-4" d="M14.6,9.7h0c-.2,0-.3.1-.3.2S14.4,9.7,14.6,9.7Z"/><path class="cls-4" d="M14.6,9.8h.2a.2.2,0,0,0-.4,0h.2Z"/><polygon class="cls-4" points="14.6 9.9 14.6 9.9 14.6 9.9 14.6 9.9"/><path class="cls-4" d="M14.7,9.8Z"/><path class="cls-4" d="M14.8,9.9h0Z"/><path class="cls-4" d="M14.8,9.9Z"/><path class="cls-4" d="M14.8,10.2c-.1,0,0,.1,0,.1H15a.1.1,0,0,1-.1-.1h0a.1.1,0,0,1-.1-.1Z"/><path class="cls-4" d="M14.9,10.4h0Z"/><path class="cls-4" d="M15,10.5Z"/><path class="cls-4" d="M15,10.6h0Z"/><path class="cls-4" d="M14.8,10.8a.1.1,0,0,0,.1-.1h.2a.1.1,0,0,0,.1.1.2.2,0,0,0-.4,0Z"/></svg>