<svg id="Flags" xmlns="http://www.w3.org/2000/svg" viewBox="0 0 30 20"><defs><style>.cls-1{fill:#fafafa;}.cls-2{fill:#23449c;}.cls-3{fill:#d3362a;}.cls-4{fill:#fff;}</style></defs><title>Artboard 40</title><path class="cls-1" d="M27.4,0H9.9V10H30V2.5A2.5,2.5,0,0,0,27.4,0Z"/><path class="cls-2" d="M9.9,0H2.6A2.5,2.5,0,0,0,0,2.5V10H9.9ZM3.4,7,4,5.3,2.5,4.2H4.3l.6-1.7.6,1.7H7.3L5.8,5.3,6.4,7,4.9,5.9Z"/><path class="cls-3" d="M0,10v7.5A2.5,2.5,0,0,0,2.6,20H27.4A2.5,2.5,0,0,0,30,17.5V10H0Z"/><polygon class="cls-4" points="7.3 4.2 5.5 4.2 4.9 2.5 4.3 4.2 2.5 4.2 4 5.3 3.4 7 4.9 5.9 6.4 7 5.8 5.3 7.3 4.2"/></svg>