<svg id="Flags" xmlns="http://www.w3.org/2000/svg" viewBox="0 0 30 20"><defs><style>.cls-1{fill:#273986;}.cls-2{fill:#fff;}.cls-3{fill:#d02a36;}</style></defs><title>Artboard 44</title><path class="cls-1" d="M.9,19.4a2.5,2.5,0,0,0,1.6.6h25A2.5,2.5,0,0,0,30,17.5V16.2H6.5Z"/><path class="cls-1" d="M27.5,0H2.5A2.5,2.5,0,0,0,.9.6l5.3,3H30V2.5A2.5,2.5,0,0,0,27.5,0Z"/><polygon class="cls-1" points="17.4 10 13.5 12.2 30 12.2 30 7.6 13.2 7.6 17.4 10"/><polygon class="cls-2" points="13.2 7.6 30 7.6 30 3.6 6.2 3.6 13.2 7.6"/><polygon class="cls-2" points="6.5 16.2 30 16.2 30 12.2 13.5 12.2 6.5 16.2"/><path class="cls-3" d="M13.2,7.6l-7-4L.9.6A2.5,2.5,0,0,0,0,2.5v15a2.5,2.5,0,0,0,.9,1.9l5.6-3.2,7-4L17.4,10ZM7.5,12.4,5.7,11.2,3.9,12.4l.7-2-.9-.7-.9-.6H5L5.7,7l.7,2.1H8.6l-1,.7-.8.6Z"/><polygon class="cls-2" points="8.6 9.1 6.4 9.1 5.7 7 5 9.1 2.8 9.1 3.7 9.7 4.6 10.4 3.9 12.4 5.7 11.2 7.5 12.4 6.8 10.4 7.6 9.8 8.6 9.1"/></svg>