<svg xmlns="http://www.w3.org/2000/svg" viewBox="0 0 30 20"><defs><style>.cls-1{fill:#fff;}.cls-2{fill:#1e3160;}.cls-3{fill:#d32a40;}.cls-4{fill:#fecf0a;}.cls-5{fill:#d31f36;}.cls-6{fill:#21418c;}.cls-7{fill:#010101;}.cls-8{fill:#057b64;}</style></defs><title>do</title><g id="Layer_51" data-name="Layer 51"><path class="cls-1" d="M16.2,10.8h-.1A.1.1,0,0,1,16.2,10.8Z"/><path class="cls-1" d="M15.6,10.9h0Z"/><path class="cls-1" d="M15.7,11v-.2h0Z"/><path class="cls-1" d="M16,10.8h0Z"/><path class="cls-1" d="M15.7,11v-.2h0Z"/><path class="cls-1" d="M16.2,9.8v.4h.1V10a1,1,0,0,1,.1.3V10c0-.1,0-.3-.1-.3h-.1Z"/><path class="cls-1" d="M15.9,10.8v0Z"/><path class="cls-1" d="M13.6,9.9h-.1l-.2.2h0l.2-.2h.3V9.6h-.1S13.7,9.9,13.6,9.9Z"/><path class="cls-1" d="M14.1,10.8h0Z"/><path class="cls-1" d="M13.8,10.1h-.1v.2l-.3.2h.2v.3h.1a.4.4,0,0,1-.1-.3v-.2h.1Z"/><path class="cls-1" d="M14.5,10.9h0Z"/><path class="cls-1" d="M15.3,10.8h.2v-.3h-.2Z"/><path class="cls-1" d="M15.1,11.5h0Z"/><path class="cls-1" d="M17.3,0H12.7V7.8H0v4.4H12.7V20h4.6V12.2H30V7.8H17.3Zm.1,8.9h-.2l-.2.3.2-.2s-.1.1,0,.1h.1l-.2.2h.2l-.2.2h.2c-.1,0-.2.3-.2.2h.2v.2l.2-.2-.3.4.3-.2v.2h-.2l-.2.3h.2v.2H17l.2.2h-.4c0,.1,0,.2-.1.2h.5l-.2.3H15.5v.2l-.3-.3H15l-.2.2h-.3l.2-.2H13l-.2-.3h.7l.2-.2h0c.1-.1.2-.2.1-.2h-.2v.2h-.4s-.2.1-.2,0h.4c0-.1,0,.1-.1.1h-.4v-.2h-.1V9.8h.1c-.1,0,0-.1,0-.1h.4v.1h.1a.3.3,0,0,0-.1-.2H13V9.3h0V9.1H13c-.1,0-.1-.2-.1-.2a1,1,0,0,1,.1-.3h.3v.2h-.2a.1.1,0,0,0,.1.1h.1a.3.3,0,0,1-.1-.2V8.9h.5v.3l-.3.2v.2l.2-.2v.2h.2V8.4l-.3-.3h3l-.3.3V9.8h.1V9.5c.1,0,.1.1.1.2V9.3a.1.1,0,0,1-.1-.1h.1V9.1h.1V9h-.2s.1-.2.2-.2h0V8.7l.2.3V8.5h.2V8.5h0a1,1,0,0,1-.1-.4h-.3c-.1-.1-.3-.1-.3-.2h-.7c-.1,0-.2,0-.2-.1h-.6v.2h-.9c0,.1-.2.1-.3.2h-.3a1,1,0,0,1-.1.4h-.3l.2-.5h.1c0-.1.1-.1.1-.2h0c0-.1.2-.3.6-.3h.5c0-.1.2-.2.7-.2s.7.1.7.2h.5c.4,0,.6.2.6.3h0a.1.1,0,0,1,.1.1H17l.2.4h-.3v0h.1v.2h0V8.6h.1v.3h.3Z"/><path class="cls-2" d="M12.7,0H2.5A2.5,2.5,0,0,0,0,2.5V7.8H12.7Z"/><path class="cls-2" d="M17.3,20H27.5A2.5,2.5,0,0,0,30,17.5V12.2H17.3Z"/><path class="cls-3" d="M0,12.2v5.3A2.5,2.5,0,0,0,2.5,20H12.7V12.2Z"/><path class="cls-3" d="M27.5,0H17.3V7.8H30V2.5A2.5,2.5,0,0,0,27.5,0Z"/><path class="cls-2" d="M16.9,8.5h.3L17,8h-.2a1,1,0,0,0,.1.4Z"/><path class="cls-2" d="M17,8.1h-.1a.1.1,0,0,0-.1-.1c0,.1-.1.2-.1.1h-.5c0,.1.2.1.3.2H17Z"/><path class="cls-2" d="M16.3,7.5Z"/><path class="cls-2" d="M16,7.4Z"/><path class="cls-2" d="M16,7.5h0Z"/><path class="cls-2" d="M16.6,7.8h.1Z"/><path class="cls-2" d="M16.5,7.7h0Z"/><path class="cls-2" d="M16.6,7.8h.1c0,.1.1,0,.1-.1h0c0-.1-.2-.3-.6-.3h-.5a1,1,0,0,1-.1.3h-.3c0,.1.1.1.2.1h1.1Zm.1-.2h-.1V7.6Zm-.9,0h-.1V7.4h0v.2Zm.1,0h-.1V7.4h0Zm.1-.1h-.1V7.4H16Zm.2,0H16V7.4h.1Zm.1.2h-.1V7.4h.1Zm.1,0V7.5h0v.2Zm0,0h.2v.2h-.2Z"/><path class="cls-2" d="M13,8h0l-.2.5h.3a1,1,0,0,0,.1-.4H13Z"/><path class="cls-2" d="M13.4,7.8h-.1s-.1,0-.1-.2-.1.1-.1.2h.4c.1-.1.3-.1.3-.2h-.4Z"/><path class="cls-2" d="M14.4,7.6a1,1,0,0,1-.1-.3h-.5c-.4,0-.6.2-.6.3h0c0,.2.1.2.1.2h1.4V7.4Zm-.7.1h-.2V7.5h.2Zm0,0h0V7.5h0Zm.2-.1Zm.2,0Z"/><path class="cls-2" d="M13.9,7.5Z"/><path class="cls-2" d="M13.6,7.5h-.1v.2h0Z"/><path class="cls-2" d="M15.2,7.2Z"/><path class="cls-2" d="M15.4,7.2Z"/><path class="cls-2" d="M14.6,7.2Z"/><path class="cls-2" d="M14.8,7.2h0Z"/><path class="cls-2" d="M15.6,7.6a1,1,0,0,0,.1-.3h0c0-.1-.2-.2-.7-.2s-.7.1-.7.2h0a1,1,0,0,0,.1.3l.3-.2h.9Zm-.9-.3h-.1V7.2h.2Zm.1.1h-.1V7.2h0v.2Zm.2-.2h0v.2h-.1V7.2H15Zm.2.2H15V7.2h.2Zm.1,0h-.1V7.2h.1Zm.1,0h-.1V7.2h0v.2Z"/><polygon class="cls-4" points="15.7 7.4 15.7 7.4 15.7 7.6 15.8 7.6 15.8 7.6 15.7 7.6 15.7 7.4"/><polygon class="cls-4" points="15.8 7.6 15.9 7.6 15.9 7.4 15.9 7.4 15.8 7.6"/><polygon class="cls-4" points="16.2 7.5 16.2 7.4 16.1 7.4 16 7.6 16.1 7.6 16.2 7.6 16.1 7.6 16.1 7.5 16.2 7.5 16.2 7.5 16.1 7.5 16.1 7.4 16.2 7.5"/><polygon class="cls-4" points="16.4 7.5 16.5 7.6 16.5 7.5 16.4 7.5 16.4 7.5 16.4 7.5 16.4 7.7 16.4 7.7 16.4 7.5"/><path class="cls-4" d="M16,7.5h-.1v.2H16Zm0,0h0Zm0,0Z"/><path class="cls-4" d="M16.3,7.6h-.1v.3h.1Zm0,0h0Z"/><path class="cls-4" d="M16.6,7.8h.1Zm.1-.2h-.1Z"/><path class="cls-4" d="M16.5,7.7h.1V7.6h-.1Zm0-.1h0Z"/><polygon class="cls-4" points="14.9 7.2 14.9 7.2 14.9 7.4 15 7.4 15 7.2 15 7.2 15 7.2 14.9 7.2 14.9 7.2"/><rect class="cls-4" x="15.1" y="7.3" width="0.2" height="0.02" transform="translate(7.4 22.2) rotate(-87.8)"/><path class="cls-4" d="M14.7,7.2h-.2v.2h.1Zm0,.1h0Z"/><path class="cls-4" d="M14.8,7.2v.2h.2V7.2Zm0,.1Z"/><path class="cls-4" d="M15.1,7.3H15v.2h.1Zm0,0Z"/><path class="cls-4" d="M15.4,7.2h0v.2h.2Zm0,.1h0Z"/><polygon class="cls-4" points="13.7 7.5 13.7 7.7 13.7 7.7 13.7 7.5 13.7 7.5"/><path class="cls-4" d="M14.1,7.5h0Z"/><path class="cls-4" d="M13.9,7.4h0Zm0,.2Z"/><path class="cls-4" d="M13.6,7.5h-.1v.2h.1Zm0,.2h0V7.5h.1Z"/><polygon class="cls-1" points="15.6 10.8 15.6 10.8 15.6 10.8 15.6 10.8 15.6 10.8"/><polygon class="cls-1" points="15.7 10.8 15.7 10.8 15.7 10.8 15.7 10.8 15.7 10.8"/><path class="cls-1" d="M14.7,10.8Z"/><polygon class="cls-1" points="15.8 10.8 15.8 10.8 15.8 10.8 15.8 10.8 15.8 10.8"/><polygon class="cls-1" points="14.1 9.8 14.1 9.7 14.1 9.5 14.1 9.3 13.8 9.3 13.8 9.6 13.8 9.8 14.1 9.8"/><path class="cls-1" d="M15,10.8v.1h.4v-.4h-.1Z"/><path class="cls-1" d="M14.9,9.1H15V8.8h.1v.3h.1v-1h-.4v1Z"/><path class="cls-1" d="M15.3,10.8Z"/><path class="cls-1" d="M15.2,10.3h0Z"/><path class="cls-1" d="M16.1,10.7h0Z"/><path class="cls-1" d="M15.9,10.8Z"/><polygon class="cls-1" points="16 9.5 16 9.7 16 9.8 16.2 9.8 16.2 9.3 16 9.3 16 9.5"/><path class="cls-1" d="M16,10.8h0Z"/><polygon class="cls-1" points="15.5 10.8 15.5 10.8 15.4 10.8 15.5 10.8"/><path class="cls-5" d="M15.3,9h0l.2-.2h0l.3-.4v.3H16v.7h.2V8.4l.3-.3H15.2v1Zm.7-.4h.1Zm0-.3h0Zm-.2-.2v.2h.1Z"/><path class="cls-2" d="M14.1,8.6h.1V8.5l.3.3h0l.2.2h.1v-1H13.5l.3.3v.9h.3Zm.3-.3h-.1V8.1Zm-.2.1h0Zm-.1.1h0Z"/><path class="cls-5" d="M14.7,10.8h.1v-.5h-.3a.5.5,0,0,1-.4-.5h-.3V10h0v.4h.1v.2h.1v.2h.2a.1.1,0,0,0,.1.1h.1a.1.1,0,0,0,.1-.1.1.1,0,0,0,.1.1Z"/><path class="cls-2" d="M16,9.9a.5.5,0,0,1-.5.5h-.3v.4h.7a.1.1,0,0,0,.1-.1h.1v-.2h.1v-.5h0V9.8H16Z"/><path class="cls-4" d="M15.1,9.1V8.8H15v.3h.1Z"/><polygon class="cls-4" points="14.4 8.3 14.2 8.1 14.3 8.3 14.4 8.3"/><path class="cls-5" d="M14.8,9.2h0Z"/><path class="cls-1" d="M14.7,9.1h0l-.2-.2V9Z"/><path class="cls-2" d="M14.3,8.8l.2.2V8.8h0l-.3-.3v.2Z"/><polygon class="cls-4" points="14.2 8.4 14 8.3 14.1 8.4 14.2 8.4"/><path class="cls-1" d="M14.7,10.3h-.1V9.8h.2c0-.1.1-.1.1-.2h-.3V9l.2.2h-.3l-.2-.2v.8h-.2v.2c0,.1.1.1.2.1S14.5,10.3,14.7,10.3Z"/><path class="cls-5" d="M14.5,10.4h.2c-.2,0-.4-.1-.4-.5s-.2,0-.2-.1h0A.5.5,0,0,0,14.5,10.4Z"/><path class="cls-2" d="M14.3,8.8h-.2v.9h.2Z"/><path class="cls-5" d="M14.9,9.7h0V9.2h0L14.6,9v.6h.3Z"/><path class="cls-2" d="M14.8,9.9h-.2V10h.1Z"/><polygon class="cls-4" points="14.1 8.5 13.9 8.5 14 8.6 14.1 8.5"/><polygon class="cls-4" points="15.8 8.1 15.7 8.2 15.7 8.3 15.8 8.1"/><path class="cls-5" d="M15.3,9.2h0Z"/><path class="cls-1" d="M15.5,8.9h0l-.2.2h0Z"/><path class="cls-2" d="M15.7,8.8h.1V8.4l-.3.4h.2Z"/><polygon class="cls-4" points="16 8.3 15.8 8.4 15.9 8.4 16 8.3"/><path class="cls-1" d="M15.7,8.8h-.2l-.2.2h0v.4h.1V10h-.3c0,.1.1.2.1.3s.4-.1.4-.6H16V9.5h-.3Z"/><path class="cls-5" d="M15.3,10.3h.2a.5.5,0,0,0,.5-.5h-.3C15.7,10.2,15.5,10.3,15.3,10.3Z"/><path class="cls-5" d="M15.2,10.3Z"/><path class="cls-2" d="M15.7,8.8v.8H16V8.6h-.3Z"/><path class="cls-5" d="M15.4,9.5h0V9.5h0Z"/><path class="cls-2" d="M15.3,10h.2V9.8h-.2Z"/><polygon class="cls-4" points="16 8.6 16.1 8.4 16 8.5 16 8.6"/><path class="cls-5" d="M15.3,10.3c0-.1-.1-.2-.1-.3h-.1a.4.4,0,0,1,.1.3h.1Z"/><path class="cls-5" d="M15.2,10.3h0a.4.4,0,0,0-.1-.3h0c0,.2.1.5,0,.6h.1Z"/><path class="cls-1" d="M15,10.5V9.7c-.1.1-.1.2-.1.5v.3Z"/><path class="cls-6" d="M14.9,10.2c0-.3,0-.4.1-.5h-.1c0,.1-.1.1-.1.2v.2h.1v-.2Z"/><path class="cls-5" d="M15,9.6h0v.8h0c.1-.1,0-.4,0-.6H15Z"/><path class="cls-5" d="M15.2,9.6h0Z"/><path class="cls-5" d="M15.2,9.6Z"/><path class="cls-7" d="M14.8,9.2v.4h0V9.2Z"/><path class="cls-1" d="M14.8,9.2h0v.4h.5V9.2h-.5Z"/><path class="cls-8" d="M14.9,11.8h-.2l-.2.2h.3l.2-.2Z"/><path class="cls-8" d="M17.1,8.9V8.6h-.1v.2h0V8.5H17v0h0v.2h-.2V9l-.2-.3v.2h0c-.1,0-.2.2-.2.2h.2v.2h-.1v.2h-.1a.1.1,0,0,0,.1.1v.4c0-.1,0-.2-.1-.2v.2h0c.1,0,.1.2.1.3v.3a1,1,0,0,0-.1-.3v.2h-.1v.5h0a.1.1,0,0,0-.1-.1h0v.2H16a.1.1,0,0,1-.1.1h0v0h-.1v0h-.1v0h-.2v.3h-.1c.7,0,1,.1,1.1.2h.2c.1,0,.1-.1.1-.2h.4l-.2-.2h.4V9.9h-.2l.2-.3h.2V9.6l-.3.2.3-.4-.2.2V9.4h-.2c0,.1.1-.2.2-.2h-.2l.2-.2h-.2l.2-.2h-.1c-.1,0,0-.1,0-.1l-.2.2.2-.3h-.1Z"/><path class="cls-8" d="M15,11.6Z"/><path class="cls-8" d="M16.2,9.8Z"/><path class="cls-8" d="M14.9,11.6h0Z"/><path class="cls-8" d="M15.1,11.8h0l.3.3v-.2h-.4Z"/><path class="cls-8" d="M14.6,11.1h.1a.1.1,0,0,1-.1-.1.1.1,0,0,1-.1.1h-.1a.1.1,0,0,1-.1-.1h-.2v-.2H14v-.2h-.2v.2a.4.4,0,0,0,.1.3h-.1v-.3h-.2l.3-.2v-.2h-.2l-.2.2h0l.2-.2h.1c.1,0,.1-.2.1-.2h-.1V9.4l-.2.2V9.4l.3-.2V8.9h-.5v.3a.3.3,0,0,0,.1.2h-.1a.1.1,0,0,1-.1-.1h.2V8.7H13a1,1,0,0,0-.1.3s0,.2.1.2h-.1v.2h0v.2h.1a.3.3,0,0,1,.1.2h-.1V9.8h-.4s-.1.1,0,.1h-.1v.3h.1v.2h.4c.1,0,.1-.2.1-.1h-.4c0,.1.2,0,.2,0h.4v-.2h.2c.1,0,0,.1-.1.2h.9ZM13.4,9.6Zm-.1,0h0Zm.5,1.5h0Zm.4.1h0Z"/><path class="cls-5" d="M13,9.1h0Z"/><path class="cls-5" d="M13,9.2h0Z"/><path class="cls-5" d="M13.3,9.5h0Z"/><path class="cls-5" d="M13.4,9.7h0Z"/><path class="cls-5" d="M13,10.2Z"/><path class="cls-5" d="M13.3,10.3h0Z"/><path class="cls-5" d="M13.4,10.9h0Z"/><path class="cls-5" d="M13.6,11Z"/><path class="cls-5" d="M13.8,10.9h0Z"/><path class="cls-5" d="M14.2,11h0Z"/><path class="cls-5" d="M16.8,11.8a.1.1,0,0,0-.1-.1H17l.2-.3h-.4Z"/><path class="cls-5" d="M16.3,11.7h.4a.1.1,0,0,1,.1.1h-.3Z"/><path class="cls-5" d="M13.2,11.8h-.4l.2.3h.3A.1.1,0,0,0,13.2,11.8Z"/><path class="cls-5" d="M13.7,11.7l-.2-.2h-.3a.1.1,0,0,1,.1-.1h.4Z"/><path class="cls-5" d="M16.3,11.4Z"/><path class="cls-5" d="M15.1,11.3Z"/><path class="cls-5" d="M14.8,11.3h0Z"/><path class="cls-5" d="M15.3,11.3h0Z"/><path class="cls-5" d="M16,11.3Z"/><path class="cls-5" d="M15.4,11.2H13.7l-.2.2h0l.2.2h2.6l.2-.2h0C16.4,11.3,16.1,11.2,15.4,11.2Zm-1.7.2h0v-.2Zm.2.1v-.2h.1Zm.1,0v-.2h0Zm.2-.1Zm.2,0h-.1a.1.1,0,0,1,.1.1h0Zm.1,0h-.1v-.2h.1v.2Zm.1,0v-.2h0v.2Zm.1,0h-.1a.1.1,0,0,1,.1-.1h0Zm.1,0h0v-.2h0v.2h-.1Zm.3,0H15v-.2h.1Zm.2,0h-.1a.1.1,0,0,1,.1.1h0Zm.1,0h-.1v-.2h0v.2h0v-.2h.1v.2Zm.1,0v-.2h0v.2Zm.1,0h-.1v-.2h.1v0h.1v.2Zm.1,0h0Zm.1.1h0c-.1,0-.1,0,0-.1h0Zm.2,0h0v.2Zm0,0v-.2h0v0h0v.2H16Zm.3.1h0Z"/><path class="cls-5" d="M13.8,11.4Z"/><path class="cls-5" d="M14.3,11.3h0Z"/><path class="cls-5" d="M14.1,11.4h0Z"/><path class="cls-5" d="M14.4,11.4Z"/><polygon class="cls-4" points="13.9 11.5 13.9 11.4 13.9 11.4 13.9 11.4 13.9 11.4 13.8 11.4 13.9 11.3 13.9 11.3 13.8 11.3 13.9 11.5 14 11.5 14 11.5 13.9 11.5"/><path class="cls-4" d="M14.2,11.4h0Z"/><polygon class="cls-4" points="14.4 11.2 14.4 11.2 14.4 11.4 14.5 11.4 14.5 11.4 14.4 11.4 14.4 11.2"/><rect class="cls-4" x="14.6" y="11.2" height="0.18"/><path class="cls-4" d="M14.7,11.4h0a.1.1,0,0,0-.1.1h.1Z"/><path class="cls-4" d="M15.5,11.2h-.1v.2h0v-.2h0v.2h.2Z"/><rect class="cls-4" x="15.5" y="11.2" height="0.17"/><polygon class="cls-4" points="15.7 11.2 15.6 11.2 15.6 11.4 15.6 11.2 15.5 11.2 15.5 11.4 15.6 11.4 15.6 11.3 15.6 11.4 15.7 11.4 15.7 11.2"/><rect class="cls-4" x="15.7" y="11.3" height="0.17"/><path class="cls-4" d="M15.9,11.4h-.1c-.1.1-.1.1,0,.1h.1Z"/><polygon class="cls-4" points="16.1 11.3 16.1 11.5 16.1 11.5 16.2 11.3 16.2 11.3 16.1 11.5 16.1 11.3 16.1 11.3 16 11.5 16 11.5 16.1 11.3"/><path class="cls-4" d="M13.7,11.6h0Zm0-.2h0Z"/><path class="cls-4" d="M14,11.4h0v.2h0Zm0-.1h0Z"/><path class="cls-4" d="M14.4,11.4h0a.1.1,0,0,0-.1-.1h.1Zm-.1-.1Zm.1.1Z"/><path class="cls-4" d="M14.9,11.4h0v-.2h0v.2h.1Zm-.1-.1h0Z"/><path class="cls-4" d="M15.1,11.4H15v.2Zm0,0Z"/><path class="cls-4" d="M15.3,11.3a.1.1,0,0,0-.1-.1h.1Zm-.1.1Z"/><path class="cls-4" d="M16,11.3h0Zm0,0Z"/><path class="cls-4" d="M16.3,11.4h0v-.2Zm-.1.1h0Z"/><path class="cls-5" d="M15.3,11.7h0Z"/><path class="cls-5" d="M14.7,11.7h0Z"/><path class="cls-5" d="M15.1,11.8h0Z"/><path class="cls-5" d="M15.3,11.7h0a.1.1,0,0,0-.1-.1.1.1,0,0,1-.1.1h.2Z"/><path class="cls-5" d="M15.1,11.7h0a.1.1,0,0,0,.1-.1.1.1,0,0,1,.1.1h-.2Z"/><path class="cls-5" d="M14.9,11.8h-.1c-.1-.1-.1,0-.1,0h.2Z"/><path class="cls-5" d="M14.7,11.8s0-.1.1,0h-.1Z"/></g></svg>