<svg xmlns="http://www.w3.org/2000/svg" viewBox="0 0 30 20"><defs><style>.cls-1{fill:#fbd632;}.cls-2{fill:#21418c;}.cls-3{fill:#ce2931;}.cls-4{fill:#45444a;}.cls-5{fill:#2d2e2d;}.cls-6{fill:#fff;}.cls-7{fill:#7e1d17;}.cls-8{fill:#fee600;}.cls-9{fill:#f57e20;}.cls-10{fill:#e4cdcb;}.cls-11{fill:#ddb3a7;}.cls-12{fill:#ce2028;}.cls-13{fill:#2a2c7a;}.cls-14{fill:#fcb415;}.cls-15{fill:#fbd118;}.cls-16{fill:#dfdfde;}.cls-17{fill:#303030;}.cls-18{fill:#e41e26;}.cls-19{fill:#1e5c2e;}.cls-20{fill:#31439b;}.cls-21{fill:#0d9747;}.cls-22{fill:#ed2224;}.cls-23{fill:#0e9647;}.cls-24{fill:#c7a87f;}.cls-25{fill:#49647f;}.cls-26{fill:#357abe;}.cls-27{fill:#577f45;}.cls-28{fill:#059967;}.cls-29{fill:#fcb316;}.cls-30{fill:#febf10;}.cls-31{fill:#b4b37e;}.cls-32{fill:#994d22;}.cls-33{fill:#010101;}</style></defs><title>ec</title><g id="Layer_49" data-name="Layer 49"><path class="cls-1" d="M14.3,7.5Z"/><path class="cls-1" d="M13,8h.1v.2l.2.2.3-.2c-.1.1-.1.2-.2.2h.1l.4-.5V7.5l-.3.2-.4.3H13Z"/><path class="cls-1" d="M14.5,7.4Z"/><path class="cls-1" d="M12,7h.1s-.1-.1-.1,0Z"/><path class="cls-1" d="M11.8,7.8c.1.2,0,.3.1.5h0c0-.2-.1-.5-.1-.6Z"/><polygon class="cls-1" points="16.6 8.4 16.6 8.4 16.6 8.4 16.6 8.4 16.6 8.4"/><path class="cls-1" d="M11.9,7.2Z"/><path class="cls-1" d="M16.9,10h0V9.4h0l-.2-.5a3.6,3.6,0,0,1,.2,1.1h0Z"/><path class="cls-1" d="M18.8,8v.3h0Z"/><path class="cls-1" d="M11.9,7.1h.2c.1,0,.1-.1,0-.1h-.2Z"/><path class="cls-1" d="M18.7,7.6V7.4h0Z"/><path class="cls-1" d="M18,7h0c-.1-.1-.1,0-.1,0H18Z"/><polygon class="cls-1" points="12.9 9.1 12.9 9.1 12.9 9.1 12.9 9.1 12.9 9.1"/><path class="cls-1" d="M16.6,5.8Z"/><path class="cls-1" d="M18.9,8.9h0v0Z"/><path class="cls-1" d="M13.4,5.8Z"/><polygon class="cls-1" points="12.8 9.1 12.8 9.1 12.8 9 12.8 9 12.8 9 12.8 9.1"/><path class="cls-1" d="M18.8,7.7h-.1a.1.1,0,0,0-.1-.1s-.1.1.1.1Z"/><path class="cls-1" d="M12.1,8.6h0V10h0Z"/><path class="cls-1" d="M18.1,7.1h-.2c-.1,0-.1.1,0,.1Z"/><path class="cls-1" d="M14.6,7.3Z"/><path class="cls-1" d="M14.7,7.2h0a.1.1,0,0,1-.1.1Z"/><path class="cls-1" d="M14.9,7.3h0Z"/><path class="cls-1" d="M14.9,7.2h0c0,.1.2,0,.1.1h.1s0,.1-.2.1a.1.1,0,0,0-.1-.1h.1Z"/><path class="cls-1" d="M15.6,7.4h0Z"/><path class="cls-1" d="M17.2,9.3h0V10h0Z"/><path class="cls-1" d="M18.1,8.3V7.8h0v.6Z"/><path class="cls-1" d="M13.2,9.1h0Z"/><path class="cls-1" d="M12.8,9.1h0V10h0Z"/><path class="cls-1" d="M14.6,6.6Z"/><path class="cls-1" d="M15,6.9Z"/><path class="cls-1" d="M14.6,6.6Z"/><path class="cls-1" d="M14.7,6.9h0Z"/><path class="cls-1" d="M15.1,6.6V6.4l-.4-.2h0l.4.2h0Z"/><path class="cls-1" d="M11.9,7.2Z"/><path class="cls-1" d="M13.1,7.8h0Z"/><path class="cls-1" d="M15.1,6.9a.1.1,0,0,0,.1-.1h0A.1.1,0,0,1,15.1,6.9Z"/><path class="cls-1" d="M15.1,6.2a.1.1,0,0,0,.1-.1h0a.1.1,0,0,1-.1.1h0Z"/><path class="cls-1" d="M15,6.1Z"/><path class="cls-1" d="M15.5,6.4c.1,0,0,.2,0,.2a.1.1,0,0,1-.1.1h0a.1.1,0,0,0,.1-.1.1.1,0,0,0,0-.2Z"/><path class="cls-1" d="M27.4,0H2.6A2.5,2.5,0,0,0,0,2.5V10H11.1V9.3h0c-.1.1-.1.1-.1,0s0-.2,0-.3a4.6,4.6,0,0,0,.1-1h-.4c0,.2.1.2,0,.3h-.5c0-.1-.1-.2,0-.3h.3c.1,0,.2-.1-.1-.2s-.2,0-.2-.2L10,6.9h.3c.2.1.3.1.4.3a.1.1,0,0,0,.1.1V7.2c0-.1.1,0,.2.1a.1.1,0,0,1,.1.1H11c-.1.1-.1.1,0,.2h.1a.1.1,0,0,1,.1-.1V7.4h.3a.2.2,0,0,1-.3.1h.1l.5.4a2.5,2.5,0,0,1,.1-1h-.1l-.2-.2c-.1,0-.2.1-.3,0s-.2-.1,0-.1.2,0,0-.1-.2-.1-.3-.3-.2-.2-.1-.2h.2a.5.5,0,0,1,.4.3c.1.2.1.3.1,0s0-.2.1,0a.2.2,0,0,1,0,.3H12a.1.1,0,0,1,.1.1h.1v.2c0,.1-.2.1-.2.1h0l.3.3h0l.6.5h.2l.3-.3-.2.3h0l.3-.2.3-.2a.4.4,0,0,0,.1-.3.1.1,0,0,1-.1.1h0V7a.3.3,0,0,0,.1-.2V7h0l.2-.3V7h0l.4-.4h-.5c-.1,0,0-.1,0-.1h-.5c0,.1-.1.1-.2.2s-.2-.1,0-.2-.2.1-.3,0V6.1h-.2V6s-.1.2-.2.2a.1.1,0,0,1,0-.2l-.3.2c-.1-.1,0-.1,0-.2s-.2.2-.3.1h-.2s-.1,0,0-.1h-.3c-.1,0,0-.1,0-.1H11a4.6,4.6,0,0,1,1.6-1,2.8,2.8,0,0,1,1.6,0c.4,0,.3.5.3.5h0v.2h.3a.1.1,0,0,1,.1-.1h.4a.1.1,0,0,0,.1.1h.1V5.7h-.1s0-.5.4-.5a2.5,2.5,0,0,1,1.5,0,4.6,4.6,0,0,1,1.7,1h-.6s.1.1,0,.1h0a.1.1,0,0,1-.1-.1h0c-.1.1-.3-.1-.3-.1h0L17.8,6c0,.1.1.1,0,.2h0L17.5,6h0c-.1,0-.2-.2-.2-.2s.1.2,0,.2h-.2c.1.1.1.2,0,.2h-.3l-.2-.2h-.5s.1.1,0,.1H16c-.1-.1-.1.1-.2.1h0c0,.1,0,.2-.1.2s-.1.3-.4.3h.2a.1.1,0,0,0,.1.1h.1l.9.9h.1a.1.1,0,0,1-.1-.1h.2a.2.2,0,0,1-.2-.2h0l.2.2h.1c-.1-.1-.2-.2-.2-.3h0c0,.1.1.2.2.3H17l-.3-.5h0l.4.5h0c-.1-.3-.3-.5-.3-.6h0l.4.5a2,2,0,0,1-.4-.8h0l.5.8h0l-.4-1h0a3.1,3.1,0,0,1,.5.9h.1a1.7,1.7,0,0,1-.2-.5h0a1.7,1.7,0,0,0,.2.5h.1c-.1-.2-.1-.4-.2-.4h0c.1,0,.1.2.2.3h.1a.1.1,0,0,1-.1-.1h.1l.3-.3h0s-.3,0-.2-.1V6.9h.5a.2.2,0,0,1,0-.3c.1-.1.1-.1.1,0s0,.2.1,0,.3-.2.4-.3h.2v.2l-.3.3c-.2.1-.3.1,0,.1s.1.1-.1.1-.1.1-.2,0l-.3.2a2.2,2.2,0,0,1,.1.9l.5-.4h.1a.2.2,0,0,1-.3-.1h.3v.2a.1.1,0,0,1,.1.1H19c0-.1.1-.1,0-.2h-.1c-.1-.1,0-.1.1-.1s.1-.2.2-.1h0c0,.1.1.1.1,0s.2-.2.3-.3H20l-.2.3c0,.2-.1.2-.2.2s-.2.2-.1.2h.3c0,.1,0,.2-.1.2a.2.2,0,0,1-.2.2h-.2c-.1-.1,0-.2,0-.3h-.2c-.1.1-.2.1-.2.2h0V9.2c0,.1-.1.1-.1,0h0V10H30V2.5A2.5,2.5,0,0,0,27.4,0ZM13.7,7.2h0c.1,0,.1.1,0,.1h0Zm-.3.2h0ZM13,6.8v.4h.1c0-.2.1-.3.1-.5v.5h-.1l.3-.2-.2.3-.2.2h0c0-.1-.1-.2-.1-.3S13,7,13,6.8Z"/><path class="cls-1" d="M11.1,8.4V8.3Z"/><path class="cls-1" d="M11.1,8h0Z"/><path class="cls-1" d="M11.2,7.7h.1c.2,0,.1-.1.1-.1h-.2Z"/><path class="cls-1" d="M11.3,7.5h0v.2h.1Z"/><path class="cls-1" d="M11.2,8.3V8.2Z"/><path class="cls-2" d="M14,12.1h0Z"/><path class="cls-2" d="M14.2,12.2h0Z"/><path class="cls-2" d="M13.7,11.8h0Z"/><path class="cls-2" d="M13.4,11.3c0-.1,0-.1-.1-.1S13.4,11.2,13.4,11.3Z"/><path class="cls-2" d="M13.2,10.8Z"/><path class="cls-2" d="M13.3,11.1h0Z"/><path class="cls-2" d="M13.1,10.6h0Z"/><path class="cls-2" d="M13.6,11.6h0Z"/><path class="cls-2" d="M13.5,11.5h0Z"/><path class="cls-2" d="M16.9,10h0a2.5,2.5,0,0,1-1.3,2.3h0A2.5,2.5,0,0,0,16.9,10Z"/><path class="cls-2" d="M13.9,11.9h0Z"/><rect class="cls-2" x="14.9" y="12.5" width="0.2"/><polygon class="cls-2" points="14.5 12.3 14.5 12.3 14.5 12.3 14.5 12.3 14.5 12.3"/><polygon class="cls-2" points="14.6 12.5 14.6 12.5 14.5 12.5 14.5 12.5 14.6 12.5"/><rect class="cls-2" x="14.9" y="12.5" width="0.2"/><path class="cls-2" d="M13.1,10.4h0Z"/><rect class="cls-2" x="14.6" y="12.5" width="0.1"/><path class="cls-2" d="M12.8,10.3V10h0v.3a3,3,0,0,0,.2,1.6h.1A2.3,2.3,0,0,1,12.8,10.3Z"/><path class="cls-2" d="M12.1,10Z"/><path class="cls-2" d="M17.2,10.3V10h0v.3c0,.7-.2,1.9-.7,2.2h0C17,12.2,17.2,11,17.2,10.3Z"/><path class="cls-2" d="M13.4,12.5Z"/><polygon class="cls-2" points="13.5 12.5 13.5 12.5 13.5 12.5 13.5 12.5 13.5 12.5"/><path class="cls-2" d="M14.4,12.3a.1.1,0,0,1-.1-.1A.1.1,0,0,0,14.4,12.3Z"/><polygon class="cls-2" points="14.7 12.5 14.7 12.5 14.7 12.5 14.7 12.5 14.7 12.5"/><path class="cls-2" d="M18.9,10.2a9.1,9.1,0,0,1-.1,1.7,6.4,6.4,0,0,1-.2.9l.3.2H19a.3.3,0,0,1,.1.2h0l.5.4.4.5-.5-.3-.5-.4h0a.1.1,0,0,1-.1-.1c0,.1-.1,0-.4-.3l-.2.3-.3.2.4.4h.2l.5.4.4.5-.5-.4-.5-.4h0l-.6-.5h-.8a1.9,1.9,0,0,1-1-.5c.1.4.3.7.2.8H16v.3H16a3.5,3.5,0,0,0,.1.6c-.1.1-.3-.1-.4-.2a4.3,4.3,0,0,0,.1.5H14.2a1.1,1.1,0,0,1,.1-.5c-.2.1-.3.3-.4.2A1.8,1.8,0,0,1,14,14h-.1a.4.4,0,0,1,.1-.3c-.2.1-.3.2-.4.1s.2-.4.3-.8a3.1,3.1,0,0,1-1,.5h-.7l-.6.5h0l-.5.4-.6.3.4-.5.5-.4h.2l.4-.4-.3-.2-.2-.3c-.3.3-.4.4-.4.3h0l-.5.4-.5.3.4-.4.5-.4h.2l.2-.2a6.4,6.4,0,0,1-.2-.9,9.1,9.1,0,0,1-.1-1.7V10H0v5H30V10H18.9Z"/><rect class="cls-2" x="15.2" y="12.5" width="0.1"/><polygon class="cls-2" points="15.3 12.5 15.3 12.5 15.3 12.5 15.3 12.5 15.3 12.5"/><rect class="cls-2" x="15.2" y="12.5" width="0.2"/><polygon class="cls-2" points="15.4 12.5 15.4 12.5 15.5 12.5 15.5 12.5 15.4 12.5"/><polygon class="cls-2" points="15.5 12.3 15.5 12.3 15.5 12.3 15.5 12.3 15.5 12.3"/><path class="cls-3" d="M0,17.5A2.5,2.5,0,0,0,2.6,20H27.4A2.5,2.5,0,0,0,30,17.5V15H0Z"/><path class="cls-4" d="M13.5,6.2h-.2c0-.1.1-.1.2-.1h-.2a.1.1,0,0,1,.1-.1h-.1c-.1-.1-.1-.1,0-.1s-.2,0-.2-.1-.2.1-.2,0-.2.1-.1,0-.3.1-.3,0h0s-.2.1-.2,0h-.5a.1.1,0,0,1-.2,0s0,.2-.1.1h-.1s-.1.1,0,.1h.3c-.1.1,0,.1,0,.1h.2c.1.1.3-.1.3-.1s-.1.1,0,.2l.3-.2a.1.1,0,0,0,0,.2c.1,0,.2-.2.2-.2v.2h.2v.2c.1.1.3,0,.3,0s0,.2,0,.2.2-.1.2-.2h.1Z"/><path class="cls-5" d="M14.8,6.1Z"/><path class="cls-5" d="M14.9,6.1Z"/><path class="cls-5" d="M14.1,6.4h0a.1.1,0,0,1,.1-.1h.4c0-.1,0-.3.1-.3h-.2V5.7h0s.1-.5-.3-.5a2.8,2.8,0,0,0-1.6,0,4.6,4.6,0,0,0-1.6,1h.5c.1.1.1-.1.1-.1a.1.1,0,0,0,.2,0h.5c0,.1.2,0,.2,0h0c0,.1.3,0,.3,0s.1,0,.1,0,.2,0,.2,0,.2.1.2.1-.1,0,0,.1h.1a.1.1,0,0,0-.1.1h.2c-.1,0-.2,0-.2.1h.6s-.1.1,0,.1h.2Zm-.8-1.3a2.9,2.9,0,0,0-1.4.4h0l.8-.3A3.2,3.2,0,0,1,14,5.1a.3.3,0,0,1,.3.3h0c-.1,0-.1,0-.1-.1H14C13.9,5.1,14,5.1,13.3,5.1Z"/><path class="cls-5" d="M14.2,6.5Z"/><path class="cls-5" d="M14.8,6.1Z"/><path class="cls-5" d="M14.2,6.5Z"/><path class="cls-6" d="M14.2,5.3c0,.1,0,.1.1.1h0a.3.3,0,0,0-.3-.3,3.2,3.2,0,0,0-1.3.1l-.8.3h0a2.9,2.9,0,0,1,1.4-.4c.7,0,.6,0,.7.1Z"/><path class="cls-7" d="M18.7,6.1h0Z"/><path class="cls-7" d="M18.1,6.1h0Z"/><path class="cls-7" d="M17.5,6h0Z"/><path class="cls-7" d="M17.1,6.3h0Z"/><path class="cls-7" d="M17.3,6.2Z"/><path class="cls-7" d="M16.8,6.5h0Z"/><polygon class="cls-7" points="16.6 5.8 16.6 5.8 16.6 5.8 16.6 5.8 16.6 5.8"/><path class="cls-7" d="M17.8,6.2h0c.1-.1,0-.1,0-.2h0C17.8,6.1,17.9,6.1,17.8,6.2Z"/><path class="cls-7" d="M18.4,6.1a.1.1,0,0,0,.1.1.1.1,0,0,1-.1-.1Z"/><path class="cls-4" d="M18.5,5.9h-.1a.1.1,0,0,1-.2,0h-.5c0,.1-.2,0-.2,0h0c0,.1-.2,0-.2,0s-.2,0-.2,0-.2,0-.2,0-.2.1-.2.1h-.1a.1.1,0,0,1,.1.1c.1,0-.1.1-.1.1h0s.2,0,.1.1h-.1c.1,0,.1.1,0,.1h0l.2.2h.3c.1,0,.1-.1,0-.2h.2c.1,0,.1-.1,0-.2s.1.2.2.2h0l.3.2h0c.1-.1,0-.1,0-.2h0l.3.2h0s.2.2.3.1h0a.1.1,0,0,0,.1.1h0c.1,0,0-.1,0-.1h0Z"/><path class="cls-5" d="M15.5,6.4Z"/><path class="cls-5" d="M15.5,6.1a.4.4,0,0,1,.2.3s.1,0,.1.2h0c.1,0,.1-.2.2-.1h.1c.1,0,0-.1,0-.1h.5c.1,0,.1-.1,0-.1h.1c.1-.1-.1-.1-.1-.1h0s.2-.1.1-.1a.1.1,0,0,0-.1-.1h.1s.2,0,.2-.1.2.1.2,0,.2.1.2,0,.2.1.2,0h0s.2.1.2,0h.5a.1.1,0,0,0,.2,0h.7a4.6,4.6,0,0,0-1.7-1,2.5,2.5,0,0,0-1.5,0c-.4,0-.4.5-.4.5h.1v.2h-.1C15.5,5.9,15.5,6,15.5,6.1Zm.2-.7a.4.4,0,0,1,.4-.3,2.8,2.8,0,0,1,1.2.1c.3,0,.4.1.9.3h-.1a2.6,2.6,0,0,0-1.4-.4c-.7,0-.6,0-.6.1h-.4Z"/><path class="cls-5" d="M15.4,6.3c.1-.1.1,0,.1.1h0c0-.1,0-.2-.1-.1a.2.2,0,0,0-.2-.2h0A.2.2,0,0,1,15.4,6.3Z"/><path class="cls-6" d="M15.8,5.4h.3c0-.1-.1-.1.6-.1a2.6,2.6,0,0,1,1.4.4h.1c-.5-.2-.6-.3-.9-.3a2.8,2.8,0,0,0-1.2-.1.4.4,0,0,0-.4.3Z"/><path class="cls-5" d="M14.5,7.4Z"/><path class="cls-5" d="M13.9,7.3c0,.1,0,.1-.1.2v.4l.5-.4h.3a.1.1,0,0,0,.1-.1h-.1s-.3-.3-.1-.4h-.1L14,7h-.1a.4.4,0,0,1-.1.3C13.9,7.4,13.9,7.4,13.9,7.3Z"/><path class="cls-5" d="M14.4,7.4Z"/><path class="cls-5" d="M14.6,6.2h.1a.1.1,0,0,1,.1-.1h.3a.1.1,0,0,0,.1-.1.2.2,0,0,1,.2.2c.1-.1.1,0,.1.1h0a.1.1,0,0,1,0,.2.1.1,0,0,1-.1.1h-.2a.1.1,0,0,1-.1.1h-.4a.1.1,0,0,1-.1-.1.3.3,0,0,1-.1-.2c-.2.1.1.4.1.4h.2a.1.1,0,0,1,.1.1c.2,0,.2-.1.2-.1h.2c.3,0,.4-.2.4-.3s.1-.1.1-.2h0c0-.2-.1-.2-.1-.2a.4.4,0,0,0-.2-.3c0-.1,0-.2-.1-.2a.1.1,0,0,1-.1-.1h-.4a.1.1,0,0,0-.1.1h-.1C14.6,5.9,14.6,6.1,14.6,6.2Z"/><path class="cls-8" d="M15.3,7.1h0Z"/><path class="cls-8" d="M14.6,7.3H15c.1-.1-.1,0-.1-.1h-.3Z"/><path class="cls-9" d="M14,6.6h0Z"/><path class="cls-9" d="M14,6.6Z"/><path class="cls-9" d="M14.2,6.5Z"/><path class="cls-10" d="M14.2,6.5Zm-.2.1h0s-.1-.2.1-.2H14Z"/><polygon class="cls-6" points="14 6.6 14 6.6 14 6.6 14 6.6"/><path class="cls-6" d="M14.1,6.5h0c-.2,0-.1.2-.1.2Z"/><path class="cls-6" d="M14.7,6.9h.4a.1.1,0,0,0,.1-.1h.2a.1.1,0,0,0,.1-.1s.1-.2,0-.2h0c0-.1,0-.2-.1-.1a.2.2,0,0,0-.2-.2.1.1,0,0,1-.1.1h-.3a.1.1,0,0,0-.1.1h0l.4.2v.2h-.6a.3.3,0,0,0,.1.2A.1.1,0,0,0,14.7,6.9Z"/><path class="cls-6" d="M14.2,6.3Z"/><path class="cls-6" d="M14.1,6.4h0a.1.1,0,0,1,.1-.1h0A.1.1,0,0,0,14.1,6.4Z"/><path class="cls-6" d="M15.1,6.6v0Z"/><path class="cls-11" d="M14.5,6.6h.6V6.4h0l-.4-.2h-.5a.1.1,0,0,0-.1.1h.4Zm-.2-.3h0Z"/><path class="cls-6" d="M14.3,6.4h0Z"/><rect class="cls-12" x="14.9" y="12.9" width="0.1"/><path class="cls-12" d="M14.9,13h-.2c0,.5,0,1.3-.2,1.5s-.2.4-.3.4H15V13Z"/><path class="cls-13" d="M14.5,14.5h-.2a1.1,1.1,0,0,0-.1.5h0C14.3,14.9,14.4,14.7,14.5,14.5Z"/><rect class="cls-2" x="14.4" y="12.9" width="0.3"/><path class="cls-2" d="M14.5,14.5c.2-.2.2-1,.2-1.5h-.3a2.2,2.2,0,0,1-.1.9H14a1.8,1.8,0,0,0-.1.6c.1.1.2-.1.4-.2Z"/><path class="cls-14" d="M14,13.8a.4.4,0,0,0-.1.3H14Z"/><polygon class="cls-15" points="14.1 12.9 14.1 12.9 14.4 12.9 14.4 12.9 14.1 12.9"/><path class="cls-15" d="M14.3,13.9a2.2,2.2,0,0,0,.1-.9h-.5c-.1.4-.3.7-.3.8s.2,0,.4-.1Z"/><path class="cls-12" d="M15.4,14.5a5.4,5.4,0,0,1-.2-1.5H15v1.9h.8C15.6,14.9,15.5,14.7,15.4,14.5Z"/><rect class="cls-12" x="15" y="12.9" width="0.1"/><polygon class="cls-12" points="15.2 12.9 15.2 12.9 15.2 12.9 15.2 12.9 15.2 12.9"/><path class="cls-13" d="M15.4,14.5c.1.2.2.4.4.4a4.3,4.3,0,0,1-.1-.5Z"/><path class="cls-2" d="M15.5,13h-.3a5.4,5.4,0,0,0,.2,1.5h.3c.1.1.3.3.4.2A3.5,3.5,0,0,1,16,14h-.3A2,2,0,0,1,15.5,13Z"/><polygon class="cls-2" points="15.2 12.9 15.2 12.9 15.5 12.9 15.5 12.9 15.2 12.9"/><path class="cls-14" d="M15.7,13.9a2,2,0,0,1-.2-.9h0a2,2,0,0,0,.2.9h.4v-.3Z"/><path class="cls-15" d="M15.9,13.1h-.4a2,2,0,0,0,.2.9h.6c.1-.1-.1-.4-.2-.8h-.2Z"/><polygon class="cls-15" points="15.5 12.9 15.5 12.9 15.8 12.9 15.8 12.9 15.5 12.9"/><path class="cls-16" d="M18.6,14.1h-.1l.5.4.5.4-.4-.5-.5-.4h0C18.7,14,18.7,14,18.6,14.1Z"/><path class="cls-17" d="M18.5,14h.1c.1-.1.1-.1,0-.1h-.2l-.4-.4h-.1Z"/><path class="cls-16" d="M19,13.3h0l.5.4.5.3-.4-.5-.5-.4H19Z"/><path class="cls-17" d="M18.9,13.2a.1.1,0,0,0,.1.1h.1a.3.3,0,0,0-.1-.2h-.1l-.3-.2h-.1C18.8,13.2,18.9,13.3,18.9,13.2Z"/><path class="cls-16" d="M11.4,14.1c-.1-.1,0-.1,0-.2h0l-.5.4-.4.5.6-.3.5-.4h-.2Z"/><path class="cls-17" d="M11.6,13.8h-.2c0,.1-.1.1,0,.2h.2l.6-.5H12Z"/><path class="cls-16" d="M10.9,13.3c0-.1,0-.1.1-.1h0l-.5.4-.4.4.5-.3.5-.4h-.2Z"/><path class="cls-17" d="M11.2,13H11c-.1,0-.1,0-.1.1h.2c0,.1.1,0,.4-.3h-.1Z"/><polygon class="cls-8" points="18.1 7.1 18.1 7.1 18.1 7.1 18.1 7.1"/><path class="cls-8" d="M18.1,7.1Z"/><path class="cls-8" d="M18.1,7.1h0Z"/><polygon class="cls-8" points="16.6 8.4 16.6 8.4 16.6 8.4 16.6 8.4"/><polygon class="cls-8" points="18.1 7.2 18 7.2 18.1 7.2 18.1 7.2"/><polygon class="cls-8" points="18.2 7.1 18.3 7 18.3 7 18.1 7.1 18.1 7.1 18.2 7.1"/><path class="cls-16" d="M18.2,7.1h-.1v.2l.3-.2h-.2Z"/><path class="cls-16" d="M18.1,7.2Z"/><path class="cls-16" d="M18.1,7.2Z"/><polygon class="cls-15" points="18.1 7.2 18.1 7.2 18 7.2 17.7 7.5 17.7 7.5 18.1 7.2"/><path class="cls-15" d="M17.8,7.5h0a5.1,5.1,0,0,0,.2.9h.1V7.2h0l-.4.3a4.5,4.5,0,0,0,.2.8c0-.3-.1-.6-.1-.8Z"/><polygon class="cls-15" points="17.3 7.8 17.3 7.8 17.3 7.8 17.3 7.8 17.3 7.8"/><path class="cls-15" d="M17.7,8.4h0Z"/><polygon class="cls-15" points="17.4 7.7 17.5 7.6 17.5 7.6 17.4 7.7 17.4 7.7 17.4 7.7"/><path class="cls-15" d="M17.7,7.5v.3a6.4,6.4,0,0,1,.2.7A5.8,5.8,0,0,1,17.7,7.5Z"/><polygon class="cls-2" points="17.1 7.9 17.1 7.9 17.1 8 17.1 8 17.1 7.9"/><polygon class="cls-2" points="17.7 7.5 17.7 7.5 17.7 7.5 17.7 7.5 17.7 7.5 17.7 7.5"/><path class="cls-2" d="M17.5,7.7h-.1l.3.8h0A1.9,1.9,0,0,1,17.5,7.7Z"/><polygon class="cls-2" points="17.5 7.6 17.6 7.6 17.6 7.6 17.5 7.6 17.5 7.6"/><path class="cls-2" d="M17.1,8.6c.1.1.1.2.2.2l-.2-.3Z"/><path class="cls-2" d="M17.1,8.4l.3.4-.3-.6Z"/><polygon class="cls-2" points="17.5 7.6 17.4 7.7 17.5 7.6 17.5 7.6"/><polygon class="cls-2" points="17.6 7.5 17.7 7.5 17.7 7.5 17.6 7.5 17.6 7.5"/><path class="cls-2" d="M17.1,9h0Z"/><path class="cls-2" d="M17.7,7.5h-.1V7.5Z"/><path class="cls-2" d="M17.3,7.8h0c0,.1.1.2.1.3S17.3,7.9,17.3,7.8Z"/><path class="cls-2" d="M17.1,8h0l.2.2Z"/><path class="cls-2" d="M17.6,7.6h-.1l.2.5A1.1,1.1,0,0,1,17.6,7.6Z"/><path class="cls-18" d="M16.9,9.3h0l.2-.2-.4-.5h0l.4.4h0a4.3,4.3,0,0,0-.4-.7h-.1c0,.1.1.3.1.4l.2.5Z"/><path class="cls-18" d="M16.8,8.3h-.1l.3.4Z"/><path class="cls-18" d="M17,8h-.1l.2.3V8Z"/><path class="cls-18" d="M16.9,8.1h-.1l.3.4h0Z"/><path class="cls-18" d="M17.1,8Z"/><polygon class="cls-15" points="16.6 8.4 16.7 8.3 16.7 8.3 16.6 8.4 16.6 8.4 16.6 8.4"/><path class="cls-15" d="M18.1,7.2l-.4.3h0l.4-.3Z"/><path class="cls-15" d="M17.6,7.6h0Z"/><path class="cls-15" d="M17.5,7.6h0Z"/><path class="cls-15" d="M17.7,7.5h0Z"/><path class="cls-15" d="M17.3,7.8Z"/><path class="cls-15" d="M16.8,8.2h0Z"/><polygon class="cls-15" points="16.7 8.3 16.8 8.3 16.8 8.2 16.7 8.3 16.7 8.3"/><path class="cls-15" d="M16.9,8.1h0Z"/><path class="cls-15" d="M17.1,8Z"/><path class="cls-19" d="M17.2,9.1h0v.2h0Z"/><path class="cls-19" d="M16.7,8.6Z"/><path class="cls-19" d="M17.2,9.1h-.1l-.4-.4.4.5Z"/><path class="cls-19" d="M16.6,8Z"/><path class="cls-19" d="M16.8,8.3l.2.4.3.3h0c-.1,0-.1-.1-.2-.2l-.3-.4h0L16.6,8a.2.2,0,0,0,.2.2Z"/><path class="cls-19" d="M17.3,7.1Z"/><path class="cls-19" d="M17.9,9h0V8.8h0Z"/><path class="cls-19" d="M17.5,7.6h0a1.9,1.9,0,0,0,.2.7v.2h.1V8.1l-.2-.5h0a1.7,1.7,0,0,1-.2-.5,1.7,1.7,0,0,0,.2.5Z"/><path class="cls-19" d="M16.8,7h0Z"/><path class="cls-19" d="M17.6,8.7h0a1.4,1.4,0,0,0-.2-.6c0-.1-.1-.2-.1-.3h0L16.8,7a2,2,0,0,0,.4.8A7.9,7.9,0,0,1,17.6,8.7Z"/><path class="cls-19" d="M17.7,7.4h-.1A.1.1,0,0,0,17.7,7.4Z"/><path class="cls-19" d="M17.7,7.5h0a5.8,5.8,0,0,0,.2,1h0a4.5,4.5,0,0,1-.2-.8Z"/><path class="cls-19" d="M16.7,7.5h0Z"/><path class="cls-19" d="M17,8v.2l.3.6h.1c-.1-.1-.1-.3-.2-.5l-.2-.2h0l-.4-.5L17,8Z"/><path class="cls-19" d="M16.6,8.2Z"/><path class="cls-19" d="M16.7,8.3a4.3,4.3,0,0,1,.4.7h.2L17,8.7l-.3-.4h-.1a.1.1,0,0,0,.1.1Z"/><path class="cls-19" d="M16.7,7.8h0Z"/><path class="cls-19" d="M16.9,8.1l.2.4.2.3h.1l-.3-.4-.2-.3h0c-.1-.1-.2-.2-.2-.3s.1.2.2.3Z"/><path class="cls-19" d="M17.4,7.2h0Z"/><path class="cls-19" d="M17.6,7.6h0a1.1,1.1,0,0,0,.1.5v.4h.1a6.4,6.4,0,0,0-.2-.7V7.6h0c-.1-.1-.1-.3-.2-.3s.1.2.2.4Z"/><path class="cls-19" d="M17.9,8.8h0V8.6h0Z"/><path class="cls-19" d="M16.9,6.8h0Z"/><path class="cls-19" d="M17.3,7.8c0,.1.1.2.1.3a1.4,1.4,0,0,1,.2.6h.1l-.3-.8h0a3.1,3.1,0,0,0-.5-.9l.4,1Z"/><path class="cls-19" d="M17.9,9.6h0V9h0Z"/><path class="cls-19" d="M18,8.4a5.1,5.1,0,0,1-.2-.9c0,.2.1.5.1.8Z"/><path class="cls-19" d="M17.8,7.5Z"/><path class="cls-19" d="M16.8,7.3h0Z"/><path class="cls-19" d="M17.1,8l.2.3c.1.2.1.4.2.5h.1a7.9,7.9,0,0,0-.4-.9l-.4-.5c0,.1.2.3.3.6h0Z"/><path class="cls-19" d="M17.9,9.9V9.6h0Z"/><path class="cls-20" d="M18.1,7.2Z"/><path class="cls-20" d="M18.1,7.2h0V8.3h0V7.2Z"/><path class="cls-18" d="M18.1,7.1Z"/><path class="cls-18" d="M18.1,7.1h0v.5h0v.5h.1a2.2,2.2,0,0,0-.1-.9Z"/><polygon class="cls-18" points="18.1 7.1 18.1 7.1 18.1 7.2 18.1 7.1"/><path class="cls-20" d="M17.9,6.9s0-.1.1,0h-.1Z"/><path class="cls-20" d="M17.9,7Z"/><polygon class="cls-18" points="18.2 7.1 18.2 7.1 18.2 7.1 18.2 7.1"/><path class="cls-18" d="M18.1,7.2h-.2c-.1,0-.1-.1,0-.1h-.1v.2c-.1.1.2.1.2.1Z"/><path class="cls-8" d="M18.9,7.7h0Z"/><path class="cls-8" d="M18.8,7.8h0Z"/><path class="cls-8" d="M16.9,9.4Z"/><polygon class="cls-8" points="18.8 7.7 18.8 7.7 18.8 7.7 18.8 7.7 18.8 7.7"/><path class="cls-8" d="M18.9,7.7h0Z"/><path class="cls-8" d="M17.2,9.1Z"/><path class="cls-8" d="M17.9,8.6Z"/><path class="cls-16" d="M18.8,7.7Z"/><path class="cls-16" d="M18.8,7.8h0Z"/><path class="cls-16" d="M18.8,7.8Z"/><path class="cls-16" d="M18.9,7.7h-.1a.3.3,0,0,1,.1.2h0c0-.1.1-.1.2-.2h.2c0,.1-.1.2,0,.3h.2a.2.2,0,0,0,.2-.2c.1,0,.1-.1.1-.2h-.3c-.1,0-.2-.1.1-.2s.2,0,.2-.2l.2-.3h-.4c-.1.1-.2.1-.3.3s-.1.1-.1,0h0c-.1-.1-.1,0-.2.1s-.2,0-.1.1H19c.1.1,0,.1,0,.2h-.1Z"/><path class="cls-15" d="M18.1,8.3h-.2V9.9h0v.2a7.7,7.7,0,0,1-.2,1.5,1.3,1.3,0,0,1-.6.9h.2v.2H16.1a1.9,1.9,0,0,0,1,.5H18l.3-.2.2-.3h.1a6.4,6.4,0,0,0,.2-.9,9.1,9.1,0,0,0,.1-1.7V9.3h-.2V7.8h-.1l-.5.4Z"/><polygon class="cls-15" points="15.9 12.9 15.9 12.9 15.9 12.9 15.9 12.9 15.9 12.9"/><polygon class="cls-2" points="15.4 12.5 15.4 12.5 15.4 12.5 15.4 12.5 15.4 12.5"/><path class="cls-2" d="M16.6,12.8Z"/><polygon class="cls-2" points="15.2 12.5 15.2 12.5 15.3 12.5 15.3 12.5 15.2 12.5"/><polygon class="cls-2" points="15.9 12.9 15.9 12.9 16.2 12.9 16.2 12.9 15.9 12.9"/><path class="cls-2" d="M17.2,9.1v1.2c0,.7-.2,1.9-.7,2.2h.6a1.3,1.3,0,0,0,.6-.9,7.7,7.7,0,0,0,.2-1.5V10h0V8.6h-.7Z"/><polygon class="cls-12" points="15.3 12.5 15.4 12.5 15.4 12.5 15.3 12.5 15.3 12.5"/><polygon class="cls-12" points="15.6 12.5 15.8 12.5 15.8 12.5 15.6 12.5 15.6 12.5"/><path class="cls-12" d="M15.6,12.4Z"/><polygon class="cls-12" points="15.5 12.5 15.8 12.5 15.8 12.5 15.5 12.5 15.5 12.5"/><path class="cls-12" d="M15.5,12.3Z"/><polygon class="cls-12" points="15.9 12.5 16.2 12.5 16.2 12.5 15.9 12.5 15.9 12.5"/><polygon class="cls-12" points="15.5 12.5 15.5 12.5 15.5 12.5 15.5 12.5 15.5 12.5"/><polygon class="cls-12" points="15.9 12.5 16.2 12.5 16.2 12.5 15.9 12.5 15.9 12.5"/><path class="cls-12" d="M15.6,12.4Z"/><polygon class="cls-12" points="16.9 9.3 16.9 9.3 16.9 9.3 16.9 9.3"/><path class="cls-12" d="M17.1,9.1l-.2.2h0v.5h0a2.5,2.5,0,0,1-1.3,2.3h0s.1,0,0,.1h.9c.5-.3.7-1.5.7-2.2V9.1h-.1Z"/><path class="cls-20" d="M18.9,8.9h0V8.2a.6.6,0,0,0-.1-.4h0v.4h0v.9h.2Z"/><path class="cls-18" d="M18.9,9.2Z"/><path class="cls-18" d="M18.8,7.7Z"/><path class="cls-18" d="M18.8,7.7h0a.6.6,0,0,1,.1.4v.7h0v.3h0c0,.1.1.1.1,0V7.9A.3.3,0,0,0,18.8,7.7Z"/><path class="cls-20" d="M18.6,7.5h.1v.2h.1a.1.1,0,0,0,.1.1h0a.1.1,0,0,0-.1-.1V7.4h-.2Z"/><path class="cls-18" d="M18.8,7.7h-.1c-.2,0-.1-.1-.1-.1a.1.1,0,0,1,.1.1h.2a.1.1,0,0,1-.1-.1h-.3a.2.2,0,0,0,.3.1Z"/><path class="cls-8" d="M11.9,7.2Z"/><polygon class="cls-8" points="12 7.2 11.9 7.2 11.9 7.2 12 7.2"/><polygon class="cls-16" points="11.9 7.1 11.9 7.1 11.9 7.1 11.9 7.1"/><path class="cls-16" d="M11.9,7.2Z"/><path class="cls-16" d="M11.9,7.2Z"/><polygon class="cls-16" points="11.9 7.2 11.9 7.2 11.9 7.2 11.9 7.2 11.9 7.2 11.9 7.2"/><path class="cls-16" d="M11.9,7.1h-.3l.2.2h.1Z"/><polygon class="cls-15" points="12.9 9.1 12.8 9.1 12.9 9.1 12.9 9.1"/><path class="cls-15" d="M11.9,7.2h0V8.3l.2.2h.2V8.1L12,7.9h.3c0-.1-.1-.1-.1-.2a.1.1,0,0,1,.1.1V7.5L12,7.2Z"/><path class="cls-2" d="M12.9,8Z"/><path class="cls-2" d="M12.8,7.9h-.5v.4h0c.2,0,.3.1.3.2h-.1l.3.2h.1V8.7h-.2l.2-.2h0c-.1.1-.2.2-.2.3h0a.4.4,0,0,1,.1-.3V8h-.1Z"/><path class="cls-2" d="M12.5,8h0Z"/><path class="cls-2" d="M12.3,7.7h.3c0,.1.1.1.1.2h.2l-.6-.5h0Z"/><path class="cls-12" d="M13,8h-.1V8Z"/><path class="cls-12" d="M13.1,9.3c0-.1,0-.1.1-.2h0c.1-.2.1-.4.2-.6h-.1l-.2.2-.2.2v.4h0Z"/><path class="cls-12" d="M13,8.4h.2L13,8.1a.4.4,0,0,1-.1.3h0Z"/><path class="cls-12" d="M12.9,7.9Z"/><path class="cls-20" d="M11.9,7.2h0a4.3,4.3,0,0,0-.1.5c0,.1.1.4.1.6h0V7.2Z"/><path class="cls-21" d="M12.9,8h.3l.2-.3-.3.3h-.2Z"/><path class="cls-22" d="M13.5,7.5h0Z"/><path class="cls-21" d="M12.9,8.4a.4.4,0,0,0,.1-.3V7.9H13v.4a.4.4,0,0,0-.1.3h0c0-.1.1-.2.2-.3Z"/><path class="cls-22" d="M13,7.9h0Z"/><path class="cls-22" d="M12.8,8Z"/><path class="cls-21" d="M12.8,8.1H12l.3.2h.5Z"/><path class="cls-21" d="M12.8,8.1Z"/><path class="cls-21" d="M12.5,8h.2c0-.1-.1-.1-.1-.2h-.3a.1.1,0,0,0-.1-.1c0,.1.1.1.1.2h.2Z"/><path class="cls-23" d="M13.2,7.9h-.1l.4-.3.3-.2c.1-.1.1-.1.1-.2s0,.1-.1.1l-.3.2-.3.2Z"/><path class="cls-21" d="M12.1,8.6Z"/><path class="cls-21" d="M12.5,8.8h.1c0-.1-.1-.2-.3-.2h-.2Z"/><path class="cls-21" d="M13.1,8.5l.2-.2c.1,0,.1-.1.2-.2l-.3.2H13v.2l-.2.2h.2Z"/><path class="cls-21" d="M13,7.5c.1,0,.1-.1.1-.2h.1V6.7c0,.2-.1.3-.1.5H13Z"/><path class="cls-21" d="M13,7.7h0Z"/><path class="cls-21" d="M13,7.6h0V7.3h0V6.8c0,.2-.1.3-.1.5S13,7.5,13,7.6Z"/><path class="cls-21" d="M13,7.6h0l.2-.2.2-.3-.3.2h0c0,.1,0,.2-.1.2Z"/><path class="cls-21" d="M13.9,7.1H14V6.7l-.2.3h0c0,.1-.1.1-.1.2Z"/><path class="cls-21" d="M13.8,7.2Z"/><path class="cls-21" d="M13.8,7.2c0-.1.1-.1.1-.2h0V6.8a.3.3,0,0,1-.1.2v.2Z"/><path class="cls-21" d="M13.9,7.1h-.1a.1.1,0,0,0,.1-.1Z"/><path class="cls-22" d="M13.7,7.3c.1,0,.1-.1,0-.1h0Z"/><path class="cls-22" d="M12.8,7.9Z"/><path class="cls-22" d="M12.8,8h0Z"/><path class="cls-22" d="M13.1,7.8Z"/><path class="cls-22" d="M13.1,7.8h0Z"/><path class="cls-22" d="M12.7,8.7Z"/><polygon class="cls-18" points="11.9 7.1 11.9 7.1 11.9 7.1 11.9 7.1"/><path class="cls-18" d="M11.8,7.8h0a4.3,4.3,0,0,1,.1-.5h0a2.5,2.5,0,0,0-.1,1h.1C11.8,8.1,11.9,8,11.8,7.8Z"/><path class="cls-18" d="M11.9,7.1Z"/><path class="cls-20" d="M12.1,7Z"/><path class="cls-20" d="M11.8,7.1H12c0-.1.1,0,.1,0h0a.1.1,0,0,0-.1-.1h-.2Z"/><path class="cls-18" d="M12.1,6.9h0c.1,0,.1.1,0,.1H12s.2,0,.2-.1V6.9Z"/><path class="cls-8" d="M11.1,7.6h0Z"/><polygon class="cls-8" points="11.2 7.7 11.2 7.7 11.2 7.7 11.2 7.7"/><path class="cls-8" d="M12.8,9.1Z"/><polygon class="cls-8" points="11.2 7.7 11.2 7.7 11.2 7.7 11.2 7.7"/><path class="cls-8" d="M11.2,7.7h0Z"/><polygon class="cls-8" points="11.3 7.8 11.2 7.7 11.2 7.7 11.3 7.8"/><path class="cls-8" d="M11.2,7.7Z"/><path class="cls-8" d="M12.1,8.6Z"/><path class="cls-16" d="M11.1,7.7H11c-.1-.1-.1-.1,0-.2h.1a.1.1,0,0,0-.1-.1c-.1-.1-.2-.2-.2-.1v.2a.1.1,0,0,1-.1-.1c-.1-.2-.2-.2-.4-.3H10l.2.3c0,.2.1.2.2.2s.2.2.1.2h-.3c-.1.1,0,.2,0,.3h.5c.1-.1,0-.1,0-.3h.4Z"/><path class="cls-16" d="M11.1,7.9h.1C11.2,7.8,11.1,7.8,11.1,7.9Z"/><path class="cls-16" d="M11.1,7.7s0,.3.1,0h-.1Z"/><path class="cls-15" d="M11.2,11.9a6.4,6.4,0,0,0,.2.9h.1l.2.3.3.2h.9a3.1,3.1,0,0,0,1-.5h-.7a.4.4,0,0,1-.1.3l-.2-.2h0a1.3,1.3,0,0,1-.6-.9,3.9,3.9,0,0,1-.2-1.5V10h0V8.6h0l-.2-.2h-.1l-.5-.4h-.1V9.2h-.2v.9A9.1,9.1,0,0,0,11.2,11.9Z"/><polygon class="cls-15" points="14.1 12.9 14.1 12.9 14.1 12.9 14.1 12.9 14.1 12.9"/><path class="cls-2" d="M13,12.6a.5.5,0,0,0-.1-.3h-.3s0-.3.4-.3a3,3,0,0,1-.2-1.6V9.1h0l-.3-.2-.4-.3h0V10h0v.2a3.9,3.9,0,0,0,.2,1.5,1.3,1.3,0,0,0,.6.9Z"/><path class="cls-2" d="M13.4,12.6Z"/><polygon class="cls-2" points="13.7 12.9 13.7 12.9 14 12.9 14 12.9 13.7 12.9"/><polygon class="cls-2" points="13.6 12.9 13.6 12.9 13.4 12.9 13.4 12.9 13.6 12.9"/><polygon class="cls-2" points="14.6 12.5 14.6 12.5 14.6 12.5 14.6 12.5 14.6 12.5"/><path class="cls-2" d="M13.4,12.8Z"/><polygon class="cls-12" points="14.3 12.5 14.1 12.5 14.1 12.5 14.3 12.5 14.3 12.5"/><polygon class="cls-12" points="14.7 12.5 14.7 12.5 14.5 12.5 14.5 12.5 14.7 12.5"/><polygon class="cls-12" points="14.4 12.5 14.1 12.5 14.1 12.5 14.4 12.5 14.4 12.5"/><polygon class="cls-12" points="14.5 12.5 14.5 12.5 14.4 12.5 14.4 12.5 14.5 12.5"/><polygon class="cls-12" points="13.5 12.5 13.6 12.5 13.6 12.5 13.5 12.5 13.5 12.5"/><polygon class="cls-12" points="14 12.5 13.7 12.5 13.7 12.5 14 12.5 14 12.5"/><path class="cls-12" d="M14.5,12.3h0Z"/><polygon class="cls-12" points="14 12.5 13.7 12.5 13.7 12.5 14 12.5 14 12.5"/><path class="cls-12" d="M14.4,12.4Z"/><path class="cls-12" d="M12.8,9.1v1.2a2.3,2.3,0,0,0,.3,1.6h0c.3,0,.4.1.5.4a.2.2,0,0,0-.3.1h1.1c-.1-.1,0-.1,0-.1h0a.1.1,0,0,1-.1-.1h-.9c0-.1,0-.1-.1-.1h0v-.2h0c0-.1,0-.1-.1-.2h0V9.9h0V9.3l-.2-.2h-.1Z"/><path class="cls-20" d="M11.3,9.2V8.3h0V7.8h-.1v.9h0v.3h.2Z"/><path class="cls-18" d="M11.2,7.7Z"/><path class="cls-18" d="M11.1,9.2V8.9h0V8.4h0V8h0c0-.1.1-.1.1-.2h0c-.1.3-.1,0-.1,0h0v.2a4.6,4.6,0,0,1-.1,1c0,.1-.1.3,0,.3s0,.1.1,0Z"/><path class="cls-18" d="M11.1,9.2Z"/><path class="cls-20" d="M11.3,7.6h0Z"/><path class="cls-20" d="M11.2,7.6h0V7.4h-.1v.2a.1.1,0,0,0-.1.1h0A.1.1,0,0,0,11.2,7.6Z"/><path class="cls-18" d="M11.4,7.5h-.2a.1.1,0,0,1-.1.1h.3s.1.1-.1.1h-.1a.2.2,0,0,0,.3-.1Z"/><polygon class="cls-6" points="15.5 12.3 15.5 12.3 15.5 12.3 15.5 12.3 15.5 12.3 15.5 12.3"/><path class="cls-6" d="M16.9,10h0a2.5,2.5,0,0,1-1.3,2.4h0A2.5,2.5,0,0,0,16.9,10Z"/><polygon class="cls-6" points="14.5 12.3 14.5 12.3 14.5 12.3 14.5 12.3 14.5 12.3"/><path class="cls-6" d="M13.1,9.9h0v.4h0c.1.1.1.1.1.2h0V11h0c.1,0,.1,0,.1.1h.9a.1.1,0,0,0,.1.1h0A2.5,2.5,0,0,1,13.1,9.9Z"/><path class="cls-24" d="M13.4,8.4c-.1.2-.1.4-.2.6h0c-.1.1-.1.1-.1.2v.6h0a2.5,2.5,0,0,0,1.3,2.4c.1,0,.1-.1.2-.2h0l-.6-.3-.2-.2h0a2.1,2.1,0,0,1-.4-.6h0a2.2,2.2,0,0,1-.1-.6,1.1,1.1,0,0,1,0-.6h0a2,2,0,0,1,.1-.7h0a.5.5,0,0,1,.1-.3h0a1.6,1.6,0,0,1,1.1-1,.4.4,0,0,0-.3-.2h0l-.5.4Z"/><path class="cls-24" d="M14.5,7.5c.1,0,.1.1.1.2h0c0-.1,0-.2-.1-.2h0Z"/><path class="cls-24" d="M15.4,7.7a1.7,1.7,0,0,1,1.1,1.1V9h0a2.8,2.8,0,0,1,.1.9v.3h0s0,.4-.1.5h0a2,2,0,0,1-.4.8H16l-.6.3c.1.1.1.2.2.2a2.5,2.5,0,0,0,1.3-2.4h0a3.6,3.6,0,0,0-.2-1.1c0-.1-.1-.3-.1-.4h0l-.9-.9Z"/><path class="cls-24" d="M13.9,9.1h.2c0,.1,0,.1.1.1s.1.1.2.2h.2v.2h.6l.3.2h0l-.3-.2h-.6V9.5h-.2c-.1-.1-.1-.2-.2-.2s-.1,0-.1-.1h-.2l-.3.3h0Z"/><path class="cls-24" d="M15.5,7.5h0c-.1,0-.1.1-.1.2h0A.3.3,0,0,1,15.5,7.5Z"/><path class="cls-24" d="M14.5,12.3c.1,0,.1-.1.1-.2h0c0,.1,0,.2-.1.2Z"/><path class="cls-24" d="M15.5,12.3h0c-.1,0-.1-.2-.1-.2h0S15.4,12.3,15.5,12.3Z"/><path class="cls-24" d="M15.5,10.4Z"/><path class="cls-24" d="M15.7,10.3Z"/><path class="cls-24" d="M14.7,10.4h0Z"/><path class="cls-24" d="M15.5,10.4Z"/><path class="cls-25" d="M15,11h0V11Z"/><path class="cls-25" d="M15,11h0Z"/><path class="cls-25" d="M15,11Z"/><path class="cls-25" d="M15,11.2h0v.2Z"/><polygon class="cls-25" points="15.5 10.4 15.5 10.4 15.5 10.4 15.5 10.4 15.5 10.4"/><path class="cls-25" d="M16.1,11.6h0Z"/><path class="cls-25" d="M14,11.8l.6.3h-.2Z"/><path class="cls-25" d="M15,11.2h0c0,.1-.1.1,0,.1h0Z"/><path class="cls-25" d="M15,11.2h0Z"/><polygon class="cls-25" points="14.6 12.1 14.6 12.1 14.6 12.1 14.6 12.1 14.6 12.1"/><path class="cls-25" d="M16.4,10.7h-3a2.1,2.1,0,0,0,.4.6h.3c0,.1,0,.2.1.2h.6l-.2-.2h-.4l-.3-.2h.9l.3.2h.3l.6-.3h-.2a.1.1,0,0,1-.1-.1h.5a2,2,0,0,0,.4-.8Zm-1.1.6Zm.3.7h-.2s0-.2-.1-.2h-.4c0-.1-.2-.2-.3-.2h1Zm-.2-.3h.1a.1.1,0,0,1,.1.1h-.2a.1.1,0,0,1-.1-.1h.1Zm.1-.1h-.9l-.3-.2h.5V11h0v.4h.1a.1.1,0,0,1,.1-.1h0c-.1,0-.1,0,0-.1h.7Zm-.3-.3h0Zm.6-.1h0Z"/><path class="cls-26" d="M14.6,7.8h0a1.6,1.6,0,0,0-1.1,1h.1l.9-.4h.2V8h.2v0h.2v.2h.2a1.9,1.9,0,0,1,.9.4.3.3,0,0,1,.1.2h0a1.7,1.7,0,0,0-1.1-1.1h-.8Z"/><path class="cls-26" d="M15.6,8.6h-.3v.2h0l-.2-.2v0l-.2.2V8.6h-.1a3.3,3.3,0,0,0-1.2.5,2,2,0,0,0-.1.7h.3l.3-.3h.2c0,.1,0,.1.1.1s.1.1.2.2h.2v.2h.6l.3.2h1.1V9.9a2.8,2.8,0,0,0-.1-.9,4.3,4.3,0,0,0-1.2-.5Z"/><path class="cls-6" d="M13.5,10.9h.4c0-.1-.1-.1-.1,0h-.4c0-.2,0-.3-.1-.4h0l.3-.2V10h.4l-.2.2s-.1.1,0,.1-.1.2,0,.2h.4l-.3.2v.2h.1c-.1-.1,0-.1.1-.1h.1v.2h.3l.3.2h.7l-.3-.2h-.6V9.5h-.2c-.1-.1-.1-.2-.2-.2s-.1,0-.1-.1h-.2l-.3.3h.2l-.2.2h.1a.1.1,0,0,0-.1.1h0a.1.1,0,0,0,.1-.1h.2l-.2.2h-.1v.2a.1.1,0,0,1-.1.1h-.1V9.7h0a1.1,1.1,0,0,0,0,.6,2.2,2.2,0,0,0,.1.6h.1Zm1.7-.9h.1s.1.1,0,.1h0a.1.1,0,0,1,.1-.1h0c.1,0,.1,0,.1.1h.1c0-.1.1,0,.1-.1h0a.1.1,0,0,1,.1.1h-1c0-.1-.1-.1,0-.1h.4Z"/><path class="cls-27" d="M16.1,10.2h.5c.1-.1.1-.5.1-.5h-.6Zm.3-.1h0Z"/><path class="cls-27" d="M13.3,9.7h0v.6h.1a.1.1,0,0,0,.1-.1V10h.1l.2-.2h-.2a.1.1,0,0,1-.1.1h0a.1.1,0,0,1,.1-.1h-.1l.2-.2h-.5Z"/><path class="cls-27" d="M14.3,10.5v-.2h-.1c-.1,0-.2,0-.1.1h.2Z"/><path class="cls-27" d="M14.3,10.5Z"/><path class="cls-27" d="M14.4,10.7h.5l-.3-.2H14v-.2l.3-.2h-.4c-.1,0,0-.1,0-.2s0-.1,0-.1l.2-.2h-.4v.2l-.3.2h0c.1.1.1.2.1.4h.4c0-.1.1-.1.1,0h.5Z"/><path class="cls-27" d="M15.1,10.1h-.3c-.1,0,0,0,0,.1h1a.1.1,0,0,0-.1-.1h0c0,.1-.1,0-.1.1h-.1c0-.1,0-.1-.1-.1h0a.1.1,0,0,0-.1.1h0c.1,0,0-.1,0-.1h-.2Z"/><polygon class="cls-6" points="16.2 10.2 16.2 10.2 16.2 10.2 16.2 10.2"/><path class="cls-6" d="M16.4,10.1h0Z"/><path class="cls-28" d="M15.2,12.1h-.1l-.3-.2h-.9l.3.2h.4l.2.2h.4Z"/><path class="cls-28" d="M14.6,12.1h-.4c-.1,0-.1-.1-.1-.2h-.3l.2.2.4.2Z"/><polygon class="cls-28" points="14.2 11.5 14.2 11.5 14.2 11.5 14.2 11.5"/><path class="cls-28" d="M15.4,11.9h-.8c.1,0,.3.1.3.2h.4c.1,0,.1.2.1.2h0Z"/><polygon class="cls-28" points="14.9 11.7 14.9 11.7 14.9 11.7 14.9 11.7"/><path class="cls-28" d="M14.9,11.7h.4a.1.1,0,0,0,.1.1h.2a.1.1,0,0,0-.1-.1h-.6Z"/><path class="cls-28" d="M15.9,11.7h-.2a.1.1,0,0,0,.1.1h.1Z"/><path class="cls-28" d="M16,11.6h0Z"/><path class="cls-28" d="M16.1,11.5h0Z"/><path class="cls-16" d="M14.7,8.2h0Z"/><path class="cls-16" d="M16.4,8.6a1.9,1.9,0,0,0-.9-.4h-.1a4.3,4.3,0,0,1,1.2.5h0V8.8h0A.3.3,0,0,0,16.4,8.6Z"/><path class="cls-16" d="M14.7,8.4h-.2l-.9.4h-.1a.5.5,0,0,0-.1.3h0a3.3,3.3,0,0,1,1.2-.5Z"/><path class="cls-16" d="M15.4,8.2h0Z"/><polygon class="cls-29" points="15.2 8.6 15.4 8.8 15.4 8.8 15.2 8.6 15.2 8.6"/><polygon class="cls-29" points="15.4 8 15.4 8 15.2 8.1 15.2 8.1 15.4 8"/><polygon class="cls-29" points="15.3 8.6 15.6 8.6 15.6 8.6 15.3 8.6 15.3 8.6"/><polygon class="cls-29" points="15.3 8.2 15.6 8.2 15.6 8.2 15.4 8.2 15.3 8.2 15.3 8.2"/><path class="cls-30" d="M15.1,8.3Z"/><path class="cls-30" d="M14.4,8.4h.3v.2l.2-.2v0h0l.2.2h0V8.6h0V8h-.2v0h-.2v.2h-.3Zm.5,0h0Zm0-.1h0Zm.1,0h0Zm0,.3h0Zm.1-.1h0Zm0,0Zm.1-.2Z"/><path class="cls-30" d="M14.9,8.3Z"/><path class="cls-24" d="M15,7.3h-.5c.1,0,.1.1.1.2h.8c0-.1,0-.2.1-.2h.1a.1.1,0,0,1-.1-.1H15Z"/><path class="cls-31" d="M15.6,7.4h-.1a.3.3,0,0,0-.1.2h0l.3-.2h-.1Z"/><path class="cls-31" d="M14.3,7.5a.4.4,0,0,1,.3.2h0c0-.1,0-.2-.1-.2h-.2Z"/><rect class="cls-6" x="14.7" y="12.5" width="0.1"/><polygon class="cls-6" points="14.8 13 14.7 13 14.7 13 14.7 13 14.8 13 14.8 13 14.8 13 14.8 13"/><rect class="cls-6" x="14.7" y="12.9" width="0.1"/><rect class="cls-6" x="14.7" y="12.5" width="0.1"/><path class="cls-6" d="M15.6,12.4Z"/><polygon class="cls-6" points="15.6 12.4 15.6 12.4 15.6 12.4 15.6 12.4 15.6 12.4"/><polygon class="cls-6" points="14.4 12.4 14.4 12.4 14.4 12.4 14.4 12.4"/><path class="cls-6" d="M15,12.1h0Z"/><path class="cls-6" d="M14.6,12.1h0c0,.1,0,.2-.1.2h0c.1,0,.1-.2.1-.2Z"/><path class="cls-24" d="M14.5,12.4h1c-.1,0-.1-.2-.1-.2h-.8s0,.2-.1.2h0Z"/><path class="cls-31" d="M15.4,12.1s0,.2.1.2h.1c.1-.1,0-.1,0-.1h0c-.1,0-.1-.1-.2-.2Z"/><path class="cls-31" d="M14.4,12.4h.1c.1,0,.1-.1.1-.2h0c-.1.1-.1.2-.2.2h0s-.1,0,0,.1Z"/><rect class="cls-16" x="14.9" y="12.7" width="0.2"/><rect class="cls-16" x="15.2" y="12.7" width="0.4" transform="translate(-4.5 13.1) rotate(-40.6)"/><polygon class="cls-16" points="16.6 12.6 16.6 12.7 16.3 12.7 16.3 12.7 16.6 12.7 16.6 12.8 16.6 12.8 16.6 12.8 16.9 12.8 17.3 12.8 17.3 12.6 17.1 12.6 16.6 12.6"/><polygon class="cls-16" points="15.7 12.7 15.7 12.7 16.2 12.7 16.2 12.7 15.7 12.7"/><path class="cls-16" d="M13.4,12.6h-.2c.1.1.1.1.1.2h.1Z"/><polygon class="cls-16" points="14.2 12.7 14.2 12.7 13.7 12.7 13.7 12.7 14.2 12.7"/><path class="cls-16" d="M13,12.6h-.1A.3.3,0,0,1,13,12.6Z"/><rect class="cls-16" x="14.6" y="12.4" height="0.48" transform="translate(-4.5 15.5) rotate(-49.4)"/><path class="cls-16" d="M13.3,12.8c0-.1,0-.1-.1-.2h.1a.2.2,0,0,1,.3-.1c-.1-.3-.2-.4-.5-.4H13c-.4,0-.4.3-.4.3h.3a.5.5,0,0,1,.1.3.3.3,0,0,0-.1.2h0l.2.2a.4.4,0,0,0,.1-.3h.1Z"/><polygon class="cls-32" points="15.3 12.5 15.3 12.5 15.4 12.5 15.3 12.4 15.2 12.4 15.2 12.5 15.2 12.5 15.3 12.5"/><path class="cls-32" d="M16.2,12.5h0Z"/><path class="cls-32" d="M16.5,12.5h0Z"/><path class="cls-32" d="M13.4,12.5h0Z"/><path class="cls-32" d="M13.9,12.4h0Z"/><polygon class="cls-32" points="14.4 12.5 14.5 12.4 14.4 12.4 14 12.4 14.1 12.5 14.4 12.5"/><polygon class="cls-32" points="15.4 12.4 15.5 12.5 15.8 12.5 15.9 12.4 15.6 12.4 15.4 12.4"/><polygon class="cls-32" points="14.6 12.4 14.5 12.5 14.7 12.5 14.7 12.5 14.8 12.5 14.8 12.4 14.7 12.4 14.6 12.4"/><rect class="cls-32" x="14.9" y="12.4" width="0.2" height="0.07"/><rect class="cls-32" x="14.9" y="12.5" width="0.2" height="0.07"/><polygon class="cls-32" points="15.4 12.5 15.5 12.5 15.5 12.5 15.4 12.5 15.3 12.5 15.3 12.5 15.2 12.5 15.2 12.5 15.2 12.5 15.4 12.5 15.4 12.5"/><path class="cls-32" d="M15.9,12.5h0Z"/><polygon class="cls-32" points="15.6 12.5 15.8 12.5 15.8 12.5 15.5 12.5 15.6 12.5"/><path class="cls-32" d="M16.5,12.5Z"/><path class="cls-32" d="M13.4,12.5Z"/><path class="cls-32" d="M14,12.5h0Z"/><polygon class="cls-32" points="14.4 12.5 14.1 12.5 14.1 12.5 14.3 12.5 14.4 12.5"/><polygon class="cls-32" points="14.7 12.5 14.7 12.5 14.5 12.5 14.4 12.5 14.5 12.5 14.6 12.5 14.6 12.5 14.7 12.5 14.8 12.5 14.8 12.5 14.7 12.5"/><polygon class="cls-32" points="14.3 12.5 14.1 12.5 14.2 12.6 14.3 12.6 14.3 12.5"/><path class="cls-32" d="M13.5,12.5h0Z"/><polygon class="cls-32" points="14.6 12.5 14.6 12.5 14.5 12.5 14.4 12.5 14.4 12.6 14.8 12.6 14.8 12.5 14.7 12.5 14.6 12.5"/><rect class="cls-32" x="14.9" y="12.5" width="0.2" height="0.07"/><path class="cls-32" d="M14.1,12.6h0Z"/><polygon class="cls-32" points="15.5 12.6 15.5 12.5 15.5 12.5 15.4 12.5 15.4 12.5 15.2 12.5 15.2 12.6 15.5 12.6"/><path class="cls-32" d="M16.5,12.6h0Z"/><polygon class="cls-32" points="15.6 12.6 15.7 12.6 15.8 12.5 15.6 12.5 15.6 12.6"/><path class="cls-32" d="M15.8,12.6h0Z"/><path class="cls-32" d="M16.3,12.6h0Z"/><polygon class="cls-32" points="14.4 12.6 14.3 12.7 14.8 12.7 14.8 12.6 14.4 12.6"/><rect class="cls-32" x="14.9" y="12.6" width="0.2" height="0.07"/><path class="cls-32" d="M15.8,12.6h0Z"/><polygon class="cls-32" points="15.6 12.6 15.7 12.7 15.7 12.6 15.6 12.6"/><path class="cls-32" d="M13.4,12.6Z"/><polygon class="cls-32" points="14.3 12.6 14.2 12.6 14.2 12.7 14.3 12.6"/><polygon class="cls-32" points="15.6 12.7 15.5 12.6 15.2 12.6 15.2 12.7 15.6 12.7"/><path class="cls-32" d="M14.2,12.7h0Z"/><rect class="cls-32" x="14.9" y="12.7" width="0.2" height="0.07"/><path class="cls-32" d="M16.3,12.7h0Z"/><path class="cls-32" d="M15.7,12.7Z"/><polygon class="cls-32" points="15.2 12.7 15.2 12.8 15.6 12.8 15.6 12.7 15.6 12.7 15.2 12.7"/><path class="cls-32" d="M13.3,12.7h0Z"/><path class="cls-32" d="M13.7,12.7Z"/><polygon class="cls-32" points="14.3 12.7 14.3 12.7 14.3 12.8 14.8 12.8 14.8 12.7 14.3 12.7"/><polygon class="cls-32" points="14.1 13 14 13 14.4 13 14.5 13 14.4 13 14.1 13"/><polygon class="cls-32" points="14.9 13 14.9 13 15 13 15.1 13 15.1 13 14.9 13"/><polygon class="cls-32" points="15.2 13 15.2 13 15.2 13 15.3 13 15.4 13 15.2 13"/><polygon class="cls-32" points="15.5 13 15.4 13 15.5 13 15.5 13 15.9 13 15.8 13 15.5 13"/><path class="cls-32" d="M16.3,13h0Z"/><path class="cls-32" d="M16,13Z"/><path class="cls-32" d="M13.4,13Z"/><path class="cls-32" d="M13.9,13h0Z"/><polygon class="cls-32" points="14.8 13 14.8 13 14.5 13 14.6 13 14.7 13 14.8 13"/><polygon class="cls-32" points="14.9 12.9 14.9 13 15.1 13 15.1 12.9 15 12.9 14.9 12.9"/><polygon class="cls-32" points="14.4 13 14.4 12.9 14.1 12.9 14.1 12.9 14.1 13 14.4 13"/><polygon class="cls-32" points="15.2 12.9 15.2 12.9 15.2 13 15.4 13 15.5 12.9 15.2 12.9"/><polygon class="cls-32" points="15.5 12.9 15.5 13 15.8 13 15.8 12.9 15.5 12.9"/><path class="cls-32" d="M16.5,12.9h0Z"/><path class="cls-32" d="M15.9,12.9Z"/><path class="cls-32" d="M13.6,12.9h0Z"/><path class="cls-32" d="M13.7,12.9h0Z"/><polygon class="cls-32" points="14.7 12.9 14.4 12.9 14.5 13 14.8 13 14.8 12.9 14.7 12.9"/><polygon class="cls-32" points="14.9 12.8 14.9 12.9 15 12.9 15.1 12.9 15.1 12.8 14.9 12.8"/><polygon class="cls-32" points="14.4 12.9 14.3 12.8 14.2 12.8 14.1 12.9 14.1 12.9 14.4 12.9"/><polygon class="cls-32" points="15.2 12.8 15.2 12.9 15.2 12.9 15.5 12.9 15.5 12.8 15.2 12.8"/><polygon class="cls-32" points="15.6 12.8 15.5 12.9 15.8 12.9 15.7 12.8 15.6 12.8"/><path class="cls-32" d="M16.3,12.9h0Z"/><path class="cls-32" d="M15.8,12.8h0Z"/><path class="cls-32" d="M13.7,12.8h0Z"/><path class="cls-32" d="M13.6,12.9h0Z"/><polygon class="cls-32" points="14.4 12.8 14.4 12.9 14.7 12.9 14.8 12.9 14.8 12.8 14.4 12.8"/><polygon class="cls-32" points="15.6 12.8 15.7 12.8 15.7 12.8 15.6 12.8"/><polygon class="cls-32" points="14.3 12.8 14.2 12.8 14.2 12.8 14.3 12.8"/><rect class="cls-32" x="14.9" y="12.7" width="0.2" height="0.07"/><polygon class="cls-32" points="15.2 12.8 15.2 12.8 15.5 12.8 15.6 12.8 15.2 12.8"/><path class="cls-32" d="M16.3,12.8h0Z"/><path class="cls-32" d="M15.8,12.7h0Z"/><path class="cls-32" d="M13.4,12.8Z"/><path class="cls-32" d="M13.7,12.7h0Z"/><polygon class="cls-32" points="14.3 12.8 14.4 12.8 14.8 12.8 14.8 12.8 14.3 12.8"/><path class="cls-16" d="M14,13h0Z"/><path class="cls-16" d="M14.3,12.7h0Z"/><path class="cls-16" d="M14.5,13h0Z"/><path class="cls-6" d="M13.7,12.9Z"/><path class="cls-6" d="M16.3,12.9Z"/><polygon class="cls-16" points="15.2 12.9 15.2 12.9 15.2 12.8 15.2 12.8 15.2 12.7 15.2 12.7 15.2 12.6 15.2 12.5 15.2 12.5 15.2 12.5 15.2 12.5 15.2 12.4 15.1 12.4 15.1 12.5 15.1 12.5 15.1 12.5 15.1 12.5 15.1 12.6 15.1 12.7 15.1 12.7 15.1 12.8 15.1 12.8 15.1 12.9 15.1 12.9 15.1 13 15.1 13 15.1 13 15.2 13 15.2 13 15.2 13 15.2 12.9"/><path class="cls-16" d="M15.6,12.6h0Z"/><path class="cls-16" d="M15.9,12.9Z"/><path class="cls-6" d="M15.5,13h0Z"/><path class="cls-33" d="M15.1,8.2Zm0,.1Z"/><path class="cls-33" d="M15,8.3h0Z"/><path class="cls-33" d="M14.9,8.4h0Zm0-.1Z"/><path class="cls-33" d="M14.9,8.4h0Z"/><path class="cls-33" d="M15.1,8.5h0Z"/><path class="cls-33" d="M15.1,8.5h0Z"/><path class="cls-33" d="M15,8.6h0Z"/><path class="cls-33" d="M14.8,11h0v.4h0Z"/><path class="cls-6" d="M15,10.9Z"/><rect class="cls-6" x="15" y="10.7" width="0.1" height="0.02" transform="translate(1.5 23.2) rotate(-78.3)"/><path class="cls-6" d="M15,11.4Z"/><polygon class="cls-6" points="15 10.9 15 10.9 15 10.9 15 10.9"/><path class="cls-6" d="M15,11.2Z"/><path class="cls-6" d="M15,11h0v.2h0V11Z"/><path class="cls-6" d="M15,10.9Z"/><path class="cls-6" d="M15,10.9Z"/><polygon class="cls-6" points="14.9 10.8 14.9 10.8 14.9 10.8 14.9 10.8"/><path class="cls-6" d="M15,10.9h0Z"/><path class="cls-6" d="M14.9,11.4h0Z"/><path class="cls-6" d="M15,11.3h0c-.1,0,0,0,0-.1h0a.1.1,0,0,0-.1.1Z"/><path class="cls-6" d="M15,11.2Z"/><path class="cls-6" d="M15,11h0c-.1.1-.1.1,0,.1Z"/><polygon class="cls-6" points="15.1 11.3 15.2 11.3 15.1 11.2 15.1 11.3"/><rect class="cls-6" x="15.1" y="11.3" width="0.1" height="0.03"/><path class="cls-6" d="M15.2,11.3Z"/><polygon class="cls-6" points="15.3 11.2 15.3 11.3 15.3 11.3 15.3 11.2"/><rect class="cls-6" x="15.2" y="11.3" width="0.1" height="0.03"/><path class="cls-6" d="M15.3,11.3Z"/><path class="cls-33" d="M14.7,11.4h0Z"/><path class="cls-15" d="M15.2,11.4h-.9l.3.2h.9l.2-.2h-.5Z"/><polygon class="cls-6" points="15.1 10.8 15.1 10.7 15 10.7 15 10.7 14.9 10.7 14.9 10.8 15 10.8 15 10.8 15.1 10.8"/><path class="cls-15" d="M15.7,11.2h0Zm.1,0Z"/><polygon class="cls-2" points="15.7 11.2 15.7 11.2 15.7 11.2 15.7 11.2 15.8 11.2 15.8 11.2 15.7 11.2"/><polygon class="cls-12" points="15.7 11.2 15.7 11.2 15.8 11.2 15.8 11.2 15.8 11.2 15.7 11.2 15.7 11.2"/><polygon class="cls-16" points="14.9 12.9 14.9 12.9 14.9 12.8 14.9 12.8 14.9 12.7 14.9 12.7 14.9 12.6 14.9 12.5 14.9 12.5 14.9 12.5 14.9 12.5 14.9 12.4 14.9 12.4 14.8 12.4 14.8 12.4 14.8 12.5 14.8 12.5 14.8 12.5 14.8 12.5 14.8 12.6 14.8 12.7 14.8 12.7 14.8 12.8 14.8 12.8 14.8 12.9 14.8 12.9 14.8 13 14.8 13 14.8 13 14.8 13 14.9 13 14.9 13 14.9 13 14.9 12.9"/><path class="cls-16" d="M11.7,7h0a.2.2,0,0,0,0-.3c-.1-.2-.1-.2-.1,0s0,.2-.1,0a.5.5,0,0,0-.4-.3h-.2c-.1,0,0,.1.1.2s.1.2.3.3.3.1,0,.1-.1.1,0,.1.2,0,.3,0Z"/><path class="cls-16" d="M18.4,7.1c.1.1.2.1.2,0s.3-.1.1-.1-.2,0,0-.1l.3-.3V6.4h-.2c-.1.1-.3.1-.4.3s-.1.3-.1,0,0-.1-.1,0a.2.2,0,0,0,0,.3h.1Z"/></g></svg>