<svg xmlns="http://www.w3.org/2000/svg" viewBox="0 0 30 20"><defs><style>.cls-1{fill:#fafafa;}.cls-2{fill:#87c7e2;}.cls-3{fill:#119a48;}.cls-4{fill:#010101;}.cls-5{fill:#fecf0a;}.cls-6{fill:#cdcccc;}.cls-7{fill:#653614;}.cls-8{fill:#191919;}.cls-9{fill:#d31f36;}.cls-10{fill:#ffe500;}.cls-11{fill:#f2f2c0;}.cls-12{fill:#fcf9ce;}</style></defs><title>gt</title><g id="Layer_29" data-name="Layer 29"><rect class="cls-1" x="10" width="10.1" height="20"/><path class="cls-2" d="M2.6,0A2.5,2.5,0,0,0,0,2.5v15A2.5,2.5,0,0,0,2.6,20H10V0Z"/><path class="cls-2" d="M27.4,0H20V20h7.4A2.5,2.5,0,0,0,30,17.5V2.5A2.5,2.5,0,0,0,27.4,0Z"/><path class="cls-3" d="M15.3,6.6a.1.1,0,0,0-.1.1h.1Z"/><path class="cls-4" d="M15.2,6.7h0a.1.1,0,0,1,.1-.1h0a.1.1,0,0,1-.1.1Z"/><path class="cls-3" d="M15.2,6.6h0Z"/><path class="cls-4" d="M15.2,6.7Z"/><path class="cls-3" d="M15.2,6.6h0Z"/><path class="cls-4" d="M15.1,6.7h.1a.1.1,0,0,1-.1.1Z"/><path class="cls-3" d="M15.2,6.6h0Z"/><path class="cls-4" d="M15.1,6.7Z"/><path class="cls-3" d="M15.2,6.6a.1.1,0,0,0-.1.1h.1Z"/><path class="cls-4" d="M15.1,6.7h0a.1.1,0,0,1,.1-.1h0a.1.1,0,0,1-.1.1Zm.1-.1a.1.1,0,0,0-.1.1Z"/><path class="cls-3" d="M14.9,6.6H15c0-.1,0-.1-.1-.1Z"/><path class="cls-4" d="M15,6.7h-.1c.1,0,.1,0,.1.1Z"/><path class="cls-3" d="M14.9,6.6a.1.1,0,0,0,.1.1h-.1Z"/><path class="cls-4" d="M15,6.7h-.1a.1.1,0,0,1,.1.1Z"/><path class="cls-3" d="M15,6.6Z"/><path class="cls-4" d="M15,6.7h0V6.5h0Z"/><path class="cls-3" d="M15,6.6Z"/><path class="cls-4" d="M15,6.7h0c0-.1-.1-.1,0-.1h0Z"/><path class="cls-3" d="M15,6.5h0c.1,0,.1,0,0-.1Z"/><path class="cls-4" d="M15,6.6h0c.1,0,.1.1,0,.1Z"/><path class="cls-3" d="M15,6.6h0Z"/><path class="cls-4" d="M15,6.7h0s-.1-.1,0-.1h0Z"/><path class="cls-3" d="M15.1,6.5h0Z"/><path class="cls-4" d="M15.1,6.7h0V6.5h.1Z"/><path class="cls-3" d="M15.1,6.6h0Z"/><path class="cls-4" d="M15.1,6.7h0V6.5h0v.2Z"/><path class="cls-3" d="M15.1,6.5h0Z"/><path class="cls-4" d="M15.1,6.7h0s-.1,0,0-.1h0Z"/><path class="cls-3" d="M15.1,6.5h0Z"/><path class="cls-4" d="M15.1,6.7h0c.1.1,0,.1,0,.2Z"/><path class="cls-3" d="M15,6.6h0Z"/><path class="cls-4" d="M15,6.7h0s-.1,0,0-.1h0Z"/><path class="cls-3" d="M15.3,12.8a.1.1,0,0,0-.1-.1l-.9-.3h-.2l-.5-.2h-.1l-.2-.2a3.4,3.4,0,0,1-.8-.9,5,5,0,0,1-.4-1.3c.1-.3,0-.6.1-.9a5,5,0,0,1,.5-1.3h0a2.9,2.9,0,0,0-.5,1.3,2.8,2.8,0,0,0-.1.9,3.7,3.7,0,0,0,.4,1.4l.7.8.3.2h.1l.5.2h.2l.8.2a.1.1,0,0,1,.1.1Z"/><path class="cls-4" d="M15.2,12.8h-.1l-.8-.2H13.2v-.2c-.2-.2-.5-.4-.6-.7v-.2a2.7,2.7,0,0,1-.3-1.2V8.8a3.8,3.8,0,0,1,.6-1.3h0a6.9,6.9,0,0,0-.5,1.3v.9a1.8,1.8,0,0,0,.3,1.2h.1a1.6,1.6,0,0,0,.6.8h1.2l.8.3a.1.1,0,0,1,.1.1h-.1Zm-.4-.3.3.2c.1,0,.1,0,.1.1h0ZM12.2,8.9a.7.7,0,0,0-.1.5v.3a5.3,5.3,0,0,0,.3,1.2v.2c.1.3.4.5.6.7h.1a2.3,2.3,0,0,1-.7-.7v-.2a2.8,2.8,0,0,1-.4-1.2V9.3A.6.6,0,0,1,12.2,8.9Z"/><path class="cls-3" d="M14.3,12.4l-.9.5C14,12.9,14.4,12.6,14.3,12.4Z"/><path class="cls-3" d="M13.9,12.3a1.6,1.6,0,0,0-.8.5C13.7,12.8,14,12.5,13.9,12.3Z"/><path class="cls-3" d="M14.4,12.5c0-.3-.4-.9-.4-1S14.2,12.5,14.4,12.5Z"/><path class="cls-3" d="M14.2,12.3a1.8,1.8,0,0,0-.6-.8C13.7,12.1,14,12.4,14.2,12.3Z"/><path class="cls-3" d="M13.7,12.1a2.4,2.4,0,0,0-.3-.9C13.3,11.8,13.5,12.2,13.7,12.1Z"/><path class="cls-3" d="M13.5,12.1h-1C13.1,12.4,13.5,12.3,13.5,12.1Z"/><path class="cls-3" d="M13.2,12a1.9,1.9,0,0,0-.9-.3C12.7,12.1,13.2,12.1,13.2,12Z"/><path class="cls-3" d="M13.3,11.9a2.8,2.8,0,0,0-.1-1C13,11.5,13.1,11.9,13.3,11.9Z"/><path class="cls-3" d="M13,11.7a1.3,1.3,0,0,0-.1-.9C12.8,11.3,12.9,11.7,13,11.7Z"/><path class="cls-3" d="M13,11.7l-.8-.6C12.4,11.7,12.9,11.9,13,11.7Z"/><path class="cls-3" d="M12.8,11.4a1.4,1.4,0,0,0,0-.9Q12.5,11.3,12.8,11.4Z"/><path class="cls-3" d="M12.6,11a1.4,1.4,0,0,0,0-.9C12.3,10.6,12.4,11,12.6,11Z"/><path class="cls-3" d="M12.5,11.1a1.6,1.6,0,0,0-.8-.3C12.1,11.2,12.5,11.2,12.5,11.1Z"/><path class="cls-3" d="M12.4,10.7a4.1,4.1,0,0,0,.1-1C12.2,10.2,12.2,10.6,12.4,10.7Z"/><path class="cls-3" d="M12.2,9.9a1.3,1.3,0,0,0,.4-.7C12.2,9.5,12.1,9.9,12.2,9.9Z"/><path class="cls-3" d="M12.2,10.1l-.7-.5C11.7,10.1,12.1,10.3,12.2,10.1Z"/><path class="cls-3" d="M12.1,9.7c0-.2-.3-.7-.4-.7S12,9.8,12.1,9.7Z"/><path class="cls-3" d="M12.2,9.1l.6-.4C12.3,8.7,12.1,8.9,12.2,9.1Z"/><path class="cls-3" d="M12.2,8.6c.1-.3-.1-.8-.2-.8S12.1,8.6,12.2,8.6Z"/><path class="cls-3" d="M12.2,8.8a1.4,1.4,0,0,0,.7-.6C12.4,8.3,12.1,8.7,12.2,8.8Z"/><path class="cls-3" d="M12.3,8.5a1.9,1.9,0,0,0,.6-.7C12.4,8,12.1,8.4,12.3,8.5Z"/><path class="cls-3" d="M12.4,8a2.1,2.1,0,0,0,0-.8C12.1,7.6,12.2,8,12.4,8Z"/><path class="cls-3" d="M12.6,7.7V7C12.4,7.4,12.4,7.7,12.6,7.7Z"/><path class="cls-3" d="M12.6,7.9a1.4,1.4,0,0,0,.7-.6C12.8,7.4,12.5,7.8,12.6,7.9Z"/><path class="cls-3" d="M12.7,7.6A1.5,1.5,0,0,0,13,7C12.7,7.2,12.6,7.5,12.7,7.6Z"/><path class="cls-3" d="M13.7,12.2a1.9,1.9,0,0,0-.9.5C13.4,12.7,13.8,12.4,13.7,12.2Z"/><path class="cls-3" d="M12.1,9.6a1.4,1.4,0,0,0,.3-.6C12,9.3,12,9.6,12.1,9.6Z"/><path class="cls-3" d="M12.4,10.8c-.1-.3-.7-.6-.8-.6S12.3,11,12.4,10.8Z"/><path class="cls-3" d="M12.2,9c-.1-.3-.4-.7-.5-.7S12,9.1,12.2,9Z"/><path class="cls-3" d="M13.7,12.1c-.2.1-.4-.3-.3-.9S13.6,12.1,13.7,12.1Z"/><path class="cls-4" d="M13.6,12.2h-.1a1.3,1.3,0,0,1-.1-.9h0q.2.9.3.9h-.1Zm-.2-.9a1.7,1.7,0,0,0,.1.8h.1Z"/><path class="cls-3" d="M14.3,12.4c0,.2-.3.5-.9.5Z"/><path class="cls-4" d="M13.4,12.9h0c.5-.2.8-.4.8-.5h.1v.2C14.2,12.8,13.8,12.9,13.4,12.9Zm.8-.4-.7.4a.9.9,0,0,0,.7-.3S14.3,12.5,14.2,12.5Z"/><path class="cls-3" d="M13.9,12.3c.1.2-.2.5-.9.5Z"/><path class="cls-4" d="M13.1,12.8H13l.9-.4h0A.9.9,0,0,1,13.1,12.8Zm.8-.5-.7.4a.8.8,0,0,0,.7-.3Z"/><path class="cls-3" d="M14.4,12.5c-.2,0-.4-.3-.4-1A6.4,6.4,0,0,0,14.4,12.5Z"/><path class="cls-4" d="M14.4,12.5h-.2a1.3,1.3,0,0,1-.3-.9H14a4.1,4.1,0,0,0,.4.9h0Zm-.4-.8a1.2,1.2,0,0,0,.2.7h.2A2.1,2.1,0,0,1,14,11.7Z"/><path class="cls-3" d="M14.2,12.3c-.2.1-.5-.2-.6-.8S14.1,12.3,14.2,12.3Z"/><path class="cls-4" d="M14.1,12.4c-.2,0-.4-.3-.5-.9h.1c.2.5.4.8.5.8h-.1Zm-.4-.8c0,.5.3.7.4.7h0A2.1,2.1,0,0,1,13.7,11.6Z"/><path class="cls-3" d="M13.5,12.1c0,.2-.4.3-1,0Z"/><path class="cls-4" d="M13.1,12.3h0Zm-.5-.1h0Z"/><path class="cls-3" d="M13.2,12c0,.1-.5.1-.9-.3Z"/><path class="cls-4" d="M13,12.1a.9.9,0,0,1-.7-.4h0a2,2,0,0,0,.9.2H13Zm-.6-.3.6.3h.2Z"/><path class="cls-3" d="M13.3,11.9c-.2,0-.3-.4-.1-1A7.7,7.7,0,0,0,13.3,11.9Z"/><path class="cls-4" d="M13.3,11.9h-.1a.9.9,0,0,1,0-.9h0a3.1,3.1,0,0,0,.1.9Zm-.1-.9c-.1.4-.1.7,0,.8h.1C13.2,11.7,13.2,11.4,13.2,11Z"/><path class="cls-3" d="M13,11.7c-.1,0-.2-.4-.1-.9A4.4,4.4,0,0,1,13,11.7Z"/><path class="cls-4" d="M13,11.7h-.1c-.1-.1-.1-.4,0-.8H13c0,.5,0,.8.1.8H13Zm-.1-.8a.8.8,0,0,0,.1.7h0A5.6,5.6,0,0,1,12.9,10.9Z"/><path class="cls-3" d="M13,11.7c-.1.2-.6,0-.8-.6A2.1,2.1,0,0,0,13,11.7Z"/><path class="cls-4" d="M12.9,11.8c-.2,0-.5-.3-.7-.7h0a2.1,2.1,0,0,0,.8.6h0A.1.1,0,0,1,12.9,11.8Zm-.6-.6c.2.4.4.5.6.5h0Z"/><path class="cls-3" d="M12.8,11.3c-.2,0-.2-.3,0-.8Z"/><path class="cls-4" d="M12.8,11.4h-.1a.8.8,0,0,1,.1-.8h0v.8Zm0-.8c-.1.3-.2.6-.1.7h.1C12.7,11.2,12.8,10.9,12.8,10.6Z"/><path class="cls-3" d="M12.6,11c-.2,0-.3-.4,0-.9S12.5,11,12.6,11Z"/><path class="cls-4" d="M12.6,11h-.1c-.1-.1-.1-.4.1-.8h0V11Zm0-.8c-.2.3-.2.6-.1.7h0A2.8,2.8,0,0,1,12.6,10.2Z"/><path class="cls-3" d="M12.5,11.1c0,.1-.4.1-.8-.3Z"/><path class="cls-4" d="M12.4,11.2c-.2,0-.4-.1-.7-.4h0l.8.3h-.1Zm-.6-.3.6.3h.1Z"/><path class="cls-3" d="M12.4,10.7c-.2-.1-.2-.5.1-1A5.1,5.1,0,0,0,12.4,10.7Z"/><path class="cls-4" d="M12.4,10.7h-.1c-.1-.2,0-.5.2-.9h0a6.2,6.2,0,0,0-.1.9Zm.1-.9a.9.9,0,0,0-.2.8h.1C12.3,10.5,12.4,10.2,12.5,9.8Z"/><path class="cls-3" d="M12.2,9.9c-.1,0,0-.4.4-.7A2.8,2.8,0,0,0,12.2,9.9Z"/><path class="cls-4" d="M12.2,10h0V9.8a1.2,1.2,0,0,1,.5-.6h0a2.8,2.8,0,0,0-.4.7Zm.3-.7c-.2.2-.4.4-.3.5h0Z"/><path class="cls-3" d="M12.1,10.1c0,.2-.4,0-.6-.5Z"/><path class="cls-4" d="M12.1,10.2q-.3,0-.6-.6h0l.6.5h0Zm-.5-.5a.8.8,0,0,0,.5.5h0Z"/><path class="cls-3" d="M12.1,9.7c-.1.1-.4-.2-.4-.7Z"/><path class="cls-4" d="M12.1,9.7c-.2,0-.4-.2-.4-.7h0l.4.7h0Zm-.4-.6c.1.4.2.6.4.6h0Z"/><path class="cls-3" d="M12.2,9.1c-.1-.2.1-.4.6-.4Z"/><path class="cls-4" d="M12.2,9.1h-.1V8.9l.7-.3h-.1c-.4.2-.5.3-.5.4Zm.5-.4c-.3,0-.5.1-.5.3h0l.5-.3Z"/><path class="cls-3" d="M12.2,8.6c-.1,0-.3-.3-.2-.8Z"/><path class="cls-4" d="M12.2,8.6h-.1a.8.8,0,0,1-.1-.7h0l.2.8h0ZM12,7.9c0,.3,0,.5.1.6h.1C12.1,8.5,12.1,8.2,12,7.9Z"/><path class="cls-3" d="M12.2,8.8c-.1-.1.2-.5.7-.6S12.2,8.7,12.2,8.8Z"/><path class="cls-4" d="M12.2,8.8h0a1,1,0,0,1,.7-.5h0l-.7.5Zm.6-.5a.9.9,0,0,0-.6.4h0Z"/><path class="cls-3" d="M12.3,8.5c-.2-.1.1-.5.6-.7Z"/><path class="cls-4" d="M12.3,8.5h-.1a1.4,1.4,0,0,1,.7-.6h0a2.8,2.8,0,0,0-.6.6Zm.5-.6c-.3.1-.5.3-.5.5s-.1,0,0,.1Z"/><path class="cls-3" d="M12.4,8c-.2,0-.3-.4,0-.8S12.3,8,12.4,8Z"/><path class="cls-4" d="M12.4,8h-.1a.8.8,0,0,1,.1-.8h0c0,.5-.1.8,0,.8Zm0-.7a.6.6,0,0,0-.1.7h0A2.3,2.3,0,0,1,12.4,7.3Z"/><path class="cls-3" d="M12.6,7.7c-.2,0-.2-.3,0-.7S12.5,7.7,12.6,7.7Z"/><path class="cls-4" d="M12.6,7.7h-.1c-.1-.1-.1-.4.1-.7h0v.7Zm0-.6c-.1.3-.2.5-.1.5h0A1.8,1.8,0,0,1,12.6,7.1Z"/><path class="cls-3" d="M12.6,7.9c-.1-.1.2-.5.7-.6S12.6,7.8,12.6,7.9Z"/><path class="cls-4" d="M12.6,7.9h0c0-.2.3-.4.7-.5h0l-.7.6Zm.6-.6a1,1,0,0,0-.6.5h0Z"/><path class="cls-3" d="M12.7,7.6c-.1-.1,0-.4.3-.6Z"/><path class="cls-4" d="M12.7,7.6h0A.7.7,0,0,1,13,7h0l-.3.6ZM13,7a.9.9,0,0,0-.3.5h0A.9.9,0,0,1,13,7Z"/><path class="cls-3" d="M13.7,12.2c.1.2-.3.5-.9.5S13.7,12.3,13.7,12.2Z"/><path class="cls-4" d="M12.8,12.7h0c.5-.3.9-.4.9-.5h0v.2A1.3,1.3,0,0,1,12.8,12.7Zm.9-.4-.8.3c.4,0,.7-.1.8-.3Z"/><path class="cls-3" d="M12.1,9.6c-.1,0-.1-.3.3-.6Z"/><path class="cls-4" d="M12.2,9.6H12c0-.1.1-.3.4-.5h0l-.3.6Zm.1-.6a.6.6,0,0,0-.2.5h0A2.1,2.1,0,0,1,12.3,9Z"/><path class="cls-3" d="M12.4,10.8c-.1.2-.5,0-.8-.6Z"/><path class="cls-4" d="M12.3,10.9c-.2,0-.5-.3-.7-.7h0l.8.6h-.1Zm-.6-.6c.2.3.4.5.6.5h.1C12.2,10.8,12,10.5,11.7,10.3Z"/><path class="cls-3" d="M12.2,9.1c-.2.1-.4-.3-.5-.8Z"/><path class="cls-4" d="M12.1,9.1c-.2,0-.4-.4-.4-.8h0c.3.4.4.7.5.7h-.1Zm-.3-.7c0,.4.2.7.3.7Z"/><path class="cls-4" d="M12.1,9.6H12c0-.1.1-.3.4-.6h0s-.1.5-.3.6Zm.3-.6a.5.5,0,0,0-.3.5h0C12.3,9.4,12.3,9.1,12.4,9Z"/><path class="cls-4" d="M13.4,12.9h-.1a1.9,1.9,0,0,1,1-.5h0v.2Q14.2,12.9,13.4,12.9Zm.8-.4-.8.4a1.2,1.2,0,0,0,.8-.3C14.2,12.5,14.3,12.5,14.2,12.5Z"/><path class="cls-4" d="M13.1,12.8H13c.1,0,.6-.4.9-.4H14A1.1,1.1,0,0,1,13.1,12.8Zm.8-.5-.8.4c.4,0,.7-.1.8-.3Z"/><path class="cls-4" d="M14.4,12.5h-.2a1.3,1.3,0,0,1-.3-.9H14c0,.1.4.6.4.9Zm-.4-.9a1.3,1.3,0,0,0,.2.8h.2A2,2,0,0,0,14,11.6Z"/><path class="cls-4" d="M14.1,12.4h0c-.2,0-.4-.3-.5-.9h.1c0,.1.5.6.5.9h-.1Zm-.4-.9a.8.8,0,0,0,.4.8h0C14.1,12.1,13.8,11.7,13.7,11.5Z"/><path class="cls-4" d="M13.6,12.2h-.1a1.2,1.2,0,0,1-.1-.9h0a1.9,1.9,0,0,1,.3.9h-.1Zm-.2-.9a1.5,1.5,0,0,0,.2.8h.1A2.6,2.6,0,0,0,13.4,11.3Z"/><path class="cls-4" d="M13.1,12.3Zm-.5-.2a.6.6,0,0,0,.5.2h-.5Z"/><path class="cls-4" d="M13,12.1h0a.9.9,0,0,1-.7-.4h0l1,.2H13Zm-.7-.4a1.3,1.3,0,0,0,.7.4h.2C13,11.8,12.5,11.8,12.3,11.7Z"/><path class="cls-4" d="M13.3,11.9h-.1a.9.9,0,0,1,0-.9h0a1.6,1.6,0,0,1,.1,1Zm-.1-.9c-.1.4-.1.7,0,.8h.1C13.3,11.6,13.2,11.2,13.2,11Z"/><path class="cls-4" d="M13,11.7h-.1c-.1-.1-.1-.4,0-.8H13c0,.1.1.6.1.9H13Zm0-.8a.8.8,0,0,0,0,.7h0A1.6,1.6,0,0,0,13,10.9Z"/><path class="cls-4" d="M12.9,11.8h0c-.2,0-.5-.2-.7-.7h0c.1,0,.7.3.8.6h0A.1.1,0,0,1,12.9,11.8Zm-.7-.7c.2.5.5.6.7.6h0A2,2,0,0,0,12.2,11.1Z"/><path class="cls-4" d="M12.8,11.4h-.1a.8.8,0,0,1,.1-.8h.1a3.4,3.4,0,0,1-.1.9Zm0-.8a2.3,2.3,0,0,0-.1.7h.1A1.6,1.6,0,0,0,12.8,10.6Z"/><path class="cls-4" d="M12.6,11h-.1a1,1,0,0,1,.1-.9h0c.1,0,.1.7,0,.9Zm0-.8c-.2.3-.2.6-.1.7h.1A2.1,2.1,0,0,0,12.6,10.2Z"/><path class="cls-4" d="M12.4,11.2h0c-.2,0-.4-.1-.7-.4h.1c.1,0,.6.1.7.3h-.1Zm-.6-.3a.7.7,0,0,0,.6.2h.1Z"/><path class="cls-4" d="M12.4,10.7h-.1c-.1-.2,0-.5.2-.9h0a1.2,1.2,0,0,1-.1,1Zm.1-.9a1.3,1.3,0,0,0-.2.8h.1A2.2,2.2,0,0,0,12.5,9.8Z"/><path class="cls-4" d="M12.2,10h0V9.8a1.2,1.2,0,0,1,.5-.6h0a2,2,0,0,1-.4.8Zm.3-.7a.9.9,0,0,0-.3.5h0C12.4,9.8,12.5,9.4,12.5,9.3Z"/><path class="cls-4" d="M12.1,10.2q-.3,0-.6-.6h0a1.5,1.5,0,0,1,.7.5h-.1Zm-.5-.5a.6.6,0,0,0,.5.4h0Z"/><path class="cls-4" d="M12.1,9.8h0c-.2,0-.4-.3-.4-.8h0c.1,0,.4.5.4.7h0Zm-.4-.7c.1.4.3.6.4.6h0C12.1,9.5,11.8,9.2,11.7,9.1Z"/><path class="cls-4" d="M12.1,9.1h0V8.9l.7-.3h0l-.6.4Zm.6-.4c-.3,0-.5.2-.5.3h0Z"/><path class="cls-4" d="M12.2,8.6h-.1a.8.8,0,0,1-.1-.7h0c.1,0,.3.5.3.8h-.1ZM12,7.8c0,.4,0,.6.1.7h.1A1.9,1.9,0,0,0,12,7.8Z"/><path class="cls-4" d="M12.2,8.8h0a1,1,0,0,1,.7-.5H13c-.1,0-.5.5-.8.5Zm.7-.5c-.4.1-.6.2-.7.4h0A2.1,2.1,0,0,0,12.9,8.3Z"/><path class="cls-4" d="M12.3,8.5h-.1a1.4,1.4,0,0,1,.7-.6h0a1.9,1.9,0,0,1-.6.7Zm.5-.6c-.3.1-.5.3-.5.5h0C12.5,8.4,12.7,8,12.8,7.9Z"/><path class="cls-4" d="M12.4,8.1h-.1a.8.8,0,0,1,.1-.8h0c.1,0,.1.6,0,.8Zm0-.8a.6.6,0,0,0-.1.7h0A2,2,0,0,0,12.4,7.3Z"/><path class="cls-4" d="M12.6,7.7h-.1c-.1-.1-.1-.4.1-.7h0a1.6,1.6,0,0,1,0,.7Zm0-.6a1.3,1.3,0,0,0-.1.5c0,.1,0,.1.1.1Z"/><path class="cls-4" d="M12.6,7.9h0c0-.2.3-.4.7-.5h0a1.4,1.4,0,0,1-.7.6Zm.6-.6a1,1,0,0,0-.6.5h0A1.2,1.2,0,0,0,13.2,7.3Z"/><path class="cls-4" d="M12.7,7.6h0c-.1-.1.1-.4.3-.6h.1a2.9,2.9,0,0,1-.4.6ZM13,7a.9.9,0,0,0-.3.5h0Z"/><path class="cls-4" d="M12.8,12.7h0a1.5,1.5,0,0,1,.9-.5h0c.1,0,0,.1,0,.2A1.3,1.3,0,0,1,12.8,12.7Zm.9-.5-.8.4c.4,0,.7-.1.8-.3Z"/><path class="cls-4" d="M12.3,10.9h0c-.2,0-.5-.3-.7-.7h0c.1,0,.7.3.8.6h-.1Zm-.6-.7a1.1,1.1,0,0,0,.6.6h.1Z"/><path class="cls-4" d="M12.1,9.1h0a.8.8,0,0,1-.4-.8h0c.2,0,.4.4.5.7h-.1Zm-.3-.8c0,.5.2.7.3.7h0A1.5,1.5,0,0,0,11.8,8.3Z"/><path class="cls-3" d="M14.7,12.8a.1.1,0,0,1,.1-.1l.9-.3h.2l.5-.2h.1l.2-.2a3.4,3.4,0,0,0,.8-.9,5,5,0,0,0,.4-1.3c-.1-.3,0-.6-.1-.9a5,5,0,0,0-.5-1.3h0a5.2,5.2,0,0,1,.6,1.3v.9a3.7,3.7,0,0,1-.4,1.4l-.7.8-.3.2h-.1l-.5.2h-.2l-.8.2a.1.1,0,0,0-.1.1Z"/><path class="cls-4" d="M14.8,12.8h-.1a.1.1,0,0,1,.1-.1l.8-.3h1.2a1.6,1.6,0,0,0,.6-.8h.1a1.8,1.8,0,0,0,.3-1.2V8.8a6.9,6.9,0,0,0-.5-1.3h0a3.8,3.8,0,0,1,.6,1.3v.9a1.8,1.8,0,0,1-.3,1.2v.2c-.1.3-.4.5-.6.7V12H15.7l-.8.2Zm-.1,0h.1c0-.1,0-.1.1-.1h-.2Zm3.1-3.9a.6.6,0,0,1,.1.4v.4a2.8,2.8,0,0,1-.4,1.2v.2l-.6.7h0c.2-.2.5-.4.6-.7v-.2a5.3,5.3,0,0,0,.3-1.2V9.4A.7.7,0,0,0,17.8,8.9Z"/><path class="cls-3" d="M15.7,12.4l.9.5C16,12.9,15.6,12.6,15.7,12.4Z"/><path class="cls-3" d="M16.1,12.3a1.6,1.6,0,0,1,.8.5C16.3,12.8,16,12.5,16.1,12.3Z"/><path class="cls-3" d="M15.6,12.5c0-.3.4-.9.4-1S15.8,12.5,15.6,12.5Z"/><path class="cls-3" d="M15.8,12.3a1.8,1.8,0,0,1,.6-.8C16.3,12.1,16,12.4,15.8,12.3Z"/><path class="cls-3" d="M16.3,12.1a2.4,2.4,0,0,1,.3-.9C16.7,11.8,16.5,12.2,16.3,12.1Z"/><path class="cls-3" d="M16.5,12.1h1C16.9,12.4,16.5,12.3,16.5,12.1Z"/><path class="cls-3" d="M16.8,12a1.9,1.9,0,0,1,.9-.3C17.3,12.1,16.8,12.1,16.8,12Z"/><path class="cls-3" d="M16.7,11.9a2.8,2.8,0,0,1,.1-1C17,11.5,16.9,11.9,16.7,11.9Z"/><path class="cls-3" d="M17,11.7a1.3,1.3,0,0,1,.1-.9C17.2,11.3,17.1,11.7,17,11.7Z"/><path class="cls-3" d="M17,11.7l.8-.6C17.6,11.7,17.1,11.9,17,11.7Z"/><path class="cls-3" d="M17.2,11.4a1.4,1.4,0,0,1,0-.9Q17.5,11.3,17.2,11.4Z"/><path class="cls-3" d="M17.4,11a1.4,1.4,0,0,1,0-.9C17.7,10.6,17.6,11,17.4,11Z"/><path class="cls-3" d="M17.5,11.1a1.6,1.6,0,0,1,.8-.3C17.9,11.2,17.5,11.2,17.5,11.1Z"/><path class="cls-3" d="M17.6,10.7a4.1,4.1,0,0,1-.1-1C17.8,10.2,17.8,10.6,17.6,10.7Z"/><path class="cls-3" d="M17.8,9.9a1.3,1.3,0,0,1-.4-.7C17.8,9.5,17.9,9.9,17.8,9.9Z"/><path class="cls-3" d="M17.8,10.1l.7-.5C18.3,10.1,17.9,10.3,17.8,10.1Z"/><path class="cls-3" d="M17.9,9.7c0-.2.3-.7.4-.7S18,9.8,17.9,9.7Z"/><path class="cls-3" d="M17.8,9.1l-.6-.4C17.7,8.7,17.9,8.9,17.8,9.1Z"/><path class="cls-3" d="M17.8,8.6c-.1-.3.1-.8.2-.8S17.9,8.6,17.8,8.6Z"/><path class="cls-3" d="M17.8,8.8a1.4,1.4,0,0,1-.7-.6C17.6,8.3,17.9,8.7,17.8,8.8Z"/><path class="cls-3" d="M17.7,8.5a1.9,1.9,0,0,1-.6-.7C17.6,8,17.9,8.4,17.7,8.5Z"/><path class="cls-3" d="M17.6,8a2.1,2.1,0,0,1,0-.8C17.9,7.6,17.8,8,17.6,8Z"/><path class="cls-3" d="M17.4,7.7V7C17.6,7.4,17.6,7.7,17.4,7.7Z"/><path class="cls-3" d="M17.4,7.9a1.4,1.4,0,0,1-.7-.6C17.2,7.4,17.5,7.8,17.4,7.9Z"/><path class="cls-3" d="M17.3,7.6A1.5,1.5,0,0,1,17,7C17.3,7.2,17.4,7.5,17.3,7.6Z"/><path class="cls-3" d="M16.3,12.2a1.9,1.9,0,0,1,.9.5C16.6,12.7,16.2,12.4,16.3,12.2Z"/><path class="cls-3" d="M17.9,9.6a1.4,1.4,0,0,1-.3-.6C18,9.3,18,9.6,17.9,9.6Z"/><path class="cls-3" d="M17.6,10.8c.1-.3.7-.6.8-.6S17.7,11,17.6,10.8Z"/><path class="cls-3" d="M17.8,9c.1-.3.4-.7.5-.7S18,9.1,17.8,9Z"/><path class="cls-3" d="M16.3,12.1c.2.1.4-.3.3-.9S16.4,12.1,16.3,12.1Z"/><path class="cls-4" d="M16.4,12.2h-.1q.1,0,.3-.9h0a1.3,1.3,0,0,1-.1.9Zm0-.1h.1a1.7,1.7,0,0,0,.1-.8Z"/><path class="cls-3" d="M15.7,12.4c0,.2.3.5.9.5Z"/><path class="cls-4" d="M16.6,12.9c-.4,0-.8-.1-.9-.3v-.2h.1c0,.1.3.3.8.5Zm-.8-.4c-.1,0,0,.1,0,.1a.9.9,0,0,0,.7.3Z"/><path class="cls-3" d="M16.1,12.3c-.1.2.2.5.9.5Z"/><path class="cls-4" d="M16.9,12.8a.9.9,0,0,1-.8-.4h0l.9.4h-.1Zm-.8-.5h0a.8.8,0,0,0,.7.3Z"/><path class="cls-3" d="M15.6,12.5c.2,0,.4-.3.4-1A6.4,6.4,0,0,1,15.6,12.5Z"/><path class="cls-4" d="M15.6,12.5h0a4.1,4.1,0,0,0,.4-.9h.1a1.3,1.3,0,0,1-.3.9Zm0-.1h.2a1.2,1.2,0,0,0,.2-.7A2.1,2.1,0,0,1,15.6,12.4Z"/><path class="cls-3" d="M15.8,12.3c.2.1.5-.2.6-.8S15.9,12.3,15.8,12.3Z"/><path class="cls-4" d="M15.9,12.4h-.1c.1,0,.3-.3.5-.8h.1C16.3,12.1,16.1,12.4,15.9,12.4Zm0-.1h0c.1,0,.4-.2.4-.7A2.1,2.1,0,0,1,15.9,12.3Z"/><path class="cls-3" d="M16.5,12.1c0,.2.4.3,1,0Z"/><path class="cls-4" d="M16.9,12.3h0Zm-.4-.2h0Z"/><path class="cls-3" d="M16.8,12c0,.1.5.1.9-.3Z"/><path class="cls-4" d="M17,12.1h-.2a2,2,0,0,0,.9-.2h0A.9.9,0,0,1,17,12.1Zm-.2-.1H17l.6-.3-.8.2Z"/><path class="cls-3" d="M16.7,11.9c.2,0,.3-.4.1-1A7.7,7.7,0,0,1,16.7,11.9Z"/><path class="cls-4" d="M16.7,11.9h0a3.1,3.1,0,0,0,.1-.9h0a.9.9,0,0,1,0,.9Zm.1-.9c0,.4,0,.7-.1.8h.1C16.9,11.7,16.9,11.4,16.8,11Z"/><path class="cls-3" d="M17,11.7c.1,0,.2-.4.1-.9A4.4,4.4,0,0,0,17,11.7Z"/><path class="cls-4" d="M17,11.7h-.1c.1,0,.1-.3.1-.8h.1c.1.4.1.7,0,.8Zm.1-.8a5.6,5.6,0,0,1-.1.7h.1A1.6,1.6,0,0,0,17.1,10.9Z"/><path class="cls-3" d="M17,11.7c.1.2.6,0,.8-.6Z"/><path class="cls-4" d="M17.1,11.8a.1.1,0,0,1-.1-.1h0l.8-.6h0C17.6,11.5,17.3,11.8,17.1,11.8Zm0-.1h0a.6.6,0,0,0,.6-.5Z"/><path class="cls-3" d="M17.2,11.3c.2,0,.2-.3,0-.8Z"/><path class="cls-4" d="M17.2,11.4h0v-.8h0a.8.8,0,0,1,.1.8Zm0-.8c0,.3.1.6,0,.7h.1C17.4,11.2,17.3,10.9,17.2,10.6Z"/><path class="cls-3" d="M17.4,11c.2,0,.3-.4,0-.9S17.5,11,17.4,11Z"/><path class="cls-4" d="M17.4,11h0v-.9h0c.2.4.2.7.1.8Zm0-.8a2.8,2.8,0,0,1,.1.8h0C17.6,10.8,17.6,10.5,17.4,10.2Z"/><path class="cls-3" d="M17.5,11.1c0,.1.4.1.8-.3Z"/><path class="cls-4" d="M17.6,11.2h-.1l.8-.3h0C18,11.1,17.8,11.2,17.6,11.2Zm-.1-.1h.1l.6-.3Z"/><path class="cls-3" d="M17.6,10.7c.2-.1.2-.5-.1-1A5.1,5.1,0,0,1,17.6,10.7Z"/><path class="cls-4" d="M17.6,10.7h0a6.2,6.2,0,0,0-.1-.9h0c.2.4.3.7.2.9Zm-.1-.9c.1.4.2.7.1.8h.1A.9.9,0,0,0,17.5,9.8Z"/><path class="cls-3" d="M17.8,9.9c.1,0,0-.4-.4-.7A2.8,2.8,0,0,1,17.8,9.9Z"/><path class="cls-4" d="M17.8,10h0a2.8,2.8,0,0,0-.4-.7h0a1.2,1.2,0,0,1,.5.6V10Zm-.3-.7.3.6h0C17.9,9.7,17.7,9.5,17.5,9.3Z"/><path class="cls-3" d="M17.9,10.1c0,.2.4,0,.6-.5Z"/><path class="cls-4" d="M17.9,10.2h0l.6-.5h0Q18.2,10.2,17.9,10.2Zm0-.1h0a.8.8,0,0,0,.5-.5Z"/><path class="cls-3" d="M17.9,9.7c.1.1.4-.2.4-.7Z"/><path class="cls-4" d="M17.9,9.7h0l.4-.7h0C18.3,9.5,18.1,9.7,17.9,9.7Zm0,0h0c.2,0,.3-.2.4-.6Z"/><path class="cls-3" d="M17.8,9.1c.1-.2-.1-.4-.6-.4Z"/><path class="cls-4" d="M17.8,9.1h0c0-.1-.1-.2-.5-.4h-.1l.7.3v.2Zm-.5-.4h0l.5.3h0C17.8,8.8,17.6,8.7,17.3,8.7Z"/><path class="cls-3" d="M17.8,8.6c.1,0,.3-.3.2-.8Z"/><path class="cls-4" d="M17.8,8.6h0l.2-.8h0a.8.8,0,0,1-.1.7Zm.2-.7c-.1.3-.1.6-.2.7h.1C18,8.4,18,8.2,18,7.9Z"/><path class="cls-3" d="M17.8,8.8c.1-.1-.2-.5-.7-.6S17.8,8.7,17.8,8.8Z"/><path class="cls-4" d="M17.8,8.8h0l-.7-.5h0a1,1,0,0,1,.7.5Zm-.6-.5.6.5h0A.9.9,0,0,0,17.2,8.3Z"/><path class="cls-3" d="M17.7,8.5c.2-.1-.1-.5-.6-.7Z"/><path class="cls-4" d="M17.7,8.5h0a2.8,2.8,0,0,0-.6-.6h0a1.4,1.4,0,0,1,.7.6Zm-.5-.6.5.6c.1-.1.1-.1,0-.1S17.5,8,17.2,7.9Z"/><path class="cls-3" d="M17.6,8c.2,0,.3-.4,0-.8S17.7,8,17.6,8Z"/><path class="cls-4" d="M17.6,8h0c.1,0,0-.3,0-.8h0a.8.8,0,0,1,.1.8Zm0-.7a2.3,2.3,0,0,1,.1.7h0A.6.6,0,0,0,17.6,7.3Z"/><path class="cls-3" d="M17.4,7.7c.2,0,.2-.3,0-.7S17.5,7.7,17.4,7.7Z"/><path class="cls-4" d="M17.4,7.7h0V7h0c.2.3.2.6.1.7Zm0-.6a1.8,1.8,0,0,1,.1.6h0C17.6,7.6,17.5,7.4,17.4,7.1Z"/><path class="cls-3" d="M17.4,7.9c.1-.1-.2-.5-.7-.6S17.4,7.8,17.4,7.9Z"/><path class="cls-4" d="M17.4,7.9h0l-.7-.6h0c.4.1.7.3.7.5Zm-.6-.6a3.3,3.3,0,0,1,.6.6h0A1,1,0,0,0,16.8,7.3Z"/><path class="cls-3" d="M17.3,7.6c.1-.1,0-.4-.3-.6Z"/><path class="cls-4" d="M17.3,7.6h0L17,7h0a.7.7,0,0,1,.3.5ZM17,7a.9.9,0,0,1,.3.5h0A.9.9,0,0,0,17,7Z"/><path class="cls-3" d="M16.3,12.2c-.1.2.3.5.9.5S16.3,12.3,16.3,12.2Z"/><path class="cls-4" d="M17.2,12.7a1.3,1.3,0,0,1-.9-.3v-.2h0c0,.1.4.2.9.5Zm-.9-.4h0c.1.2.4.3.8.3Z"/><path class="cls-3" d="M17.9,9.6c.1,0,.1-.3-.3-.6A2.8,2.8,0,0,1,17.9,9.6Z"/><path class="cls-4" d="M17.8,9.6h.1L17.6,9h0c.3.2.4.4.4.5h-.2ZM17.7,9a2.1,2.1,0,0,1,.2.6h0A.6.6,0,0,0,17.7,9Z"/><path class="cls-3" d="M17.6,10.8c.1.2.5,0,.8-.6Z"/><path class="cls-4" d="M17.7,10.9h-.1l.8-.6h0C18.2,10.6,17.9,10.9,17.7,10.9Zm-.1-.1h.1c.2,0,.4-.2.6-.5S17.8,10.8,17.6,10.8Z"/><path class="cls-3" d="M17.8,9.1c.2.1.4-.3.5-.8Z"/><path class="cls-4" d="M17.9,9.1h-.1c.1,0,.2-.3.5-.7h0C18.3,8.7,18.1,9.1,17.9,9.1Zm0,0h0c.1,0,.3-.3.3-.7A1.5,1.5,0,0,1,17.9,9.1Z"/><path class="cls-4" d="M17.9,9.6h0c-.2-.1-.3-.6-.3-.6h0c.3.3.4.5.4.6ZM17.6,9c.1.1.1.4.3.6h0A.5.5,0,0,0,17.6,9Z"/><path class="cls-4" d="M16.6,12.9q-.7,0-.9-.3v-.2h0a1.9,1.9,0,0,1,1,.5h-.1Zm-.8-.4c-.1,0,0,0,0,.1a1.2,1.2,0,0,0,.8.3Z"/><path class="cls-4" d="M16.9,12.8a1.1,1.1,0,0,1-.9-.4h.1c.3,0,.8.4.9.4h-.1Zm-.8-.5h0c.1.2.4.3.8.3Z"/><path class="cls-4" d="M15.6,12.5h0a2.6,2.6,0,0,1,.4-.9h.1a1.3,1.3,0,0,1-.3.9Zm0-.1h.2a1.3,1.3,0,0,0,.2-.8A2,2,0,0,0,15.6,12.4Z"/><path class="cls-4" d="M15.9,12.4h-.1c0-.3.5-.8.5-.9h.1C16.3,12.1,16.1,12.4,15.9,12.4Zm0-.1h0a.8.8,0,0,0,.4-.8C16.2,11.7,15.9,12.1,15.9,12.3Z"/><path class="cls-4" d="M16.4,12.2h-.1a1.9,1.9,0,0,1,.3-.9h0a1.2,1.2,0,0,1-.1.9Zm-.1-.1h.1a1.5,1.5,0,0,0,.2-.8A2.6,2.6,0,0,0,16.3,12.1Z"/><path class="cls-4" d="M16.9,12.3h0Zm-.4-.2h.4a.6.6,0,0,0,.5-.2h-.9Z"/><path class="cls-4" d="M17,12.1h-.3l1-.2h0A.9.9,0,0,1,17,12.1Zm-.2-.1H17a1.3,1.3,0,0,0,.7-.4C17.5,11.8,17,11.8,16.8,12Z"/><path class="cls-4" d="M16.7,11.9h0a1.6,1.6,0,0,1,.1-1h0a.9.9,0,0,1,0,.9Zm.1-.9c0,.2-.1.6-.1.8h.1C16.9,11.7,16.9,11.4,16.8,11Z"/><path class="cls-4" d="M17,11.7h-.1c0-.3.1-.8.1-.9h.1c.1.4.1.7,0,.8Zm0-.8a1.6,1.6,0,0,0,0,.7h0A.8.8,0,0,0,17,10.9Z"/><path class="cls-4" d="M17.1,11.8a.1.1,0,0,1-.1-.1h0c.1-.3.7-.6.8-.6h0C17.6,11.6,17.3,11.8,17.1,11.8Zm0-.1h0c.2,0,.5-.1.7-.6A2,2,0,0,0,17.1,11.7Z"/><path class="cls-4" d="M17.2,11.4h0a3.4,3.4,0,0,1-.1-.9h.1a.8.8,0,0,1,.1.8Zm0-.8a1.6,1.6,0,0,0,0,.7h.1A2.3,2.3,0,0,0,17.2,10.6Z"/><path class="cls-4" d="M17.4,11h0c-.1-.2-.1-.9,0-.9h0a1,1,0,0,1,.1.9Zm0-.8a2.1,2.1,0,0,0,0,.8h.1C17.6,10.8,17.6,10.5,17.4,10.2Z"/><path class="cls-4" d="M17.6,11.2h-.1c.1-.2.6-.3.7-.3h.1C18,11.1,17.8,11.2,17.6,11.2Zm-.1-.1h.1a.7.7,0,0,0,.6-.2Z"/><path class="cls-4" d="M17.6,10.7h0a1.2,1.2,0,0,1-.1-1h0c.2.4.3.7.2.9Zm-.1-.9a2.2,2.2,0,0,0,.1.8h.1A1.3,1.3,0,0,0,17.5,9.8Z"/><path class="cls-4" d="M17.8,10h0a2,2,0,0,1-.4-.8h0a1.2,1.2,0,0,1,.5.6V10Zm-.3-.7a1.7,1.7,0,0,0,.3.6h0A.9.9,0,0,0,17.5,9.3Z"/><path class="cls-4" d="M17.9,10.2h-.1a1.5,1.5,0,0,1,.7-.5h0Q18.2,10.2,17.9,10.2Zm0-.1c.1.1.3,0,.5-.4Z"/><path class="cls-4" d="M17.9,9.8h0c0-.2.3-.7.4-.7h0C18.3,9.5,18.1,9.8,17.9,9.8Zm0-.1h0c.1,0,.3-.2.4-.6S17.9,9.5,17.9,9.7Z"/><path class="cls-4" d="M17.9,9.1h-.1l-.6-.4h0l.7.3v.2Zm-.6-.4.5.3h0C17.8,8.9,17.6,8.7,17.3,8.7Z"/><path class="cls-4" d="M17.8,8.6h-.1c0-.3.2-.8.3-.8h0a.8.8,0,0,1-.1.7Zm0,0h.1c.1-.1.1-.3.1-.7A1.9,1.9,0,0,0,17.8,8.6Z"/><path class="cls-4" d="M17.8,8.8h0c-.3,0-.7-.5-.8-.5h.1a1,1,0,0,1,.7.5Zm-.7-.5a2.1,2.1,0,0,0,.7.5h0C17.7,8.5,17.5,8.4,17.1,8.3Z"/><path class="cls-4" d="M17.7,8.5h0a1.9,1.9,0,0,1-.6-.7h0a1.4,1.4,0,0,1,.7.6Zm-.5-.6c.1.1.3.5.5.6h0C17.7,8.2,17.5,8,17.2,7.9Z"/><path class="cls-4" d="M17.6,8.1h0c-.1-.2-.1-.8,0-.8h0a.8.8,0,0,1,.1.8Zm0-.8a2,2,0,0,0,.1.7h0A.6.6,0,0,0,17.6,7.3Z"/><path class="cls-4" d="M17.4,7.7h0a1.6,1.6,0,0,1,0-.7h0c.2.3.2.6.1.7Zm0-.6a1.5,1.5,0,0,0,.1.6h0A1.3,1.3,0,0,0,17.4,7.1Z"/><path class="cls-4" d="M17.4,7.9h0a1.4,1.4,0,0,1-.7-.6h0c.4.1.7.3.7.5Zm-.6-.6a1.2,1.2,0,0,0,.6.6h0A1,1,0,0,0,16.8,7.3Z"/><path class="cls-4" d="M17.3,7.6h0L16.9,7H17c.2.2.4.5.3.6ZM17,7l.3.5h0A.9.9,0,0,0,17,7Z"/><path class="cls-4" d="M17.2,12.7a1.3,1.3,0,0,1-.9-.3c0-.1-.1-.2,0-.2h0a1.5,1.5,0,0,1,.9.5Zm-.9-.5h0c.1.2.4.3.8.3Z"/><path class="cls-4" d="M17.7,10.9h-.1c.1-.3.7-.6.8-.6h0C18.2,10.6,17.9,10.9,17.7,10.9Zm-.1-.1h.1a1.1,1.1,0,0,0,.6-.6Z"/><path class="cls-4" d="M17.9,9.1h-.1c.1-.3.3-.7.5-.7h0A.8.8,0,0,1,17.9,9.1Zm0-.1h0c.1,0,.3-.2.3-.7A1.5,1.5,0,0,0,17.9,9Z"/><path class="cls-5" d="M15.9,12a1.8,1.8,0,0,0,.8.6c.2,0,.4-.1.1-.3s-.6-.3-.7-.5l-.2.2Z"/><path class="cls-4" d="M16.8,12.6h-.1c-.3,0-.5-.2-.8-.6h0l.2-.2h.1l.5.5h.1l.2.2ZM16,12a1.3,1.3,0,0,0,.7.6h.2v-.2h-.1a1.3,1.3,0,0,1-.6-.5Z"/><path class="cls-6" d="M15.9,12a6.8,6.8,0,0,0-2.4-2.4,4.9,4.9,0,0,1,2.6,2.2l-.2.2Z"/><path class="cls-4" d="M15.9,12h0l-.3-.4a5.8,5.8,0,0,0-2.1-2h0a5.5,5.5,0,0,1,2.4,1.9l.3.4h0L16,12ZM13.7,9.7a5.5,5.5,0,0,1,1.9,1.8l.3.5.2-.2-.3-.3C15.1,10.6,14.7,10,13.7,9.7Z"/><path class="cls-5" d="M16.8,12.6v-.4c.1-.1,0-.2-.1-.3h-.8c-.1,0-.1.2,0,.2s.2-.1.2-.1h.7v.4c-.1.1-.1.2,0,.2Z"/><path class="cls-4" d="M16.8,12.7h-.2V12h-.3l-.2.2h.5c.1,0,.2.2.2.3a1,1,0,0,0-.1.4h0Zm-.1-.1h.1v-.5h0v.5Zm-.8-.6h.2l.3-.2h-.5Z"/><path class="cls-4" d="M16.3,12.4h-.1v-.2h.1Z"/><path class="cls-4" d="M16.4,12.5h-.1v-.2h.1Z"/><path class="cls-4" d="M16.4,12.5h0v-.2h.1Z"/><path class="cls-4" d="M16.6,12.6h-.1v-.2h.1Z"/><path class="cls-4" d="M16,12.1h-.2l.5-.2H16Zm.1-.1h0Z"/><path class="cls-5" d="M16.7,11.9h0Z"/><path class="cls-4" d="M16.7,12h0Z"/><path class="cls-5" d="M16.6,11.9h0Z"/><path class="cls-4" d="M16.6,11.9h0Z"/><path class="cls-5" d="M16.5,11.9Z"/><path class="cls-4" d="M16.5,11.9h0Z"/><path class="cls-4" d="M16.9,12.6c-.1-.1-.1-.1,0-.1v-.2h.1v.2h0Z"/><path class="cls-7" d="M14.1,8.1l2.5,2.4v.2c.1.1,0,.2.1.2s.2.2.2.2.2.1.2.1v.2l.5.5.3.3-.5.4-.8-1.2c-.3-.3-.5-.6-.4-.7l-.3-.4a.3.3,0,0,0-.1-.2L14.4,8.8a.1.1,0,0,1,.1-.1L14,8.2Z"/><path class="cls-4" d="M17.3,12.7h0a2.8,2.8,0,0,1-.6-.9l-.2-.2h0a2.3,2.3,0,0,1-.5-.7.4.4,0,0,0-.2-.3h-.1v-.2h0L14.4,8.8h0c-.1-.2-.4-.4-.4-.5h.1l2.5,2.4c0,.1,0,.2-.1.2v.2h.2l.2.2h0c.1,0,.1.1,0,.1h.1v.2l.3.3h0l.3.3h0c0,.1-.2.2-.4.4h-.1Zm-.8-1.3.2.3.6.9h.1c.1-.1.3-.2.3-.3l-.2-.3-.3-.3-.2-.2h-.5v-.2h0L14,8.1h0l.5.5h-.1l1.4,1.3h0v.2a.4.4,0,0,1,.3.4h0A1.3,1.3,0,0,0,16.5,11.4Z"/><path class="cls-8" d="M16.6,11.5l.3-.2.7.9-.3.3-.7-1Z"/><path class="cls-6" d="M13.4,7.8h.2l3,2.8v.2l-2-2-.9-.9h-.2l-1-1.1,1,1Z"/><path class="cls-4" d="M16.5,10.8l-2-2.1-.9-.9h-.2l-1-1.1h0l1,1h.1a.1.1,0,0,1,.1-.1h.1l2.9,2.9c0,.1,0,.2-.1.2h0ZM13.6,7.7h0l.9.9,2,1.9h0L13.6,7.7h-.2l-.3-.2.3.3h.1Z"/><path class="cls-4" d="M16.5,11.5h-.2c-.1,0-.1-.1,0-.2h0l.3.4Zm-.2-.2h0Z"/><path class="cls-4" d="M16.2,11.5l.2-.3h.1v.2Z"/><path class="cls-4" d="M17.4,11.9l-1.5-1.5h0a2.3,2.3,0,0,1,.5.5h0l.4.4h0l.6.7Z"/><path class="cls-6" d="M16.6,10.6a.4.4,0,0,0-.4.4l.3.5.5-.3h-.2l-.2-.3c.1-.1,0-.1,0-.1Z"/><path class="cls-4" d="M16.5,11.5h-.1l-.3-.4h0a.8.8,0,0,1,.4-.4h.1v.2h0c-.1.1,0,.2.1.2H17l-.5.3Zm-.3-.5c.1.1.2.3.3.3h0l.4-.2h-.1c-.2-.1-.2-.2-.2-.3h-.1C16.4,10.7,16.2,10.8,16.2,11Z"/><path class="cls-6" d="M16.5,10.8c-.1.1,0,.2,0,.3v-.3Z"/><path class="cls-4" d="M16.6,11.2h-.1a.2.2,0,0,1,0-.3h0Z"/><path class="cls-4" d="M16.5,11.3a.1.1,0,0,1-.1-.1h.2C16.6,11.3,16.6,11.3,16.5,11.3Zm0-.1Z"/><path class="cls-4" d="M16.4,11.1h0Zm0-.1h0Z"/><path class="cls-7" d="M16,8.1l-2.5,2.4h.1v.3h-.2a.2.2,0,0,0-.2.2c-.1.1,0,.2-.1.2l-.4.4-.3.4c0,.1.5.4.5.4a11.8,11.8,0,0,1,.8-1.2,2.8,2.8,0,0,0,.4-.8.3.3,0,0,1,.3-.3v-.2l1.8-1.8c0-.1,0-.1-.1-.1h0Z"/><path class="cls-4" d="M12.7,12.7h0c-.2-.1-.4-.2-.4-.3h0l.2-.3h0l.4-.4h.6v-.2s-.1,0,0-.1h0L16,8h.1l-1.7,1.8h0c-.1,0-.1.1-.1.2h0l-.3.3c.1.2-.2.6-.4.8h0l-.2.3-.6.9Zm-.4-.5.4.3h.1a3.5,3.5,0,0,0,.5-.8l.3-.4a1.7,1.7,0,0,0,.4-.7h0a.3.3,0,0,1,.3-.3.1.1,0,0,1,0-.2h0l1.8-1.7H16l-2.5,2.4h.1v.2h-.1l-.2.2H13l-.4.5Z"/><path class="cls-8" d="M13.4,11.4h-.2l-.8.8.4.3.6-1Z"/><path class="cls-6" d="M16.6,7.8h-.1c0-.1,0-.1-.1-.1l-2.9,2.9v.2l2-2,.8-.9h.3l1-1.1-1,.9Z"/><path class="cls-4" d="M13.5,10.7h0c0-.1-.1-.1,0-.2h0l2.9-2.9h.2l1-1h.1l-1,1.1h-.3l-.8.9Zm0-.2h.1l1.9-1.9.9-1h.2l.3-.3-.2.3h-.2Z"/><path class="cls-4" d="M13.6,11.5h-.1l.3-.3h0v.2Zm.1-.2h0Z"/><path class="cls-4" d="M13.8,11.5h-.2v-.2Z"/><path class="cls-4" d="M12.7,11.9h-.1l.7-.7h0l.3-.3h.1l.4-.4h.1Z"/><path class="cls-6" d="M13.5,10.5c.1.1.4.2.4.4s-.3.5-.4.5l-.4-.2h.2c.1,0,.2-.1.1-.2h0Z"/><path class="cls-4" d="M13.6,11.5h-.1l-.4-.2h.2v-.2h.2c.1.1.3.2.3.4h0l-.3.3h0Zm-.5-.4.4.3h.1l.3-.4-.3-.3h-.1a.5.5,0,0,1-.2.4h-.2Z"/><path class="cls-6" d="M13.6,10.7c0,.1,0,.3-.1.3v-.3Z"/><path class="cls-4" d="M13.5,11.3h.1A.1.1,0,0,1,13.5,11.3Zm0-.1Z"/><path class="cls-4" d="M13.7,11.1h0Zm0-.1Z"/><path class="cls-6" d="M15.7,8.3h.1l.2.2h-.1l-.2-.2Z"/><path class="cls-4" d="M15.9,8.5h0l-.2-.2h0c0-.1,0-.1.1-.1h0l.2.2h-.1Zm0,0h-.1Z"/><path class="cls-9" d="M14.8,7V6.8c0-.2.1-.2.1-.2s.3,0,.3.2,0,.2,0,.3.8.6.8.7-1,.1-1.2-.4a.5.5,0,0,1,0-.4h-.1Z"/><path class="cls-4" d="M15.6,7.9a.8.8,0,0,1-.7-.5.5.5,0,0,1,0-.4h0c0-.2.1-.2.1-.2h.2v.2c0,.2,0,.2.1.3s.7.5.7.6h-.5Zm-.7-1H15s-.2.2-.1.4a.7.7,0,0,0,.7.4h.5l-.8-.6c-.1-.1-.1-.1-.1-.3s0-.1,0-.1-.1-.1-.2,0h-.1Z"/><path class="cls-5" d="M14.3,11.9a1.4,1.4,0,0,1-.8.6c-.2.1-.4-.2-.1-.3s.6-.3.7-.5l.2.2Z"/><path class="cls-4" d="M13.4,12.5h-.2l.2-.3h.1l.6-.5h0l.2.2h0c-.3.4-.5.6-.8.6Zm0-.3c-.1.1-.2.2-.1.2h.2a1,1,0,0,0,.7-.6v-.2c-.1.2-.4.5-.6.5Z"/><path class="cls-6" d="M14.3,11.9a7.3,7.3,0,0,1,2.5-2.5c-1.3.5-1.7,1.1-2.7,2.3l.2.2Z"/><path class="cls-4" d="M14.3,11.9h0l-.2-.2h0l.2-.4a5.5,5.5,0,0,1,2.4-1.9h.1a5.4,5.4,0,0,0-2.2,2l-.3.4Zm-.2-.2.2.2.3-.5a6.6,6.6,0,0,1,1.9-1.8,4.4,4.4,0,0,0-2.1,1.8Z"/><path class="cls-5" d="M13.4,12.5v-.4a.4.4,0,0,1,.1-.3h.8c.2,0,.1.2,0,.2h-.8c-.1.1,0,.4,0,.4v.2Z"/><path class="cls-4" d="M13.5,12.5h-.1v-.4a.2.2,0,0,1,.1-.3h.6l-.3-.2h-.3c0,.1,0,.4.1.4v.2h-.1Zm-.1,0h.1v-.5h0A.8.8,0,0,1,13.4,12.5Zm.4-.8h0l.3.2h-.3Z"/><path class="cls-4" d="M14,12.3V12H14v.2Z"/><path class="cls-4" d="M13.9,12.4v-.3h.1v.2Z"/><path class="cls-4" d="M13.8,12.4v-.3h.1Z"/><path class="cls-4" d="M13.7,12.5v-.3h.1v.2Z"/><path class="cls-4" d="M14.3,12h-.5a.1.1,0,0,1,.1.1l.5.2h-.1Zm-.2-.1Z"/><path class="cls-5" d="M13.5,11.8h0Z"/><path class="cls-4" d="M13.5,11.9h0a.1.1,0,0,1,.1.1Z"/><path class="cls-5" d="M13.6,11.8h0Z"/><path class="cls-4" d="M13.6,11.8h-.1a.1.1,0,0,1,.1-.1c.1,0,.1,0,.1.1Z"/><path class="cls-5" d="M13.7,11.8h.1a.1.1,0,0,0-.1-.1Z"/><path class="cls-4" d="M13.7,11.8h-.1a.1.1,0,0,1,.1-.1c.1,0,.1,0,.1.1Z"/><path class="cls-4" d="M13.4,12.5h-.1v-.2h.1v.2Z"/><path class="cls-10" d="M15.9,7.6c.8,1.1,1.1,2.4-1.5,5.9,1.3-1.9,2.7-4.1,1.4-5.8Z"/><path class="cls-4" d="M14.4,13.5h0c1.3-1.9,2.7-4.1,1.4-5.8h.1a2.5,2.5,0,0,1,.6,2,10.8,10.8,0,0,1-2.1,3.9Zm1.4-5.8c1.1,1.5.3,3.3-.8,5,2.1-3.1,1.6-4.2.9-5Z"/><path class="cls-10" d="M15.9,7.8a1.8,1.8,0,0,1,.1,2.5,1.9,1.9,0,0,0-.2-2.5Z"/><path class="cls-4" d="M16,10.3h0a1.9,1.9,0,0,0-.2-2.5h.1c.6.7,1,1.7.1,2.5Zm-.1-2.5a2,2,0,0,1,.1,2.5,1.7,1.7,0,0,0-.1-2.5Z"/><path class="cls-10" d="M16,7.7c.7.9,1.3,2.1.2,3.2.6-1,.8-1.6-.4-3.1Z"/><path class="cls-4" d="M16.2,10.9h0c.6-1,.8-1.6-.4-3.1H16c.5.6,1.5,2,.2,3.2Zm-.3-3.1a3.2,3.2,0,0,1,.8,1.7,2.1,2.1,0,0,1-.5,1.3c1.2-1.2.2-2.5-.2-3.1Z"/><path class="cls-10" d="M16,7.6c1,1,1.5,2.6-.6,5.6.8-1.6,2-4,.5-5.6Z"/><path class="cls-4" d="M15.4,13.2h0c.8-1.6,2-4,.5-5.6H16c1.3,1.4,1.1,3.2-.6,5.7Zm.5-5.6c1.5,1.6.4,3.9-.4,5.4,1.6-2.3,1.8-4.1.5-5.4Z"/><path class="cls-3" d="M16,7.7c.8.9,1.3,2.1.2,3.2.7-1,.9-1.6-.3-3.1Z"/><path class="cls-4" d="M16.2,10.9h0a2.7,2.7,0,0,0,.5-1.4,2.6,2.6,0,0,0-.8-1.7H16c.5.6,1.5,2,.3,3.2Zm-.3-3.1a2.6,2.6,0,0,1,.8,1.7,1.6,1.6,0,0,1-.4,1.3c1.1-1.2.2-2.5-.3-3.1Z"/><path class="cls-3" d="M16,7.8a1.9,1.9,0,0,1-.1,2.7,2,2,0,0,0,0-2.7Z"/><path class="cls-4" d="M15.9,10.6h0a2,2,0,0,0,0-2.7H16a2,2,0,0,1-.1,2.8Zm0-2.8a2.1,2.1,0,0,1,.1,2.7,2.1,2.1,0,0,0,0-2.7Z"/><path class="cls-3" d="M16,7.5c1,1,1.5,2.6-.6,5.6.9-1.6,2.2-3.8.5-5.5Z"/><path class="cls-4" d="M15.4,13.1h0a.5.5,0,0,0,.2-.4c.9-1.6,1.9-3.5.3-5.1H16a2.9,2.9,0,0,1,.9,2.1,6.6,6.6,0,0,1-1.4,3.5ZM16,7.6a2.7,2.7,0,0,1,.7,2.6,8.7,8.7,0,0,1-1,2.5l-.2.3c1.6-2.4,1.8-4.2.5-5.5Z"/><path class="cls-3" d="M16.1,7.6c.8,1,1.2,2.4-1.5,5.8,1.3-1.8,2.7-4,1.4-5.7Z"/><path class="cls-4" d="M14.6,13.4h-.1c1.2-1.6,2.8-3.9,1.5-5.7h.1a2.5,2.5,0,0,1,.6,2,10.5,10.5,0,0,1-2.1,3.8ZM16,7.7a2.8,2.8,0,0,1,.3,2.8A11,11,0,0,1,14.8,13a7.5,7.5,0,0,0,1.8-3.4,2.5,2.5,0,0,0-.5-2Z"/><path class="cls-10" d="M14.9,6.8c0-.2.1-.2.1-.2s.3,0,.3.2,0,.2,0,.3.7.6.7.6h-.4a.1.1,0,0,1-.1.1c.2,0-.4-.8-.6-.8h0V6.8Z"/><path class="cls-3" d="M16,7.9l-.4-.6h0c.4.3.4.3.4.6Z"/><path class="cls-4" d="M16,7.9h-.1l-.3-.6h.1c.3.2.3.2.3.5Zm-.4-.6a1.5,1.5,0,0,0,.4.6h0c0-.3,0-.3-.3-.5Z"/><path class="cls-3" d="M15.4,7.1a1.7,1.7,0,0,1,.8.6c-.7-.3-.6-.3-.8-.5Z"/><path class="cls-4" d="M16.2,7.7h0c-.6-.2-.6-.3-.7-.4h-.1a1.7,1.7,0,0,1,.8.6Zm-.8-.5h.1l.7.4a1.1,1.1,0,0,0-.8-.5Z"/><path class="cls-3" d="M15.8,7.9a1.5,1.5,0,0,1-.3-.6h0C15.8,7.6,15.9,7.7,15.8,7.9Z"/><path class="cls-4" d="M15.8,7.9h0a1.5,1.5,0,0,1-.3-.6h.1c.2.4.3.5.2.7Zm-.3-.6c.1,0,.2.4.3.6s0-.3-.3-.6Z"/><path class="cls-3" d="M15.7,7.9l-.2-.5h0A.4.4,0,0,1,15.7,7.9Z"/><path class="cls-4" d="M15.7,7.9h0a1.7,1.7,0,0,1-.2-.5h0a.4.4,0,0,1,.2.5Zm-.2-.5.2.5C15.8,7.7,15.6,7.6,15.5,7.4Z"/><path class="cls-3" d="M15.6,7.9a1.3,1.3,0,0,1-.1-.5h0C15.6,7.6,15.7,7.8,15.6,7.9Z"/><path class="cls-4" d="M15.6,7.9h0c-.1-.1-.1-.5-.1-.5h0c.1.2.2.4.1.5Zm-.1-.5a1.1,1.1,0,0,0,.1.5A1.1,1.1,0,0,0,15.5,7.4Z"/><path class="cls-3" d="M15.5,7.9a1.3,1.3,0,0,1-.1-.5h0C15.5,7.6,15.6,7.8,15.5,7.9Z"/><path class="cls-4" d="M15.5,7.9h0a1.1,1.1,0,0,1-.1-.5h0c.1.2.2.4.1.5Zm-.1-.4a1,1,0,0,0,.1.4A.8.8,0,0,0,15.4,7.5Z"/><path class="cls-3" d="M15.4,7.9a.5.5,0,0,1,0-.4h0A.5.5,0,0,1,15.4,7.9Z"/><path class="cls-4" d="M15.4,7.9h0a.5.5,0,0,1,0-.4h0a.5.5,0,0,1,0,.5Zm0-.4v.3C15.5,7.7,15.4,7.5,15.4,7.5Z"/><path class="cls-3" d="M15.8,7.5c-.1,0-.3-.3-.3-.3h0Z"/><path class="cls-4" d="M15.8,7.5h0a.3.3,0,0,1-.3-.3h0l.3.3Zm-.3-.3c.1.1.2.3.3.3Z"/><path class="cls-3" d="M15.7,7.5l-.2-.3h0C15.7,7.3,15.7,7.4,15.7,7.5Z"/><path class="cls-4" d="M15.7,7.5h0a.4.4,0,0,1-.2-.3h0c.2.1.3.2.2.3Zm-.2-.3.2.3Z"/><path class="cls-3" d="M15.6,7.5l-.2-.2h.1c.1.1.2.2.1.2Z"/><path class="cls-4" d="M15.6,7.6h0l-.2-.2h.1c.1.1.2.2.1.2Zm-.1-.3s0,.2.1.2Z"/><path class="cls-3" d="M15.5,7.5c-.1,0-.1-.2-.1-.2h0C15.5,7.4,15.6,7.5,15.5,7.5Z"/><path class="cls-4" d="M15.5,7.5h0c-.1,0-.1-.2-.1-.2h0c.1.1.2.2.1.2Zm-.1-.2a.3.3,0,0,0,.1.2Z"/><path class="cls-3" d="M15.4,7.5V7.3h0C15.5,7.4,15.5,7.5,15.4,7.5Z"/><path class="cls-4" d="M15.4,7.5h0V7.3h0c.1.1.1.2,0,.2Zm0-.2v.2C15.5,7.5,15.4,7.4,15.4,7.3Z"/><path class="cls-3" d="M15.4,7.5a.3.3,0,0,1-.1-.2h0Z"/><path class="cls-4" d="M15.4,7.5h-.1V7.3h0v.2Zm-.1-.2c0,.1,0,.1.1.2Z"/><path class="cls-3" d="M15.6,7.4l-.3-.3h0Q15.6,7.3,15.6,7.4Z"/><path class="cls-4" d="M15.6,7.4h0a.3.3,0,0,1-.3-.3h0c.2.1.4.2.3.3Zm-.3-.3.3.3C15.6,7.3,15.5,7.3,15.3,7.1Z"/><path class="cls-3" d="M15.5,7.4l-.2-.3h0C15.5,7.3,15.6,7.3,15.5,7.4Z"/><path class="cls-4" d="M15.5,7.4h0c-.1,0-.2-.3-.2-.3h0c.2.1.3.2.2.3Zm-.2-.3c0,.1.1.2.2.3S15.5,7.3,15.3,7.1Z"/><path class="cls-3" d="M15.4,7.4c-.1,0-.1-.2-.1-.2h0C15.4,7.3,15.5,7.4,15.4,7.4Z"/><path class="cls-4" d="M15.4,7.5h0a.5.5,0,0,1-.1-.3h0c.1.1.2.2.1.3Zm-.1-.3s0,.2.1.2A.3.3,0,0,0,15.3,7.2Z"/><path class="cls-3" d="M15.3,7.4c-.1,0-.1-.2-.1-.2h0C15.3,7.3,15.4,7.4,15.3,7.4Z"/><path class="cls-4" d="M15.3,7.5h0a.5.5,0,0,1-.1-.3h0c.1.1.2.2.1.3Zm-.1-.3a.3.3,0,0,1,.1.2C15.4,7.4,15.3,7.3,15.2,7.2Z"/><path class="cls-3" d="M15.3,7.4c-.1,0-.1-.2-.1-.2h0A.3.3,0,0,1,15.3,7.4Z"/><path class="cls-4" d="M15.3,7.4h-.1V7.2h0a.3.3,0,0,1,.1.2Zm-.1-.2c0,.1,0,.2.1.2A.3.3,0,0,0,15.2,7.2Z"/><path class="cls-3" d="M15.2,7.4V7.2h.1Z"/><path class="cls-4" d="M15.2,7.4h0c-.1,0-.1-.2-.1-.2h.1v.2Zm0-.2c0,.1-.1.1,0,.2Z"/><path class="cls-3" d="M15.6,7.3a.7.7,0,0,1-.3-.3h0Q15.6,7.2,15.6,7.3Z"/><path class="cls-4" d="M15.6,7.3h0a.7.7,0,0,1-.3-.3h0q.3.1.3.3ZM15.3,7q0,.1.3.3T15.3,7Z"/><path class="cls-3" d="M15.5,7.3,15.2,7h0q.3.1.3.3Z"/><path class="cls-4" d="M15.5,7.3h0L15.2,7h.1l.2.3ZM15.3,7l.2.3Z"/><path class="cls-3" d="M15.4,7.3,15.2,7h0l.2.3Z"/><path class="cls-4" d="M15.4,7.3h0L15.2,7h0c.2.1.2.2.2.3Zm-.2-.2c.1,0,.1.1.2.2Z"/><path class="cls-3" d="M15.3,7.3a.3.3,0,0,1-.1-.2h0v.2Z"/><path class="cls-4" d="M15.3,7.3h0a.3.3,0,0,1-.1-.2h0c.1.2.2.2.1.3Zm-.1-.2a.3.3,0,0,0,.1.2Z"/><path class="cls-3" d="M15.2,7.3a.3.3,0,0,1-.1-.2h.1C15.2,7.2,15.3,7.2,15.2,7.3Z"/><path class="cls-4" d="M15.2,7.3h0a.3.3,0,0,1-.1-.2h.1c0,.1.1.1,0,.2Zm0-.2v0Z"/><path class="cls-3" d="M15.1,7.3V7.1h0C15.2,7.2,15.2,7.2,15.1,7.3Z"/><path class="cls-4" d="M15.1,7.3h0V7.1h0c.1.1.1.1,0,.2Zm0-.2v.2C15.2,7.2,15.2,7.2,15.1,7.1Z"/><path class="cls-3" d="M15.1,7.4V7.2h0c.1.1.1.1,0,.2Z"/><path class="cls-4" d="M15.1,7.4h0a.1.1,0,0,1,0-.2h0c.1.1.1.1,0,.2Zm0-.2v0Z"/><path class="cls-3" d="M15.1,7.2C15,7.2,15,7,15,7h.1v.2Z"/><path class="cls-4" d="M15.1,7.2h0C15,7.2,15,7,15,7h.1c0,.1.1.2,0,.2Zm0-.1s-.1.1,0,.1Z"/><path class="cls-3" d="M15.1,7.3c-.1,0-.1-.2-.1-.2h0v.2Z"/><path class="cls-4" d="M15.1,7.4H15V7.1h0a.4.4,0,0,1,.1.3ZM15,7.2h0Z"/><path class="cls-3" d="M15,7.3V7.1h0c.1.1.1.2,0,.2Z"/><path class="cls-4" d="M15,7.3h0a.1.1,0,0,1,0-.2h0c.1.1.1.2,0,.2Zm0-.2v0Z"/><path class="cls-3" d="M14.9,7.3V7.1h0c.1.1.1.2,0,.2Z"/><path class="cls-4" d="M14.9,7.3h0V7.1H15c0,.1,0,.2-.1.2Zm0-.2v.2C15,7.2,15,7.2,14.9,7.1Z"/><path class="cls-3" d="M15,7.3a.1.1,0,0,1,0-.2h0Z"/><path class="cls-4" d="M15,7.3h-.1V7.1h0v.2Zm0-.2c0,.1-.1.1,0,.2Z"/><path class="cls-3" d="M14.9,7.3a.1.1,0,0,1,0-.2h0Z"/><path class="cls-4" d="M14.9,7.3h0a.1.1,0,0,1,0-.2h0c.1.1.1.1,0,.2Zm0-.2h0Z"/><path class="cls-3" d="M15.1,7.2C15,7.2,15,7,15,7h.1v.2Z"/><path class="cls-4" d="M15.1,7.2h0C15,7.2,15,7,15,7h.1c0,.1.1.2,0,.2Zm0-.1s-.1.1,0,.1Z"/><path class="cls-3" d="M15,7.2V7h0c.1.1.1.1,0,.2Z"/><path class="cls-4" d="M15,7.2h0V7h0c.1.1.1.1,0,.2ZM15,7v.2C15.1,7.1,15.1,7.1,15,7Z"/><path class="cls-3" d="M14.9,7.2A.3.3,0,0,1,15,7h0v.2Z"/><path class="cls-4" d="M14.9,7.2h0V7H15v.2ZM15,7c-.1,0-.1.1-.1.2Z"/><path class="cls-3" d="M15,7.2A.1.1,0,0,1,15,7h0v.2Z"/><path class="cls-4" d="M15,7.2h0A.1.1,0,0,1,15,7h0c0,.1.1.2,0,.2ZM15,7V7Z"/><path class="cls-3" d="M15.6,7.3c.4.3.5.2.5.5h0l-.5-.6Z"/><path class="cls-4" d="M16.1,7.9H16l-.4-.6h0l.3.2c.1.1.2.1.2.3h0Zm-.5-.6a2.3,2.3,0,0,0,.5.5h0c0-.2-.1-.2-.2-.3l-.3-.2Z"/><path class="cls-11" d="M14.6,9.9c-.3-.2-.6-.2-.7.2s.1.5.5.4A3.9,3.9,0,0,0,14.6,9.9Z"/><path class="cls-4" d="M14.2,10.5h0c-.3,0-.3-.2-.3-.4a.3.3,0,0,1,.3-.3h.4a3.9,3.9,0,0,1-.2.6h-.2Zm0-.7-.3.3c0,.3.1.4.3.4h.1a1.1,1.1,0,0,0,.3-.6Z"/><path class="cls-12" d="M14.1,10.5s1.9.1,2-.1a1.4,1.4,0,0,0,.1-1.1,7.2,7.2,0,0,0-.6-1c.1,0,.2-.3.1-.5a6.8,6.8,0,0,1-1.5,0h-.1c-.2,0-.2.1-.2.1s-.2.4,0,.9a6.6,6.6,0,0,1,.5,1c.1.6-.1.6-.3.7Z"/><path class="cls-4" d="M15,10.5h-.8c.1-.1.3-.1.2-.7h0c-.1-.1-.1-.3-.5-.9s-.2-.8,0-.9,0-.1.2-.1h1.7v.4h-.2a3.6,3.6,0,0,1,.6,1,1.4,1.4,0,0,1-.1,1.1Zm-.8,0h1.9a1.4,1.4,0,0,0,.1-1.1,7.2,7.2,0,0,0-.6-1h0a.1.1,0,0,0,.1-.1c.1-.1.1-.3,0-.3H14.1c-.2,0-.2.1-.2.1s-.2.4,0,.9.4.8.5.9h0C14.5,10.4,14.4,10.4,14.2,10.5Z"/><path class="cls-4" d="M14.1,8.3Zm.7,0h0Z"/><path class="cls-9" d="M14.6,8.9h-.1V8.7h.1v.2Z"/><path class="cls-9" d="M14.7,8.9h-.1V8.7h0v.2Z"/><path class="cls-9" d="M14.7,8.9h0Z"/><path class="cls-9" d="M14.8,8.7h0Z"/><path class="cls-9" d="M15.2,8.8h0Z"/><path class="cls-9" d="M15.3,8.8h0Z"/><path class="cls-9" d="M15.5,8.8h0Z"/><path class="cls-9" d="M15.5,8.8Z"/><path class="cls-9" d="M15,9.2h-.1v.2H15Z"/><path class="cls-9" d="M14.9,9.1H15c.1.1,0,.1,0,.1h-.1Z"/><path class="cls-9" d="M15.1,9.2h0V9h0Z"/><path class="cls-9" d="M15.2,9h0Z"/><path class="cls-9" d="M14.6,9.5h0Z"/><path class="cls-9" d="M14.6,9.4h.1V9.4Z"/><path class="cls-9" d="M15.1,9.5h0Z"/><path class="cls-9" d="M15.2,9.5h0Z"/><path class="cls-9" d="M15.1,9.4h0Z"/><path class="cls-9" d="M15.5,9.5h-.2v0h.1Z"/><path class="cls-9" d="M15.6,9.3h0Zm0,0Zm0,.1Z"/><path class="cls-9" d="M15.7,9.3h0Zm0,0Z"/><path class="cls-9" d="M15.8,9.3h0Z"/><path class="cls-9" d="M15,9.9h0a.1.1,0,0,1,.1.1H15Z"/><path class="cls-9" d="M15.1,9.7h0Z"/><path class="cls-9" d="M15.5,9.9h-.1v.2Z"/><path class="cls-9" d="M15.5,9.7h-.1a.1.1,0,0,1,.1-.1Z"/><path class="cls-9" d="M15.7,9.9h-.1c.1.1.1.1,0,.1h.1Z"/><path class="cls-9" d="M15.8,9.9h0Z"/><path class="cls-3" d="M15.1,7.1h0c.1.1.1.1,0,.1Z"/><path class="cls-4" d="M15.1,7.2h0c.1,0,.1.1,0,.1h0Zm0-.2h0C15.2,7.1,15.1,7.1,15.1,7Z"/><path class="cls-3" d="M15.1,7.1h0Z"/><path class="cls-4" d="M15.1,7.1h0s.1.1,0,.1Zm0-.1h0Z"/><path class="cls-3" d="M15,7.1h.1c0,.1,0,.2-.1.2Z"/><path class="cls-4" d="M15,7.1h0V6.9h.1c0,.1,0,.2-.1.2ZM15,7h0C15.1,7.1,15.1,7,15,7Z"/><path class="cls-3" d="M15.1,7.1c-.1-.1,0-.1,0-.1h0Z"/><path class="cls-4" d="M15.1,7.1h0Zm0-.1h0Z"/><path class="cls-3" d="M15.2,7.1h0c-.1,0-.1.1,0,.1Z"/><path class="cls-4" d="M15.2,7.1Zm0-.1c-.1,0-.1.1,0,.1Z"/><path class="cls-3" d="M15.2,7.1c.1-.1,0-.1,0-.1h0v.2Z"/><path class="cls-4" d="M15.2,7.1h0V6.9h0a.1.1,0,0,1,0,.2Zm0-.1h0Z"/><path class="cls-3" d="M15.2,7.1h0Z"/><path class="cls-4" d="M15.2,7.1h0c-.1,0-.1-.1,0-.1h0Zm0-.1h0Z"/><path class="cls-3" d="M15.3,7h0Z"/><path class="cls-4" d="M15.3,7.1Z"/><path class="cls-3" d="M15.3,7h0Z"/><path class="cls-4" d="M15.3,7Z"/><path class="cls-3" d="M15.3,7h0Z"/><path class="cls-4" d="M15.3,7h0Z"/><path class="cls-3" d="M15.3,7h0Z"/><path class="cls-4" d="M15.3,7Z"/><path class="cls-3" d="M15.3,6.9Z"/><path class="cls-4" d="M15.3,7h0Z"/><path class="cls-3" d="M15.4,6.9a.1.1,0,0,1-.1-.1h.1Z"/><path class="cls-4" d="M15.3,6.9h0Z"/><path class="cls-3" d="M15.3,6.9Z"/><path class="cls-4" d="M15.3,6.9h0a.1.1,0,0,0,.1.1h-.1Z"/><path class="cls-3" d="M15.3,6.8c0,.1-.1,0-.1,0h.1Z"/><path class="cls-4" d="M15.3,6.9h.1c0,.1,0,.1-.1.1Z"/><path class="cls-3" d="M15.4,6.8h-.1s0,.1.1,0Z"/><path class="cls-4" d="M15.3,6.9h.1C15.4,6.9,15.4,6.9,15.3,6.9Z"/><path class="cls-3" d="M15.3,6.8Z"/><path class="cls-4" d="M15.3,6.8h0Z"/><path class="cls-3" d="M15.4,6.8h0Z"/><path class="cls-4" d="M15.3,6.8Z"/><path class="cls-3" d="M15.3,6.7h0Z"/><path class="cls-4" d="M15.3,6.7h0Z"/><path class="cls-3" d="M15.3,6.7h0Z"/><path class="cls-4" d="M15.3,6.7h0Z"/><path class="cls-3" d="M15.3,6.7h0Z"/><path class="cls-4" d="M15.2,6.7h0a.1.1,0,0,1,.1-.1h-.1Z"/><path class="cls-3" d="M15.2,6.6h0Z"/><path class="cls-4" d="M15.2,6.7Z"/><path class="cls-3" d="M14.9,6.6h0Z"/><path class="cls-4" d="M14.9,6.7h0a.1.1,0,0,0,.1.1h-.1Z"/><path class="cls-3" d="M14.8,6.8h0Z"/><path class="cls-4" d="M14.9,6.8h0Z"/><path class="cls-3" d="M14.9,6.8c0,.1.1,0,.1,0h-.1Z"/><path class="cls-4" d="M14.9,6.9Z"/><path class="cls-3" d="M14.8,6.8h0Z"/><path class="cls-4" d="M14.9,6.8h0Z"/><path class="cls-3" d="M14.9,6.7Z"/><path class="cls-4" d="M14.9,6.8h0Z"/><path class="cls-3" d="M14.9,6.7Z"/><path class="cls-4" d="M14.9,6.7Z"/><path class="cls-3" d="M14.9,6.7h0Z"/><path class="cls-4" d="M14.9,6.8Z"/><path class="cls-3" d="M14.9,6.8Z"/><path class="cls-4" d="M14.9,6.8h0Z"/><path class="cls-3" d="M14.9,6.7h0Z"/><path class="cls-4" d="M15,6.7Z"/><path class="cls-3" d="M14.9,7h0Z"/><path class="cls-4" d="M14.9,7Z"/><path class="cls-3" d="M15,7Z"/><path class="cls-4" d="M15,7h0Z"/><path class="cls-3" d="M15,7Z"/><path class="cls-4" d="M15,7.1Z"/><path class="cls-3" d="M15,7Z"/><path class="cls-4" d="M15,7h0Z"/><path class="cls-3" d="M14.9,7h0Z"/><path class="cls-4" d="M14.9,7Z"/><path class="cls-3" d="M14.9,6.9h0Z"/><path class="cls-4" d="M14.9,6.9Z"/><path class="cls-3" d="M14.9,6.9h0Z"/><path class="cls-4" d="M14.9,7Z"/><path class="cls-3" d="M14.9,6.9h0Z"/><path class="cls-4" d="M14.9,6.9Z"/><path class="cls-3" d="M15.3,6.7h0Z"/><path class="cls-4" d="M15.3,6.8Z"/><path class="cls-3" d="M14.9,6.9H15c-.1-.1-.1-.1-.1,0Z"/><path class="cls-4" d="M14.9,6.9Z"/><path class="cls-3" d="M15.3,7h0Z"/><path class="cls-4" d="M15.3,7h0Z"/><path class="cls-3" d="M15.2,7h0Z"/><path class="cls-4" d="M15.2,7h0s.1.1,0,.1Z"/><path class="cls-3" d="M15.3,6.9h0Z"/><path class="cls-4" d="M15.3,7h0Z"/><path class="cls-3" d="M15.3,6.9h0Z"/><path class="cls-4" d="M15.3,6.9h0Z"/><path class="cls-3" d="M15.2,6.6h-.1c.1,0,.1,0,.1-.1Z"/><path class="cls-4" d="M15.1,6.7h.1c0,.1,0,.1-.1.1Z"/><path class="cls-3" d="M15.1,6.6h0Z"/><path class="cls-4" d="M15.1,6.7h.1a.1.1,0,0,1-.1.1Z"/><path class="cls-3" d="M14.9,6.9H15c0,.1,0,.1-.1.1Z"/><path class="cls-4" d="M14.9,6.9H15C15,6.9,15,6.9,14.9,6.9Z"/><path class="cls-3" d="M15,7h0Z"/><path class="cls-4" d="M15,7Z"/><path class="cls-3" d="M15.1,7.1V6.9h-.1v.2Z"/><path class="cls-4" d="M15.1,7.1h0V6.9h.1v.2Zm0-.1h0Z"/><path class="cls-3" d="M15.3,6.8h0Z"/><path class="cls-4" d="M15.3,6.8h0Z"/><path class="cls-3" d="M15.3,6.7h0Z"/><path class="cls-4" d="M15.2,6.8Z"/><path class="cls-3" d="M14.9,6.7H15s0-.1-.1,0Z"/><path class="cls-4" d="M15,6.7h-.1a.1.1,0,0,1,.1-.1Z"/><path class="cls-3" d="M15,6.7h0Z"/><path class="cls-4" d="M15.1,6.7H15a.1.1,0,0,1,.1.1Z"/><path class="cls-3" d="M14.9,6.7h0Z"/><path class="cls-4" d="M15,6.8Z"/><path class="cls-3" d="M14.9,6.8h0Z"/><path class="cls-4" d="M15,6.8Z"/><path class="cls-3" d="M14.9,6.8c.1.1.1,0,.1,0h-.1Z"/><path class="cls-4" d="M15,6.9Z"/><path class="cls-3" d="M15,6.9Z"/><path class="cls-4" d="M15,7Z"/><path class="cls-3" d="M15,7h0Z"/><path class="cls-4" d="M15,7Z"/><path class="cls-3" d="M15,7h0Z"/><path class="cls-4" d="M15,7Z"/><path class="cls-3" d="M15.1,7h0s-.1.1,0,.1Z"/><path class="cls-4" d="M15.1,7h0Z"/><path class="cls-3" d="M15.1,7h0Z"/><path class="cls-4" d="M15.1,7Z"/><path class="cls-3" d="M15.1,7c.1,0,0-.1,0-.1h0Z"/><path class="cls-4" d="M15.1,7Z"/><path class="cls-3" d="M15.2,7h0c-.1,0-.1.1,0,.1Z"/><path class="cls-4" d="M15.2,7Z"/><path class="cls-3" d="M15.2,6.9h0Z"/><path class="cls-4" d="M15.2,6.9h0c-.1,0-.1,0,0-.1h0Z"/><path class="cls-3" d="M15.3,6.9a.1.1,0,0,0-.1-.1h0c0,.1,0,.1.1.1Z"/><path class="cls-4" d="M15.2,6.9h0a.1.1,0,0,1,.1.1h-.1Z"/><path class="cls-3" d="M15.3,6.8h0Z"/><path class="cls-4" d="M15.2,6.8Z"/><path class="cls-3" d="M15.3,6.7h0Z"/><path class="cls-4" d="M15.2,6.8Z"/><path class="cls-3" d="M15.2,6.7h0Z"/><path class="cls-4" d="M15.1,6.8Z"/><path class="cls-3" d="M15.2,6.7h0Z"/><path class="cls-4" d="M15.1,6.8Z"/><path class="cls-3" d="M15.1,6.6c-.1.1,0,.1,0,.1h0Z"/><path class="cls-4" d="M15.1,6.7h0a.1.1,0,0,1-.1-.1h.1Z"/><path class="cls-3" d="M15,6.7h0Z"/><path class="cls-4" d="M15.1,6.8h0Z"/><path class="cls-3" d="M15,6.8h0Z"/><path class="cls-4" d="M15,6.8Z"/><path class="cls-3" d="M15,6.8h0Z"/><path class="cls-4" d="M15,6.8Z"/><path class="cls-3" d="M15,6.9a.1.1,0,0,0,.1-.1h0c-.1,0-.1,0-.1.1Z"/><path class="cls-4" d="M15,6.9h0c0-.1,0-.1.1-.1h0A.1.1,0,0,1,15,6.9Z"/><path class="cls-3" d="M15,6.9a.1.1,0,0,0,.1-.1h0a.1.1,0,0,1-.1.1Z"/><path class="cls-4" d="M15,6.9h0a.1.1,0,0,1,.1-.1h0A.1.1,0,0,1,15,6.9Z"/><path class="cls-3" d="M15.1,6.9h0Z"/><path class="cls-4" d="M15.1,6.9h0c-.1,0,0,0,0-.1h0Z"/><path class="cls-3" d="M15.2,6.9h-.1c0,.1,0,.1.1.1Z"/><path class="cls-4" d="M15.2,6.9h0c-.1,0-.1,0-.1-.1h.1Z"/><path class="cls-3" d="M15.2,6.8h-.1c.1.1.1.1.1,0Z"/><path class="cls-4" d="M15.2,6.9h0a.1.1,0,0,0-.1-.1h.2c0,.1,0,.1-.1.1Z"/><path class="cls-3" d="M15.2,6.8h0Z"/><path class="cls-4" d="M15.2,6.8h0Z"/><path class="cls-3" d="M15.2,6.8h0Z"/><path class="cls-4" d="M15.2,6.8Z"/><path class="cls-3" d="M15,6.7h0Z"/><path class="cls-4" d="M15.1,6.8Z"/><path class="cls-3" d="M15.1,6.7h0Z"/><path class="cls-4" d="M15.1,6.8h0c.1,0,0,0,0,.1Z"/><path class="cls-3" d="M15.2,6.7h0Z"/><path class="cls-4" d="M15.1,6.8Z"/><path class="cls-3" d="M15.1,6.9c.1-.1,0-.1,0-.1h0Z"/><path class="cls-4" d="M15.1,6.9h0s.1,0,0,.1Z"/><path class="cls-3" d="M15,6.9h0Z"/><path class="cls-4" d="M15,6.9h0c-.1-.1,0-.1,0-.1h0Z"/><path class="cls-3" d="M15.1,6.9c.1,0,0-.1,0-.1h0Z"/><path class="cls-4" d="M15.1,6.9h0s.1.1,0,.1Z"/><path class="cls-10" d="M15.1,6.9H15A.1.1,0,0,0,15.1,6.9Z"/><path class="cls-4" d="M15.1,6.9a.1.1,0,0,1-.1-.1h.1Zm0-.1h0Z"/><path class="cls-4" d="M15.1,6.8Z"/><path class="cls-12" d="M15,9.9h0Z"/><path class="cls-12" d="M14.8,8.8h0Z"/><path class="cls-12" d="M14.7,8.8c.1,0,.1,0,.1-.1h-.1Z"/><polygon class="cls-12" points="15.4 8.8 15.3 8.7 15.3 8.8 15.4 8.8 15.4 8.8"/><path class="cls-12" d="M15,8.8a.1.1,0,0,0,.1-.1H15Z"/><path class="cls-12" d="M15.5,9.9h0Z"/><path class="cls-12" d="M15.5,9.8h0Z"/><path class="cls-12" d="M15.5,8.8h0c.1,0,.1,0,.1-.1h-.1Z"/><path class="cls-12" d="M15.2,9.1h0Z"/><path class="cls-9" d="M14.8,9.5h0Zm0-.1h0Z"/></g></svg>