<svg xmlns="http://www.w3.org/2000/svg" viewBox="0 0 30 20"><defs><style>.cls-1{fill:#fff;}.cls-2{fill:#2c51a3;}</style></defs><title>hn</title><g id="Layer_23" data-name="Layer 23"><path class="cls-1" d="M0,13.3H30V6.7H0Zm10.1-.7-.7-.5-.7.5.3-.8-.7-.5h.9l.2-.7.3.7h.8l-.7.5ZM20.6,7.2l.2.8h.9l-.7.5.3.7-.7-.4-.7.4.3-.7L19.5,8h.8Zm-.3,4.1.3-.7.2.7h.9l-.7.5.3.8-.7-.5-.7.5.3-.8-.7-.5ZM15,8.9l.3.8h.8l-.7.4.3.8-.7-.5-.7.5.3-.8-.7-.4h.8ZM9.4,7.2l.3.8h.8l-.7.5.3.7-.7-.4-.7.4L9,8.5,8.3,8h.9Z"/><polygon class="cls-2" points="15 8.9 14.7 9.7 14.9 9.7 15 8.9"/><polygon class="cls-2" points="14.9 9.7 15.1 9.7 15.3 9.7 15 8.9 14.9 9.7 14.9 9.7"/><polygon class="cls-2" points="15.1 9.7 15.1 9.8 15.1 9.8 15.1 9.8 15.1 9.8 16.1 9.7 15.3 9.7 15.1 9.7"/><polygon class="cls-2" points="15.1 9.8 15.1 9.8 15.2 9.9 15.1 9.9 15.3 9.8 15.4 10.1 16.1 9.7 15.1 9.8"/><polygon class="cls-2" points="15.1 9.8 15.1 9.8 15.1 9.8 15.1 9.8"/><polygon class="cls-2" points="13.9 9.7 14.6 10.1 14.6 10 13.9 9.7"/><polygon class="cls-2" points="15.1 9.9 15.2 9.9 15.1 9.8 15.1 9.9 15.1 9.9"/><polygon class="cls-2" points="14.6 10 14.7 9.8 14.9 9.9 14.9 9.8 15 9.9 15.1 9.8 15.1 9.8 15.1 9.7 14.9 9.7 14.9 9.7 14.7 9.7 13.9 9.7 14.6 10"/><polygon class="cls-2" points="15.3 9.8 15.1 9.9 15.1 9.9 15.2 10 15.2 10 15.2 10 15.7 10.9 15.4 10.1 15.3 9.8"/><polygon class="cls-2" points="15.2 10 15.1 10.1 15.2 10.2 15 10.4 15.7 10.9 15.2 10"/><polygon class="cls-2" points="15 10 15.2 10 15.1 9.9 15.1 9.8 15.1 9.8 15.1 9.8 15.1 9.8 15.1 9.8 15 9.9 15 10"/><polygon class="cls-2" points="15 10 15 9.9 14.9 9.8 14.9 9.9 15 10"/><polygon class="cls-2" points="15.2 10.2 15.1 10.1 14.3 10.9 15 10.4 15.2 10.2"/><polygon class="cls-2" points="15.1 10.1 15.2 10 15.2 10 15.2 10 15 10 14.9 9.9 14.7 9.8 14.6 10 14.6 10.1 14.3 10.9 15.1 10.1"/><polygon class="cls-2" points="20.6 10.6 20.3 11.3 20.5 11.3 20.6 10.6"/><polygon class="cls-2" points="20.5 11.3 20.7 11.3 20.8 11.3 20.6 10.6 20.5 11.3 20.5 11.3"/><polygon class="cls-2" points="20.7 11.3 20.7 11.5 20.7 11.5 20.7 11.5 20.7 11.5 21.7 11.3 20.8 11.3 20.7 11.3"/><polygon class="cls-2" points="20.7 11.5 20.7 11.5 20.8 11.5 20.7 11.6 20.9 11.5 21 11.8 21.7 11.3 20.7 11.5"/><polygon class="cls-2" points="20.7 11.5 20.7 11.5 20.7 11.5 20.7 11.5"/><polygon class="cls-2" points="20.2 11.7 19.5 11.3 20.2 11.8 20.2 11.7"/><polygon class="cls-2" points="20.7 11.6 20.8 11.5 20.7 11.5 20.7 11.6 20.7 11.6"/><polygon class="cls-2" points="20.3 11.5 20.5 11.6 20.5 11.5 20.6 11.6 20.7 11.5 20.7 11.5 20.7 11.3 20.5 11.3 20.5 11.3 20.3 11.3 19.5 11.3 20.2 11.7 20.3 11.5"/><polygon class="cls-2" points="20.9 11.5 20.7 11.6 20.7 11.6 20.8 11.7 20.8 11.7 20.8 11.7 21.3 12.6 21 11.8 20.9 11.5"/><polygon class="cls-2" points="20.8 11.7 20.7 11.8 20.8 11.9 20.6 12.1 21.3 12.6 20.8 11.7"/><polygon class="cls-2" points="20.6 11.6 20.8 11.7 20.7 11.6 20.7 11.5 20.7 11.5 20.7 11.5 20.7 11.5 20.7 11.5 20.6 11.6 20.6 11.6"/><polygon class="cls-2" points="20.6 11.6 20.6 11.6 20.5 11.5 20.5 11.6 20.6 11.6"/><polygon class="cls-2" points="20.8 11.9 20.7 11.8 19.9 12.6 20.6 12.1 20.8 11.9"/><polygon class="cls-2" points="20.7 11.8 20.8 11.7 20.8 11.7 20.8 11.7 20.6 11.6 20.5 11.6 20.3 11.5 20.2 11.7 20.2 11.8 19.9 12.6 20.7 11.8"/><polygon class="cls-2" points="20.6 7.2 20.3 8 20.5 8 20.6 7.2"/><polygon class="cls-2" points="20.5 8 20.7 8 20.8 8 20.6 7.2 20.5 8 20.5 8"/><polygon class="cls-2" points="20.7 8 20.7 8.2 20.7 8.2 20.7 8.1 20.7 8.1 21.7 8 20.8 8 20.7 8"/><polygon class="cls-2" points="20.7 8.1 20.7 8.2 20.8 8.2 20.7 8.2 20.9 8.2 21 8.5 21.7 8 20.7 8.1"/><polygon class="cls-2" points="20.7 8.2 20.7 8.2 20.7 8.2 20.7 8.2"/><polygon class="cls-2" points="19.5 8 20.2 8.5 20.2 8.3 19.5 8"/><polygon class="cls-2" points="20.7 8.2 20.8 8.2 20.7 8.2 20.7 8.2 20.7 8.2"/><polygon class="cls-2" points="20.2 8.3 20.3 8.2 20.5 8.2 20.5 8.1 20.6 8.2 20.7 8.2 20.7 8.2 20.7 8 20.5 8 20.5 8 20.3 8 19.5 8 20.2 8.3"/><polygon class="cls-2" points="20.9 8.2 20.7 8.2 20.7 8.2 20.8 8.3 20.8 8.3 20.8 8.4 21.3 9.2 21 8.5 20.9 8.2"/><polygon class="cls-2" points="20.8 8.4 20.7 8.4 20.8 8.6 20.6 8.8 21.3 9.2 20.8 8.4"/><polygon class="cls-2" points="20.6 8.3 20.8 8.3 20.7 8.2 20.7 8.2 20.7 8.1 20.7 8.1 20.7 8.2 20.7 8.2 20.6 8.2 20.6 8.3"/><polygon class="cls-2" points="20.6 8.3 20.6 8.2 20.5 8.1 20.5 8.2 20.6 8.3"/><polygon class="cls-2" points="20.8 8.6 20.7 8.4 19.9 9.2 20.6 8.8 20.8 8.6"/><polygon class="cls-2" points="20.7 8.4 20.8 8.4 20.8 8.3 20.8 8.3 20.6 8.3 20.5 8.2 20.3 8.2 20.2 8.3 20.2 8.5 19.9 9.2 20.7 8.4"/><polygon class="cls-2" points="9.4 10.6 9.2 11.3 9.3 11.3 9.4 10.6"/><polygon class="cls-2" points="9.3 11.3 9.5 11.3 9.7 11.3 9.4 10.6 9.3 11.3 9.3 11.3"/><polygon class="cls-2" points="9.5 11.3 9.5 11.5 9.5 11.5 9.5 11.5 9.5 11.5 10.5 11.3 9.7 11.3 9.5 11.3"/><polygon class="cls-2" points="9.5 11.5 9.5 11.5 9.6 11.5 9.5 11.6 9.7 11.5 9.8 11.8 10.5 11.3 9.5 11.5"/><polygon class="cls-2" points="9.5 11.5 9.5 11.5 9.5 11.5 9.5 11.5"/><polygon class="cls-2" points="8.3 11.3 9 11.8 9 11.7 8.3 11.3"/><polygon class="cls-2" points="9.5 11.6 9.6 11.5 9.5 11.5 9.5 11.6 9.5 11.6"/><polygon class="cls-2" points="9.1 11.5 9.3 11.6 9.3 11.5 9.4 11.6 9.5 11.5 9.5 11.5 9.5 11.3 9.3 11.3 9.3 11.3 9.2 11.3 8.3 11.3 9 11.7 9.1 11.5"/><polygon class="cls-2" points="9.7 11.5 9.5 11.6 9.5 11.6 9.6 11.7 9.6 11.7 9.6 11.7 10.1 12.6 9.8 11.8 9.7 11.5"/><polygon class="cls-2" points="9.5 11.5 9.5 11.5 9.4 11.6 9.4 11.6 9.6 11.7 9.5 11.6 9.5 11.5 9.5 11.5 9.5 11.5 9.5 11.5"/><polygon class="cls-2" points="9.6 11.7 9.5 11.8 9.7 11.9 9.4 12.1 10.1 12.6 9.6 11.7"/><polygon class="cls-2" points="9.4 11.6 9.3 11.5 9.3 11.6 9.4 11.6 9.4 11.6"/><polygon class="cls-2" points="9.7 11.9 9.5 11.8 8.7 12.6 9.4 12.1 9.7 11.9"/><polygon class="cls-2" points="9.5 11.8 9.6 11.7 9.6 11.7 9.6 11.7 9.4 11.6 9.3 11.6 9.1 11.5 9 11.7 9 11.8 8.7 12.6 9.5 11.8"/><polygon class="cls-2" points="9.4 7.2 9.2 8 9.3 8 9.4 7.2"/><polygon class="cls-2" points="9.3 8 9.5 8 9.7 8 9.4 7.2 9.3 8 9.3 8"/><polygon class="cls-2" points="9.5 8 9.5 8.2 9.5 8.2 9.5 8.1 9.5 8.1 10.5 8 9.7 8 9.5 8"/><polygon class="cls-2" points="9.5 8.1 9.5 8.2 9.6 8.2 9.5 8.2 9.7 8.2 9.8 8.5 10.5 8 9.5 8.1"/><polygon class="cls-2" points="9.5 8.2 9.5 8.2 9.5 8.2 9.5 8.2"/><polygon class="cls-2" points="8.3 8 9 8.5 9 8.3 8.3 8"/><polygon class="cls-2" points="9.5 8.2 9.6 8.2 9.5 8.2 9.5 8.2 9.5 8.2"/><polygon class="cls-2" points="9 8.3 9.1 8.2 9.3 8.2 9.3 8.1 9.4 8.2 9.5 8.2 9.5 8.2 9.5 8 9.3 8 9.3 8 9.2 8 8.3 8 9 8.3"/><polygon class="cls-2" points="9.7 8.2 9.5 8.2 9.5 8.2 9.6 8.3 9.6 8.3 9.6 8.4 10.1 9.2 9.8 8.5 9.7 8.2"/><polygon class="cls-2" points="9.6 8.4 9.5 8.4 9.7 8.6 9.4 8.8 10.1 9.2 9.6 8.4"/><polygon class="cls-2" points="9.4 8.3 9.6 8.3 9.5 8.2 9.5 8.2 9.5 8.1 9.5 8.1 9.5 8.2 9.5 8.2 9.4 8.2 9.4 8.3"/><polygon class="cls-2" points="9.4 8.3 9.4 8.2 9.3 8.1 9.3 8.2 9.4 8.3"/><polygon class="cls-2" points="9.7 8.6 9.5 8.4 8.7 9.2 9.4 8.8 9.7 8.6"/><polygon class="cls-2" points="9.5 8.4 9.6 8.4 9.6 8.3 9.6 8.3 9.4 8.3 9.3 8.2 9.1 8.2 9 8.3 9 8.5 8.7 9.2 9.5 8.4"/><path class="cls-2" d="M27.5,0H2.5A2.5,2.5,0,0,0,0,2.5V6.7H30V2.5A2.5,2.5,0,0,0,27.5,0Z"/><path class="cls-2" d="M0,17.5A2.5,2.5,0,0,0,2.5,20h25A2.5,2.5,0,0,0,30,17.5V13.3H0Z"/></g></svg>