<svg xmlns="http://www.w3.org/2000/svg" xmlns:xlink="http://www.w3.org/1999/xlink" viewBox="0 0 30 20"><defs><style>.cls-1{fill:#fafafa;}.cls-2{fill:#15694f;}.cls-3{fill:#ce2931;}.cls-4{fill:#a9ac72;}.cls-5{fill:#f1a821;}.cls-6{fill:#78742f;}.cls-7{fill:#c6c7a6;}.cls-8{fill:#1d2430;}.cls-9{fill:#fff;}.cls-10{fill:#f9c93d;}.cls-11{fill:#987d2e;}.cls-12{fill:#af7129;}.cls-13{fill:#826d2b;}.cls-14{fill:#fccb3e;}.cls-15{fill:#705c25;}.cls-16{fill:#41421b;}.cls-17{fill:#aa8c30;}.cls-18{fill:#9ca168;}.cls-19{fill:#727832;}.cls-20{fill:#016949;}.cls-21{fill:#ce202b;}.cls-22{fill:#35c2dc;}.cls-23{fill:#0b72a7;}.cls-24{fill:#f9ab52;}.cls-25{fill:#963321;}.cls-26{fill:#231f20;}.cls-27{fill:#8dbfbf;}.cls-28{fill:#07544f;}.cls-29{fill:#10858a;}.cls-30{fill:url(#radial-gradient);}.cls-31{fill:url(#radial-gradient-2);}.cls-32{fill:url(#radial-gradient-3);}.cls-33{fill:url(#radial-gradient-4);}.cls-34{fill:url(#radial-gradient-5);}.cls-35{fill:#f05971;}.cls-36{fill:url(#radial-gradient-6);}.cls-37{fill:#e92a37;}.cls-38{fill:#f7e200;}.cls-39{fill:#914821;}.cls-40{fill:#ab6e29;}.cls-41{fill:#4d2b18;}.cls-42{fill:#d3a668;}.cls-43{fill:#904720;}.cls-44{fill:#202020;}.cls-45{fill:#202220;}.cls-46{fill:#4c423a;}.cls-47{fill:#81401e;}.cls-48{fill:#b0732a;}.cls-49{fill:#5d3b1e;}.cls-50{fill:#8c451f;}.cls-51{fill:#312317;}.cls-52{fill:#1f2121;}.cls-53{fill:#5d391a;}.cls-54{fill:#181818;}.cls-55{fill:#463a2e;}.cls-56{fill:#dcae6c;}.cls-57{fill:#885021;}.cls-58{fill:#b2722a;}.cls-59{fill:#6d4019;}.cls-60{fill:#d6d4cb;}.cls-61{fill:#6d431a;}.cls-62{fill:#bf802c;}.cls-63{fill:#fac83a;}.cls-64{fill:#fcf3d8;}.cls-65{fill:#fce9ae;}.cls-66{fill:#513626;}.cls-67{fill:#8b5223;}.cls-68{fill:url(#radial-gradient-7);}.cls-69{fill:url(#radial-gradient-8);}.cls-70{fill:url(#radial-gradient-9);}.cls-71{fill:url(#radial-gradient-10);}.cls-72{fill:url(#radial-gradient-11);}.cls-73{fill:url(#radial-gradient-12);}.cls-74{fill:url(#radial-gradient-13);}</style><radialGradient id="radial-gradient" cx="-71.94" cy="3057.14" r="4.12" gradientTransform="matrix(0.04, 0.02, 0.02, -0.04, -38.91, 147.02)" gradientUnits="userSpaceOnUse"><stop offset="0" stop-color="#fff"/><stop offset="1" stop-color="#f05971"/></radialGradient><radialGradient id="radial-gradient-2" cx="-71.94" cy="3057.14" r="4.12" xlink:href="#radial-gradient"/><radialGradient id="radial-gradient-3" cx="-71.94" cy="3057.14" r="4.12" xlink:href="#radial-gradient"/><radialGradient id="radial-gradient-4" cx="-71.94" cy="3057.14" r="4.12" xlink:href="#radial-gradient"/><radialGradient id="radial-gradient-5" cx="-71.96" cy="3057.09" r="4.17" xlink:href="#radial-gradient"/><radialGradient id="radial-gradient-6" cx="1602.05" cy="-752.32" r="4.12" gradientTransform="matrix(0, -0.05, -0.04, 0, -13.77, 88.64)" xlink:href="#radial-gradient"/><radialGradient id="radial-gradient-7" cx="-3003.42" cy="1872.27" r="4.12" gradientTransform="matrix(0.02, 0.02, 0.04, -0.03, -3.82, 127.01)" xlink:href="#radial-gradient"/><radialGradient id="radial-gradient-8" cx="-3003.42" cy="1872.27" r="4.12" gradientTransform="matrix(0.02, 0.02, 0.04, -0.03, -3.82, 127.01)" xlink:href="#radial-gradient"/><radialGradient id="radial-gradient-9" cx="-3003.42" cy="1872.27" r="4.12" gradientTransform="matrix(0.02, 0.02, 0.04, -0.03, -3.82, 127.01)" xlink:href="#radial-gradient"/><radialGradient id="radial-gradient-10" cx="-3003.36" cy="1872.3" r="4.12" gradientTransform="matrix(0.02, 0.02, 0.04, -0.03, -3.82, 127.01)" xlink:href="#radial-gradient"/><radialGradient id="radial-gradient-11" cx="-3003.42" cy="1872.27" r="4.13" gradientTransform="matrix(0.02, 0.02, 0.04, -0.03, -3.82, 127.01)" xlink:href="#radial-gradient"/><radialGradient id="radial-gradient-12" cx="-3003.42" cy="1872.26" r="4.13" gradientTransform="matrix(0.02, 0.02, 0.04, -0.03, -3.82, 127.01)" xlink:href="#radial-gradient"/><radialGradient id="radial-gradient-13" cx="-3003.42" cy="1872.29" r="4.1" gradientTransform="matrix(0.02, 0.02, 0.04, -0.03, -3.82, 127.01)" xlink:href="#radial-gradient"/></defs><title>mx</title><g id="Layer_83" data-name="Layer 83"><polygon class="cls-1" points="13.7 10.6 13.7 10.6 13.7 10.6 13.7 10.6 13.7 10.6"/><polygon class="cls-1" points="13.4 8.6 13.4 8.6 13.4 8.6 13.4 8.6"/><path class="cls-1" d="M15.9,9Z"/><path class="cls-1" d="M15.8,9.1Z"/><polygon class="cls-1" points="15.7 9.1 15.7 9.1 15.7 9.1 15.7 9.1"/><polygon class="cls-1" points="13.4 7.5 13.4 7.5 13.4 7.5 13.4 7.5 13.4 7.5"/><path class="cls-1" d="M16.9,13.2Z"/><path class="cls-1" d="M14.3,7.9Z"/><path class="cls-1" d="M14.4,9.7Z"/><path class="cls-1" d="M15.2,13.2Z"/><path class="cls-1" d="M12.2,9.9Z"/><polygon class="cls-1" points="14.3 6.6 14.3 6.6 14.3 6.6 14.3 6.6"/><path class="cls-1" d="M17.3,9Z"/><polygon class="cls-1" points="16 11 16 11 16 11 16 11"/><path class="cls-1" d="M14,7.5Z"/><path class="cls-1" d="M16.2,11h0Z"/><polygon class="cls-1" points="15.8 9 15.8 9 15.8 9 15.8 9"/><path class="cls-1" d="M17.1,9.1Z"/><path class="cls-1" d="M14.4,6.9Z"/><polygon class="cls-1" points="14.7 7.4 14.7 7.4 14.7 7.4 14.7 7.4"/><path class="cls-1" d="M14.4,7h0Z"/><polygon class="cls-1" points="13.3 10 13.3 10 13.3 10 13.3 10"/><polygon class="cls-1" points="14.8 11.6 14.8 11.6 14.8 11.6 14.8 11.6"/><path class="cls-1" d="M14,10.2Z"/><polygon class="cls-1" points="12.3 8.7 12.3 8.7 12.3 8.7 12.3 8.7"/><path class="cls-1" d="M15.8,11h0Z"/><path class="cls-1" d="M15.8,9.1Z"/><polygon class="cls-1" points="15.7 10.7 15.7 10.6 15.7 10.7 15.7 10.7"/><polygon class="cls-1" points="14.3 10.8 14.3 10.8 14.3 10.8 14.3 10.8"/><polygon class="cls-1" points="14.9 8.3 14.9 8.3 14.9 8.3 14.9 8.3"/><polygon class="cls-1" points="15 7.6 15 7.6 15 7.6 15 7.6"/><polygon class="cls-1" points="14.2 8.2 14.2 8.2 14.2 8.2 14.2 8.2"/><polygon class="cls-1" points="13.7 9.8 13.7 9.8 13.7 9.8 13.7 9.8 13.7 9.8"/><path class="cls-1" d="M13,9.8h0Z"/><path class="cls-1" d="M14.6,7.9Z"/><path class="cls-1" d="M10,0V20H20.1V0Zm2,9.5h.1v.2h.1a.1.1,0,0,1,.1-.1h0s.1.1,0,.1h.1v.2h.3a.1.1,0,0,0,.1.1l.2.2h0a.3.3,0,0,1,.1.2h.7v.2h.1v.2h.3a.1.1,0,0,0,.1.1h1.1a.1.1,0,0,1-.1-.1v-.2h-.1l-.2-.2c0,.1,0,.3-.1.3h-.5c-.1,0-.1,0,0-.1h-.2c-.2,0-.2-.1-.2-.1h-.6a.1.1,0,0,1-.1.1h-.4V9.8l-.2-.2h-.2a.4.4,0,0,1,.1-.3h0a.1.1,0,0,0-.1-.1h.2a.2.2,0,0,1,.2.2h-.1v.2H13v.2h.3c0-.1,0-.1.1-.1h-.4a.6.6,0,0,1-.2-.5h0c0-.2,0-.3.1-.4l.2-.2c.1-.1.3-.1.4-.3h-.7c-.2-.1-.1-.3-.1-.4h-.1V7.3L13,7h.2v.3h0a.1.1,0,0,0-.1-.1h.2c0,.1-.1.1-.1.2h.2c0-.1.1-.1.2-.2V7h.1V6.7a.3.3,0,0,1,.1.2h0c0-.1.1-.3.1-.4h0v0h.1a.4.4,0,0,1,.1.3h.5l.2.2h.1a.1.1,0,0,0-.1-.1V6.9h-.4c0-.1,0-.2.1-.2h.6a3.5,3.5,0,0,1,1.2.4h.4a.1.1,0,0,0-.1.1h0a2.2,2.2,0,0,1,.7.6,5.9,5.9,0,0,1,.4.8H18a1.2,1.2,0,0,1,.1.5c0,.3-.1.2-.1.5a5.4,5.4,0,0,1-.1.8h0c0,.1,0,.2-.1.2h0V9.2h-.1c0-.1,0-.2-.1-.2h0v.7c0,.2,0,.8-.1.8s0-.4,0-.5V9.8a1.5,1.5,0,0,0-.1-.6V9h0v1.4c-.1-.1,0-.3,0-.4l-.2-.4c-.1-.3,0-.3-.1-.4H17a1,1,0,0,1,.1.4.6.6,0,0,1,.1.4.3.3,0,0,1-.1-.2.8.8,0,0,1-.1-.4l-.2-.2h0a.5.5,0,0,0,.1.3c0,.1,0,.2.1.2h-.1V9.4c-.1-.1-.1-.1-.1-.2L16.5,9h-.1c.1.1.1.3.2.4h0l-.3-.4h-.1L16,8.9h-.1v.5l.8.6.6.4h.1a.4.4,0,0,1-.3.2h-.9l-.3-.3h-.1v.2h.4s.1,0,0-.1h1.3c0-.1,0-.1.1-.1h-.2s.1.1,0,.1H17a.1.1,0,0,0,.1.1h-.8a.1.1,0,0,0-.1-.1h-.4a.1.1,0,0,0-.1.1h.5c0,.1,0,.1-.1.1h.4c0,.1,0,.2-.1.2h-.7c0,.1-.1.1-.2.1h-1a.1.1,0,0,1-.1-.1h-.9c-.1,0,0-.1.1-.2h.2c0-.1-.1-.1-.2-.1h-.3l-.2.2v-.2h-.1c-.1,0-.3-.2-.2-.3H15v-.2H14v-.2H12.4l-.2-.3h0v-.2h-.2V10H12Zm6.9,1.1h-.2v.2c.1-.2.2-.1.2-.1v.2c-.1.1-.1.4-.3.4h-.2a.1.1,0,0,0-.1.1H18a.4.4,0,0,1-.2.3H16.7l-.6.2-.4-.2c0-.1-.1-.1-.2-.2h0l.2.2h-.4a.1.1,0,0,0-.1-.1h-.3a.3.3,0,0,0-.1.2h-.4a.4.4,0,0,1,.2-.3h-.3l.2-.2h-.2l-.2.2h-.2v-.2c0-.1-.2.1-.2.1h-.2c0-.1.2-.1.1-.2h-.4c0-.1.2-.1.1-.2h-.8c-.1,0,0-.1,0-.1h-.2l-.2-.2h.2c.1-.1-.2,0-.3-.1a.3.3,0,0,1-.1-.2h.3c.1-.1-.3-.2-.3-.2h-.1l-.2-.2h-.5c0-.1.2,0,.3,0s-.2-.1-.3-.1V11h.2v-.2h-.1c-.1,0,0-.1-.1-.1l-.2-.2H11c.1,0-.1-.2-.1-.2a.1.1,0,0,1,.2,0V9.6h.3c0,.1.1-.1.1,0s-.2.2-.2.3h.2l-.2.2c0,.1.1,0,.1,0s-.1.1-.1.2v0h0a.1.1,0,0,1,.1-.1h-.1v.4h.2v0h.1c.1.1,0,.3,0,.3h.1c.1.1,0,.3,0,.4h0a.1.1,0,0,0,.1.1h.1v.2h.1v-.2h.2v-.2h.1v.3c.1.1.1-.1.1-.2v.2c.1,0,0,.2.1.3h.1v.2h.3v.3h.3c.1-.1,0-.1-.1-.1h.1l.3.2c.1,0-.1-.1,0-.2h.1l.2.2h.1v.2h1.5l.3-.2h.8v-.2H17c.1,0,.1-.1.1-.2v-.2c0-.1.3-.3.3-.3h.1V12H18v-.2h.2v-.5a.8.8,0,0,1,.2-.4h.4v-.2h.2V9.6h.1v.2a.4.4,0,0,1,.1-.3H19v.2h.1a.4.4,0,0,1,.1.3c0,.2-.2.3-.3.4h0Z"/><path class="cls-1" d="M14.1,9.7Z"/><path class="cls-1" d="M14.4,7.8c.1,0,.1,0,.1.1S14.5,7.8,14.4,7.8Z"/><path class="cls-1" d="M16.8,12.9Z"/><path class="cls-1" d="M14.3,10h.1c0-.1-.1-.2-.2-.3V9.3c0-.1,0-.1-.1-.1H14V8.9c0-.1-.1-.1-.1-.2l.2-.4H14V7.9h-.4V8h-.1a.3.3,0,0,1-.1.2l-.4.4c-.1,0-.1.1-.1.2h0v.2a.1.1,0,0,0,.1.1H14v.3h0a.1.1,0,0,1,.1.1h.1Z"/><path class="cls-1" d="M14.6,7.9Z"/><polygon class="cls-1" points="14.9 7.7 14.9 7.7 14.9 7.7 14.9 7.7"/><polygon class="cls-1" points="14.9 8.3 14.9 8.3 14.9 8.3 14.9 8.3"/><path class="cls-2" d="M2.5,0A2.5,2.5,0,0,0,0,2.5v15A2.5,2.5,0,0,0,2.5,20H10V0Z"/><path class="cls-3" d="M27.5,0H20.1V20h7.4A2.5,2.5,0,0,0,30,17.5V2.5A2.5,2.5,0,0,0,27.5,0Z"/><path class="cls-4" d="M13,7.7h-.1a.1.1,0,0,1,.1.1.3.3,0,0,1,.1-.2Z"/><path class="cls-4" d="M13.1,7.7Z"/><path class="cls-4" d="M13.1,7.9Z"/><path class="cls-4" d="M13.2,7.7c0-.1,0-.1.1-.1h-.1Z"/><path class="cls-4" d="M12.9,7.6h.3c0-.1.1-.1.1-.2h-.4a.1.1,0,0,1,.1-.1h0c-.1.1-.2.2-.2.1h-.1c0,.1,0,.1.1.2h0v.2C12.8,7.6,12.8,7.6,12.9,7.6Z"/><path class="cls-4" d="M12.9,7.6h0a.1.1,0,0,0-.1.1v0Z"/><path class="cls-4" d="M13.1,7.6h0Z"/><path class="cls-4" d="M13.3,10.1h-.2a.1.1,0,0,0,.1-.1h.1Z"/><path class="cls-4" d="M13,9.9h0A.1.1,0,0,0,13,9.9Z"/><path class="cls-4" d="M13.2,10h-.1Z"/><path class="cls-4" d="M12.5,8.5Z"/><polygon class="cls-4" points="12.9 9.6 12.9 9.6 12.9 9.6 12.9 9.6"/><path class="cls-4" d="M12.5,9.5h0Z"/><polygon class="cls-4" points="13.1 10.3 13.1 10.3 13.1 10.3 13.1 10.3"/><path class="cls-4" d="M13.2,10.3Z"/><path class="cls-4" d="M12.8,8.9h0Z"/><path class="cls-4" d="M12.5,9.3h0Z"/><path class="cls-4" d="M12.6,8.9h0Z"/><path class="cls-4" d="M12.7,9.2h0Z"/><path class="cls-4" d="M12.7,9.1Z"/><path class="cls-4" d="M13.3,10.3Z"/><path class="cls-4" d="M12.7,8.8h-.1a.1.1,0,0,0-.1.1h.2Z"/><path class="cls-4" d="M12.7,8.7h-.2v.2h0a.1.1,0,0,1,.1-.1Z"/><path class="cls-4" d="M12.8,9.8Z"/><path class="cls-4" d="M12.5,8.6Z"/><path class="cls-4" d="M12.9,9.9h0a.1.1,0,0,0-.1.1h.1Z"/><path class="cls-4" d="M12.8,9.6h-.1v.2h.1Z"/><path class="cls-4" d="M12.7,9.5h0v.2h.1Z"/><path class="cls-4" d="M12.7,9.3Z"/><path class="cls-4" d="M12.7,9.4Z"/><path class="cls-5" d="M13.2,7h-.1a.1.1,0,0,1,.1.1h0V7Z"/><path class="cls-4" d="M13.1,9h-.2V9Z"/><path class="cls-4" d="M13.7,8.3h0Z"/><path class="cls-4" d="M13.1,8.8h.2V8.6h-.1v.2Z"/><path class="cls-4" d="M13.6,7.9h0a.1.1,0,0,0-.1-.1h.1Z"/><path class="cls-4" d="M13.6,7.9h0Z"/><path class="cls-4" d="M13.4,8.5h.1V8.3h-.1v.2Z"/><path class="cls-4" d="M13.4,8.6h0Z"/><path class="cls-4" d="M13.6,8h0Z"/><path class="cls-4" d="M13.1,9.4Z"/><path class="cls-4" d="M13.1,9.1h0Z"/><path class="cls-4" d="M13.3,9.5Z"/><path class="cls-4" d="M13.1,9.3Z"/><path class="cls-4" d="M13.3,9.5Z"/><path class="cls-4" d="M13.1,9Z"/><polygon class="cls-4" points="13.2 8.4 13.2 8.4 13.2 8.4 13.2 8.4"/><path class="cls-4" d="M13.1,9.3Z"/><polygon class="cls-4" points="13.5 7.8 13.5 7.8 13.5 7.8 13.5 7.8"/><path class="cls-4" d="M13.2,9.5Z"/><path class="cls-6" d="M12.9,9.9h0Z"/><path class="cls-6" d="M13,9.9Z"/><path class="cls-6" d="M12.8,9.7h-.1a.1.1,0,0,1,.1.1h0Z"/><path class="cls-6" d="M12.9,9.6h0Z"/><path class="cls-6" d="M13,10.1h0Z"/><path class="cls-6" d="M13.1,10.1h0Z"/><path class="cls-6" d="M12.9,10.2H13c0,.1,0,.1.1.1h-.2Z"/><path class="cls-6" d="M13.2,10.2h0Z"/><path class="cls-6" d="M13.4,10.2h0Z"/><path class="cls-6" d="M13,9.2h0Z"/><path class="cls-6" d="M13.1,9.4h0Z"/><path class="cls-7" d="M12.8,7.3c0,.1.1,0,.2-.1h-.1a.1.1,0,0,1-.1.1h0Z"/><path class="cls-8" d="M13.1,7.1Z"/><path class="cls-4" d="M13,7.1Z"/><path class="cls-4" d="M12.8,7.2H13l-.2.2Z"/><path class="cls-6" d="M13.1,9.2Z"/><path class="cls-6" d="M13,9V9H13Z"/><path class="cls-6" d="M13.1,8.8h0V8.6h0Z"/><path class="cls-6" d="M13.3,8.8Z"/><path class="cls-6" d="M13.2,8.4h0Z"/><path class="cls-6" d="M13.4,8.7h-.2c.1.1.1.1.1.2S13.3,8.7,13.4,8.7Z"/><path class="cls-6" d="M13.4,8.5h0V8.3h0Z"/><path class="cls-6" d="M13.5,8.2h0Z"/><path class="cls-6" d="M13.7,8.4Z"/><path class="cls-6" d="M13.1,7.8h0Z"/><path class="cls-6" d="M13.5,8.5h0Z"/><path class="cls-6" d="M13.8,8.3Z"/><path class="cls-6" d="M13.6,8.2h0Z"/><path class="cls-6" d="M13.6,8.2h0Z"/><path class="cls-6" d="M13.7,8.1Z"/><polygon class="cls-9" points="12.9 7.9 12.9 7.9 12.9 7.9 12.9 7.9"/><path class="cls-9" d="M13.2,7.6h-.3c-.1,0-.1,0-.1.1h0a.1.1,0,0,1,.1-.1h0v.2h0v0h.2Zm-.2.3a.1.1,0,0,0-.1-.1h.2A.3.3,0,0,0,13,7.9Z"/><path class="cls-9" d="M12.7,9.4h-.1V9.4Z"/><path class="cls-9" d="M12.7,9.1Z"/><path class="cls-9" d="M12.5,9.2h0Z"/><path class="cls-9" d="M12.8,9.5h-.1V9.5Z"/><path class="cls-9" d="M12.6,9.4h0Z"/><path class="cls-9" d="M12.4,8.6h0Z"/><path class="cls-9" d="M12.6,9h0Z"/><path class="cls-9" d="M12.5,8.6h0Z"/><path class="cls-9" d="M12.8,8.9h0Z"/><path class="cls-9" d="M12.6,8.7h0a.1.1,0,0,0-.1.1h0A.1.1,0,0,1,12.6,8.7Z"/><path class="cls-9" d="M12.9,9.7h-.1a.1.1,0,0,1,.1-.1Z"/><path class="cls-9" d="M13.2,9.5Z"/><path class="cls-9" d="M13.1,9.2h.2c0-.1,0-.1-.1-.2h.2v.2h-.2v.2h-.1v.2h-.2V9h.1Zm.4-1h0Zm-.1.1h.1v.2h-.1Zm-.2.2h0Zm0,.1v.2h-.2V8.6Zm-.2.2h0V8.8Zm0,.4h0Z"/><path class="cls-9" d="M13.6,8h0Z"/><path class="cls-9" d="M13.3,10.2h-.1a.1.1,0,0,1-.1.1h.1V10h-.1V9.9h.2Zm-.2,0h.1Zm-.2-.3H13a.1.1,0,0,1,0,.2h-.1Z"/><path class="cls-9" d="M13.1,7.1Z"/><path class="cls-9" d="M13,7.1h-.2a.1.1,0,0,0,.1-.1H13a.1.1,0,0,0-.1.1H13Z"/><path class="cls-6" d="M13.1,7.6h0Z"/><path class="cls-6" d="M12.9,7.6h0Z"/><path class="cls-6" d="M12.9,7.9H13v0Z"/><path class="cls-6" d="M13.4,10.2h-.3c-.1,0-.1,0-.1-.1h-.2a.1.1,0,0,0-.1-.1h-.3a.1.1,0,0,1,.1.1h0a.4.4,0,0,0-.1.3h.2l.2.2v.4h.4a.1.1,0,0,0,.1-.1Z"/><path class="cls-6" d="M12.5,8.5h.6V9.6h-.2V9.3h.1a.2.2,0,0,0-.2-.2Z"/><polygon class="cls-4" points="13.8 9.6 13.8 9.6 13.8 9.6 13.8 9.6 13.8 9.6"/><path class="cls-4" d="M13.8,9.8Z"/><path class="cls-4" d="M13.8,9.8Z"/><path class="cls-4" d="M13.8,9.6Z"/><path class="cls-10" d="M12.2,8.5Z"/><path class="cls-11" d="M12.2,8.7h0Z"/><path class="cls-10" d="M12.3,8.5Z"/><path class="cls-11" d="M12.3,8.7Z"/><path class="cls-10" d="M12.4,8.6Z"/><path class="cls-11" d="M12.4,8.7Zm0,0h0Z"/><path class="cls-12" d="M13.6,9.5Z"/><path class="cls-12" d="M13.5,9.5h0Z"/><path class="cls-12" d="M13.4,9.5h0Z"/><path class="cls-12" d="M13.2,9.4h.2a.1.1,0,0,1-.1-.1h-.1Z"/><path class="cls-12" d="M13.1,9.3a.1.1,0,0,0,.1-.1h-.1Z"/><path class="cls-12" d="M13.3,9.5Z"/><path class="cls-12" d="M13.2,9.1h0Z"/><path class="cls-12" d="M13.2,9.3Z"/><path class="cls-12" d="M13.2,8.9Z"/><path class="cls-12" d="M13.1,9.1Z"/><path class="cls-12" d="M13.2,9.2h0Z"/><path class="cls-13" d="M13.7,9.7h-.8V8.8h.7c-.1.2-.3.2-.4.3l-.2.2c-.1.1-.1.2-.1.4h0a.6.6,0,0,0,.2.5h.6Z"/><polygon class="cls-9" points="13.8 9.8 13.8 9.8 13.8 9.8 13.8 9.8 13.8 9.8"/><path class="cls-9" d="M13.8,9.8Z"/><path class="cls-14" d="M13.7,9.5h0Z"/><path class="cls-14" d="M13.8,9.5h0a.1.1,0,0,0-.1-.1h.1Z"/><path class="cls-14" d="M13.5,9.3h0Z"/><path class="cls-14" d="M14,9.6Z"/><path class="cls-14" d="M13.4,9.3Z"/><path class="cls-14" d="M13.6,9.3h0Z"/><path class="cls-14" d="M13.9,9.5H14V9.3h-.1Z"/><path class="cls-14" d="M13.8,9.6Z"/><path class="cls-14" d="M13.8,9.6h0v.2Z"/><path class="cls-14" d="M13.4,9.3Z"/><path class="cls-12" d="M13.9,9.9h0Z"/><path class="cls-12" d="M14,9.7h0Z"/><path class="cls-12" d="M13.9,9.7h0Z"/><polygon class="cls-12" points="13.8 9.7 13.8 9.7 13.8 9.7 13.8 9.7"/><path class="cls-14" d="M13.8,8.1h0Z"/><polygon class="cls-14" points="13.9 8.1 13.9 8.1 13.9 8.1 13.9 8.1 13.9 8.1"/><path class="cls-14" d="M13.7,7.7Z"/><path class="cls-14" d="M13.6,7.9a.1.1,0,0,1,.1-.1h-.2a.1.1,0,0,1,.1.1Z"/><path class="cls-14" d="M13.8,7.8h-.1C13.7,7.9,13.8,7.9,13.8,7.8Z"/><path class="cls-14" d="M13.7,8Z"/><path class="cls-14" d="M13.8,8.1Z"/><polygon class="cls-12" points="13.8 8.2 13.8 8.2 13.8 8.2 13.8 8.2"/><path class="cls-12" d="M13.8,8.3Z"/><path class="cls-12" d="M13.7,8.1Z"/><path class="cls-12" d="M13.8,8.2h0Z"/><path class="cls-12" d="M13.8,8.2Z"/><path class="cls-13" d="M13.8,9.8Z"/><path class="cls-15" d="M14,9.9Z"/><path class="cls-16" d="M14.1,9.8Z"/><path class="cls-14" d="M16.9,12.6h0v.2h0Z"/><polygon class="cls-17" points="16.9 12.6 16.9 12.6 16.9 12.6 17 12.7 17 12.7 16.9 12.6 16.9 12.6"/><path class="cls-17" d="M16.9,12.8v-.2h0v.2Z"/><path class="cls-14" d="M16.8,12.5h0Z"/><path class="cls-17" d="M16.9,12.6Z"/><path class="cls-17" d="M16.9,12.6Z"/><path class="cls-17" d="M16.9,12.6Z"/><path class="cls-14" d="M17,12.9h0Z"/><path class="cls-14" d="M16.9,12.8Z"/><path class="cls-17" d="M17.1,13h0Z"/><polygon class="cls-17" points="17 12.8 17.1 12.9 17.1 12.9 17.1 12.9 17 12.8 17 12.8"/><path class="cls-17" d="M17,12.9Z"/><path class="cls-14" d="M17.1,13Z"/><path class="cls-17" d="M17.1,12.9h0Zm.2.1h0Z"/><path class="cls-17" d="M17.1,13Z"/><path class="cls-17" d="M17,12.9Z"/><path class="cls-17" d="M17,12.9Z"/><path class="cls-17" d="M17.3,13Z"/><path class="cls-14" d="M18.5,10.5h0Z"/><path class="cls-17" d="M18.6,10.7h-.1v.2Z"/><path class="cls-17" d="M18.5,10.5Z"/><path class="cls-14" d="M18.4,10.5h0Z"/><path class="cls-17" d="M18.5,10.5Zm-.1,0Z"/><path class="cls-17" d="M18.5,10.5Z"/><path class="cls-17" d="M18.5,10.5Z"/><path class="cls-14" d="M18.8,10.6h0Z"/><path class="cls-17" d="M18.9,10.6h0Z"/><path class="cls-17" d="M18.7,10.6h0Z"/><path class="cls-14" d="M19,10.6h0Z"/><path class="cls-17" d="M18.9,10.6Z"/><path class="cls-17" d="M18.9,10.6Z"/><path class="cls-17" d="M18.8,10.6Z"/><path class="cls-14" d="M18,11.8h.1v-.2Z"/><path class="cls-17" d="M17.9,11.7H18v.2h-.2Z"/><path class="cls-17" d="M18,11.9h-.1v.2Z"/><path class="cls-14" d="M17.8,11.7h0Z"/><path class="cls-17" d="M17.9,11.7Zm-.1,0h0Z"/><path class="cls-17" d="M18,11.7Z"/><path class="cls-17" d="M17.9,11.7h0Z"/><path class="cls-14" d="M18.2,11.9Z"/><path class="cls-17" d="M18.2,12h0Z"/><path class="cls-17" d="M18.1,11.9h0Z"/><path class="cls-14" d="M18.3,12h0Z"/><path class="cls-17" d="M18.2,11.9Z"/><path class="cls-17" d="M18.2,11.9h0Z"/><path class="cls-17" d="M18.2,12Z"/><path class="cls-18" d="M18.5,11a.8.8,0,0,1-.1.4h-.1v.2a1,1,0,0,1,.1-.4c0-.2.1-.4.2-.4h-.1a.7.7,0,0,0-.2.4.6.6,0,0,0-.1.4v.2h-.2v.2l-.3.2-.3.2.3-.4.3-.2h-.2v-.2a.5.5,0,0,1-.1.3l-.3.3v.2h-.3s.1-.2.2-.2h.1l.4-.2q.3-.1.3-.3H18a.2.2,0,0,0,.2-.2h.2l.3-.5h0v-.2h-.1Z"/><path class="cls-18" d="M18.5,11.6h0c.2,0,.2-.3.3-.4V11h-.2Z"/><path class="cls-18" d="M18.7,10.6h0V10h0V9.7h-.1v.5h.1v.3h0Z"/><path class="cls-18" d="M16.8,12.9Z"/><path class="cls-18" d="M16.6,13.2l-.6.2h-.3l.4.2.6-.2h-.1Z"/><path class="cls-18" d="M17.6,12.6h.2a.4.4,0,0,0,.2-.3h0v.2Z"/><path class="cls-18" d="M16.6,13l-.7.2h0l.6-.2h.1a.1.1,0,0,0-.2,0L16,13h.6Z"/><path class="cls-18" d="M16.8,12.9Z"/><path class="cls-18" d="M18.9,9.8c-.1.1-.1.1-.1.3v.3s.1-.3.2-.3V9.8h0V9.6h-.1Z"/><path class="cls-18" d="M18.9,10.3l-.2.2h.2c.1-.1.3-.2.3-.4a.4.4,0,0,0-.1-.3h0s0,.3-.1.3S18.9,10.2,18.9,10.3Z"/><path class="cls-18" d="M15.2,13.2h.5l-.2-.2h-.3Z"/><path class="cls-18" d="M17.6,11.9Z"/><path class="cls-19" d="M16.9,13.2Z"/><path class="cls-19" d="M17.2,12.6l.3-.2.3-.2V12h-.1l-.3.2Z"/><path class="cls-19" d="M16,13l.4-.2a.1.1,0,0,1,.2,0h-.5l-.3.2H16Z"/><path class="cls-19" d="M17.2,12.6v-.2l.3-.3a.5.5,0,0,0,.1-.3h-.1s-.3.2-.3.3v.2c0,.1,0,.2-.1.2h.2Z"/><path class="cls-19" d="M18.4,11.6h-.2a.2.2,0,0,1-.2.2h.2a.1.1,0,0,1,.1-.1h.2l.2-.5h.2s-.1-.1-.2.1h0Z"/><path class="cls-19" d="M18.7,10.5l.2-.2c0-.1.1-.1.1-.3s.1-.3.1-.3H19v.3c-.1,0-.2.3-.2.3v-.3c0-.2,0-.2.1-.3V9.5h-.1a.4.4,0,0,0-.1.3h0v.5h-.2c-.1,0-.2.2-.2.4a1,1,0,0,0-.1.4v-.2h.1a.8.8,0,0,0,.1-.4v-.2h.1Z"/><path class="cls-19" d="M16,13.3h-.5c.1.1.2.1.2.2H16l.6-.2H16Z"/><path class="cls-19" d="M15.6,13.4h0Z"/><path class="cls-19" d="M16.8,12.9h-.3l-.6.2h0l.7-.2Z"/><path class="cls-19" d="M18.1,11.6a.6.6,0,0,1,.1-.4.7.7,0,0,1,.2-.4h-.2a.8.8,0,0,0-.2.4v.5h0Z"/><path class="cls-19" d="M17.6,12.5l-.4.2h-.1c-.1,0-.2.2-.2.2h.7l.3-.2v-.2h-.1Q17.9,12.4,17.6,12.5Z"/><path class="cls-19" d="M18.7,10.2h-.1v.4h0Z"/><path class="cls-14" d="M13.1,12.5h0Z"/><path class="cls-17" d="M13.1,12.5Z"/><path class="cls-14" d="M13.1,12.7h.1v-.2Z"/><polygon class="cls-14" points="13.1 12.6 13.1 12.6 13.1 12.6 13.1 12.6"/><path class="cls-17" d="M13.1,12.8h0Z"/><path class="cls-17" d="M13.1,12.6h0v.2h0v-.3Z"/><path class="cls-14" d="M13.1,12.6h0Z"/><path class="cls-17" d="M13.1,12.7Z"/><path class="cls-17" d="M13.1,12.6h0Z"/><path class="cls-17" d="M13.1,12.7Z"/><path class="cls-14" d="M12.7,12.9Z"/><path class="cls-17" d="M12.8,13Z"/><path class="cls-14" d="M13,12.9Z"/><path class="cls-17" d="M12.9,12.9h0Z"/><path class="cls-17" d="M13.1,12.9h0Z"/><path class="cls-14" d="M12.9,13Z"/><path class="cls-17" d="M12.9,12.9Z"/><path class="cls-17" d="M13,12.9Z"/><path class="cls-17" d="M12.8,13h0Z"/><path class="cls-17" d="M12.7,12.9Z"/><path class="cls-14" d="M12.1,11.5Z"/><path class="cls-17" d="M12.1,11.6h0Z"/><path class="cls-14" d="M12.1,11.7H12v.2h.1v-.2Z"/><polygon class="cls-17" points="12 11.9 12 11.7 12 11.8 12 11.7 12 11.7 12 11.8 12 11.8 12 11.9"/><path class="cls-17" d="M12.1,11.7h0v.2h0v-.2Z"/><path class="cls-14" d="M12.1,11.7h0Z"/><path class="cls-17" d="M12,11.7Zm0-.1Z"/><path class="cls-17" d="M12,11.7Z"/><path class="cls-17" d="M12.1,11.7Z"/><path class="cls-14" d="M11.6,11.9Z"/><path class="cls-17" d="M11.7,11.9Z"/><path class="cls-14" d="M11.9,11.9h0Z"/><path class="cls-17" d="M12,11.9Z"/><path class="cls-17" d="M12,11.9h0Z"/><polygon class="cls-17" points="11.8 11.9 11.8 11.9 11.8 11.9 11.8 11.9 12 11.9 12 11.9 12 11.9 11.8 11.9 11.8 11.9"/><path class="cls-14" d="M11.7,12h0Z"/><path class="cls-17" d="M11.8,11.9Zm0,.1h0Z"/><path class="cls-17" d="M11.9,11.9h0Z"/><path class="cls-17" d="M11.8,12h0Z"/><path class="cls-17" d="M11.6,11.9Z"/><path class="cls-17" d="M11.7,11.9Z"/><path class="cls-14" d="M11.6,10.3Z"/><path class="cls-17" d="M11.5,10.3h.1a.1.1,0,0,0-.1.1Z"/><path class="cls-14" d="M11.4,10.5h0v-.2Z"/><path class="cls-17" d="M11.5,10.5h-.1v.2h0v-.2Z"/><path class="cls-17" d="M11.4,10.6h.1v.2Z"/><path class="cls-14" d="M11.5,10.5h0Z"/><path class="cls-17" d="M11.5,10.4h0Z"/><path class="cls-17" d="M11.5,10.5Z"/><path class="cls-17" d="M11.4,10.5h0Z"/><path class="cls-14" d="M11,10.4h0Z"/><path class="cls-17" d="M11,10.5Z"/><path class="cls-14" d="M11.2,10.6h0Z"/><path class="cls-17" d="M11.1,10.5h0Z"/><path class="cls-17" d="M11.3,10.7Z"/><path class="cls-14" d="M11,10.6h0Z"/><polygon class="cls-14" points="11 10.5 11 10.5 11 10.5 11 10.5 11 10.5"/><path class="cls-17" d="M11.1,10.6Zm-.1,0Z"/><path class="cls-17" d="M11.2,10.6Z"/><path class="cls-17" d="M11,10.5Z"/><path class="cls-17" d="M11.1,10.6Z"/><path class="cls-17" d="M11,10.5h0Z"/><path class="cls-17" d="M11,10.5Z"/><path class="cls-18" d="M14.3,13.4Z"/><path class="cls-18" d="M14.5,13.4v-.2h-.1l-.2.2h.2Z"/><path class="cls-18" d="M14.4,13.1h-.3v0h-.2v.2h-.2c.1,0,.1-.1,0-.1h-.4c.1.1-.1.1-.1.2h.4c.1.1-.1.1-.1.2h.2s.2-.2.2-.1v.2h.2l.2-.2h.1Z"/><path class="cls-18" d="M13,13.1Z"/><path class="cls-18" d="M13.2,12.9h-.6v-.2a.1.1,0,0,0-.1-.1h0v.2h-.2v-.2h-.2V12H12a.1.1,0,0,1-.1-.1h-.2v-.2a.1.1,0,0,1-.1.1h-.1c.1,0,0-.1,0-.1h0l-.2-.3h.1v-.2h0v-.2c0-.1.1-.1.1-.2s-.1.1-.1,0l.2-.2h-.2c0-.1.2-.1.2-.3s-.1.1-.1,0h0s-.1.2-.2.2h0c.1,0,.1.2.1.3h-.2v.2c.1,0,.3,0,.3.1s-.3-.1-.3,0h.5l.2.2H12s.4.1.3.2H12a.3.3,0,0,0,.1.2c.1.1.4,0,.3.1h-.2l.2.2h.2s-.1.1,0,.1h.6Z"/><path class="cls-19" d="M14.8,13.1Z"/><path class="cls-19" d="M14.8,13.2h-.2v.2h.3Z"/><path class="cls-19" d="M12.2,12h.2v.2h.2v-.2h0a.1.1,0,0,1,.1.1v.2h.3v-.2h-.1c-.1-.1,0-.3-.1-.3V12c0,.1,0,.3-.1.2v-.3h-.1V12h-.2Z"/><path class="cls-19" d="M13.1,13.1h.7c.1,0,.1.1,0,.1H14v-.2h.2v0h.2v-.2h-.1l-.2-.2h-.1c-.1.1.1.2,0,.2l-.3-.2h-.1c.1,0,.2,0,.1.1h-.4Z"/><path class="cls-19" d="M12.2,12Z"/><path class="cls-19" d="M11.3,10.8l.2.3h0s.1.1,0,.1h.1a.1.1,0,0,0,.1-.1v.2h.2c0-.1.1-.3,0-.4h-.1s.1-.2,0-.3h-.1v0h-.3Z"/><path class="cls-19" d="M11.3,10.7c0-.1,0-.3-.1-.3h0c.1,0,.2-.2.2-.2h-.3v.2a.1.1,0,0,0-.2,0s.2.2.1.2h-.2l.2.2c.1,0,0,.1.1.1h.1v.2h0Z"/><path class="cls-9" d="M15.4,13.5h0Z"/><path class="cls-9" d="M14.9,13.5c.1-.1.2-.2.2-.3v-.3h-.2v.3l-.2.2h0Z"/><path class="cls-20" d="M14.9,13.3V13h-.3a.4.4,0,0,0-.2.3h.3Z"/><path class="cls-20" d="M15.3,13.6h-.1a.1.1,0,0,1,.1.1h0Z"/><path class="cls-21" d="M15.2,13.1h-.1v.3c0,.1-.1.2-.2.3l-.2.2h.1a.3.3,0,0,1,.1-.2h.3Z"/><path class="cls-21" d="M15.1,13.3h0Z"/><path class="cls-22" d="M15.5,12.7H14.3v-.5h-.6c.1,0,.2,0,.2.1h1.8l.3-.2h-.3v.3h-.2Z"/><path class="cls-23" d="M13.3,12Z"/><path class="cls-23" d="M13.8,11.7h0Z"/><path class="cls-23" d="M15.7,12.1Z"/><path class="cls-23" d="M16.3,12.5H16l-.3.2H14.4a.1.1,0,0,0,.1.1h1c.1,0,.2,0,.2-.1h.6Z"/><path class="cls-23" d="M16.5,12.1h-.4c.1,0,.1,0,.1-.1h.3Z"/><path class="cls-23" d="M13.8,12.5h.1c0-.1-.1-.1-.2-.1h-.1c.1,0,.2,0,.2.1h0Z"/><path class="cls-23" d="M13,11.6h0Z"/><circle class="cls-9" cx="13.1" cy="12.1" r="0.1"/><path class="cls-23" d="M13.3,12.1H13v.2l.2-.2Zm-.2.1h0Z"/><path class="cls-9" d="M13.8,11.7h0Z"/><path class="cls-23" d="M13.8,11.7Zm-.1-.1h0Z"/><path class="cls-9" d="M16.3,12.4h0Z"/><path class="cls-23" d="M16.3,12.4h.1c.1,0,.1-.1.1-.2h-.2Zm.1-.1h0Z"/><path class="cls-10" d="M13,11.7h-.3c-.1.1.1.3.2.3Zm-.1-.1Z"/><path class="cls-9" d="M13,11.6h0Z"/><path class="cls-10" d="M13.8,12.5h-.2c-.1.1-.2.2-.1.2h.3Zm-.1.1Z"/><path class="cls-9" d="M13.7,12.5h0Z"/><path class="cls-10" d="M16.5,12Zm.2,0h0Z"/><path class="cls-9" d="M16.6,12.1h0Z"/><path class="cls-24" d="M15.3,12.7h-.1c0-.1-.1-.2-.1-.3H15v-.2h-.2v.6l.2.2h.1Z"/><path class="cls-25" d="M14.7,11.9Z"/><path class="cls-24" d="M15.2,12.7l-.2-.2v-.4l-.2-.2h-.1v.2a.3.3,0,0,1,.1.2v.2l.2.2h.2Z"/><path class="cls-25" d="M14.5,11.9h.2l.2.2v.4l.2.2h0l-.2-.2v-.6h-.3Z"/><path class="cls-24" d="M14.5,12.5h.4v-.2c0-.1,0-.2-.1-.2v-.2l-.2-.2h-.2v.5h0v.2h.2Z"/><path class="cls-25" d="M14.3,12h0v.5h0v-.2h0v-.5h.2l.2.2v.2c.1,0,.1.1.1.2v.2H15l-.2-.2v-.2a.3.3,0,0,0-.1-.2v-.2h-.3Z"/><path class="cls-24" d="M15.5,12.1h-.4v.2a.4.4,0,0,1,.1.3h.2v-.2h.1V12h-.2Z"/><path class="cls-25" d="M15.3,12.6h0a.4.4,0,0,0-.1-.3v-.2h0c0,.1.1.2.1.3Z"/><path class="cls-25" d="M15.5,11.9h.2v.4h0v-.3h-.2Z"/><path class="cls-25" d="M15.6,12.6h0v.2h.1Z"/><path class="cls-25" d="M15.2,12.2h.3v-.2h0v.2h-.2Z"/><path class="cls-26" d="M16.3,11.8h0Z"/><path class="cls-26" d="M16.9,11.8h0Z"/><path class="cls-26" d="M17,11.8h.1a.1.1,0,0,1-.1-.1h0Z"/><path class="cls-26" d="M17.2,11.6h0Z"/><path class="cls-26" d="M16.9,11.1h0Z"/><path class="cls-26" d="M16.7,11.2h-.1a.1.1,0,0,1,.1-.1Z"/><path class="cls-27" d="M17,11.2h0Z"/><path class="cls-27" d="M16.2,11.5h.5a.1.1,0,0,0,.1-.1h0a.1.1,0,0,1,.1-.1h-.7Z"/><path class="cls-28" d="M17.2,11.3v.2h-1a.1.1,0,0,1,.1.1h.9Z"/><path class="cls-28" d="M16.2,11.5h.5a.1.1,0,0,0-.1.1h-.4Z"/><path class="cls-29" d="M17.2,11.6h0v-.2h-.3a.1.1,0,0,0-.1.1h-.7l.5.2Zm-.3-.2Zm-.1.2Zm-.2,0Z"/><path class="cls-28" d="M16.8,11.3Z"/><path class="cls-28" d="M16.9,11.4Z"/><polygon class="cls-28" points="16.9 11.4 16.9 11.4 16.9 11.4 16.9 11.4"/><path class="cls-28" d="M16.9,11.5h0Z"/><path class="cls-28" d="M16.9,11.7h0Z"/><path class="cls-28" d="M16.8,11.6Z"/><path class="cls-28" d="M16.7,11.7h0Z"/><path class="cls-28" d="M16.6,11.5Z"/><path class="cls-28" d="M16.4,11.7h0Z"/><path class="cls-27" d="M16.9,11.5h0Z"/><path class="cls-27" d="M16.9,11.7h0Z"/><path class="cls-27" d="M16.7,11.6Z"/><path class="cls-27" d="M16.7,11.5h0Z"/><path class="cls-27" d="M16.8,11.4h0Z"/><path class="cls-27" d="M16.4,11.5h0Z"/><path class="cls-26" d="M16.4,11.6Z"/><path class="cls-26" d="M16.6,11.5h0Z"/><path class="cls-26" d="M16.7,11.5h0Z"/><path class="cls-26" d="M16.7,11.3h.1a.1.1,0,0,1-.1.1Z"/><path class="cls-26" d="M16.9,11.4Z"/><path class="cls-26" d="M16.9,11.6Z"/><path class="cls-28" d="M16.3,11.8h.9l-.6.2-.5-.2h.2Z"/><path class="cls-26" d="M12.7,10.2h0Z"/><path class="cls-26" d="M13,10.5Z"/><path class="cls-26" d="M12.2,10.5Z"/><path class="cls-26" d="M12.4,10.9Z"/><path class="cls-26" d="M12.7,11h0Z"/><path class="cls-27" d="M12.7,10.3h0v.2h.1c.1.2.1.3,0,.4H13v-.2h0v-.3h-.1c-.1-.2-.2-.2-.3-.2h.2Z"/><path class="cls-27" d="M12.3,10.4h0Z"/><path class="cls-28" d="M12.9,11h-.6v.2h0l.2.3h.5Z"/><path class="cls-28" d="M12.4,10.2h.1c.1,0,.2,0,.3.2h.3a.3.3,0,0,0-.1-.2h0l-.2-.2a.1.1,0,0,1-.1-.1h-.3Z"/><path class="cls-29" d="M12.3,10.4h0a.7.7,0,0,0,.6.5h0c.1-.1.1-.2,0-.4h-.1v-.2h-.4Zm.5.4Zm-.1,0h0Zm-.1-.2Zm-.1-.2Zm-.1.2Z"/><path class="cls-28" d="M12.9,11a.7.7,0,0,1-.6-.5h.6Z"/><path class="cls-28" d="M12.9,10.8Z"/><path class="cls-28" d="M12.8,10.9h0Z"/><path class="cls-28" d="M12.9,10.6Z"/><path class="cls-28" d="M12.7,10.8h0Z"/><path class="cls-28" d="M12.6,10.7h0Z"/><polygon class="cls-28" points="12.6 10.6 12.6 10.6 12.6 10.6 12.6 10.6"/><path class="cls-28" d="M12.5,10.6h0Z"/><path class="cls-28" d="M12.5,10.5h0Z"/><polygon class="cls-28" points="12.4 10.4 12.4 10.4 12.4 10.4 12.4 10.4"/><polygon class="cls-28" points="12.4 10.4 12.4 10.4 12.4 10.4 12.4 10.4"/><path class="cls-28" d="M12.7,10.5h0Z"/><path class="cls-28" d="M12.7,10.4Z"/><polygon class="cls-27" points="12.5 10.4 12.5 10.4 12.5 10.4 12.5 10.4 12.5 10.4"/><path class="cls-27" d="M12.5,10.5h0Z"/><path class="cls-27" d="M12.4,10.6Z"/><path class="cls-27" d="M12.7,10.4Z"/><path class="cls-27" d="M12.6,10.6Z"/><path class="cls-27" d="M12.9,10.6Z"/><path class="cls-27" d="M12.7,10.8Z"/><path class="cls-27" d="M12.8,10.8Z"/><path class="cls-26" d="M12.9,10.6Z"/><path class="cls-26" d="M12.7,10.3h0Z"/><path class="cls-26" d="M12.5,10.4h0Z"/><path class="cls-26" d="M12.4,10.4Z"/><path class="cls-26" d="M12.6,10.6Z"/><path class="cls-26" d="M12.4,10.6Z"/><path class="cls-26" d="M12.8,10.8Z"/><path class="cls-26" d="M12.8,10.8Z"/><path class="cls-26" d="M12.6,10.9h0Z"/><path class="cls-28" d="M12.5,10.2Z"/><path class="cls-28" d="M12.2,10.4h0Z"/><path class="cls-28" d="M13,10.8h-.1v.3Z"/><path class="cls-26" d="M13.3,10.7h0Z"/><path class="cls-26" d="M13,11.2h.1a.1.1,0,0,0-.1-.1Z"/><path class="cls-26" d="M13.4,11.4h0Z"/><path class="cls-26" d="M13.3,11.4h0Z"/><path class="cls-27" d="M13.1,11.2a.4.4,0,0,1-.1-.3h.5v-.2h-.4c-.1,0-.1.1-.1.2h.1Z"/><path class="cls-27" d="M13.7,11h0Z"/><path class="cls-28" d="M13.8,10.8V11H14v-.2Z"/><path class="cls-28" d="M13,10.8h0V11h0a.1.1,0,0,1,.1.1H13c0-.1,0-.2.1-.2H13Z"/><path class="cls-29" d="M13.9,11H13a.4.4,0,0,0,.1.3h.8c0-.1.1-.1.1-.2Zm-.8-.1h0Zm.2.3h0Zm.1-.1Zm.2.2Zm.2-.1h0Z"/><path class="cls-28" d="M13.3,10.9Z"/><path class="cls-28" d="M13.2,11Z"/><path class="cls-28" d="M13.5,11.1Z"/><path class="cls-28" d="M13.4,11.1Z"/><path class="cls-27" d="M13.3,11.2Z"/><path class="cls-28" d="M13.6,11.2h0Z"/><path class="cls-28" d="M13.8,11.2Z"/><path class="cls-27" d="M13.3,10.9Z"/><path class="cls-27" d="M13.2,11Z"/><path class="cls-27" d="M13.3,11.2Z"/><path class="cls-27" d="M13.5,11.1Z"/><path class="cls-27" d="M13.4,11.1Z"/><path class="cls-27" d="M13.8,11.2h0Z"/><path class="cls-27" d="M13.6,11.3Z"/><path class="cls-26" d="M13.7,11.2h0Z"/><path class="cls-26" d="M13.6,11.3Z"/><path class="cls-26" d="M13.4,11.1Z"/><path class="cls-26" d="M13.4,11.1h0Z"/><path class="cls-26" d="M13.3,11.2h0Z"/><polygon class="cls-26" points="13.3 11.2 13.3 11.2 13.3 11.2 13.3 11.2"/><path class="cls-26" d="M13.2,11.2h0Z"/><path class="cls-26" d="M13.2,11Z"/><path class="cls-26" d="M13.3,10.9Z"/><path class="cls-28" d="M13.9,11.3Z"/><path class="cls-28" d="M13.9,11h0v-.2h.1Z"/><path class="cls-26" d="M14.1,10.9h0Z"/><path class="cls-26" d="M14.3,10.8Z"/><path class="cls-26" d="M14.3,10.8h.1a.1.1,0,0,1-.1-.1Z"/><path class="cls-26" d="M14.7,10.9h0Z"/><path class="cls-26" d="M14.8,10.9h0Z"/><path class="cls-26" d="M14.1,11.6Z"/><path class="cls-26" d="M14.5,11.7Z"/><path class="cls-26" d="M14.8,11.6Z"/><path class="cls-26" d="M14.8,11.6Z"/><path class="cls-27" d="M15,11.2Z"/><path class="cls-27" d="M14,11.4h0a.3.3,0,0,1,.3-.3h.5l.3.2h.1c0-.1,0-.1.1-.1H14v.2h0Z"/><path class="cls-27" d="M15.3,11.2Z"/><path class="cls-28" d="M15.4,11.1Z"/><path class="cls-28" d="M14,11.1h0c0,.1-.1.1-.1.2h0v.2h0s-.1-.1,0-.1h0v-.2h0v-.2H14Z"/><path class="cls-28" d="M14.9,11.1h0Z"/><path class="cls-29" d="M15.1,11.3l-.3-.2h-.5a.3.3,0,0,0-.3.3h1.1Zm-.9-.1h.1a.1.1,0,0,1-.1.1Zm.1.3Zm.2-.2Zm.2.2h0Zm.1-.1h0Z"/><path class="cls-28" d="M14.3,11.2h-.1A.1.1,0,0,0,14.3,11.2Z"/><path class="cls-28" d="M14.4,11.1h0Z"/><path class="cls-28" d="M14.7,11.2h0Z"/><path class="cls-28" d="M14.9,11.3Z"/><path class="cls-28" d="M14.9,11.3Z"/><path class="cls-28" d="M14.8,11.4h0Z"/><path class="cls-28" d="M14.8,11.3Z"/><path class="cls-28" d="M14.7,11.4h0Z"/><path class="cls-28" d="M14.4,11.4Z"/><polygon class="cls-27" points="14.2 11.2 14.2 11.2 14.2 11.2 14.2 11.2"/><path class="cls-27" d="M14.2,11.2Z"/><path class="cls-27" d="M14.4,11.1h0Z"/><path class="cls-27" d="M14.8,11.1h0Z"/><path class="cls-28" d="M14.6,11.3h0Z"/><path class="cls-27" d="M14.4,11.4Z"/><path class="cls-27" d="M14.6,11.3h-.1A.1.1,0,0,1,14.6,11.3Z"/><path class="cls-27" d="M14.8,11.4h0Z"/><path class="cls-27" d="M14.7,11.5Z"/><path class="cls-26" d="M14.8,11.3h0Z"/><path class="cls-26" d="M14.7,11.1h0Z"/><path class="cls-26" d="M14.5,11.2a.1.1,0,0,0,.1.1.1.1,0,0,0-.1-.1Z"/><polygon class="cls-26" points="14.6 11.3 14.6 11.3 14.6 11.3 14.6 11.3"/><path class="cls-26" d="M14.5,11.3h.1a.1.1,0,0,1-.1-.1h0Z"/><path class="cls-26" d="M14.4,11Z"/><path class="cls-26" d="M14.2,11.2Z"/><path class="cls-26" d="M14.2,11.2Z"/><path class="cls-26" d="M14.6,11.5h0Z"/><path class="cls-26" d="M14.3,11.4Z"/><path class="cls-28" d="M15.1,11.4H14c-.1,0,0,.1,0,.1h1.1Z"/><path class="cls-28" d="M14.8,11h-.7v.2h.8Z"/><path class="cls-28" d="M15.3,11.1h-.2c-.1,0-.1.1,0,.1h.2Z"/><path class="cls-28" d="M15.3,11.1Z"/><path class="cls-29" d="M15.2,11.4Z"/><path class="cls-29" d="M15.2,11.4Z"/><path class="cls-29" d="M15.3,11.5Z"/><path class="cls-29" d="M15.3,11.4Z"/><path class="cls-29" d="M15.7,11.6Z"/><path class="cls-29" d="M15.7,11.4Z"/><path class="cls-29" d="M15.2,11.3h-.1v.2h0v.4h.4a.4.4,0,0,1,.1-.3h.6v-.2h-.9v.2c-.1.2,0,.2-.1.2h0c-.1-.1,0-.2,0-.3v-.2h.1Zm.6.3h0Zm-.2,0Zm-.4.3h0Z"/><path class="cls-29" d="M15.4,11.2Z"/><path class="cls-28" d="M15.5,11.8h0Z"/><path class="cls-28" d="M15.8,11.7Z"/><polygon class="cls-28" points="16.3 11.4 16.3 11.4 16.3 11.4 16.3 11.4"/><path class="cls-28" d="M15,11.9h0v.2h0v-.4h0v-.2H15v.2Z"/><path class="cls-28" d="M16.2,11.5Z"/><path class="cls-28" d="M15.4,11.2h0Z"/><polygon class="cls-28" points="15.4 12.1 15.4 12.1 15.4 12.1 15.4 12.1"/><path class="cls-28" d="M16,11.7h0Z"/><path class="cls-27" d="M15.3,11.5h-.1v.2c0,.1-.1.2,0,.3h0c.1,0,0,0,.1-.2v-.2h.9c0-.1-.1-.1-.1-.2h-.5v.2h-.3Zm-.1,0h0Zm0,.2h0Zm.8-.3h0Zm-.3-.1a.1.1,0,0,0,.1-.1h-.1Zm-.3.2h0Z"/><path class="cls-27" d="M15.3,11.9h0Z"/><path class="cls-27" d="M15.6,11.6h0Z"/><path class="cls-27" d="M15.9,11.7h0Z"/><path class="cls-27" d="M15.2,11.7Z"/><path class="cls-28" d="M15.3,11.9h0Z"/><path class="cls-28" d="M16,11.5h0Z"/><path class="cls-28" d="M15.4,11.6Z"/><path class="cls-28" d="M15.6,11.6h0Z"/><path class="cls-28" d="M15.7,11.4Z"/><path class="cls-28" d="M16.2,11.2h-.9v.2h.3v-.2h.5c0,.1.1.1.1.2h0v.2h-.6a.4.4,0,0,0-.1.3h0v-.2h.2a.1.1,0,0,1,.1-.1h.4Z"/><path class="cls-28" d="M16.2,11.1h0Z"/><polygon class="cls-28" points="15.5 11.2 15.5 11.2 15.5 11.2 15.5 11.2"/><path class="cls-28" d="M15.5,11.2h0Z"/><path class="cls-26" d="M15.2,11.6Z"/><path class="cls-26" d="M15.4,11.5h0Z"/><path class="cls-26" d="M15.3,11.8Z"/><path class="cls-26" d="M15.3,11.8h0Z"/><path class="cls-26" d="M15.6,11.6Z"/><path class="cls-26" d="M15.6,11.5h0Z"/><path class="cls-26" d="M15.8,11.3h0a.1.1,0,0,1-.1.1h.1Z"/><path class="cls-26" d="M16,11.4h0Z"/><path class="cls-26" d="M15.9,11.6Z"/><path class="cls-14" d="M13.7,10.4Z"/><path class="cls-1" d="M13.8,10.8v-.2h0Z"/><path class="cls-30" d="M13.8,10.8v-.2h0Z"/><path class="cls-27" d="M13.5,10.9h0Z"/><path class="cls-31" d="M13.5,10.9h0Z"/><path class="cls-28" d="M13.5,10.7Z"/><path class="cls-32" d="M13.5,10.7Z"/><path class="cls-29" d="M13.6,11h0Z"/><path class="cls-33" d="M13.6,11h0Z"/><polygon class="cls-14" points="13.6 10.6 13.6 10.6 13.6 10.6 13.6 10.6"/><polygon class="cls-34" points="13.6 10.6 13.6 10.6 13.6 10.6 13.6 10.6"/><path class="cls-17" d="M13.7,10.5h0Z"/><path class="cls-17" d="M13.7,10.4Z"/><polygon class="cls-17" points="13.7 10.4 13.7 10.4 13.7 10.4 13.7 10.4 13.7 10.4"/><path class="cls-17" d="M13.6,10.6Z"/><path class="cls-14" d="M13.7,10.3h0Z"/><path class="cls-17" d="M13.7,10.4Z"/><path class="cls-17" d="M13.7,10.4Z"/><path class="cls-17" d="M13.7,10.4Z"/><path class="cls-14" d="M17.5,10.9Z"/><polygon class="cls-17" points="17.5 10.9 17.4 11 17.5 11 17.5 10.9"/><polygon class="cls-17" points="17.6 10.9 17.6 10.9 17.6 10.9 17.5 11 17.5 11 17.6 10.9 17.6 10.9 17.6 10.9"/><path class="cls-17" d="M17.5,10.9Z"/><polygon class="cls-17" points="17.5 10.9 17.6 10.8 17.6 10.8 17.5 10.9 17.5 10.9"/><path class="cls-14" d="M17.6,10.8h.1C17.7,10.7,17.6,10.7,17.6,10.8Z"/><path class="cls-17" d="M17.6,10.8h.1c-.1,0-.1,0-.1.1Z"/><path class="cls-17" d="M17.6,10.8h0c0-.1.1-.1.1,0h-.1Z"/><path class="cls-17" d="M17.5,10.9h0Z"/><path class="cls-14" d="M12.1,9.8Z"/><path class="cls-17" d="M12.1,9.6h0V9.6Z"/><path class="cls-17" d="M12.1,9.8Z"/><path class="cls-14" d="M12,9.6h0S11.9,9.6,12,9.6Z"/><path class="cls-35" d="M12.2,9.9h-.1v.2h.3V10h-.2Z"/><path class="cls-36" d="M12.2,9.9h-.1v.2h.3V10h-.2Z"/><path class="cls-17" d="M12,9.7Z"/><path class="cls-17" d="M12,9.6h0c-.1,0,0-.1,0-.1h0Z"/><path class="cls-17" d="M12.1,9.8h0Z"/><path class="cls-37" d="M12.1,10Zm0,0h0Z"/><path class="cls-37" d="M12.1,9.8Zm.1.1h0Z"/><path class="cls-37" d="M12.2,9.9h.1c.1,0,0-.1,0-.1h0a.1.1,0,0,0-.1.1h0Zm0-.1h0Z"/><path class="cls-38" d="M12,9.9h0Z"/><path class="cls-38" d="M12.2,9.8h0Z"/><path class="cls-38" d="M12.3,9.9h0Z"/><path class="cls-37" d="M13.6,10.6Zm-.1-.1h0Z"/><path class="cls-37" d="M13.6,10.6Zm.1-.1Z"/><path class="cls-37" d="M13.7,10.6Zm.1-.1h0Z"/><path class="cls-38" d="M13.6,10.6h0Z"/><path class="cls-38" d="M13.6,10.5h0Z"/><path class="cls-38" d="M13.8,10.6Z"/><path class="cls-37" d="M17.4,11Zm-.1,0h0Z"/><path class="cls-37" d="M17.4,11Z"/><path class="cls-37" d="M17.4,11.1h.1c.1,0,0-.1,0-.1h-.1Z"/><path class="cls-38" d="M17.4,10.9h0Z"/><path class="cls-38" d="M17.5,11Z"/><path class="cls-38" d="M17.5,11.1Z"/><path class="cls-39" d="M14.3,7.5Z"/><path class="cls-39" d="M14.1,7.5Z"/><path class="cls-39" d="M14.1,7.5Z"/><path class="cls-39" d="M14.3,7.5h0Z"/><path class="cls-39" d="M14.1,7.5Z"/><path class="cls-40" d="M15.2,7.6Z"/><path class="cls-40" d="M15.2,7.6v.2h.2l-.2-.2a.1.1,0,0,1,.1.1h.1a.1.1,0,0,0,0-.2h0V7.2h-.1a.1.1,0,0,1,.1.1V7h-.8s0-.2.1-.2h0v.2H15l.2.2h0Z"/><path class="cls-41" d="M15.2,7.3h0L15,6.9h-.4V6.4h0c-.1,0-.1.1-.1.2H15v.2a.1.1,0,0,1,.1.1h0Z"/><path class="cls-41" d="M15.4,7Z"/><path class="cls-41" d="M14.7,6.5h.5a.1.1,0,0,1,.1.1h.1v.2a.1.1,0,0,0-.1-.1h.1v.2h0a.1.1,0,0,1,0,.2h-.1a.1.1,0,0,0-.1-.1l.2.2h-.2l.3-.4c0-.2-.1-.6-.2-.6h.1V6.8L15,6.6h-.3Z"/><polygon class="cls-41" points="15.3 7.4 15.3 7.4 15.3 7.4 15.3 7.4"/><path class="cls-41" d="M15.3,6.8h0Z"/><path class="cls-42" d="M14.6,6.7h.1C14.6,6.5,14.6,6.7,14.6,6.7Z"/><path class="cls-43" d="M16.4,7.4c0-.1-.2-.2-.2-.3h0c-.1,0-.1,0-.1.1s.2.1.2.2h-.2a.4.4,0,0,1,.2.3h.1a.1.1,0,0,0-.1-.1h.1Z"/><path class="cls-43" d="M16.5,9.2,16.3,9l-.2-.2h.1l-.3-.2h0v.2h0l.2.2h.1l.3.4h-.1Z"/><polygon class="cls-43" points="17 9.1 17 9.1 17.1 9.1 17 9.1 17 9.1"/><polygon class="cls-43" points="17.6 9 17.6 9 17.6 9 17.6 9 17.6 9"/><path class="cls-43" d="M15.6,8.6l.2-.2h0v.2h-.1Z"/><polygon class="cls-43" points="15.7 8.2 15.7 8.2 15.7 8.2 15.7 8.2"/><path class="cls-43" d="M16.9,8.3h.2l.3.2V7.9h0c0-.1-.2-.3-.4-.5l-.3-.3h0l.5.5a1,1,0,0,1,.2.5h0c-.1.1-.2,0-.2-.1l-.3-.4-.3-.3h-.1l.2.2h.1l.2.2h0Z"/><path class="cls-43" d="M16.7,8.2h.1V8.2h-.1l-.3-.3h-.1l.2.2Z"/><path class="cls-43" d="M16.5,8.4h0v.2Z"/><path class="cls-43" d="M16.9,9.5V9.1l-.3-.2h-.2c0-.1,0-.1-.1-.1h.3c.1,0,.2.2.2.2v.2Z"/><path class="cls-43" d="M16.9,9.6Z"/><polygon class="cls-43" points="17.5 8.3 17.5 8.4 17.5 8.4 17.5 8.3 17.5 8.3"/><path class="cls-43" d="M16.9,9.1v.2c0,.2,0,.3.1.3a.5.5,0,0,0-.1-.3c0-.1,0-.2-.1-.2l-.2-.3a.2.2,0,0,0-.2-.2h0l-.3-.2c-.1,0,.1.3.1.3h.4v.3h.1Z"/><path class="cls-43" d="M16.2,8.6V8.3h-.2l.2.2h.1Z"/><path class="cls-43" d="M15.9,8.3a.1.1,0,0,0,.1-.1V8h0v.2a.1.1,0,0,1-.1.1h0Z"/><path class="cls-43" d="M18,8.4h0Z"/><path class="cls-43" d="M16.8,6.9h0c.1,0,.2,0,.2.1h.1v.2h.4a.1.1,0,0,1,.1.1h0v.2H18c-.1,0-.3-.6-.5-.9l-.6-.6Z"/><path class="cls-43" d="M16.5,7Z"/><polygon class="cls-43" points="17.3 9 17.3 9 17.3 9 17.3 9 17.3 9"/><path class="cls-43" d="M17.3,9.6c0-.1,0-.4-.1-.5V8.9l-.2-.3h-.1V9h.2v.4c0,.1.1.1.1.2Z"/><path class="cls-43" d="M17.8,9.2Z"/><path class="cls-43" d="M15.9,8.9a.2.2,0,0,0-.1-.3h0v0h-.2v.2Z"/><path class="cls-43" d="M16.3,8.3h-.2l.2.2Z"/><path class="cls-43" d="M16.5,7.1h0c-.1.1-.1.1-.2,0h.2Z"/><path class="cls-43" d="M17.6,9.4c0-.2,0-.2-.1-.2a.8.8,0,0,0-.1-.4c0-.1-.1-.2-.1-.3h-.1c.1.1.1.4,0,.4h.1v.2c.1.1.1.5.1.6h.1Z"/><path class="cls-43" d="M17.5,8.6a1.4,1.4,0,0,1,.2.4h0V8.8l-.2-.4h-.1S17.5,8.4,17.5,8.6Z"/><path class="cls-43" d="M15.8,6.6l-.2-.2h.3Z"/><path class="cls-43" d="M16,8.1h.1V7.9H16c.1,0,.1.1.1.2Z"/><path class="cls-43" d="M14.9,6.4H15l.4.2V7h0c.1,0,.1.3.1.5s0,.3-.1.4h-.1v.2h.2c0-.1.2-.2.2-.2h0a.3.3,0,0,0,.1-.2H16s0-.2-.1-.2H16a.3.3,0,0,0-.1-.2h0a.1.1,0,1,1-.2,0h.1a.1.1,0,0,1-.1.1h0c0-.1-.1-.1-.2-.1h-.2c-.2,0-.3-.1-.3-.2s.1-.1.3-.1l.5.2h.1c.1.1,0,.1,0,.2h.2V6.6l-.2-.2.3.2h.1c0,.1,0,.1.1.1h.1V6.8c-.1-.1-.2-.2-.1-.2h.4c-.1.1-.2-.1-.2-.1a2.6,2.6,0,0,0-1.3-.3c-.2,0-.3.1-.3,0Z"/><path class="cls-43" d="M15.5,7Z"/><path class="cls-40" d="M15.9,8.9H16a.1.1,0,0,0-.1-.1h-.1A.2.2,0,0,1,15.9,8.9Z"/><path class="cls-41" d="M17.5,8.4l.2.4V9h.1v.8h0c.1,0,.1-.3.1-.5a4.3,4.3,0,0,0-.1-.5h.1c.1.1.1.6.1.7h-.1v.7a2.1,2.1,0,0,1,.1-.6c0-.3.1-.3.1-.5s-.1-.5-.2-.5h-.4Z"/><polygon class="cls-41" points="17.6 9 17.6 9 17.6 9 17.6 9 17.6 9 17.6 9"/><path class="cls-43" d="M17.9,8.7h0c0,.1-.1.1-.1,0h0a.6.6,0,0,1,.1.4v.2H18C18,9.3,18,8.8,17.9,8.7Z"/><polygon class="cls-41" points="17.1 8.2 17.1 8.2 17.1 8.2 17.1 8.2"/><path class="cls-41" d="M17.1,8.4h.2c0,.1.1.2.1.3a.8.8,0,0,1,.1.4c.1,0,.1,0,.1.2v.5h0V9.2c0-.1-.2-.4-.2-.5V8.5h-.2c0-.1-.1-.1-.1-.2h0Z"/><path class="cls-41" d="M17.7,8.7h0Z"/><path class="cls-41" d="M16.9,8.5h0l.2.3v.2c.1.1.1.4.1.5V10s0-.4-.1-.5V9.1l-.2-.3a.4.4,0,0,0-.1-.3h-.1Z"/><path class="cls-41" d="M16.6,8.6h-.1a.2.2,0,0,1,.2.2l.2.3c.1,0,.1.1.1.2a.5.5,0,0,1,.1.3h0V8.9l-.2-.3h-.2Z"/><path class="cls-41" d="M16.3,8.7h-.1c.1,0,.1,0,.1.1h.2l.3.2v.4h0V9.1l-.4-.3a.1.1,0,0,1,0-.2h-.1Z"/><path class="cls-41" d="M16.6,9.4c-.1-.1-.1-.3-.2-.3l-.2-.3h-.1l.2.2.2.2v.2h.1Z"/><path class="cls-41" d="M16.2,8.8Z"/><path class="cls-41" d="M17.5,8.4h.2V8.1l-.3-.5L17,7.4l.2.3.2.3h0v.3Z"/><path class="cls-41" d="M17.1,7.7l-.5-.5h-.1c.1.1.3.2.4.4l.4.5A1,1,0,0,0,17.1,7.7Z"/><path class="cls-41" d="M16.8,7.7l.3.4c0,.1.1.2.2.1h0l-.4-.5-.4-.3h0Z"/><path class="cls-41" d="M16.7,8.1h.2l-.3-.3h-.2Z"/><path class="cls-41" d="M16.5,8.4h0Z"/><path class="cls-41" d="M16.7,8.2,16.5,8l-.2-.2h0l.2.2h.2Z"/><path class="cls-41" d="M16.7,8.3h-.2L16.3,8h0l.2.3V8.2Z"/><path class="cls-41" d="M16.7,8.3Z"/><path class="cls-41" d="M16.3,8.1Z"/><path class="cls-41" d="M16.5,7.1h-.1L16,6.8c-.1,0,.1.1.2.2h.1C16.4,7.2,16.4,7.2,16.5,7.1Z"/><path class="cls-41" d="M16,8.1V7.9c0-.1,0-.2-.1-.2h0Z"/><path class="cls-41" d="M16,8.2V8h0A.1.1,0,0,0,16,8.2Z"/><path class="cls-41" d="M16.3,7.7a.4.4,0,0,0-.2-.3h.2c0-.1-.2-.2-.2-.2s0-.1.1-.1H16l.2.2h0a.1.1,0,0,1-.1.1h.2Z"/><path class="cls-41" d="M15.7,8.5V8.3h-.1Z"/><path class="cls-40" d="M16.4,8.9h0Z"/><path class="cls-40" d="M16.7,8.8h-.1V9h.1Z"/><path class="cls-40" d="M16.8,8.5h0V9h0V8.5Z"/><path class="cls-40" d="M17.2,8.5h-.1v.4h0C17.3,8.9,17.3,8.6,17.2,8.5Z"/><path class="cls-40" d="M17.2,8.8Z"/><path class="cls-40" d="M17.7,9h0a1.4,1.4,0,0,0-.2-.4c0-.2-.1-.2-.1-.2h0v.2h.1c0,.1.1.2.1.3h.1Z"/><path class="cls-42" d="M16.2,8.8h0v.1h0Z"/><path class="cls-42" d="M16.3,8.6h.3V8.4h0c-.1,0-.1-.1-.2-.2h0l.2.2h-.2Z"/><polygon class="cls-42" points="17.1 8.2 17.1 8.2 17.1 8.2 17.1 8.2"/><path class="cls-42" d="M17,8.2h-.1v.2Z"/><path class="cls-42" d="M16.7,8.4h.1v.2h-.2c0,.1,0,.1.1.1Z"/><path class="cls-6" d="M13.2,7.9h-.3V7.7h0V7.5h0c-.1-.1-.1-.1-.1-.2h.1L13,7h.3c0,.1-.1.1-.1.2h0c0-.1.1-.1.1-.2H13l-.3.3v.2h.1c0,.1-.1.3.1.4h.3Z"/><path class="cls-42" d="M17.3,7.9v.5l-.3-.2h0l.2.2h.2V8Z"/><path class="cls-42" d="M17.9,8.9Z"/><path class="cls-42" d="M17.6,8.1Z"/><path class="cls-42" d="M17.6,7.9h0a.1.1,0,0,0-.1-.1h-.1a.1.1,0,0,1,.1.1Z"/><path class="cls-42" d="M17.8,8.7h0c0,.1.1.1.1,0Z"/><path class="cls-42" d="M17.4,7.5h0Z"/><path class="cls-42" d="M17.1,7.2h-.2c.1,0,.1.1.2.2Z"/><path class="cls-42" d="M16.9,7h0Z"/><path class="cls-42" d="M16.4,7h0Z"/><path class="cls-42" d="M16.4,7V6.8h-.1c-.1,0,0,.1.1.2V7Z"/><path class="cls-42" d="M16.1,6.8c.1,0,.1-.1,0-.1h0l-.3-.2.2.2v.2Z"/><path class="cls-42" d="M15.7,6.6h-.1l.2.2v.2h-.1l-.5-.2c-.2,0-.3,0-.3.1s.1.2.3.2h.2c.1,0,.2,0,.2.1Z"/><path class="cls-42" d="M15.8,6.5Z"/><path class="cls-42" d="M15.4,7c.1,0,.2.4.2.6l-.3.4h.2c.1-.1.1-.2.1-.4s0-.5-.1-.5Z"/><path class="cls-42" d="M16.3,7.6a.1.1,0,0,1,.1.1h-.2v.2h-.2v.2a.1.1,0,0,1-.1.1h-.1l-.2.2h.5V8.1h.1V7.8h.2c0-.1,0-.1-.1-.2Z"/><path class="cls-42" d="M16.5,7.1h-.2a.1.1,0,0,0-.1-.1h0c0,.1.2.2.2.3h.1a.2.2,0,0,0-.2-.2h.2V7h0Z"/><path class="cls-42" d="M16.5,7Z"/><path class="cls-42" d="M16.2,8.8l.2.2h-.2Z"/><path class="cls-42" d="M16.7,9V8.8h-.1Z"/><path class="cls-42" d="M16.8,8.6a.4.4,0,0,0,.1.3H17V8.6Z"/><path class="cls-42" d="M17.2,8.7v.1h.1Z"/><path class="cls-42" d="M17.4,8.6V9c0-.1-.1-.2-.1-.3Z"/><path class="cls-42" d="M17.7,8.5h0Z"/><path class="cls-44" d="M16.7,9l-.2-.2h-.1a.1.1,0,0,0,0,.2l.4.3v.4H17c-.1,0-.1-.1-.1-.2a.5.5,0,0,1-.1-.3Z"/><path class="cls-44" d="M16.9,9.6h-.1V9.2s-.1-.2-.2-.2h-.1l-.2-.2h0l.2.3c.1,0,.1.2.2.3h0c-.1-.1-.1-.3-.2-.4h.1l.2.2c0,.1,0,.1.1.2v.2Z"/><path class="cls-44" d="M17,9.1h-.1a.4.4,0,0,1-.1-.3h-.1l.2.3v.6h0c-.1,0-.1-.1-.1-.3V9.1h-.1l.2.2a.8.8,0,0,0,.1.4.3.3,0,0,0,.1.2.6.6,0,0,0-.1-.4,1,1,0,0,0-.1-.4Z"/><path class="cls-44" d="M17.2,8.9h-.1V8.5H17a.4.4,0,0,1,.1.3l.2.3v.4c.1.1.1.5.1.5V9.8c0-.1-.1-.1-.1-.2V9.2h-.1c.1.1,0,.1.1.4l.2.4c0,.1-.1.3,0,.4V9h-.1Z"/><polygon class="cls-44" points="17 9.1 17 9.1 17 9.1 17 9.1 17 9.1"/><path class="cls-44" d="M17.3,9Z"/><path class="cls-44" d="M17.6,9h0V8.4h-.1l-.2-.2h0c0,.1.1.1.1.2h.2v.2c0,.1.2.4.2.5V10h-.1c0-.1,0-.5-.1-.6V9h0v.2a1.5,1.5,0,0,1,.1.6V10c0,.1-.1.5,0,.5s.1-.6.1-.8V9Z"/><path class="cls-44" d="M18,8.6h-.1c.1,0,.1.3.2.5s-.1.2-.1.5a2.1,2.1,0,0,0-.1.6V9.3a.6.6,0,0,0-.1-.4h0a4.3,4.3,0,0,1,.1.5c0,.2,0,.5-.1.5h0V9.1h-.2c.1,0,.1.1.1.2h.1v1.4h0c.1,0,.1-.1.1-.2h0a5.4,5.4,0,0,0,.1-.8c0-.3.1-.2.1-.5a1.2,1.2,0,0,0-.1-.5Z"/><path class="cls-44" d="M17.3,8.3Z"/><path class="cls-44" d="M16.8,6.9h-.3v.2h-.2a.2.2,0,0,1,.2.2h-.2c.1.1.1.1.1.2h-.2V8h-.1v.2h-.3v0H16V8.5h0l.3.2h-.1l-.2-.2h.2v.2h.1s-.2-.3-.1-.3l.3.2h0l-.2-.2-.2-.2h.2c.1.1.1.2.2.2h0l-.2-.3h0l.2.2h.2c-.1,0-.1,0-.1-.1h-.1l-.2-.2h.3l.3.3H17V8.1h0l-.2-.2h-.1l-.2-.2h.1l.4.3.4.5h0l-.4-.5c-.1-.2-.3-.3-.4-.4h.1l.3.3c.2.2.4.4.4.5h.1l-.2-.3L17,7.4l.3.2.3.5h-.1a.1.1,0,0,0-.1-.1h-.3c-.1-.1-.1-.2-.2-.2H17c0-.1-.1-.1-.2-.1h0Z"/><path class="cls-44" d="M17.5,7.5c.2.3.4.9.5.9h-.1a5.9,5.9,0,0,0-.4-.8,2.2,2.2,0,0,0-.7-.6h.1Z"/><path class="cls-44" d="M15.5,8.5h.6a.1.1,0,0,0,.1-.1h0L16,7.1h.2a.1.1,0,0,1,.1.1h-.1c-.1-.1-.3-.2-.2-.2l.4.2h0V7h-.1c-.1,0-.1,0-.1-.1h-.1c.1,0,.1.1,0,.1h-.2c0-.1.1-.1,0-.2h-.2a.1.1,0,0,0,.1-.1h-.1a.1.1,0,1,0,.2,0h0a.3.3,0,0,1,.1.2h-.1c.1,0,.1.2.1.2h-.1a.3.3,0,0,1-.1.2h0s-.2.1-.2.2h-.1Z"/><path class="cls-44" d="M16.5,6.6s.1.2.2.1h.1a.1.1,0,0,1,.1-.1h-.4a3.5,3.5,0,0,0-1.2-.4h-.4c0,.1.1,0,.3,0A2.6,2.6,0,0,1,16.5,6.6Z"/><path class="cls-44" d="M15.4,6.8V7h0V6.8L15,6.6h0Z"/><path class="cls-42" d="M15.5,7.4h0Z"/><path class="cls-42" d="M15.4,7.1h0Z"/><path class="cls-42" d="M15.4,6.9h0Z"/><path class="cls-42" d="M15.2,6.8h.1A.1.1,0,0,0,15.2,6.8Z"/><path class="cls-42" d="M15,6.6h0Z"/><path class="cls-10" d="M14.2,10.2Z"/><path class="cls-10" d="M14.3,10.2h0Z"/><path class="cls-10" d="M14.2,10.1Z"/><path class="cls-11" d="M14.3,10h0Z"/><path class="cls-11" d="M14.1,10.2Z"/><path class="cls-11" d="M14.1,10Z"/><path class="cls-10" d="M14.1,9.7h0Z"/><path class="cls-11" d="M14.1,9.7h.1A.1.1,0,0,0,14.1,9.7Z"/><path class="cls-11" d="M14.1,9.8Z"/><path class="cls-11" d="M14.2,10.1Z"/><path class="cls-10" d="M14.1,9.9Z"/><path class="cls-11" d="M14.2,10Z"/><path class="cls-10" d="M14.1,10Z"/><path class="cls-11" d="M14.1,10.1h0Z"/><path class="cls-10" d="M14.1,10Z"/><path class="cls-11" d="M14,10Z"/><path class="cls-11" d="M14.1,10Z"/><path class="cls-10" d="M13.9,10Z"/><path class="cls-11" d="M14,10.1h0Z"/><path class="cls-10" d="M14,10Z"/><path class="cls-11" d="M14,10Z"/><path class="cls-45" d="M13.4,10.2h0a.1.1,0,0,0,.1.1h-.1Z"/><path class="cls-46" d="M13.4,10.2Z"/><path class="cls-46" d="M13.6,10.2Z"/><path class="cls-45" d="M13.5,10.1h0Z"/><path class="cls-46" d="M13.7,10.2h0Z"/><path class="cls-46" d="M13.4,10.2h0Z"/><path class="cls-46" d="M13.5,10.2Z"/><path class="cls-45" d="M13.6,10.1Z"/><path class="cls-46" d="M13.7,10.2Z"/><path class="cls-46" d="M13.7,10.2h0Z"/><path class="cls-46" d="M13.5,10.3h0a.1.1,0,0,1-.1-.1h.1Z"/><path class="cls-10" d="M13.8,10h0Z"/><path class="cls-11" d="M13.9,10.2Z"/><path class="cls-10" d="M13.3,10Z"/><path class="cls-11" d="M13.3,10Z"/><path class="cls-10" d="M13.3,10Z"/><path class="cls-11" d="M13.3,10.1Z"/><path class="cls-10" d="M13.3,10.1Z"/><path class="cls-11" d="M13.4,10.2Z"/><path class="cls-10" d="M13.4,9.9Z"/><path class="cls-11" d="M13.3,9.9Z"/><path class="cls-10" d="M13.4,9.9Z"/><path class="cls-11" d="M13.3,10Z"/><path class="cls-10" d="M13.4,10h0Z"/><path class="cls-11" d="M13.4,10.2Z"/><path class="cls-10" d="M13.5,9.8h0Z"/><path class="cls-11" d="M13.4,9.8h.1c-.1,0-.1,0-.1.1Z"/><path class="cls-10" d="M13.5,9.9h0Z"/><path class="cls-11" d="M13.5,10Z"/><path class="cls-10" d="M13.5,10Z"/><path class="cls-11" d="M13.7,10h0Z"/><path class="cls-10" d="M13.6,9.9h0Z"/><path class="cls-11" d="M13.8,9.9Z"/><path class="cls-45" d="M13.7,9.6h0Z"/><path class="cls-45" d="M13.7,9.6Z"/><path class="cls-45" d="M13.7,9.6h0Z"/><polygon class="cls-45" points="13.6 9.8 13.6 9.8 13.6 9.8 13.6 9.8 13.6 9.8"/><path class="cls-46" d="M13.6,9.8Z"/><path class="cls-46" d="M13.6,9.7Z"/><path class="cls-44" d="M15.3,10.3h0Z"/><path class="cls-44" d="M15.6,10.4Z"/><path class="cls-42" d="M14.4,9.7h-.1c-.1,0,0,.1,0,.1h.1Z"/><path class="cls-42" d="M14.5,10h0Z"/><path class="cls-42" d="M14.4,9.6h.1a.5.5,0,0,0,.1.3h-.1a.1.1,0,0,0,.1-.1h-.2Z"/><path class="cls-40" d="M14.4,9.7h.2a.5.5,0,0,1-.1-.3h-.1Z"/><path class="cls-40" d="M14.6,10.1Z"/><path class="cls-40" d="M14.5,9.9h.1V9.7a.1.1,0,0,1-.1.1Z"/><path class="cls-40" d="M14.6,10.1Z"/><path class="cls-42" d="M14.4,10.2h0Z"/><path class="cls-41" d="M14.4,9.5v.3h-.1V9.5Z"/><path class="cls-42" d="M14.2,10.3h0Z"/><path class="cls-43" d="M14.6,9.7h0v.2h.1V9.8A.1.1,0,0,1,14.6,9.7Z"/><path class="cls-43" d="M14.6,10.1Z"/><path class="cls-40" d="M14.5,10.2h0Z"/><path class="cls-43" d="M14.2,9.5c.1.1.2.2.2.3h.1V9.5h-.1v0Z"/><path class="cls-40" d="M14.5,10.3h0s.2,0,.2-.1h-.3c-.1.1-.1.1,0,.1h.1Z"/><polygon class="cls-40" points="14.4 10.4 14.4 10.4 14.4 10.4 14.4 10.4"/><path class="cls-43" d="M14.2,10.2h0Z"/><path class="cls-43" d="M14.6,10.4h.2v-.2h0c0,.1-.2.1-.2.1h.1Z"/><path class="cls-40" d="M14.8,10.2V9.8h0v.3h0v.2h0Z"/><path class="cls-43" d="M14.9,10.5v-.4h-.1v.4Z"/><path class="cls-44" d="M14.9,10.1v.4h0c.1,0,.1-.2.1-.3Z"/><path class="cls-44" d="M14.8,10.3Z"/><path class="cls-40" d="M14.6,10.1h0Z"/><path class="cls-43" d="M14.4,10.3Z"/><path class="cls-44" d="M14.2,10.3H14s0,.1.2.1h0Z"/><path class="cls-40" d="M14.3,10h0Z"/><path class="cls-43" d="M14.3,9.8Z"/><path class="cls-43" d="M14.3,9.8h0s-.1-.1,0-.1h0Z"/><path class="cls-44" d="M15.4,9.6Z"/><path class="cls-44" d="M15.6,9.3v.2h0Z"/><path class="cls-44" d="M15.6,9.2h0Z"/><path class="cls-44" d="M15.8,9.6h0Z"/><path class="cls-44" d="M15.6,9.5h-.2v.2h.2Z"/><path class="cls-44" d="M15.1,9.7h0s.1.2,0,.2h0Z"/><path class="cls-10" d="M15.6,10.9Z"/><path class="cls-11" d="M15.5,10.9Z"/><path class="cls-10" d="M15.5,10.9Z"/><path class="cls-11" d="M15.3,10.9Z"/><path class="cls-10" d="M15.9,11h0Z"/><path class="cls-10" d="M15.9,10.9Z"/><path class="cls-11" d="M15.8,11Z"/><path class="cls-11" d="M15.9,10.8Z"/><path class="cls-10" d="M15.2,11.1Z"/><path class="cls-10" d="M15.3,11.1Z"/><path class="cls-11" d="M15.3,11.1h0Z"/><path class="cls-11" d="M15.3,11.1Z"/><path class="cls-11" d="M15.2,11Z"/><path class="cls-45" d="M15,11.2h.1c-.1,0-.1-.1,0-.1H15Z"/><path class="cls-45" d="M15.1,11.2h0Z"/><path class="cls-45" d="M15,11.1Z"/><polygon class="cls-45" points="15.1 11.2 15.1 11.2 15.1 11.2 15.1 11.2"/><path class="cls-45" d="M15,11.2Z"/><path class="cls-45" d="M15.2,11Z"/><path class="cls-10" d="M15.5,11h0Z"/><path class="cls-10" d="M15.4,11.1h0Z"/><path class="cls-11" d="M15.4,11Z"/><path class="cls-11" d="M15.4,11.1Z"/><path class="cls-10" d="M15.9,11h0Z"/><path class="cls-10" d="M15.9,11h0Z"/><path class="cls-11" d="M16,10.9Z"/><path class="cls-11" d="M15.9,11Z"/><path class="cls-10" d="M15.7,11h0Z"/><path class="cls-10" d="M15.6,10.9h0Z"/><path class="cls-11" d="M15.5,11Z"/><path class="cls-11" d="M15.6,11.1h0Z"/><path class="cls-10" d="M16.1,11.1h0Z"/><path class="cls-10" d="M16,11h0Z"/><path class="cls-10" d="M16,11.1h0Z"/><path class="cls-11" d="M16.1,10.9Z"/><path class="cls-11" d="M16,11Z"/><polygon class="cls-11" points="15.7 11.1 15.7 11.1 15.7 11.1 15.7 11.1 15.7 11.1"/><path class="cls-11" d="M15.6,11.2h0Zm-.1,0Z"/><path class="cls-11" d="M16.3,11.2h0Z"/><path class="cls-11" d="M15.7,11h0Z"/><path class="cls-11" d="M16.2,11Z"/><path class="cls-10" d="M15.7,10.7h0a.1.1,0,0,1,.1.1h0C15.8,10.7,15.8,10.7,15.7,10.7Z"/><path class="cls-11" d="M15.7,10.7Z"/><path class="cls-11" d="M15.6,10.8Z"/><polygon class="cls-45" points="15.3 11.5 15.3 11.5 15.3 11.5 15.3 11.5"/><path class="cls-45" d="M15.3,11.5Z"/><path class="cls-45" d="M15.3,11.2Z"/><path class="cls-45" d="M15.4,11.3h-.1a.1.1,0,0,0-.1.1h.1v-.2Z"/><path class="cls-45" d="M16.4,11.4Z"/><path class="cls-45" d="M16.4,11.4Z"/><path class="cls-45" d="M16.4,11.4Z"/><path class="cls-45" d="M16.5,11.2Z"/><path class="cls-45" d="M16.4,11.2Z"/><path class="cls-45" d="M16.5,11.3Z"/><path class="cls-45" d="M16.3,11.1h0c.1.1,0,.1,0,.1h.2a.1.1,0,0,0-.1-.1h-.1Z"/><path class="cls-11" d="M15.9,11.1h0Z"/><path class="cls-46" d="M15.3,11.5h-.1a.1.1,0,0,1,.1-.1h0c-.1,0-.1,0-.1.1h0v.2Z"/><path class="cls-46" d="M15,11.1Z"/><path class="cls-46" d="M15,11.2Z"/><path class="cls-46" d="M16.4,11.2a.1.1,0,0,1,.1.1h-.1Z"/><path class="cls-41" d="M16,9.9h0l.9.8H17c0-.1-.2-.2-.5-.4Z"/><path class="cls-41" d="M16.7,10.3c0-.1-.2-.2-.2-.2h0l.2.2Z"/><path class="cls-41" d="M16.9,10.5a.2.2,0,0,0-.2-.2h0l.2.2Z"/><path class="cls-41" d="M16,9.7h0l.5.4h0a.8.8,0,0,1-.4-.4l.4.3h.2c.1,0,.2,0,.2.1H17l.3.2-.3-.2h.1a.4.4,0,0,0,.3-.2l-.6-.4L16,9.5Z"/><path class="cls-47" d="M16,9.9l.5.5c.3.2.5.3.5.4h.1A10.5,10.5,0,0,1,16,9.9Z"/><path class="cls-41" d="M16,10.1h-.1l.7.6h.1l-.3-.2C16.2,10.5,16.1,10.2,16,10.1Z"/><path class="cls-44" d="M17.1,10.7h-.2l-.2-.2h0l-.2-.2h0L16,9.8h0a10.5,10.5,0,0,0,1.1.8h.1a.4.4,0,0,0,.3-.2h-.1A.4.4,0,0,1,17.1,10.7Z"/><path class="cls-47" d="M16,10.1h0c.1.1.2.4.4.5l.3.2h0a2.3,2.3,0,0,0-.7-.7Z"/><path class="cls-44" d="M17.1,10.7h-.2L16,10h0a2.3,2.3,0,0,1,.7.7h.4Z"/><path class="cls-41" d="M16.4,10.8h0l-.4-.5h0Z"/><path class="cls-44" d="M16.8,10.8h-.2l-.7-.6a.1.1,0,0,1,.1.1h0l.4.5h.4Z"/><path class="cls-44" d="M16.5,10.8h-.1l-.4-.4h0l.3.3h.2Z"/><path class="cls-48" d="M16.5,10.2h0s.2.1.2.2h0a.2.2,0,0,1,.2.2H17l.3.2-.3-.2h-.1c0-.1-.1-.1-.2-.1h-.2l-.4-.3a.8.8,0,0,0,.4.4Z"/><path class="cls-41" d="M15.4,10.4h0v.4h0Z"/><path class="cls-41" d="M15.5,10.6h0v-.2h0Z"/><path class="cls-41" d="M15.8,10.5h.1v-.2h-.1Z"/><path class="cls-41" d="M16,10.4h0v-.2h0v.3H16Z"/><polygon class="cls-41" points="15.6 10.4 15.6 10.4 15.6 10.4 15.6 10.4 15.6 10.4 15.6 10.4"/><path class="cls-41" d="M15.8,10.5v-.2h-.1v.2h0c.1,0,.1,0,.1.1h.1Z"/><path class="cls-41" d="M15.9,10.8Z"/><path class="cls-44" d="M15.9,10.6v-.3h0v.2h0a.1.1,0,0,0-.1-.1H16v.4h-.1v.2h0v.2Z"/><path class="cls-44" d="M15.9,10.6h-.1v-.2h-.1v.5h0v-.2Z"/><path class="cls-41" d="M15.6,10.8h.2a.1.1,0,0,1-.1-.1c0-.1,0-.2-.1-.2h0v-.2h-.1v.2h.1Z"/><path class="cls-44" d="M15.5,10.8v-.4h-.1v.4a.1.1,0,0,0,.1.1h0Z"/><path class="cls-44" d="M15.6,10.4h-.1v.2h0Z"/><path class="cls-49" d="M15.5,10.7h0v-.2h0v.2Z"/><path class="cls-44" d="M15.6,10.2Z"/><path class="cls-44" d="M15.7,10.7h0v-.2h0c.1,0,.1.1.1.2a.1.1,0,0,0,.1.1A.1.1,0,0,0,15.7,10.7Z"/><path class="cls-41" d="M15.6,9.5h-.2a.4.4,0,0,1,.1.3.5.5,0,0,1,.1.3.5.5,0,0,0-.1-.3h-.1l.3.5V9.7a.3.3,0,0,0,.1.2v.2a.1.1,0,0,0,0-.2V9.5Z"/><path class="cls-50" d="M15.3,10.3h-.1a.1.1,0,0,0-.1-.1l-.2-.3.2.3h.2Z"/><path class="cls-50" d="M14.9,9.9l.4.4h.1c-.1,0-.2,0-.3-.2l-.2-.2h-.1a.1.1,0,0,0-.1-.1h.2Z"/><path class="cls-49" d="M15.3,10.4h0l-.4-.4h0l.2.3a.1.1,0,0,1,.1.1h.1Z"/><path class="cls-44" d="M15.1,10.2l-.2-.3h-.2V10H15l.2.2h-.1Z"/><path class="cls-41" d="M15.3,9.9a.5.5,0,0,1-.1-.3h-.1l.3.3h0Z"/><path class="cls-41" d="M15.6,10.2h0V10h0v.2h.1Z"/><polygon class="cls-41" points="15.7 9.3 15.7 9.3 15.7 9.3 15.7 9.3"/><path class="cls-41" d="M15.7,9.3h-.1s.1,0,.1.2v.3h0V10h.1V9.9a2.1,2.1,0,0,0-.2-.6Z"/><path class="cls-41" d="M15.6,9.3h0Z"/><path class="cls-41" d="M15.7,9.7h0Z"/><path class="cls-44" d="M15.1,9.8H15a.1.1,0,0,1-.1-.1h0l.2.2c.1.2.2.2.3.2Z"/><path class="cls-50" d="M15.8,10h0V9.8h-.2v.4a.1.1,0,0,1,0,.2V9.9a.3.3,0,0,1-.1-.2v.5l-.3-.5h0c0,.1.1.2.1.3h0v.2h.2Z"/><path class="cls-41" d="M15.8,9h0v.6h0V10H16s0-.3-.1-.4a1,1,0,0,0-.1-.4,1,1,0,0,1,.1.4,1,1,0,0,1,.1.4h0V9.3c0-.1-.1-.2-.1-.3h-.1Z"/><path class="cls-41" d="M15.9,9.7h0Z"/><path class="cls-50" d="M15.6,10.3h-.1v-.2h-.1l-.3-.3h0l.3.4h.2Z"/><path class="cls-44" d="M15.3,9.7h-.1a.5.5,0,0,0,.1.3v.2h.1c0-.1-.1-.2-.1-.3h-.1Z"/><path class="cls-44" d="M15.4,9.6h.1a.5.5,0,0,1,.1.3.5.5,0,0,0-.1-.3.4.4,0,0,0-.1-.3h0Z"/><path class="cls-44" d="M15.8,9.1h-.1v.2h.1V9.1Z"/><path class="cls-44" d="M15.7,9.3Z"/><path class="cls-44" d="M15.9,9h0c0,.1.1.2.1.3V9Z"/><path class="cls-44" d="M15.8,9.8V9.5c0-.2-.1-.2-.1-.2h.2Z"/><path class="cls-39" d="M15.9,10h0V9.8h-.1V9.3h0a2.1,2.1,0,0,1,.2.6v.2h0V10Z"/><path class="cls-39" d="M15.9,10H16a1,1,0,0,0-.1-.4,1,1,0,0,0-.1-.4,1,1,0,0,1,.1.4c.1.1.1.4.1.4Z"/><path class="cls-51" d="M15.4,10.3Z"/><path class="cls-42" d="M16,8.7h-.1a.1.1,0,0,1,.1.1h0Z"/><path class="cls-43" d="M15.7,9h0V8.7h0A.5.5,0,0,1,15.7,9Z"/><path class="cls-52" d="M14.6,9Z"/><path class="cls-52" d="M14.6,9h0v.2h0Z"/><path class="cls-52" d="M14.8,9.1Z"/><polygon class="cls-52" points="15.2 8.9 15.2 8.9 15.2 8.9 15.2 8.9"/><path class="cls-52" d="M15.2,8.9Z"/><path class="cls-52" d="M14.5,9.2Z"/><path class="cls-52" d="M14.9,9V8.8h0Z"/><polygon class="cls-52" points="14.8 9.1 14.8 9.1 14.8 9.1 14.8 9.1"/><path class="cls-41" d="M15.3,8.6V8.2a.1.1,0,0,0-.1.1v.2h.1c.1-.1,0-.2,0-.3V8.2h-.1a.3.3,0,0,0,.1.2Z"/><path class="cls-41" d="M14.9,8.6H15V8.3h-.1Z"/><path class="cls-41" d="M15.2,8.5V8.3C15.1,8.4,15.1,8.5,15.2,8.5Z"/><polygon class="cls-41" points="15.3 8.7 15.3 8.7 15.3 8.7 15.3 8.7"/><path class="cls-41" d="M15.3,8.3h0v.3h-.1Z"/><path class="cls-41" d="M15.2,8.6h-.1s-.1,0,0,.1h0v.2h0C15.2,8.9,15.2,8.8,15.2,8.6Z"/><path class="cls-53" d="M15.1,8.3h0v.2h0c0,.2,0,.3-.1.3h.1V8.6h0Z"/><path class="cls-53" d="M15.3,8.2h0v.2c0,.1.1.2,0,.3h.1V8.2Z"/><path class="cls-43" d="M15.1,8.9h0V8.7h.1Z"/><path class="cls-42" d="M15.7,9.2h0v.2Z"/><path class="cls-42" d="M15.1,9.8c.1,0,0-.2,0-.2h0c0,.1-.1,0-.1-.1v0h-.3V9.2h0v.2l.3.3a.1.1,0,0,0,.1.1Z"/><path class="cls-42" d="M15.5,9.4l-.2-.3h-.1l.2.3h-.1s-.1-.2-.2-.1v.2h.1L15,9.4V9.1h0v.2h.4V9.4h.2V9.3h-.3a1,1,0,0,1,.1.3Z"/><path class="cls-43" d="M15,9.5h-.1v.2c0,.1.1.2.1.1H15Z"/><path class="cls-43" d="M15.4,8.9v.2h.2V8.8h0v.3h-.4Z"/><path class="cls-43" d="M14.9,9.5l-.2-.2V9.1h-.1v.2h.3V9.4h0Z"/><path class="cls-43" d="M14.9,9.1v.3l.3.2h-.2l-.2-.3h0Z"/><path class="cls-43" d="M15.3,9.3h.1l-.2-.3Z"/><path class="cls-43" d="M15.1,9h.2l.2.3h-.1a.3.3,0,0,0-.1-.2V8.9h-.1Z"/><path class="cls-40" d="M14.9,9.8Z"/><path class="cls-40" d="M14.5,9.5l-.3-.4h0c0,.1.1.1.1.2l.2.2.2.2h0a.1.1,0,0,1,.1.1h.1Z"/><path class="cls-40" d="M14.9,9.7Z"/><path class="cls-43" d="M14.9,9.7h0l-.3-.2-.3-.4h-.1l.3.4.4.3h0Z"/><path class="cls-41" d="M15.1,9.4h.1V9.3c.1-.1.2.1.2.1h0V9.1h-.3v.2h-.1Z"/><path class="cls-41" d="M14.6,9.1h0v.2l.2.2h0l-.2-.3h-.1Z"/><path class="cls-41" d="M14.8,9.1h0Z"/><path class="cls-41" d="M14.9,9.3V9.1h0a.3.3,0,0,0,.1.2H15Z"/><path class="cls-41" d="M14.6,9.4c-.1-.1-.1-.1-.1-.2h-.2l.3.4.3.2Z"/><path class="cls-41" d="M15.4,9.1h-.2v.2a.3.3,0,0,1,.1.2h0a1,1,0,0,0-.1-.3h.2V8.9l-.2-.2h0c0,.1.1.1.1.2Z"/><path class="cls-41" d="M15.5,9h.1V8.8h0V8.5c-.1,0-.1.1-.1.2a.1.1,0,0,1,.1.1V9h-.1Z"/><path class="cls-41" d="M14.2,9.1Z"/><path class="cls-41" d="M14.7,9.7l-.2-.2-.2-.2h.1l.3.4a.1.1,0,0,1-.1-.1.1.1,0,0,0,.1.1h0Z"/><path class="cls-44" d="M14.2,9.1h-.1c.1,0,.1,0,.1.1v.2h.3a.1.1,0,0,0,.1.1l-.3-.4h-.1c0-.1-.1-.1-.1-.2Z"/><path class="cls-44" d="M14.6,9.4V9.2h0c0,.1,0,.1.1.2l.3.3Z"/><polygon class="cls-44" points="14.8 9.1 14.8 9.1 14.8 9.1 14.8 9.1"/><path class="cls-44" d="M14.6,9h.1l.2.3a.3.3,0,0,1-.1-.2h-.2Z"/><path class="cls-44" d="M14.9,8.8V9H15V8.9h.2s-.1-.1,0-.1h-.2Z"/><path class="cls-44" d="M15.2,8.8h-.1c-.1,0,0,.1,0,.1h.3V8.9c0-.1-.1-.1-.1-.2h0Z"/><path class="cls-44" d="M15.5,8.5h-.1v.2h.2V8.8a.1.1,0,0,0-.1-.1c0-.1,0-.2.1-.2v.2h0V9a.5.5,0,0,0-.1-.3h-.1Z"/><path class="cls-54" d="M14.8,9.1h0v.2h-.1Z"/><path class="cls-43" d="M15.5,9.2h0Z"/><path class="cls-42" d="M14.5,9.2h.1V8.9h.2V8.8h-.1V8.6h-.1v.2a.4.4,0,0,0,.1.3v.2h-.1V8.8h-.1V8.8h-.1V8.6h-.1c-.1.2,0,.2,0,.3h.3Z"/><path class="cls-40" d="M14.8,8.4h0v.2h-.1V9h.1V8.3h-.1Z"/><path class="cls-40" d="M14.5,8.7h-.1V9h.1V8.9a.4.4,0,0,1-.1-.3V8.4h0Z"/><path class="cls-55" d="M14,8.9V8.7c-.1-.1.1-.3.1-.4h0l-.2.4c0,.1.1.1.1.2v.3h.1A.5.5,0,0,0,14,8.9Z"/><path class="cls-40" d="M14.2,8.9h-.1a1,1,0,0,1-.1-.4h0V8.4h0c0,.1-.2.3-.1.4v.2a.5.5,0,0,1,.1.3h.1Z"/><path class="cls-56" d="M14.9,8.7h0Z"/><path class="cls-42" d="M14.1,8.8H14a1,1,0,0,0,.1.4h0Z"/><path class="cls-42" d="M14.1,8.4h0v0Z"/><path class="cls-43" d="M14.5,8.4h-.2v.2h.1V9h.2V8.5Z"/><path class="cls-56" d="M14.8,8.8h0Z"/><path class="cls-43" d="M14.2,8.4h-.1v.2h.2c0-.1-.1-.1,0-.3h0Z"/><path class="cls-43" d="M14.7,8.4h-.1v.2h.2V8.5h-.1Z"/><path class="cls-52" d="M15,8.6h0v.2h0V8.7h0c-.1-.1,0-.1,0-.1h.1c-.1,0-.1-.1-.1-.2h0a.1.1,0,0,1,.1-.1v.2a.3.3,0,0,1-.1-.2H15Z"/><path class="cls-52" d="M14.6,8.4Z"/><path class="cls-52" d="M14.5,8.3Z"/><path class="cls-52" d="M14.1,8.4Z"/><path class="cls-52" d="M15.3,8.2h.1V8.2h-.1Z"/><path class="cls-56" d="M14.8,8.2l-.2.2V8h-.1V7.9h0a.1.1,0,0,1-.1.1h0v.2h.3V8h0Z"/><path class="cls-56" d="M14.6,7.9h0Z"/><path class="cls-56" d="M14.3,8.4h.2a.1.1,0,0,0-.1-.1h-.1Z"/><path class="cls-56" d="M14.1,8.3h.1V8.1h-.1v.2Z"/><path class="cls-43" d="M14.7,8v.4l.2-.2V7.9Z"/><path class="cls-43" d="M14.9,8.3a.1.1,0,0,1,.1-.1h-.1V7.9h-.1v.2h.5V7.8h0v0H15V8A.4.4,0,0,1,14.9,8.3Z"/><path class="cls-40" d="M15.1,7.9V7.7h0Z"/><path class="cls-41" d="M15.2,7.9V7.7h-.1v.4h0Z"/><path class="cls-41" d="M15,7.9v.2H15a.1.1,0,0,0-.1.1.4.4,0,0,0,.2-.3V7.7h0Z"/><path class="cls-41" d="M14.6,7.9h0a.1.1,0,0,0,.1-.1h0v.2h.2c-.1,0-.1-.2-.1-.2s0,.2-.1.2Z"/><path class="cls-52" d="M15.3,8h0V7.6h0v.4Z"/><path class="cls-52" d="M14.9,7.7h0c0,.1,0,.2-.1.2h.1v.2h0V7.7h-.1Z"/><path class="cls-43" d="M14.2,8h0v.2h.2a.1.1,0,0,1,.1.1h0V7.9h-.1c0-.1,0-.1-.1-.1h0v.2h-.2v.4h.1V8.1Z"/><path class="cls-57" d="M15.1,7.5Z"/><path class="cls-58" d="M14.2,7.9V7.7h-.1Z"/><path class="cls-58" d="M14.2,7.9Z"/><polygon class="cls-58" points="14.2 7.9 14.2 7.9 14.2 7.9 14.2 7.9"/><path class="cls-56" d="M14.7,7.4h-.1c0,.1.1.1,0,.2s0,.3-.1.3V7.7h0c-.1,0-.1,0-.1.1h-.1v.2h.2V7.7h0c.1,0,.1,0,.1.1h.1c.1,0,.1-.2.1-.2s0,.2.1.2.1-.1.1-.2h0V7.5h-.1c.1-.1,0-.1,0-.1Z"/><path class="cls-58" d="M14.8,7.2h0c-.1,0,0,0-.1-.1h-.1a.1.1,0,0,1,.1.1h0s.1,0,0,.1h.1v.1h.2V7.3c0,.1,0,.3-.1.3h-.1V7.3Z"/><path class="cls-43" d="M14.9,7.5H15c.1,0,.1-.2.1-.3H15v.2a.1.1,0,0,1-.1-.1l-.2-.2v.2h0Z"/><path class="cls-41" d="M15,7.3h.1v.2h.1c-.1,0-.1-.2-.2-.2h0Z"/><path class="cls-52" d="M14.9,7.1h0V7.1l.2.2a.1.1,0,0,0,.1.1V7.2h0c.1,0,.1.2.2.2h-.1L14.9,7Z"/><path class="cls-43" d="M14.7,7.3c.1.1,0,.1.1.1h-.1Z"/><path class="cls-58" d="M14.5,7.7h0v.2c.1,0,.1-.2.1-.3s0-.1,0-.2h0v.2h0a.1.1,0,0,0-.1-.1h0Z"/><path class="cls-43" d="M14.4,7.6h0c0-.1,0-.1.1-.1h0a.1.1,0,0,1,.1.1h0V7.4h-.1c0,.2,0,.2-.1.1h0Z"/><path class="cls-56" d="M14.9,7h0Z"/><path class="cls-40" d="M14.4,6.9Z"/><path class="cls-41" d="M14.4,6.9Z"/><path class="cls-56" d="M14.5,7.1h.2a.1.1,0,0,0,.1.1h-.3Z"/><path class="cls-56" d="M14.3,7.2h0C14.3,7.2,14.4,7.2,14.3,7.2Z"/><polygon class="cls-56" points="14.3 7.4 14.3 7.4 14.3 7.4 14.3 7.4"/><path class="cls-56" d="M14.3,7.2h.1l.3.2h0a.1.1,0,0,0-.1-.1h-.3Z"/><path class="cls-56" d="M14.7,7.4Z"/><path class="cls-40" d="M14.5,7Z"/><path class="cls-41" d="M14.4,6.9h0Z"/><path class="cls-40" d="M14.7,7.3h.1a.1.1,0,0,1-.1-.1h0Z"/><path class="cls-40" d="M14.4,7.5h.1a.1.1,0,0,0-.1-.1h0a.1.1,0,0,0-.1.1h.1Z"/><path class="cls-41" d="M14.5,7.1h.2a.1.1,0,0,0,.1.1.1.1,0,0,1-.1-.1Z"/><path class="cls-40" d="M14.4,7.2h0Z"/><path class="cls-40" d="M14.5,7.4h-.1C14.4,7.3,14.5,7.3,14.5,7.4Z"/><path class="cls-41" d="M14.3,7.4a.1.1,0,0,1,.1-.1h.3l-.3-.2h-.1c.1,0,0,0,0,.1Z"/><path class="cls-56" d="M14.5,7.4h0c0-.1-.1-.1-.1-.2h0a.1.1,0,0,1,.1.1h-.1C14.5,7.6,14.5,7.6,14.5,7.4Z"/><polygon class="cls-59" points="13.8 6.9 13.8 6.9 13.8 6.9 13.8 6.9"/><path class="cls-59" d="M13.5,7.4h0l.2-.2V6.9h-.1v.2c-.1.1-.2.1-.2.2Z"/><path class="cls-56" d="M14.1,6.8l-.2.3-.2.2h.4l.2-.3V6.6h0a.3.3,0,0,1-.1.2h-.1l-.3.2.3-.2Zm.2.1h0Z"/><path class="cls-56" d="M14.1,7.2Z"/><path class="cls-56" d="M14.3,6.6h0Z"/><path class="cls-56" d="M13.7,7.3h0a.1.1,0,0,1-.1.1Z"/><path class="cls-56" d="M13.7,7.1a.3.3,0,0,1-.1.2.1.1,0,0,0-.1.1h.2V7h0Z"/><path class="cls-39" d="M14.3,7.6h0Z"/><path class="cls-40" d="M14.1,7.5h0Z"/><path class="cls-40" d="M14.2,7.5Z"/><path class="cls-39" d="M14.1,7.2Z"/><path class="cls-39" d="M14.3,6.9l-.2.3h.3a.4.4,0,0,0-.1-.3h0Zm0,.4H14s.2,0,.2-.1h.1Z"/><path class="cls-40" d="M14.2,6.9h0a.3.3,0,0,0,.1-.2h-.1v.2Z"/><path class="cls-39" d="M14.1,7l-.3.2.3-.2h.1V6.7h0Z"/><path class="cls-52" d="M14.1,7.2Z"/><path class="cls-52" d="M14.1,6.8v0h0Z"/><path class="cls-52" d="M14.3,6.9h0Z"/><path class="cls-52" d="M14.1,7.5Z"/><path class="cls-52" d="M13.9,7.4h.3c0,.1-.2.1-.2.1h-.1Z"/><path class="cls-60" d="M13.7,7.3Z"/><path class="cls-40" d="M13.7,7.2h-.1a.1.1,0,0,0,.1-.1h0l.2-.2.2-.3V6.6c0,.1-.1.3-.1.4h-.1v.2Z"/><path class="cls-39" d="M13.8,7v.2h.1Z"/><path class="cls-41" d="M13.9,7H14a.3.3,0,0,0-.1-.2v.2Z"/><path class="cls-40" d="M13.7,7.1l-.2.2h0a.1.1,0,0,1,.1-.1.3.3,0,0,0,.1-.2V6.9h0Z"/><path class="cls-61" d="M14.2,7.7h0Z"/><path class="cls-61" d="M14.3,7.6h0Z"/><path class="cls-62" d="M13.7,7.7h.2a.1.1,0,0,1-.1.1h0s.2-.1.2-.2Z"/><polygon class="cls-63" points="13.5 7.5 13.5 7.5 13.5 7.5 13.5 7.5"/><polygon class="cls-63" points="13.5 7.4 13.5 7.4 13.5 7.4 13.5 7.4 13.5 7.4 13.5 7.4"/><path class="cls-63" d="M13.5,7.7H14c.1,0,.1,0,.1-.1h-.5l-.2.3V8s-.2-.1-.1-.2.1-.2.1-.2h.1Z"/><path class="cls-43" d="M13.4,7.5h0Z"/><path class="cls-43" d="M13.8,7.8h.3c0,.1,0,.1-.1.1h-.2Z"/><path class="cls-43" d="M13.5,8h-.1V8h-.3V7.6h0c-.1,0-.1,0-.1.1h.3Z"/><polygon class="cls-43" points="13.7 7.7 13.7 7.7 13.7 7.7 13.7 7.7"/><polygon class="cls-43" points="13.7 7.7 13.7 7.7 13.7 7.7 13.7 7.7 13.7 7.7"/><polygon class="cls-43" points="13.7 7.7 13.7 7.7 13.7 7.7 13.7 7.7 13.7 7.7"/><path class="cls-43" d="M13.3,8Z"/><polygon class="cls-43" points="13.8 7.6 13.8 7.6 13.8 7.6 13.8 7.6"/><path class="cls-43" d="M13.3,8Z"/><path class="cls-43" d="M13.4,7.9Z"/><path class="cls-64" d="M13.3,7.8c-.1.1.1.2.1.2V7.8l.2-.3h-.2S13.3,7.6,13.3,7.8Z"/><path class="cls-65" d="M13.5,7.5Z"/><path class="cls-66" d="M13.9,7.6h-.1A.1.1,0,0,0,13.9,7.6Z"/><path class="cls-63" d="M13.3,8h0v.2C13.2,7.9,13.3,7.9,13.3,8Z"/><path class="cls-67" d="M13.4,7.6Zm0-.1Z"/><path class="cls-63" d="M13.7,7.7H14c0,.1-.2.2-.2.2h-.1Z"/><polygon class="cls-63" points="13.7 7.7 13.7 7.7 13.7 7.7 13.7 7.7 13.7 7.7"/><polygon class="cls-63" points="13.7 7.7 13.7 7.7 13.7 7.7 13.7 7.7"/><path class="cls-43" d="M13.4,7.9h-.1c0-.1-.1-.1-.1-.2h.3V7.8Z"/><polygon class="cls-14" points="14 9.6 14 9.6 14 9.6 14 9.6"/><path class="cls-14" d="M14,9.6h0Z"/><path class="cls-14" d="M13.7,7.8h0Z"/><path class="cls-14" d="M13.7,7.8h0Z"/><path class="cls-13" d="M13.9,9.7h0Z"/><path class="cls-13" d="M14,9.6Z"/><path class="cls-13" d="M13.8,9.6h0Z"/><polygon class="cls-13" points="13.8 9.6 13.8 9.6 13.8 9.6 13.8 9.6 13.8 9.6 13.8 9.6 13.8 9.6"/><path class="cls-13" d="M13.9,9.5h0Z"/><path class="cls-13" d="M13.8,9.4h0Z"/><path class="cls-13" d="M13.7,9.4h0Z"/><path class="cls-13" d="M13.6,9.5h0Z"/><path class="cls-13" d="M13.6,9.5h0Z"/><path class="cls-13" d="M13.5,9.4h0Z"/><path class="cls-13" d="M13.4,9.3Z"/><path class="cls-13" d="M13.3,9.4h0Z"/><path class="cls-13" d="M13.2,9.3Z"/><path class="cls-13" d="M13.2,9.3h0a.1.1,0,0,1-.1.1h.1Z"/><path class="cls-13" d="M13.2,9.2Z"/><path class="cls-13" d="M13.1,9.1Z"/><path class="cls-13" d="M13.2,9.1Z"/><polygon class="cls-13" points="13.1 9 13.1 9 13.1 9 13.1 9"/><path class="cls-13" d="M13.1,9Z"/><polygon class="cls-13" points="13.8 8.2 13.8 8.2 13.8 8.2 13.8 8.2"/><path class="cls-13" d="M13.8,8.2h0Z"/><path class="cls-13" d="M13.9,8.1h0Z"/><path class="cls-13" d="M13.8,8.1Z"/><path class="cls-13" d="M13.7,8Z"/><path class="cls-13" d="M13.7,8h.1c0,.1-.1.1-.1.2Z"/><path class="cls-13" d="M13.7,7.8h0a.1.1,0,0,0-.1.1h.1Z"/><path class="cls-13" d="M13.5,7.8h0Z"/><path class="cls-6" d="M14.1,9.7h0V9.3h-.6a.1.1,0,0,1-.1-.1V9h0c0-.1,0-.2.1-.2l.4-.4a.3.3,0,0,0,.1-.2h.1V7.8h-.4c-.1,0-.1,0-.1.1h0a.1.1,0,0,0,.1.1h.3a.1.1,0,0,1,.1.1H14v.2h.1Z"/><path class="cls-6" d="M13.7,7.7Z"/><path class="cls-63" d="M13.7,7.7Z"/><path class="cls-43" d="M13.7,7.7Z"/><path class="cls-11" d="M14,10Z"/><polygon class="cls-4" points="13.5 7.8 13.5 7.8 13.5 7.8 13.5 7.8 13.5 7.8 13.5 7.9 13.5 7.8 13.5 7.8 13.5 7.8"/><polygon class="cls-4" points="13.6 7.9 13.6 7.9 13.6 7.9 13.6 7.9 13.6 7.9 13.6 7.9 13.6 7.9 13.6 7.9"/><polygon class="cls-6" points="13.7 8 13.7 8 13.7 8 13.6 8 13.7 8 13.7 8 13.7 8 13.7 8"/><polygon class="cls-6" points="13.7 8 13.7 8 13.7 8 13.7 8 13.7 8 13.7 8.1 13.7 8 13.7 8 13.7 8"/><polygon class="cls-6" points="13.8 8.1 13.7 8.1 13.7 8.1 13.7 8.1 13.7 8.1 13.7 8.1 13.8 8.1 13.8 8.1 13.8 8.1"/><polygon class="cls-6" points="13.8 8.2 13.7 8.2 13.7 8.2 13.8 8.2 13.8 8.2 13.8 8.2 13.8 8.2"/><polygon class="cls-6" points="13.8 8.2 13.8 8.2 13.8 8.2 13.7 8.2 13.7 8.3 13.8 8.3 13.8 8.3 13.8 8.2"/><path class="cls-6" d="M13.1,9Z"/><path class="cls-9" d="M13.1,9.1Z"/><polygon class="cls-6" points="13.1 9.1 13.1 9.1 13.1 9.2 13.1 9.2 13.1 9.2 13.1 9.1 13.1 9.1"/><polygon class="cls-9" points="13.1 9.2 13.1 9.2 13.1 9.2 13.1 9.2 13.1 9.2 13.1 9.2 13.1 9.2"/><polygon class="cls-9" points="13.1 9.3 13.1 9.3 13.1 9.3 13.1 9.3 13.1 9.3 13.1 9.3 13.1 9.3"/><polygon class="cls-9" points="13.1 9.3 13.1 9.3 13.1 9.4 13.2 9.4 13.2 9.4 13.1 9.3 13.1 9.3"/><polygon class="cls-4" points="13.2 9.4 13.2 9.4 13.2 9.5 13.2 9.5 13.2 9.5 13.2 9.4 13.2 9.4"/><path class="cls-4" d="M13.3,9.5Z"/><path class="cls-4" d="M13.8,9.6Z"/><path class="cls-9" d="M13.8,9.6Z"/><path class="cls-4" d="M13.8,9.6Z"/><path class="cls-4" d="M13.8,9.7Z"/><polygon class="cls-9" points="13.8 9.8 13.8 9.8 13.8 9.8 13.8 9.8 13.8 9.8 13.8 9.8 13.8 9.8 13.8 9.8 13.8 9.8 13.8 9.8"/><path class="cls-9" d="M13,7.1h0Z"/><path class="cls-9" d="M13.1,7.1Z"/><path class="cls-1" d="M17.2,11.3Z"/><path class="cls-68" d="M17.2,11.3Z"/><path class="cls-28" d="M17.1,11.2Z"/><path class="cls-69" d="M17.1,11.2Z"/><path class="cls-29" d="M17.1,11.3h0Z"/><path class="cls-70" d="M17.1,11.3h0Z"/><polygon class="cls-17" points="17.4 11 17.4 11 17.4 11 17.4 11"/><polygon class="cls-71" points="17.4 11 17.4 11 17.4 11 17.4 11"/><path class="cls-37" d="M17.4,11Z"/><path class="cls-72" d="M17.4,11Z"/><path class="cls-38" d="M17.4,11Z"/><path class="cls-73" d="M17.4,11Z"/><path class="cls-38" d="M17.4,11.1Z"/><path class="cls-74" d="M17.4,11.1Z"/></g></svg>