<svg xmlns="http://www.w3.org/2000/svg" viewBox="0 0 30 20"><defs><style>.cls-1{fill:#5f81c0;}.cls-2{fill:#fafafa;}.cls-3{fill:#fed208;}.cls-4{fill:#70cddd;}.cls-5{fill:#a65fa6;}.cls-6{fill:#54429a;}.cls-7{fill:#385daa;}.cls-8{fill:#049f9f;}.cls-9{fill:#f6eb16;}.cls-10{fill:#f15822;}.cls-11{fill:#ee2524;}.cls-12{fill:#5167b0;}.cls-13{fill:#6da842;}.cls-14{fill:#febd11;}.cls-15{fill:#ed2224;}</style></defs><title>ni</title><g id="Layer_69" data-name="Layer 69"><path class="cls-1" d="M0,17.5A2.5,2.5,0,0,0,2.6,20H27.4A2.5,2.5,0,0,0,30,17.5V13.3H0Z"/><path class="cls-1" d="M27.4,0H2.6A2.5,2.5,0,0,0,0,2.5V6.7H30V2.5A2.5,2.5,0,0,0,27.4,0Z"/><polygon class="cls-2" points="17.6 10.3 17.6 10.4 17.7 10.4 17.6 10.3"/><polygon class="cls-2" points="17.1 11.7 17.1 11.6 17 11.6 17.1 11.7"/><polygon class="cls-2" points="17.6 9 17.4 9 17.4 9.1 17.6 9"/><polygon class="cls-2" points="17 8.1 16.9 8.2 16.9 8.3 17 8.1"/><path class="cls-2" d="M17.3,8.6h0Z"/><polygon class="cls-2" points="12.8 11.3 12.6 11.3 12.7 11.4 12.8 11.3"/><path class="cls-2" d="M12.2,10h.1C12.3,10.1,12.3,10,12.2,10Z"/><path class="cls-2" d="M13.8,12.3c.1-.1,0-.1,0-.2h-.1v.2Z"/><path class="cls-2" d="M16.7,11.8h0v-.2Z"/><polygon class="cls-2" points="14.6 12.7 14.7 12.7 14.7 12.5 14.6 12.7"/><polygon class="cls-2" points="14 7.4 14 7.6 14.1 7.5 14 7.4"/><path class="cls-2" d="M14.8,7.5h0c.1,0,.2,0,.2-.2h-.3Z"/><path class="cls-2" d="M12.8,8.5h0V8.3h-.1c0,.1-.1.1,0,.1Z"/><path class="cls-2" d="M12.8,8.5H13V8.4Z"/><path class="cls-2" d="M12.3,9.2h.1a.1.1,0,0,1,.1-.1h-.2Z"/><path class="cls-2" d="M0,13.3H30V6.7H0Zm12.1-3h0V9.9l.2.2V9.9h.1v.2h-.4A.1.1,0,0,0,12.1,10.3Zm.3.5c0-.1,0-.1.1-.1a.1.1,0,0,1,.1.1h-.2Zm.2.8h-.2c.1.1.1.1.2,0h.3l-.2.3Zm.4.4h0l.2-.2h-.4l.2-.3-.2.2c-.1,0-.1,0,0,.1h0v-.2h0l.3-.3h.1l-.2.3h.4L13,12Zm.1-.8L15,7.9l1.9,3.3Zm.2,1.1-.2-.2h.1l.2-.2h0l.2.2h-.1c.1-.1.1-.1,0-.1h-.2c0,.1,0,.1.1,0h-.1Zm.5.3h-.1v-.2h-.2l.2-.3h.1c.1.1.1.1.1.2h-.2v.2Zm.2.1h-.1v-.3h.1v.3Zm.2.1a.4.4,0,0,1-.1-.3c0-.1.1-.2.3-.2h0c-.1-.1-.2,0-.2.1s0,.2.1.2.1,0,.1,0h0C14.4,12.8,14.3,12.8,14.2,12.8Zm.6.1h-.4c.1,0,.1,0,.1-.1l.2-.3h0v.4h0Zm.5,0c-.2,0-.3-.1-.3-.2s.1-.3.2-.3h.2v.2h0c0-.1-.1-.2-.2-.1s-.1,0-.1.2h.2Zm.6-.2h-.4c.1,0,.1,0,.1-.1v-.3h.2v.2h.1Zm.4-.1-.4-.3v.3h0v-.3h.3v-.2h0l.2.3Zm.2-.2h0l-.2-.2h-.1l.3-.2h-.1l.2.3h-.1ZM17,12h-.2l-.2-.2h0c.1-.1.2-.1.2,0s.1.1,0,.1Zm.3-.3h-.1v.2h0l-.2-.3h.4Zm.1-.1h0l-.3-.2h.4v-.2h.1Zm.1-.6h0Zm.3-.6h-.4v-.2h.1c-.1,0-.1,0-.1.1h0v-.2h.2l.2.2Zm.1-.7h0v.2h-.4c0,.2.1.2.1.2h.2A.1.1,0,0,0,17.9,9.7Zm-.1-.3v.2h0l-.2-.2-.2.2h.2v.2h-.1V9.5c0-.1,0-.2.2-.2S17.8,9.3,17.8,9.4Zm-.1-.5-.3.3h.3Zm-.4-.6h0v.4h-.2v.2s-.1,0,0,.1h-.1V8.6H17V8.5h.4Zm-.2-.2v.3h-.2l.3-.2Zm-.3-.4c0,.1,0,.2.1.1h0V8h-.3c0,.1-.1.2,0,.3h0a.2.2,0,0,1,0-.3Zm-.4-.2h0v.3h-.1l.2-.2Zm-.6.1h0l.2-.3h0v.2h0v.3h0V7.6c-.1.1-.1.1,0,.1h-.1ZM15,7.1h.1V7.2H15Zm-.2,0,.2.2c0,.2,0,.2-.2.3h-.1V7.2h.1Zm-.9.5V7.3h0l.2.3h-.3Zm-.4-.1h.1v.2h-.2a.2.2,0,0,0,0,.3c0,.1.1.1.2.1V7.7h0c0,.1,0,.2-.1.2s-.2,0-.3-.1A.4.4,0,0,1,13.5,7.5Zm-.2.2h0c-.1,0-.1.1,0,.1l.2.2h-.1l-.2-.3h.1Zm-.4.3h0l.3.2h0V8.1h.1l-.3.2h0c.1,0,0,0,0-.1l-.2-.2h0Zm-.2.4c0-.1.1-.2.1-.1H13c.1,0,.1.1,0,.2h-.1l-.3-.2h.1Zm-.3.4h.4V8.7h0v.2h0c-.1.1-.1.2-.2.1h-.2Zm-.1.4c0-.1,0-.2.1-.2v.2h-.2Zm0,.2h0c.1-.1.1-.1,0-.1h.3v.3h-.3a.1.1,0,0,0-.1.1h0V9.4Z"/><path class="cls-3" d="M15,7.9l-1.9,3.3h3.8Zm-1.3,2.3h0l.5-.7h.3l.5-.8.4.7h.4l.4.7h0l.5.9H13.2Z"/><path class="cls-4" d="M14.6,8.8h.8L15,8.1l-.5.8h.1Z"/><path class="cls-4" d="M14.2,10h0c.1,0,.1.1.2.2h0V10h0l.2.2h.1V10h0l.2.2h.1V10h0v.2h.1V10h.1v.2h.4l-.4-.7L15,9.3l-.8.2-.5.7h.4Zm.7-.4h.2c-.1,0-.1,0-.1-.1h-.1Z"/><polygon class="cls-5" points="14.3 9.3 14.3 9.3 14.3 9.3 14.3 9.3"/><path class="cls-5" d="M15.8,9.5H14.2l.8-.2Z"/><polygon class="cls-6" points="15.5 9 15.6 9.1 15.6 9.2 15.6 9.1 15.5 9 15.5 8.9 15.4 8.8 15.4 8.8 15.5 8.9 15.5 9"/><path class="cls-6" d="M15,9.3h0Z"/><path class="cls-7" d="M15,9.2h0Z"/><path class="cls-8" d="M15,9.1h0Z"/><path class="cls-9" d="M15,8.7h0Z"/><path class="cls-9" d="M15,9h0Z"/><polygon class="cls-9" points="15.5 8.9 15.5 9 15.5 8.9 15.4 8.8 15.4 8.8 15.5 8.9"/><path class="cls-10" d="M15,9h0Z"/><path class="cls-11" d="M15,8.9h0Z"/><path class="cls-12" d="M16.2,10.2h-.4a.3.3,0,0,0,.1.2H13.5a.8.8,0,0,0,.5-.2.3.3,0,0,0,.1-.2h-.4l-.5.9h3.5Z"/><path class="cls-12" d="M14.4,10.2Z"/><path class="cls-12" d="M14.8,10.2h-.1c0,.1,0,.1.1.2Z"/><path class="cls-12" d="M15.5,10.2h-.1a.1.1,0,0,0,.1.1Z"/><path class="cls-12" d="M15.2,10.2h-.1A.1.1,0,0,0,15.2,10.2Z"/><path class="cls-13" d="M15.7,10.3c0-.1-.1-.2-.1-.3v.2H16Z"/><path class="cls-13" d="M15.9,10.4h0Z"/><path class="cls-14" d="M15.7,10h-.1c0,.1.1.2.1.3l.3.2h-.1a.3.3,0,0,1-.1-.2Z"/><path class="cls-13" d="M15.7,10.5c-.5-.2-.2-.1-.3-.2s-.2-.2-.1-.3v.2a.1.1,0,0,1-.1.1h.6Z"/><path class="cls-13" d="M15.6,10.4h0Z"/><path class="cls-14" d="M15.4,10.3c.1.1-.2,0,.3.2h-.2a.1.1,0,0,1-.1-.1V10h0C15.2,10.1,15.3,10.2,15.4,10.3Z"/><path class="cls-13" d="M15.5,10.5h-.2l-.3-.2c0-.1-.1-.2-.1-.3v.4h.7Z"/><path class="cls-13" d="M15.3,10.5h0Z"/><path class="cls-14" d="M15,10.3l.3.2h-.2l-.2-.2h0C14.9,10.1,15,10.2,15,10.3Z"/><path class="cls-13" d="M14.5,10.4h.4l-.3-.2c0-.1-.1-.2-.1-.3v.2h.1Z"/><path class="cls-13" d="M14.8,10.4h0Z"/><path class="cls-14" d="M14.6,10.3l.3.2h-.1c-.1-.1-.1-.1-.1-.2l-.2-.2h0C14.5,10.1,14.6,10.2,14.6,10.3Z"/><path class="cls-13" d="M15,10.6h-.4l-.3-.2c0-.1-.1-.2-.1-.3v.2a.3.3,0,0,1-.1.2.8.8,0,0,1-.5.2H15Z"/><path class="cls-13" d="M14.5,10.4h0Z"/><path class="cls-14" d="M14.3,10.3l.3.2h-.2c-.1-.1-.1-.2-.2-.2h0C14.2,10.1,14.3,10.2,14.3,10.3Z"/><path class="cls-15" d="M15,9.6h0c0,.1,0,.1.1.1H15Z"/><path class="cls-3" d="M17.6,9.8h0s-.1,0-.1-.2h.4V9.7h0a.1.1,0,0,1-.1.1Z"/><path class="cls-3" d="M17.6,9.3c-.2,0-.2.1-.2.2v.2h.1V9.5h-.2l.2-.2.2.2h0V9.4C17.8,9.3,17.7,9.2,17.6,9.3Z"/><path class="cls-3" d="M16.5,7.8a.2.2,0,0,0,0,.3h0c-.1-.1,0-.2,0-.3h.3V7.8h0c-.1.1-.1,0-.1-.1Z"/><path class="cls-3" d="M16.4,7.6l-.2.2h.1V7.6h0Z"/><path class="cls-3" d="M15.9,7.7c-.1,0-.1,0,0-.1v.2h0V7.5h0V7.3h0l-.2.3h.1Z"/><path class="cls-3" d="M15.1,7.2v.3h0Z"/><path class="cls-3" d="M13.7,7.9c.1,0,.1-.1.1-.2h0v.2c-.1,0-.2,0-.2-.1a.2.2,0,0,1,0-.3h.2V7.4h-.1a.4.4,0,0,0-.1.3C13.5,7.9,13.6,8,13.7,7.9Z"/><path class="cls-3" d="M13.2,7.8l.2.3h.1l-.2-.2c-.1,0-.1-.1,0-.1h-.1Z"/><path class="cls-3" d="M12.9,8.1l.2.2c0,.1.1.1,0,.1h0l.3-.2h-.1v.2h0l-.3-.2h0Z"/><path class="cls-3" d="M12.4,8.9h.2c.1.1.1,0,.2-.1h0V8.7h0v.2h-.4Z"/><path class="cls-3" d="M12.1,9.8a.1.1,0,0,1,.1-.1h.3V9.5h-.3c.1,0,.1,0,0,.1h-.1v.4Z"/><path class="cls-3" d="M12.5,10.3h.1v-.2h-.1v.2l-.2-.2v.4h0a.1.1,0,0,1,.1-.1h.3Zm-.3-.1h0c.1,0,.1.1.1.2Z"/><path class="cls-3" d="M12.3,9.3h.2V9c-.1,0-.1.1-.1.2h0Zm0-.1h.2a.1.1,0,0,0-.1.1Z"/><path class="cls-3" d="M12.6,8.5l.3.2H13c.1-.1.1-.2,0-.2h-.2c0-.1-.1,0-.1.1Zm.4-.1v.2h0Zm-.3-.1h.1v.2h-.1C12.6,8.4,12.7,8.4,12.7,8.3Z"/><path class="cls-3" d="M14.7,7.2v.3h.1c.2-.1.2-.1.2-.3l-.2-.2h-.1Zm.1,0H15c0,.2-.1.2-.2.2h0V7.2Z"/><path class="cls-3" d="M17.3,8.4h-.4v.2h.2v.2h.1c-.1-.1,0-.1,0-.1V8.6h.2V8.3h0Zm0,0h0Z"/><path class="cls-3" d="M16.7,8.2H17V8.1h0l-.3.2Zm.3-.1v.2H17Z"/><path class="cls-3" d="M17.2,8.9h.2l.3-.3h-.5Zm.4.1h0Z"/><path class="cls-3" d="M17.5,10.1h-.1v.2h0c0-.1,0-.1.1-.1h-.1v.2h.4l-.2-.2Zm.1.2h0Z"/><path class="cls-3" d="M14,7.7h.2L14,7.3h0v.5H14Zm0-.3h0Z"/><path class="cls-3" d="M17.5,11.2v.2h-.4l.3.2h0l.2-.3Z"/><path class="cls-3" d="M16.6,12.3l-.2-.3h.1l-.3.2h.1l.2.2h.1Z"/><path class="cls-3" d="M16.2,12.1h-.1v.2h-.3v.3h0v-.3l.4.3h0l-.2-.3Z"/><path class="cls-3" d="M15.7,12.7h.1v-.2h-.2v.3c0,.1,0,.1-.1.1h.2Z"/><path class="cls-3" d="M15.3,12.8h-.2c0-.2,0-.2.1-.2s.2,0,.2.1h0v-.2h-.2c-.1,0-.2.1-.2.3s.1.2.3.2h0Z"/><path class="cls-3" d="M14.3,12.7c-.1,0-.2-.1-.1-.2s.1-.2.2-.1h0c-.2,0-.3.1-.3.2a.4.4,0,0,0,.1.3c.1,0,.2,0,.2-.1h0S14.3,12.8,14.3,12.7Z"/><path class="cls-3" d="M14,12.6v-.3H14v.3H14Z"/><path class="cls-3" d="M13.3,12.2h.2c.1,0,.1,0,0,.1h.1l-.2-.2h0l-.2.2h-.1l.2.2h.1C13.3,12.3,13.3,12.3,13.3,12.2Z"/><path class="cls-3" d="M13,12l.3-.2h-.4l.2-.3H13l-.3.3h0v.2h0c-.1-.1-.1-.1,0-.1l.2-.2-.2.3h.4l-.2.2h0Z"/><path class="cls-3" d="M13.7,12.3h.2c0-.1,0-.1-.1-.2h-.1l-.2.3h.2v.2h.1Zm0,0v-.2h.1c0,.1.1.1,0,.2Z"/><path class="cls-3" d="M14.8,12.8v-.4h0l-.2.3c0,.1,0,.1-.1.1h.4Zm-.2-.1v0Z"/><path class="cls-3" d="M12.7,11.5l.2-.3h-.3c-.1.1-.1.1-.2,0h.3Zm-.1-.2h0Z"/><path class="cls-3" d="M17,12h-.2c.1,0,.1-.1,0-.1s-.1-.1-.2,0h0l.2.2H17Zm-.3,0h.1Z"/><path class="cls-3" d="M17.3,11.6h-.4l.2.3h0v-.2h.1Zm-.2.1h0Z"/><path class="cls-3" d="M12.6,10.8a.1.1,0,0,0-.1-.1c-.1,0-.1,0-.1.1h.2Z"/><path class="cls-3" d="M17.5,10.8h0Z"/></g></svg>