<svg xmlns="http://www.w3.org/2000/svg" viewBox="0 0 30 20"><defs><style>.cls-1{fill:#fafafa;}.cls-2{fill:#1f449b;}.cls-3{fill:#ce2931;}.cls-4{fill:#fff;}.cls-5{fill:#ce2028;}.cls-6{fill:#166835;}.cls-7{fill:#3665b0;}.cls-8{fill:#fecf0a;}.cls-9{fill:#fee600;}</style></defs><title>py</title><g id="Layer_60" data-name="Layer 60"><path class="cls-1" d="M0,13.4H30V6.6H0Zm15-6A2.6,2.6,0,1,1,12.4,10,2.6,2.6,0,0,1,15,7.4Z"/><path class="cls-2" d="M0,17.5A2.5,2.5,0,0,0,2.5,20H27.4A2.5,2.5,0,0,0,30,17.5V13.4H0Z"/><path class="cls-3" d="M27.4,0H2.5A2.5,2.5,0,0,0,0,2.5V6.6H30V2.5A2.5,2.5,0,0,0,27.4,0Z"/><path class="cls-4" d="M15,12.6A2.6,2.6,0,1,0,12.4,10,2.6,2.6,0,0,0,15,12.6Zm0-4.8A2.2,2.2,0,1,1,12.8,10,2.2,2.2,0,0,1,15,7.8Z"/><path class="cls-5" d="M16.5,8.8Z"/><path class="cls-5" d="M16.3,8.5h0Z"/><path class="cls-5" d="M16.7,9.1h0Z"/><path class="cls-5" d="M13.1,10.3h0Z"/><path class="cls-5" d="M16,8.3h0Z"/><path class="cls-5" d="M17.1,10.1h0Z"/><path class="cls-5" d="M15,12.2A2.2,2.2,0,1,0,12.8,10,2.2,2.2,0,0,0,15,12.2ZM12.9,9.9h0v.2H13V9.9h.1v.2h.1v.2h-.3Zm0,.6h0a.1.1,0,0,1,.1-.1h0a.1.1,0,0,1,.1.1h-.2ZM15,11.6A1.7,1.7,0,0,1,13.3,10a1.7,1.7,0,0,1,3.4,0A1.7,1.7,0,0,1,15,11.6Zm2-1.1h0l-.2-.2H17Zm.1-.3h0Zm0-.5h-.3c0,.1-.1.1,0,.1h.3Zm-.2-.5a.1.1,0,0,0,.1.1h-.2A.1.1,0,0,1,16.9,9.2ZM16.8,9l-.2.3h0V9h.2Zm-.2-.3h-.4l.3-.2Zm-.3-.3v.3H16l.3-.2ZM16,8.1h-.1v.2h0Zm-.7-.2h.1v.3h0Zm-.4,0h0Zm-.3,0h0V7.9Zm-.6.2.3.3H14V8.2Zm-.4.3h0Zm-.1.1.3.3h-.1l-.2-.3Zm-.2.2.3.2h.1V9l-.3-.2Zm-.1.2h.2L13.1,9Zm-.2.5h.3c.1.1.1.1,0,.1H13Zm-.1.2Z"/><path class="cls-5" d="M14,8.2Z"/><path class="cls-5" d="M13,9.5h0Z"/><path class="cls-5" d="M13.3,9Z"/><path class="cls-5" d="M13.5,9.1Z"/><path class="cls-5" d="M14.7,8.2h-.1v.2Z"/><path class="cls-4" d="M16.1,10.3h0Z"/><path class="cls-4" d="M16,9.9h0Z"/><path class="cls-4" d="M13.7,9.9h0Z"/><path class="cls-4" d="M14.6,9h0Z"/><path class="cls-4" d="M15.5,10.8h0Z"/><path class="cls-4" d="M15.9,10.6Z"/><path class="cls-4" d="M14.6,11h0Z"/><path class="cls-4" d="M14.2,10.5Z"/><path class="cls-4" d="M15.9,9.1Z"/><path class="cls-4" d="M16.1,9.8h0Z"/><path class="cls-4" d="M15.8,10.6Z"/><path class="cls-4" d="M16.2,9.8h0Z"/><polygon class="cls-4" points="14.1 9.1 14.1 9.1 14.1 9.1 14.1 9.1"/><path class="cls-4" d="M16.1,9.5h0Z"/><path class="cls-4" d="M15.9,10.6h0Z"/><path class="cls-4" d="M15,8.3A1.8,1.8,0,0,0,13.3,10a1.7,1.7,0,0,0,3.4,0A1.8,1.8,0,0,0,15,8.3Zm0,.8a.7.7,0,0,1,.8.8.8.8,0,0,1-1.6,0A.7.7,0,0,1,15,9.1Zm1.2.9V9.8h.1v.2h-.1v.2h.2l-.2.2h-.3c.1-.1.2-.1.2,0h-.9a.2.2,0,0,0,.3,0c0,.2-.1.2-.2.2s-.1-.1-.2-.2l-.4.2c-.1,0-.1-.2-.1-.2h.2l-.4.2.2-.2h-.7l-.3-.2.3.2h-.1l-.2-.2h.2l-.2-.2h.1V9.9h.1c-.1,0-.1-.1-.1-.2V10h0c-.1,0-.1-.1-.1-.2h0V9.6c0,.1,0,.2.1.2h0V9.6h0a.3.3,0,0,1,.1.2c0-.1-.1-.2-.1-.3v.2a.4.4,0,0,0-.1-.3c.1,0,.1.1.1.2a.4.4,0,0,0-.1-.3.4.4,0,0,1,.1.3V9.3h0v.2h0V9.4h0V9.1c0,.1,0,.2.1.2h0V9.1a.3.3,0,0,1,.1.2v0h0V8.9h0V9h.1V9h0V9l.2-.3a.4.4,0,0,0-.1.3h0c.1-.1.1-.1.1-.2v.2h-.1a.2.2,0,0,0,.2-.2.3.3,0,0,1-.1.2h0a.3.3,0,0,0,.1-.2c0,.1,0,.1-.1.2s.1-.1.1-.2h0V8.7c0,.1-.1.1-.1.2h.1a.1.1,0,0,1,.1-.1.1.1,0,0,0-.1.1h0c0-.1.1-.1.1-.2s-.1.1-.1.2h0c.1-.1.1-.1.1-.2h-.5v.2h0l-.2.2.2-.2v.2h.1c0,.1-.1.1-.1.2s.1-.1.1-.2h0a.1.1,0,0,0-.1.1h0V9.7H14v0h0v.3h.1a.4.4,0,0,0-.1.3.4.4,0,0,1,.1-.3v.2h0v0h0a.4.4,0,0,0,.1.3v-.2h0v.2h0c0,.1.1.2.1.3s-.1-.2-.1-.3v.2h.2a.2.2,0,0,1-.2-.2l.2.2h-.1c.1,0,.1.1.2.2l-.2-.2.5.3.2.2h.1v-.2c.1-.1.1-.2.2-.2h0a.1.1,0,0,1,.1.1h0v-.4h.1v-.2c.1,0,.1,0,.1.1h0V9.9h-.1c-.1-.1-.2-.2-.1-.2h-.3V9h.1s-.1-.1,0-.1H16V9h.1v.4h.2v.4h.1a.1.1,0,0,1-.1.1h-.1Z"/><path class="cls-4" d="M14,9.8V10h0Z"/><polygon class="cls-4" points="14.1 9.1 14.1 9.1 14.1 9.1 14.1 9.1"/><path class="cls-6" d="M16.1,9.5Z"/><polygon class="cls-6" points="16.2 9.8 16.2 9.8 16.2 9.8 16.2 9.8"/><polygon class="cls-6" points="16.1 9.4 16.1 9.4 16.1 9.4 16.1 9.4"/><polygon class="cls-6" points="15.9 9.1 15.9 9.1 15.9 9.1 15.9 9.1"/><path class="cls-6" d="M15.6,11h0Z"/><path class="cls-6" d="M15.2,11.1Z"/><path class="cls-6" d="M14.8,11.3h-.2s0,.2.1.2l.4-.2h-.3Z"/><path class="cls-6" d="M15.7,9h0Z"/><polygon class="cls-6" points="16.2 9.8 16.2 9.8 16.2 9.8 16.2 9.8"/><path class="cls-6" d="M15.9,9.1Z"/><path class="cls-6" d="M15.8,9.1Z"/><path class="cls-6" d="M15.8,9.1h0Z"/><path class="cls-6" d="M15.8,9.1Z"/><path class="cls-6" d="M15.7,9.1h0c-.1,0,0,.1,0,.1h0Z"/><path class="cls-6" d="M15.8,9.2h0Z"/><path class="cls-6" d="M15.8,9.1h0Z"/><path class="cls-6" d="M16.1,9.4h0V9h0Z"/><path class="cls-6" d="M16.1,9.4h0V9.2H16v.2h0Z"/><path class="cls-6" d="M16.1,9.4h-.3c-.1,0,0,.1.1.2Z"/><path class="cls-6" d="M16.1,9.4h0Z"/><path class="cls-6" d="M15.9,9.1h.2V9.2h-.1Z"/><path class="cls-6" d="M16,9.5h0Z"/><path class="cls-6" d="M16.1,9.4Z"/><path class="cls-6" d="M16.2,9.8h.1V9.4h0C16.3,9.7,16.3,9.8,16.2,9.8Z"/><path class="cls-6" d="M16.2,9.8h0c.1,0,.1-.1.1-.2h-.1Z"/><polygon class="cls-6" points="16.2 9.8 16.2 9.8 16.2 9.8 16.2 9.8 16.2 9.8"/><path class="cls-6" d="M16.1,9.8h.1a.1.1,0,0,1-.1-.1h0Z"/><path class="cls-6" d="M16.2,9.8h0V9.6h0A.1.1,0,0,0,16.2,9.8Z"/><path class="cls-6" d="M16.1,9.4h0v.2h0V9.6h-.1Z"/><polygon class="cls-6" points="16.2 9.8 16.2 9.8 16.2 9.8 16.2 9.8"/><path class="cls-6" d="M16,9.9h0Z"/><path class="cls-6" d="M16.2,9.8h0Z"/><path class="cls-6" d="M16.2,9.8h.1a.1.1,0,0,0,.1-.1h-.2Z"/><path class="cls-6" d="M16.2,10.2h.1V9.9h-.1v.2Z"/><path class="cls-6" d="M16.2,10.2h.1V9.9h0V10h0Z"/><path class="cls-6" d="M16.1,10.2V10H16v.2Z"/><path class="cls-6" d="M16.1,9.9h0v.2h0V10h0Z"/><path class="cls-6" d="M16.2,9.8h-.1v.2h.1V10h0V9.8Z"/><path class="cls-6" d="M16.1,10.2Z"/><path class="cls-6" d="M16.1,10.2h0Z"/><path class="cls-6" d="M16.2,10.2Z"/><path class="cls-6" d="M16,10.6h.2l.2-.2H16Z"/><path class="cls-6" d="M16,10.6h0Z"/><path class="cls-6" d="M15.9,10.6Z"/><path class="cls-6" d="M16,10.4h0c0-.1,0-.1-.1-.1v.2H16Z"/><path class="cls-6" d="M16,10.5h0v-.2h0Z"/><path class="cls-6" d="M16.2,10.2H16v.2h.2v-.2Z"/><path class="cls-6" d="M15.8,10.6Z"/><path class="cls-6" d="M15.8,10.5Z"/><path class="cls-6" d="M15.9,10.6Z"/><path class="cls-6" d="M16,10.7h0Z"/><path class="cls-6" d="M15.7,11Z"/><path class="cls-6" d="M15.7,10.9h.4c0-.1-.1-.1-.2,0h-.2Z"/><path class="cls-6" d="M15.8,10.7h0v.4h0Z"/><path class="cls-6" d="M15.8,10.6h0l-.2.2h0l.2-.2h0Z"/><path class="cls-6" d="M16,10.7h-.2l-.2.2H16Z"/><path class="cls-6" d="M15.5,10.7h.1a.1.1,0,0,0-.1-.1Z"/><path class="cls-6" d="M15.7,11h0Z"/><path class="cls-6" d="M15.2,11.1Z"/><path class="cls-6" d="M15.2,11.1l.2-.2h.1c-.1,0-.1.1-.2.2v.2Z"/><path class="cls-6" d="M15.7,11h-.3l-.2.2h.5Z"/><path class="cls-6" d="M15.6,8.9h0V8.8h.1Z"/><path class="cls-6" d="M15.5,8.9h0Z"/><polygon class="cls-6" points="15.6 8.9 15.6 9 15.6 8.9 15.6 8.9"/><path class="cls-6" d="M15.6,9Z"/><path class="cls-6" d="M14.9,11h.2c.1.1.1.2.2.2s.2,0,.2-.2a.2.2,0,0,1-.3,0h-.1Z"/><path class="cls-6" d="M14.8,8.8h0Z"/><polygon class="cls-6" points="14.6 8.9 14.6 8.9 14.5 8.9 14.5 8.9 14.5 8.9 14.6 8.9"/><polygon class="cls-6" points="14.6 8.9 14.6 8.9 14.6 8.9 14.6 8.9"/><path class="cls-6" d="M14.7,8.7a.1.1,0,0,0-.1.1h0A.1.1,0,0,1,14.7,8.7Z"/><path class="cls-6" d="M14.6,8.9h0Z"/><path class="cls-6" d="M14.8,9Z"/><path class="cls-6" d="M14.6,9Z"/><path class="cls-6" d="M14.7,8.9h0Z"/><path class="cls-6" d="M14.5,8.9c0-.1.1-.1.1-.2v.2Z"/><path class="cls-6" d="M14.6,9h0Z"/><path class="cls-6" d="M14.6,8.9Z"/><path class="cls-6" d="M14.5,9Z"/><path class="cls-6" d="M14.5,8.8h0c0,.1,0,.1-.1.2h.1Z"/><path class="cls-6" d="M14.4,8.9h0Z"/><path class="cls-6" d="M14.5,9Z"/><path class="cls-6" d="M14.4,8.9Z"/><path class="cls-6" d="M14.4,8.9h0c.1-.1.1-.1.1-.2a.3.3,0,0,1-.1.2Z"/><path class="cls-6" d="M14.5,9h0Z"/><path class="cls-6" d="M14.4,8.9Z"/><polygon class="cls-6" points="14.5 8.9 14.6 8.9 14.5 8.9 14.5 8.9"/><path class="cls-6" d="M14.5,9Z"/><path class="cls-6" d="M14.4,8.9h0a.3.3,0,0,0,.1-.2.2.2,0,0,1-.2.2h.1Z"/><path class="cls-6" d="M14.4,9h0Z"/><path class="cls-6" d="M14.4,8.9Z"/><path class="cls-6" d="M14.3,9h0Z"/><path class="cls-6" d="M14.4,8.7c0,.1,0,.1-.1.2h.1Z"/><path class="cls-6" d="M14.4,9.1h0Z"/><path class="cls-6" d="M14.3,9h0Z"/><path class="cls-6" d="M14.3,8.9h0a.4.4,0,0,1,.1-.3l-.2.3h.1Z"/><path class="cls-6" d="M14.3,9.1Z"/><path class="cls-6" d="M14.3,9.1h0Z"/><path class="cls-6" d="M14.2,9h0V9Z"/><path class="cls-6" d="M14.3,9.1Z"/><path class="cls-6" d="M14.2,9.1h0Z"/><path class="cls-6" d="M14.1,9.1Z"/><path class="cls-6" d="M14.2,8.8V9h0Z"/><path class="cls-6" d="M14.3,9.2h0Z"/><path class="cls-6" d="M14.2,9.2h0Z"/><path class="cls-6" d="M14.1,9.1h0V9h0Z"/><path class="cls-6" d="M14.1,9.1Z"/><path class="cls-6" d="M14.2,9.2h0Z"/><path class="cls-6" d="M14.1,9.2h0Z"/><path class="cls-6" d="M14.1,9h0v.2h0Z"/><path class="cls-6" d="M14.1,9.1Z"/><path class="cls-6" d="M14.2,9.2h0Z"/><path class="cls-6" d="M14.4,9h0Z"/><path class="cls-6" d="M14.4,9.3h0Z"/><path class="cls-6" d="M14,9.2h.1v0Z"/><path class="cls-6" d="M14.1,9.3Z"/><path class="cls-6" d="M14.1,9.1h0Z"/><polygon class="cls-6" points="14 9.2 14.1 9.1 14 9.2 14 9.2 14 9.2"/><path class="cls-6" d="M14.2,9.3h0Z"/><path class="cls-6" d="M14,9.3h0v.1Z"/><path class="cls-6" d="M14,9.2Z"/><path class="cls-6" d="M14.1,9.2h0Z"/><path class="cls-6" d="M14,9.4Z"/><path class="cls-6" d="M14,9.3h0v0H14Z"/><path class="cls-6" d="M14.2,9.3h0Z"/><path class="cls-6" d="M14,9.4Z"/><path class="cls-6" d="M14.1,9.1h0Z"/><polygon class="cls-6" points="14 9.3 14 9.3 14 9.3 14 9.3 14 9.3"/><path class="cls-6" d="M13.9,9.3v0Z"/><path class="cls-6" d="M14.2,9.4h0Z"/><path class="cls-6" d="M14,9.4h0l.2-.2Z"/><path class="cls-6" d="M14,9.4h0Z"/><path class="cls-6" d="M13.9,9.4h0a.3.3,0,0,0-.1-.2v.2h0Z"/><path class="cls-6" d="M14,9.5h.2Z"/><path class="cls-6" d="M13.9,9.4H14V9.1h-.1Z"/><polygon class="cls-6" points="13.9 9.4 13.9 9.4 13.9 9.4 13.9 9.4"/><path class="cls-6" d="M13.8,9.4h.1c-.1,0-.1-.1-.1-.2v.3Z"/><path class="cls-6" d="M13.9,9.5h0Z"/><path class="cls-6" d="M13.9,9.4Z"/><path class="cls-6" d="M13.9,9.4h0Z"/><path class="cls-6" d="M13.8,9.4v.1h0Z"/><path class="cls-6" d="M13.8,9.4h0Z"/><path class="cls-6" d="M13.9,9.5h.2V9.3h-.3Z"/><path class="cls-6" d="M13.9,9.4h0v.2h0V9.2h0Z"/><path class="cls-6" d="M13.7,9.2h.1Z"/><path class="cls-6" d="M13.8,9.6a.4.4,0,0,0-.1-.3v.2Z"/><path class="cls-6" d="M13.9,9.6Z"/><path class="cls-7" d="M14.2,9.9a.8.8,0,0,0,1.6,0,.8.8,0,1,0-1.6,0Zm.8-.7.2.5h.5l-.4.3.2.5-.5-.3-.4.3V10l-.4-.3h.5Z"/><path class="cls-6" d="M14,9.4h0Z"/><path class="cls-6" d="M13.9,9.6h0Z"/><path class="cls-6" d="M14.1,9.5h0Z"/><path class="cls-6" d="M13.8,9.5h-.1a.4.4,0,0,1,.1.3Z"/><path class="cls-6" d="M14,9.6h0Z"/><path class="cls-6" d="M13.8,9.5Z"/><path class="cls-6" d="M13.7,9.5h.1v.1h0Z"/><path class="cls-6" d="M13.9,9.6h0l.2-.2h-.2Z"/><path class="cls-6" d="M13.9,9.6h0V9.3h-.1v.2Z"/><path class="cls-6" d="M13.7,9.6h0a.4.4,0,0,0-.1-.3.4.4,0,0,1,.1.3h0Z"/><path class="cls-6" d="M14.1,9.5l-.2.2h.2Z"/><path class="cls-6" d="M13.8,9.6h0v0h0V9.5h0Z"/><path class="cls-6" d="M13.8,9.6h-.1c0-.1,0-.2-.1-.2a.4.4,0,0,1,.1.3h.1Z"/><path class="cls-6" d="M14,9.6h-.1l.2-.2H14Z"/><path class="cls-6" d="M13.9,9.6v.2h0Z"/><path class="cls-6" d="M13.8,9.8h-.1V9.5c0,.1.1.2.1.3Z"/><path class="cls-6" d="M13.9,9.8h0c0-.1.1-.1.1-.2V9.5l-.2.2Z"/><polygon class="cls-6" points="13.8 9.7 13.8 9.7 13.8 9.7 13.8 9.7"/><path class="cls-6" d="M13.8,9.6h0v.2h0Z"/><path class="cls-6" d="M13.7,9.7h0c0,.1,0,.1.1.2h-.1a.3.3,0,0,0-.1-.2h.1Z"/><path class="cls-6" d="M13.9,9.9H14c0-.1.1-.1.1-.2H14C14,9.8,13.9,9.8,13.9,9.9Z"/><path class="cls-6" d="M13.9,9.8h0Z"/><path class="cls-6" d="M13.8,9.8h0v0h0Z"/><path class="cls-6" d="M13.8,9.9h0Z"/><path class="cls-6" d="M14,9.9h0Z"/><path class="cls-6" d="M13.8,10h0c-.1-.1-.1-.1-.1-.2v.2Z"/><path class="cls-6" d="M13.7,9.7h-.1v.2Z"/><path class="cls-6" d="M13.9,9.9h0a.3.3,0,0,0,.1-.2h.1c0,.1-.1.1-.1.2Z"/><path class="cls-6" d="M13.8,9.9h0v.2Z"/><path class="cls-6" d="M13.8,10Z"/><path class="cls-6" d="M13.7,9.9h0Z"/><path class="cls-6" d="M13.7,9.8c-.1,0-.1-.1-.1-.2v.2h.1Z"/><path class="cls-6" d="M13.9,9.9H14a.1.1,0,0,1,.1-.1H14A.3.3,0,0,1,13.9,9.9Z"/><path class="cls-6" d="M13.8,9.9h.1V9.6h-.1Z"/><path class="cls-6" d="M13.8,9.9h0Z"/><path class="cls-6" d="M13.8,10V9.8h0Z"/><path class="cls-6" d="M13.7,9.9h-.1c0,.1,0,.2.1.2h0Z"/><path class="cls-6" d="M13.9,10h0V9.8h.1v.2h-.1Z"/><path class="cls-6" d="M13.8,10.1h0Z"/><path class="cls-6" d="M13.7,10.1Z"/><path class="cls-6" d="M13.8,10.1h-.1V9.7h.1Z"/><path class="cls-6" d="M14,9.8V10h0V9.9Z"/><path class="cls-6" d="M13.7,10.1h0V9.8c0,.1,0,.2.1.2Z"/><path class="cls-6" d="M13.9,10.1Z"/><path class="cls-6" d="M13.8,10h.1V9.9h-.1Z"/><path class="cls-6" d="M13.8,10.2V10h-.1v.2h.1Z"/><path class="cls-6" d="M13.7,10.1h0Z"/><path class="cls-6" d="M13.9,10.1h0a.4.4,0,0,0,.1-.3h0v.2Z"/><path class="cls-6" d="M13.9,10.1Z"/><path class="cls-6" d="M13.8,10.2h-.2l.2.2Z"/><path class="cls-6" d="M13.9,10.1H14V9.9h0A.4.4,0,0,1,13.9,10.1Z"/><path class="cls-6" d="M13.8,9.8h.1v.2h0v.2h-.1Z"/><path class="cls-6" d="M13.9,10.1h0Z"/><path class="cls-6" d="M13.8,10.2h-.2l.2.2h0Z"/><path class="cls-6" d="M13.9,10.2h0A.4.4,0,0,0,14,10h0v.3Z"/><path class="cls-6" d="M13.8,10.2h-.1l.2.2h-.2Z"/><path class="cls-6" d="M13.9,10.4h0Z"/><path class="cls-6" d="M13.9,10.3H14V9.9h0A.4.4,0,0,1,13.9,10.3Z"/><path class="cls-6" d="M13.9,10.3h0Z"/><path class="cls-6" d="M14,10.4Z"/><path class="cls-6" d="M13.9,10.5h0Z"/><path class="cls-6" d="M14,10.4h0v0Z"/><path class="cls-6" d="M13.8,10.3h.1l-.2-.2h.1Z"/><path class="cls-6" d="M13.9,10.5l-.3-.2.3.2h0Z"/><path class="cls-6" d="M14,10.4h0a.4.4,0,0,1,.1-.3H14Z"/><path class="cls-6" d="M13.9,10.1h0Z"/><path class="cls-6" d="M14,10.6h0Z"/><path class="cls-6" d="M14,10.5h0v-.4a.4.4,0,0,0-.1.3Z"/><path class="cls-6" d="M14,10.5h0Z"/><path class="cls-6" d="M14,10.5Z"/><path class="cls-6" d="M14,10.6h0Z"/><path class="cls-6" d="M14,10.5h.1v-.3h0v.2Z"/><path class="cls-6" d="M14,10.4h0Z"/><path class="cls-6" d="M14,10.6Z"/><path class="cls-6" d="M14.1,10.6h0v-.3h0v.3Z"/><path class="cls-6" d="M14,10.6Z"/><path class="cls-6" d="M14,10.7Z"/><path class="cls-6" d="M14.2,10.7h0a.4.4,0,0,1-.1-.3h0v.3Z"/><path class="cls-6" d="M14.2,10.7H14v.2h.2Z"/><polygon class="cls-6" points="14.1 10.7 14.1 10.7 14.1 10.7 14.1 10.7"/><path class="cls-6" d="M14.1,10.8h0Z"/><path class="cls-6" d="M14.1,10.3h.1Z"/><path class="cls-6" d="M14.2,10.7h0v-.2h-.1v.2Z"/><path class="cls-6" d="M14,10.7h0Z"/><path class="cls-6" d="M14.2,10.5Z"/><path class="cls-6" d="M14.2,10.8h0Z"/><path class="cls-6" d="M14.2,10.7h.1a.4.4,0,0,1-.1-.3v.2Z"/><path class="cls-6" d="M14.2,10.8h0Z"/><path class="cls-6" d="M14.2,10.7h0Z"/><path class="cls-6" d="M13.9,10.9h0Z"/><polygon class="cls-6" points="14.1 10.9 14.1 10.9 14.1 10.9 14.1 10.9"/><polygon class="cls-6" points="14.2 10.8 14.2 10.8 14.2 10.8 14.2 10.8"/><path class="cls-6" d="M14.3,10.8h0c0-.1-.1-.2-.1-.3h0A.4.4,0,0,0,14.3,10.8Z"/><path class="cls-6" d="M14.2,10.8Z"/><path class="cls-6" d="M14.3,10.9h0Z"/><path class="cls-6" d="M14.2,10.5h0c0,.1.1.2.1.3h0c0-.1-.1-.2-.1-.3Z"/><path class="cls-6" d="M14.1,10.7h0Z"/><path class="cls-6" d="M14,11h0Z"/><path class="cls-6" d="M14.4,10.8h0v-.3h0v-.2c0,.1.1.2.1.3Z"/><path class="cls-6" d="M14.3,10.9h0Z"/><path class="cls-6" d="M15,8.9h0Z"/><path class="cls-6" d="M14.7,8.9h0Z"/><path class="cls-6" d="M14.7,8.8Z"/><polygon class="cls-6" points="14.6 8.9 14.6 8.9 14.6 8.9 14.6 8.9"/><path class="cls-6" d="M14.8,9h0Z"/><path class="cls-6" d="M14.6,8.9Z"/><path class="cls-6" d="M14.6,8.9Z"/><path class="cls-6" d="M14.7,8.9Z"/><path class="cls-6" d="M14.5,9Z"/><path class="cls-6" d="M14.6,8.9Z"/><path class="cls-6" d="M14.6,8.9h.1c0,.1,0,.1-.1.2Z"/><polygon class="cls-6" points="14.6 8.9 14.6 8.9 14.6 8.9 14.6 8.9"/><path class="cls-6" d="M14.7,8.9h0Z"/><path class="cls-6" d="M14.5,9Z"/><path class="cls-6" d="M14.7,9h0Z"/><path class="cls-6" d="M14.6,8.9Z"/><path class="cls-6" d="M14.6,8.9Z"/><path class="cls-6" d="M14.5,8.9Z"/><path class="cls-6" d="M14.6,8.9h0c0-.1.1-.1.1-.2s-.1.1-.1.2Z"/><path class="cls-6" d="M14.6,9h0Z"/><path class="cls-6" d="M14.5,8.9Z"/><path class="cls-6" d="M14.5,8.9Z"/><path class="cls-6" d="M14.4,10.9Z"/><path class="cls-6" d="M14.2,10.9h0Z"/><path class="cls-6" d="M14.4,10.9Z"/><path class="cls-6" d="M14.3,10.9Z"/><path class="cls-6" d="M14.2,10.9h0Z"/><path class="cls-6" d="M14.4,10.9Z"/><path class="cls-6" d="M14.4,11h0Z"/><path class="cls-6" d="M14.4,10.9h-.1Z"/><path class="cls-6" d="M14.4,10.9h0Z"/><polygon class="cls-6" points="14.4 10.9 14.4 10.9 14.4 10.9 14.4 10.9"/><path class="cls-6" d="M14.5,11.1h0Z"/><path class="cls-6" d="M14.5,10.9h0l-.2-.2a.2.2,0,0,0,.2.2Z"/><path class="cls-6" d="M14.6,11Z"/><path class="cls-6" d="M14.3,11h0Z"/><path class="cls-6" d="M14.5,10.9Z"/><path class="cls-6" d="M14.4,10.9Z"/><path class="cls-6" d="M14.5,10.9h0Z"/><path class="cls-6" d="M14.6,11h0Z"/><path class="cls-6" d="M14.5,11.1h0Z"/><path class="cls-6" d="M14.6,10.9h0c-.1-.1-.1-.2-.2-.2h.2Z"/><path class="cls-6" d="M14.7,11h0Z"/><path class="cls-6" d="M14.6,11.1h0l-.2.2.4-.2Z"/><path class="cls-6" d="M14.7,11h.2l-.5-.3.2.2Z"/><path class="cls-6" d="M14.9,11h0Z"/><polygon class="cls-8" points="14.7 10 14.6 10.5 15 10.2 15.4 10.5 15.3 10 15.7 9.7 15.2 9.7 15 9.2 14.8 9.7 14.3 9.7 14.7 10"/><path class="cls-9" d="M16.7,10.4h.1l.2.2h-.3Z"/><path class="cls-9" d="M16.8,9.7h0c-.1,0,0,0,0-.1Z"/><path class="cls-9" d="M16.7,9.3H17a.1.1,0,0,1-.1-.1.1.1,0,0,0-.1.1Z"/><polygon class="cls-9" points="15.5 8.3 15.3 8.2 15.4 7.9 15.3 7.9 15.3 8.3 15.5 8.3 15.5 8.3"/><polygon class="cls-9" points="15.1 8.2 14.9 8.2 14.9 8.1 15.1 8.1 15.1 8 14.9 8 14.9 7.9 15.1 7.9 15.1 7.9 14.9 7.9 14.9 8.2 15.1 8.2 15.1 8.2"/><path class="cls-9" d="M13.7,8.6h0Z"/><polygon class="cls-9" points="13.8 8.8 13.5 8.5 13.5 8.5 13.7 8.8 13.8 8.8"/><polygon class="cls-9" points="13.7 8.8 13.7 8.8 13.6 8.9 13.3 8.7 13.3 8.8 13.6 9 13.7 8.8"/><path class="cls-9" d="M13.2,9.5h.1c.1,0,.1,0,0-.1h-.1Z"/><polygon class="cls-9" points="13.2 9.9 13.2 9.9 13.2 10 13.1 10.1 13.1 9.9 13 9.9 13 10.1 12.9 10.1 12.9 9.9 12.9 9.9 12.9 10.1 13.2 10.1 13.2 9.9"/><path class="cls-9" d="M14.7,8.3h-.2v.4ZM14.6,8h0V8Z"/><path class="cls-9" d="M15.9,8.3H16l-.2.3h0Zm.1-.1Z"/><path class="cls-9" d="M16,8.6h.2V8.4h0l-.3.2Zm.2-.2h0Z"/><path class="cls-9" d="M16.3,8.8h.2l-.3.2Zm.2-.2h0Z"/><path class="cls-9" d="M16.4,9.1h.2v.2h0l.2-.3h-.4Zm.3-.1h0Z"/><path class="cls-9" d="M16.7,10h0Zm.2.1h0Z"/><path class="cls-9" d="M13.1,10.4h0a.1.1,0,0,0-.1-.1h0a.1.1,0,0,0-.1.1h.2Zm-.1.1h0Z"/><path class="cls-9" d="M13.3,9.7h0Zm-.2,0h0Z"/><path class="cls-9" d="M13.5,9.1h-.4l.3.2ZM13.2,9Zm.1.1h0Z"/><path class="cls-9" d="M14,8.5h.3L14,8.1h-.1v.3Zm0-.2h0Z"/></g></svg>