<svg xmlns="http://www.w3.org/2000/svg" viewBox="0 0 30 20"><defs><style>.cls-1{fill:#fafafa;}.cls-2{fill:#2968b2;}.cls-3{fill:#d31f36;}</style></defs><title>pa</title><g id="Layer_61" data-name="Layer 61"><path class="cls-1" d="M15,20H27.5A2.5,2.5,0,0,0,30,17.5V10H15Zm7.6-7.5.6,1.8H25l-1.5,1,.6,1.8L22.6,16l-1.5,1.1.6-1.8-1.5-1H22Z"/><path class="cls-1" d="M15,0H2.5A2.5,2.5,0,0,0,0,2.5V10H15ZM8.9,7,7.4,5.9,5.9,7l.6-1.7L5,4.2H6.8l.6-1.8L8,4.2H9.8L8.3,5.3Z"/><polygon class="cls-2" points="9.8 4.2 8 4.2 7.4 2.4 6.8 4.2 5 4.2 6.5 5.3 5.9 7 7.4 5.9 8.9 7 8.3 5.3 9.8 4.2"/><path class="cls-2" d="M0,10v7.5A2.5,2.5,0,0,0,2.5,20H15V10Z"/><path class="cls-3" d="M27.5,0H15V10H30V2.5A2.5,2.5,0,0,0,27.5,0Z"/><polygon class="cls-3" points="25 14.3 23.2 14.3 22.6 12.5 22 14.3 20.2 14.3 21.7 15.3 21.1 17.1 22.6 16 24.1 17.1 23.5 15.3 25 14.3"/></g></svg>