<svg xmlns="http://www.w3.org/2000/svg" viewBox="0 0 30 20"><defs><style>.cls-1{fill:#fff;}.cls-2{fill:#283890;}.cls-3{fill:#246130;}.cls-4{fill:#e41e26;}.cls-5{fill:#ffcd05;}.cls-6{fill:#037e93;}.cls-7{fill:#010101;}.cls-8{fill:#0b1723;}.cls-9{fill:#081e32;}.cls-10{fill:#fdd2b3;}.cls-11{fill:#fde5ce;}</style></defs><title>sv</title><g id="Layer_47" data-name="Layer 47"><path class="cls-1" d="M14.7,11.9Z"/><polygon class="cls-1" points="16 8.6 16.3 8.3 16.3 8.3 15.6 9.1 15.6 9.1 15.7 8.9 16 8.6"/><polygon class="cls-1" points="14.6 12.1 14.6 12.1 14.6 12.1 14.6 12.1"/><path class="cls-1" d="M13.3,11h-.1l.2.2h0a.3.3,0,0,1,.1-.2v.2h.1a.1.1,0,0,0,.1.1v.2h.1v.2h.2v-.2h.5a.3.3,0,0,0,.1.2h.1v-.2h.2c.1,0,.1.2.1.2h0s0-.2.1-.2h.3c0-.1,0-.2.1-.2h.4a.1.1,0,0,1-.1.1h.1V12h.3s-.1-.2,0-.2h0v-.2h.2v-.2c.1,0,.1.1.1.2h0a.2.2,0,0,0,.2-.2H13.3Zm3.3.2h0Zm-.6.5Zm-2-.3h.4l.6.2h0l.6-.2h.1l-.4.2h-.7l-.4-.2H14Zm-.1.3h0Zm-.5-.4h-.1C13.4,11.2,13.4,11.2,13.4,11.3Z"/><path class="cls-1" d="M13.2,11Z"/><polygon class="cls-1" points="16 9.8 16 9.7 15.9 9.6 15.7 9.3 15.6 9.1 16.1 9.9 16 9.8 16 9.8"/><path class="cls-1" d="M16.8,9.1Z"/><path class="cls-1" d="M15.6,10.9h0Z"/><path class="cls-1" d="M14.7,11.1h0Z"/><path class="cls-1" d="M14.6,11Z"/><path class="cls-1" d="M15,10.9Z"/><path class="cls-1" d="M13.2,11.2Z"/><path class="cls-1" d="M14.1,11.4h0Z"/><path class="cls-1" d="M13.5,8.3h.1A.1.1,0,0,0,13.5,8.3Z"/><path class="cls-1" d="M15.8,11.4Z"/><path class="cls-1" d="M14.7,11.9Z"/><path class="cls-1" d="M14.4,10.9h0Z"/><path class="cls-1" d="M14.7,12.1Z"/><path class="cls-1" d="M14.9,12.2Z"/><path class="cls-1" d="M13.1,9.2Z"/><polygon class="cls-1" points="13.3 9.4 13.1 9.2 13.1 9.2 13.3 9.4"/><path class="cls-1" d="M14.7,12.1v0Z"/><path class="cls-1" d="M14.7,11.9Z"/><path class="cls-1" d="M13,9.3c.1,0,.1,0,.1-.1H13Z"/><path class="cls-1" d="M14.7,11.9Z"/><path class="cls-1" d="M14.7,12.2Z"/><path class="cls-1" d="M14.5,12.2h0Z"/><path class="cls-1" d="M14.9,12.2h0Z"/><path class="cls-1" d="M13.7,11.8h0Z"/><path class="cls-1" d="M16.3,8.2h0Z"/><polygon class="cls-1" points="14.3 9.1 14.3 9.1 14 8.6 14.2 8.9 14.3 9.1"/><path class="cls-1" d="M16.2,11.8Z"/><path class="cls-1" d="M14.2,9.1v.2l-.2.3h-.1v0c-.1,0-.1-.1-.1-.2h.1l-.3-.2c-.1.2,0,.3,0,.5s0,.3.1.4l-.2.3.9-1.5h-.1Z"/><path class="cls-1" d="M13.2,10.7h0V9.4h-.2v.3l.2-.2h0v.2h-.2v.3h0c-.1,0,0-.1,0-.1h.2v.2h0v.2h-.2v.2h.3A.1.1,0,0,1,13.2,10.7ZM13,9.5h0Zm-.1.5Zm.1.6Z"/><path class="cls-1" d="M15.5,12.2h0Z"/><polygon class="cls-1" points="13.9 8.6 13.6 8.3 13.6 8.3 13.9 8.6"/><polygon class="cls-1" points="15 8 15 8 15 8.1 15 8"/><path class="cls-1" d="M16.4,8.3h0c0-.1,0-.1-.1-.1h.1Z"/><path class="cls-1" d="M14.8,12.1H15l-.2-.3Z"/><polygon class="cls-1" points="15 12.1 15 12.1 15 12.1 15 12.1"/><path class="cls-1" d="M13.7,8.2Z"/><path class="cls-1" d="M14.9,8.1Z"/><path class="cls-1" d="M14.9,8.1Z"/><path class="cls-1" d="M14.9,8.1Z"/><polygon class="cls-1" points="15 7.6 15 7.6 15 7.5 15 7.6"/><path class="cls-1" d="M15,7.5h0Z"/><path class="cls-1" d="M16.7,10.7a.1.1,0,0,0,.1.1h.1c.1,0,.1-.1.1-.2h-.1c-.1-.1-.1-.1-.1-.2h.1V10h.2v-.3H17c-.1,0-.1-.1-.1-.2H17c.1,0,.1.1.1.2V9.4h-.3c0,.1.1.3.1.4s-.1.3-.1.5v.2h-.1c0,.1,0,.1-.1.1h.1Zm.2-.1ZM17,10Zm0-.6Z"/><path class="cls-1" d="M15,12.1v0Z"/><path class="cls-1" d="M15.3,11.1h0Z"/><path class="cls-1" d="M15.2,11.9h-.1v.2h.1Z"/><path class="cls-1" d="M15.1,7.5Z"/><path class="cls-1" d="M16.8,11Z"/><path class="cls-1" d="M0,13.4H30V6.6H0Zm11.9-2.9.3-.2h0v.2h-.3Zm.1.4h.2c.1,0,.1-.1.1-.2h0c0,.1,0,.1.1.1a.2.2,0,0,1-.2.2C12.1,11.1,12,11,12,10.9Zm.1.3h.4l-.4.2Zm.1.3.3-.2h0v.2l-.3.2Zm.2.3v-.2h.4l-.3.2Zm.3.3h-.1v-.2h.2a.2.2,0,0,1,0,.3h-.2Zm.3.3c-.1-.1-.1-.1-.1-.2h.4l-.3.3Zm.2.1h.3l-.2.3Zm.5.3h-.1c-.1,0-.1-.1-.1-.2h.1v-.2h.1v.2h.1Zm0-.9h0Zm2.6.9v-.3h0l.2.3Zm-.1-.8h0Zm.4.7-.3-.3h.3v.4Zm.4-.3h-.1l.2.3Zm.2-.2h0l-.2-.2h0l.3.2h-.1Zm.4-.4h-.2l-.3-.2h.4l-.2-.2h0l.3.2Zm.1-.2h-.3v-.2l.3.2Zm.2-.4h-.1a.1.1,0,0,0,0-.2h0C17.9,11,18,11.1,17.9,11.2Zm.2-.8h-.3l.3.2Zm0-.3h-.3c0-.1,0-.2.1-.2s.3.1.3.2Zm0-.4h0Zm0-.4c0,.1,0,.2-.1.2h-.1l-.2.2h.4ZM18,9.1h-.2V9h-.1V9h.3Zm-.2-.6-.2.2h.3l-.3.2h-.1l.2-.2h.1Zm-.3-.4h.1l-.3.3h.2Zm-.3,1.3ZM17,7.6V8h-.3l.4-.2Zm-.1,1.1h0Zm-.3-1.4h.1l-.2.3h-.1ZM16,7h.1v.4h0V7.1h.1v.4h-.1V7.2h0v.2h0Zm-.3-.1h-.1Zm-.8,0h0Zm-.3,0c.1,0,.2,0,.2.2a.2.2,0,0,1-.4,0Zm-.5.1h.2c.1.1,0,.2-.1.3h-.1V7Zm-.4.1.3.3h-.3V7.1Zm-.1,1.1h0l.8.8L15,8h-.1V8a2.3,2.3,0,0,0,.1-.4h0a.1.1,0,0,0,.1-.1h0v.2h0v.2H15l.6.9.7-.8h0c0,.2.1.3.1.5v.5h0l.4-.3h0c-.1,0-.1-.1,0-.1h-.2a.1.1,0,0,0-.1-.1h.1c-.1,0-.1-.2,0-.1h.5v.2h0v.3h.2v.2h0v.2h-.1l-.2.2h0c0,.1-.1.2-.1.3h0c0-.1,0,0,.1-.1h.1c0,.1-.1.1-.1.2h.2l-.2.2h0a.1.1,0,0,0-.1.1h-.4c.1,0,0,.1,0,.1h.2c0-.1-.1,0-.1,0h-.6s-.1.2-.2.2h-.9a.1.1,0,0,0,.1.1h.1l.3.3h-.4v-.2h-.2a.4.4,0,0,0-.1.3h0s-.1.1,0,.1-.2-.1-.1-.2h-.3l.2-.3h-.7c-.1,0-.2-.2-.1-.2h.1s-.1-.1,0-.1H12.7v-.2h.1v-.2H13a.1.1,0,0,1-.1-.1h-.1V10h-.1V9.8a.1.1,0,0,1-.1-.1h0V9.4h.1V9.3h.2a.4.4,0,0,1,.1-.3h-.1V8.9h.2l.5.3h0v-1h0Zm3.1.7Zm.6,1.1Zm-.1.7h0Zm-.3.7Zm-3.9,0h0Zm-.2-.7h0Zm-.2-.7h0Zm.1-.6h0Zm.3-.7h.1c0,.1,0,.1-.1.1Zm.3.2h0Zm-.1-1.5.2.2h0V7.3h.1v.4h0l-.3-.3Zm-.2.2.2.2h0L13,7.6Zm-.3.2h.2l-.2-.4Zm-.2.3h.3v.2h-.1c0-.1-.1,0-.1,0h-.1C12.4,8.2,12.4,8.2,12.5,8.1Zm-.3.5h.4v.2l-.3-.2Zm-.1.2h.2V9h.2v.2L12,8.9Zm-.2.5h.4v.2h-.4Zm.2.3c.1,0,.1.1.1.2h-.3A.2.2,0,0,1,12.1,9.6Z"/><polygon class="cls-1" points="16.8 9.2 16.6 9.4 16.8 9.2 16.8 9.2"/><path class="cls-1" d="M16.5,9.5l-.3.2h0V10l.3.4V9.5Z"/><path class="cls-1" d="M16.9,9.3Z"/><path class="cls-1" d="M16.8,11.2Z"/><polygon class="cls-1" points="15.3 12.1 15.3 12.1 15.3 12.1 15.3 12.1"/><path class="cls-1" d="M15,11.1h0Z"/><path class="cls-1" d="M15.3,11h0Z"/><path class="cls-1" d="M14.9,11Z"/><path class="cls-1" d="M15,11.3Z"/><path class="cls-1" d="M15.2,11h0Z"/><path class="cls-1" d="M15.5,11Z"/><path class="cls-1" d="M15.1,11Z"/><path class="cls-1" d="M14.9,11.3Z"/><polygon class="cls-1" points="15 11 15 11 15 11 15 11"/><path class="cls-2" d="M27.4,0H2.6A2.5,2.5,0,0,0,0,2.5V6.6H30V2.5A2.5,2.5,0,0,0,27.4,0Z"/><path class="cls-2" d="M0,17.5A2.5,2.5,0,0,0,2.6,20H27.4A2.5,2.5,0,0,0,30,17.5V13.4H0Z"/><path class="cls-3" d="M16.2,11.8Z"/><path class="cls-3" d="M15.4,12.2h0Z"/><path class="cls-3" d="M15.1,12.2Z"/><path class="cls-3" d="M16.2,11.8h0Z"/><path class="cls-3" d="M16.8,11.2h0a.1.1,0,0,1-.1.1h.1Z"/><path class="cls-3" d="M14.8,12.3h-.2l-.2.3h.4Z"/><path class="cls-3" d="M15.4,12.1Z"/><path class="cls-3" d="M15,12.3h0Z"/><path class="cls-3" d="M16.7,11.3h0a.2.2,0,0,1-.2.2h.2Z"/><path class="cls-3" d="M16.9,8.9h0Z"/><path class="cls-3" d="M17.1,9.4h0v.3h0V9.4h0Z"/><path class="cls-3" d="M16.6,8.4Z"/><path class="cls-3" d="M17,10.6h0c0,.1,0,.2-.1.2V11H17Z"/><path class="cls-3" d="M17.1,10h0v.3h0c0-.1.1-.2.1-.3h-.1Z"/><path class="cls-3" d="M16.6,11h.1a.1.1,0,0,0,.1-.1h0V11h0a.1.1,0,0,1-.1-.1h-.1Z"/><path class="cls-3" d="M16.9,10.8h-.1v.2h0v-.2h.1v-.2Z"/><path class="cls-3" d="M15.9,11.8h-.1l-.2.2h.2Z"/><path class="cls-3" d="M15.6,12h0l.2-.2h0a.1.1,0,0,0,.1-.1h-.3Z"/><path class="cls-3" d="M15.4,12h.1c-.1,0-.1.1-.1.2h0Z"/><path class="cls-3" d="M15.8,12h0Z"/><path class="cls-3" d="M15.8,12.1h.1a.1.1,0,0,0,.1.1h0c.1,0,.2-.2.2-.2h-.4Z"/><path class="cls-3" d="M15.7,12.2H16a.1.1,0,0,1-.1-.1Z"/><path class="cls-3" d="M16.5,11.5v.2h.3s.1-.1,0-.1h-.2Z"/><path class="cls-3" d="M16.5,11.6h0Z"/><path class="cls-3" d="M16.5,11.7h.3s.1-.1.1,0h-.4Z"/><path class="cls-3" d="M16.2,11.7v-.2h-.1v.2h0c-.1,0,0,.2,0,.2h.1Z"/><path class="cls-3" d="M16.6,11.4h-.1c0-.1,0-.2-.1-.2v.2h-.1v.2h.2v-.2h.1Z"/><path class="cls-3" d="M16.2,11.8h0Z"/><path class="cls-3" d="M17.1,11.1l-.2.2h.2a.1.1,0,0,1,.1-.1h0l.2-.2h-.3Z"/><path class="cls-3" d="M16.8,11.3h0Z"/><path class="cls-3" d="M16.9,11h-.1v.2h.1l.2-.2h.1c0-.1.1-.1.1-.2h-.4Z"/><path class="cls-3" d="M17,10.6Z"/><path class="cls-3" d="M17.1,10.3h-.2v.2h0a.1.1,0,0,0,.1.1h0v.2h0v-.2h0Z"/><path class="cls-3" d="M17,10.4h0a.1.1,0,0,1-.1-.1h-.1c0,.1,0,.1.1.2H17Z"/><path class="cls-3" d="M17,9.5h.1C17.1,9.6,17.1,9.5,17,9.5Z"/><path class="cls-3" d="M17,9.7h-.1c0,.1,0,.2.1.2h0Z"/><path class="cls-3" d="M17.3,10.3h.1A.1.1,0,0,0,17.3,10.3Z"/><path class="cls-3" d="M17,10.7h0Z"/><path class="cls-3" d="M17.1,10.4v.2h.3a.1.1,0,0,1,.1-.1h-.2c-.1.1-.1,0-.1.1h0Z"/><path class="cls-3" d="M17.3,9.8h-.1l.2-.2h.1V9.4h-.1Z"/><path class="cls-3" d="M17.1,10Z"/><path class="cls-3" d="M17.1,9.7h.2V9.6h.1V9.3h-.2Z"/><path class="cls-3" d="M16.8,9.1Z"/><path class="cls-3" d="M16.9,9.2Z"/><path class="cls-3" d="M16.8,9.1h0Z"/><path class="cls-3" d="M16.9,9.3h0Z"/><path class="cls-3" d="M17,9.2h.1c-.1,0-.1,0-.1-.1h0Z"/><path class="cls-3" d="M17,9.1h0Z"/><path class="cls-3" d="M17,9.1h0c0,.1,0,.1.1.1h0V8.9H17Z"/><path class="cls-3" d="M16.7,8.8a.1.1,0,0,0-.1-.1h-.1a.1.1,0,0,1,.1.1Z"/><path class="cls-3" d="M16.8,8.8Z"/><path class="cls-3" d="M16.8,8.8Z"/><path class="cls-3" d="M16.8,8.8h0a.1.1,0,0,1-.1-.1h0c0-.1-.1-.1,0-.1h-.1c-.1-.1-.1.1,0,.1h0a.1.1,0,0,1,.1.1h.1Z"/><path class="cls-3" d="M16.7,8.7h0a.1.1,0,0,0,.1.1h-.1C16.6,8.6,16.7,8.6,16.7,8.7Z"/><path class="cls-4" d="M16,11.8h0Z"/><path class="cls-4" d="M16.2,11.9Z"/><path class="cls-4" d="M16.6,11.3Z"/><path class="cls-4" d="M16.8,11.4h0Z"/><path class="cls-4" d="M16.9,10.6Z"/><path class="cls-4" d="M17.1,10.7Z"/><path class="cls-4" d="M17,10Z"/><path class="cls-4" d="M17.2,9.4Z"/><path class="cls-4" d="M17,9.5h0Z"/><path class="cls-4" d="M16.8,8.9h0Z"/><path class="cls-4" d="M16.9,8.7h0Z"/><path class="cls-4" d="M16.6,8.4h0Z"/><path class="cls-4" d="M17.2,10h0Z"/><path class="cls-4" d="M13.9,11.8h0Z"/><path class="cls-4" d="M13.8,11.9Z"/><path class="cls-4" d="M13.3,11.3h.1c0-.1,0-.1-.1-.1Z"/><path class="cls-4" d="M13.1,11.4Z"/><path class="cls-4" d="M13,10.6Z"/><path class="cls-4" d="M12.9,10.7h0Z"/><path class="cls-4" d="M12.9,10Z"/><path class="cls-4" d="M12.8,9.4h0Z"/><path class="cls-4" d="M13,9.4h0Z"/><path class="cls-4" d="M13.2,8.9Z"/><path class="cls-4" d="M13.1,8.7H13C13.1,8.8,13.1,8.8,13.1,8.7Z"/><path class="cls-4" d="M13.4,8.4Z"/><path class="cls-4" d="M12.7,10Z"/><path class="cls-3" d="M12.9,10.4h0v-.3h0v.3Z"/><path class="cls-3" d="M13.1,8.9h0Z"/><path class="cls-3" d="M13,11v-.4h0a.1.1,0,0,0,.1.1h0Z"/><path class="cls-3" d="M12.8,9.7h0V9.4h0a.4.4,0,0,0-.1.3Z"/><path class="cls-3" d="M14.6,12.1h0Z"/><path class="cls-3" d="M15.2,12.4h.4l-.3-.3h-.1Z"/><path class="cls-3" d="M14.4,12.1h0Z"/><path class="cls-3" d="M13.2,11.2h0Z"/><path class="cls-3" d="M13.7,11.8h0Z"/><path class="cls-3" d="M14.9,12.2h0Z"/><path class="cls-3" d="M15.1,12.3Z"/><path class="cls-3" d="M14.8,12.2h0Z"/><path class="cls-3" d="M14.2,12h-.4s.1.1,0,.1h.4Z"/><path class="cls-3" d="M13.4,11.5h0l-.2-.2h.2Z"/><path class="cls-3" d="M13.4,8.4Z"/><polygon class="cls-3" points="14.9 12.3 14.9 12.3 14.9 12.3 14.9 12.3 14.9 12.3 14.9 12.3"/><path class="cls-3" d="M13.2,10.7h0v.2h0Z"/><path class="cls-3" d="M13.2,11.2h0V11H13V11h.1v.2h0Z"/><path class="cls-3" d="M14.5,12.1h-.2l-.2-.2H14V12h.4Z"/><path class="cls-3" d="M14.6,12.1h-.3a.1.1,0,0,0-.1-.1h-.1l.2.2h.3Z"/><path class="cls-3" d="M14.7,12.1h-.1a.3.3,0,0,1-.1-.2h-.3a.1.1,0,0,1,.1.1h.4Z"/><polygon class="cls-3" points="14.7 12.1 14.7 12.1 14.7 12.1 14.7 12.1"/><path class="cls-3" d="M14.2,12.1h-.3c-.1,0,0,.1,0,.1h.3Z"/><path class="cls-3" d="M14.3,12.2h-.5c-.1,0,0,.2.1.2h.4Z"/><path class="cls-3" d="M14.7,12.2Z"/><path class="cls-3" d="M13.5,11.6h0v-.2h.1Z"/><path class="cls-3" d="M13.5,11.7c0,.1,0,.1.1.1h-.1Z"/><path class="cls-3" d="M13.8,11.8h-.2c-.1,0-.1,0-.1-.1h.3Z"/><path class="cls-3" d="M13.9,11.6h-.1v-.2a.1.1,0,0,1-.1-.1h0v.2h.2Z"/><path class="cls-3" d="M13.8,11.8h0C13.9,11.9,13.8,11.8,13.8,11.8Z"/><path class="cls-3" d="M13.7,11.7v-.2h-.1v-.2a.3.3,0,0,0-.1.2h0v.2h.2Z"/><path class="cls-3" d="M13.2,11.3Z"/><path class="cls-3" d="M13.2,11.3H13l-.2-.2h-.2v.2h.5Z"/><path class="cls-3" d="M12.8,11.1l.2.2h.2v-.2h-.5v.2h.1Z"/><path class="cls-3" d="M12.9,10.6h0v-.2h.2V10h-.2s-.1.1,0,.1h0v.2Z"/><path class="cls-3" d="M13,10.6Z"/><path class="cls-3" d="M13,10.3h-.1v.2h.2v-.2H13Z"/><path class="cls-3" d="M12.9,9.7H13l-.2.2h0C12.9,9.8,12.9,9.8,12.9,9.7Z"/><path class="cls-3" d="M12.9,9.9H13V9.7h-.1c0,.1,0,.1-.1.1h.1Z"/><path class="cls-3" d="M12.9,10.6Z"/><path class="cls-3" d="M12.9,10.6h0Z"/><path class="cls-3" d="M12.6,10.3h.3v-.2h-.3Z"/><path class="cls-3" d="M12.8,10Z"/><path class="cls-3" d="M12.8,10h-.2V9.6h-.1v.2h0a.1.1,0,0,0,.1.1V10Z"/><path class="cls-3" d="M12.6,9.8h0v.2h0Z"/><path class="cls-3" d="M13.1,9.1h0Z"/><path class="cls-3" d="M13,9.3Z"/><path class="cls-3" d="M13.1,9.1h0Z"/><path class="cls-3" d="M13,9.2h0Z"/><path class="cls-3" d="M12.9,9.1h0Z"/><path class="cls-3" d="M13,9.2h-.1c0,.1.1.1,0,.1H13Z"/><path class="cls-3" d="M12.9,9.3h0c.1,0,0,0,0-.1h0v.2h.1Z"/><path class="cls-3" d="M13.3,8.7h0Z"/><path class="cls-3" d="M13.1,8.8Z"/><path class="cls-3" d="M13.1,8.8Z"/><path class="cls-3" d="M13.2,8.7h0c0,.1,0,.1-.1.1h.1Z"/><path class="cls-3" d="M13.2,8.7h-.1C13.2,8.8,13.2,8.8,13.2,8.7Z"/><path class="cls-2" d="M14.9,8.1H15V7.7h0a.1.1,0,0,0-.1.1h0a2.3,2.3,0,0,1-.1.4v.1Z"/><path class="cls-1" d="M15,7.9V7.7h0v.2h0Z"/><path class="cls-2" d="M15,8.1h.1V7.9h0Z"/><path class="cls-5" d="M15,7.5Z"/><path class="cls-5" d="M15,7.6h-.1A.1.1,0,0,1,15,7.6Z"/><path class="cls-5" d="M15,7.5h0Z"/><path class="cls-5" d="M15,7.5h0Z"/><path class="cls-5" d="M15,7.5Z"/><path class="cls-5" d="M15,7.5h0a.1.1,0,0,1-.1.1Z"/><path class="cls-1" d="M15.7,9.1v.2l.2.3c.1-.1.1-.4.1-.4V8.6l-.3.3C15.8,9,15.8,9,15.7,9.1Z"/><path class="cls-2" d="M15.7,9.1c.1-.1.1-.1,0-.2v.2h0v0Z"/><path class="cls-2" d="M16.3,8.3h0l-.3.3v.6s0,.3-.1.4H16l.4-.2h0V8.9c0-.2-.1-.3-.1-.5h0Z"/><path class="cls-2" d="M16.3,8.3Z"/><path class="cls-5" d="M16.3,8.3h0l-.7.8h0Z"/><path class="cls-5" d="M16.3,8.2Z"/><path class="cls-5" d="M16.3,8.2c.1,0,.1,0,.1.1h-.1Z"/><path class="cls-5" d="M16.3,8.3Z"/><path class="cls-5" d="M16.3,8.2Z"/><path class="cls-5" d="M16.3,8.3Z"/><path class="cls-2" d="M16.2,9.6h-.1V9.6Z"/><path class="cls-5" d="M16,9.8h.2l.3-.2h.1l.2-.2h0l-.4.3-.4.2Z"/><path class="cls-2" d="M16.7,10.7h.1v-.2c0-.2.1-.3.1-.5s-.1-.3-.1-.4h0l-.2.2h-.1v.9l.2.4C16.7,10.8,16.7,10.8,16.7,10.7Z"/><path class="cls-5" d="M16.8,9.2h0c-.1,0-.1.1,0,.1Z"/><path class="cls-5" d="M16.9,9.3Z"/><path class="cls-5" d="M16.8,9.2h0Z"/><path class="cls-5" d="M16.9,9.2h0Z"/><path class="cls-5" d="M16.8,9.3Z"/><path class="cls-2" d="M15,11h0Z"/><path class="cls-1" d="M15.5,11Z"/><path class="cls-2" d="M15.2,11h0Z"/><path class="cls-5" d="M13.7,12.6h0v-.2h-.1v.2h-.1c0,.1,0,.2.1.2h.1v-.3h-.1Zm-.1.1Z"/><polygon class="cls-5" points="13.4 12.2 13.3 12.3 13.4 12.3 13.4 12.4 13.3 12.4 13.2 12.4 13.3 12.5 13.3 12.6 13.2 12.5 13.2 12.5 13.3 12.7 13.5 12.3 13.4 12.2"/><path class="cls-5" d="M13.2,12.1h-.3c0,.1,0,.1.1.2h0l.3-.3Zm-.2.2h0c0-.1,0-.1.1,0H13Z"/><path class="cls-5" d="M12.9,11.8h-.2V12h.3A.2.2,0,0,0,12.9,11.8Z"/><path class="cls-5" d="M12.7,11.6h-.3v.2h.1l.3-.2Zm-.2.2h0c0-.1-.1-.1,0-.1h0Zm.1-.1Z"/><polygon class="cls-5" points="12.5 11.2 12.5 11.2 12.5 11.3 12.2 11.5 12.3 11.6 12.6 11.4 12.5 11.2"/><polygon class="cls-5" points="12.4 11.1 12.1 11.2 12.1 11.3 12.5 11.1 12.4 11.1"/><path class="cls-5" d="M12.2,11a.2.2,0,0,0,.2-.2c-.1,0-.1,0-.1-.1h0c0,.1,0,.2-.1.2H12C12,11,12.1,11.1,12.2,11Z"/><path class="cls-5" d="M12.3,10.6h-.1v-.2h0l-.3.2h.4Zm-.3-.1Z"/><path class="cls-5" d="M12.2,9.9h0c0-.1,0-.2-.1-.2a.2.2,0,0,0-.2.2h.3Zm-.3-.1c0-.1.1-.1.2-.1a.1.1,0,0,1,.1.1h-.3Z"/><polygon class="cls-5" points="12.3 9.3 12.2 9.3 12.2 9.4 12.1 9.4 12.1 9.3 12.1 9.3 12.1 9.4 12 9.4 12 9.3 11.9 9.3 11.9 9.5 12.3 9.5 12.3 9.3"/><polygon class="cls-5" points="12.5 8.9 12.4 8.9 12.3 9 12.3 9 12.3 8.8 12.2 8.8 12.2 8.9 12.1 8.9 12.2 8.8 12.1 8.8 12 8.9 12.4 9.1 12.5 8.9"/><polygon class="cls-5" points="12.6 8.6 12.5 8.6 12.5 8.7 12.2 8.6 12.2 8.6 12.5 8.8 12.6 8.6"/><path class="cls-5" d="M12.6,8.3s.1-.1.1,0h.1V8.2h-.3c-.1.1-.1.1,0,.2Z"/><path class="cls-5" d="M12.9,8.1h-.2l.2.4Zm-.1-.2Z"/><polygon class="cls-5" points="13.3 7.8 13.3 7.7 13.2 7.8 13 7.6 13 7.6 13.2 7.9 13.3 7.8"/><polygon class="cls-5" points="13.5 7.7 13.5 7.3 13.4 7.3 13.4 7.6 13.4 7.6 13.2 7.4 13.2 7.4 13.5 7.7 13.5 7.7"/><path class="cls-5" d="M13.8,7.5H14l-.3-.3h0v.5Zm-.1-.3h.1V7.2Z"/><path class="cls-5" d="M14.2,7.4c.1-.1.2-.2.1-.3H14v.4Zm-.1-.3c.1,0,.1,0,.1.1s0,.1,0,.1h-.1V7.1Z"/><path class="cls-5" d="M14.6,7.3a.2.2,0,0,0,.2-.2c0-.2-.1-.2-.2-.2l-.2.2A.2.2,0,0,0,14.6,7.3Zm0-.3h.1a.1.1,0,0,1-.1.1h0Z"/><path class="cls-5" d="M15,7.1h-.1v.3H15Zm0-.2Z"/><polygon class="cls-5" points="15.8 7.3 15.7 7.3 15.7 7.2 15.8 7.2 15.8 7.1 15.7 7.1 15.7 7 15.8 7 15.9 7 15.7 6.9 15.6 7.3 15.8 7.3 15.8 7.3"/><polygon class="cls-5" points="16 7.2 16 7.2 16.1 7.5 16.2 7.5 16.3 7.1 16.2 7.1 16.2 7.4 16.2 7.4 16.1 7 16 7 15.9 7.4 15.9 7.4 16 7.2"/><polygon class="cls-5" points="16.6 7.7 16.5 7.6 16.7 7.3 16.6 7.3 16.4 7.6 16.6 7.7 16.6 7.7"/><path class="cls-5" d="M16.7,7.8h.2V7.6h0l-.4.2Zm.2-.1h0Z"/><path class="cls-5" d="M17.3,8.3h0l.3-.3h-.3Zm.2-.1h0Z"/><polygon class="cls-5" points="17.4 8.6 17.6 8.6 17.6 8.6 17.5 8.7 17.5 8.8 17.7 8.7 17.5 8.9 17.6 8.9 17.9 8.7 17.9 8.7 17.6 8.7 17.8 8.5 17.7 8.4 17.4 8.6 17.4 8.6"/><polygon class="cls-5" points="17.7 9.2 17.7 9.2 17.7 9.1 17.8 9 17.8 9.2 17.9 9.1 17.8 9 17.9 9 17.9 9.1 18 9.1 17.9 8.9 17.6 9 17.7 9.2"/><path class="cls-5" d="M17.7,9.4h0l.2-.2H18c.1,0,.1-.1.1-.2h-.4Zm.3-.1Z"/><polygon class="cls-5" points="17.8 9.7 18.1 9.7 18.1 9.6 17.7 9.6 17.8 9.7"/><path class="cls-5" d="M17.9,9.8c-.1,0-.1.1-.1.2h.4C18.2,9.9,18.1,9.8,17.9,9.8Z"/><path class="cls-5" d="M17.8,10.2h.3l-.3-.2Zm.1.1h0Z"/><path class="cls-5" d="M17.8,10.9h0a.1.1,0,0,1,0,.2h.1C18,11.1,17.9,11,17.8,10.9Z"/><polygon class="cls-5" points="17.4 11.4 17.4 11.4 17.5 11.3 17.6 11.4 17.5 11.5 17.6 11.5 17.6 11.4 17.7 11.4 17.7 11.5 17.7 11.6 17.8 11.4 17.5 11.2 17.4 11.4"/><polygon class="cls-5" points="17.3 11.5 17.5 11.7 17.5 11.7 17.2 11.7 17.1 11.8 17.4 12 17.5 11.9 17.3 11.8 17.3 11.8 17.6 11.8 17.6 11.7 17.3 11.5 17.3 11.5"/><polygon class="cls-5" points="17.3 12.1 17 11.9 17 11.9 17.2 12.1 17.1 12.2 17.2 12.2 17.4 12.1 17.3 12 17.3 12.1"/><path class="cls-5" d="M16.8,12.1h.3l-.2-.3Zm.1.2h0Z"/><path class="cls-5" d="M16.6,12.3h-.3l.3.3h.1v-.4Zm0,.3h0v.2Z"/><polygon class="cls-5" points="16.1 12.5 16.1 12.6 16.2 12.5 16.3 12.8 16.4 12.8 16.2 12.5 16.1 12.5"/><path class="cls-1" d="M14,9.6l.2-.3V8.9L14,8.6h-.1v1Z"/><path class="cls-2" d="M14.2,9.1v.2h.1v0Z"/><path class="cls-2" d="M14,9.6v-1h0l-.3-.3h0c.1,0,0,.1,0,.1h0v1h0l.3.2Z"/><path class="cls-2" d="M13.6,8.3Z"/><path class="cls-5" d="M13.6,8.3h0l.3.3H14l.3.5h.1l-.8-.8Z"/><path class="cls-5" d="M13.6,8.2h0Z"/><path class="cls-5" d="M13.6,8.3h-.1a.1.1,0,0,1,.1-.1h0Z"/><path class="cls-5" d="M13.6,8.2Z"/><path class="cls-5" d="M13.6,8.1h0Z"/><path class="cls-5" d="M13.6,8.3h0S13.7,8.3,13.6,8.3Z"/><path class="cls-1" d="M15,11.3h0v-.2h0v.2H15Z"/><path class="cls-2" d="M14.9,11h0V11h-.1Z"/><polygon class="cls-2" points="14.9 11.4 14.9 11.4 14.9 11.4 14.9 11.4"/><polygon class="cls-2" points="14.9 11.4 14.9 11.4 14.9 11.4 14.9 11.4"/><polygon class="cls-2" points="15 11.4 15 11.4 15 11.4 15 11.4"/><path class="cls-2" d="M15,11.1h0Z"/><path class="cls-2" d="M13.8,9.8v0h-.2C13.7,9.7,13.7,9.8,13.8,9.8Z"/><path class="cls-5" d="M13.1,9.2h0l.2.2h.2l.3.2h.1l-.3-.2-.5-.3Z"/><path class="cls-2" d="M13.5,10c0-.2-.1-.3,0-.5h-.2l-.2-.2h0v1.1h0a.1.1,0,0,0,.1.1h.1l.2-.3C13.5,10.3,13.5,10,13.5,10Z"/><path class="cls-5" d="M13.1,9.1h0Z"/><path class="cls-5" d="M13,9.2h.1c0,.1,0,.1-.1.1h0Z"/><path class="cls-5" d="M13.1,9.2Z"/><path class="cls-5" d="M13,9.2Z"/><path class="cls-5" d="M13.1,9.3h0Z"/><path class="cls-2" d="M13.7,11.1h0Z"/><path class="cls-1" d="M14.3,11.1h0Z"/><path class="cls-2" d="M14.5,11Z"/><path class="cls-5" d="M14.3,9.1h0l-.9,1.5h3.2l-.2-.4-.3-.4h0l-.5-.8h0L15,8.1h0l-.6,1Zm1.8,1h0l.4.7H13.4l.3-.4h0l.2-.2h0L15,8.2Z"/><path class="cls-1" d="M14,10.1h.1a.2.2,0,0,1,.2-.2H15V9.5l-.2-.2a.2.2,0,0,1,.4,0l-.2.2v.4h1.1L15,8.2l-1.1,1.9Zm.5-.7Zm.1.1Zm.8,0h0Zm0-.1h0Zm0,0Zm0-.1Zm0-.1ZM15.3,9h0Zm-.1,0Zm-.1-.1Zm-.1,0Zm-.2,0h0Zm0,0Zm-.1.1h0Zm0,0Zm-.1.1Zm0,.1Zm0,.1Z"/><path class="cls-1" d="M14.8,10.1h0Z"/><polygon class="cls-6" points="15.6 10.1 15.6 10.1 15.6 10.1 15.6 10.1"/><path class="cls-6" d="M13.8,10.2h.1l-.2.2A.1.1,0,0,0,13.8,10.2Z"/><path class="cls-6" d="M15.5,10.4Z"/><path class="cls-6" d="M15.8,10.1H16a.1.1,0,0,0,.1.1H13.7l-.3.4h3.1l-.4-.7h-.3Z"/><path class="cls-6" d="M15.6,10.1h0Z"/><path class="cls-6" d="M14.9,10.1Z"/><path class="cls-6" d="M15.1,10.3h0Z"/><path class="cls-6" d="M15.8,10.2a.1.1,0,0,0,.1.1h0A.1.1,0,0,1,15.8,10.2Z"/><path class="cls-6" d="M15.1,10.3Z"/><path class="cls-6" d="M15.9,10.3h0Z"/><path class="cls-6" d="M15.4,10.1h0Z"/><path class="cls-1" d="M14.9,9.5H15a.1.1,0,0,0,.1.1H15l.2-.2a.2.2,0,0,0-.4,0l.2.2h-.1Z"/><path class="cls-4" d="M14.6,9.5Z"/><path class="cls-4" d="M14.6,9.4Z"/><path class="cls-4" d="M14.5,9.3h0Z"/><polygon class="cls-4" points="14.6 9.2 14.6 9.2 14.6 9.2 14.6 9.2 14.6 9.2 14.6 9.2 14.6 9.2 14.6 9.2 14.6 9.2 14.6 9.2 14.5 9.2 14.6 9.2 14.6 9.2"/><path class="cls-4" d="M14.7,9.2h0Zm-.1-.1Z"/><polygon class="cls-4" points="14.7 9 14.7 9.1 14.7 9.1 14.7 9 14.7 9 14.7 9 14.6 9 14.6 9.1 14.7 9"/><polygon class="cls-4" points="14.8 9 14.7 9 14.7 9 14.8 9.1 14.8 9"/><polygon class="cls-4" points="14.8 9 14.8 9 14.8 9 14.8 9 14.8 9 14.8 9 14.8 9 14.8 9 14.8 8.9 14.8 8.9 14.7 8.9 14.8 9 14.8 9"/><path class="cls-4" d="M14.9,9h0Z"/><path class="cls-4" d="M15,9h0Zm0-.1ZM15,9h0Z"/><path class="cls-4" d="M15.1,8.9h0Zm0,0Z"/><polygon class="cls-4" points="15.2 9 15.2 9 15.1 9 15.2 9 15.2 9 15.2 9 15.2 9 15.2 8.9 15.2 9 15.2 9 15.2 8.9 15.1 9 15.2 9"/><path class="cls-4" d="M15.2,9.1h0Zm.1-.1h0Z"/><polygon class="cls-4" points="15.3 9.2 15.3 9.2 15.3 9.1 15.3 9.1 15.3 9.2 15.4 9.2 15.3 9.1 15.4 9.1 15.4 9.2 15.4 9.2 15.4 9.1 15.3 9.1 15.3 9.2"/><path class="cls-4" d="M15.4,9.3h0Z"/><path class="cls-4" d="M15.4,9.3Zm-.1.1h0Zm.1,0h0Z"/><path class="cls-4" d="M15.4,9.4Z"/><path class="cls-4" d="M15.4,9.5Z"/><path class="cls-4" d="M15,9.5h0Z"/><path class="cls-4" d="M15,9.4h.1a.1.1,0,0,1-.1-.1h0Z"/><path class="cls-5" d="M15,9.7V9.5h0v.4h0Z"/><path class="cls-5" d="M14,10.5h1.1l-.2-.2h-.6a.2.2,0,0,0-.2.2h-.3a.1.1,0,0,1-.1.1H14Z"/><path class="cls-5" d="M14.8,10h.1l.2.2h-.3Z"/><path class="cls-5" d="M15,10h.6a.1.1,0,0,0-.1-.1H15Z"/><path class="cls-5" d="M15.4,10.1h.1a.1.1,0,0,1,.1.1h.3a.1.1,0,0,1-.1-.1h-.4Z"/><polygon class="cls-5" points="15.6 10.1 15.6 10.1 15.6 10.1 15.6 10.1"/><path class="cls-5" d="M15.6,10.1h.2a.1.1,0,0,0,.1.1h.2a.1.1,0,0,1-.1-.1h-.4Z"/><path class="cls-1" d="M14.1,11.4h.1l.4.2h.7l.4-.2h-.1l-.6.2h0l-.6-.2h-.3Zm1.5-.1h0Zm.1.2Zm-.2-.1Zm-.1,0Zm0,.1Zm-.1,0Zm-.1,0h0Zm0,0h0Zm-.1,0H15v-.2h.1Zm-.2,0h0Zm0,0Zm-.1.1h0Zm-.1-.1Zm-.2.1h0Zm0-.2h0Zm-.1,0Zm-.1-.1h0Z"/><path class="cls-1" d="M14,11.5h0c.1,0,0-.1,0-.1h0Z"/><path class="cls-1" d="M14.1,11.4H14s.1.1,0,.1h.1Z"/><path class="cls-1" d="M15.8,11.4h0Z"/><path class="cls-1" d="M15.9,11.4h0Z"/><path class="cls-7" d="M14.4,11.4h0Zm-.1,0Z"/><polygon class="cls-7" points="14.4 11.5 14.4 11.4 14.4 11.4 14.4 11.5 14.4 11.5"/><path class="cls-7" d="M14.4,11.5h0Zm0,0h0Z"/><path class="cls-7" d="M14.5,11.6h0Z"/><path class="cls-7" d="M14.7,11.6Z"/><polygon class="cls-7" points="14.7 11.6 14.8 11.5 14.8 11.6 14.8 11.5 14.8 11.5 14.8 11.6 14.7 11.5 14.7 11.6 14.7 11.6"/><rect class="cls-7" x="14.8" y="11.6" width="0.1" height="0.01" transform="translate(1.6 25) rotate(-83.1)"/><path class="cls-7" d="M14.9,11.7h0Zm0-.1h0Z"/><polygon class="cls-7" points="15 11.7 15 11.7 15 11.6 15.1 11.6 15.1 11.5 15.1 11.5 15.1 11.6 15 11.5 15 11.7"/><polygon class="cls-7" points="15.2 11.6 15.2 11.6 15.2 11.6 15.2 11.5 15.2 11.5 15.2 11.6 15.2 11.6"/><polygon class="cls-7" points="15.3 11.6 15.2 11.5 15.2 11.5 15.2 11.6 15.3 11.6"/><path class="cls-7" d="M15.3,11.6Zm0,0Zm0-.1Z"/><polygon class="cls-7" points="15.4 11.6 15.4 11.6 15.4 11.6 15.4 11.5 15.4 11.5 15.4 11.5 15.4 11.5 15.3 11.5 15.4 11.5 15.4 11.5 15.3 11.5 15.4 11.6 15.4 11.6"/><path class="cls-7" d="M15.5,11.6h0Zm-.1-.1Z"/><polygon class="cls-7" points="15.5 11.4 15.5 11.5 15.5 11.5 15.5 11.4 15.5 11.4 15.5 11.4 15.5 11.4 15.5 11.4 15.5 11.4"/><path class="cls-7" d="M15.6,11.5Zm0-.1Z"/><path class="cls-7" d="M15.7,11.4Zm-.1,0h0Z"/><path class="cls-2" d="M15,12.1Z"/><path class="cls-2" d="M15.1,12.3h0Z"/><path class="cls-2" d="M15,12.2h0S15.1,12.3,15,12.2Z"/><path class="cls-2" d="M15.2,11.9h-.1c-.1,0-.1.2-.1.2h0v-.2Z"/><path class="cls-2" d="M15.3,12Z"/><path class="cls-2" d="M15.3,12.1Z"/><path class="cls-2" d="M15.2,12.2h0Z"/><path class="cls-2" d="M15,12.3h-.3c-.1.1.1.2.1.2s0-.1,0-.1h0a.4.4,0,0,1,.1-.3Zm-.2.1v-.2h0Z"/><path class="cls-2" d="M15,12.2h0Z"/><path class="cls-2" d="M14.9,12.2h-.2v-.2h0V12h.2Z"/><path class="cls-2" d="M14.9,11.9h-.1l.2.3h0S15,11.9,14.9,11.9Z"/><path class="cls-8" d="M14.8,12.1v-.2h-.1v.2h.1Z"/><path class="cls-2" d="M15.1,12.3h0v.2h0a.1.1,0,0,1-.1-.1h0Zm.1,0h-.1A.1.1,0,0,0,15.2,12.3Z"/><path class="cls-8" d="M15.1,12.1v-.2h0v.2h.1Z"/><path class="cls-9" d="M14.9,12.2h0v0Z"/><path class="cls-9" d="M15.1,12.3h.1a.1.1,0,0,1-.1-.1Z"/><path class="cls-9" d="M14.9,12.2h0Z"/><path class="cls-9" d="M15.3,12.1h0Z"/><path class="cls-9" d="M15,12.1h0c.1.1,0,.1,0,.1h0Z"/><path class="cls-1" d="M12.5,11.7c-.1,0,0,0,0,.1h0Z"/><path class="cls-1" d="M13.6,12.7Z"/><path class="cls-1" d="M13,12.3h.1C13,12.2,13,12.2,13,12.3Z"/><path class="cls-1" d="M12.6,11.6h0Z"/><path class="cls-1" d="M12.2,9.8a.1.1,0,0,0-.1-.1c-.1,0-.2,0-.2.1h.3Z"/><polygon class="cls-1" points="12.8 7.9 12.8 7.9 12.9 8 12.9 7.9 12.8 7.9"/><polygon class="cls-1" points="13.8 7.3 13.7 7.2 13.7 7.2 13.8 7.4 13.8 7.3"/><path class="cls-1" d="M14.2,7.3s.1-.1,0-.1,0-.1-.1-.1h0v.2Z"/><path class="cls-1" d="M14.6,7.2a.1.1,0,0,0,.1-.1h-.1Z"/><path class="cls-1" d="M15.1,7h0Z"/><polygon class="cls-1" points="16.9 7.7 16.8 7.7 16.9 7.8 16.9 7.7"/><polygon class="cls-1" points="17.5 8.2 17.3 8.3 17.4 8.3 17.5 8.2"/><path class="cls-1" d="M18,9.4h0Z"/><polygon class="cls-1" points="18 10.4 17.9 10.3 17.9 10.4 18 10.4 18 10.4"/><path class="cls-1" d="M16.9,12.3h0Z"/><polygon class="cls-1" points="16.5 12.5 16.6 12.6 16.6 12.6 16.6 12.4 16.5 12.5"/><polygon class="cls-1" points="12 10.5 12 10.5 12.1 10.6 12.1 10.5 12 10.5"/><path class="cls-1" d="M14.3,11.4Z"/><path class="cls-1" d="M14.5,11.5h0Z"/><path class="cls-1" d="M14.9,11.6h0Z"/><path class="cls-1" d="M15.3,11.5Z"/><path class="cls-1" d="M15.3,11.6Z"/><path class="cls-1" d="M15.5,11.5h0Z"/><polygon class="cls-1" points="15.6 11.4 15.6 11.4 15.6 11.4 15.6 11.4"/><path class="cls-1" d="M15.7,11.4Z"/><path class="cls-10" d="M14.6,9.1Z"/><path class="cls-10" d="M15,8.9Z"/><path class="cls-11" d="M15,8.9Z"/><path class="cls-10" d="M15.1,8.9Z"/><path class="cls-10" d="M15.3,9.1Z"/><path class="cls-10" d="M15.4,9.3h0Z"/><path class="cls-10" d="M15.4,9.3Z"/></g></svg>