<svg xmlns="http://www.w3.org/2000/svg" viewBox="0 0 30 20"><defs><style>.cls-1{fill:#fafafa;}.cls-2{fill:#fbd118;}.cls-3{fill:#010101;}.cls-4{fill:#1d439b;}</style></defs><title>uy</title><g id="Layer_9" data-name="Layer 9"><path class="cls-1" d="M2.6,20H27.4A2.7,2.7,0,0,0,30,17.8H0A2.7,2.7,0,0,0,2.6,20Z"/><rect class="cls-1" y="13.3" width="30" height="2.26"/><path class="cls-1" d="M30,8.9H11.1V6.7H30V4.5H11.1V2.2H30A2.6,2.6,0,0,0,27.4,0H2.6A2.5,2.5,0,0,0,0,2.5v8.7H30ZM9.3,7.1c-.8-.7-.8.1-2.2-.5L8.4,8.4,6.7,7.3c0,1.2.8,1.1.4,2-.1-1-.7-.4-1.2-1.8L5.5,9.6l-.4-2c-.8.9-.2,1.4-1.2,1.7.7-.7-.1-.7.5-2.1L2.6,8.4,3.7,6.7c-1.2.1-1.1.9-2,.4,1,0,.5-.6,1.8-1.2L1.4,5.5l2-.3C2.5,4.3,2,4.9,1.7,4c.7.7.7-.1,2.1.4L2.6,2.7,4.3,3.8c-.1-1.2-.8-1.1-.4-2,0,1,.6.4,1.2,1.8l.4-2.1.3,2c.9-.9.3-1.4,1.3-1.7-.7.7.1.7-.5,2.1L8.4,2.7,7.2,4.3c1.2,0,1.2-.8,2.1-.3-1,0-.5.6-1.9,1.2l2.2.3-2,.4C8.4,6.7,9,6.2,9.3,7.1Z"/><path class="cls-2" d="M4.9,6.8l-.5.4c-.6,1.4.2,1.4-.5,2.1,1-.3.4-.8,1.2-1.7V6.8Z"/><path class="cls-2" d="M6,4.3l.6-.4c.6-1.4-.2-1.4.5-2.1-1,.3-.4.8-1.3,1.7l.2.8Z"/><path class="cls-2" d="M4.2,5l-.4-.6c-1.4-.5-1.4.3-2.1-.4.3.9.8.3,1.7,1.2L4.2,5Z"/><path class="cls-2" d="M6.7,6.1l.4.5c1.4.6,1.4-.2,2.2.5-.3-.9-.9-.4-1.7-1.2l-.9.2Z"/><path class="cls-2" d="M4.2,6.1l-.7-.2c-1.3.6-.8,1.2-1.8,1.2.9.5.8-.3,2-.4l.5-.6Z"/><path class="cls-2" d="M6.7,5l.7.2C8.8,4.6,8.3,4,9.3,4c-.9-.5-.9.3-2.1.3L6.7,5Z"/><path class="cls-2" d="M5,4.3V3.6c-.6-1.4-1.2-.8-1.2-1.8-.4.9.3.8.4,2l.6.5Z"/><path class="cls-2" d="M6,6.8v.7c.5,1.4,1.1.8,1.2,1.8.4-.9-.4-.8-.4-2L6,6.8Z"/><path class="cls-2" d="M5.5,6.9H5v.8l.4,2,.4-2.1V6.8Z"/><path class="cls-2" d="M5.5,4.2V1.5L5.1,3.6v.7Z"/><path class="cls-2" d="M5.5,4.2H6l-.2-.8-.3-2Z"/><path class="cls-2" d="M4.1,5.5A1.1,1.1,0,0,1,4.2,5l-.8.2-2,.3,2.1.4.7.2A1.3,1.3,0,0,1,4.1,5.5Z"/><path class="cls-2" d="M7.4,5.2,6.7,5a1.1,1.1,0,0,1,.1.5,1.3,1.3,0,0,1-.1.6l.9-.2,2-.4Z"/><path class="cls-2" d="M4.2,6.1l-.5.6L2.6,8.4,4.4,7.2l.5-.4A1.6,1.6,0,0,1,4.2,6.1Z"/><path class="cls-2" d="M6.7,5l.5-.7L8.4,2.7,6.6,3.9,6,4.3A1.2,1.2,0,0,1,6.7,5Z"/><path class="cls-2" d="M4.9,4.3l-.6-.5L2.6,2.7,3.8,4.4l.4.6A1.6,1.6,0,0,1,4.9,4.3Z"/><path class="cls-2" d="M6,6.8l.7.5L8.4,8.4,7.1,6.6l-.4-.5A1.2,1.2,0,0,1,6,6.8Z"/><path class="cls-2" d="M6,4.3H4.9a1.6,1.6,0,0,0-.7.7h0a1.1,1.1,0,0,0-.1.5,1.3,1.3,0,0,0,.1.6h0a1.6,1.6,0,0,0,.7.7H6a1.2,1.2,0,0,0,.7-.7h0a1.3,1.3,0,0,0,.1-.6A1.1,1.1,0,0,0,6.7,5h0A1.2,1.2,0,0,0,6,4.3Zm.5.7c-.1.1-.1-.1-.5-.1s-.3.2-.4.2L6,4.8Zm-1,1.4c-.3,0-.3-.1-.7-.3h0A.3.3,0,0,1,4.9,6H6.1a.3.3,0,0,1,.1.2H6.1C5.7,6.3,5.8,6.4,5.5,6.4ZM4.7,5.2H4.5L4.9,5c.2,0,.3.1.3.2H5.1a.3.3,0,0,1-.1.2H4.9C4.8,5.4,4.6,5.2,4.7,5.2ZM6.1,5c.2,0,.2.2.3.2H6.3c.1,0-.1.2-.3.2H6c-.1,0-.2-.1-.1-.2H5.7C5.7,5.1,5.9,5,6.1,5ZM6,5.9H5c0,.1,0-.1.1-.1s.1-.1.2-.2a.1.1,0,0,1-.1.1h.2c-.1.1,0,.1.1.1h.2c.1.1.1.2.2.2S6,6,6,5.9ZM5,4.8c.1,0,.4.2.3.3a.4.4,0,0,0-.4-.2c-.3,0-.3.2-.4.1Zm.5,1.7Z"/><path class="cls-2" d="M6.1,5.3h.1V5.1H6.1C6.2,5.2,6.2,5.3,6.1,5.3Z"/><path class="cls-2" d="M4.8,5.1H4.7v.2h.2C4.8,5.3,4.8,5.2,4.8,5.1Z"/><path class="cls-2" d="M5.5,6.2h0Z"/><path class="cls-3" d="M6,4.8l-.4.3c.1,0,.1-.2.4-.2s.4.2.5.1Z"/><path class="cls-3" d="M6.1,5.1H5.9c-.1.1,0,.2.1.2h.1C6.2,5.3,6.2,5.2,6.1,5.1Z"/><path class="cls-3" d="M5.7,5.2h.7c-.1,0-.1-.2-.3-.2S5.7,5.1,5.7,5.2Z"/><path class="cls-3" d="M6.2,5.3H6c.2,0,.4-.2.3-.2H6.2Z"/><path class="cls-3" d="M6.2,5.1h0v.2h0Z"/><path class="cls-3" d="M5.5,6.2Z"/><path class="cls-3" d="M6.2,6.2A.3.3,0,0,0,6.1,6h.1Z"/><path class="cls-3" d="M6.1,6.1H5.5c.3,0,.2-.1.6-.3h0Z"/><path class="cls-3" d="M5.9,5.8c-.1,0-.1-.1-.2-.2H6C6,6,6,5.8,5.9,5.8Z"/><path class="cls-3" d="M4.5,5c.1.1.1-.1.4-.1a.4.4,0,0,1,.4.2c.1-.1-.2-.3-.3-.3Z"/><path class="cls-3" d="M4.9,5.1H4.8c0,.1,0,.2.1.2H5a.3.3,0,0,0,.1-.2Z"/><path class="cls-3" d="M4.8,5.1h.4c0-.1-.1-.2-.3-.2l-.4.2h.2A.1.1,0,0,1,4.8,5.1Z"/><path class="cls-3" d="M4.9,5.4H4.7C4.6,5.2,4.8,5.4,4.9,5.4Z"/><path class="cls-3" d="M4.8,5.3H4.7V5.1h.1a.1.1,0,0,0-.1.1h.1Z"/><path class="cls-3" d="M5.1,6.2H4.9C4.9,6.2,5,6.2,5.1,6.2Z"/><path class="cls-3" d="M4.8,6.1h.1a.3.3,0,0,0-.1.2Z"/><path class="cls-3" d="M5.5,6.3H5.1c-.1,0-.2,0-.2-.1H4.8c.4.2.4.3.7.3Z"/><path class="cls-3" d="M5.4,5.7H5.2a.1.1,0,0,0,.1-.1c-.1.1-.1.2-.2.2S5,6,5,5.9h.5C5.4,5.8,5.3,5.8,5.4,5.7Z"/><path class="cls-3" d="M5.5,6.5Z"/><path class="cls-4" d="M11.1,4.5H30V2.2H11.1Z"/><rect class="cls-4" x="11.1" y="6.7" width="18.9" height="2.24"/><rect class="cls-4" y="11.2" width="30" height="2.19"/><path class="cls-4" d="M30,17.5V15.6H0v2.2H30Z"/></g></svg>