<svg id="Flags" xmlns="http://www.w3.org/2000/svg" viewBox="0 0 30 20"><defs><style>.cls-1{fill:#f7d531;}.cls-2{fill:#1f449b;}.cls-3{fill:#d02a36;}.cls-4{fill:#fff;}</style></defs><title>Artboard 76</title><path class="cls-1" d="M27.5,0H2.5A2.5,2.5,0,0,0,0,2.5V6.7H30V2.5A2.5,2.5,0,0,0,27.5,0Z"/><path class="cls-2" d="M0,13.3H30V6.7H0Zm9.9-.5-.6-.5-.6.4.3-.6-.6-.5h.7l.3-.6.2.7h.7l-.6.4Zm.7-1.7-.4-.6-.7.2.5-.6-.4-.6.7.3.4-.6v.7l.7.3-.7.2Zm1.3-1.3-.2-.7H11l.6-.4V7.9l.5.5.7-.3-.3.6.5.5h-.7Zm2.8-1L14,8.5l-.5.5V8.3L13,7.9h.7V7.1l.3.6h.7l-.5.5Zm1.8.2L16,8.5l-.7.3.4-.7-.5-.5h.7l.3-.6v.7H17l-.6.4Zm.6.2.5-.5-.3-.6.7.3.5-.5v.7L19,9h-.7l-.2.7-.3-.7Zm1.5,1,.7-.3V9.2l.4.6.7-.3-.4.6.5.6-.7-.2-.4.6v-.7Zm2.7,2.5-.6-.4-.6.5.2-.7-.6-.4h.7l.2-.7.3.6h.7l-.6.5Z"/><path class="cls-3" d="M0,17.5A2.5,2.5,0,0,0,2.5,20h25A2.5,2.5,0,0,0,30,17.5V13.3H0Z"/><polygon class="cls-4" points="14.1 7.7 13.8 7.1 13.7 7.8 13 7.9 13.6 8.3 13.5 9 14 8.5 14.7 8.8 14.3 8.1 14.8 7.6 14.1 7.7"/><polygon class="cls-4" points="16.3 7.8 16.2 7.1 15.9 7.7 15.2 7.6 15.7 8.1 15.3 8.8 16 8.5 16.5 9 16.4 8.3 17 7.9 16.3 7.8"/><polygon class="cls-4" points="12.4 8.7 12.7 8.1 12 8.4 11.5 7.9 11.6 8.6 11 9 11.7 9.1 11.9 9.8 12.2 9.1 12.9 9.2 12.4 8.7"/><polygon class="cls-4" points="18.3 9.1 19 9 18.4 8.6 18.5 7.9 18 8.4 17.3 8.1 17.6 8.7 17.1 9.2 17.8 9.1 18.1 9.8 18.3 9.1"/><polygon class="cls-4" points="10.7 9.9 10.7 9.2 10.3 9.8 9.6 9.5 10 10.1 9.5 10.7 10.2 10.5 10.6 11.1 10.7 10.4 11.4 10.2 10.7 9.9"/><polygon class="cls-4" points="19.8 10.5 20.5 10.7 20 10.1 20.4 9.5 19.7 9.8 19.3 9.2 19.3 9.9 18.6 10.2 19.3 10.4 19.4 11.1 19.8 10.5"/><polygon class="cls-4" points="9.6 11.7 9.4 10.9 9.1 11.6 8.4 11.6 9 12.1 8.7 12.7 9.3 12.3 9.9 12.8 9.7 12.1 10.3 11.7 9.6 11.7"/><polygon class="cls-4" points="20.9 11.6 20.6 10.9 20.4 11.7 19.7 11.7 20.3 12.1 20.1 12.8 20.7 12.3 21.3 12.7 21 12.1 21.6 11.6 20.9 11.6"/></svg>