<svg xmlns="http://www.w3.org/2000/svg" viewBox="0 0 30 20"><defs><style>.cls-1{fill:#fafafa;}.cls-2{fill:#269f49;}.cls-3{fill:#d91f26;}.cls-4{fill:#fff;}</style></defs><title>ir</title><g id="Layer_17" data-name="Layer 17"><path class="cls-1" d="M29.5,6.7H0v6.4H30V6.8h-.5Zm-15.2.4h0a.5.5,0,0,0,.7.1h0a.5.5,0,0,0,.7-.1c.1.1,0,.3-.1.4a.4.4,0,0,1-.6,0h-.4C14.3,7.5,14.2,7.3,14.3,7.1Zm-2,1.7a2.4,2.4,0,0,1,1.4-1.2,3,3,0,0,0-.6,4.2V12A2.4,2.4,0,0,1,12.3,8.8Zm3,3.8h0L15,13l-.3-.4h0a2.6,2.6,0,0,1-1.5-.2,2.9,2.9,0,0,0,1.3-.1,2.9,2.9,0,0,1-1.3-1.4,2.8,2.8,0,0,1,.9-3.2,3,3,0,0,0,.6,4.2v-4l.4-.3.4.3v4a3,3,0,0,0,.6-4.2,2.8,2.8,0,0,1,.9,3.2,2.9,2.9,0,0,1-1.3,1.4,2.9,2.9,0,0,0,1.3.1A2.6,2.6,0,0,1,15.3,12.6Zm1.5-.6v-.2a3,3,0,0,0-.6-4.2,2.4,2.4,0,0,1,1.4,1.2A2.4,2.4,0,0,1,16.8,12Z"/><path class="cls-2" d="M27.4,0H2.6A2.5,2.5,0,0,0,0,2.5v3H.1v.7H.3V5.5H.5v.8H0v.2H.5v.2H.6V6.5H2.1v.2h.1V6.5H3.7v.2h.1V6.5H5.3v.2h.1V6.5H6.9v.2h.2V6.5H8.5v.2h.2V6.5h1.4v.2h.2V6.5h1.4v.2h.2V6.5h1.4v.2h.2V6.5h1.4v.2h.2V6.5h1.4v.2h.2V6.5h1.4v.2h.2V6.5h1.4v.2h.2V6.5h1.4v.2h.2V6.5h1.4v.2h.2V6.5h1.5v.2h.1V6.5h1.5v.2h.1V6.5h1.5v.2h.1V6.5h1.5v.2h.1V6.5H30V6.3h0V6h-.3v.3h-.2V5.9H30V5.7h-.5V5.5H30v-3A2.5,2.5,0,0,0,27.4,0ZM1.1,6.3h0Zm1,0H1.3V6H.8v.3H.6V5.9h.8v.3h.5V6h.2ZM.6,5.7V5.5H2.7v.2Zm3.1.6H2.9V6H2.4v.2H2.2V5.9h.7V5.5H3v.7h.2V5.5h.2v.7h.1V5.5h.2Zm.6,0h0Zm1,0H4.5V6H4v.3H3.8V5.9h.8v.3h.5V6h.2ZM3.8,5.7V5.5H5.9v.2Zm3.1.6H6.1V6H5.6v.2H5.4V5.9h.7V5.5h.1v.7h.2V5.5h.2v.7h.1V5.5h.2Zm.6,0h0Zm1,0H7.7V6H7.2v.3H7.1V5.9h.8v.3h.4V6h.2ZM7.1,5.7V5.5h2v.2Zm3,.6H9.3V6H8.8v.2H8.7V5.9h.6V5.5h.2v.7h.1V5.5h.2v.7h.1V5.5h.2Zm.6,0h0Zm1,0h-.8V6h-.5v.3h-.1V5.9h.8v.3h.4V6h.2Zm-1.4-.6V5.5h2.1v.2Zm3,.6h-.8V6H12v.2h-.1V5.9h.6V5.5h.2v.7h.1V5.5H13v.7h.2V5.5h.1Zm.7,0h0Zm.9,0h-.8V6h-.5v.3h-.1V5.9h.8v.3h.5V6h.1Zm-1.4-.6V5.5h2.1v.2Zm3,.6h-.8V6h-.5v.2h-.1V5.9h.6V5.5h.2v.7H16V5.5h.2v.7h.2V5.5h.1Zm.7,0h0Zm.9,0h-.8V6h-.5v.3h-.1V5.9h.8v.3H18V6h.1Zm-1.4-.6V5.5h2.1v.2Zm3,.6h-.8V6h-.4v.2h-.2V5.9h.6V5.5h.2v.7h.2V5.5h.1v.7h.2V5.5h.1Zm.7,0h0Zm.9,0h-.8V6h-.4v.3h-.2V5.9h.8v.3h.5V6h.1Zm-1.4-.6V5.5H22v.2Zm3,.6h-.8V6h-.4v.2h-.2V5.9h.6V5.5h.2v.7h.2V5.5h.1v.7h.2V5.5h.1Zm.7,0h0Zm1,0h-.8V6h-.5v.3h-.2V5.9h.8v.3h.5V6h.2Zm-1.5-.6V5.5h2.1v.2Zm3.1.6h-.8V6h-.5v.2h-.2V5.9h.7V5.5h.1v.7h.2V5.5h.1v.7H26V5.5h.2Zm.6,0h0Zm1,0H27V6h-.5v.3h-.2V5.9h.8v.3h.5V6h.2Zm-1.5-.6V5.5h2.1v.2Zm3.1.6h-.8V6h-.5v.2h-.2V5.9h.7V5.5h.1v.7h.2V5.5H29v.7h.2V5.5h.2Z"/><path class="cls-3" d="M29.5,13.3h-.1v.2H27.9v-.2h-.1v.2H26.3v-.2h-.1v.2H24.7v-.2h-.1v.2H23.1v-.2h-.2v.2H21.5v-.2h-.2v.2H19.9v-.2h-.2v.2H18.3v-.2h-.2v.2H16.7v-.2h-.2v.2H15.1v-.2h-.2v.2H13.5v-.2h-.2v.2H11.9v-.2h-.2v.2H10.3v-.2h-.2v.2H8.7v-.2H8.5v.2H7.1v-.2H6.9v.2H5.4v-.2H5.3v.2H3.8v-.2H3.7v.2H2.2v-.2H2.1v.2H.6v-.2H.5v.2H0v.2H.1v.6H.3v-.6H.5v.8H0v3A2.5,2.5,0,0,0,2.6,20H27.4A2.5,2.5,0,0,0,30,17.5v-3h-.1v-.2H30v-.2h-.3v.4h-.2V14H30v-.2h0v-.2h-.5ZM.6,13.7h0Zm.5.8H1v-.2h.1Zm1,0H1.3v-.4H.8v.4H.6V14h.8v.3h.5v-.2h.2Zm1.6,0H2.9v-.4H2.4v.2h.3v.2H2.2V14h.7v-.3H3v.6h.2v-.6h.2v.6h.1v-.6h.2Zm.1-.8h0Zm.5.8H4.2v-.2h.1Zm1,0H4.5v-.4H4v.4H3.8V14h.8v.3h.5v-.2h.2Zm1.6,0H6.1v-.4H5.6v.2h.3v.2H5.4V14h.7v-.3h.1v.6h.2v-.6h.2v.6h.1v-.6h.2Zm.2-.8h0Zm.4.8H7.4v-.2h.1Zm1,0H7.7v-.4H7.2v.4H7.1V14h.8v.3h.4v-.2h.2Zm1.6,0H9.3v-.4H8.8v.2h.3v.2H8.7V14h.6v-.3h.2v.6h.1v-.6h.2v.6h.1v-.6h.2Zm.2-.8h0Zm.4.8h-.1v-.2h.1Zm1,0h-.8v-.4h-.5v.4h-.1V14h.8v.3h.4v-.2h.2Zm1.6,0h-.8v-.4H12v.2h.4v.2h-.5V14h.6v-.3h.2v.6h.1v-.6H13v.6h.2v-.6h.1Zm.2-.8h0Zm.5.8h-.2v-.2H14Zm.9,0h-.8v-.4h-.5v.4h-.1V14h.8v.3h.5v-.2h.1Zm1.6,0h-.8v-.4h-.5v.2h.4v.2h-.5V14h.6v-.3h.2v.6H16v-.6h.2v.6h.2v-.6h.1Zm.2-.8h0Zm.5.8H17v-.2h.2Zm.9,0h-.8v-.4h-.5v.4h-.1V14h.8v.3H18v-.2h.1Zm1.6,0h-.8v-.4h-.4v.2h.3v.2h-.5V14h.6v-.3h.2v.6h.2v-.6h.1v.6h.2v-.6h.1Zm.2-.8h0Zm.5.8h-.2v-.2h.2Zm.9,0h-.8v-.4h-.4v.4h-.2V14h.8v.3h.5v-.2h.1Zm1.6,0h-.8v-.4h-.4v.2H22v.2h-.5V14h.6v-.3h.2v.6h.2v-.6h.1v.6h.2v-.6h.1Zm.2-.8h0Zm.5.8h-.2v-.2h.2Zm1,0h-.8v-.4h-.5v.4h-.2V14h.8v.3h.5v-.2h.2Zm1.6,0h-.8v-.4h-.5v.2h.3v.2h-.5V14h.7v-.3h.1v.6h.2v-.6h.1v.6H26v-.6h.2Zm.1-.8h0Zm.5.8h-.2v-.2h.2Zm1,0H27v-.4h-.5v.4h-.2V14h.8v.3h.5v-.2h.2Zm1.6,0h-.8v-.4h-.5v.2h.3v.2h-.5V14h.7v-.3h.1v.6h.2v-.6H29v.6h.2v-.6h.2Z"/><path class="cls-3" d="M15,12.1l.3-.2h0v-4L15,7.6l-.4.3v4h0Z"/><path class="cls-3" d="M14.7,12.6h0l.3.4.3-.4h-.6Z"/><path class="cls-3" d="M14.6,7.6H15a.4.4,0,0,0,.6,0c.1-.1.2-.3.1-.4a.5.5,0,0,1-.7.1h0a.5.5,0,0,1-.7-.1h0C14.2,7.3,14.3,7.5,14.6,7.6Z"/><path class="cls-3" d="M14.5,12.3a2.9,2.9,0,0,1-1.3.1,2.6,2.6,0,0,0,1.5.2H15Z"/><path class="cls-3" d="M15,12.1l.5.2a2.9,2.9,0,0,0,1.3-1.4,2.8,2.8,0,0,0-.9-3.2,3,3,0,0,1-.6,4.2h0Z"/><path class="cls-3" d="M15.5,12.3l-.5-.2-.3-.2h0a3,3,0,0,1-.6-4.2,2.8,2.8,0,0,0-.9,3.2,2.9,2.9,0,0,0,1.3,1.4l.5.2h.3a2.6,2.6,0,0,0,1.5-.2A2.9,2.9,0,0,1,15.5,12.3Z"/><path class="cls-3" d="M16.3,7.6a3,3,0,0,1,.6,4.2V12a2.4,2.4,0,0,0,.9-3.2A2.4,2.4,0,0,0,16.3,7.6Z"/><path class="cls-3" d="M13.1,11.8a3,3,0,0,1,.6-4.2,2.4,2.4,0,0,0-1.4,1.2,2.4,2.4,0,0,0,.9,3.2Z"/><polygon class="cls-4" points="0.5 5.5 0.3 5.5 0.3 6.2 0.1 6.2 0.1 5.5 0 5.5 0 6.3 0.5 6.3 0.5 5.5"/><polygon class="cls-4" points="3.5 6.2 3.4 6.2 3.4 5.5 3.2 5.5 3.2 6.2 3 6.2 3 5.5 2.9 5.5 2.9 5.9 2.2 5.9 2.2 6.3 2.7 6.3 2.7 6.2 2.4 6.2 2.4 6 2.9 6 2.9 6.3 3.7 6.3 3.7 5.5 3.5 5.5 3.5 6.2"/><rect class="cls-4" x="1" y="6.2" width="0.2" height="0.16"/><polygon class="cls-4" points="1.6 6 1.9 6 1.9 6.2 1.4 6.2 1.4 5.9 0.6 5.9 0.6 6.3 0.8 6.3 0.8 6 1.3 6 1.3 6.3 2.1 6.3 2.1 5.9 1.6 5.9 1.6 6"/><rect class="cls-4" x="0.6" y="5.5" width="2.1" height="0.16"/><rect class="cls-4" x="3.8" y="5.5" width="2.1" height="0.16"/><rect class="cls-4" x="4.2" y="6.2" width="0.2" height="0.16"/><polygon class="cls-4" points="6.7 6.2 6.6 6.2 6.6 5.5 6.4 5.5 6.4 6.2 6.3 6.2 6.3 5.5 6.1 5.5 6.1 5.9 5.4 5.9 5.4 6.3 5.9 6.3 5.9 6.2 5.6 6.2 5.6 6 6.1 6 6.1 6.3 6.9 6.3 6.9 5.5 6.7 5.5 6.7 6.2"/><polygon class="cls-4" points="4.8 6 5.1 6 5.1 6.2 4.6 6.2 4.6 5.9 3.8 5.9 3.8 6.3 4 6.3 4 6 4.5 6 4.5 6.3 5.3 6.3 5.3 5.9 4.8 5.9 4.8 6"/><rect class="cls-4" x="7.1" y="5.5" width="2.1" height="0.16"/><polygon class="cls-4" points="9.9 6.2 9.8 6.2 9.8 5.5 9.6 5.5 9.6 6.2 9.5 6.2 9.5 5.5 9.3 5.5 9.3 5.9 8.7 5.9 8.7 6.3 9.1 6.3 9.1 6.2 8.8 6.2 8.8 6 9.3 6 9.3 6.3 10.1 6.3 10.1 5.5 9.9 5.5 9.9 6.2"/><polygon class="cls-4" points="8 6 8.3 6 8.3 6.2 7.9 6.2 7.9 5.9 7.1 5.9 7.1 6.3 7.2 6.3 7.2 6 7.7 6 7.7 6.3 8.5 6.3 8.5 5.9 8 5.9 8 6"/><rect class="cls-4" x="7.4" y="6.2" width="0.2" height="0.16"/><polygon class="cls-4" points="11.2 6 11.5 6 11.5 6.2 11.1 6.2 11.1 5.9 10.3 5.9 10.3 6.3 10.4 6.3 10.4 6 10.9 6 10.9 6.3 11.7 6.3 11.7 5.9 11.2 5.9 11.2 6"/><rect class="cls-4" x="10.6" y="6.2" width="0.2" height="0.16"/><rect class="cls-4" x="10.3" y="5.5" width="2.1" height="0.16"/><polygon class="cls-4" points="13.2 6.2 13 6.2 13 5.5 12.8 5.5 12.8 6.2 12.7 6.2 12.7 5.5 12.5 5.5 12.5 5.9 11.9 5.9 11.9 6.3 12.4 6.3 12.4 6.2 12 6.2 12 6 12.5 6 12.5 6.3 13.3 6.3 13.3 5.5 13.2 5.5 13.2 6.2"/><polygon class="cls-4" points="16.4 6.2 16.2 6.2 16.2 5.5 16 5.5 16 6.2 15.9 6.2 15.9 5.5 15.7 5.5 15.7 5.9 15.1 5.9 15.1 6.3 15.6 6.3 15.6 6.2 15.2 6.2 15.2 6 15.7 6 15.7 6.3 16.5 6.3 16.5 5.5 16.4 5.5 16.4 6.2"/><rect class="cls-4" x="13.5" y="5.5" width="2.1" height="0.16"/><polygon class="cls-4" points="14.4 6 14.8 6 14.8 6.2 14.3 6.2 14.3 5.9 13.5 5.9 13.5 6.3 13.6 6.3 13.6 6 14.1 6 14.1 6.3 14.9 6.3 14.9 5.9 14.4 5.9 14.4 6"/><rect class="cls-4" x="13.8" y="6.2" width="0.2" height="0.16"/><rect class="cls-4" x="17" y="6.2" width="0.2" height="0.16"/><polygon class="cls-4" points="19.6 6.2 19.4 6.2 19.4 5.5 19.3 5.5 19.3 6.2 19.1 6.2 19.1 5.5 18.9 5.5 18.9 5.9 18.3 5.9 18.3 6.3 18.8 6.3 18.8 6.2 18.5 6.2 18.5 6 18.9 6 18.9 6.3 19.7 6.3 19.7 5.5 19.6 5.5 19.6 6.2"/><polygon class="cls-4" points="17.6 6 18 6 18 6.2 17.5 6.2 17.5 5.9 16.7 5.9 16.7 6.3 16.8 6.3 16.8 6 17.3 6 17.3 6.3 18.1 6.3 18.1 5.9 17.6 5.9 17.6 6"/><rect class="cls-4" x="16.7" y="5.5" width="2.1" height="0.16"/><polygon class="cls-4" points="22.8 6.2 22.6 6.2 22.6 5.5 22.5 5.5 22.5 6.2 22.3 6.2 22.3 5.5 22.1 5.5 22.1 5.9 21.5 5.9 21.5 6.3 22 6.3 22 6.2 21.7 6.2 21.7 6 22.1 6 22.1 6.3 22.9 6.3 22.9 5.5 22.8 5.5 22.8 6.2"/><polygon class="cls-4" points="20.9 6 21.2 6 21.2 6.2 20.7 6.2 20.7 5.9 19.9 5.9 19.9 6.3 20.1 6.3 20.1 6 20.5 6 20.5 6.3 21.3 6.3 21.3 5.9 20.9 5.9 20.9 6"/><rect class="cls-4" x="20.2" y="6.2" width="0.2" height="0.16"/><rect class="cls-4" x="19.9" y="5.5" width="2.1" height="0.16"/><rect class="cls-4" x="23.1" y="5.5" width="2.1" height="0.16"/><polygon class="cls-4" points="24.1 6 24.4 6 24.4 6.2 23.9 6.2 23.9 5.9 23.1 5.9 23.1 6.3 23.3 6.3 23.3 6 23.8 6 23.8 6.3 24.6 6.3 24.6 5.9 24.1 5.9 24.1 6"/><rect class="cls-4" x="23.4" y="6.2" width="0.2" height="0.16"/><polygon class="cls-4" points="26 6.2 25.8 6.2 25.8 5.5 25.7 5.5 25.7 6.2 25.5 6.2 25.5 5.5 25.4 5.5 25.4 5.9 24.7 5.9 24.7 6.3 25.2 6.3 25.2 6.2 24.9 6.2 24.9 6 25.4 6 25.4 6.3 26.2 6.3 26.2 5.5 26 5.5 26 6.2"/><polygon class="cls-4" points="29.2 6.2 29 6.2 29 5.5 28.9 5.5 28.9 6.2 28.7 6.2 28.7 5.5 28.6 5.5 28.6 5.9 27.9 5.9 27.9 6.3 28.4 6.3 28.4 6.2 28.1 6.2 28.1 6 28.6 6 28.6 6.3 29.4 6.3 29.4 5.5 29.2 5.5 29.2 6.2"/><polygon class="cls-4" points="27.3 6 27.6 6 27.6 6.2 27.1 6.2 27.1 5.9 26.3 5.9 26.3 6.3 26.5 6.3 26.5 6 27 6 27 6.3 27.8 6.3 27.8 5.9 27.3 5.9 27.3 6"/><rect class="cls-4" x="26.3" y="5.5" width="2.1" height="0.16"/><rect class="cls-4" x="26.6" y="6.2" width="0.2" height="0.16"/><rect class="cls-4" x="29.5" y="5.5" width="0.5" height="0.16"/><polygon class="cls-4" points="29.5 6.3 29.7 6.3 29.7 6 30 6 30 5.9 29.5 5.9 29.5 6.3"/><rect class="cls-4" x="29.9" y="6.2" width="0.1" height="0.16"/><polygon class="cls-4" points="0.5 6.7 0.5 6.5 0 6.5 0 6.8 0.5 6.8 0.5 6.7"/><polygon class="cls-4" points="2.1 6.8 2.1 6.7 2.1 6.5 0.6 6.5 0.6 6.7 0.6 6.8 2.1 6.8"/><polygon class="cls-4" points="3.7 6.8 3.7 6.7 3.7 6.5 2.2 6.5 2.2 6.7 2.2 6.8 3.7 6.8"/><polygon class="cls-4" points="5.3 6.8 5.3 6.7 5.3 6.5 3.8 6.5 3.8 6.7 3.8 6.8 5.3 6.8"/><polygon class="cls-4" points="6.9 6.8 6.9 6.7 6.9 6.5 5.4 6.5 5.4 6.7 5.4 6.8 6.9 6.8"/><polygon class="cls-4" points="8.5 6.8 8.5 6.7 8.5 6.5 7.1 6.5 7.1 6.7 7.1 6.8 8.5 6.8"/><polygon class="cls-4" points="10.1 6.8 10.1 6.7 10.1 6.5 8.7 6.5 8.7 6.7 8.7 6.8 10.1 6.8"/><polygon class="cls-4" points="13.3 6.8 13.3 6.7 13.3 6.5 11.9 6.5 11.9 6.7 11.9 6.8 13.3 6.8"/><polygon class="cls-4" points="11.7 6.8 11.7 6.7 11.7 6.5 10.3 6.5 10.3 6.7 10.3 6.8 11.7 6.8"/><polygon class="cls-4" points="14.9 6.8 14.9 6.7 14.9 6.5 13.5 6.5 13.5 6.7 13.5 6.8 14.9 6.8"/><polygon class="cls-4" points="16.5 6.8 16.5 6.7 16.5 6.5 15.1 6.5 15.1 6.7 15.1 6.8 16.5 6.8"/><polygon class="cls-4" points="19.7 6.8 19.7 6.7 19.7 6.5 18.3 6.5 18.3 6.7 18.3 6.8 19.7 6.8"/><polygon class="cls-4" points="18.1 6.8 18.1 6.7 18.1 6.5 16.7 6.5 16.7 6.7 16.7 6.8 18.1 6.8"/><polygon class="cls-4" points="21.3 6.8 21.3 6.7 21.3 6.5 19.9 6.5 19.9 6.7 19.9 6.8 21.3 6.8"/><polygon class="cls-4" points="22.9 6.8 22.9 6.7 22.9 6.5 21.5 6.5 21.5 6.7 21.5 6.8 22.9 6.8"/><polygon class="cls-4" points="24.6 6.8 24.6 6.7 24.6 6.5 23.1 6.5 23.1 6.7 23.1 6.8 24.6 6.8"/><polygon class="cls-4" points="26.2 6.8 26.2 6.7 26.2 6.5 24.7 6.5 24.7 6.7 24.7 6.8 26.2 6.8"/><polygon class="cls-4" points="27.8 6.8 27.8 6.7 27.8 6.5 26.3 6.5 26.3 6.7 26.3 6.8 27.8 6.8"/><polygon class="cls-4" points="29.4 6.8 29.4 6.7 29.4 6.5 27.9 6.5 27.9 6.7 27.9 6.8 29.4 6.8"/><polygon class="cls-4" points="29.5 6.7 29.5 6.8 30 6.8 30 6.5 29.5 6.5 29.5 6.7"/><polygon class="cls-4" points="0.5 13.7 0.3 13.7 0.3 14.3 0.1 14.3 0.1 13.7 0 13.7 0 14.5 0.5 14.5 0.5 13.7"/><rect class="cls-4" x="0.6" y="13.7" width="2.1" height="0.16"/><polygon class="cls-4" points="3.5 14.3 3.4 14.3 3.4 13.7 3.2 13.7 3.2 14.3 3 14.3 3 13.7 2.9 13.7 2.9 14 2.2 14 2.2 14.5 2.7 14.5 2.7 14.3 2.4 14.3 2.4 14.1 2.9 14.1 2.9 14.5 3.7 14.5 3.7 13.7 3.5 13.7 3.5 14.3"/><polygon class="cls-4" points="1.6 14.1 1.9 14.1 1.9 14.3 1.4 14.3 1.4 14 0.6 14 0.6 14.5 0.8 14.5 0.8 14.1 1.3 14.1 1.3 14.5 2.1 14.5 2.1 14 1.6 14 1.6 14.1"/><rect class="cls-4" x="1" y="14.3" width="0.2" height="0.16"/><rect class="cls-4" x="3.8" y="13.7" width="2.1" height="0.16"/><rect class="cls-4" x="4.2" y="14.3" width="0.2" height="0.16"/><polygon class="cls-4" points="6.7 14.3 6.6 14.3 6.6 13.7 6.4 13.7 6.4 14.3 6.3 14.3 6.3 13.7 6.1 13.7 6.1 14 5.4 14 5.4 14.5 5.9 14.5 5.9 14.3 5.6 14.3 5.6 14.1 6.1 14.1 6.1 14.5 6.9 14.5 6.9 13.7 6.7 13.7 6.7 14.3"/><polygon class="cls-4" points="4.8 14.1 5.1 14.1 5.1 14.3 4.6 14.3 4.6 14 3.8 14 3.8 14.5 4 14.5 4 14.1 4.5 14.1 4.5 14.5 5.3 14.5 5.3 14 4.8 14 4.8 14.1"/><rect class="cls-4" x="7.1" y="13.7" width="2.1" height="0.16"/><polygon class="cls-4" points="8 14.1 8.3 14.1 8.3 14.3 7.9 14.3 7.9 14 7.1 14 7.1 14.5 7.2 14.5 7.2 14.1 7.7 14.1 7.7 14.5 8.5 14.5 8.5 14 8 14 8 14.1"/><rect class="cls-4" x="7.4" y="14.3" width="0.2" height="0.16"/><polygon class="cls-4" points="9.9 14.3 9.8 14.3 9.8 13.7 9.6 13.7 9.6 14.3 9.5 14.3 9.5 13.7 9.3 13.7 9.3 14 8.7 14 8.7 14.5 9.1 14.5 9.1 14.3 8.8 14.3 8.8 14.1 9.3 14.1 9.3 14.5 10.1 14.5 10.1 13.7 9.9 13.7 9.9 14.3"/><polygon class="cls-4" points="13.2 14.3 13 14.3 13 13.7 12.8 13.7 12.8 14.3 12.7 14.3 12.7 13.7 12.5 13.7 12.5 14 11.9 14 11.9 14.5 12.4 14.5 12.4 14.3 12 14.3 12 14.1 12.5 14.1 12.5 14.5 13.3 14.5 13.3 13.7 13.2 13.7 13.2 14.3"/><rect class="cls-4" x="10.6" y="14.3" width="0.2" height="0.16"/><polygon class="cls-4" points="11.2 14.1 11.5 14.1 11.5 14.3 11.1 14.3 11.1 14 10.3 14 10.3 14.5 10.4 14.5 10.4 14.1 10.9 14.1 10.9 14.5 11.7 14.5 11.7 14 11.2 14 11.2 14.1"/><rect class="cls-4" x="10.3" y="13.7" width="2.1" height="0.16"/><polygon class="cls-4" points="16.4 14.3 16.2 14.3 16.2 13.7 16 13.7 16 14.3 15.9 14.3 15.9 13.7 15.7 13.7 15.7 14 15.1 14 15.1 14.5 15.6 14.5 15.6 14.3 15.2 14.3 15.2 14.1 15.7 14.1 15.7 14.5 16.5 14.5 16.5 13.7 16.4 13.7 16.4 14.3"/><rect class="cls-4" x="13.5" y="13.7" width="2.1" height="0.16"/><polygon class="cls-4" points="14.4 14.1 14.8 14.1 14.8 14.3 14.3 14.3 14.3 14 13.5 14 13.5 14.5 13.6 14.5 13.6 14.1 14.1 14.1 14.1 14.5 14.9 14.5 14.9 14 14.4 14 14.4 14.1"/><rect class="cls-4" x="13.8" y="14.3" width="0.2" height="0.16"/><rect class="cls-4" x="17" y="14.3" width="0.2" height="0.16"/><polygon class="cls-4" points="17.6 14.1 18 14.1 18 14.3 17.5 14.3 17.5 14 16.7 14 16.7 14.5 16.8 14.5 16.8 14.1 17.3 14.1 17.3 14.5 18.1 14.5 18.1 14 17.6 14 17.6 14.1"/><rect class="cls-4" x="16.7" y="13.7" width="2.1" height="0.16"/><polygon class="cls-4" points="19.6 14.3 19.4 14.3 19.4 13.7 19.3 13.7 19.3 14.3 19.1 14.3 19.1 13.7 18.9 13.7 18.9 14 18.3 14 18.3 14.5 18.8 14.5 18.8 14.3 18.5 14.3 18.5 14.1 18.9 14.1 18.9 14.5 19.7 14.5 19.7 13.7 19.6 13.7 19.6 14.3"/><polygon class="cls-4" points="22.8 14.3 22.6 14.3 22.6 13.7 22.5 13.7 22.5 14.3 22.3 14.3 22.3 13.7 22.1 13.7 22.1 14 21.5 14 21.5 14.5 22 14.5 22 14.3 21.7 14.3 21.7 14.1 22.1 14.1 22.1 14.5 22.9 14.5 22.9 13.7 22.8 13.7 22.8 14.3"/><rect class="cls-4" x="19.9" y="13.7" width="2.1" height="0.16"/><polygon class="cls-4" points="20.9 14.1 21.2 14.1 21.2 14.3 20.7 14.3 20.7 14 19.9 14 19.9 14.5 20.1 14.5 20.1 14.1 20.5 14.1 20.5 14.5 21.3 14.5 21.3 14 20.9 14 20.9 14.1"/><rect class="cls-4" x="20.2" y="14.3" width="0.2" height="0.16"/><polygon class="cls-4" points="26 14.3 25.8 14.3 25.8 13.7 25.7 13.7 25.7 14.3 25.5 14.3 25.5 13.7 25.4 13.7 25.4 14 24.7 14 24.7 14.5 25.2 14.5 25.2 14.3 24.9 14.3 24.9 14.1 25.4 14.1 25.4 14.5 26.2 14.5 26.2 13.7 26 13.7 26 14.3"/><polygon class="cls-4" points="24.1 14.1 24.4 14.1 24.4 14.3 23.9 14.3 23.9 14 23.1 14 23.1 14.5 23.3 14.5 23.3 14.1 23.8 14.1 23.8 14.5 24.6 14.5 24.6 14 24.1 14 24.1 14.1"/><rect class="cls-4" x="23.1" y="13.7" width="2.1" height="0.16"/><rect class="cls-4" x="23.4" y="14.3" width="0.2" height="0.16"/><polygon class="cls-4" points="29.2 14.3 29 14.3 29 13.7 28.9 13.7 28.9 14.3 28.7 14.3 28.7 13.7 28.6 13.7 28.6 14 27.9 14 27.9 14.5 28.4 14.5 28.4 14.3 28.1 14.3 28.1 14.1 28.6 14.1 28.6 14.5 29.4 14.5 29.4 13.7 29.2 13.7 29.2 14.3"/><rect class="cls-4" x="26.6" y="14.3" width="0.2" height="0.16"/><rect class="cls-4" x="26.3" y="13.7" width="2.1" height="0.16"/><polygon class="cls-4" points="27.3 14.1 27.6 14.1 27.6 14.3 27.1 14.3 27.1 14 26.3 14 26.3 14.5 26.5 14.5 26.5 14.1 27 14.1 27 14.5 27.8 14.5 27.8 14 27.3 14 27.3 14.1"/><rect class="cls-4" x="29.5" y="13.7" width="0.5" height="0.16"/><polygon class="cls-4" points="29.5 14.5 29.7 14.5 29.7 14.1 30 14.1 30 14 29.5 14 29.5 14.5"/><rect class="cls-4" x="29.9" y="14.3" width="0.1" height="0.16"/><polygon class="cls-4" points="0.5 13.3 0.5 13.2 0 13.2 0 13.5 0.5 13.5 0.5 13.3"/><polygon class="cls-4" points="2.1 13.5 2.1 13.3 2.1 13.2 0.6 13.2 0.6 13.3 0.6 13.5 2.1 13.5"/><polygon class="cls-4" points="3.7 13.5 3.7 13.3 3.7 13.2 2.2 13.2 2.2 13.3 2.2 13.5 3.7 13.5"/><polygon class="cls-4" points="6.9 13.5 6.9 13.3 6.9 13.2 5.4 13.2 5.4 13.3 5.4 13.5 6.9 13.5"/><polygon class="cls-4" points="5.3 13.5 5.3 13.3 5.3 13.2 3.8 13.2 3.8 13.3 3.8 13.5 5.3 13.5"/><polygon class="cls-4" points="8.5 13.5 8.5 13.3 8.5 13.2 7.1 13.2 7.1 13.3 7.1 13.5 8.5 13.5"/><polygon class="cls-4" points="10.1 13.5 10.1 13.3 10.1 13.2 8.7 13.2 8.7 13.3 8.7 13.5 10.1 13.5"/><polygon class="cls-4" points="11.7 13.5 11.7 13.3 11.7 13.2 10.3 13.2 10.3 13.3 10.3 13.5 11.7 13.5"/><polygon class="cls-4" points="13.3 13.5 13.3 13.3 13.3 13.2 11.9 13.2 11.9 13.3 11.9 13.5 13.3 13.5"/><polygon class="cls-4" points="14.9 13.5 14.9 13.3 14.9 13.2 13.5 13.2 13.5 13.3 13.5 13.5 14.9 13.5"/><polygon class="cls-4" points="16.5 13.5 16.5 13.3 16.5 13.2 15.1 13.2 15.1 13.3 15.1 13.5 16.5 13.5"/><polygon class="cls-4" points="18.1 13.5 18.1 13.3 18.1 13.2 16.7 13.2 16.7 13.3 16.7 13.5 18.1 13.5"/><polygon class="cls-4" points="19.7 13.5 19.7 13.3 19.7 13.2 18.3 13.2 18.3 13.3 18.3 13.5 19.7 13.5"/><polygon class="cls-4" points="21.3 13.5 21.3 13.3 21.3 13.2 19.9 13.2 19.9 13.3 19.9 13.5 21.3 13.5"/><polygon class="cls-4" points="22.9 13.5 22.9 13.3 22.9 13.2 21.5 13.2 21.5 13.3 21.5 13.5 22.9 13.5"/><polygon class="cls-4" points="26.2 13.5 26.2 13.3 26.2 13.2 24.7 13.2 24.7 13.3 24.7 13.5 26.2 13.5"/><polygon class="cls-4" points="24.6 13.5 24.6 13.3 24.6 13.2 23.1 13.2 23.1 13.3 23.1 13.5 24.6 13.5"/><polygon class="cls-4" points="29.4 13.5 29.4 13.3 29.4 13.2 27.9 13.2 27.9 13.3 27.9 13.5 29.4 13.5"/><polygon class="cls-4" points="27.8 13.5 27.8 13.3 27.8 13.2 26.3 13.2 26.3 13.3 26.3 13.5 27.8 13.5"/><polygon class="cls-4" points="29.5 13.3 29.5 13.5 30 13.5 30 13.2 29.5 13.2 29.5 13.3"/></g></svg>