<svg id="Flags" xmlns="http://www.w3.org/2000/svg" viewBox="0 0 30 20"><defs><style>.cls-1{fill:#d02a3e;}.cls-2{fill:#fafafa;}</style></defs><title>Artboard 46</title><path class="cls-1" d="M27.5,0H11.6V8.5H30v-6A2.5,2.5,0,0,0,27.5,0Z"/><path class="cls-1" d="M11.6,20H27.5A2.5,2.5,0,0,0,30,17.5v-6H11.6Z"/><path class="cls-1" d="M0,11.5v6A2.5,2.5,0,0,0,2.5,20H8.6V11.5Z"/><path class="cls-1" d="M8.6,0H2.5A2.5,2.5,0,0,0,0,2.5v6H8.6Z"/><polygon class="cls-2" points="11.6 8.5 11.6 0 8.6 0 8.6 8.5 0 8.5 0 11.5 8.6 11.5 8.6 20 11.6 20 11.6 11.5 30 11.5 30 8.5 11.6 8.5"/></svg>