<svg xmlns="http://www.w3.org/2000/svg" viewBox="0 0 30 20"><defs><style>.cls-1{fill:#fafafa;}.cls-2{fill:#2272b9;}.cls-3{fill:#ee2e2f;}</style></defs><title>fo</title><g id="Layer_42" data-name="Layer 42"><path class="cls-1" d="M27.5,0H12.3V7.5H30v-5A2.5,2.5,0,0,0,27.5,0Z"/><path class="cls-1" d="M7.3,0H2.5A2.5,2.5,0,0,0,0,2.5v5H7.3Z"/><path class="cls-1" d="M0,12.5v5A2.5,2.5,0,0,0,2.5,20H7.3V12.5Z"/><path class="cls-1" d="M12.3,20H27.5A2.5,2.5,0,0,0,30,17.5v-5H12.3Z"/><polygon class="cls-2" points="7.3 7.5 0 7.5 0 8.7 8.5 8.7 8.5 7.5 8.5 0 7.3 0 7.3 7.5"/><polygon class="cls-2" points="11.1 12.5 11.1 20 12.3 20 12.3 12.5 30 12.5 30 11.3 11.1 11.3 11.1 12.5"/><polygon class="cls-2" points="0 12.5 7.3 12.5 7.3 20 8.5 20 8.5 12.5 8.5 11.3 0 11.3 0 12.5"/><polygon class="cls-2" points="12.3 7.5 12.3 0 11.1 0 11.1 7.5 11.1 8.7 30 8.7 30 7.5 12.3 7.5"/><polygon class="cls-3" points="11.1 8.7 11.1 7.5 11.1 0 8.5 0 8.5 7.5 8.5 8.7 0 8.7 0 11.3 8.5 11.3 8.5 12.5 8.5 20 11.1 20 11.1 12.5 11.1 11.3 30 11.3 30 8.7 11.1 8.7"/></g></svg>