<svg xmlns="http://www.w3.org/2000/svg" viewBox="0 0 30 20"><defs><style>.cls-1{fill:#ee3031;}.cls-2{fill:#209e56;}.cls-3{fill:#fbd632;}</style></defs><title>bf</title><g id="Layer_71" data-name="Layer 71"><path class="cls-1" d="M27.5,0H2.5A2.5,2.5,0,0,0,0,2.5V10H13.2L11.8,9h2.4L15,6.7,15.8,9h2.4l-1.4,1H30V2.5A2.5,2.5,0,0,0,27.5,0Z"/><path class="cls-2" d="M16.2,10.4l.8,2.3-2-1.4-2,1.4.8-2.3-.6-.4H0v7.5A2.5,2.5,0,0,0,2.5,20h25A2.5,2.5,0,0,0,30,17.5V10H16.8Z"/><polygon class="cls-3" points="16.8 10 18.2 9 15.8 9 15 6.7 14.2 9 11.8 9 13.2 10 13.8 10.4 13 12.7 15 11.3 17 12.7 16.2 10.4 16.8 10"/></g></svg>