<svg xmlns="http://www.w3.org/2000/svg" viewBox="0 0 30 20"><defs><style>.cls-1{fill:#409b46;}.cls-2{fill:#fff;}.cls-3{fill:#e22e2d;}.cls-4{fill:#cdcccc;}.cls-5{fill:#010101;}.cls-6{fill:#672d11;}.cls-7{fill:#089346;}.cls-8{fill:#ffd107;}.cls-9{fill:#2b72ba;}</style></defs><title>gq</title><g id="Layer_46" data-name="Layer 46"><path class="cls-1" d="M27.4,0H2.6A2.6,2.6,0,0,0,.7.8L6.6,6.7H30V2.5A2.5,2.5,0,0,0,27.4,0Z"/><path class="cls-2" d="M13.2,11.3h0Z"/><path class="cls-2" d="M17.2,11.3Z"/><path class="cls-2" d="M10,10,6.6,13.3H30V6.7H6.6Zm6.7-2.4H17v.2h-.2V7.9h0Zm-.8-.3h.3v.2h.1v.2H16Zm-.8-.1h.6v.2h-.4Zm-.8,0h.6v.2h-.4Zm-.5.2v0h.2v.2h-.5V7.5h.1Zm-.3.6h3v3.3a.5.5,0,0,1-.5.5h-.6c-.2,0-.4.3-.4.3s-.1-.3-.3-.3H14a.5.5,0,0,1-.5-.5ZM13,7.7V7.5h.3v.2h-.1v.2H13V7.8h0Zm-.5,2.9c.1.1.8.5.7.7l-.2.5a.9.9,0,0,0,.7.3c.6,0,1-.3,1-.2h0v.5h.6v-.5h0c0-.1.4.2,1,.2a.9.9,0,0,0,.7-.3l-.2-.5h.1c-.2-.2.5-.6.6-.7v.7l-.2.2c0,.2.1.3.1.4v.2h0c-.1.2-.4.3-1,.3h-.6v.4c0,.2-1.4.2-1.4,0v-.4h-.6c-.7,0-1-.2-1-.5v-.4l-.2-.2Z"/><path class="cls-3" d="M.7,19.2a2.6,2.6,0,0,0,1.9.8H27.4A2.5,2.5,0,0,0,30,17.5V13.3H6.6Z"/><path class="cls-4" d="M14,11.8h.7c.2,0,.3.3.3.3s.2-.3.4-.3H16a.5.5,0,0,0,.5-.5V8h-3v3.3A.5.5,0,0,0,14,11.8Zm-.2-2.4h1.6a.3.3,0,0,0-.3.3,3,3,0,0,0,.4,1.6v.2c-.1,0-.1-.1-.1-.2s0,.2-.1.2h-.3c-.1,0-.2,0-.1-.1A3.7,3.7,0,0,0,15,9.8a.2.2,0,0,0-.2-.2h.1V9.3H13.8Z"/><path class="cls-4" d="M15.2,9.4h-.1v0Z"/><path class="cls-4" d="M12.7,11.5v-.2h0c.2-.1.2.1.3,0h.1c.1-.2-.6-.6-.7-.7v.7Z"/><path class="cls-4" d="M12.8,11.3Z"/><path class="cls-4" d="M12.8,11.3h0l.2.4.2-.5h-.1C13,11.4,13,11.2,12.8,11.3Z"/><path class="cls-4" d="M17.2,11.4h0Z"/><path class="cls-4" d="M17.2,11.3h0v.2l.2-.2v-.7c-.1.1-.8.5-.6.7h0C17,11.3,17.1,11.2,17.2,11.3Z"/><path class="cls-4" d="M17.2,11.4h0c-.1-.1-.2,0-.3,0h-.1l.2.5A.8.8,0,0,0,17.2,11.4Z"/><path class="cls-4" d="M14.7,12.4v-.5l-.3.4Z"/><path class="cls-4" d="M15.3,11.9v.5h.3Z"/><path class="cls-4" d="M14.8,12.6Z"/><path class="cls-4" d="M15,12.6h0Z"/><path class="cls-4" d="M14.3,12.4v.4c0,.2,1.4.2,1.4,0v-.4H14.3Zm.8.4.2-.2h0v.3h-.1Zm-.1-.3h0v.3h-.2Zm-.3,0h0Z"/><path class="cls-4" d="M14.1,12.4H14v.3Z"/><path class="cls-4" d="M13.6,12.4h0a.1.1,0,0,0,.1-.1h-.2v.3Z"/><path class="cls-4" d="M13.8,12.2h0Z"/><path class="cls-4" d="M12.8,11.4h0v.6c0,.3.3.5,1,.5h.7l.3-.4h0c0-.1-.4.2-1,.2a.9.9,0,0,1-.7-.3Zm1.2.7h0Zm-.2,0h0v.3h-.2Zm-.3,0h0Zm-.1-.1v.4h0V12Zm-.2-.1v.3l.2-.2h0l-.2.3h0v0h-.1l.2-.3Zm-.2-.1-.2.2h.3v.2h0Z"/><path class="cls-4" d="M12.8,11.3Z"/><path class="cls-4" d="M17.2,11.3Z"/><path class="cls-4" d="M17.2,12h0Z"/><path class="cls-4" d="M15.7,12.4h.6c.6,0,.9-.1,1-.3h-.2v-.3h0l.3.2v-.2c0-.1-.1-.2-.1-.4v-.2h0a.8.8,0,0,1-.2.4.9.9,0,0,1-.7.3c-.6,0-1-.3-1-.2h0l.3.4Zm1.2-.5.2.3h0l-.2-.3Zm-.1.1h0a.1.1,0,0,1,.1.1H17c0,.1,0,.1-.1.1h0a.1.1,0,0,1-.1-.1h0Zm-.1,0v.3h0l-.2-.4Zm-.1.1h-.1v.3h-.1v-.3h.1Zm-.2.2Zm-.4-.2h0v.2h.1v-.2h.1v.2h-.2Zm-.3.2h.1v-.2h.1v.2h-.2Z"/><polygon class="cls-5" points="17.1 12.2 16.9 11.9 16.9 11.9 17.1 12.2 17.1 12.2"/><path class="cls-5" d="M16.8,12.2a.1.1,0,0,0,.1.1h0c.1,0,.1,0,.1-.1h-.1a.1.1,0,0,0-.1-.1Z"/><polygon class="cls-5" points="16.8 12.3 16.7 12 16.6 12.1 16.8 12.4 16.8 12.3"/><polygon class="cls-5" points="16.5 12.1 16.5 12.4 16.6 12.4 16.5 12.1 16.6 12.1 16.6 12.1 16.4 12.1 16.4 12.1 16.5 12.1"/><path class="cls-5" d="M16.4,12.4h0Z"/><path class="cls-5" d="M16,12.4h.1v-.2h-.1v.2H16v-.2h0v.2H16Z"/><path class="cls-5" d="M15.8,12.4h.1v-.2h-.1v.2h0Z"/><path class="cls-5" d="M15.3,12.8h-.1v-.3h0l-.2.2h.2Z"/><polygon class="cls-5" points="13.3 12.4 13.4 12 13.4 12 13.3 12.4 13.3 12.4"/><polygon class="cls-5" points="13 12.3 13.1 12 13.1 12.3 13.1 12.3 13.3 12 13.3 12 13.1 12.2 13.2 11.9 13.1 11.9 12.9 12.2 13 12.3"/><path class="cls-5" d="M12.7,12H13v-.2h-.3l.2-.2h-.3Z"/><path class="cls-5" d="M13.6,12.4h-.1v.3Zm-.1,0v-.3h.2a.1.1,0,0,1-.1.1h-.1Z"/><path class="cls-5" d="M13.8,12.3h.1v-.3h0v.3h.1Zm0-.1h0Z"/><path class="cls-5" d="M14.1,12.4H14v.3Zm-.1,0v-.3h0Z"/><path class="cls-5" d="M14.7,12.7h0v.3h0Zm0-.2h0Z"/><path class="cls-5" d="M15,12.7h.1v-.3h0v.3H15Zm0-.1h0Z"/><path class="cls-5" d="M17,11.9h0v.3h.2Zm.1.2h0Z"/><path class="cls-6" d="M15.3,9.5h-.1v0H15v.1h-.1a.2.2,0,0,1,.2.2,3.7,3.7,0,0,1-.2,1.6c-.1.1,0,.1.1.1h.3c.1,0,.1-.2.1-.2s0,.2.1.2v-.2a3,3,0,0,1-.4-1.6.3.3,0,0,1,.3-.3Z"/><path class="cls-7" d="M13.8,9.4h0Z"/><polygon class="cls-8" points="15.3 7.5 15.4 7.7 15.5 7.5 15.7 7.5 15.6 7.4 15.7 7.2 15.5 7.2 15.4 7.1 15.3 7.2 15.1 7.2 15.2 7.4 15.1 7.5 15.3 7.5"/><polygon class="cls-8" points="14.5 7.5 14.6 7.7 14.7 7.5 14.9 7.5 14.8 7.4 14.9 7.2 14.7 7.2 14.6 7.1 14.5 7.2 14.3 7.2 14.4 7.4 14.3 7.5 14.5 7.5"/><polygon class="cls-8" points="13.6 7.7 13.8 7.7 13.9 7.8 14 7.7 14.2 7.6 14.1 7.5 14.2 7.3 14 7.4 13.9 7.2 13.8 7.4 13.6 7.4 13.7 7.5 13.6 7.7"/><polygon class="cls-8" points="16.1 7.7 16.1 7.8 16.3 7.7 16.5 7.7 16.4 7.5 16.5 7.4 16.3 7.4 16.2 7.2 16.1 7.3 15.9 7.3 16 7.5 15.9 7.6 16.1 7.7"/><polygon class="cls-8" points="16.7 7.9 16.8 8.1 16.9 8 17.1 8 17.1 7.9 17.2 7.8 17 7.7 17 7.5 16.9 7.6 16.7 7.6 16.7 7.8 16.6 7.9 16.7 7.9"/><polygon class="cls-8" points="13 8 13.1 8 13.3 8.1 13.3 7.9 13.5 7.8 13.4 7.7 13.4 7.5 13.2 7.6 13.1 7.5 13 7.7 12.8 7.7 13 7.8 13 8"/><path class="cls-9" d="M10,10,6.6,6.7.7.8A2.6,2.6,0,0,0,0,2.5v15a2.6,2.6,0,0,0,.7,1.7l5.9-5.9Z"/></g></svg>