<svg xmlns="http://www.w3.org/2000/svg" viewBox="0 0 30 20"><defs><style>.cls-1{fill:#283890;}.cls-2{fill:#d32a40;}.cls-3{fill:#fff;}.cls-4{fill:#d31f36;}.cls-5{fill:#fecf0a;}.cls-6{fill:#067f40;}.cls-7{fill:#010101;}</style></defs><title>ht</title><g id="Layer_24" data-name="Layer 24"><path class="cls-1" d="M27.5,0H2.5A2.5,2.5,0,0,0,0,2.5V10H11.8V7.6h6.4V10H30V2.5A2.5,2.5,0,0,0,27.5,0Z"/><path class="cls-2" d="M18.2,12.6H11.8V10H0v7.5A2.5,2.5,0,0,0,2.5,20h25A2.5,2.5,0,0,0,30,17.5V10H18.2Z"/><path class="cls-3" d="M14.4,8.6h0Z"/><path class="cls-3" d="M14.4,8.6Z"/><path class="cls-3" d="M14.3,8.6Z"/><path class="cls-3" d="M14.3,8.6Z"/><path class="cls-3" d="M14.3,8.5Z"/><path class="cls-3" d="M14.4,8.5Z"/><path class="cls-3" d="M14.5,8.5h0Z"/><path class="cls-3" d="M14.8,8.4h0Z"/><path class="cls-3" d="M14.8,8.4h0Z"/><path class="cls-3" d="M14.5,8.5h0Z"/><path class="cls-3" d="M14.5,8.4Z"/><path class="cls-3" d="M14.6,8.4Z"/><polygon class="cls-3" points="16.6 9.6 16.5 9.6 16.6 9.6 16.6 9.6"/><path class="cls-3" d="M14.6,8.2h0Z"/><path class="cls-3" d="M16.2,9.2Z"/><path class="cls-3" d="M13.9,9.3Z"/><polygon class="cls-3" points="16.7 9.6 16.7 9.6 16.7 9.6 16.7 9.6"/><polygon class="cls-3" points="13.7 9.2 13.8 9.2 13.8 9.2 13.7 9.2 13.7 9.2"/><path class="cls-3" d="M13.4,9.6h0Z"/><path class="cls-3" d="M13.4,9.5Z"/><path class="cls-3" d="M13.9,9.2Z"/><path class="cls-3" d="M13.7,9.3h0Z"/><path class="cls-3" d="M15,8.2Z"/><path class="cls-3" d="M15.4,8.4Z"/><path class="cls-3" d="M15.4,8.3Z"/><path class="cls-3" d="M14.2,8.6Z"/><path class="cls-3" d="M15.4,8.3Z"/><path class="cls-3" d="M14.4,8.6h0Z"/><path class="cls-3" d="M15.2,8.3Z"/><path class="cls-3" d="M15.3,8.2h0Z"/><path class="cls-3" d="M15.3,8.3h-.1A.1.1,0,0,1,15.3,8.3Z"/><path class="cls-3" d="M14.7,8.4Z"/><path class="cls-3" d="M15,8.4Z"/><path class="cls-3" d="M14.9,8.5Z"/><path class="cls-3" d="M14.9,8.7Z"/><path class="cls-3" d="M14.9,8.6Z"/><path class="cls-3" d="M15,8.3Z"/><polygon class="cls-3" points="15.2 8.1 15.2 8.1 15.2 8.1 15.2 8.1"/><polygon class="cls-3" points="15 8.5 15 8.6 15.1 8.5 15 8.5"/><path class="cls-3" d="M15.2,8.4Z"/><path class="cls-3" d="M15.2,8.9h-.1V8.7a.1.1,0,0,1-.1.1h.1a.1.1,0,0,0-.1.1H15V9h0Z"/><polygon class="cls-3" points="15.2 8.1 15.2 8.1 15.2 8.1 15.2 8.1"/><path class="cls-3" d="M13.4,9.5Z"/><path class="cls-3" d="M16.5,9.5Z"/><path class="cls-3" d="M16.5,9.5h0Z"/><path class="cls-3" d="M16,9.3Z"/><path class="cls-3" d="M16,9.2Z"/><path class="cls-3" d="M14.9,8.9h0V8.7A.3.3,0,0,0,14.9,8.9Z"/><path class="cls-3" d="M14.9,8.8h-.1A.1.1,0,0,1,14.9,8.8Z"/><path class="cls-3" d="M15.1,10Z"/><path class="cls-3" d="M16.5,9.6h0Z"/><path class="cls-3" d="M14.6,8.3h0Z"/><path class="cls-3" d="M14.5,8.4h0Z"/><path class="cls-3" d="M14.5,8.4Z"/><path class="cls-3" d="M14.4,8.4h0Z"/><path class="cls-3" d="M14.9,8.5h0Z"/><polygon class="cls-3" points="14.4 8.5 14.4 8.5 14.4 8.5 14.4 8.5"/><path class="cls-3" d="M14.7,8.3Z"/><path class="cls-3" d="M14.9,8.3Z"/><path class="cls-3" d="M14.5,8.2h0Z"/><path class="cls-3" d="M15,8.1h0Z"/><path class="cls-3" d="M15.5,8.2h0Z"/><path class="cls-3" d="M15.6,8.2Z"/><path class="cls-3" d="M15,8.2h0Z"/><path class="cls-3" d="M15,7.6h0Z"/><path class="cls-3" d="M14.3,8.5Z"/><path class="cls-3" d="M14.3,8.5Z"/><path class="cls-3" d="M15.3,8.1Z"/><path class="cls-3" d="M14.6,8.2Z"/><polygon class="cls-3" points="13 10.1 13 10.1 13 10.1 13 10.1"/><path class="cls-3" d="M12.9,10.1Z"/><path class="cls-3" d="M16.9,11.5H17l.2-.2Z"/><path class="cls-3" d="M12.9,11.6h0l-.2-.2Z"/><polygon class="cls-3" points="13 10.1 13 10.1 13 10.1 13 10.1 13 10.1"/><path class="cls-3" d="M16.9,10.1Z"/><polygon class="cls-3" points="17 10.1 17 10.1 17 10.1 17 10.1 17 10.1"/><path class="cls-3" d="M12.9,11.5h0Z"/><polygon class="cls-3" points="14.9 10 14.9 10 14.9 10 14.9 10"/><path class="cls-3" d="M12.3,11.9h-.1a.4.4,0,0,1,.2-.3v.2h0l.4-.3h0v-.3h0l.4.2h.1c0-.1-.1-.1-.1-.2h-.2v-.2H13v-.3h-.2v-.2h-.1l-.2-.2h.6V9.9h-.1V9.7h0l-.2-.3.3.2h.1l.3.2V9.6h-.1V9.3h0V8.9h.3l1,1.1v-.2h-.1V9.9h-.1l-.2-.4.3.3h0l.2.3h0l.2.3h0l-.2-.4h-.2l-.2-.5.3.4h0l.3.6h0V9.8h-.1V9.6h0l.2.3h-.1V9h-.1v0h-.1a.1.1,0,0,0,.1-.1h0v.2h-.1v.2h-.2v.2h0v.2h-.1V9a.4.4,0,0,1,.1-.3h-.1v.1h-.1v.2H14a.4.4,0,0,1,.3-.4l.2-.2h0v0l-.2.3v0c-.1,0,0-.1,0-.1s-.1.2-.1.2h-.1v0s-.1,0,0-.2a.7.7,0,0,1,.5-.3h-.2s-.2.1-.2.2h0a.1.1,0,0,1,.1-.1H14V8.1l-.2.2c0-.1.1-.2.2-.3h.4l.4.2v.2h0V7.9h.1v.2H15v.2l.2-.2h.5V8h-.2c.3,0,.4,0,.6.2H16s.1.1,0,.1h-.1s.1.1,0,.1H16a.5.5,0,0,1,.1.3v0a.4.4,0,0,0-.1-.3v.2h-.1v.2h-.1v0h-.1V8.2c.1,0,.1.2.1.2V8.2h-.1a.1.1,0,0,0,.1.1l.2.2h.2V8.5c.1,0,.1.2.1.2V8.5h0v0l-.2-.2h0v0h.2c0,.1.2.2.1.4h0V8.7h0V8.6h-.1s.1-.1,0-.1h0V8.5h-.1v.2h-.1c.1,0,.1.2.1.2h-.1c.1,0,.1.2.1.2h-.1c.1,0,.1.3.1.3V8.9c.1.1,0,.3,0,.3V9h-.1a.1.1,0,0,1-.1.1h.2l.2-.3-.2.4h-.1v.2h0V10h0V9.7h.1l.2-.4-.2.5h-.2v.4h0v-.3h.1V9.9h.1l.2-.4-.2.4h-.1v.2h0l-.2.2,1-1.1H16c-.1,0,0-.1,0-.1h.4v.2h0v.2h-.1v.2l.3-.2h-.1c-.1-.1,0-.1,0-.1h.2l.3-.2-.2.3h0v.2h-.1v.3h.6V10h-.1v.2h-.2v.3H17v.2h-.2v.2h.1l.4-.2h0v.3l.4.3h.1v-.2h-.1c.1,0,0-.2,0-.2a.4.4,0,0,1,.2.3h-.1c.1,0,.1.2.1.2h0l.5.2v.4h0v-5H11.8v4.6Zm.1-.8h-.1s-.1.1-.1,0h-.1c0-.1.1-.1.2-.1a.1.1,0,0,1,0-.2h.1Zm5.3.1c0,.1-.1,0-.1,0h0c.1.1,0,.2.1.2a.1.1,0,0,1,.1.1Z"/><path class="cls-3" d="M17,10.3v0Z"/><path class="cls-3" d="M13,10.5v0Z"/><path class="cls-3" d="M17,11.6h0l.2-.2Z"/><path class="cls-4" d="M14.7,10.8h.1l-.4-.5v.4l.4.3Z"/><path class="cls-1" d="M14.3,10.5v-.4l-.6-.8h0a.3.3,0,0,1-.1.2v.2h-.1v.2Z"/><path class="cls-3" d="M13.8,9.2h0a.1.1,0,0,0,.1.1h-.1Z"/><path class="cls-3" d="M13.8,9.2Z"/><path class="cls-1" d="M13.7,9.2h0Z"/><polygon class="cls-1" points="13.7 9.2 13.7 9.2 13.7 9.2 13.7 9.2"/><path class="cls-1" d="M13.9,9.3a.1.1,0,0,1-.1-.1h.1Z"/><path class="cls-5" d="M13.7,9.1h-.2v.2Z"/><path class="cls-5" d="M13.8,9.2h0Z"/><path class="cls-5" d="M13.8,9.2h0l.6.8.4.5v-.2l-1-1.1Z"/><path class="cls-5" d="M13.8,9.1Zm-.1.1h0Z"/><polygon class="cls-5" points="13.8 9.1 13.7 9.2 13.7 9.2 13.8 9.1 13.8 9.1"/><path class="cls-1" d="M13.6,9.4h0v.2h.1Z"/><path class="cls-4" d="M13.7,9.4V9.2h-.1v.2h0C13.6,9.4,13.7,9.4,13.7,9.4Z"/><path class="cls-4" d="M13.7,9.4a.3.3,0,0,0,.1-.2h-.1v.2s-.1,0-.1.2h.1Z"/><path class="cls-1" d="M13.8,9.2h0Z"/><path class="cls-4" d="M13.9,9.2Z"/><path class="cls-4" d="M13.8,9.2h0Z"/><path class="cls-4" d="M15.1,10.6h.1l.4-.3c0-.1,0-.4-.1-.4l-.4.5Z"/><path class="cls-1" d="M16.2,9.4V9.2h-.1l-.6.8c.1,0,.1.3.1.4l.7-.7V9.6h-.1Z"/><path class="cls-3" d="M16.1,9.2h0Z"/><path class="cls-3" d="M16,9.3a.1.1,0,0,0,.1-.1H16Z"/><path class="cls-1" d="M16.1,9.2a.1.1,0,0,1-.1.1h.1Z"/><path class="cls-1" d="M16.1,9.2h0Z"/><path class="cls-5" d="M16.3,9.1h0V8.9h-.1Z"/><path class="cls-5" d="M16.2,9.2Z"/><path class="cls-5" d="M15.1,10.6l.4-.5.6-.8h0l-1,1.1Z"/><path class="cls-5" d="M16.2,9.3h0Zm-.1-.2h0Z"/><polygon class="cls-5" points="16.3 9.2 16.1 9.1 16.1 9.1 16.2 9.2 16.3 9.2"/><path class="cls-1" d="M16.3,9.4v.2h.1V9.3h-.1C16.2,9.3,16.2,9.4,16.3,9.4Z"/><path class="cls-4" d="M16.3,9.4c-.1,0-.1-.1-.1-.2h0v.2s.1,0,.1.2h0Z"/><path class="cls-4" d="M16.2,9.4V9.2h0v.4h.1C16.3,9.4,16.2,9.4,16.2,9.4Z"/><path class="cls-1" d="M16.1,9.2H16s-.1.1,0,.1Z"/><path class="cls-4" d="M16,9.2h0Z"/><path class="cls-4" d="M16.1,9.2h0Z"/><path class="cls-4" d="M14.2,10.8Z"/><path class="cls-4" d="M14.2,10.7h0l.5.3h.1v-.3h-.1l-.4-.4v.3Z"/><path class="cls-4" d="M14.8,11.2h0Z"/><path class="cls-4" d="M14.8,11.2h-.1v.3Z"/><path class="cls-4" d="M14.7,10.8h0Z"/><path class="cls-4" d="M14.9,11.2Z"/><path class="cls-1" d="M14.1,10.8h.1v-.3l-.9-.8h-.1v.5l.9.6Z"/><path class="cls-1" d="M14.1,10.8Z"/><path class="cls-1" d="M14.2,10.8h0Z"/><path class="cls-3" d="M13.3,9.5h0Z"/><path class="cls-3" d="M13.3,9.5Z"/><path class="cls-1" d="M13.3,9.6Z"/><path class="cls-1" d="M13.4,9.6h0Z"/><path class="cls-5" d="M13.2,9.4h0l-.3-.2.2.3h.1Z"/><path class="cls-5" d="M13.3,9.5h0Z"/><path class="cls-5" d="M14.9,11Z"/><path class="cls-5" d="M13.3,9.6h0l.9.8.4.4h.1l-.4-.3-.7-.7-.3-.2Z"/><path class="cls-5" d="M13.3,9.4Zm-.1.1h0Z"/><polygon class="cls-5" points="13.3 9.4 13.2 9.5 13.2 9.5 13.3 9.4 13.3 9.4"/><path class="cls-1" d="M13.2,9.7V9.5h-.1v.2h0Z"/><path class="cls-4" d="M13.3,9.6h-.1v.4h.1V9.7Z"/><path class="cls-4" d="M13.3,9.6h-.1v.2h0V9.7h.1Z"/><path class="cls-1" d="M13.3,9.5h0Z"/><path class="cls-4" d="M13.4,9.5Z"/><path class="cls-4" d="M13.3,9.5h0Z"/><path class="cls-4" d="M15.3,10.9h-.1v.3h-.1v-.3h0l.5-.3h-.1c0-.1.1-.1.2-.1s0-.3-.1-.3l-.4.4S15.4,10.8,15.3,10.9Z"/><path class="cls-4" d="M15,11.2Z"/><path class="cls-4" d="M15.1,11.3h0Z"/><path class="cls-4" d="M15.3,10.8h0Z"/><path class="cls-1" d="M16.6,9.6h-.1l-.8.8c.1,0,.1.2.1.3h.1a.1.1,0,0,1-.1.1h0l.9-.6V9.7h-.1Z"/><path class="cls-1" d="M15.8,10.8Z"/><path class="cls-3" d="M16.6,9.5h0Z"/><path class="cls-3" d="M16.6,9.6h0Z"/><path class="cls-1" d="M16.6,9.6h0Z"/><path class="cls-1" d="M16.6,9.5h0Z"/><path class="cls-5" d="M16.8,9.4h0l.2-.3-.3.2h.1Z"/><path class="cls-5" d="M16.7,9.5Z"/><path class="cls-5" d="M15.1,11Z"/><path class="cls-5" d="M15.6,10.5l-.4.3h.1l.4-.4.8-.8h.1l-.3.2Z"/><path class="cls-5" d="M16.7,9.6h0Zm-.1-.2h0Z"/><polygon class="cls-5" points="16.8 9.5 16.6 9.4 16.6 9.4 16.7 9.5 16.8 9.5"/><path class="cls-1" d="M16.8,9.7v.2h0V9.7h-.1C16.7,9.6,16.7,9.7,16.8,9.7Z"/><path class="cls-4" d="M16.8,9.7c-.1,0-.1-.1-.1-.2h0v.2h.1Z"/><path class="cls-4" d="M16.7,9.6h0v.2h0V9.7Z"/><path class="cls-1" d="M16.6,9.5h-.1s-.1,0,0,.1Z"/><path class="cls-4" d="M16.5,9.5h0Z"/><path class="cls-4" d="M16.6,9.5Z"/><path class="cls-4" d="M14.3,11h0Z"/><polygon class="cls-4" points="14.7 11.2 14.7 11.2 14.7 11.3 14.7 11.2"/><path class="cls-4" d="M14.4,11h0v.2h.3Z"/><path class="cls-1" d="M13.2,10.8h.5v-.2h-.1v-.2h.2l.2.3H14l-1-.7h0v.4h0v.3h.2Z"/><path class="cls-1" d="M13.3,11.3h.2a.1.1,0,0,1-.1-.1h-.1v.2Z"/><path class="cls-1" d="M13.3,11.3h0Z"/><path class="cls-1" d="M13,10.1Z"/><path class="cls-1" d="M14.1,11.3Z"/><path class="cls-1" d="M13.2,11.1h-.1c0,.1.1.1.1.2v-.2Z"/><path class="cls-5" d="M12.9,10h-.3l.2.2h.1Z"/><path class="cls-5" d="M13,10.1l1,.7h.1l-.9-.6H13Z"/><path class="cls-5" d="M14.1,10.8Z"/><path class="cls-5" d="M12.9,10.1h0Z"/><path class="cls-5" d="M14.4,11l.3.2h0l-.5-.3h.2Z"/><path class="cls-5" d="M13,10.1Z"/><path class="cls-4" d="M12.9,10.3a.3.3,0,0,1,.1-.2h-.1v.3H13Z"/><polygon class="cls-4" points="13 10.1 12.9 10.1 12.9 10.1 13 10.1 13 10.1"/><path class="cls-4" d="M13,10.1h0a.3.3,0,0,0-.1.2v.2h0Z"/><path class="cls-5" d="M12.9,10.1h0Zm-.1,0h0Z"/><polygon class="cls-5" points="13 10 12.9 10 12.8 10.1 12.9 10.1 13 10"/><path class="cls-1" d="M12.9,10.2h0v.2h.1Z"/><path class="cls-1" d="M13,10.1Z"/><path class="cls-1" d="M12.9,10.1Z"/><path class="cls-4" d="M13,10h0Z"/><path class="cls-4" d="M13,10.1h0Z"/><path class="cls-4" d="M15.8,11.3Z"/><path class="cls-4" d="M15.7,11Z"/><path class="cls-4" d="M15.5,11.2h.1l-.4.2h.4A.1.1,0,0,0,15.5,11.2Z"/><path class="cls-4" d="M15.6,11Z"/><path class="cls-1" d="M16.9,10.1h0l-1,.7V11h.3v-.3h.2v.2h-.1l-.2.2h.7v-.3h0C17,10.4,16.9,10.1,16.9,10.1Z"/><path class="cls-1" d="M16.9,10.1Z"/><path class="cls-1" d="M16.5,11.3h.1v-.2h0A.1.1,0,0,0,16.5,11.3Z"/><path class="cls-1" d="M16.4,11.3h0Z"/><path class="cls-1" d="M16.8,11.1h-.1v0Z"/><path class="cls-1" d="M16.2,11.4h0Z"/><path class="cls-1" d="M15.8,11.3Z"/><path class="cls-5" d="M17.1,10h.1V9.8h-.2Z"/><path class="cls-5" d="M17,10.1h0Z"/><path class="cls-5" d="M15.2,11.2h0l.4-.2h.1l-.5.3Z"/><path class="cls-5" d="M15.9,10.8l1-.7h-.2l-.9.6Z"/><path class="cls-5" d="M16.9,10.1Z"/><polygon class="cls-4" points="17 10.1 17 10.1 17 10.1 17 10.1 17 10.1"/><path class="cls-4" d="M17,10.2h0v.4H17Z"/><path class="cls-4" d="M17,10.1h-.1s.1.3,0,.4h0v-.4Z"/><path class="cls-5" d="M17,10.1h0Zm-.1-.1h0Z"/><polygon class="cls-5" points="17.1 10.1 17 10 16.9 10 17 10.1 17.1 10.1"/><path class="cls-1" d="M17,10.1h0v.3h.1v-.2Z"/><path class="cls-1" d="M16.9,10.1Z"/><path class="cls-1" d="M16.9,10h0Z"/><path class="cls-4" d="M16.9,10.1h0Z"/><path class="cls-4" d="M16.9,10.1Z"/><path class="cls-6" d="M17.2,11.9Z"/><path class="cls-6" d="M17.4,11.9Z"/><path class="cls-6" d="M13.6,11.4h0l-.2.2h.2Z"/><path class="cls-6" d="M17.6,12.1h0Z"/><path class="cls-6" d="M16.2,11.4Z"/><path class="cls-6" d="M16.3,11.4h0Z"/><path class="cls-6" d="M17.7,12h-.2l-.4-.3h-.4a.4.4,0,1,1-.8,0h-.1v.2h0v-.2h-.3a.1.1,0,0,1,.1.1H14.3a.1.1,0,0,0,.1-.1h-.2v.2h-.1v-.2H14a.4.4,0,0,1-.8,0h-.4l-.4.3h-.1l-.5.3v.4h6.4v-.4ZM17,12Zm0-.2h0Zm-.1.2h0Zm-.1-.4h0Zm0,.2h0Zm-.1.2h0Zm-.1-.4h.1a.1.1,0,0,1-.1.1h0Zm0,.2Zm-.1.1h0Zm-.2-.1h0Zm-.3,0h0Zm-.2-.2h.1c.1,0,.1,0,.1.1h-.2C15.7,11.8,15.7,11.7,15.8,11.6Zm.1.4ZM14,11.7h.1c.1.1.1.2,0,.2H14C13.9,11.7,14,11.7,14,11.7Zm.1.3h0Zm-.2-.2h0Zm-.3,0h0Zm-.1.2h0Zm-.1-.2h0Zm-.1.2Zm0-.4h0a.1.1,0,0,1-.1-.1Zm0,.2h0Zm-.1.2h0Zm-.1-.4h0Zm-.1.2h0Zm-.1.1h0Zm4.6.5h0l-.6-.2h-.7v.2H13.6v-.2H13l-.6.2h0l.5-.2H17l.5.2h0Z"/><path class="cls-6" d="M16.3,11.4h0v.2h.2Z"/><path class="cls-6" d="M12.5,11.9h0Z"/><path class="cls-6" d="M13.5,11.4h0Z"/><path class="cls-6" d="M12.7,11.9Z"/><path class="cls-6" d="M12.4,12h0Z"/><path class="cls-6" d="M14.7,11.8h0c0,.1,0,.1.1.1h-.1Z"/><path class="cls-6" d="M13.6,11.4h0v.2h0Z"/><path class="cls-6" d="M12.4,12Z"/><path class="cls-6" d="M16.1,11.5h0Z"/><path class="cls-6" d="M14.9,11.8h0Z"/><path class="cls-6" d="M14.9,11.3h0Z"/><path class="cls-6" d="M15.2,11.3Z"/><path class="cls-6" d="M14.7,11.3h0Z"/><path class="cls-6" d="M14.7,11.4h-.3v-.2h.1v.2h.2v-.2Z"/><path class="cls-6" d="M14.5,11.4h0Z"/><path class="cls-6" d="M13.7,11.4h0Z"/><path class="cls-6" d="M14.8,11.3Z"/><path class="cls-6" d="M15.5,11.4h-.1v.2h.1Z"/><path class="cls-6" d="M15.2,11.3h0v.2h.2v-.2h-.2Z"/><path class="cls-6" d="M16.5,11.5h0Z"/><path class="cls-6" d="M15.8,11.3h-.3v.2h.3Z"/><path class="cls-5" d="M13.5,11.3a.1.1,0,0,0-.1-.1h0a.1.1,0,0,0,.1.1Z"/><path class="cls-5" d="M13.7,11.3Z"/><path class="cls-5" d="M13.7,11.2h0Z"/><path class="cls-5" d="M13.6,11.2h0Z"/><path class="cls-5" d="M14.7,11.6h0Z"/><path class="cls-5" d="M14.8,11.8Z"/><path class="cls-5" d="M14.4,11.6h0v.2h0Z"/><path class="cls-5" d="M14.7,11.7Z"/><path class="cls-5" d="M14.4,11.5H14l.2.2h.2Z"/><path class="cls-5" d="M13.7,11.3h0Z"/><path class="cls-5" d="M14,11.4h.1Z"/><path class="cls-5" d="M16.4,11.3h.1a.1.1,0,0,1,.1-.1h-.1a.1.1,0,0,0-.1.1Z"/><path class="cls-5" d="M16.3,11.2h0Z"/><path class="cls-5" d="M16.3,11.4Z"/><path class="cls-5" d="M16.3,11.3h0a.1.1,0,0,1-.1-.1h.1Z"/><path class="cls-5" d="M16.4,11.2h0Z"/><path class="cls-5" d="M15.4,11.6Z"/><path class="cls-5" d="M15.5,11.5h0Z"/><path class="cls-5" d="M15.9,11.4h-.4v.2h.3Z"/><path class="cls-5" d="M15.8,11.6h.1Z"/><path class="cls-5" d="M14.5,11.2h0Z"/><path class="cls-5" d="M14.4,11.2h0Z"/><path class="cls-5" d="M13.5,11.2h.1V11h-.1Z"/><path class="cls-5" d="M14.1,11.3v-.2h-.3c.1,0,.2.1.2.3Z"/><path class="cls-5" d="M13.1,11h-.2v.2h.2Z"/><path class="cls-5" d="M13.9,11.1h0Z"/><path class="cls-5" d="M13.4,11.1Z"/><path class="cls-5" d="M13.2,11c-.1,0,0,.1,0,.1h0l.3-.2h-.3Z"/><path class="cls-5" d="M13.6,11v.2h0Z"/><path class="cls-5" d="M14.1,11.1c0,.1,0,.2.1.2h.1V11h-.2Z"/><path class="cls-5" d="M13.4,11.2h0Z"/><path class="cls-7" d="M14.4,11.2Z"/><path class="cls-5" d="M13.2,11h0S13.1,11,13.2,11Z"/><path class="cls-5" d="M14.1,11.3h.1c-.1,0-.1-.1-.1-.2h0v.2Z"/><path class="cls-5" d="M14.4,11.2h0V11h-.1v.2h.1Z"/><path class="cls-5" d="M15.5,11.2Z"/><path class="cls-5" d="M15.5,11.1Z"/><path class="cls-5" d="M15.8,11Z"/><path class="cls-5" d="M16.5,11.2h0Z"/><polygon class="cls-5" points="16.1 11.1 16.1 11.1 16.1 11.1 16.1 11.1"/><path class="cls-5" d="M15.8,11.1h-.2v.2h.2Z"/><path class="cls-5" d="M16.3,11.2h0Z"/><path class="cls-5" d="M15.8,11h0v.2h.1c0-.2.1-.3.2-.3h-.3Z"/><path class="cls-5" d="M16.8,11H17v-.2h-.2Z"/><path class="cls-5" d="M16.7,11.1h0s.1-.1,0-.1h-.3Z"/><path class="cls-5" d="M16.2,11.2h.1V11h-.1Z"/><path class="cls-5" d="M16.1,11.1Z"/><path class="cls-7" d="M15.5,11.2h0Z"/><path class="cls-5" d="M16.7,11.1h0C16.8,11,16.7,11.1,16.7,11.1Z"/><path class="cls-5" d="M15.8,11h0Z"/><path class="cls-5" d="M15.8,11h0v.2h0v-.2Z"/><path class="cls-5" d="M15.6,11.2V11h-.1a.1.1,0,0,1,.1.1h0Z"/><path class="cls-5" d="M13.6,10.6h0v.2h.1l-.2-.3Z"/><path class="cls-5" d="M14,11.4h0v.4h.1v-.2Z"/><path class="cls-5" d="M13.9,11.1h0Z"/><path class="cls-3" d="M13.6,10.6h-.2v.2h.1Z"/><path class="cls-5" d="M16.4,10.7h-.1v.3h0Z"/><path class="cls-5" d="M15.9,11.4h0v.4h0v-.4Z"/><path class="cls-5" d="M16.1,11.1Z"/><path class="cls-3" d="M16.4,10.7h.1v-.2h-.1Z"/><path class="cls-5" d="M13.6,11.4h0v.2h0Z"/><path class="cls-5" d="M13.6,11.2h0V11h0Z"/><path class="cls-5" d="M13.6,11.4h-.2Z"/><path class="cls-5" d="M13.7,11.2h0Z"/><path class="cls-5" d="M13.7,11.4h0Z"/><path class="cls-5" d="M13.4,11.2a.1.1,0,0,1,.1.1h-.1Z"/><path class="cls-5" d="M13.4,11.3h0Z"/><path class="cls-5" d="M13.7,11.3Z"/><path class="cls-5" d="M13.6,11.8a.4.4,0,0,0,.4-.4h0c0-.2-.1-.3-.2-.3h-.3l-.3.2v.2h0A.4.4,0,0,0,13.6,11.8Zm-.3-.2Zm.2.1h0Zm.1,0Zm.1,0Zm.2-.1Zm0-.1Zm-.1-.5Zm.2.3Zm-.1-.1h0Zm0-.1Zm-.3-.1h0Zm-.1,0Zm-.2,0h0c.1,0,.1.1,0,.1h0Zm.1.1h-.1v-.2Zm-.1.1h0Zm-.1.1Zm.1.2h0Z"/><path class="cls-5" d="M13.5,11.3Z"/><path class="cls-7" d="M13.6,10.9h0Z"/><path class="cls-7" d="M13.5,11Z"/><circle class="cls-7" cx="13.3" cy="11.1"/><path class="cls-7" d="M13.3,11.2h0Z"/><path class="cls-7" d="M13.2,11.3Z"/><path class="cls-7" d="M13.2,11.5Z"/><path class="cls-7" d="M13.3,11.6Z"/><path class="cls-7" d="M13.4,11.7Z"/><path class="cls-7" d="M13.6,11.7Z"/><path class="cls-7" d="M13.7,11.7Z"/><path class="cls-7" d="M13.9,11.6Z"/><path class="cls-7" d="M13.9,11.5Z"/><path class="cls-7" d="M14,11.3Z"/><path class="cls-7" d="M14,11.2Z"/><path class="cls-7" d="M13.9,11.1Z"/><path class="cls-7" d="M13.8,11Z"/><path class="cls-5" d="M16.3,11.4h0v.2h0Z"/><path class="cls-5" d="M16.3,11v.2h0V11Z"/><path class="cls-5" d="M16.4,11.4h-.1l.2.2h-.1Z"/><path class="cls-5" d="M16.1,11.1h.1a.1.1,0,0,0,.1.1h-.2Z"/><path class="cls-5" d="M16.1,11.6h0Z"/><path class="cls-5" d="M16.5,11.1h-.1a.1.1,0,0,1,.1-.1Z"/><path class="cls-5" d="M16.4,11.3Z"/><path class="cls-5" d="M16,11.4h0Z"/><path class="cls-5" d="M16.4,10.9h-.3c-.1,0-.2.1-.2.3h0a.4.4,0,1,0,.8,0h0v-.2Zm.2.3h0Zm0-.2Zm-.1,0Zm-.2-.1Zm-.1.1Zm-.2.1h0Zm0,.1Zm-.1.1Zm.1.2Zm.1.1h0Zm0-.1h.5v.2h-.5Zm.1.2Zm.1,0Zm.2,0Zm.1-.1Zm.1-.1Zm0-.2Z"/><path class="cls-5" d="M16.3,11.4Z"/><path class="cls-7" d="M16.3,10.9Z"/><path class="cls-7" d="M16.5,11Z"/><circle class="cls-7" cx="16.6" cy="11.1"/><path class="cls-7" d="M16.7,11.2Z"/><path class="cls-7" d="M16.7,11.3Z"/><path class="cls-7" d="M16.7,11.5Z"/><path class="cls-7" d="M16.6,11.6Z"/><path class="cls-7" d="M16.5,11.7Z"/><path class="cls-7" d="M16.3,11.7Z"/><path class="cls-7" d="M16.2,11.7Z"/><path class="cls-7" d="M16,11.6h0Z"/><path class="cls-7" d="M16,11.5Z"/><path class="cls-7" d="M16,11.3h0Z"/><path class="cls-7" d="M16,11.2Z"/><path class="cls-7" d="M16.1,11.1h0Z"/><path class="cls-7" d="M16.2,11Z"/><path class="cls-4" d="M12.3,11a.1.1,0,0,0,0,.2c-.1,0-.2,0-.2.1h.1c0,.1.1,0,.1,0h0Z"/><polygon class="cls-3" points="12.6 11.3 12.7 11.3 12.6 11.3 12.6 11.3"/><polygon class="cls-3" points="12.8 11.4 13 11.5 13.1 11.5 13.1 11.5 13.1 11.5 12.7 11.3 12.7 11.3 12.8 11.4"/><polygon class="cls-3" points="12.9 11.7 12.9 11.6 12.7 11.4 12.7 11.3 12.8 11.6 12.9 11.7 12.9 11.7"/><polygon class="cls-3" points="12.7 11.3 12.7 11.3 12.7 11.3 12.7 11.3 12.7 11.3"/><polygon class="cls-3" points="12.9 11.6 13 11.6 13 11.6 12.9 11.5 12.8 11.4 12.7 11.3 12.7 11.3 12.6 11.3 12.6 11.3 12.6 11.3 12.7 11.3 12.7 11.3 12.7 11.4 12.9 11.6"/><path class="cls-5" d="M12.9,12h0Z"/><path class="cls-5" d="M13,12h0Z"/><path class="cls-5" d="M13.2,12h0Z"/><path class="cls-5" d="M13.4,12Z"/><path class="cls-5" d="M13,11.9h0Z"/><path class="cls-5" d="M13.1,11.8h0Z"/><path class="cls-5" d="M13.3,11.8h0Z"/><path class="cls-5" d="M13.1,11.8h0Z"/><path class="cls-5" d="M13.3,11.8h-.1A.1.1,0,0,0,13.3,11.8Z"/><path class="cls-5" d="M13.6,11.9h0Z"/><path class="cls-5" d="M13.9,11.9h0Z"/><path class="cls-5" d="M14,12Z"/><path class="cls-3" d="M14.1,11.8c.1,0,.1-.1,0-.2H14s-.1,0,0,.1Z"/><polygon class="cls-3" points="14 11.6 14 11.6 14 11.6 14 11.6 14 11.6 14 11.6 14 11.6"/><path class="cls-3" d="M14.8,10.8h0Z"/><path class="cls-3" d="M14.6,10.9Z"/><path class="cls-7" d="M14.8,10.8h0Z"/><path class="cls-7" d="M14.6,10.9Z"/><polygon class="cls-3" points="14.8 11.2 14.7 10.9 14.7 10.9 14.8 11.2 14.8 11.2 14.8 11.2"/><polygon class="cls-3" points="14.7 10.9 14.7 10.9 14.7 10.9 14.7 10.9 14.7 10.9 14.7 10.9 14.7 10.9 14.7 10.9 14.7 10.8 14.7 10.8 14.7 10.8 14.7 10.8 14.7 10.8 14.7 10.8 14.7 10.9"/><polygon class="cls-3" points="14.5 9.9 14.5 9.8 14.5 9.8 14.5 9.9 14.5 9.9"/><polygon class="cls-3" points="14.5 9.8 14.2 9.5 14.4 9.9 14.5 9.9 14.5 9.8 14.5 9.8"/><polygon class="cls-5" points="14.7 10.2 14.5 9.9 14.5 9.8 14.5 9.8 14.5 9.8 14.5 9.8 14.5 9.9 14.6 10.1 14.7 10.1 14.7 10.2"/><path class="cls-5" d="M14.8,10.6h.1l-.2-.3h0v.4Z"/><polygon class="cls-3" points="14.7 10.2 14.7 10.2 14.7 10.2 14.7 10.1 14.6 10.1 14.6 10.1 14.7 10.2 14.7 10.2 14.7 10.2"/><polygon class="cls-3" points="14.7 9.6 14.6 9.3 14.7 9.7 14.7 9.7 14.7 9.6 14.7 9.6"/><polygon class="cls-3" points="14.8 9.7 14.7 9.6 14.7 9.6 14.7 9.7 14.8 9.7"/><path class="cls-5" d="M14.9,10.1h0l-.2-.3h.1v.4Z"/><polygon class="cls-3" points="14.8 9.9 14.8 9.8 14.8 9.8 14.8 9.8 14.8 9.8 14.8 9.9 14.8 9.9"/><polygon class="cls-3" points="14.6 9.7 14.3 9.3 14.5 9.8 14.6 9.8 14.6 9.7 14.6 9.7"/><polygon class="cls-3" points="14.6 9.7 14.6 9.7 14.6 9.7 14.6 9.7 14.6 9.7"/><path class="cls-5" d="M14.9,10.4h0l-.3-.6h.1l.2.4Z"/><polygon class="cls-3" points="14.7 10 14.7 9.9 14.6 9.9 14.7 9.9 14.7 10 14.7 10 14.7 10"/><polygon class="cls-3" points="15.4 9.8 15.4 9.9 15.4 9.9 15.4 9.8 15.4 9.8"/><polygon class="cls-3" points="15.5 9.9 15.7 9.5 15.5 9.9 15.5 9.9 15.4 9.9 15.5 9.9"/><path class="cls-5" d="M15.1,10.5h0v-.2l.2-.2h-.1v.3Z"/><polygon class="cls-5" points="15.4 9.9 15.5 9.9 15.5 9.8 15.4 9.8 15.4 9.8 15.4 9.9 15.3 10.1 15.3 10.1 15.4 9.9"/><polygon class="cls-3" points="15.3 10.2 15.3 10.1 15.3 10.1 15.3 10.1 15.3 10.1 15.2 10.2 15.2 10.2 15.3 10.2 15.3 10.2"/><polygon class="cls-3" points="15.2 9.7 15.4 9.3 15.2 9.6 15.2 9.6 15.2 9.7 15.2 9.7"/><polygon class="cls-3" points="15.2 9.6 15.2 9.7 15.2 9.7 15.2 9.6 15.2 9.6"/><polygon class="cls-5" points="15.1 9.8 15.2 9.7 15.2 9.6 15.2 9.6 15.2 9.6 15.2 9.6 15.2 9.7 15.1 9.8 15.2 9.8 15.1 9.8"/><path class="cls-5" d="M15.1,10h0V9.9h0Z"/><polygon class="cls-3" points="15.1 9.9 15.1 9.8 15.2 9.8 15.1 9.8 15.1 9.8 15.1 9.9 15.1 9.9 15.1 9.9 15.1 9.9"/><polygon class="cls-3" points="15.4 9.8 15.6 9.3 15.4 9.7 15.4 9.7 15.3 9.8 15.4 9.8"/><polygon class="cls-3" points="15.3 9.7 15.3 9.7 15.3 9.7 15.3 9.7 15.3 9.7"/><polygon class="cls-5" points="15.3 9.9 15.3 9.8 15.4 9.7 15.4 9.7 15.3 9.7 15.3 9.7 15.3 9.7 15.2 10 15.2 9.9 15.3 9.9"/><path class="cls-5" d="M15.1,10.3h0V10h0v.3Z"/><polygon class="cls-3" points="15.2 10 15.2 10 15.3 9.9 15.3 9.9 15.2 9.9 15.2 10 15.2 10 15.2 10 15.2 10"/><path class="cls-3" d="M15.2,10.9h.1c.1-.1,0-.1,0-.1h-.1Z"/><path class="cls-3" d="M15.2,10.8Z"/><path class="cls-7" d="M15.3,10.9Z"/><path class="cls-7" d="M15.2,10.8h0Z"/><polygon class="cls-3" points="15.2 11.2 15.2 10.9 15.2 10.9 15.1 11.2 15.2 11.2"/><polygon class="cls-3" points="15.2 10.8 15.2 10.8 15.2 10.9 15.2 10.9 15.2 10.9 15.2 10.9 15.2 10.9 15.2 10.9 15.2 10.9 15.2 10.9 15.2 10.8 15.2 10.8 15.2 10.8 15.2 10.8 15.2 10.8"/><path class="cls-6" d="M14.2,10.9h0Z"/><path class="cls-6" d="M14.1,11.1Zm.1,0h0Zm-.1-.2h0Z"/><path class="cls-3" d="M14.1,10.8Z"/><path class="cls-3" d="M14.1,10.8Z"/><path class="cls-3" d="M14.1,10.9h0Z"/><path class="cls-6" d="M14.1,10.8Z"/><path class="cls-3" d="M14.1,11Z"/><path class="cls-3" d="M14.1,11Z"/><path class="cls-5" d="M16.9,12h0Z"/><path class="cls-5" d="M16.7,12h0Z"/><path class="cls-5" d="M16.6,12Z"/><path class="cls-5" d="M16.5,12Z"/><path class="cls-5" d="M16.8,11.8h0Z"/><path class="cls-5" d="M16.7,11.8h0Z"/><path class="cls-5" d="M16.6,11.9h0Z"/><path class="cls-5" d="M16.8,11.8h0Z"/><path class="cls-5" d="M16.6,11.8a.1.1,0,0,0,.1-.1h-.1Z"/><path class="cls-5" d="M16.3,11.9h0Z"/><path class="cls-5" d="M16,11.9h0Z"/><path class="cls-5" d="M15.8,12h0Z"/><path class="cls-3" d="M16,11.8c0-.1,0-.1-.1-.1h-.1c-.1.1-.1.2,0,.2Z"/><polygon class="cls-3" points="15.9 11.6 15.9 11.6 15.9 11.6 15.9 11.6 15.9 11.6 15.9 11.6 15.9 11.6"/><path class="cls-4" d="M17.7,11.2c-.1,0,0-.1-.1-.2h0s.1.1.1,0h.1A.1.1,0,0,0,17.7,11.2Z"/><polygon class="cls-3" points="17.3 11.3 17.3 11.3 17.2 11.3 17.3 11.3"/><polygon class="cls-3" points="16.8 11.5 16.9 11.5 17.2 11.4 17.2 11.3 17.2 11.3 16.8 11.5 16.8 11.5 16.8 11.5"/><polygon class="cls-3" points="17 11.6 17 11.7 17 11.7 17.1 11.6 17.2 11.3 17.2 11.4 17 11.6"/><polygon class="cls-3" points="17.3 11.3 17.3 11.3 17.2 11.3 17.2 11.3 17.3 11.3"/><polygon class="cls-3" points="17.2 11.3 17.2 11.4 17 11.6 16.9 11.6 16.9 11.6 17 11.6 17.2 11.4 17.2 11.3 17.2 11.3 17.3 11.3 17.3 11.3 17.3 11.3 17.3 11.3 17.2 11.3"/><path class="cls-5" d="M15,11.2h0Z"/><path class="cls-5" d="M15,11.1h0Z"/><path class="cls-5" d="M15,11.1h0Z"/><path class="cls-5" d="M15.1,11h0Z"/><path class="cls-5" d="M14.9,11Z"/><path class="cls-5" d="M15,10.9Z"/><path class="cls-5" d="M15,10.9Z"/><path class="cls-5" d="M15,10.8Z"/><path class="cls-5" d="M14.9,10.8h0Z"/><path class="cls-5" d="M14.9,10.7Z"/><path class="cls-5" d="M14.9,10.6h0Z"/><path class="cls-5" d="M14.9,10.6h0Z"/><path class="cls-5" d="M14.9,10.5Z"/><path class="cls-5" d="M15,10.5Z"/><path class="cls-5" d="M15.1,10.4h0Z"/><path class="cls-5" d="M14.9,10.3Z"/><path class="cls-5" d="M14.9,10.3h0Z"/><path class="cls-5" d="M14.9,10.2h0Z"/><path class="cls-5" d="M15,10.1Z"/><path class="cls-5" d="M14.9,10.1h0Z"/><path class="cls-5" d="M14.9,10Z"/><path class="cls-5" d="M15,10Z"/><path class="cls-5" d="M15,9.9Z"/><path class="cls-5" d="M15,9.9Z"/><path class="cls-5" d="M15,9.8Z"/><path class="cls-5" d="M15,9.8Z"/><path class="cls-5" d="M15,9.7Z"/><path class="cls-5" d="M15,9.6Z"/><path class="cls-5" d="M15,9.6Z"/><path class="cls-5" d="M15,9.5Z"/><path class="cls-5" d="M15,9.5Z"/><path class="cls-5" d="M15,9.4Z"/><path class="cls-5" d="M14.9,9.3h0Z"/><path class="cls-5" d="M14.9,9.3H15a.1.1,0,0,0,.1-.1h-.2Z"/><path class="cls-5" d="M15,9.2Z"/><path class="cls-5" d="M15,9.1Z"/><path class="cls-5" d="M15,9.1Z"/><path class="cls-6" d="M15,9h.1V8.6h0V8.3h0Z"/><path class="cls-6" d="M15.2,8.4h.1v.2h0c.1,0,0,.1,0,.1h.1v.2h0v.2h0c.1-.2-.1-.3-.1-.4h-.2Z"/><path class="cls-6" d="M15.3,8.1h.6c.1,0,0-.1,0-.1H16c.1,0,0-.1,0-.1h.2C16,8,15.9,8,15.6,8h-.3Z"/><path class="cls-6" d="M15.8,8.4Z"/><path class="cls-6" d="M14,8.3Z"/><path class="cls-6" d="M14.3,8.6Z"/><path class="cls-6" d="M14.3,8.6h0Z"/><path class="cls-6" d="M14.4,8.6Z"/><polygon class="cls-6" points="14.4 8.6 14.3 8.6 14.4 8.6 14.4 8.6"/><polygon class="cls-6" points="14.6 8.4 14.6 8.4 14.6 8.4 14.6 8.4"/><polygon class="cls-6" points="14.5 8.4 14.5 8.4 14.5 8.4 14.5 8.4"/><path class="cls-6" d="M14.3,8.6Z"/><path class="cls-6" d="M14.3,8.7h0Z"/><path class="cls-6" d="M14.7,8.5Z"/><path class="cls-6" d="M15.7,8.4Z"/><path class="cls-6" d="M14.8,8.4h0Z"/><path class="cls-6" d="M14.3,8.7Z"/><path class="cls-6" d="M14.7,8.5Z"/><path class="cls-6" d="M14.4,8.5Z"/><path class="cls-6" d="M14.2,8.8h0Z"/><path class="cls-6" d="M14.9,8.9a.3.3,0,0,1-.1-.2v.2h0a.1.1,0,0,0-.1-.1H15v.2h.1a.1.1,0,0,1,.1-.1h-.1a.1.1,0,0,0,.1-.1V9h.1v.2h.1v.2s.1-.2,0-.3v.2s0-.3-.1-.3h.1s0-.2-.1-.2h.1s0-.2-.1-.2h.1V8.5h0v0h0l.2.2v0h0v.2s0-.2-.1-.2v.2h-.2l-.2-.2a.1.1,0,0,1-.1-.1h.1v.2s0-.2-.1-.2v.2h.1v0h.1V8.3H16V8.3a.4.4,0,0,1,.1.3v0a.5.5,0,0,0-.1-.3h-.2V7.8h-.5l-.2.2h0V8l-.4-.2h-.4c-.1.1-.2.2-.2.3l.2-.2v.2h.1a.1.1,0,0,0-.1.1c0-.1.2-.2.2-.2h.2a.7.7,0,0,0-.5.3c-.1.2,0,.2,0,.2v0H14s0-.2.1-.2-.1.1,0,.1v0l.2-.3v0h0l-.2.2a.4.4,0,0,0-.3.4h.1V8.7h.1V8.7h.5a.1.1,0,0,1-.1.1h.1v0h.1V8.8Zm.5-.5Zm0-.1Zm0,0h0Zm0-.1h0Zm-.1.1h0a.1.1,0,0,0-.1-.1Zm-.1,0ZM15,8.2Zm-.3,0h0Zm-.2,0h0Z"/><path class="cls-6" d="M14.7,8.5h-.4a.4.4,0,0,0-.1.3V8.8h.1V8.7h0V8.6h.2V8.5h.1V8.4Z"/><path class="cls-6" d="M14.5,8.8h0Z"/><path class="cls-1" d="M15,7.8h.1c0-.1-.2-.1-.2-.1H15Z"/><path class="cls-4" d="M15.1,7.9h-.2S15.1,7.8,15.1,7.9Z"/><path class="cls-1" d="M15.1,7.8V7.6h0Zm-.2-.2h0Z"/><path class="cls-5" d="M15,8.2h0V7.9h0v.2Z"/><path class="cls-4" d="M15,11.8h0Zm-.2.1Zm.2,0Zm.2-.1Z"/><path class="cls-5" d="M14.8,11.8h0v-.2H15v0Z"/><path class="cls-5" d="M15,11.4h-.1v0Z"/><path class="cls-5" d="M14.7,11.4h0v0Z"/><path class="cls-5" d="M15.1,11.4v.3h0v-.2Z"/><path class="cls-5" d="M15.2,11.7Z"/><path class="cls-5" d="M15.1,11.4v.4h0c.1,0,.2,0,.2-.1Z"/><path class="cls-4" d="M14.7,11.2Zm.4,0Zm-.2,0h0Zm-.1,0Z"/><path class="cls-3" d="M15.2,11.7h0c0,.1-.1.1-.2.1h-.2c-.1,0-.1,0-.1-.1h.5Z"/><path class="cls-4" d="M15.1,11.4h0v0h0v0h0v.4h0v0h0v-.1h0Z"/><rect class="cls-3" x="15" y="11.8" height="0.06"/><path class="cls-3" d="M14.7,11.3Z"/><rect class="cls-3" x="14.9" y="11.2" height="0.04"/><polygon class="cls-3" points="14.8 11.2 14.8 11.2 14.8 11.2 14.8 11.2 14.8 11.2"/><polygon class="cls-3" points="15.1 11.2 15.1 11.2 15.1 11.2 15.1 11.2 15.1 11.2"/><polygon class="cls-3" points="14.8 11.9 14.8 11.9 14.8 11.8 14.8 11.8 14.8 11.9"/><polygon class="cls-3" points="15.2 11.8 15.2 11.8 15.2 11.8 15.2 11.8 15.2 11.8"/><path class="cls-4" d="M15.2,11.3Zm-.3.1Zm.2,0Z"/><polygon class="cls-3" points="15.1 11.3 15.1 11.4 15.1 11.4 15.1 11.3 15.1 11.3"/><rect class="cls-3" x="14.9" y="11.3" height="0.06"/><polygon class="cls-3" points="14.7 11.3 14.7 11.3 14.7 11.3 14.7 11.4 14.7 11.3"/><path class="cls-5" d="M12.6,11.9Z"/><path class="cls-5" d="M12.3,12.1h.1v-.2a.4.4,0,0,0-.2.3h.1Z"/><path class="cls-5" d="M12.7,11.9Z"/><path class="cls-5" d="M12.6,11.9Z"/><polygon class="cls-3" points="12.6 11.8 12.6 11.9 12.6 11.9 12.6 11.9 12.6 11.9 12.7 11.9 12.6 11.8"/><polygon class="cls-3" points="12.7 11.9 12.7 11.9 12.7 11.9 12.7 12 12.7 11.9 12.7 11.9 12.7 11.9"/><path class="cls-3" d="M12.5,11.9h0Z"/><path class="cls-3" d="M12.4,12Z"/><path class="cls-5" d="M17.3,11.9h0Z"/><path class="cls-5" d="M17.5,12h.2s0-.2-.1-.2h.1a.4.4,0,0,0-.2-.3s.1.2,0,.2h.1V12h-.1Z"/><path class="cls-5" d="M17.3,11.9Z"/><path class="cls-5" d="M17.3,11.9h0Z"/><path class="cls-5" d="M17.3,11.9Z"/><polygon class="cls-3" points="17.3 11.9 17.3 11.9 17.3 11.9 17.3 11.9 17.3 11.8 17.3 11.8 17.3 11.8 17.3 11.9 17.3 11.9"/><polygon class="cls-3" points="17.3 11.9 17.2 11.9 17.3 11.9 17.3 12 17.3 11.9 17.3 11.9 17.3 11.9"/><path class="cls-3" d="M17.3,11.9Z"/><path class="cls-3" d="M17.6,12.1h0Z"/><path class="cls-5" d="M14.3,11.8Z"/><path class="cls-5" d="M14.5,11.6h0v-.2h-.1v.4a.1.1,0,0,1-.1.1h.1v-.2h.1v.2Z"/><path class="cls-5" d="M15.5,11.8Z"/><path class="cls-5" d="M15.5,11.5v-.2h-.1v.2h0v-.2h.1v.2h.1a.1.1,0,0,0-.1-.1Z"/><path class="cls-5" d="M15.8,10.8h.1v-.2Z"/><path class="cls-4" d="M15.8,11Zm-.1,0Zm.1,0Zm0,0Zm0,0Zm.1,0Zm0,0Z"/><path class="cls-5" d="M15.7,11Z"/><path class="cls-4" d="M15.6,10.8h.2a.1.1,0,0,0,.1-.1h-.1C15.7,10.7,15.6,10.7,15.6,10.8Z"/><path class="cls-3" d="M16,12.2H13.7v.2h2.7v-.2H16Zm-2.1.1h0Zm.1-.1h0Zm.1.1h0Zm.1.1h-.1v-.2h.1Zm.1,0h0v-.2h0Zm.1,0h-.1a.1.1,0,0,1,.1-.1h0Zm.2,0h0Zm.2-.1h0Zm.1.1Zm.1,0h0Zm.1-.1h0Zm.1.1h0Zm.2,0Zm.1-.1h0Zm.2.1h-.1a.1.1,0,0,1,.1-.1h0C15.8,12.3,15.7,12.4,15.7,12.4Zm.2,0h-.1v-.2h0c.1,0,.1,0,.1.1h0Zm.1-.1h-.1c0-.1,0-.1.1-.1h0c-.1,0-.1,0-.1.1Zm.1,0h0Z"/><path class="cls-3" d="M13.9,12.1h-1l-.5.2h0l.6-.2h.9Z"/><path class="cls-3" d="M13.9,12.2Z"/><path class="cls-3" d="M17.5,12.3l-.5-.2h-.1l.6.2h0Z"/><path class="cls-3" d="M16,12.1Z"/><polygon class="cls-7" points="16.1 12.3 16.1 12.3 16.1 12.3 16.1 12.2 16.1 12.3 16.1 12.2 16.1 12.2 16.1 12.2 16 12.2 16.1 12.3 16.2 12.3 16.2 12.3 16.1 12.3"/><path class="cls-7" d="M16,12.3h-.1c0-.1,0-.1.1-.1h0c-.1,0-.1,0-.1.1Z"/><path class="cls-7" d="M15.9,12.3h0c0-.1,0-.1-.1-.1h0v.2h.1Zm-.1,0h0a.1.1,0,0,1,.1.1Z"/><path class="cls-7" d="M15.7,12.2a.1.1,0,0,0-.1.1h.1s.1-.1,0-.1Zm0,.2h0Z"/><polygon class="cls-7" points="15.6 12.2 15.5 12.3 15.5 12.4 15.5 12.4 15.5 12.3 15.6 12.3 15.6 12.3 15.5 12.3 15.5 12.3 15.6 12.3 15.6 12.2"/><path class="cls-7" d="M15.3,12.3h0Zm0,0Z"/><polygon class="cls-7" points="15.2 12.4 15.2 12.3 15.2 12.3 15.2 12.4 15.3 12.4 15.3 12.4 15.2 12.4"/><polygon class="cls-7" points="15 12.3 15 12.3 15 12.4 15 12.4 15 12.3 15.1 12.3 15.1 12.3 15 12.3 15 12.3"/><rect class="cls-7" x="14.9" y="12.3" height="0.14"/><path class="cls-7" d="M14.8,12.3h0Zm0,.1h0Z"/><polygon class="cls-7" points="14.7 12.4 14.7 12.4 14.7 12.3 14.8 12.3 14.8 12.3 14.7 12.3 14.7 12.3 14.8 12.3 14.8 12.3 14.7 12.3 14.7 12.4"/><polygon class="cls-7" points="14.5 12.4 14.5 12.3 14.5 12.3 14.5 12.4 14.5 12.4 14.5 12.3 14.5 12.4 14.6 12.4 14.6 12.3 14.6 12.3 14.5 12.4"/><path class="cls-7" d="M14.4,12.2a.1.1,0,0,0-.1.1h.1Zm0,.2h0Z"/><polygon class="cls-7" points="14.3 12.4 14.3 12.4 14.3 12.2 14.3 12.2 14.3 12.4"/><polygon class="cls-7" points="14.2 12.3 14.2 12.2 14.1 12.2 14.1 12.4 14.1 12.4 14.1 12.3 14.2 12.4 14.2 12.4 14.2 12.2 14.2 12.2 14.2 12.3"/><path class="cls-7" d="M14.1,12.3h0Z"/><path class="cls-7" d="M13.9,12.2h0Z"/><polygon class="cls-7" points="13.9 12.2 13.8 12.2 13.8 12.3 13.9 12.3 13.9 12.3 13.8 12.3 13.9 12.2"/><path class="cls-3" d="M15.8,12.2h.1A.1.1,0,0,0,15.8,12.2Z"/><path class="cls-3" d="M15.7,12.3h0Z"/><polygon class="cls-3" points="15.3 12.3 15.4 12.3 15.3 12.3 15.3 12.3"/><polygon class="cls-3" points="14.8 12.3 14.9 12.4 14.9 12.3 14.8 12.3"/><path class="cls-3" d="M14.4,12.3h0Z"/></g></svg>