<svg xmlns="http://www.w3.org/2000/svg" viewBox="0 0 30 20"><defs><style>.cls-1{fill:#fbd632;}.cls-2{fill:#2ab34b;}</style></defs><title>mr</title><g id="Layer_85" data-name="Layer 85"><path class="cls-1" d="M15,12.1A6.3,6.3,0,0,1,8.7,5.9a7.8,7.8,0,0,0-.2,1.6,6.5,6.5,0,0,0,13,0,7.8,7.8,0,0,0-.2-1.6A6.3,6.3,0,0,1,15,12.1Z"/><path class="cls-2" d="M27.5,0H2.5A2.5,2.5,0,0,0,0,2.5v15A2.5,2.5,0,0,0,2.5,20h25A2.5,2.5,0,0,0,30,17.5V2.5A2.5,2.5,0,0,0,27.5,0Zm-11,7.8L15,6.8l-1.5,1,.6-1.7L12.6,5h1.8L15,3.3,15.6,5h1.8L15.9,6.1ZM15,14A6.5,6.5,0,0,1,8.5,7.5a7.8,7.8,0,0,1,.2-1.6,6.3,6.3,0,0,0,12.6,0,7.8,7.8,0,0,1,.2,1.6A6.5,6.5,0,0,1,15,14Z"/><polygon class="cls-1" points="17.4 5 15.6 5 15 3.3 14.4 5 12.6 5 14.1 6.1 13.5 7.8 15 6.8 16.5 7.8 15.9 6.1 17.4 5"/></g></svg>