<svg id="Flags" xmlns="http://www.w3.org/2000/svg" viewBox="0 0 30 20"><defs><style>.cls-1{fill:#fafafa;}.cls-2{fill:#df5a2d;}.cls-3{fill:#23b154;}</style></defs><title>Artboard 57</title><path class="cls-1" d="M0,13.4H30V6.6H0ZM15,7.2a2.8,2.8,0,1,1,0,5.6,2.8,2.8,0,1,1,0-5.6Z"/><path class="cls-2" d="M27.5,0H2.5A2.5,2.5,0,0,0,0,2.5V6.6H30V2.5A2.5,2.5,0,0,0,27.5,0Z"/><path class="cls-3" d="M0,17.5A2.5,2.5,0,0,0,2.5,20h25A2.5,2.5,0,0,0,30,17.5V13.4H0Z"/><path class="cls-2" d="M15,12.8a2.8,2.8,0,1,0,0-5.6,2.8,2.8,0,1,0,0,5.6Z"/></svg>