<svg id="Flags" xmlns="http://www.w3.org/2000/svg" viewBox="0 0 30 20"><defs><style>.cls-1{fill:none;}.cls-2{fill:#f9f9f9;}.cls-3{fill:#ec2839;}.cls-4{fill:#00539e;}.cls-5{fill:#5f4c3b;}.cls-6{fill:#faa929;}.cls-7{fill:#ec1c2e;}</style></defs><title>pf</title><polygon class="cls-1" points="30 2.5 30 5 30 15 30 17.5 30 17.5 30 13.3 30 6.7 30 2.5 30 2.5"/><path class="cls-2" d="M30,5H0V15H30ZM19.3,9.4l-1.7.2V9L19,8.4Zm-.4-1.3-1.3.6c.1,0,.1-.1,0-.1s0-.1,0-.1V8.3c-.1-.1,0-.1,0-.1V8h0c0-.1.1-.1,0-.2l.7-.6ZM18.1,7l-.6.6h-.7c-.1,0-.1,0-.1.1s.2.2.1.3v.2l-.8.8V8.3l1.2-1.9C17.6,6.5,17.8,6.8,18.1,7Zm-.7,2v2c0,.9-.5,1.3-1,1.3s-.9-.6-1-1.2a1,1,0,0,0,.8.3c.5,0,.7-.2.7-.5V8.8a.3.3,0,0,1,.1-.2c.1-.1,0-.1,0-.2s-.1,0,0-.1.1-.1,0-.2S16.9,8,17,8s.1-.1,0-.2h.4c-.1.1-.1.1,0,.1v.2h.1c-.1.1-.1.2,0,.2h.1C17.4,8.8,17.4,8.8,17.4,9Zm-4.9-.3h.1c.1,0,.1-.1,0-.2h.1V8c.1,0,.1,0,0-.1H13c-.1.1-.1.1,0,.2s.1.1,0,.1-.1.1,0,.2.1.1,0,.1-.1.1,0,.2a.3.3,0,0,1,.1.2v2.1c0,.3.2.5.7.5a1,1,0,0,0,.8-.3c-.1.6-.4,1.2-1,1.2s-1-.4-1-1.3V9C12.6,8.8,12.6,8.8,12.5,8.7Zm2.2,1.2h.2c0-.1,0-.2.1-.2s.1.1.1.2h.2l-.2.2h.1c0,.1.1.2.1.3h-.2c0-.1,0-.2-.1-.2s-.1.1-.1.2h-.2c0-.1.1-.2.1-.3h.1Zm2.1.8h0Zm-1.4-.8h.2c0-.1,0-.2.1-.2s.1.1.1.2H16l-.2.2h.1c0,.1.1.2.1.3h-.2c0-.1,0-.2-.1-.2s-.1.1-.1.2h-.2c0-.1.1-.2.1-.3h0Zm1.4-.8-.7.4V9.1l.7-.6c.1,0,.1,0,0,.1h0Zm0,.2v.3h-.7Zm-.2.9c0,.1.1.2.1.3h-.2c0-.1,0-.2-.1-.2s-.1.1-.1.2h-.2c0-.1.1-.2.1-.3h0V9.9h.2c0-.1,0-.2.1-.2s.1.1.1.2h.2a.2.2,0,0,1-.2.2Zm-.2,1.1a.7.7,0,0,1-.9-.4h.6Zm-1,.3h-.8v-.3h.6Zm-.9-.7a.7.7,0,0,1-.9.4l.3-.4Zm-.7-.7c0,.1.1.2.1.3h-.2c0-.1,0-.2-.1-.2s-.1.1-.1.2h-.2c0-.1.1-.2.1-.3h.1l-.2-.2h.2c0-.1,0-.2.1-.2s.1.1.1.2h.2v.2Zm-.6-.6V9.3l.7.3Zm.7-.1-.7-.4V8.7h0c-.1-.1-.1-.1,0-.1l.7.6Zm.5,2.5a.8.8,0,0,1,1.2,0c.1.1.2.2.2.3H14.2C14.2,12.2,14.3,12.1,14.4,12ZM17,6.2,16.1,8V7.1h-.4L16,5.8Zm-2.9.4c0-.9.8-1,1.7-.8s-.7.3-.7.6.2.7.8.8V9.6l-1.5-.4c-.3,0-.3-.1-.3-.3Zm0,3.3h.1c0-.1,0-.2.1-.2s.1.1.1.2h.2v.2h0c0,.1.1.2.1.3h-.2c0-.1,0-.2-.1-.2s-.1.1-.1.2H14c0-.1.1-.2.1-.3h.1L14,9.9ZM14,5.8v.3a1.6,1.6,0,0,0-.2,1V8L13,6.2Zm-1.3.6,1.2,1.9V9l-.8-.8V8c-.1-.1-.1-.1.1-.3s0-.1-.1-.1h-.7L11.9,7C12.2,6.8,12.4,6.5,12.7,6.4Zm-1,.8.7.6c-.1.1,0,.1,0,.2h0v.2s.1,0,0,.1v.2s.1,0,0,.1-.1.1,0,.1l-1.3-.6ZM11,8.4l1.4.6v.6l-1.7-.2Zm-.3,1.3h1.7v1H10.8A4.1,4.1,0,0,1,10.7,9.7Zm.1,1.5a.9.9,0,0,0,1,0h.6a1.1,1.1,0,0,0,.1.5H11Zm.3.6a.8.8,0,0,1,.7.1,1,1,0,0,0,.9,0l.2.4H11.3C11.3,12.2,11.1,11.9,11.1,11.8ZM15,14.3a4.1,4.1,0,0,1-1.6-.3l.3-.2a.8.8,0,0,1,.7,0l.6.2.6-.2a.8.8,0,0,1,.7,0l.3.2A4.1,4.1,0,0,1,15,14.3Zm2.4-.7H12.6l-.3-.3c.1.1.3,0,.4-.1h.8a1.5,1.5,0,0,0,.9.1,1,1,0,0,1,1.2,0,1.5,1.5,0,0,0,.9-.1h.8c.1.1.3.2.4.1Zm.8-.7H11.8l-.2-.3h1a.9.9,0,0,0,1,.1.6.6,0,0,1,.8-.1l.6.2.6-.2a.6.6,0,0,1,.8.1.9.9,0,0,0,1-.1h1Zm.5-.6H17.1l.2-.4a1,1,0,0,0,.9,0,.8.8,0,0,1,.7-.1C18.9,11.9,18.7,12.2,18.7,12.3Zm.3-.7H17.5a1.1,1.1,0,0,0,.1-.5h.6a.9.9,0,0,0,1,0Zm.2-.8H17.6v-1h1.7A4.1,4.1,0,0,1,19.2,10.8Z"/><path class="cls-3" d="M30,2.5A2.5,2.5,0,0,0,27.5,0H2.5A2.5,2.5,0,0,0,0,2.5V5H30Z"/><path class="cls-3" d="M0,15v2.5A2.5,2.5,0,0,0,2.5,20h25A2.5,2.5,0,0,0,30,17.5V15Z"/><path class="cls-4" d="M14.5,10.9h-.6l-.3.4A.7.7,0,0,0,14.5,10.9Z"/><path class="cls-4" d="M12.4,11.1h-.6a.9.9,0,0,1-1,0l.2.4h1.5A1.1,1.1,0,0,1,12.4,11.1Z"/><path class="cls-4" d="M12.7,11.9a1,1,0,0,1-.9,0,.8.8,0,0,0-.7-.1c0,.1.2.4.2.5h1.6Z"/><path class="cls-4" d="M17.4,12.5a.9.9,0,0,1-1,.1.6.6,0,0,0-.8-.1l-.6.2-.6-.2a.6.6,0,0,0-.8.1.9.9,0,0,1-1-.1h-1l.2.3h6.4l.2-.3h-1Z"/><path class="cls-4" d="M17.3,13.2h-.8a1.5,1.5,0,0,1-.9.1,1,1,0,0,0-1.2,0,1.5,1.5,0,0,1-.9-.1h-.8c-.1.1-.3.2-.4.1l.3.3h4.8l.3-.3C17.6,13.4,17.4,13.3,17.3,13.2Z"/><path class="cls-4" d="M15.6,12a.8.8,0,0,0-1.2,0c-.1.1-.2.2-.2.3h1.6C15.8,12.2,15.7,12.1,15.6,12Z"/><path class="cls-4" d="M14.7,11.3v.3h.8v-.3h-.6Z"/><path class="cls-4" d="M16.4,11.3l-.3-.4h-.6A.7.7,0,0,0,16.4,11.3Z"/><path class="cls-4" d="M18.2,11.2h-.6a1.1,1.1,0,0,1-.1.5H19l.2-.4A.9.9,0,0,1,18.2,11.2Z"/><path class="cls-4" d="M18.2,11.9a1,1,0,0,1-.9,0l-.2.4h1.6c0-.1.2-.4.2-.5A.8.8,0,0,0,18.2,11.9Z"/><path class="cls-4" d="M15.6,13.8,15,14l-.6-.2a.8.8,0,0,0-.7,0l-.3.2a4.4,4.4,0,0,0,3.2,0l-.3-.2A.8.8,0,0,0,15.6,13.8Z"/><path class="cls-5" d="M14.4,9.2l1.5.4V7.2c-.6-.1-.8-.4-.8-.8s.2-.5.7-.6-1.7-.1-1.7.8V8.9C14.1,9.1,14.1,9.2,14.4,9.2Zm-.2-.4V6.7c0-.8.6-.9,1.2-.9a.7.7,0,0,0-.4.7c0,.4.2.7.8.8V9.4l-1.3-.3C14.2,9.1,14.2,9.1,14.2,8.8Z"/><path class="cls-5" d="M12.6,11c0,.9.5,1.3,1,1.3s.9-.6,1-1.2a1,1,0,0,1-.8.3c-.5,0-.7-.2-.7-.5V8.8a.3.3,0,0,0-.1-.2c-.1-.1,0-.1,0-.2s.1,0,0-.1-.1-.1,0-.2.1-.1,0-.1-.1-.1,0-.2h-.4c.1.1.1.1,0,.1v.2h-.1c.1.1.1.2,0,.2h-.1c.1.1.1.1.1.3Zm.3-2.2v2.1a.8.8,0,0,0,.8.7l.8-.2c-.2.4-.5.8-.9.8a1,1,0,0,1-.9-1.1V8.8h0C12.9,8.7,12.9,8.7,12.9,8.8Z"/><path class="cls-5" d="M14.7,10.5h.2c0-.1,0-.2.1-.2s.1.1.1.2h.2c0-.1-.1-.2-.1-.3h-.1l.2-.2h-.2c0-.1,0-.2-.1-.2s-.1.1-.1.2h-.2l.2.2h-.1C14.8,10.3,14.7,10.4,14.7,10.5Z"/><path class="cls-5" d="M14,9.9l.2.2h-.1c0,.1-.1.2-.1.3h.2c0-.1,0-.2.1-.2s.1.1.1.2h.2c0-.1-.1-.2-.1-.3h0V9.9h-.2c0-.1,0-.2-.1-.2s-.1.1-.1.2H14Z"/><path class="cls-5" d="M13.8,9.9h-.1c0-.1,0-.2-.1-.2s-.1.1-.1.2h-.2l.2.2h-.1c0,.1-.1.2-.1.3h.2c0-.1,0-.2.1-.2s.1.1.1.2h.2c0-.1-.1-.2-.1-.3h0V9.9Z"/><path class="cls-5" d="M15.4,10.5h.2c0-.1,0-.2.1-.2s.1.1.1.2H16c0-.1-.1-.2-.1-.3h-.1l.2-.2h-.2c0-.1,0-.2-.1-.2s-.1.1-.1.2h-.2v.2h0C15.5,10.3,15.4,10.4,15.4,10.5Z"/><path class="cls-5" d="M16.6,9.9h-.1c0-.1,0-.2-.1-.2s-.1.1-.1.2h-.2v.2h0c0,.1-.1.2-.1.3h.2c0-.1,0-.2.1-.2s.1.1.1.2h.2c0-.1-.1-.2-.1-.3h-.1a.2.2,0,0,0,.2-.2Z"/><rect class="cls-5" x="13.2" y="10.7" width="3.6" height="0.17"/><path class="cls-5" d="M17.4,8.6c-.1,0-.1-.1,0-.2h-.1V8c-.1,0-.1,0,0-.1H17c.1.1.1.1,0,.2s-.1.1,0,.1.1.1,0,.2-.1.1,0,.1.1.1,0,.2a.3.3,0,0,0-.1.2v2.1c0,.3-.2.5-.7.5a1,1,0,0,1-.8-.3c.1.6.4,1.2,1,1.2s1-.4,1-1.3V9c0-.2,0-.2.1-.3Zm-.1.2v2.3a1,1,0,0,1-.9,1.1c-.4,0-.7-.4-.9-.8l.8.2a.8.8,0,0,0,.8-.7V8.8c0-.1,0-.1.2-.1Z"/><path class="cls-6" d="M13.2,9.3v.3h.7Z"/><path class="cls-6" d="M12.4,9,11,8.4l-.3,1,1.7.2Z"/><path class="cls-6" d="M16.1,7.1V8L17,6.2l-1-.4L15.7,7Z"/><path class="cls-6" d="M12.4,10.8v-1H10.7a4.1,4.1,0,0,0,.1,1.1Z"/><path class="cls-6" d="M12.4,8.6c.1-.1,0-.1,0-.1V8.3c.1-.1,0-.1,0-.1V8h0c0-.1-.1-.1,0-.2l-.7-.6-.6.9,1.3.6C12.3,8.7,12.3,8.6,12.4,8.6Z"/><path class="cls-6" d="M12.7,7.6h.5c.1,0,.1,0,.1.1s-.2.2-.1.3v.2l.8.8V8.3L12.7,6.4c-.3.1-.5.4-.8.6l.6.6Z"/><path class="cls-6" d="M13.2,8.6h0v.4l.7.4V9.1l-.7-.6C13.1,8.5,13.1,8.5,13.2,8.6Z"/><path class="cls-6" d="M13.9,7.1a1.6,1.6,0,0,1,.2-1V5.8l-1,.4L13.9,8Z"/><path class="cls-6" d="M16.8,9.6V9.3l-.7.3Z"/><path class="cls-6" d="M17.6,9.6l1.7-.2-.3-1L17.6,9Z"/><path class="cls-6" d="M17.6,9.8v1h1.6a4.1,4.1,0,0,0,.1-1.1Z"/><path class="cls-6" d="M17.6,8h0v.2s-.1,0,0,.1v.2s-.1,0,0,.1.1.1,0,.1l1.3-.6-.6-.9-.7.6C17.7,7.9,17.6,7.9,17.6,8Z"/><path class="cls-6" d="M16.1,9l.8-.8V8c.1-.1.1-.1-.1-.3s0-.1.1-.1h.7l.6-.6c-.3-.2-.5-.5-.8-.6L16.1,8.3Z"/><path class="cls-6" d="M16.8,8.5l-.7.6v.4l.7-.4V8.7h0C16.9,8.5,16.9,8.5,16.8,8.5Z"/><path class="cls-7" d="M12.7,11.1a1,1,0,0,0,.9,1.1c.4,0,.7-.4.9-.8l-.8.2a.8.8,0,0,1-.8-.7V8.8c0-.1,0-.1-.2-.1h0Z"/><path class="cls-7" d="M14.5,9.1l1.3.3V7.3c-.6-.1-.8-.4-.8-.8a.7.7,0,0,1,.4-.7c-.6,0-1.2.1-1.2.9V8.8C14.2,9.1,14.2,9.1,14.5,9.1Z"/><path class="cls-7" d="M17.1,8.8v2.1a.8.8,0,0,1-.8.7l-.8-.2c.2.4.5.8.9.8a1,1,0,0,0,.9-1.1V8.8h0C17.1,8.7,17.1,8.7,17.1,8.8Z"/></svg>