<svg xmlns="http://www.w3.org/2000/svg" viewBox="0 0 30 20"><defs><style>.cls-1{fill:#1b864e;}.cls-2{fill:#fbef46;}.cls-3{fill:#e22d34;}</style></defs><title>sn</title><g id="Layer_42" data-name="Layer 42"><path class="cls-1" d="M2.5,0A2.5,2.5,0,0,0,0,2.5v15A2.5,2.5,0,0,0,2.5,20H10V0Z"/><path class="cls-2" d="M10,0V20H20V0Zm5,11.3-2,1.4.8-2.3L11.8,9h2.4L15,6.7,15.8,9h2.4l-2,1.4.8,2.3Z"/><path class="cls-3" d="M27.5,0H20V20h7.5A2.5,2.5,0,0,0,30,17.5V2.5A2.5,2.5,0,0,0,27.5,0Z"/><polygon class="cls-1" points="18.2 9 15.8 9 15 6.7 14.2 9 11.8 9 13.8 10.4 13 12.7 15 11.3 17 12.7 16.2 10.4 18.2 9"/></g></svg>