<svg id="Flags" xmlns="http://www.w3.org/2000/svg" viewBox="0 0 30 20"><defs><style>.cls-1{fill:#1e4384;}.cls-2{fill:#fdd856;}.cls-3{fill:#d62d2b;}.cls-4{fill:#fafafa;}.cls-5{fill:#197b49;}</style></defs><title>Artboard 47</title><path class="cls-1" d="M13.4,0H2.5A2.5,2.5,0,0,0,0,2.5v15a2.3,2.3,0,0,0,.6,1.6Z"/><path class="cls-2" d="M.9,19.4,26.8,0H13.4L.6,19.1Z"/><path class="cls-3" d="M1.2,19.6,30,10.1V2.5A2.5,2.5,0,0,0,27.5,0h-.7L.9,19.4Z"/><path class="cls-4" d="M1.5,19.8,30,15.1v-5L1.2,19.6Z"/><path class="cls-5" d="M2.5,20h25A2.5,2.5,0,0,0,30,17.5V15.1L1.5,19.8Z"/></svg>