<svg id="Flags" xmlns="http://www.w3.org/2000/svg" viewBox="0 0 30 20"><defs><style>.cls-1{fill:#016b4f;}.cls-2{fill:#fecf0a;}.cls-3{fill:#d31f36;}.cls-4{fill:#fff;}</style></defs><title>Artboard 70</title><rect class="cls-1" x="11.9" y="8" width="18.1" height="4.01"/><path class="cls-1" d="M0,17.5A2.5,2.5,0,0,0,2.6,20H27.4A2.5,2.5,0,0,0,30,17.5V16H0Z"/><path class="cls-1" d="M27.4,0H11.9V4H30V2.5A2.5,2.5,0,0,0,27.4,0Z"/><rect class="cls-2" x="11.9" y="4" width="18.1" height="4.01"/><polygon class="cls-2" points="0 12 0 16 30 16 30 12 11.9 12 0 12"/><path class="cls-3" d="M11.9,8V0H2.6A2.5,2.5,0,0,0,0,2.5V12H11.9ZM3.6,9.1l.9-2.7L2.3,4.8H5l.9-2.6.9,2.6H9.5L7.3,6.4l.8,2.7L5.9,7.4Z"/><polygon class="cls-4" points="9.5 4.8 6.8 4.8 5.9 2.2 5 4.8 2.3 4.8 4.5 6.4 3.6 9.1 5.9 7.4 8.1 9.1 7.3 6.4 9.5 4.8"/></svg>