<svg id="Flags" xmlns="http://www.w3.org/2000/svg" viewBox="0 0 30 20"><defs><style>.cls-1{fill:#e03a3e;}.cls-2{fill:#fff;}.cls-3{fill:#003876;}</style></defs><title>wf</title><path class="cls-1" d="M27.5,0H2.6A2.5,2.5,0,0,0,0,2.5v15A2.5,2.5,0,0,0,2.6,20H27.5A2.5,2.5,0,0,0,30,17.5V2.5A2.5,2.5,0,0,0,27.5,0ZM7.5,5.5H.9V.9H7.5Zm15,6.9L18.1,10l2.5,4.3H15.7L18.1,10l-4.3,2.4V7.6L18.1,10,15.7,5.7h4.9L18.1,10l4.4-2.4Z"/><polygon class="cls-2" points="15.7 5.7 18.1 10 20.6 5.7 15.7 5.7"/><polygon class="cls-2" points="22.5 12.4 22.5 7.6 18.1 10 22.5 12.4"/><polygon class="cls-2" points="20.6 14.3 18.1 10 15.7 14.3 20.6 14.3"/><polygon class="cls-2" points="13.8 12.4 18.1 10 13.8 7.6 13.8 12.4"/><path class="cls-2" d="M.9,5.5H7.5V.9H.9Zm.4-4.2H7.1v4H1.3Z"/><rect class="cls-1" x="5.2" y="1.2" width="2" height="3.91"/><polygon class="cls-3" points="3.2 5.2 3.2 1.3 1.3 1.3 1.3 5.2 3.2 5.2 3.2 5.2"/><polygon class="cls-2" points="5.2 5.2 5.2 1.3 3.2 1.3 3.2 1.3 3.2 5.2 5.2 5.2"/></svg>