<svg xmlns="http://www.w3.org/2000/svg" viewBox="0 0 30 20"><defs><style>.cls-1{fill:#263779;}.cls-2{fill:#ce2931;}.cls-3{fill:#010101;}.cls-4{fill:#ffd83e;}</style></defs><title>li</title><g id="Layer_97" data-name="Layer 97"><path class="cls-1" d="M27.4,0H2.6A2.5,2.5,0,0,0,0,2.5V10H30V2.5A2.5,2.5,0,0,0,27.4,0ZM10.8,5.8c-.2.1-.5.8-.7,1.2H9.9c-.1.2-.1.2-.2.2h0c0,.5-4.9.4-5-.1s-.5-1.5-.9-1.7l.3-.2a.2.2,0,0,1,0-.3c-.1-.1-.2-.3,0-.4s-.2-.4.1-.4-.1-.4.1-.4a.3.3,0,0,1,.3-.3c.1-.2.3-.3.4-.2s.3-.2.4,0,.3-.1.4,0a.3.3,0,0,1,.4,0,.2.2,0,0,1,.3.1c.1-.1.3,0,.4.1A.1.1,0,0,1,7,3.5a.4.4,0,0,1,.2-.6h0V2.6c-.1,0-.1,0-.1-.1h0a.1.1,0,0,1,.1-.1V2.1c-.1-.1,0-.1,0-.1s.1-.2.1-.3h.1c0,.1.1.2.1.3s.1,0,0,.1a.3.3,0,0,1-.1.2h.5a.1.1,0,0,1,.1.1H7.8c-.1.1-.1,0-.1,0H7.4a.1.1,0,0,1,.1.1h0a.4.4,0,0,1,.1.6h.2c0-.1.2-.1.3,0s.3-.1.4,0,.2-.2.4-.1.2-.1.4,0,.3-.1.4.1.3,0,.3.2a.2.2,0,0,1,.3.3c.2,0,.3.2.2.4s.2.2,0,.4.2.2,0,.4.1.2-.1.3l.4.2C10.9,5.7,10.9,5.8,10.8,5.8Z"/><path class="cls-2" d="M0,17.5A2.5,2.5,0,0,0,2.6,20H27.4A2.5,2.5,0,0,0,30,17.5V10H0Z"/><path class="cls-3" d="M10.8,5.7l-.4-.2c.2-.1.2-.2.1-.3s.2-.4,0-.4.1-.4,0-.4,0-.4-.2-.4a.2.2,0,0,0-.3-.3c0-.2-.2-.3-.3-.2s-.3-.3-.4-.1-.4-.2-.4,0-.4-.1-.4.1-.3-.2-.4,0-.3-.1-.3,0H7.6a.4.4,0,0,0-.1-.6h0a.1.1,0,0,0-.1-.1h.3s0,.1.1,0H8a.1.1,0,0,0-.1-.1H7.4a.3.3,0,0,0,.1-.2c.1-.1.1-.1,0-.1s-.1-.2-.1-.3H7.3c0,.1-.1.2-.1.3s-.1,0,0,.1v.2a.1.1,0,0,0-.1.1h0c0,.1,0,.1.1.1v.2h0a.4.4,0,0,0-.2.6.1.1,0,0,0-.1.1c-.1-.1-.3-.2-.4-.1a.2.2,0,0,0-.3-.1.3.3,0,0,0-.4,0c-.1-.1-.3-.2-.4,0s-.3-.1-.4,0-.3,0-.4.2a.3.3,0,0,0-.3.3c-.2,0-.3.2-.1.4s-.3.3-.1.4-.1.3,0,.4a.2.2,0,0,0,0,.3l-.3.2c.4.2.6,1.3.9,1.7s5,.6,5,.1h0c-.1,0-.1,0,0-.1H9.4c0-.1-.1-.1-.1,0h0c-.1,0-.1,0-.1-.1h0a.1.1,0,0,1-.1.1H9c-.1,0-.1.1-.1,0H8.4c.1-.1,0-.1,0,0H7.8c0-.1-.1,0-.1,0H7.5c0-.1-.1-.1-.1,0H7.1c0-.1-.1-.1-.1,0H6.9c0-.1-.1-.1-.1,0H6.7c0-.1-.1-.1-.1,0s.1.1,0,.1H6.2c0-.1-.1,0-.1.1H5.6c.1.1,0,.1,0,.1H5.2a.1.1,0,0,1-.1.1H4.7C4.4,6.7,4.3,6,4,5.7s-.1-.1,0-.1A.7.7,0,0,1,5.1,6h.1a.7.7,0,0,1,.3-.7c.3-.1.5.1,1,.6a.1.1,0,0,0,.1.1.6.6,0,0,1,.7-.7c.3,0,.6.1.7.7h.1a.9.9,0,0,1,1-.7c.3.1.3.5.2.9h.1c.3-.7.7-.7,1.2-.5s.2.1.1.1-.5.9-.8,1.3h.2c.2-.4.5-1.1.7-1.2S10.9,5.7,10.8,5.7ZM7.5,2.4h.3c0,.1,0,.1.1.1h0a.1.1,0,0,0-.1.1H7.5Zm-.3.1c-.1,0-.2,0-.2.1H6.8c.1,0,.1,0,.1-.1h.3S7.1,2.5,7.2,2.5Zm3.2,2.6a.1.1,0,1,1,0-.3A.1.1,0,0,1,10.4,5.1Zm0-.4c-.1,0-.1-.3,0-.3A.2.2,0,1,1,10.4,4.7ZM10.3,4a.1.1,0,0,1,0,.3C10.2,4.3,10.2,4,10.3,4Zm-.2-.3a.1.1,0,0,1,0,.3A.1.1,0,1,1,10.1,3.7Zm-.3-.2a.2.2,0,0,1,0,.3A.2.2,0,1,1,9.8,3.5Zm-.4-.1a.1.1,0,1,1,0,.3A.1.1,0,0,1,9.4,3.4ZM9,3.4c.2,0,.2.2,0,.2S8.9,3.4,9,3.4Zm-.3,0a.1.1,0,0,1,0,.3A.1.1,0,0,1,8.7,3.4Zm-.4,0a.2.2,0,0,1,0,.3A.2.2,0,1,1,8.3,3.4ZM8,3.5a.1.1,0,0,1,0,.3A.1.1,0,1,1,8,3.5Zm-.4.1c.2,0,.2.2,0,.2S7.4,3.6,7.6,3.6ZM7.3,4c.1,0,.1.1,0,.1S7.2,4,7.3,4Zm0-.3c.1,0,.1.2,0,.2S7.2,3.7,7.3,3.7Zm0,.5c.2,0,.2.2,0,.2S7.2,4.2,7.3,4.2Zm0-.6H7c0-.1,0-.1.1-.1h.5C7.5,3.5,7.5,3.6,7.3,3.6ZM7.5,3h0a.1.1,0,0,1-.1-.1h.1Zm-.3-.9h0V1.8h.1c0,.1.1.1.1.2h0c-.1,0-.1.2-.1.2H7.3Zm.1.3c.2,0,.2.2,0,.2S7.2,2.4,7.3,2.4Zm-.1.4c.1-.1.1-.1.1-.2h0c-.1,0-.1,0-.1-.1Zm-.1.3A.1.1,0,0,1,7.2,3H7.1ZM7,3.3h.3V3h.1v.2H7.1c-.1.1-.1.1-.1,0Zm0,.3a.1.1,0,0,1,0,.3A.1.1,0,0,1,7,3.6Zm-.3-.1a.2.2,0,1,1,0,.3A.2.2,0,0,1,6.7,3.5Zm-.4-.1a.1.1,0,0,1,0,.3A.1.1,0,0,1,6.3,3.4Zm-.4,0a.2.2,0,0,1,0,.3C5.8,3.7,5.8,3.4,5.9,3.4Zm-.3-.1a.2.2,0,1,1,0,.3A.2.2,0,0,1,5.6,3.3Zm-.4.1c.2,0,.2.2,0,.2S5,3.4,5.2,3.4Zm-.3,0c.1,0,.1.3,0,.3A.2.2,0,0,1,4.9,3.4Zm-.4.3c.2,0,.2.2,0,.2S4.3,3.7,4.5,3.7ZM4.3,4a.1.1,0,0,1,0,.3A.1.1,0,1,1,4.3,4Zm-.1.4c.2,0,.2.2,0,.2S4,4.4,4.2,4.4Zm0,.4c.2,0,.2.2,0,.2S4,4.8,4.2,4.8Zm0,.6c-.1,0-.1-.3,0-.3A.2.2,0,0,1,4.2,5.4Zm.7,0c0-.1-.1-.1-.1-.2v-1h.1Zm.2,0H5V4.1h.1Zm.2-.1h0c-.1,0-.1,0-.1.1V4h.1Zm.2-.2H5.3V3.9h.2Zm.1,0H5.5V3.9h.1Zm.2,0H5.7V3.9h.1Zm.2.1H5.8V3.9H6Zm.1.1H6V4h.1Zm.2.2H6.2V4h.1Zm.2,0H6.3V4.1h.2ZM4.9,4c-.4.2-.5.6-.1,1.4H4.5c-.2-.8-.1-1.2.2-1.5s.9-.3,2.2.1h0A2.8,2.8,0,0,0,4.9,4Zm-.1.3v.8C4.6,4.9,4.6,4.4,4.8,4.3Zm1.8,1c0,.1,0,.1-.1.1V4.2h.1Zm.1,0v-1C7,4.6,6.8,5.1,6.7,5.3Zm.1-.1A5.1,5.1,0,0,0,7,3.9h.2A5.2,5.2,0,0,1,7,5.1Zm.5-.1a.1.1,0,0,1,0-.3A.1.1,0,0,1,7.3,5.1Zm0-.3a.2.2,0,1,1,0-.3A.2.2,0,0,1,7.3,4.8Zm.3.3a7.5,7.5,0,0,1-.1-1.2h.1a5.3,5.3,0,0,0,.1,1.3Zm.2.2c0-.2-.1-.4-.1-.6s.1-.3.1-.4Zm.2.2c0-.1-.1-.1-.1-.2v-1H8Zm.2,0H8.1V4.2a.1.1,0,0,1,.1-.1Zm.2-.1H8.3V4.1h.1Zm.1-.1H8.4V4.1h.1Zm.2-.1H8.6V4h.1Zm.2,0H8.8V4h.1Zm.2,0H8.9V4h.2Zm.1.1H9.1V4h.1Zm.2.1a.1.1,0,0,1-.1-.1V4h.1Zm.2.1H9.5V4h.1Zm.2-.2-.2.2V4.1h.2Zm.3.2H9.8c.3-.7.3-1.1,0-1.5a2.5,2.5,0,0,0-2.1,0V3.9c1.4-.3,2-.3,2.3.2S10.2,5.1,10.1,5.5Zm-.3-.3V4.3A.7.7,0,0,1,9.8,5.2Zm.5,0a.1.1,0,0,1,0,.3C10.2,5.5,10.2,5.2,10.3,5.2Z"/><path class="cls-4" d="M4.2,4.8C4,4.8,4,5,4.2,5S4.4,4.8,4.2,4.8Z"/><path class="cls-4" d="M4.2,5.1c-.1,0-.1.3,0,.3A.2.2,0,0,0,4.2,5.1Z"/><path class="cls-4" d="M4.2,4.4c-.2,0-.2.2,0,.2S4.4,4.4,4.2,4.4Z"/><path class="cls-4" d="M4.3,4.3a.2.2,0,0,0,0-.3A.2.2,0,0,0,4.3,4.3Z"/><path class="cls-4" d="M4.5,3.9c.2,0,.2-.2,0-.2S4.3,3.9,4.5,3.9Z"/><path class="cls-4" d="M4.9,3.7c.1,0,.1-.3,0-.3A.2.2,0,0,0,4.9,3.7Z"/><path class="cls-4" d="M5.2,3.6c.2,0,.2-.2,0-.2S5,3.6,5.2,3.6Z"/><path class="cls-4" d="M5.6,3.6a.2.2,0,0,0,0-.3A.2.2,0,0,0,5.6,3.6Z"/><path class="cls-4" d="M5.9,3.7a.2.2,0,0,0,0-.3C5.8,3.4,5.8,3.7,5.9,3.7Z"/><path class="cls-4" d="M6.3,3.7a.1.1,0,1,0,0-.3A.1.1,0,1,0,6.3,3.7Z"/><path class="cls-4" d="M6.7,3.8a.1.1,0,1,0,0-.3A.1.1,0,0,0,6.7,3.8Z"/><path class="cls-4" d="M7,3.9a.2.2,0,0,0,0-.3A.2.2,0,0,0,7,3.9Z"/><path class="cls-4" d="M7.6,3.8c.2,0,.2-.2,0-.2S7.4,3.8,7.6,3.8Z"/><path class="cls-4" d="M8,3.8a.2.2,0,0,0,0-.3A.2.2,0,1,0,8,3.8Z"/><path class="cls-4" d="M8.3,3.7a.2.2,0,0,0,0-.3A.2.2,0,0,0,8.3,3.7Z"/><path class="cls-4" d="M7.3,2.6c.2,0,.2-.2,0-.2S7.2,2.6,7.3,2.6Z"/><path class="cls-4" d="M8.7,3.7a.1.1,0,1,0,0-.3A.1.1,0,0,0,8.7,3.7Z"/><path class="cls-4" d="M9,3.6c.2,0,.2-.2,0-.2S8.9,3.6,9,3.6Z"/><path class="cls-4" d="M9.4,3.7a.2.2,0,0,0,0-.3A.2.2,0,1,0,9.4,3.7Z"/><path class="cls-4" d="M9.8,3.8a.1.1,0,0,0,0-.3A.1.1,0,1,0,9.8,3.8Z"/><path class="cls-4" d="M10.1,4a.2.2,0,0,0,0-.3A.2.2,0,1,0,10.1,4Z"/><path class="cls-4" d="M10.3,4.3a.1.1,0,1,0,0-.3C10.2,4,10.2,4.3,10.3,4.3Z"/><path class="cls-4" d="M10.4,4.7a.1.1,0,1,0,0-.3C10.3,4.4,10.3,4.7,10.4,4.7Z"/><path class="cls-4" d="M10.4,5.1a.1.1,0,1,0,0-.3A.1.1,0,0,0,10.4,5.1Z"/><path class="cls-4" d="M10.3,5.2c-.1,0-.1.3,0,.3A.1.1,0,1,0,10.3,5.2Z"/><path class="cls-4" d="M7.3,4.1c.1,0,.1-.1,0-.1S7.2,4.1,7.3,4.1Z"/><path class="cls-4" d="M7.3,3.9c.1,0,.1-.2,0-.2S7.2,3.9,7.3,3.9Z"/><path class="cls-4" d="M7.3,4.4c.2,0,.2-.2,0-.2S7.2,4.4,7.3,4.4Z"/><path class="cls-4" d="M7.3,4.5a.2.2,0,0,0,0,.3A.2.2,0,0,0,7.3,4.5Z"/><path class="cls-4" d="M7.3,4.8a.1.1,0,1,0,0,.3A.1.1,0,0,0,7.3,4.8Z"/><path class="cls-4" d="M10.7,5.8c.1,0,.1-.1-.1-.1s-.9-.2-1.2.5H9.3c.1-.4.1-.8-.2-.9a.9.9,0,0,0-1,.7H8c-.1-.6-.4-.7-.7-.7a.6.6,0,0,0-.7.7.1.1,0,0,1-.1-.1c-.5-.5-.7-.7-1-.6a.7.7,0,0,0-.3.7H5.1A.7.7,0,0,0,4,5.6c-.1,0-.1,0,0,.1s.4,1,.7,1.5h.4a.1.1,0,0,0,.1-.1c-.1-.1,0-.1,0,0h.3c-.1,0,0-.1,0,0h.1s.1,0,0-.1h.5c0-.1.1-.2.1-.1h.4c.1,0,0,0,0-.1s.1-.1.1,0h.1c0-.1.1-.1.1,0H7c0-.1.1-.1.1,0h.3c0-.1.1-.1.1,0h.2s.1-.1.1,0H8.9c0,.1,0,0,.1,0h.1a.1.1,0,0,0,.1-.1h0c0,.1,0,.1.1.1h0c0-.1.1-.1.1,0h.3c-.1.1-.1.1,0,.1h0c.1,0,.1,0,.2-.2h0C10.2,6.7,10.3,6.1,10.7,5.8Zm-5.8.1H4.8C4.8,5.8,4.9,5.8,4.9,5.9Zm-.2-.1h0C4.6,5.7,4.7,5.7,4.7,5.8Zm-.1-.1v.2h0Zm-.3.1H4.2c-.1-.1,0-.1,0-.1Zm.1,0H4.3s0-.1.1,0Zm.6,1c-.1-.2-.3-.3-.5-.5h.2V6.1c-.1-.1,0-.1,0-.1l.2.2h.1c0-.1.1-.1.1,0v.2a.8.8,0,0,0,.1.4ZM6,5.6H6a.1.1,0,0,1-.1-.1Zm-.2-.1v.2h0V5.5Zm-.1,0h0c0-.1-.1-.1-.1-.2Zm-.4.6h0c-.1,0,0-.1,0,0h0ZM5.4,6h0Zm.1-.2h0Zm0-.1h0c.1,0,.1,0,.1.1ZM6,6v.7H6a2.1,2.1,0,0,0-.4-.6h.1c0,.1,0,.1.1,0a.4.4,0,0,1-.1-.3h0c.1.1.1.2.2.2Zm.1-.2h0Zm.6.1h0Zm.1-.2h0Zm.7-.3Zm-.2,0c0-.1.1-.1.1,0H7.3Zm0,0H7.2C7.2,5.3,7.3,5.3,7.3,5.4Zm-.2,0h0ZM7,5.5H7Zm.6.3a2.6,2.6,0,0,0-.3.8h0a1,1,0,0,0-.4-.7c0-.1,0-.1.1-.1a.1.1,0,0,0,.1.1h.1a.3.3,0,0,1,.1-.2h0v.2a.1.1,0,0,0,.1-.1Zm0-.1h0V5.5h.1C7.7,5.6,7.6,5.6,7.6,5.7Zm.1,0h0c0-.1.1-.1,0,0Zm.6.3H8.2c0-.1.1-.1.1,0Zm.6-.4Zm-.2.1h.1a.1.1,0,0,1-.1.1Zm-.1-.1h0v.2H8.5C8.6,5.7,8.6,5.7,8.6,5.6Zm-.2.3h0V5.7h.1C8.5,5.8,8.4,5.8,8.4,5.9Zm.6.2H8.9l-.3.5h0c-.1,0,0-.1,0-.2A4.3,4.3,0,0,1,8.5,6h.1s0,.1.1,0,.1-.2.1-.3h0v.3H9Zm0-.3H9V5.6h.1Zm.1.1V5.7h.1c-.1.1-.1.1-.1.2Zm.1,0h0Zm.7.1V5.8H10c0,.1-.1.1-.1.2Zm-.1-.1Zm.2.5a1,1,0,0,0-.4.5H9.5c.1-.1.1-.4.1-.6s0-.1,0,0h0c0,.1.1.1.1,0a.2.2,0,0,0,.2-.2H10v.2c-.1.1,0,.1.1.1S10.1,6.4,10,6.4Zm.2-.6a.1.1,0,0,0-.1.1h.1Zm0,.1h.1A.1.1,0,0,1,10.2,5.9Zm.3-.1h-.2a.1.1,0,0,1,.1-.1Z"/><path class="cls-4" d="M4.8,5.1V4.3C4.6,4.4,4.6,4.9,4.8,5.1Z"/><path class="cls-4" d="M4.8,4.2v1c0,.1.1.1.1.2V4.1Z"/><path class="cls-4" d="M5,5.4h.1V4H5Z"/><path class="cls-4" d="M5.2,5.4c0-.1,0-.1.1-.1h0V4H5.2Z"/><path class="cls-4" d="M5.3,5.2h.2V3.9H5.3Z"/><path class="cls-4" d="M5.5,5.1h.1V3.9H5.5Z"/><path class="cls-4" d="M5.7,5.1h.1V3.9H5.7Z"/><path class="cls-4" d="M5.8,5.1H6V4H5.8Z"/><path class="cls-4" d="M6,5.2h.1V4H6Z"/><path class="cls-4" d="M6.2,5.4h.1V4.1H6.2Z"/><path class="cls-4" d="M6.3,5.5h.2V4.2H6.3Z"/><path class="cls-4" d="M6.5,5.4c.1,0,.1,0,.1-.1v-1H6.5Z"/><path class="cls-4" d="M6.7,4.3v1C6.8,5.1,7,4.6,6.7,4.3Z"/><path class="cls-4" d="M7.9,5.3c0,.1.1.1.1.2V4.2H7.9Z"/><path class="cls-4" d="M8.9,4V5.2h.2V4Z"/><path class="cls-4" d="M9.1,5.2h.1V4H9.1Z"/><path class="cls-4" d="M9.3,5.3a.1.1,0,0,0,.1.1V4H9.3Z"/><path class="cls-4" d="M9.5,5.5h.1V4.1H9.5Z"/><path class="cls-4" d="M8.1,5.5h.1V4.1a.1.1,0,0,0-.1.1Z"/><path class="cls-4" d="M8.3,5.5h.1V4.1H8.3Z"/><path class="cls-4" d="M8.4,5.4h.1V4H8.4Z"/><path class="cls-4" d="M8.6,5.2h.1V4H8.6Z"/><path class="cls-4" d="M8.8,5.2h.1V4H8.8Z"/><path class="cls-4" d="M7.8,5.3v-1c0,.1-.1.2-.1.4S7.8,5.1,7.8,5.3Z"/><path class="cls-4" d="M9.6,5.5l.2-.2V4.2H9.6Z"/><path class="cls-4" d="M9.8,5.2a.7.7,0,0,0,0-.9Z"/><path class="cls-4" d="M10,4.1c-.3-.5-.9-.5-2.3-.2v.2a2.5,2.5,0,0,1,2.1,0c.3.4.3.8,0,1.5h.3C10.2,5.1,10.4,4.5,10,4.1Z"/><path class="cls-4" d="M7.5,3.9a7.5,7.5,0,0,0,.1,1.2h.1a5.3,5.3,0,0,1-.1-1.3Z"/><path class="cls-4" d="M7,3.9a5.1,5.1,0,0,1-.2,1.3H7A5.2,5.2,0,0,0,7.2,4Z"/><path class="cls-4" d="M6.9,4c-1.3-.4-2-.3-2.2-.1s-.4.7-.2,1.5h.3c-.4-.8-.3-1.2.1-1.4a2.8,2.8,0,0,1,2,.1Z"/><path class="cls-4" d="M7.1,3.2h.1a.1.1,0,0,0-.1.1Z"/><path class="cls-4" d="M7.1,3.3h.3V3H7.3v.2H7C7,3.4,7,3.4,7.1,3.3Z"/><path class="cls-4" d="M7.4,3h0a.1.1,0,0,0,.1.1H7.4Z"/><path class="cls-4" d="M7.6,3.4H7.1c-.1,0-.1,0-.1.1h.3C7.5,3.6,7.5,3.5,7.6,3.4Z"/><path class="cls-4" d="M7.3,2.9h0c0,.1,0,.1-.1.2h0C7.2,2.9,7.2,2.9,7.3,2.9Z"/><path class="cls-4" d="M7,2.3H6.9c0,.1,0,.1-.1.1H7c0-.1.1-.1.2-.1s0-.1,0-.1Z"/><path class="cls-4" d="M7.4,2.3s0-.2.1-.2h0c0-.1-.1-.1-.1-.2H7.3V2h0v.2Z"/><path class="cls-4" d="M7.8,2.6a.1.1,0,0,1,.1-.1h0c-.1,0-.1,0-.1-.1h0Z"/><path class="cls-3" d="M4.2,5.7s-.1,0,0,.1h0Z"/><path class="cls-3" d="M4.4,5.7c-.1-.1-.1,0-.1,0h.1Z"/><path class="cls-3" d="M4.5,5.9h.1V5.7H4.5Z"/><path class="cls-3" d="M4.7,5.9Z"/><path class="cls-3" d="M4.9,6h0c0-.1-.1-.1-.1,0h.1Z"/><path class="cls-3" d="M5.3,6Z"/><path class="cls-3" d="M5.3,5.8h0Z"/><path class="cls-3" d="M5.4,5.7Z"/><path class="cls-3" d="M5.6,5.7c0-.1,0-.1-.1-.1h.1Z"/><path class="cls-3" d="M5.7,5.7H5.6C5.6,5.6,5.7,5.6,5.7,5.7Z"/><path class="cls-3" d="M5.8,5.7h0V5.5h0Z"/><path class="cls-3" d="M6,5.7H5.9A.1.1,0,0,0,6,5.7Z"/><path class="cls-3" d="M6.1,5.7h0Z"/><path class="cls-3" d="M6.7,5.8h0Z"/><path class="cls-3" d="M6.8,5.6h0Z"/><path class="cls-3" d="M6.9,5.6h0Z"/><path class="cls-3" d="M7.1,5.5h0Z"/><path class="cls-3" d="M7.3,5.5h0c0-.1-.1-.1-.1,0h.1Z"/><path class="cls-3" d="M7.4,5.5h0c0-.1-.1-.1-.1,0h.1Z"/><path class="cls-3" d="M7.5,5.5h0Z"/><path class="cls-3" d="M7.6,5.5v.2h0c0-.1.1-.1.1-.2Z"/><path class="cls-3" d="M7.7,5.7h0C7.8,5.6,7.7,5.6,7.7,5.7Z"/><path class="cls-3" d="M8.2,5.9h.1C8.3,5.8,8.2,5.8,8.2,5.9Z"/><path class="cls-3" d="M8.4,5.7v.2h0c0-.1.1-.1.1-.2Z"/><path class="cls-3" d="M8.6,5.8V5.6h0c0,.1,0,.1-.1.2Z"/><path class="cls-3" d="M8.7,5.7a.1.1,0,0,0,.1-.1H8.7Z"/><path class="cls-3" d="M8.9,5.7h0c.1-.1,0-.1,0,0h0Z"/><path class="cls-3" d="M9,5.6v.2H9V5.6Z"/><path class="cls-3" d="M9.1,5.7v.2h0c0-.1,0-.1.1-.2Z"/><path class="cls-3" d="M9.2,5.9h0Z"/><path class="cls-3" d="M9.8,6h0Z"/><path class="cls-3" d="M9.9,6c0-.1.1-.1.1-.2H9.9V6Z"/><path class="cls-3" d="M10.1,5.8h0a.1.1,0,0,1,.1-.1Z"/><path class="cls-3" d="M10.2,5.8h0a.1.1,0,0,0,.1-.1Z"/><path class="cls-3" d="M10.4,5.8a.1.1,0,0,0-.1.1h.1Z"/><path class="cls-3" d="M10,6.4c-.1,0-.2,0-.1-.1V6.1H9.9a.2.2,0,0,1-.2.2c0,.1-.1.1-.1,0h0c0,.2,0,.5-.1.6h.1a1,1,0,0,1,.4-.5C10.1,6.4,10.1,6.3,10,6.4Z"/><path class="cls-3" d="M9,6.1H8.8V5.8h0c0,.1-.1.2-.1.3s-.1,0-.1,0H8.5a4.3,4.3,0,0,0,.1.5c0,.1-.1.2,0,.2h0l.3-.5Z"/><path class="cls-3" d="M7.5,5.8a.1.1,0,0,1-.1.1V5.7h0a.3.3,0,0,0-.1.2H7.1A.1.1,0,0,1,7,5.8c-.1,0-.1,0-.1.1a1,1,0,0,1,.4.7h0a2.6,2.6,0,0,1,.3-.8Z"/><path class="cls-3" d="M6,6H5.9c-.1,0-.1-.1-.2-.2h0a.4.4,0,0,0,.1.3c-.1.1-.1.1-.1,0H5.6a2.1,2.1,0,0,1,.4.6H6V6C6.1,6,6,5.9,6,6Z"/><path class="cls-3" d="M4.9,6.4V6.2c0-.1-.1-.1-.1,0H4.8L4.6,6s-.1,0,0,.1v.2H4.5c.2.2.4.3.5.5H5A.8.8,0,0,1,4.9,6.4Z"/></g></svg>