<svg xmlns="http://www.w3.org/2000/svg" viewBox="0 0 30 20"><defs><style>.cls-1{fill:#e72e3f;}.cls-2{fill:#f8dd11;}.cls-3{fill:#fff;}.cls-4{fill:#fee600;}</style></defs><title>im</title><g id="Layer_13" data-name="Layer 13"><path class="cls-1" d="M27.5,0H2.5A2.5,2.5,0,0,0,0,2.5v15A2.5,2.5,0,0,0,2.5,20h25A2.5,2.5,0,0,0,30,17.5V2.5A2.5,2.5,0,0,0,27.5,0ZM19.8,6.6l-1,.3a.5.5,0,0,0-.4.3.7.7,0,0,0,0,.5A4.8,4.8,0,0,1,18,9.2c0,.1,0,.1.1.3v.2a1,1,0,0,1-.4.5.4.4,0,0,1-.5,0h-.7l-1.4-.3h-.2l-1.3.9s-.1.1,0,.1h.3l.2.2a9.2,9.2,0,0,1,.9,1.3l.2.2h.3l-.2-.3s.2.1.2,0l.2-.2v.3h.3l-.2.2v.3l-.2-.2h-.1a.4.4,0,0,1-.1.3h-.1l-.3.4c-.2.8-.4.7-.5.8s-.2.1-.2-.2l.3-.9a1.1,1.1,0,0,0-.1-.5l-.4-.3A4.1,4.1,0,0,1,13,11.3h-.5a.8.8,0,0,1-.2-.5c0-.2.1-.3.2-.5l.5-.5a5.2,5.2,0,0,1,1-1.1h0V8.3h0c0-.5-.1-.9-.1-1.4a.1.1,0,0,0-.1-.1l-.3.2h-.2a3.9,3.9,0,0,1-1.6.2h-.3l-.2.2h.5l-.2.2.2.3h-.4l-.2.2V8h0l-.3-.2V7.3l-.2-.4c-.6-.6-.4-.7-.5-.8s0-.3.2-.1l.8.6.4.2.5-.2A5.2,5.2,0,0,1,13.5,6l.2-.2h.2c.2,0,.4-.1.5,0a1,1,0,0,1,.4.5c0,.2.2.4.3.6a10.4,10.4,0,0,1,.4,1.3h.1v.2h0l1.4.8h.2c-.1-.2,0-.2-.1-.3s.1-.1.1-.3A3.7,3.7,0,0,1,17.9,7V6.7a.4.4,0,0,1-.1-.3h-.1v.1h-.3l.2-.3V6h.3l.2-.2v.3h1c.8-.1.7,0,.9.1S20,6.5,19.8,6.6Z"/><path class="cls-2" d="M15.6,12.7h.1l.2.2v-.3l.2-.2h-.3V12l-.2.2c0,.1-.2,0-.2,0l.2.3h.1Z"/><path class="cls-3" d="M14.1,8.6H14a5.2,5.2,0,0,0-1,1.1l-.5.5c-.1.2-.2.3-.2.5a.8.8,0,0,0,.2.5H13a4.1,4.1,0,0,0,1.2,1.1l.4.3a1.1,1.1,0,0,1,.1.5l-.3.9c0,.3.2.3.2.2s.3,0,.5-.8l.3-.4h.1a.4.4,0,0,0,.1-.3h-.4l-.2-.2a9.2,9.2,0,0,0-.9-1.3l-.2-.2h-.3c-.1,0,0-.1,0-.1l1.3-.9a5.1,5.1,0,0,1-.2-.9Zm1,4.8v.2h-.5v-.2Zm-1.6-2.5h-.4c0-.1-.2,0-.2,0h-.5c0-.1,0-.2.1-.2h.9C13.6,10.6,13.5,10.9,13.5,10.9Z"/><path class="cls-2" d="M14.5,13.7H15v-.2h-.5Z"/><path class="cls-4" d="M13.3,10.4h-.8c-.1,0-.1.1-.1.2h.5s.2-.1.2,0h.4s.1-.3-.1-.4Z"/><path class="cls-2" d="M17.9,6.3h0V5.9l-.2.2h-.3v.3l-.2.3h.3V6.5h.1Z"/><path class="cls-3" d="M19.8,6.4c-.2-.1-.1-.2-.9-.1h-1a.4.4,0,0,0,.1.3V7a3.7,3.7,0,0,0-.7,1.4c0,.2-.1.2-.1.3s0,.1.1.3H17l-1.4-.8h0l-.6.5a2.8,2.8,0,0,0,.1.9h0l1.4.3h.7a.4.4,0,0,0,.5,0,1,1,0,0,0,.4-.5V9.5c-.1-.2-.1-.2-.1-.3a4.8,4.8,0,0,0,.4-1.5.7.7,0,0,1,0-.5.5.5,0,0,1,.4-.3l1-.3C20,6.5,19.9,6.3,19.8,6.4Zm-2,3.5c0,.1-.1.2-.2.1V9.5H17a.4.4,0,0,1,.4-.3v.2h0a.4.4,0,0,0,.1.3h.1a.1.1,0,0,1,.1.1C17.9,9.8,17.9,9.9,17.8,9.9Zm1.3-3.1-.3-.4H19l.4.4Z"/><path class="cls-2" d="M18.8,6.4l.3.4h.3L19,6.3Z"/><path class="cls-2" d="M17.7,9.7h-.1a.4.4,0,0,1-.1-.3h0V9a.4.4,0,0,0-.4.3h.4V10c.1.1.2,0,.2-.1s.1-.1,0-.1A.1.1,0,0,0,17.7,9.7Z"/><path class="cls-2" d="M11,7.8h.1v.2l.2-.2h.4l-.2-.3.2-.2H11Z"/><path class="cls-3" d="M15.5,8.1a10.4,10.4,0,0,0-.4-1.3c-.1-.2-.3-.4-.3-.6a1,1,0,0,0-.4-.5c-.1-.1-.3,0-.5,0h-.2l-.2.2a5.2,5.2,0,0,0-1.5.6l-.5.2-.4-.2L10.3,6c-.2-.2-.2,0-.2.1s-.1.2.5.8l.2.4v.2l.3.2h.1l.2-.2h.3a3.9,3.9,0,0,0,1.6-.2h.2l.3-.2a.1.1,0,0,1,.1.1c0,.5.1.9.1,1.4l.8.3C15,8.6,15.4,8.2,15.5,8.1ZM10.7,6.9h-.2V6.3h.2Zm3.6-1v.8h-.1a.3.3,0,0,1-.4-.2V6.4h.2a.5.5,0,0,0,.1-.3h.1s-.1-.1,0-.1,0-.1.1-.1S14.4,5.8,14.3,5.9Z"/><path class="cls-3" d="M14.1,8.6h0Z"/><path class="cls-2" d="M10.5,6.8h.2V6.4h-.2Z"/><path class="cls-2" d="M14.2,5.8c-.1,0-.1,0-.1.1s0,.1,0,.1H14a.5.5,0,0,1-.1.3h-.2v.2a.3.3,0,0,0,.4.2h.1V5.9C14.4,5.8,14.3,5.7,14.2,5.8Z"/><path class="cls-2" d="M15,8.8l.6-.5h0V8.1h-.1c-.1.1-.5.5-.7.5L14,8.3h0v.2h.1l.6.2a5.1,5.1,0,0,0,.2.9h.2A2.8,2.8,0,0,1,15,8.8Z"/></g></svg>