<svg xmlns="http://www.w3.org/2000/svg" viewBox="0 0 30 20"><defs><style>.cls-1{fill:none;}.cls-2{fill:#fff;}.cls-3{fill:#262a6a;}.cls-4{fill:#d62b31;}.cls-5{fill:#00a7bd;}.cls-6{fill:#f4eb26;}.cls-7{fill:#554c21;}.cls-8{fill:#7a6b3a;}.cls-9{fill:#7b6c3b;}.cls-10{fill:#252969;}.cls-11{fill:#a02421;}.cls-12{fill:#010101;}.cls-13{fill:#f4eb27;}.cls-14{fill:#fdfdfe;}.cls-15{fill:#e41e26;}.cls-16{fill:#f4eb22;}.cls-17{fill:#ffc60a;}.cls-18{fill:#fdc711;}.cls-19{fill:#d62027;}</style></defs><title>hr</title><g id="Layer_58" data-name="Layer 58"><path class="cls-1" d="M11.7,13.3h0Z"/><path class="cls-1" d="M18.3,13.3h0Z"/><path class="cls-2" d="M11.1,11.6V6.7h7.8v5a2.7,2.7,0,0,1-.6,1.6H30V6.7H0v6.6H11.7A3.5,3.5,0,0,1,11.1,11.6Z"/><path class="cls-3" d="M18.3,13.3A4,4,0,0,1,15.1,15a4.1,4.1,0,0,1-3.4-1.7H0v4.2A2.5,2.5,0,0,0,2.6,20H27.4A2.5,2.5,0,0,0,30,17.5V13.3Z"/><path class="cls-4" d="M30,2.5A2.5,2.5,0,0,0,27.4,0H2.6A2.5,2.5,0,0,0,0,2.5V6.7H30Zm-19.3.8,1.3.6.8-1,1.2.7,1-.8,1,.8,1.1-.7.9.9,1.3-.5L20,4.6l-1,2a11.6,11.6,0,0,0-4-.7,13.4,13.4,0,0,0-4,.6l-.9-1.9Z"/><path class="cls-2" d="M15,5.9a11.6,11.6,0,0,1,4,.7l1-2-.7-1.3L18,3.8l-.9-.9L16,3.6l-1-.8-1,.8-1.2-.7-.8,1-1.3-.6-.6,1.3L11,6.5A13.4,13.4,0,0,1,15,5.9Zm4.2-2.4.7,1.1-.3.6h0l-.3.4-.4.8L17.4,6,18,4ZM16,3.7,17.1,3,18,4l-.6,2-1.6-.2Zm-1-.8,1,.8-.2,2.1H14.2L14,3.7ZM12.9,3l1.1.7h0v.5h0v.5h0v.5h0v.6L12.6,6l-.5-2Zm-2.1.5L12,4l.6,2-1.5.4-.9-1.9Z"/><path class="cls-5" d="M18.9,6.4l.4-.8-.2.6-.8-.3-.8-.2.3-1,.9.2.9.3.3-.6-.7-1.1L18,4l-.6,2ZM18.6,4h.3l.2-.2h0v.3h.1v.2h-.4V4.5h-.2l.2-.2Z"/><path class="cls-5" d="M15.8,5.8,16,3.7l-1-.8-1,.8.2,2.1Zm-.7-1.7h0Zm0,.5h0Zm-.9-.3Z"/><path class="cls-5" d="M12.6,6,12,4l-1.2-.5-.6,1,.9,1.9ZM11,4.4h0V4.2h.5v.3h0V5l-.2-.2h-.3V4.7l-.2-.2Zm-.2,1h.8a.8.8,0,0,0,.5-.5.7.7,0,0,1-.4.8A.8.8,0,0,1,10.8,5.4Z"/><path class="cls-2" d="M11.7,5.7a.7.7,0,0,0,.4-.8.8.8,0,0,1-.5.5h-.8A.8.8,0,0,0,11.7,5.7Z"/><path class="cls-6" d="M15.3,4h-.1V4.3h.1Zm-.1.4h0Zm.3-.6h0Zm-.1,0Zm.2,0Zm-.2.3h0Zm-.2-.3Z"/><path class="cls-6" d="M15.1,4.3Z"/><path class="cls-7" d="M15.2,4.1h0v.2h0Z"/><path class="cls-7" d="M15.5,4.4h0Z"/><path class="cls-7" d="M15.3,4.2h0Zm.2-.1Zm-.2.1a.1.1,0,0,1,.1-.1h-.1Z"/><rect class="cls-8" x="15.3" y="4.1" height="0.03"/><rect class="cls-9" x="15.5" y="4.1" height="0.03"/><polygon class="cls-7" points="15.3 3.9 15.3 3.9 15.2 3.8 15.2 3.8 15.3 3.9 15.3 3.9"/><polygon class="cls-7" points="15.7 3.8 15.6 3.8 15.6 3.8 15.6 3.8 15.6 3.9 15.7 3.8"/><polygon class="cls-7" points="15.5 3.9 15.4 3.9 15.4 3.9 15.4 3.9 15.4 3.9 15.4 3.9 15.5 3.9 15.5 3.9 15.5 3.9 15.5 3.9 15.5 3.9"/><polygon class="cls-7" points="15.5 3.8 15.4 3.8 15.4 3.8 15.5 3.8"/><polygon class="cls-7" points="15.4 3.8 15.4 3.8 15.4 3.8 15.4 3.8"/><polygon class="cls-7" points="15.1 4.3 15.1 4.2 15.1 4.2 15.1 4.2 15.1 4.3 15.1 4.3 15.1 4.3 15.1 4.4 15.1 4.3"/><polygon class="cls-7" points="15.2 4.4 15.2 4.3 15.1 4.4 15.2 4.4"/><path class="cls-6" d="M14.4,4h.3V4.1h-.4Zm-.1.4h0Zm.3-.5h0Zm-.1-.1h0Zm.2.1Zm-.2.2Zm-.2-.2Z"/><path class="cls-6" d="M14.2,4.3Z"/><path class="cls-7" d="M14.3,4.2h.5v.2h-.4Z"/><path class="cls-7" d="M14.6,4.4Z"/><path class="cls-7" d="M14.4,4.2h0Zm.2,0Zm-.2,0h0Z"/><rect class="cls-8" x="14.4" y="4.2" height="0.03"/><rect class="cls-9" x="14.6" y="4.2" height="0.03"/><polygon class="cls-7" points="14.4 3.9 14.4 3.9 14.3 3.9 14.3 3.9 14.4 3.9 14.4 3.9"/><polygon class="cls-7" points="14.8 3.8 14.7 3.8 14.7 3.9 14.7 3.9 14.7 3.9 14.8 3.8"/><polygon class="cls-7" points="14.6 3.9 14.5 3.9 14.5 3.9 14.5 3.9 14.5 3.9 14.4 3.9 14.6 3.9 14.6 3.9 14.6 3.9 14.6 3.9 14.6 3.9"/><polygon class="cls-7" points="14.6 3.9 14.5 3.8 14.5 3.9 14.6 3.9"/><polygon class="cls-7" points="14.5 3.8 14.4 3.9 14.5 3.9 14.5 3.8"/><polygon class="cls-7" points="14.2 4.4 14.2 4.3 14.2 4.3 14.2 4.3 14.2 4.3 14.2 4.3 14.2 4.4 14.2 4.4 14.2 4.4"/><polygon class="cls-7" points="14.3 4.4 14.3 4.3 14.2 4.4 14.3 4.4"/><path class="cls-10" d="M17.4,6,18,4l-.9-1L16,3.7l-.2,2.1Zm-.9-.4Zm.4-.1Zm.4.1h0Zm-.8-1.5h.8a.1.1,0,0,0-.1.1h-.3a.1.1,0,0,0-.1-.1h-.4C16.4,4.1,16.4,4.1,16.5,4.1Zm-.2.8h0a.1.1,0,0,1-.1-.1h.6l-.2.2h1V5h0a.1.1,0,0,0-.1.1h-.1V5.2h-.2c-.1,0-.1,0-.1.1h-.3c0,.1-.1.1-.1.2h-.1c0-.1,0-.1-.1-.1h-.3c0-.1.1-.1.1-.2h.1C16.3,5,16.2,5,16.3,4.9Zm-.2.5h0Z"/><path class="cls-6" d="M14.7,5.1Z"/><path class="cls-6" d="M14.9,4.7h.3V4.9h-.4V5.1h.1Zm-.1,0h0Zm-.1.5Zm.4-.6h0Zm0,0h0Zm-.1,0Z"/><path class="cls-7" d="M14.7,4.9h.1v.2h.4v.2h-.5Z"/><path class="cls-7" d="M15,5.2Z"/><path class="cls-7" d="M15.2,4.9Zm-.3.1Zm.2,0Z"/><rect class="cls-8" x="14.9" y="4.9" height="0.03"/><rect class="cls-9" x="15.1" y="4.9" height="0.03"/><polygon class="cls-7" points="14.8 4.7 14.8 4.6 14.8 4.7 14.9 4.7 14.8 4.7 14.8 4.7"/><polygon class="cls-7" points="15.2 4.6 15.2 4.6 15.2 4.6 15.1 4.6 15.1 4.7 15.2 4.6"/><polygon class="cls-7" points="15 4.7 15 4.7 15 4.7 15 4.7 14.9 4.7 14.9 4.7 15.1 4.7 15.1 4.7 15.1 4.7 15.1 4.7 15 4.7"/><polygon class="cls-7" points="15.1 4.6 15 4.6 15 4.6 15.1 4.6"/><polygon class="cls-7" points="15 4.6 14.9 4.7 15 4.6 15 4.6"/><polygon class="cls-7" points="14.7 5.1 14.7 5.1 14.7 5.1 14.7 5.1 14.6 5.1 14.7 5.1 14.7 5.2 14.7 5.2 14.7 5.1"/><polygon class="cls-7" points="14.7 5.2 14.8 5.1 14.7 5.2 14.7 5.2"/><path class="cls-11" d="M16.2,5.5Z"/><path class="cls-11" d="M16.3,5.6h0Z"/><path class="cls-11" d="M16.8,5.5Z"/><path class="cls-11" d="M17.1,5.6Z"/><path class="cls-11" d="M16.8,4.3a.1.1,0,0,1,.1.1h.3a.1.1,0,0,1,.1-.1h-.8c-.1,0-.1,0-.1.1h.4Zm.5,0h0Zm-.2-.2Zm-.1,0h0Zm.1.2h0Zm-.1,0h0Zm-.1-.2h0Zm-.1.1h0Zm-.3-.1h0Zm.2-.1h0Zm-.1.2Z"/><path class="cls-12" d="M16.5,4.1h0Z"/><path class="cls-12" d="M16.6,4.3h0Z"/><path class="cls-12" d="M16.7,4.2h0Z"/><polygon class="cls-12" points="16.9 4.1 16.8 4.1 16.8 4.2 16.9 4.1"/><path class="cls-12" d="M16.8,4.3h0Z"/><path class="cls-12" d="M17,4.3h0Z"/><path class="cls-12" d="M17,4.2h0Z"/><polygon class="cls-12" points="17.1 4.1 17.1 4.1 17.1 4.2 17.1 4.2 17.1 4.1"/><path class="cls-12" d="M17.1,4.4h0Z"/><polygon class="cls-12" points="17.3 4.4 17.3 4.3 17.3 4.3 17.3 4.4 17.3 4.4"/><path class="cls-13" d="M16.2,5.2c0,.1-.1.1-.1.2h.3c.1,0,.1,0,.1.1h.1c0-.1.1-.1.1-.2H17c0-.1,0-.1.1-.1h.2v.2h.1a.1.1,0,0,1,.1-.1h0V4.8h-1l.2-.2h-.6a.1.1,0,0,0,.1.1h0c-.1.1,0,.1,0,.2h-.1Zm1.3-.6h0Zm-.2.3h0Zm0,.1h.1a.1.1,0,0,0-.1.1h.1c-.1-.1-.1-.1-.1-.2h0Zm-.1-.3v.2h0Zm-.2.1ZM17,5h0v.2Zm-.1-.1h0Zm-.1-.1Zm-.1,0h0a.1.1,0,0,0-.1-.1Zm-.3.1h0Zm.2-.6h0Zm-.1.7Zm-.2-.6h.1a.1.1,0,0,0,.1.1h-.2Z"/><path class="cls-12" d="M16.4,4.4h.1a.1.1,0,0,1-.1-.1h0Z"/><path class="cls-12" d="M16.6,4.4h0Z"/><path class="cls-12" d="M16.4,4.9Z"/><path class="cls-12" d="M16.5,5.1h0Z"/><path class="cls-12" d="M16.7,4.9h-.1a.1.1,0,0,1,.1.1Z"/><path class="cls-12" d="M16.8,4.9h0Z"/><path class="cls-12" d="M16.8,5.1h0Z"/><path class="cls-12" d="M17,4.9h-.1Z"/><path class="cls-12" d="M17,4.8Z"/><path class="cls-12" d="M17.2,4.9h0V4.7h0Z"/><path class="cls-12" d="M17.3,5h0Z"/><path class="cls-12" d="M17.3,5.1c0,.1,0,.1.1.2h-.1a.1.1,0,0,1,.1-.1Z"/><path class="cls-12" d="M17.5,4.7h0Z"/><path class="cls-14" d="M17.8,4.7l-.3,1,.8.2.8.3.2-.6.3-.4h0l-.9-.3ZM19.2,6l-.8-.3-.8-.3.2-.5.8.2.8.3Z"/><path class="cls-15" d="M17.8,4.9l-.2.5.8.3.8.3.2-.6-.8-.3Zm1,.5H19v.2h-.1c.1,0,0-.1,0-.1H18a.1.1,0,0,1,.1.1h.6A.1.1,0,0,1,18.8,5.4Z"/><path class="cls-12" d="M18.3,5.2h-.2a.1.1,0,0,0-.1-.1h.9s.1.1,0,.1H19V5.6h-.2a.1.1,0,0,0-.1-.1h-.4Z"/><path class="cls-2" d="M18.6,5.4h0Z"/><path class="cls-10" d="M14.2,5.8V5.2h-.9l-.8.2-.2-.6.9-.2h.9V4.2h-1l-.9.2V4l.9-.3h1L12.9,3l-.8,1,.5,2Z"/><path class="cls-16" d="M10.9,4.9h.3l.2.2V4.7h-.2l.2.4-.2-.2V4.6l-.3.3V4.7l-.2-.2h.6V4.2h0l-.3.4V4.3h-.1v.4L11,4.4h-.2l.2.2Z"/><path class="cls-17" d="M10.8,4.5l.2.2v.2l.3-.3v.2l.2.2-.2-.4h-.4Z"/><polygon class="cls-17" points="11.1 4.2 11 4.2 11 4.4 11 4.4 11.2 4.6 11.1 4.2"/><path class="cls-17" d="M11.2,4.6l.3-.4h-.3Z"/><path class="cls-16" d="M18.7,4.5v.2H19V4.5l.2-.2h-.4l.2-.2V4l.6.6h0V4.4h-.1V3.9l-.2.4V4.1h-.3v.2l-.2.2Z"/><path class="cls-17" d="M18.6,4v.2l-.2.2h.4l-.2.2v.1h.2Z"/><polygon class="cls-18" points="19.1 3.9 19.1 3.9 18.9 4.1 18.9 4.1 18.9 4.3 19.1 3.9"/><path class="cls-18" d="M18.9,4.3h0Z"/><path class="cls-15" d="M12.1,4v.5l.9-.2h1V3.7H13Z"/><path class="cls-15" d="M13.2,4.7l-.9.2.2.6.8-.2h.9V4.7h-.9Z"/><path class="cls-19" d="M18.9,11.7v-5H11.1v4.9a3.5,3.5,0,0,0,.6,1.7h0A4.1,4.1,0,0,0,15.1,15a4,4,0,0,0,3.2-1.7h0A2.7,2.7,0,0,0,18.9,11.7Zm-6.1,2.5v-.9h1.4v1.6A4,4,0,0,1,12.8,14.2Zm3,.7V13.3h1.5v.9Zm3-4.8H17.3v1.6h1.5a4.6,4.6,0,0,1-.6,1.6h-.9V11.7H15.8V10.1h1.5V8.5h1.5Zm-4.5,1.6h1.5v1.6H14.3Zm1.5-4.8h1.5V8.5H15.8v1.6H14.3V8.5h1.5Zm-3.1-.1h1.6V8.4H12.7Zm-1.5,4.9h1.5V10.1H11.2V8.5h1.5v1.6h1.6v1.6H12.7v1.6h-.8A3.4,3.4,0,0,1,11.2,11.7Z"/><polygon class="cls-2" points="12.7 11.7 14.3 11.7 14.3 10.1 12.7 10.1 12.7 10.1 12.7 11.7 12.7 11.7 12.7 11.7"/><path class="cls-2" d="M15.8,10.1v1.6h1.5V10.1H15.8Z"/><rect class="cls-2" x="12.7" y="6.8" width="1.5" height="1.62"/><path class="cls-2" d="M17.3,11.7v1.6h.9a4.6,4.6,0,0,0,.6-1.6Z"/><path class="cls-2" d="M15.8,13.3v1.6l1.5-.7v-.9Z"/><path class="cls-2" d="M12.8,13.3v.9a4,4,0,0,0,1.5.7V13.3Z"/><path class="cls-2" d="M12.7,13.3V11.7H11.2a3.4,3.4,0,0,0,.7,1.6Z"/><polygon class="cls-2" points="12.7 8.5 11.2 8.5 11.2 10.1 12.7 10.1 12.7 10.1 12.7 8.5"/><rect class="cls-2" x="14.3" y="8.5" width="1.5" height="1.62"/><rect class="cls-2" x="15.8" y="6.9" width="1.5" height="1.62"/><polygon class="cls-2" points="17.3 10.1 17.3 10.1 18.8 10.1 18.8 8.5 17.3 8.5 17.3 10.1"/><rect class="cls-2" x="14.3" y="11.7" width="1.5" height="1.62"/></g></svg>