<svg xmlns="http://www.w3.org/2000/svg" viewBox="0 0 30 20"><defs><style>.cls-1{fill:#214190;}.cls-2{fill:#fff;}.cls-3{fill:#d72e2b;}</style></defs><title>is</title><g id="Layer_20" data-name="Layer 20"><path class="cls-1" d="M7.8,0H2.6A2.5,2.5,0,0,0,0,2.5V7.8H7.8Z"/><path class="cls-1" d="M27.5,0H12.3V7.8H30V2.5A2.5,2.5,0,0,0,27.5,0Z"/><path class="cls-1" d="M12.3,20H27.5A2.5,2.5,0,0,0,30,17.5V12.2H12.3Z"/><path class="cls-1" d="M0,12.2v5.3A2.5,2.5,0,0,0,2.6,20H7.8V12.2Z"/><polygon class="cls-2" points="12.3 7.8 12.3 0 11.1 0 11.1 8.9 12.3 8.9 30 8.9 30 7.8 12.3 7.8"/><polygon class="cls-2" points="7.8 7.8 0 7.8 0 8.9 7.8 8.9 8.9 8.9 8.9 0 7.8 0 7.8 7.8"/><polygon class="cls-2" points="0 11.1 0 12.2 7.8 12.2 7.8 20 8.9 20 8.9 11.1 7.8 11.1 0 11.1"/><polygon class="cls-2" points="12.3 11.1 11.1 11.1 11.1 20 12.3 20 12.3 12.2 30 12.2 30 11.1 12.3 11.1"/><polygon class="cls-3" points="11.1 8.9 11.1 0 8.9 0 8.9 8.9 7.8 8.9 0 8.9 0 11.1 7.8 11.1 8.9 11.1 8.9 20 11.1 20 11.1 11.1 12.3 11.1 30 11.1 30 8.9 12.3 8.9 11.1 8.9"/></g></svg>