<svg xmlns="http://www.w3.org/2000/svg" viewBox="0 0 30 20"><defs><style>.cls-1{fill:none;}.cls-2{fill:#2783c4;}.cls-3{fill:#fafafa;}.cls-4{fill:#0fab4b;}.cls-5{fill:#2381c4;}.cls-6{fill:#fff;}.cls-7{fill:#010101;}.cls-8{fill:#d31f36;}.cls-9{fill:#9b4f23;}.cls-10{fill:#fade4b;}</style></defs><title>sm</title><g id="Layer_44" data-name="Layer 44"><path class="cls-1" d="M.1,1.9a1.3,1.3,0,0,0-.1.6v15a1.3,1.3,0,0,0,.1.6V1.9Z"/><path class="cls-1" d="M29.9,1.9V18.1a1.3,1.3,0,0,0,.1-.6V2.5A1.3,1.3,0,0,0,29.9,1.9Z"/><path class="cls-2" d="M14.9,13.3Z"/><path class="cls-2" d="M12.7,12.2l.2.2.2.3h.1l-.2-.3C13,12.3,12.9,12.2,12.7,12.2Z"/><path class="cls-2" d="M13.3,12.9h-.2a.1.1,0,0,1-.1-.1h-.1v.2s.1.2,0,.3h0l.4.2a.2.2,0,0,1,0-.3h.5A.8.8,0,0,0,13.3,12.9Z"/><path class="cls-2" d="M12,11h0Z"/><path class="cls-2" d="M11.4,12.9h0Z"/><path class="cls-2" d="M12.9,11.6h0c0,.1-.1.3,0,.5h0c0-.1,0-.2.1-.2s.1.2,0,.2a.2.2,0,0,1,.2.2c0,.2.2.3.3.4l.7.3h.5A3.3,3.3,0,0,1,12.9,11.6Z"/><path class="cls-2" d="M14.9,13.7Z"/><path class="cls-2" d="M12.9,12.7h-.4c.1,0,.1.1,0,.1a.1.1,0,0,1-.1-.1h-.1l-.3.2.4.2h.2v-.2Z"/><path class="cls-2" d="M17.6,10.1s-.1.1,0,.1,0,.2-.1.2a.4.4,0,0,0-.1.3v.6h0a.1.1,0,0,1,.1.1c-.1.1,0,.1,0,.2s.1.1,0,.1h0a.1.1,0,0,1,.1-.1v-.5h0v-.2c.1,0,.1-.1,0-.1v-.2h.1c-.1-.2.1-.3.1-.2h.1c-.1,0-.1.1-.1.2h.1v-.5h-.3Z"/><path class="cls-2" d="M11.5,10.4V10h-.2A.4.4,0,0,1,11.5,10.4Z"/><path class="cls-2" d="M11.7,10.9v-.2h0v-.4h-.1v-.3h-.3C11.9,10.6,11.6,10.6,11.7,10.9Z"/><path class="cls-2" d="M11.9,10.3H12a1.1,1.1,0,0,1-.1.5H12c0-.1,0-.2.1-.2a.6.6,0,0,0,.2.4h0a2,2,0,0,1-.2-1.1.8.8,0,0,0,.2.4h0c0-.1-.1-.2-.1-.4h-.3Z"/><path class="cls-2" d="M18,10.3v.3h.2c.1.2,0,.2-.1.1s-.1,0,0-.1h-.2c.1,0,.1.1,0,.1s.1.2,0,.3h-.1v.4l.3-.2c0-.1,0-.2.1-.2a.4.4,0,0,0,.1-.3.1.1,0,0,0,0-.2v-.2c.1-.1.1-.1,0-.1v-.2h.1c-.1,0,0,0,0-.1h-.2A.3.3,0,0,0,18,10.3Z"/><path class="cls-2" d="M18.1,10h0Z"/><path class="cls-2" d="M12.4,10a1.1,1.1,0,0,1,0,.8V11h.1c-.1.2.1.5,0,.6s-.1.3,0,.4v.2h.2a.8.8,0,0,1-.1-.8h.1a3.5,3.5,0,0,1-.3-1.3Zm.1,1.9c-.1,0-.1-.2,0-.2S12.6,11.9,12.5,11.9Z"/><path class="cls-2" d="M16.4,12.5h.1l-.2.2v.2h.2Z"/><path class="cls-2" d="M17.2,12.1Z"/><path class="cls-2" d="M17.1,11.5a.4.4,0,0,0,.1.3V12h.1v-.2c0-.1,0-.2.1-.2h0c-.1-.1-.1-.1,0-.1h0v-.5l-.2.5C17.2,11.4,17.2,11.5,17.1,11.5Z"/><path class="cls-2" d="M17.1,12Z"/><path class="cls-2" d="M16.8,12h.1l-.2.2Z"/><path class="cls-2" d="M17.1,12Z"/><path class="cls-2" d="M11.8,12.7Z"/><path class="cls-2" d="M18.8,10h-.1a.1.1,0,0,1,0,.2l-.2.2h.2a.6.6,0,0,0,.1-.4h.1c.1-.1.1-.3.3-.2h.3s.1.2,0,.2a.1.1,0,0,0,.1.1h-.1c0,.1-.1.1,0,.2h-.3c-.1.1-.3,0-.4-.1s-.3,0-.4.1h-.1c-.1.3-.1.3-.1.4h-.1c.1.2,0,.2-.1.1h-.3v.3h.6l.2-.2h.5c.2,0,.3.1.1.2h.1a.1.1,0,0,1,.1.1c.1.1.1.1,0,.2h0c0,.2-.1.2-.2.2H17.6l-.2.2h-.1c.1.1,0,.1,0,.1h.3l.2-.3c0-.1,0-.1.1-.1h.3c0,.1-.1.1-.1.2s.1,0,.1-.1h.3v.2h-.1c.1,0,.1.1,0,.1h.2c.2,0,.3.2,0,.2h-.5c.3,0,.5-.1.6,0h.2v.2h-.1v.2h-.1v.2h-.1v-.2c.1,0,0-.1,0,0h-.1c-.1,0,0-.1,0-.2h-.2c-.1,0-.1.1,0,.1h-.5v-.5h-.4c0-.1-.2-.1-.4-.1h-.7a.1.1,0,0,1-.1.1h.3c0,.1,0,.1.1,0h.4c.1,0,.2,0,.1.1h.4l-.2.2-.4.2c0-.1.2-.1.3-.1h.5l-.3.3-.3.2a.5.5,0,0,1-.4.2,1.7,1.7,0,0,0-.6.6c0,.2-.2.3-.3.2s-.1-.2-.2-.4h-.3a.6.6,0,0,1-.1-.4h-.3a.1.1,0,0,1-.1.1c.1.1.2.3.3.3l.2.2v.2c.1.1.1.2.1.4l-.2-.2c0-.1-.1-.3-.2-.3l-.2-.3-.2-.2v.2h-.2c0,.1-.1.1-.1.2h-.2l-.2.3h0a.4.4,0,0,1-.1-.3l.2-.2h.2l.2-.2v-.2h.1a.1.1,0,0,1-.1-.1h-.3a.4.4,0,0,0-.1.3c0,.2-.2.2-.4.1a.8.8,0,0,1-.1.4c0,.1-.2.2-.3,0s-.2-.3-.3-.5l-.4-.2-.2-.2c-.1-.1-.3-.2-.4-.1h-.4l-.3-.2a1.1,1.1,0,0,0,.8,0l-.4-.2h-.3c-.1.2-.3.4-.5.3l.2-.2a.7.7,0,0,1-.7.3l.2-.2h-.5a1,1,0,0,1,.9-.4h-.3l.8-.2h-.2c.3-.1.5.1.8.1h.2c0-.1,0-.2.1-.2s.1.2,0,.2h.3l-.2-.2v-.2h-.5c-.1,0-.1,0-.1-.1h-.2c.1,0,.1.1,0,.1a.1.1,0,0,1-.1-.1h0l-.4.2c-.2.1-.4,0-.6.2a.4.4,0,0,0,.1-.3h-.4l.6-.2-.4-.3c.5,0,.5.1.9.3h.1c-.2-.3-.8-.2-.9-.5h.6c-.2-.3-.7-.2-.8-.5h.4l-.2-.2c-.1-.1-.2-.1-.4-.6s.4.1.5.4,0,.1.1.2-.1-.2-.1-.4.4.6.4.9l.2.2h0v-.6a1.9,1.9,0,0,1,.3.8v.2h.5l-.2-.3h0l-.2-.2a.6.6,0,0,1-.4-.6l.3.3a.4.4,0,0,1-.1-.3l-.3-.3a.5.5,0,0,1-.3-.5l.3.3h-.1s-.1-.1,0-.1V10H.1v8.1A2.6,2.6,0,0,0,2.5,20h25a2.6,2.6,0,0,0,2.4-1.9V10Zm-7.3,2c.1,0,.1.1,0,.1S11.4,12,11.5,12Zm-.8-1c.1,0,.1.1,0,.1S10.6,11,10.7,11Zm1.2.9c.1,0,.1.2,0,.2S11.8,11.9,11.9,11.9Z"/><path class="cls-2" d="M16.6,13.3h0v-.2h-.2l-.2.2h.1C16.4,13,16.6,13.1,16.6,13.3Z"/><path class="cls-2" d="M15.3,13.2h.4c.2-.1.4-.2.4-.4l-.9.5Z"/><path class="cls-2" d="M18.5,10.2h.1V10h-.1Z"/><path class="cls-3" d="M14,6.7c-.3,0-.6.2-.4.6h0a.4.4,0,0,1,.4.2.3.3,0,0,1,0-.4.5.5,0,0,1,.4.3.4.4,0,0,1,0-.5c.2.1.3.2.3.4V7a.9.9,0,0,1-.1-.5Z"/><path class="cls-3" d="M14.9,8.7h.2l.5-.3H14.3l.5.3A.1.1,0,0,1,14.9,8.7Z"/><path class="cls-3" d="M16,6.7l-.7-.2c0,.2-.1.3-.2.5a.4.4,0,0,1,.1.3l.4-.4a.4.4,0,0,1,0,.5.5.5,0,0,1,.4-.3.6.6,0,0,1-.1.4.4.4,0,0,1,.4-.2h0C16.5,6.9,16.2,6.7,16,6.7Z"/><path class="cls-3" d="M13.8,8.3h0Z"/><path class="cls-3" d="M11.2,10a1,1,0,0,1-.2-.7l.2.3a.8.8,0,0,1,.2-.7c-.1.1,0,.2,0,.4l.2-.2c-.1.1,0,.3,0,.5s-.1.2-.1.4h.3c0-.1-.1-.2,0-.3a.4.4,0,0,1,.1-.3V9.1a1.8,1.8,0,0,1-.1-.6l.2-.4c0,.2.1.5,0,.7h.1V8.4a.9.9,0,0,1,.4-.5,2.1,2.1,0,0,1-.3.7l.4-.3c-.1.1,0,.3-.5.6s-.2.2-.2.4h.2a2.8,2.8,0,0,1-.1.8h.2a.8.8,0,0,1,0-.7c.1.1.1.3.2.4h0a1.9,1.9,0,0,1,.2-.8v.5h0a1.9,1.9,0,0,1-.2.7h.1a1.5,1.5,0,0,1,1.1-1.6h.2c-.1-.1-.1-.1-.1-.2h0V7.9h0a.1.1,0,0,1,0-.2l-.4-.3h0c-.1,0-.1-.2,0-.3h0c-.2,0-.2-.2,0-.2s0-.1.1-.2,0-.1,0-.1h.2V6.4h.3a.1.1,0,0,1,0-.2c.1,0,.1.1.1.2h.5c0-.1,0-.1-.1-.1h.1c.1.1.1,0,.2-.1s0-.2.1-.2h0V5.7c0-.1,0-.2.1-.2h-.2V5.2h.5v.2h-.1a.3.3,0,0,1,.1.2c0,.1-.1.1-.1.2h0l.2.2c0,.1.1.2.1.1s.2,0,.1.1h.4c0-.1,0-.2.1-.2s.1.1.1.2h.2c.1,0,.1.1.1.2h.2a.1.1,0,0,1,.1.1c0,.1.1.1.1.2s.1.2,0,.2a.1.1,0,0,1-.1.1c.1.1.1.3,0,.3h0l-.3.3c0,.1,0,.2-.1.2h0v.2h0c0,.1,0,.2-.1.1h.2a1.1,1.1,0,0,1,.8.7h.4c0,.1.1.1,0,.2s.2.2,0,.3.1.2,0,.3h.4V9.6h-.1s-.1-.1,0-.1V9.3h.2V9.2L17.7,9c-.1,0-.1-.1,0-.1h-.2c-.1,0-.1-.1-.1-.2h0c-.2,0-.1-.2-.1-.2h.4c.1,0,.1-.1,0-.1h-.1a.1.1,0,0,1,0-.2h.3c.1,0,.1.1.1.2s-.1.1,0,.1v.2a.1.1,0,0,0-.1.1h0a.6.6,0,0,0,.1-.4h.2c.1-.2.2-.1.2-.1a.1.1,0,0,1,0,.2h-.1c.1.1,0,.1,0,.1h-.2l-.2.4h0V10h.1V9.7c0-.1.1-.1,0-.2h0c0-.1,0-.2.1-.2h.3c-.1.1-.1.1,0,.1h0c.1-.1.3-.2.4-.1H19c-.1.1,0,.1,0,.1v.2h-.2c-.1,0-.1-.1-.2,0h-.2c-.1,0-.1.1,0,.1h-.1l-.2.3V10H29.9V1.9A2.6,2.6,0,0,0,27.5,0H2.5A2.6,2.6,0,0,0,.1,1.9V10Z"/><path class="cls-4" d="M17.2,12.1h-.5l-.2.3h.2l.5-.4Z"/><path class="cls-4" d="M17,12.5c.1,0,.2,0,.1-.1H17Z"/><path class="cls-4" d="M17.3,10.8h.1a.4.4,0,0,1,.1-.3c.1,0,.1-.1.1-.2s0-.1,0-.1h-.1c.1-.1,0-.3,0-.3s.1-.2,0-.3,0-.1,0-.2h-.4A1.9,1.9,0,0,1,17.3,10.8Z"/><path class="cls-4" d="M17,11.9h.1v-.2a.4.4,0,0,1-.1-.3c.1,0,.1-.1,0-.2v.2c0,.1-.1.2-.1.3Z"/><path class="cls-4" d="M16.3,12.8h.2V13h.3l.4-.2h0c.1-.1,0-.1-.1-.1h-.4c-.1.1-.1.1-.1,0h-.4Z"/><path class="cls-5" d="M15,9h-.2l-.6.3a.5.5,0,0,1-.6-.1,2.4,2.4,0,0,0-.2,2.3v-.2h.1c.1-.3.1-.9.2-1h.1V9.8a.2.2,0,0,1,.1-.3.3.3,0,0,1,.2.4h0a3.1,3.1,0,0,0,.1,1h0c.1,0,.1.1.1.3h.2v-.2h.2a3.4,3.4,0,0,1,.1-1.1h.1c-.1,0-.2-.1-.1-.3s.3-.1.3,0,0,.3-.2.3v.2h.2v.4c.1.1.1.4.1.6s.1,0,.1.1v.3h0v-.2h.1c0-.3.1-.9.1-1h.1c-.1-.2-.1-.4.1-.4s.2.2.2.4h0c0,.3.1.8.1,1h0l.2.2a1.9,1.9,0,0,0-.2-2.3c-.1.2-.4.2-.6.1L15,9Z"/><path class="cls-6" d="M14.9,9.7v.2c.2,0,.3-.2.2-.3s-.3-.2-.3,0,0,.3.1.3h0C14.7,9.6,14.9,9.6,14.9,9.7Z"/><path class="cls-6" d="M14.9,10h0V9.7c0-.1-.2-.1,0,.1h0Z"/><path class="cls-6" d="M14.8,11.3c0-.3,0-.4.1-.4s.1.1.1.3a.1.1,0,0,0,.1.1.1.1,0,0,1,.1-.1c0-.2,0-.5-.1-.6v-.4h-.3a3.4,3.4,0,0,0-.1,1.1Z"/><path class="cls-6" d="M13.9,9.8c-.1,0-.1-.1,0-.1h0V10h.2a.3.3,0,0,0-.2-.4.2.2,0,0,0-.1.3v0Z"/><path class="cls-6" d="M13.9,10h0V9.8h0c-.1,0-.1.1,0,.1V10h0Z"/><path class="cls-6" d="M14,11.2h.2a3.1,3.1,0,0,1-.1-1h-.3c-.1.1-.1.7-.2,1H14Zm0-.9h0C13.9,10.4,13.9,10.3,14,10.3Zm-.2.1c.1,0,.1.1,0,.1Z"/><path class="cls-6" d="M15.9,9.7H16V10h.1c0-.2-.1-.4-.2-.4s-.2.2-.1.4h.1V9.8C15.7,9.8,15.8,9.7,15.9,9.7Z"/><path class="cls-6" d="M15.9,10.1H16V9.8h-.1c-.1,0-.2.1,0,.1V10Z"/><path class="cls-6" d="M15.7,11.2a.1.1,0,0,0,.1.1c0-.2,0-.4.1-.4a1,1,0,0,1,.1.4c0-.1.1-.1.2-.1s-.1-.7-.1-1h-.4c0,.1-.1.7-.1,1Z"/><path class="cls-7" d="M13.8,10.5c.1,0,.1-.1,0-.1Z"/><path class="cls-7" d="M14,10.4h0C13.9,10.3,13.9,10.4,14,10.4Z"/><path class="cls-7" d="M14.9,10.9c-.1,0-.1.1-.1.4H15C15,11,15,10.9,14.9,10.9Z"/><path class="cls-7" d="M15.9,10.9c-.1,0-.1.2-.1.4H16A1,1,0,0,0,15.9,10.9Z"/><path class="cls-4" d="M16.2,11.2c-.1,0-.2,0-.2.1h-.2a.1.1,0,0,1-.1-.1h-.2v.2h0v-.3c0-.1,0-.1-.1-.1a.1.1,0,0,0-.1.1.1.1,0,0,1-.1-.1h-.5v.2h-.2c0-.2,0-.3-.1-.3h-.7v.2a3.3,3.3,0,0,0,1.5,1.6,3,3,0,0,0,1.5-1.6l-.2-.2Z"/><path class="cls-8" d="M10.7,11.1c.1,0,.1-.1,0-.1S10.6,11.1,10.7,11.1Z"/><path class="cls-8" d="M11.5,12.1c.1,0,.1-.1,0-.1S11.4,12.1,11.5,12.1Z"/><path class="cls-8" d="M11.7,12.2a.1.1,0,0,0,.1.1c.1,0,.1-.1,0-.1Z"/><path class="cls-8" d="M12.1,12.3H12C12,12.3,12,12.3,12.1,12.3Z"/><path class="cls-8" d="M13,12c-.1,0-.1.1-.1.2H13C13.1,12.2,13.1,12,13,12Z"/><path class="cls-8" d="M12.5,12.8c.1,0,.1-.1,0-.1h-.1A.1.1,0,0,0,12.5,12.8Z"/><path class="cls-8" d="M12.6,12.6c.1,0,0-.2,0-.2s-.1.1-.1.2Z"/><path class="cls-8" d="M11.3,10.3h.1c0-.1,0-.1-.1-.1S11.3,10.3,11.3,10.3Z"/><path class="cls-4" d="M12.9,11.7h0v-.2h-.1a.8.8,0,0,0,.1.8h.1C12.8,12,12.9,11.8,12.9,11.7Z"/><path class="cls-4" d="M12.9,12.9v-.2h0l-.2.2v.2h.3C13,13.1,12.9,12.9,12.9,12.9Z"/><path class="cls-9" d="M11.9,10.9a1.1,1.1,0,0,0,.1-.5h-.1v-.2h0v.3h.1v.4Z"/><path class="cls-9" d="M12.6,12.1v-.2h-.1l-.2-.2h-.1l.2.3Z"/><path class="cls-9" d="M14.9,13.7h-.2a.1.1,0,0,0,.1.1h.1Z"/><path class="cls-9" d="M14.9,13.9l.2.2.2.3c.1,0,.2.2.2.3l.2.2c-.2-.1-.1-.3-.1-.4v-.2l-.2-.2c-.1,0-.2-.2-.3-.3Z"/><path class="cls-9" d="M12.2,12.7H13a.1.1,0,0,0,.1.1h.2a.8.8,0,0,1,.5.2h.4l-.7-.3h-.4l-.2-.3-.2-.2h-.1v.2l.2.2h-.7Z"/><path class="cls-10" d="M15.7,14.9c0-.2,0-.3-.1-.4S15.5,14.8,15.7,14.9Z"/><path class="cls-9" d="M12.7,12.2c.2,0,.3.1.3.2l.2.3h.3c-.1-.1-.3-.2-.3-.4a.2.2,0,0,0-.2-.2H11.8v-.2h1Z"/><path class="cls-9" d="M17.4,11.3v-.6h-.1v.5Z"/><path class="cls-9" d="M18.1,11.2c-.1,0-.1.1-.1.2l-.3.2v-.2h-.1v.2a.1.1,0,0,0-.1.1h0c-.1,0-.1.1-.2.2h.1l.2-.2h0v-.3h.5c0-.1,0-.1.1-.4h-.1A.4.4,0,0,1,18.1,11.2Z"/><path class="cls-9" d="M17.9,10.1v.5H18c-.1.1-.1.2,0,.1h-.1v-.3a.3.3,0,0,1,.1-.2h.1V9.8h-.1v.2H18V9.2h-.1v.2h-.1c-.1,0,0,.1,0,.1h.1V10h0Z"/><path class="cls-9" d="M14.9,13.7h-.2v.2l-.2.2h-.2l-.2.2c.1.1.2.2.1.3h0l.2-.3h.2c0-.1.1-.1.1-.2h.2v-.2H15a.1.1,0,0,0,.1-.1Z"/><path class="cls-9" d="M17.7,11.4v0Z"/><path class="cls-9" d="M17.8,10.8Z"/><path class="cls-9" d="M16.9,12.5h.3v-.2h0l-.5.4h-.5v-.2l-.2.2c0,.2-.2.3-.4.4h.4l.2-.2h.1a.1.1,0,0,0,.1-.1h.4Z"/><path class="cls-10" d="M14,14.6a.4.4,0,0,0,.1.3C14.2,14.8,14.1,14.7,14,14.6Z"/><path class="cls-9" d="M18.4,12.6h.2v-.2h-.2Z"/><path class="cls-10" d="M18.6,12.7c.3,0,.2-.2,0-.2Z"/><path class="cls-10" d="M18,11.7c.1.1.2.1.1-.1Z"/><path class="cls-10" d="M18.1,10.7H18C18.1,10.9,18.2,10.9,18.1,10.7Z"/><path class="cls-10" d="M17.8,9.4h-.1v.2Z"/><path class="cls-4" d="M11.2,12.9a1,1,0,0,0-.9.4h.5Z"/><path class="cls-4" d="M11.4,12.9h-.2l-.4.3-.2.2a.7.7,0,0,0,.7-.3h.1Z"/><path class="cls-4" d="M11.8,12.7h-.5l-.2.2c.2.1.4-.1.5-.3Z"/><path class="cls-4" d="M11.4,12.9h.3l-.8.2h.5Z"/><path class="cls-4" d="M12,12.9l.3-.2h-.5l-.2.3H12Z"/><path class="cls-4" d="M11.9,12.7h.4c-.3,0-.5-.2-.8-.1h.4Z"/><path class="cls-4" d="M11.5,12.1c-.4-.2-.4-.3-.9-.3l.4.3Z"/><path class="cls-4" d="M11.7,12.1h-.2a1.1,1.1,0,0,1-.7.2.4.4,0,0,1-.1.3c.2-.2.4-.1.6-.2l.4-.2h0Z"/><path class="cls-4" d="M11.5,12.1H11l-.6.2h.4A1.1,1.1,0,0,0,11.5,12.1Z"/><path class="cls-4" d="M12.6,8.8a1.9,1.9,0,0,0-.2.8l.2-.3Z"/><path class="cls-4" d="M12.6,9.3h0l-.2.3h0V10A1.9,1.9,0,0,0,12.6,9.3Z"/><path class="cls-4" d="M12.4,10h0V9.7c-.1-.1-.1-.3-.2-.4a.8.8,0,0,0,0,.7c0,.2.1.3.1.4A.8.8,0,0,0,12.4,10Z"/><path class="cls-4" d="M12.4,10.8a1.1,1.1,0,0,0,0-.8h0a.8.8,0,0,1-.1.4h0A.3.3,0,0,1,12.4,10.8Z"/><path class="cls-4" d="M12.4,10.8a.3.3,0,0,0-.1-.2h0a.8.8,0,0,1-.2-.4,2,2,0,0,0,.2,1.1v-.4Z"/><path class="cls-4" d="M11,11.1c-.1,0-.1-.1-.1-.2s-.1-.1-.1-.2-.4-.3-.5-.4.3.5.4.6l.2.2H11Z"/><path class="cls-4" d="M11.2,11.4c0-.3.1-.4-.4-.9s0,.3.1.4,0,.2.1.2Z"/><path class="cls-4" d="M11.2,11.4l-.2-.3h-.5c.1.3.6.2.8.5h.1Z"/><path class="cls-4" d="M11.7,11.9h0a1.9,1.9,0,0,0-.3-.8v.6Z"/><path class="cls-4" d="M11.7,11.9l-.3-.2h-.7c.1.3.7.2.9.5h.1Z"/><path class="cls-4" d="M11.4,9.3c0-.2-.1-.3,0-.4a.8.8,0,0,0-.2.7c.1,0,.1.1.2.2S11.4,9.5,11.4,9.3Z"/><path class="cls-4" d="M11.4,9.8h0v.3h.1c0-.2.1-.2.1-.4s-.1-.4,0-.5l-.2.2C11.4,9.5,11.3,9.6,11.4,9.8Z"/><path class="cls-4" d="M11.5,10.5h0a.4.4,0,0,0-.1-.3V9.8h0c-.1-.1-.1-.2-.2-.2L11,9.3a1,1,0,0,0,.2.7h0v.2c.1,0,.1,0,.1.1h.1Z"/><path class="cls-4" d="M11.5,10.4h0c.1,0,.2.2.2.4h0c-.1-.3.2-.3-.1-.9h0Z"/><path class="cls-4" d="M11.7,10.9c0-.2-.1-.4-.2-.4h-.1l-.3-.3a.5.5,0,0,0,.3.5l.3.3Z"/><path class="cls-4" d="M12.1,11.5a.8.8,0,0,1-.1-.4h-.1c-.1,0-.1-.1,0-.1h-.1v.2h0a.4.4,0,0,0,.1.3Z"/><path class="cls-4" d="M12.1,11.5l-.3-.3-.3-.3a.6.6,0,0,0,.4.6l.2.2h.1C12.1,11.7,12.1,11.6,12.1,11.5Z"/><path class="cls-4" d="M12.3,11.3h0a.6.6,0,0,1-.2-.4c-.1,0-.1.1-.1.2h0a.8.8,0,0,0,.1.4c0,.1,0,.2.1.2l.2.2h0C12.3,11.8,12.3,11.5,12.3,11.3Z"/><path class="cls-4" d="M12.5,11.5c.1-.1-.1-.4,0-.6h-.1v.2h0c0,.2,0,.5.1.6h.1C12.4,11.8,12.5,11.6,12.5,11.5Z"/><path class="cls-4" d="M12.2,8.6a2.1,2.1,0,0,0,.3-.7.9.9,0,0,0-.4.5v.3Z"/><path class="cls-4" d="M12,8.8c.1-.2,0-.5,0-.7l-.2.4a1.8,1.8,0,0,0,.1.6V8.9Z"/><path class="cls-4" d="M12.1,8.9c.5-.3.4-.5.5-.6l-.4.3H12v.5h0C11.9,9.1,12,9.1,12.1,8.9Z"/><path class="cls-4" d="M11.9,10.1H12a2.8,2.8,0,0,0,.1-.8h-.2a.4.4,0,0,0-.1.3c-.1.1,0,.2,0,.3Z"/><path class="cls-4" d="M18.7,13.2h-.1c0,.1-.1.2,0,.2h.1v.2h.1v-.2H19v-.2h-.2Z"/><path class="cls-4" d="M18.5,12.9h0c0,.1-.1.1,0,.1H19v-.2h-.2c-.1-.1-.3,0-.6,0Z"/><path class="cls-4" d="M18.4,13.2h-.1c-.1.1-.1,0-.1-.1H18v.5h.5c-.1,0-.1-.1,0-.1h0Z"/><path class="cls-4" d="M17.7,12.6H18c0-.1,0-.3.1-.2h0c0-.1.1-.1.1-.2h-.3c-.1,0-.1,0-.1.1l-.2.3h.1Z"/><path class="cls-4" d="M18,12.5h-.3c0,.1,0,.1.1.1h.6c.1,0,.1-.1,0-.1h.1v-.2h-.3c0,.1,0,.1-.1.1h0C18,12.2,18,12.4,18,12.5Z"/><path class="cls-4" d="M17.6,12.8h.6c0,.1,0,.2.1.1h.2c-.1,0,0,0,0-.1h-.7c-.1,0-.1,0-.1-.1h-.5C17.4,12.7,17.6,12.7,17.6,12.8Z"/><path class="cls-4" d="M17.2,12.1v.2h-.1c.1.1,0,.1-.1.1h.3s.1,0,0-.1h-.1Z"/><path class="cls-4" d="M18,9.1h0l.2-.4h.2s.1,0,0-.1h.1a.1.1,0,0,0,0-.2s-.1-.1-.2.1h-.2a.6.6,0,0,1-.1.4h0v.3Z"/><path class="cls-4" d="M17.8,8.8h.1V8.8a.1.1,0,0,1,.1-.1V8.5c-.1,0-.1,0,0-.1s0-.2-.1-.2h-.3a.1.1,0,0,0,0,.2h.1c.1,0,.1.1,0,.1h0C17.7,8.8,17.7,8.8,17.8,8.8Z"/><path class="cls-4" d="M18,9.2h0V8.9h-.1c-.1,0-.1,0-.1-.1h-.4s-.1.2.1.2h0c0,.1,0,.2.1.2h.2c-.1,0-.1.1,0,.1l.2.2Z"/><path class="cls-4" d="M18.5,9.1h.2c.1-.1.1,0,.2,0h.2V9s-.1,0,0-.1h-.1c-.1-.1-.3,0-.4.1Z"/><path class="cls-4" d="M18.4,9.5h.1c-.1,0-.1-.1,0-.1h0c-.1,0-.1,0,0-.1h-.3c-.1,0-.1.1-.1.2h0c.1.1,0,.1,0,.2h.1Z"/><path class="cls-4" d="M19,10.4h.2l.3-.2c.1,0,0-.2,0-.2h-.3c-.2-.1-.2.1-.3.2h-.1a.6.6,0,0,1-.1.4h.1Z"/><path class="cls-4" d="M18.4,10.9c.1-.1.3-.2.4-.1s.3.2.4.1h.3c-.1-.1,0-.1,0-.2h.1a.1.1,0,0,1-.1-.1l-.3.2H19l-.2.2h-.4Z"/><path class="cls-4" d="M18.8,9.9h-.2v.2h-.1V10h-.2c0,.1-.1.1,0,.1h-.1v.2c.1,0,.1,0,0,.1v.2a.1.1,0,0,1,0,.2h.3l.2-.2a.1.1,0,0,0,0-.2h.1Z"/><path class="cls-4" d="M17.8,11.2c.1-.1,0-.2,0-.3s.1-.1,0-.1h-.1c0-.1,0-.2.1-.2h-.1c0-.1-.2,0-.1.2h-.1v.2c.1,0,.1.1,0,.1v.2h0v.3h.1v-.2Z"/><path class="cls-4" d="M17.5,11.7h0c.1,0,.1-.1,0-.1s-.1-.1,0-.2a.1.1,0,0,0-.1-.1h-.1c-.1,0-.1,0,0,.1h0c-.1,0-.1.1-.1.2v.2h.1c.1-.1.1-.2.2-.2h0Z"/><path class="cls-4" d="M19,12h-.2c-.1,0-.3-.2-.6-.1H19c.1,0,.2,0,.2-.2Z"/><path class="cls-4" d="M18.3,11.8H19c.2-.1.1-.2-.1-.2h-.5l-.2.2C18.3,11.7,18.3,11.7,18.3,11.8Z"/><path class="cls-4" d="M18.2,11.9c.3-.1.5.1.6.1h.4c.1-.1.1-.1,0-.2a.1.1,0,0,0-.1-.1h-.8c0-.1,0-.1-.1,0h0Z"/><path class="cls-8" d="M12,11h-.1c-.1,0-.1.1,0,.1Z"/><path class="cls-8" d="M11.9,12.1c.1,0,.1-.2,0-.2S11.8,12.1,11.9,12.1Z"/><path class="cls-8" d="M12.5,11.9c.1,0,.1-.2,0-.2S12.4,11.9,12.5,11.9Z"/><path class="cls-6" d="M16.8,13.2h-.2c0-.2-.2-.3-.4-.3H13.3a.2.2,0,0,0,0,.3l-.4-.2h-.5l-.4-.2h-.1l.4.2a1.1,1.1,0,0,1-.8,0l.3.2h.4c.1-.1.3,0,.4.1l.2.2.4.2c.1.2.1.4.3.5s.3.1.3,0a.8.8,0,0,0,.1-.4c.2.1.4.1.4-.1a.4.4,0,0,1,.1-.3h1a.6.6,0,0,0,.1.4h.3c.1.2,0,.3.2.4s.3,0,.3-.2a1.7,1.7,0,0,1,.6-.6.5.5,0,0,0,.4-.2l.3-.2.3-.3h-.5c-.1,0-.3,0-.3.1l.4-.2.2-.2h-.4l-.4.2Zm-3,.2h-.2v-.2h.1v.2h.1Zm.2.1h-.1v-.2H14v.2h0Zm.4,0h0Zm.3.1h-.2c-.1,0-.1-.1,0-.1h.2Zm.4,0h-.2v-.2h.2c.1,0,0,.1,0,.1h0Zm.3,0h-.1v-.2h.1Zm.6-.1h-.4v-.2h.2c-.1-.1-.1,0-.1,0H16Zm.3-.3h0c0-.1,0-.1-.1-.1h0c-.1,0-.1,0-.1-.1h.2Z"/><path class="cls-6" d="M14.2,13.4h.1C14.4,13.4,14.3,13.4,14.2,13.4Z"/><path class="cls-6" d="M15.7,13.3h0Z"/><path class="cls-6" d="M14.9,13.4Z"/><path class="cls-6" d="M14.3,13.4s.1-.1,0-.1h0Z"/><path class="cls-7" d="M13.8,13.4h-.1v-.2h-.1v.2h.2Z"/><path class="cls-7" d="M14,13.4v-.2h-.1v.2H14Z"/><path class="cls-7" d="M14.4,13.4h0Zm-.2-.1h.1c.1,0,0,.1,0,.1Zm.1.2h-.1C14.3,13.4,14.4,13.4,14.3,13.5Z"/><path class="cls-7" d="M14.7,13.6h-.2c-.1,0-.1.1,0,.1Z"/><path class="cls-7" d="M15.1,13.7s.1-.1,0-.1h-.2v.2h.2Zm-.2-.2h0Z"/><path class="cls-7" d="M15.4,13.6h-.1v.2h.1Z"/><path class="cls-7" d="M16,13.4h-.2s0-.1.1,0h-.2v.2H16Zm-.3,0h0Z"/><path class="cls-7" d="M16.3,13.2h-.2c0,.1,0,.1.1.1h0c.1,0,.1,0,.1.1h0Z"/><path class="cls-10" d="M15.1,8.8c.1,0,0,.1-.1.2l.6.3a.5.5,0,0,1,0-.8h0Z"/><path class="cls-10" d="M14.8,8.8l-.5-.3h-.1c.2.1.2.2.2.4s0,.3-.2.4l.6-.3C14.7,8.9,14.7,8.8,14.8,8.8Z"/><path class="cls-10" d="M15,8.9h0c.1-.1.2-.2.1-.2H15Z"/><path class="cls-10" d="M14.9,8.9V8.7a.1.1,0,0,0-.1.1c-.1,0-.1.1,0,.2h.1Z"/><path class="cls-10" d="M15,8.9V8.7h-.1v.2H15Z"/><path class="cls-10" d="M12.8,11.3v.2h0a3.3,3.3,0,0,0,1.8,1.6h.5l.9-.5.2-.2.2-.2.2-.3.2-.2c0-.1.1-.2.1-.3v-.2l.2-.5h0a1.9,1.9,0,0,0-.2-1.7,1.1,1.1,0,0,0-.8-.7h-.7a.5.5,0,0,0,0,.8c.2.1.5.1.6-.1a1.9,1.9,0,0,1,.2,2.3,3,3,0,0,1-1.5,1.6,3.3,3.3,0,0,1-1.5-1.6,2.4,2.4,0,0,1,.2-2.3.5.5,0,0,0,.6.1c.2-.1.2-.2.2-.4s0-.3-.2-.4h-.6A1.5,1.5,0,0,0,12.5,10,3.5,3.5,0,0,0,12.8,11.3Z"/><path class="cls-10" d="M13.7,7.6a.4.4,0,0,1-.1-.3c-.2-.4.1-.6.4-.6l.7-.2V6.3h-.3c.1,0,.1.1,0,.1s-.1-.1,0-.1h-1c.1.1,0,.2-.1.2h0c-.1.1-.1.1-.1.2h0c.1,0,.1.2,0,.2h0c.2,0,.2.2.1.2h.4Z"/><path class="cls-10" d="M15.3,6.3v.2l.7.2c.2,0,.5.2.3.6s0,.2,0,.3h.3s0-.2.1-.2h0a.1.1,0,0,0,.1-.1h0c-.2,0-.2-.2,0-.2h0c0-.1-.1-.1-.1-.2h-.1c-.1,0-.1-.1-.1-.2h-1s-.1-.1,0-.1h-.1A.1.1,0,0,1,15.3,6.3Z"/><path class="cls-7" d="M15,6.1c0-.1,0-.2.1-.2h-.3C15,5.9,15,6,15,6.1Z"/><path class="cls-7" d="M15.1,6.3h0c.1,0,0-.1,0-.1s-.1.1,0,.1,0,.2-.1.2.1.1.1.2a.1.1,0,0,1-.1.1c.1.1.1.1,0,.2h.1Z"/><path class="cls-7" d="M14.9,6.7s-.1-.1,0-.1-.1-.2.1-.2-.2-.1-.1-.2h0a.1.1,0,0,0-.1.1h0a1.5,1.5,0,0,0,.1.6h0Z"/><path class="cls-10" d="M15.1,5.9c0-.1.1-.1.1-.2a.3.3,0,0,0-.1-.2h.1V5.2h-.5v.2h.2c-.1,0-.1.1-.1.2v.2h.3Z"/><path class="cls-10" d="M14.8,6.3h-.1v.2a.9.9,0,0,0,.1.5h.1A1.5,1.5,0,0,1,14.8,6.3Z"/><path class="cls-10" d="M15.3,6.3h-.2v.6h0c.1-.2.2-.3.2-.5Z"/><path class="cls-10" d="M14.7,6.3h.1a.1.1,0,0,1,.1-.1h0c-.1.1,0,.2.1.2s.1-.1.1-.2,0-.1,0-.1.1.1,0,.1h.2a.1.1,0,0,0,.1.1h.1c.1-.1,0-.1-.1-.1s-.1,0-.1-.1l-.2-.2h0c-.1,0-.1.1-.1.2s0-.2-.2-.2h0c-.1,0-.1.1-.1.2s-.1.2-.2.1h-.1c.1,0,.1,0,.1.1Z"/><path class="cls-10" d="M14.9,6.6h.2c0-.1,0-.2-.1-.2S14.8,6.5,14.9,6.6Z"/><path class="cls-6" d="M14.4,6.5c.1,0,.1-.1,0-.1h0C14.3,6.4,14.3,6.5,14.4,6.5Z"/><path class="cls-6" d="M14.2,6.5h0Z"/><path class="cls-6" d="M13.9,6.5H14c0-.1,0-.2-.1-.2a.1.1,0,0,0,0,.2Z"/><path class="cls-6" d="M13.6,6.6h0v.2Z"/><path class="cls-6" d="M13.3,6.8c.1,0,.2-.1.1-.2h-.1s-.1.1,0,.1Z"/><path class="cls-6" d="M13.2,6.9h0c-.2,0-.2.2,0,.2h0C13.3,7.1,13.3,6.9,13.2,6.9Z"/><path class="cls-6" d="M13.2,7.2h0c-.1.1-.1.3,0,.3h.1C13.4,7.4,13.4,7.2,13.2,7.2Z"/><path class="cls-6" d="M15.5,6.5h0C15.4,6.4,15.5,6.5,15.5,6.5Z"/><path class="cls-6" d="M15.8,6.5h0Z"/><path class="cls-6" d="M16,6.5h.1c0-.1,0-.2-.1-.2s-.1.1-.1.2Z"/><path class="cls-6" d="M16.3,6.6h.1c0-.1,0-.2-.1-.2h0Z"/><path class="cls-6" d="M16.6,6.8h.1a.1.1,0,0,0-.1-.1h-.1C16.5,6.7,16.5,6.8,16.6,6.8Z"/><path class="cls-6" d="M16.8,7.1h0c.1,0,.1-.2,0-.2h0C16.6,6.9,16.6,7.1,16.8,7.1Z"/><path class="cls-6" d="M16.6,7.4h.1c.1,0,.1-.2,0-.3h0C16.6,7.2,16.6,7.4,16.6,7.4Z"/><path class="cls-10" d="M15,6.5h-.1c-.1,0,0,.1,0,.1H15a.1.1,0,0,0,.1-.1Z"/><path class="cls-10" d="M15,6.7h-.1v.2c0-.1,0-.1.1-.1h0C15.1,6.8,15.1,6.8,15,6.7Z"/><path class="cls-10" d="M13.8,8.2A3,3,0,0,1,15,7.9a3.5,3.5,0,0,1,1.2.3h0V7.9L15,7.6a5.8,5.8,0,0,0-1.4.3v.2h.1ZM16.1,8c.1,0,.1.1,0,.1Zm-.2-.1h0c-.1,0-.2-.1-.1-.1S15.9,7.8,15.9,7.9Zm-.3-.1c.1,0,.1.1,0,.1Zm-.1-.1c.1,0,.1.1,0,.1S15.4,7.7,15.5,7.7Zm0,.1h0C15.4,7.9,15.4,7.8,15.5,7.8Zm-.2-.1c.1,0,.1.1,0,.1Zm-.3,0h0Zm-.4,0c.1,0,.1.1,0,.1S14.5,7.7,14.6,7.7Zm-.1.2c-.1,0-.1-.1,0-.1Zm-.1-.2c.1,0,.1.1,0,.1Zm-.1.1c.1,0,.1.1,0,.1S14.2,7.8,14.3,7.8Zm-.3.1c.1-.1.2-.1.2,0H14Zm-.2.1c.1,0,.1.1,0,.1S13.7,8,13.8,8Z"/><path class="cls-10" d="M13.8,8.3h2.3L15,8.1Z"/><path class="cls-10" d="M15,7.5a5.8,5.8,0,0,1,1.4.3h0l.3-.3h-.4c0-.1.1-.2,0-.3h0a.4.4,0,0,0-.4.2.6.6,0,0,0,.1-.4.5.5,0,0,0-.4.3.4.4,0,0,0,0-.5l-.4.4a.4.4,0,0,0-.1-.3H15c-.1,0-.1,0-.1.1h-.1v.3c0-.2-.1-.3-.3-.4a.4.4,0,0,0,0,.5.5.5,0,0,0-.4-.3.3.3,0,0,0,0,.4.4.4,0,0,0-.4-.2h0a.4.4,0,0,0,.1.3h-.5l.4.3h0A4.9,4.9,0,0,1,15,7.5Z"/><path class="cls-10" d="M16.3,7.9h0c.1,0,.1-.1.1-.2h0A5.8,5.8,0,0,0,15,7.5a4.9,4.9,0,0,0-1.4.3h0a.1.1,0,0,0,0,.2h0A5.8,5.8,0,0,1,15,7.6Z"/><path class="cls-10" d="M13.8,8.4h0L15,8.1l1.1.2h0c.1.1.1,0,.1-.1h0A3.5,3.5,0,0,0,15,7.9a3,3,0,0,0-1.2.3h-.1c0,.1,0,.1.1.2Z"/><path class="cls-10" d="M14.5,7.9h0C14.4,7.8,14.4,7.9,14.5,7.9Z"/><path class="cls-10" d="M14.6,7.8c.1,0,.1-.1,0-.1S14.5,7.8,14.6,7.8Z"/><path class="cls-10" d="M14.4,7.8c.1,0,.1-.1,0-.1Z"/><path class="cls-10" d="M14.3,7.9c.1,0,.1-.1,0-.1S14.2,7.9,14.3,7.9Z"/><path class="cls-10" d="M13.8,8.1c.1,0,.1-.1,0-.1S13.7,8.1,13.8,8.1Z"/><path class="cls-10" d="M15.5,7.9h0C15.4,7.8,15.4,7.9,15.5,7.9Z"/><path class="cls-10" d="M15.3,7.8c.1,0,.1-.1,0-.1Z"/><path class="cls-10" d="M15.5,7.8c.1,0,.1-.1,0-.1S15.4,7.8,15.5,7.8Z"/><path class="cls-10" d="M15.6,7.9c.1,0,.1-.1,0-.1Z"/><path class="cls-10" d="M16.1,8.1c.1,0,.1-.1,0-.1Z"/><path class="cls-8" d="M14.1,8h.1c0-.1-.1-.1-.2,0h.1Z"/><path class="cls-8" d="M15.9,8h0c0-.1-.1-.1-.1,0S15.8,8,15.9,8Z"/><path class="cls-4" d="M15,7.8h0Z"/></g></svg>