<svg xmlns="http://www.w3.org/2000/svg" viewBox="0 0 30 20"><defs><style>.cls-1{fill:#fff;}.cls-2{fill:#fafafa;}.cls-3{fill:#1b874c;}.cls-4{fill:#ec2f36;}</style></defs><title>dz</title><g id="Layer_96" data-name="Layer 96"><polygon class="cls-1" points="16.1 10 15 8.5 15 11.5 16.1 10"/><path class="cls-2" d="M27.4,0H15V4.9a4.8,4.8,0,0,1,2.6.7,5.5,5.5,0,0,1,1.9,1.8A4.3,4.3,0,0,0,15,6.1V8.5l1.8.6,1.1-1.5V9.4l1.8.6-1.8.6v1.8l-1.1-1.5-1.8.6v2.4a4,4,0,0,0,3.8-.7l.7-.6A5.3,5.3,0,0,1,15,15.1V20H27.4A2.5,2.5,0,0,0,30,17.5V2.5A2.5,2.5,0,0,0,27.4,0Z"/><path class="cls-3" d="M2.6,0A2.5,2.5,0,0,0,0,2.5v15A2.5,2.5,0,0,0,2.6,20H15V15.1a4.8,4.8,0,0,1-2.6-.7,5.2,5.2,0,0,1-1.9-7A5.3,5.3,0,0,1,15,4.9V0Z"/><path class="cls-3" d="M13,12.6a4.4,4.4,0,0,0,2,1.3V6.1a3.3,3.3,0,0,0-1.3.7A4.1,4.1,0,0,0,13,12.6Z"/><path class="cls-4" d="M10.5,7.4a5.2,5.2,0,0,0,1.9,7,4.8,4.8,0,0,0,2.6.7,5.3,5.3,0,0,0,4.5-2.5l-.7.6a4,4,0,0,1-3.8.7,4.4,4.4,0,0,1-2-1.3,4.1,4.1,0,0,1,.7-5.8A3.3,3.3,0,0,1,15,6.1a4.3,4.3,0,0,1,4.5,1.3,5.5,5.5,0,0,0-1.9-1.8A4.8,4.8,0,0,0,15,4.9,5.3,5.3,0,0,0,10.5,7.4Z"/><polygon class="cls-4" points="17.9 9.4 17.9 7.6 16.8 9.1 15 8.5 16.1 10 15 11.5 16.8 10.9 17.9 12.4 17.9 10.6 19.7 10 17.9 9.4"/></g></svg>