<svg xmlns="http://www.w3.org/2000/svg" viewBox="0 0 30 20"><defs><style>.cls-1{fill:#2cacdd;}.cls-2{fill:#2ab34b;}.cls-3{fill:#fbd632;}.cls-4{fill:#121212;}</style></defs><title>tz</title><g id="Layer_23" data-name="Layer 23"><path class="cls-1" d="M27.5,20A2.5,2.5,0,0,0,30,17.5V5L7.3,20Z"/><path class="cls-2" d="M2.5,0A2.5,2.5,0,0,0,0,2.5V15.2L22.9,0Z"/><polygon class="cls-3" points="7.3 20 30 5 30 3.4 5 20 7.3 20"/><polygon class="cls-3" points="22.9 0 0 15.2 0 16.8 25.1 0 22.9 0"/><path class="cls-4" d="M25.1,0,0,16.8v.7A2.5,2.5,0,0,0,2.5,20H5L30,3.4V2.5A2.5,2.5,0,0,0,27.5,0Z"/></g></svg>