<svg xmlns="http://www.w3.org/2000/svg" viewBox="0 0 30 20"><defs><style>.cls-1{fill:#21418c;}.cls-2{fill:#fff;}.cls-3{fill:#ce2028;}.cls-4{fill:#fbd118;}</style></defs><title>cv</title><g id="Layer_68" data-name="Layer 68"><path class="cls-1" d="M27.4,0H2.6A2.5,2.5,0,0,0,0,2.5V10H30V2.5A2.5,2.5,0,0,0,27.4,0ZM9.2,9.4,8.6,9l-.5.4.2-.6-.5-.4h.6l.2-.6.2.6h.7L9,8.8Zm2.6-.8-.6-.4-.5.4.2-.7-.5-.3H11l.2-.6.2.6h.7l-.5.3Zm2.6.8L13.8,9l-.5.4.2-.6L13,8.4h.6l.2-.6.2.6h.7l-.5.4Z"/><path class="cls-1" d="M0,17.5A2.5,2.5,0,0,0,2.6,20H27.4A2.5,2.5,0,0,0,30,17.5V14.4H0Zm13.6-2,.2-.6.2.6h.7l-.5.4.2.6-.6-.4-.5.4.2-.6-.5-.4Zm-2.6.9.2-.6.2.6h.7l-.5.3.2.7-.6-.4-.5.4.2-.7-.5-.3Zm-2.6-.9.2-.6.2.6h.7l-.5.4.2.6-.6-.4-.5.4.2-.6-.5-.4Z"/><polygon class="cls-2" points="15 11.5 15.8 11.5 15.4 11.2 15 11.5"/><polygon class="cls-2" points="15.6 13.3 16.3 13.3 15.8 13.7 16 14.3 15.4 13.9 14.9 14.3 15.1 13.7 14.6 13.3 15.2 13.3 15.4 13 7.1 13 7.2 13.3 7.9 13.3 7.4 13.7 7.6 14.3 7 13.9 6.5 14.3 6.7 13.7 6.2 13.3 6.8 13.3 7 13 0 13 0 14.4 30 14.4 30 13 15.5 13 15.6 13.3"/><polygon class="cls-2" points="6.7 11 6.2 10.6 6.8 10.6 7 10 0 10 0 11.5 6.5 11.5 6.7 11"/><polygon class="cls-2" points="7.9 10.6 7.4 11 7.5 11.5 15 11.5 15.1 11 14.6 10.6 15.2 10.6 15.4 10 7 10 7.2 10.6 7.9 10.6"/><polygon class="cls-2" points="6.6 11.5 7.4 11.5 7 11.2 6.6 11.5"/><polygon class="cls-2" points="15.6 10.6 16.3 10.6 15.8 11 15.9 11.5 30 11.5 30 10 15.5 10 15.6 10.6"/><polygon class="cls-3" points="16 11.6 15.8 11.5 15 11.5 14.9 11.6 15 11.5 7.5 11.5 7.6 11.6 7.4 11.5 6.6 11.5 6.5 11.6 6.5 11.5 0 11.5 0 13 7 13 7 12.7 7.1 13 15.4 13 15.4 12.7 15.5 13 30 13 30 11.5 15.9 11.5 16 11.6"/><polygon class="cls-4" points="11.4 7.6 11.2 7 11 7.6 10.4 7.6 10.9 7.9 10.7 8.6 11.2 8.2 11.8 8.6 11.6 7.9 12.1 7.6 11.4 7.6"/><polygon class="cls-4" points="8.8 8.4 8.6 7.8 8.4 8.4 7.8 8.4 8.3 8.8 8.1 9.4 8.6 9 9.2 9.4 9 8.8 9.5 8.4 8.8 8.4"/><polygon class="cls-4" points="6.2 10.6 6.7 11 6.5 11.5 6.5 11.6 6.6 11.5 7 11.2 7.4 11.5 7.6 11.6 7.5 11.5 7.4 11 7.9 10.6 7.2 10.6 7 10 7 10 7 10 6.8 10.6 6.2 10.6"/><polygon class="cls-4" points="6.2 13.3 6.7 13.7 6.5 14.3 7 13.9 7.6 14.3 7.4 13.7 7.9 13.3 7.2 13.3 7.1 13 7 12.7 7 13 6.8 13.3 6.2 13.3"/><polygon class="cls-4" points="8.1 16.5 8.6 16.1 9.2 16.5 9 15.9 9.5 15.5 8.8 15.5 8.6 14.9 8.4 15.5 7.8 15.5 8.3 15.9 8.1 16.5"/><polygon class="cls-4" points="10.7 17.4 11.2 17 11.8 17.4 11.6 16.7 12.1 16.4 11.4 16.4 11.2 15.8 11 16.4 10.4 16.4 10.9 16.7 10.7 17.4"/><polygon class="cls-4" points="13.3 16.5 13.8 16.1 14.4 16.5 14.2 15.9 14.7 15.5 14 15.5 13.8 14.9 13.6 15.5 13 15.5 13.5 15.9 13.3 16.5"/><polygon class="cls-4" points="14.6 10.6 15.1 11 15 11.5 14.9 11.6 15 11.5 15.4 11.2 15.8 11.5 16 11.6 15.9 11.5 15.8 11 16.3 10.6 15.6 10.6 15.5 10 15.4 10 15.4 10 15.2 10.6 14.6 10.6"/><polygon class="cls-4" points="14.6 13.3 15.1 13.7 14.9 14.3 15.4 13.9 16 14.3 15.8 13.7 16.3 13.3 15.6 13.3 15.5 13 15.4 12.7 15.4 13 15.2 13.3 14.6 13.3"/><polygon class="cls-4" points="14 8.4 13.8 7.8 13.6 8.4 13 8.4 13.5 8.8 13.3 9.4 13.8 9 14.4 9.4 14.2 8.8 14.7 8.4 14 8.4"/></g></svg>