<svg xmlns="http://www.w3.org/2000/svg" viewBox="0 0 30 20"><defs><style>.cls-1{fill:#d02a3e;}.cls-2{fill:#fafafa;}</style></defs><title>gl</title><g id="Layer_31" data-name="Layer 31"><path class="cls-1" d="M11.6,16.7A6.7,6.7,0,0,1,4.9,10H0v7.5A2.5,2.5,0,0,0,2.5,20h25A2.5,2.5,0,0,0,30,17.5V10H18.4A6.7,6.7,0,0,1,11.6,16.7Z"/><path class="cls-2" d="M27.5,0H2.5A2.5,2.5,0,0,0,0,2.5V10H4.9a6.8,6.8,0,0,1,13.5,0H30V2.5A2.5,2.5,0,0,0,27.5,0Z"/><path class="cls-1" d="M11.6,3.3A6.7,6.7,0,0,0,4.9,10H18.4A6.7,6.7,0,0,0,11.6,3.3Z"/><path class="cls-2" d="M11.6,16.7A6.7,6.7,0,0,0,18.4,10H4.9A6.7,6.7,0,0,0,11.6,16.7Z"/></g></svg>