<svg id="Flags" xmlns="http://www.w3.org/2000/svg" viewBox="0 0 30 20"><defs><style>.cls-1{fill:#005a9a;}.cls-2{fill:#ec174c;}.cls-3{fill:#fff;}</style></defs><title>kh</title><path class="cls-1" d="M27.5,0H2.6A2.5,2.5,0,0,0,0,2.5V5H30V2.5A2.5,2.5,0,0,0,27.5,0Z"/><path class="cls-1" d="M0,17.5A2.5,2.5,0,0,0,2.6,20H27.5A2.5,2.5,0,0,0,30,17.5V15H0Z"/><path class="cls-2" d="M0,6.7V15H30V5H0ZM7.5,14h.4v-.6h.4v-.5h.4v-.4h.2v-.3h.2l.3-.3V10.8c0-.2-.1-.4-.3-.4V9.3l.3.2V9h.1v.5h.1V9.3h0V9.1h.2V8.7h0a.2.2,0,0,1,.2.2h.2c0-.3-.2-.2-.2-.4h.1c.1.1.1,0,.1-.1s-.1-.1-.1-.2h.2c0-.1-.1-.1-.1-.2h.2a4.3,4.3,0,0,1,.1-.5h.1c0-.1,0-.1.1-.1h.1a.4.4,0,0,1,.1.5h.2c0,.1-.1.1-.1.2h.2c0,.1-.1.1-.1.2s0,.2.1.1h.1c0,.2-.1.1-.1.4h.1l.2-.2h.1v.8h1.8V8.8l.2.2h.3V8.8c-.1,0-.1,0-.1-.1h0s.1.1.1,0h.2V8.2H14c0-.1,0-.2.1-.1h.1V7.9L14,7.7h.2V7.3h-.1V7h.3V6.8c-.1,0,0-.1,0-.2h.1c0,.1.1.1.1,0V6.4a.1.1,0,0,1,.1-.1c0,.1.1.1.1,0s-.1-.1-.1-.2,0-.2,0-.2h.4s0-.2.1-.2.1.2.1.2h.4c.1,0,.1.2,0,.2s-.1.1-.1.2.1.1.1,0,.1,0,.1.1v.2c0,.1.1.1.1,0h.2c0,.1,0,.2-.1.2V7h.2v.2h-.1v.2H16l-.2.2v.2h.1c.1-.1.1,0,.1.1h0a.4.4,0,0,0-.1.3h.2c0,.1.1,0,.1,0h-.1V9h.3l.2-.2v.7h1.8V8.7h.1c.1,0,.1.1.2.2h.1c0-.3-.1-.2-.1-.4h.1c.1.1.1,0,.1-.1s-.1-.1-.1-.2H19c0-.1-.1-.1-.1-.2h.2a.4.4,0,0,1,.1-.5h.1c.1,0,.1,0,.1.1h.1a4.3,4.3,0,0,1,.1.5h.2c0,.1-.1.1-.1.2h.2c0,.1-.1.1-.1.2s0,.2.1.1H20c0,.2-.1.1-.1.4H20a.2.2,0,0,1,.2-.2h0v.4h.2v.2h0v.2h.1V9h.1v.5l.3-.2v1.1c-.2,0-.3.2-.3.4v1.1l.3.3h.2v.3h.3v.4h.3v.5h.4V14h.4v.6H7.5Z"/><path class="cls-3" d="M11.2,10.3h-.3v1.5h3.9V10.4H13.4V9.5H12v.3h-.1V9.5h-.3v.8Z"/><polygon class="cls-3" points="11.1 12.2 14.6 12.2 14.8 12.2 14.8 11.9 10.9 11.9 10.9 12.2 11.1 12.2"/><path class="cls-3" d="M10.4,10.4H9.8c0-.2-.2-.5-.4-.5V9.5l-.3-.2v1.1c.2,0,.3.2.3.4v1.1h1Z"/><path class="cls-3" d="M19.6,12.2h1.3l-.3-.3h-1Z"/><polygon class="cls-3" points="15.4 12.2 18.9 12.2 19.1 12.2 19.1 11.9 15.2 11.9 15.2 12.2 15.4 12.2"/><path class="cls-3" d="M10.4,12.2v-.3h-1l-.3.3h1.3Z"/><path class="cls-3" d="M9.6,9.8V9.5H9.5v.2A.1.1,0,0,1,9.6,9.8Z"/><path class="cls-3" d="M20.2,10.3h-.6v1.5h1V10.8c0-.2.1-.4.3-.4V9.3l-.3.2v.3C20.4,9.8,20.2,10.1,20.2,10.3Z"/><path class="cls-3" d="M15.5,10.3h-.3v1.5h3.9V10.4h-.7V9.5h-.2v.3H18V9.5H16.6v.8Z"/><path class="cls-3" d="M20.5,9.7V9.5h-.1v.3Z"/><polygon class="cls-3" points="19.8 12.5 21.1 12.5 21.1 12.2 20.9 12.2 19.8 12.2 19.8 12.5"/><rect class="cls-3" x="15.4" y="12.2" width="3.5" height="0.3"/><polygon class="cls-3" points="10.2 12.2 9.1 12.2 8.9 12.2 8.9 12.5 10.2 12.5 10.2 12.2"/><rect class="cls-3" x="11.1" y="12.2" width="3.5" height="0.3"/><rect class="cls-3" x="15.4" y="12.5" width="3.5" height="0.43"/><rect class="cls-3" x="11.1" y="12.5" width="3.5" height="0.43"/><polygon class="cls-3" points="10.2 12.5 8.9 12.5 8.7 12.5 8.7 12.9 10.2 12.9 10.2 12.5"/><polygon class="cls-3" points="19.8 12.9 21.4 12.9 21.4 12.5 21.1 12.5 19.8 12.5 19.8 12.9"/><polygon class="cls-3" points="10.2 12.9 8.7 12.9 8.3 12.9 8.3 13.4 10.2 13.4 10.2 12.9"/><rect class="cls-3" x="11.1" y="12.9" width="3.5" height="0.49"/><polygon class="cls-3" points="19.8 13.4 21.7 13.4 21.7 12.9 21.4 12.9 19.8 12.9 19.8 13.4"/><rect class="cls-3" x="15.4" y="12.9" width="3.5" height="0.49"/><polygon class="cls-3" points="10.2 13.4 8.3 13.4 7.9 13.4 7.9 14 10.2 14 10.2 13.4"/><rect class="cls-3" x="11.1" y="13.4" width="3.5" height="0.6"/><polygon class="cls-3" points="19.8 14 22.1 14 22.1 13.4 21.7 13.4 19.8 13.4 19.8 14"/><rect class="cls-3" x="15.4" y="13.4" width="3.5" height="0.6"/><polygon class="cls-3" points="19.8 14.6 22.5 14.6 22.5 14 22.1 14 19.8 14 19.8 14.6"/><polygon class="cls-3" points="10.2 14 7.9 14 7.5 14 7.5 14.6 10.2 14.6 10.2 14"/><rect class="cls-3" x="11.1" y="14" width="3.5" height="0.61"/><rect class="cls-3" x="15.4" y="14" width="3.5" height="0.61"/><path class="cls-3" d="M9.8,10.3h.3v-.2h.2l-.2-.3V9.4h.2l-.2-.2V8.9l.2.2h0V8.5h.2l-.2-.2h.1V7.9h.2a.1.1,0,0,1,.1-.1h.2c-.1,0-.1,0-.1.1h.1v.2h-.1a.1.1,0,0,1,.1.1h0a.1.1,0,0,1,.1-.1h0v.2h.2v.2c-.1,0-.1.1-.2.2s.1.1.1.2h0l.2-.2v.4l-.2.2h.2v.3L11,10h.2v.2h.4V8.7h-.1l-.2.2h-.1c0-.3.1-.2.1-.4h-.1c-.1.1-.1,0-.1-.1s.1-.1.1-.2H11c0-.1.1-.1.1-.2h-.2a.4.4,0,0,0-.1-.5h-.1c-.1,0-.1,0-.1.1h-.1a4.3,4.3,0,0,0-.1.5h-.2c0,.1.1.1.1.2h-.2c0,.1.1.1.1.2s0,.2-.1.1H10c0,.2.2.1.2.4H10a.2.2,0,0,0-.2-.2h0v.6h0Z"/><polygon class="cls-3" points="10.9 11.9 10.9 10.4 10.4 10.4 10.4 11.9 10.4 12.2 10.9 12.2 10.9 11.9"/><polygon class="cls-3" points="10.4 12.2 10.2 12.2 10.2 12.5 10.2 12.9 10.2 13.4 10.2 14 10.2 14.6 10.4 14.6 10.4 12.2"/><polygon class="cls-3" points="11.1 13.4 11.1 12.9 11.1 12.5 11.1 12.2 10.9 12.2 10.9 14.6 11.1 14.6 11.1 14 11.1 13.4"/><rect class="cls-3" x="10.4" y="12.2" width="0.5" height="2.43"/><path class="cls-3" d="M9.8,10.3v-1H9.6v.5a.1.1,0,0,0-.1-.1V9H9.4v.8C9.6,9.8,9.8,10.1,9.8,10.3Z"/><path class="cls-3" d="M9.6,9.1v.2h.2V9.1Z"/><path class="cls-3" d="M12,9.8V9.5h-.1v.3Z"/><path class="cls-3" d="M18.8,10.3v-.2H19l-.2-.3V9.4H19l-.2-.2V8.9l.2.2h0V8.9a.2.2,0,0,0-.2-.2V8.5h.2V8.3h0a.1.1,0,0,1,.1.1h0V7.9h.1a.1.1,0,0,0,.1-.1.1.1,0,0,1,.1.1h.2v.2h0c0-.1,0-.1.1-.1h0l-.2.2h.2v.6h0l.2-.2v.4l-.2.2h.2v.3l-.2.3h.2v.2h.3v-1h0V8.7h0a.2.2,0,0,0-.2.2h-.1c0-.3.1-.2.1-.4h-.1c-.1.1-.1,0-.1-.1s.1-.1.1-.2h-.2c0-.1.1-.1.1-.2h-.2a4.3,4.3,0,0,0-.1-.5h-.1c0-.1,0-.1-.1-.1h-.1a.4.4,0,0,0-.1.5h-.2c0,.1.1.1.1.2h-.2c0,.1.1.1.1.2s0,.2-.1.1h-.1c0,.2.1.1.1.4h-.1c-.1-.1-.1-.2-.2-.2h-.1v1.6Z"/><polygon class="cls-3" points="19.6 12.2 19.6 11.9 19.6 10.4 19.1 10.4 19.1 11.9 19.1 12.2 19.6 12.2"/><polygon class="cls-3" points="19.8 13.4 19.8 12.9 19.8 12.5 19.8 12.2 19.6 12.2 19.6 14.6 19.8 14.6 19.8 14 19.8 13.4"/><polygon class="cls-3" points="19.1 12.2 18.9 12.2 18.9 12.5 18.9 12.9 18.9 13.4 18.9 14 18.9 14.6 19.1 14.6 19.1 12.2"/><rect class="cls-3" x="19.1" y="12.2" width="0.5" height="2.43"/><path class="cls-3" d="M20.2,10.3c0-.2.2-.5.4-.5V9h-.1v.7h-.1V9.3h-.2Z"/><path class="cls-3" d="M20.4,9.3V9.1h-.2v.2Z"/><path class="cls-3" d="M18.2,9.8V9.5H18v.3Z"/><path class="cls-3" d="M16.3,8.5h0Z"/><path class="cls-3" d="M13.8,8.5h0Z"/><path class="cls-3" d="M15.8,8.9h-.1c-.2,0-.2.2-.2.5h.1v.4h-.1v.5h1.1V8.8l-.2.2h-.3V8.8h.1s-.1.1-.1,0h-.2v.3Z"/><path class="cls-3" d="M14.5,10.3V9.8h-.1V9.4h.1c0-.3,0-.5-.2-.5h-.2V8.5h-.2c0,.1-.1,0-.1,0h0c0,.1,0,.1.1.1V9h-.3l-.2-.2v1.5Z"/><path class="cls-3" d="M14.2,8.9h.1V8.6c.1,0,.2.1.2.3h.1a.4.4,0,0,1,.1-.3l-.2-.3h0V8l.2.2h0a.4.4,0,0,1,.1-.3h-.3V7.4l.2.2h0V7.4a.2.2,0,0,0-.2-.2h0V6.9l.2.2h0V6.9h-.2V6.6a.1.1,0,0,1,.1.1h.1c0-.1,0-.2.1-.2s.1.1.1.2h0a.1.1,0,0,0,.1-.1h-.1s.1.1,0,.1h.1a.1.1,0,0,1,.1-.1v.2h-.1v.2h0l.2-.2v.2h0l-.2.2v.2h0l.2-.2v.3h-.3a.4.4,0,0,1,.1.3h.1l.2-.2v.2h0c-.1,0-.2.1-.2.3v.3h.1c0-.2.1-.3.2-.3v.3h.2V8.5h0a.4.4,0,0,1,.1-.3h0c0-.1,0-.2-.1-.1h-.1V7.9l.2-.2h-.2V7.3h.1V7h-.2V6.8c.1,0,.1-.1.1-.2h-.2c0,.1-.1.1-.1,0V6.4c0-.1,0-.1-.1-.1s-.1.1-.1,0,.1-.1.1-.2h-1c0,.1.1.1.1.2s-.1.1-.1,0a.1.1,0,0,0-.1.1v.2c0,.1-.1.1-.1,0h-.1c0,.1-.1.2,0,.2V7h-.3v.2h.1v.2H14l.2.2v.2h-.1c-.1-.1-.1,0-.1.1h.1v.3h0v.3Z"/><path class="cls-3" d="M14.7,10.2h0a.8.8,0,0,1,.1-.4h-.3V10Z"/><path class="cls-3" d="M15.3,10.2h0l.2-.2V9.8h-.3A.8.8,0,0,1,15.3,10.2Z"/><path class="cls-3" d="M13.8,8.5h0Z"/><path class="cls-3" d="M16.3,8.6h0Z"/><polygon class="cls-3" points="15.4 13.4 15.4 12.9 15.4 12.5 15.4 12.2 15.2 12.2 15.2 14.6 15.4 14.6 15.4 14 15.4 13.4"/><polygon class="cls-3" points="14.8 12.2 14.6 12.2 14.6 12.5 14.6 12.9 14.6 13.4 14.6 14 14.6 14.6 14.8 14.6 14.8 12.2"/><rect class="cls-3" x="14.8" y="12.2" width="0.5" height="2.43"/><polygon class="cls-3" points="15.2 12.2 15.2 11.9 15.2 10.4 14.8 10.4 14.8 11.9 14.8 12.2 15.2 12.2"/><path class="cls-3" d="M15.5,5.9h-1s-.1.2,0,.2h1C15.6,6.1,15.6,5.9,15.5,5.9Z"/><path class="cls-3" d="M15.4,5.8h0Z"/><path class="cls-3" d="M15.3,5.7h0Z"/><path class="cls-3" d="M15,5.4c-.1,0-.1.2-.1.2h.2S15.1,5.4,15,5.4Z"/><path class="cls-3" d="M10.7,7.8h.1c0-.1,0-.1.1-.1h-.2a.1.1,0,0,0-.1.1h0C10.6,7.8,10.6,7.8,10.7,7.8Z"/><path class="cls-3" d="M10.7,8v.2h.1V7.9h-.2c-.1,0-.1,0-.1.1h-.2v.2h.1Z"/><path class="cls-3" d="M10.7,8.2c0,.1.1.2.2.3V8.3h0a.1.1,0,0,0-.1.1h0a.1.1,0,0,0-.1-.1V8l-.2.2h-.2l.2.2Z"/><path class="cls-3" d="M10.7,8.5a.5.5,0,0,1,.2.4c.1-.1.1-.2.2-.2V8.5h-.2c-.1-.1-.2-.2-.2-.3l-.2.3h-.2v.4Z"/><path class="cls-3" d="M10.3,9.6h.1a.7.7,0,0,1,.3-.6,1.1,1.1,0,0,1,.3.6h0l.2-.2V8.9l-.2.2h0c0-.1,0-.2-.1-.2a.5.5,0,0,0-.2-.4l-.3.4v.2h0l-.2-.2v.4l.2.2Z"/><path class="cls-3" d="M10.7,9.5a1.1,1.1,0,0,1,.3.5l.2-.3V9.4H11a1.1,1.1,0,0,0-.3-.6.7.7,0,0,0-.3.6h-.3v.3l.2.3A1.1,1.1,0,0,1,10.7,9.5Z"/><path class="cls-3" d="M10.4,10.3h0a1.1,1.1,0,0,1,.3-.6,1.1,1.1,0,0,1,.2.6h0l.2-.2H11a1.1,1.1,0,0,0-.3-.5,1.1,1.1,0,0,0-.4.5h0C10.3,10.2,10.4,10.2,10.4,10.3Z"/><path class="cls-3" d="M11.2,10.4h0v-.2h-.1l-.2.2h0a1.1,1.1,0,0,0-.2-.6,1.1,1.1,0,0,0-.3.6h0c0-.1-.1-.1-.1-.2h-.2v.2h1.1Z"/><path class="cls-3" d="M19.3,7.8c.1,0,.1,0,.1.1h0a.1.1,0,0,0-.1-.1.1.1,0,0,1-.1.1h.1Z"/><path class="cls-3" d="M19.3,8l.2.2h.1V7.9h-.2c0-.1,0-.1-.1-.1h-.2v.2h.1Z"/><path class="cls-3" d="M19.3,8.2l.2.3.2-.2h0c-.1,0-.1,0-.1.1h-.1L19.3,8v.2h-.1a.1.1,0,0,0-.1-.1h0v.2C19.2,8.4,19.3,8.3,19.3,8.2Z"/><path class="cls-3" d="M19.3,8.5l.3.4V8.5h-.2l-.2-.3c0,.1-.1.2-.2.3h-.2v.2a.2.2,0,0,1,.2.2C19.1,8.7,19.3,8.6,19.3,8.5Z"/><path class="cls-3" d="M19,9.6h0a1.1,1.1,0,0,1,.3-.6.7.7,0,0,1,.3.6h.1l.2-.2V8.9l-.2.2h0V8.9l-.3-.4c0,.1-.2.2-.2.4v.2h0l-.2-.2v.4l.2.2Z"/><path class="cls-3" d="M19.3,9.5a.7.7,0,0,1,.4.5l.2-.3V9.4h-.3a.7.7,0,0,0-.3-.6,1.1,1.1,0,0,0-.3.6h-.2v.3l.2.3A1.1,1.1,0,0,1,19.3,9.5Z"/><path class="cls-3" d="M19.1,10.3h0a1.1,1.1,0,0,1,.2-.6,1.1,1.1,0,0,1,.3.6h0c0-.1.1-.1.1-.2h0a.7.7,0,0,0-.4-.5,1.1,1.1,0,0,0-.3.5h-.1Z"/><path class="cls-3" d="M19.9,10.4h0v-.2h-.2c0,.1-.1.1-.1.2h0a1.1,1.1,0,0,0-.3-.6,1.1,1.1,0,0,0-.2.6h0l-.2-.2h-.1v.2h1.1Z"/><path class="cls-3" d="M15,6.4v.2h.1a.1.1,0,0,1-.1.1h0c0-.1,0-.2-.1-.2s-.1.1-.1.2h0Z"/><path class="cls-3" d="M15,6.7l.2.2h.1V6.6a.1.1,0,0,0-.1.1h-.1c.1,0,0-.1,0-.1v0h-.1a.1.1,0,0,0-.1-.1v.2h.2A.3.3,0,0,1,15,6.7Z"/><path class="cls-3" d="M15,7.1c.1.1.2.2.2.3l.2-.2h0V6.9l-.2.2h0V6.9L15,6.7a.3.3,0,0,0-.1.2v.2h0l-.2-.2v.2h0a.2.2,0,0,1,.2.2Z"/><path class="cls-3" d="M15,7.7h.5V7.4l-.2.2h0V7.4c0-.1-.1-.2-.2-.3l-.2.3v.2h0l-.2-.2v.3H15Z"/><path class="cls-3" d="M14.9,7.8h0Z"/><path class="cls-3" d="M15.2,7.9h-.1A.1.1,0,0,1,15.2,7.9Z"/><path class="cls-3" d="M15,8.2h.6V8l-.2.2h-.1a.4.4,0,0,0-.1-.3.1.1,0,0,0-.1-.1h-.3a.4.4,0,0,0-.1.3h0L14.5,8v.2H15Z"/><path class="cls-3" d="M15.4,8.6c0-.2.1-.3.2-.3h-.4Z"/><path class="cls-3" d="M14.9,8.3h-.4l.2.3Z"/><path class="cls-3" d="M15,8.8l.2.2h.5V8.6c-.1,0-.2.1-.2.3h-.1V8.6l-.2-.3h-.3l-.2.3a.4.4,0,0,0-.1.3h-.1c0-.2-.1-.3-.2-.3v.3h.5Z"/><path class="cls-3" d="M15.4,9.7h0V9.5c0-.3,0-.5.2-.5h-.5A2.5,2.5,0,0,1,15.4,9.7Z"/><path class="cls-3" d="M14.6,9.7h0a2.5,2.5,0,0,1,.2-.7h-.5c.2,0,.2.2.2.5Z"/><path class="cls-3" d="M15,9.6c.1.1.2.1.2.2h.4V9.4h-.1v.2h0a2.5,2.5,0,0,0-.2-.7L15,8.8l-.2.2a2.5,2.5,0,0,0-.2.7h0V9.5h-.1v.4h.4C14.8,9.7,14.9,9.7,15,9.6Z"/><path class="cls-3" d="M15.5,10.4h0V10l-.2.2h0a.8.8,0,0,0-.1-.4c0-.1-.1-.1-.2-.2s-.2.1-.2.2a.8.8,0,0,0-.1.4h0l-.2-.2v.3h1Z"/></svg>