<svg xmlns="http://www.w3.org/2000/svg" viewBox="0 0 300 150"><defs><style>.a{fill:#da121a;}.b{fill:#fcdd09;}.c{fill:#078930;}.d{fill:#0f47af;}.e{stroke:#fcdd09;stroke-width:1.67px;}</style></defs><rect class="a" width="300" height="150"/><rect class="b" width="300" height="100"/><rect class="c" width="300" height="50"/><circle class="d" cx="150" cy="75" r="50"/><path class="b" d="M112,62.48H141l6.57-20.22,1.75,5.39L139.79,77,137,75l3-9.16H116.55L112,62.48m14.53,44.73,9-27.64-17.2-12.5h5.67l25,18.16-2.84,2.06-7.8-5.66-7.22,22.24-4.59,3.34m47,0L150,90.12l-17.2,12.5,1.75-5.39,25-18.16,1.08,3.33-7.79,5.66,18.92,13.75,1.75,5.4M188,62.48,164.53,79.57l6.57,20.22-4.59-3.33L157,67.07h3.51l3,9.16,18.92-13.75H188M150,34.84l9,27.64h21.26l-4.58,3.34h-30.9l1.08-3.34h9.64l-7.23-22.24,1.75-5.4Z"/><path class="e" d="M150,93.33V115M132.56,80.67,112,87.36m27.26-27.19L126.49,42.64m34.29,17.53,12.73-17.53m-6.07,38L188,87.36Z"/></svg>