<svg xmlns="http://www.w3.org/2000/svg" viewBox="0 0 30 20"><defs><style>.cls-1{fill:#fafafa;}.cls-2{fill:#010101;}.cls-3{fill:#ce2028;}.cls-4{fill:#1e4384;}</style></defs><title>kr</title><g id="Layer_46" data-name="Layer 46"><path class="cls-1" d="M27.4,0H2.6A2.5,2.5,0,0,0,0,2.5v15A2.5,2.5,0,0,0,2.6,20H27.4A2.5,2.5,0,0,0,30,17.5V2.5A2.5,2.5,0,0,0,27.4,0ZM22.7,1.8l1.3,2-.7.4L22,2.3Zm-1,.7,2.8,4.2-.7.5L21,3Zm1,9.6.7.5-1.3,1.9-.7-.5ZM21.4,6l.7-.5,1.3,1.9-.7.5Zm2.4,6.8.7.5-1.3,1.9-.7-.5ZM20.6,3.2l1.3,2-.7.4L19.9,3.7Zm-10.5.5L7.3,7.9l-.7-.5L9.4,3.2ZM9,3,6.2,7.2l-.7-.5L8.3,2.5ZM7.5,14.7l-.7.5L5.5,13.3l.7-.5ZM7.3,1.8l.7.5L5.2,6.5,4.5,6Zm0,16.4L4.5,14l.7-.5L8,17.7Zm1-.7L7,15.5l.7-.4L9,17Zm1.1-.7L6.6,12.6l.7-.5,2.8,4.2Zm2.8-2.6a5,5,0,0,1-1.5-6.8c0-.1,0-.1.1-.2a5.1,5.1,0,0,1,7-1.4,5,5,0,0,1,1.4,7A5.1,5.1,0,0,1,12.2,14.2Zm7.7,2.1,1.3-1.9.7.4-1.3,2ZM21,17l1.3-1.9.7.4-1.3,2Zm1.7,1.2-.7-.5,1.3-1.9.7.4Zm1.5-2.3-.7-.5,1.3-1.9.7.5Zm.6-9.4L23.5,4.6l.7-.5L25.5,6Z"/><polygon class="cls-2" points="21.9 5.2 20.6 3.2 19.9 3.7 21.2 5.6 21.9 5.2"/><polygon class="cls-2" points="23.4 7.4 22.1 5.5 21.4 6 22.7 7.9 23.4 7.4"/><polygon class="cls-2" points="24.5 6.7 21.7 2.5 21 3 23.8 7.2 24.5 6.7"/><polygon class="cls-2" points="24 3.8 22.7 1.8 22 2.3 23.3 4.2 24 3.8"/><polygon class="cls-2" points="23.5 4.6 24.8 6.5 25.5 6 24.2 4.1 23.5 4.6"/><polygon class="cls-2" points="6.6 12.6 9.4 16.8 10.1 16.3 7.3 12.1 6.6 12.6"/><polygon class="cls-2" points="6.8 15.2 7.5 14.7 6.2 12.8 5.5 13.3 6.8 15.2"/><polygon class="cls-2" points="7 15.5 8.3 17.5 9 17 7.7 15.1 7 15.5"/><polygon class="cls-2" points="4.5 14 7.3 18.2 8 17.7 5.2 13.5 4.5 14"/><polygon class="cls-2" points="7.3 7.9 10.1 3.7 9.4 3.2 6.6 7.4 7.3 7.9"/><polygon class="cls-2" points="6.2 7.2 9 3 8.3 2.5 5.5 6.7 6.2 7.2"/><polygon class="cls-2" points="8 2.3 7.3 1.8 4.5 6 5.2 6.5 8 2.3"/><polygon class="cls-2" points="21.2 14.4 19.9 16.3 20.6 16.8 21.9 14.8 21.2 14.4"/><polygon class="cls-2" points="22.1 14.5 23.4 12.6 22.7 12.1 21.4 14 22.1 14.5"/><polygon class="cls-2" points="22.3 15.1 21 17 21.7 17.5 23 15.5 22.3 15.1"/><polygon class="cls-2" points="24.5 13.3 23.8 12.8 22.5 14.7 23.2 15.2 24.5 13.3"/><polygon class="cls-2" points="22 17.7 22.7 18.2 24 16.2 23.3 15.8 22 17.7"/><polygon class="cls-2" points="23.5 15.4 24.2 15.9 25.5 14 24.8 13.5 23.5 15.4"/><path class="cls-3" d="M10.7,7.4c0-.1,0-.1.1-.2S10.7,7.3,10.7,7.4Z"/><path class="cls-3" d="M17.8,5.8a5.1,5.1,0,0,0-7,1.4A2.5,2.5,0,1,0,15,10a2.5,2.5,0,1,1,4.2,2.8A5,5,0,0,0,17.8,5.8Z"/><path class="cls-4" d="M18.5,9.3A2.5,2.5,0,0,0,15,10a2.5,2.5,0,1,1-4.2-2.8c-.1.1-.1.1-.1.2a5,5,0,0,0,1.5,6.8,5.1,5.1,0,0,0,7-1.4A2.5,2.5,0,0,0,18.5,9.3Z"/></g></svg>