<svg xmlns="http://www.w3.org/2000/svg" viewBox="0 0 30 20"><defs><style>.cls-1{fill:#07509f;}.cls-2{fill:#ec2428;}.cls-3{fill:#fff;}</style></defs><title>kp</title><g id="Layer_66" data-name="Layer 66"><path class="cls-1" d="M27.4,0H2.6A2.5,2.5,0,0,0,0,2.5v.8H30V2.5A2.5,2.5,0,0,0,27.4,0Z"/><path class="cls-1" d="M0,17.5A2.5,2.5,0,0,0,2.6,20H27.4A2.5,2.5,0,0,0,30,17.5v-.8H0Z"/><path class="cls-2" d="M0,16.1H30V3.9H0ZM8.3,5.5a4.5,4.5,0,0,1,0,9,4.5,4.5,0,0,1,0-9Z"/><rect class="cls-3" y="3.3" width="30" height="0.56"/><rect class="cls-3" y="16.1" width="30" height="0.56"/><path class="cls-3" d="M8.3,14.5a4.5,4.5,0,0,0,0-9,4.5,4.5,0,0,0,0,9Zm-1-5.8,1-3,.9,3h3.2L9.8,10.5l1,3L8.3,11.7,5.7,13.5l1-3L4.1,8.7Z"/><polygon class="cls-2" points="6.7 10.5 5.7 13.5 8.3 11.7 10.8 13.5 9.8 10.5 12.4 8.7 9.2 8.7 8.3 5.7 7.3 8.7 4.1 8.7 6.7 10.5"/></g></svg>