<svg id="Flags" xmlns="http://www.w3.org/2000/svg" viewBox="0 0 30 20"><defs><style>.cls-1{fill:#fff;}.cls-2{fill:#bf2033;}.cls-3{fill:#213065;}</style></defs><title>Artboard 63</title><polygon class="cls-1" points="0 10.8 0 12.3 30 12.3 30 10.8 15.1 10.8 0 10.8"/><rect class="cls-1" x="15.1" y="7.7" width="14.9" height="1.54"/><rect class="cls-1" y="13.9" width="30" height="1.54"/><path class="cls-1" d="M0,17.5a3.6,3.6,0,0,0,.2,1H29.8a3.6,3.6,0,0,0,.2-1v-.6H0Z"/><path class="cls-1" d="M29.8,1.5H15.1V3.1H30V2.5A3.6,3.6,0,0,0,29.8,1.5Z"/><rect class="cls-1" x="15.1" y="4.6" width="14.9" height="1.54"/><path class="cls-2" d="M27.5,0H15.1V1.5H29.8A2.5,2.5,0,0,0,27.5,0Z"/><rect class="cls-2" x="15.1" y="3.1" width="14.9" height="1.54"/><rect class="cls-2" x="15.1" y="6.1" width="14.9" height="1.54"/><rect class="cls-2" x="15.1" y="9.2" width="14.9" height="1.54"/><rect class="cls-2" y="12.3" width="30" height="1.54"/><rect class="cls-2" y="15.4" width="30" height="1.54"/><path class="cls-2" d="M2.5,20h25a2.5,2.5,0,0,0,2.3-1.5H.2A2.5,2.5,0,0,0,2.5,20Z"/><path class="cls-3" d="M15.1,9.2V0H2.5A2.5,2.5,0,0,0,.6.9H1L1.2.4V.9h.4l-.3.2v.5l-.3-.3-.4.3V1.1L.6.9A2.3,2.3,0,0,0,0,2.5v8.3H15.1Zm-.9-1.1-.3-.3-.4.3V7.6l-.3-.2h.4l.2-.5v.5h.4l-.3.2ZM2.5,8v.4h.5l-.4.2.2.5-.4-.3-.4.3.2-.5-.4-.2h.5Zm1-.4-.4-.2h.5v0h.5l-.4.2.2.5-.4-.3-.4.3ZM3.1,3h.5V3h.5l-.4.3.2.4-.4-.2-.4.2.2-.4ZM5.6,3h.5V2.6l.2.4h.4l-.3.3v.4l-.4-.2-.3.2V3.3ZM8.2,3h.4l.2-.4V3h.5L9,3.3v.4l-.3-.2-.4.2V3.3Zm2.5,0h.5V3h.5l-.4.3.2.4-.4-.2-.4.2.2-.4Zm-.1,3.3-.3.2V7L10,6.7,9.7,7V6.5l-.3-.2h.4V5.9l.2.4Zm-.1,2.8-.4-.3-.4.3.2-.5-.4-.2H10v0h.5l-.4.2ZM8.1,6.3l-.4.2.2.5-.4-.3L7.1,7l.2-.5-.4-.2h.5V5.9l.2.4ZM7.9,9.1l-.3-.3-.4.3V8.6L7,8.4h.4L7.6,8v.4h.5l-.4.2Zm-1-4.9h.5V3.8l.2.4h.4l-.3.3v.4l-.4-.3-.3.3V4.5ZM9.2,6l-.4-.3L8.4,6l.2-.5-.4-.2h.5v0h.5L9,5.5ZM6.3,4.8v.5h.4l-.3.2V6l-.3-.3L5.9,6V5.5l-.3-.2h.4ZM11.7,6l-.4-.3L11,6V5.5l-.4-.2h.5V4.8l.2.5h.4l-.3.2ZM10.4,4.9l-.3-.3-.4.3V4.5l-.3-.3h.4l.2-.4v.4h.5l-.4.3Zm-6-.7h.5v0h.5l-.4.3.2.4L5,4.6l-.4.3.2-.4Zm-.7.6.2.5h.4l-.4.2.2.5-.4-.3L3.4,6V5.5l-.4-.2h.5ZM5,5.9v.4h.5l-.4.2V7L5,6.7,4.6,7l.2-.5-.4-.2h.4Zm.4,3.2L5,8.8l-.3.3V8.6l-.4-.2h.5V8l.2.4h.4l-.3.2ZM6,7.6l-.3-.2h.4V6.9l.2.5h.4l-.3.2v.5l-.4-.3-.3.3Zm2.6,0-.4-.2h.4l.2-.5v.5h.5L9,7.6v.5l-.3-.3-.4.3Zm2.5,0-.4-.2h.5V6.9l.2.5h.4l-.4.2.2.5-.4-.3-.3.3ZM13,9.1l-.4-.3-.3.3V8.6L12,8.4h.5V8l.2.4h.4l-.3.2Zm.2-2.8-.4.2V7l-.3-.3-.4.3.2-.5L12,6.3h.4l.2-.4v.4Zm1-.3-.3-.3-.4.3V5.5l-.3-.2h.4l.2-.5v.5h.5l-.4.2ZM13,4.9l-.4-.3-.4.3.2-.4L12,4.2h.5v0h.5l-.4.3Zm1.2-1.2-.4-.2-.3.2V3.3L13.2,3h.5V2.6L14,3h.4l-.3.3ZM13.8.4l.2.5h.4l-.3.2v.5l-.4-.3-.3.3V1.1L13.2.9h.5ZM12.7,1.9h.5l-.4.3v.4l-.3-.2-.4.2V2.2L12,1.9h.4l.2-.4ZM11.3.4V.9h.5l-.4.2.2.5-.4-.3-.4.3.2-.5L10.7.9h.5ZM10.2,1.9h.4l-.3.3v.4L10,2.4l-.3.2V2.2l-.4-.3h.5V1.5ZM8.8.4V.9h.5L9,1.1v.5l-.3-.3-.4.3V1.1L8.2.9h.4ZM7.6,1.9h.5l-.4.3.2.4-.4-.2-.4.2.2-.4-.4-.3h.5v0ZM6.2.4l.2.5h.4l-.3.2v.5l-.4-.3-.3.3V1.1L5.6.9h.5ZM5.1,1.9h.5l-.4.3v.4L5,2.4l-.4.2V2.2l-.3-.3h.4L5,1.5ZM3.7.4V.9h.5l-.4.2.2.5-.4-.3-.4.3.2-.5L3.1.9h.5ZM2.4,1.5l.2.4H3l-.3.3v.4l-.4-.2-.3.2V2.2l-.4-.3h.5ZM.6,3H1l.2-.4V3h.4l-.3.3v.4l-.3-.2-.4.2V3.3ZM1.9,4.2h.4l.2-.4v.4H3l-.3.3v.4l-.3-.3-.4.3V4.5ZM1.6,6l-.4-.3L.8,6,1,5.5.6,5.3H1l.2-.5v.5h.5l-.4.2Zm.8-.1.2.4H3l-.3.2V7l-.4-.3L2.1,7V6.5l-.3-.2h.4ZM.6,7.4H1l.2-.5v.5h.5l-.4.2v.5l-.3-.3-.4.3L1,7.6Zm1,2.8-.4-.3-.3.3V9.7L.6,9.5h.5V9l.2.5h.4l-.3.2Zm2.5,0-.3-.3-.4.3V9.7l-.3-.2h.4L3.8,9v.5h.5L4,9.7Zm2.6,0-.4-.3-.4.3.2-.5-.4-.2h.5v0h.5l-.4.2Zm2.5,0-.4-.3-.3.3V9.7l-.4-.2h.5V9l.2.5h.4l-.3.2Zm2.5,0-.3-.3-.4.3V9.7l-.3-.2h.4l.2-.5v.5H12l-.4.2Zm2.6,0-.4-.3-.4.3.2-.5-.4-.2h.5v0h.5l-.4.2Z"/><path class="cls-1" d="M.8,1.6l.4-.3.3.3V1.1L1.7.9H1.3V.4L1,.9H.6l.3.2Z"/><polygon class="cls-1" points="3.3 1.6 3.7 1.3 4.1 1.6 3.9 1.1 4.3 0.9 3.8 0.9 3.7 0.4 3.6 0.9 3.1 0.9 3.5 1.1 3.3 1.6"/><polygon class="cls-1" points="5.9 1.6 6.2 1.3 6.6 1.6 6.5 1.1 6.8 0.9 6.4 0.9 6.2 0.4 6.1 0.9 5.6 0.9 6 1.1 5.9 1.6"/><polygon class="cls-1" points="8.4 1.6 8.8 1.3 9.1 1.6 9 1.1 9.4 0.9 8.9 0.9 8.8 0.4 8.6 0.9 8.2 0.9 8.5 1.1 8.4 1.6"/><polygon class="cls-1" points="10.9 1.6 11.3 1.3 11.7 1.6 11.5 1.1 11.9 0.9 11.4 0.9 11.3 0.4 11.2 0.9 10.7 0.9 11.1 1.1 10.9 1.6"/><polygon class="cls-1" points="13.5 1.6 13.8 1.3 14.2 1.6 14.1 1.1 14.4 0.9 14 0.9 13.8 0.4 13.7 0.9 13.2 0.9 13.6 1.1 13.5 1.6"/><polygon class="cls-1" points="2.1 2.6 2.4 2.4 2.8 2.6 2.7 2.2 3 1.9 2.6 1.9 2.4 1.5 2.3 1.9 1.8 1.9 2.2 2.2 2.1 2.6"/><polygon class="cls-1" points="4.6 2.6 5 2.4 5.3 2.6 5.2 2.2 5.6 1.9 5.1 1.9 5 1.5 4.8 1.9 4.4 1.9 4.7 2.2 4.6 2.6"/><polygon class="cls-1" points="7.1 2.6 7.5 2.4 7.9 2.6 7.7 2.2 8.1 1.9 7.6 1.9 7.5 1.5 7.4 1.9 6.9 1.9 7.3 2.2 7.1 2.6"/><polygon class="cls-1" points="9.7 2.6 10 2.4 10.4 2.6 10.3 2.2 10.6 1.9 10.2 1.9 10 1.5 9.9 1.9 9.4 1.9 9.8 2.2 9.7 2.6"/><polygon class="cls-1" points="12.2 2.6 12.6 2.4 12.9 2.6 12.8 2.2 13.2 1.9 12.7 1.9 12.6 1.5 12.4 1.9 12 1.9 12.3 2.2 12.2 2.6"/><polygon class="cls-1" points="0.8 3.7 1.2 3.5 1.5 3.7 1.4 3.3 1.7 3 1.3 3 1.2 2.6 1 3 0.6 3 0.9 3.3 0.8 3.7"/><polygon class="cls-1" points="3.3 3.7 3.7 3.5 4.1 3.7 3.9 3.3 4.3 3 3.8 3 3.7 2.6 3.6 3 3.1 3 3.5 3.3 3.3 3.7"/><polygon class="cls-1" points="5.9 3.7 6.2 3.5 6.6 3.7 6.5 3.3 6.8 3 6.4 3 6.2 2.6 6.1 3 5.6 3 6 3.3 5.9 3.7"/><polygon class="cls-1" points="8.4 3.7 8.8 3.5 9.1 3.7 9 3.3 9.4 3 8.9 3 8.8 2.6 8.6 3 8.2 3 8.5 3.3 8.4 3.7"/><polygon class="cls-1" points="10.9 3.7 11.3 3.5 11.7 3.7 11.5 3.3 11.9 3 11.4 3 11.3 2.6 11.2 3 10.7 3 11.1 3.3 10.9 3.7"/><polygon class="cls-1" points="13.5 3.7 13.8 3.5 14.2 3.7 14.1 3.3 14.4 3 14 3 13.8 2.6 13.7 3 13.2 3 13.6 3.3 13.5 3.7"/><polygon class="cls-1" points="2.6 4.2 2.5 3.8 2.3 4.2 1.9 4.2 2.2 4.5 2.1 4.9 2.5 4.6 2.8 4.9 2.7 4.5 3 4.2 2.6 4.2"/><polygon class="cls-1" points="5.1 4.2 5 3.8 4.9 4.2 4.4 4.2 4.8 4.5 4.6 4.9 5 4.6 5.4 4.9 5.2 4.5 5.6 4.2 5.1 4.2"/><polygon class="cls-1" points="7.7 4.2 7.5 3.8 7.4 4.2 6.9 4.2 7.3 4.5 7.2 4.9 7.5 4.6 7.9 4.9 7.8 4.5 8.1 4.2 7.7 4.2"/><polygon class="cls-1" points="10.2 4.2 10.1 3.8 9.9 4.2 9.5 4.2 9.8 4.5 9.7 4.9 10.1 4.6 10.4 4.9 10.3 4.5 10.7 4.2 10.2 4.2"/><polygon class="cls-1" points="12.7 4.2 12.6 3.8 12.5 4.2 12 4.2 12.4 4.5 12.2 4.9 12.6 4.6 13 4.9 12.8 4.5 13.2 4.2 12.7 4.2"/><polygon class="cls-1" points="1.3 5.3 1.2 4.8 1 5.3 0.6 5.3 1 5.5 0.8 6 1.2 5.7 1.6 6 1.4 5.5 1.8 5.3 1.3 5.3"/><polygon class="cls-1" points="3.9 5.3 3.7 4.8 3.6 5.3 3.1 5.3 3.5 5.5 3.4 6 3.7 5.7 4.1 6 3.9 5.5 4.3 5.3 3.9 5.3"/><polygon class="cls-1" points="6.4 5.3 6.3 4.8 6.1 5.3 5.7 5.3 6 5.5 5.9 6 6.3 5.7 6.6 6 6.5 5.5 6.8 5.3 6.4 5.3"/><polygon class="cls-1" points="8.9 5.3 8.8 4.8 8.7 5.3 8.2 5.3 8.6 5.5 8.4 6 8.8 5.7 9.2 6 9 5.5 9.4 5.3 8.9 5.3"/><polygon class="cls-1" points="11.5 5.3 11.3 4.8 11.2 5.3 10.7 5.3 11.1 5.5 11 6 11.3 5.7 11.7 6 11.6 5.5 11.9 5.3 11.5 5.3"/><polygon class="cls-1" points="14 5.3 13.9 4.8 13.7 5.3 13.3 5.3 13.6 5.5 13.5 6 13.9 5.7 14.2 6 14.1 5.5 14.5 5.3 14 5.3"/><polygon class="cls-1" points="2.1 7 2.4 6.7 2.8 7 2.7 6.5 3 6.3 2.6 6.3 2.4 5.9 2.3 6.3 1.9 6.3 2.2 6.5 2.1 7"/><polygon class="cls-1" points="4.6 7 5 6.7 5.3 7 5.2 6.5 5.6 6.3 5.1 6.3 5 5.9 4.8 6.3 4.4 6.3 4.8 6.5 4.6 7"/><polygon class="cls-1" points="7.2 7 7.5 6.7 7.9 7 7.7 6.5 8.1 6.3 7.7 6.3 7.5 5.9 7.4 6.3 6.9 6.3 7.3 6.5 7.2 7"/><polygon class="cls-1" points="9.7 7 10 6.7 10.4 7 10.3 6.5 10.6 6.3 10.2 6.3 10 5.9 9.9 6.3 9.5 6.3 9.8 6.5 9.7 7"/><polygon class="cls-1" points="12.2 7 12.6 6.7 12.9 7 12.8 6.5 13.2 6.3 12.7 6.3 12.6 5.9 12.4 6.3 12 6.3 12.4 6.5 12.2 7"/><polygon class="cls-1" points="0.8 8.1 1.2 7.8 1.5 8.1 1.4 7.6 1.8 7.4 1.3 7.4 1.2 6.9 1 7.4 0.6 7.4 0.9 7.6 0.8 8.1"/><polygon class="cls-1" points="3.3 8.1 3.7 7.8 4.1 8.1 3.9 7.6 4.3 7.4 3.9 7.4 3.7 6.9 3.6 7.4 3.1 7.4 3.5 7.6 3.3 8.1"/><polygon class="cls-1" points="5.9 8.1 6.2 7.8 6.6 8.1 6.5 7.6 6.8 7.4 6.4 7.4 6.2 6.9 6.1 7.4 5.7 7.4 6 7.6 5.9 8.1"/><polygon class="cls-1" points="8.4 8.1 8.8 7.8 9.1 8.1 9 7.6 9.4 7.4 8.9 7.4 8.8 6.9 8.6 7.4 8.2 7.4 8.6 7.6 8.4 8.1"/><polygon class="cls-1" points="11 8.1 11.3 7.8 11.7 8.1 11.5 7.6 11.9 7.4 11.5 7.4 11.3 6.9 11.2 7.4 10.7 7.4 11.1 7.6 11 8.1"/><polygon class="cls-1" points="13.5 8.1 13.9 7.8 14.2 8.1 14.1 7.6 14.4 7.4 14 7.4 13.9 6.9 13.7 7.4 13.3 7.4 13.6 7.6 13.5 8.1"/><polygon class="cls-1" points="2.6 8.4 2.5 8 2.4 8.4 1.9 8.4 2.3 8.6 2.1 9.1 2.5 8.8 2.9 9.1 2.7 8.6 3.1 8.4 2.6 8.4"/><polygon class="cls-1" points="5.2 8.4 5 8 4.9 8.4 4.4 8.4 4.8 8.6 4.7 9.1 5 8.8 5.4 9.1 5.3 8.6 5.6 8.4 5.2 8.4"/><polygon class="cls-1" points="7.7 8.4 7.6 8 7.4 8.4 7 8.4 7.3 8.6 7.2 9.1 7.6 8.8 7.9 9.1 7.8 8.6 8.2 8.4 7.7 8.4"/><polygon class="cls-1" points="10.2 8.4 10.1 8 10 8.4 9.5 8.4 9.9 8.6 9.7 9.1 10.1 8.8 10.5 9.1 10.3 8.6 10.7 8.4 10.2 8.4"/><polygon class="cls-1" points="12.8 8.4 12.6 8 12.5 8.4 12 8.4 12.4 8.6 12.3 9.1 12.6 8.8 13 9.1 12.9 8.6 13.2 8.4 12.8 8.4"/><polygon class="cls-1" points="1.4 9.5 1.2 9 1.1 9.5 0.6 9.5 1 9.7 0.9 10.2 1.2 9.9 1.6 10.2 1.5 9.7 1.8 9.5 1.4 9.5"/><polygon class="cls-1" points="3.9 9.5 3.8 9 3.6 9.5 3.2 9.5 3.5 9.7 3.4 10.2 3.8 9.9 4.1 10.2 4 9.7 4.4 9.5 3.9 9.5"/><polygon class="cls-1" points="6.4 9.5 6.3 9 6.2 9.5 5.7 9.5 6.1 9.7 5.9 10.2 6.3 9.9 6.7 10.2 6.5 9.7 6.9 9.5 6.4 9.5"/><polygon class="cls-1" points="9 9.5 8.8 9 8.7 9.5 8.2 9.5 8.6 9.7 8.5 10.2 8.8 9.9 9.2 10.2 9.1 9.7 9.4 9.5 9 9.5"/><polygon class="cls-1" points="11.5 9.5 11.4 9 11.2 9.5 10.8 9.5 11.1 9.7 11 10.2 11.4 9.9 11.7 10.2 11.6 9.7 12 9.5 11.5 9.5"/><polygon class="cls-1" points="14.5 9.5 14 9.5 13.9 9 13.8 9.5 13.3 9.5 13.7 9.7 13.5 10.2 13.9 9.9 14.3 10.2 14.1 9.7 14.5 9.5"/></svg>