<svg xmlns="http://www.w3.org/2000/svg" viewBox="0 0 30 20"><defs><style>.cls-1{fill:#253a7c;}.cls-2{fill:#fafafa;}.cls-3{fill:#2c9846;}.cls-4{fill:#fed733;}.cls-5{fill:#d32a40;}.cls-6{fill:#fecf0a;}</style></defs><title>cf</title><g id="Layer_66" data-name="Layer 66"><path class="cls-1" d="M27.4,0H17.5V4.9H30V2.5A2.5,2.5,0,0,0,27.4,0Z"/><path class="cls-1" d="M12.5,0H2.6A2.5,2.5,0,0,0,0,2.5V4.9H12.5ZM4.8,3.5l-1.3,1L4,2.9l-1.3-1H4.3L4.8.4l.6,1.5H7l-1.3,1,.5,1.6Z"/><rect class="cls-2" x="17.5" y="4.9" width="12.5" height="5.05"/><rect class="cls-2" y="4.9" width="12.5" height="5.05"/><rect class="cls-3" y="10" width="12.5" height="5.05"/><rect class="cls-3" x="17.5" y="10" width="12.5" height="5.05"/><path class="cls-4" d="M0,15.1v2.4A2.5,2.5,0,0,0,2.6,20h9.9V15.1Z"/><path class="cls-4" d="M17.5,20h9.9A2.5,2.5,0,0,0,30,17.5V15.1H17.5Z"/><polygon class="cls-5" points="17.5 10 17.5 4.9 17.5 0 12.5 0 12.5 4.9 12.5 10 12.5 15.1 12.5 20 17.5 20 17.5 15.1 17.5 10"/><polygon class="cls-6" points="7 1.9 5.4 1.9 4.8 0.4 4.3 1.9 2.7 1.9 4 2.9 3.5 4.5 4.8 3.5 6.2 4.5 5.7 2.9 7 1.9"/></g></svg>