<svg xmlns="http://www.w3.org/2000/svg" viewBox="0 0 30 20"><defs><style>.cls-1{fill:#2cacdd;}.cls-2{fill:#f6da2f;}.cls-3{fill:#ce2930;}.cls-4{fill:#f6da31;}</style></defs><title>cg</title><g id="Layer_61" data-name="Layer 61"><path class="cls-1" d="M2.5,20h25A2.5,2.5,0,0,0,30,17.5V5L2,19.9Z"/><path class="cls-1" d="M27.5,0H2.5A2.5,2.5,0,0,0,0,2.5V15L28,.1ZM6.9,7.8,4.6,6.2,2.4,7.8l.9-2.6L1,3.6H3.8L4.6.9l.9,2.7H8.3L6,5.2Z"/><path class="cls-2" d="M0,15v1L29,.5,28,.1Z"/><path class="cls-2" d="M2,19.9,30,5V4L1,19.5Z"/><path class="cls-3" d="M0,17.5a2.6,2.6,0,0,0,1,2L30,4V2.5a2.6,2.6,0,0,0-1-2L0,16Z"/><polygon class="cls-4" points="5.5 3.6 4.6 0.9 3.8 3.6 1 3.6 3.3 5.2 2.4 7.8 4.6 6.2 6.9 7.8 6 5.2 8.3 3.6 5.5 3.6"/></g></svg>