<svg xmlns="http://www.w3.org/2000/svg" viewBox="0 0 30 20"><defs><style>.cls-1{fill:#ce2931;}.cls-2{fill:#213065;}.cls-3{fill:#fff;}</style></defs><title>la</title><g id="Layer_3" data-name="Layer 3"><path class="cls-1" d="M27.5,0H2.5A2.5,2.5,0,0,0,0,2.5V5H30V2.5A2.5,2.5,0,0,0,27.5,0Z"/><path class="cls-1" d="M0,17.5A2.5,2.5,0,0,0,2.5,20h25A2.5,2.5,0,0,0,30,17.5V15H0Z"/><path class="cls-2" d="M0,15H30V5H0ZM15,6a4,4,0,1,1-4,4A4,4,0,0,1,15,6Z"/><path class="cls-3" d="M15,14a4,4,0,1,0-4-4A4,4,0,0,0,15,14Z"/></g></svg>