<svg xmlns="http://www.w3.org/2000/svg" viewBox="0 0 30 20"><defs><style>.cls-1{fill:#ce2931;}.cls-2{fill:#fafafa;}.cls-3{fill:#121212;}.cls-4{fill:#089e49;}.cls-5{fill:#282a74;}</style></defs><title>iq</title><g id="Layer_16" data-name="Layer 16"><path class="cls-1" d="M27.4,0H2.6A2.5,2.5,0,0,0,0,2.5V6.2H30V2.5A2.5,2.5,0,0,0,27.4,0Z"/><path class="cls-2" d="M17.7,11.2h.2v-.2h-.2Z"/><path class="cls-2" d="M0,13.5H30V6.2H0ZM18.5,8.7h.4V8.4h.1c.1.2,0,.3-.1.4h-.2c-.1-.1-.2-.1-.2,0h-.1ZM18.3,8l.2.2v.2c-.1,0-.2-.2-.2-.3ZM9.8,12h.3l-.2.2C9.8,12.2,9.8,12.1,9.8,12Zm.4.8c-.1,0-.2-.1-.2-.3s.1-.4.2-.4a.4.4,0,0,1,.3.4A.3.3,0,0,1,10.2,12.8Zm4-1.1H9.7v.2a.8.8,0,0,1-.2.5H8.9l-.3-.2c-.1-.1-.1-.2,0-.1H9a.5.5,0,0,0,.1-.8v-.2h.1l.2-.2c0-.1,0-.2.1-.1a2.3,2.3,0,0,1,.1.4H10l.2-.2h.1l.2-.2v.7h3.2v-.7h0v0h0V11H10.6l.8-1.1h.4l.5-.8.6-.7h0a2,2,0,0,0,.1.5c.1.1,0,.1-.1.1s-.2.1-.7,1l-.8.9H13v-.2h0l.6-.5h.3l.3.2v1.5Zm1.3-.1h-1V8.9l.2.2.2.2c.1.1.2.1.1.2s-.1,0-.1.9v.9l.2-.2c.2,0,.2,0,.3.2h.1Zm4.4.1H17.1v-.3a1.3,1.3,0,0,1,.1-.7h.6v-.3c-.1-.1-.1-.2,0-.2l.2-.2.2-.2v1.6h.4V9.5h-.1c-.1,0,0-.1.1-.1l.2-.2.2-.2v2.3h.2V8.9h.1V8.5l.3-.2c.1-.2.1-.2.1,1.7Zm1.3-.1h-1V8.9h.2c0,.1.2.2.2.3s.2.1.1.1-.1.1-.1,1V11h.6v.6Z"/><path class="cls-3" d="M0,17.5A2.5,2.5,0,0,0,2.6,20H27.4A2.5,2.5,0,0,0,30,17.5v-4H0Z"/><path class="cls-4" d="M15.4,11.3h0c-.1-.2-.1-.2-.3-.2l-.2.2v-.9c0-.9,0-.8.1-.9s0-.1-.1-.2l-.2-.2-.2-.2v2.8h1v-.3Z"/><path class="cls-4" d="M13.9,10h-.3l-.6.5h0v.2H11.4l.8-.9c.5-.9.7-1,.7-1s.2,0,.1-.1a2,2,0,0,1-.1-.5h0l-.6.7-.5.8h-.4L10.6,11h2.9v-.4h0v0h0v.7H10.5v-.7l-.2.2h-.1L10,11H9.6a2.3,2.3,0,0,0-.1-.4c-.1-.1-.1,0-.1.1l-.2.2H9.1v.2a.5.5,0,0,1-.1.8H8.6c-.1-.1-.1,0,0,.1l.3.2h.5a.8.8,0,0,0,.2-.5v-.2h4.5V10.2Z"/><path class="cls-4" d="M18.1,8.8h.5c0-.1.1-.1.2,0H19c.1-.1.2-.2.1-.4H19v.2h-.8Z"/><path class="cls-4" d="M18.5,8.4V8.2L18.3,8h0C18.3,8.2,18.4,8.4,18.5,8.4Z"/><path class="cls-4" d="M21.2,11h-.6v-.6c0-.9,0-.9.1-1s.1,0-.1-.1-.2-.2-.2-.3h-.2v2.8h1V11Z"/><path class="cls-4" d="M19.8,8.3l-.3.2v.2h-.1v2.3h-.2V8.9l-.2.2-.2.2c-.1,0-.2.1-.1.1h.1v1.7h-.4V9.6l-.2.2-.2.2c-.1,0-.1.1,0,.2v.3h-.6a1.3,1.3,0,0,0-.1.7v.3h2.8V10C19.9,8.1,19.9,8.1,19.8,8.3Zm-1.9,2.8v.2h0Z"/><path class="cls-5" d="M10.2,12.1c-.1,0-.2.2-.2.4s.1.3.2.3a.3.3,0,0,0,.3-.3A.4.4,0,0,0,10.2,12.1Z"/><path class="cls-4" d="M10.1,12H9.8c0,.1,0,.2.1.2Z"/></g></svg>