<svg id="Flags" xmlns="http://www.w3.org/2000/svg" viewBox="0 0 30 20"><defs><style>.cls-1{fill:#dd342c;}.cls-2{fill:#ffde00;}</style></defs><title>Artboard 41</title><path class="cls-1" d="M27.4,0H2.6A2.5,2.5,0,0,0,0,2.5v15A2.5,2.5,0,0,0,2.6,20H27.4A2.5,2.5,0,0,0,30,17.5V2.5A2.5,2.5,0,0,0,27.4,0ZM6.7,7.4,4.9,6.1,3.1,7.4l.7-2.1L2,4.1H4.2L4.9,2l.7,2.1H7.8L6,5.3ZM10.2,10l-.4-.6H9.1L9.6,9l-.4-.7.5.3h.1l.5-.5h0v.7l.6.3h-.7Zm0-7.8v.7l-.4-.6-.7.2.5-.6-.4-.6.7.3.5-.6v.8l.7.3Zm1.3.9.5.5.7-.3-.3.6.5.5h-.8l-.3.7V4.2H11l.6-.3Zm1.1,4.7L12,7.4l-.6.4.2-.7L11,6.7h.7l.2-.7.3.7h.7l-.6.5Z"/><polygon class="cls-2" points="5.6 4.1 4.9 2 4.2 4.1 2 4.1 3.8 5.3 3.1 7.4 4.9 6.1 6.7 7.4 6 5.3 7.8 4.1 5.6 4.1"/><polygon class="cls-2" points="10.4 1 9.9 1.6 9.2 1.3 9.6 1.9 9.1 2.5 9.8 2.3 10.2 2.9 10.2 2.2 11 2.1 10.3 1.8 10.4 1"/><polygon class="cls-2" points="11.7 4.2 11.8 5 12.1 4.3 12.9 4.4 12.4 3.9 12.7 3.3 12 3.6 11.5 3.1 11.6 3.8 11 4.1 11.7 4.2"/><polygon class="cls-2" points="12.9 6.6 12.2 6.7 11.9 6 11.7 6.7 11 6.7 11.6 7.1 11.4 7.8 12 7.4 12.6 7.8 12.3 7.1 12.9 6.6"/><polygon class="cls-2" points="10.3 8.1 10.3 8.1 10.3 8.1 9.8 8.6 9.7 8.6 9.2 8.3 9.6 9 9.1 9.5 9.8 9.4 10.2 10 10.2 9.2 10.9 9.1 10.3 8.8 10.3 8.1"/></svg>