<svg xmlns="http://www.w3.org/2000/svg" viewBox="0 0 30 20"><defs><style>.cls-1{fill:#db2c32;}.cls-2{fill:#48aecf;}.cls-3{fill:#fae90a;}.cls-4{fill:#db1f26;}</style></defs><title>mn</title><g id="Layer_81" data-name="Layer 81"><path class="cls-1" d="M2.5,0A2.5,2.5,0,0,0,0,2.5v15A2.5,2.5,0,0,0,2.5,20H10V0Z"/><path class="cls-1" d="M27.5,0H20V20h7.5A2.5,2.5,0,0,0,30,17.5V2.5A2.5,2.5,0,0,0,27.5,0Z"/><path class="cls-2" d="M10,0V20H20V0Zm3.3,16.2H11.9V9.6h1.4Zm1.7,0-1.4-.8h2.8Zm1.4-1.1H13.6v-.5h2.8ZM15,14.3a1.4,1.4,0,1,1,1.4-1.4A1.4,1.4,0,0,1,15,14.3Zm1.4-3.1H13.6v-.5h2.8ZM15,10.4l-1.4-.8h2.8Zm0-1.1a1.5,1.5,0,0,1-1.5-1.5h0a2.5,2.5,0,0,1-.2-.7,1.9,1.9,0,0,1,1.1-1.6c-.1,0-.1-.1-.1-.2s.2-.3.2-.4a.5.5,0,0,1,.1-.5c-.1.2.1.3.1.4s-.1.2-.1.3,0,.2.1.2a.2.2,0,0,0,.2-.2c0-.1-.1-.1-.1-.3a4.3,4.3,0,0,1,.1-.5c0-.2-.1-.5.1-.5s0,.2.1.4.2.2.2.5-.2.3-.2.4a.2.2,0,0,0,.2.2c.1,0,.1-.1.1-.2s-.1-.1-.1-.3.2-.2.1-.4a.5.5,0,0,1,.1.5c0,.1.2.1.2.4s0,.2-.1.2a1.9,1.9,0,0,1,1.1,1.6,2.5,2.5,0,0,1-.2.7h0A1.5,1.5,0,0,1,15,9.3Zm1.7,6.9V9.6h1.4v6.6Z"/><path class="cls-3" d="M15,8.8a1.7,1.7,0,0,1-1.5-1h0a1.5,1.5,0,0,0,3,0h0A1.7,1.7,0,0,1,15,8.8Z"/><path class="cls-4" d="M15,8.8a1.7,1.7,0,0,0,1.5-1,2.5,2.5,0,0,0,.2-.7,1.9,1.9,0,0,0-1.1-1.6.6.6,0,0,1-1.2,0,1.9,1.9,0,0,0-1.1,1.6,2.5,2.5,0,0,0,.2.7A1.7,1.7,0,0,0,15,8.8Zm1.1-1.4a1.1,1.1,0,0,1-2.2,0,1.1,1.1,0,0,1,2.2,0Z"/><path class="cls-3" d="M15,6a.6.6,0,0,0,.6-.5c.1,0,.1-.1.1-.2s-.2-.3-.2-.4a.5.5,0,0,0-.1-.5c.1.2-.1.3-.1.4s.1.2.1.3,0,.2-.1.2a.2.2,0,0,1-.2-.2c0-.1.2-.2.2-.4s-.1-.3-.2-.5-.2-.3-.1-.4-.1.3-.1.5a4.3,4.3,0,0,0-.1.5c0,.2.1.2.1.3a.2.2,0,0,1-.2.2c-.1,0-.1-.1-.1-.2s.1-.1.1-.3-.2-.2-.1-.4a.5.5,0,0,0-.1.5c0,.1-.2.1-.2.4s0,.2.1.2A.6.6,0,0,0,15,6Z"/><path class="cls-3" d="M13.9,7.4a1.1,1.1,0,0,0,2.2,0,1.1,1.1,0,0,0-2.2,0Z"/><path class="cls-3" d="M15,11.5a1.4,1.4,0,1,0,1.4,1.4A1.4,1.4,0,0,0,15,11.5Zm0,2.4c-.2,0-.3-.1-.3-.2a.3.3,0,1,1,.6,0C15.3,13.8,15.2,13.9,15,13.9Zm0-1.4a.3.3,0,0,1-.3-.3.3.3,0,1,1,.6,0A.3.3,0,0,1,15,12.5Z"/><rect class="cls-3" x="13.6" y="14.6" width="2.8" height="0.56"/><rect class="cls-3" x="13.6" y="10.7" width="2.8" height="0.56"/><rect class="cls-3" x="11.9" y="9.6" width="1.4" height="6.66"/><polygon class="cls-3" points="15 16.2 16.4 15.4 13.6 15.4 15 16.2"/><rect class="cls-3" x="16.7" y="9.6" width="1.4" height="6.66"/><polygon class="cls-3" points="15 10.4 16.4 9.6 13.6 9.6 15 10.4"/><path class="cls-4" d="M15,11.9a.3.3,0,0,0-.3.3.3.3,0,0,0,.6,0A.3.3,0,0,0,15,11.9Z"/><path class="cls-4" d="M15,13.4a.3.3,0,0,0-.3.3c0,.1.1.2.3.2s.3-.1.3-.2A.3.3,0,0,0,15,13.4Z"/></g></svg>