<svg id="Flags" xmlns="http://www.w3.org/2000/svg" viewBox="0 0 30 20"><defs><style>.cls-1{fill:none;}.cls-2{fill:#fff321;}.cls-3{fill:#f9f9f9;}.cls-4{fill:#ee3e42;}.cls-5{fill:#e03a3e;}.cls-6{fill:#fff100;}</style></defs><title>bn</title><path class="cls-1" d="M0,10.6v0Z"/><path class="cls-1" d="M30,2.4v12h0v3.2h0V2.4Z"/><path class="cls-1" d="M0,2.4V6.3H0Z"/><path class="cls-2" d="M13.7,14.3h-.3a1.9,1.9,0,0,1-1-.4h0l-.5-.2h-.4v-.2L0,10.6v7.3a2.7,2.7,0,0,0,2.1,2.2H27.9a2.9,2.9,0,0,0,1.9-1.5l-14.9-4A2.1,2.1,0,0,1,13.7,14.3Z"/><path class="cls-2" d="M30,2.4A2.6,2.6,0,0,0,27.5.1H2.5A2.5,2.5,0,0,0,.2,1.6L30,9.6Z"/><path class="cls-3" d="M14.6,10.3a.8.8,0,0,0-.2-.7h0c.2,0,.3.2.4.4a.4.4,0,0,1,.1-.3V9.2H13.4c-.2,0-.3-.1-.3-.2h0c-.2.2-.2.5-.3.7Z"/><path class="cls-3" d="M15.2,9.9c.1-.2.2-.4.4-.4h0a1,1,0,0,0-.2.7v.2l1.7.5a2.2,2.2,0,0,0,.1-.8,2.3,2.3,0,0,0-.3-1.1h0c0,.1-.1.2-.3.2H15.1v.7Z"/><path class="cls-3" d="M0,6.3,10.6,9.2h.1l1.6.5.4-.6h-.1c-.2-.1-.3-.1-.3-.3a.2.2,0,0,1-.2-.2h.5l.9-.2H14l.6-.2h.3V7.7a.1.1,0,0,1-.1-.1.2.2,0,0,1-.2.2h0a.3.3,0,0,1-.1-.2c0,.1-.1.2-.2.3h-.1a1.3,1.3,0,0,1,.2-.9h.5V6c-.1,0-.1-.1-.1-.2l.2-.2.2.2c0,.1,0,.2-.1.2h.4a.5.5,0,0,0,.4.2h-.2c0,.1,0,.1.1.2s0,.2.1.2h-.5l-.3-.2V7h.5a1.3,1.3,0,0,1,.2.9h-.1c-.1-.1-.2-.2-.2-.3a.3.3,0,0,1-.1.2h0a.2.2,0,0,1-.2-.2.1.1,0,0,1-.1.1v.4h.3l.6.2h.5l.9.2h.5a.2.2,0,0,1-.2.2c0,.2-.1.2-.3.3h-.1a2.8,2.8,0,0,1,.6,1.8v.3h.5V11h0a.8.8,0,0,1,.2-.7l.4-.3.2-.2h0a.4.4,0,0,1,.1-.3c0-.1,0-.1.1-.1H20v.7h-.1v.2l-.2.4-.5.4v.6L30,14.4V9.6L.2,1.6c-.1.2-.1.5-.2.8V6.3Z"/><path d="M15.5,11.4v.5h.3c-.1.2-.2.3-.2.4A2.4,2.4,0,0,0,17.1,11l-1.4-.4A1.2,1.2,0,0,0,15.5,11.4Z"/><path d="M10.6,9.2h0Z"/><path d="M19.2,11.6c0,.2.1.3.1.5h.1c0,.1,0,.1-.1.2h.1a.1.1,0,0,1-.1.1V13h-.9v-.2h0c-.2,0-.2-.1-.2-.1h.1c-.1-.1-.1-.1,0-.1h0v-.2h.1v-.8h-.5a3.4,3.4,0,0,1-.6,1.5l.2.2h0c0,.1,0,.2.1.2h.1a.2.2,0,0,0,.2-.2H18v.4h0c.3,0,.4.2.5.4h-.4l-.5.2a1.9,1.9,0,0,1-1,.4h-.3a2.5,2.5,0,0,1-1.3.3l14.8,4c.1-.2.1-.4.2-.6V14.5Z"/><path d="M10.4,9.2Z"/><path d="M12.2,13.9h0Z"/><path d="M14.2,11.9h.3v-.5a1.2,1.2,0,0,0-.2-.8h.3c-.1-.1,0-.2,0-.3l-1.8-.5v.4a2.2,2.2,0,0,0,1.6,2.1c0-.1-.1-.2-.2-.4Z"/><path d="M15.6,10.6h0Z"/><path d="M12,13.5h0v-.4h.1a.2.2,0,0,0,.2.2h.1c.1,0,.1-.1.1-.2h0a.2.2,0,0,1,.2-.2,2.8,2.8,0,0,1-.6-1.8,5,5,0,0,1,.2-1.2l-1.6-.4h0a.4.4,0,0,1,.1.3h0a.2.2,0,0,1,.2.2l.4.3a.8.8,0,0,1,.2.7h0v1.1h.1v.2h0c.1,0,0,0,0,.1h0c.1,0,.1.1-.1.1h0V13h-.9v-.2a.1.1,0,0,1-.1-.1h.1c-.1-.1-.1-.1-.1-.2h.1a5.7,5.7,0,0,0,.1-1.2l-.5-.4-.2-.4V9.9H10V9.1h.2L0,6.4v4.2l11.6,3.1Z"/><polygon points="0 10.6 0 6.4 0 6.3 0 6.3 0 6.8 0 10.6 0 10.6 0 10.6"/><path d="M30,14.4h0v-.1Z"/><path class="cls-2" d="M14.9,14.6l14.9,4h0L15,14.6Z"/><path d="M14.9,14.6l14.9,4h0L15,14.6Z"/><path class="cls-2" d="M0,10.6H0l11.5,3.1h.1Z"/><path d="M0,10.6H0l11.5,3.1h.1Z"/><path class="cls-2" d="M12,13.8h-.1l.5.2H12Z"/><path d="M12,13.8h-.1l.5.2H12Z"/><path class="cls-3" d="M19.2,11.6,30,14.5h0L19.2,11.5Z"/><path d="M19.2,11.6,30,14.5h0L19.2,11.5Z"/><path class="cls-3" d="M10.2,9.1h.4L0,6.3H0L10.2,9.1Z"/><path d="M10.2,9.1h.4L0,6.3H0L10.2,9.1Z"/><path class="cls-3" d="M15.4,10.5h.3l1.4.4h0l-1.7-.5Z"/><path d="M15.4,10.5h.3l1.4.4h0l-1.7-.5Z"/><path class="cls-3" d="M18.4,11.3Z"/><path d="M18.4,11.3Z"/><path class="cls-3" d="M14.6,10.3l-1.8-.5h0l1.8.5Z"/><path d="M14.6,10.3l-1.8-.5h0l1.8.5Z"/><path class="cls-3" d="M12.3,9.7h0l-1.6-.5h0Z"/><path d="M12.3,9.7h0l-1.6-.5h0Z"/><path d="M15.7,10.6h0l1.4.4h0l-1.4-.4Z"/><path d="M15.7,10.6h0l1.4.4h0l-1.4-.4Z"/><path d="M10.4,9.2Z"/><path d="M10.4,9.2Z"/><path d="M15,14.6h0l14.8,4h0L15,14.6Z"/><path d="M15,14.6h0l14.8,4h0L15,14.6Z"/><path d="M12.1,13.8h0Z"/><path d="M12.1,13.8h0Z"/><path d="M19.2,11.6h0L30,14.5V18h0V14.5Z"/><path d="M19.2,11.6h0L30,14.5V18h0V14.5Z"/><path d="M10.7,9.3l1.6.4h0l-1.6-.5Z"/><path d="M10.7,9.3l1.6.4h0l-1.6-.5Z"/><path d="M17.9,11.2Z"/><path d="M17.9,11.2Z"/><path d="M15.6,10.6Z"/><path d="M15.6,10.6Z"/><path d="M14.6,10.3h0l-1.8-.5h0l1.8.5Z"/><path d="M14.6,10.3h0l-1.8-.5h0l1.8.5Z"/><path d="M11.6,13.7,0,10.6V6.4L10.2,9.1h0L0,6.4v4.2l11.6,3.1Z"/><path d="M11.6,13.7,0,10.6V6.4L10.2,9.1h0L0,6.4v4.2l11.6,3.1Z"/><path class="cls-4" d="M15,7.8h-.1v.3h.2V7.8Z"/><path class="cls-4" d="M15,9.4h0v0Z"/><polygon class="cls-3" points="14.9 7.8 14.9 7.7 14.9 8.1 14.9 8.1 14.9 7.8"/><polygon points="14.9 7.8 14.9 7.7 14.9 8.1 14.9 8.1 14.9 7.8"/><polygon class="cls-3" points="15.1 8.1 15.1 8.1 15.1 7.7 15.1 7.8 15.1 8.1"/><polygon points="15.1 8.1 15.1 8.1 15.1 7.7 15.1 7.8 15.1 8.1"/><path class="cls-3" d="M14.9,9.6V9.2h0v.4Z"/><path d="M14.9,9.6V9.2h0v.4Z"/><path class="cls-3" d="M15.1,9.6h.1V9.2h0Z"/><path d="M15.1,9.6h.1V9.2h0Z"/><path class="cls-4" d="M14.9,9.2h0v.4h0Z"/><path d="M14.9,9.2h0v.4h0Z"/><polygon class="cls-4" points="14.9 7.8 14.9 7.8 14.9 8.1 14.9 8.1 14.9 7.8"/><polygon points="14.9 7.8 14.9 7.8 14.9 8.1 14.9 8.1 14.9 7.8"/><path class="cls-4" d="M15.1,9.6V9.2h0v.4Z"/><path d="M15.1,9.6V9.2h0v.4Z"/><polygon class="cls-4" points="15.1 8.1 15.1 8.1 15.1 7.8 15.1 7.8 15.1 8.1"/><polygon points="15.1 8.1 15.1 8.1 15.1 7.8 15.1 7.8 15.1 8.1"/><path class="cls-4" d="M15.4,10.3a1,1,0,0,1,.2-.7.4.4,0,0,0-.4.3h0L15,9.4l-.2.5h0a.4.4,0,0,0-.4-.3,1,1,0,0,1,.2.7v.4l.2.2a.8.8,0,0,1,.2-.5h0a.8.8,0,0,1,.2.5l.2-.2Z"/><path class="cls-3" d="M14.4,9.6c.2-.1.4.2.4.3a.5.5,0,0,1,.1-.3h0a.4.4,0,0,0-.1.3c-.1-.2-.2-.4-.4-.4h0a.8.8,0,0,1,.2.7h0A.8.8,0,0,0,14.4,9.6Z"/><path d="M14.4,9.6c.2-.1.4.2.4.3a.5.5,0,0,1,.1-.3h0a.4.4,0,0,0-.1.3c-.1-.2-.2-.4-.4-.4h0a.8.8,0,0,1,.2.7h0A.8.8,0,0,0,14.4,9.6Z"/><path class="cls-3" d="M15.2,9.9c0-.1.2-.4.4-.3s-.2.6-.2.9h0v-.2a1,1,0,0,1,.2-.7h0c-.2,0-.3.2-.4.4V9.7h0Z"/><path d="M15.2,9.9c0-.1.2-.4.4-.3s-.2.6-.2.9h0v-.2a1,1,0,0,1,.2-.7h0c-.2,0-.3.2-.4.4V9.7h0Z"/><path d="M14.6,10.3h0c0,.1-.1.2,0,.3h0Z"/><path d="M14.6,10.3h0c0,.1-.1.2,0,.3h0Z"/><path d="M15.4,10.6h0v.2Z"/><path d="M15.4,10.6h0v.2Z"/><path class="cls-3" d="M15.4,10.5Z"/><path d="M15.4,10.5Z"/><path d="M15.4,10.5Z"/><path class="cls-3" d="M14.6,10.3Z"/><path d="M14.6,10.3Z"/><path d="M14.6,10.3Z"/><path d="M14.6,10.3Z"/><path d="M14.6,10.3Z"/><path d="M14.6,10.3Z"/><path d="M15.4,10.5Z"/><path d="M15.4,10.5Z"/><path d="M15.4,10.5Z"/><path class="cls-3" d="M15.2,9.7Z"/><path d="M15.2,9.7Z"/><path d="M15.2,9.7Z"/><path class="cls-3" d="M14.9,9.6Z"/><path d="M14.9,9.6Z"/><path d="M14.9,9.6Z"/><path class="cls-4" d="M15.1,9.6h0Z"/><path d="M15.1,9.6h0Z"/><path d="M15.1,9.6h0Z"/><path class="cls-4" d="M14.9,9.6Z"/><path d="M14.9,9.6Z"/><path d="M14.9,9.6Z"/><path class="cls-4" d="M15.4,10.5h0c0-.3-.1-.6.2-.9s-.4.2-.4.3V9.7h-.1V9.4h0v.2h0a.5.5,0,0,0-.1.3c0-.1-.2-.4-.4-.3a.8.8,0,0,1,.2.7h0v.4h0v-.4a1,1,0,0,0-.2-.7.4.4,0,0,1,.4.3h0l.2-.5.2.5h0a.4.4,0,0,1,.4-.3,1,1,0,0,0-.2.7v.4h0Z"/><path d="M15.4,10.5h0c0-.3-.1-.6.2-.9s-.4.2-.4.3V9.7h-.1V9.4h0v.2h0a.5.5,0,0,0-.1.3c0-.1-.2-.4-.4-.3a.8.8,0,0,1,.2.7h0v.4h0v-.4a1,1,0,0,0-.2-.7.4.4,0,0,1,.4.3h0l.2-.5.2.5h0a.4.4,0,0,1,.4-.3,1,1,0,0,0-.2.7v.4h0Z"/><path class="cls-4" d="M15.5,11.4c0-.3-.1-.5.1-.8s-.3.2-.4.4h0a.8.8,0,0,0-.2-.5.8.8,0,0,0-.2.5h0c-.1-.2-.2-.4-.4-.4s.1.5.1.8a.9.9,0,0,0,.1.5v.2l.2-.3c0-.1.1-.1.1-.2h0c0,.1.1.1.1.2l.2.3v-.2A.9.9,0,0,0,15.5,11.4Z"/><path d="M15.4,10.6h0Z"/><path d="M15.4,10.6h0Z"/><path d="M15.4,11.9h.1v-.5a1.2,1.2,0,0,1,.2-.8h-.1C15.3,11.1,15.6,11.5,15.4,11.9Z"/><path d="M15.4,11.9h.1v-.5a1.2,1.2,0,0,1,.2-.8h-.1C15.3,11.1,15.6,11.5,15.4,11.9Z"/><path d="M14.3,10.6h0a1.2,1.2,0,0,1,.2.8v.5h.1c-.2-.4.1-.8-.3-1.3h0Z"/><path d="M14.3,10.6h0a1.2,1.2,0,0,1,.2.8v.5h.1c-.2-.4.1-.8-.3-1.3h0Z"/><path class="cls-3" d="M15.7,10.6Z"/><path d="M15.7,10.6Z"/><path d="M15.7,10.6Z"/><path d="M15.6,10.6h0Z"/><path d="M15.6,10.6h0Z"/><path d="M15.6,10.6h0Z"/><path d="M15.6,10.6h0Z"/><path d="M15.6,10.6h0Z"/><path d="M15.6,10.6h0Z"/><path d="M14.6,10.6h0Z"/><path d="M14.6,10.6h0Z"/><path d="M14.6,10.6h0Z"/><path d="M15.4,10.7Z"/><path d="M15.4,10.7Z"/><path d="M15.4,10.7Z"/><path class="cls-4" d="M14.6,10.7Z"/><path d="M14.6,10.7Z"/><path d="M14.6,10.7Z"/><path class="cls-4" d="M15.4,10.7Z"/><path d="M15.4,10.7Z"/><path d="M15.4,10.7Z"/><path class="cls-4" d="M15.6,10.6h-.2l-.2.2a.8.8,0,0,0-.2-.5h0a.8.8,0,0,0-.2.5l-.2-.2h-.3c.4.5.1.9.3,1.3h0a.9.9,0,0,1-.1-.5c0-.3.1-.5-.1-.8s.3.2.4.4h0a.8.8,0,0,1,.2-.5.8.8,0,0,1,.2.5h0c.1-.2.2-.4.4-.4s-.1.5-.1.8a.9.9,0,0,1-.1.5h0C15.6,11.5,15.3,11.1,15.6,10.6Z"/><path d="M15.6,10.6h-.2l-.2.2a.8.8,0,0,0-.2-.5h0a.8.8,0,0,0-.2.5l-.2-.2h-.3c.4.5.1.9.3,1.3h0a.9.9,0,0,1-.1-.5c0-.3.1-.5-.1-.8s.3.2.4.4h0a.8.8,0,0,1,.2-.5.8.8,0,0,1,.2.5h0c.1-.2.2-.4.4-.4s-.1.5-.1.8a.9.9,0,0,1-.1.5h0C15.6,11.5,15.3,11.1,15.6,10.6Z"/><path class="cls-4" d="M15.7,11.9h-.1c-.1,0-.2,0-.3.3h0a.5.5,0,0,0-.2-.4h-.2a.5.5,0,0,0-.2.4h0c-.1-.3-.2-.3-.3-.3h-.2c.1.2.2.3.2.5h1.2c0-.2.1-.3.2-.5Z"/><path d="M14.4,11.9h-.2c.1.2.2.3.2.4h0c0-.1-.1-.2-.2-.4h.2Z"/><path d="M14.4,11.9h-.2c.1.2.2.3.2.4h0c0-.1-.1-.2-.2-.4h.2Z"/><path d="M15.8,11.9h0c-.1.2-.2.3-.2.4h0c0-.1.1-.2.2-.4Z"/><path d="M15.8,11.9h0c-.1.2-.2.3-.2.4h0c0-.1.1-.2.2-.4Z"/><path d="M15.3,12.2Z"/><path d="M15.3,12.2Z"/><path d="M15.3,12.2Z"/><path d="M14.7,12.2Z"/><path d="M14.7,12.2Z"/><path d="M14.7,12.2Z"/><path d="M14.5,11.9Z"/><path d="M14.5,11.9Z"/><path d="M14.5,11.9Z"/><path d="M15.4,11.9Z"/><path d="M15.4,11.9Z"/><path d="M15.4,11.9Z"/><path class="cls-4" d="M15.3,12.2Z"/><path d="M15.3,12.2Z"/><path d="M15.3,12.2Z"/><path class="cls-4" d="M15.4,11.9Z"/><path d="M15.4,11.9Z"/><path d="M15.4,11.9Z"/><path class="cls-4" d="M14.6,11.9Z"/><path d="M14.6,11.9Z"/><path d="M14.6,11.9Z"/><path class="cls-4" d="M14.7,12.2Z"/><path d="M14.7,12.2Z"/><path d="M14.7,12.2Z"/><path class="cls-4" d="M15.8,11.9h-.4v.2l-.2-.3c0-.1-.1-.1-.1-.2h0c0,.1-.1.1-.1.2l-.2.3v-.2h-.4c.1.2.2.3.2.4h0c0-.2-.1-.3-.2-.5h.2c.1,0,.2,0,.3.3h0a.5.5,0,0,1,.2-.4h.2a.5.5,0,0,1,.2.4h0c.1-.3.2-.3.3-.3h.2c-.1.2-.2.3-.2.5h0C15.6,12.2,15.7,12.1,15.8,11.9Zm-1.1.3Zm.6,0Z"/><path d="M15.8,11.9h-.4v.2l-.2-.3c0-.1-.1-.1-.1-.2h0c0,.1-.1.1-.1.2l-.2.3v-.2h-.4c.1.2.2.3.2.4h0c0-.2-.1-.3-.2-.5h.2c.1,0,.2,0,.3.3h0a.5.5,0,0,1,.2-.4h.2a.5.5,0,0,1,.2.4h0c.1-.3.2-.3.3-.3h.2c-.1.2-.2.3-.2.5h0C15.6,12.2,15.7,12.1,15.8,11.9Zm-1.1.3Zm.6,0Z"/><path class="cls-4" d="M15,7.8c.1,0,.2-.2.2-.3h0c0,.2.1.3.2.3s.1-.1.1-.3h0a.5.5,0,0,0,.2.4,1,1,0,0,0-.1-.8H14.4a1,1,0,0,0-.1.8.5.5,0,0,0,.2-.4h0c0,.2,0,.2.1.3s.2-.1.2-.3h0C14.8,7.6,14.9,7.8,15,7.8Z"/><path class="cls-3" d="M14.9,7h0Z"/><path d="M14.9,7h0Z"/><path class="cls-3" d="M14.8,7.5c0,.2-.1.3-.2.3s-.1-.1-.1-.3a.5.5,0,0,1-.2.4,1,1,0,0,1,.1-.8h0a1.3,1.3,0,0,0-.2.9h.1c.1-.1.2-.2.2-.3a.3.3,0,0,0,.1.2h0a.2.2,0,0,0,.2-.2.1.1,0,0,0,.1.1h0C14.8,7.7,14.8,7.6,14.8,7.5Z"/><path d="M14.8,7.5c0,.2-.1.3-.2.3s-.1-.1-.1-.3a.5.5,0,0,1-.2.4,1,1,0,0,1,.1-.8h0a1.3,1.3,0,0,0-.2.9h.1c.1-.1.2-.2.2-.3a.3.3,0,0,0,.1.2h0a.2.2,0,0,0,.2-.2.1.1,0,0,0,.1.1h0C14.8,7.7,14.8,7.6,14.8,7.5Z"/><path class="cls-3" d="M15.7,7.9a.5.5,0,0,1-.2-.4c0,.2,0,.2-.1.3s-.2-.1-.2-.3,0,.2-.1.2h0a.1.1,0,0,0,.1-.1.2.2,0,0,0,.2.2h0a.3.3,0,0,0,.1-.2c0,.1.1.2.2.3h.1a1.3,1.3,0,0,0-.2-.9h0A1,1,0,0,1,15.7,7.9Z"/><path d="M15.7,7.9a.5.5,0,0,1-.2-.4c0,.2,0,.2-.1.3s-.2-.1-.2-.3,0,.2-.1.2h0a.1.1,0,0,0,.1-.1.2.2,0,0,0,.2.2h0a.3.3,0,0,0,.1-.2c0,.1.1.2.2.3h.1a1.3,1.3,0,0,0-.2-.9h0A1,1,0,0,1,15.7,7.9Z"/><path class="cls-3" d="M15.5,7Z"/><path d="M15.5,7Z"/><path class="cls-3" d="M15.5,7h0Z"/><path d="M15.5,7h0Z"/><path class="cls-3" d="M14.5,7Z"/><path d="M14.5,7Z"/><path class="cls-3" d="M14.5,7Z"/><path d="M14.5,7Z"/><path class="cls-3" d="M15.5,7Z"/><path d="M15.5,7Z"/><path class="cls-4" d="M14.9,7.8h.2c.1,0,.1-.1.1-.2h0c0,.1-.1.3-.2.3s-.2-.2-.2-.3h0c0,.1,0,.2.1.2h0Z"/><path d="M14.9,7.8h.2c.1,0,.1-.1.1-.2h0c0,.1-.1.3-.2.3s-.2-.2-.2-.3h0c0,.1,0,.2.1.2h0Z"/><path class="cls-3" d="M15.1,7.7h0Z"/><path d="M15.1,7.7h0Z"/><path d="M15.1,7.7h0Z"/><polygon class="cls-3" points="14.9 7.7 14.9 7.7 14.9 7.7 14.9 7.8 14.9 7.7"/><polygon points="14.9 7.7 14.9 7.7 14.9 7.7 14.9 7.8 14.9 7.7"/><polygon points="14.9 7.7 14.9 7.7 14.9 7.7 14.9 7.8 14.9 7.7"/><polygon class="cls-4" points="14.9 7.8 14.9 7.7 14.9 7.8 14.9 7.8 14.9 7.8"/><polygon points="14.9 7.8 14.9 7.7 14.9 7.8 14.9 7.8 14.9 7.8"/><polygon points="14.9 7.8 14.9 7.7 14.9 7.8 14.9 7.8 14.9 7.8"/><polygon class="cls-4" points="15.1 7.8 15.1 7.8 15.1 7.7 15.1 7.7 15.1 7.8"/><polygon points="15.1 7.8 15.1 7.8 15.1 7.7 15.1 7.7 15.1 7.8"/><polygon points="15.1 7.8 15.1 7.8 15.1 7.7 15.1 7.7 15.1 7.8"/><path class="cls-4" d="M15.6,7.1a1,1,0,0,1,.1.8.5.5,0,0,1-.2-.4h0c0,.2,0,.2-.1.3s-.2-.1-.2-.3h0c0,.2.1.3.2.3s.1-.1.1-.3a.5.5,0,0,0,.2.4,1,1,0,0,0-.1-.8Z"/><path d="M15.6,7.1a1,1,0,0,1,.1.8.5.5,0,0,1-.2-.4h0c0,.2,0,.2-.1.3s-.2-.1-.2-.3h0c0,.2.1.3.2.3s.1-.1.1-.3a.5.5,0,0,0,.2.4,1,1,0,0,0-.1-.8Z"/><path class="cls-4" d="M14.6,7.8c-.1-.1-.1-.1-.1-.3h0a.5.5,0,0,1-.2.4,1,1,0,0,1,.1-.8h0a1,1,0,0,0-.1.8.5.5,0,0,0,.2-.4c0,.2,0,.2.1.3s.2-.1.2-.3h0C14.8,7.7,14.7,7.8,14.6,7.8Z"/><path d="M14.6,7.8c-.1-.1-.1-.1-.1-.3h0a.5.5,0,0,1-.2.4,1,1,0,0,1,.1-.8h0a1,1,0,0,0-.1.8.5.5,0,0,0,.2-.4c0,.2,0,.2.1.3s.2-.1.2-.3h0C14.8,7.7,14.7,7.8,14.6,7.8Z"/><path class="cls-4" d="M15,7.1h0Z"/><path class="cls-3" d="M14.5,7Z"/><path d="M14.5,7Z"/><path class="cls-3" d="M14.5,7Z"/><path d="M14.5,7Z"/><path class="cls-3" d="M14.4,7h0Z"/><path d="M14.4,7h0Z"/><path class="cls-3" d="M15.5,7h0Z"/><path d="M15.5,7h0Z"/><path class="cls-3" d="M15.5,7Z"/><path d="M15.5,7Z"/><path class="cls-3" d="M15.5,7Z"/><path d="M15.5,7Z"/><path class="cls-3" d="M15.1,7h0Z"/><path d="M15.1,7h0Z"/><path d="M15.1,7h0Z"/><path class="cls-3" d="M14.4,7h0Z"/><path d="M14.4,7h0Z"/><path d="M14.4,7h0Z"/><path class="cls-4" d="M14.5,7Z"/><path d="M14.5,7Z"/><path d="M14.5,7Z"/><path class="cls-4" d="M15.5,7h0Z"/><path d="M15.5,7h0Z"/><path d="M15.5,7h0Z"/><path class="cls-4" d="M15.5,7Z"/><path d="M15.5,7Z"/><path d="M15.5,7Z"/><path class="cls-4" d="M14.9,7h0Z"/><path d="M14.9,7h0Z"/><path d="M14.9,7h0Z"/><path class="cls-4" d="M15.6,7.1Z"/><path d="M15.6,7.1Z"/><path d="M15.6,7.1Z"/><path class="cls-4" d="M14.4,7.1Z"/><path d="M14.4,7.1Z"/><path d="M14.4,7.1Z"/><path class="cls-4" d="M14.4,7.1Z"/><path d="M14.4,7.1Z"/><path class="cls-4" d="M12.3,13.5h0l-.3-.2a.6.6,0,0,0,.1.4H12a.7.7,0,0,0-.5.4h.9a1.3,1.3,0,0,0,1,.4h.3c-.2,0-.3-.1-.4-.3l-.7-.3h-.3Z"/><path class="cls-2" d="M11.5,13.9v-.2h-.1v.2Z"/><path d="M11.5,13.9v-.2h-.1v.2Z"/><path class="cls-2" d="M12.4,14h0a1.9,1.9,0,0,0,1,.4h.3A1.6,1.6,0,0,1,12.4,14Z"/><path d="M12.4,14h0a1.9,1.9,0,0,0,1,.4h.3A1.6,1.6,0,0,1,12.4,14Z"/><path d="M12.2,13.9h0Z"/><path d="M12.2,13.9h0Z"/><path d="M12.1,13.5a.6.6,0,0,1-.1-.4l.3.2h0a.2.2,0,0,1-.2-.2H12v.4h0l-.4.2h0Z"/><path d="M12.1,13.5a.6.6,0,0,1-.1-.4l.3.2h0a.2.2,0,0,1-.2-.2H12v.4h0l-.4.2h0Z"/><path class="cls-2" d="M11.6,13.7Z"/><path d="M11.6,13.7Z"/><path d="M11.6,13.7Z"/><path class="cls-2" d="M12.4,14h0Z"/><path d="M12.4,14h0Z"/><path d="M12.4,14h0Z"/><path class="cls-2" d="M12,13.8h0Z"/><path d="M12,13.8h0Z"/><path d="M12,13.8h0Z"/><path d="M12.2,13.9h0Z"/><path d="M12.2,13.9h0Z"/><path d="M12.2,13.9h0Z"/><path d="M12,13.8h0Z"/><path d="M12,13.8h0Z"/><path d="M12,13.8h0Z"/><path d="M11.6,13.7Z"/><path d="M11.6,13.7Z"/><path d="M11.6,13.7Z"/><path class="cls-4" d="M13.4,14.3a1.3,1.3,0,0,1-1-.4h-.9a.7.7,0,0,1,.5-.4h.1a.6.6,0,0,1-.1-.4l.3.2h0l-.3-.2a.6.6,0,0,0,.1.4l-.5.2h0v.2h.9a1.6,1.6,0,0,0,1.3.3h-.3Z"/><path d="M13.4,14.3a1.3,1.3,0,0,1-1-.4h-.9a.7.7,0,0,1,.5-.4h.1a.6.6,0,0,1-.1-.4l.3.2h0l-.3-.2a.6.6,0,0,0,.1.4l-.5.2h0v.2h.9a1.6,1.6,0,0,0,1.3.3h-.3Z"/><path class="cls-4" d="M17.6,13.6h-.2l-.7.3c-.1.2-.2.3-.4.3h.3a1.3,1.3,0,0,0,1-.4h.9a.7.7,0,0,0-.5-.4h-.1a.6.6,0,0,0,.1-.4l-.3.2h-.1Z"/><path d="M18,13.1a.6.6,0,0,1-.1.4.5.5,0,0,1,.6.4,1,1,0,0,0-.9.1,1.6,1.6,0,0,1-1.3.3h.3a1.9,1.9,0,0,0,1-.4l.5-.2h.4c-.1-.2-.2-.4-.5-.4h0v-.4h-.1a.2.2,0,0,1-.2.2h0Z"/><path d="M18,13.1a.6.6,0,0,1-.1.4.5.5,0,0,1,.6.4,1,1,0,0,0-.9.1,1.6,1.6,0,0,1-1.3.3h.3a1.9,1.9,0,0,0,1-.4l.5-.2h.4c-.1-.2-.2-.4-.5-.4h0v-.4h-.1a.2.2,0,0,1-.2.2h0Z"/><path class="cls-4" d="M18,13.1a.6.6,0,0,1-.1.4H18a.7.7,0,0,1,.5.4h-.9a1.3,1.3,0,0,1-1,.4h-.3a1.6,1.6,0,0,0,1.3-.3,1,1,0,0,1,.9-.1.5.5,0,0,0-.6-.4.6.6,0,0,0,.1-.4l-.3.2h0Z"/><path d="M18,13.1a.6.6,0,0,1-.1.4H18a.7.7,0,0,1,.5.4h-.9a1.3,1.3,0,0,1-1,.4h-.3a1.6,1.6,0,0,0,1.3-.3,1,1,0,0,1,.9-.1.5.5,0,0,0-.6-.4.6.6,0,0,0,.1-.4l-.3.2h0Z"/><path class="cls-4" d="M12.5,12.9h0a.4.4,0,0,1-.1.3h.1l.8.6a2.2,2.2,0,0,0,1.7.6,2.2,2.2,0,0,0,1.7-.6l.8-.6h.1a.4.4,0,0,1-.1-.3h0l-.2-.2a3,3,0,0,1-4.6,0A.2.2,0,0,0,12.5,12.9Zm3.3,1.5Zm.1-.1Zm1.3-1Zm-.3,0a.2.2,0,0,0,.2-.2h.2c.1,0,.1.1.1.2h-.1V13h-.1l-.3.2v.2h0l-.3.4h0c.2-.2.2-.3.2-.4h0C16.8,13.4,16.8,13.3,16.9,13.3Zm-.6.9.2-.2h-.1v-.2a.1.1,0,0,1,.1-.1h.1c.1,0,.1.1,0,.2h0c0,.2-.1.3-.2.3h0Zm-.4-.4Zm-.6.3h.1c-.1,0-.1.1,0,.2h.4v-.2h.3v-.2h.1V14h-.3c.1.1,0,.1,0,.2h-.5Zm-.5.3H15a.1.1,0,1,0-.2,0h0v-.3h0a.4.4,0,0,1-.1.3h.1c.1,0,.1,0,.1.1h-.2Zm-.3-.2v-.4h.1c0,.2-.1.3-.1.4Zm-.3.1h.4c0,.1-.2.2-.3.2h-.1Zm-.8-.8h0a.8.8,0,0,0-.1.4h.2V14h.4c.1,0,.2-.2.2-.4h.1c-.1.3-.2.4-.3.4h-.6v-.2h-.1C13.3,13.7,13.3,13.6,13.4,13.5Zm-.1-.1h0l-.2.2h0Zm-.7-.1h0Z"/><path class="cls-4" d="M13,13.5h0Z"/><path class="cls-4" d="M16.5,13.9h0v-.2h-.1c-.1,0,0,.1,0,.1Z"/><path class="cls-4" d="M12.5,13.4h.1l.6.3Z"/><path class="cls-4" d="M17.7,13.4h-.2l-.7.6.6-.3h.3Z"/><path class="cls-2" d="M13.7,14.3h0a2.1,2.1,0,0,0,1.2.3h-.1A2,2,0,0,1,13.7,14.3Z"/><path d="M13.7,14.3h0a2.1,2.1,0,0,0,1.2.3h-.1A2,2,0,0,1,13.7,14.3Z"/><path d="M17.5,12.9a.4.4,0,0,0,.1.3h0c-.1,0-.1-.1-.1-.2h0l-.2-.2h0Z"/><path d="M17.5,12.9a.4.4,0,0,0,.1.3h0c-.1,0-.1-.1-.1-.2h0l-.2-.2h0Z"/><path d="M15,14.6h0a2.5,2.5,0,0,0,1.3-.3h0A2.5,2.5,0,0,1,15,14.6Z"/><path d="M15,14.6h0a2.5,2.5,0,0,0,1.3-.3h0A2.5,2.5,0,0,1,15,14.6Z"/><path d="M12.4,13.2a.4.4,0,0,0,.1-.3.2.2,0,0,1,.2-.2h0a.2.2,0,0,0-.2.2h0c0,.1,0,.2-.1.2h0Z"/><path d="M12.4,13.2a.4.4,0,0,0,.1-.3.2.2,0,0,1,.2-.2h0a.2.2,0,0,0-.2.2h0c0,.1,0,.2-.1.2h0Z"/><path class="cls-2" d="M14.8,14.6h0Z"/><path d="M14.8,14.6h0Z"/><path d="M14.8,14.6h0Z"/><path d="M15,14.6h0Z"/><path d="M15,14.6h0Z"/><path d="M15,14.6h0Z"/><path class="cls-2" d="M13.7,14.3Z"/><path d="M13.7,14.3Z"/><path d="M13.7,14.3Z"/><polygon points="12.4 13.3 12.3 13.3 12.3 13.3 12.3 13.3 12.4 13.3"/><polygon points="12.4 13.3 12.3 13.3 12.3 13.3 12.3 13.3 12.4 13.3"/><polygon points="12.4 13.3 12.3 13.3 12.3 13.3 12.3 13.3 12.4 13.3"/><path class="cls-4" d="M13.7,14.3Z"/><path d="M13.7,14.3Z"/><path d="M13.7,14.3Z"/><polygon class="cls-4" points="12.3 13.3 12.3 13.3 12.3 13.3 12.3 13.3 12.3 13.3"/><polygon points="12.3 13.3 12.3 13.3 12.3 13.3 12.3 13.3 12.3 13.3"/><polygon points="12.3 13.3 12.3 13.3 12.3 13.3 12.3 13.3 12.3 13.3"/><path class="cls-4" d="M16.3,14.3c.2,0,.3-.1.4-.3l.7-.3h0l-.6.3h-.1a2.2,2.2,0,0,1-1.7.6,2.2,2.2,0,0,1-1.7-.6h-.1l-.6-.3h0l.7.3c.1.2.2.3.4.3h0a2,2,0,0,0,1.1.3H15a2.5,2.5,0,0,0,1.3-.3Z"/><path d="M16.3,14.3c.2,0,.3-.1.4-.3l.7-.3h0l-.6.3h-.1a2.2,2.2,0,0,1-1.7.6,2.2,2.2,0,0,1-1.7-.6h-.1l-.6-.3h0l.7.3c.1.2.2.3.4.3h0a2,2,0,0,0,1.1.3H15a2.5,2.5,0,0,0,1.3-.3Z"/><polygon points="17.6 13.3 17.7 13.3 17.7 13.3 17.6 13.3 17.6 13.3"/><polygon points="17.6 13.3 17.7 13.3 17.7 13.3 17.6 13.3 17.6 13.3"/><polygon points="17.6 13.3 17.7 13.3 17.7 13.3 17.6 13.3 17.6 13.3"/><path d="M16.3,14.3Z"/><path d="M16.3,14.3Z"/><path d="M16.3,14.3Z"/><polygon class="cls-4" points="17.7 13.3 17.7 13.3 17.6 13.3 17.7 13.3 17.7 13.3"/><polygon points="17.7 13.3 17.7 13.3 17.6 13.3 17.7 13.3 17.7 13.3"/><polygon points="17.7 13.3 17.7 13.3 17.6 13.3 17.7 13.3 17.7 13.3"/><path class="cls-4" d="M16.3,14.3Z"/><path d="M16.3,14.3Z"/><path d="M16.3,14.3Z"/><path class="cls-4" d="M12.5,12.9a.4.4,0,0,1-.1.3h0a.4.4,0,0,0,.1-.3h0a.2.2,0,0,1,.2-.2h0A.2.2,0,0,0,12.5,12.9Z"/><path d="M12.5,12.9a.4.4,0,0,1-.1.3h0a.4.4,0,0,0,.1-.3h0a.2.2,0,0,1,.2-.2h0A.2.2,0,0,0,12.5,12.9Z"/><path class="cls-4" d="M17.5,12.9h0a.4.4,0,0,0,.1.3h0a.4.4,0,0,1-.1-.3l-.2-.2h0Z"/><path d="M17.5,12.9h0a.4.4,0,0,0,.1.3h0a.4.4,0,0,1-.1-.3l-.2-.2h0Z"/><path class="cls-4" d="M17,9.1a4.3,4.3,0,0,1,.2,1.1,2.2,2.2,0,1,1-4.4,0A4.3,4.3,0,0,1,13,9.1h-.3a2.8,2.8,0,0,0-.6,1.8,2.9,2.9,0,1,0,5.8,0,2.8,2.8,0,0,0-.6-1.8Zm-.1,2.6h0Zm-.1,1H17l.2-.2h0l-.2-.5h.1a1.1,1.1,0,0,1,.1.5c.1.2,0,.2,0,.2h0v.2H17l-.2.3h0Zm-3.2.5Zm2.9-.6Zm-.1.3h.1c0,.1,0,.2.1.1h.1a.4.4,0,0,0-.1-.3h.1c0,.2.1.3,0,.4h-.1c-.1,0-.2,0-.2-.2Zm-.1-.5h0a1.4,1.4,0,0,1,0,.9h0Zm-.7.5H16l-.2.4v.2h.3v-.2h0v-.6h0c.1.1,0,.3,0,.4s0,.2-.1.2h0v.2h-.5c.1,0,.2-.1.2-.3s0-.2.1-.2Zm-.8.1h.1v.2a.1.1,0,0,1-.1.1h.2v.2H15a.3.3,0,0,0,.1-.2h0c0,.2,0,.2.1.2v-.2h0c0,.1,0,.2.1.2a.3.3,0,0,0,.1-.2h0c0,.1,0,.2-.1.2h-.3v.2h-.1c-.1,0-.1-.1,0-.1h-.2l-.5.2h0c.2.1.3,0,.4-.1v-.2Zm-.7-.2ZM14,13h.1a.2.2,0,0,0,0,.3h.2c.1.1.1.1,0,.1h-.2C14,13.3,14,13.1,14,13Zm-.3-.7h0a.7.7,0,0,1-.1.5c0,.2,0,.3.1.3s.1-.1.1-.2h-.1c-.1,0-.1-.1-.1-.3a4.3,4.3,0,0,0,.1-.5Zm-.3.5c.1,0,.1-.2.2-.5h0c0,.4-.1.5-.2.6h0Zm-.2-.3h0c0,.1.1.2,0,.2h-.1c0-.1-.1-.1,0-.2h.1v-.2h0a.2.2,0,0,1,0-.3h.1Zm-.6-1.1h.1a.6.6,0,0,0,.1.7h0l.2-.2.2.2v.2H13c.1,0,.1-.1.1-.2h-.3A1.1,1.1,0,0,1,12.6,11.4Zm4.9.7h-.2a.1.1,0,0,0,0-.2h.2v-.3l-.3-.4h.1a.8.8,0,0,1,.2.4C17.5,11.9,17.6,12,17.5,12.1Zm.1-.3h0a1.1,1.1,0,0,0-.3-.6h.1a1.4,1.4,0,0,1,.2.6Z"/><path class="cls-4" d="M13.1,12.7h0Z"/><path class="cls-4" d="M17,12.6h0Z"/><path class="cls-4" d="M17,12.6h0Z"/><path class="cls-4" d="M14.7,13.1c0,.1-.1.2,0,.2h.1V13h-.1Z"/><path class="cls-3" d="M12.7,9.1h0l-.4.6h.1Z"/><path d="M12.7,9.1h0l-.4.6h.1Z"/><path class="cls-3" d="M17.9,10.9v.3h0v-.3a2.8,2.8,0,0,0-.6-1.8h0A2.8,2.8,0,0,1,17.9,10.9Z"/><path d="M17.9,10.9v.3h0v-.3a2.8,2.8,0,0,0-.6-1.8h0A2.8,2.8,0,0,1,17.9,10.9Z"/><path class="cls-3" d="M17.2,10.2a2.2,2.2,0,0,1-.1.8h0a2.2,2.2,0,0,0,.1-.8,2.3,2.3,0,0,0-.3-1.1h0A2.3,2.3,0,0,1,17.2,10.2Z"/><path d="M17.2,10.2a2.2,2.2,0,0,1-.1.8h0a2.2,2.2,0,0,0,.1-.8,2.3,2.3,0,0,0-.3-1.1h0A2.3,2.3,0,0,1,17.2,10.2Z"/><path class="cls-3" d="M13.1,9.1h0c-.2.2-.2.5-.3.7h0C12.9,9.6,12.9,9.3,13.1,9.1Z"/><path d="M13.1,9.1h0c-.2.2-.2.5-.3.7h0C12.9,9.6,12.9,9.3,13.1,9.1Z"/><path d="M12.8,10.2V9.8h0v.4a2.2,2.2,0,0,0,1.6,2.2h0A2.2,2.2,0,0,1,12.8,10.2Z"/><path d="M12.8,10.2V9.8h0v.4a2.2,2.2,0,0,0,1.6,2.2h0A2.2,2.2,0,0,1,12.8,10.2Z"/><path d="M12.1,10.9a2.8,2.8,0,0,0,.6,1.8h0a2.8,2.8,0,0,1-.6-1.8,5,5,0,0,1,.2-1.2h0A5,5,0,0,0,12.1,10.9Z"/><path d="M12.1,10.9a2.8,2.8,0,0,0,.6,1.8h0a2.8,2.8,0,0,1-.6-1.8,5,5,0,0,1,.2-1.2h0A5,5,0,0,0,12.1,10.9Z"/><path d="M15.6,12.3h0A2.3,2.3,0,0,0,17.1,11h0A2.4,2.4,0,0,1,15.6,12.3Z"/><path d="M15.6,12.3h0A2.3,2.3,0,0,0,17.1,11h0A2.4,2.4,0,0,1,15.6,12.3Z"/><path d="M17.3,12.7h0a3.4,3.4,0,0,0,.6-1.5h0A3.4,3.4,0,0,1,17.3,12.7Z"/><path d="M17.3,12.7h0a3.4,3.4,0,0,0,.6-1.5h0A3.4,3.4,0,0,1,17.3,12.7Z"/><path class="cls-3" d="M17.1,11Z"/><path d="M17.1,11Z"/><path d="M17.1,11Z"/><path class="cls-3" d="M12.4,9.7Z"/><path d="M12.4,9.7Z"/><path d="M12.4,9.7Z"/><path class="cls-3" d="M17.9,11.2Z"/><path d="M17.9,11.2Z"/><path d="M17.9,11.2Z"/><path class="cls-3" d="M12.8,9.8Z"/><path d="M12.8,9.8Z"/><path d="M12.8,9.8Z"/><path d="M12.8,9.8Z"/><path d="M12.8,9.8Z"/><path d="M12.8,9.8Z"/><path d="M17.9,11.2Z"/><path d="M17.9,11.2Z"/><path d="M17.9,11.2Z"/><path d="M12.3,9.7h0Z"/><path d="M12.3,9.7h0Z"/><path d="M12.3,9.7h0Z"/><path d="M17.1,11Z"/><path d="M17.1,11Z"/><path d="M17.1,11Z"/><polygon points="14.4 12.3 14.4 12.4 14.4 12.4 14.4 12.3 14.4 12.3"/><polygon points="14.4 12.3 14.4 12.4 14.4 12.4 14.4 12.3 14.4 12.3"/><polygon points="14.4 12.3 14.4 12.4 14.4 12.4 14.4 12.3 14.4 12.3"/><polygon points="15.6 12.3 15.6 12.4 15.6 12.4 15.6 12.3 15.6 12.3"/><polygon points="15.6 12.3 15.6 12.4 15.6 12.4 15.6 12.3 15.6 12.3"/><polygon points="15.6 12.3 15.6 12.4 15.6 12.4 15.6 12.3 15.6 12.3"/><polygon class="cls-4" points="15.6 12.3 15.6 12.4 15.6 12.4 15.6 12.3 15.6 12.3"/><polygon points="15.6 12.3 15.6 12.4 15.6 12.4 15.6 12.3 15.6 12.3"/><polygon points="15.6 12.3 15.6 12.4 15.6 12.4 15.6 12.3 15.6 12.3"/><polygon class="cls-4" points="14.4 12.4 14.4 12.4 14.4 12.3 14.4 12.3 14.4 12.4"/><polygon points="14.4 12.4 14.4 12.4 14.4 12.3 14.4 12.3 14.4 12.4"/><polygon points="14.4 12.4 14.4 12.4 14.4 12.3 14.4 12.3 14.4 12.4"/><polygon points="17.3 12.7 17.3 12.7 17.3 12.7 17.3 12.7 17.3 12.7"/><polygon points="17.3 12.7 17.3 12.7 17.3 12.7 17.3 12.7 17.3 12.7"/><polygon points="17.3 12.7 17.3 12.7 17.3 12.7 17.3 12.7 17.3 12.7"/><polygon points="12.7 12.7 12.7 12.7 12.7 12.7 12.7 12.7 12.7 12.7"/><polygon points="12.7 12.7 12.7 12.7 12.7 12.7 12.7 12.7 12.7 12.7"/><polygon points="12.7 12.7 12.7 12.7 12.7 12.7 12.7 12.7 12.7 12.7"/><polygon class="cls-4" points="12.7 12.7 12.7 12.7 12.7 12.7 12.7 12.7 12.7 12.7 12.7 12.7"/><polygon points="12.7 12.7 12.7 12.7 12.7 12.7 12.7 12.7 12.7 12.7 12.7 12.7"/><polygon points="12.7 12.7 12.7 12.7 12.7 12.7 12.7 12.7 12.7 12.7 12.7 12.7"/><polygon class="cls-4" points="17.3 12.7 17.3 12.7 17.3 12.7 17.3 12.7 17.3 12.7 17.3 12.7"/><polygon points="17.3 12.7 17.3 12.7 17.3 12.7 17.3 12.7 17.3 12.7 17.3 12.7"/><polygon points="17.3 12.7 17.3 12.7 17.3 12.7 17.3 12.7 17.3 12.7 17.3 12.7"/><path class="cls-4" d="M17.9,10.9a2.8,2.8,0,0,0-.6-1.8h0a2.8,2.8,0,0,1,.6,1.8,2.9,2.9,0,1,1-5.8,0,2.8,2.8,0,0,1,.6-1.8h0l-.3.6h-.1a5,5,0,0,0-.2,1.2,2.8,2.8,0,0,0,.6,1.8h0a3,3,0,0,0,4.6,0h0a3.4,3.4,0,0,0,.6-1.5h0Z"/><path d="M17.9,10.9a2.8,2.8,0,0,0-.6-1.8h0a2.8,2.8,0,0,1,.6,1.8,2.9,2.9,0,1,1-5.8,0,2.8,2.8,0,0,1,.6-1.8h0l-.3.6h-.1a5,5,0,0,0-.2,1.2,2.8,2.8,0,0,0,.6,1.8h0a3,3,0,0,0,4.6,0h0a3.4,3.4,0,0,0,.6-1.5h0Z"/><path class="cls-4" d="M12.8,10.2a2.2,2.2,0,1,0,4.4,0A4.3,4.3,0,0,0,17,9.1h-.1a2.3,2.3,0,0,1,.3,1.1,2.2,2.2,0,0,1-.1.8h0a2.3,2.3,0,0,1-1.5,1.4H14.4a2.2,2.2,0,0,1-1.6-2.2V9.8h0c.1-.2.1-.5.3-.7H13A4.3,4.3,0,0,0,12.8,10.2Z"/><path d="M12.8,10.2a2.2,2.2,0,1,0,4.4,0A4.3,4.3,0,0,0,17,9.1h-.1a2.3,2.3,0,0,1,.3,1.1,2.2,2.2,0,0,1-.1.8h0a2.3,2.3,0,0,1-1.5,1.4H14.4a2.2,2.2,0,0,1-1.6-2.2V9.8h0c.1-.2.1-.5.3-.7H13A4.3,4.3,0,0,0,12.8,10.2Z"/><path class="cls-4" d="M14,9h-.9c0,.1.1.2.3.2h.4l.6-.2h.1l-.8.3h.7l.3-.2h.1l-.4.3h.1A.5.5,0,0,0,15,9h0a.5.5,0,0,0,.5.3h.1L15.2,9h.1l.3.2h.7L15.5,9h.1l.6.2h.4c.2,0,.3-.1.3-.2h.2l-.8-.2h1.4a.2.2,0,0,0,.2-.2h-.5l-.9-.2H16L15.4,8l-.4.2h0L14.6,8l-.6.2h-.5l-.9.2h-.5a.2.2,0,0,0,.2.2h1.4l-.8.2H14Z"/><path class="cls-3" d="M16.9,9.1c0,.2-.4.2-.6.2h.3c.2,0,.3-.1.3-.2Z"/><path d="M16.9,9.1c0,.2-.4.2-.6.2h.3c.2,0,.3-.1.3-.2Z"/><path class="cls-3" d="M12.7,9h0c-.3,0-.4,0-.4-.2h0c-.2-.1-.2-.2,0-.2a3.2,3.2,0,0,0,1.4-.2,1.3,1.3,0,0,1,1.2-.2h-.3l-.6.2h-.5l-.9.2h-.5a.2.2,0,0,0,.2.2c0,.2.1.2.3.3h.1Z"/><path d="M12.7,9h0c-.3,0-.4,0-.4-.2h0c-.2-.1-.2-.2,0-.2a3.2,3.2,0,0,0,1.4-.2,1.3,1.3,0,0,1,1.2-.2h-.3l-.6.2h-.5l-.9.2h-.5a.2.2,0,0,0,.2.2c0,.2.1.2.3.3h.1Z"/><path class="cls-3" d="M13.1,9.1c0,.1.1.2.3.2h.3c-.2,0-.6,0-.6-.2Z"/><path d="M13.1,9.1c0,.1.1.2.3.2h.3c-.2,0-.6,0-.6-.2Z"/><path class="cls-3" d="M16.3,8.3a3,3,0,0,0,1.4.2c.2,0,.2.1,0,.2h0c0,.2-.1.2-.4.2h.1c.2-.1.3-.1.3-.3a.2.2,0,0,0,.2-.2h-.5l-.9-.2H16L15.4,8h-.3A1.3,1.3,0,0,1,16.3,8.3Z"/><path d="M16.3,8.3a3,3,0,0,0,1.4.2c.2,0,.2.1,0,.2h0c0,.2-.1.2-.4.2h.1c.2-.1.3-.1.3-.3a.2.2,0,0,0,.2-.2h-.5l-.9-.2H16L15.4,8h-.3A1.3,1.3,0,0,1,16.3,8.3Z"/><polygon class="cls-3" points="15.1 9.2 15.1 9.2 15.1 9.2 15.1 9.2 15.1 9.2"/><polygon points="15.1 9.2 15.1 9.2 15.1 9.2 15.1 9.2 15.1 9.2"/><polygon points="15.1 9.2 15.1 9.2 15.1 9.2 15.1 9.2 15.1 9.2"/><polygon class="cls-3" points="15.1 8.1 15.1 8.1 15.1 8.1 15.1 8.1 15.1 8.1"/><polygon points="15.1 8.1 15.1 8.1 15.1 8.1 15.1 8.1 15.1 8.1"/><polygon points="15.1 8.1 15.1 8.1 15.1 8.1 15.1 8.1 15.1 8.1"/><polygon class="cls-3" points="14.9 9.2 14.9 9.2 14.9 9.2 14.9 9.2 14.9 9.2"/><polygon points="14.9 9.2 14.9 9.2 14.9 9.2 14.9 9.2 14.9 9.2"/><polygon points="14.9 9.2 14.9 9.2 14.9 9.2 14.9 9.2 14.9 9.2"/><polygon class="cls-3" points="14.9 8.1 14.9 8.1 14.9 8.1 14.9 8.1 14.9 8.1"/><polygon points="14.9 8.1 14.9 8.1 14.9 8.1 14.9 8.1 14.9 8.1"/><polygon points="14.9 8.1 14.9 8.1 14.9 8.1 14.9 8.1 14.9 8.1"/><polygon class="cls-4" points="14.9 8.1 14.9 8.1 14.9 8.1 14.9 8.1 14.9 8.1"/><polygon points="14.9 8.1 14.9 8.1 14.9 8.1 14.9 8.1 14.9 8.1"/><polygon points="14.9 8.1 14.9 8.1 14.9 8.1 14.9 8.1 14.9 8.1"/><polygon class="cls-4" points="14.9 9.2 14.9 9.2 14.9 9.2 14.9 9.2 14.9 9.2"/><polygon points="14.9 9.2 14.9 9.2 14.9 9.2 14.9 9.2 14.9 9.2"/><polygon points="14.9 9.2 14.9 9.2 14.9 9.2 14.9 9.2 14.9 9.2"/><polygon class="cls-4" points="15.1 8.1 15.1 8.1 15.1 8.1 15.1 8.1 15.1 8.1"/><polygon points="15.1 8.1 15.1 8.1 15.1 8.1 15.1 8.1 15.1 8.1"/><polygon points="15.1 8.1 15.1 8.1 15.1 8.1 15.1 8.1 15.1 8.1"/><polygon class="cls-4" points="15.1 9.2 15.1 9.2 15.1 9.2 15.1 9.2 15.1 9.2"/><polygon points="15.1 9.2 15.1 9.2 15.1 9.2 15.1 9.2 15.1 9.2"/><polygon points="15.1 9.2 15.1 9.2 15.1 9.2 15.1 9.2 15.1 9.2"/><path class="cls-4" d="M12.7,9.1h0Z"/><path d="M12.7,9.1h0Z"/><polygon class="cls-3" points="16.9 9.1 16.9 9.1 16.9 9.1 16.9 9.1 16.9 9.1"/><polygon points="16.9 9.1 16.9 9.1 16.9 9.1 16.9 9.1 16.9 9.1"/><polygon points="16.9 9.1 16.9 9.1 16.9 9.1 16.9 9.1 16.9 9.1"/><polygon class="cls-3" points="13.1 9.1 13.1 9.1 13.1 9.1 13.1 9.1 13.1 9.1"/><polygon points="13.1 9.1 13.1 9.1 13.1 9.1 13.1 9.1 13.1 9.1"/><polygon points="13.1 9.1 13.1 9.1 13.1 9.1 13.1 9.1 13.1 9.1"/><polygon class="cls-3" points="17.3 9.1 17.3 9.1 17.3 9.1 17.3 9.1 17.3 9.1"/><polygon points="17.3 9.1 17.3 9.1 17.3 9.1 17.3 9.1 17.3 9.1"/><polygon points="17.3 9.1 17.3 9.1 17.3 9.1 17.3 9.1 17.3 9.1"/><polygon class="cls-3" points="12.7 9.1 12.7 9.1 12.7 9.1 12.7 9.1 12.7 9.1"/><polygon points="12.7 9.1 12.7 9.1 12.7 9.1 12.7 9.1 12.7 9.1"/><polygon points="12.7 9.1 12.7 9.1 12.7 9.1 12.7 9.1 12.7 9.1"/><polygon class="cls-4" points="17.3 9.1 17.3 9.1 17.3 9.1 17.3 9.1 17.3 9.1"/><polygon points="17.3 9.1 17.3 9.1 17.3 9.1 17.3 9.1 17.3 9.1"/><polygon points="17.3 9.1 17.3 9.1 17.3 9.1 17.3 9.1 17.3 9.1"/><polygon class="cls-4" points="13.1 9.1 13 9.1 13 9.1 13.1 9.1 13.1 9.1"/><polygon points="13.1 9.1 13 9.1 13 9.1 13.1 9.1 13.1 9.1"/><polygon points="13.1 9.1 13 9.1 13 9.1 13.1 9.1 13.1 9.1"/><polygon class="cls-4" points="12.7 9.1 12.7 9.1 12.7 9.1 12.7 9.1 12.7 9.1"/><polygon points="12.7 9.1 12.7 9.1 12.7 9.1 12.7 9.1 12.7 9.1"/><polygon points="12.7 9.1 12.7 9.1 12.7 9.1 12.7 9.1 12.7 9.1"/><polygon class="cls-4" points="17 9.1 17 9.1 16.9 9.1 16.9 9.1 17 9.1"/><polygon points="17 9.1 17 9.1 16.9 9.1 16.9 9.1 17 9.1"/><polygon points="17 9.1 17 9.1 16.9 9.1 16.9 9.1 17 9.1"/><polygon class="cls-4" points="17.7 8.7 17.7 8.7 17.7 8.7 17.7 8.7"/><polygon points="17.7 8.7 17.7 8.7 17.7 8.7 17.7 8.7"/><path class="cls-4" d="M12.3,8.8h0c0,.2.1.2.4.2h-.4Z"/><path d="M12.3,8.8h0c0,.2.1.2.4.2h-.4Z"/><path class="cls-4" d="M12.3,8.7h0a.2.2,0,0,1-.2-.2h.5l.9-.2H14l.6-.2.4.2h0l.4-.2.6.2h.5l.9.2h.5a.2.2,0,0,1-.2.2h0c.2-.1.2-.2,0-.2a3,3,0,0,1-1.4-.2,1.3,1.3,0,0,0-1.2-.2h-.2a1.3,1.3,0,0,0-1.2.2,3.2,3.2,0,0,1-1.4.2c-.2,0-.2.1,0,.2Z"/><path d="M12.3,8.7h0a.2.2,0,0,1-.2-.2h.5l.9-.2H14l.6-.2.4.2h0l.4-.2.6.2h.5l.9.2h.5a.2.2,0,0,1-.2.2h0c.2-.1.2-.2,0-.2a3,3,0,0,1-1.4-.2,1.3,1.3,0,0,0-1.2-.2h-.2a1.3,1.3,0,0,0-1.2.2,3.2,3.2,0,0,1-1.4.2c-.2,0-.2.1,0,.2Z"/><polygon class="cls-4" points="13.1 9.1 13.1 9.1 13.1 9.1 13.1 9.1"/><polygon points="13.1 9.1 13.1 9.1 13.1 9.1 13.1 9.1"/><path class="cls-4" d="M15.6,9.3Z"/><path d="M15.6,9.3Z"/><path class="cls-4" d="M13.7,9.2h-.3c-.2,0-.3-.1-.3-.2h0c0,.2.4.2.6.2Z"/><path d="M13.7,9.2h-.3c-.2,0-.3-.1-.3-.2h0c0,.2.4.2.6.2Z"/><path class="cls-4" d="M14.4,9.3Z"/><path d="M14.4,9.3Z"/><path class="cls-4" d="M17.3,8.9h0c.3,0,.4,0,.4-.2h-.4Z"/><path d="M17.3,8.9h0c.3,0,.4,0,.4-.2h-.4Z"/><path class="cls-4" d="M17,9.1h0Z"/><path d="M17,9.1h0Z"/><polygon class="cls-4" points="15.6 9.3 15.6 9.3 15.6 9.3 15.6 9.3"/><polygon points="15.6 9.3 15.6 9.3 15.6 9.3 15.6 9.3"/><path class="cls-4" d="M16.3,9.3h0c.2,0,.6,0,.6-.2h0c0,.1-.1.2-.3.2h-.3Z"/><path d="M16.3,9.3h0c.2,0,.6,0,.6-.2h0c0,.1-.1.2-.3.2h-.3Z"/><path class="cls-4" d="M14.9,9.2h0v0h.4A.5.5,0,0,1,15,9h0a.5.5,0,0,1-.5.3h.4Z"/><path d="M14.9,9.2h0v0h.4A.5.5,0,0,1,15,9h0a.5.5,0,0,1-.5.3h.4Z"/><path class="cls-5" d="M13.1,8.7h-.8C12.4,8.8,12.7,8.8,13.1,8.7Z"/><path class="cls-4" d="M13.2,8.7h0q-.7.2-.9,0h.9Z"/><path d="M13.2,8.7h0q-.7.2-.9,0h.9Z"/><path class="cls-4" d="M12.3,8.7Z"/><path d="M12.3,8.7Z"/><path class="cls-3" d="M12.3,8.7Z"/><path d="M12.3,8.7Z"/><path d="M12.3,8.7Z"/><polygon class="cls-4" points="12.3 8.7 12.3 8.7 12.3 8.7 12.3 8.7 12.3 8.7 12.3 8.7"/><polygon points="12.3 8.7 12.3 8.7 12.3 8.7 12.3 8.7 12.3 8.7 12.3 8.7"/><polygon points="12.3 8.7 12.3 8.7 12.3 8.7 12.3 8.7 12.3 8.7 12.3 8.7"/><path class="cls-4" d="M12.3,8.7Z"/><path d="M12.3,8.7Z"/><path d="M12.3,8.7Z"/><path class="cls-5" d="M13.2,8.7h-.1c-.4.1-.7.1-.8,0h0Q12.5,8.9,13.2,8.7Z"/><path d="M13.2,8.7h-.1c-.4.1-.7.1-.8,0h0Q12.5,8.9,13.2,8.7Z"/><path class="cls-5" d="M13.7,8.8h-1A1.8,1.8,0,0,0,13.7,8.8Z"/><path class="cls-4" d="M12.7,8.9Z"/><path d="M12.7,8.9Z"/><path class="cls-4" d="M12.9,9l.8-.2h0a1.7,1.7,0,0,1-1,.1h.2Z"/><path d="M12.9,9l.8-.2h0a1.7,1.7,0,0,1-1,.1h.2Z"/><polygon class="cls-3" points="12.7 8.9 12.7 9 12.7 9 12.7 8.9 12.7 8.9"/><polygon points="12.7 8.9 12.7 9 12.7 9 12.7 8.9 12.7 8.9"/><polygon points="12.7 8.9 12.7 9 12.7 9 12.7 8.9 12.7 8.9"/><polygon class="cls-4" points="12.7 8.9 12.7 8.9 12.7 9 12.7 9 12.7 8.9"/><polygon points="12.7 8.9 12.7 8.9 12.7 9 12.7 9 12.7 8.9"/><polygon points="12.7 8.9 12.7 8.9 12.7 9 12.7 9 12.7 8.9"/><polygon class="cls-4" points="12.7 8.9 12.7 8.9 12.7 8.9 12.7 8.9 12.7 8.9 12.7 8.9 12.7 8.9"/><polygon points="12.7 8.9 12.7 8.9 12.7 8.9 12.7 8.9 12.7 8.9 12.7 8.9 12.7 8.9"/><polygon points="12.7 8.9 12.7 8.9 12.7 8.9 12.7 8.9 12.7 8.9 12.7 8.9 12.7 8.9"/><path class="cls-5" d="M13.7,8.8h0a1.8,1.8,0,0,1-1,.1h0A1.7,1.7,0,0,0,13.7,8.8Z"/><path d="M13.7,8.8h0a1.8,1.8,0,0,1-1,.1h0A1.7,1.7,0,0,0,13.7,8.8Z"/><path class="cls-5" d="M14,9h0Z"/><polygon class="cls-5" points="13.1 9.1 13.1 9.1 13.1 9.1 13.1 9.1"/><path class="cls-4" d="M14,9Z"/><path d="M14,9Z"/><path class="cls-4" d="M13.2,9.1h0Z"/><path d="M13.2,9.1h0Z"/><path class="cls-4" d="M14,9Z"/><path d="M14,9Z"/><polygon class="cls-3" points="13.1 9.1 13.1 9.1 13.1 9.1 13.1 9.1"/><polygon points="13.1 9.1 13.1 9.1 13.1 9.1 13.1 9.1"/><polygon points="13.1 9.1 13.1 9.1 13.1 9.1 13.1 9.1"/><polygon class="cls-4" points="13.1 9.1 13.1 9.1 13.1 9.1 13.1 9.1 13.1 9.1"/><polygon points="13.1 9.1 13.1 9.1 13.1 9.1 13.1 9.1 13.1 9.1"/><polygon points="13.1 9.1 13.1 9.1 13.1 9.1 13.1 9.1 13.1 9.1"/><polygon class="cls-4" points="13.1 9.1 13.1 9.1 13.1 9.1 13.1 9.1 13.1 9.1 13.1 9.1"/><polygon points="13.1 9.1 13.1 9.1 13.1 9.1 13.1 9.1 13.1 9.1 13.1 9.1"/><polygon points="13.1 9.1 13.1 9.1 13.1 9.1 13.1 9.1 13.1 9.1 13.1 9.1"/><path class="cls-5" d="M13.1,9.1h0Z"/><path d="M13.1,9.1h0Z"/><path class="cls-5" d="M13.8,9.2l.6-.2Z"/><path class="cls-4" d="M13.7,9.2Z"/><path d="M13.7,9.2Z"/><path class="cls-4" d="M13.7,9.2h0l.8-.3h0A1.1,1.1,0,0,1,13.7,9.2Z"/><path d="M13.7,9.2h0l.8-.3h0A1.1,1.1,0,0,1,13.7,9.2Z"/><polygon class="cls-3" points="13.7 9.3 13.7 9.3 13.7 9.3 13.7 9.3 13.7 9.3"/><polygon points="13.7 9.3 13.7 9.3 13.7 9.3 13.7 9.3 13.7 9.3"/><polygon points="13.7 9.3 13.7 9.3 13.7 9.3 13.7 9.3 13.7 9.3"/><polygon class="cls-4" points="13.7 9.2 13.7 9.2 13.7 9.2 13.7 9.2 13.7 9.2 13.7 9.3 13.7 9.3 13.7 9.2"/><polygon points="13.7 9.2 13.7 9.2 13.7 9.2 13.7 9.2 13.7 9.2 13.7 9.3 13.7 9.3 13.7 9.2"/><polygon points="13.7 9.2 13.7 9.2 13.7 9.2 13.7 9.2 13.7 9.2 13.7 9.3 13.7 9.3 13.7 9.2"/><path class="cls-4" d="M13.7,9.2h0Z"/><path d="M13.7,9.2h0Z"/><path d="M13.7,9.2h0Z"/><path class="cls-5" d="M13.7,9.3h0a1.1,1.1,0,0,0,.8-.3h-.1l-.6.2h-.1Z"/><path d="M13.7,9.3h0a1.1,1.1,0,0,0,.8-.3h-.1l-.6.2h-.1Z"/><path class="cls-5" d="M14.7,9l-.3.2Z"/><path class="cls-4" d="M14.4,9.3Z"/><path d="M14.4,9.3Z"/><path class="cls-4" d="M14.4,9.3h0l.4-.3h0Z"/><path d="M14.4,9.3h0l.4-.3h0Z"/><path class="cls-3" d="M14.4,9.3Z"/><path d="M14.4,9.3Z"/><path d="M14.4,9.3Z"/><polygon class="cls-4" points="14.4 9.3 14.4 9.3 14.4 9.3 14.4 9.3 14.4 9.3 14.4 9.3 14.4 9.3 14.4 9.3"/><polygon points="14.4 9.3 14.4 9.3 14.4 9.3 14.4 9.3 14.4 9.3 14.4 9.3 14.4 9.3 14.4 9.3"/><polygon points="14.4 9.3 14.4 9.3 14.4 9.3 14.4 9.3 14.4 9.3 14.4 9.3 14.4 9.3 14.4 9.3"/><path class="cls-4" d="M14.4,9.3Z"/><path d="M14.4,9.3Z"/><path d="M14.4,9.3Z"/><path class="cls-5" d="M14.4,9.3h0l.4-.3h-.1l-.3.2Z"/><path d="M14.4,9.3h0l.4-.3h-.1l-.3.2Z"/><path class="cls-5" d="M17.7,8.7h-.8C17.3,8.8,17.6,8.8,17.7,8.7Z"/><path class="cls-4" d="M16.8,8.7h.9Q17.6,8.9,16.8,8.7Z"/><path d="M16.8,8.7h.9Q17.6,8.9,16.8,8.7Z"/><path class="cls-4" d="M17.7,8.7Z"/><path d="M17.7,8.7Z"/><path class="cls-4" d="M16.9,8.7Z"/><path d="M16.9,8.7Z"/><path class="cls-3" d="M17.7,8.7Z"/><path d="M17.7,8.7Z"/><path d="M17.7,8.7Z"/><polygon class="cls-4" points="17.7 8.7 17.7 8.7 17.7 8.7 17.7 8.7 17.7 8.7 17.7 8.7"/><polygon points="17.7 8.7 17.7 8.7 17.7 8.7 17.7 8.7 17.7 8.7 17.7 8.7"/><polygon points="17.7 8.7 17.7 8.7 17.7 8.7 17.7 8.7 17.7 8.7 17.7 8.7"/><path class="cls-4" d="M17.7,8.7h0Z"/><path d="M17.7,8.7h0Z"/><path d="M17.7,8.7h0Z"/><path class="cls-5" d="M17.7,8.7c-.1.1-.4.1-.8,0h-.1q.8.2.9,0Z"/><path d="M17.7,8.7c-.1.1-.4.1-.8,0h-.1q.8.2.9,0Z"/><path class="cls-5" d="M17.3,8.9h-1A1.8,1.8,0,0,0,17.3,8.9Z"/><path class="cls-4" d="M17.3,8.9Z"/><path d="M17.3,8.9Z"/><path class="cls-4" d="M16.3,8.8Z"/><path d="M16.3,8.8Z"/><path class="cls-4" d="M16.3,8.8h0l.8.2h.2A1.7,1.7,0,0,1,16.3,8.8Z"/><path d="M16.3,8.8h0l.8.2h.2A1.7,1.7,0,0,1,16.3,8.8Z"/><polygon class="cls-3" points="17.3 9 17.3 9 17.3 8.9 17.3 8.9 17.3 9"/><polygon points="17.3 9 17.3 9 17.3 8.9 17.3 8.9 17.3 9"/><polygon points="17.3 9 17.3 9 17.3 8.9 17.3 8.9 17.3 9"/><polygon class="cls-4" points="17.3 8.9 17.3 9 17.3 9 17.3 8.9 17.3 8.9"/><polygon points="17.3 8.9 17.3 9 17.3 9 17.3 8.9 17.3 8.9"/><polygon points="17.3 8.9 17.3 9 17.3 9 17.3 8.9 17.3 8.9"/><polygon class="cls-4" points="17.3 8.9 17.3 8.9 17.3 8.9 17.3 8.9 17.3 8.9 17.3 8.9 17.3 8.9"/><polygon points="17.3 8.9 17.3 8.9 17.3 8.9 17.3 8.9 17.3 8.9 17.3 8.9 17.3 8.9"/><polygon points="17.3 8.9 17.3 8.9 17.3 8.9 17.3 8.9 17.3 8.9 17.3 8.9 17.3 8.9"/><path class="cls-5" d="M16.3,8.8h0a1.7,1.7,0,0,0,1,.1h0A1.8,1.8,0,0,1,16.3,8.8Z"/><path d="M16.3,8.8h0a1.7,1.7,0,0,0,1,.1h0A1.8,1.8,0,0,1,16.3,8.8Z"/><path class="cls-5" d="M16,9h0Z"/><path class="cls-4" d="M16.9,9.1Z"/><path d="M16.9,9.1Z"/><path class="cls-4" d="M16,9Z"/><path d="M16,9Z"/><polygon class="cls-3" points="16.9 9.1 16.9 9.1 16.9 9.1 16.9 9.1 16.9 9.1"/><polygon points="16.9 9.1 16.9 9.1 16.9 9.1 16.9 9.1 16.9 9.1"/><polygon points="16.9 9.1 16.9 9.1 16.9 9.1 16.9 9.1 16.9 9.1"/><polygon class="cls-4" points="16.9 9.1 16.9 9.1 16.9 9.1 16.9 9.1 16.9 9.1 16.9 9.1"/><polygon points="16.9 9.1 16.9 9.1 16.9 9.1 16.9 9.1 16.9 9.1 16.9 9.1"/><polygon points="16.9 9.1 16.9 9.1 16.9 9.1 16.9 9.1 16.9 9.1 16.9 9.1"/><polygon class="cls-4" points="16.9 9.1 16.9 9.1 16.9 9.1 16.9 9.1 16.9 9.1"/><polygon points="16.9 9.1 16.9 9.1 16.9 9.1 16.9 9.1 16.9 9.1"/><polygon points="16.9 9.1 16.9 9.1 16.9 9.1 16.9 9.1 16.9 9.1"/><path class="cls-5" d="M16.9,9.1Z"/><path d="M16.9,9.1Z"/><path class="cls-5" d="M15.6,9l.6.2Z"/><path class="cls-4" d="M15.5,8.9h0l.8.3h0A1.1,1.1,0,0,1,15.5,8.9Z"/><path d="M15.5,8.9h0l.8.3h0A1.1,1.1,0,0,1,15.5,8.9Z"/><path class="cls-4" d="M16.3,9.2Z"/><path d="M16.3,9.2Z"/><polygon class="cls-3" points="16.3 9.3 16.3 9.3 16.3 9.3 16.3 9.3"/><polygon points="16.3 9.3 16.3 9.3 16.3 9.3 16.3 9.3"/><polygon points="16.3 9.3 16.3 9.3 16.3 9.3 16.3 9.3"/><polygon class="cls-4" points="16.3 9.2 16.3 9.2 16.3 9.3 16.3 9.2 16.3 9.2 16.3 9.2 16.3 9.2"/><polygon points="16.3 9.2 16.3 9.2 16.3 9.3 16.3 9.2 16.3 9.2 16.3 9.2 16.3 9.2"/><polygon points="16.3 9.2 16.3 9.2 16.3 9.3 16.3 9.2 16.3 9.2 16.3 9.2 16.3 9.2"/><path class="cls-4" d="M16.3,9.3Z"/><path d="M16.3,9.3Z"/><path d="M16.3,9.3Z"/><path class="cls-5" d="M16.3,9.2h-.1L15.6,9h-.1A1.1,1.1,0,0,0,16.3,9.2Z"/><path d="M16.3,9.2h-.1L15.6,9h-.1A1.1,1.1,0,0,0,16.3,9.2Z"/><path class="cls-5" d="M15.6,9.2,15.3,9Z"/><polygon class="cls-5" points="15.6 9.3 15.6 9.3 15.6 9.3 15.6 9.3"/><path class="cls-4" d="M15.2,9h0l.4.3h0Z"/><path d="M15.2,9h0l.4.3h0Z"/><path class="cls-4" d="M15.6,9.3Z"/><path d="M15.6,9.3Z"/><path class="cls-3" d="M15.6,9.3Z"/><path d="M15.6,9.3Z"/><path d="M15.6,9.3Z"/><path class="cls-4" d="M15.6,9.3Z"/><path d="M15.6,9.3Z"/><path d="M15.6,9.3Z"/><polygon class="cls-4" points="15.6 9.3 15.6 9.3 15.6 9.3 15.6 9.3 15.6 9.3 15.6 9.3 15.6 9.3"/><polygon points="15.6 9.3 15.6 9.3 15.6 9.3 15.6 9.3 15.6 9.3 15.6 9.3 15.6 9.3"/><polygon points="15.6 9.3 15.6 9.3 15.6 9.3 15.6 9.3 15.6 9.3 15.6 9.3 15.6 9.3"/><path class="cls-5" d="M15.6,9.3h0L15.3,9h-.1Z"/><path d="M15.6,9.3h0L15.3,9h-.1Z"/><path class="cls-4" d="M15,6.7h0V6.1h-.1V7h.2V6.7H15Z"/><polygon class="cls-3" points="15.1 6.1 15.1 6.1 15.1 6 15.1 6 15.1 6.1"/><polygon points="15.1 6.1 15.1 6.1 15.1 6 15.1 6 15.1 6.1"/><polygon class="cls-3" points="14.9 6 14.9 6 14.9 7 14.9 7 14.9 6"/><polygon points="14.9 6 14.9 6 14.9 7 14.9 7 14.9 6"/><polygon class="cls-3" points="15.1 7 15.1 7 15.1 6.7 15.1 6.7 15.1 7"/><polygon points="15.1 7 15.1 7 15.1 6.7 15.1 6.7 15.1 7"/><polygon class="cls-3" points="14.9 7 14.9 7 14.9 7 14.9 7 14.9 7"/><polygon points="14.9 7 14.9 7 14.9 7 14.9 7 14.9 7"/><polygon points="14.9 7 14.9 7 14.9 7 14.9 7 14.9 7"/><polygon class="cls-3" points="15.1 7 15.1 7 15.1 7 15.1 7 15.1 7"/><polygon points="15.1 7 15.1 7 15.1 7 15.1 7 15.1 7"/><polygon points="15.1 7 15.1 7 15.1 7 15.1 7 15.1 7"/><polygon class="cls-3" points="15.1 7 15.1 7 15.1 7 15.1 7 15.1 7"/><polygon points="15.1 7 15.1 7 15.1 7 15.1 7 15.1 7"/><polygon points="15.1 7 15.1 7 15.1 7 15.1 7 15.1 7"/><polygon points="15.1 7 15.1 7 15.1 7 15.1 7 15.1 7"/><polygon class="cls-3" points="14.9 7 14.9 7 14.9 7 14.9 7 14.9 7"/><polygon points="14.9 7 14.9 7 14.9 7 14.9 7 14.9 7"/><polygon points="14.9 7 14.9 7 14.9 7 14.9 7 14.9 7"/><polygon points="14.9 7 14.9 7 14.9 7 14.9 7 14.9 7"/><polygon class="cls-4" points="14.9 7 14.9 7 14.9 7 14.9 7 14.9 7"/><polygon points="14.9 7 14.9 7 14.9 7 14.9 7 14.9 7"/><polygon points="14.9 7 14.9 7 14.9 7 14.9 7 14.9 7"/><polygon points="14.9 7 14.9 7 14.9 7 14.9 7 14.9 7"/><polygon class="cls-4" points="15.1 7 15.1 7 15.1 7 15.1 7 15.1 7"/><polygon points="15.1 7 15.1 7 15.1 7 15.1 7 15.1 7"/><polygon points="15.1 7 15.1 7 15.1 7 15.1 7 15.1 7"/><polygon points="15.1 7 15.1 7 15.1 7 15.1 7 15.1 7"/><polygon class="cls-4" points="14.9 7 14.9 7 14.9 7 14.9 7 14.9 7"/><polygon points="14.9 7 14.9 7 14.9 7 14.9 7 14.9 7"/><polygon points="14.9 7 14.9 7 14.9 7 14.9 7 14.9 7"/><polygon class="cls-4" points="15.1 7 15.1 7 15.1 7 15.1 7 15.1 7"/><polygon points="15.1 7 15.1 7 15.1 7 15.1 7 15.1 7"/><polygon points="15.1 7 15.1 7 15.1 7 15.1 7 15.1 7"/><polygon class="cls-4" points="15.1 6.1 15.1 6.1 15.1 6 15.1 6 15.1 6.1"/><polygon points="15.1 6.1 15.1 6.1 15.1 6 15.1 6 15.1 6.1"/><path class="cls-4" d="M14.9,7h.2V6.7h0V7h-.2V6h0V7Z"/><path d="M14.9,7h.2V6.7h0V7h-.2V6h0V7Z"/><path class="cls-4" d="M15.2,5.8,15,5.6l-.2.2a.2.2,0,0,0,.4,0Z"/><path class="cls-3" d="M14.8,5.8l.2-.2.2.2c0,.1,0,.2-.1.2h0c.1,0,.1-.1.1-.2L15,5.6l-.2.2c0,.1,0,.2.1.2h0C14.8,6,14.8,5.9,14.8,5.8Z"/><path d="M14.8,5.8l.2-.2.2.2c0,.1,0,.2-.1.2h0c.1,0,.1-.1.1-.2L15,5.6l-.2.2c0,.1,0,.2.1.2h0C14.8,6,14.8,5.9,14.8,5.8Z"/><path class="cls-4" d="M14.9,6h.2c.1,0,.1-.1.1-.2L15,5.6l-.2.2c0,.1,0,.2.1.2Zm-.1-.2.2-.2.2.2a.2.2,0,0,1-.4,0Z"/><path d="M14.9,6h.2c.1,0,.1-.1.1-.2L15,5.6l-.2.2c0,.1,0,.2.1.2Zm-.1-.2.2-.2.2.2a.2.2,0,0,1-.4,0Z"/><polygon class="cls-3" points="15.1 6 15.1 6 15.1 6 15.1 6 15.1 6"/><polygon points="15.1 6 15.1 6 15.1 6 15.1 6 15.1 6"/><polygon points="15.1 6 15.1 6 15.1 6 15.1 6 15.1 6"/><polygon class="cls-3" points="14.9 6 14.9 6 14.9 6 14.9 6 14.9 6"/><polygon points="14.9 6 14.9 6 14.9 6 14.9 6 14.9 6"/><polygon points="14.9 6 14.9 6 14.9 6 14.9 6 14.9 6"/><polygon class="cls-4" points="15.1 6 15.1 6 15.1 6 15.1 6 15.1 6"/><polygon points="15.1 6 15.1 6 15.1 6 15.1 6 15.1 6"/><polygon points="15.1 6 15.1 6 15.1 6 15.1 6 15.1 6"/><polygon class="cls-4" points="14.9 6 14.9 6 14.9 6 14.9 6 14.9 6"/><polygon points="14.9 6 14.9 6 14.9 6 14.9 6 14.9 6"/><polygon points="14.9 6 14.9 6 14.9 6 14.9 6 14.9 6"/><path class="cls-4" d="M15,6.1h0v.6h.4a.5.5,0,0,0,.4.2V6.6h.1c.1,0,.1-.1.2-.2h-.5Z"/><path class="cls-3" d="M15.9,6.4a.2.2,0,0,1-.2.2c.1.1,0,.3.2.4s-.5-.2-.8-.3h0l.3.2h.5c-.1,0-.1-.1-.1-.2s-.1-.1-.1-.2h.2a.5.5,0,0,1-.4-.2h-.4C15.4,6.1,15.5,6.4,15.9,6.4Z"/><path d="M15.9,6.4a.2.2,0,0,1-.2.2c.1.1,0,.3.2.4s-.5-.2-.8-.3h0l.3.2h.5c-.1,0-.1-.1-.1-.2s-.1-.1-.1-.2h.2a.5.5,0,0,1-.4-.2h-.4C15.4,6.1,15.5,6.4,15.9,6.4Z"/><polygon class="cls-3" points="15.1 6.1 15.1 6.1 15.1 6.1 15.1 6.1 15.1 6.1"/><polygon points="15.1 6.1 15.1 6.1 15.1 6.1 15.1 6.1 15.1 6.1"/><polygon points="15.1 6.1 15.1 6.1 15.1 6.1 15.1 6.1 15.1 6.1"/><polygon class="cls-3" points="15.1 6.7 15.1 6.7 15.1 6.7 15.1 6.7 15.1 6.7"/><polygon points="15.1 6.7 15.1 6.7 15.1 6.7 15.1 6.7 15.1 6.7"/><polygon points="15.1 6.7 15.1 6.7 15.1 6.7 15.1 6.7 15.1 6.7"/><polygon class="cls-4" points="15.1 6.1 15.1 6.1 15.1 6.1 15.1 6.1 15.1 6.1"/><polygon points="15.1 6.1 15.1 6.1 15.1 6.1 15.1 6.1 15.1 6.1"/><polygon points="15.1 6.1 15.1 6.1 15.1 6.1 15.1 6.1 15.1 6.1"/><polygon class="cls-4" points="15.1 6.7 15.1 6.7 15.1 6.7 15.1 6.7 15.1 6.7"/><polygon points="15.1 6.7 15.1 6.7 15.1 6.7 15.1 6.7 15.1 6.7"/><polygon points="15.1 6.7 15.1 6.7 15.1 6.7 15.1 6.7 15.1 6.7"/><path class="cls-4" d="M15.1,6.1H15v.6h.1c.3.1.3.3.8.3s-.1-.3-.2-.4a.2.2,0,0,0,.2-.2c-.4,0-.5-.3-.8-.3Zm.3.2h.5c-.1.1-.1.2-.2.2h-.1V7a.5.5,0,0,1-.4-.2H15V6.1h0Z"/><path d="M15.1,6.1H15v.6h.1c.3.1.3.3.8.3s-.1-.3-.2-.4a.2.2,0,0,0,.2-.2c-.4,0-.5-.3-.8-.3Zm.3.2h.5c-.1.1-.1.2-.2.2h-.1V7a.5.5,0,0,1-.4-.2H15V6.1h0Z"/><path class="cls-4" d="M19.4,9.6V9.3h0a.1.1,0,0,0-.1.1v.3h.2Z"/><path class="cls-3" d="M19.2,9.6a.4.4,0,0,1,.1-.3.1.1,0,0,1,.1-.1h0c-.1,0-.1,0-.1.1a.4.4,0,0,0-.1.3h0Z"/><path d="M19.2,9.6a.4.4,0,0,1,.1-.3.1.1,0,0,1,.1-.1h0c-.1,0-.1,0-.1.1a.4.4,0,0,0-.1.3h0Z"/><path class="cls-4" d="M19.2,9.7h0V9.3a.1.1,0,0,1,.1-.1h0a.1.1,0,0,0-.1.1.4.4,0,0,0-.1.3Z"/><path d="M19.2,9.7h0V9.3a.1.1,0,0,1,.1-.1h0a.1.1,0,0,0-.1.1.4.4,0,0,0-.1.3Z"/><path class="cls-4" d="M19.6,9.6V9.2h-.2v.3h-.1a.1.1,0,0,1,.1.1V10h0A.9.9,0,0,1,19.6,9.6Z"/><path class="cls-3" d="M19.6,9.2Z"/><path d="M19.6,9.2Z"/><path class="cls-4" d="M19.4,9.3h0v.3h0V9.3h0Z"/><path d="M19.4,9.3h0v.3h0V9.3h0Z"/><polygon class="cls-3" points="19.4 9.2 19.4 9.3 19.5 9.2 19.4 9.2 19.4 9.2"/><polygon points="19.4 9.2 19.4 9.3 19.5 9.2 19.4 9.2 19.4 9.2"/><polygon points="19.4 9.2 19.4 9.3 19.5 9.2 19.4 9.2 19.4 9.2"/><polygon class="cls-4" points="19.4 9.3 19.4 9.3 19.4 9.2 19.4 9.3 19.4 9.3"/><polygon points="19.4 9.3 19.4 9.3 19.4 9.2 19.4 9.3 19.4 9.3"/><polygon points="19.4 9.3 19.4 9.3 19.4 9.2 19.4 9.3 19.4 9.3"/><path class="cls-4" d="M19.6,9.2v.4h0l-.3.5h-.1c0,.1-.1.1-.1.2h0l.4-.3c.1-.2.1-.4.2-.5a.6.6,0,0,1,.1-.4h-.2Z"/><path class="cls-3" d="M19.8,9.2Z"/><path d="M19.8,9.2Z"/><path class="cls-4" d="M19.6,9.2h0v.4a.9.9,0,0,0-.3.5h0l.3-.5h0V9.2h0Z"/><path d="M19.6,9.2h0v.4a.9.9,0,0,0-.3.5h0l.3-.5h0V9.2h0Z"/><polygon class="cls-3" points="19.6 9.2 19.6 9.2 19.6 9.2 19.6 9.2 19.6 9.2"/><polygon points="19.6 9.2 19.6 9.2 19.6 9.2 19.6 9.2 19.6 9.2"/><polygon points="19.6 9.2 19.6 9.2 19.6 9.2 19.6 9.2 19.6 9.2"/><polygon class="cls-4" points="19.6 9.2 19.6 9.2 19.6 9.2 19.6 9.2 19.6 9.2"/><polygon points="19.6 9.2 19.6 9.2 19.6 9.2 19.6 9.2 19.6 9.2"/><polygon points="19.6 9.2 19.6 9.2 19.6 9.2 19.6 9.2 19.6 9.2"/><path class="cls-4" d="M18.8,13.1Z"/><path class="cls-4" d="M18.4,12.1l.4.2h.4V10.9h0l.5-.4a.6.6,0,0,0,.1-.4V9.9h0c.1-.1.1-.2.1-.5V9.1h-.1c-.1,0-.1.3-.1.5h0c-.1,0-.2.2-.3.4h0l-.4.3h0c0-.1,0-.2.1-.2V10c.1,0,.2-.2.1-.2h-.1l-.2.2-.4.4c-.2.1-.2.3-.2.6h0v1.1Z"/><path class="cls-3" d="M19.9,9.1c.1,0,.1.1.1.2s0,.4-.1.5v.3l-.2.4-.5.4v.6h0v-.6l.5-.4.2-.4V9.9H20V9.1Z"/><path d="M19.9,9.1c.1,0,.1.1.1.2s0,.4-.1.5v.3l-.2.4-.5.4v.6h0v-.6l.5-.4.2-.4V9.9H20V9.1Z"/><path class="cls-3" d="M18.4,11c0-.2-.1-.6.2-.7l.4-.4.2-.2h0l-.2.2-.4.3a.8.8,0,0,0-.2.7h0v.3h0Z"/><path d="M18.4,11c0-.2-.1-.6.2-.7l.4-.4.2-.2h0l-.2.2-.4.3a.8.8,0,0,0-.2.7h0v.3h0Z"/><path d="M19.3,12.9h-.9V13h.9v-.2h0Z"/><path d="M19.3,12.9h-.9V13h.9v-.2h0Z"/><path d="M18.4,11.3h0v.8h0Z"/><path d="M18.4,11.3h0v.8h0Z"/><path d="M19.2,12.1h.1c0-.2-.1-.3-.1-.5h0Z"/><path d="M19.2,12.1h.1c0-.2-.1-.3-.1-.5h0Z"/><path class="cls-3" d="M18.4,11.3Z"/><path d="M18.4,11.3Z"/><path d="M18.4,11.3Z"/><path class="cls-3" d="M19.2,11.5h0Z"/><path d="M19.2,11.5h0Z"/><path d="M19.2,11.5h0Z"/><path d="M19.2,11.6Z"/><path d="M19.2,11.6Z"/><path d="M19.2,11.6Z"/><path d="M18.4,11.3Z"/><path d="M18.4,11.3Z"/><path d="M18.4,11.3Z"/><path class="cls-3" d="M19.2,9.7Z"/><path d="M19.2,9.7Z"/><path d="M19.2,9.7Z"/><path class="cls-4" d="M19.2,9.7Z"/><path d="M19.2,9.7Z"/><path d="M19.2,9.7Z"/><path class="cls-4" d="M19.3,9.7Z"/><path d="M19.3,9.7Z"/><path d="M19.3,9.7Z"/><polygon class="cls-3" points="19.9 9.2 19.9 9.2 19.8 9.2 19.8 9.2 19.9 9.2"/><polygon points="19.9 9.2 19.9 9.2 19.8 9.2 19.8 9.2 19.9 9.2"/><polygon points="19.9 9.2 19.9 9.2 19.8 9.2 19.8 9.2 19.9 9.2"/><polygon class="cls-4" points="19.2 10.2 19.2 10.2 19.2 10.2 19.2 10.2"/><polygon points="19.2 10.2 19.2 10.2 19.2 10.2 19.2 10.2"/><polygon points="19.2 10.2 19.2 10.2 19.2 10.2 19.2 10.2"/><polygon points="19.2 10.2 19.2 10.2 19.2 10.2 19.2 10.2"/><polygon class="cls-4" points="19.8 9.2 19.9 9.2 19.8 9.2 19.8 9.2 19.8 9.2"/><polygon points="19.8 9.2 19.9 9.2 19.8 9.2 19.8 9.2 19.8 9.2"/><polygon points="19.8 9.2 19.9 9.2 19.8 9.2 19.8 9.2 19.8 9.2"/><path class="cls-4" d="M19.2,10.1h0Z"/><path d="M19.2,10.1h0Z"/><path d="M19.2,10.1h0Z"/><path class="cls-4" d="M19.2,10.9l.5-.4.2-.4V9.8c.1-.1.1-.2.1-.5s0-.2-.1-.2h-.1a.6.6,0,0,0-.1.4c-.1.1-.1.3-.2.5l-.4.3h0c0-.1.1-.1.1-.2h.1V9.8a.1.1,0,0,0-.1-.1h-.1l-.2.2-.4.4c-.3.1-.2.5-.2.7v.3h0v.8h0V11h0c0-.3,0-.5.2-.6l.4-.4.2-.2h.1c.1,0,0,.2-.1.2v.2c-.1,0-.1.1-.1.2h0l.4-.3h0c.1-.2.2-.4.3-.4h0c0-.2,0-.5.1-.5H20v.2c0,.3,0,.4-.1.5h0v.2a.6.6,0,0,1-.1.4l-.5.4h0v1.3h0v-.5h0Z"/><path d="M19.2,10.9l.5-.4.2-.4V9.8c.1-.1.1-.2.1-.5s0-.2-.1-.2h-.1a.6.6,0,0,0-.1.4c-.1.1-.1.3-.2.5l-.4.3h0c0-.1.1-.1.1-.2h.1V9.8a.1.1,0,0,0-.1-.1h-.1l-.2.2-.4.4c-.3.1-.2.5-.2.7v.3h0v.8h0V11h0c0-.3,0-.5.2-.6l.4-.4.2-.2h.1c.1,0,0,.2-.1.2v.2c-.1,0-.1.1-.1.2h0l.4-.3h0c.1-.2.2-.4.3-.4h0c0-.2,0-.5.1-.5H20v.2c0,.3,0,.4-.1.5h0v.2a.6.6,0,0,1-.1.4l-.5.4h0v1.3h0v-.5h0Z"/><path class="cls-4" d="M19.3,13Z"/><path d="M19.3,13Z"/><path class="cls-4" d="M18.3,12.7a.1.1,0,0,0,.1.1h-.1Z"/><path d="M19.3,12.8h0a.1.1,0,0,0,.1-.1h-.1C19.4,12.6,19.4,12.7,19.3,12.8Z"/><path d="M19.3,12.8h0a.1.1,0,0,0,.1-.1h-.1C19.4,12.6,19.4,12.7,19.3,12.8Z"/><path d="M18.3,12.6h-.1s0,.1.2.1h0C18.2,12.7,18.3,12.6,18.3,12.6Z"/><path d="M18.3,12.6h-.1s0,.1.2.1h0C18.2,12.7,18.3,12.6,18.3,12.6Z"/><path d="M19.3,12.8Z"/><path d="M19.3,12.8Z"/><path d="M19.3,12.8Z"/><polygon points="18.4 12.8 18.4 12.8 18.4 12.8 18.4 12.8 18.4 12.9 18.4 12.8"/><polygon points="18.4 12.8 18.4 12.8 18.4 12.8 18.4 12.8 18.4 12.9 18.4 12.8"/><polygon points="18.4 12.8 18.4 12.8 18.4 12.8 18.4 12.8 18.4 12.9 18.4 12.8"/><polygon class="cls-4" points="19.3 12.9 19.3 12.9 19.3 12.8 19.3 12.8 19.3 12.9"/><polygon points="19.3 12.9 19.3 12.9 19.3 12.8 19.3 12.8 19.3 12.9"/><polygon points="19.3 12.9 19.3 12.9 19.3 12.8 19.3 12.8 19.3 12.9"/><polygon class="cls-4" points="18.4 12.8 18.4 12.8 18.4 12.9 18.4 12.9 18.4 12.8"/><polygon points="18.4 12.8 18.4 12.8 18.4 12.9 18.4 12.9 18.4 12.8"/><polygon points="18.4 12.8 18.4 12.8 18.4 12.9 18.4 12.9 18.4 12.8"/><path class="cls-4" d="M19.4,12.7h-1a.1.1,0,0,1-.1-.1h0s-.1.1.1.2h.9c.1-.1.1-.2,0-.2h.1Z"/><path d="M19.4,12.7h-1a.1.1,0,0,1-.1-.1h0s-.1.1.1.2h.9c.1-.1.1-.2,0-.2h.1Z"/><path class="cls-4" d="M18.3,12.5h0Z"/><path d="M18.3,12.4h0c-.1,0-.1,0,0,.1h0A.1.1,0,0,1,18.3,12.4Z"/><path d="M18.3,12.4h0c-.1,0-.1,0,0,.1h0A.1.1,0,0,1,18.3,12.4Z"/><path d="M19.3,12.6h0C19.4,12.4,19.4,12.5,19.3,12.6Z"/><path d="M19.3,12.6h0C19.4,12.4,19.4,12.5,19.3,12.6Z"/><polygon points="18.3 12.6 18.3 12.6 18.3 12.6 18.3 12.6 18.3 12.6"/><polygon points="18.3 12.6 18.3 12.6 18.3 12.6 18.3 12.6 18.3 12.6"/><polygon points="18.3 12.6 18.3 12.6 18.3 12.6 18.3 12.6 18.3 12.6"/><polygon points="19.3 12.6 19.3 12.6 19.3 12.6 19.3 12.6 19.3 12.6"/><polygon points="19.3 12.6 19.3 12.6 19.3 12.6 19.3 12.6 19.3 12.6"/><polygon points="19.3 12.6 19.3 12.6 19.3 12.6 19.3 12.6 19.3 12.6"/><polygon class="cls-4" points="18.3 12.6 18.3 12.6 18.3 12.6 18.3 12.6 18.3 12.6"/><polygon points="18.3 12.6 18.3 12.6 18.3 12.6 18.3 12.6 18.3 12.6"/><polygon points="18.3 12.6 18.3 12.6 18.3 12.6 18.3 12.6 18.3 12.6"/><polygon class="cls-4" points="19.3 12.6 19.3 12.6 19.3 12.6 19.3 12.6 19.3 12.6"/><polygon points="19.3 12.6 19.3 12.6 19.3 12.6 19.3 12.6 19.3 12.6"/><polygon points="19.3 12.6 19.3 12.6 19.3 12.6 19.3 12.6 19.3 12.6"/><path class="cls-4" d="M18.8,12.7h0Z"/><path d="M18.8,12.7h0Z"/><path d="M18.8,12.7h0Z"/><path class="cls-4" d="M19.4,12.5H18.3a.1.1,0,0,0,0,.2h1c.1-.1.1-.2,0-.2h.1Zm-.6.2h0Z"/><path d="M19.4,12.5H18.3a.1.1,0,0,0,0,.2h1c.1-.1.1-.2,0-.2h.1Zm-.6.2h0Z"/><path class="cls-4" d="M18.4,12.4h0Z"/><path d="M18.4,12.4h0Z"/><path class="cls-4" d="M18.7,12.5h0Z"/><path d="M18.7,12.5h0Z"/><path class="cls-4" d="M19.2,12.4h0Z"/><path d="M19.2,12.4h0Z"/><path class="cls-4" d="M18.8,12.3s-.4,0-.4-.1h-.1c0,.1,0,.1.1.2h.9c0-.1.1-.1,0-.2h-.5Z"/><path d="M19.3,12.4h0c.1-.1.1-.1.1-.2h-.1C19.3,12.2,19.4,12.3,19.3,12.4Z"/><path d="M19.3,12.4h0c.1-.1.1-.1.1-.2h-.1C19.3,12.2,19.4,12.3,19.3,12.4Z"/><path d="M18.4,12.1h-.1v.2h0C18.2,12.3,18.3,12.2,18.4,12.1Z"/><path d="M18.4,12.1h-.1v.2h0C18.2,12.3,18.3,12.2,18.4,12.1Z"/><path class="cls-4" d="M19.2,12.2h-.4l-.4-.2h0c-.1.1-.2.2-.1.3h1c.1-.1,0-.2,0-.3h-.1Zm.1,0h0c.1.1,0,.1,0,.2h-.9c-.1-.1-.1-.1-.1-.2h.1c0,.1.4.1.4.1Z"/><path d="M19.2,12.2h-.4l-.4-.2h0c-.1.1-.2.2-.1.3h1c.1-.1,0-.2,0-.3h-.1Zm.1,0h0c.1.1,0,.1,0,.2h-.9c-.1-.1-.1-.1-.1-.2h.1c0,.1.4.1.4.1Z"/><path d="M19.2,12.1h0Z"/><path d="M19.2,12.1h0Z"/><path d="M19.2,12.1h0Z"/><polygon points="18.4 12.1 18.4 12.1 18.4 12.1 18.4 12.1 18.4 12.1"/><polygon points="18.4 12.1 18.4 12.1 18.4 12.1 18.4 12.1 18.4 12.1"/><polygon points="18.4 12.1 18.4 12.1 18.4 12.1 18.4 12.1 18.4 12.1"/><path class="cls-4" d="M19.2,12.1h0Z"/><path d="M19.2,12.1h0Z"/><path d="M19.2,12.1h0Z"/><path class="cls-4" d="M18.4,12.2h0Z"/><path d="M18.4,12.2h0Z"/><path d="M18.4,12.2h0Z"/><path class="cls-4" d="M19,12.5h0Z"/><path d="M19,12.5h0Z"/><path class="cls-4" d="M18.7,12.5Z"/><path d="M18.7,12.5Z"/><polygon points="18.3 12.4 18.3 12.4 18.3 12.4 18.3 12.4 18.3 12.4"/><polygon points="18.3 12.4 18.3 12.4 18.3 12.4 18.3 12.4 18.3 12.4"/><polygon points="18.3 12.4 18.3 12.4 18.3 12.4 18.3 12.4 18.3 12.4"/><polygon points="19.3 12.4 19.3 12.4 19.3 12.4 19.3 12.4 19.3 12.4"/><polygon points="19.3 12.4 19.3 12.4 19.3 12.4 19.3 12.4 19.3 12.4"/><polygon points="19.3 12.4 19.3 12.4 19.3 12.4 19.3 12.4 19.3 12.4"/><polygon class="cls-4" points="18.3 12.4 18.3 12.4 18.3 12.4 18.3 12.4 18.3 12.4"/><polygon points="18.3 12.4 18.3 12.4 18.3 12.4 18.3 12.4 18.3 12.4"/><polygon points="18.3 12.4 18.3 12.4 18.3 12.4 18.3 12.4 18.3 12.4"/><path class="cls-4" d="M19.3,12.4Z"/><path d="M19.3,12.4Z"/><path d="M19.3,12.4Z"/><path class="cls-4" d="M18.7,12.5h0Z"/><path d="M18.7,12.5h0Z"/><path d="M18.7,12.5h0Z"/><path class="cls-4" d="M10.6,9.6h.2V9.3a.1.1,0,0,0-.1-.1h0Z"/><path class="cls-3" d="M10.6,9.2Z"/><path d="M10.6,9.2Z"/><path d="M10.6,9.2Z"/><path d="M10.6,9.2Z"/><path d="M10.7,9.3a.4.4,0,0,1,.1.3h0a.4.4,0,0,0-.1-.3Z"/><path d="M10.7,9.3a.4.4,0,0,1,.1.3h0a.4.4,0,0,0-.1-.3Z"/><path class="cls-3" d="M10.6,9.2h0Z"/><path d="M10.6,9.2h0Z"/><path d="M10.6,9.2h0Z"/><path d="M10.6,9.2Z"/><path d="M10.6,9.2Z"/><path d="M10.6,9.2Z"/><path d="M10.7,9.3h0Z"/><path d="M10.7,9.3h0Z"/><path d="M10.7,9.3h0Z"/><path class="cls-4" d="M10.6,9.2h0a.1.1,0,0,1,.1.1v.3h0a.4.4,0,0,0-.1-.3h-.1Z"/><path d="M10.6,9.2h0a.1.1,0,0,1,.1.1v.3h0a.4.4,0,0,0-.1-.3h-.1Z"/><path class="cls-4" d="M10.6,9.8a.1.1,0,0,1,.1-.1h-.1V9.3h-.2v.4a.9.9,0,0,1,.3.5h0Z"/><path d="M10.4,9.2h0Z"/><path d="M10.4,9.2h0Z"/><path d="M10.5,9.2h0Z"/><path d="M10.5,9.2h0Z"/><path d="M10.5,9.2Z"/><path d="M10.5,9.2Z"/><path d="M10.5,9.2Z"/><polygon points="10.6 9.2 10.5 9.2 10.6 9.3 10.6 9.2 10.6 9.2"/><polygon points="10.6 9.2 10.5 9.2 10.6 9.3 10.6 9.2 10.6 9.2"/><polygon points="10.6 9.2 10.5 9.2 10.6 9.3 10.6 9.2 10.6 9.2"/><polygon class="cls-4" points="10.6 9.3 10.6 9.3 10.6 9.2 10.6 9.3 10.6 9.3"/><polygon points="10.6 9.3 10.6 9.3 10.6 9.2 10.6 9.3 10.6 9.3"/><polygon points="10.6 9.3 10.6 9.3 10.6 9.2 10.6 9.3 10.6 9.3"/><path class="cls-4" d="M10.6,9.3h0v.3h0V9.3Z"/><path d="M10.6,9.3h0v.3h0V9.3Z"/><path class="cls-4" d="M10.5,10.1l.4.3h0c0-.1-.1-.1-.1-.2h-.1l-.3-.5h0V9.2h-.2a.6.6,0,0,1,.1.4C10.4,9.7,10.4,9.9,10.5,10.1Z"/><path d="M10.4,9.2Z"/><path d="M10.4,9.2Z"/><path d="M10.2,9.2h0Z"/><path d="M10.2,9.2h0Z"/><path class="cls-3" d="M10.3,9.1h0Z"/><path d="M10.3,9.1h0Z"/><path d="M10.3,9.1h0Z"/><path d="M10.2,9.1Z"/><path d="M10.2,9.1Z"/><path d="M10.2,9.1Z"/><path d="M10.4,9.2Z"/><path d="M10.4,9.2Z"/><path d="M10.4,9.2Z"/><polygon points="10.4 9.2 10.4 9.2 10.4 9.2 10.4 9.2 10.4 9.2"/><polygon points="10.4 9.2 10.4 9.2 10.4 9.2 10.4 9.2 10.4 9.2"/><polygon points="10.4 9.2 10.4 9.2 10.4 9.2 10.4 9.2 10.4 9.2"/><polygon class="cls-4" points="10.4 9.2 10.4 9.2 10.4 9.2 10.4 9.2 10.4 9.2"/><polygon points="10.4 9.2 10.4 9.2 10.4 9.2 10.4 9.2 10.4 9.2"/><polygon points="10.4 9.2 10.4 9.2 10.4 9.2 10.4 9.2 10.4 9.2"/><path class="cls-4" d="M10.2,9.1h.2v.4h0l.3.5h0a.9.9,0,0,0-.3-.5V9.2h-.2Z"/><path d="M10.2,9.1h.2v.4h0l.3.5h0a.9.9,0,0,0-.3-.5V9.2h-.2Z"/><path class="cls-4" d="M10.7,13h0Z"/><path class="cls-4" d="M11.2,12.3l.4-.2h0V11h0c0-.3,0-.5-.2-.6L11,9.9c-.1-.1-.1-.2-.2-.2h-.1c-.1,0,0,.2.1.2v.2c.1,0,.1.1.1.2h0l-.4-.3h0c-.1-.2-.2-.4-.3-.4h0c0-.2,0-.5-.1-.5H10v.2c0,.3,0,.4.1.5h0v.2a.6.6,0,0,0,.1.4l.5.4h0v1.3Z"/><path d="M11,9.9l.4.4c.3.1.2.5.2.7v1.1h0V11h0a.8.8,0,0,0-.2-.7L11,9.9a.2.2,0,0,0-.2-.2h0C10.9,9.7,10.9,9.8,11,9.9Z"/><path d="M11,9.9l.4.4c.3.1.2.5.2.7v1.1h0V11h0a.8.8,0,0,0-.2-.7L11,9.9a.2.2,0,0,0-.2-.2h0C10.9,9.7,10.9,9.8,11,9.9Z"/><path d="M11.6,13h-.9V13h.9v-.2h0Z"/><path d="M11.6,13h-.9V13h.9v-.2h0Z"/><path d="M10.7,12.1a6.2,6.2,0,0,0,.1-1.2l-.5-.4-.2-.4V9.8c-.1-.1-.1-.2-.1-.5s0-.2.1-.2H10v.7h.1v.2l.2.4.5.4a5.7,5.7,0,0,1-.1,1.2Z"/><path d="M10.7,12.1a6.2,6.2,0,0,0,.1-1.2l-.5-.4-.2-.4V9.8c-.1-.1-.1-.2-.1-.5s0-.2.1-.2H10v.7h.1v.2l.2.4.5.4a5.7,5.7,0,0,1-.1,1.2Z"/><path class="cls-4" d="M10.7,9.7h0a.1.1,0,0,0-.1.1V10h.1c0,.1.1.1.1.2h0l-.4-.3c-.1-.2-.1-.4-.2-.5a.6.6,0,0,0-.1-.4h-.1c-.1,0-.1.1-.1.2s0,.4.1.5v.3l.2.4.5.4a6.2,6.2,0,0,1-.1,1.2h.1V10.9h0l-.5-.4a.6.6,0,0,1-.1-.4V9.9h0c-.1-.1-.1-.2-.1-.5V9.1h.1c.1,0,.1.3.1.5h0c.1,0,.2.2.3.4h0l.4.3h0c0-.1,0-.2-.1-.2V10c-.1,0-.2-.2-.1-.2h.1c.1,0,.1.1.2.2l.4.4c.2.1.2.3.2.6h0v1.1h0V11c0-.2.1-.6-.2-.7L11,9.9c-.1-.1-.1-.2-.2-.2h-.1Z"/><path d="M10.7,9.7h0a.1.1,0,0,0-.1.1V10h.1c0,.1.1.1.1.2h0l-.4-.3c-.1-.2-.1-.4-.2-.5a.6.6,0,0,0-.1-.4h-.1c-.1,0-.1.1-.1.2s0,.4.1.5v.3l.2.4.5.4a6.2,6.2,0,0,1-.1,1.2h.1V10.9h0l-.5-.4a.6.6,0,0,1-.1-.4V9.9h0c-.1-.1-.1-.2-.1-.5V9.1h.1c.1,0,.1.3.1.5h0c.1,0,.2.2.3.4h0l.4.3h0c0-.1,0-.2-.1-.2V10c-.1,0-.2-.2-.1-.2h.1c.1,0,.1.1.2.2l.4.4c.2.1.2.3.2.6h0v1.1h0V11c0-.2.1-.6-.2-.7L11,9.9c-.1-.1-.1-.2-.2-.2h-.1Z"/><path d="M10.8,9.7Z"/><path d="M10.8,9.7Z"/><path d="M10.8,9.7Z"/><path class="cls-4" d="M10.8,9.7Z"/><path d="M10.8,9.7Z"/><path d="M10.8,9.7Z"/><path class="cls-4" d="M10.7,9.7Z"/><path d="M10.7,9.7Z"/><path d="M10.7,9.7Z"/><polygon points="10.1 9.2 10.2 9.2 10.2 9.2 10.1 9.2 10.1 9.2"/><polygon points="10.1 9.2 10.2 9.2 10.2 9.2 10.1 9.2 10.1 9.2"/><polygon points="10.1 9.2 10.2 9.2 10.2 9.2 10.1 9.2 10.1 9.2"/><polygon class="cls-4" points="10.8 10.2 10.8 10.2 10.8 10.2 10.8 10.2"/><polygon points="10.8 10.2 10.8 10.2 10.8 10.2 10.8 10.2"/><polygon points="10.8 10.2 10.8 10.2 10.8 10.2 10.8 10.2"/><polygon points="10.8 10.2 10.8 10.2 10.8 10.2 10.8 10.2"/><path class="cls-4" d="M10.8,10.2Z"/><path d="M10.8,10.2Z"/><path d="M10.8,10.2Z"/><polygon class="cls-4" points="10.2 9.2 10.2 9.2 10.2 9.2 10.1 9.2 10.2 9.2"/><polygon points="10.2 9.2 10.2 9.2 10.2 9.2 10.1 9.2 10.2 9.2"/><polygon points="10.2 9.2 10.2 9.2 10.2 9.2 10.1 9.2 10.2 9.2"/><path class="cls-4" d="M11.6,13h0Z"/><path d="M11.6,13h0Z"/><path class="cls-4" d="M10.6,12.7h1a.1.1,0,0,0,.1-.1H10.6Z"/><path d="M10.7,12.6h-.1a.1.1,0,0,0,.1.1h0C10.6,12.7,10.6,12.6,10.7,12.6Z"/><path d="M10.7,12.6h-.1a.1.1,0,0,0,.1.1h0C10.6,12.7,10.6,12.6,10.7,12.6Z"/><path d="M11.6,12.8h0c.2,0,.2-.1.1-.1h0S11.8,12.7,11.6,12.8Z"/><path d="M11.6,12.8h0c.2,0,.2-.1.1-.1h0S11.8,12.7,11.6,12.8Z"/><polygon points="11.6 12.8 11.6 12.8 11.6 12.9 11.6 12.8 11.6 12.8 11.6 12.8"/><polygon points="11.6 12.8 11.6 12.8 11.6 12.9 11.6 12.8 11.6 12.8 11.6 12.8"/><polygon points="11.6 12.8 11.6 12.8 11.6 12.9 11.6 12.8 11.6 12.8 11.6 12.8"/><path d="M10.7,12.9h0Z"/><path d="M10.7,12.9h0Z"/><path d="M10.7,12.9h0Z"/><polygon class="cls-4" points="11.6 12.9 11.6 12.9 11.6 12.8 11.6 12.8 11.6 12.9"/><polygon points="11.6 12.9 11.6 12.9 11.6 12.8 11.6 12.8 11.6 12.9"/><polygon points="11.6 12.9 11.6 12.9 11.6 12.8 11.6 12.8 11.6 12.9"/><polygon class="cls-4" points="10.7 12.8 10.7 12.8 10.7 12.9 10.7 12.9 10.7 12.8"/><polygon points="10.7 12.8 10.7 12.8 10.7 12.9 10.7 12.9 10.7 12.8"/><polygon points="10.7 12.8 10.7 12.8 10.7 12.9 10.7 12.9 10.7 12.8"/><path class="cls-4" d="M11.7,12.7a.1.1,0,0,1-.1.1h-.9c-.1,0-.1.1,0,.2h.9c.2-.1.1-.2.1-.2h0Z"/><path d="M11.7,12.7a.1.1,0,0,1-.1.1h-.9c-.1,0-.1.1,0,.2h.9c.2-.1.1-.2.1-.2h0Z"/><path class="cls-4" d="M10.6,12.5h0Z"/><path d="M10.7,12.4h0C10.6,12.5,10.6,12.4,10.7,12.4Z"/><path d="M10.7,12.4h0C10.6,12.5,10.6,12.4,10.7,12.4Z"/><path d="M11.7,12.6h0c0-.1.1-.1,0-.1h0A.1.1,0,0,1,11.7,12.6Z"/><path d="M11.7,12.6h0c0-.1.1-.1,0-.1h0A.1.1,0,0,1,11.7,12.6Z"/><polygon points="11.7 12.6 11.7 12.6 11.7 12.6 11.7 12.6 11.7 12.6"/><polygon points="11.7 12.6 11.7 12.6 11.7 12.6 11.7 12.6 11.7 12.6"/><polygon points="11.7 12.6 11.7 12.6 11.7 12.6 11.7 12.6 11.7 12.6"/><polygon points="10.7 12.6 10.7 12.6 10.7 12.6 10.7 12.6 10.7 12.6"/><polygon points="10.7 12.6 10.7 12.6 10.7 12.6 10.7 12.6 10.7 12.6"/><polygon points="10.7 12.6 10.7 12.6 10.7 12.6 10.7 12.6 10.7 12.6"/><polygon class="cls-4" points="10.7 12.6 10.7 12.6 10.7 12.6 10.7 12.6 10.7 12.6"/><polygon points="10.7 12.6 10.7 12.6 10.7 12.6 10.7 12.6 10.7 12.6"/><polygon points="10.7 12.6 10.7 12.6 10.7 12.6 10.7 12.6 10.7 12.6"/><polygon class="cls-4" points="11.7 12.6 11.7 12.6 11.7 12.6 11.7 12.6 11.7 12.6"/><polygon points="11.7 12.6 11.7 12.6 11.7 12.6 11.7 12.6 11.7 12.6"/><polygon points="11.7 12.6 11.7 12.6 11.7 12.6 11.7 12.6 11.7 12.6"/><path class="cls-4" d="M11.2,12.7h0Z"/><path d="M11.2,12.7h0Z"/><path d="M11.2,12.7h0Z"/><path class="cls-4" d="M11.7,12.5h-1c-.1,0-.1.1,0,.2h1a.1.1,0,0,0,0-.2h0Zm-.5.2h0Z"/><path d="M11.7,12.5h-1c-.1,0-.1.1,0,.2h1a.1.1,0,0,0,0-.2h0Zm-.5.2h0Z"/><path class="cls-4" d="M11.6,12.4h0Z"/><path d="M11.6,12.4h0Z"/><path class="cls-4" d="M10.8,12.4h0Z"/><path d="M10.8,12.4h0Z"/><path class="cls-4" d="M11.1,12.5h0Z"/><path d="M11.1,12.5h0Z"/><path class="cls-4" d="M11.2,12.3h-.5c-.1.1,0,.1,0,.2h.9c.1-.1.1-.1.1-.2h-.1C11.6,12.3,11.2,12.3,11.2,12.3Z"/><path d="M10.7,12.1h-.1c0,.1,0,.1.1.2h0C10.6,12.3,10.7,12.2,10.7,12.1Z"/><path d="M10.7,12.1h-.1c0,.1,0,.1.1.2h0C10.6,12.3,10.7,12.2,10.7,12.1Z"/><path d="M11.7,12.4h0v-.2h-.1C11.7,12.2,11.8,12.3,11.7,12.4Z"/><path d="M11.7,12.4h0v-.2h-.1C11.7,12.2,11.8,12.3,11.7,12.4Z"/><polygon points="11.6 12.1 11.6 12.1 11.6 12.1 11.6 12.1 11.6 12.1"/><polygon points="11.6 12.1 11.6 12.1 11.6 12.1 11.6 12.1 11.6 12.1"/><polygon points="11.6 12.1 11.6 12.1 11.6 12.1 11.6 12.1 11.6 12.1"/><path d="M10.7,12.1h0Z"/><path d="M10.7,12.1h0Z"/><path d="M10.7,12.1h0Z"/><path class="cls-4" d="M11.6,12.1h0Z"/><path d="M11.6,12.1h0Z"/><path d="M11.6,12.1h0Z"/><path class="cls-4" d="M10.8,12.2h0Z"/><path d="M10.8,12.2h0Z"/><path d="M10.8,12.2h0Z"/><path class="cls-4" d="M11.1,12.5h0Z"/><path d="M11.1,12.5h0Z"/><path class="cls-4" d="M11.3,12.5Z"/><path d="M11.3,12.5Z"/><polygon points="10.7 12.4 10.7 12.4 10.7 12.4 10.7 12.4 10.7 12.4"/><polygon points="10.7 12.4 10.7 12.4 10.7 12.4 10.7 12.4 10.7 12.4"/><polygon points="10.7 12.4 10.7 12.4 10.7 12.4 10.7 12.4 10.7 12.4"/><polygon points="11.7 12.4 11.7 12.4 11.7 12.4 11.7 12.4 11.7 12.4"/><polygon points="11.7 12.4 11.7 12.4 11.7 12.4 11.7 12.4 11.7 12.4"/><polygon points="11.7 12.4 11.7 12.4 11.7 12.4 11.7 12.4 11.7 12.4"/><path class="cls-4" d="M10.7,12.4Z"/><path d="M10.7,12.4Z"/><path d="M10.7,12.4Z"/><polygon class="cls-4" points="11.7 12.4 11.7 12.4 11.7 12.4 11.7 12.4 11.7 12.4"/><polygon points="11.7 12.4 11.7 12.4 11.7 12.4 11.7 12.4 11.7 12.4"/><polygon points="11.7 12.4 11.7 12.4 11.7 12.4 11.7 12.4 11.7 12.4"/><path class="cls-4" d="M11.1,12.5h0Z"/><path d="M11.1,12.5h0Z"/><path d="M11.1,12.5h0Z"/><path class="cls-4" d="M11.6,12.2h0l-.4.2h-.5c0,.1-.1.2,0,.3h1c.1-.1,0-.2-.1-.3h0Zm0,0h.1c0,.1,0,.1-.1.2h-.9c0-.1-.1-.1,0-.2h.5S11.6,12.3,11.6,12.2Z"/><path d="M11.6,12.2h0l-.4.2h-.5c0,.1-.1.2,0,.3h1c.1-.1,0-.2-.1-.3h0Zm0,0h.1c0,.1,0,.1-.1.2h-.9c0-.1-.1-.1,0-.2h.5S11.6,12.3,11.6,12.2Z"/><path class="cls-4" d="M12.3,13.5h0Z"/><path d="M12.3,13.5h0Z"/><path class="cls-4" d="M12.5,13.4h0l.7.6h.1Z"/><path d="M12.5,13.4h0l.7.6h.1Z"/><path class="cls-4" d="M12.3,13.5h0Z"/><path d="M12.3,13.5h0Z"/><path d="M12.3,13.5h0Z"/><path class="cls-4" d="M13.2,14h0Z"/><path d="M13.2,14h0Z"/><path d="M13.2,14h0Z"/><path class="cls-4" d="M17.6,13.6Z"/><path d="M17.6,13.6Z"/><path class="cls-4" d="M17.5,13.4l-.8.6h.1l.7-.6h0Z"/><path d="M17.5,13.4l-.8.6h.1l.7-.6h0Z"/><path class="cls-4" d="M17.6,13.5h0Z"/><path d="M17.6,13.5h0Z"/><path d="M17.6,13.5h0Z"/><path class="cls-4" d="M16.7,14Z"/><path d="M16.7,14Z"/><path d="M16.7,14Z"/><path class="cls-6" d="M12.8,12.2h.3c0,.1,0,.2-.1.2h.1V12l-.2-.2-.2.2h0a.6.6,0,0,1-.1-.7h-.1A1.1,1.1,0,0,0,12.8,12.2Z"/><path class="cls-6" d="M13.1,12.6h0a.2.2,0,0,0,0,.3h0v.2h-.1c-.1.1,0,.1,0,.2h.1c.1,0,0-.1,0-.2h-.1Zm.1-.1h0Z"/><path class="cls-6" d="M13.2,12.8h.2c.1-.1.2-.2.2-.6h0c-.1.3-.1.5-.2.5Z"/><path class="cls-6" d="M13.7,13.2h.1c0,.1,0,.2-.1.2s-.1-.1-.1-.3a.7.7,0,0,0,.1-.5h0a4.3,4.3,0,0,1-.1.5C13.6,13.1,13.6,13.2,13.7,13.2Z"/><path class="cls-6" d="M14.1,13.3h.2c.1,0,.1,0,0-.1h-.2a.2.2,0,0,1,0-.3H14C14,13.1,14,13.3,14.1,13.3Z"/><path class="cls-6" d="M14.1,12.9h0Z"/><path class="cls-6" d="M13.7,13.3Z"/><path class="cls-6" d="M14.6,13.1v.2c-.1.1-.2.2-.4.1h0l.5-.2h.2c-.1,0-.1.1,0,.1H15v-.2h.3c.1,0,.1-.1.1-.2h0a.3.3,0,0,1-.1.2c-.1,0-.1-.1-.1-.2h0v.2c-.1,0-.1,0-.1-.2h0a.3.3,0,0,1-.1.2h-.1v-.2h-.2a.1.1,0,0,0,.1-.1V13h-.3Zm.2-.1h0v.2h-.1c-.1,0,0-.1,0-.2Z"/><path class="cls-6" d="M15.6,12.9h.3c-.1,0-.1.1-.1.2s-.1.3-.2.3h.5v-.2h0c.1,0,.1-.1.1-.2s.1-.3,0-.4h0v.6h0v.2h-.3v-.2l.2-.4h-.4Z"/><path class="cls-6" d="M16.3,13.3h0a1.4,1.4,0,0,0,0-.9h0v.8Z"/><path class="cls-6" d="M16.6,13.1h.1c.1-.1,0-.2,0-.4h-.1a.4.4,0,0,1,.1.3h-.1c-.1.1-.1,0-.1-.1h-.1C16.4,13.1,16.5,13.1,16.6,13.1Z"/><path class="cls-6" d="M16.5,12.7Z"/><path class="cls-6" d="M16.8,12.8h0l.2-.3h.2v-.2h0l-.2.2h-.2Zm.2-.3h0Zm-.1.1Z"/><path class="cls-6" d="M17.2,12.3h0s.1,0,0-.2a1.1,1.1,0,0,0-.1-.5H17l.2.5h0Z"/><path class="cls-6" d="M17,11.9h-.1v.2Z"/><path class="cls-6" d="M17.3,11.4h-.1l.3.4v.3h-.2a.1.1,0,0,1,0,.2h.2c.1-.1,0-.2,0-.3A.8.8,0,0,0,17.3,11.4Z"/><path class="cls-6" d="M17.4,11.2h-.1a1.1,1.1,0,0,1,.3.6h0a1.4,1.4,0,0,0-.2-.6Z"/><path class="cls-6" d="M12.9,13.4Zm.1,0Z"/><path class="cls-6" d="M13.1,13.6h0l.2-.2h0l-.2.2Z"/><path class="cls-6" d="M13.1,13.6h.2v.2h.6c.1,0,.2-.1.3-.4h-.1c0,.2-.1.4-.2.4h-.4v-.2h-.2a.8.8,0,0,1,.1-.4h0c-.1.1-.1.2-.2.2Z"/><path class="cls-6" d="M14.5,14.2h0c0-.1.1-.2.1-.4h-.1v.4Z"/><path class="cls-6" d="M14.2,14.4h.1c.1,0,.3-.1.3-.2h-.4Z"/><path class="cls-6" d="M14.9,14.4H15c0-.1,0-.1-.1-.1h-.1a.4.4,0,0,0,.1-.3h0v.3h0a.1.1,0,1,1,.2,0h-.1Z"/><path class="cls-6" d="M15.5,14.4h.3c0-.1.1-.1,0-.2h.3v-.2h-.1V14h-.3v.2h-.4c-.1-.1-.1-.2,0-.2h-.1v.3Z"/><path class="cls-6" d="M15.9,13.9Z"/><path class="cls-6" d="M15.9,14.3Z"/><path class="cls-6" d="M15.8,14.4Z"/><path class="cls-6" d="M16.1,14.2h.2c.1,0,.2-.1.2-.3h0c.1-.1.1-.2,0-.2h-.1a.1.1,0,0,0-.1.1V14h.1l-.2.2Zm.4-.3h-.1s-.1-.1,0-.1h.1v.2Z"/><path class="cls-6" d="M16.8,13.6c0,.1,0,.2-.2.4h0l.3-.4h0v-.2l.3-.2h.1v.2h.1c0-.1,0-.2-.1-.2h-.2a.2.2,0,0,1-.2.2c-.1,0-.1.1-.1.2Z"/><path class="cls-6" d="M17.2,13.4h0Z"/></svg>