<svg xmlns="http://www.w3.org/2000/svg" viewBox="0 0 30 20"><defs><style>.cls-1{fill:#d9362b;}.cls-2{fill:#24469d;}.cls-3{fill:#fff;}</style></defs><title>mm</title><g id="Layer_76" data-name="Layer 76"><path class="cls-1" d="M27.4,0H13V8.2H0v9.3A2.5,2.5,0,0,0,2.6,20H27.4A2.5,2.5,0,0,0,30,17.5V2.5A2.5,2.5,0,0,0,27.4,0Z"/><path class="cls-2" d="M13,0H2.6A2.5,2.5,0,0,0,0,2.5V8.2H13ZM9.5,3.2h.4l-.3.3v.4l-.4-.3L9,3.9V3.5l-.3-.3h.4V2.8ZM8.7,1.6l.2.4h.4L9,2.3v.4l-.4-.3-.3.3V2.3L8.2,2h.4Zm-1-.4V.8l.2.4h.4l-.3.2v.4l-.4-.2-.3.2V1.4l-.3-.2ZM6.3.9V.5l.2.4H7l-.4.2.2.4-.4-.2-.3.2V1.1L5.9.9Zm-1.4.3L5.1.8v.4h.4l-.3.2v.4l-.3-.2-.4.2V1.4l-.3-.2Zm-1.1.7L4,1.5v.4h.4l-.3.2v.4L4,2.4l-.4.2V2.2l-.3-.3ZM3.3,3.1V2.7l.2.4H4l-.4.3.2.4-.4-.3-.3.3V3.4l-.4-.3ZM2.8,4.4h.5V4l.2.4H4l-.4.3.2.4-.4-.3L3.1,5V4.6ZM4,6.1l-.4.2V5.9l-.3-.2h.4L4,5.3v.4h.4l-.3.2v.4ZM5.4,7.3,5,7l-.3.3V6.9l-.4-.3h.5V6.2l.2.4h.4l-.4.3Zm1.3.3-.3-.2L6,7.6V7.2l-.3-.3h.4l.2-.4v.4h.4l-.3.3ZM7,5.9H6.6c.1.1,0,.1,0,.2v.2H6.1V6H5.8l-.2.4-.4-.2.2-.3L5,5.5l-.2.3-.4-.4.4-.3-.2-.4-.4.2V4.4h.4V3.9H4.1V3.3l.4.2.2-.4-.4-.2.4-.4.2.3.4-.3-.2-.4.4-.2.2.4h.1V2.1h.3V1.8h.5v.4h.5V1.9l.4.2-.2.4h.4l.3-.2.3.4L8,3.1l.2.4h.4v.5H8.3v.4h.4v.5l-.4-.2v.4l.3.2-.3.4-.3-.2H7.4l.2.4-.4.2ZM8.1,7.3l-.3-.2-.4.2.2-.4-.4-.2h.5v0h.5L8,6.9Zm1.1-.9-.4-.2-.3.2V6l-.3-.2h.4V5.4l.2.3h.4L9.1,6Zm.6-1.3-.4-.2-.3.2V4.7l-.3-.2h.4V4.1l.2.4H10l-.3.2Z"/><path class="cls-3" d="M7.4,5.7h.4l.3.2.3-.4-.3-.2V4.7l.4.2V4.4H8.3V3.9h.4V3.4H8.2L8,3.1l.4-.2-.3-.4-.3.2H7.4l.2-.4-.4-.2v.4H6.6V1.8H6.1v.4H5.9v.2H5.8l-.2-.4-.4.2.2.4L5,2.8l-.2-.3-.4.4.4.2-.2.4-.4-.2v.5h.4v.4H4.1v.5l.4-.2.2.4-.4.3.4.4L5,5.5l.4.3-.2.3.4.2.2-.4h.4v.4h.6V6.2c0-.1.1-.1,0-.2H7l.2.4.4-.2Z"/><polygon class="cls-3" points="6.1 1.5 6.4 1.3 6.8 1.5 6.6 1.1 7 0.9 6.6 0.9 6.4 0.5 6.3 0.9 5.9 0.9 6.2 1.1 6.1 1.5"/><polygon class="cls-3" points="6.5 6.9 6.4 6.5 6.2 6.9 5.8 6.9 6.1 7.2 6 7.6 6.4 7.4 6.7 7.6 6.6 7.2 6.9 6.9 6.5 6.9"/><polygon class="cls-3" points="7.5 1.8 7.8 1.6 8.2 1.8 8.1 1.4 8.4 1.2 8 1.2 7.8 0.8 7.7 1.2 7.3 1.2 7.6 1.4 7.5 1.8"/><polygon class="cls-3" points="7.9 6.7 7.8 6.3 7.7 6.7 7.2 6.7 7.6 6.9 7.4 7.3 7.8 7.1 8.1 7.3 8 6.9 8.4 6.7 7.9 6.7"/><polygon class="cls-3" points="4.7 1.8 5.1 1.6 5.4 1.8 5.3 1.4 5.6 1.2 5.2 1.2 5.1 0.8 4.9 1.2 4.5 1.2 4.8 1.4 4.7 1.8"/><polygon class="cls-3" points="5.2 6.6 5 6.2 4.9 6.6 4.4 6.6 4.8 6.9 4.7 7.3 5 7 5.4 7.3 5.2 6.9 5.6 6.6 5.2 6.6"/><polygon class="cls-3" points="3.6 2.6 4 2.4 4.3 2.6 4.2 2.2 4.5 1.9 4.1 1.9 4 1.5 3.8 1.9 3.4 1.9 3.7 2.2 3.6 2.6"/><polygon class="cls-3" points="4.5 5.7 4.1 5.7 4 5.3 3.8 5.7 3.4 5.7 3.7 5.9 3.6 6.3 4 6.1 4.3 6.3 4.2 5.9 4.5 5.7"/><polygon class="cls-3" points="3.1 3.8 3.4 3.5 3.8 3.8 3.6 3.4 4 3.1 3.6 3.1 3.4 2.7 3.3 3.1 2.8 3.1 3.2 3.4 3.1 3.8"/><polygon class="cls-3" points="3.4 4.8 3.8 5.1 3.6 4.7 4 4.4 3.6 4.4 3.4 4 3.3 4.4 2.8 4.4 3.2 4.7 3.1 5 3.4 4.8"/><polygon class="cls-3" points="8.5 2.3 8.4 2.7 8.7 2.4 9.1 2.7 9 2.3 9.3 2 8.9 2 8.7 1.6 8.6 2 8.2 2 8.5 2.3"/><polygon class="cls-3" points="9 5.7 8.8 5.3 8.7 5.7 8.3 5.8 8.6 6 8.5 6.4 8.8 6.2 9.2 6.4 9.1 6 9.4 5.8 9 5.7"/><polygon class="cls-3" points="8.8 3.2 9.1 3.5 9 3.9 9.3 3.6 9.7 3.9 9.6 3.5 9.9 3.2 9.5 3.2 9.3 2.8 9.2 3.2 8.8 3.2"/><polygon class="cls-3" points="10 4.5 9.6 4.5 9.4 4.1 9.3 4.5 8.9 4.5 9.2 4.7 9.1 5.1 9.4 4.9 9.8 5.1 9.7 4.7 10 4.5"/></g></svg>