<svg xmlns="http://www.w3.org/2000/svg" viewBox="0 0 30 20"><defs><style>.cls-1{fill:#fafafa;}.cls-2{fill:#21205f;}.cls-3{fill:#fff;}.cls-4{fill:#f89939;}.cls-5{fill:#1e8943;}</style></defs><title>in</title><g id="Layer_19" data-name="Layer 19"><path class="cls-1" d="M0,13.3H30V6.7H0ZM15,7a2.9,2.9,0,0,1,3,3,3,3,0,0,1-6,0A2.9,2.9,0,0,1,15,7Z"/><path class="cls-2" d="M15,13a2.9,2.9,0,0,0,3-3,3,3,0,0,0-6,0A2.9,2.9,0,0,0,15,13ZM12.3,9.8c.1,0,.2,0,.2-.1s0-.2-.1-.2V9.3l1.5.5h.6L14,9.6l-1.6-.3c0-.1.1-.1.1-.2h.2a.4.4,0,0,0-.1-.3h.1l1.3.9.5.2c0-.1,0-.1.1-.1l-.5-.3-1.4-.7V8.5H13c.1-.1.1-.2,0-.2s.1-.1.1-.2l1.1,1.2.4.4h.1l-.4-.4L13.1,8.1h.4c.1,0,.1-.1,0-.2h.2l.7,1.4.3.5h.1L14.5,9l-.8-1.3H14c.1,0,.2-.1.1-.2h.2L14.6,9l.2.5h.1V9l-.5-1.6h.2c0,.1.1.2.2.1H15V9.5h0V7.3h.3c.1.1.2,0,.2-.1h.2L15.2,9v.5h.1l.2-.5.3-1.6h.2c-.1.1,0,.2.1.2h.3L15.5,9l-.3.5h.1l.3-.5.7-1.4h.2c-.1.1-.1.2,0,.2h.4L15.7,9.2l-.4.4h.1l.4-.4,1.1-1.2c0,.1.1.1.1.2s-.1.1,0,.2h.2v.2l-1.4.7-.5.3c.1,0,.1,0,.1.1l.5-.2,1.3-.9h.1a.4.4,0,0,0-.1.3h.2c0,.1.1.1.1.2L16,9.6l-.5.2H16l1.6-.5v.2c-.1,0-.1.1-.1.2s.1.1.2.1V10h0v.2c-.1,0-.2,0-.2.1s0,.2.1.2v.2L16,10.2h-.5l.5.2,1.6.3c0,.1-.1.1-.1.2h-.2a.4.4,0,0,0,.1.3h-.1L16,10.4l-.5-.2c0,.1,0,.1-.1.1l.5.3,1.4.7v.2H17c-.1.1-.1.2,0,.2s-.1.1-.1.2l-1.1-1.2-.4-.4h-.1l.4.4,1.2,1.1h-.4c-.1,0-.1.1,0,.2h-.2l-.7-1.4-.3-.5h-.1l.3.5.8,1.3H16c-.1,0-.2.1-.1.2h-.2L15.4,11l-.2-.5h-.1V11l.5,1.6h-.2c0-.1-.1-.2-.2-.1H15V10.5h0v2.2h-.3c-.1-.1-.2,0-.2.1h-.2l.5-1.6v-.5h-.1l-.2.5-.3,1.6h-.2c.1-.1,0-.2-.1-.2h-.3l.8-1.3.3-.5h-.1l-.3.5-.7,1.4h-.2c.1-.1.1-.2,0-.2h-.4l1.2-1.1.4-.4h-.1l-.4.4-1.1,1.2c0-.1-.1-.1-.1-.2s.1-.1,0-.2h-.2v-.2l1.4-.7.5-.3c-.1,0-.1,0-.1-.1l-.5.2-1.3.9h-.1a.4.4,0,0,0,.1-.3h-.2c0-.1-.1-.1-.1-.2l1.6-.3.5-.2h-.6l-1.5.5v-.2c.1,0,.1-.1.1-.2s-.1-.1-.2-.1V10h0Z"/><path class="cls-3" d="M14.9,8.9V7.3h-.3c-.1.1-.2,0-.2-.1h-.2L14.8,9v.5H15Z"/><path class="cls-3" d="M15.6,10.9l.7,1.4h.2c-.1-.1-.1-.2,0-.2h.4l-1.2-1.1-.4-.4h0Z"/><path class="cls-3" d="M15.8,10.7l1.1,1.2c0-.1.1-.1.1-.2s-.1-.1,0-.2h.2v-.2l-1.4-.7-.5-.3h0Z"/><path class="cls-3" d="M15.4,11l.3,1.6h.2c-.1-.1,0-.2.1-.2h.3L15.5,11l-.3-.5h0Z"/><path class="cls-3" d="M16,10.4l1.3.9h.1a.4.4,0,0,1-.1-.3h.2c0-.1.1-.1.1-.2L16,10.4l-.5-.2h0Z"/><path class="cls-3" d="M15.1,11.1v1.6h.3c.1-.1.2,0,.2.1h.2L15.2,11v-.5H15Z"/><path class="cls-3" d="M16,10.2l1.6.5v-.2c-.1,0-.1-.1-.1-.2s.1-.1.2-.1V10H16Z"/><path class="cls-3" d="M14.8,11l-.5,1.6h.2c0-.1.1-.2.2-.1H15V10.5h-.1Z"/><path class="cls-3" d="M16.1,9.9h1.6V9.8c-.1,0-.2,0-.2-.1s0-.2.1-.2V9.3L16,9.8h.1Z"/><path class="cls-3" d="M14,10.4l-1.6.3c0,.1.1.1.1.2h.2a.4.4,0,0,1-.1.3h.1l1.3-.9.5-.2h0Z"/><path class="cls-3" d="M14.1,10.6l-1.4.7v.2H13c.1.1.1.2,0,.2s.1.1.1.2l1.1-1.2.4-.4h0Z"/><path class="cls-3" d="M14.3,10.8l-1.2,1.1h.4c.1,0,.1.1,0,.2h.2l.7-1.4.3-.5h0Z"/><path class="cls-3" d="M14.5,11l-.8,1.3H14c.1,0,.2.1.1.2h.2l.3-1.6.2-.5h0Z"/><path class="cls-3" d="M13.9,10.1H12.3v.2c.1,0,.2,0,.2.1s0,.2-.1.2v.2l1.5-.5h0Z"/><path class="cls-3" d="M14.2,9.3,13.1,8.1c0,.1-.1.1-.1.2s.1.1,0,.2h-.2v.2l1.4.7.5.3h0Z"/><path class="cls-3" d="M16,9.6l1.6-.3c0-.1-.1-.1-.1-.2h-.2a.4.4,0,0,1,.1-.3h-.1L16,9.6l-.5.2h0Z"/><path class="cls-3" d="M14.4,9.1l-.7-1.4h-.2c.1.1.1.2,0,.2h-.4l1.2,1.1.4.4h0Z"/><path class="cls-3" d="M14,9.6l-1.3-.9h-.1a.4.4,0,0,1,.1.3h-.2c0,.1-.1.1-.1.2l1.6.3.5.2h0Z"/><path class="cls-3" d="M14.6,9l-.3-1.6h-.2c.1.1,0,.2-.1.2h-.3L14.5,9l.3.5h0Z"/><path class="cls-3" d="M14.5,10h-.6l-1.5-.5v.2c.1,0,.1.1.1.2s-.1.1-.2.1V10h2.2Z"/><path class="cls-3" d="M15.2,9l.5-1.6h-.2c0,.1-.1.2-.2.1H15V9.5h.1Z"/><path class="cls-3" d="M15.9,9.4l1.4-.7V8.5H17c-.1-.1-.1-.2,0-.2s-.1-.1-.1-.2L15.8,9.3l-.4.4h0Z"/><path class="cls-3" d="M15.7,9.2l1.2-1.1h-.4c-.1,0-.1-.1,0-.2h-.2l-.7,1.4-.3.5h0Z"/><path class="cls-3" d="M15.5,9l.8-1.3H16c-.1,0-.2-.1-.1-.2h-.2L15.4,9l-.2.5h0Z"/><path class="cls-2" d="M14.5,10h0c0,.1,0,.1.1.1h.8c.1,0,.1,0,.1-.1h0c0-.1,0-.1-.1-.1h-.8c-.1,0-.1,0-.1.1h0Z"/><path class="cls-4" d="M27.5,0H2.5A2.5,2.5,0,0,0,0,2.5V6.7H30V2.5A2.5,2.5,0,0,0,27.5,0Z"/><path class="cls-5" d="M0,17.5A2.5,2.5,0,0,0,2.5,20h25A2.5,2.5,0,0,0,30,17.5V13.3H0Z"/></g></svg>