<svg xmlns="http://www.w3.org/2000/svg" viewBox="0 0 30 20"><defs><style>.cls-1{fill:#ce2028;}.cls-2{fill:none;}.cls-3{fill:#fafafa;}.cls-4{fill:#fff;}</style></defs><title>np</title><g id="Layer_74" data-name="Layer 74"><path class="cls-1" d="M14.2,9.8,5.7,4.6l-.2-.2-.2-.2L.7,1.4V19.2a.1.1,0,0,0,.1.1H14.2L4.7,9.8ZM5.5,6.9l-.3.5.6.2-.5.3.3.2A3.2,3.2,0,0,0,6.7,6.9,2.5,2.5,0,0,1,4.1,9.3,2.7,2.7,0,0,1,1.4,6.7h0A3.2,3.2,0,0,0,2.6,8.1l.2-.2-.4-.3.5-.2h0l-.3-.5h.6V6.5l.5.3V6.2l.4.5.3-.5.2.6L5,6.5V7h.5Zm0,5.2v1.2l1.2-.2-.8,1,1.2.4L5.8,15l.8,1-1.2-.2h0V17l-.9-.7-.5,1.1-.5-1.1-1,.7.2-1.2h0L1.6,16l.7-1-1.1-.5,1.1-.4-.7-1,1.2.2-.2-1.2,1,.7.5-1.1.5,1.1Z"/><polygon class="cls-2" points="0 2.5 0 17.5 0 17.5 0 2.5 0 2.5"/><path class="cls-3" d="M27.5,0H2.5A2.5,2.5,0,0,0,0,2.5v15a2.4,2.4,0,0,0,.7,1.7V1.4L5.3,4.2l.2.2.2.2,8.5,5.2H4.7l9.5,9.5H.8a2.6,2.6,0,0,0,1.7.7h25A2.5,2.5,0,0,0,30,17.5V2.5A2.5,2.5,0,0,0,27.5,0Z"/><path class="cls-4" d="M5.6,8.1l-.3-.2.5-.3-.6-.2.3-.5H5V6.5l-.4.3-.2-.6-.3.5-.4-.5v.6l-.5-.3V7H2.6l.3.5h0l-.5.2.4.3-.2.2A3.2,3.2,0,0,1,1.4,6.7h0A2.7,2.7,0,0,0,4.1,9.3,2.5,2.5,0,0,0,6.7,6.9,3.2,3.2,0,0,1,5.6,8.1Zm-2-1.3h0L3.2,7ZM2.9,8.4Z"/><polygon class="cls-4" points="6.6 16 5.8 15 7 14.5 5.8 14.1 6.6 13.1 5.4 13.3 5.5 12.1 4.6 12.8 4.1 11.7 3.6 12.8 2.6 12.1 2.8 13.3 1.6 13.1 2.3 14.1 1.2 14.5 2.3 15 1.6 16 2.8 15.8 2.8 15.8 2.6 17 3.6 16.3 4.1 17.4 4.6 16.3 5.5 17 5.4 15.8 5.4 15.8 6.6 16"/></g></svg>