<svg xmlns="http://www.w3.org/2000/svg" viewBox="0 0 30 20"><defs><style>.cls-1{fill:#5882bc;}.cls-2{fill:#f9da32;}.cls-3{fill:#fff;}.cls-4{fill:#ee2e2f;}</style></defs><title>aw</title><g id="Layer_89" data-name="Layer 89"><path class="cls-1" d="M0,17.5A2.5,2.5,0,0,0,2.6,20H27.4A2.5,2.5,0,0,0,30,17.5v-.8H0Z"/><path class="cls-1" d="M27.4,0H2.6A2.5,2.5,0,0,0,0,2.5V13.4H30V2.5A2.5,2.5,0,0,0,27.4,0ZM5.2,5.3,4.3,7.8,3.5,5.3.9,4.4l2.6-.8.8-2.5.9,2.5,2.5.8Z"/><rect class="cls-1" y="14.5" width="30" height="1.12"/><rect class="cls-2" y="15.6" width="30" height="1.12"/><rect class="cls-2" y="13.4" width="30" height="1.12"/><path class="cls-3" d="M4.3,1.1,3.5,3.6.9,4.4l2.6.9.8,2.5.9-2.5,2.5-.9L5.2,3.6Zm.7,4L4.3,7.2,3.6,5.1,1.5,4.4l2.1-.7.7-2.1L5,3.7l2.1.7Z"/><polygon class="cls-4" points="4.3 1.6 3.6 3.7 1.5 4.4 3.6 5.1 4.3 7.2 5 5.1 7.1 4.4 5 3.7 4.3 1.6"/></g></svg>