<svg id="Flags" xmlns="http://www.w3.org/2000/svg" viewBox="0 0 30 20"><defs><style>.cls-1{fill:none;}.cls-2{fill:#243770;}.cls-3{fill:#f7e71a;}.cls-4{fill:#fff;}</style></defs><title>cw</title><polygon class="cls-1" points="0 15 0 17.5 0 17.5 0 15 0 15"/><polygon class="cls-1" points="0 2.5 0 2.5 0 6.7 0 12.5 0 12.5 0 2.5"/><path class="cls-2" d="M30,17.5V15H0v2.5A2.5,2.5,0,0,0,2.5,20H27.4A2.5,2.5,0,0,0,30,17.5Z"/><path class="cls-2" d="M30,12.5V2.5A2.5,2.5,0,0,0,27.4,0H2.5A2.5,2.5,0,0,0,0,2.5v10ZM6.7,4.4,7.2,6H8.8l-1.3.9L8,8.4,6.7,7.5l-1.3.9.5-1.5L4.6,6H6.2ZM3,2.8l.3-1.1.4,1.1H4.9l-1,.7.4,1.2L3.3,4l-.9.7.3-1.2-.9-.7Z"/><polygon class="cls-3" points="30 15 30 13.3 30 12.5 0 12.5 0 12.5 0 13.3 0 15 0 15 30 15"/><polygon class="cls-4" points="2.4 4.7 3.3 4 4.3 4.7 3.9 3.5 4.9 2.8 3.7 2.8 3.3 1.7 3 2.8 1.8 2.8 2.7 3.5 2.4 4.7"/><polygon class="cls-4" points="5.9 6.9 5.4 8.4 6.7 7.5 8 8.4 7.5 6.9 8.8 6 7.2 6 6.7 4.5 6.2 6 4.6 6 5.9 6.9"/></svg>