<svg id="Flags" xmlns="http://www.w3.org/2000/svg" viewBox="0 0 30 20"><defs><style>.cls-1{fill:#177341;}.cls-2{fill:#fafafa;}.cls-3{fill:#d32a40;}.cls-4{fill:#fed733;}</style></defs><title>Artboard 67</title><path class="cls-1" d="M27.5,0H2.5A2.5,2.5,0,0,0,0,2.5V4H30V2.5A2.5,2.5,0,0,0,27.5,0Z"/><path class="cls-1" d="M0,17.5A2.5,2.5,0,0,0,2.5,20h25A2.5,2.5,0,0,0,30,17.5V16H0Z"/><rect class="cls-2" y="4" width="30" height="2.01"/><rect class="cls-2" y="14" width="30" height="2.01"/><path class="cls-3" d="M0,14H30V6H0ZM15,6.2l.9,2.9H19l-2.5,1.8.9,2.8L15,11.9l-2.5,1.8,1-2.8L11,9.1h3.1Z"/><polygon class="cls-4" points="13.5 10.8 12.5 13.7 15 11.9 17.4 13.7 16.5 10.9 19 9.1 15.9 9.1 15 6.2 14.1 9.1 11 9.1 13.5 10.8"/></svg>