<svg xmlns="http://www.w3.org/2000/svg" viewBox="0 0 30 20"><defs><style>.cls-1{fill:#ee2e2f;}.cls-2{fill:#fff;}.cls-3{fill:#213065;}</style></defs><title>no</title><g id="Layer_65" data-name="Layer 65"><path class="cls-1" d="M7.5,0h-5A2.5,2.5,0,0,0,0,2.5v5H7.5Z"/><path class="cls-1" d="M0,12.5v5A2.5,2.5,0,0,0,2.5,20h5V12.5Z"/><path class="cls-1" d="M12.6,20H27.5A2.5,2.5,0,0,0,30,17.5v-5H12.6Z"/><path class="cls-1" d="M27.5,0H12.6V7.5H30v-5A2.5,2.5,0,0,0,27.5,0Z"/><rect class="cls-2" x="7.5" y="12.5" width="1.3" height="7.49"/><rect class="cls-2" x="11.3" y="12.5" width="1.3" height="7.49"/><rect class="cls-2" x="7.5" width="1.3" height="7.49"/><rect class="cls-2" x="11.3" width="1.3" height="7.49"/><polygon class="cls-2" points="8.8 8.7 8.8 7.5 7.5 7.5 0 7.5 0 8.7 8.8 8.7"/><polygon class="cls-2" points="11.3 11.3 11.3 12.5 12.6 12.5 30 12.5 30 11.3 11.3 11.3"/><polygon class="cls-2" points="8.8 12.5 8.8 11.3 0 11.3 0 12.5 7.5 12.5 8.8 12.5"/><polygon class="cls-2" points="11.3 7.5 11.3 8.7 30 8.7 30 7.5 12.6 7.5 11.3 7.5"/><polygon class="cls-3" points="11.3 8.7 11.3 7.5 11.3 0 8.8 0 8.8 7.5 8.8 8.7 0 8.7 0 11.3 8.8 11.3 8.8 12.5 8.8 20 11.3 20 11.3 12.5 11.3 11.3 30 11.3 30 8.7 11.3 8.7"/></g></svg>