<svg id="Flags" xmlns="http://www.w3.org/2000/svg" viewBox="0 0 30 20"><defs><style>.cls-1{fill:#fafafa;}.cls-2{fill:#e72e3f;}</style></defs><title>Artboard 49</title><path class="cls-1" d="M27.4,0H17V8H30V2.5A2.5,2.5,0,0,0,27.4,0ZM25.5,4.7l-1.4-.2c0,.3.1,1.2.1,1.4H22.9c0-.2.1-1.2.1-1.4l-1.4.2a6.6,6.6,0,0,0,0-1.4l1.4.2c0-.4-.1-1.1-.1-1.5a2.9,2.9,0,0,0,1.3,0,8.6,8.6,0,0,0-.1,1.5l1.4-.2Z"/><path class="cls-1" d="M17,20H27.4A2.5,2.5,0,0,0,30,17.5V12H17Zm5.9-5.9h1.4a3.9,3.9,0,0,0-.2,1.4l1.4-.2v1.4l-1.4-.2a6.8,6.8,0,0,0,.2,1.5,3.3,3.3,0,0,0-1.4,0,9.3,9.3,0,0,0,.2-1.4,7.6,7.6,0,0,0-1.5.1,3.3,3.3,0,0,0,0-1.4,3.9,3.9,0,0,0,1.5.2C23,15.2,23,14.4,22.9,14.1Z"/><path class="cls-1" d="M0,12v5.5A2.5,2.5,0,0,0,2.5,20H13V12Zm7.1,6a2.9,2.9,0,0,0-1.3,0c0-.3.1-1.3.1-1.5l-1.4.2a6.6,6.6,0,0,0,0-1.4l1.4.2c0-.4-.1-1.1-.1-1.4H7.1A7.6,7.6,0,0,0,7,15.5l1.4-.2v1.4L7,16.5C7,16.8,7.1,17.7,7.1,18Z"/><path class="cls-1" d="M13,0H2.5A2.5,2.5,0,0,0,0,2.5V8H13ZM7.1,5.9H5.8c0-.2.1-1.2.1-1.4l-1.4.2a6.6,6.6,0,0,0,0-1.4l1.4.2c0-.4-.1-1.1-.1-1.4H7.1A7.6,7.6,0,0,0,7,3.5l1.4-.2V4.7L7,4.5C7,4.8,7.1,5.7,7.1,5.9Z"/><polygon class="cls-2" points="17 8 17 0 13 0 13 8 0 8 0 12 13 12 13 20 17 20 17 12 30 12 30 8 17 8"/><path class="cls-2" d="M24.1,3.5A8.6,8.6,0,0,1,24.2,2a2.9,2.9,0,0,1-1.3,0c0,.4.1,1.1.1,1.5l-1.4-.2a6.6,6.6,0,0,1,0,1.4L23,4.5c0,.2-.1,1.2-.1,1.4h1.3c0-.2-.1-1.1-.1-1.4l1.4.2V3.3Z"/><path class="cls-2" d="M8.4,3.3,7,3.5a7.6,7.6,0,0,1,.1-1.4H5.8c0,.3.1,1,.1,1.4L4.5,3.3a6.6,6.6,0,0,1,0,1.4l1.4-.2c0,.2-.1,1.2-.1,1.4H7.1c0-.2-.1-1.1-.1-1.4l1.4.2Z"/><path class="cls-2" d="M8.4,15.3,7,15.5a7.6,7.6,0,0,1,.1-1.4H5.8c0,.3.1,1,.1,1.4l-1.4-.2a6.6,6.6,0,0,1,0,1.4l1.4-.2c0,.2-.1,1.2-.1,1.5a2.9,2.9,0,0,1,1.3,0c0-.3-.1-1.2-.1-1.5l1.4.2Z"/><path class="cls-2" d="M21.6,15.3a3.3,3.3,0,0,1,0,1.4,7.6,7.6,0,0,1,1.5-.1,9.3,9.3,0,0,1-.2,1.4,3.3,3.3,0,0,1,1.4,0,6.8,6.8,0,0,1-.2-1.5l1.4.2V15.3l-1.4.2a3.9,3.9,0,0,1,.2-1.4H22.9c.1.3.1,1.1.2,1.4A3.9,3.9,0,0,1,21.6,15.3Z"/></svg>