<svg xmlns="http://www.w3.org/2000/svg" viewBox="0 0 30 20"><defs><style>.cls-1{fill:#121212;}.cls-2{fill:#be262c;}.cls-3{fill:#1f9a50;}.cls-4{fill:#fff;}.cls-5{fill:#be2026;}.cls-6{fill:#bc6d28;}.cls-7{fill:#010101;}</style></defs><title>af</title><g id="Layer_99" data-name="Layer 99"><path class="cls-1" d="M2.6,0A2.5,2.5,0,0,0,0,2.5v15A2.5,2.5,0,0,0,2.6,20H9.9V0Z"/><rect class="cls-1" x="20.1" height="20"/><polygon class="cls-2" points="15.1 11.2 15.2 11.4 15.5 11.4 15.3 11.2 15.1 11.2"/><path class="cls-2" d="M15.1,12.4Z"/><path class="cls-2" d="M16.4,13.1h0Z"/><path class="cls-2" d="M9.9,0V20H20.1V0Zm9.6,9.9v.3h-.1c.1,0,.1-.2.1-.2ZM19,11.1h-.8c0,.2-.1.3-.2.3s.1-.1.2-.3h-.3c.1.2,0,.3-.1.3s0-.1.1-.3l-.3.2a.4.4,0,0,1,.1.3c-.2.1-.2-.3-.1-.4h0c0-.1.1-.2.1-.3s.2-.3.4-.3l-.2-.4a.5.5,0,0,1,.3.3h.9l.3-.3a.1.1,0,0,1,.1.1l-.3.6H19Zm-.3,0c0,.2.1.4,0,.4S18.6,11.2,18.7,11.1Zm0,.7c-.2.1-.2-.2-.2-.5S18.8,11.8,18.7,11.8Zm.1-.8c.1.1.1.3,0,.3S18.8,11.2,18.8,11Zm-.4,1.1c-.1,0,0-.3.1-.5S18.6,12.1,18.4,12.1Zm-.2.3c-.2-.1,0-.4.1-.6S18.4,12.3,18.2,12.4Zm-.7-.2c0-.2.2-.2.4-.3l.2-.3a.5.5,0,0,1-.2.4c0,.2,0,.2-.1.3V12A.4.4,0,0,1,17.5,12.2Zm-.2-1.6h0l-.2-.5h0l-.3-.2-.5.8v.2H16v-.5h.3v.2l.8-1.3h.2c0,.1,0,.1-.1.1h0l.3.3h0c.1,0,.1.1.2.2v.2h0c0,.1.1.2,0,.2l-.3.4h0C17.3,10.9,17.3,10.7,17.3,10.6Zm0,1.6c-.1,0-.1-.1-.1-.3S17.4,12.1,17.3,12.2Zm0,1.2h0Zm.4.1h-.6C17.1,13.3,17.4,13.5,17.7,13.5Zm-.4-.2c-.1-.1.2-.2.2-.4S17.4,13.4,17.3,13.3Zm-.2.1c-.2-.1.1-.3.3-.5S17.2,13.5,17.1,13.4Zm-.4.1c-.1-.1.3-.3.5-.6S16.9,13.6,16.7,13.5Zm.2-.7c-.1-.2.1,0,.3-.2S16.9,12.9,16.9,12.8Zm.3.1c-.2.1-.5.3-.5.1Zm-.2.2c-.2.1-.5.3-.5.1Zm-.4-.1c-.1,0,0-.3,0-.4S16.7,13,16.6,13Zm-3.7-.9.4-.3h3.4l.4.3Zm2.1.8h0Zm.2-.2h0Zm.2.4c-.1.2-.2.2-.4.2S15.2,13.2,15.4,13.1Zm-.1-.4v-.2h.2v.2h-.1v-.2h-.1Zm.2.4a.2.2,0,0,1-.2.2C15.3,13.2,15.4,13.2,15.5,13.1Zm0-.1h0Zm.2-.1.3-.4-.2.4a.5.5,0,0,1-.2.4A.6.6,0,0,0,15.7,12.9Zm.2,0,.3-.4c-.1.1-.1.3-.2.4a.5.5,0,0,1-.2.4C15.8,13.1,15.9,13,15.9,12.9Zm-1.7,0c-.1-.1-.1-.2-.2-.4l.3.4a.8.8,0,0,0,.1.4A.5.5,0,0,1,14.2,12.9Zm0,.4a.5.5,0,0,1-.2-.4c-.1-.1-.1-.3-.2-.4l.3.4C14.1,13,14.2,13.1,14.2,13.3Zm.2-.4h0Zm.1-.5h.1v.2h-.1Zm.2.9a.2.2,0,0,1-.2-.2C14.5,13.2,14.7,13.2,14.7,13.3Zm-.1-.2c.2.1.4.1.4.2S14.7,13.3,14.6,13.1Zm.3-.7h0Zm0,.5h0Zm-1.4-.1c.1,0,.1.1.1.2h.1c.1-.1.1,0,0,.1h-.2C13.4,13.2,13.6,13,13.5,12.8Zm-1.1.1c.2.2.4.3.3.4S12.5,13.1,12.4,12.9Zm0,.3c-.1,0-.2-.2-.2-.3S12.5,13.1,12.4,13.2Zm.3.2h0Zm.2.1h-.6C12.6,13.5,12.8,13.3,12.9,13.5Zm-.3-.6c.2.2.4.4.3.5S12.7,13.1,12.6,12.9Zm.2,0,.5.6C13.2,13.6,12.9,13.1,12.8,12.9Zm0-.2c.2,0,.3,0,.3.1Zm.5.3h-.5C13.1,12.9,13.3,12.8,13.3,13Zm-.3.1h.5C13.5,13.4,13.1,13.2,13,13.1Zm.3-.5c.2.1.2.4.1.4S13.4,12.8,13.3,12.6Zm-.5-2.1h-.1v.2h-.1l-.3-.3a.1.1,0,0,1,0-.2v-.2h0a.8.8,0,0,1,.2-.5h0l.3-.3h0a.1.1,0,0,1-.1-.1h.2l.7,1.3H14v.5h-.4v-.3l-.4-.7h-.3A.6.6,0,0,0,12.8,10.5Zm-.1,1.6c-.1,0,0-.1,0-.2S12.8,12.2,12.7,12.1Zm-1-.2c.1.1.2.4.1.4S11.7,12.1,11.7,11.9Zm.1-.2-.2-.3.2.3c0,.2.1.3.1.4S11.8,11.9,11.8,11.7Zm-.7-.7h0c-.1,0-.1-.1-.1-.2h-.2a1.5,1.5,0,0,1-.3-.6.1.1,0,0,1,.1-.1l.3.3h.9l.3-.3c0,.1-.1.3-.2.3l.4.3c0,.2.1.3.1.4h0c.1.2,0,.5-.1.4s0-.2.1-.3l-.3-.2c.1.2.3.3.1.3s-.2-.1-.1-.3H12l-.8-.2c0,.2.2.3,0,.3s0-.1,0-.3Zm-.1-.6c-.2.1-.3-.2-.4-.5S11,10.2,11,10.4Zm-.4-.8c.2.4.4.4.3.6S10.6,9.9,10.6,9.6Zm.4.5c-.1-.1.1-.2.2-.3S11.2,10.2,11,10.1Zm.2-.1c0,.3,0,.4-.2.4S11.1,10.2,11.2,10ZM11,9.9c-.1-.2.1-.3.1-.4S11.1,9.9,11,9.9Zm0-.3c-.1-.2,0-.1.1-.3S11.1,9.6,11,9.6Zm.4.8c-.1,0-.2-.2-.2-.4S11.5,10.2,11.4,10.4Zm-.2-.7c.1.2.3.2.2.4S11.2,9.8,11.2,9.7Zm.3.9a.3.3,0,0,1-.3-.3C11.3,10.4,11.5,10.4,11.5,10.6Zm0-.3c-.1-.1.1-.2.1-.3S11.7,10.4,11.5,10.3Zm.2,0c0,.2,0,.3-.2.3S11.6,10.4,11.7,10.3Zm.3-1,.2-.2c0-.1,0-.3.1-.3s.1,0,0,.1v.5C12,9.4,11.9,9.4,12,9.3Zm-.1,0s-.1,0,0-.1V9l.2-.2c.1-.1.1,0,.1,0L12,9A.4.4,0,0,1,11.9,9.3Zm-.2-1.2c.1-.2.2-.1.4-.2Zm.2,0c0,.2-.2.3-.3.2S11.7,8.2,11.9,8.1Zm.4,0c-.2,0-.1-.3,0-.5S12.4,8,12.3,8.1Zm-.4-.2c0-.2.2-.2.3-.3A.3.3,0,0,1,11.9,7.9Zm.2,0c0,.2.2.3,0,.5S12.1,8,12.1,7.9Zm.4.2c0,.2-.2.4-.3.2S12.4,8.2,12.5,8.1Zm.5-.6c-.2.2-.3.4-.5.4S12.7,7.6,13,7.5Zm-.2-.2c0,.2-.1.3-.2.3S12.7,7.4,12.8,7.3Zm-.3,0c0,.3.1.4-.1.5S12.4,7.5,12.5,7.3Zm-.1-.4h0Zm.3.9a.3.3,0,0,1-.4.3C12.3,7.9,12.6,7.9,12.7,7.8Zm-.5,3.9c0,.2-.4-.3-.5-.5S12.3,11.6,12.2,11.7Zm-.4-.6c.1.2.3.2.2.3S11.8,11.3,11.8,11.1Zm.5.8c0,.2-.4-.2-.5-.4S12.4,11.8,12.3,11.9Zm-1-.3-.6-.3C10.9,11.4,11.3,11.4,11.3,11.6Zm0-.5c.1.2.2.4,0,.4S11.3,11.3,11.3,11.1Zm.1.2c.1.3.1.6-.1.5S11.4,11.6,11.4,11.3Zm.1.3c.1.2.2.5,0,.5S11.5,11.8,11.5,11.6Zm.4.1c0,.1.2.2.2.3v.3c-.1,0-.1-.1-.1-.2S11.9,11.8,11.9,11.7Zm.2.2.4.2C12.4,12.3,12.1,12,12.1,11.9Zm.3,0c-.1,0,.1-.1.1-.3S12.5,12,12.4,11.9Zm.2-.1c.1.2,0,.4-.1.3S12.6,12,12.6,11.8ZM14,6.4s-.1-.1,0-.1Zm0-.3.2-.2H14Zm.4.9-.2-.2h.2l-.2-.2.4.2V6.7l.2.2V6.6l.2.3v0l.3-.3v.3l.2-.2v.2l.3-.2-.2.2h.3l-.2.2.4-.2-.4.2H14.4l-.5-.2ZM16,8.1h0Zm.3.1v.6H16V8.2ZM16,7.9c0-.1.1-.3.2-.3s.2.2.2.3Zm-1.2-.7c-.1,0-.1,0-.1-.1h.1v.2h-.1A.3.3,0,0,1,14.8,7.2Zm0-.1h-.2a.1.1,0,0,1-.1.1.1.1,0,0,0-.1-.1h-.1l.2-.2h.1l.2-.2S14.9,7,14.8,7.1Zm.1.6h.2a.5.5,0,0,1,.5.5.7.7,0,0,1-.1.5h-1a.8.8,0,0,1-.2-.5A.6.6,0,0,1,14.9,7.7Zm.4-.5h0Zm0,0h0c.1.1.1,0,.1,0h0c.1.1.1.1,0,.2h-.2c0,.1,0-.1-.1-.1h0c-.1,0-.1-.1,0-.1h.1a.1.1,0,0,0,.1.1Zm.3,0v.2h-.1V7.2h.1c.1,0,.1,0,.1.1ZM14,7.9h-.4c0-.1.2-.3.2-.3S14,7.8,14,7.9Zm-.3.2h0Zm.3.1v.6h-.3V8.2Zm.1.7.3-.2h1.2l.3.2h.7l-.2.2H13.6l-.2-.3Zm2.2,1.2h0Zm0,.1v.2H16v-.2Zm-.6,1.5h-.3l-.2-.3H15v.3h-.3v-.3h-.3v.3H13.4l.2-.4h.9v-.2h-.3V10c0-.4.5-.7.7-.7H15a.9.9,0,0,1,.8.7v.3h0V10c0-.3-.5-.7-.8-.7s-.8.3-.8.7h1.2v.2h.3v.2h-.2ZM14.1,10h0Zm-.5-.1V9.4H14v.5Zm.1.3H14v.2h-.3Zm.3.8v.2h-.4V11Zm.1-1.3V9.4h.3Zm2.2-.3v.5H16V9.4Zm-.5.3-.2-.3h.2Zm0,.8v.4h0v-.4Zm.2.8h.4l.2.4h-.8Zm.4-.1h-.5V11h.5Zm1.1-3.3a.4.4,0,0,1-.4-.4C17.3,7.7,17.5,7.6,17.5,7.9Zm-.3-.6c.1.1.3.1.2.3S17.2,7.4,17.2,7.3Zm.5.3c.1.1.2.4,0,.5S17.7,7.8,17.7,7.6Zm.7,1.2c.1-.1.1,0,.1,0s0,.3.1.3h.3c.1.2.2.2.1.4a.3.3,0,0,1-.1-.2h0l-.3.3c0,.2.1.3,0,.4s-.1-.1-.1-.3-.1.1-.1.2.2.1.1.3-.1-.1-.1-.2h-.1l-.2.4c-.2-.1-.2-.4-.2-.6l.3-.6a.8.8,0,0,0-.5-.6c-.1-.1,0-.2,0-.1H18a.5.5,0,0,0,.1.3s0-.2.1-.2h.1a.6.6,0,0,0,0,.6Zm.1-.4s.2.2.1.3A.2.2,0,0,1,18.5,8.4Zm.9,1.5c-.1.3-.2.6-.4.5Zm0-.3c0,.2-.2.6-.3.6S19.3,9.9,19.4,9.6Zm-.4.5c-.1.1-.2,0-.2-.3Zm-.2-.6c.1.2.3.2.2.4S18.9,9.8,18.8,9.5Zm.2.9c-.1,0-.2-.1-.2-.4S19.1,10.2,19,10.4Zm0-.8c-.1,0-.1-.1-.1-.3S19.1,9.5,19,9.6Zm-.5.8c0-.2.2-.2.3-.4A.4.4,0,0,1,18.5,10.4Zm0,.2c0-.2.1-.2.3-.3A.3.3,0,0,1,18.5,10.6Zm.2-.9c.1.2,0,.5-.1.4S18.7,9.9,18.7,9.7Zm-.2.7c-.2,0-.2-.1-.2-.4S18.6,10.2,18.5,10.4Zm0,.2c-.2,0-.2,0-.2-.4S18.5,10.4,18.5,10.6Zm-.7-1.5.2.2h-.1V8.8c-.1,0,0-.1,0,0S17.8,9,17.8,9.1Zm0-.3L18,9c.1,0,.1.1.1.2s0,.1-.1.1V9l-.2-.2Zm.1-.9c0,.1.1.4,0,.4S17.9,8.1,17.9,7.9Zm.2.2c.1.1.3.1.3.3A.3.3,0,0,1,18.1,8.1Zm-.2-.2c.1,0,.3,0,.3.2Zm-.1-.3c.1.1.3.1.3.3A.3.3,0,0,1,17.8,7.6Zm0,.8c-.2,0-.3-.1-.4-.3S17.7,8.2,17.8,8.4Zm-.5-.6c.1.2.4.1.4.3S17.4,8,17.3,7.8Zm.3,0c-.2-.1-.1-.3-.1-.5S17.7,7.7,17.6,7.8Zm-.2,4c0,.2.2.3.1.3S17.3,11.9,17.4,11.8Zm.1-.2c0,.1.2.3.1.3S17.5,11.8,17.5,11.6Zm.6-.1c-.1.3-.4.5-.4.4S17.9,11.7,18.1,11.5Zm.2-.3c-.1.2-.5.6-.6.5Zm-.2.5c0-.1,0-.2.2-.3v.3c0,.2-.1.4-.2.4S18.1,11.9,18.1,11.7Zm1-1.8c-.1-.2.2-.3.4-.6S19.3,9.9,19.1,9.9Zm0-.3c-.1-.1.2-.2.3-.5S19.2,9.7,19.1,9.6Zm0-.2c-.1-.2.2-.3.2-.5S19.2,9.5,19.1,9.4Zm0-.2a.4.4,0,0,1,0-.5A.4.4,0,0,1,19.1,9.2Zm-.1-1h0v.4h0V8.4C18.9,8.3,18.9,8.2,19,8.2Zm-.2.2V8h0v.4c.1.3-.1.4-.1.5h0C18.8,8.7,18.9,8.6,18.8,8.4Zm-.2-.6h.1v.6c0,.2-.1.2-.1.1V7.8Zm-.1.6c-.2-.1,0-.7,0-1S18.6,8.4,18.5,8.4Zm-.1-1.1c0,.2.1.8-.1.8S18.4,7.5,18.4,7.3Zm-.2.6c-.2-.1,0-.5,0-.8S18.4,7.9,18.2,7.9Zm-.2-1c.1.3.2.6.1.7S18,7.2,18,6.9Zm0,.7c-.2.1-.4-.2-.4-.4Zm-.1-.2c-.2,0-.1-.3-.2-.4S18,7.3,17.9,7.4Zm-.2-.7c-.1.1-.2.5-.5.5s-.2,0-.2-.1h.1s.2.1.2,0a.9.9,0,0,0,.4-.6C17.7,6.3,17.9,6.6,17.7,6.7Zm-.5-.6c0,.1.1.2.1.3s0-.1.1-.1h0c0,.1,0,.1-.1.2a.3.3,0,0,1,.1.2c0-.2.1-.3.1-.4s.1.1.1.2-.2.2-.2.3V7h0a.3.3,0,0,1-.1-.2c0,.1,0,.2-.1.2h0a.4.4,0,0,0,.1-.3h0l-.2.3h-.2c-.1,0-.1-.3-.1-.2s-.4.1-.4-.1.1,0,.1,0h.4s-.1.2.1.1.2-.3.3-.4l-.2-.3Zm-.2.5h0Zm0-.1h0C16.9,6.4,17,6.4,17,6.5ZM17,6a3.3,3.3,0,0,0-.3.6c-.1.1-.1.1-.1,0l.3-.6Zm-.3-.1v.2l-.2.4c0,.2-.2.2-.4.2s0-.1,0-.1h.4V5.9S16.7,5.8,16.7,5.9Zm-.3,0h0Zm0,.1h0ZM16,5.7c.1.1.1.3.2.3s0-.2.1-.2h0v.3l.2.4h-.1V6.2a.6.6,0,0,1-.1.4h0V6.1l-.3-.3S15.9,5.6,16,5.7Zm-.3-.1h0C15.6,5.7,15.6,5.6,15.7,5.6Zm-.1.2h0c.1-.1.1-.1.1,0h0c0-.1.1,0,.1.1h-.2Zm-.2.7h.2c.1-.1,0-.2,0-.3h.1v.4h.2V6.1H16c0,.1-.1.2-.1.3v.2h-.3c-.2,0-.1-.3-.2-.3l-.2.2V6.3h.1v.2l.3-.3h.1A.6.6,0,0,0,15.4,6.5Zm-.1-.8c.1,0,.1,0,.1-.1a.1.1,0,0,1,.1.1h-.2ZM15,5.5h0Zm-.3.1h0Zm.1.2h0Zm-.5.6.3-.2c.1-.1,0-.3-.1-.4h.1a.8.8,0,0,0,.2.5h.3a.1.1,0,0,1-.1-.1h.1c.1.1.1.2,0,.2l-.3.2h.4c.1,0,.1.1,0,.1H15l-.2.2a.1.1,0,0,1,.1.1c.1.1,0,.1-.1.1V6.3c-.1,0-.2.2-.5.1h0l-.2.2h.2V6.1h0v.2h.2c0-.1,0-.1-.1-.2h.1c.1,0,0,.2-.1.4Zm-.6-.1h-.1c-.1.1-.1,0-.1,0h.2a.8.8,0,0,1-.2-.4h.1c0,.1.1.2.1.4l.2-.3h-.2c0-.1,0-.2.1-.2h.3c0-.1,0,0,.1,0h.2c0,.1.1.1,0,.2h-.1a.1.1,0,0,1-.2,0c-.1,0-.1.1-.1.2s-.1.2-.2.2v.2a.4.4,0,0,1-.1.3h-.4V6.5s.1.2.2.2l.3-.2Zm-.4-.5a.1.1,0,0,1,.1.1v.2h0C13.4,5.9,13.3,5.9,13.3,5.8Zm-.2.2.3.5c.1.1,0,.1,0,.1L13,6Zm-.2.1h-.1A.1.1,0,0,1,12.9,6.1Zm-.2.4h0a.1.1,0,0,1,.1-.1h0c.1.1-.1.1-.1.1h0Zm-.1-.1h0S12.7,6.4,12.6,6.4Zm0,.8s.1,0,0-.1V6.8h.1a.2.2,0,0,0,.2.2H13c0-.1-.2-.2-.2-.2s0-.1.1-.1.1.2.2.2.1,0,.1,0L13,6.6c-.1-.1,0-.2,0-.1a.2.2,0,0,1,.2.2c0,.1,0,.2-.1.2l-.2.2h-.2v.3h-.2S12.5,7.1,12.6,7.2Zm-.2-.6h.1a.3.3,0,0,1-.1.2s-.1,0,0-.1h0C12.5,6.7,12.3,6.6,12.4,6.6Zm-.2.4c.1.3,0,.4-.2.4S12.1,7.2,12.2,7Zm.2.2c0,.3-.2.5-.4.4S12.2,7.5,12.4,7.2Zm-.5-.4a1.1,1.1,0,0,1,0,.8C11.8,7.5,11.9,7,11.9,6.8Zm-.1.3c0,.2.1.7,0,.8S11.7,7.3,11.8,7.1Zm-.2.2c0,.2.2.8.1.8S11.6,7.5,11.6,7.3Zm-.2.1c.1.5.3.9.1,1S11.4,7.9,11.4,7.4Zm-.1,1.3c0-.1.1-.3.2-.3S11.5,8.7,11.3,8.7Zm0-1h.1c-.1,0-.1.2,0,.3v.3h-.1V7.7Zm-.2.7c0-.1.1-.3,0-.4h.1v.4c-.1.2,0,.3,0,.5h0C11.2,8.8,11,8.7,11.1,8.4Zm0,.6h.3V8.8c.1,0,.1-.1.1,0l.2.3a.6.6,0,0,0,0-.6h.1s.1.3.1.2,0-.3.1-.3h.3s.1,0,0,.1-.4.2-.5.6a1.4,1.4,0,0,1,.2.6.9.9,0,0,1-.1.7c0-.2-.1-.3-.2-.5h-.1c0,.1,0,.2-.1.2s0-.2.1-.3h-.1c0,.1,0,.1-.1.2s-.1-.2,0-.4l-.3-.3h0v.2c-.1-.2,0-.2.1-.3h0ZM11,8.2c-.1,0,0-.1,0,0v.4h0c-.1-.1-.1-.1,0-.2Zm-.1.5c0,.1.1.3,0,.5A.5.5,0,0,1,10.9,8.7Zm0,.7c-.2,0-.2-.4-.3-.6S10.9,9.2,10.9,9.4Zm0,.2c-.2.1-.3-.4-.3-.6S10.9,9.4,10.9,9.6Zm0,.3c-.2,0-.2-.3-.4-.6S11,9.8,10.9,9.9Zm-.4,0h.1v.2h-.1V10Zm.5,1.2c-.2.1-.4-.2-.5-.4S11,11,11,11.1Zm.1.3c-.1.1-.3-.2-.4-.3S11.2,11.2,11.1,11.4Zm.1.3c0,.2-.4-.2-.5-.3S11.3,11.6,11.2,11.7Zm-.4-.1.5.3C11.2,12.1,10.8,11.7,10.8,11.6Zm.1.2.6.3C11.4,12.3,11,12,10.9,11.8Zm.8.6c0,.2-.4-.1-.6-.3S11.8,12.2,11.7,12.4Zm-.2.1-.3-.2Zm-.3,0h.6c.3-.1.5-.3.8-.3a.6.6,0,0,1,.6.1l.2.2c.1.1,0,.1,0,0h-.2c.1.1.1.3,0,.3s0-.1,0-.3h-.1v.2l-.2-.2h-.1c-.3.1-.4.3-.8.3S11.5,12.9,11.2,12.5Zm.4.4.5.2C12.2,13.3,11.7,13.1,11.6,12.9Zm.8.4h-.5C12.3,13.3,12.4,13.1,12.4,13.3Zm4.7.6c.1.1-.1.3-.6.3h0v.2h-1l-.2-.2h-.8l-.2.2h-.1c-.3-.1-.6-.2-.8,0s-.1,0,0-.1h-.4l-.3-.2a1.6,1.6,0,0,1-.7-.4l.9.3c0-.1.1-.1.1-.2h-.4c.2,0,.4-.2.5-.1h0l.2-.2h.2c0-.1.1-.1.2-.1l1.2.3,1.2-.3h.2v-.3c.1.2.2.5,0,.5h0a.1.1,0,0,1,.1.1h.4l.2.2c0-.2.6-.1.8-.3A1.2,1.2,0,0,1,17.1,13.9Zm.4-.6c0-.2.4,0,.6-.1S17.6,13.4,17.5,13.3Zm.3-.2.6-.2C18.2,13,17.9,13.3,17.8,13.1Zm.9-.6c-.2.4-.3.5-.7.4h-.2c0,.2-.1.3-.2.3s.1-.2.2-.3l-.6-.3h-.3v-.2h-.1c0,.2.1.3,0,.3s-.1-.1,0-.3h-.2l.2-.2h.6c.3,0,.5.2.8.3Zm-.2,0c-.1,0,.1-.2.3-.2Zm-.3-.1c0-.2.5-.1.7-.3S18.3,12.5,18.2,12.4Zm.3-.3c-.1-.1.3-.1.6-.3S18.5,12.2,18.5,12.1Zm.2-.2c-.1-.1.4-.2.5-.4S18.8,12,18.7,11.9Zm.1-.2c-.1-.1.2-.1.5-.3S18.8,11.8,18.8,11.7Zm-.1-.1c-.1-.1.2-.1.6-.4S18.7,11.7,18.7,11.6Zm.2-.2c-.1-.2.3-.2.4-.4S19,11.4,18.9,11.4Zm.1-.2c-.1-.2.4-.4.5-.5S19.1,11.2,19,11.2Z"/><polygon class="cls-2" points="14.9 11 14.8 11 14.9 11.2 15.1 11.2 14.9 11"/><polygon class="cls-2" points="14.8 11.4 15 11.4 14.9 11.2 14.7 11.2 14.8 11.4"/><path class="cls-2" d="M15.7,14.3c-.1.1,0,.2.1.2a.8.8,0,0,1,.7-.1h-.1C16.2,14.3,15.8,14.2,15.7,14.3Z"/><path class="cls-2" d="M13.8,5.8h0a.1.1,0,0,0,.1.1A.1.1,0,0,0,13.8,5.8Z"/><polygon class="cls-2" points="14.5 11 14.5 11.2 14.7 11.2 14.7 11 14.5 11"/><path class="cls-3" d="M27.4,0H20.1V20h7.3A2.5,2.5,0,0,0,30,17.5V2.5A2.5,2.5,0,0,0,27.4,0Z"/><path class="cls-4" d="M12.9,10.1h0Z"/><path class="cls-4" d="M12.7,10.9h0Z"/><path class="cls-4" d="M12.8,9.3Z"/><path class="cls-4" d="M12.6,10.9Z"/><path class="cls-4" d="M12.7,10.8Z"/><path class="cls-4" d="M12.7,10.4h-.4v.2a.1.1,0,0,0,0,.2l.3.3h.1v-.4Z"/><path class="cls-5" d="M12.8,10h-.2c-.1,0-.1,0-.1-.1h0a.8.8,0,0,0-.2.5h.4v.2h.1a.6.6,0,0,1,.1-.4Z"/><path class="cls-4" d="M12.5,9.7c0,.1,0,.1.1.1h.6l-.3-.6h-.1l-.3.3Z"/><path class="cls-4" d="M13.2,9.9l.4.7h0l-.7-1.3c0,.1,0,.1-.1.1h.1Z"/><path class="cls-4" d="M12.9,9.2h-.2a.1.1,0,0,0,.1.1h0C12.9,9.3,12.9,9.3,12.9,9.2Z"/><path class="cls-4" d="M17.2,9.4Z"/><path class="cls-4" d="M17.7,10.2h0v0Z"/><path class="cls-4" d="M17.4,10.9Z"/><path class="cls-4" d="M17.4,11Z"/><path class="cls-4" d="M17.7,10.6l-.3.4h0l.3-.4c.1,0,0-.1,0-.2h0C17.7,10.5,17.8,10.6,17.7,10.6Z"/><path class="cls-4" d="M17.4,10.9h0l.3-.4c.1,0,0-.1,0-.2h-.4c0,.1,0,.3.1.3Z"/><path class="cls-5" d="M17.4,10.5h.3V9.9c-.1-.1-.1-.2-.2-.2h-.4l.2.5h.1Z"/><path class="cls-4" d="M17.2,10h.3l-.3-.3h0l-.4.6.3.2h.1Z"/><path class="cls-4" d="M17.2,9.3h-.1l-.8,1.3h0l.5-.8Z"/><path class="cls-4" d="M17.2,9.3h0c.1,0,.1,0,.1-.1h-.1Z"/><rect class="cls-4" x="16" y="8.2" width="0.4" height="0.68"/><rect class="cls-4" x="16" y="8" width="0.4" height="0.08"/><path class="cls-4" d="M16.2,7.6c-.1,0-.2.2-.2.3h.4C16.4,7.8,16.2,7.6,16.2,7.6Z"/><polygon class="cls-4" points="13.6 9.2 16.4 9.2 16.6 9 15.9 8.9 15.6 8.7 14.4 8.7 14.1 8.9 13.4 8.9 13.6 9.2"/><rect class="cls-4" x="13.7" y="8.2" width="0.4" height="0.68"/><rect class="cls-4" x="13.7" y="8" width="0.4" height="0.08"/><path class="cls-4" d="M13.6,7.9H14c0-.1-.1-.3-.2-.3S13.6,7.8,13.6,7.9Z"/><path class="cls-4" d="M14.5,8.4h0V8.1l.2-.2h0c0-.1,0-.1-.1,0v.2s-.1.2,0,.2Z"/><path class="cls-4" d="M14.5,8.7h1a.7.7,0,0,0,.1-.5.5.5,0,0,0-.5-.5h-.2a.6.6,0,0,0-.6.5A.8.8,0,0,0,14.5,8.7Zm.8-.9h.1a.3.3,0,0,0,.1.2.5.5,0,0,1,.1.3h-.1a.4.4,0,0,0-.1-.3V7.9h0Zm-.1.1h0l.2.2v.3h-.1V8h0Zm-.4,0s.1.1,0,.1h0v.5h-.1V8.1l.2-.2Zm-.4.4h0a.5.5,0,0,1,.1-.3c0-.1.1-.1.1-.2h.1v.2a.4.4,0,0,0-.1.3h-.1Z"/><path class="cls-4" d="M15.2,8v.5h.1V8.1Z"/><path class="cls-4" d="M15.3,7.9h0l.2.2v.3h0V8.1l-.2-.2Z"/><path class="cls-4" d="M14.6,8.4h.1V8.2c0-.1,0-.2.1-.2h0l-.2.2Z"/><path class="cls-6" d="M14.5,8.4h0a.4.4,0,0,1,.1-.3V7.9h-.1c0,.1-.1.1-.1.2a.5.5,0,0,0-.1.3h.1Zm0-.1c-.1,0,0-.2,0-.2V7.9c.1-.1.1-.1.1,0h0l-.2.2v.3h0Z"/><path class="cls-6" d="M14.6,8.1v.3h.1V8h0c.1,0,0-.1,0-.1h0Zm.2-.2h0c-.1,0-.1.1-.1.2v.3h-.1V8.1Z"/><path class="cls-6" d="M15.3,7.9v.2a.4.4,0,0,1,.1.3h.1a.5.5,0,0,0-.1-.3.3.3,0,0,1-.1-.2h-.1Zm0,0h0l.2.2v.2h0V8.1l-.2-.2Z"/><path class="cls-6" d="M15.2,8v.5h.1V8.1l-.2-.2h0Zm0,0h.2v.3h-.1V8Z"/><polygon class="cls-4" points="16.7 11.8 13.3 11.8 12.9 12.1 17.1 12.1 16.7 11.8"/><rect class="cls-4" x="13.6" y="9.4" width="0.4" height="0.54"/><rect class="cls-4" x="13.7" y="10.2" width="0.4" height="0.11"/><rect class="cls-4" x="13.8" y="10.6" width="0.1" height="0.05"/><path class="cls-4" d="M13.6,10.9H14v-.5h-.4Zm.2-.3h0Z"/><rect class="cls-4" x="13.6" y="11" width="0.4" height="0.24"/><polygon class="cls-4" points="13.7 10.1 14 10.1 14.1 10 13.6 10 13.7 10.1"/><path class="cls-4" d="M14.4,9.4h-.3v.3Z"/><rect class="cls-4" x="16" y="9.4" width="0.4" height="0.54"/><rect class="cls-4" x="16" y="10.2" width="0.4" height="0.11"/><rect class="cls-4" x="16.1" y="10.6" width="0.1" height="0.05"/><path class="cls-4" d="M16.3,10.4H16v.5h.3v-.2h0Zm-.1.4h0Z"/><rect class="cls-4" x="15.9" y="11" width="0.4" height="0.24"/><polygon class="cls-4" points="15.9 10 16 10.1 16.3 10.1 16.4 10 15.9 10"/><path class="cls-4" d="M15.8,9.7V9.4h-.2Z"/><polygon class="cls-7" points="13.9 10.7 13.9 10.7 14 10.7 14 10.6 13.9 10.6 13.9 10.6 13.9 10.7"/><polygon class="cls-7" points="13.7 10.7 13.8 10.7 13.8 10.7 13.8 10.6 13.8 10.6 13.7 10.6 13.7 10.7"/><polygon class="cls-7" points="13.9 10.6 13.9 10.6 13.9 10.5 13.8 10.5 13.8 10.6 13.8 10.6 13.9 10.6"/><polygon class="cls-7" points="13.8 10.7 13.8 10.7 13.8 10.8 13.9 10.8 13.9 10.7 13.9 10.7 13.8 10.7"/><polygon class="cls-7" points="16.3 10.6 16.2 10.6 16.2 10.6 16.2 10.7 16.2 10.7 16.3 10.7 16.3 10.6"/><polygon class="cls-7" points="16.1 10.6 16.1 10.6 16 10.6 16 10.7 16.1 10.7 16.1 10.7 16.1 10.6"/><polygon class="cls-7" points="16.2 10.6 16.2 10.6 16.2 10.5 16.1 10.5 16.1 10.6 16.1 10.6 16.2 10.6"/><polygon class="cls-7" points="16.1 10.7 16.1 10.7 16.1 10.8 16.2 10.8 16.2 10.7 16.2 10.7 16.1 10.7"/><path class="cls-4" d="M15.7,11.3v-.2h-.3v-.2H14.2c0-.4.5-.6.8-.7s.8.4.8.7v.3h0V10a.9.9,0,0,0-.8-.7h-.1c-.2,0-.7.3-.7.7v1.2h.3v.2h-.9l-.2.4h1.1v-.3h.3v.3h.3v-.3h.2l.2.3h.3l-.2-.3h.2Zm-.7.1h-.2v-.2h-.2V11h.2v.2h.2V11h.1l.2.2h-.2Zm.2,0v-.2h.2l.2.2Z"/><rect class="cls-4" x="15.8" y="10.5" height="0.35"/><path class="cls-4" d="M12.2,7c-.1.2-.2.3-.2.4S12.3,7.3,12.2,7Z"/><path class="cls-4" d="M11.9,7.6a1.1,1.1,0,0,0,0-.8C11.9,7,11.8,7.5,11.9,7.6Z"/><path class="cls-4" d="M12.4,7.2c-.2.3-.5.3-.4.4S12.4,7.5,12.4,7.2Z"/><path class="cls-4" d="M11.8,7.9c.1-.1,0-.6,0-.8S11.6,7.8,11.8,7.9Z"/><path class="cls-4" d="M11.9,7.9a.3.3,0,0,0,.3-.3C12.1,7.7,11.9,7.7,11.9,7.9Z"/><path class="cls-4" d="M11.7,8.1c.1,0-.1-.6-.1-.8S11.5,8.1,11.7,8.1Z"/><path class="cls-4" d="M12.1,7.9c-.2.1-.3,0-.4.2Z"/><path class="cls-4" d="M11.5,8.4c.2-.1,0-.5-.1-1S11.4,8.4,11.5,8.4Z"/><path class="cls-4" d="M11.6,8.3c.1.1.3,0,.3-.2S11.6,8.1,11.6,8.3Z"/><path class="cls-4" d="M12.8,7.3c-.1.1-.3.2-.2.3S12.8,7.5,12.8,7.3Z"/><path class="cls-4" d="M12.5,7.9c.2,0,.3-.2.5-.4S12.5,7.7,12.5,7.9Z"/><path class="cls-4" d="M12.4,7.8c.2-.1.1-.2.1-.5S12.3,7.7,12.4,7.8Z"/><path class="cls-4" d="M12.7,7.8c-.1.1-.4.1-.4.3A.3.3,0,0,0,12.7,7.8Z"/><path class="cls-4" d="M12.3,8.1c.1-.1-.1-.3,0-.5S12.1,8.1,12.3,8.1Z"/><path class="cls-4" d="M12.1,8.4c.2-.2,0-.3,0-.5S11.9,8.3,12.1,8.4Z"/><path class="cls-4" d="M12.5,8.1c-.1.1-.3.1-.3.2S12.5,8.3,12.5,8.1Z"/><path class="cls-4" d="M17.4,7.6c.1-.2-.1-.2-.2-.3S17.2,7.6,17.4,7.6Z"/><path class="cls-4" d="M17.5,7.9c0-.3-.2-.2-.4-.4A.4.4,0,0,0,17.5,7.9Z"/><path class="cls-4" d="M17.6,7.8c.1-.1,0-.3-.1-.5S17.4,7.7,17.6,7.8Z"/><path class="cls-4" d="M17.3,7.8c.1.2.1.3.4.3S17.4,8,17.3,7.8Z"/><path class="cls-4" d="M17.7,8.1c.2-.1.1-.4,0-.5S17.6,8,17.7,8.1Z"/><path class="cls-4" d="M17.8,8.4c-.1-.2-.2-.2-.4-.3S17.6,8.4,17.8,8.4Z"/><path class="cls-4" d="M17.9,8.3c.1,0,0-.3,0-.4S17.7,8.3,17.9,8.3Z"/><path class="cls-4" d="M18.3,8.5h-.1c-.1,0-.1.2-.1.2a.5.5,0,0,1-.1-.3h-.3c0-.1-.1,0,0,.1a.8.8,0,0,1,.5.6h.1A.6.6,0,0,1,18.3,8.5Z"/><path class="cls-4" d="M17.9,7.4c.1-.1-.1-.3-.2-.4S17.7,7.4,17.9,7.4Z"/><path class="cls-4" d="M18,6.9c0,.3-.1.6.1.7S18.1,7.2,18,6.9Z"/><path class="cls-4" d="M17.6,7.2c0,.2.2.5.4.4Z"/><path class="cls-4" d="M18.2,7.9c.2,0,0-.5,0-.8S18,7.8,18.2,7.9Z"/><path class="cls-4" d="M17.8,7.6a.3.3,0,0,0,.3.3C18.1,7.7,17.9,7.7,17.8,7.6Z"/><path class="cls-4" d="M18.4,7.3c0,.2-.2.7-.1.8S18.4,7.5,18.4,7.3Z"/><path class="cls-4" d="M17.9,7.9l.3.2C18.2,7.9,18,7.9,17.9,7.9Z"/><path class="cls-4" d="M18.5,8.4c.1,0,.1-.8,0-1S18.3,8.3,18.5,8.4Z"/><path class="cls-4" d="M18.1,8.1a.3.3,0,0,0,.3.3C18.4,8.2,18.2,8.2,18.1,8.1Z"/><path class="cls-4" d="M18.2,9.2l-.3.6c0,.2,0,.5.2.6l.2-.4h.1V9.8c0-.1.1-.1.1-.2V9.4h0l.3-.3h-.3c-.1,0,0-.2-.1-.3s0-.1-.1,0v.3Z"/><path class="cls-4" d="M19.1,9.2a.4.4,0,0,0,0-.5A.4.4,0,0,0,19.1,9.2Z"/><path class="cls-4" d="M19.1,9.4c.1.1.3-.3.2-.5S19,9.2,19.1,9.4Z"/><path class="cls-4" d="M19,9.4c.1-.2,0-.2-.1-.4h0A.3.3,0,0,0,19,9.4Z"/><path class="cls-4" d="M19.1,9.6c.1.1.3-.3.3-.5S19,9.5,19.1,9.6Z"/><path class="cls-4" d="M19,9.6c.1-.1,0-.1-.1-.3S18.9,9.6,19,9.6Z"/><path class="cls-4" d="M19.5,9.3c-.2.3-.5.4-.4.6S19.4,9.5,19.5,9.3Z"/><path class="cls-4" d="M19,9.9c.1-.2-.1-.2-.2-.4S18.9,9.9,19,9.9Z"/><path class="cls-4" d="M19.4,9.6c-.1.3-.4.4-.3.6S19.4,9.8,19.4,9.6Z"/><path class="cls-4" d="M19,10.1l-.2-.3C18.8,10.1,18.9,10.2,19,10.1Z"/><path class="cls-4" d="M19.4,9.9l-.4.5C19.2,10.5,19.3,10.2,19.4,9.9Z"/><path class="cls-4" d="M19,10.4c.1-.2-.1-.2-.2-.4S18.9,10.4,19,10.4Z"/><path class="cls-4" d="M18.2,10.6a.5.5,0,0,0-.3-.3l.2.4h.1Z"/><path class="cls-4" d="M18.5,9.6c0,.2,0,.2.1.3s0-.2,0-.4h0Z"/><path class="cls-4" d="M18.4,9.9c0,.1,0,.2.1.2s0-.2-.1-.3v.1Z"/><path class="cls-4" d="M18.7,9.7c0,.2-.2.3-.1.4S18.8,9.9,18.7,9.7Z"/><path class="cls-4" d="M18.3,10c0,.3,0,.4.2.4S18.4,10.2,18.3,10Z"/><path class="cls-4" d="M18.3,10.2c0,.4,0,.4.2.4S18.4,10.5,18.3,10.2Z"/><path class="cls-4" d="M18.8,10c-.1.2-.3.2-.3.4A.4.4,0,0,0,18.8,10Z"/><path class="cls-4" d="M18.5,10.6a.3.3,0,0,0,.3-.3C18.6,10.4,18.5,10.4,18.5,10.6Z"/><path class="cls-4" d="M19.5,10.3a.1.1,0,0,0-.1-.1l-.3.3h-1c-.2,0-.3.1-.4.3s-.1.2-.1.3h0l.3-.2h1c0-.1,0-.2.1-.2h.2Z"/><path class="cls-4" d="M17.9,11.2c-.1.2-.3.3-.1.3s.2-.1.1-.3Z"/><path class="cls-4" d="M18.2,11.1c-.1.2-.3.2-.2.3s.2-.1.2-.3Z"/><path class="cls-4" d="M18.3,11.2l-.6.5C17.8,11.8,18.2,11.4,18.3,11.2Z"/><path class="cls-4" d="M17.7,11.9c0,.1.3-.1.4-.4S17.6,11.8,17.7,11.9Z"/><path class="cls-4" d="M17.6,11.3c-.1.1-.1.5.1.4a.4.4,0,0,0-.1-.3Z"/><path class="cls-4" d="M17.6,11.9c.1,0-.1-.2-.1-.3S17.5,12,17.6,11.9Z"/><path class="cls-4" d="M17.5,12.1c.1,0-.1-.1-.1-.3S17.3,12.2,17.5,12.1Z"/><path class="cls-4" d="M17.3,12.2c.1-.1,0-.2-.1-.3S17.2,12.2,17.3,12.2Z"/><path class="cls-4" d="M19,10.8c-.1,0-.1.1-.1.2H19v-.2Z"/><path class="cls-4" d="M19,11.2c.1,0,.5-.3.5-.5S18.9,11,19,11.2Z"/><path class="cls-4" d="M18.8,11.3c.1,0,.1-.2,0-.3S18.6,11.3,18.8,11.3Z"/><path class="cls-4" d="M18.9,11.4c.1,0,.3-.2.4-.4S18.8,11.2,18.9,11.4Z"/><path class="cls-4" d="M18.7,11.1c-.1.1-.2.4,0,.4S18.7,11.3,18.7,11.1Z"/><path class="cls-4" d="M18.7,11.6c0,.1.5-.2.6-.4S18.6,11.5,18.7,11.6Z"/><path class="cls-4" d="M18.7,11.8c.1,0-.1-.2-.2-.5S18.5,11.9,18.7,11.8Z"/><path class="cls-4" d="M18.8,11.7c0,.1.3-.1.5-.3S18.7,11.6,18.8,11.7Z"/><path class="cls-4" d="M18.4,12.1c.2,0,.1-.3.1-.5S18.3,12.1,18.4,12.1Z"/><path class="cls-4" d="M18.7,11.9c.1.1.5-.2.5-.4S18.6,11.8,18.7,11.9Z"/><path class="cls-4" d="M18.2,12.4c.2-.1.1-.4.1-.6S18,12.3,18.2,12.4Z"/><path class="cls-4" d="M18.5,12.1c0,.1.4,0,.6-.3S18.4,12,18.5,12.1Z"/><path class="cls-4" d="M18.2,12.4c.1.1.6-.1.7-.3S18.2,12.2,18.2,12.4Z"/><path class="cls-4" d="M18.5,12.5l.3-.2C18.6,12.3,18.4,12.5,18.5,12.5Z"/><path class="cls-4" d="M18.7,12.5h-.5c-.3-.1-.5-.3-.8-.3h-.6l-.2.2h.5v.2h.1l.6.3H18c.4.1.5,0,.7-.4Z"/><path class="cls-4" d="M16.4,13.1Z"/><path class="cls-4" d="M16.9,12.5v.2h.2v-.2Z"/><path class="cls-4" d="M16.9,12.8c0,.1.3,0,.3-.2S16.8,12.6,16.9,12.8Z"/><path class="cls-4" d="M16.8,12.5q-.2.3,0,.3c.1,0,0-.1,0-.3h0Z"/><path class="cls-4" d="M16.6,13c.1,0,0-.3,0-.4S16.5,13,16.6,13Z"/><path class="cls-4" d="M16.7,13c0,.2.3,0,.5-.1Z"/><path class="cls-4" d="M16.5,13.2c0,.2.3,0,.5-.1Z"/><path class="cls-4" d="M16.4,13.1h0c.2,0,.1-.3,0-.5V13Z"/><path class="cls-4" d="M16.6,13.4h0Z"/><path class="cls-4" d="M17.8,13.1c.1.2.4-.1.6-.2Z"/><path class="cls-4" d="M17.5,13.3c.1.1.6,0,.6-.1S17.5,13.1,17.5,13.3Z"/><path class="cls-4" d="M17.3,13.4h0Z"/><path class="cls-4" d="M17.1,13.5h.6C17.4,13.5,17.1,13.3,17.1,13.5Z"/><path class="cls-4" d="M17.4,13.6h0Z"/><path class="cls-4" d="M16.7,13.5c.2.1.4-.4.5-.6S16.6,13.4,16.7,13.5Z"/><path class="cls-4" d="M17.1,13.4c.1.1.2-.2.3-.5S16.9,13.3,17.1,13.4Z"/><path class="cls-4" d="M17.3,13.3c.1.1.2-.2.2-.4S17.2,13.2,17.3,13.3Z"/><path class="cls-4" d="M17.8,12.8h0c-.1.1-.3.2-.2.3s.2-.1.2-.3Z"/><path class="cls-4" d="M17.1,13.8h0a1.2,1.2,0,0,0,.8-.4C17.7,13.7,17.1,13.6,17.1,13.8Z"/><path class="cls-4" d="M12.3,8.6c.1-.1,0-.1,0-.1H12c-.1,0-.1.2-.1.3s-.1-.2-.1-.2h-.1a.6.6,0,0,1,0,.6h.1C11.9,8.8,12.1,8.8,12.3,8.6Z"/><path class="cls-4" d="M12,12.9c.4,0,.5-.2.8-.3h.6l-.2-.2a.6.6,0,0,0-.6-.1c-.3,0-.5.2-.8.3h-.6C11.5,12.9,11.6,13,12,12.9Z"/><path class="cls-4" d="M13.6,13.1h.1c.1-.1.1-.2,0-.1h-.1Z"/><path class="cls-4" d="M11.1,9.2l.3.3h0v.3h.1v.2h.1c.1.2.2.3.2.5a.9.9,0,0,0,.1-.7,1.4,1.4,0,0,0-.2-.6h-.1l-.2-.3c0-.1,0,0-.1,0v.3h-.3Z"/><path class="cls-4" d="M11.1,9.1Z"/><path class="cls-4" d="M11.9,10.6c.1,0,.2-.2.2-.3l-.3.3Z"/><path class="cls-4" d="M13.5,13.2h.1c0-.1,0-.2-.1-.2S13.4,13.2,13.5,13.2Z"/><path class="cls-4" d="M13.5,13.2H13C13.1,13.2,13.5,13.4,13.5,13.2Z"/><path class="cls-4" d="M12.8,12.9h.5C13.3,12.8,13.1,12.9,12.8,12.9Z"/><path class="cls-4" d="M13.4,13c.1,0,.1-.3-.1-.4S13.2,13,13.4,13Z"/><path class="cls-4" d="M13.2,12.5c0,.2-.1.3,0,.3s.1-.2,0-.3h0Z"/><path class="cls-4" d="M12.8,12.7h.3C13.1,12.7,13,12.7,12.8,12.7Z"/><path class="cls-4" d="M12.9,12.4h0l.2.2v-.2Z"/><path class="cls-4" d="M13.2,13.3h0Z"/><path class="cls-4" d="M12.1,13.1l-.5-.2C11.7,13.1,12.2,13.3,12.1,13.1Z"/><path class="cls-4" d="M12.2,12.9c0,.1.1.3.2.3S12.3,12.9,12.2,12.9Z"/><path class="cls-4" d="M12.4,13.3c0-.2-.1,0-.5-.1Z"/><path class="cls-4" d="M12.7,13.4h0Z"/><path class="cls-4" d="M12.9,13.5c-.1-.2-.3,0-.6,0Z"/><path class="cls-4" d="M13.2,13.5c-.1-.1-.3.1-.5.1h.5Z"/><path class="cls-4" d="M12.7,13.3c.1-.1-.1-.2-.3-.4S12.5,13.4,12.7,13.3Z"/><path class="cls-4" d="M12.6,12.9c.1.2.2.6.3.5S12.8,13.1,12.6,12.9Z"/><path class="cls-4" d="M13.3,13.5l-.5-.6C12.9,13.1,13.2,13.6,13.3,13.5Z"/><path class="cls-4" d="M12.9,13.8H13l-.9-.3a1.6,1.6,0,0,0,.7.4Z"/><path class="cls-4" d="M11.2,11l.8.2h.1l.3.2h0c0-.1-.1-.2-.1-.4l-.4-.3h-1l-.3-.3a.1.1,0,0,0-.1.1,1.5,1.5,0,0,0,.3.6H11V11Z"/><path class="cls-4" d="M12.3,11.7c.1.1.2-.2.1-.4h0C12.3,11.5,12.2,11.6,12.3,11.7Z"/><path class="cls-4" d="M12.5,11.6c0,.2-.2.3-.1.3S12.6,11.7,12.5,11.6Z"/><path class="cls-4" d="M12.5,12.1c.1.1.2-.1.1-.3S12.4,12.1,12.5,12.1Z"/><path class="cls-4" d="M12.5,12.1l-.4-.2C12.1,12,12.4,12.3,12.5,12.1Z"/><path class="cls-4" d="M12.3,11.9c.1-.1-.3-.2-.5-.4S12.3,12.1,12.3,11.9Z"/><path class="cls-4" d="M12.2,11.7c.1-.1-.3-.3-.5-.5S12.2,11.9,12.2,11.7Z"/><path class="cls-4" d="M12.1,11.2c-.1.2,0,.3.1.3s0-.1-.1-.3Z"/><path class="cls-4" d="M12,11.4c.1-.1-.1-.1-.2-.3S11.9,11.5,12,11.4Z"/><path class="cls-4" d="M12.7,12.1c.1.1.1-.1,0-.2S12.6,12.1,12.7,12.1Z"/><path class="cls-4" d="M11,11.1c0-.1-.4-.2-.5-.4S10.8,11.2,11,11.1Z"/><path class="cls-4" d="M11.1,11.4c.1-.2-.3-.2-.4-.3S11,11.5,11.1,11.4Z"/><path class="cls-4" d="M11.3,11.6c0-.2-.4-.2-.6-.3Z"/><path class="cls-4" d="M11.2,11.7c.1-.1-.2-.1-.5-.3S11.2,11.9,11.2,11.7Z"/><path class="cls-4" d="M11,10.9c0,.1,0,.2.1.2h0v-.2Z"/><path class="cls-4" d="M11.2,11.3c.2,0,0-.1,0-.3h0C11.2,11.2,11.1,11.3,11.2,11.3Z"/><path class="cls-4" d="M11.3,11.1c0,.2-.1.4,0,.4S11.4,11.3,11.3,11.1Z"/><path class="cls-4" d="M11.3,11.9l-.5-.3C10.8,11.7,11.2,12.1,11.3,11.9Z"/><path class="cls-4" d="M11.5,12.1l-.6-.3C11,12,11.4,12.3,11.5,12.1Z"/><path class="cls-4" d="M11.7,12.4c.1-.2-.3-.1-.6-.3S11.7,12.6,11.7,12.4Z"/><path class="cls-4" d="M11.3,11.8c.2.1.2-.2.1-.5S11.2,11.8,11.3,11.8Z"/><path class="cls-4" d="M11.5,12.1c.2,0,.1-.3,0-.5S11.4,12,11.5,12.1Z"/><path class="cls-4" d="M11.8,12.3c.1,0,0-.3-.1-.4S11.7,12.3,11.8,12.3Z"/><path class="cls-4" d="M11.5,12.5l-.3-.2Z"/><path class="cls-4" d="M11.4,9.5c-.1.2-.1.3,0,.4s.1-.1.1-.2V9.4Z"/><path class="cls-4" d="M11.4,10.1c.1-.2-.1-.2-.2-.4S11.2,10.1,11.4,10.1Z"/><path class="cls-4" d="M11.6,9.8c-.1.1-.2.1-.1.3s.1-.1.1-.2V9.7Z"/><path class="cls-4" d="M11.4,10.4c.1-.2-.1-.2-.2-.4S11.3,10.4,11.4,10.4Z"/><path class="cls-4" d="M11.5,10.3c.2.1.2-.1.1-.3S11.4,10.2,11.5,10.3Z"/><path class="cls-4" d="M11.5,10.6c0-.2-.2-.2-.3-.3A.3.3,0,0,0,11.5,10.6Z"/><path class="cls-4" d="M11.5,10.6c.2,0,.2-.1.2-.3S11.4,10.5,11.5,10.6Z"/><path class="cls-4" d="M10.9,9.2c.1-.2,0-.4,0-.5A.5.5,0,0,0,10.9,9.2Z"/><path class="cls-4" d="M10.9,9.4c0-.2-.2-.3-.3-.6S10.7,9.4,10.9,9.4Z"/><path class="cls-4" d="M11,9.4V9.2h0C11,9.2,10.9,9.2,11,9.4Z"/><path class="cls-4" d="M10.9,9.6c0-.2-.3-.3-.3-.6S10.7,9.7,10.9,9.6Z"/><path class="cls-4" d="M11,9.6c.1,0,.1-.1.1-.3S10.9,9.4,11,9.6Z"/><path class="cls-4" d="M10.9,9.9c.1-.1-.2-.4-.4-.6S10.7,9.9,10.9,9.9Z"/><path class="cls-4" d="M11,9.9c.1,0,.2-.3.1-.4S10.9,9.7,11,9.9Z"/><path class="cls-4" d="M10.9,10.2c.1-.2-.1-.2-.3-.6S10.8,10.2,10.9,10.2Z"/><path class="cls-4" d="M11,10.1c.2.1.2-.1.2-.3S10.9,10,11,10.1Z"/><path class="cls-4" d="M11,10.4c0-.2-.2-.2-.4-.5S10.8,10.5,11,10.4Z"/><path class="cls-4" d="M11,10.4c.2,0,.2-.1.2-.4S10.9,10.3,11,10.4Z"/><path class="cls-4" d="M11.3,8.7c.2,0,.3-.1.2-.3S11.3,8.6,11.3,8.7Z"/><path class="cls-4" d="M11,8.6h0V8.2h0v.2C10.9,8.5,10.9,8.5,11,8.6Z"/><path class="cls-4" d="M12.1,9.4V8.9c.1-.1,0-.2,0-.1s-.1.2-.1.3l-.2.2C11.9,9.4,12,9.4,12.1,9.4Z"/><path class="cls-4" d="M12.2,8.8s0-.1-.1,0l-.2.2v.2c-.1.1,0,.1,0,.1A.4.4,0,0,0,12,9Z"/><path class="cls-4" d="M11.2,8.9c0-.2-.1-.3,0-.5V8h-.1c.1.1,0,.3,0,.4s.1.4.1.5Z"/><path class="cls-4" d="M11.3,8.4h.1V8.1c-.1-.1-.1-.3,0-.3h-.1v.7Z"/><path class="cls-4" d="M10.6,10.2h.1V10h-.1Z"/><path class="cls-4" d="M11.9,12.1c0-.1-.1-.2-.1-.4l-.2-.3.2.3C11.8,11.9,11.8,12.1,11.9,12.1Z"/><path class="cls-4" d="M12.1,12.3V12c0-.1-.2-.2-.2-.3s.1.2.1.4S12,12.3,12.1,12.3Z"/><path class="cls-4" d="M16.4,13.3a.1.1,0,0,0-.1-.1h-.1l-1.2.2a2.8,2.8,0,0,1-1.3-.3h0a.1.1,0,0,0-.1.1l-.6.5h.1a3.3,3.3,0,0,0,1.9.5,8.1,8.1,0,0,0,1.9-.4H17C16.7,13.6,16.5,13.5,16.4,13.3Zm-.6.1h0Zm-.2.1h0Zm-1.2.1h0Zm-.4,0h0Zm0,.3h-.5c-.1,0-.1-.1,0-.1a.1.1,0,0,1,.1-.1h0c-.1,0-.1,0,0,.1H14Zm1.2.2h0Zm.9-.2h-.5a.1.1,0,0,1,.1-.1h.4l.2.2h-.2Zm.3-.1h0Z"/><path class="cls-4" d="M16,13.6Z"/><path class="cls-4" d="M17.1,13.8l-.2-.2h-.4a.1.1,0,0,0-.1-.1h-.2l-1.2.3-1.2-.3c-.1,0-.2,0-.2.1h-.2l-.2.2h-.1c0,.1-.1.1-.1.2h-.2l.3.2h.4c-.1.1,0,.1,0,.1s.5-.1.8,0h.1l.2-.2h.8l.2.2h1v-.2h0c.5,0,.7-.2.6-.3Zm-1.3.7c-.1,0-.2-.1-.1-.2s.5,0,.7,0h.1A.8.8,0,0,0,15.8,14.5Zm1.2-.7h-.1a4,4,0,0,1-1.9.4,6.2,6.2,0,0,1-2-.4h0l.6-.5c0-.1,0-.1.1-.1h0a3.1,3.1,0,0,0,1.3.3,2.7,2.7,0,0,0,1.2-.3h.2a1.5,1.5,0,0,0,.6.5h0Z"/><path class="cls-4" d="M17.9,11.9c-.2.1-.4.1-.4.3a.4.4,0,0,0,.3-.2h.1Z"/><path class="cls-4" d="M17.9,12a.5.5,0,0,0,.2-.4l-.2.3h-.1v.3C17.9,12.2,17.9,12.2,17.9,12Z"/><path class="cls-4" d="M18.2,11.7v-.3c-.2.1-.2.2-.2.3s0,.3-.1.4S18.2,11.9,18.2,11.7Z"/><path class="cls-4" d="M18.6,8.4c0,.1.1.1.1-.1V7.7h-.1v.6Z"/><path class="cls-4" d="M18.8,8.9c0-.1.2-.2.1-.5V8c.1-.1,0-.1,0,0v.4c.1.2,0,.3,0,.5Z"/><path class="cls-4" d="M19,8.6h0V8.2c.1,0,0-.1,0,0s-.1.1,0,.2Z"/><path class="cls-4" d="M18.6,8.7c.1-.1-.1-.3-.1-.3A.2.2,0,0,0,18.6,8.7Z"/><path class="cls-4" d="M18,9.3c.1,0,.2,0,.1-.1s0-.2-.1-.2l-.2-.2h0L18,9Z"/><path class="cls-4" d="M17.7,8.8v.5H18l-.2-.2c0-.1,0-.3-.1-.3S17.6,8.8,17.7,8.8Z"/><path class="cls-4" d="M14.4,13.3a.8.8,0,0,1-.1-.4l-.3-.4c.1.2.1.3.2.4A.5.5,0,0,0,14.4,13.3Z"/><path class="cls-4" d="M13.8,12.5c.1.1.1.3.2.4a.5.5,0,0,0,.2.4c0-.2-.1-.3-.1-.4Z"/><path class="cls-4" d="M16,12.9c.1-.1.1-.3.2-.4l-.3.4c0,.1-.1.2-.1.4A.5.5,0,0,0,16,12.9Z"/><path class="cls-4" d="M15.8,12.9l.2-.4-.3.4a.6.6,0,0,1-.1.4A.5.5,0,0,0,15.8,12.9Z"/><path class="cls-4" d="M15.6,13h0Z"/><path class="cls-4" d="M15.1,13h0Z"/><path class="cls-4" d="M14.5,13h0Z"/><path class="cls-4" d="M14.7,12.8h0Z"/><path class="cls-4" d="M14.7,13.3c0-.1-.2-.1-.2-.2A.2.2,0,0,0,14.7,13.3Z"/><path class="cls-4" d="M15,13.3c0-.1-.2-.1-.4-.2S14.8,13.3,15,13.3Z"/><path class="cls-4" d="M15.5,13.1c-.1.1-.2.1-.2.2A.2.2,0,0,0,15.5,13.1Z"/><path class="cls-4" d="M15.4,13.1c-.2.1-.4.1-.4.2S15.3,13.3,15.4,13.1Z"/><path class="cls-4" d="M16.4,11.3H16l-.2.4h.8Z"/><path class="cls-6" d="M17,13.7h0a1.5,1.5,0,0,1-.6-.5h-.2a2.7,2.7,0,0,1-1.2.3,3.1,3.1,0,0,1-1.3-.3h0c-.1,0-.1,0-.1.1l-.6.5h0a6.2,6.2,0,0,0,2,.4,4,4,0,0,0,1.9-.4H17Zm0,.1h-.1a8.1,8.1,0,0,1-1.9.4,3.3,3.3,0,0,1-1.9-.5H13l.6-.5a.1.1,0,0,1,.1-.1h0a2.8,2.8,0,0,0,1.3.3l1.2-.2h.1a.1.1,0,0,1,.1.1c.1.2.3.3.6.5Z"/><path class="cls-4" d="M13.5,6.7c-.1,0-.2-.2-.2-.2v.2h.4a.4.4,0,0,0,.1-.3V6.2h-.1v.2Z"/><path class="cls-4" d="M13.6,5.8h-.1a.8.8,0,0,0,.2.4h0C13.7,6,13.6,5.9,13.6,5.8Z"/><path class="cls-4" d="M12.5,6.9h0Z"/><path class="cls-4" d="M12.7,7.3V7h.2l.2-.2c.1,0,.1-.1.1-.2a.2.2,0,0,0-.2-.2c0-.1-.1,0,0,.1l.2.2s-.1.1-.1,0-.2-.2-.2-.2-.1,0-.1.1.2.1.2.2h-.1a.2.2,0,0,1-.2-.2h-.1v.3c.1.1,0,.1,0,.1s-.1,0-.1,0Z"/><path class="cls-4" d="M12.4,6.7h0c-.1.1,0,.1,0,.1a.3.3,0,0,0,.1-.2h-.1C12.3,6.6,12.5,6.7,12.4,6.7Z"/><path class="cls-4" d="M12.6,6.4c.1,0,0-.1,0-.1Z"/><path class="cls-4" d="M12.6,6.6h.1s.2,0,.1-.1h0a.1.1,0,0,0-.1.1h-.1Z"/><path class="cls-4" d="M12.9,6.2h0a.1.1,0,0,0-.1.1Z"/><path class="cls-4" d="M13.4,6.6s.1,0,0-.1L13.1,6H13Z"/><path class="cls-4" d="M13.3,6h0V5.9a.1.1,0,0,0-.1-.1c0,.1.1.1,0,.1Z"/><path class="cls-4" d="M17.4,6.3c.1,0,0-.1,0,0s-.1,0-.1.1h0C17.4,6.4,17.4,6.4,17.4,6.3Z"/><path class="cls-4" d="M17,6.9c-.2.1-.1-.1-.1-.1h-.4s-.1-.1-.1,0,.3.2.4.1,0,.2.1.2h.2l.2-.3h0C17.2,6.6,17.1,6.9,17,6.9Z"/><path class="cls-4" d="M14,6.3c-.1,0,0,.1,0,.1Z"/><path class="cls-4" d="M14,6.1h.2l-.2.2Z"/><path class="cls-4" d="M17.4,7h0V6.8h-.1A.3.3,0,0,0,17.4,7Z"/><path class="cls-4" d="M17.3,6.5h.1a.3.3,0,0,0-.1-.2h0c0-.1-.1-.2-.1-.3h-.1Z"/><path class="cls-4" d="M15,6.1h.2c.1,0,.1-.1,0-.1h-.4l.3-.2c.1,0,.1-.1,0-.2H15a.1.1,0,0,0,.1.1h-.3Z"/><path class="cls-4" d="M14.4,6h-.1c.1.1.1.1.1.2h-.2a.1.1,0,0,1,.1.1C14.4,6.2,14.5,6,14.4,6Z"/><path class="cls-4" d="M14.2,6.4H14l.2-.2Z"/><path class="cls-4" d="M14,6c0-.1,0-.2.1-.2a.1.1,0,0,0,.2,0h.1c.1-.1,0-.1,0-.2h-.2c-.1,0-.1-.1-.1,0h-.3c-.1,0-.1.1-.1.2h.2l-.2.3h-.2s0,.1.1,0h.2C13.9,6.2,13.9,6.1,14,6Zm-.2-.2h0a.1.1,0,0,1,.1.1A.1.1,0,0,1,13.8,5.8Z"/><path class="cls-4" d="M14.2,6.3V6.1h0v.3h0c.3.1.4-.1.5-.1v.2c.1,0,.2,0,.1-.1a.1.1,0,0,0-.1-.1h0a.8.8,0,0,1-.2-.5h-.1c.1.1.2.3.1.4l-.3.2h0A.1.1,0,0,0,14.2,6.3Z"/><path class="cls-4" d="M14.7,5.6h0Z"/><path class="cls-4" d="M14.9,5.6h0Z"/><path class="cls-4" d="M14.8,5.7h0Z"/><path class="cls-4" d="M15.4,5.8h.1a.1.1,0,0,0-.1-.1c0,.1,0,.1-.1.1Z"/><path class="cls-4" d="M15.7,5.7h0C15.6,5.6,15.6,5.7,15.7,5.7Z"/><path class="cls-4" d="M15.7,5.9h.1c0-.1-.1-.2-.1-.1h0c0-.1,0-.1-.1,0h.1Z"/><path class="cls-4" d="M15.4,6.1l-.3.3V6.2H15v.2l.2-.2c.1,0,0,.3.2.3h.3V6.4c0-.1.1-.2.1-.3h-.1v.3h-.2V6h-.1c0,.1.1.2,0,.3h-.2a.6.6,0,0,1,.1-.4Z"/><path class="cls-4" d="M15.9,5.8l.3.3v.4h0a.6.6,0,0,0,.1-.4v.3h.1l-.2-.4V5.8h0c-.1,0-.1.2-.1.2s-.1-.2-.2-.3S15.9,5.8,15.9,5.8Z"/><path class="cls-4" d="M16.1,6.6s-.1.1,0,.1.4,0,.4-.2l.2-.4V5.9c0-.1-.1,0-.1,0v.6Z"/><path class="cls-4" d="M16.4,6.1h0Z"/><path class="cls-4" d="M16.4,5.9h0Z"/><path class="cls-4" d="M16.7,6.6A3.3,3.3,0,0,1,17,6h-.1l-.3.6C16.6,6.7,16.6,6.7,16.7,6.6Z"/><path class="cls-4" d="M17,6.4h0C17,6.4,16.9,6.4,17,6.4Z"/><path class="cls-4" d="M16.8,6.6Z"/><path class="cls-4" d="M17.2,7h0c.1,0,.1-.1.1-.2h.1c0-.1.1-.3.2-.3s0-.2-.1-.2-.1.2-.1.4h-.1A.4.4,0,0,1,17.2,7Z"/><path class="cls-4" d="M17.1,7.1H17c0,.1.2.1.2.1s.4-.4.5-.5,0-.4,0-.2a.9.9,0,0,1-.4.6C17.3,7.2,17.1,7.1,17.1,7.1Z"/><path class="cls-4" d="M15.2,7.3h-.1c-.1,0-.1.1,0,.1h0c.1,0,.1.2.1.1h.2c.1-.1.1-.1,0-.2h0s0,.1-.1,0h0v.2A.1.1,0,0,1,15.2,7.3Z"/><path class="cls-4" d="M15.6,7.1h-.1v.2h.1V7.2h.1C15.7,7.1,15.7,7.1,15.6,7.1Z"/><path class="cls-4" d="M15.3,7h0Z"/><path class="cls-4" d="M14.8,7l-.2.2h-.1l-.2.2h.1a.1.1,0,0,1,.1.1.1.1,0,0,0,.1-.1h.2C14.9,7,14.8,7,14.8,7Z"/><path class="cls-4" d="M14.8,7.4V7.2h-.1c0,.1,0,.1.1.1a.3.3,0,0,0-.1.2Z"/><path class="cls-4" d="M19.4,9.9s0,.2-.1.2h.1V9.9Z"/><path class="cls-4" d="M14.6,12.6h0v-.2h0Z"/><path class="cls-4" d="M14.9,12.3Z"/><path class="cls-4" d="M15.2,12.4h0Zm-.1,0h0Z"/><path class="cls-4" d="M15.4,12.4v.2h.1v-.2h-.2v.2h.1Z"/><path class="cls-5" d="M16.3,13.7l-.2-.2h-.4a.1.1,0,0,0-.1.1h.7Zm-.2-.1h0Z"/><path class="cls-5" d="M15.4,13.9h0Z"/><path class="cls-5" d="M16.4,13.7h0Z"/><path class="cls-5" d="M14.1,13.7h-.5c-.1-.1-.1-.1,0-.1h0a.1.1,0,0,0-.1.1c-.1,0-.1.1,0,.1h.6Z"/><polygon class="cls-5" points="16 13.4 15.8 13.4 15.8 13.5 16 13.5 16 13.4"/><polygon class="cls-5" points="15.7 13.5 15.6 13.5 15.6 13.6 15.7 13.6 15.7 13.5"/><polygon class="cls-5" points="14.1 13.6 14 13.6 13.9 13.6 13.9 13.7 14.1 13.6"/><polygon class="cls-5" points="14.5 13.7 14.6 13.7 14.7 13.7 14.6 13.6 14.5 13.7 14.4 13.6 14.4 13.7 14.4 13.7 14.5 13.7"/><path class="cls-4" d="M14.4,7h1.2l.4-.2-.4.2.2-.2h-.3l.2-.2-.3.2V6.7l-.2.2V6.6l-.3.3v0l-.2-.3v.3l-.2-.2v.2l-.4-.2.2.2h-.2l.2.2-.5-.2Z"/></g></svg>