<svg xmlns="http://www.w3.org/2000/svg" viewBox="0 0 30 20"><defs><style>.cls-1{fill:#ce2931;}.cls-2{fill:#f9da32;}.cls-3{fill:#010101;}.cls-4{fill:#121212;}</style></defs><title>ao</title><g id="Layer_94" data-name="Layer 94"><path class="cls-1" d="M27.5,0H2.5A2.5,2.5,0,0,0,0,2.5V10H13a2.5,2.5,0,0,1,.2-.7c0,.2.2.4.4.7H19a4,4,0,0,0-3.6-3.9V5.2l.9.2V4.9l1,.4-.2.4.8.5.3-.3.7.7-.3.3a3.5,3.5,0,0,1,.5.8l.4-.2a10.4,10.4,0,0,1,.4,1h-.4c.1.3.1.6.2.9h.4V10H30V2.5A2.5,2.5,0,0,0,27.5,0ZM16.7,7.6l-1,.8.4,1.3L15,8.9l-1.1.8.4-1.3-1-.8h1.3L15,6.3l.4,1.3Z"/><polygon class="cls-2" points="15 6.3 14.6 7.6 13.3 7.6 14.3 8.4 13.9 9.7 15 8.9 16.1 9.7 15.7 8.4 16.7 7.6 15.4 7.6 15 6.3"/><path class="cls-2" d="M16.4,14.7v.4l.5-.2v-.4Z"/><path class="cls-2" d="M18.8,13.1l-.5.5.4.2.4-.4Z"/><path class="cls-2" d="M20.1,11.5h-.4a3.6,3.6,0,0,1-.4.9l.4.2A10.4,10.4,0,0,0,20.1,11.5Z"/><path class="cls-2" d="M12.5,14.7l1,.4v-.4l-.9-.4Z"/><path class="cls-2" d="M15,14.9h-.5v.4h1v-.4Z"/><path class="cls-2" d="M20.8,15.9a2.3,2.3,0,0,0-.7-.7l-.8-.7-.5.6h0a1.9,1.9,0,0,1,1,.4c.2.3.4.7.6.8S21,16.3,20.8,15.9ZM19.5,15h0Zm.5.4h0Zm.4.5h-.1a.1.1,0,0,1,.2,0Z"/><circle class="cls-3" cx="19.5" cy="14.9" r="0.1"/><path class="cls-3" d="M20,15.3h0Z"/><path class="cls-3" d="M20.4,15.7a.1.1,0,0,0-.1.1h.2A.1.1,0,0,0,20.4,15.7Z"/><path class="cls-2" d="M20.3,9.5h-.4c-.1-.3-.1-.6-.2-.9h.4a10.4,10.4,0,0,0-.4-1l-.4.2a3.5,3.5,0,0,0-.5-.8l.3-.3-.7-.7-.3.3-.8-.5.2-.4-1-.4v.5l-.9-.2v.9A4,4,0,0,1,19,10h0a4.1,4.1,0,0,1-1.4,3l.7.6.5-.5a3.5,3.5,0,0,0,.5-.8,3.6,3.6,0,0,0,.4-.9c.1-.3.1-.6.2-.9h.4v-1Z"/><path class="cls-2" d="M16.8,14.1l-.5-.4A2.8,2.8,0,0,1,15,14a3.7,3.7,0,0,1-2.5-1l-.6.8.8.5.9.4.9.2h1l.9-.2.5-.2Z"/><path class="cls-4" d="M20.3,10v.5h-.4c-.1.3-.1.6-.2.9h.4a10.4,10.4,0,0,1-.4,1l-.4-.2a3.5,3.5,0,0,1-.5.8l.3.3-.4.4-.4-.2-.7-.6A4.1,4.1,0,0,0,19,10H13.6a21.5,21.5,0,0,0,3,2.6l2.6,1.9-.5.5-3-1.9-1.6-.9A2,2,0,0,1,13,10H0v7.5A2.5,2.5,0,0,0,2.5,20h25A2.5,2.5,0,0,0,30,17.5V10Zm-3.8,5.1v-.4l-.9.2v.4h-1v-.4l-.9-.2v.4l-1-.4.2-.4-.8-.5.6-.8A3.7,3.7,0,0,0,15,14a2.8,2.8,0,0,0,1.3-.3l.5.4v.8Zm3.9,1.3c-.2-.1-.4-.5-.6-.8a1.9,1.9,0,0,0-1-.4h0l.5-.6.8.7a2.3,2.3,0,0,1,.7.7C21,16.3,20.7,16.7,20.4,16.4Z"/><path class="cls-2" d="M14.1,12.2l1.6.9,3,1.9.5-.5-2.6-1.9a21.5,21.5,0,0,1-3-2.6c-.2-.3-.4-.5-.4-.7a2.5,2.5,0,0,0-.2.7A2,2,0,0,0,14.1,12.2Z"/></g></svg>