<svg xmlns="http://www.w3.org/2000/svg" viewBox="0 0 30 20"><defs><style>.cls-1{fill:#1d9253;}.cls-2{fill:#f6c931;}.cls-3{fill:#2f4ca0;}.cls-4{fill:#fffef0;}.cls-5{fill:#fff;}.cls-6{fill:#319e48;}.cls-7{fill:#f7fcfd;}</style></defs><title>br</title><g id="Layer_73" data-name="Layer 73"><path class="cls-1" d="M27.5,0H2.5A2.5,2.5,0,0,0,0,2.5v15A2.5,2.5,0,0,0,2.5,20h25A2.5,2.5,0,0,0,30,17.5V2.5A2.5,2.5,0,0,0,27.5,0ZM15.1,17.9,2.7,10,15,2.1,27.3,10Z"/><path class="cls-2" d="M2.7,10l12.4,7.9L27.3,10,15,2.1Zm17.7,0h0c0,.4-.1.7-.1,1h0l-.3.7h0a5,5,0,0,1-4.8,3.3A5.1,5.1,0,0,1,10,10a4,4,0,0,1,.3-1.5h0l.3-.8h0A5.2,5.2,0,0,1,20.4,10Z"/><path class="cls-3" d="M10.6,7.7A13,13,0,0,1,20.3,11c0-.3.1-.6.1-1h0a5.2,5.2,0,0,0-9.8-2.3Zm6.2.6h-.1V8.3Z"/><path class="cls-3" d="M10.3,8.5A4,4,0,0,0,10,10a5.1,5.1,0,0,0,5.2,5.1A5,5,0,0,0,20,11.8,12.6,12.6,0,0,0,10.3,8.5Zm6.2,1.3h0Zm-5.6,2.1h0ZM11,9.3h-.2V9.2h0v0h0v.2Zm.7,2.2h-.4v-.2h0v0h.2l-.2.2Zm.3-.4Zm.4,1.4h-.1v.2h0Zm.2-.6h0Zm.9,1.2h-.3v-.4h.4Zm0-2.8v.2h-.3v-.2h.1v0h.1Zm1.4,1.2h-.2v-.2h.2Zm.3-.8v0h.1V11h-.3v-.2h.1Zm-.2,1h0Zm.4,2.4h0Zm.1-1.5h-.2v0h.1Zm.4-1.1h-.2v-.2h.2Zm.6,1.5h0Zm.5.9h-.3v-.2h.1v0h.2v.2Zm.2-.9h0Zm.8,1h0Zm1-1.6h0Zm.5-.6h0Zm-.7,0v0H19v.2h-.2Zm-.1.8h.2v.2h-.2Zm-.4.2h0Zm-.4,0h0Zm0,.5h0Z"/><polygon class="cls-4" points="13.4 12.7 13.4 12.6 13.3 12.7 13.1 12.7 13.2 12.9 13.2 13.1 13.4 13 13.5 13.1 13.5 12.9 13.6 12.8 13.4 12.7"/><polygon class="cls-4" points="16.9 13.6 16.8 13.4 16.7 13.6 16.6 13.6 16.7 13.8 16.7 13.9 16.8 13.9 17 13.9 17 13.8 17.1 13.6 16.9 13.6"/><polygon class="cls-4" points="15.4 12.3 15.4 12.1 15.3 12.3 15.1 12.3 15.2 12.4 15.2 12.5 15.3 12.5 15.5 12.6 15.5 12.4 15.6 12.3 15.4 12.3"/><polygon class="cls-4" points="18.7 12 18.8 12 19 12.1 19 11.9 19.1 11.8 18.9 11.8 18.9 11.6 18.8 11.8 18.6 11.8 18.7 11.9 18.7 12"/><polygon class="cls-4" points="15.1 11 15.3 10.9 15.4 11 15.4 10.8 15.5 10.7 15.3 10.7 15.3 10.5 15.2 10.7 15 10.7 15.1 10.8 15.1 11"/><polygon class="cls-4" points="11.3 9.1 11.1 9.1 11 8.9 10.9 9.1 10.7 9.1 10.9 9.2 10.8 9.4 11 9.3 11.2 9.4 11.1 9.2 11.3 9.1"/><polygon class="cls-4" points="11.6 11.2 11.5 11 11.4 11.2 11.3 11.2 11.4 11.3 11.3 11.5 11.5 11.4 11.7 11.5 11.6 11.4 11.8 11.2 11.6 11.2"/><polygon class="cls-4" points="16.7 8.6 16.8 8.6 17 8.6 17 8.5 17.1 8.4 16.9 8.3 16.9 8.2 16.8 8.3 16.6 8.3 16.7 8.5 16.7 8.6"/><polygon class="cls-4" points="16.5 10 16.6 10 16.7 10 16.7 9.9 16.8 9.8 16.6 9.8 16.6 9.7 16.5 9.8 16.4 9.8 16.5 9.9 16.5 10"/><polygon class="cls-4" points="19 12.2 18.9 12.2 18.9 12.2 18.8 12.2 18.9 12.3 18.8 12.4 18.9 12.4 19 12.4 19 12.3 19.1 12.3 19 12.2"/><polygon class="cls-4" points="10.9 11.7 10.8 11.6 10.8 11.7 10.6 11.7 10.7 11.8 10.7 11.9 10.8 11.9 10.9 11.9 10.9 11.8 11 11.7 10.9 11.7"/><polygon class="cls-4" points="12.6 11.7 12.5 11.6 12.5 11.7 12.3 11.7 12.4 11.8 12.4 11.9 12.5 11.9 12.6 11.9 12.6 11.8 12.7 11.7 12.6 11.7"/><polygon class="cls-4" points="12.4 12.3 12.3 12.1 12.2 12.2 12.1 12.3 12.2 12.4 12.2 12.5 12.3 12.4 12.4 12.5 12.4 12.4 12.5 12.3 12.4 12.3"/><polygon class="cls-4" points="15.9 11.2 15.8 11.1 15.8 11.2 15.7 11.2 15.7 11.3 15.7 11.5 15.8 11.4 15.9 11.5 15.9 11.3 16 11.3 15.9 11.2"/><polygon class="cls-4" points="14.8 11.2 14.8 11.1 14.7 11.2 14.6 11.2 14.7 11.3 14.7 11.5 14.8 11.4 14.9 11.5 14.9 11.3 15 11.3 14.8 11.2"/><polygon class="cls-4" points="12.1 11 12.1 11 12 10.9 12 11 11.9 11 12 11 12 11.1 12 11.1 12.1 11.1 12.1 11 12.1 11"/><polygon class="cls-4" points="18.7 12.8 18.8 12.8 18.9 12.9 18.9 12.7 19 12.6 18.8 12.6 18.8 12.5 18.7 12.6 18.6 12.6 18.7 12.7 18.7 12.8"/><polygon class="cls-4" points="17.8 13 17.9 12.9 18 13 18 12.9 18.1 12.8 18 12.8 17.9 12.7 17.9 12.8 17.8 12.8 17.9 12.9 17.8 13"/><polygon class="cls-4" points="18.3 12.9 18.3 12.9 18.4 13 18.4 12.9 18.5 12.8 18.4 12.8 18.3 12.7 18.3 12.8 18.2 12.8 18.3 12.9 18.3 12.9"/><polygon class="cls-4" points="19.4 11.9 19.5 11.9 19.6 11.9 19.6 11.8 19.6 11.8 19.6 11.8 19.5 11.7 19.5 11.8 19.4 11.8 19.4 11.8 19.4 11.9"/><polygon class="cls-4" points="17.8 13.5 17.9 13.5 18 13.5 18 13.4 18.1 13.3 18 13.3 17.9 13.2 17.9 13.3 17.7 13.3 17.8 13.4 17.8 13.5"/><polygon class="cls-4" points="18 13.8 17.9 13.7 17.9 13.8 17.8 13.8 17.8 13.9 17.8 14 17.9 13.9 18 14 18 13.9 18.1 13.8 18 13.8"/><polygon class="cls-4" points="17.2 12.8 17.2 12.7 17.1 12.8 17 12.8 17.1 12.9 17.1 12.9 17.2 12.9 17.2 13 17.2 12.9 17.3 12.8 17.2 12.8"/><polygon class="cls-4" points="16.5 12.8 16.4 12.7 16.4 12.8 16.3 12.8 16.4 12.9 16.3 12.9 16.4 12.9 16.5 13 16.5 12.9 16.6 12.8 16.5 12.8"/><polygon class="cls-4" points="15.2 11.8 15.3 11.9 15.2 11.8 15.3 11.7 15.2 11.7 15.2 11.6 15.1 11.7 15 11.7 15.1 11.8 15.1 11.9 15.2 11.8"/><polygon class="cls-4" points="15.4 13.9 15.3 13.9 15.3 13.9 15.2 13.9 15.3 14 15.3 14.1 15.3 14 15.4 14.1 15.4 14 15.4 13.9 15.4 13.9"/><polygon class="cls-4" points="13.4 10 13.3 10.2 13.1 10.2 13.2 10.3 13.2 10.5 13.4 10.4 13.5 10.5 13.5 10.3 13.6 10.2 13.4 10.2 13.4 10"/><path class="cls-5" d="M10.6,7.7h0l-.3.8h0A12.6,12.6,0,0,1,20,11.8h0l.3-.7h0A13,13,0,0,0,10.6,7.7Zm.7.6h-.2c-.1,0-.2,0-.2-.1s-.1-.1-.1-.2h.5a.3.3,0,0,0,.1.2C11.4,8.1,11.3,8.2,11.3,8.3Zm.5,0h-.2v.2h-.1V7.8h.3Zm.8-.1h-.5V7.8h.3c.1,0,.1,0,.1.1h.1Zm.6-.2h-.3v.2h0v.2h-.1V7.8h.4Zm.6.5h-.1V8.1l-.2.4h-.1v0h-.1V7.9h.1v0h.2Zm.8-.2h-.3V8.2h.2Zm.8.2h-.3v.2h-.1V8.2h.4Zm.6.2c0,.1,0,.1-.1.1h-.1V8.9h-.1V9h-.1l.2-.6H16Zm.6.4c0,.1-.1.1-.1.2h-.4V8.9h.3l.2.2Zm.5.5h-.3V9.4h0V9h.4v.2h-.4v.2h.4Zm.4,0h-.1v.2h-.1l.3-.5h.1V10h-.2V9.7Zm.5.3h-.1l.3.2h-.1l-.3-.3.3-.4.3.2h0l-.3-.2H18l.3.2H18Zm.7.6h-.4v-.2h.3a.1.1,0,0,1,.1.1h0Zm.7.1h.3a.1.1,0,0,1,.1.1v.3h-.6v-.2C19.3,10.7,19.4,10.7,19.4,10.6Zm-.4-.3s.1-.1.1,0h.2v.2h-.4a.1.1,0,0,1-.1-.1v-.2H19v-.2Z"/><path class="cls-6" d="M18.9,10.4v.2h-.2v.2a.1.1,0,0,0,.1.1h.4v-.2h-.2c0-.1-.1,0-.1,0h-.1Z"/><path class="cls-6" d="M18.6,10.2h-.3v.2h.4A.1.1,0,0,0,18.6,10.2Z"/><polygon class="cls-6" points="18.3 10 18 9.8 18.1 9.7 18.4 9.9 18.4 9.8 18.1 9.6 17.8 10 18.1 10.3 18.2 10.2 17.9 10 18 9.9 18.2 10 18.3 10"/><path class="cls-6" d="M16.9,9.4h-.1V9.2h.4V9.1h-.4v.2h0v.2h.3V9.4h-.3Z"/><polygon class="cls-6" points="13.6 8.3 13.5 7.9 13.4 7.9 13.3 8.5 13.4 8.5 13.4 8 13.5 8.5 13.6 8.5 13.8 8.1 13.7 8.5 13.8 8.5 13.9 8 13.7 7.9 13.6 8.3"/><polygon class="cls-6" points="12.7 8.4 13.1 8.4 13.1 8.3 12.8 8.3 12.8 8.2 13.1 8.2 13.1 8.1 12.8 8.1 12.9 7.9 13.2 8 13.2 7.9 12.8 7.8 12.7 8.4"/><path class="cls-6" d="M11.1,7.7h-.3c0,.1,0,.2.1.2s.1.1.2.1h.2c0-.1.1-.2.1-.3a.3.3,0,0,1-.1-.2Zm.1.5H11V8H11a.1.1,0,0,1,.1-.1h.1Z"/><path class="cls-7" d="M11.1,7.8a.1.1,0,0,0-.1.1h-.1v.2h.2V8h-.1Z"/><path class="cls-6" d="M11.9,8.1h-.4v.5h.1V8.1h.3ZM11.7,8h0Z"/><path class="cls-5" d="M11.8,7.9Z"/><path class="cls-6" d="M12.5,7.9c0-.1,0-.1-.1-.1h-.3v.6h.4Zm-.1.3h-.2V7.9h.2Z"/><path class="cls-5" d="M12.4,7.9h-.2v.4h.2Z"/><path class="cls-6" d="M15.3,8.3H15v.6H15V8.6h.2Zm0,.2Z"/><path class="cls-5" d="M15.3,8.4h0Z"/><path class="cls-6" d="M16,8.6h-.4l-.2.6h.1V8.8h.1v.2h.1c.1,0,.1,0,.1-.1Zm-.1.1Z"/><path class="cls-5" d="M15.9,8.6h0Z"/><path class="cls-6" d="M16.4,8.7h-.3v.3h.4c0-.1.1-.1.1-.2V8.9Zm.1.4h-.3V8.8h.2Z"/><path class="cls-5" d="M16.4,8.8h-.1V9h.3V8.9Z"/><path class="cls-6" d="M17.5,9.9h.2V9.8h-.1l-.3.5h.1V9.6h.1Zm0-.4h0Z"/><path class="cls-5" d="M17.6,9.6h0Z"/><path class="cls-6" d="M19.2,11h.6v-.3a.1.1,0,0,0-.1-.1h-.3c0,.1-.1.1-.1.2Zm.2-.2h.3V11h-.3Z"/><path class="cls-5" d="M19.5,11.1h.2v-.2h-.3V11h.1Z"/><polygon class="cls-6" points="14.3 8.6 14.6 8.6 14.6 8.6 14.4 8.5 14.4 8.4 14.6 8.5 14.6 8.4 14.4 8.3 14.4 8.3 14.6 8.3 14.6 8.2 14.4 8.2 14.3 8.6"/></g></svg>