<svg id="Flags" xmlns="http://www.w3.org/2000/svg" viewBox="0 0 30 20"><defs><style>.cls-1{fill:#ce2931;}.cls-2{fill:#fbd632;}.cls-3{fill:#209e56;}.cls-4{fill:#121212;}</style></defs><title>Artboard 74</title><path class="cls-1" d="M13.3,0H2.5A2.5,2.5,0,0,0,0,2.5v15A2.5,2.5,0,0,0,2.5,20H13.3V0ZM8.6,12.7l-2-1.4-2,1.4.8-2.3L3.4,9H5.8l.8-2.4L7.4,9H9.8l-2,1.4Z"/><path class="cls-2" d="M27.5,0H13.3V10H30V2.5A2.5,2.5,0,0,0,27.5,0Z"/><path class="cls-3" d="M13.3,20H27.5A2.5,2.5,0,0,0,30,17.5V10H13.3Z"/><polygon class="cls-4" points="9.8 9 7.4 9 6.6 6.6 5.8 9 3.4 9 5.4 10.4 4.6 12.7 6.6 11.3 8.6 12.7 7.8 10.4 9.8 9"/></svg>