<svg xmlns="http://www.w3.org/2000/svg" viewBox="0 0 30 20"><defs><style>.cls-1{fill:#121212;}.cls-2{fill:#fff;}.cls-3{fill:#17716a;}.cls-4{fill:#fce632;}.cls-5{fill:#d32a40;}.cls-6{fill:#fce100;}.cls-7{fill:#010101;}</style></defs><title>mz</title><g id="Layer_77" data-name="Layer 77"><polygon class="cls-1" points="13.1 10 9 13.1 30 13.1 30 6.9 9 6.9 13.1 10"/><polygon class="cls-2" points="9 6.9 30 6.9 30 6.2 8.2 6.2 9 6.9"/><path class="cls-3" d="M27.4,0H2.6A2.9,2.9,0,0,0,.8.7L8.2,6.2H30V2.5A2.5,2.5,0,0,0,27.4,0Z"/><polygon class="cls-2" points="8.2 13.8 30 13.8 30 13.1 9 13.1 8.2 13.8"/><path class="cls-4" d="M.8,19.3a2.9,2.9,0,0,0,1.8.7H27.4A2.5,2.5,0,0,0,30,17.5V13.8H8.2Z"/><path class="cls-5" d="M3.6,8.6H3.3L3,8.2v.4l-.4.5h.8Z"/><path class="cls-5" d="M9,13.1,13.1,10,9,6.9l-.8-.7L.8.7A2.3,2.3,0,0,0,0,2.5v15a2.3,2.3,0,0,0,.8,1.8l7.4-5.5ZM2.5,11.7H2.2l-.6.7H1.5L1,11.9l.7-.5H2l.3-.4h.1v-.2L.4,9.1H1.5L2.3,8h.5c.1-.4.3-.4.5-.3l.4.4h0l.6-2L5,8.5h.4l.3-.3V7.8L6,8h.1c.1.1,0,.1,0,.2h.1l1.4-1L6.3,8.3H6.2L5.4,9l-.2-.2h0v.2H8.3l-2,1.5.3.9H6.5l.6.7c0,.1,0,.1-.2.2l-.5-.7H6.1l.7,2.1L4.3,12,1.9,13.8Z"/><path class="cls-6" d="M4.3,9l.3-.2h.1L5,8.5,4.3,6.2l-.6,2h0Z"/><path class="cls-6" d="M2.5,10.5V9.8l.2-.2h.9L4,9.2c0,.2,0,.2.1.3h0l-.5-.6-.2.5H2.6l-.7.9-.6-.6.2-.3H.4l2,1.5h.1Z"/><path class="cls-6" d="M4.7,9H4.6v.2h0Z"/><path class="cls-6" d="M4.9,9.2l-.2.2h.1a1.5,1.5,0,0,1,1.1.2H6l.3.8,2-1.5H5.2V8.9l-.3.2Z"/><path class="cls-6" d="M4.3,12l2.5,1.8-.7-2.1a2.2,2.2,0,0,0-1.4,0c-.3.3-.6.2-.7,0H2.5l-.6,2.1Z"/><path class="cls-2" d="M3.1,10.3h.1l.5-.5h0l-.5.4H3.1l-.7.6h0Z"/><path class="cls-2" d="M5.9,9.7a1.5,1.5,0,0,0-1.1-.2l1.7,2h.1l-.3-.9L6,9.8Z"/><path class="cls-2" d="M4.7,11.7a2.2,2.2,0,0,1,1.4,0h.3L4.5,9.6,4,9.9V9.7h0a.4.4,0,0,0-.2.3c0,.2,1.1.3,1.1.3V11c-.4.1-1.4-.5-1.4-.5H3.3v.2l-.3.3v.5H3v-.5H2.7l.3-.2h.1l.2-.2H3.1c-.1.1,0,.1,0,.1H3l-.5.4v.2l-.3.3H4C4.1,11.9,4.4,12,4.7,11.7Z"/><path class="cls-2" d="M2.8,9.6l-.2.2v.7h0l1.1-.9H2.8Z"/><path class="cls-7" d="M2.5,11.4v-.2l.5-.4h.1s-.1,0,0-.1h.2l-.2.2H3l-.3.2h.2v.5h.2v-.5l.3-.3v-.2h.1s1,.6,1.4.5v-.5s-1.1-.1-1.1-.3a.4.4,0,0,1,.2-.3h0v.2l.5-.3,1.9,2.1.5.7c.2-.1.2-.1.2-.2l-.6-.7-1.7-2H4.7l.2-.2h0l.3-.2h0l.2.2.8-.7h.1L7.6,7.1l-1.4,1H6.1c0-.1.1-.1,0-.2H6l-.3-.2v.3l-.3.3H5l-.3.3H4.6L4.3,9l-.6-.7h0l-.4-.4c-.2-.1-.4-.1-.5.3H2.3L1.5,9.1l-.2.3.6.6.7-.9L3,8.6V8.2l.3.3h.3l.5.6h0C4,9.4,4,9.4,4,9.2l-.3.3H3.6l-1.1.9H2.4v.2h0l.7-.6h.1l.5-.4h0l-.5.5H3.1l-.7.6H2.3l-.3.4H1.7l-.7.5.5.5h.1l.6-.7h0ZM4.6,9h.1l-.2.2h0Z"/></g></svg>