<svg xmlns="http://www.w3.org/2000/svg" viewBox="0 0 30 20"><defs><style>.cls-1{fill:#187964;}.cls-2{fill:#fff;}.cls-3{fill:#fad119;}</style></defs><title>mo</title><g id="Layer_94" data-name="Layer 94"><path class="cls-1" d="M27.5,0H2.5A2.5,2.5,0,0,0,0,2.5v15A2.5,2.5,0,0,0,2.5,20h25A2.5,2.5,0,0,0,30,17.5V2.5A2.5,2.5,0,0,0,27.5,0Zm-8,6.9V6.4l.3.5h.5l-.4.4.3.4-.5-.2-.4.4V7.3L19,7.1ZM17.6,4.4l.5.3.4-.4v.5l.5.3h-.6v.5L18,5.2h-.6l.4-.4Zm-2.9-.6L15,3l.3.8h.9l-.8.6.3.8L15,4.7l-.7.5.3-.8-.8-.6Zm-3.2.5.4.4.5-.3-.2.5.4.4H12l-.2.5V5.2h-.6l.5-.3ZM10.1,6.9l.3-.5v.5l.5.2-.5.2v.5l-.4-.4-.5.2.3-.4-.4-.4Zm5,9h-.2a5.4,5.4,0,0,1-2.5-.6h5.2A5.4,5.4,0,0,1,15.1,15.9Zm2.8-.7H12.1l-.7-.5h7.2Zm1-.7H11.1l-.3-.3h8.4Zm.7-.8h0Zm.4-.5H17.1a3,3,0,0,1-2.1-.9,3,3,0,0,1-2.1.9H10l-.3-.4h3.1a3.2,3.2,0,0,0,2.2-1,3.2,3.2,0,0,0,2.2,1h3.1Zm0-1.8.4.2a4.1,4.1,0,0,1-3,1A3.4,3.4,0,0,1,15,11.4a3.4,3.4,0,0,1-2.4,1.2,4.1,4.1,0,0,1-3-1l.4-.2a4.6,4.6,0,0,0,3.1.8,3.8,3.8,0,0,1-3.5-2.1,3.5,3.5,0,0,1,4,.3,3.6,3.6,0,0,0-2.9-.9l-.4-.6a4.9,4.9,0,0,1,3.6,1.2,3.3,3.3,0,0,1-.4-3.7,1,1,0,0,0,.5.4,3.3,3.3,0,0,0,.1,3.2A3.1,3.1,0,0,1,15,5.9a3.1,3.1,0,0,1,.9,4.1A3.3,3.3,0,0,0,16,6.8a1,1,0,0,0,.5-.4,3.3,3.3,0,0,1-.4,3.7,4.9,4.9,0,0,1,3.6-1.2l-.4.6a3.6,3.6,0,0,0-2.9.9,3.5,3.5,0,0,1,4-.3,3.8,3.8,0,0,1-3.5,2.1A4.6,4.6,0,0,0,20,11.4Z"/><path class="cls-2" d="M20.4,10.1a3.5,3.5,0,0,0-4,.3,3.6,3.6,0,0,1,2.9-.9l.4-.6a4.9,4.9,0,0,0-3.6,1.2,3.3,3.3,0,0,0,.4-3.7,1,1,0,0,1-.5.4,3.3,3.3,0,0,1-.1,3.2A3.1,3.1,0,0,0,15,5.9a3.1,3.1,0,0,0-.9,4.1A3.3,3.3,0,0,1,14,6.8a1,1,0,0,1-.5-.4,3.3,3.3,0,0,0,.4,3.7,4.9,4.9,0,0,0-3.6-1.2l.4.6a3.6,3.6,0,0,1,2.9.9,3.5,3.5,0,0,0-4-.3,3.8,3.8,0,0,0,3.5,2.1,4.6,4.6,0,0,1-3.1-.8l-.4.2a4.1,4.1,0,0,0,3,1A3.4,3.4,0,0,0,15,11.4a3.4,3.4,0,0,0,2.4,1.2,4.1,4.1,0,0,0,3-1l-.4-.2a4.6,4.6,0,0,1-3.1.8A3.8,3.8,0,0,0,20.4,10.1Z"/><path class="cls-2" d="M15,11.8a3.2,3.2,0,0,1-2.2,1H9.7l.3.4h2.9a3,3,0,0,0,2.1-.9,3,3,0,0,0,2.1.9H20l.3-.4H17.2A3.2,3.2,0,0,1,15,11.8Z"/><polygon class="cls-3" points="14.3 5.2 15 4.7 15.7 5.2 15.4 4.4 16.2 3.8 15.3 3.8 15 3 14.7 3.8 13.8 3.8 14.6 4.4 14.3 5.2"/><polygon class="cls-3" points="9.7 7.6 10.2 7.4 10.6 7.8 10.5 7.3 11 7.1 10.5 6.9 10.4 6.4 10.1 6.9 9.6 6.8 10 7.2 9.7 7.6"/><polygon class="cls-3" points="11.7 5.2 11.8 5.7 12 5.2 12.6 5.3 12.2 4.9 12.4 4.4 11.9 4.7 11.5 4.3 11.6 4.8 11.1 5.1 11.7 5.2"/><polygon class="cls-3" points="19.4 7.8 19.8 7.4 20.3 7.6 20 7.2 20.4 6.8 19.9 6.9 19.6 6.4 19.5 6.9 19 7.1 19.5 7.3 19.4 7.8"/><polygon class="cls-3" points="18 5.2 18.2 5.7 18.3 5.2 18.9 5.1 18.4 4.8 18.5 4.3 18.1 4.7 17.6 4.4 17.8 4.9 17.4 5.3 18 5.2"/><path class="cls-2" d="M14.9,15.9h.2a5.4,5.4,0,0,0,2.5-.6H12.4A5.4,5.4,0,0,0,14.9,15.9Z"/><path class="cls-2" d="M12.1,15.2h5.8l.7-.5H11.4Z"/><path class="cls-2" d="M10.4,13.7h0Z"/><path class="cls-2" d="M11.1,14.5h7.8l.3-.3H10.8Z"/></g></svg>