<svg xmlns="http://www.w3.org/2000/svg" viewBox="0 0 30 20"><defs><style>.cls-1{fill:#ed2f31;}.cls-2{fill:#156733;}.cls-3{fill:#010101;}.cls-4{fill:#f6eb16;}.cls-5{fill:#ed2224;}.cls-6{fill:#fff;}.cls-7{fill:#2b3187;}</style></defs><title>pt</title><g id="Layer_56" data-name="Layer 56"><path class="cls-1" d="M27.4,0H12V20H27.4A2.5,2.5,0,0,0,30,17.5V2.5A2.5,2.5,0,0,0,27.4,0Z"/><path class="cls-2" d="M2.6,0A2.5,2.5,0,0,0,0,2.5v15A2.5,2.5,0,0,0,2.6,20H12V0Z"/><path class="cls-3" d="M11,10.2h0V9.8h0v.4Z"/><path class="cls-3" d="M10.4,7.7h0l-.2-.2h.1l.2.3h-.1Z"/><path class="cls-4" d="M9.9,13.1C8.4,13.1,1.4,8.7,1.4,8l.3-.6c.7,1,7.9,5.2,8.6,5.1l-.4.6Z"/><path class="cls-4" d="M1.7,7.3c-.2.4,1.8,1.6,4.2,3a18.6,18.6,0,0,0,4.5,2.2h-.1a28.1,28.1,0,0,1-4.4-2.2C3.8,9,2,7.8,1.8,7.3H1.7ZM10,13.1H9.8A16.8,16.8,0,0,1,5.5,11C3.1,9.6,1.1,8.3,1.3,8h.1c-.2.6,3.9,2.9,4.1,3C7.9,12.4,9.9,13.2,10,13Z"/><path class="cls-3" d="M9.9,13.2H9.8c-.6,0-2.3-.9-4.4-2.1s-4.1-2.6-4.1-3S1.2,8,1.3,8h0a.1.1,0,0,1,.1-.1h0c0,.2.3.7,4,2.9h.1A17.8,17.8,0,0,0,9.9,13h.2v.2ZM1.3,8h0c.1.3,1.5,1.3,4.2,2.9s3.7,2.1,4.3,2.1h.1A16.2,16.2,0,0,1,5.5,11H5.3C2.8,9.4,1.5,8.5,1.3,8Zm9.1,4.5h0a17.4,17.4,0,0,1-4.6-2.2c-2.7-1.6-4.3-2.6-4.2-3h.2c.3.5,2.4,1.8,4.1,2.9a18.4,18.4,0,0,0,4.4,2.1h.2v.2h-.1ZM1.7,7.3h0c-.1.4,2.3,1.8,4.2,3a19.9,19.9,0,0,0,4.5,2.2h-.1a21.4,21.4,0,0,1-4.4-2.2C3.2,8.6,2,7.8,1.7,7.3Z"/><path class="cls-4" d="M6,8.4a15.3,15.3,0,0,0,4.5-.6l-.2-.4A11.6,11.6,0,0,1,6,8c-2.1,0-3.5-.2-4.3-.7l-.2.5A12.6,12.6,0,0,0,6,8.4Z"/><path class="cls-4" d="M10.6,7.8l-1.8.5L6,8.5,3.3,8.3a4.3,4.3,0,0,1-1.8-.5h0a6.1,6.1,0,0,0,1.8.5L6,8.4l2.8-.2,1.7-.5Zm-.2-.4a7,7,0,0,1-1.8.5L6,8.1,3.4,7.9a10.5,10.5,0,0,1-1.7-.4h0l1.8.4L6,8l2.6-.2a4.7,4.7,0,0,0,1.7-.5Z"/><path class="cls-3" d="M6,8.5H3.3L1.5,7.9h0l1.8.5H6a12.3,12.3,0,0,0,2.7-.2,6.5,6.5,0,0,0,1.8-.4h.1a4.3,4.3,0,0,1-1.8.5A12.7,12.7,0,0,1,6,8.5ZM1.5,7.8l1.8.5L6,8.5H6l2.8-.2,1.7-.5h0a3.4,3.4,0,0,1-1.7.5A13.7,13.7,0,0,1,6,8.4H3.3L1.5,7.8ZM6,8.1a11,11,0,0,1-2.6-.2,7,7,0,0,1-1.7-.4H1.6a.1.1,0,0,0,.1-.1h0a4.8,4.8,0,0,0,1.8.5H6l2.6-.2a6.3,6.3,0,0,0,1.7-.4h.1a4.3,4.3,0,0,1-1.7.4A12.3,12.3,0,0,1,6,8.1ZM1.7,7.4h.1l1.7.4H6a11,11,0,0,0,2.6-.2,5,5,0,0,0,1.7-.4h0a5,5,0,0,1-1.7.4L6,8H6L3.5,7.8a5.1,5.1,0,0,1-1.8-.4Z"/><path class="cls-4" d="M1,10.3c.9.5,3,.7,5,.8a13.4,13.4,0,0,0,5-.8V9.8c-.3.4-2.8.8-5,.8s-4.3-.3-5-.8v.5Z"/><path class="cls-4" d="M11.1,10.2h0a5.9,5.9,0,0,1-2,.6L6,11.1l-3-.2a7.9,7.9,0,0,1-2.1-.6h0a9.7,9.7,0,0,0,2.1.6L6,11l3-.2a6.7,6.7,0,0,0,2.1-.6Zm0-.4h0a5.9,5.9,0,0,1-2,.6L6,10.7l-3-.2A7.9,7.9,0,0,1,.9,9.9h0a9.7,9.7,0,0,0,2.1.6l3,.2a12.1,12.1,0,0,0,3-.3,7.1,7.1,0,0,0,2.1-.5Z"/><path class="cls-3" d="M6,11.1a14.2,14.2,0,0,1-3-.2,6.8,6.8,0,0,1-2.1-.5h0a6.3,6.3,0,0,0,2.1.5,14.2,14.2,0,0,0,3,.2,14.2,14.2,0,0,0,3-.2l2-.5h.1a6.8,6.8,0,0,1-2,.5A15.6,15.6,0,0,1,6,11.1Zm-5-.8a5.7,5.7,0,0,0,2,.6l3,.2a15.5,15.5,0,0,0,3.1-.3,4.4,4.4,0,0,0,1.9-.5h0a7.2,7.2,0,0,1-2,.5A14.2,14.2,0,0,1,6,11a14.2,14.2,0,0,1-3-.2l-2-.5Zm5,.4-3-.2A9.6,9.6,0,0,1,.9,9.9h0a6.8,6.8,0,0,0,2.1.6l3,.2,3-.2a5.3,5.3,0,0,0,2-.6h.1a5.9,5.9,0,0,1-2,.6ZM1,9.9a4.6,4.6,0,0,0,2,.5,14.2,14.2,0,0,0,3,.2,15.6,15.6,0,0,0,3.1-.2L11,9.9h0l-2,.5-3,.2-3-.2a10.8,10.8,0,0,1-2-.6Z"/><path class="cls-4" d="M6,13a15.9,15.9,0,0,1-4.4-.7l.2.5a13.4,13.4,0,0,0,4.2.7,11.6,11.6,0,0,0,4.1-.7l.3-.5A13.5,13.5,0,0,1,6,13Z"/><path class="cls-4" d="M10.2,12.7c0,.1-.1.1-.1.2l-1.6.4L6,13.5a11.9,11.9,0,0,1-4.2-.7h0a12,12,0,0,0,4.2.7l2.5-.2a5.7,5.7,0,0,0,1.7-.5Zm.3-.4h-.1l-2,.5a12.5,12.5,0,0,1-2.4.2,19,19,0,0,1-4.5-.7h0A21.2,21.2,0,0,0,6,13l2.4-.2a5.9,5.9,0,0,0,1.9-.5h.2Z"/><path class="cls-3" d="M6,13.6H6a12,12,0,0,1-4.3-.8h.1a16.7,16.7,0,0,0,4.2.7H6a14.2,14.2,0,0,0,2.5-.3,6.5,6.5,0,0,0,1.6-.4h.1a.3.3,0,0,1-.1.2h0l-1.6.4A9.5,9.5,0,0,1,6,13.6Zm-4.2-.8a16.3,16.3,0,0,0,4.2.7,10.1,10.1,0,0,0,2.5-.3l1.5-.3h.1l-1.6.4L6,13.4H6a13.3,13.3,0,0,1-4.2-.6Zm4.2.3H6a16.4,16.4,0,0,1-4.5-.6h0a18.6,18.6,0,0,0,4.5.6H8.4a6,6,0,0,0,1.9-.4h.1c.1,0,.1,0,.1.1h0v.2h0a12.3,12.3,0,0,1-2,.4H6Zm-4.4-.7A15.5,15.5,0,0,0,6,13H8.4l1.9-.4h0l-1.9.4H8.2L6,13a17.8,17.8,0,0,1-4.4-.6Z"/><path class="cls-4" d="M6,5.5A4.5,4.5,0,1,1,1.5,10,4.5,4.5,0,0,1,6,5.5Zm0-.4a4.9,4.9,0,0,1,0,9.8A5,5,0,0,1,1,10,5,5,0,0,1,6,5.1Z"/><path class="cls-4" d="M6,5a5,5,0,0,1,5,5,5.1,5.1,0,0,1-5,5,5,5,0,0,1-5-5A5,5,0,0,1,6,5Zm0,.1A4.9,4.9,0,1,1,1.1,10,4.9,4.9,0,0,1,6,5.1Z"/><path class="cls-3" d="M6,15A5,5,0,1,1,6,5,5,5,0,0,1,6,15ZM6,5.1a4.9,4.9,0,1,0,0,9.8A5,5,0,0,0,11,10,5,5,0,0,0,6,5.1Zm0,9.8A5,5,0,0,1,1,10,5,5,0,0,1,6,5.1a4.9,4.9,0,0,1,0,9.8ZM6,5.2a4.8,4.8,0,1,0,0,9.6A4.7,4.7,0,0,0,10.8,10,4.7,4.7,0,0,0,6,5.2Z"/><path class="cls-4" d="M6,5.4A4.7,4.7,0,0,1,10.6,10,4.7,4.7,0,0,1,6,14.6,4.7,4.7,0,0,1,1.4,10,4.7,4.7,0,0,1,6,5.4Zm0,.1A4.5,4.5,0,0,1,10.5,10,4.6,4.6,0,0,1,6,14.5,4.5,4.5,0,0,1,1.5,10,4.5,4.5,0,0,1,6,5.5Z"/><path class="cls-3" d="M6,14.6A4.6,4.6,0,0,1,1.4,10,4.5,4.5,0,0,1,6,5.4,4.6,4.6,0,0,1,10.6,10,4.7,4.7,0,0,1,6,14.6ZM6,5.5A4.6,4.6,0,0,0,1.4,10,4.6,4.6,0,0,0,6,14.5a4.5,4.5,0,0,0,0-9Zm0,9A4.5,4.5,0,1,1,10.5,10,4.5,4.5,0,0,1,6,14.5ZM6,5.6A4.5,4.5,0,0,0,1.5,10,4.5,4.5,0,1,0,6,5.6Z"/><rect class="cls-4" x="5.8" y="5" width="0.4" height="10.04"/><path class="cls-3" d="M6.1,5h0Z"/><path class="cls-3" d="M6.1,15.1h0Z"/><path class="cls-4" d="M6.1,4.9h.2V15.1H6.1V4.9Zm-.4,0h.1V15.1H5.7V4.9Z"/><path class="cls-3" d="M6.3,15.1H6.1V4.9h.2V15.1ZM6.2,15h0V5h0Zm-.4.1H5.7V4.9h.2V15.1H5.8Zm0-.1h0V5h0Z"/><path class="cls-4" d="M1,9.8c.6-.6,2.9-1,5-1s4.5.5,5,1v.4c-.5-.4-2.4-.9-5-.9s-4.7.5-5,.9V9.8Z"/><path class="cls-3" d="M1,10.2H.9V9.8H1v.4Z"/><path class="cls-4" d="M6,9.2a15.1,15.1,0,0,1,3.2.3,3.9,3.9,0,0,1,1.9.7h0a5.8,5.8,0,0,0-1.9-.7A15.1,15.1,0,0,0,6,9.3a26.8,26.8,0,0,0-3.3.3,5.5,5.5,0,0,0-1.8.7h0a3.5,3.5,0,0,1,1.8-.7A15.5,15.5,0,0,1,6,9.2Zm0-.4a15.1,15.1,0,0,1,3.2.3,3.9,3.9,0,0,1,1.9.7h0a4.2,4.2,0,0,0-1.9-.7A15.1,15.1,0,0,0,6,8.9a15.5,15.5,0,0,0-3.3.3C2,9.3,1,9.6.9,9.9h0a3.5,3.5,0,0,1,1.8-.7A15.5,15.5,0,0,1,6,8.8Z"/><path class="cls-3" d="M.9,10.4h0c0-.2.8-.5,1.8-.7A16.1,16.1,0,0,1,6,9.2H6a15.8,15.8,0,0,1,3.2.3,3.3,3.3,0,0,1,1.9.7H11a3.3,3.3,0,0,0-1.8-.7A16.6,16.6,0,0,0,6,9.4H6a16.9,16.9,0,0,0-3.3.3,3.6,3.6,0,0,0-1.8.6ZM6,9.3a15.8,15.8,0,0,1,3.2.3,5.5,5.5,0,0,1,1.8.6h0a3.2,3.2,0,0,0-1.8-.6A15.8,15.8,0,0,0,6,9.3H6a16.1,16.1,0,0,0-3.3.3c-1,.2-1.7.4-1.7.6H1a4.4,4.4,0,0,1,1.7-.6A16.1,16.1,0,0,1,6,9.3ZM.9,9.9h0c0-.2.8-.5,1.8-.7L6,8.8H6L9.2,9a5.8,5.8,0,0,1,1.9.7H11a4.2,4.2,0,0,0-1.8-.7L6,9H6l-3.3.2a4.6,4.6,0,0,0-1.8.7ZM6,8.9a15.8,15.8,0,0,1,3.2.3,3.8,3.8,0,0,1,1.8.6h0c-.2-.3-.8-.5-1.8-.7A15.8,15.8,0,0,0,6,8.8H6a16.1,16.1,0,0,0-3.3.3c-1,.2-1.7.5-1.7.7H1a4.3,4.3,0,0,1,1.7-.6A16.9,16.9,0,0,1,6,8.9Z"/><path class="cls-4" d="M6,6.6a10.3,10.3,0,0,1,4.2.7l.3.4A11.4,11.4,0,0,0,6,7.1a13.2,13.2,0,0,0-4.5.6l.3-.5A11.7,11.7,0,0,1,6,6.6Z"/><path class="cls-4" d="M6,7l2.9.2a4.1,4.1,0,0,1,1.6.5h.1a7.1,7.1,0,0,0-1.7-.5L6,7.1,3,7.3l-1.5.5h0A3.7,3.7,0,0,1,3,7.2L6,7Zm0-.4a12.3,12.3,0,0,1,2.8.2l1.4.4.2.2a4.3,4.3,0,0,0-1.7-.5A11,11,0,0,0,6,6.7l-2.8.2a3.9,3.9,0,0,0-1.4.4h.1a2.8,2.8,0,0,1,1.2-.4A12.8,12.8,0,0,1,6,6.6Z"/><path class="cls-3" d="M10.6,7.9a.1.1,0,0,1-.1-.1L8.9,7.4a11.4,11.4,0,0,0-2.8-.2H5.9a11,11,0,0,0-2.8.2,4.1,4.1,0,0,0-1.6.4H1.4V7.6h0L3,7.2A12.4,12.4,0,0,1,6,7h.1a11.4,11.4,0,0,1,2.8.2l1.6.4v.2h0ZM6.1,7.1a11.4,11.4,0,0,1,2.8.2l1.6.4h-.1a4.6,4.6,0,0,0-1.5-.5L6.1,7H6L3,7.2l-1.4.5h0L3,7.3a12.3,12.3,0,0,1,2.9-.2h.2Zm4.3.4h-.1a2.7,2.7,0,0,0-1.6-.6L6,6.7l-2.8.2a4.2,4.2,0,0,0-1.4.5H1.7V7.1h0l1.3-.4L6,6.5h.1l2.7.2a5,5,0,0,1,1.5.5h0v.2ZM6,6.6l2.8.2,1.4.4L8.8,6.8,6.1,6.6H6l-2.8.2-1.3.4h0l1.3-.4Z"/><path class="cls-4" d="M8.5,12.1A11.9,11.9,0,0,0,6,11.9c-3.1,0-4.1.6-4.3.8l-.2-.4A7.7,7.7,0,0,1,6,11.5a11.4,11.4,0,0,1,2.7.2l-.2.4Z"/><path class="cls-3" d="M1.7,12.7h0l-.2-.3h.1l.2.2H1.7Z"/><path class="cls-4" d="M6,11.8l2.5.2H8.4L6,11.9a11.5,11.5,0,0,0-3.3.4c-.4.1-.9.3-1,.5h0c0-.1.3-.3.9-.5A13.7,13.7,0,0,1,6,11.8Zm0-.4,2.7.2h0L6,11.5a13.9,13.9,0,0,0-3.5.4c-.3.1-.9.3-1,.5h0a1.7,1.7,0,0,1,1-.5A13.4,13.4,0,0,1,6,11.4Z"/><path class="cls-3" d="M1.7,12.8h0c0-.2.4-.4.9-.5A12.7,12.7,0,0,1,6,11.8a10.6,10.6,0,0,1,2.5.2h0v.2H8.4A8.2,8.2,0,0,0,6.1,12H6a10.6,10.6,0,0,0-3.3.4c-.4.1-.9.3-.9.4H1.7Zm0-.1h0a3.1,3.1,0,0,1,.9-.4,10.4,10.4,0,0,1,3.2-.4h.3l2.3.2h0A9.7,9.7,0,0,0,6,11.9a9.6,9.6,0,0,0-3.4.4A1.9,1.9,0,0,0,1.7,12.7Zm-.2-.2H1.4c0-.2.8-.4,1.1-.5A11.6,11.6,0,0,1,6,11.4a12.3,12.3,0,0,1,2.7.2h0A22.3,22.3,0,0,0,6,11.5a16.3,16.3,0,0,0-3.5.5c-.5.1-.9.3-.9.4Zm0-.2h0a2.6,2.6,0,0,1,1-.4A12,12,0,0,1,6,11.5a10.6,10.6,0,0,1,2.6.2h.1L6,11.4a16.9,16.9,0,0,0-3.5.4C1.9,12,1.5,12.2,1.5,12.3Z"/><path class="cls-3" d="M5.1,11.7Zm0,0Zm.1,0Zm.1,0Zm0,0Zm0,0h0Zm.1,0Zm0,0Zm.2,0Zm-.1,0h0Zm.1,0h0Zm.1,0Zm0,0h0Zm0,0Zm.2,0Zm-.1,0h0Zm.1,0h0Zm0-.1Zm0,.1h0Zm0,0h0Zm.1-.1Zm0,.1H6Zm.1,0h0Zm.1,0Zm0,0Zm0,0Zm0,0Zm.1,0h0Zm0,0Zm.1,0h0Zm.1,0Zm-.1,0h0Zm.1,0Zm0,0h0Zm.1,0Zm.1,0Zm-.1,0h0Zm.1-.1Zm0,.1Zm0,0Zm.1,0Zm0,0Zm.1,0Zm0,0Zm.1.1H7Zm0-.1Zm0,0Zm.1,0Zm0,0Zm.1,0h0Zm-.1.1Zm.1-.1Zm0,0Z"/><path class="cls-3" d="M7.3,11.7Zm0,0h0Zm0,0h.1a.1.1,0,0,1-.1-.1Zm0,0h0Zm.2.1Zm0-.1h0Zm.1.1Zm-.1-.1h0Zm.2.1Zm0,0h0Zm0,0Zm.1,0h0Zm0,0Zm.1,0h0Zm.1,0Zm0,0Zm.1,0Zm0,0Zm0,0Zm.1,0Zm0,0Z"/><path class="cls-5" d="M8.4,12.2h0l.3-.5h.1l-.3.5Z"/><path class="cls-4" d="M1.8,7.2c1.5,0,8.6,4.3,8.7,5.1L10,13c-.2-.9-7.4-5.2-8.6-5.1l.4-.7Z"/><path class="cls-3" d="M10,13h0l.4-.5h.1l-.4.6Z"/><path class="cls-3" d="M1.4,7.9h0l.3-.7h.1l-.3.6Z"/><path class="cls-4" d="M1.4,7.9c.2-.2,2.3.7,4.5,2S10.2,12.8,10,13h0V13c0-.3-1.5-1.5-4-2.9S1.5,7.8,1.3,8Zm9.1,4.5c.2-.4-1.8-1.8-4.2-3.3S2.1,6.9,1.7,7.2h.2a20,20,0,0,1,4.4,2c1,.6,4.1,2.6,4.1,3.2h.1Z"/><path class="cls-3" d="M10,13.2H9.9a19.9,19.9,0,0,0-4-2.9A14.5,14.5,0,0,0,1.4,8h.1A16.8,16.8,0,0,1,6,9.9c1.9,1.2,4,2.6,4.1,3.1H10ZM1.4,7.9A15.5,15.5,0,0,1,5.9,10,19,19,0,0,1,10,13h0c-.1-.4-1.8-1.7-4.1-3A15.4,15.4,0,0,0,1.5,7.9Zm9,4.6h0c0-.5-3-2.4-4.1-3.1a15.8,15.8,0,0,0-4.4-2H1.6V7.1h.2c.7,0,2.8,1.1,4.4,2s4.4,2.9,4.2,3.3h-.1ZM1.9,7.2h0c.6,0,2.2.7,4.4,2,.6.4,4,2.4,4.2,3.1S9,10.8,6.3,9.2a15.8,15.8,0,0,0-4.4-2h0Z"/><path class="cls-6" d="M3,10.5a2.6,2.6,0,0,0,.9,2.1,2.7,2.7,0,0,0,2.1.9,3,3,0,0,0,2.1-.8A2.9,2.9,0,0,0,9,10.5H9V6.6H3v3.9Z"/><path class="cls-3" d="M6,13.6a3.1,3.1,0,0,1-2.2-.9,2.9,2.9,0,0,1-.9-2.2v-4H9v4a2.9,2.9,0,0,1-.9,2.2A2.7,2.7,0,0,1,6,13.6Zm-3-7v3.9a2.7,2.7,0,0,0,.9,2.1,2.9,2.9,0,0,0,4.2,0,3,3,0,0,0,.8-2.1V6.6Z"/><path class="cls-5" d="M3.1,10.6h0a3,3,0,0,0,.8,2,3.2,3.2,0,0,0,2.1.8,2.8,2.8,0,0,0,2-.8,3.1,3.1,0,0,0,.9-2h0V6.7H3.1v3.9ZM7.7,7.8v2.8h0v.2a1.9,1.9,0,0,1-.5,1,1.8,1.8,0,0,1-1.2.5,1.7,1.7,0,0,1-1.2-.5,1.6,1.6,0,0,1-.5-1.2V7.8Z"/><path class="cls-3" d="M6,13.4a3.2,3.2,0,0,1-2.1-.8,3.2,3.2,0,0,1-.8-2v-4H8.9v4a2.7,2.7,0,0,1-.9,2A2.8,2.8,0,0,1,6,13.4ZM3.1,6.7v3.9A2.5,2.5,0,0,0,4,12.5a2.5,2.5,0,0,0,2,.9,2.8,2.8,0,0,0,2-.9,2.7,2.7,0,0,0,.8-1.9V6.7ZM6,12.3a2.1,2.1,0,0,1-1.3-.5,1.8,1.8,0,0,1-.5-1.2V7.8H7.7v3a1.4,1.4,0,0,1-.5,1A1.8,1.8,0,0,1,6,12.3ZM4.3,7.9v2.7a1.6,1.6,0,0,0,.5,1.1,1.3,1.3,0,0,0,1.2.5,1.6,1.6,0,0,0,1.2-.5,1.5,1.5,0,0,0,.4-.9V7.9Z"/><path class="cls-7" d="M5.6,10.1h0v.3h.6v-.3h0V9.6H5.6v.5Z"/><path class="cls-6" d="M6.2,9.7a.1.1,0,0,0-.1.1h.2a.1.1,0,0,0-.1-.1Z"/><path class="cls-6" d="M6,9.9H6Z"/><path class="cls-6" d="M6.2,10.1h0Z"/><path class="cls-6" d="M5.8,10.1h0Z"/><path class="cls-6" d="M5.8,9.7a.1.1,0,0,0-.1.1h.2a.1.1,0,0,0-.1-.1Z"/><path class="cls-7" d="M5.6,11.4h0v.3h.6v-.3h0v-.5H5.6v.5Z"/><path class="cls-6" d="M6.2,11h0Z"/><path class="cls-6" d="M6,11.2a.1.1,0,0,0-.1.1h.2a.1.1,0,0,0-.1-.1Z"/><path class="cls-6" d="M6.2,11.4h0Z"/><path class="cls-6" d="M5.8,11.4h0Z"/><path class="cls-6" d="M5.8,11h0Z"/><path class="cls-7" d="M4.6,10.1h0a.4.4,0,0,0,.1.3h.5a.4.4,0,0,0,.1-.3h0V9.6H4.6v.5Z"/><path class="cls-6" d="M5.2,9.7c-.1,0-.1,0-.1.1h.1Z"/><path class="cls-6" d="M4.9,9.9h0Z"/><path class="cls-6" d="M5.2,10.1H5.1a.1.1,0,0,0,.1.1h0Z"/><path class="cls-6" d="M4.7,10.1h0a.1.1,0,0,0,.1-.1Z"/><path class="cls-6" d="M4.7,9.7h.1c0-.1,0-.1-.1-.1Z"/><path class="cls-7" d="M6.7,10.1h0a.4.4,0,0,0,.1.3h.5a.4.4,0,0,0,.1-.3h0V9.6H6.7v.5Z"/><path class="cls-6" d="M7.3,9.7c-.1,0-.1,0-.1.1h.1Z"/><path class="cls-6" d="M7,9.9H7Z"/><path class="cls-6" d="M7.3,10.1H7.2a.1.1,0,0,0,.1.1h0Z"/><path class="cls-6" d="M6.8,10.1h0a.1.1,0,0,0,.1-.1Z"/><path class="cls-6" d="M6.8,9.7h.1c0-.1,0-.1-.1-.1Z"/><path class="cls-7" d="M5.6,8.8h0v.3h.6V8.8h0V8.3H5.6v.5Z"/><path class="cls-6" d="M6.2,8.4h0Z"/><path class="cls-6" d="M6,8.6H6Z"/><path class="cls-6" d="M6.2,8.8h0Z"/><path class="cls-6" d="M5.8,8.8h0Z"/><path class="cls-6" d="M5.8,8.4h0Z"/><path class="cls-4" d="M3.5,7.7c0-.3.2-.3.2-.3s.2,0,.2.3Z"/><path class="cls-4" d="M3.3,7.4v.3h.2c0-.3.2-.3.2-.3s.2,0,.2.3h.2V7.4Z"/><path class="cls-3" d="M3.5,7.7H3.2V7.3h.8v.4H3.8a.4.4,0,0,0-.1-.3c-.1,0-.2.1-.2.3Zm.4-.1H4V7.4H3.8Zm-.6,0h.1V7.4H3.3Z"/><path class="cls-4" d="M3.2,7.7h0Z"/><path class="cls-3" d="M4.1,7.8h0Z"/><path class="cls-4" d="M3.6,7.7c0-.2.1-.2.1-.2s.1,0,.1.2Z"/><path class="cls-3" d="M3.8,7.7H3.5a.4.4,0,0,1,.2-.3h0a.4.4,0,0,1,.1.3Zm-.2-.1h0Z"/><path class="cls-4" d="M3.3,7.2h0Z"/><path class="cls-3" d="M4.1,7.3h0Z"/><path class="cls-4" d="M3.3,7.3h0Z"/><path class="cls-3" d="M4.1,7.4H3.3c-.1,0-.1,0-.1-.1h.9Z"/><path class="cls-4" d="M3.5,6.8h0Z"/><path class="cls-3" d="M3.8,6.9H3.5V6.7h.4v.2Zm-.2,0h0Z"/><polygon class="cls-4" points="3.8 6.9 3.8 7.2 3.6 7.2 3.6 6.9 3.8 6.9 3.8 6.9"/><path class="cls-3" d="M3.8,7.3H3.5V6.9h.3Zm-.2-.1h.1V6.9H3.6Z"/><path class="cls-4" d="M3.8,6.9h0Z"/><path class="cls-3" d="M4.1,7.1h0ZM3.8,7h0Z"/><polygon class="cls-4" points="4 7 4 7.2 3.8 7.2 3.8 7 4 7 4 7"/><path class="cls-3" d="M3.8,7.3V7h.3v.3Zm.1-.2h0Z"/><path class="cls-4" d="M3.3,6.9Z"/><path class="cls-3" d="M3.5,7.1h0ZM3.3,7h0Z"/><polygon class="cls-4" points="3.5 7 3.5 7.2 3.3 7.2 3.3 7 3.5 7 3.5 7"/><path class="cls-3" d="M3.3,7.3V7h.2v.3Zm0-.2h0Z"/><path class="cls-3" d="M3.7,7Z"/><path class="cls-3" d="M3.9,7.1h0Z"/><path class="cls-3" d="M3.4,7.1Z"/><path class="cls-4" d="M5.8,6.8h0Z"/><path class="cls-3" d="M6.1,6.9H5.8V6.7h.4v.2Zm-.2,0h0Z"/><polygon class="cls-4" points="6.1 6.9 6.1 7.2 5.9 7.2 5.9 6.9 6.1 6.9 6.1 6.9"/><path class="cls-3" d="M6.1,7.3H5.8V6.9h.2Zm-.2-.1h.2V6.9H5.9Z"/><path class="cls-4" d="M6.1,6.9h0Z"/><path class="cls-3" d="M6.4,7.1H6.1V6.8h.3ZM6.2,7h0Z"/><polygon class="cls-4" points="6.4 7 6.4 7.2 6.2 7.2 6.2 7 6.4 7 6.4 7"/><path class="cls-3" d="M6.4,7.3H6.1V7h.3Zm-.2-.1h0Z"/><path class="cls-4" d="M5.6,6.9Z"/><path class="cls-3" d="M5.8,7.1h0ZM5.6,7h0Z"/><polygon class="cls-4" points="5.8 7 5.8 7.2 5.6 7.2 5.6 7 5.8 7 5.8 7"/><path class="cls-3" d="M5.9,7.3H5.6V7h.3Zm-.2-.1h0Z"/><path class="cls-4" d="M5.8,7.7c0-.3.2-.3.2-.3s.2,0,.2.3Z"/><path class="cls-4" d="M5.6,7.4v.3h.2c0-.3.2-.3.2-.3s.2,0,.2.3h.2V7.4Z"/><path class="cls-3" d="M5.8,7.7H5.5V7.3h.8v.4H6.2A.4.4,0,0,0,6,7.4a.4.4,0,0,0-.2.3Zm.4-.1h.2V7.4H6.1C6.2,7.4,6.2,7.5,6.2,7.6Zm-.6,0h.1l.2-.2H5.6Z"/><path class="cls-4" d="M5.6,7.7h0Z"/><path class="cls-3" d="M6.4,7.8H5.5a.1.1,0,0,1,.1-.1h.8a.1.1,0,0,1,.1.1Z"/><path class="cls-4" d="M5.9,7.7c0-.2.1-.2.1-.2s.1,0,.1.2Z"/><path class="cls-3" d="M6.1,7.7H5.8A.4.4,0,0,1,6,7.4H6a.4.4,0,0,1,.1.3Zm-.2-.1h0Z"/><path class="cls-4" d="M5.6,7.2h0Z"/><path class="cls-3" d="M6.4,7.3h0Z"/><path class="cls-4" d="M5.6,7.3h0Z"/><path class="cls-3" d="M6.4,7.4H5.6a.1.1,0,0,1-.1-.1h.9Z"/><path class="cls-3" d="M6,7Z"/><path class="cls-3" d="M6.2,7.1h0Z"/><path class="cls-3" d="M5.7,7.1Z"/><path class="cls-4" d="M8.1,6.8h0Z"/><path class="cls-3" d="M8.4,6.9H8.1V6.7h.4v.2Zm-.2,0h0Z"/><polygon class="cls-4" points="8.4 6.9 8.4 7.2 8.2 7.2 8.2 6.9 8.4 6.9 8.4 6.9"/><path class="cls-3" d="M8.4,7.3H8.1V6.9h.3Zm-.2-.1h.1V6.9H8.2Z"/><path class="cls-4" d="M8.4,6.9h0Z"/><path class="cls-3" d="M8.7,7.1h0ZM8.4,7h0Z"/><polygon class="cls-4" points="8.6 7 8.6 7.2 8.4 7.2 8.4 7 8.6 7 8.6 7"/><path class="cls-3" d="M8.4,7.3V7h.3v.3Zm.1-.2h0Z"/><path class="cls-4" d="M7.9,6.9Z"/><path class="cls-3" d="M8.1,7.1h0ZM7.9,7h0Z"/><polygon class="cls-4" points="8.1 7 8.1 7.2 7.9 7.2 7.9 7 8.1 7 8.1 7"/><path class="cls-3" d="M8.2,7.3H7.9V7h.2Zm-.3-.1h0Z"/><path class="cls-4" d="M8.1,7.7c0-.3.2-.3.2-.3s.2,0,.2.3Z"/><path class="cls-4" d="M7.9,7.4v.3h.2c0-.3.2-.3.2-.3s.2,0,.2.3h.2V7.4Z"/><path class="cls-3" d="M8.1,7.7H7.8V7.3h.8v.4H8.4a.4.4,0,0,0-.1-.3c-.1,0-.2.1-.2.3Zm.4-.1h.2V7.4H8.4C8.5,7.4,8.5,7.5,8.5,7.6Zm-.6,0H8l.2-.2H7.9Z"/><path class="cls-4" d="M7.8,7.7h0Z"/><path class="cls-3" d="M8.7,7.8h0Z"/><path class="cls-4" d="M8.2,7.7c0-.2.1-.2.1-.2s.1,0,.1.2Z"/><path class="cls-3" d="M8.4,7.7H8.1a.4.4,0,0,1,.2-.3h0a.4.4,0,0,1,.1.3Zm-.2-.1h0Z"/><path class="cls-4" d="M7.9,7.2h0Z"/><path class="cls-3" d="M8.7,7.3h0Z"/><path class="cls-4" d="M7.9,7.3h0Z"/><path class="cls-3" d="M8.7,7.4H7.9c-.1,0-.1,0-.1-.1h.9Z"/><path class="cls-3" d="M8.3,7Z"/><path class="cls-3" d="M8.5,7.1h0Z"/><path class="cls-3" d="M8,7.1Z"/><path class="cls-4" d="M3.5,9.1h0Z"/><path class="cls-3" d="M3.8,9.3H3.6a.1.1,0,0,1-.1-.1h.3Zm-.2-.1h0Z"/><polygon class="cls-4" points="3.8 9.2 3.8 9.6 3.6 9.6 3.6 9.2 3.8 9.2 3.8 9.2"/><path class="cls-3" d="M3.8,9.6H3.5V9.2h.3Zm-.2-.1h.1V9.3H3.6Z"/><path class="cls-4" d="M3.8,9.3h0Z"/><path class="cls-3" d="M4.1,9.4H3.8V9.2h.3v.2Zm-.3-.1h0Z"/><polygon class="cls-4" points="4 9.4 4 9.6 3.8 9.6 3.8 9.4 4 9.4 4 9.4"/><path class="cls-3" d="M4.1,9.6H3.8V9.3h.3Zm-.2-.1h0Z"/><path class="cls-4" d="M3.3,9.3Z"/><path class="cls-3" d="M3.5,9.4H3.2V9.2h.4v.2Zm-.2-.1h0Z"/><polygon class="cls-4" points="3.5 9.4 3.5 9.6 3.3 9.6 3.3 9.4 3.5 9.4 3.5 9.4"/><path class="cls-3" d="M3.5,9.6H3.3V9.3h.2Zm-.2-.1h0Z"/><path class="cls-4" d="M3.5,10a.4.4,0,0,1,.2-.3.4.4,0,0,1,.2.3Z"/><path class="cls-4" d="M3.3,9.7V10h.2c0-.3.2-.3.2-.3a.4.4,0,0,1,.2.3h.2V9.7Z"/><path class="cls-3" d="M3.5,10H3.2V9.6h.8V10H3.8c0-.2-.1-.2-.1-.3s-.2.1-.2.3Zm.4,0h.2V9.7H3.8C3.8,9.8,3.9,9.8,3.9,10Zm-.6,0h.1c0-.2.1-.2.2-.3H3.3Z"/><path class="cls-4" d="M3.2,10h0Z"/><path class="cls-3" d="M4.1,10.1h0Z"/><path class="cls-4" d="M3.6,10c0-.2.1-.2.1-.2s.1,0,.1.2Z"/><path class="cls-3" d="M3.8,10H3.5c0-.2.1-.2.2-.2s.1,0,.1.2Zm-.2,0h.2v0Z"/><path class="cls-4" d="M3.3,9.6h0Z"/><path class="cls-3" d="M4.1,9.7h0Z"/><path class="cls-4" d="M3.3,9.6h0Z"/><path class="cls-3" d="M4.1,9.7h0Z"/><path class="cls-3" d="M3.7,9.3Z"/><path class="cls-3" d="M3.9,9.4h0Z"/><path class="cls-3" d="M3.4,9.4Z"/><path class="cls-4" d="M8,11.6Z"/><path class="cls-3" d="M8.1,11.9h0ZM8,11.6v.2H8Z"/><polygon class="cls-4" points="8.1 11.8 7.8 12.1 7.7 11.9 7.9 11.7 8.1 11.8 8.1 11.8"/><path class="cls-3" d="M7.9,12.1l-.3-.2.3-.3.2.2Zm-.1-.2h0l.2-.2H7.9Z"/><path class="cls-4" d="M8.1,11.9Z"/><path class="cls-3" d="M8.2,12.2h0ZM8,11.9l.2.2H8Z"/><polygon class="cls-4" points="8.2 12.1 8 12.2 7.9 12.1 8 12 8.2 12.1 8.2 12.1"/><path class="cls-3" d="M8,12.3l-.2-.2.2-.2.2.2Zm-.1-.2h0Z"/><path class="cls-4" d="M7.7,11.5Z"/><path class="cls-3" d="M7.8,11.8h0l-.2-.2h.2Zm-.1-.2h0Z"/><polygon class="cls-4" points="7.8 11.7 7.7 11.9 7.5 11.7 7.6 11.6 7.8 11.7 7.8 11.7"/><path class="cls-3" d="M7.7,11.9l-.2-.2v-.2l.2.2Zm-.1-.2h0Z"/><path class="cls-4" d="M7.3,12.2a.4.4,0,0,1,.4-.1.4.4,0,0,1-.1.4l-.3-.3Z"/><path class="cls-4" d="M7.4,11.8l-.2.2v.2a.4.4,0,0,1,.4-.1.2.2,0,0,1-.1.3v.2l.2-.3-.5-.5Z"/><path class="cls-3" d="M7.7,12.6l-.2-.2h.1c.1-.1.1-.3,0-.3H7.3L7.1,12l.3-.2.6.5Zm-.1-.2h.1l.2-.2H7.7A.3.3,0,0,1,7.6,12.4ZM7.2,12h0Z"/><path class="cls-4" d="M7.1,12l.7.6H7.7l-.6-.6Z"/><path class="cls-3" d="M7.7,12.7h0l-.6-.6c-.1,0-.1-.1,0-.1h.1l.6.6H7.7Z"/><path class="cls-4" d="M7.4,12.2h.2a.2.2,0,0,1-.1.3v-.2Z"/><path class="cls-3" d="M7.5,12.4l-.2-.2h.3s.1.2,0,.3Zm-.1-.2h.1a.1.1,0,0,0,.1-.1Z"/><path class="cls-4" d="M7.5,11.7l.6.6H8l-.6-.6h.1Z"/><path class="cls-3" d="M8,12.4H8l-.6-.5h.1l.6.5H8Z"/><path class="cls-4" d="M7.4,11.8l.6.5H7.9l-.5-.6Z"/><path class="cls-3" d="M8,12.4H7.9l-.5-.6h.1l.5.6c.1,0,.1.1,0,.1Z"/><path class="cls-3" d="M7.9,11.8Z"/><path class="cls-3" d="M8,12.1H8Z"/><path class="cls-3" d="M7.6,11.7h0Z"/><path class="cls-4" d="M8.1,9.1h0Z"/><path class="cls-3" d="M8.4,9.3H8.2a.1.1,0,0,1-.1-.1h.3Zm-.2-.1h0Z"/><polygon class="cls-4" points="8.4 9.2 8.4 9.6 8.2 9.6 8.2 9.2 8.4 9.2 8.4 9.2"/><path class="cls-3" d="M8.4,9.6H8.1V9.2h.3Zm-.2-.1h.1V9.3H8.2Z"/><path class="cls-4" d="M8.4,9.3h0Z"/><path class="cls-3" d="M8.7,9.4H8.4V9.2h.3v.2Zm-.3-.1h0Z"/><polygon class="cls-4" points="8.6 9.4 8.6 9.6 8.4 9.6 8.4 9.4 8.6 9.4 8.6 9.4"/><path class="cls-3" d="M8.7,9.6H8.4V9.3h.3Zm-.2-.1h0Z"/><path class="cls-4" d="M7.9,9.3Z"/><path class="cls-3" d="M8.1,9.4H7.8V9.2h.4v.2Zm-.2-.1h0Z"/><polygon class="cls-4" points="8.1 9.4 8.1 9.6 7.9 9.6 7.9 9.4 8.1 9.4 8.1 9.4"/><path class="cls-3" d="M8.1,9.6H7.9V9.3h.2Zm-.2-.1h0Z"/><path class="cls-4" d="M8.1,10a.4.4,0,0,1,.2-.3.4.4,0,0,1,.2.3Z"/><path class="cls-4" d="M7.9,9.7V10h.2c0-.3.2-.3.2-.3a.4.4,0,0,1,.2.3h.2V9.7Z"/><path class="cls-3" d="M8.1,10H7.8V9.7h.8V10H8.4c0-.2-.1-.2-.1-.3s-.2.1-.2.3Zm.4,0h.1V9.7H8.4C8.4,9.8,8.5,9.8,8.5,10Zm-.6,0H8c0-.2.1-.2.1-.3H7.9Z"/><path class="cls-4" d="M7.8,10h0Z"/><path class="cls-3" d="M8.7,10.1h0Z"/><path class="cls-4" d="M8.2,10c0-.2.1-.2.1-.2s.1,0,.1.2Z"/><path class="cls-3" d="M8.4,10H8.1c0-.2.1-.2.2-.2s.1,0,.1.2Zm-.2,0h.2v0Z"/><path class="cls-4" d="M7.9,9.6h0Z"/><path class="cls-3" d="M8.7,9.7h0Z"/><path class="cls-4" d="M7.9,9.6h0Z"/><path class="cls-3" d="M8.7,9.7h0Z"/><path class="cls-3" d="M8.3,9.3Z"/><path class="cls-3" d="M8.5,9.4h0Z"/><path class="cls-3" d="M8,9.4Z"/><path class="cls-4" d="M3.8,11.7Z"/><path class="cls-3" d="M3.9,11.9H3.8l.2-.2H3.9Zm-.1-.1h.1v-.2H3.8Z"/><polygon class="cls-4" points="4 11.7 4.3 11.9 4.1 12.1 3.9 11.8 4 11.7 4 11.7"/><path class="cls-3" d="M4.1,12.1l-.3-.3.2-.2.3.3Zm-.2-.3.2.2h.1L4,11.7Z"/><path class="cls-4" d="M4.1,11.7h.1c0,.1-.1.1-.1,0Z"/><path class="cls-3" d="M4.2,11.8h.2l-.2.2Zm0-.1Z"/><polygon class="cls-4" points="4.3 11.6 4.5 11.7 4.3 11.9 4.2 11.7 4.3 11.6 4.3 11.6"/><path class="cls-3" d="M4.3,11.9l-.2-.2.2-.2.2.2Zm-.1-.2h0Z"/><path class="cls-4" d="M3.7,12Z"/><path class="cls-3" d="M3.8,12.2h0Zm0-.1h0v-.2H3.8Z"/><polygon class="cls-4" points="3.9 12 4.1 12.1 3.9 12.2 3.8 12.1 3.9 12 3.9 12"/><path class="cls-3" d="M3.9,12.3v-.4l.2.2Zm0-.2h0Z"/><path class="cls-4" d="M4.4,12.5a.4.4,0,0,1-.1-.4.4.4,0,0,1,.4.1l-.3.3Z"/><path class="cls-4" d="M4,12.3l.2.3.2-.2a.2.2,0,0,1-.1-.3.4.4,0,0,1,.4.1V12l-.2-.2-.6.5Z"/><path class="cls-3" d="M4.2,12.6,4,12.3l.5-.5.4.2-.2.2H4.3a.2.2,0,0,0,.1.3h0Zm-.1-.3v.2h.1a.3.3,0,0,1-.1-.2Zm.3-.3h0Z"/><path class="cls-4" d="M4.2,12.6l.6-.6h.1l-.6.6H4.2Z"/><path class="cls-3" d="M4.2,12.7h0l.6-.6h.1l-.6.6Zm.6-.7-.6.6h0Z"/><path class="cls-4" d="M4.4,12.4c-.1-.1,0-.3,0-.3h.2l-.2.2Z"/><path class="cls-3" d="M4.4,12.4h0a.5.5,0,0,1-.1-.3h.3Zm0-.2h0Z"/><path class="cls-4" d="M3.9,12.3l.6-.6h0l-.6.6Z"/><path class="cls-3" d="M3.9,12.4h0l.6-.5h.1l-.6.5Z"/><path class="cls-4" d="M4,12.3l.5-.5c0-.1.1-.1.1,0h0l-.6.6H4Z"/><path class="cls-3" d="M4,12.4H3.9l.6-.6h.1l-.6.6Z"/><path class="cls-3" d="M4,11.8Z"/><path class="cls-3" d="M4.3,11.7Z"/><path class="cls-3" d="M3.9,12.1Z"/></g></svg>