<svg xmlns="http://www.w3.org/2000/svg" viewBox="0 0 30 20"><defs><style>.cls-1{fill:#23ad50;}.cls-2{fill:#fed733;}.cls-3{fill:#121212;}.cls-4{fill:#d32a40;}</style></defs><title>st</title><g id="Layer_43" data-name="Layer 43"><path class="cls-1" d="M.6,19.1a2.5,2.5,0,0,0,1.9.9h25A2.5,2.5,0,0,0,30,17.5V14.3H4.7Z"/><path class="cls-1" d="M27.5,0H2.5A2.5,2.5,0,0,0,.6.9L4.7,5.7H30V2.5A2.5,2.5,0,0,0,27.5,0Z"/><path class="cls-2" d="M8.3,10,4.7,14.3H30V5.7H4.7ZM25.7,7.1l.7,2h2.1l-1.7,1.2.6,2-1.7-1.2L24,12.3l.7-2L23,9.1h2.1Zm-10.1,0,.7,2h2.1l-1.7,1.2.6,2-1.7-1.2-1.7,1.2.7-2L12.9,9.1H15Z"/><polygon class="cls-3" points="14.6 10.3 13.9 12.3 15.6 11.1 17.3 12.3 16.7 10.3 18.4 9.1 16.3 9.1 15.6 7.1 15 9.1 12.9 9.1 14.6 10.3"/><polygon class="cls-3" points="24.7 10.3 24 12.3 25.7 11.1 27.4 12.3 26.8 10.3 28.5 9.1 26.4 9.1 25.7 7.1 25.1 9.1 23 9.1 24.7 10.3"/><path class="cls-4" d="M8.3,10,4.7,5.7.6.9A2.3,2.3,0,0,0,0,2.5v15a2.3,2.3,0,0,0,.6,1.6l4.1-4.8Z"/></g></svg>