<svg id="Flags" xmlns="http://www.w3.org/2000/svg" viewBox="0 0 30 20"><defs><style>.cls-1{fill:#f9f9f9;}.cls-2{fill:#0aa245;}.cls-3{fill:#d71921;}</style></defs><title>bi</title><path class="cls-1" d="M20.5,10a4,4,0,0,0-.3-1.5L30,2.1A2.7,2.7,0,0,0,27.5,0h-.3L18.5,5.8a5.8,5.8,0,0,0-3.4-1.2,6.2,6.2,0,0,0-3.5,1.2L2.9,0H2.6A2.7,2.7,0,0,0,0,2.1L9.9,8.6A3.2,3.2,0,0,0,9.7,10a6.6,6.6,0,0,0,.1,1.4L0,17.9A2.7,2.7,0,0,0,2.6,20h.3l8.7-5.9a5.6,5.6,0,0,0,3.5,1.3,6.1,6.1,0,0,0,3.4-1.2L27.2,20h.3A2.7,2.7,0,0,0,30,17.9l-9.7-6.5A5.9,5.9,0,0,0,20.5,10Zm-6.7,2.8H13l-.4.8-.4-.8h-.9l.4-.7-.4-.7h.9l.4-.7.4.7h.8l-.4.7ZM15,9.3l-.4-.7h-.8l.4-.7-.4-.7h.8l.4-.8.4.8h.9l-.4.7.4.7h-.9Zm3.7,3.5h-.9l-.4.8-.4-.8h-.8l.4-.7-.4-.7H17l.4-.7.4.7h.9l-.4.7Z"/><path class="cls-2" d="M9.7,10a3.2,3.2,0,0,1,.2-1.4L0,2.1V17.9l9.8-6.5A6.6,6.6,0,0,1,9.7,10Z"/><path class="cls-2" d="M20.2,8.5a4,4,0,0,1,.3,1.5,5.9,5.9,0,0,1-.2,1.4L30,17.9V2.1Z"/><path class="cls-3" d="M15.1,4.6a5.8,5.8,0,0,1,3.4,1.2L27.2,0H2.9l8.7,5.8A6.2,6.2,0,0,1,15.1,4.6Z"/><path class="cls-3" d="M15.1,15.4a5.6,5.6,0,0,1-3.5-1.3L2.9,20H27.2l-8.7-5.8A6.1,6.1,0,0,1,15.1,15.4Z"/><polygon class="cls-3" points="15.9 7.9 16.3 7.2 15.4 7.2 15 6.4 14.6 7.2 13.8 7.2 14.2 7.9 13.8 8.6 14.6 8.6 15 9.3 15.4 8.6 16.3 8.6 15.9 7.9"/><polygon class="cls-3" points="13 11.4 12.6 10.7 12.2 11.4 11.3 11.4 11.7 12.1 11.3 12.8 12.2 12.8 12.6 13.6 13 12.8 13.8 12.8 13.4 12.1 13.8 11.4 13 11.4"/><polygon class="cls-3" points="17.8 11.4 17.4 10.7 17 11.4 16.2 11.4 16.6 12.1 16.2 12.8 17 12.8 17.4 13.6 17.8 12.8 18.7 12.8 18.3 12.1 18.7 11.4 17.8 11.4"/></svg>