<svg xmlns="http://www.w3.org/2000/svg" viewBox="0 0 30 20"><defs><style>.cls-1{fill:#f7de31;}.cls-2{fill:#2c3b96;}.cls-3{fill:#e22f2d;}.cls-4{fill:#010101;}.cls-5{fill:#f7ec26;}.cls-6{fill:#87642b;}.cls-7{fill:#d32927;}.cls-8{fill:#055e35;}.cls-9{fill:#005ca5;}</style></defs><title>md</title><g id="Layer_82" data-name="Layer 82"><path class="cls-1" d="M16.5,11.1l-.2.2h-.1v.3h0l.2.4h.4a1.6,1.6,0,0,1-.3-.9Z"/><path class="cls-1" d="M14.2,6.5h.3c0-.1-.1-.2-.3-.2h0Z"/><path class="cls-1" d="M10,0V20H20V0Zm8.3,9.6h0V10c-.2.1-.1.1-.1.1H18a.1.1,0,0,0-.1.1v2.6l-.4-.5h0c-.2,0-.3-.2-.4-.3h0v.2h0s-.2.2-.2.3h-.4v-.2c.1-.1.1,0,.1,0h0v-.2c-.1-.1-.3-.5-.4-.5h0l-.3-.3h-.4c.1.2.6,1.4,1.1,1.5l-.5.3h-.2a1.5,1.5,0,0,1-.3-.5c-.1.1,0,.3.2.6h0a1.3,1.3,0,0,0-.7.5,1,1,0,0,0-.6-.5h0l.2-.6a1.5,1.5,0,0,1-.3.5H14l-.5-.3c.4-.1,1-1.3,1-1.5h-.3l-.3.3h0c-.1,0-.3.4-.4.5v.2h0l.2.2v.3l-.3-.2v-.2h0a.1.1,0,0,0-.1.1h-.1c0-.1-.2-.3-.2-.3h-.1v-.2a.1.1,0,0,1,.1-.1h-.1c-.1.1-.2.3-.4.3h0l-.4.5V10.5H12l-.2-.2h.3V9.9h-.3V9.6h.1c-.1-.1,0-.3,0-.3l.2.2h.1V7.5a1.3,1.3,0,0,1,.7-.8l.6.5v.3h0c.2,0,.3.2.5.3h.3l.2-.2a1.7,1.7,0,0,0,.1-.7c0-.4-.1-.5-.3-.5v.2h-.1V6.2h0V5.9a.1.1,0,0,1-.1-.1h.2v.2h.9l.4.2h0v.2h-.1c0,.1-.1.2-.1.3a1.4,1.4,0,0,0,.2.6c0,.1.1.1.2.2H16c.2-.1.3-.3.5-.3h0V7.2l.6-.5a1.3,1.3,0,0,1,.7.8v2.8h.1V9.6h.4v.2Z"/><path class="cls-1" d="M13,12.1h0Z"/><path class="cls-1" d="M13.2,11.6h.2a.5.5,0,0,1-.1.3l-.2.2h.2c.1,0,0,.1,0,.1h0l.3-.4h-.1l.2-.3h-.2a.3.3,0,0,0-.1-.2h-.1a.6.6,0,0,1-.1.4Z"/><path class="cls-2" d="M2.5,0A2.5,2.5,0,0,0,0,2.5v15A2.5,2.5,0,0,0,2.5,20H10V0Z"/><path class="cls-3" d="M27.5,0H20V20h7.5A2.5,2.5,0,0,0,30,17.5V2.5A2.5,2.5,0,0,0,27.5,0Z"/><path class="cls-4" d="M14.2,6.5h0v.3h-.1V6.6h0V6.2h-.2a.1.1,0,0,1-.1.1h.3V5.9h.1v.2h0v.2h0V5.9H14a.1.1,0,0,0,.1.1v.2h0v.6h.1V6.6Z"/><path class="cls-5" d="M14.2,6.2h0V5.9h-.1v.2h-.3a.1.1,0,0,0,.1-.1h.2v.3h.1V6.2Z"/><path class="cls-5" d="M14.1,6.8h.1V6.5h-.1Z"/><polygon class="cls-6" points="12.6 8 12.6 8.2 12.7 8.2 12.7 8.3 12.7 7.9 12.7 8 12.6 8"/><polygon class="cls-6" points="12.4 7.8 12.5 7.9 12.5 7.4 12.4 7.6 12.4 7.8"/><polygon class="cls-6" points="12.4 7.9 12.4 8.3 12.5 8.2 12.5 8.2 12.5 8 12.5 8 12.4 7.9"/><polygon class="cls-6" points="12.6 7.9 12.7 7.8 12.7 7.6 12.6 7.4 12.6 7.9"/><polygon class="cls-6" points="12.8 8.3 12.9 8.2 12.9 8.2 12.9 8 12.8 7.9 12.8 8.3"/><path class="cls-6" d="M17.5,8.3h.1V8h-.1Z"/><polygon class="cls-6" points="17.1 7.9 17.1 8.3 17.2 8.2 17.3 8.2 17.3 8 17.2 8 17.1 7.9"/><polygon class="cls-6" points="12.8 7.8 12.9 7.9 12.9 7.5 12.8 7.6 12.8 7.8"/><path class="cls-6" d="M12.2,7.5v.4h.2V7.5h-.2Z"/><polygon class="cls-6" points="17.3 7.9 17.5 7.8 17.5 7.6 17.3 7.4 17.3 7.9"/><path class="cls-6" d="M12.2,8.2h.2V7.9h-.2Z"/><path class="cls-6" d="M17.1,6.8h0s-.3.3-.5.3h0v.3l.3-.2h.2V7.3h0a.1.1,0,0,1,.1.1h0v0Z"/><path class="cls-6" d="M17.5,7.5v.3h.1V7.5h-.1Z"/><path class="cls-6" d="M16.8,7.9v.4h.1Z"/><path class="cls-6" d="M15.3,7.2c0-.1.1-.2.1-.3V6.7h-.1l-.5-.2h.1l.4.2h-.7a.1.1,0,0,0-.1.1c.1.1.1.2.1.4a1,1,0,0,1-.2.7c0,.1,0,.1-.1.1a.4.4,0,0,0,.4-.3V7.2h0v.4h0V8l.2-.2V7.2h.1v.6h0c.1,0,.1,0,.1-.1h0V7.2h0v.6l.3.2V7.7h0V7.2h0v.4a.3.3,0,0,0,.3.3h-.1A2.2,2.2,0,0,1,15.3,7.2Z"/><polygon class="cls-6" points="17 7.9 17.1 7.8 17.1 7.6 17 7.5 17 7.9"/><polygon class="cls-6" points="17 8.2 17 8.2 17.1 8.3 17.1 7.9 17 8 17 8.2"/><polygon class="cls-6" points="17.3 8 17.3 8.2 17.4 8.2 17.5 8.3 17.5 7.9 17.4 8 17.3 8"/><path class="cls-6" d="M13,8.1h.1V8.1Z"/><path class="cls-6" d="M13,7.5v.4c.1,0,.1-.2.2-.2S13,7.5,13,7.5Z"/><path class="cls-6" d="M12.8,6.9h0c-.2.2-.4.3-.5.5v.2l.2-.2h.1a.1.1,0,0,1-.1.1h0l.2.2H13l.2.2V7.3h0Z"/><polygon class="cls-6" points="17.1 7.8 17.3 7.9 17.3 7.4 17.1 7.6 17.1 7.8"/><path class="cls-6" d="M14.7,6.4h-.1c-.1,0-.1,0-.1.1h.2Z"/><path class="cls-6" d="M16.7,7.7l.2.2V7.5S16.8,7.7,16.7,7.7Z"/><path class="cls-6" d="M12.8,11.2h0Z"/><path class="cls-6" d="M12.7,10.6h.1v.2h.1V8.4h-.3v2.1Z"/><path class="cls-6" d="M12.9,11.4h-.1v.2Z"/><path class="cls-6" d="M12.5,10.5h0Z"/><path class="cls-6" d="M12.7,11.3h0a.1.1,0,0,0-.1.1h.1Z"/><path class="cls-6" d="M12.3,10.6h-.1v.2h.1Z"/><path class="cls-6" d="M12.3,9.8h0V10h.1V8.4h-.3V9.8Z"/><path class="cls-6" d="M15.9,11.8v-.2h.2v-.2l-.4.2A.2.2,0,0,1,15.9,11.8Z"/><path class="cls-6" d="M13.6,11.6h.3v.2l.2-.2-.3-.2Z"/><path class="cls-6" d="M12.5,10.6Z"/><path class="cls-6" d="M12.8,12.1h-.2v.2Z"/><path class="cls-6" d="M12.6,10.7Z"/><path class="cls-6" d="M12.7,11.4h.2l-.2-.3Z"/><path class="cls-6" d="M16.2,7.8h-.1C16.2,8,16.2,7.8,16.2,7.8Z"/><path class="cls-6" d="M16.7,7.9V7.7l-.3.4V7.9l-.2.2V7.9h-.7v.2L15,7.9h-.1l-.4.2V7.9h-.7l-.2.2v0l-.3-.4v.6h3.5Z"/><path class="cls-6" d="M16.9,8.4h-.2v2.3a1.6,1.6,0,0,0,.3.9Z"/><path class="cls-6" d="M17.1,8.5H17v3.3h.1a.8.8,0,0,1,.2-.4V8.4Z"/><path class="cls-6" d="M16.4,8c.1,0,.1-.2.1-.2h-.3Z"/><path class="cls-6" d="M17.5,8.5h-.2v2.7h.1s-.1-.1,0-.1h.2V8.4Z"/><path class="cls-6" d="M12.4,10.9h.1v-.2h0a.1.1,0,0,1-.1.1h.1Z"/><path class="cls-6" d="M12.4,11.3h-.2v1.3c.1,0,.3-.3.3-.4v-.2h0a.3.3,0,0,0-.1-.2h.1v-.3Z"/><path class="cls-6" d="M13.3,7.8c.1,0,.1.2.2.2l.2-.2h-.4Z"/><path class="cls-6" d="M13,8.4v2.8h0v0h.1a4.3,4.3,0,0,0,.1-.5V8.3l-.2.2Z"/><path class="cls-6" d="M13.7,8h0Z"/><path class="cls-6" d="M12.4,11.1h0Z"/><path class="cls-6" d="M17.6,12.5V10.9h-.1s.1.1,0,.1h0l-.2.3v.7C17.3,12.2,17.5,12.5,17.6,12.5Z"/><path class="cls-6" d="M13.7,13.2l.4.2.4-.7.3-.6a3.3,3.3,0,0,1-.4,1.4l.5.4a1.5,1.5,0,0,1,.6-.4,3.3,3.3,0,0,1-.4-1.4,1.5,1.5,0,0,0,.3.6,2.5,2.5,0,0,0,.4.7l.3-.2a4.6,4.6,0,0,1-.9-1.4l-.3.2c-.1-.1-.1-.2-.3-.2A4.6,4.6,0,0,1,13.7,13.2Z"/><path class="cls-6" d="M17.3,11.6h-.1a.4.4,0,0,1-.1.3h0l.2.2Z"/><path class="cls-7" d="M12.9,12.3h.2c.1,0,.2,0,.2-.1a.3.3,0,0,1-.1.2h.2c.2-.2.4-.6.5-.6a.1.1,0,0,0-.1-.1h-.1v-.2h0a1.5,1.5,0,0,1-.4.6h-.4Z"/><path class="cls-7" d="M13,12.4h0Z"/><path class="cls-7" d="M13,12.5h0Z"/><path class="cls-7" d="M13,12.6h0Z"/><path class="cls-7" d="M13.3,12.6h-.1v.2h.2Z"/><path class="cls-7" d="M16.7,12.5Z"/><path class="cls-7" d="M16.7,12.2h-.2l-.3-.6h0v.2H16c.1,0,.3.4.5.6h.1v-.2h.2Z"/><path class="cls-7" d="M16.8,12.7v-.2h.1Z"/><path class="cls-7" d="M16.9,12.4Z"/><path class="cls-7" d="M16.8,12.4Z"/><path class="cls-4" d="M12.8,12.1h-.2V12h-.1v.2c0,.1-.2.4-.3.4V11.2h0v-.2h-.1v2.4l.4-.5h0c.2,0,.3-.2.4-.3Z"/><path class="cls-4" d="M12.2,10.2h0Z"/><path class="cls-4" d="M16.9,12.2h-.4l-.2-.4h0v-.3h-.1v.2H16v.2a.2.2,0,0,0-.2-.2h0l.3.3h0c.1,0,.3.4.4.5v.2h.1a.1.1,0,0,1,.1.1h.1c0-.1.2-.3.2-.3h0v-.2Zm-.2.5h0v.2h-.1Zm.2-.2Zm-.1-.1h0Zm.1.2Zm0-.2h-.4v.2h-.1c-.2-.2-.4-.6-.5-.6h.1v-.2h0l.3.6h.4Z"/><path class="cls-4" d="M15.2,11.8a4.6,4.6,0,0,0,.9,1.4l-.3.2a2.5,2.5,0,0,1-.4-.7,1.5,1.5,0,0,1-.3-.6,3.3,3.3,0,0,0,.4,1.4,1.5,1.5,0,0,0-.6.4l-.5-.4a3.3,3.3,0,0,0,.4-1.4l-.3.6-.4.7-.4-.2a4.6,4.6,0,0,0,.9-1.4h-.1c0,.2-.6,1.4-1,1.5l.5.3h.2a1.5,1.5,0,0,0,.3-.5l-.2.6h0a1,1,0,0,1,.6.5,1.3,1.3,0,0,1,.7-.5h0c-.2-.3-.3-.5-.2-.6a1.5,1.5,0,0,0,.3.5h.2l.5-.3c-.5-.1-1-1.3-1.1-1.5S15.3,11.8,15.2,11.8Z"/><path class="cls-4" d="M12.2,9.9Z"/><path class="cls-4" d="M13.2,11.4a.6.6,0,0,0,.1-.4h0a4.3,4.3,0,0,1-.1.5Z"/><path class="cls-4" d="M12.6,11.8h0Z"/><path class="cls-4" d="M17.7,10.8h-.1v1.6c-.1,0-.3-.3-.3-.4v.1l-.2-.2H17c.1.1.2.3.4.3h0l.4.5V10.6C17.7,10.7,17.7,10.7,17.7,10.8Z"/><path class="cls-4" d="M12.2,9.6c0,.1-.1.1-.1.2h.1V8.4h.3V10c0,.1.1.2.1.3h0V8.4h.3v2.3h0s.1.3,0,.4H13V8.4h.1l.2-.2h-.1V7.7l.3.4v0l.2-.2h-.2V7.8l-.2.2c-.1,0-.1-.2-.2-.2h1.3v.2l.4-.2H15l.4.2V7.9h1.2s0,.2-.1.2l-.2-.2s0,.2-.1.2H16v.2l.2-.2v.2l.3-.4v.6h-.1v.2h.2v3.3a1.6,1.6,0,0,1-.3-.9h0a1.6,1.6,0,0,0,.3.9H17V8.4h.3v0h.3v2.2l.2-.3V7.5a1.3,1.3,0,0,0-.7-.8l-.6.5v.3h0c-.2,0-.3.2-.5.3h-.3c-.1-.1-.2-.1-.2-.2a1.4,1.4,0,0,1-.2-.6c0-.1.1-.2.1-.3h.1V6.6h0l-.4-.2h-.9c.2,0,.3.1.3.2h-.3c.2,0,.3.1.3.5a1.7,1.7,0,0,1-.1.7l-.2.2h-.3c-.2-.1-.3-.3-.5-.3h0V7.2l-.6-.5a1.3,1.3,0,0,0-.7.8V9.6Zm.2-1.3h-.2V8h.2Zm0-.5h-.2V7.5h.2Zm.1.4h-.1V7.9h.1Zm0-.3h-.1v.1Zm.2.4h-.1V8h.1Zm0-.5h-.1V7.8Zm.2.4h-.1V7.9h.1Zm0-.3h-.1V7.6h.1Zm.2.4H13v.2ZM13,7.9V7.5s.1.2.2.2S13.1,7.9,13,7.9Zm.2-.3L13,7.4h-.2l-.2-.2h0a.1.1,0,0,0,.1-.1h-.1l-.2.2V7.3c.1-.2.3-.3.5-.5h0l.4.3h0Zm2,0V7.2h0v.4h0V8L15,7.8V7.2h0v.6h0c0,.1,0,.1-.1.1h0V7.2h-.1v.6l-.2.2V7.7h0V7.2h0v.4a.4.4,0,0,1-.4.3c.1,0,.1,0,.1-.1a1,1,0,0,0,.2-.7c0-.2,0-.3-.1-.4a.1.1,0,0,1,.1-.1h-.1c0-.1,0-.1.1-.1h.7l-.4-.2h-.1l.5.2h.1v.2c0,.1-.1.2-.1.3a2.2,2.2,0,0,0,.1.6h.1A.3.3,0,0,1,15.2,7.6Zm1.7.6h-.1V8.1Zm0-.3-.2-.2c.1,0,.2-.2.2-.2Zm.2.4H17V8h.1Zm0-.5H17V7.5h.1Zm.2.4h-.2V7.9h.2Zm0-.3h-.2V7.6l.2-.2Zm.2.4h-.2V8h.2Zm0-.5h-.2V7.4l.2.2Zm-.1-.3V7.3h0a.1.1,0,0,0-.1-.1h0v.2h-.2l-.3.2V7.3h0c.2,0,.5-.3.5-.3h0l.4.5Zm.2.7h-.1V7.9h.1Zm0-.3h-.1V7.5h.1ZM14.2,6.4h.3c0,.1.1.2.1.3A.4.4,0,0,0,14.2,6.4Zm.1.2h0Z"/><path class="cls-4" d="M14.1,11.6l-.2.2v-.2h-.3l.2-.2h-.1l-.2.3h.1l-.3.4H13a.1.1,0,0,0-.1.1v.2h.1s.2.2.2.3h.1a.1.1,0,0,1,.1-.1h.1v-.2c.1-.1.3-.5.4-.5h0l.3-.3Zm-.8.6a1.5,1.5,0,0,0,.4-.6h0v.2h.1a.1.1,0,0,1,.1.1c-.1,0-.3.4-.5.6h-.2a.3.3,0,0,0,.1-.2c0,.1-.1.1-.2.1h.2Zm-.2.5h0v-.2h-.1Zm0-.3Zm-.1,0h0Zm.1.1h0Z"/><path class="cls-4" d="M12.5,11.5h0v.3h0Z"/><path class="cls-4" d="M13,11.4h0v-.2Z"/><path class="cls-4" d="M12.6,10.8h0Z"/><path class="cls-4" d="M12.5,11Z"/><polygon class="cls-4" points="13.4 12.7 13.6 12.8 13.5 13 13.3 12.9 13.4 12.7 13.4 12.8 13.3 12.7 13.3 12.9 13.6 13.1 13.6 12.8 13.4 12.6 13.5 12.7 13.4 12.7"/><path class="cls-4" d="M13.1,12.1Z"/><path class="cls-4" d="M13.1,11.9h0Z"/><path class="cls-4" d="M12.9,11.6a.4.4,0,0,1-.1-.3h-.1l.2.3h0Z"/><path class="cls-4" d="M12.5,10.9v-.3c.1,0,.1.1.1.2h-.1v.2h0Z"/><path class="cls-4" d="M12.8,11.2h0Z"/><polygon class="cls-4" points="13.3 12.6 13.3 12.7 13.3 12.7 13.4 12.8 13.4 12.7 13.4 12.7 13.4 12.7 13.5 12.7 13.4 12.6 13.4 12.6 13.4 12.6 13.3 12.6"/><path class="cls-4" d="M12.1,9.8Z"/><path class="cls-4" d="M12.2,10.2a.1.1,0,0,1,.1.1v.2h.1v-.4h-.1v.2Z"/><path class="cls-4" d="M12.9,11.5v-.2h0v.3h0Z"/><polygon class="cls-5" points="13.5 13 13.6 12.8 13.4 12.7 13.4 12.7 13.4 12.7 13.3 12.9 13.5 13"/><path class="cls-4" d="M13,12c0-.1,0-.2-.1-.2h-.5a.3.3,0,0,1,.1.2H13Zm-.5-.3h.3l.2.2h-.5Zm.2.3h0Z"/><path class="cls-4" d="M13,11.6h0c0,.1,0,.2.1.2h0l.2-.2a.5.5,0,0,0,.1-.3h-.2v-.2h-.1v.2h0Zm.3,0v.2h-.2v-.2Zm-.3,0v-.2h0Z"/><path class="cls-4" d="M12.5,11.3h.1a.1.1,0,0,1,.1-.1h-.2Zm-.2-.3h0Zm0,.2h0Z"/><path class="cls-4" d="M12.8,10.7v-.2h-.2v.3h.2c.1-.1,0-.4,0-.4h-.1Zm-.1-.1h0v-.2A.3.3,0,0,1,12.7,10.6Zm.2.4v.2s-.1-.2,0-.3V11Z"/><path class="cls-4" d="M12.2,10.5h.1v-.2a.1.1,0,0,0-.1-.1h-.4l.2.2h.2Zm-.3-.3h.2a.1.1,0,0,1,.1.1h-.3Zm.1.2h0Z"/><path class="cls-4" d="M12.5,10.4h.1c0-.1-.1-.2-.1-.3h-.1V9.8h-.1a.3.3,0,0,1,.1.2h0v.2h.1Zm-.1-.2v0a.3.3,0,0,1-.1.2Zm-.1-.3v.2h-.1Z"/><path class="cls-4" d="M12,9.8h.1c0-.1.1-.1.1-.2V9.4H12l-.2-.2s-.1.2,0,.3h-.1v.2H12Zm.1-.4h0v0Zm-.2.1c-.1,0-.1-.2-.1-.2h.1v.2Zm0,.3-.2-.2h.2a.1.1,0,0,1,.1.1Z"/><path class="cls-8" d="M12,9.6V9.4h-.1s0,.2.1.2Z"/><path class="cls-8" d="M11.9,9.7h-.2l.2.2H12A.1.1,0,0,0,11.9,9.7Z"/><path class="cls-8" d="M12.1,9.7V9.5H12Z"/><path class="cls-8" d="M12.2,10.3a.1.1,0,0,0-.1-.1h.1Z"/><path class="cls-8" d="M12.2,10.5h0Z"/><path class="cls-8" d="M12.4,10.1v0h.1Z"/><path class="cls-8" d="M12.5,10.2v.2A.3.3,0,0,0,12.5,10.2Z"/><path class="cls-8" d="M12.5,11.1h0Z"/><path class="cls-8" d="M12.6,11.2h0Z"/><path class="cls-8" d="M12.7,10.9h0a.3.3,0,0,0-.1.2V11Z"/><path class="cls-8" d="M12.8,11.2v-.3C12.7,11,12.8,11.2,12.8,11.2Z"/><path class="cls-8" d="M13.1,11.8h0v.4Z"/><path class="cls-8" d="M13.1,11.7v.2h.2v-.2Z"/><path class="cls-8" d="M13,12h0Z"/><path class="cls-8" d="M12.7,11.8H13l-.2-.2h-.1Z"/><path class="cls-4" d="M13.1,12.1h0Z"/><path class="cls-4" d="M13.1,12.1h.2s.1-.1,0-.1h-.2Zm.1-.1h0Z"/><path class="cls-5" d="M13.3,12.1h0Z"/><path class="cls-4" d="M13,12.2Zm-.1,0Z"/><polygon class="cls-4" points="13.1 12 13.1 12 13.1 12 13.1 12"/><path class="cls-5" d="M13,12.1h0Z"/><path class="cls-4" d="M12.8,11.3h0Zm.1-.1a.1.1,0,0,1,.1.1h-.1Z"/><path class="cls-4" d="M12.7,11.3Z"/><path class="cls-5" d="M12.9,11.3H13a.1.1,0,0,0-.1-.1Z"/><path class="cls-4" d="M12.7,11.3h0Zm-.1.2Z"/><path class="cls-5" d="M12.7,11.4h0Z"/><path class="cls-4" d="M12.4,10.6Z"/><path class="cls-4" d="M12.4,10.6h0Zm.2-.1h0C12.5,10.6,12.6,10.6,12.6,10.5Z"/><path class="cls-5" d="M12.6,10.6h0c0,.1-.1.1,0,.1Z"/><path class="cls-4" d="M12.3,10.8a.1.1,0,0,0,.1-.1h-.1Zm0-.1Z"/><path class="cls-5" d="M12.3,10.7h0Z"/><path class="cls-4" d="M12.2,9.9Zm0-.1h0Z"/><path class="cls-4" d="M12,9.8Z"/><path class="cls-5" d="M12.3,9.9h0Z"/><path class="cls-4" d="M12.1,9.9h0ZM12,10h0Z"/><path class="cls-5" d="M11.9,9.9h0Z"/><path class="cls-5" d="M12.7,11.1v-.3h-.1c0-.1,0-.2-.1-.2v.3h.2Z"/><path class="cls-5" d="M12.2,10.1h0v.2h0A.3.3,0,0,0,12.2,10.1Z"/><path class="cls-5" d="M13.1,12.1h0c-.1,0-.1-.1-.1-.2h-.1v-.3h0a.4.4,0,0,0,.1.3v.2c.1,0,.1.1.1.2h.1Z"/><path class="cls-9" d="M16.1,11.3l.4-.4V9.8l-.5.3c-.1-.2-.5-.3-.5-.3l.2.2h-.4a1.3,1.3,0,0,0-.1.6c0,.2,0,.3.1.4s.2.1.2.2h-.2l-.4.2c-.2,0-.2-.1-.3-.2h-.2c0-.1.1-.1.2-.2s.1-.2.1-.4a1.3,1.3,0,0,0-.1-.6h-.4V9.8a.8.8,0,0,0-.4.3l-.5-.3v1.1l.4.4c.6.3,1,.4,1.1.6A6.4,6.4,0,0,1,16.1,11.3Zm-.2-.7c.1,0,.3.1.3.2h-.1a.3.3,0,0,0-.3.3h.1c-.2,0-.3-.1-.4-.3S15.7,10.6,15.9,10.6Zm-.5-.5v.2h-.2Zm0,1.1a.4.4,0,0,1-.2-.3c0-.1,0-.4.1-.4h.2a4.3,4.3,0,0,0-.1.5Zm-1.1-.3v.2H14c0,.1-.1.2-.2.1s-.1-.1-.1-.2h0c-.1,0-.1-.1-.1-.2s0-.1.1-.1h.1c-.1-.1,0-.2.1-.2h.4c.1.1,0,.2,0,.3h0Zm.2-.8v.2h-.2Zm.1.4c.1,0,.1.3.1.4l-.3.3a.4.4,0,0,0,.1-.3,4.3,4.3,0,0,0-.1-.5Z"/><path class="cls-7" d="M13.9,9.5a.8.8,0,0,0,.4.3h.1a.7.7,0,0,1-.6-.7c0-.4.6-.7.6-.8s-.2.5-.2.8.3.4.3.4h.9s.3,0,.3-.4-.3-.6-.2-.8.6.4.6.8a.7.7,0,0,1-.6.7h0s.4-.1.5-.3l.5.3V8.3H13.3a.1.1,0,0,1,.1.1V9.8Zm.7-1.1h.2v0h.3v.3h0v.2H15V9h-.2V8.9h0Z"/><path class="cls-5" d="M13.9,10l.3-.2-.3-.2-.3.2.3.2Z"/><path class="cls-5" d="M16,9.6l-.3.2.3.2h0l.3-.2Z"/><polygon class="cls-5" points="14.7 8.5 14.8 8.7 14.6 8.8 14.8 8.8 14.7 9 14.9 8.9 14.9 9.1 15 8.9 15.2 9 15.1 8.8 15.3 8.8 15.1 8.7 15.2 8.5 15 8.6 14.9 8.4 14.9 8.6 14.7 8.5"/><path class="cls-5" d="M15.5,10V9.7A.7.7,0,0,0,16,9c0-.3-.4-.6-.4-.6s.2.3.2.6a.5.5,0,0,1-.4.5h-.9a.5.5,0,0,1-.4-.5,1.3,1.3,0,0,1,.2-.6s-.4.3-.4.6a.7.7,0,0,0,.6.7l-.2.3h.3c.2.1.2.4.2.6a.6.6,0,0,1-.1.4c-.1.1-.2.1-.2.2h.9c0-.1-.1-.1-.2-.2s-.1-.1-.1-.4,0-.5.2-.6Zm-.8,1.4h0a.1.1,0,0,1,.1.1Zm.4-.2c.2,0,.2.1.2.1h-.2Z"/><polygon class="cls-5" points="14.5 10.3 14.6 10.3 14.5 10.2 14.4 10.3 14.5 10.3"/><polygon class="cls-5" points="15.5 10.3 15.4 10.2 15.3 10.3 15.4 10.3 15.5 10.3"/><path class="cls-5" d="M15.4,11v-.5h-.1c-.1.1,0,.2,0,.3S15.4,11,15.4,11Z"/><path class="cls-5" d="M14.6,10.8v-.3h-.1V11S14.6,11,14.6,10.8Z"/><path class="cls-5" d="M15.7,11.1a.4.4,0,0,1,.4-.4h-.2a.3.3,0,0,0-.3.3Z"/><path class="cls-5" d="M14,10.7c-.1,0-.1.1-.1.2h.2Z"/><path class="cls-5" d="M13.8,10.7h.1C13.8,10.5,13.8,10.6,13.8,10.7Z"/><path class="cls-5" d="M14.2,10.9h0a.1.1,0,0,0,.1-.1H14A.2.2,0,0,1,14.2,10.9Z"/><path class="cls-5" d="M13.8,11h0v-.2h-.2A.2.2,0,0,0,13.8,11Z"/><path class="cls-5" d="M14,11.1h-.2v.2Z"/><path class="cls-5" d="M14.2,10.9h0c.1-.1.1-.2,0-.2Z"/><path class="cls-4" d="M14.6,10.3v0h.2Zm0,0h0Z"/><path class="cls-4" d="M15.5,10.3v0h.2Zm-.1-.1h0Z"/><path class="cls-4" d="M14.3,9.8a.8.8,0,0,1-.4-.3l-.5.3.5.3A.8.8,0,0,1,14.3,9.8Zm-.4.2h0l-.3-.2.3-.2.3.2-.3.2Z"/><path class="cls-4" d="M15.3,10.5c-.1,0-.1.3-.1.4a.4.4,0,0,0,.2.3v-.3a4.3,4.3,0,0,1,.1-.5Zm0,0h.1V11s-.1,0-.1-.2S15.2,10.6,15.3,10.5Z"/><path class="cls-4" d="M14.3,10.6h-.4c-.1,0-.2.1-.1.2h-.1c-.1,0-.1,0-.1.1s0,.2.1.2h0c0,.1,0,.2.1.2s.2,0,.2-.1h.3v-.2h0C14.3,10.8,14.4,10.7,14.3,10.6Zm-.1.5h0C14.3,10.9,14.3,11,14.2,11.1Zm-.4-.1h.1Zm0-.3h0v.2h0a.2.2,0,0,1-.2-.2Zm.1-.2h-.1C13.8,10.6,13.8,10.5,13.9,10.5Zm.2.1h.2a.1.1,0,0,1-.1.1h0a.2.2,0,0,0-.2-.2h.1Zm0,.3h-.2c0-.1,0-.2.1-.2Z"/><path class="cls-4" d="M14.4,11.2l.3-.3c0-.1,0-.4-.1-.4h-.2a4.3,4.3,0,0,1,.1.5A.4.4,0,0,1,14.4,11.2Zm.2-.7v.3c0,.2-.1.2-.1.2v-.5Z"/><path class="cls-4" d="M15.9,11.2h-.1a.3.3,0,0,1,.3-.3h.1c0-.1-.2-.2-.3-.2s-.4.1-.4.3S15.7,11.2,15.9,11.2Zm0-.6h.2a.4.4,0,0,0-.4.4v-.2A.3.3,0,0,1,15.9,10.6Z"/><path class="cls-4" d="M14.7,8.9v.2h.2V9h.3V8.9h0V8.4H15v0h-.2v.3h0Zm.3-.3h.2v.2h0V9H15v0h-.2V8.8h0V8.5h.2v0Z"/><path class="cls-4" d="M16,9.5c-.1.2-.5.3-.5.3s.4.1.5.3l.5-.3h0Zm0,.5h0l-.3-.2.3-.2.3.2Z"/><path class="cls-4" d="M16.1,9c0-.4-.6-.7-.6-.8s.2.5.2.8-.3.4-.3.4h-.9s-.3,0-.3-.4.2-.6.2-.8-.6.4-.6.8a.7.7,0,0,0,.6.7h-.1V10h.4a1.3,1.3,0,0,1,.1.6c0,.2,0,.3-.1.4s-.2.1-.2.2h.2c.1.1.1.2.3.2l.4-.2h.2c0-.1-.1-.1-.2-.2s-.1-.2-.1-.4a1.3,1.3,0,0,1,.1-.6h.4l-.2-.2h0A.7.7,0,0,0,16.1,9Zm-.9,2.1c.1.1.2.1.2.2h-.9c0-.1.1-.1.2-.2a.6.6,0,0,0,.1-.4c0-.2,0-.5-.2-.6h-.3l.2-.3a.7.7,0,0,1-.6-.7c0-.3.4-.6.4-.6a1.3,1.3,0,0,0-.2.6.5.5,0,0,0,.4.5h.9a.5.5,0,0,0,.4-.5c0-.3-.3-.6-.2-.6s.4.3.4.6a.7.7,0,0,1-.6.7V10h-.2c-.2.1-.2.4-.2.6S15.1,11.1,15.2,11.1Z"/><path class="cls-4" d="M14.7,11.2h.1A.1.1,0,0,0,14.7,11.2Z"/><path class="cls-4" d="M15.1,11.3h.2s0-.1-.2-.1Z"/><path class="cls-5" d="M15.7,11.6l.4-.2h.2l.2-.2h.1V8.3H13.3v2.5h.1a.3.3,0,0,1,.1.2h.3l.3.2h.5c.2,0,.2.1.3.2l.3-.2c.1,0,.1,0,.1-.1h.4Zm-1.9-.3-.4-.4V8.3a.1.1,0,0,0-.1-.1h3.2V9.8h0v1.1l-.4.4a6.4,6.4,0,0,0-1.2.6C14.8,11.7,14.4,11.6,13.8,11.3Z"/><path class="cls-4" d="M14.9,6.5h0Zm-.3,0h0Z"/><path class="cls-7" d="M14.6,6.6c0-.1-.1-.2-.1-.3h-.3A.4.4,0,0,1,14.6,6.6Zm-.2-.2Z"/><path class="cls-4" d="M14.4,6.4h0Z"/><path class="cls-7" d="M14.5,6.7h0Z"/><path class="cls-4" d="M18.3,9.3h-.4v.3h-.1l-.2.3h-.2c-.1,0,0,.1,0,.1h-.1v.2a.8.8,0,0,0-.2.4h0a.4.4,0,0,0,.1-.3h.1v-.2l.2-.3h0c.1,0,0-.1,0-.1h.2c0-.1,0-.1.1-.2v-.3a.1.1,0,0,1,.1-.1h.1s-.1,0,.1-.1V9.8h0Zm-.4.7h0V9.6h0v.4ZM17,12.2h0Zm.4-1-.2.5c-.1.1,0,.2-.1.2H17c-.1,0-.1-.1-.1-.2h.2l.3-.6h0C17.5,11.1,17.4,11.2,17.4,11.2Zm.1-.1h0Zm.1-.1h0Zm0-.1h0Zm.4-.7c-.1,0-.1,0-.2.2v.4h-.1v-.2h.1c.1-.2,0-.2.1-.3H18Zm0-.1h0V9.7h.2L18,10Zm.3-.3h-.2c-.1.1,0,.1,0,.1h0V9.8h.1Zm0-.2h-.1s-.1,0,0-.1h.1Zm0-.1h0Z"/><path class="cls-4" d="M16.6,12.7h-.1s0-.1-.1,0V13h.3A.1.1,0,0,0,16.6,12.7Zm0,.2h-.1v-.2h.1Zm0-.1h0a.1.1,0,0,1-.1-.1h.1Z"/><path class="cls-5" d="M16.6,12.8h-.1V13h.1Z"/><polygon class="cls-5" points="18.2 9.5 18.3 9.5 18.3 9.5 18.3 9.4 18.2 9.5"/><path class="cls-5" d="M17.9,10.1h0c-.1.1,0,.1-.1.3h-.1v.2h.1v-.4c.1-.2.1-.2.2-.2Z"/><path class="cls-5" d="M16.6,12.7h-.1a.1.1,0,0,0,.1.1h0Z"/><path class="cls-5" d="M18,9.9V9.7h0V10h0Z"/><path class="cls-5" d="M18.2,9.8H18V10h0Z"/><path class="cls-5" d="M16.9,12.1Z"/><path class="cls-5" d="M18.2,9.8V10h0s-.1,0,0-.1h.1Z"/><path class="cls-5" d="M18.2,9.5h0c-.1.1,0,.1,0,.1h0Z"/><path class="cls-5" d="M17.5,10.9Z"/><path class="cls-5" d="M17.6,10.8h0Z"/><path class="cls-5" d="M17.5,11h0Z"/><path class="cls-5" d="M17.4,11.1h0l-.3.6h-.2c0,.1,0,.2.1.2h.1c.1,0,0-.1.1-.2l.2-.5S17.5,11.1,17.4,11.1Z"/><path class="cls-5" d="M14.8,6.5h0Zm-.1,0h0Z"/><path class="cls-4" d="M14.7,6.5h0Z"/></g></svg>