<svg xmlns="http://www.w3.org/2000/svg" viewBox="0 0 30 20"><defs><style>.cls-1{fill:#cb2026;}.cls-2{fill:#119a48;}.cls-3{fill:#fff;}</style></defs><title>by</title><g id="Layer_80" data-name="Layer 80"><path class="cls-1" d="M27.5,0H4.3V13.4H30V2.5A2.5,2.5,0,0,0,27.5,0Z"/><path class="cls-2" d="M4.3,20H27.5A2.5,2.5,0,0,0,30,17.5V13.4H4.3Z"/><path class="cls-3" d="M4.3,0H3V.4h.2V.8h.2v.5h.2v.5h.2v.4H3.6v.5H3.4v.5H3.2v.4H3v.5H2.8V3.6H2.6V3.2H2.4V2.7H2.2V2.2H2v.5H1.8v.5H1.6v.4H1.4v.5H1.2V3.6H1V3.2H.8V2.7H.6V2.2H.4V1.8H.6V1.3H.8V.8H1V.5a2.6,2.6,0,0,0-1,2v15a2.6,2.6,0,0,0,1,2v-.3H.8v-.5H.6v-.5H.4v-.4H.6v-.5H.8v-.5H1v-.4h.2v-.5h.2v.5h.2v.4h.2v.5H2v.5h.2v-.5h.2v-.5h.2v-.4h.2v-.5H3v.5h.2v.4h.2v.5h.2v.5h.2v.4H3.6v.5H3.4v.5H3.2v.4H3V20H4.3V0ZM3.8.8H3.6V.3h.2Zm0,18.9H3.6v-.5h.2Zm0-7.4H3.6v-.4h.2Zm0-4.2H3.6V7.7h.2ZM3.6,6V5.4h.2V6Zm0-3h.2v.5H3.6ZM3.1,4.3h.1V4h.1V3.7h.3V4h.1v.3h.1v.3H3.7v.3H3.6v.3H3.3V4.9H3.2V4.6H3.1ZM2,3h.2v.5H2ZM1.5,4.3h.1V4h.1V3.7H2V4h.2V3.7h.3V4h.1v.3h.1v.4H2.6v.2H2.5v.3H2.2V4.9H2v.3H1.7V4.9H1.6V4.7H1.5Zm.7,1.1V6H2V5.4ZM.4,3H.6v.5H.4Zm0,1.3H.5V4H.6V3.7H.9V4H1v.3h.1v.4H1v.2H.9v.3H.6V4.9H.5V4.7H.4Zm0,1.1H.6V6H.4ZM.6,14v.6H.4V14Zm0,3H.4v-.5H.6Zm.5-1.3H1V16H.9v.3H.6V16H.5v-.3H.4v-.4H.5v-.2H.6v-.3H.9v.3H1v.2h.1ZM2.2,17H2v-.5h.2Zm.5-1.3H2.6V16H2.5v.3H2.2V16H2v.3H1.7V16H1.6v-.3H1.5v-.4h.1v-.2h.1v-.3H2v.3h.2v-.3h.3v.3h.1v.2h.1ZM2,14.6V14h.2v.6Zm1,.1v.5H2.8v-.5H2.6v-.5H2.4v-.4H2.2v-.4H2v.5H1.8v.4H1.6v.5H1.4v.5H1.2v-.5H1v-.5H.8v-.4H.6v-.4H.4v-.5H.6v-.4H.8v-.5H1v-.5h.2v.5h.2v.5h.2v.4H1.4v.6h.2V13h.2v-.7h.1v-.5H1.6v-.4H1.4v-.2H1.2v-.5H1v.5H.8v.2H.6v.3H.4v-.8H.6v-.4H.8v-.3H1V10H1V9.8H.8V9.5H.6V9.1H.4V8.3H.6v.3H.8v.2H1v.5h.2V8.8h.2V8.6h.2V8.2h.3V7.7H1.8V7H1.6V6.7H1.4v.6h.2v.4H1.4v.5H1.2v.5H1V8.1H.8V7.6H.6V7.2H.4V6.7H.6V6.2H.8V5.8H1V5.3h.2V4.8h.2v.5h.2v.5h.2v.4H2v.5h.2V6.2h.2V5.8h.2V5.3h.2V4.8H3v.5h.2v.5h.2v.4h.2v.5h.2v.5H3.6v.4H3.4v.5H3.2v.5H3V8.1H2.8V7.6H2.6V7.2h.2V6.7H2.6V7H2.4v.7H2.3v.5h.3v.4h.2v.2H3v.5h.2V8.8h.2V8.6h.2V8.3h.2v.8H3.6v.4H3.4v.3H3.2V10h0v.2h.2v.3h.2v.4h.2v.8H3.6v-.3H3.4v-.2H3.2v-.5H3v.5H2.8v.2H2.6v.4H2.3v.5h.1V13h.2v.3h.2v-.5H2.6v-.4h.2v-.5H3v-.5h.2v.5h.2v.5h.2v.4h.2v.5H3.6v.5H3.4v.4H3.2v.5ZM.4,12.3v-.4H.6v.4Zm0-2V10h0V9.7H.6V10h0v.3Zm0-2.2V7.7H.6v.4ZM3.8,9.7V10h0v.3H3.6V10h0V9.7ZM3.6,16v.3H3.3V16H3.2v-.3H3.1v-.3h.1v-.3h.1v-.3h.3v.3h.1v.3h.1v.3H3.7V16Zm.2,1H3.6v-.5h.2Zm0-2.4H3.6V14h.2Z"/><path class="cls-3" d="M1.6.4V.8h.2v.5H2v.5h.2V1.3h.2V.8h.2V.4h.2V0H2.6A2.1,2.1,0,0,0,1.4.3h.2ZM2,.3h.2V.8H2Z"/><polygon class="cls-3" points="0.7 4.7 0.8 4.7 0.8 4.6 0.9 4.6 0.9 4.4 0.8 4.4 0.8 4.2 0.7 4.2 0.7 4.4 0.6 4.4 0.6 4.6 0.7 4.6 0.7 4.7"/><path class="cls-3" d="M1,1.8H.8v.4H1v.5h.2v.5h.2V2.7h.2V2.2h.2V1.8H1.6V1.3H1.4V.8H1.2v.5H1Zm.2,0h.2v.4H1.2Z"/><polygon class="cls-3" points="3.4 4.7 3.5 4.7 3.5 4.6 3.6 4.6 3.6 4.4 3.5 4.4 3.5 4.2 3.4 4.2 3.4 4.4 3.3 4.4 3.3 4.6 3.4 4.6 3.4 4.7"/><polygon class="cls-3" points="2.3 4.7 2.4 4.7 2.4 4.6 2.5 4.6 2.5 4.4 2.4 4.4 2.4 4.2 2.3 4.2 2.3 4.4 2.2 4.4 2.2 4.6 2.3 4.6 2.3 4.7"/><polygon class="cls-3" points="1.8 4.7 1.9 4.7 1.9 4.6 2 4.6 2 4.4 1.9 4.4 1.9 4.2 1.8 4.2 1.8 4.4 1.7 4.4 1.7 4.6 1.8 4.6 1.8 4.7"/><path class="cls-3" d="M2.6,2.7h.2v.5H3V2.7h.2V2.2h.2V1.8H3.2V1.3H3V.8H2.8v.5H2.6v.5H2.4v.4h.2Zm.2-.9H3v.4H2.8Z"/><path class="cls-3" d="M2.2,11.3h.1v-.4h.3v-.4h.2v-.3H3V9.8H2.8V9.5H2.6V9.1H2.3V8.7H2.2V8.5H2v.2H1.9v.4H1.6v.4H1.4v.3H1.2V10h0v.2h.2v.3h.2v.4h.3v.4H2v.2h.2Zm.5-1.6V10h0v.3H2.5V10h0V9.7ZM2,9h.2v.5H2Zm-.5,1.3V10h0V9.7h.2V10h0v.3Zm.4.3H1.7v-.3h.2V10h0V9.8H1.7V9.4h.2v.2h.4V9.4h.2v.3H2.3V10h0v.2h.2v.3H2.3v-.2H1.9ZM2,11v-.5h.2V11Z"/><polygon class="cls-3" points="1.9 15.3 1.8 15.3 1.8 15.4 1.7 15.4 1.7 15.6 1.8 15.6 1.8 15.8 1.9 15.8 1.9 15.6 2 15.6 2 15.4 1.9 15.4 1.9 15.3"/><polygon class="cls-3" points="2.4 15.3 2.3 15.3 2.3 15.4 2.2 15.4 2.2 15.6 2.3 15.6 2.3 15.8 2.4 15.8 2.4 15.6 2.5 15.6 2.5 15.4 2.4 15.4 2.4 15.3"/><path class="cls-3" d="M2.6,19.6v-.4H2.4v-.5H2.2v-.5H2v.5H1.8v.5H1.6v.4H1.4a2.1,2.1,0,0,0,1.2.3h.2v-.4Zm-.4.1H2v-.5h.2Z"/><path class="cls-3" d="M3.2,18.2h.2v-.4H3.2v-.5H3v-.5H2.8v.5H2.6v.5H2.4v.4h.2v.5h.2v.5H3v-.5h.2Zm-.2,0H2.8v-.4H3Z"/><polygon class="cls-3" points="0.8 15.3 0.7 15.3 0.7 15.4 0.6 15.4 0.6 15.6 0.7 15.6 0.7 15.8 0.8 15.8 0.8 15.6 0.9 15.6 0.9 15.4 0.8 15.4 0.8 15.3"/><polygon class="cls-3" points="3.5 15.3 3.4 15.3 3.4 15.4 3.3 15.4 3.3 15.6 3.4 15.6 3.4 15.8 3.5 15.8 3.5 15.6 3.6 15.6 3.6 15.4 3.5 15.4 3.5 15.3"/><path class="cls-3" d="M1.6,17.3H1.4v-.5H1.2v.5H1v.5H.8v.4H1v.5h.2v.5h.2v-.5h.2v-.5h.2v-.4H1.6Zm-.2.9H1.2v-.4h.2Z"/><rect class="cls-1" x="0.4" y="5.4" width="0.2" height="0.56"/><rect class="cls-1" x="0.4" y="3" width="0.2" height="0.56"/><rect class="cls-1" x="2" y="9" width="0.2" height="0.46"/><rect class="cls-1" x="2" y="5.4" width="0.2" height="0.56"/><path class="cls-1" d="M.5,4.9H.6v.3H.9V4.9H1V4.7h.1V4.3H1V4H.9V3.7H.6V4H.5v.3H.4v.4H.5Zm.1-.5H.7V4.2H.8v.2H.9v.2H.6Z"/><polygon class="cls-1" points="2.5 10 2.5 10 2.5 10.3 2.7 10.3 2.7 10 2.7 10 2.7 9.7 2.5 9.7 2.5 10"/><polygon class="cls-1" points="1.7 10 1.7 10 1.7 9.7 1.5 9.7 1.5 10 1.5 10 1.5 10.3 1.7 10.3 1.7 10"/><polygon class="cls-1" points="2 10.3 2.2 10.3 2.2 10.4 2.3 10.4 2.3 10.6 2.5 10.6 2.5 10.3 2.4 10.3 2.4 10.2 2.3 10.2 2.3 10 2.3 10 2.3 9.8 2.4 9.8 2.4 9.7 2.5 9.7 2.5 9.4 2.3 9.4 2.3 9.6 2.2 9.6 2.2 9.7 2 9.7 2 9.6 1.9 9.6 1.9 9.4 1.7 9.4 1.7 9.7 1.8 9.7 1.8 9.8 1.9 9.8 1.9 10 1.9 10 1.9 10.2 1.8 10.2 1.8 10.3 1.7 10.3 1.7 10.6 1.9 10.6 1.9 10.4 2 10.4 2 10.3"/><rect class="cls-1" x="2" y="10.5" width="0.2" height="0.47"/><path class="cls-1" d="M1.6,4.9h.1v.3H2V4.9h.2v.3h.3V4.9h.1V4.7h.1V4.3H2.6V4H2.5V3.7H2.2V4H2V3.7H1.7V4H1.6v.3H1.5v.4h.1Zm.6-.5h.1V4.2h.1v.2h.1v.2H2.2Zm-.5,0h.1V4.2h.1v.2H2v.2H1.7Z"/><rect class="cls-1" x="2" y="0.3" width="0.2" height="0.56"/><path class="cls-1" d="M.8.8v.5H.6v.5H.4v.4H.6v.5H.8v.5H1v.4h.2v.5h.2V3.6h.2V3.2h.2V2.7H2V2.2h.2v.5h.2v.5h.2v.4h.2v.5H3V3.6h.2V3.2h.2V2.7h.2V2.2h.2V1.8H3.6V1.3H3.4V.8H3.2V.4H3V0H2.8V.4H2.6V.8H2.4v.5H2.2v.5H2V1.3H1.8V.8H1.6V.4H1.4L1,.5V.8Zm1.6,1h.2V1.3h.2V.8H3v.5h.2v.5h.2v.4H3.2v.5H3v.5H2.8V2.7H2.6V2.2H2.4ZM1.2.8h.2v.5h.2v.5h.2v.4H1.6v.5H1.4v.5H1.2V2.7H1V2.2H.8V1.8H1V1.3h.2Z"/><rect class="cls-1" x="1.2" y="1.8" width="0.2" height="0.46"/><rect class="cls-1" x="0.4" y="11.9" width="0.2" height="0.37"/><rect class="cls-1" x="2.8" y="1.8" width="0.2" height="0.46"/><polygon class="cls-1" points="0.6 10 0.6 10 0.6 9.7 0.4 9.7 0.4 10 0.4 10 0.4 10.3 0.6 10.3 0.6 10"/><polygon class="cls-1" points="3.6 10 3.6 10 3.6 10.3 3.8 10.3 3.8 10 3.8 10 3.8 9.7 3.6 9.7 3.6 10"/><rect class="cls-1" x="0.4" y="7.7" width="0.2" height="0.37"/><rect class="cls-1" x="3.6" y="3" width="0.2" height="0.56"/><rect class="cls-1" x="2" y="3" width="0.2" height="0.56"/><rect class="cls-1" x="3.6" y="0.3" width="0.2" height="0.56"/><path class="cls-1" d="M3.2,4.9h.1v.3h.3V4.9h.1V4.6h.1V4.3H3.7V4H3.6V3.7H3.3V4H3.2v.3H3.1v.3h.1Zm.1-.5h.1V4.2h.1v.2h.1v.2H3.3Z"/><rect class="cls-1" x="3.6" y="5.4" width="0.2" height="0.56"/><rect class="cls-1" x="3.6" y="7.7" width="0.2" height="0.37"/><rect class="cls-1" x="3.6" y="11.9" width="0.2" height="0.37"/><path class="cls-1" d="M2.6,15.1H2.5v-.3H2.2v.3H2v-.3H1.7v.3H1.6v.2H1.5v.4h.1V16h.1v.3H2V16h.2v.3h.3V16h.1v-.3h.1v-.4H2.6Zm-.6.5H1.9v.2H1.8v-.2H1.7v-.2H2Zm.5,0H2.4v.2H2.3v-.2H2.2v-.2h.3Z"/><rect class="cls-1" x="0.4" y="14" width="0.2" height="0.56"/><rect class="cls-1" x="3.6" y="14" width="0.2" height="0.56"/><path class="cls-1" d="M3.2,19.6v-.4h.2v-.5h.2v-.5h.2v-.4H3.6v-.5H3.4v-.5H3.2v-.4H3v-.5H2.8v.5H2.6v.4H2.4v.5H2.2v.5H2v-.5H1.8v-.5H1.6v-.4H1.4v-.5H1.2v.5H1v.4H.8v.5H.6v.5H.4v.4H.6v.5H.8v.5H1v.3l.4.2h.2v-.4h.2v-.5H2v-.5h.2v.5h.2v.5h.2v.4h.2V20H3v-.4ZM1.8,18.2H1.6v.5H1.4v.5H1.2v-.5H1v-.5H.8v-.4H1v-.5h.2v-.5h.2v.5h.2v.5h.2Zm1.2,1H2.8v-.5H2.6v-.5H2.4v-.4h.2v-.5h.2v-.5H3v.5h.2v.5h.2v.4H3.2v.5H3Z"/><rect class="cls-1" x="0.4" y="16.5" width="0.2" height="0.56"/><rect class="cls-1" x="2" y="14" width="0.2" height="0.56"/><rect class="cls-1" x="2" y="16.5" width="0.2" height="0.56"/><path class="cls-1" d="M1,15.1H.9v-.3H.6v.3H.5v.2H.4v.4H.5V16H.6v.3H.9V16H1v-.3h.1v-.4H1Zm-.1.5H.8v.2H.7v-.2H.6v-.2H.9Z"/><rect class="cls-1" x="3.6" y="19.2" width="0.2" height="0.56"/><path class="cls-1" d="M3.7,15.7h.1v-.3H3.7v-.3H3.6v-.3H3.3v.3H3.2v.3H3.1v.3h.1V16h.1v.3h.3V16h.1Zm-.1-.1H3.5v.2H3.4v-.2H3.3v-.2h.3Z"/><path class="cls-1" d="M3.2,14.2h.2v-.4h.2v-.5h.2v-.5H3.6v-.4H3.4v-.5H3.2v-.5H3v.5H2.8v.5H2.6v.4h.2v.5H2.6V13H2.4v-.7H2.3v-.5h.3v-.4h.2v-.2H3v-.5h.2v.5h.2v.2h.2v.3h.2v-.8H3.6v-.4H3.4v-.3H3.2V10h0V9.8h.2V9.5h.2V9.1h.2V8.3H3.6v.3H3.4v.2H3.2v.5H3V8.8H2.8V8.6H2.6V8.2H2.3V7.7h.1V7h.2V6.7h.2v.5H2.6v.4h.2v.5H3v.5h.2V8.1h.2V7.6h.2V7.2h.2V6.7H3.6V6.2H3.4V5.8H3.2V5.3H3V4.8H2.8v.5H2.6v.5H2.4v.4H2.2v.4H2V6.2H1.8V5.8H1.6V5.3H1.4V4.8H1.2v.5H1v.5H.8v.4H.6v.4H.4v.5H.6v.4H.8v.5H1v.5h.2V8.1h.2V7.6h.2V7.2H1.4V6.6h.2V7h.2v.7h.1v.5H1.6v.4H1.4v.2H1.2v.5H1V8.8H.8V8.6H.6V8.3H.4v.8H.6v.4H.8v.3H1V10H1v.2H.8v.3H.6v.4H.4v.8H.6v-.3H.8v-.2H1v-.5h.2v.5h.2v.2h.2v.4h.3v.5H1.8V13H1.6v.3H1.4v-.6h.2v-.4H1.4v-.5H1.2v-.5H1v.5H.8v.5H.6v.4H.4v.5H.6v.4H.8v.4H1v.5h.2v.5h.2v-.5h.2v-.5h.2v-.4H2v-.5h.2v.4h.2v.4h.2v.5h.2v.5H3v-.5h.2ZM2.1,11.5H2v-.2H1.9v-.4H1.6v-.4H1.4v-.3H1.2V10h0V9.8h.2V9.5h.2V9.1h.3V8.7H2V8.5h.2v.2h.1v.4h.3v.4h.2v.3H3v.4H2.8v.3H2.6v.4H2.3v.4H2.2v.2Z"/><rect class="cls-1" x="3.6" y="16.5" width="0.2" height="0.56"/><rect class="cls-1" x="2" y="19.2" width="0.2" height="0.56"/><rect class="cls-1" x="2.8" y="17.8" width="0.2" height="0.47"/><rect class="cls-1" x="1.2" y="17.8" width="0.2" height="0.47"/></g></svg>