<svg xmlns="http://www.w3.org/2000/svg" viewBox="0 0 30 20"><defs><style>.cls-1{fill:#28b4c7;}.cls-2{fill:#ffca1d;}.cls-3{fill:#04b0c7;}</style></defs><title>kz</title><g id="Layer_7" data-name="Layer 7"><path class="cls-1" d="M1.3,7.1a.5.5,0,0,1,.5.3c0-.2.2-.3.4-.3s-.4-.1-.4-.3A.5.5,0,0,1,1.3,7.1Z"/><path class="cls-1" d="M1.5,15.8H1.4l.4.2.3-.2h0c-.2,0-.3-.1-.3-.2Z"/><path class="cls-1" d="M2,2.9c-.1-.1-.2.1-.2.1s-.2-.2-.2-.1.1.4.2.6A2.1,2.1,0,0,0,2,2.9Z"/><path class="cls-1" d="M1.6,14.4h.1a.3.3,0,0,1-.3-.3c.1.1.3.1.3-.1v-.4H1.4c-.1,0-.1.1-.1.2v-.2h0v-.2c0,.1,0,.2.1.2h.1a.2.2,0,0,0-.2-.2.3.3,0,0,0-.3.3v.2l.8,1.6.7-1.6v-.2a.3.3,0,0,0-.3-.3c-.1,0-.3.1-.3.2h.1c.2,0,.2-.1.1-.2l.2.2h0l-.2.2c.1-.1.1-.2-.1-.2H1.9v.4c0,.2.2.2.3.1s-.2.3-.4.3h.1v.3C1.7,14.7,1.6,14.5,1.6,14.4Z"/><path class="cls-1" d="M1.8,4l-.4.2h.1l.3.2c0-.1.1-.2.3-.2h0Z"/><path class="cls-1" d="M1,6.6a.3.3,0,0,0,.3.3l.2-.2c0-.1,0-.1-.1-.1s-.1.1-.1.2a.3.3,0,0,1-.1-.2h0c0-.1,0-.1.1-.2s0,.2.1.2h.2V6.1c0-.2-.2-.2-.3-.1a.3.3,0,0,1,.3-.3.1.1,0,0,1-.1-.1c0-.1.1-.3.2-.3v.3c0,.1,0,.1-.1.1s.3.1.4.3-.3-.1-.3.1v.4h.2c.2,0,.2-.1.1-.2s.2.1.2.2h0l-.2.2c.1-.1.1-.2-.1-.2a.1.1,0,0,0-.1.1l.3.2a.3.3,0,0,0,.3-.3V6.4L1.8,4.8,1,6.4Z"/><path class="cls-1" d="M1.6,8.6V8.4c-.2,0-.3,0-.3-.2h.3V7.7H1.4c-.1,0-.1,0-.1.1s-.1,0-.1-.2h0c0-.1,0-.2.1-.2s0,.2.1.2h.1l-.2-.2c-.1,0-.3,0-.3.2v.3l.8,1.5.7-1.5V7.5c0-.2-.2-.2-.3-.2L2,7.5h.1c.2,0,.2-.1.1-.2l.2.2a.1.1,0,0,1,.1.1H2.4c0,.2-.1.2-.2.2s.1-.1-.1-.1H1.9v.4h.3c-.1.2-.2.2-.4.2s.1.1.1.2v.3Z"/><path class="cls-1" d="M1.3,12.9a.5.5,0,0,1,.5.3c0-.2.2-.3.4-.3s-.4-.1-.4-.3A.5.5,0,0,1,1.3,12.9Z"/><path class="cls-1" d="M1.5,10h0l.3.2c0-.1.1-.2.3-.2h0c-.2,0-.3-.1-.3-.2Z"/><path class="cls-1" d="M1.6,17.1h.2s.1.2.2.1a2.1,2.1,0,0,0-.2-.6C1.7,16.7,1.5,17,1.6,17.1Z"/><path class="cls-1" d="M1,12.5c0,.2.2.2.3.2l.2-.2H1.3c-.1,0-.1-.1-.1-.2h0c0-.2,0-.2.1-.2h.3a2.3,2.3,0,0,1,.1-.4H1.4c0-.2.1-.2.3-.2v-.2l.2-.3v.3c0,.1,0,.2-.1.2s.3,0,.4.2H1.9v.4h.2c.2,0,.2,0,.1-.1s.2,0,.2.2h0l-.2.2c.1-.1.1-.2-.1-.2H2l.3.2c.1,0,.3,0,.3-.2s-.1-.2-.1-.3l-.7-1.5L1,12.2Z"/><path class="cls-1" d="M27.4,0H2.6A2.5,2.5,0,0,0,0,2.5v15A2.5,2.5,0,0,0,2.6,20H27.4A2.5,2.5,0,0,0,30,17.5V2.5A2.5,2.5,0,0,0,27.4,0ZM16.6,10.9a2.2,2.2,0,0,1-2.2-2.2,2.2,2.2,0,0,1,4.4,0A2.2,2.2,0,0,1,16.6,10.9Zm.7,1.1-.4-.7a.2.2,0,0,1,.2-.2h.2Zm-.5-.7a4.5,4.5,0,0,1-.2.8,4.5,4.5,0,0,1-.2-.8c0-.1.1-.1.2-.1S16.8,11.2,16.8,11.3Zm-.5,0-.4.7v-.8h.2A.2.2,0,0,1,16.3,11.3ZM14.1,9.5h.2c.1.2,0,.2-.1.3h-.7Zm-.8-.1L14,9l.2.2a.2.2,0,0,1-.2.2Zm1,.6h.3c0,.1,0,.2-.1.2l-.7.3Zm.3.4h.3c.1.1,0,.2,0,.3l-.7.4Zm.4.4c0-.1.1-.1.2-.1a.4.4,0,0,1,.1.3l-.6.5A3.6,3.6,0,0,1,15,10.8Zm.4.3c.1-.1.1-.2.3-.1s.1.1.1.2l-.5.6Zm2.1-.1c.2-.1.2,0,.3.1v.7l-.5-.6C17.4,11.1,17.4,11,17.5,11Zm.5-.3c.1,0,.2,0,.2.1a3.6,3.6,0,0,1,.3.7l-.6-.5A.4.4,0,0,1,18,10.7Zm.3,0v-.3h.3l.4.7Zm.4-.4c-.1,0-.1-.1-.1-.2h.3l.5.6Zm.3-.4c-.1-.1-.2-.1-.1-.3h.2l.6.5Zm.2-.5a.2.2,0,0,1-.2-.2l.2-.2.7.4Zm0-.5c-.1,0-.1-.1-.1-.2s0-.2.1-.2l.8.2Zm0-.5c-.1,0-.2,0-.2-.2l.2-.2h.7Zm-.1-.5c-.1,0-.2,0-.2-.1s0-.2.1-.3h.7Zm-.2-.5h-.3V7.1l.7-.3ZM18.6,7h-.3V6.7l.7-.4Zm-.1-1.1a3.6,3.6,0,0,1-.3.7c0,.1-.1.1-.2.1a.4.4,0,0,1-.1-.3Zm-1.1.3.5-.6v.7c-.1.1-.1.2-.3.1S17.4,6.3,17.4,6.2Zm-.5-.1.4-.7v.8h-.2A.2.2,0,0,1,16.9,6.1Zm-.3-.8a4.5,4.5,0,0,1,.2.8.2.2,0,0,1-.4,0A4.5,4.5,0,0,1,16.6,5.3Zm-.7.1.4.7a.2.2,0,0,1-.2.2h-.2Zm-.1.8c0,.1,0,.2-.1.2s-.2,0-.3-.1V5.6Zm-.5.2a.4.4,0,0,1-.1.3c-.1,0-.2,0-.2-.1a3.6,3.6,0,0,1-.3-.7Zm-.4.3c0,.1.1.2,0,.3h-.3l-.4-.7Zm-.4.4v.2h-.3l-.5-.6Zm-.3.4c.1.1.2.1.1.3s-.1.1-.2.1l-.6-.5ZM14,8l.2.2c0,.2-.1.2-.2.2L13.3,8Zm0,.5c.1,0,.1.1.1.2s0,.2-.1.2l-.8-.2ZM2.8,7.5c0,.2-.1.2-.1.4L1.9,9.4v.2c0,.1.1.2.3.2l.2-.2c0-.2,0-.3-.1-.3l-.2.2h.1c.1,0,0-.1,0-.1h.1v.2h0c-.1,0-.2,0-.2-.2a.3.3,0,0,1,.3-.3h0V8.9h.1c-.1-.2,0-.4.3-.5a.5.5,0,0,0-.2.4c0,.3.2.4.2.7l-.2.3h0l.2.3c0,.3-.2.4-.2.7a.5.5,0,0,0,.2.4c-.3-.1-.4-.3-.3-.5H2.3v-.2h0a.3.3,0,0,1-.3-.3c0-.2.1-.2.2-.2h0v.2H2.2s.1-.1,0-.1H2.1l.2.2c.1,0,.1-.1.1-.3l-.2-.2c-.2,0-.3.1-.3.2v.2l.8,1.5c0,.2.1.2.1.4a.5.5,0,0,1-.5.4.5.5,0,0,1,.5.4c0,.2-.1.3-.1.4l-.8,1.5v.2a.3.3,0,0,0,.3.3c.1,0,.2-.1.2-.3s0-.2-.1-.2-.2,0-.2.1h.1c.1,0,0-.2,0-.2v.2H2.2c-.1,0-.2,0-.2-.2a.3.3,0,0,1,.3-.3h.1c-.1-.2,0-.4.3-.5l-.2.4c0,.4.2.4.2.7l-.2.3a.1.1,0,0,1,.1.1H2.5a.5.5,0,0,1,.2.4c0,.2-.2.3-.2.6a.7.7,0,0,0,.2.4c-.3,0-.4-.2-.3-.4H2.3c0-.1,0,0-.1,0s.1-.1.1-.2-.3-.1-.3-.2.1-.2.2-.2h0c.1,0,.1-.1,0-.1h.2a.1.1,0,0,1-.1.1H2.2s.1-.1,0-.1h.1a.2.2,0,0,0,.2-.2.3.3,0,0,0-.3-.3c-.2,0-.3.1-.3.2s.3.7.3.9l-.2.2H1.6l-.3-.2c0-.2.3-.7.3-.9a.2.2,0,0,0-.2-.2.3.3,0,0,0-.3.3.2.2,0,0,0,.2.2.1.1,0,0,0,.1-.1h0c.1,0,.1,0,.1.2s-.1.3-.3.2.1.1.1.2-.1-.1-.1,0h0c0,.2-.1.4-.3.4a1,1,0,0,0,.1-.4c0-.3-.1-.4-.1-.6a.5.5,0,0,1,.2-.4h0c-.2-.1-.2-.2-.2-.3s.1-.3.1-.7a.8.8,0,0,0-.1-.4.4.4,0,0,1,.2.5h.1a.3.3,0,0,1,.3.3c0,.2-.1.2-.2.2H1.2v-.2s0,.2.1.2h0c0-.1,0-.1-.1-.1s-.2,0-.2.2a.3.3,0,0,0,.3.3c.1,0,.2-.1.2-.3v-.2L.9,13.7c-.1-.1-.1-.2-.1-.4a.4.4,0,0,1,.4-.4.4.4,0,0,1-.4-.4.6.6,0,0,1,.1-.4l.7-1.5v-.2a.2.2,0,0,0-.2-.2c-.2,0-.3.1-.3.2s.1.3.2.3.1-.1.1-.2H1.2v-.2h0c.1,0,.2,0,.2.2a.3.3,0,0,1-.3.3h0v.2H1.1a.4.4,0,0,1-.2.5c.1-.1.1-.2.1-.4s-.1-.4-.1-.7,0-.2.2-.3h0C.9,9.8.9,9.7.9,9.6s.1-.4.1-.7,0-.3-.1-.4a.4.4,0,0,1,.2.5h.2v.2h0a.3.3,0,0,1,.3.3c0,.2-.1.2-.2.2h0V9.6h.2c0-.1,0-.2-.1-.2s-.2.1-.2.3.1.2.3.2a.2.2,0,0,0,.2-.2V9.4L.9,7.9a.6.6,0,0,1-.1-.4.4.4,0,0,1,.4-.4.4.4,0,0,1-.4-.4c0-.2,0-.3.1-.4l.7-1.5V4.6c0-.2-.1-.3-.2-.3a.3.3,0,0,0-.3.3c0,.2.1.2.2.2h.1c-.1,0-.1.2-.1.2s-.1-.1-.1-.2h.1c.1,0,.2,0,.2.2a.3.3,0,0,1-.3.3H1.1a.4.4,0,0,1-.2.5A.8.8,0,0,0,1,5.3c0-.4-.1-.4-.1-.7s0-.2.2-.3h0a.5.5,0,0,1-.2-.4c0-.2.1-.3.1-.6a1,1,0,0,0-.1-.4c.2,0,.3.2.3.4h.1v.2c.2-.1.3.1.3.2s0,.2-.1.2H1.3c-.1,0-.1,0-.1-.1h0c0-.1,0-.1.1-.1h0c.1,0,.1,0,.1-.1a.1.1,0,0,0-.1-.1.2.2,0,0,0-.2.2.3.3,0,0,0,.3.3.2.2,0,0,0,.2-.2c0-.2-.3-.7-.3-.9s.2-.2.3-.2H2a.2.2,0,0,1,.2.2c0,.2-.3.7-.3.9s.1.2.3.2a.3.3,0,0,0,.3-.3.2.2,0,0,0-.2-.2H2.1a.1.1,0,0,0,.1.1c.1,0,0-.1,0-.1s.1,0,.1.1h0c0,.1,0,.1-.1.1s.1-.1,0-.1h0c-.1,0-.2,0-.2-.2s.1-.3.3-.2-.1-.1-.1-.2h.2c-.1-.2,0-.4.3-.4a.7.7,0,0,0-.2.4c0,.3.2.4.2.6a.5.5,0,0,1-.2.4.1.1,0,0,1,.1.1H2.5l.2.3c0,.3-.2.3-.2.7s.1.2.2.4-.4-.3-.3-.5H2.3A.3.3,0,0,1,2,4.7c0-.2.1-.2.2-.2h.1c0,.1,0,.1-.1.2s.1-.2,0-.2a.1.1,0,0,0-.1.1h.2c.1,0,.1,0,.1-.2s-.1-.3-.2-.3a.3.3,0,0,0-.3.3v.2l.8,1.5c0,.1.1.2.1.4a.5.5,0,0,1-.5.4A.5.5,0,0,1,2.8,7.5Zm11.6,5.9L13.2,13c-.3-.2.1-.1,0-.2s-.4,0-.4-.1H13l-.4-.2h.3c-.1,0-.5,0-.6-.2h.4l-.3-.2c-.2-.1-.5-.4-.5-.5s.6.3.5.1-1-.8-.8-1,.8.8.8.6-1-1.3-.8-1.6.7,1.2.8,1.1-.5-1.3-.4-1.5.5,1,.5,1.1V9.5h.1a4,4,0,0,0,4,3.6h-.1l-.3.2s0-.2-.3-.2A1.6,1.6,0,0,0,15,13l-.7-.6c-.3-.2-.3,0-.4-.1s-.4-.6-.7-.9a1.1,1.1,0,0,0-.5-.4h-.2c.1.3.2.3.2.4h-.2l.4.3c.1.1-.2,0-.2.1l.5.2c.1.1-.1,0-.1.1h0l.4.2s-.2,0-.1.1.3,0,.3.1-.2.1-.1.2l1,.4h-.2Zm4.5.7v.2H15.9l.2-.2h.2a2.5,2.5,0,0,0,1.3-.2h.3c.1,0,.1-.1.1-.2h.1a4.9,4.9,0,0,1,1.4.1C19.5,14.2,18.9,14.1,18.9,14.1Zm2.6-3.5c.2.2-.8,1-.8,1s.6-.3.6-.1l-.5.5h-.2c-.1.1.2,0,.2.1s-.3.1-.4.2.2.1.2.1l-.5.2s.2,0,.2.1h-.5c-.1.1.5.1,0,.2l-.7.2h-.8c-.1-.1.4-.1.4-.1h.4l.3-.2c.1,0,0-.1,0-.1h.2v-.2h.2l.3-.2c0-.1-.1-.1,0-.1l.4-.3h-.2l.3-.4h-.2c0-.1.1-.2.1-.4h-.2l-.4.3-.6.9a2.2,2.2,0,0,0-1.2.7H16.8l-.9.5h.3l-.2.2h-.7s0,.2-.1.1V14l.4-.3.5-.2c.4-.3.6-.5,1-.5a4.3,4.3,0,0,0,3.4-3.6h.1c.1.1,0,.8,0,.7s.2-.3.3-.6.2-.5.3-.4a7.6,7.6,0,0,1-.6,1.6c.1.2,1-1.4,1-1.3s-.9,1.6-.9,1.7S21.4,10.5,21.5,10.6Z"/><path class="cls-2" d="M2.2,12.9c-.2,0-.4.1-.4.3v1.2H1.8c.2,0,.3-.1.4-.3s-.3.1-.3-.1v-.4h.2c.2,0,.2.1.1.2l.2-.2h0l-.2-.2c.1.1.1.2-.1.2H2c0-.1.2-.2.3-.2a.3.3,0,0,1,.3.3v.2l-.7,1.6a.5.5,0,0,1,0,.4c0,.1.1.2.3.2h.5a.1.1,0,0,0-.1-.1l.2-.3c0-.3-.2-.3-.2-.7l.2-.4c-.3.1-.4.3-.3.5H2.3a.3.3,0,0,0-.3.3c0,.2.1.2.2.2h.1v-.2s.1.2,0,.2H2.1c0-.1.1-.1.2-.1s.1,0,.1.2-.1.3-.2.3a.3.3,0,0,1-.3-.3v-.2l.8-1.5c0-.1.1-.2.1-.4a.5.5,0,0,0-.5-.4H2.2Z"/><path class="cls-2" d="M1.4,15.8h.1l.3-.2a.5.5,0,0,0,0-.4L1,13.6v-.2a.3.3,0,0,1,.3-.3.2.2,0,0,1,.2.2H1.4c-.1,0-.1-.1-.1-.2v.2h0v.2c0-.1,0-.2.1-.2h.2v.4c0,.2-.2.2-.3.1a.3.3,0,0,0,.3.3H1.6c0,.1.1.3.2.3V13.2a.5.5,0,0,0-.5-.3H1.2a.4.4,0,0,0-.4.4c0,.2,0,.3.1.4l.7,1.5v.2c0,.2-.1.3-.2.3a.3.3,0,0,1-.3-.3c0-.2.1-.2.2-.2s.1,0,.1.1h0c-.1,0-.1-.2-.1-.2v.2h.1c.1,0,.2,0,.2-.2a.3.3,0,0,0-.3-.3H1.1a.4.4,0,0,0-.2-.5.8.8,0,0,1,.1.4c0,.4-.1.4-.1.7s0,.2.2.3h.3Z"/><path class="cls-2" d="M2.2,15.8H2.1l-.3.2v.5a2.1,2.1,0,0,1,.2.6c-.1.1-.2-.1-.2-.1H2l.2-.2c0-.2-.3-.7-.3-.9s.1-.2.3-.2a.3.3,0,0,1,.3.3.2.2,0,0,1-.2.2H2.2c.1,0,0,.1,0,.1h.1a.1.1,0,0,0,.1-.1H2.2c.1,0,.1.1,0,.1h0c-.1,0-.2,0-.2.2s.1.3.3.2-.1.1-.1.2.1-.1.1,0h.1c-.1.2,0,.4.3.4a.7.7,0,0,1-.2-.4c0-.3.2-.4.2-.6a.5.5,0,0,0-.2-.4H2.2Z"/><path class="cls-2" d="M1.9,17.1H1.6c-.1-.1.1-.4.2-.6V16l-.4-.2H1.1a.5.5,0,0,0-.2.4c0,.2.1.3.1.6a1,1,0,0,1-.1.4c.2,0,.3-.2.3-.4h0c0-.1.1,0,.1,0s0-.1-.1-.2.3-.1.3-.2,0-.2-.1-.2h0a.1.1,0,0,1-.1.1.2.2,0,0,1-.2-.2.3.3,0,0,1,.3-.3.2.2,0,0,1,.2.2c0,.2-.3.7-.3.9l.3.2h.3Z"/><path class="cls-2" d="M2.2,7.1c-.2,0-.4.1-.4.3V8.6c0-.1,0-.2-.1-.2s.3,0,.4-.2H1.9V7.7h.2c.2,0,.2,0,.1.1s.2,0,.2-.2h.1a.1.1,0,0,0-.1-.1l-.2-.2c.1.1.1.2-.1.2H2l.3-.2c.1,0,.3,0,.3.2v.3L1.8,9.3c.1.2,0,.4,0,.5s.1.2.3.2h.4l.2-.3c0-.3-.2-.4-.2-.7a.5.5,0,0,1,.2-.4c-.3.1-.4.3-.3.5H2.3v.2h0a.3.3,0,0,0-.3.3c0,.2.1.2.2.2h0V9.6H2.2s.1.1,0,.1H2.1l.2-.2c.1,0,.1.1.1.3l-.2.2c-.2,0-.3-.1-.3-.2V9.4l.8-1.5c0-.2.1-.2.1-.4a.5.5,0,0,0-.5-.4H2.2Z"/><path class="cls-2" d="M1.5,10h0l.3-.2c0-.1.1-.3,0-.5L1,7.8V7.5c0-.2.2-.2.3-.2l.2.2H1.4c-.1,0-.1-.1-.1-.2s-.1.1-.1.2h0c0,.2,0,.2.1.2s0-.1.1-.1h.2v.4H1.4c0,.2.1.2.3.2v.2l.2.3V7.4a.5.5,0,0,0-.5-.3H1.2a.4.4,0,0,0-.4.4.6.6,0,0,0,.1.4l.7,1.5v.2a.2.2,0,0,1-.2.2c-.2,0-.3-.1-.3-.2s.1-.3.2-.3.1.1.1.2H1.2v.2h0c.1,0,.2,0,.2-.2a.3.3,0,0,0-.3-.3h0V8.9H1.1a.4.4,0,0,0-.2-.5c.1.1.1.2.1.4s-.1.4-.1.7,0,.2.2.3h.4Z"/><path class="cls-2" d="M1.3,7.1a.5.5,0,0,0,.5-.3.3.3,0,0,1-.1-.2V5.3c-.1,0-.2.2-.2.3a.1.1,0,0,0,.1.1.3.3,0,0,0-.3.3c.1-.1.3-.1.3.1v.4H1.4c-.1,0-.1-.1-.1-.2s-.1.1-.1.2h0a.3.3,0,0,0,.1.2c0-.1,0-.2.1-.2s.1,0,.1.1l-.2.2A.3.3,0,0,1,1,6.6V6.4l.8-1.6c-.1-.2-.1-.4,0-.4l-.3-.2H1.1c-.2.1-.2.2-.2.3s.1.3.1.7a.8.8,0,0,1-.1.4.4.4,0,0,0,.2-.5h.1a.3.3,0,0,0,.3-.3c0-.2-.1-.2-.2-.2H1.2c0,.1,0,.1.1.2s0-.2.1-.2H1.3c-.1,0-.2,0-.2-.2a.3.3,0,0,1,.3-.3c.1,0,.2.1.2.3v.2L.9,6.3c-.1.1-.1.2-.1.4a.4.4,0,0,0,.4.4Z"/><path class="cls-2" d="M2.8,6.7c0-.2-.1-.3-.1-.4L1.9,4.8V4.6a.3.3,0,0,1,.3-.3c.1,0,.2.1.2.3s0,.2-.1.2H2.1a.1.1,0,0,1,.1-.1c.1,0,0,.2,0,.2s.1-.1.1-.2H2.2c-.1,0-.2,0-.2.2a.3.3,0,0,0,.3.3h.1c-.1.2,0,.4.3.5s-.2-.3-.2-.4.2-.4.2-.7l-.2-.3H2.1c-.2,0-.3.1-.3.2s-.1.2,0,.4l.7,1.6v.2a.3.3,0,0,1-.3.3L2,6.7a.1.1,0,0,1,.1-.1c.2,0,.2.1.1.2l.2-.2h0c0-.1-.1-.1-.2-.2s.1.2-.1.2H1.9V6.1c0-.2.2-.2.3-.1s-.2-.3-.4-.3.1,0,.1-.1v1a.3.3,0,0,0,.1.2c0,.2.2.3.4.3h.1A.5.5,0,0,0,2.8,6.7Z"/><path class="cls-2" d="M1.3,12.9a.5.5,0,0,0,.5-.3V11.1l-.2.3v.2c-.2,0-.3,0-.3.2h.3a2.3,2.3,0,0,0-.1.4H1.3c-.1,0-.1,0-.1.2h0c0,.1,0,.2.1.2h.2l-.2.2c-.1,0-.3,0-.3-.2v-.3l.8-1.5a.4.4,0,0,1,0-.5L1.5,10H1.1c-.2.1-.2.2-.2.3s.1.4.1.7,0,.3-.1.4a.4.4,0,0,0,.2-.5h.2v-.2h0a.3.3,0,0,0,.3-.3c0-.2-.1-.2-.2-.2h0v.2h.2c0,.1,0,.2-.1.2s-.2-.1-.2-.3.1-.2.3-.2a.2.2,0,0,1,.2.2v.2L.9,12.1a.6.6,0,0,0-.1.4.4.4,0,0,0,.4.4Z"/><path class="cls-2" d="M2.1,10h0c-.2,0-.3.1-.3.2a.4.4,0,0,0,0,.5l.7,1.5c0,.1.1.2.1.3s-.2.2-.3.2L2,12.5h.1c.2,0,.2.1.1.2l.2-.2h0c0-.2-.1-.2-.2-.2s.1.1-.1.1H1.9v-.4h.3c-.1-.2-.2-.2-.4-.2s.1-.1.1-.2v1.2c0,.2.2.3.4.3h.1a.5.5,0,0,0,.5-.4c0-.2-.1-.2-.1-.4l-.8-1.5v-.2c0-.1.1-.2.3-.2l.2.2c0,.2,0,.3-.1.3l-.2-.2h.1c.1,0,0,.1,0,.1h.1v-.2h0c-.1,0-.2,0-.2.2a.3.3,0,0,0,.3.3h0v.2h.1c-.1.2,0,.4.3.5a.5.5,0,0,1-.2-.4c0-.3.2-.4.2-.7l-.2-.3H2.1Z"/><path class="cls-2" d="M1.9,2.9H1.8s.1-.2.2-.1a2.1,2.1,0,0,1-.2.6V4l.3.2h.5a.1.1,0,0,0-.1-.1.5.5,0,0,0,.2-.4c0-.2-.2-.3-.2-.6a.7.7,0,0,1,.2-.4c-.3,0-.4.2-.3.4H2.2c0,.1.1.1.1.2s-.3.1-.3.2.1.2.2.2h0c.1,0,.1.1,0,.1s.1,0,.1-.1h0c0-.1,0-.1-.1-.1s.1.1,0,.1a.1.1,0,0,1-.1-.1h.2a.2.2,0,0,1,.2.2.3.3,0,0,1-.3.3c-.2,0-.3-.1-.3-.2s.3-.7.3-.9A.2.2,0,0,0,2,2.7H1.9Z"/><path class="cls-2" d="M1.4,4.2h0L1.8,4V3.5c-.1-.2-.3-.5-.2-.6s.2.1.2.1H1.6c-.1,0-.3.1-.3.2s.3.7.3.9a.2.2,0,0,1-.2.2.3.3,0,0,1-.3-.3.2.2,0,0,1,.2-.2.1.1,0,0,1,.1.1c0,.1,0,.1-.1.1h0c-.1,0-.1,0-.1.1h0c0,.1,0,.1.1.1h.1c.1,0,.1,0,.1-.2s-.1-.3-.3-.2V3.2H1.2c0-.2-.1-.4-.3-.4a1,1,0,0,1,.1.4c0,.3-.1.4-.1.6a.5.5,0,0,0,.2.4h.3Z"/><path class="cls-3" d="M1.4,12.5h0Z"/><path class="cls-2" d="M14.6,13.4l-1-.4c-.1-.1.2-.1.1-.2s-.2,0-.3-.1.1-.1.1-.1l-.4-.2h0c0-.1.2,0,.1-.1l-.5-.2c0-.1.3,0,.2-.1l-.4-.3h.2c0-.1-.1-.1-.2-.4h.2a1.1,1.1,0,0,1,.5.4c.3.3.4.7.7.9s.1-.1.4.1l.7.6a1.6,1.6,0,0,1,.9.1c.3,0,.3.2.3.2l.3-.2h.1a4,4,0,0,1-4-3.6h-.1v.7c0-.1-.4-1.2-.5-1.1s.4,1.4.4,1.5-.8-1.2-.8-1.1.8,1.6.8,1.6-.8-.6-.8-.6.8,1,.8,1-.5-.3-.5-.1.3.4.5.5l.3.2h-.4c.1.2.5.2.6.2h-.3l.4.2h-.2c0,.1.3.1.4.1s-.3,0,0,.2l1.2.4h.2Z"/><path class="cls-2" d="M18,13.7c0,.1,0,.2-.1.2h-.3a2.5,2.5,0,0,1-1.3.2h-.2l-.2.2h2.9v-.2s.6.1.6-.3a4.9,4.9,0,0,0-1.4-.1Z"/><path class="cls-2" d="M21.6,9.5c0-.1-.9,1.5-1,1.3a7.6,7.6,0,0,0,.6-1.6c-.1-.1-.2.1-.3.4s-.2.6-.3.6.1-.6,0-.7h-.1A4.3,4.3,0,0,1,17.1,13c-.4,0-.6.2-1,.5l-.5.2-.4.3v.2c.1.1.1-.1.1-.1H16l.2-.2h-.3l.9-.5h1.3a2.2,2.2,0,0,1,1.2-.7l.6-.9.4-.3h.2c0,.2-.1.3-.1.4h.2l-.3.4h.2l-.4.3c-.1,0,0,0,0,.1l-.3.2h-.2v.2h-.2s.1.1,0,.1l-.3.2h-.4s-.5,0-.4.1h.8l.7-.2c.5-.1-.1-.1,0-.2h.5c0-.1-.2-.1-.2-.1l.5-.2s-.3,0-.2-.1.4-.1.4-.2-.3,0-.2-.1h.2l.5-.5c0-.2-.6.4-.6.1s1-.8.8-1-.7.7-.8.6S21.8,9.9,21.6,9.5Zm-5.9,4.4h0Z"/><path class="cls-3" d="M15.7,13.9h0Z"/><path class="cls-2" d="M17.1,6.3h.2V5.4l-.4.7A.2.2,0,0,0,17.1,6.3Z"/><path class="cls-2" d="M17.5,6.4c.2.1.2,0,.3-.1V5.6l-.5.6C17.4,6.3,17.4,6.4,17.5,6.4Z"/><path class="cls-2" d="M18,6.7c.1,0,.2,0,.2-.1a3.6,3.6,0,0,0,.3-.7l-.6.5A.4.4,0,0,0,18,6.7Z"/><path class="cls-2" d="M18.3,7h.3l.4-.7-.7.4Z"/><path class="cls-2" d="M18.6,7.3h.3l.5-.6-.7.3Z"/><path class="cls-2" d="M18.9,7.8c0,.1.1.1.2.1l.6-.5H19C18.9,7.6,18.8,7.6,18.9,7.8Z"/><path class="cls-2" d="M19.2,8l-.2.2c0,.2.1.2.2.2l.7-.4Z"/><path class="cls-2" d="M19.2,8.5c-.1,0-.1.1-.1.2s0,.2.1.2l.8-.2Z"/><path class="cls-2" d="M19.2,9l-.2.2a.2.2,0,0,0,.2.2h.7Z"/><path class="cls-2" d="M19.1,9.5h-.2c-.1.2,0,.2.1.3h.7Z"/><path class="cls-2" d="M18.9,10h-.3c0,.1,0,.2.1.2l.7.3Z"/><path class="cls-2" d="M18.6,10.4h-.3v.3l.7.4Z"/><path class="cls-2" d="M18.5,11.5a3.6,3.6,0,0,0-.3-.7c0-.1-.1-.1-.2-.1a.4.4,0,0,0-.1.3Z"/><path class="cls-2" d="M17.9,11.8v-.7c-.1-.1-.1-.2-.3-.1s-.1.1-.1.2Z"/><path class="cls-2" d="M15.3,11a.4.4,0,0,0-.1-.3c-.1,0-.2,0-.2.1a3.6,3.6,0,0,0-.3.7Z"/><path class="cls-2" d="M14.9,10.4h-.3l-.4.7.7-.4C14.9,10.6,15,10.5,14.9,10.4Z"/><path class="cls-2" d="M14.6,10.1h-.3l-.5.6.7-.3C14.6,10.3,14.6,10.2,14.6,10.1Z"/><path class="cls-2" d="M14.3,9.6h-.2l-.6.5h.7C14.3,9.8,14.4,9.8,14.3,9.6Z"/><path class="cls-2" d="M14.2,9.2,14,9l-.7.4H14A.2.2,0,0,0,14.2,9.2Z"/><path class="cls-2" d="M14.1,8.7c0-.1,0-.2-.1-.2l-.8.2.8.2C14.1,8.9,14.1,8.8,14.1,8.7Z"/><path class="cls-2" d="M14.2,8.2,14,8h-.7l.7.4C14.1,8.4,14.2,8.4,14.2,8.2Z"/><path class="cls-2" d="M14.3,7.8c.1-.2,0-.2-.1-.3h-.7l.6.5C14.2,7.9,14.3,7.9,14.3,7.8Z"/><path class="cls-2" d="M14.3,7.4h.3V7.1l-.7-.3Z"/><path class="cls-2" d="M14.9,7c.1-.1,0-.2,0-.3l-.7-.4.4.7Z"/><path class="cls-2" d="M18.8,8.7a2.2,2.2,0,0,0-4.4,0,2.2,2.2,0,0,0,4.4,0Z"/><path class="cls-2" d="M16.6,6.3a.2.2,0,0,0,.2-.2,4.5,4.5,0,0,0-.2-.8,4.5,4.5,0,0,0-.2.8A.2.2,0,0,0,16.6,6.3Z"/><path class="cls-2" d="M17.1,11.1a.2.2,0,0,0-.2.2l.4.7v-.8Z"/><path class="cls-2" d="M16.4,11.3a4.5,4.5,0,0,0,.2.8,4.5,4.5,0,0,0,.2-.8c0-.1-.1-.1-.2-.1S16.4,11.2,16.4,11.3Z"/><path class="cls-2" d="M15.9,11.2V12l.4-.7a.2.2,0,0,0-.2-.2Z"/><path class="cls-2" d="M15.7,11c-.2-.1-.2,0-.3.1v.7l.5-.6C15.8,11.1,15.8,11,15.7,11Z"/><path class="cls-2" d="M15.2,6.7a.4.4,0,0,0,.1-.3l-.6-.5a3.6,3.6,0,0,0,.3.7C15,6.7,15.1,6.7,15.2,6.7Z"/><path class="cls-2" d="M15.7,6.4c.1,0,.1-.1.1-.2l-.5-.6v.7C15.5,6.4,15.5,6.5,15.7,6.4Z"/><path class="cls-2" d="M16.1,6.3a.2.2,0,0,0,.2-.2l-.4-.7v.8Z"/></g></svg>