<svg xmlns="http://www.w3.org/2000/svg" viewBox="0 0 30 20"><defs><style>.cls-1{fill:#e72e3f;}.cls-2{fill:#fdee14;}.cls-3{fill:#e71d2f;}</style></defs><title>kg</title><g id="Layer_4" data-name="Layer 4"><path class="cls-1" d="M27.5,0H2.5A2.5,2.5,0,0,0,0,2.5v15A2.5,2.5,0,0,0,2.5,20h25A2.5,2.5,0,0,0,30,17.5V2.5A2.5,2.5,0,0,0,27.5,0ZM18.6,10.3c.8-.1,1.5.7,2.4.6-.7.5-1.7-.2-2.5-.1h0c.8.1,1.4,1,2.2,1.1s-1.6-.6-2.3-.5h-.1c.8.2,1.3,1.1,2.1,1.3-.8.3-1.5-.7-2.3-.8h0c.7.3,1,1.3,1.8,1.6-.8.2-1.4-1-2.1-1.2h0c.6.4.8,1.5,1.5,1.9s-1.2-1.1-1.9-1.5h0c.5.5.5,1.6,1.1,2.2s-.9-1.4-1.6-1.8h0c.5.5.3,1.6.8,2.2s-.7-1.4-1.3-2h0c.4.7,0,1.7.5,2.4s-.6-1.6-1.1-2.2h0c.3.7-.2,1.7.1,2.4s-.2-1.6-.6-2.3h0c.2.7-.5,1.6-.3,2.4s0-1.7-.3-2.4h0c.1.8-.7,1.5-.6,2.3s.2-1.6.1-2.4h0c-.1.8-1,1.4-1.1,2.2s.6-1.6.5-2.4h0c-.2.8-1.2,1.2-1.3,2-.3-.7.7-1.4.8-2.2h0c-.3.7-1.3,1-1.6,1.8-.2-.8.9-1.4,1.1-2.2h0c-.3.7-1.4.8-1.9,1.5s1.2-1.1,1.5-1.9h0c-.4.6-1.5.6-2.1,1.2s1.4-1,1.8-1.6h0c-.6.5-1.6.3-2.3.8s1.5-.7,2.1-1.3h-.1c-.6.4-1.6,0-2.3.5s1.6-.6,2.2-1.1h0c-.7.3-1.7-.2-2.5.1s1.7-.2,2.4-.6h0c-.8.2-1.6-.5-2.4-.3s1.6,0,2.4-.3h0c-.8.1-1.5-.7-2.4-.6.7-.5,1.7.2,2.5.1h0c-.8-.1-1.4-1-2.2-1.1s1.6.6,2.3.5h.1c-.8-.2-1.3-1.1-2.1-1.3.8-.3,1.5.7,2.3.8h0c-.7-.3-1-1.3-1.8-1.6.8-.2,1.4,1,2.1,1.2h0c-.6-.4-.8-1.5-1.5-1.9.8-.1,1.2,1.1,1.9,1.5h0c-.5-.5-.5-1.6-1.1-2.2s.9,1.4,1.6,1.8h0c-.5-.5-.3-1.6-.8-2.2s.7,1.4,1.3,2h0c-.4-.7,0-1.7-.5-2.4s.6,1.6,1.1,2.2h0c-.3-.7.2-1.7-.1-2.4s.2,1.6.6,2.3h0c-.2-.7.5-1.6.3-2.4s0,1.7.3,2.4h0c-.1-.8.7-1.5.6-2.3s-.2,1.6-.1,2.4h0c.1-.8,1-1.4,1.1-2.2.4.7-.6,1.6-.5,2.4h0c.2-.8,1.2-1.2,1.3-2,.3.7-.7,1.4-.8,2.2h0c.3-.7,1.3-1,1.6-1.8.2.8-.9,1.4-1.1,2.2h0c.3-.7,1.4-.8,1.9-1.5,0,.8-1.2,1.1-1.5,1.9h0c.4-.6,1.5-.6,2.1-1.2s-1.4,1-1.8,1.6h0c.6-.5,1.6-.3,2.3-.8s-1.5.7-2.1,1.3h.1c.6-.4,1.6,0,2.3-.5s-1.6.6-2.2,1.1h0c.7-.3,1.7.2,2.5-.1s-1.7.2-2.4.6h0c.8-.2,1.6.5,2.4.3s-1.6,0-2.4.3Z"/><path class="cls-2" d="M15.3,6.4h0c-.3-.7.3-1.9-.3-2.4s-.5,1.7-.3,2.4h.6Z"/><path class="cls-2" d="M15.8,6.5c-.1-.8.7-1.8.1-2.4s-.7,1.5-.6,2.3h.5Z"/><path class="cls-2" d="M16.4,6.7c-.1-.8.9-1.7.5-2.4-.1.8-1,1.4-1.1,2.2h0l.6.2Z"/><path class="cls-2" d="M16.9,6.9c.1-.8,1.1-1.5.8-2.2-.1.8-1.1,1.2-1.3,2h0l.5.2Z"/><path class="cls-2" d="M17.4,7.3c.2-.8,1.3-1.4,1.1-2.2-.3.8-1.3,1.1-1.6,1.8h0a.8.8,0,0,1,.4.4Z"/><path class="cls-2" d="M17.8,7.7h0c.3-.8,1.5-1.1,1.5-1.9-.5.7-1.6.8-1.9,1.5h0Z"/><path class="cls-2" d="M18.1,8.1c.4-.6,1.7-.8,1.8-1.6s-1.7.6-2.1,1.2h0l.3.4Z"/><path class="cls-2" d="M18.3,8.6c.6-.6,1.9-.5,2.1-1.3s-1.7.3-2.3.8h0l.2.5Z"/><path class="cls-2" d="M18.5,9.2c.6-.5,1.9-.3,2.2-1.1s-1.7.1-2.3.5h-.1a1.4,1.4,0,0,1,.2.6Z"/><path class="cls-2" d="M18.6,9.7c.7-.4,1.9,0,2.4-.6s-1.8-.2-2.5.1h0a.7.7,0,0,1,.1.5Z"/><path class="cls-2" d="M18.6,10.3h0c.8-.3,1.9.3,2.4-.3s-1.6-.5-2.4-.3h0v.6Z"/><path class="cls-2" d="M18.5,10.8c.8-.1,1.8.6,2.5.1-.9.1-1.6-.7-2.4-.6h0a.7.7,0,0,1-.1.5Z"/><path class="cls-2" d="M18.4,11.4c.7-.1,1.6.9,2.3.5s-1.4-1-2.2-1.1h0a1.4,1.4,0,0,1-.2.6Z"/><path class="cls-2" d="M18.1,11.9c.8.1,1.5,1.1,2.3.8-.8-.2-1.3-1.1-2.1-1.3h0c0,.2-.1.3-.2.5Z"/><path class="cls-2" d="M17.8,12.3c.7.2,1.3,1.4,2.1,1.2-.8-.3-1.1-1.3-1.8-1.6h0l-.4.4Z"/><path class="cls-2" d="M17.3,12.7h.1c.7.4,1.1,1.6,1.9,1.5s-.9-1.5-1.5-1.9h-.1A.8.8,0,0,1,17.3,12.7Z"/><path class="cls-2" d="M16.9,13.1h0c.7.4.8,1.7,1.6,1.8s-.6-1.7-1.1-2.2h-.1Z"/><path class="cls-2" d="M16.4,13.3h0c.6.6.6,1.8,1.3,2s-.3-1.7-.8-2.2h0Z"/><path class="cls-2" d="M15.8,13.5h0c.5.6.3,1.9,1.1,2.2s-.1-1.7-.5-2.4h0Z"/><path class="cls-2" d="M15.3,13.6c.4.7,0,1.9.6,2.3s.2-1.7-.1-2.4h-.5Z"/><path class="cls-2" d="M14.7,13.6h0c.3.7-.3,1.9.3,2.4s.5-1.7.3-2.4h-.6Z"/><path class="cls-2" d="M14.2,13.5c.1.8-.7,1.8-.1,2.4s.7-1.5.6-2.3h-.5Z"/><path class="cls-2" d="M13.6,13.3h0c.1.8-.9,1.7-.5,2.4s1-1.4,1.1-2.2h0Z"/><path class="cls-2" d="M13.1,13.1h0c-.1.8-1.1,1.5-.8,2.2s1.1-1.2,1.3-2h0Z"/><path class="cls-2" d="M12.7,12.7h-.1c-.2.8-1.3,1.4-1.1,2.2.3-.8,1.3-1.1,1.6-1.8h0Z"/><path class="cls-2" d="M12.2,12.3h0c-.3.8-1.5,1.1-1.5,1.9s1.6-.8,1.9-1.5h0Z"/><path class="cls-2" d="M11.9,11.9c-.4.6-1.7.8-1.8,1.6s1.7-.6,2.1-1.2h0l-.3-.4Z"/><path class="cls-2" d="M11.7,11.4c-.6.6-1.9.5-2.1,1.3s1.7-.3,2.3-.8h0l-.2-.5Z"/><path class="cls-2" d="M11.5,10.8c-.6.5-1.9.3-2.2,1.1s1.7-.1,2.3-.5h.1a1.4,1.4,0,0,1-.2-.6Z"/><path class="cls-2" d="M11.4,10.3c-.7.4-1.9,0-2.4.6s1.8.2,2.5-.1h0a.7.7,0,0,1-.1-.5Z"/><path class="cls-2" d="M11.4,9.7h0c-.8.3-1.9-.3-2.4.3s1.6.5,2.4.3h0V9.7Z"/><path class="cls-2" d="M11.5,9.2c-.8.1-1.8-.6-2.5-.1.9-.1,1.6.7,2.4.6h0a.7.7,0,0,1,.1-.5Z"/><path class="cls-2" d="M11.6,8.6c-.7.1-1.6-.9-2.3-.5s1.4,1,2.2,1.1h0a1.4,1.4,0,0,1,.2-.6Z"/><path class="cls-2" d="M11.9,8.1C11.1,8,10.4,7,9.6,7.3c.8.2,1.3,1.1,2.1,1.3h0c0-.2.1-.3.2-.5Z"/><path class="cls-2" d="M12.2,7.7c-.7-.2-1.3-1.4-2.1-1.2.8.3,1.1,1.3,1.8,1.6h0c.1-.1.2-.3.4-.4Z"/><path class="cls-2" d="M12.7,7.3h-.1c-.7-.4-1.1-1.6-1.9-1.5.7.4.9,1.5,1.5,1.9h.1Z"/><path class="cls-2" d="M13.1,6.9c-.7-.4-.8-1.7-1.6-1.8s.6,1.7,1.1,2.2h.1l.4-.4Z"/><path class="cls-2" d="M13.6,6.7c-.6-.6-.6-1.8-1.3-2s.3,1.7.8,2.2h0l.5-.2Z"/><path class="cls-2" d="M14.2,6.5c-.5-.6-.3-1.9-1.1-2.2s.1,1.7.5,2.4h0l.6-.2Z"/><path class="cls-2" d="M14.7,6.4c-.4-.7,0-1.9-.6-2.3s-.2,1.7.1,2.4h.5Z"/><path class="cls-3" d="M18.6,10V9.7h0a.7.7,0,0,0-.1-.5h0a1.4,1.4,0,0,0-.2-.6h0l-.2-.5h0l-.3-.4h0l-.4-.4h-.1a.8.8,0,0,0-.4-.4h0l-.5-.2h0l-.6-.2H14.2l-.6.2h0l-.5.2h0l-.4.4h0l-.4.4h0c-.2.1-.3.3-.4.4h0c-.1.2-.2.3-.2.5h0a1.4,1.4,0,0,0-.2.6h0a.7.7,0,0,0-.1.5h0v.6h0a.7.7,0,0,0,.1.5h0a1.4,1.4,0,0,0,.2.6h0l.2.5h0l.3.4h0l.4.4h.1l.4.4h0l.5.2h0l.6.2h1.6l.6-.2h0l.5-.2h0l.4-.4h0a.8.8,0,0,0,.4-.4h0l.4-.4h0c.1-.2.2-.3.2-.5h0a1.4,1.4,0,0,0,.2-.6h0a.7.7,0,0,0,.1-.5h0ZM15,12.5l-1.1-.2h0l-.4-.2h0l-.2-.2h0l-.4-.4h0l-.2-.3h0a.8.8,0,0,1-.2-.5h0a2.9,2.9,0,0,1-.2-.9,3.3,3.3,0,0,1,.4-1.4h0a.1.1,0,0,1,.1-.1h.1V7.9h.1c.1-.1.2-.1.2-.2h.1a2.8,2.8,0,0,1,3.2,0h.1c0,.1.1.1.2.2H17v.2h.1a.1.1,0,0,1,.1.1h0a3.3,3.3,0,0,1,.4,1.4,2.9,2.9,0,0,1-.2.9h0a.8.8,0,0,1-.2.5h0l-.2.3h0l-.4.4h0l-.2.2h0l-.4.2h0Z"/><path class="cls-2" d="M14.4,8.9h-.2a4.7,4.7,0,0,0-1.5,2.4l.2.3A4.6,4.6,0,0,1,14.4,8.9Z"/><path class="cls-2" d="M15,9.4a3.9,3.9,0,0,0-1.1,2.7v.2l1.1.2,1.1-.2v-.2A3.9,3.9,0,0,0,15,9.4Z"/><path class="cls-2" d="M14.8,9.2h-.2a4.6,4.6,0,0,0-1.3,2.8l.2.2A4.1,4.1,0,0,1,14.8,9.2Z"/><path class="cls-2" d="M14.7,8.1l-1.5-.3h-.1a3.2,3.2,0,0,1,1.4.3Z"/><path class="cls-2" d="M14.2,8.4a2.8,2.8,0,0,0-1.3-.3h0l1.2.3Z"/><path class="cls-2" d="M15.5,8.2a3.2,3.2,0,0,1,1.4-.3h-.1l-1.5.3Z"/><path class="cls-2" d="M16.6,7.6a2.8,2.8,0,0,0-3.2,0A4.2,4.2,0,0,1,15,8,4.2,4.2,0,0,1,16.6,7.6Z"/><path class="cls-2" d="M13.9,8.7l-1.2-.3a3.3,3.3,0,0,0-.4,1.4,2.9,2.9,0,0,0,.2.9A3.5,3.5,0,0,1,13.9,8.7Z"/><path class="cls-2" d="M15.8,8.8h-.2a4.6,4.6,0,0,1,1.5,2.6l.2-.3A4.7,4.7,0,0,0,15.8,8.8Z"/><path class="cls-2" d="M15,8.3h0Z"/><path class="cls-2" d="M15.4,9.1h-.2a4.1,4.1,0,0,1,1.3,2.9l.2-.2A4.6,4.6,0,0,0,15.4,9.1Z"/><path class="cls-2" d="M15.9,8.5a2.7,2.7,0,0,1,1.2-.3h0a2.8,2.8,0,0,0-1.3.3Z"/><path class="cls-2" d="M15.5,8.5h-.2c0,.1.1.1.1.2l.2-.2Z"/><path class="cls-2" d="M14.5,8.5h-.1l.2.2c0-.1.1-.1.1-.2Z"/><path class="cls-2" d="M15,8.8h-.2l.2.2.2-.2Z"/><path class="cls-2" d="M17.5,10.7a2.9,2.9,0,0,0,.2-.9,3.3,3.3,0,0,0-.4-1.4l-1.2.3A3.5,3.5,0,0,1,17.5,10.7Z"/><path class="cls-3" d="M15.6,8.6l-.2.2h.4C15.7,8.8,15.7,8.7,15.6,8.6Z"/><path class="cls-3" d="M15.2,8.9l-.2.2h.4Z"/><path class="cls-3" d="M15,9.4l-.2-.2a4.1,4.1,0,0,0-1.3,2.9h0l.4.2h0v-.2A3.9,3.9,0,0,1,15,9.4Z"/><path class="cls-3" d="M16.1,8.7l1.2-.3h0a.1.1,0,0,0-.1-.1h-.1a2.7,2.7,0,0,0-1.2.3Z"/><path class="cls-3" d="M15.8,8.4a2.8,2.8,0,0,1,1.3-.3h0V7.9h-.1a3.2,3.2,0,0,0-1.4.3Z"/><path class="cls-3" d="M15.2,8.4h0Z"/><path class="cls-3" d="M14.6,9.1l-.2-.2a4.6,4.6,0,0,0-1.5,2.6h0l.4.4h0A4.6,4.6,0,0,1,14.6,9.1Z"/><path class="cls-3" d="M14.7,8.6c0,.1-.1.1-.1.2H15Z"/><path class="cls-3" d="M14.2,8.8h-.3a3.5,3.5,0,0,0-1.4,2h0a.8.8,0,0,0,.2.5h0A4.7,4.7,0,0,1,14.2,8.8Z"/><path class="cls-3" d="M14.7,8.1h-.2l.3.2H15Z"/><path class="cls-3" d="M14.2,8.4h0Z"/><path class="cls-3" d="M15.3,8.1l1.5-.3h.1c-.1-.1-.2-.1-.2-.2h-.1A4.2,4.2,0,0,0,15,8Z"/><path class="cls-3" d="M16.5,12.1h0a4.1,4.1,0,0,0-1.3-2.9H15l-.2-.2h-.2l-.2-.2h-.3l-1.2-.3h-.1a.1.1,0,0,0-.1.1h0l1.2.3h.5l.2.2h.2l.2.2a3.9,3.9,0,0,1,1.1,2.7v.2h0Z"/><path class="cls-3" d="M14.5,8.5h.2l.3.2h.2l.2.2a4.6,4.6,0,0,1,1.3,2.8h0l.4-.4h0a4.6,4.6,0,0,0-1.5-2.6h-.2c0-.1-.1-.1-.1-.2h-.5l-.3-.2a3.2,3.2,0,0,0-1.4-.3H13v.2h0a2.8,2.8,0,0,1,1.3.3Z"/><path class="cls-3" d="M15,8.3h.6c.1.1.1.2.2.2a4.7,4.7,0,0,1,1.5,2.4h0a.8.8,0,0,0,.2-.5h0a3.5,3.5,0,0,0-1.4-2l-.2-.2h-.1l-.3-.2H15a4.2,4.2,0,0,0-1.6-.4h-.1c0,.1-.1.1-.2.2h.1l1.5.3Z"/></g></svg>