<svg xmlns="http://www.w3.org/2000/svg" viewBox="0 0 30 20"><defs><style>.cls-1{fill:#fafafa;}.cls-2{fill:#fff;}.cls-3{fill:#166734;}</style></defs><title>pk</title><g id="Layer_62" data-name="Layer 62"><path class="cls-1" d="M2.5,0A2.5,2.5,0,0,0,0,2.5v15A2.5,2.5,0,0,0,2.5,20H7.4V0Z"/><path class="cls-2" d="M24,12.8a5.6,5.6,0,0,1-7.4-8.3l.3-.2A5.9,5.9,0,0,0,12.7,10a6.1,6.1,0,0,0,11.6,2.5Z"/><path class="cls-3" d="M27.5,0H7.4V20H27.5A2.5,2.5,0,0,0,30,17.5V2.5A2.5,2.5,0,0,0,27.5,0ZM21,5.5l.9,1.1L23.3,6l-.7,1.3.9,1.1L22.1,8l-.7,1.3-.2-1.5-1.4-.3L21.1,7ZM18.8,16a6,6,0,0,1-6.1-6,5.9,5.9,0,0,1,4.2-5.7l-.3.2A5.6,5.6,0,0,0,24,12.8l.3-.3A6.1,6.1,0,0,1,18.8,16Z"/><polygon class="cls-1" points="23.7 8.5 22.6 7.2 23.5 5.8 22 6.4 20.9 5.1 21 6.8 19.5 7.5 21.1 7.8 21.2 9.5 22.1 8.1 23.7 8.5"/></g></svg>