<svg id="Flags" xmlns="http://www.w3.org/2000/svg" viewBox="0 0 30 20"><defs><style>.cls-1{fill:#fafafa;}.cls-2{fill:#233c7b;}</style></defs><title>Artboard 65</title><path class="cls-1" d="M27.4,0H14.5V7.2H30V2.5A2.5,2.5,0,0,0,27.4,0Z"/><path class="cls-1" d="M8.9,0H2.6A2.5,2.5,0,0,0,0,2.5V7.2H8.9Z"/><path class="cls-1" d="M14.5,20H27.4A2.5,2.5,0,0,0,30,17.5V12.8H14.5Z"/><path class="cls-1" d="M0,12.8v4.7A2.5,2.5,0,0,0,2.6,20H8.9V12.8Z"/><polygon class="cls-2" points="14.5 7.2 14.5 0 8.9 0 8.9 7.2 0 7.2 0 12.8 8.9 12.8 8.9 20 14.5 20 14.5 12.8 30 12.8 30 7.2 14.5 7.2"/></svg>