<svg id="Flags" xmlns="http://www.w3.org/2000/svg" viewBox="0 0 30 20"><defs><style>.cls-1{fill:#ffe01b;}.cls-2{fill:#006a53;}.cls-3{fill:#f4812a;}.cls-4{fill:#a9273d;}</style></defs><title>lk</title><path class="cls-1" d="M27.4,0H2.6A2.5,2.5,0,0,0,0,2.5v15A2.5,2.5,0,0,0,2.6,20H27.4A2.5,2.5,0,0,0,30,17.5V2.5A2.5,2.5,0,0,0,27.4,0ZM9.3,18.4H1.2V1.6H9.3Zm19.5,0H10.5V1.6H28.8Z"/><rect class="cls-2" x="1.2" y="1.6" width="4.1" height="16.82"/><rect class="cls-3" x="5.3" y="1.6" width="4.1" height="16.82"/><path class="cls-4" d="M20.4,7.5Z"/><path class="cls-4" d="M10.5,18.4H28.8V1.6H10.5Zm17-14.2h.4c0-.1.1-.2.2,0s.1.2,0,.2-.1.2-.1.4-1.6.7-1.6,1.2S26.8,3.9,27.5,4.2Zm-1.1,9.9c0,.5,1.9,0,1.6,1.2s0,.3.1.4.2.1,0,.3-.2,0-.2-.1h-.4C26.8,16.1,26.3,14.9,26.4,14.1ZM14.1,9.9h.2c-.1-2.8-.1-4.4,1.2-5.1-.3.3-.5,2.3-.5,5.1h.2a.4.4,0,0,1,0,.7l1,1a2.2,2.2,0,0,1,1.1-2.3c.3-.2.4-.3.2-.4s-.3.1-.2.2-.2-.3-.3-.4-.1.2-.1.3l-.2-.3h-.5l.2-.2h-.6c.2-.1.1-.5.3-.7l-.2-.2c0-.1,0-.3.4-.1a2.5,2.5,0,0,0,1.2.4c-.1-.3-.3-.4-.4-.6v.3l-.4-.3c.1.1,0,.2.1.3s-.3-.3-.6-.6-.2-.4-.3-.5a.3.3,0,0,1,.3-.5c.2-.1.4.3.2.4H17c.2-.1.4.1.7-.3s0-.2,0-.3.5-.1.7.2.3-.2.2-.4.4,0,.7.5.2-.3.1-.5a.9.9,0,0,1,.6.4c.1.1.4.1.5-.3a.8.8,0,0,1-.3.8,1.1,1.1,0,0,1,.2.9h0c0,.2-.1.6,0,.7h-.1c-.1.4.2.5.1.7l-.2-.2a.4.4,0,0,0,.2.5h0a12.8,12.8,0,0,0,1.9-.1c.6-.1,1.2.1,1.7-.1s.7-.1.8-.6-.4-.7-1.2-.5a2.9,2.9,0,0,1-2.1-.1c-.5-.3-.6.2-.5.4s-.3-.7-.1-.9S21,5.5,22,5.5a3.6,3.6,0,0,1,2.2.9c.2.2.7.7.9.6s.3-.6.5-.1a.5.5,0,0,1-.6.5c-.6-.1-.5-.4-1.2-.8s0,.4.4.5a.9.9,0,0,1-.8-.5.6.6,0,0,1-.6.5c.4-.5.2-.9-.2-1s-.1.9-.6.9.3-.8-.1-.9h-.2a.3.3,0,0,1-.2.4c0-.3-.5-.2-.6,0a.7.7,0,0,0,.2.6c.2-.5.8-.4.8-.2s-.4.5-.2.7.2-.4.4-.3.5.4,1,.4a2.5,2.5,0,0,1,1.7,0,.9.9,0,0,1-.1,1.6c.8.9.5,1.8.1,2.8s.1,1.5.3,1.5.2,0,.1.1-.5.3-.5.7.4.6.2.8-.3-.1-.4-.2-.1.2-.3.2L24,15l-.3.2c-.2,0-.2-.1-.2-.2l-.4.2v0c-.3,0-.4,0-.5-.2s0,.2-.2.2-.2-.1-.3-.2,0,.2-.2.2-.2-.1-.3-.2l-.3.2c0-.4.2-.6.5-.5a.6.6,0,0,0,.5-.2c.1-.2,0-.4,0-.7s-.9-1.1-.7-1.8-1.8.7-2.5.8l-.3.5c-.2.4.3.5.5.5s-.3.5-.5.5-.3.2-.2.3.1.3-.1.6-.4-.1-.5-.2-.1.2-.3.2-.2,0-.3-.2a.2.2,0,0,1-.2.2c-.2,0-.2,0-.3-.2s-.1.2-.3.2.9-.2,1.3-.9-.1-.7-.2-1.2l-.7-.5c-.7,1-1.1.2-1.3,0s-.3,0-.3.1-.2-.2-.1-.6-.1-.3-.2-.3h-.4c.2-.1.5.1.4.2s-.3,0-.4,0,.1.3.2.3-.2.6,0,.7a.2.2,0,0,1,.3-.1c.1.2-.1.4-.4.4l.3.2h-.4a.4.4,0,0,1-.1.3c-.1-.1-.2-.2-.2-.3h-.3l.2-.2c-.2,0-.4-.2-.3-.4s.3,0,.2.1.2-.5,0-.7.2-.1.2-.3-.4,0-.3-.1.2,0,.3-.1v-.2h0v-.2c0-.1,0-.1.1-.1s-.2-.1-.2-.2h.1c0-.1-.1-.1-.1-.2h.2C13.6,10.5,13.7,10,14.1,9.9ZM10.8,4.1c.2-.2.3-.1.3,0h.4c.7-.3,1.2.9,1.1,1.7s-1.9,0-1.6-1.2,0-.3-.1-.4S10.7,4.2,10.8,4.1Zm.1,11.6c.1-.1.1-.2.1-.4s1.6-.7,1.6-1.2-.4,2-1.1,1.7h-.4c0,.1-.1.2-.3.1S10.8,15.7,10.9,15.7Z"/><path class="cls-4" d="M23.5,13.5c.1.4-.6.6-.4,1.2a.2.2,0,0,1,0,.3,1,1,0,0,1,.8-.4l.2-.3v-.6c-.1-.3-.5-.5-.9-.8s-.3.3-.1.6S23.5,13.6,23.5,13.5Z"/><path class="cls-1" d="M20.4,7.5Z"/><path class="cls-1" d="M14.7,10.7l.2.2.3-.2c0,.2-.1.2-.1.3h-.2l.3-.2c0,.2-.1.2-.1.3s-.2.2-.2.1h0l.3-.2c0,.2-.1.2-.1.3h-.2l.3-.2v.2h0c.1,0,.2.1.2.3s0,.5.1.6.1-.3.3-.1.6,1,1.3,0l.7.5c.1.5.3.9.2,1.2s-1.1-.3-1.3.9.3-.1.3-.2.1.2.3.2a.2.2,0,0,0,.2-.2c.1.2.1.2.3.2s.3-.1.3-.2.1.2.5.2.2-.4.1-.6-.1-.2.2-.3.4-.2.5-.5-.7-.1-.5-.5l.3-.5c.7-.1,1.4-.8,2.5-.8s.8,1.2.7,1.8.1.5,0,.7a.6.6,0,0,1-.5.2c-.3-.1-.5.1-.5.5l.3-.2c.1.1.1.2.3.2s.2-.1.2-.2.1.2.3.2.2,0,.2-.2.2.2.5.2v0l.4-.2c0,.1,0,.2.2.2L24,15l.2.2c.2,0,.2-.1.3-.2s.1.2.4.2-.2-.4-.2-.8.4-.3.5-.7,0-.1-.1-.1-.6-.6-.3-1.5.7-1.9-.1-2.8a.9.9,0,0,0,.1-1.6,2.5,2.5,0,0,0-1.7,0c-.5,0-1.1.1-1-.4s-.4.1-.4.3-.3-.6.2-.7-.6-.3-.8.2a.7.7,0,0,1-.2-.6c.1-.2.6-.3.6,0a.3.3,0,0,0,.2-.4h.2c.4.1.5.5.1.9s.9-.4.6-.9.6.5.2,1a.6.6,0,0,0,.6-.5.9.9,0,0,0,.8.5c-.4-.1-.2-.4-.4-.5s.6.7,1.2.8a.5.5,0,0,0,.6-.5c-.2-.5-.7-.3-.5.1s-.7-.4-.9-.6A3.6,3.6,0,0,0,22,5.5c-1,0-2.1.9-1.1,1.9s-.3.5.1.9,0-.7.5-.4a2.9,2.9,0,0,0,2.1.1c.8-.2,1.2.1,1.2.5s-.6.5-.8.6-1.1,0-1.7.1a12.8,12.8,0,0,1-1.9.1h0a.4.4,0,0,1-.2-.5l.2.2c.1-.2-.2-.3-.1-.7h.1c-.1-.1,0-.5,0-.7h0a1.1,1.1,0,0,0-.2-.9.8.8,0,0,0,.3-.8c-.1.4-.4.4-.5.3a.9.9,0,0,0-.6-.4c.1.2-.1.3-.1.5s-.6-.4-.7-.5,0,.6-.2.4-.7-.1-.7-.2.1.2,0,.3-.5.2-.7.3h-.6c.2-.1,0-.5-.2-.4a.3.3,0,0,0-.3.5c.1.1,0,.3.3.5s.2.4.6.6,0-.2-.1-.3l.4.3V7.5c.1.2.3.3.4.6a2.5,2.5,0,0,1-1.2-.4c-.4-.2-.4,0-.4.1l.2.2c-.2.2-.1.6-.3.7h.6l-.2.2h.5l.2.3c0-.1.1-.2.1-.3s0,.3.3.4.1-.3.2-.2.1.2-.2.4a2.2,2.2,0,0,0-1.1,2.3l-1-1h-.5Zm8.5,2.2c.4.3.8.5.9.8v.6l-.2.3a1,1,0,0,0-.8.4.2.2,0,0,0,0-.3c-.2-.6.5-.8.4-1.2s-.3.2-.4,0S23.1,13.1,23.2,12.9Z"/><path class="cls-1" d="M14.4,10.6Z"/><path class="cls-1" d="M14.3,10.2c0,.1.2.1.3.1s.4,0,.4-.1-.1-.3,0-.3c0-2.8.2-4.8.5-5.1-1.3.7-1.3,2.3-1.2,5.1C14.4,10,14.4,10.2,14.3,10.2Z"/><path class="cls-1" d="M14.4,11.7v.2c-.1.1-.2-.2-.3.1s.2.2.3.1-.1.3-.2.3.3.6,0,.7-.1-.2-.2-.1.1.4.3.4l-.2.2h.3c0,.1.1.2.2.3a.4.4,0,0,0,.1-.3h.4l-.3-.2c.3,0,.5-.2.4-.4a.2.2,0,0,0-.3.1c-.2-.1-.2-.5,0-.7s-.2-.1-.2-.3.3.2.4,0-.2-.3-.4-.2h-.3Z"/><path class="cls-1" d="M14.6,10.7h0Z"/><path class="cls-1" d="M14.4,10.6h.8a.4.4,0,0,0,0-.7H15c-.1,0-.1.3,0,.3s-.2.1-.4.1-.3,0-.3-.1.1-.2,0-.3h-.2C13.7,10,13.6,10.5,14.4,10.6Z"/><path class="cls-1" d="M14.9,10.9h.2c0-.1.1-.1.1-.3l-.3.2Z"/><path class="cls-1" d="M14.6,11h.3l-.2-.2h-.5c0,.1.1.1.1.2Z"/><path class="cls-1" d="M14.9,11.2h0c0,.1.2,0,.2-.1s.1-.1.1-.3l-.3.2Z"/><path class="cls-1" d="M14.6,11.2h-.4c0,.1,0,.2.2.2Z"/><path class="cls-1" d="M14.9,11.5h.2c0-.1.1-.1.1-.3l-.3.2Z"/><path class="cls-1" d="M14.6,11.5h-.2c-.1,0-.1,0-.1.1v.2Z"/><path class="cls-1" d="M15.1,11.7v-.2l-.3.2h.2Z"/><path class="cls-1" d="M14.9,11.7Z"/><path class="cls-1" d="M10.9,4.3c.1.1.1.2.1.4s1.6.7,1.6,1.2-.4-2-1.1-1.7h-.4c0-.1-.1-.2-.3,0S10.8,4.3,10.9,4.3Z"/><path class="cls-1" d="M28,4.7c0-.2,0-.3.1-.4s.2-.1,0-.2-.2-.1-.2,0h-.4c-.7-.3-1.2.9-1.1,1.7S28.3,5.9,28,4.7Z"/><path class="cls-1" d="M11.1,15.9h.4c.7.3,1.2-.9,1.1-1.7s-1.9,0-1.6,1.2,0,.3-.1.4-.2.1-.1.3S11.1,16,11.1,15.9Z"/><path class="cls-1" d="M27.5,15.8h.4c0,.1.1.2.2.1s.1-.3,0-.3-.1-.2-.1-.4-1.6-.7-1.6-1.2S26.8,16.1,27.5,15.8Z"/></svg>