<svg xmlns="http://www.w3.org/2000/svg" viewBox="0 0 30 20"><defs><style>.cls-1{fill:#fafafa;}.cls-2{fill:#1f449b;}.cls-3{fill:#ce2931;}.cls-4{fill:#fff;}.cls-5{fill:#ce2028;}.cls-6{fill:#1d439b;}</style></defs><title>sk</title><g id="Layer_38" data-name="Layer 38"><path class="cls-1" d="M27.4,0H2.6A2.5,2.5,0,0,0,0,2.5V6.6H4.7V5.5c.1-.3,0-.8.4-.8h7.6c.4-.1.4.4.4.7a4.9,4.9,0,0,1,.1,1.2H30V2.5A2.5,2.5,0,0,0,27.4,0Z"/><path class="cls-2" d="M12.9,11.3a11.3,11.3,0,0,1-1.2,2.1H30V6.6H13.2A12.3,12.3,0,0,1,12.9,11.3Z"/><path class="cls-2" d="M5,11.3a10.6,10.6,0,0,1-.3-4.7H0v6.8H6.2A5.7,5.7,0,0,1,5,11.3Z"/><path class="cls-3" d="M10,14.8l-1.1.5-1-.5L6.2,13.4H0v4.1A2.5,2.5,0,0,0,2.6,20H27.4A2.5,2.5,0,0,0,30,17.5V13.4H11.7Z"/><path class="cls-4" d="M5,11.3a5.7,5.7,0,0,0,1.2,2.1l1.7,1.4,1,.5,1.1-.5,1.7-1.4a11.3,11.3,0,0,0,1.2-2.1,12.3,12.3,0,0,0,.3-4.7,4.9,4.9,0,0,0-.1-1.2c0-.3,0-.8-.4-.7H5.1c-.4,0-.3.5-.4.8V6.6A10.6,10.6,0,0,0,5,11.3ZM8.9,5h3.9c.3,3.6.7,7-2.6,9.3H10l-.2.2H9.7l-.3.2H9.3l-.4.2-.4-.2h0l-.3-.2H8.1l-.3-.2H7.6C4.4,12,4.8,8.6,5.1,5Z"/><path class="cls-5" d="M7.6,14.3l-1.1-1H6.4c-.2-.1-.3-.3-.4-.4v-.2a1,1,0,0,1,1-1,1.5,1.5,0,0,1,.7.3,1.5,1.5,0,0,1,.8-.8V9.6h-2a2.4,2.4,0,0,0,0-1.2L8,8.7h.5v-1H8.4l-1.5.2a1.3,1.3,0,0,0,0-1.2l1.5.2h.1a5.9,5.9,0,0,0-.2-1.4H9.5c0,.4-.1.9-.1,1.4h.1L11,6.7a1.3,1.3,0,0,0,0,1.2L9.5,7.7H9.4v1h.5l1.5-.2a1.3,1.3,0,0,0,0,1.2h-2V11a3,3,0,0,1,.8.8,1.1,1.1,0,0,1,.7-.3,1.1,1.1,0,0,1,1,1h0l-.4.5h-.1a12.7,12.7,0,0,1-1.2,1C13.5,12,13.1,8.6,12.8,5H5.1C4.8,8.6,4.4,12,7.6,14.3Z"/><path class="cls-5" d="M7.8,14.4h0Z"/><path class="cls-5" d="M8.2,14.6h0Z"/><path class="cls-5" d="M10.2,14.3h0Z"/><path class="cls-5" d="M9.4,14.8h0Z"/><path class="cls-5" d="M9.8,14.6h0Z"/><path class="cls-4" d="M8.4,6.9,6.9,6.7a1.3,1.3,0,0,1,0,1.2l1.5-.2h.1V6.9Z"/><path class="cls-4" d="M9.5,7.7l1.5.2a1.3,1.3,0,0,1,0-1.2l-1.5.2H9.4v.8Z"/><path class="cls-4" d="M8,8.7,6.5,8.5a2.4,2.4,0,0,1,0,1.2h2V8.7Z"/><path class="cls-4" d="M9.9,9.6h1.5a1.3,1.3,0,0,1,0-1.2l-1.5.2H9.4v.9Z"/><path class="cls-4" d="M9.4,11V6.9h0c0-.5.1-1,.1-1.4H8.3a5.9,5.9,0,0,1,.2,1.4h0V11h.9Z"/><path class="cls-6" d="M6.5,13.3h0Z"/><path class="cls-6" d="M7.8,12.9a1.5,1.5,0,0,1-.1-.7v-.4a1.5,1.5,0,0,0-.7-.3,1,1,0,0,0-1,1v.2c.1.1.2.3.4.4l-.2-.2Z"/><path class="cls-6" d="M7.8,12.9H9.9v-.4a1.1,1.1,0,0,1,.3-.7,3,3,0,0,0-.8-.8H8.5a1.5,1.5,0,0,0-.8.8v.4A1.5,1.5,0,0,0,7.8,12.9Z"/><path class="cls-6" d="M11.4,13.2h0Z"/><path class="cls-6" d="M9.9,12.9h1.8l-.2.2.4-.5h0a1.1,1.1,0,0,0-1-1,1.1,1.1,0,0,0-.7.3,1.1,1.1,0,0,0-.3.7Z"/><path class="cls-6" d="M11.4,13.3h.1l.2-.2H6.2l.2.2h.1l1.1,1h.2l.3.2h.1l.3.2h0l.4.2.4-.2h.1l.3-.2h.1l.2-.2h.2A12.7,12.7,0,0,0,11.4,13.3Z"/></g></svg>