<svg id="Flags" xmlns="http://www.w3.org/2000/svg" viewBox="0 0 30 20"><defs><style>.cls-1{fill:#1b5889;}.cls-2{fill:#fdca33;}</style></defs><title>Artboard 66</title><path class="cls-1" d="M13,20H27.5A2.5,2.5,0,0,0,30,17.5V12H13Z"/><path class="cls-1" d="M27.5,0H13V8H30V2.5A2.5,2.5,0,0,0,27.5,0Z"/><path class="cls-1" d="M0,12v5.5A2.5,2.5,0,0,0,2.5,20H8.9V12Z"/><path class="cls-1" d="M8.9,0H2.5A2.5,2.5,0,0,0,0,2.5V8H8.9Z"/><polygon class="cls-2" points="13 8 13 0 8.9 0 8.9 8 0 8 0 12 8.9 12 8.9 20 13 20 13 12 30 12 30 8 13 8"/></svg>