<svg xmlns="http://www.w3.org/2000/svg" viewBox="0 0 30 20"><defs><style>.cls-1{fill:#349344;}.cls-2{fill:#feda33;}.cls-3{fill:#dd2d2c;}.cls-4{fill:#121212;}.cls-5{fill:#010101;}.cls-6{fill:#fafafa;}.cls-7{fill:#dd2726;}.cls-8{fill:#ffc71c;}</style></defs><title>zw</title><g id="Layer_1" data-name="Layer 1"><path class="cls-1" d="M27.5,0H2.5A2.8,2.8,0,0,0,1.2.4L4.4,2.8H30V2.5A2.5,2.5,0,0,0,27.5,0Z"/><path class="cls-1" d="M1.2,19.6a2.8,2.8,0,0,0,1.3.4h25A2.5,2.5,0,0,0,30,17.5v-.3H4.4Z"/><polygon class="cls-2" points="4.4 17.1 30 17.1 30 14.3 8.2 14.3 4.4 17.1"/><polygon class="cls-2" points="8.2 5.7 30 5.7 30 2.9 4.4 2.9 8.2 5.7"/><polygon class="cls-3" points="12.1 8.6 30 8.6 30 5.7 8.2 5.7 12.1 8.6"/><polygon class="cls-3" points="8.2 14.3 30 14.3 30 11.4 12.1 11.4 8.2 14.3"/><polygon class="cls-4" points="14 10 12.1 11.4 30 11.4 30 8.6 12.1 8.6 14 10"/><path class="cls-5" d="M8.2,14.3l3.9-2.9L14,10,12.1,8.6,8.2,5.7,4.4,2.8,1.2.4.8.7,13.3,10,.8,19.3l.4.3,3.2-2.4Z"/><path class="cls-6" d="M13.3,10,.8.7A2.5,2.5,0,0,0,0,2.5v15a2.5,2.5,0,0,0,.8,1.8Z"/><polygon class="cls-7" points="5.3 5.1 3 9.7 6.5 11.3 5.3 5.1"/><polygon class="cls-7" points="5.3 5.1 7.5 9.7 4.1 11.3 5.3 5.1"/><polygon class="cls-7" points="5.3 5.1 3.6 9.9 7.2 11.2 5.3 5.1"/><polygon class="cls-7" points="5.3 5.1 7 9.9 3.4 11.2 5.3 5.1"/><polygon class="cls-7" points="10.1 8.6 5.1 7.9 4.5 11.6 10.1 8.6"/><polygon class="cls-7" points="0.4 8.6 5.5 7.9 6 11.6 0.4 8.6"/><polygon class="cls-7" points="10.1 8.6 5 8.5 4.9 12.3 10.1 8.6"/><polygon class="cls-7" points="0.4 8.6 5.5 8.5 5.6 12.3 0.4 8.6"/><polygon class="cls-7" points="5.3 5.8 3.5 9.8 5.5 10.7 5.3 5.8"/><polygon class="cls-7" points="5.3 5.8 7.1 9.8 5.1 10.7 5.3 5.8"/><polygon class="cls-7" points="7.9 13.7 7 9.4 4.8 9.9 7.9 13.7"/><polygon class="cls-7" points="7.9 13.7 4 11.5 5.1 9.6 7.9 13.7"/><polygon class="cls-7" points="2.7 13.7 6.5 11.5 5.4 9.6 2.7 13.7"/><polygon class="cls-7" points="2.7 13.7 3.6 9.4 5.7 9.9 2.7 13.7"/><path class="cls-8" d="M4.4,8.9c.3.7.4.8,1.2,1s3,.5,3.2.6-2.6-2-3.1-2.4L5,7.6,4.4,6.5a1.1,1.1,0,0,0-.9-.6.7.7,0,0,0-.7.6c-.1.1-.4.3-.4.5a.7.7,0,0,1,.9.5,4.5,4.5,0,0,1,0,2.3,4.8,4.8,0,0,0-.5,1.4c0,.1,0,.2.1.2s.4,1.8.4,1.8H7.8l.7-2.8Z"/><path class="cls-5" d="M7.8,13.2H3.3s-.3-1.5-.4-1.7-.1-.2-.1-.3a1.6,1.6,0,0,1,.3-.9l.2-.5a4.5,4.5,0,0,0,0-2.3C3.2,7.1,3,7,2.7,7H2.4c0-.2.3-.4.4-.5a.7.7,0,0,1,.7-.6,1.1,1.1,0,0,1,.9.6A6.4,6.4,0,0,1,5,7.6H5l.7.5,3.2,2.4H8.5Zm-4.5,0H7.8l.7-2.8a9.3,9.3,0,0,1-2.9-.5c-.8-.2-.9-.3-1.2-1h0l4.1,1.5h.3L5.7,8.1,5,7.6,4.4,6.5a1.1,1.1,0,0,0-.9-.6.7.7,0,0,0-.7.6h0s-.4.2-.4.3h.3q.4,0,.6.6a3.7,3.7,0,0,1,.1,2.3l-.3.5a3.2,3.2,0,0,0-.3.9c0,.1,0,.2.1.2H3C3,11.6,3.3,13,3.3,13.2ZM4.5,9c.3.6.3.6,1.1.9l2.8.5Z"/><path class="cls-5" d="M7.8,13.2H4.3s-.1-1.2-.2-1.8h0l.5.4.4-.4.4.4.5-.4.4.5.4-.4.4.4.4-.3h.1l.5.5Zm-3.4,0H7.8l.3-1.1-.6-.5-.4.3h0l-.4-.4-.4.4-.4-.4-.5.3L5,11.4l-.4.4-.4-.4A7.4,7.4,0,0,0,4.4,13.2Z"/><path class="cls-5" d="M3.5,8.3h0L5,7.6H5Z"/><path class="cls-5" d="M8.2,12.5H7.1v-.2H6.2v-.2H5.7l-.3.3-.3-.3H4.9l-.3.3-.7-.6,1,.2v-.2l.2.2h.4l.3-.2.2.3h.3l.3-.3.3.4h.1l.4-.3Zm-.9-.2h.5l-.3-.2Zm-.7-.2h.2V12ZM4.4,12h0Zm1.4,0h0Z"/><path class="cls-5" d="M5.4,11.3a.2.2,0,0,1-.2-.2c0-.1.1-.3.2-.3a.3.3,0,0,1,.3.3C5.7,11.2,5.6,11.3,5.4,11.3Zm0-.3h0Z"/><path class="cls-5" d="M6.2,11.4a.3.3,0,0,1-.3-.3c0-.1.1-.2.3-.2l.2.2C6.4,11.3,6.3,11.4,6.2,11.4Zm0-.4h0Z"/><path class="cls-5" d="M3.4,6.7c-.1,0-.2-.1-.2-.3a.2.2,0,0,1,.4,0C3.6,6.6,3.5,6.7,3.4,6.7Zm0-.3Z"/></g></svg>