<svg xmlns="http://www.w3.org/2000/svg" viewBox="0 0 30 20"><defs><style>.cls-1{fill:#4d86c5;}.cls-2{fill:#fff;}</style></defs><title>so</title><g id="Layer_36" data-name="Layer 36"><path class="cls-1" d="M27.4,0H2.6A2.5,2.5,0,0,0,0,2.5v15A2.5,2.5,0,0,0,2.6,20H27.4A2.5,2.5,0,0,0,30,17.5V2.5A2.5,2.5,0,0,0,27.4,0ZM17.2,13.4,15,11.8l-2.2,1.6.8-2.6L11.5,9.2h2.7L15,6.6l.8,2.6h2.7l-2.1,1.6Z"/><polygon class="cls-2" points="15.8 9.2 15 6.6 14.2 9.2 11.5 9.2 13.6 10.8 12.8 13.4 15 11.8 17.2 13.4 16.4 10.8 18.5 9.2 15.8 9.2"/></g></svg>