<svg xmlns="http://www.w3.org/2000/svg" viewBox="0 0 30 20"><defs><style>.cls-1{fill:#cf2932;}.cls-2{fill:#f9da32;}.cls-3{fill:#d12028;}.cls-4{fill:#f9d615;}</style></defs><title>mk</title><g id="Layer_92" data-name="Layer 92"><path class="cls-1" d="M14.4,7,13.1,0H2L12.7,8.3A2.7,2.7,0,0,1,14.4,7Z"/><path class="cls-1" d="M12.2,10.3,0,11.6v5.9a1.1,1.1,0,0,0,.1.5l12.4-6.7A1.7,1.7,0,0,1,12.2,10.3Z"/><path class="cls-1" d="M12.5,8.7.1,2a1.1,1.1,0,0,0-.1.5V8.4L12.2,9.7A1.7,1.7,0,0,1,12.5,8.7Z"/><path class="cls-1" d="M15.6,13l1.3,7H28L17.3,11.7A2.7,2.7,0,0,1,15.6,13Z"/><path class="cls-1" d="M17.8,9.7,30,8.4V2.5a1.1,1.1,0,0,0-.1-.5L17.5,8.7A1.7,1.7,0,0,1,17.8,9.7Z"/><path class="cls-1" d="M17.5,11.3,29.9,18a1.1,1.1,0,0,0,.1-.5V11.6L17.8,10.3A1.7,1.7,0,0,1,17.5,11.3Z"/><path class="cls-1" d="M12.7,11.7,2,19.9H13.1l1.3-7A2.7,2.7,0,0,1,12.7,11.7Z"/><path class="cls-1" d="M17.3,8.3,28,.1H16.9L15.6,7A2.7,2.7,0,0,1,17.3,8.3Z"/><path class="cls-2" d="M12.7,8.3,2,.1A2.3,2.3,0,0,0,.1,2L12.5,8.7Z"/><path class="cls-2" d="M17.3,11.7,28,19.9A2.3,2.3,0,0,0,29.9,18L17.5,11.3Z"/><path class="cls-2" d="M15,13h-.6l-1.3,7h3.8l-1.3-7Z"/><path class="cls-2" d="M15,7h.6l1.3-7H13.1l1.3,7Z"/><path class="cls-2" d="M12.5,11.3.1,18A2.3,2.3,0,0,0,2,19.9l10.7-8.2Z"/><path class="cls-2" d="M28,.1,17.3,8.3l.2.4L29.9,2A2.3,2.3,0,0,0,28,.1Z"/><path class="cls-2" d="M17.8,10v.3L30,11.6V8.4L17.8,9.7Z"/><path class="cls-2" d="M12.2,10V9.7L0,8.4v3.2l12.2-1.3Z"/><path class="cls-3" d="M15.6,7H14.4a2.7,2.7,0,0,0-1.7,1.3l-.2.4a1.7,1.7,0,0,0-.3,1v.6a1.7,1.7,0,0,0,.3,1l.2.4A2.7,2.7,0,0,0,14.4,13h1.2a2.7,2.7,0,0,0,1.7-1.3l.2-.4a1.7,1.7,0,0,0,.3-1V9.7a1.7,1.7,0,0,0-.3-1l-.2-.4A2.7,2.7,0,0,0,15.6,7Zm1.7,3a2.3,2.3,0,1,1-4.6,0,2.3,2.3,0,1,1,4.6,0Z"/><path class="cls-4" d="M15,7.5A2.4,2.4,0,0,0,12.7,10a2.3,2.3,0,1,0,4.6,0A2.4,2.4,0,0,0,15,7.5Z"/></g></svg>