<svg xmlns="http://www.w3.org/2000/svg" viewBox="0 0 30 20"><defs><style>.cls-1{fill:#d3ae39;}.cls-2{fill:#c3272d;}.cls-3{fill:#b97329;}.cls-4{fill:#6c8a3c;}.cls-5{fill:#1e5e92;}.cls-6{fill:#c32026;}</style></defs><title>me</title><g id="Layer_80" data-name="Layer 80"><path class="cls-1" d="M27.5,0H2.6A2.5,2.5,0,0,0,0,2.5v15A2.5,2.5,0,0,0,2.6,20H27.5A2.5,2.5,0,0,0,30,17.5V2.5A2.5,2.5,0,0,0,27.5,0ZM29,19H1V1H29Z"/><path class="cls-2" d="M15,4.7Z"/><path class="cls-2" d="M19.3,13Z"/><path class="cls-2" d="M16,6.3h0V6h0c0-.2-.2-.4-.1-.2h0v.2h0C15.8,6.2,15.7,6.3,16,6.3Z"/><path class="cls-2" d="M15.2,8.4h.2c-.1-.1-.1-.1,0-.1h.2a.1.1,0,0,1,.1-.1h.2L15.7,7H14.3v.2h0c-.1.1,0,.1.1.2h.1s.1.1,0,.1h0l.3.2h-.1l.3.2H15v.2c.1.1.1.2.2.1h.1Z"/><path class="cls-2" d="M15.2,5.7h0c.1.1.1.1,0,.2h.3C15.5,5.7,15.2,5.4,15.2,5.7Z"/><path class="cls-2" d="M16.6,14Z"/><path class="cls-2" d="M16.9,9.8Z"/><path class="cls-2" d="M14.2,6.3h.1c-.1-.1-.1-.1-.1-.2h0V5.7c-.1,0-.1.2-.2.3h0C14.1,6.2,14.1,6.3,14.2,6.3Z"/><path class="cls-2" d="M19,10.7h0Z"/><path class="cls-2" d="M13.9,6.4h0Z"/><path class="cls-2" d="M14.5,14.9Z"/><polygon class="cls-2" points="19.5 9.6 19.5 9.6 19.5 9.6 19.5 9.6"/><path class="cls-2" d="M16.9,7.6Z"/><path class="cls-2" d="M13.3,6.9Z"/><path class="cls-2" d="M14.2,6.6Z"/><path class="cls-2" d="M10.6,10h0Z"/><path class="cls-2" d="M10.4,9h0Z"/><path class="cls-2" d="M19.5,7.8Z"/><path class="cls-2" d="M14.5,6h0c.1.1.2.2.4.1h0c-.1-.1-.1-.1-.1-.3V5.5h0c-.1.1-.1.1-.1.2s-.2.1-.2.3Z"/><path class="cls-2" d="M10.5,8.5Z"/><path class="cls-2" d="M11.4,10.7c.2-.1-.5-.1-.5-.3s.5,1.1.5,1.7h0c.1,0,.1,0,.1.1v.2c0,.1.1.2.1.3l.2.2h.8v-.2h.2c0-.1,0-.1.1-.1h.2c.2,0,.4-.3.3-.3h-.3c-.1,0-.1,0,0-.1H11.7c-.1-.1-.2-.1-.2-.2h-.3a.3.3,0,0,1-.1-.2h.3Z"/><polygon class="cls-2" points="19.2 7.1 19.2 7.1 19.2 7.1 19.2 7.1"/><polygon class="cls-2" points="18.8 6.3 18.8 6.3 18.8 6.3 18.8 6.3"/><path class="cls-2" d="M1,19H29V1H1Zm9.4-8.8h1c.2,0-.7,0-.7-.3l-.2-.3h.3c.2.1.9.2.3.1s-.7-.5-.7-.7h.1c.1.2.8.5.3.2s-.4-.5-.3-.7,0-.1,0-.1h0l.7.5a1.5,1.5,0,0,1-.7-1.2h.1l.5.7c-.2-.4-.5-.9-.3-1.3h.1a2.3,2.3,0,0,0,.4,1,3,3,0,0,1-.2-1.6h.1c.1,0,.1.4.1.6a.4.4,0,0,1,.1.3h0c.1.3.2.4.1,0h0A1.4,1.4,0,0,1,11.6,6h.1c.1.4.1.8.2,1.2H12l.3.8h.3l.2.4.2.2h0a.4.4,0,0,1,.2.4v.2l-.3.3a.5.5,0,0,0,.4.2h.1l.2.2h0c.1-.2-.1-.4-.1-.6h0c0-.1.1-.1.2-.2l.2-.2h.1c.2-.1.2-.2,0-.2h0c0-.2.1-.4,0-.4H12.5c-.1-.1-.2-.3-.1-.4h.1c0,.1.1.1.1.2H13c-.1,0-.1,0-.1.1h-.1c-.1,0-.1-.1,0-.2s.1-.2.1-.2h.3l.2-.2h.8L14,6.4h0c-.1,0-.1,0-.1-.1h-.1V6h0a.3.3,0,0,1,.1-.2H14l.2-.2h.4c0-.1,0-.1.1-.1H15c.1,0,.1,0,.1.1h.2v.2h.5l.3.2a.1.1,0,0,1,.1.1h.1v.2h0l-.2.2h-.3c0,.1.1.1.3.1h.5l.2.2h.5c0,.1,0,.1-.1.1s-.2-.1-.4,0h.6l.2-.2h0a.3.3,0,0,1,0,.4h-.4c-.2-.1-.2-.1-.3,0h-.2a.2.2,0,0,1-.3,0h-.1v.2h0c.1.2.3.3.3.5h.1v.3a.1.1,0,0,0-.1.1h.1V9.8h.2c.1,0,.2,0,.2-.1h.1c.1-.1.1-.1,0-.2H17a.1.1,0,0,1-.1-.1V8.9H17l.4-.5a.3.3,0,0,1,.1-.2h.3l.3-.7h0c0-.1,0-.1.1-.1h0a5,5,0,0,0,.2-1.2h.1a2,2,0,0,1,.1,1.3c-.1.2.2-.6.2-.8V6.4h.1a.3.3,0,0,0,.1.2,3,3,0,0,1-.2,1.6h.1l.3-.7h.1a1.4,1.4,0,0,1-.4,1.5h.2c.2-.1.3-.4.4-.5h.1A1.5,1.5,0,0,1,18.9,9h.2l.5-.4h0c.1.4-.3.8-.6.9l.6-.3h.1v.2c-.1.4-.8.6-.9.6h.2l.6-.2h0v.2c-.1.3-.9.4-.8.4h.6a.3.3,0,0,1-.1.2c-.1.2-1,.3-.3.2H19a.1.1,0,0,1-.1.1h-2c.1.1,0,.1-.1.1h-.2c.1.2.3.2.5.3h0c.1,0,.1,0,0,.1h.4c.1,0,.1.1,0,.1h.3c.1,0,.1,0,0-.1h-.1c0-.1,0-.1.1-.2a.8.8,0,0,1,.2-.4l.3-.2h.3c-.1,0,0-.1,0-.1H19V12h0l.2.2c0,.1,0,.1.1.2s.1.3.1.5h0c0,.1,0,.2-.1.2h-.3l-.7.2h-.6l-.5-.2h0c-.1.1-.1.1-.2,0h-.6c-.2-.2-.5-.7-.7-.7l.2.3c.1.1.1.2.1.4h0a.3.3,0,0,1,.1.2h0a.4.4,0,0,1,.1.3c.2,0,.3.2.4.3h.1s.1.1,0,.1h-.3v.2H16c.1.2,0,.2,0,.2h-.4c0,.1,0,.2-.1.1h-.2v.2h0c0,.1-.2.4-.3.2h-.1c0-.1,0-.2-.1-.2h-.2v-.2c0-.1,0-.1-.1-.1h-.1c-.1.1-.1.1-.1,0h-.4v-.2l-.3-.2h.1a.8.8,0,0,0,.4-.4h0v-.6h.1c0-.1,0-.1.1-.2s.3-.5,0-.2h-.2l-.3.5h-.3l-.3.2c-.1.1-.2.1-.2,0h-.1l-.4.3h-.2c0,.1-.1.3,0,.3h.1c-.1,0-.1.1-.1.2H12s-.1,0,0-.1a.4.4,0,0,1-.1-.3h-.2l-.2-.2h0a.1.1,0,0,1-.1-.1v-.2h0l.2-.2h-.2a.9.9,0,0,0-.1-.5h-.1c-.4-.4-.2-1-.5-1.4h-.1c-.1,0,0-.1,0-.1s.1-.1,0-.1h-.1c-.1-.1-.1-.1-.1-.2h.1Z"/><path class="cls-1" d="M18.4,11h0Z"/><path class="cls-1" d="M19.6,8.8l-.3.4-.4.2h.3l.3-.2h.1l-.6.3c.3-.1.7-.5.6-.9h0Z"/><path class="cls-1" d="M18,11.4h0Z"/><path class="cls-1" d="M19.1,10.1h-.4c-.2,0-.1.1.1,0h-.1c-.1,0,.7-.1.8-.4V9.6a.4.4,0,0,1-.2.4Z"/><path class="cls-1" d="M18.8,9.8h-.1c.1,0,.8-.2.9-.6v0C19.5,9.5,19.1,9.7,18.8,9.8Z"/><path class="cls-1" d="M18.5,10.6h.4c-.7.1.2,0,.3-.2a.3.3,0,0,0,.1-.2.3.3,0,0,1-.1.2Z"/><path class="cls-1" d="M17.6,11.7h0Z"/><path class="cls-1" d="M17.8,12.5H18a.8.8,0,0,0-.2.4h0Z"/><path class="cls-1" d="M17.9,13.1h-.1c.1.1.1.1,0,.1Z"/><path class="cls-1" d="M17.7,12.8Z"/><path class="cls-1" d="M18.7,11.7h0Z"/><path class="cls-1" d="M18.6,11.9c.1-.1.1-.1,0-.1h0Z"/><path class="cls-1" d="M18.6,11.7s-.1.1,0,.1Z"/><path class="cls-1" d="M17.7,13h0Z"/><path class="cls-1" d="M16.5,11.8h0Z"/><path class="cls-1" d="M16.9,11.7c-.1-.1-.1-.1,0,.1h0Z"/><path class="cls-1" d="M17.1,12.2c-.2-.1-.4-.1-.5-.3h0Z"/><path class="cls-1" d="M17.3,12.6h0Z"/><path class="cls-1" d="M17.4,12.8h0Z"/><path class="cls-1" d="M17.1,12.4h0Z"/><path class="cls-1" d="M16.5,9.8a.1.1,0,0,1,.1-.1V9.4h-.1C16.6,9.6,16.5,9.7,16.5,9.8Z"/><path class="cls-1" d="M15.8,6.8Z"/><path class="cls-1" d="M15.9,6.6h0Z"/><path class="cls-1" d="M16.3,7.8h0Z"/><path class="cls-1" d="M16.1,8.5h0Z"/><path class="cls-1" d="M16,6.4h0Z"/><path class="cls-1" d="M16.1,8.5h0Z"/><path class="cls-1" d="M16.1,8.1Z"/><path class="cls-1" d="M16.3,6h0a.1.1,0,0,0-.1.1h.1V6Z"/><path class="cls-1" d="M15.2,5.2h.1c.1,0,.2,0,.2.1h-.2V5.1h0A.1.1,0,0,1,15.2,5.2Z"/><path class="cls-1" d="M18.9,11.7h0Z"/><path class="cls-1" d="M16.1,5.6h0l-.3-.2h0Z"/><path class="cls-1" d="M16.2,5.9h0Z"/><path class="cls-1" d="M16.2,5.8h0Z"/><path class="cls-1" d="M17.4,8.3l-.4.5h0Z"/><path class="cls-1" d="M18.2,7h0v.2c0,.2,0,.2.1,0h0v.2c0,.1-.1.2,0,.2v.2h0c.1-.1.1-.2.2-.5a2.8,2.8,0,0,0-.1-.9h0c0-.1.1,0,.1.2v.4a1.7,1.7,0,0,1-.1.7h.1a5.2,5.2,0,0,0,.2-1.1h0v.2c0,.2-.3,1-.2.8a2,2,0,0,0-.1-1.3h-.1v.2h0V6h0a5,5,0,0,1-.2,1.2h0Zm.2-.1Zm-.1-.5V6.2c.1,0,.1.2,0,.3Zm0,.2h0Zm0,.2Zm0,0h0Z"/><path class="cls-1" d="M19,8.4h-.1A1.4,1.4,0,0,0,19.3,7h0A1.5,1.5,0,0,1,19,8.4Z"/><path class="cls-1" d="M18.9,7.6a4.3,4.3,0,0,1-.1.5h0A3,3,0,0,0,19,6.5a.3.3,0,0,1-.1-.2.4.4,0,0,0,.1.3A3.8,3.8,0,0,1,18.9,7.6Z"/><path class="cls-1" d="M19.1,7.4a.3.3,0,0,1,.1-.2l-.3.7c0-.1.1-.1.1-.2Z"/><path class="cls-1" d="M19.5,7.8c-.1.1-.2.4-.4.5l.3-.4A.1.1,0,0,1,19.5,7.8Z"/><path class="cls-1" d="M19.5,7.9a.7.7,0,0,1-.2.6l-.4.5h-.1l.3-.2h-.2a1.5,1.5,0,0,0,.7-1.2h-.1Z"/><path class="cls-1" d="M16.1,8.7H16C16,8.7,16.1,8.8,16.1,8.7Z"/><path class="cls-1" d="M17.9,7.9h-.2c.2,0,.4.1.3.2h.2a.4.4,0,0,1,.1.3h0V9l-.2.2h0a.2.2,0,0,1,0,.3h-.1c.1.1,0,.2-.1.3h-.2c-.1.1-.1.1-.1.2h-.8c0,.1-.1.1-.2.2h0v.2h.8c.1.1.3,0,.4-.1h.3l-.2-.2h.1c.2,0,.3,0,.3-.1s0-.1-.1-.2h0c.2-.1.4-.2.4-.3h-.3l.3-.2h.1c0-.1,0-.1-.2,0h-.1a.2.2,0,0,0,.2-.2.5.5,0,0,0,.1-.3h-.3l.2-.2a.5.5,0,0,0,.1-.3c-.1,0-.1,0,0-.1h.1a.3.3,0,0,1,.1-.2V7.9l-.2.4h0a1.1,1.1,0,0,0,.3-.6,1.5,1.5,0,0,0,.1-.6c0-.1,0-.3-.1-.2h0a2.5,2.5,0,0,1-.4.9.3.3,0,0,0-.1.2l-.3.3c-.1,0-.1,0,.1-.2s.2-.3.2-.4h-.1l-.4.4.2-.2V7.9c.1-.1.1-.3,0-.3h-.1a3,3,0,0,1-.3.6V8a.8.8,0,0,0,.1-.4,2,2,0,0,0-.1-.5v.2c0,.1-.2.6-.2.5V7.2l-.3.7Zm-1,3.3h0Zm.4-.3h0Zm.2-.2h0Zm.1,0h0Zm.2-.2h0Zm.1,0Zm.1-.3h0Zm.3-.4h0Zm.1-.4h0c-.1,0-.1,0,0-.1Zm0-.6a.1.1,0,0,1,.1-.1Zm.1.3h0Zm-.2-.6h0Zm-.2-.2a.1.1,0,0,0,.1-.1h0a.1.1,0,0,1-.1.1h0Zm-.2-.2V7.9h-.1Z"/><path class="cls-1" d="M16.6,9.3c0-.2-.2-.3-.3-.5l.2.3C16.5,9.2,16.6,9.2,16.6,9.3Z"/><path class="cls-1" d="M17,9.3Z"/><path class="cls-1" d="M16.5,10h0Z"/><path class="cls-1" d="M17.6,8.2l.2-.2h-.2Z"/><path class="cls-1" d="M19.6,8.5l-.5.4.3-.3Z"/><path class="cls-1" d="M13.4,6.8Z"/><path class="cls-1" d="M11.4,13Z"/><path class="cls-1" d="M13.5,14.1Z"/><path class="cls-1" d="M10.3,10.2c0,.1,0,.1.1.2h0A.1.1,0,0,1,10.3,10.2Z"/><path class="cls-1" d="M17.9,13.5Z"/><path class="cls-1" d="M10.5,10.4h0c.1,0,0,0,0,.1h0C10.6,10.5,10.6,10.5,10.5,10.4Z"/><polygon class="cls-1" points="14.1 14.7 14.1 14.7 14.1 14.7 14.1 14.7"/><path class="cls-1" d="M19.2,13.2h0Z"/><path class="cls-1" d="M16.9,13.2Z"/><path class="cls-1" d="M11.4,13.5h-.1v.2h0Z"/><path class="cls-1" d="M11.6,13.9h-.1l.2.2h-.1Z"/><path class="cls-1" d="M11.9,14a.4.4,0,0,0,.1.3h0C12,14.1,12,14,11.9,14Z"/><path class="cls-1" d="M11.1,12.1c-.2-.2-.2-.3-.3-.9s-.1-.4-.1-.5h-.1c.3.4.1,1,.5,1.4h0Z"/><path class="cls-1" d="M11.4,13.2h.1l-.2.2Z"/><path class="cls-1" d="M11.3,12.5h-.1a.9.9,0,0,1,.1.5Z"/><path class="cls-1" d="M13.7,7.8Z"/><path class="cls-1" d="M18.9,11.9h0v-.2Z"/><path class="cls-1" d="M17.1,9.7h0Z"/><path class="cls-1" d="M17.3,7.1h0Z"/><path class="cls-1" d="M10.8,7.2Z"/><path class="cls-1" d="M17.5,8h0Z"/><path class="cls-1" d="M18.8,11.5h0Z"/><path class="cls-1" d="M12,14.4Z"/><path class="cls-1" d="M15.1,4.9Z"/><path class="cls-1" d="M16.8,11.9Z"/><path class="cls-1" d="M17.5,11.8h0Z"/><path class="cls-1" d="M18.1,11.6Z"/><path class="cls-1" d="M19,10.7a.1.1,0,0,1-.1.1A.1.1,0,0,0,19,10.7Z"/><path class="cls-1" d="M18.9,9.8l.6-.2Z"/><path class="cls-1" d="M16.3,7.9h0v0Z"/><path class="cls-1" d="M16.3,14.2s-.1,0,0,.1h0v-.2h0Z"/><path class="cls-1" d="M16.5,14c-.1-.1-.2-.3-.4-.3a.4.4,0,0,0-.1-.3c.1.2.1.3.2.3Z"/><path class="cls-1" d="M15.9,13.2H16a.3.3,0,0,0-.1-.2h0Z"/><path class="cls-1" d="M16,14.5h0s.1,0,0-.2h0Z"/><path class="cls-1" d="M15.6,14.7h0Z"/><path class="cls-1" d="M15,15.4h-.1c.1.2.3-.1.3-.2h0v.2Z"/><path class="cls-1" d="M15.5,15c.1.1.1,0,.1-.1h-.1Z"/><path class="cls-1" d="M15.3,14.9Z"/><path class="cls-1" d="M16.2,12.8l-.3-.3-.3-.3c-.1,0,0,.2.1.4h.1l-.2-.3c.2,0,.5.5.7.7h0Z"/><path class="cls-1" d="M18.2,13.5l.7-.2h-.7Z"/><path class="cls-1" d="M19,12.2h.1l-.2-.2Z"/><path class="cls-1" d="M19.2,12.7h.1c0-.2-.1-.3-.1-.5v.2Z"/><path class="cls-1" d="M16.4,13h0Z"/><path class="cls-1" d="M17.1,13.2l.5.2-.3-.2Z"/><path class="cls-1" d="M13.8,14.3h0a.2.2,0,0,1-.3-.1l.3.2v0Z"/><path class="cls-1" d="M12.8,13.2l-.3.3.4-.3h-.1Z"/><path class="cls-1" d="M14.7,14.9h0c.1,0,.1.1.1.2h-.1Z"/><path class="cls-1" d="M14.5,12.2h-.2c.3-.3.1,0,0,.2h0A1.4,1.4,0,0,0,14.5,12.2Z"/><path class="cls-1" d="M13.8,13l.3-.5a.8.8,0,0,1-.2.4Z"/><path class="cls-1" d="M12.2,13.9h.1c-.1,0,0-.2,0-.3h-.1Z"/><path class="cls-1" d="M12.5,14.1Z"/><path class="cls-1" d="M13.6,12.9l-.4.2h0l.3-.2h.1Z"/><path class="cls-1" d="M14.4,14.7h-.1c.1,0,.1,0,.1.1h0Z"/><path class="cls-1" d="M14.2,13.1h-.1v-.2h-.1v.4h.1Z"/><path class="cls-1" d="M14.6,15.1Z"/><path class="cls-1" d="M14,14.5h0Z"/><path class="cls-1" d="M12.3,14.4c0-.1,0-.2.1-.2h-.1Z"/><path class="cls-1" d="M13.5,14h.3l.2-.3a.8.8,0,0,1-.4.4h-.1Z"/><path class="cls-1" d="M12.2,13.6h0Z"/><path class="cls-1" d="M14.1,11.1h0Z"/><path class="cls-1" d="M15.2,8.5h0v.2h0Z"/><path class="cls-1" d="M18.7,12.4h0Z"/><path class="cls-1" d="M14.4,6.4c.1,0,.1,0,.1-.1h0c0,.1-.1.1-.2,0h.1Z"/><path class="cls-1" d="M14.2,11h.3v-.2h0c-.1-.2-.1-.1-.1,0S14.3,11,14.2,11Z"/><path class="cls-1" d="M18.7,12.2Z"/><path class="cls-1" d="M18.6,12.5h0s-.1,0,0,.1Z"/><path class="cls-1" d="M15.4,5.4h.1s-.1-.1-.1,0Z"/><path class="cls-1" d="M14.2,5.9c0,.2,0,.2.1.2h.2c.1-.1.2-.3.3-.3h.1c0-.1,0-.1-.1-.1s-.1,0-.1.1.1.1,0,.1h-.2A.9.9,0,0,0,14.2,5.9Zm.2,0h-.1c-.1-.1.1-.2.1-.1S14.5,5.9,14.4,5.9Zm.1-.3c.1,0,.1,0,0,.1h0Z"/><path class="cls-1" d="M19.1,12.6h0Z"/><path class="cls-1" d="M14.2,9.5Z"/><path class="cls-1" d="M15.2,5.8h0c0,.1.1.1,0,.2S15.3,5.9,15.2,5.8Z"/><path class="cls-1" d="M15.5,6.3c.1-.1,0-.1,0-.1h0Z"/><path class="cls-1" d="M15.8,5.6l.2.2c0,.1.1.1.1.2a.1.1,0,0,0,0,.2h0c.2-.1.2-.2.1-.2h0c0-.1,0-.2-.1-.2a.1.1,0,0,1-.1-.1h-.4S15.7,5.6,15.8,5.6Z"/><path class="cls-1" d="M18.4,12.5h0Z"/><path class="cls-1" d="M14.4,6.6h-.2c.1,0,.1,0,.1-.1Z"/><path class="cls-1" d="M18,12.6h.9a.1.1,0,0,0,.1.1h.1c0-.1.1-.1.1-.2h-.4a.6.6,0,0,1,.1-.4h-.3v.4H18Zm1,0h0C18.9,12.7,19,12.6,19,12.6Zm-.3-.5Zm-.1.2h0Zm-.1.2c.1-.1.2,0,.2.1h-.2Zm-.2,0h0Zm-.2-.1h0C18,12.5,18.1,12.4,18.1,12.4Z"/><path class="cls-1" d="M15.1,6.3h0Z"/><path class="cls-1" d="M14.6,8h.3Z"/><path class="cls-1" d="M14.9,6.2h0Z"/><path class="cls-1" d="M15.1,11.1h0Z"/><path class="cls-1" d="M15.2,6.3h0Z"/><path class="cls-1" d="M15.8,5.9h0Z"/><path class="cls-1" d="M15.3,6.4h.2c.1-.1.1-.1,0-.1s-.1.1-.1,0h-.1c-.1.1-.2.1-.2,0s-.1,0,0,.1Z"/><path class="cls-1" d="M13.9,9.8Z"/><path class="cls-1" d="M14.9,8.6V8.4h-.1v.2h.1C15,8.8,15,8.7,14.9,8.6Z"/><path class="cls-1" d="M18.8,12.6h0Z"/><path class="cls-1" d="M18.2,12.5h0Z"/><path class="cls-1" d="M15,11.1Z"/><path class="cls-1" d="M16,6.3h-.1c.1.1.1.1.1,0h0Z"/><path class="cls-1" d="M16,14.6l-.3-.3-.2-.2v-.2h-.1v.2h.1c0,.2.1.3.4.4H16Zm-.3-.1h0Z"/><path class="cls-1" d="M15.9,14h-.3l.4.4h.3Zm-.1.2h.1C16,14.3,15.9,14.3,15.8,14.2Z"/><path class="cls-1" d="M16,13.6h-.2v.2h0s-.1,0,0,.1l.3.2h.4a.8.8,0,0,1-.4-.4Zm.1.3h.1l-.2-.2Z"/><path class="cls-1" d="M15.8,13.1h-.1v.2h0c-.1-.1-.1-.1-.1,0h-.1c.1.1,0,.1,0-.1h-.5v.2H15v-.2h-.4c.1,0,.1-.1,0-.1h-.1c-.1.1-.1.1,0-.1h-.1c0-.1,0-.1-.1,0h0v-.2h-.1l-.2.2h0c0,.2,0,.2.1.1s.1-.1.1.1h0c0,.1.1.1.2,0h0V14l.2-.2a.1.1,0,0,1,.1-.1h0c0,.2.1.3.2.3h.1c.1,0,.1-.2.2-.3h.1v-.2h0a.1.1,0,0,1,.1.1c.1,0,.1-.1.1-.2v-.2h.1c.1,0,.1-.2.1-.3Z"/><path class="cls-1" d="M14,9.9c.1,0,.1.1.1.2s.2.2.2.1h0V9.9c-.1-.1-.1-.1,0-.2s0-.2-.1-.1H14Z"/><path class="cls-1" d="M14,9.6h0Z"/><path class="cls-1" d="M14.7,6.3h0Z"/><path class="cls-1" d="M15,14.4h-.2l-.2.2v.2s-.1.1,0,.1h.3Zm-.4.4h.3Z"/><path class="cls-1" d="M14.9,14.1h-.1v-.2h-.3a.2.2,0,0,1-.2.2l-.2.3h.2l.4-.2Zm-.3.2-.3.2h.3Z"/><path class="cls-1" d="M15.5,14.5l-.3-.2h-.1c0,.2,0,.2.2.3s.1.1.1.2h.2C15.7,14.8,15.6,14.7,15.5,14.5Zm0,.3-.2-.2h.1Z"/><path class="cls-1" d="M14.5,14.1h-.2l-.3.2-.2.3H14l.3-.2A.2.2,0,0,0,14.5,14.1Zm-.3.1h.1l-.2.2A.1.1,0,0,1,14.2,14.2Z"/><path class="cls-1" d="M14.5,6.3c0,.1.1.1.3.1H15c0,.1-.1.1-.2,0h-.1c0,.1-.1.1-.1,0Z"/><path class="cls-1" d="M15,14.6h-.1a.2.2,0,0,0,0,.3v.2h.1c.1,0,.1-.2.1-.2v-.2Zm0,.4v-.3a.1.1,0,0,1,.1.1Z"/><path class="cls-1" d="M14.3,6.3h0a.1.1,0,0,1-.1-.1c0,.1,0,.1.1.2h-.1c-.1,0-.1-.1-.2-.2v.2Z"/><path class="cls-1" d="M19.2,12.8Z"/><path class="cls-1" d="M18.7,11.8H19a.1.1,0,0,0-.1-.1h-.3c0,.1,0,.1.1.1Z"/><path class="cls-1" d="M14.4,8.9h.4c.2,0,.2,0,.1-.2h-.4v.2h-.1c0,.1-.1.2-.1.3Z"/><path class="cls-1" d="M16.1,5.7h0a.1.1,0,0,0-.1-.1Z"/><path class="cls-1" d="M15.5,12.3l-.4.3h-.2l-.3-.3-.3.3c-.1.1-.1.2-.1.4h.1v-.2h0v.3c0,.1,0,.1.1.1l.2-.2h0c-.1.2-.1.3,0,.4s.1,0,.2-.3h0c0,.1,0,.3.1.3h.1a1,1,0,0,0,.1-.3h0v.2c.1,0,.1-.1.1-.3s0-.2,0-.1.1.2.2.2.1-.1.1-.3h0c0,.2.1.2.2.2h0c0-.2-.1-.2-.2-.4v-.2Zm-1.1.5h-.1v-.2Zm.2.1v.2h.1Zm.2.2h0Zm.2.2h0C15.1,13.1,15.1,13.2,15,13.3Zm.3-.1h-.1C15.3,13,15.3,13.2,15.3,13.2Zm.3-.1h-.1Zm.1-.3v0h0Z"/><path class="cls-1" d="M15.4,9.8h0l.4.2h0a.2.2,0,0,0,.3,0c.1-.1.1-.2,0-.2h-.3c-.3,0-.4-.1-.3-.2h.3l-.4.2h0Zm.5-.2h0Z"/><path class="cls-1" d="M15.2,5.5v.2c0-.3.3,0,.3.2s0-.1-.1-.2S15.2,5.5,15.2,5.5Z"/><path class="cls-1" d="M16.1,6.3Z"/><path class="cls-1" d="M15.4,6.6h0C15.3,6.6,15.4,6.6,15.4,6.6Z"/><path class="cls-1" d="M14.2,5.7v.2h.1c0-.1-.1,0-.2,0V6C14.1,5.9,14.1,5.7,14.2,5.7Z"/><path class="cls-1" d="M16.2,6.3h0Z"/><path class="cls-1" d="M15.2,6.1Z"/><path class="cls-1" d="M15.5,6.2h0Z"/><path class="cls-1" d="M15.2,11.1h.2c.1-.1.1-.1,0-.2h-.2Z"/><path class="cls-1" d="M15,9.4h0Z"/><path class="cls-1" d="M14.1,8.4a.8.8,0,0,0,.2.4h.1V8.2h.5c.1-.1.1-.1,0-.2L14.6,8h0c-.1,0-.2,0-.2-.1h-.1s.1-.1,0-.1a.1.1,0,0,1-.1-.1H12.9c-.1,0-.1.1-.1.2h.4c.1,0,.3.3.3.3s-.2.1-.3,0,0,0,0,.1h.5c0,.1.1.1.1.2h.1c0-.1.1,0,.1.2s0,.2.1.2Zm.4-.3h.1a.1.1,0,0,1,.1.1h-.2Zm-.3.1c.1,0,.1.1.1.2v.2h0V8.3Zm-.4-.6a.1.1,0,0,1,.1.1H14c.1,0,0-.1-.1-.2h0c.1,0,.2.1.2.3s.1.1,0,.1S13.8,7.7,13.8,7.6Z"/><path class="cls-1" d="M14.6,5.8c-.1,0-.1.1-.1.2s.1-.3.2-.3Z"/><path class="cls-1" d="M14.6,9.7h0Z"/><path class="cls-1" d="M15,5.8c0,.1,0,.2.1.1h0A.1.1,0,0,0,15,5.8Z"/><path class="cls-1" d="M15,9.7h0a.1.1,0,0,0,.1-.1H15C14.9,9.6,14.9,9.7,15,9.7Z"/><path class="cls-1" d="M15.9,8.7H16V8.6Z"/><path class="cls-1" d="M16.5,10.1c0,.2.1.3.1.4h0a.4.4,0,0,0,.1.3h.1v-.2h0c.2.1.2.2.3.1s.1-.1.1-.2h0c.2.1.3,0,.3-.1h.2c-.1-.1,0-.1.1-.1h.2V9.5h.2c.1-.1.1-.1,0-.2h-.1c-.1,0-.1-.1,0-.1h0a.1.1,0,0,0,.1-.1c.1-.1.1-.1,0-.1h-.3V8.3h-.1c0-.1-.1-.1-.2,0h-.2l-.3.5-.3.4.2.3c.2.1.3.2.2.3s-.1.2-.3.2h-.5Zm1.4-1.4h0Zm.2.3h0Zm-.1.4h0Zm-.1.3h0Zm-.2-1.2h0Zm-.2,1.3h0Zm-.2.3Zm-.4.2h0Zm-.2.3Z"/><path class="cls-1" d="M15.2,5.4h.1s.2.1.2.2.1.1.1.2v.2h.3a.4.4,0,0,0-.1-.3c0-.2-.1-.3-.2-.3h-.3C15.2,5.3,15.2,5.3,15.2,5.4Zm.6.5h-.2a.1.1,0,1,1,.2,0Zm-.3-.3h.2a.1.1,0,0,1-.1.1h-.1Z"/><path class="cls-1" d="M16.6,11.4h0c-.1.1,0,.2.1.2h.1v-.3Z"/><path class="cls-1" d="M14.3,5.8h0Z"/><path class="cls-1" d="M15.2,9.5Z"/><path class="cls-1" d="M15.2,5.1h-.3a.1.1,0,0,0,.1.1Z"/><path class="cls-1" d="M15.1,5.4h0Z"/><path class="cls-1" d="M14,11.1h0Z"/><path class="cls-1" d="M15.1,8.2h0Z"/><path class="cls-1" d="M14.7,5.4Z"/><path class="cls-1" d="M15.4,8h0Z"/><path class="cls-1" d="M15.4,7.8h0Z"/><path class="cls-1" d="M14.2,8.8h0Z"/><path class="cls-1" d="M15.7,7.6h0Z"/><path class="cls-1" d="M14.7,10.2h-.3c-.1.1-.1.1,0,.2h.1c0-.1.1-.1.1,0s0,.1,0,.1h.3c.1,0,.1,0,.1-.1h.1V10h-.4c-.1.1-.1.1,0,.1h.1c.1.1-.1.1-.1.1h.1Zm0-.7h0Z"/><path class="cls-1" d="M14.9,6.2c-.2.1-.3,0-.4-.1h.4Z"/><path class="cls-1" d="M15,11.2h0Z"/><path class="cls-1" d="M17.2,7.1H15.9l-.2.2h.1l-.3.2h0l-.3.2c-.1.1-.1.1,0,.1h.5v.6h.1a.3.3,0,0,1,.1-.2V8.4H16c.1,0,.1,0,.1-.2s0-.3.1-.2h.1V7.8h.4c.1,0,.1,0,.1-.1h-.1c0,.1-.2.1-.2,0h-.1l.4-.3h.4Zm-1.6,1-.2.2h.2Zm.2.3h0V8.4Zm.4-.7-.3.2h0a.5.5,0,0,1,.2-.4h0c.1,0,0,.1,0,.1s-.1.1-.1.2h.2C16.3,7.6,16.3,7.7,16.2,7.7Z"/><path class="cls-1" d="M15.1,5.7h0Z"/><path class="cls-1" d="M15.7,7h0Z"/><path class="cls-1" d="M14.8,5.8h0c.1-.3.1-.3,0-.3h0Z"/><path class="cls-1" d="M15.1,6.2h0Z"/><path class="cls-1" d="M17.2,12.6h0Z"/><path class="cls-1" d="M15.6,5.6h0Z"/><path class="cls-1" d="M14.2,7.2h-.1l.2.2C14.2,7.3,14.1,7.3,14.2,7.2Z"/><path class="cls-1" d="M13.4,7h.7l.2-.2h-1C13.2,7,13.2,7,13.4,7Z"/><path class="cls-1" d="M17.1,12.8a.1.1,0,0,0-.1-.1h0V13h.1c.2,0,.5.2.5.3h.5l1-.3h.1v-.2h-.1v.2h-.2c-.1,0-.2-.1,0-.2v-.2h-.1c-.1,0-.1.1-.2.2l-.4.2-.2-.3c-.1-.2-.1-.3-.2-.2h0v.2c.1.1.2.3.1.3h-.2l-.4-.3Z"/><path class="cls-1" d="M16.7,12.5h0v.2h-.1c-.1-.2-.2-.2-.2-.1v.2h.1l.4.3h0a.6.6,0,0,0-.1-.4h-.2Z"/><path class="cls-1" d="M14.5,6.2a.1.1,0,0,0-.1-.1h.1Z"/><path class="cls-1" d="M15.6,11.1h0Z"/><path class="cls-1" d="M14.5,5.6Z"/><path class="cls-1" d="M14.4,6.7h1.3c-.1-.1-.1-.1,0-.2H14.4Zm.9-.2h.2v.2h-.2Zm-.4.1h.2c.1.1.1.1,0,.1a.1.1,0,0,1-.1.1Zm-.3-.1h.1c-.1,0-.1,0-.1-.1S14.5,6.6,14.6,6.5Z"/><path class="cls-1" d="M14.4,7.5h.3l-.3-.2Z"/><path class="cls-1" d="M17.9,12.5h0C17.8,12.5,17.8,12.5,17.9,12.5Z"/><path class="cls-1" d="M13.4,7.1h0c.1,0,.1,0,.1-.1Z"/><path class="cls-1" d="M14.6,7h0Z"/><path class="cls-1" d="M18.4,11.3l.2-.2h-1l.3.2Z"/><path class="cls-1" d="M18.1,10.9h.5c.2,0,.3-.1.3-.2h-.6c-.1,0-.2,0-.2-.1h-.2C17.9,10.8,17.9,10.8,18.1,10.9Z"/><path class="cls-1" d="M17.4,11.8h0l-.2-.2H17l.2.2h-.5l.2.3C17,11.8,17.2,11.8,17.4,11.8Z"/><path class="cls-1" d="M14.3,10.5h1.2l.2.2c0,.1.1.1.1,0h.1c.1.1,0,.2-.1.2H16a.6.6,0,0,0,.1-.4v-.2h-.2v-.2h-.6a.1.1,0,0,1-.1.1h-.8Z"/><path class="cls-1" d="M15.4,7h0Z"/><path class="cls-1" d="M17.5,11.6H18l-.3-.2h-.3l.2.2h-.3C17.2,11.3,17.3,11.5,17.5,11.6Z"/><path class="cls-1" d="M14.9,6.1h.3V5.5c0-.2,0-.2-.1-.2h-.2v.2A.8.8,0,0,0,14.9,6.1Zm.2-.1H15c0-.1,0-.1.1-.1S15.2,5.9,15.1,6Zm0-.6Zm-.1.2h.1c.1.1,0,.1,0,.1H15C14.9,5.7,14.9,5.6,15,5.6Z"/><path class="cls-1" d="M16.5,11.7h-.6l.3.3v0h0v.2c0,.1.1-.1.1-.2v-.2h.3c-.1,0-.3,0-.3-.1H17c.1-.1,0-.1-.1-.1h-.1a.5.5,0,0,1-.3-.3Z"/><path class="cls-1" d="M18.7,10h.6l.2-.4h-.1l-.3.2h-.4Z"/><path class="cls-1" d="M15.8,11.1Z"/><path class="cls-1" d="M18.4,10.6h.2l.6-.3h-.8Z"/><path class="cls-1" d="M14.5,6.3h0Z"/><path class="cls-1" d="M14.4,6.3h0c.1,0,0-.1,0-.1S14.3,6.3,14.4,6.3Z"/><path class="cls-1" d="M15.8,7.3h0Z"/><path class="cls-1" d="M12.6,11.7c0,.1.1.1.2.1s.2,0,.2-.1.3-.2.4-.4h-.5l.2-.2h-.2l-.2.2Z"/><path class="cls-1" d="M11.6,7.5a.8.8,0,0,1-.1-.4h0c.1.4,0,.3-.1,0h0v.3Z"/><path class="cls-1" d="M15.3,8.9h.2c.2,0,.2,0,.1-.1V8.5h-.3Z"/><path class="cls-1" d="M15.1,6.9h0Z"/><path class="cls-1" d="M13.2,11.7h.2c.1,0,.1-.1.1-.2h-.1v-.2h-.1C13.3,11.6,13.3,11.7,13.2,11.7Z"/><path class="cls-1" d="M14.7,6.6Z"/><path class="cls-1" d="M13.5,10.7v-.2h0v-.2h-.5c-.2,0-.3-.1-.3-.2s-.1-.1,0-.2h.1c.2-.1.2-.2.2-.3l-.2-.4-.3-.4h-.2c-.1-.1-.2-.1-.2,0s-.1.1,0,.3.1.1,0,.1h-.4a.2.2,0,0,0,.2.2c.1.1,0,.1-.1.1H12c.1.1.1.1,0,.1s-.2.2,0,.2h.1c-.1.1-.2.2-.1.3h.5c0,.1.1.2.2.1s.2,0,.1.1,0,.2.1.2h.3c0,.1.1.1.2.1Zm-1.4-2ZM12,9h0Zm.1.4Zm.2.2h0Zm.1-1.1h0Zm.1,1.4Zm.2.3h0l.2-.2Zm.5.1h0Zm.2.3h0Z"/><path class="cls-1" d="M13.2,9.1a.4.4,0,0,0-.2-.4h0l.2.3Z"/><path class="cls-1" d="M12.8,8.5l-.2-.4h0Z"/><path class="cls-1" d="M11.2,10.7h-.1a.1.1,0,0,0,.1.1.6.6,0,0,0,.6.1h0l.3-.2h-.9Z"/><path class="cls-1" d="M15.9,6.6h-.2c.1.1.1.1.2,0Z"/><path class="cls-1" d="M15.8,6.9c0,.1,0,.2.2.3h.8c0-.2-.3-.2-.6,0h-.4Z"/><path class="cls-1" d="M11.7,11.1h.4l.4-.2h-.4Z"/><path class="cls-1" d="M12.4,8.2h0Z"/><path class="cls-1" d="M11.5,6.2V6a1.4,1.4,0,0,0-.1,1.1V6.2Z"/><path class="cls-1" d="M15.6,6.1h0Z"/><path class="cls-1" d="M12.2,7.8h0c-.1-.2-.2-.3-.2-.5a.3.3,0,0,1-.1-.2,1,1,0,0,0-.1.3v.2a.6.6,0,0,0,.2.5h0c0,.1-.2-.3-.3-.5V7.5a.3.3,0,0,0-.1.2.4.4,0,0,0,.1.3v.2c.2.2.2.2.1.2L11.5,8h-.1v.2c0,.1,0,.2.2.4h0l-.3-.2v.2l.3.4h-.3v.2l.3.3a.1.1,0,0,0,.1.1h-.4a.5.5,0,0,0,.1.3h0c0,.1.2.2.4.3H12c.2,0,.3,0,0,.1h.4c-.2.1-.2.1-.2.2h.6a.1.1,0,0,0,.1.1h.4c.1,0,.1-.1.1-.2h0c-.1-.1-.2-.1-.2-.2h-.8c0-.1,0-.1-.1-.2h-.2c-.1-.1-.2-.2-.1-.3h-.1a.4.4,0,0,1-.1-.3h0V8.8h0c-.1-.2,0-.3.2-.3h.1c-.1,0,0-.1,0-.1s.2-.1.3-.1h0V8.1h-.1L12,7.2h0Zm.9,3.3h0Zm-.3-.2h0Zm-.2-.2h0Zm-.1,0Zm-.1-.3Zm-.1.1h0Zm-.2-.3Zm-.2-.4h0Zm-.3-1h0Zm.1.7h0Zm0-.3h0Zm.1-.7h0Zm.2-.2a.1.1,0,0,1-.1-.1H12Zm.1-.3h0Z"/><path class="cls-1" d="M14.1,6.3H14s.1.1.1,0Z"/><path class="cls-1" d="M13.5,11c-.1.1,0,.2,0,.3l.2.4.7.4a.7.7,0,0,1,.5.4h.2a.9.9,0,0,1,.5-.3L16,12h.2l.3-.4a1.1,1.1,0,0,0,.1-.8,4.1,4.1,0,0,1-.1-1V9.4h0c0-.1-.4-.5-.4-.5H13.9l-.2.2c-.1.1-.2.2-.2.3h-.1v.2c.1.1.1.2.1.4s-.1.6-.1.7Zm.2-1.1V9.5h-.1L14,9h2.2l.3.4h-.1c-.1.3-.1.4,0,1.1a.8.8,0,0,1,0,.7,1.3,1.3,0,0,1-.5.6h-.2l-.6.3H15l-.6-.3c-.1,0-.4-.2-.4-.3s-.3-.2-.3-.4-.1-.3-.1-.6S13.8,10,13.7,9.9Z"/><path class="cls-1" d="M16.7,7.2a.1.1,0,0,0-.1-.1h0C16.5,7.2,16.6,7.2,16.7,7.2Z"/><path class="cls-1" d="M15.5,6.8a1.7,1.7,0,0,1-1,0h-.1c-.1.1-.1.1,0,.1h1.3C15.7,6.8,15.6,6.8,15.5,6.8Z"/><path class="cls-1" d="M11.7,5.9h0l-.2.3v1c.1.2.1.4.2.4h0c0-.1-.1-.4-.1-.5v.4h0V7.2h.1c-.1-.4-.1-.8-.2-1.2Zm.1.7h0Zm0-.1h0ZM11.7,6V6Z"/><path class="cls-1" d="M14,6.1h0c0-.1,0-.2.1-.2a.2.2,0,0,1,.2-.2h-.2a.1.1,0,0,1-.1.1c-.1,0-.1.1-.1.2h0c-.1,0-.1.1,0,.1H14Z"/><path class="cls-1" d="M15.9,6.4h-.2c-.1,0-.1,0-.1-.1h.3Z"/><path class="cls-1" d="M16,6V5.8c-.1,0-.2-.2-.2-.2v.2h.1C15.8,5.6,16,5.8,16,6Z"/><path class="cls-1" d="M15.9,5.9h0Z"/><path class="cls-1" d="M15.6,6.3h.1c.1,0,.1,0,0-.1Z"/><path class="cls-1" d="M15.6,6.3Z"/><path class="cls-1" d="M12.1,11.4h.5l.2-.3h0a.1.1,0,0,0-.1.1h-.2l.2-.2h-.6Z"/><path class="cls-1" d="M14.3,6.8Z"/><path class="cls-1" d="M14.2,6.5H14l.2.2h0Z"/><path class="cls-1" d="M13.9,5.7a.3.3,0,0,0-.1.2h0Z"/><path class="cls-1" d="M13.8,6.2h0v.3Z"/><path class="cls-1" d="M12.8,7.1h.1s-.1,0-.1.2-.1.2,0,.2h0Z"/><path class="cls-1" d="M13.2,7Z"/><path class="cls-1" d="M14,6.9h0Z"/><path class="cls-1" d="M14.9,4.9Z"/><path class="cls-1" d="M14.8,5.2h0C14.9,5.3,14.9,5.3,14.8,5.2Z"/><path class="cls-1" d="M11.6,10.1h-.3l-.7-.3h0c-.1,0,.1.3.2.4l.6.2Z"/><path class="cls-1" d="M14,5.7h-.1C13.9,5.7,13.9,5.7,14,5.7Z"/><path class="cls-1" d="M14.9,4.8c.1,0,.1,0,.1.1h.1c0-.1,0-.1.1-.1h-.3Z"/><path class="cls-1" d="M14.2,5.5h0l-.2.2h.2Z"/><path class="cls-1" d="M14.3,5.5h0C14.2,5.5,14.2,5.5,14.3,5.5Z"/><path class="cls-1" d="M13.2,7.4Z"/><path class="cls-1" d="M13.3,9.8l.2.2h0l-.2-.2Z"/><path class="cls-1" d="M13.8,8.1Z"/><path class="cls-1" d="M11.4,10.6h-.6A.9.9,0,0,0,11.4,10.6Z"/><path class="cls-1" d="M14,6.3h0Z"/><path class="cls-1" d="M12.8,9.6l.3.2h.1a.5.5,0,0,1-.4-.2l.3-.3H13Z"/><path class="cls-1" d="M10.7,10.3h.1c0-.1,0-.1-.1,0Z"/><path class="cls-1" d="M13.9,5.9h0Z"/><path class="cls-1" d="M14.1,8.5h-.2c.2,0,.2.1,0,.2h0C14,8.8,14.1,8.6,14.1,8.5Z"/><path class="cls-1" d="M14,8.1h-.1c.1,0,0,.2,0,.4h0A.4.4,0,0,0,14,8.1Z"/><path class="cls-1" d="M13.6,9h.2l-.2.2c-.1.1-.2.1-.2.2h0Z"/><path class="cls-1" d="M10.5,10.3c0-.1.1,0,.1.1h.1v-.2s-.1-.1,0-.1h0c.1,0,.1,0,0-.1h-.2c-.1,0-.1,0-.1.1Z"/><path class="cls-1" d="M14,6.3h0Z"/><path class="cls-1" d="M13.6,9.9a.9.9,0,0,1-.1-.5h-.1c0,.2.2.4.1.6Z"/><path class="cls-1" d="M12,13.5h0s-.1.1,0,.1Z"/><path class="cls-1" d="M11.6,11.1h0c.2-.1.3-.1.1-.1h-.1Z"/><path class="cls-1" d="M13.1,11.8Z"/><path class="cls-1" d="M12.5,11.7Z"/><path class="cls-1" d="M12,11.4h0Z"/><path class="cls-1" d="M11.5,12.3c0-.1-.1-.1-.2-.1s-.1.1,0,.1h.2Z"/><path class="cls-1" d="M11.6,10.7h-.1l-.6-.2h0c-.1,0-.1.3,0,.5s.1.2.2.4a.8.8,0,0,1,.2.6v.3h0c0-.6-.6-1.1-.5-1.7s.7.2.5.3h.2Z"/><path class="cls-1" d="M11.6,13h.1l-.2-.4c-.1-.1-.1-.1-.1.1a.8.8,0,0,0,.1.4h.1Z"/><path class="cls-1" d="M12.6,12.7h0Z"/><path class="cls-1" d="M12.7,12.7h-.1c.1,0,.2-.1.1-.1h0Z"/><path class="cls-1" d="M12.7,12.9Z"/><path class="cls-1" d="M12.8,12.4h0Z"/><path class="cls-1" d="M12.3,13h0Z"/><path class="cls-1" d="M13.3,11.9Z"/><path class="cls-1" d="M13.2,11.8h0Z"/><path class="cls-1" d="M13.2,12.1h.1l.2-.3h0C13.6,11.8,13.4,12.1,13.2,12.1Z"/><path class="cls-1" d="M15,6.6h0C14.9,6.5,14.9,6.6,15,6.6Z"/><path class="cls-1" d="M12.1,13.9H12v.2h0Z"/><path class="cls-1" d="M13.1,12.7a.1.1,0,0,0-.1.1H11.7c-.2,0-.2.2-.1.3h.5c-.2-.1-.2-.1-.2,0h.2v.3h.2l.5-.4H13Z"/><path class="cls-1" d="M12.2,14.3c.1-.1,0-.1,0-.1Z"/><path class="cls-1" d="M13.4,12.7c-.1.1-.1.1,0-.1h-.2a.8.8,0,0,0-.2.5h.6v-.2Z"/><path class="cls-1" d="M14.1,12.1h0a.1.1,0,0,0-.1.1h-.1l.2-.2h-.5l-.2.2-.2.2H13a.1.1,0,0,1,.1.1h.5v.5c.1.1.1.1.1-.2s.1-.2.1,0-.1.1-.1.2l.3-.4.2-.2a.1.1,0,0,0,.1-.1h-.2Z"/><path class="cls-1" d="M11.1,7a1.5,1.5,0,0,0,.2.8c0,.2.1.2.1.2h-.1V7.4h0l.2.4V7.5a3.5,3.5,0,0,1-.3-1.1c.1-.1.1-.1.1.1v.4c0-.2,0-.6-.1-.6A1.7,1.7,0,0,0,11.1,7Zm.2.3h0Z"/><path class="cls-1" d="M11.7,13.5h0Z"/><path class="cls-1" d="M11.5,13.5h0c0-.1,0-.1-.1-.1s-.1.2,0,.2Z"/><path class="cls-1" d="M11.8,13.8a.1.1,0,0,1,.1-.1h-.1Z"/><path class="cls-1" d="M14.3,13.8h0s-.1,0,0-.1,0-.2-.1-.1H14c0,.1-.1.1-.1.2l-.4.2H14Zm-.4.2h.2l-.2.2Z"/><path class="cls-1" d="M11.9,13.3h0Z"/><path class="cls-1" d="M12.2,13.7h-.5c-.1,0,0,0,0,.1H12C12.2,13.9,12.2,13.8,12.2,13.7Z"/><path class="cls-1" d="M11.7,13.5h.1Z"/><path class="cls-1" d="M11.4,9.9h-.1a1.1,1.1,0,0,1-.9-.7h0c0,.2.5.6.7.7s-.1,0-.3-.1h-.2l.4.2Z"/><path class="cls-1" d="M10.8,10.1h0Z"/><path class="cls-1" d="M11.5,10.2h-.1l-.6-.2-.3-.4h0l.2.3c0,.3.9.3.7.3h.1Z"/><path class="cls-1" d="M10.7,10Z"/><path class="cls-1" d="M10.5,10.2h0Z"/><path class="cls-1" d="M10.4,10Z"/><path class="cls-1" d="M10.6,7.7Z"/><path class="cls-1" d="M10.8,8.2c.1.1.3.4.4.3h-.1l-.3-.5a.6.6,0,0,0-.1-.4.4.4,0,0,1,.1-.3c-.2.4.1.9.3,1.3l-.5-.7h0C10.7,7.9,10.8,8.1,10.8,8.2Z"/><path class="cls-1" d="M10.8,7Z"/><path class="cls-1" d="M11.1,9.4c.2,0,.1,0,0-.1a.9.9,0,0,1-.6-.8h0c-.1.2.2.6.3.7s-.2,0-.3-.2h.1Z"/><path class="cls-1" d="M11,7.5c.1.2.2.6.3.6h0a2,2,0,0,1-.2-1.3V6.5h0a3,3,0,0,0,.2,1.6,2.3,2.3,0,0,1-.4-1h0Z"/><path class="cls-1" d="M15.8,6.2H16c-.3,0-.2-.1-.1-.2Z"/><path class="cls-1" d="M11.2,9h0a1.6,1.6,0,0,1-.6-.8c0-.1-.1-.3-.1-.4A1.5,1.5,0,0,0,11.2,9l-.7-.5h.2A1,1,0,0,0,11.2,9Z"/><path class="cls-1" d="M11.3,9.3h-.2L10.8,9h.4l-.5-.5h-.2v.3a1.8,1.8,0,0,0,.7.5Z"/><path class="cls-1" d="M18.7,9.7c0,.1,0,.1.2,0a1.4,1.4,0,0,0,.7-.6h-.1c-.2.2-.4.2-.6.3h-.2s-.1.1,0,.1h.4c.1.1-.3.2-.5.2h.1Z"/><path class="cls-1" d="M11.3,8.5h-.1L11,7.9h.1c0,.1.1.2.1.3h.1c0-.1,0-.1.1,0h-.1V7.9a1.5,1.5,0,0,1-.3-.7.1.1,0,0,0-.1-.1c0-.1-.1.2-.1.3a.7.7,0,0,1,.1.5,2.1,2.1,0,0,0,.4.6Z"/><path class="cls-1" d="M11.7,12.8h.2Z"/><path class="cls-1" d="M11.2,8.6l-.6-.7h0c-.1,0,0,.3,0,.4l.4.6.2.2h0V8.7c-.2-.2-.2-.2,0-.1v.2h0C11.3,8.7,11.3,8.7,11.2,8.6Z"/><path class="cls-1" d="M14.1,9.5Z"/><path class="cls-1" d="M11.5,9.6h-.2l-.4-.2h.2l-.5-.3h-.2c.1,0,.1.2.2.2l.6.4c.2.1.2.1.2,0Z"/><path class="cls-1" d="M11.3,12h0a1.1,1.1,0,0,0-.2-.5l-.2-.5a1.1,1.1,0,0,1-.1-.5h-.1v.4a3.1,3.1,0,0,0,.2.7q.1.3.3.3Z"/><path class="cls-1" d="M11.5,12.3v.2h0v-.2Z"/><path class="cls-1" d="M18.9,8.8V8.6h.1v.2l-.2.2H19l.5-.7V7.8h-.1a2.1,2.1,0,0,1-.4.6l-.2.2h.1Z"/><path class="cls-1" d="M18.8,8V7.8a2.3,2.3,0,0,0,.1-1.4h-.1c0,.2-.1.6-.1.8v.6h0a1.4,1.4,0,0,1,.2-.4h0v.4h.1Zm0-.7h0Z"/><path class="cls-1" d="M19,9.1h.2l-.3.2h0a1.5,1.5,0,0,0,.6-.5.5.5,0,0,0,.1-.3h-.2c-.1.2-.4.4-.5.5s-.2.1-.1.1Z"/><path class="cls-3" d="M19.1,12.7H19s-.1.1,0,.1Zm-.1-.1h0Z"/><path class="cls-3" d="M14.3,12.9h.1Z"/><path class="cls-3" d="M16,13.8l.2.2H16Z"/><path class="cls-3" d="M15.3,13.1h0s0-.2-.1-.2Z"/><path class="cls-3" d="M14.8,13.1h0Z"/><path class="cls-3" d="M15.8,13v-.2h0Z"/><path class="cls-3" d="M15,13.1h0C15.1,13.2,15.1,13.1,15,13.1Z"/><path class="cls-3" d="M14.3,8.6V8.4c0-.1,0-.2-.1-.2h0v.2Z"/><path class="cls-3" d="M14.6,12.9h-.1v-.2Z"/><path class="cls-3" d="M18.7,12.3h0Zm-.1,0h0Z"/><path class="cls-3" d="M11.3,7.4h0Z"/><path class="cls-3" d="M11.7,6.4v0Z"/><path class="cls-3" d="M14.1,13.8h-.2Z"/><path class="cls-3" d="M18.8,7.4h0Z"/><path class="cls-3" d="M12.1,7.9h0Z"/><path class="cls-3" d="M11.8,6.8h0Z"/><path class="cls-3" d="M11.8,6.6h0Z"/><path class="cls-3" d="M14.5,14.3h-.2l.3-.2Z"/><path class="cls-3" d="M15.4,14.6h-.1l.2.2Z"/><path class="cls-3" d="M15.7,14.4h0Z"/><path class="cls-3" d="M15,14.7v.1A.1.1,0,0,0,15,14.7Z"/><path class="cls-3" d="M14.3,14.1h-.1a.1.1,0,0,0-.1.1l.2-.2Z"/><path class="cls-3" d="M15.7,14.1h.1c.1.1.2.1.1,0Z"/><path class="cls-3" d="M14.8,14.5h-.2l.3-.3Z"/><path class="cls-3" d="M15.5,13h.1v-.2Z"/><path class="cls-3" d="M14.6,6.6c0,.1,0,.1.1.1h-.1C14.5,6.6,14.5,6.6,14.6,6.6Zm.1-.1h0Z"/><path class="cls-3" d="M11.9,8.2a.1.1,0,0,0,.1.1h-.1Z"/><path class="cls-3" d="M16.7,10.6Z"/><path class="cls-3" d="M14.9,6.6H15a.1.1,0,0,0,.1-.1c.1,0,.1,0,0-.1h-.2Zm.1-.1h0C14.9,6.6,14.9,6.5,15,6.5Z"/><path class="cls-3" d="M15,5.9h.1c.1-.1,0-.1,0-.2S15,5.8,15,5.9Zm.1,0c-.1.1-.1,0-.1-.1a.1.1,0,0,1,.1.1Z"/><path class="cls-3" d="M15.1,5.5h0ZM15,5.4h0Z"/><path class="cls-3" d="M14.3,5.9h.1c.1,0,.1,0,0-.1S14.2,5.8,14.3,5.9Zm.1,0h0Z"/><path class="cls-3" d="M15.6,5.7h0a.1.1,0,0,0,.1-.1h-.1Zm0-.1h0Z"/><path class="cls-3" d="M15.8,8.5h0v.1Z"/><path class="cls-3" d="M15.6,8.1h-.2l.2-.2Z"/><path class="cls-3" d="M15.5,6.7V6.5h-.2v.2Zm0-.2h-.1s-.1,0,0-.1Z"/><path class="cls-3" d="M16.2,7.7H16c0-.1,0-.1.1-.2s.1-.1,0-.1h0a.5.5,0,0,0-.2.4h0l.3-.2c.1,0,.1-.1,0-.1Z"/><path class="cls-3" d="M17,10.3Z"/><path class="cls-3" d="M17.5,9.9h0Z"/><path class="cls-3" d="M17.3,10.1Z"/><path class="cls-3" d="M14.4,5.7h.1c.1-.1.1-.1,0-.1h-.1Zm0-.1h0Z"/><path class="cls-3" d="M18.1,8.7h0Z"/><path class="cls-3" d="M18.4,12.5h0Zm0-.1h0Z"/><path class="cls-3" d="M18,9h0Z"/><path class="cls-3" d="M18.2,12.5h-.1s-.1.1,0,.1Zm-.1-.1h0Z"/><path class="cls-3" d="M14.6,8.2h.1a.1.1,0,0,0-.1-.1h0Z"/><path class="cls-3" d="M18.7,12.6c0-.1-.1-.2-.2-.1h.2Zm-.1-.1h0C18.5,12.5,18.6,12.5,18.6,12.5Z"/><path class="cls-3" d="M15.1,5.7s.1,0,0-.1H15c-.1,0-.1.1,0,.1ZM15,5.6h0Z"/><path class="cls-3" d="M17.9,9.4h0Z"/><path class="cls-3" d="M17.7,9.6h0Z"/><path class="cls-3" d="M17.8,8.5h0Z"/><path class="cls-3" d="M18.7,12.2h0Zm0-.1h0Z"/><path class="cls-3" d="M18.5,6h0Z"/><path class="cls-3" d="M18.4,6v.2h0V5.9Z"/><path class="cls-3" d="M18.4,6.9Z"/><path class="cls-3" d="M14.8,9.5h0Z"/><path class="cls-3" d="M18.3,6.5c.1-.1.1-.3,0-.3v.2Z"/><path class="cls-3" d="M15.6,5.9h.2a.1.1,0,1,0-.2,0Zm.1-.1Z"/><path class="cls-3" d="M18.3,6.9h0Z"/><path class="cls-3" d="M17,11.1h0Z"/><path class="cls-3" d="M18.3,6.7h0Z"/><path class="cls-3" d="M14.1,7.8c0-.2-.1-.3-.2-.3h0c.1.1.2.2.1.2h-.1a.1.1,0,0,0-.1-.1c0,.1.2.2.3.3S14.2,7.9,14.1,7.8Z"/><path class="cls-3" d="M10.4,10.3h.1c.1.1.1.1,0,.1h0s-.1.1,0,.1h.2c0,.1.1.4.1.5s.1.7.3.9h.2v.4h.1v.2h0a.1.1,0,0,0,.1.1h.4c.1,0,.1.1.1.2h0c-.1.1,0,.1,0,.1h.3v-.2h.2l.3-.3H13c0,.1.1.1.2,0h0l.4-.2h.3a.8.8,0,0,0,.2-.4h.4a1.4,1.4,0,0,1-.2.4h0c-.1.1-.1.1-.1.2V13h0v.2h0l-.2.3h-.3a.2.2,0,0,0,.3.1h0v.2h.4c0,.1,0,.1.1,0h.2V15h.6v-.4h1c-.1-.1,0-.1,0-.1h.3c.1,0,0-.1,0-.1h-.1l-.3-.3c-.1,0-.1-.1-.2-.3h-.1c0-.2,0-.3-.1-.4h-.1c-.1-.2-.2-.4-.1-.4l.3.3.3.3V13h.6c.1.1.1.1.2,0h.2l.3.2h1.6c.1,0,.1-.1.1-.2h-.1v-.2c-.1-.1-.1-.1-.1-.2H19a.1.1,0,0,1,.1.1c.1.1.1.3-.1.2s-.1-.4,0-.3V12h-.3c.1,0,.1,0,0,.1h-.3l-.3.2h-.2c-.1.1-.1.1-.1.2h-.2c.1,0,.1-.1,0-.1h-.4c.1-.1.1-.1,0-.1h0l-.5-.2h.2c.1,0,.2,0,.1-.1h0c-.1-.2-.1-.2,0-.1h2a.1.1,0,0,0,.1-.1h-.5l.7-.2a.3.3,0,0,0,.1-.2h-.5c-.2.1-.3,0-.1,0h.6a.4.4,0,0,0,.2-.4h0l-.6.2h-.1c.3-.1.7-.3.8-.6V9h-.2l-.3.2h-.3l.4-.2.3-.4V8.4h-.2l-.3.3h0l-.3.2h.1l.4-.5a.7.7,0,0,0,.2-.6h0a.1.1,0,0,0-.1.1l-.3.4H19A1.5,1.5,0,0,0,19.3,7h-.1a.3.3,0,0,0-.1.2v.3c0,.1-.1.1-.1.2h-.1a4.3,4.3,0,0,0,.1-.5,3.8,3.8,0,0,0,.1-1,.4.4,0,0,1-.1-.3h-.1a5.2,5.2,0,0,1-.2,1.1h-.1a1.7,1.7,0,0,0,.1-.7V6.4c0-.2-.1-.3-.1-.2h0a2.8,2.8,0,0,1,.1.9c-.1.3-.1.4-.2.5h0V7.5c-.1,0,0-.1,0-.2V7.1h0c-.1.2-.1.2-.1,0V7h0c-.1,0-.1,0-.1.1h0v.6c0,.1.2-.4.2-.5V7.1a2,2,0,0,1,.1.5.8.8,0,0,1-.1.4v.2a3,3,0,0,0,.3-.6h.1c.1,0,.1.2,0,.3v.3l-.2.2.4-.4h.1c0,.1,0,.2-.2.4s-.2.2-.1.2l.3-.3a.3.3,0,0,1,.1-.2,2.5,2.5,0,0,0,.4-.9h0c.1-.1.1.1.1.2a1.5,1.5,0,0,1-.1.6,1.1,1.1,0,0,1-.3.6h0l.2-.4v.2a.3.3,0,0,0-.1.2h-.1c-.1.1-.1.1,0,.1a.5.5,0,0,1-.1.3l-.2.2h.3a.5.5,0,0,1-.1.3.2.2,0,0,1-.2.2h.1c.2-.1.2-.1.2,0h-.1l-.3.2h.3c0,.1-.2.2-.4.3h0c.1.1.2.1.1.2s-.1.1-.3.1H18l.2.2h-.3c-.1.1-.3.2-.4.1h-.8V11h0c.1-.1.2-.1.2-.2h.8c0-.1,0-.1.1-.2H18c.1-.1.2-.2.1-.3h.1a.2.2,0,0,0,0-.3h0l.2-.2V8.8h0a.4.4,0,0,0-.1-.3H18c.1-.1-.1-.2-.3-.2h.1l-.2.2h-.1a.3.3,0,0,0-.1.2l-.4.4h-.1v.3a.1.1,0,0,0,.1.1h.2c.1.1.1.1,0,.2h-.1c0,.1-.1.1-.2.1h-.2V10h-.1c0-.1.1-.2.1-.3h0c0-.1-.1-.1-.1-.2l-.2-.3h-.2c0,.1-.1,0-.1-.1h.3V7.9h.1a.2.2,0,0,0,.3,0h.2c.1-.1.1-.1.3,0h.4a.3.3,0,0,0,0-.4h0l-.2.2h-.6c.2-.1.3-.1.4,0s.1,0,.1-.1h-.5l-.2-.2h-.5c-.2,0-.3,0-.3-.1h.3l.2-.2h-.1a.1.1,0,0,1,.1-.1h-.1a.1.1,0,0,0-.1-.1h0l-.3-.2h-.3c0-.1-.1-.1-.2-.1h-.1a.1.1,0,0,0,.1-.1h-.1c-.1,0-.1,0-.1.1H15c0-.1,0-.1-.1-.1h-.1c.1.1.1.1,0,.1h-.1c-.1,0-.1,0-.1.1h-.3c-.1,0-.1,0,0-.1H14c-.1,0-.1,0-.1-.1h0v.2h.1c0,.1,0,.1.1.1h-.6l-.2.2h-.4v.2h.1c0-.1,0-.1.1-.1h-.4c0-.1-.1-.1-.1-.2h-.1c-.1.1,0,.3.1.4H14a.4.4,0,0,1-.1.3h.2c0,.1-.1.3-.2.2h-.3l-.2.3h.1a.9.9,0,0,0,.1.5h-.1l-.2-.2h-.2l-.3-.2.2-.2h.1V9.1h0L13,8.7h0l-.2-.2-.2-.4h-.2v.2h0c-.1,0-.3,0-.3.1s-.1.1,0,.1H12c-.2,0-.3.1-.2.3h0v.4h0a.4.4,0,0,0,.1.3H12c-.1.1,0,.2.1.3h.2c.1.1.1.1.1.2h.8c0,.1.1.1.2.2h0c0,.1,0,.2-.1.2h-.4a.1.1,0,0,1-.1-.1h-.6c0-.1,0-.1.2-.2H12c.3-.1.2-.1,0-.1h-.2c-.2-.1-.4-.2-.4-.3h0a.5.5,0,0,1-.1-.3h.4a.1.1,0,0,1-.1-.1l-.3-.3V8.7h.3l-.3-.4V8.3l.3.2h0c-.2-.2-.2-.3-.2-.4V7.9h.1l.3.4c.1,0,.1,0-.1-.2V8a.4.4,0,0,1-.1-.3.3.3,0,0,1,.1-.2v.2c.1.2.3.6.3.5h0a.6.6,0,0,1-.2-.5V7.4a1,1,0,0,1,.1-.3.3.3,0,0,0,.1.2c0,.2.1.3.2.5h0L12,7.3h-.2v.2h0V6.9c0,.1.1.4.1.5h0c-.1,0-.1-.2-.2-.4v-1l.2-.3h-.1V7.1h0a.8.8,0,0,0,.1.4h-.1V7.2a.4.4,0,0,0-.1-.3V6.5c0-.2,0-.2-.1-.1a3.5,3.5,0,0,0,.3,1.1v.4l-.2-.4h0v.3h.1s-.1,0-.1-.2a1.5,1.5,0,0,1-.2-.8,1.7,1.7,0,0,1,.1-.7h-.1v.3a2,2,0,0,0,.2,1.3h0c-.1,0-.2-.4-.3-.6V7.2h-.1a.4.4,0,0,0-.1.3.6.6,0,0,1,.1.4l.3.5h.1c-.1.1-.3-.2-.4-.3s-.1-.3-.2-.3h-.1c0,.1.1.3.1.4a1.6,1.6,0,0,0,.6.8h0a1,1,0,0,1-.5-.4h-.2s-.1.1,0,.1h0a.9.9,0,0,0,.6.8c.1.1.2.1,0,.1l-.5-.3h-.2a1.1,1.1,0,0,0,.9.7H11l-.4-.2h-.1l.3.4.6.2H10.3A.1.1,0,0,0,10.4,10.3ZM18.7,8h0V7.4h0a1.4,1.4,0,0,0-.2.4h0V7.2c0-.2.1-.6.1-.8h.1a2.3,2.3,0,0,1-.1,1.4V8Zm.3.5a2.1,2.1,0,0,0,.4-.6h.1v.4l-.5.7h-.2l.2-.2V8.5H19v.2h-.1Zm-.1.6c.1-.1.4-.3.5-.5h.2a.5.5,0,0,1-.1.3,1.5,1.5,0,0,1-.6.5h0l.3-.2h-.4C18.7,9.2,18.7,9.1,18.9,9.1Zm-.3.5h0c.2,0,.6-.1.5-.2h-.4c-.1,0,0-.1,0-.1h.2c.2-.1.4-.1.6-.3h.1a1.4,1.4,0,0,1-.7.6c-.2.1-.2.1-.2,0ZM10.8,7.9a.7.7,0,0,0-.1-.5c0-.1.1-.4.1-.3a.1.1,0,0,1,.1.1,1.5,1.5,0,0,0,.3.7v.2h.1c-.1-.1-.1-.1-.1,0h-.1c0-.1-.1-.2-.1-.3H11l.2.4h0A2.1,2.1,0,0,1,10.8,7.9Zm.4.8h0V8.6c-.2-.1-.2-.1,0,.1v.2h0L11,8.8l-.4-.6c0-.1-.1-.4,0-.4h0l.6.7C11.3,8.7,11.3,8.7,11.2,8.7Zm0,.6a1.8,1.8,0,0,1-.7-.5V8.5h.2l.5.5h-.4l.3.2h.1Zm.2.4c0,.1,0,.1-.2,0l-.6-.4c-.1,0-.1-.2-.2-.2h.2l.5.3h-.2l.4.2h.1ZM11,11.8a3.1,3.1,0,0,1-.2-.7v-.4h.1a1.1,1.1,0,0,0,.1.5l.2.5a1.1,1.1,0,0,1,.2.5h0Q11.1,12.1,11,11.8Zm.1-1.2h0a.3.3,0,0,0,.1.2h.5c.2,0,.1,0-.1.1h-.1c0,.1.1.1.2.2h1.5c-.1.1-.1.1,0,.1h.3l-.2.3H13c-.1,0-.1,0-.1.1h-.2c.1,0,0,.1-.1.1h-.9c0-.1-.1-.2-.1-.3h0v-.2h0c0-.1,0-.1-.1-.1h0v-.3a.8.8,0,0,0-.2-.6c-.1-.2-.1-.3-.2-.4s-.1-.5,0-.5h0l.6.2h-.4Zm1.7,2h0Zm-1.5-.3c-.1,0,0-.1,0-.1s.2,0,.2.1h-.2Zm.2.7a.8.8,0,0,1-.1-.4c0-.2,0-.2.1-.1l.2.4h-.2Zm-.1.4c-.1,0,0-.1,0-.2s.1,0,.1.1h-.1Zm.2.4h.3a.1.1,0,0,0-.1.1Zm0-.3h0Zm.2-.2h-.1Zm0-.1h0Zm.2.2h0C11.9,13.5,12,13.4,12,13.4Zm-.1.5h-.2c0-.1-.1-.1,0-.1h.5c0,.1,0,.2-.2.2Zm.3.3s.1,0,0,.1h0Zm.1-.2h-.2V14h.3Zm-.1-.4h0ZM13,13h-.2l-.5.4h-.2v-.3h-.2c0-.1,0-.1.2,0h-.5c-.1-.1-.1-.3.1-.3H13a.1.1,0,0,1,.1-.1v.2Zm.6-.2H13a.8.8,0,0,1,.2-.5h.2c-.1.2-.1.2,0,.1h.1Zm.6-.5-.2.2-.3.4c0-.1.1-.1.1-.2s0-.2-.1,0,0,.3-.1.2v-.5h-.5a.1.1,0,0,0-.1-.1h.2l.2-.2.2-.2h.5l-.2.2H14a.1.1,0,0,1,.1-.1h.2A.1.1,0,0,1,14.2,12.3Zm-.7,1.8h0l.4-.2c0-.1.1-.1.1-.2h.2c.1-.1.1-.1.1.1s0,.1,0,.1h0l-.3.3Zm.5.4h-.2l.2-.3.3-.2h.2a.2.2,0,0,1-.2.2Zm.3.1h-.2l.2-.3a.2.2,0,0,0,.2-.2h.3V14h.1l-.2.3Zm.5.1h-.3c-.1,0,0-.1,0-.1v-.2l.2-.2H15Zm.3.4H15V15a.2.2,0,0,1,0-.3h.2v.2S15.2,15.1,15.1,15.1Zm.5-.2h-.2c0-.1-.1-.1-.1-.2s-.2-.1-.2-.3h.1l.3.2C15.6,14.7,15.7,14.8,15.6,14.9Zm-.3-.7h-.1v-.2h.1v.2l.2.2.3.3h-.3C15.4,14.5,15.3,14.4,15.3,14.2Zm1,.1H16l-.4-.4h.3Zm-.2-.7a.8.8,0,0,0,.4.4h-.4l-.3-.2c-.1-.1,0-.1,0-.1h0v-.2h.3Zm-.1-.3c0,.1,0,.3-.1.3h-.1v.2c0,.1,0,.2-.1.2a.1.1,0,0,0-.1-.1h0v.2h-.1c-.1.1-.1.3-.2.3H15c-.1,0-.2-.1-.2-.3h0a.1.1,0,0,0-.1.1l-.2.2v-.3h0c-.1.1-.2.1-.2,0h0c0-.2,0-.2-.1-.1s-.1.1-.1-.1h0l.2-.2h.1v.2h0c.1-.1.1-.1.1,0h.1c-.1.2-.1.2,0,.1h.1c.1,0,.1.1,0,.1H15v.2h.1v-.2h.5c0,.2.1.2,0,.1h.1c0-.1,0-.1.1,0h0v-.2h.1Zm-.3-.7c.1.2.2.2.2.4h0c-.1,0-.2,0-.2-.2h0c0,.2,0,.3-.1.3s-.1-.1-.2-.2-.1-.1,0,.1,0,.3-.1.3v-.2h0a1,1,0,0,1-.1.3H15c-.1,0-.1-.2-.1-.3h0c-.1.3-.2.4-.2.3s-.1-.2,0-.4h0l-.2.2c-.1,0-.1,0-.1-.1v-.3h0v.2h-.1c0-.2,0-.3.1-.4l.3-.3.3.3h.2l.4-.3h.1Zm3.5.1h0Zm-.6-1h.3a.1.1,0,0,1,.1.1h-.3C18.6,11.8,18.6,11.8,18.6,11.7Zm-.1.5c0,.2-.2.1-.3.1S18.8,11.7,18.5,12.2Zm-.5.2h.5V12h.3a.6.6,0,0,0-.1.4h.4c0,.1-.1.1-.1.2H19a.1.1,0,0,1-.1-.1H18Zm1,.7h-.2C18.8,12.8,19.2,12.8,19,13.1Zm-.1-.4h0Zm-.5.3h-.2c-.2-.1-.3-.5,0-.3S18.8,12.8,18.4,13Zm-.5-.6h0C17.8,12.5,17.8,12.5,17.9,12.4Zm-.2.7h.2c.1,0,0-.2-.1-.3v-.2h0c.1-.1.1,0,.2.2l.2.3.4-.2c.1-.1.1-.2.2-.2h.1V13c-.2.1-.1.2,0,.2H19v-.2h.1V13h-.1l-1,.3h-.5c0-.1-.3-.3-.5-.3h-.1v-.2h0a.1.1,0,0,1,.1.1h.2Zm-.3-.4Zm-.2-.3h-.3a.6.6,0,0,1,.1.4h0l-.4-.3h-.1v-.2c0-.1.1-.1.2.1h.1v-.2h.5Zm-.4-.3h.1c.1,0,.2,0,.1.1h-.5c0,.1.2.1.3.1h-.3v.2c0,.1-.1.3-.1.2v-.2h0v0l-.3-.3h.6A.5.5,0,0,0,16.8,12.1ZM18.4,10h.7l.3-.2h.1l-.2.4h-.9Zm-.2.4h1l-.6.3h-.4Zm-.1.3c0,.1.1.1.2.1h.6c0,.1-.1.2-.3.2h-.5c-.2-.1-.2-.1-.2-.2Zm-.5.4h1l-.2.2h-.5l-.3-.2Zm-.3.1h.3l-.2-.2h.3l.3.2h-.5C17.3,11.5,17.2,11.3,17.3,11.2Zm-.5.1h.4l-.2-.2h.2l.2.2h0c-.2,0-.4,0-.5-.2l-.2-.3Zm0,.4h-.1c-.1,0-.2-.1-.1-.2h.1ZM16.6,10H17c.2,0,.3-.1.3-.2s0-.2-.2-.3L16.9,9l.3-.4.3-.5h.2c.1-.1.2-.1.2,0H18v.3h.3c.1,0,.1,0,0,.1a.1.1,0,0,1-.1.1h0c-.1,0-.1.1,0,.1h.1c.1.1.1.1,0,.2H18v.2h-.2c-.1,0-.2,0-.1.1h-.2c0,.1-.1.2-.3.1h0c0,.1,0,.2-.1.2s-.1,0-.3-.1h0v.2h-.1a.4.4,0,0,1-.1-.3h0c0-.1-.1-.2-.1-.4h.1ZM16,8.8h0Zm.9-1.3h.7v.2h-1c-.1,0,0-.1,0-.1Zm.4-.2h-.4l-.4.3h.1c0,.1.2.1.2,0h.1c0,.1,0,.1-.1.1h-.4V8h-.1c-.1-.1-.1,0-.1.2s0,.2-.1.2h-.1v.2a.3.3,0,0,0-.1.2h-.1V8.2h-.5c-.1,0-.1,0,0-.1l.3-.2h0l.3-.2h-.1l.2-.2h1.3ZM15.1,8.7H15V8.5h-.5c.1,0,0-.1,0-.1h-.1l-.2-.2h.1V7h1.4l.2.2h-.2a.1.1,0,0,0-.1.1h-.2c-.1,0-.1,0,0,.1h-.3Zm-.6-.2h.1V8.4h.4c.1.2.1.2-.1.2h-.4C14.4,8.7,14.5,8.6,14.5,8.5Zm-.2-1.9h1.4c-.1.1-.1.1,0,.2H14.3Zm.1-.5h0a.1.1,0,0,1,.1.1h-.1Zm0,.2h0c-.1,0-.1-.1,0-.1S14.5,6.3,14.4,6.3Zm.1-.1h0Zm.3-.7h0c.1,0,.1,0,0,.3h0c0,.2,0,.2.1.3h-.4c0-.1,0-.2.1-.2h.1C14.7,5.6,14.7,5.6,14.8,5.5Zm.1-.1h.2c.1,0,.1,0,.1.2v.6h-.3a.8.8,0,0,1,0-.5Zm.2-.1h-.2C14.7,5.1,15.5,5.2,15.1,5.3Zm-.1.8h0Zm0,.2h0Zm0-.1h0Zm.1.1c0,.1.1.1.2,0h.1c0,.1,0,.1.1,0s.1,0,0,.1h-.4C15,6.3,15,6.3,15.1,6.3Zm0-.1h0Zm.4,0s.1,0,0,.1h0Zm0-.3h-.3c.1-.1,0-.1,0-.2h0V5.5s.2.1.2.2S15.5,5.8,15.5,5.9Zm-1,.3h0Zm.1.1c0,.1.1.1.1,0h.1c.1.1.2.1.2,0h-.2c-.2,0-.3,0-.3-.1Zm1.1-.1h0Zm0,0c.1.1.1.1,0,.1h0Zm-.1.1h0C15.5,6.3,15.6,6.2,15.6,6.3Zm-.1.6H14.4c-.1,0-.1,0,0-.1h.1a1.7,1.7,0,0,0,1,0c.1,0,.2,0,.2.1Zm-.9-.1h0Zm.5,1.9h.5v.3c.1.1.1.1-.1.1h-.4Zm1.5-1.6h0a.1.1,0,0,1,.1.1C16.6,7.2,16.5,7.2,16.6,7.1Zm-.7-.2h.3c.3-.2.6-.2.6,0H16c-.2-.1-.2-.2-.2-.3Zm0-.3c-.1.1-.1.1-.2,0h.2Zm0-.2h-.3c0,.1,0,.1.1.1h.2Zm0-.3h-.1V5.6s.1.2.2.2V6h0v.2h-.1Zm.1.2c0,.1,0,.1-.1,0Zm.2-.1h0Zm-.1.1Zm0-.6H16A.1.1,0,0,1,16.1,5.7Zm-.5-.3H16a.1.1,0,0,0,.1.1c.1,0,.1.1.1.2h0c.1,0,.1.1-.1.2h0a.1.1,0,0,1,0-.2c0-.1-.1-.1-.1-.2l-.2-.2C15.7,5.6,15.6,5.4,15.6,5.4Zm-.1,0h-.1C15.4,5.3,15.5,5.4,15.5,5.4Zm-.2-.1h.3c.1,0,.2.1.2.3a.4.4,0,0,1,.1.3h-.3V5.9c0-.1-.1-.1-.1-.2s-.2-.2-.2-.2h-.1C15.2,5.3,15.2,5.3,15.3,5.3Zm-.4-.2H15A.1.1,0,0,1,14.9,5.1Zm-.2.3Zm-.1,0h.1c.1,0,.1-.1,0-.1s0-.1.1-.1.1,0,.1.1h-.1c-.1,0-.2.2-.3.3h-.2c-.1,0-.1,0-.1-.2a.9.9,0,0,1,.3-.5Zm-.8.5h0Zm.1.3h0Zm0,.2h0Zm.1-.2h-.1c-.1,0-.1-.1,0-.1h0c0-.1,0-.2.1-.2a.1.1,0,0,0,.1-.1h.2a.2.2,0,0,0-.2.2c-.1,0-.1.1-.1.2h0Zm.1.1c0,.1-.1,0-.1,0Zm0,0V6.1h0V5.7c.1,0,.2-.1.2,0h-.1v.2h0a.1.1,0,0,0,.1.1h-.2Zm.1.1h.1c.1.1.2.1.2,0h0c0,.1,0,.1-.1.1Zm0,.3h.1C14.3,6.7,14.3,6.7,14.2,6.7Zm-.9.2h1l-.2.2h-.7c-.2,0-.2,0-.1-.1Zm.2.2c0,.1,0,.1-.1.1h.1Zm-.8.5h-.2c-.1,0-.1-.1,0-.2h.2Zm1.3.6c0-.2-.1-.3-.1-.2h-.1c0-.1-.1-.1-.1-.2h-.5c0-.1-.1-.1,0-.1s.3,0,.3,0-.2-.3-.3-.3h-.4c0-.1,0-.2.1-.2h1.3a.1.1,0,0,0,.1.1c.1,0,0,.1,0,.1h.1c0,.1.1.1.2.1h0l.3.2c.1.1.1.1,0,.2h-.5v.5h-.1a.8.8,0,0,1-.2-.4h0C14,8.4,14,8.4,14,8.2Zm0,.5h0Zm-.5.8V9.3h.1c0-.1.1-.2.2-.3l.2-.2h2.3s.4.4.4.5h0v.3a4.1,4.1,0,0,0,.1,1,1.1,1.1,0,0,1-.1.8l-.3.4H16l-.4.2a.9.9,0,0,0-.5.3h-.2a.7.7,0,0,0-.5-.4l-.7-.4-.2-.4c0-.1-.1-.2,0-.3v-.4c0-.1.1-.5.1-.7S13.6,9.6,13.5,9.5Zm-.1,1.3c-.1,0-.2,0-.2-.1h-.3c-.1,0-.1-.1-.1-.2s.1-.1-.1-.1-.2,0-.2-.1H12c-.1-.1,0-.2.1-.3H12c-.2,0-.2-.2,0-.2s.1,0,0-.1h-.1c.1,0,.2,0,.1-.1a.2.2,0,0,1-.2-.2h.4c.1,0,.1-.1,0-.1s-.1-.3,0-.3.1-.1.2,0h.2l.3.4.2.4c0,.1,0,.2-.2.3h-.1c-.1.1-.1.1,0,.2s.1.2.3.2h.5v.2h0v.2Zm0,.6h.1v.2h.1c0,.1,0,.2-.1.2h-.2c.1,0,.1-.1.2-.2Zm-.5,0h.2l-.2.2h.5c-.1.2-.2.4-.4.4s-.1.1-.2.1-.2,0-.2-.1h.1Zm-.2-.2-.2.2h.2a.1.1,0,0,1,.1-.1h0l-.2.3h.1Zm-.4-.3h.2l-.4.2h-.4l.4-.2Zm-.3-.3h.1l-.3.2h0a.6.6,0,0,1-.6-.1.1.1,0,0,1-.1-.1H12Zm-.6-.4-.6-.2c-.1-.1-.3-.4-.2-.4h0l.7.3h.1Zm-.4,0h.4a.9.9,0,0,1-.6-.4Zm-.2.1h-.1C10.8,10.2,10.8,10.2,10.8,10.3Zm-.3-.1h.2c.1.1.1.1,0,.1h0c-.1,0,0,.1,0,.1v.2h-.1c0-.1-.1-.2-.1-.1h-.1C10.4,10.2,10.4,10.2,10.5,10.2Z"/><path class="cls-3" d="M18.3,6.8Z"/><path class="cls-3" d="M12.3,8.4h0Z"/><path class="cls-3" d="M12.2,9.7Z"/><path class="cls-3" d="M12.1,8.7Z"/><path class="cls-3" d="M13.7,11.3c0,.2.1.3.3.4s.3.3.4.3l.6.3h.1l.6-.3h.2a1.3,1.3,0,0,0,.5-.6.8.8,0,0,0,0-.7c-.1-.7-.1-.8,0-1.1h.1L16.2,9H14l-.4.4h.1v.4c.1.1,0,.2-.1.8S13.6,11.2,13.7,11.3Zm2.6.2a1,1,0,0,1-.5.4l-.7.4c-.1.1-.1,0-.2-.1l-.9-.5-.3-.3h2.7Zm.1-.3h0ZM14,11.1h0Zm.8-1h-.2s.2,0,.1-.1h-.1c-.1,0-.1,0,0-.1H15v.2H15c0,.1,0,.1-.1.1h-.3s-.1-.1,0-.1-.1-.1-.1,0h-.1c-.1-.1-.1-.1,0-.2h.4Zm-.5-.5h0Zm.6-.2h0Zm.3.2h-.1a.1.1,0,0,1-.1.1h0c-.1,0-.1-.1,0-.1ZM15,9.5h0Zm-.6.9h.7a.1.1,0,0,0,.1-.1h.6v.2H16v.2a.6.6,0,0,1-.1.4h-.2c.1,0,.2-.1.1-.2h-.1c0,.1-.1.1-.1,0l-.2-.2H14.4Zm1.5.7h0Zm-.5,0h0c.1-.1,0-.4.2-.2s.4-.1.3.2S15.3,11.3,15.4,11.1Zm.3,0h0Zm-.6,0h.3c.1.1.1.1,0,.2h-.3Zm0,0h0Zm-.6,0h0c0-.4.3-.4.6-.5s.3.4-.1.4S14.7,11.1,14.5,11.1Zm.5,0Zm-.5-.4h0V11h-.3c.1,0,.2-.1.2-.3S14.4,10.5,14.5,10.7Zm-.3.4h0Zm-.4-1.4c-.2-.2,0-.6.3-.6A1.4,1.4,0,0,0,15,9a2.1,2.1,0,0,0,1.1.1c.1.1.3.2.3.4s0,1.1,0,1.6-.4.1-.2-.2a.5.5,0,0,0-.3-.5c-.1-.1.6-.2.2-.5s-.7,0-.6-.2.6.1.6-.2-.7,0-.7.2h0l.4-.2h-.3c-.1.1,0,.2.3.2h.3c.1,0,.1.1,0,.2a.2.2,0,0,1-.3,0h0l-.4-.2h.1c.1.1.6.1.4.3h-.8c-.1-.2.3-.2,0-.4s.2-.1.1-.2-.4-.3-.6-.2-.1.3-.3.1.6.4.2.4-.3-.1-.3-.4h0c-.1.1-.2-.2-.2,0s.1.4-.2.2a.1.1,0,0,1,.1.1h0c0,.2.2.3.2.5s.2.2.2.3a.4.4,0,0,1-.4.5h-.2A6.6,6.6,0,0,1,13.8,9.7Zm.2.1h.1c.1-.1.1,0,.1.1s-.1.1,0,.2v.2h0c0,.1-.2.1-.2-.1s0-.2-.1-.2h0Zm0-.3h0Zm.1,0Z"/><path class="cls-3" d="M12.2,9.3h0Z"/><path class="cls-3" d="M12.2,9h0Z"/><path class="cls-3" d="M13.5,10.6h0Z"/><path class="cls-3" d="M16,9.6h0Z"/><path class="cls-3" d="M13,10.4h0Z"/><path class="cls-3" d="M12.5,9.9Z"/><path class="cls-3" d="M12.7,10.2h0l.2-.2Z"/><path class="cls-3" d="M17.2,10.9h0Z"/><path class="cls-3" d="M11.7,9.4Z"/><path class="cls-3" d="M12.5,10.7Z"/><path class="cls-3" d="M12.6,10.7h0Z"/><path class="cls-3" d="M12.4,10.4Z"/><path class="cls-3" d="M15,4.8h.1c0-.1,0-.1-.1-.1h0Z"/><path class="cls-3" d="M12.2,10.5h0Z"/><path class="cls-3" d="M12.9,10.9h0Z"/><path class="cls-3" d="M13.2,11.1h0Z"/><path class="cls-3" d="M11.7,8.5Z"/><path class="cls-3" d="M11.6,9.1Z"/><path class="cls-3" d="M11.7,9.8h0Z"/><path class="cls-3" d="M12.1,10.2Z"/><path class="cls-3" d="M11.7,8.8Z"/><path class="cls-3" d="M18.4,8.8h.1a.1.1,0,0,0-.1.1Z"/><path class="cls-3" d="M17.9,10.2Z"/><path class="cls-3" d="M18.2,9.8h0Z"/><path class="cls-3" d="M17.8,10.5h0Z"/><path class="cls-3" d="M18.4,9.5h0C18.3,9.5,18.3,9.5,18.4,9.5Z"/><path class="cls-3" d="M17.7,10.4Z"/><path class="cls-3" d="M17.5,10.7h0Z"/><path class="cls-3" d="M18,8h0v.2Z"/><path class="cls-3" d="M18.4,8.4h0Z"/><path class="cls-3" d="M17.5,10.7h0Z"/><path class="cls-3" d="M18.2,8.2h0a.1.1,0,0,1-.1.1h0A.1.1,0,0,0,18.2,8.2Z"/><path class="cls-3" d="M18.5,9.1h0Z"/><path class="cls-4" d="M16.4,11.3H13.7l.3.3.9.5c.1.1.1.2.2.1l.7-.4a1,1,0,0,0,.5-.4Z"/><path class="cls-5" d="M19,12.2c-.1-.1-.3.3,0,.3s.2-.1.1-.2a.1.1,0,0,0-.1-.1Z"/><path class="cls-5" d="M13.9,11.1a.4.4,0,0,0,.4-.5c0-.1.1-.3-.2-.3s-.2-.3-.2-.5h0a.1.1,0,0,0-.1-.1c.3.2,0-.3.2-.2s.1.1.2,0h0c0,.3,0,.7.3.4s-.3-.1-.2-.4.1-.1.3-.1.7-.1.6.2,0,.2-.1.2-.1.2,0,.4h.8c.2-.2-.3-.2-.4-.3h-.1c0-.2.5-.2.7-.2s-.4.2-.6.2.5.1.6.2-.3.4-.2.5a.5.5,0,0,1,.3.5c-.2.3,0,.3.2.2s-.3-1.1,0-1.6-.2-.3-.3-.4A2.1,2.1,0,0,1,15,9a1.4,1.4,0,0,1-.9.1c-.3,0-.5.4-.3.6a6.6,6.6,0,0,0-.1,1.4Z"/><path class="cls-5" d="M18.2,12.3c.1,0,.3.1.3-.1S17.8,12.2,18.2,12.3Z"/><path class="cls-5" d="M18.8,13.1H19C19.2,12.8,18.8,12.8,18.8,13.1Z"/><path class="cls-5" d="M15.1,5.3c.4-.1-.4-.2-.2,0Z"/><path class="cls-5" d="M18.2,12.7c-.3-.2-.2.2,0,.3h.2C18.8,12.8,18.4,12.7,18.2,12.7Z"/><path class="cls-5" d="M15.6,10.8c-.2-.2-.1.1-.2.2h0c-.1.2.4-.1.5-.1S15.8,10.9,15.6,10.8Z"/><path class="cls-5" d="M15.1,10.6c-.3.1-.6.1-.6.5h0c.2,0,.4.1.5-.1S15.2,10.8,15.1,10.6Z"/><path class="cls-6" d="M13.2,7.5h-.7c-.1.1-.1.2,0,.2h.7Z"/><path class="cls-6" d="M16.6,7.5s-.1.1,0,.1h1V7.3h-1Z"/></g></svg>