<svg xmlns="http://www.w3.org/2000/svg" viewBox="0 0 30 20"><defs><style>.cls-1{fill:#20519f;}.cls-2{fill:#f4cf31;}.cls-3{fill:#fff;}</style></defs><title>xk</title><g id="Layer_5" data-name="Layer 5"><path class="cls-1" d="M27.5,0H2.5A2.5,2.5,0,0,0,0,2.5v15A2.5,2.5,0,0,0,2.5,20h25A2.5,2.5,0,0,0,30,17.5V2.5A2.5,2.5,0,0,0,27.5,0ZM18.7,3.8,19,3l.3.8h.9l-.8.6.3.9L19,4.7l-.8.6.3-.9-.7-.6ZM16,3.3l.3-.9.3.9h.9l-.7.5.2.9-.7-.6-.7.6.2-.9-.7-.5Zm-2.8,0,.2-.9.3.9h.9l-.7.5.3.9-.8-.6-.7.6.3-.9-.8-.5ZM9,6l-.7-.5L7.5,6l.3-.9-.7-.5H8l.3-.9.3.9h.9l-.8.5Zm1.5-2.2.3-.8.3.8H12l-.8.6.3.9-.7-.6-.8.6.3-.9-.7-.6Zm10.4,7.4v.3h-.2v.4l-.2.2v.2h-.6a.1.1,0,0,0,.1.1v.4h-.4l-.3.2v.2l.4.2c0,.1,0,.3-.1.3H18.2v.2h-.2c0,.1,0,.2-.1.2s0,.3.1.3h-.6v-.2c-.1,0,0-.2-.1-.3h0c-.1,0-.2,0-.2-.1H14.9c0,.2-.2.1-.3.1v.4h-.1l-.2.2v.4l.2.2v.4h-.8c0,.1-.1.1-.1.2h-.3c0-.1,0-.1-.1-.2v-.5a.2.2,0,0,0,.2-.2v-.2h0c-.1-.2,0-.4,0-.7h-.2a.1.1,0,0,0-.1-.1v-.5h-.1c0-.1,0-.2-.1-.2h0c-.1-.1-.1-.2,0-.2l-.2-.2h-.8c0-.1-.1-.2-.1-.4h-.9v-.6h-.1c-.1,0,0-.1-.1-.2h-.2a.1.1,0,0,0-.1-.1h-.1v-.2h.2a.6.6,0,0,0-.1-.4v-.2H9.7c-.1,0-.1-.2-.1-.2s0-.3.1-.4h0l.2-.2h.2c0,.1,0,.1.1.1h.1v.2h.8v-.2a.8.8,0,0,1,.1-.4h.3V9.7h.6V9.5h.4L12.4,9V8.7h.4l.3-.3h.4c.1-.1,0-.3,0-.4h.2l-.2-.2c.1-.2-.1-.2-.2-.4h-.2V6.6h1.5l.4.3h-.3l.2.2h.5v.2h.7v.2l.3-.2h.4v.4h.1v.3c0,.1.2.1.2,0h.1l.2.2v.3c.1,0,0,.2.1.3v.2h1v.5h-.1c0,.1,0,.2-.1.2h1.9v-.2h.1c.1,0,.2-.1.3.1h0c.1,0,.2,0,.2.1h0c.1,0,.1.1.1.2ZM22.2,6l-.8-.5-.7.5.3-.9-.8-.5h1l.2-.9.3.9h.9l-.7.5Z"/><path class="cls-2" d="M20.9,10.9h0c0-.1-.1-.1-.2-.1h0c-.1-.2-.2-.1-.3-.1h-.1v.2H18.4c.1,0,.1-.1.1-.2h.1V9.6h-1V9c-.1-.1,0-.3-.1-.3V8.4l-.2-.2h-.1c0,.1-.2.1-.2,0V7.9h-.1V7.5h-.4l-.3.2V7.3h-.7V7.1h-.5l-.2-.2H15l-.4-.3H13.1v.3h.2c.1.2.3.2.2.4l.2.2h-.2c0,.1.1.3,0,.4h-.4l-.3.3h-.4V9l.2.2h-.4v.2h-.6v.2h-.3a.8.8,0,0,0-.1.4v.2h-.8v-.2h-.1c-.1,0-.1,0-.1-.1H9.9l-.2.2h0c-.1.1-.2.3-.1.4s0,.2.1.2H10v.2a.6.6,0,0,1,.1.4H10v.2h.1a.1.1,0,0,1,.1.1h.2c.1.1,0,.2.1.2h.1v.6h.9c0,.2.1.3.1.4h.8l.2.2c-.1,0-.1.1,0,.2h0c.1,0,.1.1.1.2H13v.5a.1.1,0,0,1,.1.1h.2c0,.3-.1.5,0,.7h0v.2a.2.2,0,0,1-.2.2v.5c.1.1.1.1.1.2h.3c0-.1.1-.1.1-.2h.8v-.4l-.2-.2v-.4l.2-.2h.1v-.4c.1,0,.3.1.3-.1H17c0,.1.1.1.2.1h0c.1.1,0,.3.1.3v.2h.6c-.1,0,0-.2-.1-.3s.1-.1.1-.2h.2v-.2h1.4c.1,0,.1-.2.1-.3l-.4-.2v-.2l.3-.2H20v-.4a.1.1,0,0,1-.1-.1h.6v-.2l.2-.2v-.4h.2v-.3H21C21,11,21,10.9,20.9,10.9Z"/><polygon class="cls-3" points="10 5.3 10.8 4.7 11.5 5.3 11.2 4.4 12 3.8 11.1 3.8 10.8 3 10.5 3.8 9.6 3.9 10.3 4.4 10 5.3"/><polygon class="cls-3" points="12.7 4.7 13.4 4.1 14.2 4.7 13.9 3.8 14.6 3.3 13.7 3.3 13.4 2.4 13.2 3.3 12.2 3.3 13 3.8 12.7 4.7"/><polygon class="cls-3" points="8.6 4.6 8.3 3.7 8 4.6 7.1 4.6 7.8 5.1 7.5 6 8.3 5.5 9 6 8.7 5.1 9.5 4.6 8.6 4.6"/><polygon class="cls-3" points="18.2 5.3 19 4.7 19.7 5.3 19.4 4.4 20.2 3.9 19.3 3.8 19 3 18.7 3.8 17.8 3.8 18.5 4.4 18.2 5.3"/><polygon class="cls-3" points="15.6 4.7 16.3 4.1 17 4.7 16.8 3.8 17.5 3.3 16.6 3.3 16.3 2.4 16 3.3 15.1 3.3 15.8 3.8 15.6 4.7"/><polygon class="cls-3" points="21.7 4.6 21.4 3.7 21.2 4.6 20.2 4.6 21 5.1 20.7 6 21.4 5.5 22.2 6 21.9 5.1 22.6 4.6 21.7 4.6"/></g></svg>