<svg xmlns="http://www.w3.org/2000/svg" viewBox="0 0 30 20"><defs><style>.cls-1{fill:#dc2c32;}.cls-2{fill:#fafafa;}.cls-3{fill:#224086;}.cls-4{fill:#010101;}.cls-5{fill:#dc2228;}.cls-6{fill:#fee602;}.cls-7{fill:#ffde11;}.cls-8{fill:#fff;}.cls-9{fill:none;stroke:#fff;stroke-linecap:round;stroke-linejoin:round;stroke-width:0;}</style></defs><title>rs</title><g id="Layer_41" data-name="Layer 41"><path class="cls-1" d="M27.5,0H2.5A2.5,2.5,0,0,0,0,2.5V6.7H30V2.5A2.5,2.5,0,0,0,27.5,0ZM13.4,4.7h-.1c0,.1,0,.1-.1.1h-.3l-.2.2h-.1c0,.1,0,.1-.1.1h0a.1.1,0,0,1,.1.1H8.7a.1.1,0,0,1,.1-.1h0c-.1,0-.1,0-.1-.1H8.6l-.2-.2H8.1c-.1,0-.1,0-.1-.1H9.5c.1,0,.1,0,.1.1h.3a.1.1,0,1,1,.2,0h.3c-.1-.1-.1-.1-.1-.2h.1c0-.1.1-.1.2-.2h-.1c0,.1,0,.1-.1.1h.4a.1.1,0,0,1-.1.1H11c0,.1,0,.1-.1.1h-.2c.1.1.2.1.2.2a.1.1,0,0,0,.1.1h0c0,.1-.1.1-.1.2h0a.1.1,0,0,1,.1-.1h.2a.1.1,0,0,1,.1-.1h0a.1.1,0,0,1,.1.1h.1c.1,0,.1,0,.1.1h.1c0-.1,0-.1.1-.1h.6a.1.1,0,0,1,.1.1h.7c.1,0,.1,0,.1.1h.1Z"/><path class="cls-2" d="M13.2,14.8a3.6,3.6,0,0,1-2.5,1h0a3.6,3.6,0,0,1-2.6-1,3.8,3.8,0,0,1-.9-1.5H0v4.2A2.5,2.5,0,0,0,2.5,20h25A2.5,2.5,0,0,0,30,17.5V13.3H14.1A3.8,3.8,0,0,1,13.2,14.8Z"/><path class="cls-3" d="M0,13.3H7.2A3.6,3.6,0,0,1,7,12.2V6.7h7.3v5.5a3.6,3.6,0,0,1-.2,1.1H30V6.7H0Z"/><path class="cls-4" d="M13.3,4.6h0c0-.1,0-.1-.1-.1h-.7a.1.1,0,0,0-.1-.1h-.6c-.1,0-.1,0-.1.1h-.1c0-.1,0-.1-.1-.1h-.1a.1.1,0,0,0-.1-.1h0a.1.1,0,0,0-.1.1H11a.1.1,0,0,0-.1.1h0c0-.1.1-.1.1-.2h0a.1.1,0,0,1-.1-.1c0-.1-.1-.1-.2-.2h.2c.1,0,.1,0,.1-.1h-.3a.1.1,0,0,0,.1-.1h-.4c.1,0,.1,0,.1-.1h.1c-.1.1-.2.1-.2.2h-.1c0,.1,0,.1.1.2h-.3a.1.1,0,1,0-.2,0H9.6c0-.1,0-.1-.1-.1H8c0,.1,0,.1.1.1h.3l.2.2h.1c0,.1,0,.1.1.1h0a.1.1,0,0,0-.1.1h3.9a.1.1,0,0,0-.1-.1h0c.1,0,.1,0,.1-.1h.1l.2-.2h.3c.1,0,.1,0,.1-.1h0Zm-.1-.3h0a.1.1,0,0,1,.1.1h-.1Zm-.1-.1h.1a.1.1,0,0,1-.1.1h0Zm-.3-.1h0Zm-.2,0h.2c0,.1,0,.1-.1.1h-.1Zm-.1,0h.3c-.1,0-.1-.1,0-.1V4.9c.2-.1.2-.2.1-.3h-.1l-.3-.2h0a.6.6,0,0,1-.1.6h-.3s.1-.1,0-.1h.3c0,.1-.1.2-.1.3h.1a.6.6,0,0,0,0-.6h.3a.1.1,0,0,0,.1.1l.2.2h0A.4.4,0,0,1,13,5h0a.5.5,0,0,0,.2-.4c0-.1-.1-.2-.2-.3h-.5c0-.1,0-.1-.1-.1h.1Zm0,1.5H12a.1.1,0,0,1,.1-.1h.4a.6.6,0,0,0,.1-.6l.3.2H13c.1.1,0,.2-.1.3v.2c-.1,0-.1.1,0,.1h-.2v.2Zm-.1-.2h0c-.1,0-.1,0-.1-.1h.1Zm.6-1,.2.3a.5.5,0,0,1-.2.4h0a.4.4,0,0,0,.1-.3h0l-.2-.2a.1.1,0,0,1-.1-.1h-.3a1.6,1.6,0,0,1,0,.7h-.1c0-.1.1-.2.1-.3H13Zm-.5,0Zm0-.2h-.2a.1.1,0,1,1,.2,0Zm-.1.1h0a.1.1,0,0,0,.1.1h-.2A.1.1,0,0,1,12.4,4.3Zm-.1.3Zm0,.2h0Zm.1-.9h0a.1.1,0,0,1,.1.1h-.3a.1.1,0,0,1,.1-.1Zm-.2-.2h0Zm-.3-.1h0Zm-.2.1h0c0-.1,0-.1.1-.1h-.1Zm-.3-.1h.1c.1,0,.1,0,.1.1h-.1c-.1,0-.1,0-.1-.1Zm-.2,0a.1.1,0,0,1,.1-.1h-.1Zm-.2.1h.1c.1,0,.1,0,.1.1H11Zm0,0h1.1a.1.1,0,0,0-.1.1h-.2c-.1-.1-.1-.1,0-.2a.8.8,0,0,0,.2-.4h0l-.3-.2H11v.6h0c.1.1,0,.1-.1.2h-.2a.1.1,0,0,0,.1-.1h0c0-.1,0-.1-.1-.1h0c.1,0,.1,0,.1-.1h-.1a.1.1,0,0,0,.1-.1h.1v.9H11V3.9H12l.2.3h0a.8.8,0,0,1-.2.4h-.1c.1,0,.1,0,.1-.1h.1V4.5h0a.2.2,0,0,0,0-.3V3.9c-.3-.2-.6-.1-.9-.1H11Zm.6,1.7h.2c0,.1,0,.1-.1.2h-.4a.1.1,0,0,0-.1.1h-.3c-.1,0-.1,0-.1-.1h.3c0-.1.1-.2,0-.3h-.3a.1.1,0,0,1,.1-.1H11s.1,0,0-.1h0V3.9h.7l.3.2h0a.8.8,0,0,1-.2.4c-.1.1-.1.1,0,.2h-.3A.1.1,0,0,0,11.6,5.4Zm-.3-.1h0ZM10.6,4h0c-.1,0-.1,0-.1-.1h.1Zm0,0h0a.1.1,0,0,1-.1-.1h.2a.1.1,0,0,0,.1.1h-.2Zm0,.2h.1c.1,0,.1,0,.1.1h-.3c0-.1,0-.1.1-.1Zm0,.3h0a.1.1,0,0,1-.1-.1h.1Zm.3-.7h.3c.3,0,.6-.1.9.1s.1.1.1.2a.2.2,0,0,1,0,.3h0a.4.4,0,0,0-.1.3H12c0,.1,0,.1-.1.1H12a.8.8,0,0,0,.2-.4h0L12,3.9H10.9Zm0-.1h0v.7h-.1V3.7Zm-.2-.5h.1c.1,0,.1.1.1.2h-.2Zm-.2-.1h.1a.1.1,0,0,1-.1-.1h.2v.3h-.1V3.1Zm-.2.4a.1.1,0,0,0,.1-.1c0-.1.1-.1.2-.2v.2h-.3Zm.1.1h0Zm0,0h.5a.2.2,0,0,1-.2.2h-.2C10.4,3.8,10.4,3.7,10.4,3.6Zm0,.1h0v.9h-.1V3.9h0Zm-.1.1h-1l-.2.3h0a.8.8,0,0,0,.2.4h.1c-.1,0-.1,0-.1-.1H9.2V4.5h0a.2.2,0,0,1,0-.3V3.9c.3-.2.6-.1.9-.1h.2Zm-.2-.1Zm-.2,0H10a.1.1,0,0,1,.1.1H9.9Zm-.3-.1h.1c0-.1,0-.1.1-.1h.1c0,.1,0,.1-.1.1H9.6Zm0,.1h.5c-.3,0-.6-.1-.9.1v.2a.2.2,0,0,0,0,.3h0v.3h.1c0,.1,0,.1.1.1H9.3a.8.8,0,0,1-.2-.4h0l.2-.3h1v.7h.1V3.7h.1c0,.1,0,.1.1.1h-.1c0,.1,0,.1.1.1h0c-.1,0-.1,0-.1.1h0a.1.1,0,0,0,.1.1h-.2c-.1-.1-.2-.1-.1-.2h0V3.9H9.6l-.3.2H9.2c0,.1.2.3.2.4s.1.1.1.2h.1Zm.9,1.6h0a.1.1,0,0,1-.1.1H9.9a.1.1,0,0,0-.1.1H9.6c-.1-.1-.1-.1-.1-.2h.2a.1.1,0,0,0,.1-.1H9.5c.1-.1.1-.1,0-.2a.8.8,0,0,1-.2-.4h0l.3-.2h.7v.6h0c-.1.1,0,.1,0,.1h-.1a.2.2,0,0,0,0,.3h.3Zm-.5,0h0c.1,0,.1,0,.1.1H10ZM9.1,5Zm-.4-.8H8.5c0,.1-.1.1-.2.1v.2h0a.4.4,0,0,0,.1.3h0a.5.5,0,0,1-.2-.4c0-.1.1-.2.2-.3h.5c0,.1.1.2.1.3H8.8c-.1-.2-.1-.3,0-.7H8.7Zm.1.1h0a.1.1,0,0,1,.1-.1h0a.1.1,0,0,1,.1.1H8.8Zm0,.1Zm0,.1Zm.1.1h0Zm.5-1h.1c.1,0,.1,0,.1.1H9.4Zm-.2.1h0ZM9,3.8H9ZM8.8,4a.1.1,0,0,1,.1-.1H8.8Zm0,.1h.1c-.1,0-.1,0-.1.1H8.2c0,.1-.1.2-.1.3a.5.5,0,0,0,.2.4h0a.4.4,0,0,1-.1-.3h0l.2-.2a.1.1,0,0,0,.1-.1h.2a1.1,1.1,0,0,0,.1.6h.1c0-.1-.1-.2-.1-.3h.1c0,.1-.1.1,0,.1H8.8a.6.6,0,0,1-.1-.6h0l-.4.2h0a.2.2,0,0,0,0,.3l.2.2s.1.1,0,.1h.1a.1.1,0,0,0,.1-.1ZM9,5.3H8.8c0-.1-.1-.1-.1-.2H8.5c.1,0,.1-.1,0-.1l-.2-.2a.2.2,0,0,1,0-.3h.1l.3-.2a.6.6,0,0,0,.1.6h.4a.1.1,0,0,1,.1.1H9Zm-.1.1H9A.1.1,0,0,1,8.9,5.4ZM8.5,4.1h0Zm-.2,0h0Zm-.2.2h0ZM8,4.6H8a.1.1,0,0,1,.1.1H8Zm-.1.2ZM8,5H8Zm.1.2h0c-.1,0-.1,0-.1-.1h.1Zm.3.4h0Zm.4.7H8.7a.1.1,0,0,1,.1-.1h0Zm3.5-.1h0Zm.2.3h-.3c0,.1.2.1.2.1Zm0-.4a.1.1,0,0,1,.1.1h-.1Zm0-.2h0ZM8.9,5.8h0Zm.4-.1h0Zm.5,0a.1.1,0,0,1,.1-.1H9.8Zm.5-.1.3-.2h0a.1.1,0,0,0,.1.1h0l.3.2h-.7Zm.7,0h.4a.1.1,0,0,1,.1.1Zm.6.1h.2a.1.1,0,0,0,.1.1h-.3Zm.5,0Zm.9-.3h0Zm.2-.1h.1s.1,0,0,.1h-.4l-.2.2h-.1a.1.1,0,0,1-.1.1h-.6a.1.1,0,0,0-.1-.1h-.1a.1.1,0,0,1-.1.1H11l-.3-.2h-.1l-.4.2H9.7c-.1,0-.1,0-.1-.1H9.5c-.1,0-.1,0-.1.1H8.8a.1.1,0,0,1-.1-.1H8.6l-.2-.2H7.9c0-.1,0-.1.1-.1h.7c0,.1.1.1.1.2h.5c0-.1,0-.1-.1-.1h0c-.1,0-.1,0-.1.1h0a.1.1,0,0,1,.1-.1h.6v.2H9.5c0,.1,0,.1.1.2h.8c0-.1.1-.1.1-.2h-.3V5.1h.9v.2h-.3c0,.1,0,.1.1.2h.3a.1.1,0,0,1,.1-.1h.4c.1-.1.1-.1.1-.2h-.2V5.2h.7a.1.1,0,0,0-.1.1h0a.1.1,0,0,1,.1.1h0c0-.1,0-.1-.1-.1h0c-.1,0-.1,0-.1.1h.5c0-.1.1-.1.1-.2h.1c.1,0,.1,0,.1.1h.4Zm.1-.2c0,.1,0,.1-.1.1h.1Zm.1-.3h-.3a.1.1,0,0,0,.1-.1h.2Zm0,0Z"/><path class="cls-5" d="M11.6,5.1h.2c-.1-.1-.1-.1,0-.2a.8.8,0,0,0,.2-.4h0l-.3-.2H11v.6h0c.1.1,0,.1,0,.1h-.1a.1.1,0,0,0-.1.1h.3c.1.1,0,.2,0,.3h-.3c0,.1,0,.1.1.1h.3a.1.1,0,0,1,.1-.1h.4c.1-.1.1-.1.1-.2h-.2a.1.1,0,0,1-.1-.1h.1Z"/><path class="cls-5" d="M10.5,5.4h-.3a.2.2,0,0,1,0-.3h.1s-.1,0,0-.1h0V3.9H9.6l-.3.2h0a.8.8,0,0,0,.2.4c.1.1.1.1,0,.2h.3a.1.1,0,0,1-.1.1H9.5c0,.1,0,.1.1.2h.2a.1.1,0,0,1,.1-.1h.5a.1.1,0,0,0,.1-.1h0Z"/><path class="cls-6" d="M10.5,3.8h.2a.2.2,0,0,0,.2-.2h-.5C10.4,3.7,10.4,3.8,10.5,3.8Z"/><path class="cls-6" d="M10.5,3.5h.1V3.2c-.1.1-.2.1-.2.2a.1.1,0,0,1-.1.1h.2Z"/><path class="cls-6" d="M10.9,3.5h0c0-.1,0-.2-.1-.2h-.1v.2Z"/><path class="cls-6" d="M10.4,3.6h0Z"/><path class="cls-7" d="M10.6,3.4h.1V3.1h-.2a.1.1,0,0,0,.1.1h0Z"/><path class="cls-8" d="M10.6,4h.2a.1.1,0,0,1-.1-.1h-.2a.1.1,0,0,0,.1.1Z"/><path class="cls-8" d="M10.5,4.1c0,.1,0,.1.1.1h-.1Z"/><path class="cls-8" d="M10.5,4.4h.3c0-.1,0-.1-.1-.1h-.1C10.5,4.3,10.5,4.3,10.5,4.4Z"/><path class="cls-8" d="M10.5,4.6h0a.1.1,0,0,0,.1.1h-.1Z"/><path class="cls-8" d="M8,5Z"/><path class="cls-8" d="M8,4.8Z"/><path class="cls-8" d="M8,4.6h.1A.1.1,0,0,0,8,4.3H8Z"/><path class="cls-8" d="M8.1,4.3Z"/><path class="cls-8" d="M8.3,4.2Z"/><path class="cls-8" d="M8.5,4.1Z"/><path class="cls-8" d="M8.1,5.2H8c0,.1,0,.1.1.1Z"/><path class="cls-8" d="M9.4,3.7h.2c0-.1,0-.1-.1-.1H9.4Z"/><path class="cls-8" d="M9.1,4.9Z"/><path class="cls-8" d="M8.9,4.7h0Z"/><path class="cls-8" d="M8.8,4.6h0Z"/><path class="cls-8" d="M8.9,4.3H9a.1.1,0,0,0-.1-.1h0a.1.1,0,0,0-.1.1h.1Z"/><path class="cls-8" d="M8.9,4.1h0a.1.1,0,0,0-.1.1Z"/><path class="cls-8" d="M9,3.9Z"/><path class="cls-8" d="M9.2,3.7Z"/><path class="cls-8" d="M9.6,3.6h.2c.1,0,.1,0,.1-.1H9.8c-.1,0-.1,0-.1.1Z"/><path class="cls-8" d="M9.9,3.8h.2a.1.1,0,0,0-.1-.1H9.9Z"/><path class="cls-8" d="M10.2,3.8h0Z"/><path class="cls-8" d="M13.2,4.8a.1.1,0,0,1-.1.1h.1Z"/><path class="cls-8" d="M13.3,4.6h0Z"/><path class="cls-8" d="M13.1,4.5h.2a.1.1,0,0,0-.1-.1h-.1Z"/><path class="cls-8" d="M13,4.3h.1a.1.1,0,0,0,.1-.1H13Z"/><path class="cls-8" d="M12.8,4.2Z"/><path class="cls-8" d="M12.7,4.2h0c.1,0,.1,0,.1-.1h-.1Z"/><path class="cls-8" d="M13.2,5h0c.1,0,.1,0,.1-.1Z"/><path class="cls-8" d="M11.8,3.8h0c-.1,0-.1,0-.1.1h.1Z"/><path class="cls-8" d="M12.1,4.9Z"/><path class="cls-8" d="M12.2,4.7Z"/><path class="cls-8" d="M12.3,4.5h.2a.1.1,0,0,1-.1-.1h0a.1.1,0,0,0-.1.1Z"/><path class="cls-8" d="M12.4,4.1a.1.1,0,0,0-.1.1h.2A.1.1,0,0,0,12.4,4.1Z"/><path class="cls-8" d="M12.2,4h.3a.1.1,0,0,0-.1-.1h-.1A.1.1,0,0,0,12.2,4Z"/><path class="cls-8" d="M12.1,3.8Z"/><path class="cls-8" d="M11.9,3.7h0Z"/><path class="cls-8" d="M11.5,3.8h.1c0-.1,0-.1-.1-.1h-.1c0,.1,0,.1.1.1Z"/><path class="cls-8" d="M11.3,3.8h0a.1.1,0,0,0-.1.1h.1Z"/><path class="cls-8" d="M11.1,3.8h.1c0-.1,0-.1-.1-.1h0Z"/><path class="cls-6" d="M9.5,3.8h0c0-.1.1-.1-.1-.2s-.2-.3-.2-.4h.1l.3-.2h.7v.6h0c-.1.1,0,.1.1.2h.2a.1.1,0,0,1-.1-.1h0c0-.1,0-.1.1-.1h0c-.1,0-.1,0-.1-.1h.1c-.1,0-.1,0-.1-.1h-.1v.9h-.1V3.9h-1l-.2.3h0a.8.8,0,0,0,.2.4h.1c-.1,0-.1,0-.1-.1H9.2V4.5h0a.2.2,0,0,1,0-.3V3.9c.3-.2.6-.1.9-.1H9.5Z"/><path class="cls-6" d="M8.8,4.3h0Z"/><path class="cls-6" d="M8.6,4.2H8.5c.1,0,0-.1,0-.1l-.2-.2a.2.2,0,0,1,0-.3h0l.4-.2h0a.6.6,0,0,0,.1.6h.1c-.1,0,0,0,0-.1H8.8c0,.1.1.2.1.3H8.8a1.1,1.1,0,0,1-.1-.6H8.5a.1.1,0,0,1-.1.1l-.2.2h0a.4.4,0,0,0,.1.3h0a.5.5,0,0,1-.2-.4c0-.1.1-.2.1-.3h.6c0-.1,0-.1.1-.1H8.7A.1.1,0,0,1,8.6,4.2Z"/><path class="cls-6" d="M11.2,3.8h0c.3,0,.6-.1.9.1v.2a.2.2,0,0,1,0,.3h0v.3H12c0,.1,0,.1-.1.1H12a.8.8,0,0,0,.2-.4h0L12,3.9H10.9v.7h-.1V3.7h-.1a.1.1,0,0,1-.1.1h.1c0,.1,0,.1-.1.1h0c.1,0,.1,0,.1.1h0a.1.1,0,0,1-.1.1h.2c.1-.1.2-.1.1-.2h0V3.9h.7l.3.2h0a.8.8,0,0,1-.2.4c-.1.1-.1.1,0,.2H12a.1.1,0,0,1,.1-.1h-.9Z"/><path class="cls-6" d="M12.5,4.1h-.1c.1,0,.1,0,.1.1H13c.1.1.2.2.2.3a.5.5,0,0,1-.2.4h0a.4.4,0,0,0,.1-.3h0l-.2-.2a.1.1,0,0,1-.1-.1h-.3a.6.6,0,0,1,0,.6h-.1c0-.1.1-.2.1-.3h-.3c.1,0,0,.1,0,.1h.3a.6.6,0,0,0,.1-.6h0l.3.2H13c.1.1.1.2-.1.3v.2c-.1,0-.1.1,0,.1h-.3Z"/><path class="cls-6" d="M12.5,4.3Z"/><path class="cls-8" d="M10.4,3.8h0v.7h.1V3.7h0Z"/><path class="cls-8" d="M10.2,3.8h-.1c-.3,0-.6-.1-.9.1v.2a.2.2,0,0,0,0,.3h0v.3h.1c0,.1,0,.1.1.1H9.3a.8.8,0,0,1-.2-.4h0l.2-.3h.9Z"/><path class="cls-8" d="M8.8,4.9h.1c0-.1-.1-.2-.1-.3H8.3c-.1.1-.2.2-.2.3a.5.5,0,0,0,.2.4h0a.4.4,0,0,1-.1-.3h0V4.4c.1,0,.2,0,.2-.1h.3C8.7,4.6,8.7,4.7,8.8,4.9Z"/><path class="cls-8" d="M10.9,3.7v.9H11V3.9h0Z"/><path class="cls-8" d="M10.9,3.9H12l.2.3h0a.8.8,0,0,1-.2.4h-.1c.1,0,.1,0,.1-.1h.1a.4.4,0,0,1,.1-.3h0a.2.2,0,0,0,0-.3c0-.1-.1-.1-.1-.2s-.6-.1-.9-.1h-.3Z"/><path class="cls-8" d="M12.7,4.2h-.2c0,.1-.1.2-.1.3h.1a1.6,1.6,0,0,0,0-.7h.3a.1.1,0,0,0,.1.1l.2.2h0A.4.4,0,0,1,13,5h0a.5.5,0,0,0,.2-.4L13,4.4h-.3Z"/><path class="cls-5" d="M9,5.5h.3a.1.1,0,0,0-.1-.1H8.8a.6.6,0,0,1-.1-.6l-.3.2H8.3a.2.2,0,0,0,0,.3l.2.2c.1,0,.1.1,0,.1h.2c0,.1.1.1.1.2H9Z"/><path class="cls-5" d="M12.6,5.3h.2c-.1,0-.1-.1,0-.1V4.9c.1-.1.2-.2.1-.3h-.1l-.3-.2a.6.6,0,0,1-.1.6h-.4a.1.1,0,0,0-.1.1h.5Z"/><path class="cls-5" d="M9,5.8H9Z"/><path class="cls-5" d="M9.6,5.7h0Z"/><path class="cls-5" d="M10.1,5.6H9.9a.1.1,0,0,0-.1.1h.3Z"/><path class="cls-5" d="M12.3,5.8Z"/><path class="cls-5" d="M11.9,5.7a.1.1,0,0,1-.1-.1h.1Z"/><path class="cls-5" d="M11.4,5.6h.1a.1.1,0,0,0-.1-.1Z"/><path class="cls-5" d="M10.6,5.6H11l-.3-.2h0a.1.1,0,0,1-.1-.1h0l-.3.2Z"/><path class="cls-6" d="M12.3,6.1Zm-3.1.1a.1.1,0,0,1-.1-.1h.1ZM9.8,6h0ZM10,6Zm.6.1h0l-.3-.2H11Zm.7-.1h0Zm.6,0h0Zm.2.2h.1A.1.1,0,0,1,12.1,6.2Z"/><path class="cls-6" d="M12.2,6.3h.2S12.2,6.4,12.2,6.3Z"/><path class="cls-4" d="M10,5.9h0Z"/><path class="cls-4" d="M9.2,6H9.1a.1.1,0,0,0,.1.1h0Z"/><path class="cls-4" d="M11.3,5.9h0Z"/><path class="cls-4" d="M12.1,6h0a.1.1,0,0,0,.1-.1Z"/><path class="cls-3" d="M8.9,6.2H8.8a.1.1,0,0,0-.1.1h.2Z"/><path class="cls-3" d="M12.4,6.1h.2a.1.1,0,0,0-.1-.1Z"/><path class="cls-4" d="M9.7,5.9h0Zm0,.2h0Z"/><path class="cls-5" d="M9.7,5.9h0Z"/><path class="cls-4" d="M10.6,5.8h0Zm.2.1h0Z"/><path class="cls-4" d="M10.6,5.8h-.3l.3.2h0l.4-.2Zm0,.3-.3-.2h.6Z"/><path class="cls-7" d="M10.3,5.9l.3.2.3-.2h-.6Zm.5,0Z"/><polygon class="cls-3" points="10.5 5.9 10.6 6 10.8 5.9 10.6 5.8 10.5 5.9"/><path class="cls-4" d="M11.9,6h0Zm0,0h0Z"/><path class="cls-5" d="M11.9,6h0Z"/><path class="cls-6" d="M12.3,5.8h0Z"/><path class="cls-6" d="M13.1,5.3h-.3c0-.1,0-.1-.1-.1h-.1c0,.1-.1.1-.1.2H12c0-.1,0-.1.1-.1h0c.1,0,.1,0,.1.1h0a.1.1,0,0,0-.1-.1h0a.1.1,0,0,1,.1-.1h-.7v.2h.2c0,.1,0,.1-.1.2h-.4a.1.1,0,0,0-.1.1h-.3c-.1-.1-.1-.1-.1-.2h.3V5.1h-.9v.2h.3c0,.1-.1.1-.1.2H9.6c-.1-.1-.1-.1-.1-.2h.2V5.2H9.2a.1.1,0,0,0-.1.1h0c0-.1,0-.1.1-.1h0c.1,0,.1,0,.1.1H8.8c0-.1-.1-.1-.1-.2H8c-.1,0-.1,0-.1.1h.5l.2.2h.1a.1.1,0,0,0,.1.1h.6c0-.1,0-.1.1-.1h.1c0,.1,0,.1.1.1h.5l.4-.2h.1l.3.2h.6a.1.1,0,0,0,.1-.1h.1a.1.1,0,0,1,.1.1h.6a.1.1,0,0,0,.1-.1h.1l.2-.2h.4c.1-.1,0-.1,0-.1h-.2ZM9.4,5.2H9.3c.1,0,.1,0,.1.1Zm1.3-.1h-.1a.1.1,0,0,0-.1-.1h.2Zm1.2.2h0c0-.1,0-.1.1-.1h-.1Z"/><path class="cls-3" d="M8.4,5.5Z"/><path class="cls-7" d="M8.9,5.3h0A.1.1,0,0,0,9,5.3H8.9Z"/><path class="cls-7" d="M10.1,5.2c0-.1,0-.1-.1-.1h.1Z"/><path class="cls-3" d="M13,5.4h0Z"/><path class="cls-7" d="M12.5,5.3h-.2c0,.1,0,.1.1.1h.1Z"/><path class="cls-7" d="M11.4,5.1h0Z"/><path class="cls-4" d="M12.1,5.2H12c-.1,0-.1,0-.1.1h.2Zm-.1.1h-.1c0-.1,0-.1.1-.1h0Z"/><path class="cls-3" d="M12.1,5.2H12c-.1,0-.1,0-.1.1h.2Z"/><path class="cls-4" d="M10.6,5h-.1a.1.1,0,0,1,.1.1h0Zm.1.1h0c0,.1,0,.1-.1.1h.1Z"/><path class="cls-3" d="M10.6,5h0c.1,0,.1,0,.1-.1h-.1Z"/><path class="cls-4" d="M9.3,5.1h.1C9.4,5.1,9.4,5.1,9.3,5.1Zm.1.1H9.3c.1,0,.1,0,.1.1Z"/><path class="cls-3" d="M9.3,5.1h.1C9.4,5.1,9.4,5.1,9.3,5.1Z"/><path class="cls-8" d="M10.7,15.8h0a3.6,3.6,0,0,0,2.5-1,3.8,3.8,0,0,0,.9-1.5,3.6,3.6,0,0,0,.2-1.1V6.7H7v5.5a3.6,3.6,0,0,0,.2,1.1,3.8,3.8,0,0,0,.9,1.5A3.6,3.6,0,0,0,10.7,15.8ZM7,12.2V6.7h7.3v5.5a3.6,3.6,0,0,1-1.1,2.6,3.7,3.7,0,0,1-2.5,1h0a3.8,3.8,0,0,1-2.6-1A3.6,3.6,0,0,1,7,12.2Z"/><path class="cls-5" d="M10.7,15.8h0a3.7,3.7,0,0,0,2.5-1,3.6,3.6,0,0,0,1.1-2.6V6.7H7v5.5a3.6,3.6,0,0,0,1.1,2.6A3.8,3.8,0,0,0,10.7,15.8ZM9.3,14.2H9.2c.1,0,.1-.1,0-.1H9a.1.1,0,0,0-.1.1H8.8v-.2H8.7V14H8.5c-.1,0,0,.1,0,.1h0a.2.2,0,0,1-.2-.2h0c.1-.1.1-.1.1-.2h.3a.4.4,0,0,1,.1-.3h.1a.4.4,0,0,1,.1.3h.3c0,.1.1.1.1.2h0C9.4,14.2,9.3,14.2,9.3,14.2ZM13,14a.2.2,0,0,1-.2.2h-.2v.2h0v.2H12s-.1,0-.1-.2h0c0-.1.1-.1.1-.2h.3v-.3h.2a.4.4,0,0,1,.1.3c0-.1.1-.1.2-.1h0l.2.2h0Zm-4.9-.2h.2l.4-.5h0v-.2H8.6l.2-.2h0c0-.1.1-.1.1-.2h.4v-.7H9.2v.2h0a.3.3,0,0,0-.1.2H8.9v.2H8.7c-.1,0-.1-.2-.1-.4s-.1.3-.1.4H8.4a.1.1,0,0,1-.1-.1h0v.4h0v.3H7.9v.2H7.5v-.2h0v-.2c0-.1-.1-.1,0-.2H7.4v-.3H7.3V11H7.2c0-.1.1-.1.1-.2H7.2v-.3h0a1.3,1.3,0,0,1,.1-.6c0-.2.1-.4.1-.6h0c0-.1.1-.2.1-.3h0a.8.8,0,0,0,.1-.4h0l.2-.3.3-.2h.4a.8.8,0,0,1-.2.4h0v.4h0a.4.4,0,0,1,.1.3c0,.1,0,.2.2.3H9l.3.3h.1l.2-.2h.1a.1.1,0,0,0,.1-.1h0V8.1H9.4a.1.1,0,0,0-.1-.1H8.7V7.4c0-.1.1-.1.2-.1h.5l.5.2h.2v.2h.1a.3.3,0,0,1,.1.2v.2h-.1a.4.4,0,0,1,.1.3h.1v.2h.1V8.6h.1V8.1h0V7.9a.3.3,0,0,1,.1-.2h0l.2-.2h.2l.5-.2h.5c.1,0,.2,0,.2.1v.2H12a.1.1,0,0,0-.1.1h-.1c.1,0,.1,0,.1.1h-.5v.2h.2l.2.2H12a.7.7,0,0,1,.3-.3h.3l.2-.3V8.3c.1,0,.1,0,.1-.1V7.8h0V7.4h.4l.3.2a.4.4,0,0,1,.1.3h0c.1.1.1.2.1.4h.1a.4.4,0,0,0,.1.3h0c0,.2.1.4.1.6s.1.4.1.6h0v.3H14v.2h0v.4h-.1v.3h-.1v.4h0v.2h-.4v-.2h-.1c0-.1-.1-.1-.1-.3h0v-.4h0a.1.1,0,0,0-.1.1h-.1c0-.1-.1-.2-.1-.4s0,.4-.1.4h-.1v-.2h-.2a.3.3,0,0,0-.1-.2h0v-.2H12v.7h.4c0,.1.1.1.1.2h0v.2h-.1v.2h-.1l.5.5h.7a.1.1,0,0,1-.1.1h-.4a.3.3,0,0,0-.1-.2h-.3l-.5-.5h-.8l-.3.2V13h0l.2.2h0v.2h-.1c.1.1.1.2.2.2h0v.2h0v.3h-.3V15h-.3v.2l-.2-.2v.3L11,15h-.2v.2h-.1c0,.1,0,.2-.1.1h0a.1.1,0,0,1-.1-.1h-.2l-.2.2v-.3l-.2.2a.1.1,0,0,1,0-.2H9.6v-.2H9.4v-.3h0v-.2h0l.2-.2H9.7v-.2h0v-.2H10v-.2l-.3-.2H9l-.5.5H8.1v.2ZM9,7.7Zm3.3,0h0Z"/><path class="cls-4" d="M8.1,13.6h.4l.5-.5h.8l.3.2V13H9.9v.2h0v.2h.1l-.2.2h0v.2h0v.3h.3V15h.3a.1.1,0,0,0,0,.2l.2-.2v.3l.2-.2h.2a.1.1,0,0,0,.1.1h0c.1.1.1,0,.1-.1h.1v-.2H11l.2.2v-.3l.2.2v-.2h.3v-.2h.3v-.3h0v-.2h0c-.1,0-.1-.1-.2-.2h.1v-.2h0l-.2-.2h0v-.2l.3-.2h.8l.5.5h.3a.3.3,0,0,1,.1.2h.4a.1.1,0,0,0,.1-.1H13l-.5-.5h.1v-.2h.1V12h0c0-.1-.1-.1-.1-.2H12v-.7h.1v.2h0a.3.3,0,0,1,.1.2h.2v.2h.1c.1,0,.1-.2.1-.4s.1.3.1.4h.1a.1.1,0,0,1,.1-.1h0v.4h0c0,.2.1.2.1.3h.1v.2h.4v-.2h0v-.4h.1v-.3H14V11h0v-.2h.1v-.3h0c0-.2-.1-.4-.1-.6s-.1-.4-.1-.6h0a.4.4,0,0,1-.1-.3h-.1c0-.2,0-.3-.1-.4h0a.4.4,0,0,0-.1-.3l-.3-.2h-.4v.4h0v.4c0,.1,0,.1-.1.1v.3l-.2.3h-.3a.7.7,0,0,0-.3.3h-.1l-.2-.2h-.2V8.1h.5c0-.1,0-.1-.1-.1h.1a.1.1,0,0,1,.1-.1h.6V7.4c0-.1-.1-.1-.2-.1h-.5l-.5.2h-.2l-.2.2h0a.3.3,0,0,0-.1.2v.2h0v.3h-.1v.2h-.1V8.6h-.1a.4.4,0,0,0-.1-.3h.1V7.9a.3.3,0,0,0-.1-.2h-.1V7.3H9.9L9.4,7H8.9c-.1,0-.2,0-.2.1v.2h.6a.1.1,0,0,1,.1.1h.4v.2h0a.1.1,0,0,1-.1.1H9.6l-.2.2H9.3L9,9.1H8.7c-.2-.1-.2-.2-.2-.3a.4.4,0,0,0-.1-.3h0V7.8h0a.8.8,0,0,0,.2-.4H8.1l-.3.2-.2.3h0a.8.8,0,0,1-.1.4h0c0,.1-.1.2-.1.3h0c0,.2-.1.4-.1.6a1.3,1.3,0,0,0-.1.6h0v.3h.1c0,.1-.1.1-.1.2h.1v.4h.1v.3h.1c-.1.1,0,.1,0,.2v.2h0v.2h.4v-.2H8v-.3h0v-.4h0a.1.1,0,0,0,.1.1h.1c0-.1.1-.2.1-.4s0,.4.1.4h.1v-.2h.2a.3.3,0,0,1,.1-.2h0v-.2h.1v.7H8.9c0,.1-.1.1-.1.2h0l-.2.2h.2v.2h0l-.4.5H8.1v-.2ZM7.4,8.7h0a.4.4,0,0,0,.1-.3h.1V7.7h.1a.4.4,0,0,1,.1-.3l.3-.2h.4a.8.8,0,0,1-.2.4h0v.4h0a.4.4,0,0,1,.1.3.4.4,0,0,0,.1.3h.1l.3.2c.2,0,.2.2.3.2h0v.3H8.6a.1.1,0,0,1-.1-.1H8.1a.1.1,0,0,1-.1.1H8c0-.2.1-.4.1-.6h0c-.1.1-.1.4-.2.4H7.8A.4.4,0,0,1,7.9,8h0c0-.1,0-.1.1-.2H8c-.1.1-.1.1-.1.2H7.8v.2H7.7l-.2.2H7.4Zm.4.3h.1V8.7H8v.2H8v.2h.1v.2H8c.1,0,.1,0,.1.1H7.9V9.3h0Zm1.3.7Zm-.2-.1H8.7V9.7h.2Zm-.2-.2H8.5V9.2h0a.1.1,0,0,0,.1.1h.1Zm-.2,0h0Zm-.2-.3H8.1V8.9h.2Zm-.5.4H8c0,.2-.1.3-.1.4h0v.4H7.7v-.2h0V9.8h0V9.5Zm.1.4H8V9.4H8c0,.1,0,.2.1.2h.1v.4H8.1v.2a.1.1,0,0,1-.1.1H8a.1.1,0,0,1-.1-.1h0Zm.3.1h0V9.5h0v.2h.1v.3h0v.2c0,.1,0,.1-.1.2h0a.3.3,0,0,1-.1-.2h0Zm.2,0h0V9.6h0c.1.1.1.1.1.2h0c.1,0,.1,0,.1-.1h0V10H8.5c0,.1,0,.2-.1.2H8.3Zm.2.1h0V9.8a.1.1,0,0,1,.1-.1h.2v.2h0v.2H8.6Zm.2,0h0V9.8h0v.2h.2c0,.1-.1.2,0,.3H9v.4h0c-.1,0-.1-.1-.1-.2h0Zm.2,0h.1V9.8h.2v.2a.1.1,0,0,1-.1.1H9Zm.2-.1h.1v.2Zm-2,.1h0c0-.2.1-.4.1-.6s.1-.4.1-.6h.2V8.3c.1,0,0-.1,0-.1h.1v.3h.1c.1,0,.2-.3.2-.4h0v.2H7.9a.5.5,0,0,1-.1.3h0v.2l-.2.4H7.5V9.5h0a2.2,2.2,0,0,0,.1-.6.1.1,0,0,1,.1-.1H7.6a2.2,2.2,0,0,1-.1.6H7.4c0,.1-.1.3-.1.4Zm.4,2.7H7.5v-.2h0v-.2H7.4v-.3H7.3V11h0a.1.1,0,0,1,0-.2H7.2v-.3h.1a2.3,2.3,0,0,0,.1-.4h.1v.4h.1c.1,0,.1,0,.1-.1h0v.6h0a1.3,1.3,0,0,1,.1.6h0v.5h0V12h0v.2H7.7v.2H7.6Zm.2-.1H7.7v-.2h.1V12h0v-.2h0v-.4h0a1.3,1.3,0,0,0-.1-.6h0a.1.1,0,0,0,.1.1h0a.1.1,0,0,0,.1-.1h0c0,.1,0,.2.1.2h.1v.6H8v.6H7.9s.1,0,0,.2v.2a.8.8,0,0,0-.1.4h0Zm.1-.1h0v.2H7.8a1,1,0,0,0,.1-.4V12h0v-.2H8v-.6H8c.1,0,0,0,0-.1h.1v-.7h0c0,.1,0,.1.1.1h0a.3.3,0,0,0,.1-.2h0v.2H8.2a.1.1,0,0,1,0,.2v.2a.4.4,0,0,1-.1.3h0v.3H8Zm.4-.9H8.2c0,.1.1.1,0,.1v.4h0a.4.4,0,0,0-.1.3H7.9v-.3H8a.4.4,0,0,0,.1-.3h0a.4.4,0,0,0,.1-.3V11h0v-.2h.2v-.2h0a.4.4,0,0,1-.1.3V11H8.4Zm.2-.2H8.4c0-.1,0-.1-.1-.1h.1v-.4h.1c0-.2,0-.3.1-.4v-.2h.1v.3H8.6Zm.3-.2H8.7c-.1,0-.1-.2-.1-.4h.1a.5.5,0,0,1,.1-.3v-.2H9v.3H8.9A.6.6,0,0,1,8.8,11.3Zm.5-.6H9.2a.3.3,0,0,0-.1.2H9v-.3h.3Zm-.5,2.4h0Zm.5-.5H9v-.2h.2a.4.4,0,0,0-.1.3h.1Zm-.2-.5H8.9v-.2h.1Zm.4.5H9.4l-.2-.3c0-.1,0-.1.1-.2h.1l.2.3H9.5Zm.2,0H9.6v.2Zm.1.9v-.2c.1,0,.1-.1.1-.2l.2-.3h.1v.2h0c0,.1-.1.1-.1.2H9.8Zm1.4-.1H11v-.2h.1v.4Zm.1.5v.2c0,.1,0,.2-.1.2l-.2-.2h0v-.3h.2Zm-.4-.8H11v.3h-.2V13h0Zm-.1,0h0v.5h-.3V13h.2Zm-.3-.1h0v.4h-.2v-.3h0l.2-.2h0Zm-.2,1.1H10v-.2a1.1,1.1,0,0,1,.1-.5h.2V14h0Zm.1-1.1v.4h-.2v-.3h.3Zm-.6,1.1H9.6l.2-.3v-.2h.2a.3.3,0,0,0-.1.2V14H9.8Zm-.4.8v-.2h.1v-.2h0l.2-.2H10l-.2.2c0,.2-.1.3-.1.4Zm.2.1v-.4l.3-.5h0v.2a.4.4,0,0,0-.1.3H9.6Zm.3.1v-.3h0c0-.1.1-.2.1-.4h.1l.2-.2h0a.4.4,0,0,0-.1.3,1.1,1.1,0,0,0-.1.5Zm.5-.7h0V15l-.2.2v-.3h0a2.5,2.5,0,0,1,.2-.7h.1Zm0,0h-.1v-.6h.2v.2h0V14c0,.1,0,.2-.1.2A.3.3,0,0,1,10.4,14.4Zm.4,0-.2.2v-.2h0a.1.1,0,0,1,.1-.1V14h.1v.2a.1.1,0,0,1,.1.1Zm.1,0-.2-.2v-.4h.2v-.2H11v.3h0v.3h-.1Zm.2.8v-.6c-.1,0-.1-.1-.1-.2H11v-.2c0,.1.1.1.1.2a4.3,4.3,0,0,1,.1.5h0S11.2,15.2,11.1,15.2Zm.3-.1-.2-.2a1.1,1.1,0,0,0-.1-.5.4.4,0,0,0-.1-.3l.2.2h.1v.7Zm.2-.3c.1.1.1.2,0,.2h-.2a.4.4,0,0,0-.1-.3h0v-.2h0l.2.3v.4Zm0-.6c0,.1.1.1.1.2h0v.5l-.3-.2v-.3l-.2-.3h.3Zm-.1-.6h0a.4.4,0,0,1,.1.3h-.3v-.4h.3Zm-.2-.5h0l.2.2h-.3v-.2h0l-.2-.2h.2Zm.3-.5h-.1l.2-.2h-.1Zm.3,0h-.2l.2-.3H12c.1.1.1.1.1.2Zm0-.6h.4v.2h-.5Zm.3.6h-.1a.4.4,0,0,0-.1-.3h.2c0,.1.1.1.1.2h-.1Zm.2.6Zm1.1.7h0Zm.3-.3h0Zm-.2-.6h.1c.1,0,0,0,0,.1h-.1Zm-.5.1h.6a.1.1,0,0,0-.1.1h-.4v-.2h-.4l-.5-.5h.8Zm-.1,0h0Zm0-.1Zm0,0Zm-.1-.1Zm0,0Zm-.1-.1Zm0,0Zm-.1-.1Zm0,0Zm0,0Zm-.1-.1h0Zm0,0Zm0,0h0Zm-.1-.3c0,.1.1.2,0,.2h-.2v-.2h.3Zm.1-.1h-.3l.2.2Zm.1-1.1a1,1,0,0,1-.1.4h-.1c-.1-.1-.1-.3-.2-.4h0v-.3h.2v.2a.5.5,0,0,1,.1.3h.1c-.1,0-.1,0,0,.1Zm-.4-1h-.1V9.8h.2V9.7h0V10h0c0,.1,0,.2-.1.2h0v-.4Zm-.1-.4Zm.9-.8h.1v.2h-.1Zm.1-.1h.1V8.7h0V8.4h.1V9h.1v.2h-.2V8.9h0ZM12.5,10h0a.3.3,0,0,1-.1-.2h.2a.1.1,0,0,1,.1.1V10h-.2v-.2h0Zm.2.1h0V9.8h0c0,.1,0,.1.1.1h0V9.6h.1v.3h0v.2h-.2v-.2Zm.2-.1h0V9.6H13V9.5h0v.4h0v.2h0v.2h0c-.1-.1-.1-.1-.1-.2Zm.2,0h0V9.5h.1V9.4h0v.4h0v.2h0a.1.1,0,0,1-.1.1h0a.1.1,0,0,1-.1-.1Zm.3-.1h-.1V9.4h.2V9.4a.4.4,0,0,0,.1.3h0V10h0v.2h-.1V9.9ZM13,9.2h-.2V9.2H13Zm-.2.2h-.1a.1.1,0,0,0,.1-.1h0Zm-.2,0h0c0,.1,0,.1-.1.2h-.1V9.4h.2Zm.3,2.3h-.1v-.4h0c-.1-.1,0-.1,0-.1h-.1v-.3h.2v.2c.1.1.1.2.1.4h0c.1.1.1.2.1.4h0Zm.4,1h0a.4.4,0,0,0-.1-.3h0v-.4h0v-.4h-.1c0-.2,0-.3-.1-.4v-.3h0v.2h.1v.2h0v.7h.1a.4.4,0,0,0,.1.3h0v.3Zm.2.1h-.1v-.2h0v-.3h0a.4.4,0,0,1-.1-.3h0a.4.4,0,0,1-.1-.3v-.2c-.1-.1-.1-.2,0-.2H13v-.2h0a.3.3,0,0,0,.1.2h0c.1,0,.1,0,.1-.1h0v.7h0v.6h0V12h0c.1,0,.1.1.1.2a1,1,0,0,0,.1.4h0Zm.1,0h-.1c0-.1-.1-.2-.1-.4V12c-.1-.2-.1-.2,0-.2h-.1v-.3a.4.4,0,0,0-.1-.3h0v-.6h.1c.1,0,.1-.1.1-.2h0a.1.1,0,0,0,.1.1h0a.1.1,0,0,0,.1-.1h0a1.3,1.3,0,0,0-.1.6h0v.4h0V12h0v.2h0v.2h0Zm.5-2.5h0a.4.4,0,0,0-.1.3h0v.2h0v.3h-.1v.3h-.1v.2h0c0,.1,0,.2-.1.2h-.1v-.2h-.1V12h0v-.2h0v-.5h0a1.3,1.3,0,0,1,.1-.6h0V9.7h.2V9.5h0c.1.1.1.4.2.4h0C14.1,10.2,14.1,10.2,14.1,10.3Zm-.1-1c0,.2.1.4.1.6H14l-.2-.4h0a2.2,2.2,0,0,1-.1-.6.1.1,0,0,0-.1-.1h.1a2.2,2.2,0,0,0,.1.6h0v.4h-.2a.6.6,0,0,0-.1-.4V9.2h-.1V8.7h-.2V8.1h0c0,.1.1.4.2.4h.1V8.1h.1a.1.1,0,0,0-.1.1l.2.2h.2C13.9,8.9,14,9.1,14,9.3Zm-2,.1h0a.4.4,0,0,1,.3-.2l.3-.2h0c.2-.1.2-.2.2-.3a.4.4,0,0,1,.1-.3h0V7.8h0a.8.8,0,0,1-.2-.4h.4l.3.2a.4.4,0,0,1,.1.3h0c.1.1.1.2.1.4h.1a.4.4,0,0,0,.1.3h-.1l-.2-.2h-.1V8h-.1c0-.1,0-.1-.1-.2h0c.1.1.1.1.1.2h0a.4.4,0,0,1,.1.3h-.1c-.1,0-.2-.3-.2-.4h0c0,.2.1.4.1.6H12Zm0,.3h0Zm0,.3h.2v.3h0c0,.1.1.1.1.2h-.2c-.1,0-.1,0-.1-.1Zm0,.3h.3v.3h-.1a.3.3,0,0,0-.1-.2H12Zm0,1.3h.4c0,.1.1.1.1.2h-.3c0-.1-.1-.1-.2-.1h0Zm-.4-2.5h.1l.2.2h-.3Zm-1.5-1h.1v.2h-.1Zm.1,0h.1v.2h-.1Zm.1,0Zm.3,1.1h0ZM10.1,9h0V9h0v.2h.1Zm0-.1Zm0-.3h0Zm.2.2h.1A.1.1,0,0,1,10.3,8.8Zm.1,0h0Zm-.2.3h.2v.2h-.1a.1.1,0,0,1-.1-.1Zm.3,0h0V8.9h.1V9h0Zm0-.3c-.1,0-.1,0-.1-.1h.1Zm-.4-.4Zm-.1.1h.1v.2c-.1,0-.1-.1-.1-.2h0Zm-.1.1Zm0,0H10a.1.1,0,0,1-.1.1h0Zm0,.3h0Zm-.1.2h.1a.1.1,0,0,1-.1.1h0Zm-.1.3Zm.2,0h0V9.1H10v.2H9.9Zm.1,0Zm.1,0V9.2h0Zm.1,0ZM11,8.2Zm.1,0H11V8.4h.2Zm.1.1h-.1V8.4h.1C11.2,8.2,11.1,8.3,11.2,8.3Zm.1,0h0Zm.2.7h0a.1.1,0,0,1-.1-.1h.1Zm0,.1ZM11.2,9h0c.1-.1.1-.1.1-.2h0v.2c-.1,0-.1-.1-.1-.2Zm-.1-.4H11c-.1,0-.1,0-.1-.1h.2Zm0,0Zm-.1.2h0Zm0,.3h.1a.1.1,0,0,1-.1.1h-.1V9.1ZM11,9Zm.4-.2h0a.1.1,0,0,1-.1-.1h.1Zm0-.2h0Zm-.1-.1h0a.3.3,0,0,1-.1.2V8.7h.1Zm-.4,0h0c0,.1,0,.1-.1.1h.1Zm-.1.3h.1v.2h0V8.8Zm-.1.3Zm.4.3h.1v.2Zm.1,0h0Zm.1,0h0V9h.1v.2h-.1Zm.1,0Zm.2-.5h-.1V8.8h.2Zm-.1-.3h0Zm0-.1Zm.8-1.3h.3v.2H12a.1.1,0,0,0-.1.1h-.1c.1,0,.1,0,.1.1h-.3a.1.1,0,0,1-.1-.1h.2a.1.1,0,0,0,.1-.1h.1a.1.1,0,0,0,.1-.1h.3Zm-.5.3h0Zm-1,.6H11l.2-.2h0L11,8h-.2V7.9c0-.1.1-.1.1-.2h1.1a.1.1,0,0,0,.1.1h-.5c0,.1,0,.1-.1.1h-.2c0,.1,0,.2.1.2h-.1a.4.4,0,0,1-.1.3h0V8.2h-.5Zm-.1.4h.1a.4.4,0,0,1,.1-.3h-.2Zm0,.1h.1v.2h-.1Zm0,.3h.1v.3h0C10.6,9,10.6,9,10.7,8.9Zm0,.2h0Zm-.1-.3h0v.2h0V8.8h.1Zm0-.2v.2h-.1V8.6h.1Zm-.1-.2h0s.1.1,0,.1h-.1A.4.4,0,0,1,10.5,8.4Zm-.9-.5H9.4a.1.1,0,0,0-.1-.1H8.7V7.4c0-.1.1-.1.2-.1h.4a.1.1,0,0,0,.1.1h.1c0,.1,0,.1.1.1h.2a.1.1,0,0,1-.1.1Zm-.2-.5h0Zm.4,1h0V8.1H9.7c-.1,0-.1,0-.1-.1h.7c0,.1.1.1.1.2v.2h-.2l-.2-.2h0l.2.2H10v.2H9.9V8H9.8Zm0,.2Zm0,.2Zm-.1.3h.2V9H9.7Zm-.3.3h0l.2-.2H9.4Zm-.1,2.1V9.4H12v2.1a1.2,1.2,0,0,1-.4,1l-.7.4h-.5l-.7-.4a1.2,1.2,0,0,1-.4-1Zm-.7.5h.2c0-.1.1-.1.1-.2h.4c-.1,0-.2,0-.2.1H8.6Zm.2.3H8.7a.1.1,0,0,1-.1-.1h.1V12l.2-.2H8.8Zm-.1.2v-.2h.3v.2H8.7Zm0,0h0Zm0,.1Zm0,0h0Zm-.1.1Zm0,0h0Zm-.1,0Zm0,.1Zm0,0Zm-.1.1Zm0,0Zm-.1.1Zm0,0Zm-.1.1h0Zm-.5,0Zm0,.5h0Zm.3.2H8Zm.1,0H7.8c0-.1.1-.1,0-.1H9l-.5.5H8.1Z"/><path class="cls-4" d="M7.5,10.9c0-.2-.1-.3-.1-.5a.4.4,0,0,1,.1-.3V9.9h0v.5a.9.9,0,0,0,.1.5c0,.3.1.5.1.8v.7h0v-.7C7.6,11.4,7.5,11.2,7.5,10.9Z"/><path class="cls-4" d="M13.8,9.9h0v.2a.4.4,0,0,1,.1.3c0,.2-.1.3-.1.5s-.1.5-.1.8v.7h0v-.7c0-.3.1-.5.1-.8s.1-.3.1-.5a.4.4,0,0,0-.1-.3Z"/><path class="cls-4" d="M9.1,7.8h0ZM9,7.8H9Z"/><polygon class="cls-4" points="7.9 9.8 7.9 9.8 7.9 9.8 7.9 9.8"/><path class="cls-4" d="M12.2,7.7h0Zm.1.1h0Z"/><path class="cls-4" d="M11.9,8Z"/><path class="cls-8" d="M11.2,13.6H11V14h0l.2.2c.1,0,.1-.1.1-.2v-.5Z"/><path class="cls-8" d="M10.7,12.9h-.2v.7h.3v-.5h0v-.2Z"/><path class="cls-8" d="M10,13.4c0-.1.1-.1.1-.2h0v-.2h-.1l-.2.3c0,.1,0,.2-.1.2v.2H10Z"/><path class="cls-8" d="M10.2,13h-.1v.3h.2V13h-.2Z"/><path class="cls-8" d="M10.3,13.1h0v.3h.2v-.4h0Z"/><path class="cls-8" d="M11,12.9l.2.2h0v.2h.3l-.2-.2h0v-.3Z"/><path class="cls-8" d="M11.1,13H11v.2h.2V13Z"/><path class="cls-8" d="M10.7,12.9h.1v.5H11v-.3h-.1v-.2Z"/><path class="cls-8" d="M10,14v-.2a.3.3,0,0,1,.1-.2H9.9v.2l-.2.3H10Z"/><path class="cls-8" d="M10.3,13.7h-.2a1.1,1.1,0,0,0-.1.5v.2h.3Z"/><path class="cls-8" d="M10.6,14v-.2h0v-.2h-.2v.6h.1a.3.3,0,0,0,.1-.2C10.6,14.2,10.6,14.1,10.6,14Z"/><path class="cls-8" d="M11,14.3h0v-.3h0v-.3h-.2v.2h-.2v.4l.2.2Z"/><path class="cls-8" d="M11.2,13.4h0V14h.3a.4.4,0,0,0-.1-.3h-.3Z"/><path class="cls-8" d="M10.7,14h-.1v.2a.1.1,0,0,0-.1.1h0v.2l.2-.2h0a.1.1,0,0,0-.1-.1Z"/><path class="cls-8" d="M9.8,14.3l.2-.2H9.8l-.2.2h0v.2H9.4v.2l.3-.2C9.7,14.6,9.8,14.5,9.8,14.3Z"/><path class="cls-8" d="M10,14.5v-.2h0l-.3.5V15h.3A.4.4,0,0,1,10,14.5Z"/><path class="cls-8" d="M10.3,14.1h0l-.2.2H10c0,.2-.1.3-.1.4h0v.3l.2-.2a1.1,1.1,0,0,1,.1-.5A.4.4,0,0,1,10.3,14.1Z"/><path class="cls-8" d="M10.3,14.3h0a2.5,2.5,0,0,0-.2.7h0v.3l.2-.2v-.6h-.1Z"/><path class="cls-8" d="M11.2,14.8a4.3,4.3,0,0,0-.1-.5c0-.1-.1-.1-.1-.2v.2h-.1c0,.1,0,.2.1.2v.6c.1,0,.1-.3.1-.3Z"/><path class="cls-8" d="M11.4,14.7v-.3h-.1l-.2-.2a.4.4,0,0,1,.1.3,1.1,1.1,0,0,1,.1.5l.2.2v-.4Z"/><path class="cls-8" d="M11.5,14.4l-.2-.3h0v.2h0a.4.4,0,0,1,.1.3h.2c.1,0,.1-.1,0-.2v-.4Z"/><path class="cls-8" d="M11.5,14.1h-.2l.2.3v.3l.3.2v-.5h0c0-.1-.1-.1-.1-.2Z"/><path class="cls-8" d="M8.9,11.9h.2c0-.1.1-.1.2-.1H8.9c0,.1-.1.1-.1.2h.1Z"/><path class="cls-8" d="M8.8,12.2H9l-.2.2v.2H8.6a.1.1,0,0,0,.1.1h.1Z"/><path class="cls-8" d="M8.9,12.5H9v-.2H8.8v.2Z"/><path class="cls-8" d="M9.3,12.1H9v.2h.4Z"/><path class="cls-8" d="M9.2,12.4a.4.4,0,0,1,.1-.3H9.1v.2h.2Z"/><path class="cls-8" d="M9.6,12.4l-.2-.3H9.3c-.1.1-.1.1-.1.2l.2.3h.2Z"/><path class="cls-8" d="M9.6,12.4h.1Z"/><path class="cls-6" d="M8.2,13.4h.3l.5-.5H7.8c.1,0,0,0,0,.1h.3v-.2h.1Zm.3-.1Zm-.7-.2h0Zm0,.3h0Zm.3.1h0Z"/><path class="cls-6" d="M8.5,12.7Z"/><polygon class="cls-6" points="8.4 12.9 8.4 12.9 8.4 12.9 8.4 12.9"/><polygon class="cls-6" points="8.3 13 8.3 13 8.3 13 8.3 13"/><path class="cls-6" d="M8.6,12.7Z"/><path class="cls-6" d="M8.7,12.6Z"/><path class="cls-6" d="M8.5,12.8Z"/><path class="cls-6" d="M8.8,12.7Z"/><path class="cls-6" d="M8.7,12.8h0Z"/><path class="cls-6" d="M8.5,12.9Z"/><path class="cls-6" d="M8.4,13h0Z"/><path class="cls-6" d="M8.3,13.1Z"/><path class="cls-6" d="M8.9,12.6h0Z"/><path class="cls-6" d="M8.6,12.8h0Z"/><path class="cls-4" d="M8.5,13.3h0Z"/><path class="cls-4" d="M8,13.6H8Z"/><path class="cls-4" d="M7.8,13.4h0Z"/><path class="cls-4" d="M7.8,13.1h0Z"/><path class="cls-6" d="M8.7,13.1Z"/><path class="cls-6" d="M7.7,13.1h0Z"/><path class="cls-6" d="M7.7,13.5Z"/><path class="cls-6" d="M7.9,13.8h0Z"/><path class="cls-8" d="M7.4,9.7h.1a2.2,2.2,0,0,0,.1-.6h.1a.1.1,0,0,0-.1.1,2.2,2.2,0,0,1-.1.6h0v.4h.1l.2-.4V9.2h0a.5.5,0,0,0,.1-.3H8V8.1h0c0,.1-.1.4-.2.4H7.8V8.1H7.7s.1.1,0,.1v.2H7.4c0,.2-.1.4-.1.6s-.1.4-.1.6h.1C7.3,10,7.4,9.8,7.4,9.7Z"/><path class="cls-8" d="M7.8,9.1h0v.2h.2c0-.1,0-.1-.1-.1h.1V8.9H8V8.7H8V8.4H7.9V9H7.8Z"/><path class="cls-8" d="M8.8,9.4H8.7v.2h.2V9.4H8.8Z"/><path class="cls-8" d="M8.5,9.1h0V9.2Z"/><path class="cls-8" d="M8.3,9H8.1v.2h.2Z"/><path class="cls-8" d="M8.5,9.2h0v.2h.1A.1.1,0,0,1,8.5,9.2Z"/><path class="cls-8" d="M7.5,8.6h0l.2-.2h.1V8h.1c0-.1,0-.1.1-.2H8c-.1.1-.1.1-.1.2h0a.4.4,0,0,0-.1.3h.1c.1,0,.1-.3.2-.4h0c0,.2-.1.4-.1.6H8a.1.1,0,0,0,.1-.1h.4a.1.1,0,0,0,.1.1h.7V9.4h0c-.1,0-.1-.2-.3-.2L8.7,9H8.6a.4.4,0,0,1-.1-.3.4.4,0,0,0-.1-.3h0V7.8h0a.8.8,0,0,0,.2-.4H8.1l-.3.2a.4.4,0,0,0-.1.3H7.6v.4H7.5a.4.4,0,0,1-.1.3h.1Z"/><path class="cls-8" d="M9.1,9.7h0Z"/><path class="cls-8" d="M9.3,9.7h0Z"/><path class="cls-8" d="M7.8,9.4v.3h0V10h0v.2h.1V9.9h0c0-.1.1-.2.1-.4H7.8V9.4Z"/><line class="cls-9" x1="7.9" y1="9.8" x2="7.9" y2="9.8"/><path class="cls-8" d="M7.9,10.2a.1.1,0,0,0,.1.1H8a.1.1,0,0,0,.1-.1V10h.1V9.5H8.1C8,9.6,8,9.5,8,9.4H8v.4H7.9v.2Z"/><path class="cls-8" d="M8.1,10.2a.3.3,0,0,0,.1.2h0c.1-.1.1-.1.1-.2V10h0V9.6H8.3V9.5h0v.4h0v.2Z"/><path class="cls-8" d="M8.4,10.3h0c.1,0,.1-.1.1-.2h.1V9.8h0c0,.1,0,.1-.1.1h0c0-.1,0-.1-.1-.2h0v.3h0v.2h.1Z"/><path class="cls-8" d="M8.6,10.3h.2v-.2h0V9.7H8.7a.1.1,0,0,0-.1.1V10h0Z"/><path class="cls-8" d="M8.8,10.3c0,.1,0,.2.1.2h0v-.4h.1c-.1-.1,0-.2,0-.3H8.9V9.7h0V10h0Z"/><path class="cls-8" d="M9,10.4h.2a.1.1,0,0,0,.1-.1V10H9.1v.3H9v.2Z"/><path class="cls-8" d="M9.2,10.4H9v.3h.1a.3.3,0,0,1,.1-.2h.1v-.4H9.2Z"/><path class="cls-8" d="M8.9,10.9H9v-.3H8.8v.2a.5.5,0,0,0-.1.3H8.6c0,.2,0,.4.1.4h.1a.6.6,0,0,0,.1-.4Z"/><path class="cls-8" d="M8.6,11.1h.1v-.3H8.6v.2c-.1.1-.1.2-.1.4H8.4v.4H8.3c.1,0,.1,0,.1.1h.1v-.4Z"/><path class="cls-8" d="M8.4,11.2h.1v-.4a.4.4,0,0,0,.1-.3h0v.2H8.3v.2h0v.4a.4.4,0,0,1-.1.3h0a.4.4,0,0,1-.1.3H8v.3H8a.4.4,0,0,1,.1-.3h0v-.4c.1,0,0,0,0-.1h.1v-.4Z"/><path class="cls-8" d="M8,12.2H8v-.3h0a.4.4,0,0,0,.1-.3v-.2a.1.1,0,0,0,0-.2h.1v-.2h0a.3.3,0,0,1-.1.2h0c-.1,0-.1,0-.1-.1h0v.7H8c0,.1.1.1,0,.1H8v.6H8V12h0v.2a1,1,0,0,1-.1.4h.1v-.2h0v-.3Z"/><path class="cls-8" d="M7.8,12.6a.8.8,0,0,1,.1-.4V12c.1-.2,0-.2,0-.2H8v-.6h.1v-.6H8c-.1,0-.1-.1-.1-.2h0a.1.1,0,0,1-.1.1h0a.1.1,0,0,1-.1-.1h0a1.3,1.3,0,0,1,.1.6h0v.4h0V12h0v.2H7.7v.2h.1Z"/><path class="cls-8" d="M7.7,12.4h.1V12h0v-.2h0v-.5h0a1.3,1.3,0,0,0-.1-.6h0V9.7h0c0,.1,0,.1-.1.1H7.5V9.5H7.4a2.3,2.3,0,0,1-.1.4H7.2v.3h.1a.1.1,0,0,0,0,.2h0v.3h.1v.3h.1v.2h0v.2h.2Zm-.1,0h0v-.7c0-.3-.1-.5-.1-.8a.9.9,0,0,1-.1-.5V9.9h0v.2a.4.4,0,0,0-.1.3c0,.2.1.3.1.5s.1.5.1.8Z"/><path class="cls-4" d="M8.6,13.8Z"/><path class="cls-4" d="M8.4,13.9h0Z"/><path class="cls-4" d="M9.4,13.9h0c0-.1-.1-.1-.1-.2H9a.4.4,0,0,0-.1-.3H8.8a.4.4,0,0,0-.1.3H8.4c0,.1,0,.1-.1.2h0a.2.2,0,0,0,.2.2h0s-.1-.1,0-.1h.2v.2h.1v.2h.1a.1.1,0,0,1,.1-.1h.2c.1,0,.1.1,0,.1h.1s.1,0,.1-.2Zm-.7.1H8.5c-.1,0-.1.1,0,.1L8.3,14h.4v.3Zm.3.2c-.1,0-.1,0-.1.1H8.8c-.1-.1-.1-.2-.1-.4h0a.4.4,0,0,1,.1-.3h.1a.4.4,0,0,1,.1.3H9Zm.3,0H9v-.3h.4Z"/><path class="cls-4" d="M8.9,13.5v.7h0v-.7Z"/><path class="cls-4" d="M9.2,13.8Z"/><path class="cls-6" d="M9,13.8a.4.4,0,0,0-.1-.3H8.8a.4.4,0,0,0-.1.3h0c0,.2,0,.3.1.4h.1c0-.1,0-.1.1-.1v-.4Zm-.1.1v.3h0v-.7h0Z"/><path class="cls-6" d="M8.7,13.8H8.3l.2.2c-.1,0-.1-.1,0-.1h.2v-.3Zm-.3.1h0Zm.3,0h0Z"/><path class="cls-6" d="M9.4,13.9H9v.3h.3V14h0Zm-.1.1Z"/><path class="cls-8" d="M12,11.7h0c.1,0,.2,0,.2.1h.3c0-.1-.1-.1-.1-.2H12Z"/><path class="cls-8" d="M12.3,11.8h.3V12Z"/><path class="cls-8" d="M12.5,12.2h-.3v.2h.2c.1,0,0-.1,0-.2Z"/><path class="cls-8" d="M12.1,12.1h.3v-.2h-.2Z"/><path class="cls-8" d="M12.3,12.4c0-.1-.1-.1-.1-.2H12a.4.4,0,0,1,.1.3h.2Z"/><path class="cls-8" d="M12,12.1h-.1l-.2.3h.2l.2-.3C12.1,12.2,12.1,12.2,12,12.1Z"/><path class="cls-8" d="M11.7,12.4l-.2.2h.2Z"/><polygon class="cls-6" points="12.8 12.8 12.8 12.8 12.8 12.8 12.8 12.9 12.8 12.8"/><path class="cls-6" d="M12.7,12.7Z"/><path class="cls-6" d="M12.7,12.7Z"/><polygon class="cls-6" points="13 13 13 13 13 13 13 13"/><path class="cls-6" d="M13,13.1h-.7l.5.5h.4v.2h.4a.1.1,0,0,1,.1-.1H13Zm-.3.2Zm.5.2h.1c.1-.1,0-.1,0-.1h-.1Zm.3-.1h0Zm0-.3Z"/><polygon class="cls-6" points="12.9 12.9 12.9 12.9 12.9 12.9 12.9 12.9"/><path class="cls-6" d="M12.6,12.6Z"/><path class="cls-6" d="M12.5,12.6h0Z"/><path class="cls-6" d="M12.6,12.7h0Z"/><path class="cls-6" d="M12.8,12.9Z"/><path class="cls-6" d="M12.8,12.9h0Z"/><path class="cls-6" d="M13,13Z"/><path class="cls-6" d="M12.5,12.5h0Z"/><path class="cls-6" d="M12.6,12.8Z"/><path class="cls-4" d="M12.9,13.3h0Z"/><path class="cls-4" d="M13.3,13.5h0s.1,0,0,.1h0Z"/><path class="cls-4" d="M13.5,13.4h0Z"/><path class="cls-4" d="M13.5,13.1h0Z"/><path class="cls-6" d="M12.6,13.1Z"/><path class="cls-6" d="M13.6,13.1h.1c0-.1.1-.1,0-.1h-.1Z"/><path class="cls-6" d="M13.6,13.5Z"/><path class="cls-6" d="M13.4,13.8h0Z"/><path class="cls-8" d="M13.9,8.7h-.2l-.2-.2a.1.1,0,0,1,.1-.1h-.1v.3h-.1c-.1,0-.2-.3-.2-.4h0v.2h.2V9h.1v.2a.6.6,0,0,1,.1.4h.2V9.5h0a2.2,2.2,0,0,1-.1-.6h-.1a.1.1,0,0,1,.1.1,2.2,2.2,0,0,0,.1.6h0l.2.4h.1c0-.2-.1-.4-.1-.6s-.1-.4-.1-.6Z"/><path class="cls-8" d="M13.2,8.8h0v.2h.2V9.3h-.1V8.7h-.1v.2h0v.2Z"/><path class="cls-8" d="M12.5,9.4h-.1v.2h.1c.1-.1.1-.1.1-.2h-.1Z"/><polygon class="cls-8" points="12.6 9.6 12.6 9.6 12.6 9.6 12.6 9.6"/><path class="cls-8" d="M13,9.1h-.2v.2H13Z"/><path class="cls-8" d="M13.1,8.9h.1V8.9Z"/><path class="cls-8" d="M12.8,9.2a.1.1,0,0,1-.1.1h.1V9.2Z"/><path class="cls-8" d="M12.1,9.6h1.2c0-.2-.1-.4-.1-.6h0c0,.1.1.4.2.4h.1a.4.4,0,0,0-.1-.3h0c0-.1,0-.1-.1-.2h0c.1.1.1.1.1.2h.1v.2h.1l.2.2h.1a.4.4,0,0,1-.1-.3h-.1c0-.2,0-.3-.1-.4h0a.4.4,0,0,0-.1-.3l-.3-.2h-.4a.8.8,0,0,0,.2.4h0v.4h0a.4.4,0,0,0-.1.3c0,.1,0,.2-.2.3h0l-.3.2a.4.4,0,0,0-.3.2h0v.3Z"/><path class="cls-8" d="M12.2,9.7Z"/><path class="cls-8" d="M12.1,10H12v.2Z"/><path class="cls-8" d="M13.5,10.3h.1v-.2h0V9.8h0a.4.4,0,0,1-.1-.3v.1h-.2v.4h.1v.4Z"/><path class="cls-8" d="M13.3,10.3h0a.1.1,0,0,0,.1-.1h0V9.9h0V9.4h0v.2h-.1v.4h0v.2A.1.1,0,0,0,13.3,10.3Z"/><path class="cls-8" d="M13.1,10.4h0v-.2h0V10h0V9.5h0v.2h-.1v.3h0v.2C13,10.3,13,10.3,13.1,10.4Z"/><path class="cls-8" d="M12.8,10.4H13V10h0V9.6h-.1v.2h0c-.1,0-.1,0-.1-.1h0V10h.1Z"/><path class="cls-8" d="M12.5,10.1h0v.2h.2V9.8a.1.1,0,0,0-.1-.1h-.2a.3.3,0,0,0,.1.2h0Z"/><path class="cls-8" d="M12.3,10.3v.2h0c.1,0,.1-.1.1-.2h0V9.8h0v.2h-.2v.3h.1Z"/><path class="cls-8" d="M12.1,10.4h.2c0-.1-.1-.1-.1-.2h0V9.8H12v.2c0,.1,0,.1.1.1Z"/><path class="cls-8" d="M12,10.8h.1a.3.3,0,0,1,.1.2h.1v-.3H12v.4Z"/><path class="cls-8" d="M12.7,11.1c-.1-.1-.1-.1,0-.1h-.1a.5.5,0,0,0-.1-.3v-.2h-.2v.3h0c.1.1.1.3.2.4h.1a1,1,0,0,0,.1-.4Z"/><path class="cls-8" d="M12.9,11.5c0-.2,0-.3-.1-.4h0c0-.2,0-.3-.1-.4v-.2h-.2v.3h.1s-.1,0,0,.1h0v.4h.1Z"/><path class="cls-8" d="M13.3,12.3h0a.4.4,0,0,1-.1-.3h-.1V11h0v-.2h-.1v-.2h0v.3c.1.1.1.2.1.4h.1v.4h0v.4h0a.4.4,0,0,1,.1.3h.1v-.3Z"/><path class="cls-8" d="M13.5,12.6a1,1,0,0,1-.1-.4c0-.1,0-.2-.1-.2h0v-.2h0v-.6h0v-.7h0c0,.1,0,.1-.1.1h0a.3.3,0,0,1-.1-.2h0v.2h.1c-.1,0-.1.1,0,.2v.2a.4.4,0,0,0,.1.3h0a.4.4,0,0,0,.1.3h0v.3h0v.2h.1Z"/><path class="cls-8" d="M13.6,12.7h0v-.2h0V12h0v-.2h0v-.4h0a1.3,1.3,0,0,1,.1-.6h0a.1.1,0,0,1-.1.1h0a.1.1,0,0,1-.1-.1h0c0,.1,0,.2-.1.2h-.1v.6h0a.4.4,0,0,1,.1.3v.3h.1c-.1,0-.1,0,0,.2v.2c0,.2.1.3.1.4h.1Z"/><path class="cls-8" d="M14,10.1h0c-.1,0-.1-.3-.2-.4h0v.4h-.2v.6h0a1.3,1.3,0,0,0-.1.6h0v.5h0V12h0v.2h.1v.2h.1c.1,0,.1-.1.1-.2h0v-.2h.1v-.3H14V11h0v-.2h0a.4.4,0,0,1,.1-.3h0c0-.1,0-.1-.1-.1Zm-.2.8c0,.3-.1.5-.1.8v.7h0v-.7c0-.3.1-.5.1-.8s.1-.3.1-.5a.4.4,0,0,0-.1-.3V9.9h0v.2a.4.4,0,0,1,.1.3C13.9,10.6,13.8,10.7,13.8,10.9Z"/><path class="cls-4" d="M12.9,14h0Z"/><path class="cls-4" d="M13,13.9l-.2-.2h0c-.1,0-.2,0-.2.1a.4.4,0,0,0-.1-.3h-.2v.3H12c0,.1-.1.1-.1.2h0c0,.2.1.2.1.2h.5v-.2h0V14h.2A.2.2,0,0,0,13,14h0Zm-.7.2H12V14H12a.1.1,0,0,1,.1-.1h.2v.3Zm.2.1h-.1a.1.1,0,0,0-.1-.1v-.4h0a.4.4,0,0,1,.1-.3h.1a.4.4,0,0,1,.1.3h0C12.6,14,12.6,14.1,12.5,14.2ZM13,14l-.2.2h-.2v-.3H13Z"/><path class="cls-4" d="M12.7,13.8Z"/><path class="cls-4" d="M12.4,13.5v.7h0v-.7Z"/><path class="cls-4" d="M12,13.9h0Z"/><path class="cls-6" d="M12.6,13.8a.4.4,0,0,0-.1-.3h-.1a.4.4,0,0,0-.1.3h0v.4a.1.1,0,0,1,.1.1h.1c.1-.1.1-.2.1-.4Zm-.2.1v.3h0v-.7h0Z"/><path class="cls-6" d="M13,13.9h-.4v.3h.2L13,14h0Zm-.2-.1Zm.1.3Z"/><path class="cls-6" d="M12.3,13.8h-.2a.1.1,0,0,0-.1.1h-.1v.2h.3v-.3Zm-.3.1h0Z"/><path class="cls-5" d="M10.9,12.9l.7-.4a1.2,1.2,0,0,0,.4-1v-.2H10.9Zm.3-1.1h.5c0,.1-.1.1-.1,0h-.3c-.1,0-.1-.1-.1-.2Z"/><path class="cls-5" d="M10.6,12.9h0Z"/><path class="cls-5" d="M10.8,12.9h0Z"/><path class="cls-5" d="M10.4,12.9V11.3H9.3v.2h0a1.2,1.2,0,0,0,.4,1Zm-.8-.6h.1c0,.1-.1.1-.1,0h.5v.3c0,.1,0,.2-.1.2H9.6Z"/><path class="cls-5" d="M12,10.9V9.4H10.9v1.5Zm-.8-.9h.1c-.1,0-.1-.1-.1-.2Z"/><path class="cls-5" d="M10.4,9.4H9.3v1.5h1.1Zm-.3.9c0,.1,0,.2-.1.2h.1Z"/><path class="cls-4" d="M10,9.8h0c.1,0,.1-.1.1-.2V10H10Zm.1.5v.2H9.6c0-.1,0-.2.1-.1h.4Z"/><path class="cls-8" d="M10,9.8H9.7c-.1-.1-.1,0-.1.1H10V10H10Zm0,.5H9.9v-.2H10Z"/><path class="cls-4" d="M10,9.9H9.9v.2H10V10Zm0,.4H9.9v-.2h0V9.9H10Z"/><path class="cls-8" d="M10,9.9H9.9v.2h0v.2H10V10Z"/><path class="cls-8" d="M10.4,12.9h.5V11.3H12v-.4H10.9V9.4h-.5v1.5H9.3v.4h1.1Z"/><path class="cls-4" d="M9.8,12.3H10c.1,0,.1-.1.1-.2v-.3H9.6c0,.1.1.1.1,0h.1Zm-.2,0c0-.1,0-.1.1-.1h0c0,.1,0,.1.1.1H9.7a.1.1,0,0,1-.1.1h.5v.3c0,.1,0,.2-.1.2H9.6Z"/><path class="cls-8" d="M9.8,12.3H10c.1,0,.1-.1.1-.2v-.3H9.6a.1.1,0,0,0,.1-.1h.1c-.1,0-.1,0-.1-.1h0c-.1,0-.1,0-.1.1h.2Zm0-.3h0c.1,0,.1-.1.1-.2H10v.3H9.8Z"/><path class="cls-4" d="M9.9,12.1H10v-.3H9.9c0,.1,0,.2-.1.2h.1Zm0-.2H10v.3H9.9Z"/><path class="cls-8" d="M9.9,12.1H10v-.3H9.9Z"/><path class="cls-4" d="M11.3,12.3h.3c0,.1.1.1.1,0h-.5v.3C11.2,12.2,11.2,12.3,11.3,12.3Zm-.1-.5h.3a.1.1,0,0,0,.1-.1h0c.1,0,.1,0,.1.1h-.4c-.1,0-.1-.1-.1-.2Z"/><path class="cls-8" d="M11.3,12.3h.4c0-.1,0-.1-.1-.1h0a.1.1,0,0,1-.1.1h-.3v.3C11.2,12.2,11.2,12.3,11.3,12.3Zm0-.5h.1V12h-.1Z"/><path class="cls-4" d="M11.3,12.2h.1v-.2h-.1v.3Zm0-.4h0Z"/><path class="cls-8" d="M11.3,12.2h0v.3Z"/><path class="cls-4" d="M11.3,10.5h-.1v.3C11.2,10.4,11.2,10.5,11.3,10.5Zm-.1-.5h.4c.1-.1.1,0,.1.1h-.4V10Z"/><path class="cls-8" d="M11.3,10.5h.4c0-.1,0-.2-.1-.1h-.4v.5Zm0-.5h.1v.2h-.1Z"/><path class="cls-4" d="M11.3,10.4h.1v-.2h-.1v.3h0Zm0-.4h.1v.2h0v.2h-.1Z"/><path class="cls-8" d="M11.3,10.4h.1v-.2h0V9.9h-.1v.3h0Z"/><path class="cls-6" d="M9.3,7.8h0Z"/><path class="cls-8" d="M9.9,8.3h0v.3H10V8.2h.3l-.2-.2h0l.2.2h.2V7.9c0-.1-.1-.1-.1-.2H9.6c0,.1,0,.1.1.1h.2v.2h.1Z"/><path class="cls-6" d="M9.8,7.8H9.6c-.1,0-.1,0-.1-.1H9.4a.1.1,0,0,1-.1-.1H8.9c-.1,0-.2,0-.2.1v.2h.6a.1.1,0,0,1,.1.1h.3A.1.1,0,0,0,9.8,7.8Zm-.7-.3h0C9.2,7.4,9.1,7.5,9.1,7.5Z"/><path class="cls-4" d="M9.1,7.4h0S9.2,7.4,9.1,7.4Z"/><path class="cls-8" d="M9.5,7.5h0Z"/><path class="cls-8" d="M9.9,8.5Z"/><path class="cls-8" d="M10,8.4Z"/><path class="cls-8" d="M10.1,8.3Z"/><path class="cls-8" d="M10.1,8.3h.1V8.4h-.1v.2Z"/><path class="cls-8" d="M10.2,8.2h.1V8.4h-.1Z"/><path class="cls-8" d="M10.3,8.2Z"/><path class="cls-8" d="M10.5,8.5h0v.2h.1V8.6Z"/><path class="cls-8" d="M10.4,8.1h.1c.1,0,0-.1,0-.1h0a.4.4,0,0,0-.1-.3Z"/><path class="cls-8" d="M10.5,8.7h-.1c0,.1,0,.1.1.1Z"/><path class="cls-8" d="M10.4,8.7h-.1a.1.1,0,0,0,.1-.1Z"/><path class="cls-8" d="M10.1,8.6Z"/><path class="cls-8" d="M10,8.5h0c0,.1,0,.2.1.2V8.7H10Z"/><path class="cls-8" d="M9.9,8.7h0a.1.1,0,0,0,.1-.1H9.9Z"/><path class="cls-8" d="M9.9,8.7Z"/><path class="cls-8" d="M9.8,9h0V8.8H9.8Z"/><path class="cls-8" d="M9.8,8.9h0Z"/><path class="cls-8" d="M10.1,9H10V8.7h0V9Z"/><path class="cls-8" d="M10.2,9.1h0Z"/><path class="cls-8" d="M10.3,8.8h0Z"/><path class="cls-8" d="M10.6,9h-.1V8.8h-.1v.2h.1Z"/><path class="cls-8" d="M10.6,8.8h-.1v.3h0V8.9h0Z"/><path class="cls-8" d="M9.6,9.4h0l-.2.2h.2Z"/><path class="cls-8" d="M9.8,9h0a.1.1,0,0,0,.1-.1H9.8Z"/><path class="cls-8" d="M10,9.4h0V9H9.9v.2H10Z"/><path class="cls-8" d="M10.2,9.4h-.1v.2Z"/><path class="cls-8" d="M10.3,9.3h.1V9.1h-.2A.1.1,0,0,0,10.3,9.3Z"/><path class="cls-8" d="M10.5,9.1Z"/><path class="cls-8" d="M9.7,9.3Z"/><path class="cls-8" d="M10.1,9.4h0Z"/><path class="cls-8" d="M11.1,9.4Z"/><path class="cls-6" d="M12.2,7.8h0Z"/><path class="cls-8" d="M10.9,8.1h.4v.2h0a.4.4,0,0,0,.1-.3h.1c-.1,0-.1-.1-.1-.2h.2c.1,0,.1,0,.1-.1h.5a.1.1,0,0,1-.1-.1H11c0,.1-.1.1-.1.2v.2H11l.2-.2h0L11,8h-.1Z"/><path class="cls-6" d="M12.1,7.3H12a.1.1,0,0,1-.1.1h-.1a.1.1,0,0,1-.1.1h-.2a.1.1,0,0,0,.1.1h.3c0-.1,0-.1-.1-.1h.1a.1.1,0,0,1,.1-.1h.6V7.4h-.5Zm.1.1h0Z"/><path class="cls-4" d="M12.1,7.5Z"/><path class="cls-8" d="M11.9,7.4Z"/><path class="cls-8" d="M11.4,8.3Z"/><path class="cls-8" d="M11.4,8.5h0Z"/><path class="cls-8" d="M11.3,8.3h0Z"/><path class="cls-8" d="M11.2,8.1h-.1v.2h.1c-.1,0,0-.1,0-.2Z"/><path class="cls-8" d="M11,8.2h-.1v.2h0Z"/><path class="cls-8" d="M11,8.1Z"/><path class="cls-8" d="M10.8,8.8V8.6h-.1v.2Z"/><path class="cls-8" d="M10.9,8.4h0a.4.4,0,0,0-.1.3h.1Z"/><path class="cls-8" d="M10.8,8.7h0c.1,0,.1,0,.1-.1h-.1Z"/><path class="cls-8" d="M11,8.5h-.1c0,.1,0,.1.1.1h0Z"/><path class="cls-8" d="M11.1,8.7h0Z"/><path class="cls-8" d="M11.3,8.5h-.1v.2a.3.3,0,0,0,.1-.2h0Z"/><path class="cls-8" d="M11.4,8.7h-.1a.1.1,0,0,0,.1.1h0Z"/><path class="cls-8" d="M11.4,8.5Z"/><path class="cls-8" d="M11.5,8.8h-.1V9h0Z"/><path class="cls-8" d="M11.4,8.9Z"/><path class="cls-8" d="M11.3,9.2V9h0c0,.1,0,.1-.1.2h0C11.2,9.1,11.2,9.2,11.3,9.2Z"/><path class="cls-8" d="M11.2,9h0Z"/><path class="cls-8" d="M10.9,8.9Z"/><path class="cls-8" d="M10.7,9h.1V8.9h-.1V9Z"/><path class="cls-8" d="M10.7,9.1h0V8.8h-.1c-.1.1-.1.1,0,.2Z"/><path class="cls-8" d="M11.6,9.1h.3l-.2-.2h-.1Z"/><path class="cls-8" d="M11.5,9h-.1a.1.1,0,0,0,.1.1h0Z"/><path class="cls-8" d="M11.4,9.4h0V9.1h-.1v.2h.1Z"/><path class="cls-8" d="M11.2,9.4V9.2h0Z"/><path class="cls-8" d="M10.9,9.3H11a.1.1,0,0,0,.1-.1h-.2v.2Z"/><path class="cls-8" d="M10.7,9.3Z"/><path class="cls-8" d="M11.9,9.4h0Z"/><path class="cls-8" d="M11.3,9.4Z"/><path class="cls-8" d="M10.6,9.1h0Z"/></g></svg>