<svg xmlns="http://www.w3.org/2000/svg" viewBox="0 0 30 20"><defs><style>.cls-1{fill:#4560ac;}.cls-2{fill:#fee033;}.cls-3{fill:#b02328;}.cls-4{fill:#fed900;}.cls-5{fill:#fff;}.cls-6{fill:#3f5ea7;}.cls-7{fill:#a61e22;}.cls-8{fill:#121212;}.cls-9{fill:#010101;}</style></defs><title>sz</title><g id="Layer_28" data-name="Layer 28"><path class="cls-1" d="M0,17.5A2.5,2.5,0,0,0,2.6,20H27.4A2.5,2.5,0,0,0,30,17.5V16.4H0Z"/><path class="cls-1" d="M27.4,0H2.6A2.5,2.5,0,0,0,0,2.5V3.6H30V2.5A2.5,2.5,0,0,0,27.4,0Z"/><rect class="cls-2" y="15" width="30" height="1.43"/><rect class="cls-2" y="3.6" width="30" height="1.43"/><path class="cls-3" d="M0,15H30V5H0ZM3.1,9.8H8l.7-.7h.2l.6-.6H6.2V8.1H9.9A7.6,7.6,0,0,1,15,5.7,7.5,7.5,0,0,1,20.3,8h3.6l.8-.3,1.2.4-1.2.5-.8-.3H20.6l.5.6h1.6l.9-.3,1.2.4-1.2.4-.9-.3H21.4l.6.7h5.1c.2,0,.3.1.3.2s-.1.2-.3.2h-.4a1,1,0,0,1,.4.7l-.2-.2c0,.1.1.4.1.6l-.2-.3c.1.2,0,.5.1.6h-.2V12h-.2c0,.1-.1.3-.1.4v-.2a1.7,1.7,0,0,0-.3.6c-.2-.2-.7-.6-.8-.9s-.1.2-.3.3-.3-.7-.2-1h-.2a1.4,1.4,0,0,1,.6-1H22c-1.2,1.3-2.8,3.4-5.5,3.9l-.8.2H15c-3.2,0-5.5-2.6-7-4.1H5.5a1.3,1.3,0,0,1,.1.6c-.1,0-.1,0-.1-.1v.8c-.1.3-.2.3-.2.6h0c-.1.2-.7.3-.5.5l-.4-.2H4.2c-.3-.1-.2-.5-.5-.7s0,.1-.1.2a.9.9,0,0,0-.1-.5v.2c-.1-.3-.2-.3-.1-.5H3.1a1.4,1.4,0,0,1,.6-1H3.1L2.9,10Z"/><path class="cls-4" d="M3.1,10.2H4V10h.2c.1-.1.1-.1,0-.2l.6.2c.2,0,.5-.2.7,0H8L7.8,10,8,9.8H3.1l-.2.2Z"/><path class="cls-4" d="M22,10.2h3.1l.5-.4c-.2.4.1,0,.9.4h.6c.2,0,.3-.1.3-.2s-.1-.2-.3-.2H22l.2.2Z"/><path class="cls-5" d="M24.1,8.1a.2.2,0,0,1-.2.2h0l.8.3,1.2-.5-1.2-.4-.8.3h.2Z"/><path class="cls-4" d="M20.6,8.3h3.3a.2.2,0,0,0,.2-.2H20.3Z"/><path class="cls-4" d="M6.2,8H6.1v.2H9.5L9.9,8Z"/><path class="cls-5" d="M22.9,9h-.2l.9.3L24.8,9l-1.2-.4-.9.3h.2Z"/><path class="cls-4" d="M22.7,9.1H21.1l.3.2Z"/><path class="cls-4" d="M8.9,8.9H8.7Z"/><path class="cls-6" d="M25.6,9.8l-.5.4a1.4,1.4,0,0,0-.6,1h.2c-.1.3.1.7.2,1s.2-.1.3-.3.6.7.8.9a1.7,1.7,0,0,1,.3-.6v.2c0-.1.1-.3.1-.4h.2v-.4h.2c-.1-.1,0-.4-.1-.6l.2.3c0-.2-.1-.5-.1-.6l.2.2a1,1,0,0,0-.4-.7h-.2C25.7,9.8,25.4,10.2,25.6,9.8Zm-.4,1.5c-.1.2-.1.2-.4.4l.3-.4c.1-.2.1-.3.2-.3Zm.2.8v-.3c-.1-.1-.1-.2,0-.2s.1,0,.1.2S25.6,12,25.4,12.1Zm.5.3V12c-.1-.2-.2-.4-.1-.4s.1.1.2.3A.9.9,0,0,1,25.9,12.4Zm.1-1c-.1-.1-.1-.2,0-.2s.1.1.1.2l.2.3Zm0-.5h-.1c0-.1.1,0,.2.1H26Z"/><path class="cls-7" d="M25.3,11c-.1,0-.1.1-.2.3l-.3.4c.3-.2.3-.2.4-.4Z"/><path class="cls-7" d="M25.5,11.6c-.1,0-.1.1,0,.2v.3c.2-.1.2-.2.2-.3S25.5,11.6,25.5,11.6Z"/><path class="cls-7" d="M25.8,11.6c-.1,0,0,.2.1.4v.4a.9.9,0,0,0,.1-.5C25.9,11.7,25.9,11.6,25.8,11.6Z"/><path class="cls-7" d="M25.9,10.8h.2C26,10.8,25.9,10.7,25.9,10.8Z"/><path class="cls-7" d="M26,11.2c-.1,0-.1.1,0,.2l.3.3-.2-.3C26.1,11.3,26.1,11.2,26,11.2Z"/><path class="cls-6" d="M4.7,10.1l-.6-.2c.1.1.1.1,0,.2H3.9v.2H3.7a1.4,1.4,0,0,0-.6,1h.2c-.1.2,0,.2.1.5v-.2a.9.9,0,0,1,.1.5c.1-.1.1-.1.1-.2s.2.6.5.7h.1l.4.2c-.2-.2.4-.3.5-.5h0c0-.3.1-.3.2-.6v-.8c0,.1,0,.1.1.1a1.3,1.3,0,0,0-.1-.6H5.4C5.2,9.9,4.9,10.1,4.7,10.1ZM3.5,11.3l.3-.4c.1-.3.1-.5.2-.4s.1.1-.1.3S3.8,11.1,3.5,11.3Zm.6.1a.6.6,0,0,1-.2.5c0-.2.1-.3.1-.4s0-.4.1-.4S4.2,11.2,4.1,11.4Zm.4.4c0,.2-.1.3-.2.5s.1-.3.1-.4-.1-.4,0-.4S4.5,11.6,4.5,11.8Zm.2-.5c-.2-.2-.2-.2-.1-.3s.1.1.2.3l.3.4Zm-.1-.6-.2-.3c.1-.1.2.1.4.3l.4.3A1.1,1.1,0,0,1,4.6,10.7Z"/><path class="cls-7" d="M4,10.5c-.1-.1-.1.1-.2.4l-.3.4c.3-.2.3-.2.4-.5S4.1,10.5,4,10.5Z"/><path class="cls-7" d="M4.1,11.1c-.1,0-.1.2-.1.4s-.1.2-.1.4a.6.6,0,0,0,.2-.5Q4.3,11.1,4.1,11.1Z"/><path class="cls-7" d="M4.4,11.5c-.1,0,0,.2,0,.4s-.1.2-.1.4.2-.3.2-.5S4.5,11.5,4.4,11.5Z"/><path class="cls-7" d="M4.4,10.4l.2.3a1.1,1.1,0,0,0,.6.3l-.4-.3C4.6,10.5,4.5,10.3,4.4,10.4Z"/><path class="cls-7" d="M4.6,11c-.1.1-.1.1.1.3l.4.4-.3-.4C4.7,11.1,4.7,11,4.6,11Z"/><path class="cls-5" d="M15.7,14.3h0Z"/><path class="cls-5" d="M14.5,7.2c.4.4.1.6.5.6s.2.5.5.5,0,1,.2,1.3.5.1.5.4-.7.2-.7,1-.6.5-.6.8,1.1.4,1.1.7-1.2.2-1.3.4,1.7.5,1.8,1.2h0c2.7-.5,4.3-2.6,5.5-3.9l.2-.2L22,9.8l-.6-.7-.3-.2-.5-.6L20.3,8A7.5,7.5,0,0,0,15,5.7S14,6.6,14.5,7.2Zm1.6,4.3h-.3V10.4h.3Zm.7,0h-.3V10.4h.3Zm.7,0h-.3V10.4h.3Zm.7,0h-.3V10.4h.3Zm.7,0h-.3V10.4h.3Zm.7,0h-.3V10.4h.3Zm-.7-1.9h-.3V8.5h.3ZM16.5,8.5h.3V9.6h-.3Zm.7,0h.3V9.6h-.3Zm.7,0h.3V9.6h-.3ZM15.8,9.6V8.5h.3V9.6Zm3.8,0h-.3V8.5h.3Z"/><path class="cls-5" d="M15.5,14.3h0Z"/><path class="cls-8" d="M8,10.2c1.5,1.5,3.8,4.1,7,4.1h.7l.8-.2h0c-.1-.7-1.8-.9-1.8-1.2s1.3-.2,1.3-.4-1.1-.4-1.1-.7.6-.3.6-.8.7-.8.7-1-.2,0-.5-.4.1-1.3-.2-1.3-.1-.4-.5-.5-.1-.2-.5-.6.5-1.5.5-1.5A7.6,7.6,0,0,0,9.9,8l-.4.3-.6.6-.2.2L8,9.8l-.2.2Zm3.2-1.7h.3V9.6h-.3Zm.6-.8-.2.2a2.1,2.1,0,0,1,1.1-1.4c-.2.4.3-.2,1.2.5a2,2,0,0,1,.4.8l-.5-.2a1.6,1.6,0,0,1,.3.8c-.1-.1-.2-.1-.2-.2a.4.4,0,0,0,.1.3h.3V9.6H14v-1h-.2c.1.2-.3.6-.1.8h-.1v.3h-.3V9.1l-.4-.3h0v.8h-.3V8.8l-.2-.3v.2h-.1v1h-.3V8.5h.2l-.2-.3c0,.1,0,.1-.1.2A.8.8,0,0,1,11.8,7.7Zm-1.3.8h.3V9.6h-.3Zm0,3V10.4h.3v1.1Zm.7,0V10.4h.3v1.1Zm.7,0V10.4h.3v1.1Zm.7,0V10.4h.3v1.1Zm.7,0V10.4h.3v1.1Zm.7,0V10.4h.3v1.1Z"/><rect class="cls-5" x="10.5" y="8.5" width="0.3" height="1.14"/><rect class="cls-5" x="10.5" y="10.4" width="0.3" height="1.14"/><rect class="cls-5" x="11.2" y="8.5" width="0.3" height="1.14"/><rect class="cls-5" x="11.2" y="10.4" width="0.3" height="1.14"/><path class="cls-5" d="M11.9,8.5V9.6h.3v-1h-.3Z"/><rect class="cls-5" x="11.9" y="10.4" width="0.3" height="1.14"/><path class="cls-5" d="M12.9,9l-.3-.2v.8h.3V9Z"/><rect class="cls-5" x="12.6" y="10.4" width="0.3" height="1.14"/><path class="cls-5" d="M13.3,9.1v.5h.3V9.3Z"/><rect class="cls-5" x="13.3" y="10.4" width="0.3" height="1.14"/><path class="cls-5" d="M14,8.6v1h.3V8.5H14v.2Z"/><rect class="cls-5" x="14" y="10.4" width="0.3" height="1.14"/><rect class="cls-9" x="15.8" y="8.5" width="0.3" height="1.14"/><rect class="cls-9" x="15.8" y="10.4" width="0.3" height="1.14"/><rect class="cls-9" x="16.5" y="8.5" width="0.3" height="1.14"/><rect class="cls-9" x="16.5" y="10.4" width="0.3" height="1.14"/><rect class="cls-9" x="17.2" y="8.5" width="0.3" height="1.14"/><rect class="cls-9" x="17.2" y="10.4" width="0.3" height="1.14"/><rect class="cls-9" x="17.9" y="8.5" width="0.3" height="1.14"/><rect class="cls-9" x="17.9" y="10.4" width="0.3" height="1.14"/><rect class="cls-9" x="18.6" y="8.5" width="0.3" height="1.14"/><rect class="cls-9" x="18.6" y="10.4" width="0.3" height="1.14"/><rect class="cls-9" x="19.3" y="8.5" width="0.3" height="1.14"/><rect class="cls-9" x="19.3" y="10.4" width="0.3" height="1.14"/><path class="cls-6" d="M11.9,8.2l.2.3h.2V8.5l.2.3.3.2V8.8h0l.4.3.3.2h.1c-.2-.2.2-.6.1-.8H14V8.5a.4.4,0,0,1-.1-.3c0,.1.1.1.2.2a1.6,1.6,0,0,0-.3-.8l.5.2a2,2,0,0,0-.4-.8c-.9-.7-1.4-.1-1.2-.5a2.1,2.1,0,0,0-1.1,1.4l.2-.2a.8.8,0,0,0,0,.7C11.9,8.3,11.9,8.3,11.9,8.2Zm1.3.6q-.1-.3,0-.3l.2.3c0,.2.1.2.2.4Zm.8-.6c-.3,0-.4,0-.6-.2l-.2-.3c.1-.1.2.1.4.3ZM12.9,7.1c.1-.1.2,0,.5.2l.5.2h-.7C12.9,7.2,12.8,7.2,12.9,7.1Zm-.2.8c.1,0,.2.1.2.4a.6.6,0,0,1-.2.5c0-.2.1-.3,0-.4S12.6,7.9,12.7,7.9Zm-.4-.1c0-.3,0-.5.1-.5s.1.1.1.4a1.1,1.1,0,0,1-.3.6C12.2,8.1,12.3,8,12.3,7.8Z"/><path class="cls-7" d="M12.2,8.3a1.1,1.1,0,0,0,.3-.6c0-.3,0-.4-.1-.4s-.1.2-.1.5S12.2,8.1,12.2,8.3Z"/><path class="cls-7" d="M12.7,8.4c.1.1,0,.2,0,.4a.6.6,0,0,0,.2-.5c0-.3-.1-.4-.2-.4S12.7,8.1,12.7,8.4Z"/><path class="cls-7" d="M13.4,8.8l-.2-.3q-.1,0,0,.3l.4.4C13.5,9,13.4,9,13.4,8.8Z"/><path class="cls-7" d="M13.2,7.4h.7l-.5-.2c-.3-.2-.4-.3-.5-.2S12.9,7.2,13.2,7.4Z"/><path class="cls-7" d="M13.2,7.7l.2.3c.2.2.3.2.6.2L13.6,8C13.4,7.8,13.3,7.6,13.2,7.7Z"/></g></svg>