<svg id="Layer_100" data-name="Layer 100" xmlns="http://www.w3.org/2000/svg" viewBox="0 0 30 20"><defs><style>.cls-1{fill:#fafafa;}.cls-2{fill:#069547;}.cls-3{fill:#283890;}.cls-4{fill:#010101;}.cls-5{fill:#fff;}</style></defs><title>ls</title><path class="cls-1" d="M0,14H30V6H0Zm12.6-2.2,2.1-2.7V8.3h-.4l.5-.5V6.5h.4V7.8l.5.5h-.4v.8l2.1,2.7h.3l.5,1.1a5.7,5.7,0,0,1-3.2.8,5.5,5.5,0,0,1-3.2-.8l.5-1.1Z"/><path class="cls-2" d="M0,17.5A2.5,2.5,0,0,0,2.6,20H27.5A2.5,2.5,0,0,0,30,17.5V14H0Z"/><path class="cls-3" d="M27.5,0H2.6A2.5,2.5,0,0,0,0,2.5V6H30V2.5A2.5,2.5,0,0,0,27.5,0Z"/><path class="cls-4" d="M15,13.6a5.7,5.7,0,0,0,3.2-.8l-.5-1.1h-.3L15.3,9.1V8.3h.4l-.5-.5V6.5h-.4V7.8l-.5.5h.4v.8l-2.1,2.7h-.3l-.5,1.1A5.5,5.5,0,0,0,15,13.6Zm2.8-.9h-.3v-.2l.2-.2Zm-.3-.6h0l-.2.3-.2-.3Zm-.3.8h-.6l.4-.3Zm-.4-.6v.2l-.4.2-.2-.2Zm-.4.8h-.5l-.2-.2.5-.2Zm-.4-.6v.2l-.5.2v-.3Zm-.7.4.2.3h-.6l-.2-.2Zm-.2-.3h.1l-.6.2-.2-.4Zm-.6.6h-.6V13h.4Zm-.5-.7.2.2h-.4l-.2-.4Zm-.4.6h-.5v-.2h.4Zm-.4-.8v.2H13l-.2-.4Zm-.5.3v.3l-.3-.2Zm-.2-.4v.3h-.3Z"/><path class="cls-5" d="M12.6,12.5v-.3l-.2.3Z"/><polygon class="cls-5" points="12.7 12.9 12.7 12.6 12.4 12.7 12.7 12.9"/><polygon class="cls-5" points="13.3 12.5 13.2 12.3 12.8 12.2 13 12.6 13.3 12.5"/><polygon class="cls-5" points="13.1 13 13.6 13.1 13.4 12.7 13.1 12.8 13.1 13"/><polygon class="cls-5" points="14.2 12.7 14 12.5 13.6 12.4 13.8 12.8 14.2 12.7"/><polygon class="cls-5" points="13.9 13.2 14.5 13.2 14.3 12.9 13.9 13 13.9 13.2"/><polygon class="cls-5" points="15.2 12.7 15.1 12.6 14.4 12.5 14.6 12.9 15.2 12.7"/><polygon class="cls-5" points="14.9 13.3 15.5 13.2 15.3 12.9 14.7 13.1 14.9 13.3"/><polygon class="cls-5" points="16.1 12.7 16 12.5 15.5 12.6 15.6 12.9 16.1 12.7"/><polygon class="cls-5" points="15.9 13.2 16.4 13.1 16.2 12.8 15.7 13 15.9 13.2"/><polygon class="cls-5" points="16.9 12.5 16.8 12.3 16.3 12.5 16.5 12.7 16.9 12.5"/><polygon class="cls-5" points="16.7 13 17.2 12.9 17 12.6 16.6 12.9 16.7 13"/><polygon class="cls-5" points="17.5 12.2 17.5 12.1 17.1 12.2 17.3 12.5 17.5 12.2"/><polygon class="cls-5" points="17.5 12.8 17.8 12.7 17.6 12.4 17.4 12.6 17.5 12.8"/></svg>