<svg xmlns="http://www.w3.org/2000/svg" viewBox="0 0 30 20"><defs><style>.cls-1{fill:#fff;}.cls-2{fill:none;}.cls-3{fill:#e23f29;}.cls-4{fill:#fbb516;}.cls-5{fill:#087d5a;}.cls-6{fill:#2b3382;}.cls-7{fill:#121212;}</style></defs><title>za</title><g id="Layer_31" data-name="Layer 31"><polygon class="cls-1" points="3.6 20 6.1 20 16.1 13.3 30 13.3 30 12 15.6 12 3.6 20"/><polygon class="cls-1" points="6.1 0 3.6 0 15.6 8 30 8 30 6.7 16.1 6.7 6.1 0"/><polygon class="cls-2" points="16.1 6.7 6.1 0 3.6 0 15.5 8 30 8 30 6.7 16.1 6.7"/><polygon class="cls-2" points="3.6 20 6.1 20 16.1 13.3 30 13.3 30 12 15.6 12 3.6 20"/><path class="cls-3" d="M30,6.7V2.5A2.6,2.6,0,0,0,27.4,0H6.1l10,6.7Z"/><path class="cls-4" d="M0,2.4H0V4.1L8.9,10,0,15.9v1.6H0L11.3,10Z"/><path class="cls-5" d="M3.6,0H2.5A2.6,2.6,0,0,0,0,2.4L11.3,10,0,17.5A2.5,2.5,0,0,0,2.5,20H3.6l12-8H30V8H15.5Z"/><path class="cls-6" d="M6.1,20H27.4A2.6,2.6,0,0,0,30,17.5V13.3H16.1Z"/><polygon class="cls-7" points="0 4.1 0 15.9 8.9 10 0 4.1"/></g></svg>