<svg id="Flags" xmlns="http://www.w3.org/2000/svg" viewBox="0 0 30 20"><defs><style>.cls-1{fill:#257cbb;}.cls-2{fill:#fdd533;}.cls-3{fill:#d32a40;}</style></defs><title>Artboard 28</title><path class="cls-1" d="M15,20H27.4A2.5,2.5,0,0,0,30,17.5V13H15Z"/><path class="cls-1" d="M0,17.5A2.5,2.5,0,0,0,2.6,20H9.1V13H0Z"/><path class="cls-1" d="M0,2.5V7H9.1V0H2.6A2.5,2.5,0,0,0,0,2.5Z"/><path class="cls-1" d="M27.4,0H15V7H30V2.5A2.5,2.5,0,0,0,27.4,0Z"/><polygon class="cls-2" points="9.1 7 0 7 0 8.8 10.8 8.8 10.8 7 10.8 0 9.1 0 9.1 7"/><polygon class="cls-2" points="13.2 13 13.2 20 15 20 15 13 30 13 30 11.2 13.2 11.2 13.2 13"/><polygon class="cls-2" points="0 13 9.1 13 9.1 20 10.8 20 10.8 13 10.8 11.2 0 11.2 0 13"/><polygon class="cls-2" points="15 7 15 0 13.2 0 13.2 7 13.2 8.8 30 8.8 30 7 15 7"/><polygon class="cls-3" points="13.2 8.8 13.2 7 13.2 0 10.8 0 10.8 7 10.8 8.8 0 8.8 0 11.2 10.8 11.2 10.8 13 10.8 20 13.2 20 13.2 13 13.2 11.2 30 11.2 30 8.8 13.2 8.8"/></svg>