<svg xmlns="http://www.w3.org/2000/svg" viewBox="0 0 30 20"><defs><style>.cls-1{fill:#fafafa;}.cls-2{fill:#ce2931;}.cls-3{fill:#019e60;}.cls-4{fill:#121212;}</style></defs><title>sy</title><g id="Layer_45" data-name="Layer 45"><path class="cls-1" d="M0,13.3H30V6.7H0Zm20.5-4L21,7.8l.5,1.5h1.6l-1.3,1,.5,1.5-1.3-1-1.2,1,.4-1.5L19,9.3ZM9,7.8l.5,1.5H11l-1.2,1,.4,1.5L9,10.8l-1.3,1,.5-1.5-1.3-1H8.5Z"/><path class="cls-2" d="M27.5,0H2.5A2.5,2.5,0,0,0,0,2.5V6.7H30V2.5A2.5,2.5,0,0,0,27.5,0Z"/><polygon class="cls-3" points="19.8 11.8 21 10.8 22.3 11.8 21.8 10.3 23.1 9.3 21.5 9.3 21 7.8 20.5 9.3 19 9.3 20.2 10.3 19.8 11.8"/><polygon class="cls-3" points="8.2 10.3 7.7 11.8 9 10.8 10.2 11.8 9.8 10.3 11 9.3 9.5 9.3 9 7.8 8.5 9.3 6.9 9.3 8.2 10.3"/><path class="cls-4" d="M0,17.5A2.5,2.5,0,0,0,2.5,20h25A2.5,2.5,0,0,0,30,17.5V13.3H0Z"/></g></svg>