<svg xmlns="http://www.w3.org/2000/svg" viewBox="0 0 30 20"><defs><style>.cls-1{fill:#fff;}.cls-2{fill:#dc2727;}.cls-3{fill:#ffd933;}.cls-4{fill:#23449c;}</style></defs><title>my</title><g id="Layer_90" data-name="Layer 90"><rect class="cls-1" x="17.5" y="4.3" width="12.5" height="1.43"/><path class="cls-1" d="M2.6,20H27.5a2.6,2.6,0,0,0,2.2-1.4H.3A2.6,2.6,0,0,0,2.6,20Z"/><rect class="cls-1" y="15.7" width="30" height="1.43"/><path class="cls-1" d="M17.5,2.8H30V2.5a2,2,0,0,0-.3-1.1H17.5Z"/><rect class="cls-1" x="17.5" y="10" width="12.5" height="1.43"/><rect class="cls-1" y="12.9" width="30" height="1.43"/><rect class="cls-1" x="17.5" y="7.1" width="12.5" height="1.43"/><path class="cls-2" d="M27.5,0h-10V1.4H29.7A2.6,2.6,0,0,0,27.5,0Z"/><rect class="cls-2" x="17.5" y="2.8" width="12.5" height="1.43"/><rect class="cls-2" x="17.5" y="5.7" width="12.5" height="1.43"/><rect class="cls-2" x="17.5" y="8.6" width="12.5" height="1.43"/><path class="cls-3" d="M6.5,9.5a3.8,3.8,0,0,1,0-7.6,4.7,4.7,0,0,1,1.7.4,3.9,3.9,0,0,0-2.6-.9A4.3,4.3,0,0,0,1.3,5.7,4.3,4.3,0,0,0,5.6,10a3.9,3.9,0,0,0,2.6-.9A3.3,3.3,0,0,1,6.5,9.5Z"/><path class="cls-4" d="M2.6,0A2.5,2.5,0,0,0,0,2.5v8.9H17.5V0Zm3,10A4.3,4.3,0,0,1,1.3,5.7,4.3,4.3,0,0,1,5.6,1.4a3.9,3.9,0,0,1,2.6.9,4.7,4.7,0,0,0-1.7-.4,3.8,3.8,0,0,0,0,7.6,3.3,3.3,0,0,0,1.7-.4A3.9,3.9,0,0,1,5.6,10Zm8-3.5-2.3-.2,1.5,1.6L10.9,6.8l.7,2.1L10.3,7.1,10,9.3,9.7,7.7V7.1L8.4,8.9l.7-2.1-2,1.1L8.7,6.3l-2.3.2,2.1-.8L6.4,4.9l2.3.2L7.1,3.5l2,1.1L8.4,2.5,9.7,4.3V3.7L10,2.1l.3,2.2,1.3-1.8-.7,2.1,2-1.1L11.3,5.1l2.3-.2-2.2.8Z"/><path class="cls-2" d="M0,17.5a2,2,0,0,0,.3,1.1H29.7a2,2,0,0,0,.3-1.1v-.3H0Z"/><rect class="cls-2" y="14.3" width="30" height="1.43"/><polygon class="cls-2" points="0 11.4 0 12.9 30 12.9 30 11.4 17.5 11.4 0 11.4"/><polygon class="cls-3" points="9.7 4.3 8.4 2.5 9.1 4.6 7.1 3.5 8.7 5.1 6.4 4.9 8.5 5.7 6.4 6.5 8.7 6.3 7.1 7.9 9.1 6.8 8.4 8.9 9.6 7.1 9.7 7.7 10 9.3 10.3 7.1 11.6 8.9 10.9 6.8 12.8 7.9 11.3 6.3 13.6 6.5 11.4 5.7 13.6 4.9 11.3 5.1 12.9 3.5 10.9 4.6 11.6 2.5 10.3 4.3 10 2.1 9.7 3.7 9.7 4.3"/></g></svg>