<svg xmlns="http://www.w3.org/2000/svg" viewBox="0 0 30 20"><defs><style>.cls-1{fill:#fafafa;}.cls-2{fill:#fff;}.cls-3{fill:#ee2f43;}</style></defs><title>sg</title><g id="Layer_47" data-name="Layer 47"><path class="cls-1" d="M0,17.5A2.5,2.5,0,0,0,2.6,20H27.4A2.5,2.5,0,0,0,30,17.5V10H0Z"/><path class="cls-2" d="M4.2,5A4,4,0,0,1,6.6,1.3H6A3.7,3.7,0,0,0,2.3,5,3.7,3.7,0,0,0,6,8.7h.6A4,4,0,0,1,4.2,5Z"/><path class="cls-3" d="M27.4,0H2.6A2.5,2.5,0,0,0,0,2.5V10H30V2.5A2.5,2.5,0,0,0,27.4,0ZM11.1,5l-.6-.4L10,5l.2-.7-.6-.4h.7l.2-.7.2.7h.7l-.5.4ZM7.7,7.5,7.1,7l-.5.5.2-.7-.6-.4h.7l.2-.7.3.7H8l-.5.5ZM5.5,3.9h.7l.2-.7.2.7h.7l-.6.4.2.7-.5-.4L5.8,5,6,4.3Zm2.4-.4.2-.7-.6-.4h.7l.2-.7.2.7h.7l-.5.4.2.7L8.4,3Zm2.4,4L9.7,7l-.5.5.2-.7-.6-.4h.7l.2-.7.2.7h.7l-.5.5ZM6,8.7A3.7,3.7,0,0,1,2.3,5,3.7,3.7,0,0,1,6,1.2h.6a4,4,0,0,0,0,7.3Z"/><polygon class="cls-2" points="6.4 4.6 6.9 5 6.7 4.3 7.3 3.9 6.6 3.9 6.4 3.2 6.2 3.9 5.5 3.9 6 4.3 5.8 5 6.4 4.6"/><polygon class="cls-2" points="7.5 2.4 8.1 2.8 7.9 3.5 8.4 3 9 3.5 8.8 2.8 9.3 2.4 8.6 2.4 8.4 1.7 8.2 2.4 7.5 2.4"/><polygon class="cls-2" points="10.5 3.2 10.3 3.9 9.6 3.9 10.2 4.3 10 5 10.5 4.6 11.1 5 10.9 4.3 11.4 3.9 10.7 3.9 10.5 3.2"/><polygon class="cls-2" points="6.6 7.5 7.1 7 7.7 7.5 7.5 6.8 8 6.3 7.4 6.4 7.1 5.7 6.9 6.4 6.2 6.4 6.8 6.8 6.6 7.5"/><polygon class="cls-2" points="9.9 6.4 9.7 5.7 9.5 6.4 8.8 6.4 9.4 6.8 9.2 7.5 9.7 7 10.3 7.5 10.1 6.8 10.6 6.3 9.9 6.4"/></g></svg>