<svg xmlns="http://www.w3.org/2000/svg" viewBox="0 0 30 20"><defs><style>.cls-1{fill:#121212;}.cls-2{fill:#feeb33;}.cls-3{fill:#dd422c;}.cls-4{fill:#fffefe;}.cls-5{fill:#de3726;}.cls-6{fill:#fee600;}.cls-7{fill:#010101;}.cls-8{fill:#9ca69c;}.cls-9{fill:#fff;}</style></defs><title>ug</title><g id="Layer_14" data-name="Layer 14"><path class="cls-1" d="M27.5,0H2.5A2.5,2.5,0,0,0,0,2.5v.8H30V2.5A2.5,2.5,0,0,0,27.5,0Z"/><path class="cls-1" d="M15,13.1A3.1,3.1,0,0,1,11.9,10H0v3.3H30V10H18.1A3.1,3.1,0,0,1,15,13.1Z"/><rect class="cls-2" y="3.3" width="30" height="3.35"/><path class="cls-3" d="M0,10H11.9a3.1,3.1,0,0,1,6.2,0H30V6.7H0Z"/><rect class="cls-2" y="13.3" width="30" height="3.35"/><path class="cls-3" d="M0,17.5A2.5,2.5,0,0,0,2.5,20h25A2.5,2.5,0,0,0,30,17.5v-.8H0Z"/><path class="cls-4" d="M15,13.1A3.1,3.1,0,1,0,11.9,10,3.1,3.1,0,0,0,15,13.1Zm-.6-4.6h0c-.2-.1,0-.3,0-.3h-.5l.5-.2a.5.5,0,0,1,0-.4h0l-.2-.4h.5v.4h0V7.1a1,1,0,0,1,.6.2h0c.2.2.2.3.2.4h-.3a.9.9,0,0,1-.3.6,1.6,1.6,0,0,0-.1.9H15l1.2.5h0c1.5.5.5,1.9.1,2l.2-.3c-.2.2-.3.1-.3.1h.1c-.3.2-.3.1-.3.1h0a.7.7,0,0,0,.3-.8s.1.3-.1.4v-.3h0a1.2,1.2,0,0,0-.4-.4l.3.3h-.6c0,.1.2.4.2.5a.1.1,0,0,1,0,.2h-.5c-.1.1,0,.9,0,.9s.4,0,.5.2a1.5,1.5,0,0,0-1.2.3l.2-.3h-.4l.7-.2c.1,0,0-.9,0-.9h-.5c-.3,0-.3.4-.4.4v-.3s-.1.1,0,.4a.5.5,0,0,1-.1-.3l-.2.3c0-.6.3-.6.4-.6H15v-.5l-.3-.3a1.1,1.1,0,0,1-.5-.4h-.1C13.4,9.4,14.4,8.5,14.4,8.5Z"/><path class="cls-4" d="M15.1,7.6Z"/><path class="cls-5" d="M14.6,7.5V7.1h-.5l.2.4h.2Z"/><path class="cls-6" d="M15.1,7.6h.1V7.3h0a1,1,0,0,0-.6-.2v.4Z"/><path class="cls-5" d="M15.2,7.6h-.1v.2h.3c0-.1,0-.2-.2-.4h0Z"/><path class="cls-7" d="M14.2,10.2a1.1,1.1,0,0,0,.5.4l.3.3v.5h-.9c-.1,0-.4,0-.4.6l.2-.3a.5.5,0,0,0,.1.3c-.1-.3,0-.4,0-.4v.3c.1,0,.1-.4.4-.4H15s.1.9,0,.9l-.7.2h.4l-.2.3a1.5,1.5,0,0,1,1.2-.3c-.1-.2-.5-.2-.5-.2s-.1-.8,0-.9h.5a.1.1,0,0,0,0-.2c0-.1-.2-.4-.2-.5h.6l-.3-.3a.5.5,0,0,0-.5-.3.8.8,0,0,1-.6-.9h.1a1.6,1.6,0,0,1,.1-.9.9.9,0,0,0,.3-.6h0V7.6h-.7a.5.5,0,0,0,0,.4l-.5.2h.5c.1,0,.2,0,.2.1l-.2.2h0s-1,.9-.3,1.7Zm.6-2h-.1V8c.2,0,.1-.3.1-.3S15,8.2,14.8,8.2Zm-.3-.3h0Zm.2.5c-.1.3-.3.6-.1,1h-.2c0,.1-.1,0-.1,0h-.1C13.9,9.2,14.7,8.4,14.7,8.4Zm.7,3h-.2V11C15.4,11.1,15.5,11.4,15.4,11.4Zm-.2-.9h-.3c-.1-.1,0-.3,0-.3S15,10.4,15.2,10.5Z"/><path class="cls-8" d="M14.3,9.7s.1.1.1,0h.2c-.2-.4,0-.7.1-1s-.8.8-.5,1.4Z"/><path class="cls-8" d="M14.9,7.7s.1.3-.1.3v.2h.1C15,8.2,15.2,7.8,14.9,7.7Z"/><path class="cls-9" d="M14.7,7.9h0Z"/><path class="cls-5" d="M14.6,8.3c0-.1-.1-.1-.2-.1h0s-.2.2,0,.3h0Z"/><path class="cls-8" d="M14.9,10.5h.3c-.2-.1-.2-.2-.3-.3S14.8,10.4,14.9,10.5Z"/><path class="cls-9" d="M15.2,11.4h.2c.1,0,0-.3-.2-.4Z"/><path class="cls-8" d="M15.7,10.2h0Z"/><path class="cls-8" d="M15.8,10h0Z"/><path class="cls-8" d="M14.7,9.4a.8.8,0,0,0,.6.9.5.5,0,0,1,.5.3,1.2,1.2,0,0,1,.4.4h0c-.1-.3-.7-.6-.6-.6h0l-.3-.2h-.2c-.1-.1-.2-.4.1-.3l.4.2h.6L15,9.3h-.3Z"/><path class="cls-5" d="M16,9.9h.1l.2.3-.4-.2h0v.2h-.3a.1.1,0,0,1,.1.1h-.2c-.1,0,.5.3.6.6v.3c.2-.1.1-.4.1-.4a.7.7,0,0,1-.3.8h0s0,.1.3-.1h-.1s.1.1.3-.1l-.2.3c.4-.1,1.4-1.5-.1-2H16Z"/><path class="cls-9" d="M15.8,10.3a.1.1,0,0,0-.1-.1H16V10h0l.4.2-.2-.3h-.5l-.4-.2c-.3-.1-.2.2-.1.3h.2l.3.2h.2Z"/><path class="cls-7" d="M13.9,8.2Z"/></g></svg>