<svg id="Flags" xmlns="http://www.w3.org/2000/svg" viewBox="0 0 30 20"><defs><style>.cls-1{fill:#5fbb46;}.cls-2{fill:#fafafa;}.cls-3{fill:#e42e4c;}.cls-4{fill:#d8b628;}</style></defs><title>Artboard 68</title><path class="cls-1" d="M0,17.5A2.5,2.5,0,0,0,2.6,20H27.4A2.5,2.5,0,0,0,30,17.5V14.3H0Z"/><path class="cls-2" d="M0,14.3H30V5.7H0Zm16.5-.9a2.1,2.1,0,0,0-1.5-.5c-.8,0-1.3.2-1.5.5l-.3-.2c.2-.2.5-.3.6-.6s-.1-.3-.1-.4h0c0,.1.3.3.7.3a.7.7,0,0,0,.6-.4s.2.4.5.4.7-.2.7-.3h0c0,.1-.1.2,0,.4s.3.4.5.6Zm2.8-2.7-.4.2.2.5-.4-.3-.4.3v-.5l-.3-.2h.4l.2-.5v.5ZM18,8.8l.2-.4v.4h.5l-.4.3.2.5-.4-.3-.4.3V9.1l-.3-.3ZM16.7,7.5V7.1l.2.4h.5l-.4.3v.4l-.4-.3-.3.3V7.8l-.4-.3ZM14.9,7V7h.5l-.4.3.2.4L15,7.5l-.4.2.2-.4L14.4,7ZM15,8.4a1.2,1.2,0,0,1,1,.7l-.8.8v1.6a.9.9,0,0,0,1.1.1,1.7,1.7,0,0,0,1.3.8,1,1,0,0,1-1.3-.2A1.1,1.1,0,0,1,15,12h0a1.2,1.2,0,0,1-1.3.2,1,1,0,0,1-1.3.2,1.8,1.8,0,0,0,1.3-.8.7.7,0,0,0,1-.1V9.9l-.8-.8A1.2,1.2,0,0,1,15,8.4Zm-2-.9.2-.4v.4h.5l-.4.3v.4l-.3-.3-.4.3V7.8l-.4-.3ZM11.7,8.8V8.4l.2.4h.4l-.3.3v.5l-.4-.3-.4.3.2-.5-.4-.3Zm-.4,1.4.2.5h.4l-.3.2v.5l-.4-.3-.4.3.2-.5-.4-.2h.5Z"/><path class="cls-2" d="M15,9.6a1.8,1.8,0,0,1,.6-.5.7.7,0,0,0-.6-.3,1.1,1.1,0,0,0-.7.3A1.8,1.8,0,0,1,15,9.6Z"/><path class="cls-3" d="M27.4,0H2.6A2.5,2.5,0,0,0,0,2.5V5.7H30V2.5A2.5,2.5,0,0,0,27.4,0Z"/><path class="cls-4" d="M14.7,11.5a.7.7,0,0,1-1,.1,1.8,1.8,0,0,1-1.3.8,1,1,0,0,0,1.3-.2A1.2,1.2,0,0,0,15,12h0a1.1,1.1,0,0,0,1.3.2,1,1,0,0,0,1.3.2,1.7,1.7,0,0,1-1.3-.8.9.9,0,0,1-1.1-.1V9.9l.8-.8a1.2,1.2,0,0,0-1-.7,1.2,1.2,0,0,0-1.1.7l.8.8ZM15,8.8a.7.7,0,0,1,.6.3,1.8,1.8,0,0,0-.6.5,1.8,1.8,0,0,0-.7-.5A1.1,1.1,0,0,1,15,8.8Z"/><path class="cls-4" d="M16.2,12.6c-.1-.2,0-.3,0-.4s-.2.3-.7.3-.5-.4-.5-.4a.7.7,0,0,1-.6.4c-.4,0-.7-.2-.7-.3s.1.2.1.4-.4.4-.6.6l.3.2c.2-.3.7-.5,1.5-.5a2.1,2.1,0,0,1,1.5.5l.2-.2C16.5,13,16.2,12.9,16.2,12.6Z"/><path class="cls-4" d="M16.2,12.2h0Z"/><path class="cls-4" d="M13.7,12.2Z"/><polygon class="cls-4" points="18.5 10.7 18.1 10.7 18.4 10.9 18.3 11.4 18.7 11.1 19.1 11.4 18.9 10.9 19.3 10.7 18.8 10.7 18.7 10.2 18.5 10.7"/><polygon class="cls-4" points="17.8 9.6 18.2 9.3 18.6 9.6 18.4 9.1 18.8 8.8 18.3 8.8 18.2 8.4 18 8.8 17.6 8.8 17.9 9.1 17.8 9.6"/><polygon class="cls-4" points="16.5 8.2 16.8 7.9 17.2 8.2 17.1 7.8 17.5 7.5 17 7.5 16.8 7.1 16.7 7.5 16.2 7.5 16.6 7.8 16.5 8.2"/><polygon class="cls-4" points="14.6 7.7 15 7.5 15.4 7.7 15.2 7.3 15.6 7 15.1 7 15 6.6 14.9 7 14.4 7 14.8 7.3 14.6 7.7"/><polygon class="cls-4" points="12.8 8.2 13.2 7.9 13.5 8.2 13.4 7.8 13.8 7.5 13.3 7.5 13.2 7.1 13 7.5 12.5 7.5 12.9 7.8 12.8 8.2"/><polygon class="cls-4" points="11.4 9.6 11.8 9.3 12.2 9.6 12.1 9.1 12.4 8.8 12 8.8 11.8 8.4 11.7 8.8 11.2 8.8 11.6 9.1 11.4 9.6"/><polygon class="cls-4" points="11.1 10.9 10.9 11.4 11.3 11.1 11.7 11.4 11.6 10.9 11.9 10.7 11.5 10.7 11.3 10.2 11.2 10.7 10.7 10.7 11.1 10.9"/></svg>