<svg xmlns="http://www.w3.org/2000/svg" viewBox="0 0 30 20"><defs><style>.cls-1{fill:#e92f49;}.cls-2{fill:#4d86c5;}.cls-3{fill:#23ad50;}.cls-4{fill:#ffc829;}</style></defs><title>er</title><g id="Layer_45" data-name="Layer 45"><path class="cls-1" d="M30,10,1.2.4A2.4,2.4,0,0,0,0,2.5v15a2.4,2.4,0,0,0,1.2,2.1L30,10ZM11.2,12.9A5.4,5.4,0,0,1,7.7,14a.9.9,0,0,1,.6.7H6.5A.8.8,0,0,1,7,14c-1.3,0-2.1-.2-2.5-.8l-1.1-.4c.2-.3.9,0,1.2.2s-1.8-.7-1.9-2.2L3.9,12c-.6-.8-1.3-1.8-.9-2.7a10.4,10.4,0,0,0,.4,1c-.3-1.2-.3-2.6.1-2.8a3,3,0,0,1,.2,1.4c.2-.4-.2-2.3.8-2.7L4.2,7.6c.1-.2.2-.5.5-.6S6,5.4,6.3,5.5a1.4,1.4,0,0,1-.6.7c.6-.4,1.7-.8,2.1-.5a9.4,9.4,0,0,1-1.5.6,1.2,1.2,0,0,0,1-.1c-.1.4-.5.4-.8.4a1.1,1.1,0,0,0-.8.2h.7C6.3,7,6,7,5.8,7A1.4,1.4,0,0,0,4.3,8.2l.6-.8c.2.3-.1.8-.3.9a1.4,1.4,0,0,0-.7,1l.3-.5a1,1,0,0,1-.2.9,2.2,2.2,0,0,0-.1.9,6.2,6.2,0,0,0,.3-1c0,.4.2.9.2,1.1s-.2.5-.2.7.1.3.2.6a1.7,1.7,0,0,0-.1-.8c.3.2.4.7.6,1v-.4c.3.7.9,1.7,1.7,1.7l.7.2c-.1-.6-.1-1.2-.2-1.8s-1.4.4-1.4-.7a1,1,0,0,0,.8.4c-.3-.2-.9-.6-.8-1s.5.4.7.4a.7.7,0,0,1-.3-.7,3,3,0,0,1,.9.8,8.1,8.1,0,0,1-.1-1.5c-.5.2-.9,0-1-.9s.3.4.5.3a1.7,1.7,0,0,1-.3-1.2,1.7,1.7,0,0,0,.6.8c-.4-.5-.2-.7.1-.5A1,1,0,0,1,7,9c.5-.6.5-.9.3-1.3s-.5,0-.7-.4.6.2.6-.1-.6,0-.8-.1a.8.8,0,0,1,.9,0,.6.6,0,0,1,0-.6c.5.1.5.7.2,1a4.1,4.1,0,0,0,.2.7c.1-.5.4-.8.8-.7s-.2.4-.3.6a.7.7,0,0,0,.5-.4c.3.5-.3.8-.5,1l.6-.3a.7.7,0,0,1-.8.7c-.3-.1-.6-.3-.6,0a3,3,0,0,0-.2,1,5.1,5.1,0,0,1,.4-1V10a1.1,1.1,0,0,0,.6-.9c.5.3.1.9-.3,1.2a.8.8,0,0,0,.9-.3c.1.8-.7.8-1.1.7s-.6,0-.4.4.1.9.3,1.3.1-.8.3-1,.6-.3.3.3a1.8,1.8,0,0,0,.5-.7c.2.5-.2.9-.4,1.1a.7.7,0,0,0,.5-.4c.3.7-.6,1-.9,1s-.4.7-.3,1a3.3,3.3,0,0,1,1.3-.4c.6-.2.6-.6.7-.9l.6-.7c.1.1,0,.4,0,.5a.7.7,0,0,0,.3-.6.7.7,0,0,1,.1-.5.8.8,0,0,0,0-.7.5.5,0,0,1,.2-.8,1.6,1.6,0,0,0,.4,1.2,2.2,2.2,0,0,0-.2-1,1.7,1.7,0,0,1-.3-1c-.3-.3-.9-.9-.6-1.5s.3.8.7.7l-.6-.8c-.1-.1-.2.1-.6.1a1,1,0,0,1-.8-.4h.8a1.5,1.5,0,0,0-1.3-.2,1.2,1.2,0,0,1-.9-.5c.1.1.4.2.5.1L7.6,6c.4.1.6-.1.9-.1s.6.6.9.6a1.5,1.5,0,0,1-.7-1.2,3.8,3.8,0,0,1,1.4,1.4,1.8,1.8,0,0,1,.7.9,1.9,1.9,0,0,0-.3-1.2c.7,0,.8,1.3.9,2a2,2,0,0,0,0-1.1c.8.7.5,1.9.1,2.9a1.2,1.2,0,0,0,.4-.9c.7.7-.1,1.6-.7,2.5a2.2,2.2,0,0,0,1.1-1.2c.2,1.1-1.4,2.1-1.9,2.4S10.9,12.8,11.2,12.9Z"/><path class="cls-2" d="M27.5,20A2.5,2.5,0,0,0,30,17.5V10L1.2,19.6a2.2,2.2,0,0,0,1.3.4Z"/><path class="cls-3" d="M30,2.5A2.5,2.5,0,0,0,27.5,0H2.5A2.2,2.2,0,0,0,1.2.4L30,10Z"/><path class="cls-4" d="M12.3,10.6a2.2,2.2,0,0,1-1.1,1.2c.6-.9,1.4-1.8.7-2.5a1.2,1.2,0,0,1-.4.9c.4-1,.7-2.2-.1-2.9a2,2,0,0,1,0,1.1c-.1-.7-.2-2-.9-2a1.9,1.9,0,0,1,.3,1.2,1.8,1.8,0,0,0-.7-.9A3.8,3.8,0,0,0,8.7,5.3a1.5,1.5,0,0,0,.7,1.2c-.3,0-.6-.6-.9-.6s-.5.2-.9.1l.3.3c-.1.1-.4,0-.5-.1a1.2,1.2,0,0,0,.9.5,1.5,1.5,0,0,1,1.3.2H8.8a1,1,0,0,0,.8.4c.4,0,.5-.2.6-.1l.6.8c-.4.1-.3-.4-.7-.7s.3,1.2.6,1.5a1.7,1.7,0,0,0,.3,1,2.2,2.2,0,0,1,.2,1,1.6,1.6,0,0,1-.4-1.2.5.5,0,0,0-.2.8.8.8,0,0,1,0,.7.7.7,0,0,0-.1.5.7.7,0,0,1-.3.6c0-.1.1-.4,0-.5l-.6.7c-.1.3-.1.7-.7.9a3.3,3.3,0,0,0-1.3.4c-.1-.3.1-1,.3-1s1.2-.3.9-1a.7.7,0,0,1-.5.4c.2-.2.6-.6.4-1.1a1.8,1.8,0,0,1-.5.7c.3-.6,0-.8-.3-.3s-.2.5-.3,1-.1-.9-.3-1.3.2-.5.4-.4,1.2.1,1.1-.7a.8.8,0,0,1-.9.3c.4-.3.8-.9.3-1.2a1.1,1.1,0,0,1-.6.9V9.1a5.1,5.1,0,0,0-.4,1,3,3,0,0,1,.2-1c0-.3.3-.1.6,0a.7.7,0,0,0,.8-.7l-.6.3c.2-.2.8-.5.5-1a.7.7,0,0,1-.5.4c.1-.2.1-.5.3-.6s-.7.2-.8.7a4.1,4.1,0,0,1-.2-.7c.3-.3.3-.9-.2-1a.6.6,0,0,0,0,.6.8.8,0,0,0-.9,0c.2.1.5.3.8.1s-.3.3-.6.1.4.5.7.4S7.5,8.4,7,9a1,1,0,0,0-.2-.9c-.3-.2-.5,0-.1.5a1.7,1.7,0,0,1-.6-.8A1.7,1.7,0,0,0,6.4,9c-.2.1-.3,0-.5-.3s.5,1.1,1,.9A8.1,8.1,0,0,0,7,11.1a3,3,0,0,0-.9-.8.7.7,0,0,0,.3.7c-.2,0-.7-.4-.7-.4s.5.8.8,1a1,1,0,0,1-.8-.4c0,1.1,1.2.9,1.4.7s.1,1.2.2,1.8l-.7-.2c-.8,0-1.4-1-1.7-1.7v.4c-.2-.3-.3-.8-.6-1a1.7,1.7,0,0,1,.1.8c-.1-.3-.2-.3-.2-.6s.2-.4.2-.7-.2-.7-.2-1.1a6.2,6.2,0,0,1-.3,1A2.2,2.2,0,0,1,4,9.7a1,1,0,0,0,.2-.9l-.3.5a1.4,1.4,0,0,1,.7-1c.2-.1.5-.6.3-.9l-.6.8A1.4,1.4,0,0,1,5.8,7c.2,0,.5,0,.6-.2H5.7a1.1,1.1,0,0,1,.8-.2c.3,0,.7,0,.8-.4a1.2,1.2,0,0,1-1,.1,9.4,9.4,0,0,0,1.5-.6c-.4-.3-1.5.1-2.1.5a1.4,1.4,0,0,0,.6-.7C6,5.4,5,6.4,4.7,7s-.4.4-.5.6l.3-1.4c-1,.4-.6,2.3-.8,2.7a3,3,0,0,0-.2-1.4c-.4.2-.4,1.6-.1,2.8a10.4,10.4,0,0,1-.4-1c-.4.9.3,1.9.9,2.7L2.7,10.8c.1,1.5,1.7,1.8,1.9,2.2s-1-.5-1.2-.2l1.1.4c.4.6,1.2.8,2.5.8a.8.8,0,0,0-.5.7H8.3a.9.9,0,0,0-.6-.7,5.4,5.4,0,0,0,3.5-1.1c-.3-.1-.6.1-.8.1S12.5,11.7,12.3,10.6Z"/></g></svg>