<svg id="Flags" xmlns="http://www.w3.org/2000/svg" viewBox="0 0 30 20"><defs><style>.cls-1{fill:#00ae67;}.cls-2{fill:#8a0f5e;}.cls-3{fill:#f7981d;}.cls-4{fill:#fff;}.cls-5{fill:none;stroke:#000;stroke-linecap:round;stroke-linejoin:round;stroke-width:0;}</style></defs><title>tm</title><path class="cls-1" d="M0,2.5v15a2.4,2.4,0,0,0,1.7,2.3V.2A2.4,2.4,0,0,0,0,2.5Z"/><path class="cls-1" d="M27.4,0H6.7V20H27.4A2.5,2.5,0,0,0,30,17.5V2.5A2.5,2.5,0,0,0,27.4,0ZM10.9,3.2v0h.4l-.3.2v.4L11,3.5l-.3.3V3.4l-.3-.2ZM9.5,2.7v0h.4l-.3.2v.4l-.3-.2-.3.2V2.9l-.3-.2ZM9.3,5.1,9,4.9l-.3.2V4.7l-.3-.2h.4v0h.4l-.3.2Zm.2-1.3h.4v0h.4l-.3.3v.3L10,4.2l-.3.2V4.1Zm.4,1.1h.4V4.6l.2.3H11l-.4.3.2.3-.4-.2-.3.2V5.2Zm4,.3a2.1,2.1,0,0,1-3.7.6,1.8,1.8,0,1,0,1-3.2A2.1,2.1,0,0,1,13.9,5.2Z"/><polygon class="cls-2" points="2.7 12.7 2.6 12.7 2.5 12.8 2.6 12.9 2.7 12.8 2.7 12.8 2.7 12.7"/><path class="cls-2" d="M2.6,0,1.7.2V19.8l.9.2H6.7V0ZM5,1.1H6.1V2.3h0l-.3-.3H6l-.4-.3.2-.2H5.7l-.2.2-.6-.5Zm.8,12.6H6l-.4-.3h.1l-.2.2H5.3l.4.4v.9l-.5.5H3.1l-.5-.5v-.9l.4-.4H2.8l-.2-.2h.1l-.4.3h.2l-.3.3h0V12.2h0V9.7h0l.3.3H2.3l.4.3-.2.2h.1l.2-.2.5.4-.5.5-.2-.2H2.5l.2.2-.4.3h.2l-.3.3.3.2h0v-.2h.2v-.2h1v-.3h.1V11H4l.2-.2v.2h.1v.2h.2v.3h.9v.2h.2l.2.2H5.8l.3-.2-.3-.3H6l-.4-.3.2-.2H5.7l-.2.2L5,10.8l.5-.4.2.2h.1l-.2-.2L6,10H5.8l.3-.3h0V12h0v1.7h0ZM6,14.8H6c0-.2-.1-.4,0-.6h.1A1.3,1.3,0,0,1,6,14.8Zm-3.6,0H2.3a1.3,1.3,0,0,1-.1-.6h.1A1.3,1.3,0,0,1,2.4,14.8ZM2.7,3.9l-.2.2h.1L2.8,4l.5.4-.5.4-.2-.2H2.5l.2.2-.4.3h.2l-.3.3h0V3.2h0l.3.3H2.3Zm.8,1.6V5h.3v.3h.1V4.6h.2v0h.1v.7h.1V5h.4v.5h0V5.2h.4v.5h0V5.5h.4v.3h.2v.4H5.7v.3H5.3V6.3h0v.5H4.9V6.5h0V7H4.5V6.7H4.4v.7H4.3v0H3.9V6.7H3.8V7H3.5V6.5H3.4v.3H3.1V6.3H3v.2H2.6V6.2H2.5V5.8h.1V5.5H3v.2h.1V5.2h.3v.3ZM5.4,8.4v.3h.3v1H5.4v.4H5l-.4.3H3.8l-.5-.3H2.9V9.7H2.6v-1h.3V8.4h.4L3.8,8h.8l.4.3h.4ZM2.5,6.7H2.3l.4.4-.2.2h.1l.2-.2.5.4L2.8,8l-.2-.2H2.5l.2.2-.4.4h.2l-.3.3h0V6.3ZM5.8,8.6H6l-.4-.4.2-.2H5.7L5.5,8,5,7.6l.5-.4.2.2h.1l-.2-.2L6,6.7H5.8l.3-.4V8.8h0Zm0-3.3H6l-.4-.3.2-.2H5.7l-.2.2L5,4.4,5.5,4l.2.2h.1l-.2-.2L6,3.5H5.8l.3-.3h0V5.5h0ZM4.7,1.5l.3.2h.1l.4.3h0l.2.2v.9l-.2.2h0l-.4.4H5L4.7,4H3.6l-.2-.2H3.3l-.4-.4h0l-.3-.2V2.3l.3-.2h0l.4-.3h.1l.2-.2Zm-2.5.8V1.1H3.4l-.6.5-.2-.2H2.5l.2.2L2.3,2h.2l-.3.3Zm0,12.2h0V15h0c.1,0,0-.1,0-.1a1.3,1.3,0,0,1,.1-.5h0v.7H2.4a.6.6,0,0,1-.3-.5Zm0,.5h.1l.2.3h.1a.6.6,0,0,1,0-.6h0a.7.7,0,0,1,.1.5c0,.1-.1.1-.1.3h0c-.2-.1-.5-.5-.4-.7Zm.1.5c.1.1.4.2.5.5a.1.1,0,0,0,.1.1.1.1,0,0,0-.1-.1c0-.2-.1-.4-.1-.6h.1a1.9,1.9,0,0,1,.2.8H2.9a.8.8,0,0,1-.6-.7Zm.2.6c0-.1,0,0,.1,0l.6.2c-.2-.1-.2-.4-.2-.5s0-.1,0-.1l.3.4a.4.4,0,0,0,.1.3h0C3.2,16.6,2.7,16.5,2.5,16.1Zm3,.5a.8.8,0,0,1-.9.1c-.1-.1-.2-.2-.3-.1l.4.3h0l-.5-.4H4.1l-.4.4H3.6l.5-.3c-.2-.1-.3,0-.4.1a.6.6,0,0,1-.8-.1h.5a1.1,1.1,0,0,1,.8,0,.9.9,0,0,1,.7,0h.6Zm.3-.5a.6.6,0,0,1-.9.3h0l.2-.3a.8.8,0,0,1,.2-.4c.1,0,.1,0,.1.1s-.1.4-.3.5l.7-.2Zm-.4.1h0a1.1,1.1,0,0,1,.2-.8h0a1.3,1.3,0,0,1-.1.6.1.1,0,0,1-.1.1c.1,0,.1,0,.1-.1s.5-.4.5-.5H6A.7.7,0,0,1,5.4,16.2Zm.3-.5h0v-.3a.4.4,0,0,1,0-.5h0c.1.2.2.5.1.6h.1v-.3h.2A.9.9,0,0,1,5.7,15.7Zm.3-.6H5.9s-.1.1-.1,0v-.7h.1V15h0v-.2c.1,0,.1-.1.1-.2h.1A.6.6,0,0,1,6,15.1Z"/><polygon class="cls-2" points="5.7 12.8 5.6 12.8 5.7 12.9 5.8 12.8 5.7 12.7 5.6 12.7 5.7 12.8"/><path class="cls-3" d="M3.1,5.2v.5H3V5.5H2.6v.3H2.5v.4h.1v.3H3V6.3h.1v.5h.3V6.5h.1V7h.3V6.7h.1v.7h.2v0h.1V6.7h.1V7h.4V6.5h0v.3h.4V6.3h0v.2h.4V6.2h.2V5.8H5.7V5.5H5.3v.2h0V5.2H4.9v.3h0V5H4.5v.3H4.4V4.6H4.3v0H3.9v.7H3.8V5H3.5v.5H3.4V5.2Zm2.6.7h0ZM3.5,5.5V5.1h.3v.3H4V4.7h.4v.7h.2V5.1h.2v.4l.2.2V5.3h.2v.5h.2V5.6h.3v.8H5.4V6.2H5.2v.5H5V6.3l-.2.2v.4H4.6V6.6H4.4v.7H4V6.6H3.8v.3H3.5V6.7H3.1V6.2H3v.2H2.7V6.1h0V5.6H3v.2h.1V5.3h.3v.2Z"/><polygon class="cls-4" points="2.6 5.9 2.6 6 2.6 6.1 2.7 6.1 2.7 5.9 2.6 5.9"/><polygon class="cls-4" points="5.7 6 5.7 5.9 5.7 5.9 5.7 6.1 5.7 6.1 5.7 6"/><polygon points="5.5 6.2 5.4 6.2 5.4 6.4 5.7 6.4 5.7 5.6 5.4 5.6 5.4 5.8 5.5 5.8 5.5 6.2"/><polygon points="2.8 5.8 3 5.8 3 5.6 2.7 5.6 2.7 5.9 2.7 6.1 2.7 6.4 3 6.4 3 6.2 2.8 6.2 2.8 5.8"/><path d="M3.3,5.8H2.9v.2h.5v.6h.3V6.6H4v.7h.4V6.6h.2v.3h.2V6.5L5,6.3h.4V5.9H5l-.2-.2V5.1H4.6v.3H4.4V4.7H4v.7H3.8V5.1H3.5v.6Zm.3,1v0Zm.7.3H4V6.7h.1V6.5h.2v.2h0Zm.3-.3v0Zm.1-1.6v0Zm-1,0v0Zm-.3.6.3-.3h.4V5.3H4V4.9h.3v.4h0v.2h.4l.2.3h.2v.2H4.9l-.2.3h-1l-.3-.3H3.3V5.9h.1Z"/><polygon class="cls-3" points="3.7 5.2 3.6 5.2 3.7 5.4 3.7 5.2"/><polygon class="cls-3" points="3.6 6.8 3.7 6.8 3.7 6.6 3.6 6.8"/><polygon class="cls-3" points="4.7 5.2 4.6 5.2 4.7 5.4 4.7 5.2"/><polygon class="cls-3" points="4.6 6.8 4.7 6.8 4.7 6.6 4.6 6.8"/><path class="cls-4" d="M3.2,6.2H2.9V5.9h.5V5.3H3.1v.5H2.8v.4h.3v.5h.3V6.3H3.2Zm.1-.8v0ZM3.2,6.6v0Z"/><path class="cls-4" d="M5.1,5.8h.3v.2H5v.4h.2V6.2h.3V5.8H5.2V5.3H5v.4h.1ZM5,6.6v0Zm.2-1.2v0Z"/><path class="cls-4" d="M4.3,5.3h0V4.9H4v.4h.1v.2h.2ZM4.1,5h0Z"/><path class="cls-4" d="M4.3,6.5H4.1v.2H4v.4h.3V6.7h0ZM4.1,7h0Z"/><polygon class="cls-2" points="3.3 5.4 3.2 5.4 3.3 5.6 3.3 5.4"/><polygon class="cls-2" points="3.2 6.6 3.3 6.6 3.3 6.4 3.2 6.6"/><polygon class="cls-2" points="5.2 5.4 5 5.4 5.1 5.6 5.2 5.4"/><polygon class="cls-2" points="5 6.6 5.2 6.6 5.1 6.4 5 6.6"/><polygon class="cls-2" points="4.1 5 4.2 5.1 4.2 5 4.1 5"/><polygon class="cls-2" points="4.1 7 4.2 7 4.2 6.9 4.1 7"/><path class="cls-3" d="M3.3,6.1h.1l.3.3h1l.2-.3h.2V5.9H4.9l-.2-.3h-1l-.3.3H3.3Zm.2-.3.2-.2h.9l.2.2v.4l-.2.2H3.7l-.2-.2Z"/><path class="cls-2" d="M4.6,6.4l.2-.2V5.8l-.2-.2H3.7l-.2.2v.4l.2.2Zm0-.2v0Zm-.7-.5v.2h.3V5.7h.2L4.4,6l.2.3H4.5l-.2-.2H4v.2H3.8V5.7Zm-.2.1v0Z"/><polygon class="cls-3" points="3.8 6.3 3.9 6.3 4 6.1 4.1 6.2 4 6.3 4.1 6.3 4.2 6.2 4.1 6 4.2 5.8 4.1 5.7 4 5.7 4 5.8 4 5.9 3.9 5.7 3.8 5.7 3.9 6 3.8 6.3"/><polygon class="cls-3" points="4.2 6.2 4.2 6.3 4.3 6.3 4.3 6.2 4.3 6.1 4.5 6.3 4.6 6.3 4.4 6 4.6 5.7 4.4 5.7 4.3 5.9 4.3 5.8 4.3 5.7 4.2 5.7 4.2 5.8 4.3 6 4.2 6.2"/><polygon class="cls-4" points="3.7 5.8 3.7 6.2 3.8 6 3.7 5.8"/><polygon class="cls-4" points="4.6 6.2 4.6 5.8 4.5 6 4.6 6.2"/><polygon class="cls-4" points="4.2 6.2 4.3 6 4.2 5.8 4.1 6 4.2 6.2"/><path class="cls-3" d="M4.6,8H3.8l-.5.3H2.9v.3H2.6v1h.3v.4h.4l.5.3h.8l.4-.3h.4V9.7h.3v-1H5.4V8.4H5Zm.7.5v.3h.3v.8H5.3V10H5l-.5.3H3.8l-.4-.3H3V9.6H2.7V8.8H3V8.5h.4V8.3l.4-.2h.7l.5.2v.2Z"/><path d="M5,8.3l-.5-.2H3.8l-.4.2v.2H3v.3H2.7v.8H3V10h.4l.4.3h.7l.5-.3h.3V9.6h.3V8.8H5.3V8.5H5Zm.3.2v.4h.3v.3h0v.3H5.3v.4H4.9v.2H4.8l-.3.2H3.8l-.4-.2V9.9H3.1V9.5H2.8V9.2h0V8.9h.3V8.5h.3l.4-.2h.7l.4.2h.4Z"/><polygon class="cls-2" points="4.2 10.1 4.2 10.1 4.7 9.7 4.7 9.7 4.2 10.1"/><path class="cls-2" d="M5.1,9.7H4.9v.4h0V9.9h.4V9.7Zm.1.1h0Z"/><polygon class="cls-2" points="3 9.3 2.9 9.3 3.2 9.3 3.2 9.2 2.9 9.2 3 9.1 3 9 2.8 9.2 2.8 9.2 3 9.4 3 9.3"/><path class="cls-2" d="M3.4,8.7V8.4l.4-.2-.4.2H3.1v.2h.3Zm-.3-.1h0Z"/><path class="cls-2" d="M3.4,9.7H3.1v.2h.3v.2l.4.2-.4-.2Zm0,.2h0Z"/><rect class="cls-2" x="5.3" y="8.9" width="0.3"/><path class="cls-2" d="M4.9,8.4l-.4-.2.4.2v.3h.4V8.5H4.9Zm.1.2H5Z"/><polygon class="cls-2" points="5.3 9.1 5.4 9.2 5.1 9.2 5.1 9.3 5.4 9.3 5.3 9.3 5.3 9.4 5.6 9.2 5.6 9.2 5.3 9 5.3 9.1"/><path d="M4.7,8.7l-.5-.3-.6.3H3.2v.5h0v.4h.4l.6.4.5-.4h.4V9.3h0V8.7H4.7Zm.3.1v.8H4.7l-.5.4-.6-.4H3.4V8.8h.2l.6-.3.5.3Z"/><polygon class="cls-3" points="3 9.1 2.9 9.2 3.2 9.2 3.2 8.7 3.1 8.7 3.1 8.9 2.8 8.9 2.8 8.9 2.8 9.2 3 9 3 9.1"/><rect class="cls-3" x="3.1" y="8.6" width="0.2" height="0.08"/><polygon class="cls-3" points="4.2 8.5 4.2 8.9 4.2 8.9 4.3 8.8 4.5 8.9 4.4 9 4.3 8.9 4.2 9 4.5 9.2 4.6 9.1 4.6 9.1 4.6 9 4.8 9.1 4.6 9.2 4.6 9.2 5 9.2 5 8.8 4.7 8.8 4.2 8.5"/><polygon class="cls-3" points="4 9.6 3.8 9.5 3.9 9.5 4 9.5 4.1 9.5 3.8 9.3 3.7 9.4 3.8 9.4 3.7 9.4 3.6 9.4 3.7 9.2 3.4 9.2 3.4 9.6 3.6 9.6 4.2 10 4.2 9.5 4 9.6"/><polygon class="cls-2" points="3.7 9.2 3.6 9.1 3.7 9 3.8 9.1 3.7 9.1 3.8 9.2 4.1 9 4 8.9 3.9 9 3.8 8.9 4 8.8 4.2 8.9 4.2 8.5 3.6 8.8 3.4 8.8 3.4 9.2 3.7 9.2 3.7 9.2"/><polygon class="cls-2" points="4.8 9.4 4.6 9.4 4.6 9.4 4.6 9.4 4.5 9.3 4.2 9.5 4.3 9.5 4.4 9.5 4.5 9.5 4.3 9.6 4.2 9.5 4.2 9.5 4.2 10 4.7 9.6 5 9.6 5 9.2 4.6 9.2 4.8 9.4"/><path class="cls-4" d="M3.8,8.9h.3l-.3.2H3.7v.2h.2l.3.2h.1l.3-.2h.3l-.2-.2H4.5L4.2,9h.1V9h0L4,8.8Zm.6.3-.2.2-.3-.2h.5Z"/><polygon class="cls-3" points="4.2 9.4 4.4 9.2 4.2 9.2 4.2 9.4"/><polygon class="cls-3" points="4.2 9.2 4.2 9.1 3.9 9.2 4.2 9.2"/><polygon points="3.9 9.2 4.2 9.4 4.2 9.2 3.9 9.2"/><polygon points="4.4 9.2 4.2 9.1 4.2 9.2 4.4 9.2"/><path class="cls-4" d="M3.9,8.3h.2l-.3.2H3.6v.3h0l.6-.3h0V8.2H3.9Zm-.3.2h0Z"/><polygon class="cls-3" points="3.6 8.5 3.6 8.6 3.7 8.6 3.6 8.5"/><polygon class="cls-3" points="3.4 8.7 3.6 8.7 3.6 8.4 3.8 8.5 4.1 8.3 4.1 8.2 3.9 8.2 3.9 8.3 3.8 8.3 3.8 8.2 3.4 8.4 3.4 8.7"/><path class="cls-4" d="M4.5,10.1H4.2l.3-.2.2.2V9.7h0l-.5.4h0v.2h.3Zm.2-.3V10h0Z"/><polygon class="cls-3" points="4.7 9.8 4.6 9.9 4.7 10 4.7 9.8"/><polygon class="cls-3" points="4.9 9.7 4.7 9.7 4.7 10.1 4.5 9.9 4.2 10.1 4.2 10.2 4.5 10.2 4.5 10.1 4.5 10.1 4.5 10.3 4.8 10.1 4.9 10.1 4.9 9.7"/><path class="cls-2" d="M4.2,8.4l.5.3h0V8.4H4.5l-.3-.2h0v.2Zm.5.1h0Z"/><polygon class="cls-4" points="4.7 8.5 4.6 8.6 4.7 8.6 4.7 8.5"/><polygon class="cls-4" points="4.5 8.3 4.5 8.2 4.2 8.2 4.2 8.3 4.5 8.5 4.7 8.4 4.7 8.7 4.9 8.7 4.9 8.4 4.5 8.2 4.5 8.3 4.5 8.3"/><path class="cls-2" d="M4.2,10.1h0l-.6-.4h0v.4l.2-.2.3.2H3.8v.2h.4v-.2ZM3.6,10V9.8h0Z"/><polygon class="cls-4" points="3.6 10 3.7 9.9 3.6 9.8 3.6 10"/><polygon class="cls-4" points="3.9 10.1 3.9 10.2 4.1 10.2 4.1 10.1 3.8 9.9 3.6 10.1 3.6 9.7 3.4 9.7 3.4 10.1 3.8 10.3 3.8 10.1 3.9 10.1"/><polygon class="cls-4" points="3.2 9.3 2.9 9.3 3 9.3 3 9.4 2.8 9.2 2.8 9.5 3.1 9.5 3.1 9.7 3.2 9.7 3.2 9.3"/><rect class="cls-4" x="3.1" y="9.8" width="0.2" height="0.08"/><polygon class="cls-3" points="5.3 9.3 5.4 9.3 5.1 9.3 5.1 9.7 5.1 9.7 5.3 9.7 5.3 9.5 5.6 9.5 5.6 9.5 5.6 9.2 5.3 9.4 5.3 9.3"/><rect class="cls-3" x="5" y="9.8" width="0.2" height="0.08"/><polygon class="cls-4" points="5.1 9.2 5.4 9.2 5.3 9.1 5.3 9 5.6 9.2 5.6 8.9 5.3 8.9 5.3 8.9 5.3 8.7 5.1 8.7 5.1 9.2"/><rect class="cls-4" x="5" y="8.6" width="0.2" height="0.08"/><polygon class="cls-3" points="5.2 13.3 5.2 13.3 5.3 13.2 5.3 13.2 5.2 13.3 5.2 13.3"/><polygon class="cls-3" points="3 13.2 3.1 13.3 3.1 13.3 3.1 13.3 3 13.2 3 13.2"/><path class="cls-3" d="M5.5,12.7Z"/><polygon class="cls-3" points="3 13.4 2.9 13.4 2.9 13.3 2.9 13.3 2.9 13.4 3 13.4 3 13.4 3 13.4 3 13.4"/><path class="cls-3" d="M2.7,12.6h.2v-.3h.9v-.2H4v-.2h.4v.2h.1v.2h1v.3h.4l-.2-.2H5.5v-.2H4.6v-.3H4.4V11H4.3v-.2l-.2.2H3.9v.2H3.8v.3h-1v.2H2.6v.2h.2Z"/><path class="cls-3" d="M2.9,12.7Z"/><path class="cls-3" d="M5.5,12.7Z"/><path class="cls-3" d="M2.9,12.6h0Z"/><polygon class="cls-3" points="5.4 13.4 5.3 13.4 5.3 13.4 5.3 13.4 5.3 13.4 5.5 13.4 5.5 13.3 5.4 13.3 5.4 13.4"/><polygon points="3.2 13.3 3.1 13.2 3 13.2 3.1 13.3 3.1 13.3 5.2 13.3 5.2 13.3 5.3 13.2 5.2 13.2 5.1 13.3 3.2 13.3"/><path d="M5.5,12.2v-.3H5.4l-.2-.2H4.5v-.2H4.4v-.2H4v.2H3.8v.2H3.1v.2H2.9v.8h0V12l.3-.4H5.1l.3.4v.8h.1Zm-1.1-.7H4v-.2h.3v.2h.1Z"/><path class="cls-3" d="M5.1,11.6H3.2l-.3.4v.8h.2V12l.2-.2H5.1v1.1h.2V12ZM3,12.6H3v-.3H3Zm.1-.7H3l.2-.2H3.1Zm.5-.2h0Zm.3,0h0Zm.4,0h0Zm.3,0h0Zm.3,0h0Zm.3.2h0v.2Zm.1.7v-.3h0v.3Z"/><path class="cls-3" d="M3.3,13.1h0Zm.3.1h0Zm.3,0h0Zm.4,0h0Zm.3,0h0Zm.3,0h0Z"/><path d="M5.1,11.8H3.3l-.2.2v.9h.2V13H5v-.2h.2V11.8Zm-.1.1.2.2H5Zm-.1,0h0Zm-.3,0h0Zm-.3,0h0Zm-.4,0h0Zm-.3,0h0Zm-.3,0v.2H3.2Zm-.2.7v-.1Zm.3.4h0Zm.3,0h0Zm.4,0h0Zm.3,0h0Zm.3,0h0Zm.3-.5v.2H3.3v-.5H5Zm.1,0v.1Z"/><line class="cls-5" x1="5.1" y1="13.1" x2="5.1" y2="13.1"/><line class="cls-5" x1="5.1" y1="11.8" x2="5.2" y2="12"/><rect class="cls-2" x="3.4" y="11.7" width="0.2" height="0.07"/><rect class="cls-2" x="4.1" y="11.7" width="0.2" height="0.07"/><rect class="cls-2" x="3" y="12.3" width="0.1" height="0.25"/><rect class="cls-2" x="3.4" y="13.2" width="0.2" height="0.07"/><rect class="cls-2" x="4.1" y="13.2" width="0.2" height="0.07"/><rect class="cls-2" x="4.7" y="11.7" width="0.2" height="0.07"/><rect class="cls-2" x="5.3" y="12.3" width="0.1" height="0.25"/><rect class="cls-2" x="4.7" y="13.2" width="0.2" height="0.07"/><rect class="cls-4" x="3.7" y="11.7" width="0.2" height="0.07"/><polygon class="cls-4" points="3 11.9 3.1 11.9 3.2 11.8 3.2 11.7 3 11.9"/><rect class="cls-4" x="3.7" y="13.2" width="0.2" height="0.07"/><polygon class="cls-4" points="3.2 13.2 3.2 13.1 3.1 13.2 3.2 13.2 3.2 13.2"/><rect class="cls-4" x="4.4" y="11.7" width="0.2" height="0.07"/><polygon class="cls-4" points="5.1 11.8 5.2 11.9 5.3 11.9 5.2 11.7 5.1 11.8"/><rect class="cls-4" x="4.4" y="13.2" width="0.2" height="0.07"/><polygon class="cls-4" points="5.2 13.2 5.2 13.2 5.1 13.1 5.1 13.2 5.2 13.2"/><polygon class="cls-3" points="4.2 12.1 4.2 12.3 4.2 12.3 4.3 12.2 4.4 12.3 4.3 12.3 4.3 12.3 4.2 12.3 4.2 12.4 4.7 12.4 4.8 12.3 4.7 12.2 4.7 12.2 4.9 12.3 4.8 12.5 4.8 12.5 5 12.5 5 12.2 4.9 12.1 4.2 12.1"/><polygon class="cls-2" points="3.6 12.5 3.5 12.3 3.6 12.2 3.7 12.2 3.5 12.3 3.6 12.4 4.1 12.4 4.1 12.3 4 12.3 4 12.3 3.9 12.3 4 12.2 4.2 12.3 4.2 12.1 3.4 12.1 3.3 12.2 3.3 12.5 3.6 12.5 3.6 12.5"/><polygon class="cls-3" points="3.9 11.9 3.7 11.9 3.8 12 3.9 11.9"/><polygon class="cls-3" points="3.3 11.9 3.2 12.1 3.3 12.1 3.3 11.9"/><polygon class="cls-3" points="3.7 13 3.9 13 3.8 12.9 3.7 13"/><polygon class="cls-3" points="3.2 12.9 3.3 13 3.3 13 3.3 12.8 3.2 12.9"/><polygon class="cls-3" points="4.6 11.9 4.4 11.9 4.5 12 4.6 11.9"/><polygon class="cls-3" points="5 11.9 5 12.1 5.2 12.1 5 11.9"/><polygon class="cls-3" points="4.4 13 4.6 13 4.5 12.9 4.4 13"/><polygon class="cls-3" points="5 12.8 5 13 5 13 5.2 12.9 5 12.8"/><polygon class="cls-4" points="3.6 11.9 3.4 11.9 3.5 12 3.6 11.9"/><polygon class="cls-4" points="4.3 11.9 4.1 11.9 4.2 12 4.3 11.9"/><polygon class="cls-4" points="3.1 12.6 3.2 12.5 3.1 12.3 3.1 12.6"/><polygon class="cls-4" points="3.4 13 3.6 13 3.5 12.9 3.4 13"/><polygon class="cls-4" points="4.1 13 4.3 13 4.2 12.9 4.1 13"/><polygon class="cls-4" points="4.9 11.9 4.7 11.9 4.8 12 4.9 11.9"/><polygon class="cls-4" points="5.1 12.5 5.2 12.6 5.2 12.3 5.1 12.5"/><polygon class="cls-4" points="4.7 13 4.9 13 4.8 12.9 4.7 13"/><path class="cls-4" d="M2.9,12.2h0Z"/><polygon class="cls-4" points="3.1 11.6 3.1 11.6 3.1 11.5 3 11.6 2.9 11.6 2.9 11.7 2.9 11.7 3 11.8 3 11.8 3.1 11.6"/><polygon class="cls-4" points="3 13.2 2.9 13.3 2.9 13.4 3 13.4 3 13.4 3.1 13.3 3.1 13.3 3 13.2"/><path class="cls-4" d="M5.7,12.6H5.5v.5h.2Z"/><polygon class="cls-4" points="5.4 11.8 5.4 11.8 5.4 11.7 5.4 11.7 5.4 11.6 5.3 11.6 5.3 11.5 5.2 11.6 5.2 11.6 5.4 11.8"/><polygon class="cls-4" points="5.2 13.3 5.3 13.4 5.3 13.4 5.4 13.4 5.4 13.3 5.3 13.2 5.2 13.3 5.2 13.3"/><polygon class="cls-4" points="4.3 11.3 4.2 11.3 4.2 11.3 4.2 11.2 4.1 11.3 4.1 11.3 4 11.3 4 11.5 3.9 11.4 3.9 11.5 4.4 11.5 4.4 11.4 4.3 11.5 4.3 11.3"/><polygon class="cls-3" points="4 12.8 3.9 12.6 4 12.6 4 12.7 4.1 12.6 4.1 12.5 3.6 12.5 3.5 12.6 3.7 12.7 3.6 12.7 3.5 12.6 3.6 12.5 3.3 12.5 3.3 12.7 3.4 12.8 4.2 12.8 4.2 12.7 4 12.8"/><polygon class="cls-2" points="4.9 12.6 4.7 12.7 4.7 12.7 4.8 12.6 4.7 12.5 4.2 12.5 4.2 12.6 4.3 12.7 4.3 12.6 4.4 12.6 4.3 12.8 4.2 12.7 4.2 12.7 4.2 12.8 4.9 12.8 5 12.7 5 12.5 4.8 12.5 4.9 12.6"/><polygon class="cls-4" points="3.9 12.3 4 12.3 4 12.3 4.1 12.3 4.1 12.4 3.6 12.4 3.5 12.3 3.7 12.2 3.6 12.2 3.5 12.3 3.6 12.5 3.6 12.5 3.5 12.6 3.6 12.7 3.7 12.7 3.5 12.6 3.6 12.5 4.1 12.5 4.1 12.6 4 12.7 4 12.6 3.9 12.6 4 12.8 4.2 12.7 4.2 12.7 4.3 12.8 4.4 12.6 4.3 12.6 4.3 12.7 4.2 12.6 4.2 12.5 4.7 12.5 4.8 12.6 4.7 12.7 4.7 12.7 4.9 12.6 4.8 12.5 4.8 12.5 4.9 12.3 4.7 12.2 4.7 12.2 4.8 12.3 4.7 12.4 4.2 12.4 4.2 12.3 4.3 12.3 4.3 12.3 4.4 12.3 4.3 12.2 4.2 12.3 4.2 12.3 4 12.2 3.9 12.3"/><path d="M2.3,5.4V5.2l.3-.3H2.4V4.7l.3-.2h.1l.4-.3L2.8,4v.2h0L2.4,4V3.8h.1V4h.1l-.3-.3V3.4h.1l-.2-.2V5.5h.1ZM3,4.3H3Zm-.3,0H3v.2H2.7Zm-.3.6H2.3V4.7h.1ZM2.3,3.7h0Zm0,.2h.1v.2H2.3Zm0,.3h.3v.2H2.3Zm0,.7h0Z"/><polygon class="cls-3" points="2.5 3.4 2.2 3.1 2.2 3.2 2.4 3.4 2.3 3.4 2.3 3.6 2.6 3.9 2.5 4 2.5 4 2.5 3.8 2.4 3.8 2.4 4 2.7 4.2 3 4.2 2.9 4.2 2.7 4.2 2.8 4 3.2 4.4 2.8 4.7 2.7 4.6 2.9 4.6 3 4.5 2.7 4.5 2.4 4.7 2.4 5 2.5 4.9 2.5 4.8 2.5 4.8 2.6 4.9 2.3 5.2 2.3 5.4 2.4 5.4 2.2 5.5 2.2 5.6 2.5 5.3 2.3 5.3 2.3 5.2 2.7 4.9 2.5 4.7 2.6 4.6 2.8 4.8 3.3 4.4 2.8 4 2.6 4.2 2.5 4.1 2.7 3.9 2.3 3.5 2.3 3.4 2.5 3.4"/><polygon class="cls-3" points="2.4 3.7 2.3 3.7 2.3 3.8 2.4 3.8 2.4 3.7"/><rect class="cls-2" x="2.3" y="3.9" width="0.1" height="0.17"/><polygon class="cls-3" points="2.4 4.9 2.3 4.9 2.3 5.1 2.4 5 2.4 4.9"/><rect class="cls-2" x="2.3" y="4.7" width="0.1" height="0.17"/><polygon class="cls-3" points="2.6 4.5 2.6 4.3 2.4 4.2 2.3 4.2 2.3 4.6 2.4 4.6 2.6 4.5"/><polygon class="cls-3" points="3 4.3 3 4.5 3.1 4.4 3 4.3"/><rect class="cls-2" x="2.7" y="4.3" width="0.3" height="0.14"/><path d="M2.3,2.2V2l.3-.3V1.5h0v.2H2.4V1.5l.3-.2h.1l.5-.4H2.2V2.3h.1Zm.7-1H3Zm-.3,0h0Zm-.4.5h0V1.5h0Zm0-.5h.3l-.2.2H2.3Zm0,.5h0Z"/><polygon class="cls-3" points="2.3 2.1 2.3 2 2.7 1.7 2.5 1.5 2.6 1.4 2.8 1.6 3.4 1.1 3.3 1.1 3.3 1.1 2.8 1.5 2.7 1.4 2.9 1.4 3 1.3 2.7 1.3 2.4 1.5 2.4 1.8 2.5 1.7 2.5 1.5 2.5 1.5 2.6 1.7 2.3 2 2.3 2.2 2.4 2.2 2.2 2.3 2.2 2.4 2.5 2.1 2.3 2.1"/><polygon class="cls-3" points="2.4 1.7 2.3 1.7 2.3 1.9 2.4 1.8 2.4 1.7"/><rect class="cls-2" x="2.3" y="1.5" width="0.1" height="0.17"/><polygon class="cls-3" points="2.6 1.2 2.6 1.2 2.3 1.2 2.3 1.4 2.4 1.4 2.6 1.2"/><polygon class="cls-3" points="3 1.2 3 1.3 3.1 1.2 3 1.2"/><rect class="cls-2" x="2.7" y="1.2" width="0.3" height="0.07"/><path d="M6.1,3.4v.2l-.4.3h.2V3.8h0V4l-.2.2H5.6V4l-.4.4.4.3h.2l.2.2V5H5.7l.4.3v.2h0V3.4ZM5.3,4.5h0Zm.4,0H5.4V4.3h.3ZM6,3.9h.1v.2H6Zm.1,1.2h0Zm0-.2H6V4.7h.1Zm0-.3H5.7V4.3h.4Zm0-.8h0Z"/><polygon class="cls-3" points="6.1 5.5 6 5.4 6.1 5.4 6.1 5.2 5.7 4.9 5.8 4.8 5.9 4.8 5.9 4.9 5.9 5 5.9 4.7 5.7 4.5 5.4 4.5 5.4 4.6 5.6 4.6 5.5 4.7 5.1 4.4 5.5 4 5.6 4.2 5.4 4.2 5.4 4.2 5.7 4.2 5.9 4 5.9 3.8 5.9 3.8 5.9 4 5.8 4 5.7 3.9 6.1 3.6 6.1 3.4 6 3.4 6.1 3.2 6.1 3.1 5.8 3.4 6 3.4 6 3.5 5.6 3.9 5.8 4.1 5.7 4.2 5.5 4 5 4.4 5.5 4.8 5.7 4.6 5.8 4.7 5.6 4.9 6 5.2 6 5.3 5.8 5.3 6.1 5.6 6.1 5.5"/><polygon class="cls-3" points="6 3.8 6.1 3.8 6.1 3.7 6 3.7 6 3.8"/><rect class="cls-2" x="6" y="3.9" width="0.1" height="0.17"/><polygon class="cls-3" points="6 5 6.1 5.1 6.1 4.9 6 4.9 6 5"/><rect class="cls-2" x="6" y="4.7" width="0.1" height="0.17"/><polygon class="cls-3" points="5.7 4.3 5.7 4.5 5.9 4.6 6.1 4.6 6.1 4.2 5.9 4.2 5.7 4.3"/><polygon class="cls-3" points="5.3 4.5 5.3 4.3 5.2 4.4 5.3 4.5"/><rect class="cls-2" x="5.4" y="4.3" width="0.3" height="0.14"/><path d="M5.6,1.4h.1l.2.2v.3h0V1.5H5.8v.2l.4.3v.2h0V1.1H5l.5.4Zm.5.5h0Zm0-.2H6V1.5h.1Zm-.4-.5h.4v.2H5.9l-.2-.2Zm-.3,0h0Zm-.1.1h0Z"/><polygon class="cls-3" points="5.7 1.4 5.8 1.5 5.6 1.7 6 2 6 2.1 5.8 2.1 6.1 2.4 6.1 2.3 6 2.2 6.1 2.2 6.1 2 5.7 1.7 5.8 1.5 5.9 1.5 5.9 1.7 5.9 1.8 5.9 1.5 5.7 1.3 5.4 1.3 5.4 1.4 5.6 1.4 5.5 1.5 5 1.1 5 1.1 4.9 1.1 5.5 1.6 5.7 1.4"/><polygon class="cls-3" points="6 1.8 6.1 1.9 6.1 1.7 6 1.7 6 1.8"/><rect class="cls-2" x="6" y="1.5" width="0.1" height="0.17"/><polygon class="cls-3" points="6.1 1.4 6.1 1.2 5.7 1.2 5.7 1.2 5.9 1.4 6.1 1.4"/><polygon class="cls-3" points="5.3 1.3 5.3 1.2 5.2 1.2 5.3 1.3"/><rect class="cls-2" x="5.4" y="1.2" width="0.3" height="0.07"/><path d="M2.3,13.8h0l.3-.3H2.5v.2H2.4v-.2l.3-.2h.1l.4-.3-.4-.2H2.4v-.2h.1v.2h.1l-.3-.3H2.2v1.7h.1Zm.8-.8h0Zm-.4,0h0Zm-.3.4h0Zm-.1-.9h0Zm0,.2h0Zm0,.2h0Zm0,.6h0Z"/><polygon class="cls-3" points="3 13.2 3 13.2 3.1 13.2 3.1 13.2 3.2 13.1 3.2 13.1 3.3 13 3.3 13 3.3 13 3.1 12.9 2.9 12.8 2.9 12.7 2.9 12.7 2.8 12.7 2.8 12.7 2.7 12.8 2.6 12.9 2.5 12.8 2.6 12.7 2.7 12.6 2.7 12.6 2.7 12.6 2.5 12.5 2.3 12.4 2.3 12.3 2.5 12.3 2.2 12.1 2.2 12.1 2.2 12.2 2.4 12.3 2.3 12.3 2.3 12.4 2.6 12.7 2.5 12.8 2.5 12.8 2.5 12.6 2.4 12.6 2.4 12.8 2.7 12.9 3 12.9 2.9 12.9 2.7 12.9 2.8 12.8 3.2 13 2.8 13.3 2.7 13.2 2.9 13.2 3 13.1 2.7 13.1 2.4 13.3 2.4 13.5 2.5 13.5 2.5 13.3 2.5 13.3 2.6 13.4 2.3 13.7 2.3 13.8 2.4 13.8 2.2 13.9 2.2 14 2.5 13.7 2.3 13.7 2.3 13.7 2.7 13.4 2.5 13.3 2.6 13.2 2.8 13.4 2.9 13.3 2.9 13.3 3 13.2"/><polygon class="cls-3" points="2.4 13.5 2.3 13.5 2.3 13.6 2.4 13.5 2.4 13.5"/><rect class="cls-2" x="2.3" y="13.3" width="0.1" height="0.13"/><polygon class="cls-3" points="2.4 12.5 2.3 12.5 2.3 12.6 2.4 12.6 2.4 12.5"/><rect class="cls-2" x="2.3" y="12.7" width="0.1" height="0.13"/><polygon class="cls-3" points="2.6 13.1 2.6 13 2.4 12.9 2.3 12.9 2.3 13.2 2.4 13.2 2.6 13.1"/><polygon class="cls-3" points="3 13.1 3.1 13 3 13 3 13.1"/><rect class="cls-2" x="2.7" y="13" width="0.3" height="0.11"/><path d="M6.1,12.3h0l-.4.3h.2v-.2h0v.2H5.5l-.4.2.4.3h.2l.2.2v.2h0v-.2H5.7l.4.3h0V12.2h0Zm-.9.7h0Zm.5.1h0Zm.3-.4H6Zm.1.9h0Zm0-.2h0Zm0-.2h0Zm0-.6h0Z"/><polygon class="cls-3" points="6.1 13.9 6 13.8 6.1 13.8 6.1 13.7 5.7 13.4 5.8 13.3 5.9 13.3 5.9 13.5 5.9 13.5 5.9 13.3 5.7 13.1 5.4 13.1 5.4 13.2 5.6 13.2 5.5 13.3 5.1 13 5.5 12.8 5.6 12.9 5.4 12.9 5.4 12.9 5.7 12.9 5.9 12.8 5.9 12.6 5.9 12.6 5.9 12.8 5.8 12.8 5.7 12.7 6.1 12.4 6.1 12.3 6 12.3 6.1 12.2 6.1 12.1 6.1 12.1 5.8 12.3 6 12.3 6 12.4 5.8 12.5 5.6 12.6 5.6 12.6 5.6 12.6 5.7 12.7 5.8 12.8 5.7 12.9 5.6 12.8 5.5 12.7 5.5 12.7 5.5 12.7 5.5 12.7 5.4 12.8 5.2 12.9 5 13 5 13 5 13 5.1 13.1 5.1 13.1 5.2 13.2 5.2 13.2 5.3 13.2 5.3 13.2 5.4 13.3 5.5 13.3 5.5 13.4 5.7 13.2 5.8 13.3 5.6 13.4 6 13.7 6 13.7 5.8 13.7 6.1 14 6.1 13.9"/><polygon class="cls-3" points="6 13.5 6.1 13.6 6.1 13.5 6 13.5 6 13.5"/><rect class="cls-2" x="6" y="13.3" width="0.1" height="0.13"/><polygon class="cls-3" points="6 12.6 6.1 12.6 6.1 12.5 6 12.5 6 12.6"/><rect class="cls-2" x="6" y="12.7" width="0.1" height="0.13"/><polygon class="cls-3" points="5.7 13 5.7 13.1 5.9 13.2 6.1 13.2 6.1 12.9 5.9 12.9 5.7 13"/><polygon class="cls-3" points="5.3 13 5.2 13 5.3 13.1 5.3 13"/><rect class="cls-2" x="5.4" y="13" width="0.3" height="0.11"/><path d="M2.3,8.6V8.4l.3-.3H2.5v.2H2.4V8l.3-.2h0V8l.4-.4-.4-.3H2.7l-.3-.2V7h.2l-.3-.3V6.6H2.2V8.8l.2-.2ZM3,7.5H3Zm-.3,0H3v.2H2.7Zm-.3.6H2.3V7.9h.1ZM2.3,6.9h0Zm0,.2h.1v.2H2.3Zm0,.3h.3v.2H2.3Zm0,.8h0Z"/><polygon class="cls-3" points="2.2 6.5 2.4 6.6 2.3 6.6 2.3 6.8 2.6 7.1 2.5 7.2 2.5 7.2 2.5 7.1 2.4 7 2.4 7.3 2.7 7.5 3 7.5 2.9 7.4 2.7 7.4 2.8 7.3 3.2 7.6 2.8 8 2.7 7.8 2.9 7.8 3 7.8 2.7 7.8 2.4 8 2.4 8.2 2.5 8.2 2.5 8 2.5 8 2.6 8.1 2.3 8.4 2.3 8.6 2.4 8.6 2.2 8.8 2.2 8.9 2.5 8.6 2.3 8.6 2.3 8.5 2.7 8.1 2.5 7.9 2.6 7.8 2.8 8 3.3 7.6 2.8 7.2 2.6 7.4 2.5 7.3 2.7 7.1 2.3 6.8 2.3 6.7 2.5 6.7 2.2 6.3 2.2 6.5"/><polygon class="cls-3" points="2.4 7 2.3 6.9 2.3 7.1 2.4 7.1 2.4 7"/><rect class="cls-2" x="2.3" y="7.1" width="0.1" height="0.17"/><polygon class="cls-3" points="2.4 8.2 2.3 8.2 2.3 8.3 2.4 8.3 2.4 8.2"/><rect class="cls-2" x="2.3" y="7.9" width="0.1" height="0.17"/><polygon class="cls-3" points="2.6 7.7 2.6 7.5 2.4 7.4 2.3 7.4 2.3 7.8 2.4 7.8 2.6 7.7"/><polygon class="cls-3" points="3 7.5 3 7.7 3.1 7.6 3 7.5"/><rect class="cls-2" x="2.7" y="7.5" width="0.3" height="0.14"/><path d="M6.1,6.6v.2l-.4.3h.2v.3l-.2.2H5.5l-.4.3.4.4V7.8h.1l.2.2v.2h0V8H5.7l.4.3v.2H6V6.5h0ZM5.3,7.7h0Zm.4,0H5.4V7.5h.3ZM6,7.1h.1v.2H6Zm.1,1.2h0Zm0-.2H6V7.9h.1Zm0-.3H5.7V7.5h.4Zm0-.7h0Z"/><polygon class="cls-3" points="6.1 8.8 6 8.6 6.1 8.6 6.1 8.4 5.7 8.1 5.8 8 5.9 8 5.9 8.2 5.9 8.2 5.9 8 5.7 7.8 5.4 7.8 5.4 7.8 5.6 7.8 5.5 8 5.1 7.6 5.5 7.3 5.6 7.4 5.4 7.4 5.4 7.5 5.7 7.5 5.9 7.3 5.9 7 5.9 7.1 5.9 7.2 5.8 7.2 5.7 7.1 6.1 6.8 6.1 6.6 6 6.6 6.1 6.5 6.1 6.3 5.8 6.7 6 6.7 6 6.8 5.6 7.1 5.8 7.3 5.7 7.4 5.5 7.2 5 7.6 5.5 8 5.7 7.8 5.8 7.9 5.6 8.1 6 8.5 6 8.6 5.8 8.6 6.1 8.9 6.1 8.8"/><polygon class="cls-3" points="6 7.1 6.1 7.1 6.1 6.9 6 7 6 7.1"/><rect class="cls-2" x="6" y="7.1" width="0.1" height="0.17"/><polygon class="cls-3" points="6 8.3 6.1 8.3 6.1 8.2 6 8.2 6 8.3"/><rect class="cls-2" x="6" y="7.9" width="0.1" height="0.17"/><polygon class="cls-3" points="5.7 7.5 5.7 7.7 5.9 7.8 6.1 7.8 6.1 7.4 5.9 7.4 5.7 7.5"/><polygon class="cls-3" points="5.3 7.7 5.3 7.5 5.2 7.6 5.3 7.7"/><rect class="cls-2" x="5.4" y="7.5" width="0.3" height="0.14"/><path d="M2.3,11.9v-.2l.3-.3v-.2h0v.2H2.4v-.2l.3-.2h.1l.4-.4-.4-.3H2.7l-.3-.2v-.3h.1v.2h0v-.2L2.3,10V9.8H2.2V12h.1ZM3,10.7h.1v-.1Zm-.3.1h0Zm-.3.5h0Zm-.1-1.2h0Zm0,.2h.1v.2H2.3Zm0,.3h.1l.2.2h0l-.2.2H2.3Zm0,.8h0Z"/><polygon class="cls-3" points="2.5 11.8 2.3 11.8 2.3 11.7 2.7 11.4 2.5 11.2 2.6 11.1 2.8 11.3 3.3 10.8 2.8 10.4 2.6 10.6 2.5 10.5 2.7 10.3 2.3 10 2.3 9.9 2.5 9.9 2.2 9.6 2.2 9.7 2.4 9.8 2.3 9.8 2.3 10 2.6 10.3 2.5 10.5 2.5 10.5 2.5 10.3 2.4 10.2 2.4 10.5 2.7 10.7 3 10.7 2.9 10.6 2.7 10.6 2.8 10.5 3.2 10.8 2.8 11.2 2.7 11.1 2.9 11.1 3 11 2.7 11 2.4 11.2 2.4 11.4 2.5 11.4 2.5 11.2 2.5 11.2 2.6 11.4 2.3 11.7 2.3 11.9 2.4 11.9 2.2 12 2.2 12.1 2.2 12.1 2.2 12.1 2.5 11.8"/><polygon class="cls-3" points="2.4 10.2 2.3 10.1 2.3 10.3 2.4 10.3 2.4 10.2"/><rect class="cls-2" x="2.3" y="10.3" width="0.1" height="0.17"/><polygon class="cls-3" points="2.4 11.4 2.3 11.4 2.3 11.6 2.4 11.5 2.4 11.4"/><rect class="cls-2" x="2.3" y="11.2" width="0.1" height="0.17"/><polygon class="cls-3" points="2.6 10.9 2.6 10.8 2.4 10.6 2.3 10.6 2.3 11.1 2.4 11.1 2.6 10.9"/><polygon class="cls-3" points="3 10.7 3 11 3.1 10.8 3 10.7"/><rect class="cls-2" x="2.7" y="10.8" width="0.3" height="0.14"/><path d="M6.1,9.8V10l-.4.3v.2h.1v-.2h0v.3l-.2.2H5.5l-.4.3.4.4h.2l.2.2v.2h0v-.2H5.8v.2l.4.3v.2h0V9.7h0ZM5.3,11v-.2h.1Zm.4-.1h0Zm.3-.6h.1v.2H6Zm.1,1.3h0Zm0-.3h0Zm0-.2H5.9l-.2-.2h0l.2-.2h.2Zm0-.8h0Z"/><polygon class="cls-3" points="6.1 12.1 6.1 12 6 11.9 6.1 11.9 6.1 11.7 5.7 11.4 5.8 11.2 5.9 11.2 5.9 11.4 5.9 11.4 5.9 11.2 5.7 11 5.4 11 5.4 11.1 5.6 11.1 5.5 11.2 5.1 10.8 5.5 10.5 5.6 10.6 5.4 10.6 5.4 10.7 5.7 10.7 5.9 10.5 5.9 10.2 5.9 10.3 5.9 10.5 5.8 10.5 5.7 10.3 6.1 10 6.1 9.8 6 9.8 6.1 9.7 6.1 9.6 5.8 9.9 6 9.9 6 10 5.6 10.3 5.8 10.5 5.7 10.6 5.5 10.4 5 10.8 5.5 11.3 5.7 11.1 5.8 11.2 5.6 11.4 6 11.7 6 11.8 5.8 11.8 6.1 12.1 6.1 12.1 6.1 12.1"/><polygon class="cls-3" points="6 10.3 6.1 10.3 6.1 10.1 6 10.2 6 10.3"/><rect class="cls-2" x="6" y="10.3" width="0.1" height="0.17"/><polygon class="cls-3" points="6 11.5 6.1 11.6 6.1 11.4 6 11.4 6 11.5"/><rect class="cls-2" x="6" y="11.2" width="0.1" height="0.17"/><polygon class="cls-3" points="5.7 10.8 5.7 10.9 5.9 11.1 6.1 11.1 6.1 10.6 5.9 10.6 5.7 10.8"/><polygon class="cls-3" points="5.3 11 5.3 10.7 5.2 10.8 5.3 11"/><rect class="cls-2" x="5.4" y="10.8" width="0.3" height="0.14"/><path class="cls-3" d="M5.2,13.3H3l-.4.4v.9l.5.5H5.2l.5-.5v-.9l-.4-.4H5.2Zm.4.5v.9l-.4.4h-2l-.5-.4v-.9l.5-.4h2Z"/><polygon points="4.3 14.8 4.3 15 4.3 15 4.3 14.8 4.4 14.6 4.4 14.6 4.3 14.8"/><path d="M4.5,14H3.6v.2H4.8v-.2H4.5Zm.2.3-.2.2H3.9l-.3-.2h0l.3-.2h.6l.2.2Z"/><path d="M3.2,13.4l-.5.4v.9l.5.4h2l.4-.4v-.9l-.4-.4Zm2.4.8v.4l-.5.4H4.2v-.2l-.3-.2H3.4v-.4h0v.4h.5l.2.2V15H3.2l-.4-.4v-.7l.4-.4h1v.2l.2.2h.5v.3H5v-.4H4.3v-.2h.8l.5.4Z"/><path class="cls-4" d="M2.8,14.6l.4.4h.9v-.2l-.2-.2H3.4v-.4H2.8Zm.4.3L3,14.7h.2Zm.1-.2h.4V15H3.3Zm-.4-.4h.4v.3H2.9Z"/><path class="cls-4" d="M5.1,13.5H4.3v.2H5v.4h.6v-.3Zm-.2.3H4.7v-.3H5v.3Zm.5.4H5.1v-.3h.3Zm-.2-.4v-.2l.2.2Z"/><path class="cls-3" d="M3.9,13.8h.2v-.2H3.2l-.4.4v.3h.6v-.4Zm-.7-.2v.2H3Zm.1.6H2.9v-.3h.4Zm0-.4v-.3h.4v.3H3.3Z"/><path class="cls-3" d="M5,14.6H4.4V15h.8l.5-.4v-.4H5Zm.2.3v-.2h.2Zm-.1-.6h.3v.3H5.1ZM5,15H4.7v-.3H5Z"/><polygon class="cls-4" points="3.9 13.9 4.2 13.7 4.2 13.4 3.7 13.4 4 13.6 4 13.5 4.1 13.5 4.1 13.7 3.9 13.8 3.4 13.8 3.4 14.2 3.4 14.2 3.4 13.9 3.9 13.9"/><polygon class="cls-4" points="4.4 15 4.3 15 4.3 15 4.3 14.8 4.4 14.6 4.4 14.6 5 14.6 5 14.2 4.9 14.2 4.9 14.6 4.4 14.6 4.2 14.8 4.2 15 4.6 15 4.4 14.9 4.4 14.9 4.4 15"/><polygon class="cls-3" points="3.6 14.1 3.9 14 4.2 14 4.2 13.7 3.9 13.9 3.4 13.9 3.4 14.2 3.6 14.2 3.6 14.1"/><polygon class="cls-3" points="4.9 14.6 4.9 14.2 4.8 14.2 4.8 14.4 4.5 14.5 4.2 14.5 4.2 14.8 4.4 14.6 4.9 14.6"/><polygon class="cls-2" points="3.1 14 3 14 3 13.9 2.9 13.9 2.9 14.2 3 14.2 3 14.1 3.1 14.1 3.1 14.2 3.3 14.2 3.3 13.9 3.1 13.9 3.1 14"/><polygon class="cls-2" points="3.4 13.7 3.5 13.7 3.5 13.8 3.7 13.8 3.7 13.5 3.5 13.5 3.5 13.6 3.4 13.6 3.4 13.5 3.3 13.5 3.3 13.8 3.4 13.8 3.4 13.7"/><polygon class="cls-2" points="3 14.5 3.1 14.5 3.1 14.6 3.3 14.6 3.3 14.3 3.1 14.3 3.1 14.4 3 14.4 3 14.3 2.9 14.3 2.9 14.6 3 14.6 3 14.5"/><polygon class="cls-2" points="3.4 14.9 3.5 14.9 3.5 15 3.7 15 3.7 14.7 3.5 14.7 3.5 14.8 3.4 14.8 3.4 14.7 3.3 14.7 3.3 15 3.4 15 3.4 14.9"/><polygon class="cls-2" points="5.3 14 5.2 14 5.2 13.9 5.1 13.9 5.1 14.2 5.2 14.2 5.2 14.1 5.3 14.1 5.3 14.2 5.4 14.2 5.4 13.9 5.3 13.9 5.3 14"/><polygon class="cls-2" points="5 13.5 4.9 13.5 4.9 13.6 4.8 13.6 4.8 13.5 4.7 13.5 4.7 13.8 4.8 13.8 4.8 13.7 4.9 13.7 4.9 13.8 5 13.8 5 13.5"/><polygon class="cls-2" points="5.2 14.5 5.3 14.5 5.3 14.6 5.4 14.6 5.4 14.3 5.3 14.3 5.3 14.4 5.2 14.4 5.2 14.3 5.1 14.3 5.1 14.6 5.2 14.6 5.2 14.5"/><polygon class="cls-2" points="4.9 14.8 4.8 14.8 4.8 14.7 4.7 14.7 4.7 15 4.8 15 4.8 14.9 4.9 14.9 4.9 15 5 15 5 14.7 4.9 14.7 4.9 14.8"/><polygon class="cls-4" points="3.2 13.6 3 13.8 3.2 13.8 3.2 13.6"/><polygon class="cls-4" points="5.2 14.9 5.4 14.7 5.2 14.7 5.2 14.9"/><polygon class="cls-3" points="3.2 14.9 3.2 14.7 3 14.7 3.2 14.9"/><polygon class="cls-3" points="5.2 13.8 5.4 13.8 5.2 13.6 5.2 13.8"/><polygon class="cls-2" points="4.2 14 4.5 14 4.8 14.1 4.8 14.2 4.9 14.2 4.9 13.9 4.4 13.9 4.2 13.7 4.2 14"/><polygon class="cls-2" points="3.9 14.5 3.6 14.4 3.6 14.2 3.4 14.2 3.4 14.6 3.9 14.6 4.2 14.8 4.2 14.5 3.9 14.5"/><path class="cls-3" d="M4.2,14H3.9l-.3.2h0l.3.2h.6l.2-.2h0L4.5,14Zm-.4.3h0Zm.4,0h0Zm.3,0h0Z"/><polygon class="cls-4" points="4.1 14.2 4.2 14.3 4.3 14.2 4.2 14.2 4.1 14.2"/><polygon class="cls-4" points="3.8 14.3 3.9 14.2 3.8 14.2 3.8 14.3"/><polygon class="cls-4" points="4.5 14.3 4.5 14.2 4.4 14.2 4.5 14.3"/><path class="cls-3" d="M3.3,1.7,2.9,2h0l-.3.2v.9l.3.2h0l.4.4h.1l.2.2H4.7L5,3.8h.1l.4-.4h0l.2-.2V2.3l-.2-.2h0l-.4-.3H5l-.3-.2H3.6l-.2.2Zm.3-.1H4.7l.3.2h.1l.3.3v.2l.2.2v.8H5.4v.2l-.3.3H5l-.3.2H3.6l-.2-.2H3.3l-.4-.3V3.3H2.7V2.4l.2-.2V2l.4-.3h.1Z"/><path d="M2.9,2v.2l-.2.2v.8h.2v.2l.4.3h.1l.2.2H4.7L5,3.7h.1l.3-.3V3.3h.2V2.4l-.2-.2V2l-.3-.3H5l-.3-.2H3.6l-.2.2H3.3Zm.5-.2H5.1l.3.3h0l.2.2v.7l-.2.2v.2l-.3.2H5l-.3.2H3.6l-.2-.2H3.3L3,3.5V3.3l-.3-.2V2.4L3,2.2H3l.3-.3Z"/><path class="cls-2" d="M3,2.2l-.3.2v.7l.3.2v.2l.3.2h.1l.2.2H4.7L5,3.7h.1l.3-.2V3.3l.2-.2V2.4l-.2-.2h0l-.3-.3H3.3L3,2.1Zm.3-.3h.1l.2-.2H4.7l.2.2h.2l.2.2v.2l.2.2v.6l-.2.2h0l-.2.3H4.9l-.2.2H3.6l-.2-.2H3.3L3,3.4H3l-.2-.2V2.5L3,2.3V2.1Z"/><path class="cls-2" d="M4.1,1.9H3.8l.2.2h.1v.2H3.5l.2.2H3l-.2.2h0L3,3h.7l-.2.2h.1l.2-.2h.1V3.2h.1v.2H4l-.2.2h.3v.2h.1V3.6h.2V3.4H4.2V3.3h.1l.2.2h0l.3.2h0l-.2-.2h.8V2.8h0V2.5H4.6l.2-.2H4.2V2h.2V1.9H4.1Zm.1.4h.4v.4H4.6v.3H4.2V2.9h.1V2.3Zm.1.5H4l.2-.2v.2Zm-.2-.2v.2h.1v.4H3.7V2.9H3.6V2.4h.4Z"/><path d="M3.7,2.4v.4H4V2.3H3.7Zm.4-.1v.3H3.8V2.4h.3Z"/><polygon class="cls-4" points="4 2.8 4.2 2.8 4.2 2.6 4 2.8"/><path class="cls-2" d="M3.8,2.6h.3V2.3H3.8Z"/><path d="M4.7,2.8V2.4H4.2v.5Zm-.4-.2Z"/><polygon class="cls-2" points="4.4 2.6 4.4 2.6 4.4 2.5 4.3 2.5 4.3 2.5 4.3 2.6 4.3 2.6 4.3 2.7 4.3 2.6 4.4 2.6"/><path d="M4.3,2.8H4.2v.4h.4V2.9H4.3Zm.3,0h0v.2H4.2V3h.4Z"/><polygon class="cls-4" points="4.3 2.8 4.2 2.8 4.2 2.9 4.3 2.8"/><path class="cls-2" d="M4.3,2.9H4.2v.2h.4V2.9H4.3Z"/><path d="M3.7,2.9v.3h.4V2.9H3.7Zm.3,0Z"/><polygon class="cls-2" points="3.9 3 4 3 4 3 4 3 4.1 2.9 4 2.9 4 2.9 3.9 2.9 4 3 3.9 3"/><polygon class="cls-4" points="2.8 2.7 3 2.5 3.2 2.5 3.2 2.6 3 2.6 3 2.7 3 2.7 3.6 2.7 3.7 2.6 3.6 2.5 3.4 2.5 3.5 2.5 3.4 2.4 3.5 2.4 3.6 2.4 3.6 2.4 3.6 2.5 3.7 2.5 3.7 2.4 3.5 2.2 3.4 2.2 3.4 2.2 3.3 2.1 3.4 2.1 3.5 2.1 3.5 2.1 3.6 2.2 3.8 2.3 4 2.3 3.8 2.2 3.7 2.2 3.8 2.2 3.6 2.1 3.8 2.1 3.8 2.1 3.8 2.1 3.9 2.2 4 2.3 4.1 2.2 4.1 2 4 2 4 2.1 3.8 1.9 4.1 1.9 4.1 1.8 3.6 1.8 3.4 2 3.3 1.9 3.1 2.1 3.1 2.3 2.8 2.5 2.8 2.7"/><polygon class="cls-3" points="4.3 1.9 4.5 1.9 4.4 2.1 4.4 2 4.2 2 4.2 2.2 4.3 2.3 4.5 2.2 4.5 2.1 4.5 2.1 4.6 2.1 4.7 2.1 4.6 2.2 4.6 2.2 4.5 2.2 4.4 2.3 4.5 2.3 4.8 2.2 4.8 2.1 4.8 2.1 4.9 2.1 5 2.1 4.9 2.2 4.9 2.2 4.8 2.2 4.6 2.4 4.6 2.5 4.7 2.5 4.7 2.4 4.8 2.4 4.8 2.4 4.9 2.4 4.8 2.5 4.9 2.5 4.8 2.5 4.6 2.6 4.7 2.7 5.3 2.7 5.3 2.7 5.3 2.6 5.2 2.6 5.2 2.5 5.4 2.5 5.5 2.7 5.5 2.5 5.3 2.3 5.3 2.1 5.1 1.9 4.9 2 4.7 1.8 4.2 1.8 4.3 1.9"/><polygon class="cls-4" points="5.2 3 5.2 2.9 5.3 2.9 5.3 2.9 5.3 2.8 4.7 2.8 4.6 2.9 4.8 3 4.9 3 4.8 3.1 4.9 3.2 4.8 3.2 4.8 3.1 4.7 3.2 4.7 3.1 4.6 3 4.6 3.1 4.8 3.3 4.9 3.3 4.9 3.4 5 3.5 4.9 3.5 4.8 3.4 4.8 3.5 4.8 3.4 4.5 3.2 4.4 3.2 4.5 3.3 4.6 3.3 4.6 3.4 4.7 3.5 4.6 3.5 4.5 3.4 4.5 3.5 4.5 3.4 4.3 3.2 4.2 3.3 4.2 3.5 4.4 3.5 4.4 3.4 4.5 3.6 4.3 3.6 4.2 3.8 4.7 3.8 4.9 3.5 5.1 3.6 5.3 3.4 5.3 3.3 5.5 3.1 5.5 2.8 5.4 3 5.2 3"/><polygon class="cls-3" points="4.1 3.6 3.8 3.6 4 3.4 4 3.5 4.1 3.5 4.1 3.3 4 3.2 3.9 3.4 3.8 3.5 3.8 3.4 3.8 3.5 3.6 3.5 3.8 3.4 3.7 3.3 3.8 3.3 4 3.2 3.8 3.2 3.6 3.4 3.5 3.5 3.5 3.4 3.4 3.5 3.3 3.5 3.4 3.4 3.4 3.3 3.5 3.3 3.7 3.1 3.7 3 3.6 3.1 3.6 3.2 3.6 3.1 3.5 3.2 3.4 3.2 3.5 3.1 3.4 3 3.6 3 3.7 2.9 3.6 2.8 3 2.8 3 2.9 3 2.9 3.2 2.9 3.2 3 3 3 2.8 2.8 2.8 3.1 3.1 3.3 3.1 3.4 3.3 3.6 3.4 3.5 3.6 3.8 4.1 3.8 4.1 3.6"/><path d="M2.8,2.5v.6l.2.2H3l.3.3h.1l.2.2H4.7l.2-.2h.2l.2-.3h0l.2-.2V2.5l-.2-.2V2.1l-.2-.2H4.9l-.2-.2H3.6l-.2.2H3.3L3,2.1v.2Zm.3-.4.2-.2h.1l.2-.2H4.7l.2.2h.2l.2.2v.2l.2.2v.2h0v.3l-.2.2h0l-.2.2H4.9l-.2.3H3.6l-.2-.3H3.3l-.2-.2h0l-.3-.2V2.8h0V2.5l.3-.2Z"/><path class="cls-3" d="M5.8,16.1l-.7.2c.2-.1.2-.4.3-.5s0-.1-.1-.1a.8.8,0,0,0-.2.4l-.2.3h0a.6.6,0,0,0,.9-.3Z"/><path class="cls-3" d="M6,15.5c0,.1-.3.2-.5.5s0,.1-.1.1a.1.1,0,0,0,.1-.1,1.3,1.3,0,0,0,.1-.6h0a1.1,1.1,0,0,0-.2.8h0a.7.7,0,0,0,.6-.7Z"/><path class="cls-3" d="M6.1,15H6v.3H5.8c.1-.1,0-.4-.1-.6h0a.4.4,0,0,0,0,.5v.3h0a.9.9,0,0,0,.5-.7Z"/><path class="cls-3" d="M6.2,14.5H6.1c0,.1,0,.2-.1.2V15h0v-.5H5.8v.7c0,.1.1,0,.1,0H6a.6.6,0,0,0,.2-.5Z"/><path class="cls-3" d="M6,14.2c-.1.2,0,.4,0,.6H6a1.3,1.3,0,0,0,.1-.6Z"/><path class="cls-3" d="M5.4,16.6H4.9a.9.9,0,0,0-.7,0,1.1,1.1,0,0,0-.8,0H2.9a.6.6,0,0,0,.8.1c.1-.1.2-.2.4-.1l-.5.3h.1l.4-.4h.1l.5.4h0l-.4-.3c.1-.1.2,0,.3.1a.8.8,0,0,0,.9-.1Z"/><path class="cls-3" d="M3.4,16.4h0a.4.4,0,0,1-.1-.3L3,15.7s-.1,0,0,.1,0,.4.2.5l-.6-.2c-.1,0-.1-.1-.1,0S3.2,16.6,3.4,16.4Z"/><path class="cls-3" d="M2.9,16.2H3a1.9,1.9,0,0,0-.2-.8H2.7c0,.2.1.4.1.6a.1.1,0,0,1,.1.1.1.1,0,0,1-.1-.1c-.1-.3-.4-.4-.5-.5h0A.8.8,0,0,0,2.9,16.2Z"/><path class="cls-3" d="M2.6,15.7h0c0-.2.1-.2.1-.3a.7.7,0,0,0-.1-.5h0a.6.6,0,0,0,0,.6H2.5l-.2-.3H2.2C2.1,15.2,2.4,15.6,2.6,15.7Z"/><path class="cls-3" d="M2.4,15.1h.1v-.7h0a1.3,1.3,0,0,0-.1.5s.1.1,0,.1h0v-.4H2.1A.6.6,0,0,0,2.4,15.1Z"/><path class="cls-3" d="M2.2,14.2a1.3,1.3,0,0,0,.1.6h.1a1.3,1.3,0,0,0-.1-.6Z"/><path class="cls-4" d="M11.2,2.6a1.8,1.8,0,1,1-1,3.2,2.1,2.1,0,0,0,3.7-.6A2.1,2.1,0,0,0,11.2,2.6Z"/><polygon class="cls-4" points="9.3 3.3 9.6 3.1 9.9 3.3 9.8 2.9 10.1 2.7 9.7 2.7 9.6 2.3 9.5 2.7 9.1 2.7 9.4 2.9 9.3 3.3"/><polygon class="cls-4" points="10.7 3.8 11 3.5 11.3 3.8 11.2 3.4 11.5 3.2 11.1 3.2 11 2.8 10.9 3.2 10.5 3.2 10.8 3.4 10.7 3.8"/><polygon class="cls-4" points="9.1 4.5 9 4.1 8.9 4.5 8.5 4.5 8.8 4.7 8.7 5.1 9 4.9 9.3 5.1 9.2 4.7 9.5 4.5 9.1 4.5"/><polygon class="cls-4" points="10 4.2 10.3 4.4 10.2 4 10.5 3.8 10.1 3.8 10 3.4 9.9 3.8 9.5 3.8 9.8 4.1 9.7 4.4 10 4.2"/><polygon class="cls-4" points="10.4 5.3 10.8 5.5 10.6 5.2 11 4.9 10.6 4.9 10.4 4.6 10.3 4.9 9.9 4.9 10.2 5.2 10.1 5.5 10.4 5.3"/></svg>