<svg xmlns="http://www.w3.org/2000/svg" viewBox="0 0 30 20"><defs><style>.cls-1{fill:#fafafa;}.cls-2{fill:#ec8123;}.cls-3{fill:#006752;}</style></defs><title>cy</title><g id="Layer_56" data-name="Layer 56"><path class="cls-1" d="M27.4,0H2.6A2.5,2.5,0,0,0,0,2.5v15A2.5,2.5,0,0,0,2.6,20H27.4A2.5,2.5,0,0,0,30,17.5V2.5A2.5,2.5,0,0,0,27.4,0ZM10.8,13.8a1.4,1.4,0,0,1,1.3.3C11.6,14.4,10.8,14,10.8,13.8Zm-.2-1.1c.3,0,1.1.4,1,.9A1.5,1.5,0,0,1,10.6,12.7Zm1.1-.2c.3.2.6.9.4,1.2A1.2,1.2,0,0,1,11.7,12.5Zm-.3,2c.3-.3.6-.2,1.2-.1S11.6,14.8,11.4,14.5Zm1-1.5a.9.9,0,0,1,.2,1.1C12.3,13.8,12.1,13.2,12.4,13Zm-.3,2.1a1.1,1.1,0,0,1,1.2-.4A1.1,1.1,0,0,1,12.1,15.1Zm.8-1.7a.9.9,0,0,1,.4,1.1A1,1,0,0,1,12.9,13.4Zm-.1,2a1.1,1.1,0,0,1,1.1-.3A.9.9,0,0,1,12.8,15.4Zm.7-1.7c.3.2.7.7.5,1.1A1.1,1.1,0,0,1,13.5,13.7Zm-.1,2.1a1.2,1.2,0,0,1,1.1-.5C14.3,15.7,14.1,15.9,13.4,15.8Zm1.3-.1.5-.3-.9-.3,1,.2h.3l1-.2-.9.3.5.3-.7-.2Zm-.5-1.8a1.1,1.1,0,0,1,.5,1.2A1.5,1.5,0,0,1,14.2,13.9Zm2.6,0a1.3,1.3,0,0,1-.6,1.2A1,1,0,0,1,16.8,13.9Zm-.4,1.4a1.2,1.2,0,0,1,1.1.5A.9.9,0,0,1,16.4,15.3Zm1-1.6a1.3,1.3,0,0,1-.4,1.1C16.7,14.4,17.1,13.9,17.4,13.7ZM17,15.1a1.1,1.1,0,0,1,1.1.3A.9.9,0,0,1,17,15.1Zm1-1.7a1,1,0,0,1-.4,1.1C17.4,14.2,17.7,13.6,18,13.4Zm-.3,1.3a1,1,0,0,1,1.1.4A1,1,0,0,1,17.7,14.7Zm.9-1.7c.2.2,0,.8-.3,1.1A.9.9,0,0,1,18.6,13Zm-.2,1.4c.5-.1.8-.2,1.1.1S18.5,14.7,18.4,14.4Zm.8-1.9a1.4,1.4,0,0,1-.3,1.2A1.1,1.1,0,0,1,19.2,12.5Zm-.3,1.6a1.3,1.3,0,0,1,1.3-.3C20.1,14,19.3,14.4,18.9,14.1Zm.4-.5c-.1-.5.7-.9,1-.9S20,13.4,19.3,13.6Zm4-10.1c-.1.1-.1.3-.2.4s-.2,0-.3.1l-.4.2-.3.4c0,.1-.2.1-.3.2l-.3.3-.6.3-.5.4c-.3.2-.2.4-.3.5h-.3c-.1,0-.2-.1-.3,0s-.2.1-.2.3a.4.4,0,0,0-.2.6,1.2,1.2,0,0,0,.4.7v.2c0,.1.2.2.3.3H20v.2c.1,0,.1.2.1.2s0,.1,0,.1H19.1a.1.1,0,0,1,0,.2h-.2l-.5-.3c-.4,0-.6,0-.8.2s-.1.6-.1.8-.2.2-.2.3-.6.2-.7.2-.5.2-.5.3h-.8c-.2,0,.1.1-.4.2a.9.9,0,0,0-.8,0l-.4.3c-.4.4,0,.6,0,.7h-.6v-.2c0-.2-.2-.5-.3-.5h-.6l-.2.2h-.9c-.1,0-.1-.1-.2-.2h-.6c-.1,0-.1-.1-.2-.2l-.3-.2c0-.2,0-.1-.1-.2V10l-.3-.2a.3.3,0,0,0-.1-.2c-.1,0,0-.1,0-.2s-.1-.1-.1-.2.1-.4,0-.4L9,8.4V8.1h.1a.3.3,0,0,0,.1.2h.5c.2,0,.4-.3.5-.3l.3-.5V7.6h.1l.5-.2h.5l.7.3a.6.6,0,0,0,.5-.4,5.3,5.3,0,0,0,.1-1.2s-.1,0-.1-.3l.7.2h1.8c.3.1.3,0,.4,0s.3,0,.4,0,.3.1.5,0h.8c.2-.1.4-.4.6-.4h.5a4.2,4.2,0,0,0,1.5-.7h.3l.3-.4h.8l.3-.3h.3c.1,0,0-.1.2-.1l.5-.2A.7.7,0,0,0,23.3,3.5Z"/><path class="cls-2" d="M22.4,3.9c-.2,0-.1.1-.2.1h-.3l-.3.3h-.8l-.3.4h-.3a4.2,4.2,0,0,1-1.5.7h-.5c-.2,0-.4.3-.6.4h-.8c-.2.1-.4,0-.5,0s-.2.1-.4,0-.1.1-.4,0H13.7L13,5.9c0,.3.1.3.1.3A5.3,5.3,0,0,1,13,7.4a.6.6,0,0,1-.5.4l-.7-.3h-.5l-.5.2h-.1v.2l-.3.5c-.1,0-.3.3-.5.3H9.3a.3.3,0,0,1-.1-.2H9.1v.3l.2.4c.1,0,.1.3,0,.4s.1.1.1.2-.1.2,0,.2a.3.3,0,0,1,.1.2l.3.2v.4c.1.1.1,0,.1.2l.3.2c.1.1.1.2.2.2h.6c.1.1.1.2.2.2H12l.2-.2h.6c.1,0,.3.3.3.5v.2h.6c0-.1-.4-.3,0-.7l.4-.3a.9.9,0,0,1,.8,0c.5-.1.2-.2.4-.2h.8c0-.1.3-.3.5-.3s.2-.4.7-.2,0-.3.2-.3-.1-.7.1-.8.4-.2.8-.2l.5.3h.2a.1.1,0,0,0,0-.2h1.1s-.1,0,0-.1,0-.2-.1-.2V8.6h-.1c-.1-.1-.3-.2-.3-.3V8a1.2,1.2,0,0,1-.4-.7.4.4,0,0,1,.2-.6c0-.2,0-.2.2-.3s.2,0,.3,0h.3c.1-.1,0-.3.3-.5l.5-.4.6-.3.3-.3c.1-.1.3-.1.3-.2l.3-.4.4-.2c.1-.1.3,0,.3-.1s.1-.3.2-.4a.7.7,0,0,1-.4.2Z"/><path class="cls-3" d="M15.2,15.4l-.5.3.8-.2h-.3Z"/><path class="cls-3" d="M16.6,15.1l-1,.2h.1Z"/><path class="cls-3" d="M16.8,13.9a1,1,0,0,0-.6,1.2A1.3,1.3,0,0,0,16.8,13.9Z"/><path class="cls-3" d="M17.4,13.7c-.3.2-.7.7-.4,1.1A1.3,1.3,0,0,0,17.4,13.7Z"/><path class="cls-3" d="M18,13.4c-.3.2-.6.8-.4,1.1A1,1,0,0,0,18,13.4Z"/><path class="cls-3" d="M18.6,13a.9.9,0,0,0-.3,1.1C18.6,13.8,18.8,13.2,18.6,13Z"/><path class="cls-3" d="M19.2,12.5a1.1,1.1,0,0,0-.3,1.2A1.4,1.4,0,0,0,19.2,12.5Z"/><path class="cls-3" d="M19.3,13.6c.7-.2,1-.6,1-.9S19.2,13.1,19.3,13.6Z"/><path class="cls-3" d="M18.9,14.1c.4.3,1.2-.1,1.3-.3A1.3,1.3,0,0,0,18.9,14.1Z"/><path class="cls-3" d="M18.4,14.4c.1.3.9.4,1.1.1S18.9,14.3,18.4,14.4Z"/><path class="cls-3" d="M17.7,14.7a1,1,0,0,0,1.1.4A1,1,0,0,0,17.7,14.7Z"/><path class="cls-3" d="M17,15.1a.9.9,0,0,0,1.1.3A1.1,1.1,0,0,0,17,15.1Z"/><path class="cls-3" d="M16.4,15.3a.9.9,0,0,0,1.1.5A1.2,1.2,0,0,0,16.4,15.3Z"/><path class="cls-3" d="M15.7,15.4h-.4l-1-.2.9.3h.3l.7.2Z"/><path class="cls-3" d="M14.7,15.1a1.1,1.1,0,0,0-.5-1.2A1.5,1.5,0,0,0,14.7,15.1Z"/><path class="cls-3" d="M14,14.8c.2-.4-.2-.9-.5-1.1A1.1,1.1,0,0,0,14,14.8Z"/><path class="cls-3" d="M13.3,14.5a.9.9,0,0,0-.4-1.1A1,1,0,0,0,13.3,14.5Z"/><path class="cls-3" d="M12.4,13c-.3.2-.1.8.2,1.1A.9.9,0,0,0,12.4,13Z"/><path class="cls-3" d="M11.7,12.5a1.2,1.2,0,0,0,.4,1.2C12.3,13.4,12,12.7,11.7,12.5Z"/><path class="cls-3" d="M11.6,13.6c.1-.5-.7-.9-1-.9A1.5,1.5,0,0,0,11.6,13.6Z"/><path class="cls-3" d="M12.1,14.1a1.4,1.4,0,0,0-1.3-.3C10.8,14,11.6,14.4,12.1,14.1Z"/><path class="cls-3" d="M12.6,14.4c-.6-.1-.9-.2-1.2.1S12.5,14.7,12.6,14.4Z"/><path class="cls-3" d="M13.3,14.7a1.1,1.1,0,0,0-1.2.4A1.1,1.1,0,0,0,13.3,14.7Z"/><path class="cls-3" d="M13.9,15.1a1.1,1.1,0,0,0-1.1.3A.9.9,0,0,0,13.9,15.1Z"/><path class="cls-3" d="M13.4,15.8c.7.1.9-.1,1.1-.5A1.2,1.2,0,0,0,13.4,15.8Z"/></g></svg>