<svg id="Flags" xmlns="http://www.w3.org/2000/svg" viewBox="0 0 30 20"><defs><style>.cls-1{fill:#fff;}.cls-2{fill:#e22d34;}</style></defs><title>Artboard 71</title><path class="cls-1" d="M11.2,14a4,4,0,1,1,3-6.7A4.9,4.9,0,0,0,10,5a5,5,0,1,0,0,10,4.9,4.9,0,0,0,4.2-2.3A4,4,0,0,1,11.2,14Z"/><path class="cls-2" d="M27.4,0H2.6A2.5,2.5,0,0,0,0,2.5v15A2.5,2.5,0,0,0,2.6,20H27.4A2.5,2.5,0,0,0,30,17.5V2.5A2.5,2.5,0,0,0,27.4,0ZM10,15A5,5,0,1,1,10,5a4.9,4.9,0,0,1,4.2,2.3,4,4,0,1,0,0,5.4A4.9,4.9,0,0,1,10,15Zm8.8-3.5L17,10.9l-1,1.5V10.6l-.8-.3-1-.3,1-.3.8-.3V7.6l1,1.5,1.8-.6L17.7,10Z"/><polygon class="cls-1" points="18.8 8.5 17 9.1 16 7.6 16 9.4 15.2 9.7 14.2 10 15.2 10.3 16 10.6 16 12.4 17 10.9 18.8 11.5 17.7 10 18.8 8.5"/></svg>