<svg xmlns="http://www.w3.org/2000/svg" viewBox="0 0 30 20"><defs><style>.cls-1{fill:#249eb5;}.cls-2{fill:#ce2028;}.cls-3{fill:#fafafa;}.cls-4{fill:#2ab34b;}.cls-5{fill:#fff;}</style></defs><title>uz</title><g id="Layer_8" data-name="Layer 8"><path class="cls-1" d="M7.5,4.8c-.1,0-.1,0-.1.1h.1Z"/><rect class="cls-2" y="6.4" width="30" height="0.4"/><rect class="cls-3" y="6.8" width="30" height="6.42"/><rect class="cls-2" y="13.2" width="30" height="0.4"/><path class="cls-4" d="M0,17.5A2.5,2.5,0,0,0,2.6,20H27.4A2.5,2.5,0,0,0,30,17.5V13.6H0Z"/><path class="cls-5" d="M4.3,3.2a2,2,0,0,1,2-2h.3A2.3,2.3,0,0,0,5.2.8,2.4,2.4,0,0,0,2.8,3.2,2.4,2.4,0,0,0,5.2,5.6a3.3,3.3,0,0,0,1.4-.4H6.3A2,2,0,0,1,4.3,3.2Z"/><path class="cls-1" d="M27.4,0H2.6A2.5,2.5,0,0,0,0,2.5V6.4H30V2.5A2.5,2.5,0,0,0,27.4,0ZM15.1,1.1v0h.4l-.3.2v.3l-.3-.2-.3.2V1.3l-.3-.2Zm-1.9,0v0h.3l-.3.2.2.3-.3-.2-.3.2V1.3l-.3-.2Zm-2,0v0h.4l-.3.2v.3l-.3-.2-.3.2.2-.3-.3-.2Zm-6,4.5A2.4,2.4,0,0,1,2.8,3.2,2.4,2.4,0,0,1,5.2.8a2.3,2.3,0,0,1,1.4.4H6.3a2,2,0,0,0,0,4h.3A3.3,3.3,0,0,1,5.2,5.6Zm2.6-.2-.2-.2-.3.2V5.1h0c0-.1,0-.1.1-.1v.1H8l-.3.2Zm1.9,0-.3-.2-.3.2V5l-.3-.2h.4v0h.3L9.6,5ZM9.6,3.2v.4l-.3-.2-.3.2V3.2L8.9,3h.4V3h.4Zm2,2.2-.3-.3-.3.3V5l-.2-.2h.3v0h.4l-.3.2Zm-.1-2.2v.3l-.3-.2-.2.2V3.2L10.9,3h.3V3h.4Zm2,2.2-.2-.3-.3.3V5l-.3-.2h.3l.2-.3v.3h.3l-.3.2Zm0-2.2v.3l-.3-.2-.3.2V3.2L12.8,3h.4V3h.3Zm2,2.2-.3-.3-.3.3V5l-.3-.2h.4v0h.4l-.3.2Zm-.1-2.2v.3l-.3-.2-.3.2V3.2L14.8,3h.3V3h.4Z"/><polygon class="cls-5" points="11.3 0.8 11.2 1.1 11.3 1.1 11.3 0.8"/><polygon class="cls-5" points="11.3 1.1 11.4 1.1 11.4 1.1 11.3 0.8 11.3 1.1 11.3 1.1"/><polygon class="cls-5" points="11.4 1.1 11.4 1.2 11.4 1.2 11.4 1.2 11.4 1.2 11.8 1.1 11.4 1.1 11.4 1.1"/><polygon class="cls-5" points="11.4 1.2 11.4 1.2 11.4 1.2 11.4 1.2 11.5 1.2 11.5 1.3 11.8 1.1 11.4 1.2"/><polygon class="cls-5" points="11.4 1.2 11.4 1.2 11.4 1.2 11.4 1.2"/><polygon class="cls-5" points="10.9 1.1 11.2 1.3 11.2 1.2 10.9 1.1"/><polygon class="cls-5" points="11.4 1.2 11.4 1.2 11.4 1.2 11.4 1.2 11.4 1.2"/><polygon class="cls-5" points="11.2 1.2 11.2 1.2 11.3 1.2 11.3 1.2 11.3 1.2 11.4 1.2 11.4 1.2 11.4 1.1 11.3 1.1 11.3 1.1 11.2 1.1 10.9 1.1 11.2 1.2"/><polygon class="cls-5" points="11.5 1.2 11.4 1.2 11.4 1.2 11.4 1.3 11.4 1.3 11.4 1.3 11.6 1.6 11.5 1.3 11.5 1.2"/><polygon class="cls-5" points="11.4 1.3 11.4 1.3 11.4 1.4 11.3 1.4 11.6 1.6 11.4 1.3"/><polygon class="cls-5" points="11.3 1.2 11.4 1.3 11.4 1.2 11.4 1.2 11.4 1.2 11.4 1.2 11.4 1.2 11.4 1.2 11.3 1.2 11.3 1.2"/><polygon class="cls-5" points="11.3 1.2 11.3 1.2 11.3 1.2 11.3 1.2 11.3 1.2"/><polygon class="cls-5" points="11.4 1.4 11.4 1.3 11 1.6 11.3 1.4 11.4 1.4"/><polygon class="cls-5" points="11.4 1.3 11.4 1.3 11.4 1.3 11.4 1.3 11.3 1.2 11.3 1.2 11.2 1.2 11.2 1.2 11.2 1.3 11 1.6 11.4 1.3"/><polygon class="cls-5" points="13.3 0.8 13.2 1.1 13.2 1.1 13.3 0.8"/><polygon class="cls-5" points="13.2 1.1 13.3 1.1 13.4 1.1 13.3 0.8 13.2 1.1 13.2 1.1"/><polygon class="cls-5" points="13.3 1.1 13.3 1.2 13.3 1.2 13.3 1.2 13.3 1.2 13.7 1.1 13.4 1.1 13.3 1.1"/><polygon class="cls-5" points="13.3 1.2 13.3 1.2 13.3 1.2 13.3 1.2 13.4 1.2 13.4 1.3 13.7 1.1 13.3 1.2"/><polygon class="cls-5" points="13.3 1.2 13.3 1.2 13.3 1.2 13.3 1.2"/><polygon class="cls-5" points="12.8 1.1 13.1 1.3 13.1 1.2 12.8 1.1"/><polygon class="cls-5" points="13.3 1.2 13.3 1.2 13.3 1.2 13.3 1.2 13.3 1.2"/><polygon class="cls-5" points="13.1 1.2 13.1 1.2 13.2 1.2 13.2 1.2 13.3 1.2 13.3 1.2 13.3 1.2 13.3 1.1 13.2 1.1 13.2 1.1 13.2 1.1 12.8 1.1 13.1 1.2"/><polygon class="cls-5" points="13.4 1.2 13.3 1.2 13.3 1.2 13.4 1.3 13.4 1.3 13.4 1.3 13.6 1.6 13.4 1.3 13.4 1.2"/><polygon class="cls-5" points="13.4 1.3 13.3 1.3 13.4 1.4 13.3 1.4 13.6 1.6 13.4 1.3"/><polygon class="cls-5" points="13.3 1.2 13.4 1.3 13.3 1.2 13.3 1.2 13.3 1.2 13.3 1.2 13.3 1.2 13.3 1.2 13.3 1.2 13.3 1.2"/><polygon class="cls-5" points="13.3 1.2 13.3 1.2 13.2 1.2 13.2 1.2 13.3 1.2"/><polygon class="cls-5" points="13.4 1.4 13.3 1.3 13 1.6 13.3 1.4 13.4 1.4"/><polygon class="cls-5" points="13.3 1.3 13.4 1.3 13.4 1.3 13.4 1.3 13.3 1.2 13.2 1.2 13.1 1.2 13.1 1.2 13.1 1.3 13 1.6 13.3 1.3"/><polygon class="cls-5" points="15.2 0.8 15.1 1.1 15.2 1.1 15.2 0.8"/><polygon class="cls-5" points="15.2 1.1 15.2 1.1 15.3 1.1 15.2 0.8 15.2 1.1 15.2 1.1"/><polygon class="cls-5" points="15.2 1.1 15.2 1.2 15.2 1.2 15.2 1.2 15.2 1.2 15.7 1.1 15.3 1.1 15.2 1.1"/><polygon class="cls-5" points="15.2 1.2 15.3 1.2 15.3 1.2 15.3 1.2 15.3 1.2 15.4 1.3 15.7 1.1 15.2 1.2"/><polygon class="cls-5" points="15.2 1.2 15.2 1.2 15.2 1.2 15.2 1.2"/><polygon class="cls-5" points="14.7 1.1 15 1.3 15 1.2 14.7 1.1"/><polygon class="cls-5" points="15.3 1.2 15.3 1.2 15.3 1.2 15.3 1.2 15.3 1.2"/><polygon class="cls-5" points="15 1.2 15.1 1.2 15.1 1.2 15.2 1.2 15.2 1.2 15.2 1.2 15.2 1.2 15.2 1.1 15.2 1.1 15.2 1.1 15.1 1.1 14.7 1.1 15 1.2"/><polygon class="cls-5" points="15.3 1.2 15.3 1.2 15.3 1.2 15.3 1.3 15.3 1.3 15.3 1.3 15.5 1.6 15.4 1.3 15.3 1.2"/><polygon class="cls-5" points="15.3 1.3 15.3 1.3 15.3 1.4 15.2 1.4 15.5 1.6 15.3 1.3"/><polygon class="cls-5" points="15.2 1.2 15.3 1.3 15.3 1.2 15.3 1.2 15.2 1.2 15.2 1.2 15.2 1.2 15.2 1.2 15.2 1.2 15.2 1.2"/><polygon class="cls-5" points="15.2 1.2 15.2 1.2 15.2 1.2 15.1 1.2 15.2 1.2"/><polygon class="cls-5" points="15.3 1.4 15.3 1.3 14.9 1.6 15.2 1.4 15.3 1.4"/><polygon class="cls-5" points="15.3 1.3 15.3 1.3 15.3 1.3 15.3 1.3 15.2 1.2 15.1 1.2 15.1 1.2 15 1.2 15 1.3 14.9 1.6 15.3 1.3"/><polygon class="cls-5" points="9.4 2.7 9.3 3 9.3 3 9.4 2.7"/><polygon class="cls-5" points="9.4 3 9.4 3 9.5 3 9.4 2.7 9.3 3 9.4 3"/><polygon class="cls-5" points="9.4 3 9.4 3.1 9.4 3.1 9.4 3.1 9.4 3.1 9.9 3 9.5 3 9.4 3"/><polygon class="cls-5" points="9.4 3.1 9.4 3.1 9.5 3.1 9.5 3.1 9.5 3.1 9.6 3.2 9.9 3 9.4 3.1"/><polygon class="cls-5" points="9.4 3.1 9.4 3.1 9.4 3.1 9.4 3.1"/><polygon class="cls-5" points="8.9 3 9.2 3.2 9.2 3.2 8.9 3"/><polygon class="cls-5" points="9.5 3.1 9.5 3.1 9.4 3.1 9.5 3.1 9.5 3.1"/><polygon class="cls-5" points="9.3 3.1 9.3 3.1 9.4 3.1 9.4 3.1 9.4 3.1 9.4 3.1 9.4 3 9.4 3 9.3 3 9.3 3 8.9 3 9.2 3.2 9.3 3.1"/><polygon class="cls-5" points="9.5 3.1 9.5 3.1 9.5 3.1 9.5 3.2 9.5 3.2 9.5 3.2 9.7 3.6 9.6 3.2 9.5 3.1"/><polygon class="cls-5" points="9.4 3.1 9.4 3.2 9.5 3.2 9.5 3.1 9.4 3.1 9.4 3.1 9.4 3.1 9.4 3.1 9.4 3.1 9.4 3.1"/><polygon class="cls-5" points="9.5 3.2 9.5 3.2 9.5 3.3 9.4 3.4 9.7 3.6 9.5 3.2"/><polygon class="cls-5" points="9.4 3.1 9.4 3.1 9.3 3.1 9.4 3.2 9.4 3.1"/><polygon class="cls-5" points="9.5 3.3 9.5 3.2 9.1 3.6 9.4 3.4 9.5 3.3"/><polygon class="cls-5" points="9.5 3.2 9.5 3.2 9.5 3.2 9.5 3.2 9.4 3.2 9.3 3.1 9.3 3.1 9.2 3.2 9.2 3.2 9.1 3.6 9.5 3.2"/><polygon class="cls-5" points="11.3 2.7 11.2 3 11.3 3 11.3 2.7"/><polygon class="cls-5" points="11.3 3 11.4 3 11.4 3 11.3 2.7 11.3 3 11.3 3"/><polygon class="cls-5" points="11.4 3 11.4 3.1 11.4 3.1 11.4 3.1 11.4 3.1 11.8 3 11.4 3 11.4 3"/><polygon class="cls-5" points="11.4 3.1 11.4 3.1 11.4 3.1 11.4 3.1 11.5 3.1 11.5 3.2 11.8 3 11.4 3.1"/><polygon class="cls-5" points="11.4 3.1 11.4 3.1 11.4 3.1 11.4 3.1"/><polygon class="cls-5" points="10.9 3 11.2 3.2 11.2 3.2 10.9 3"/><polygon class="cls-5" points="11.4 3.1 11.4 3.1 11.4 3.1 11.4 3.1 11.4 3.1"/><polygon class="cls-5" points="11.2 3.1 11.3 3.1 11.3 3.1 11.3 3.1 11.4 3.1 11.4 3.1 11.4 3 11.3 3 11.3 3 11.2 3 10.9 3 11.2 3.2 11.2 3.1"/><polygon class="cls-5" points="11.5 3.1 11.4 3.1 11.4 3.1 11.4 3.2 11.4 3.2 11.4 3.2 11.6 3.5 11.5 3.2 11.5 3.1"/><polygon class="cls-5" points="11.3 3.1 11.4 3.1 11.4 3.2 11.4 3.1 11.4 3.1 11.4 3.1 11.4 3.1 11.4 3.1 11.4 3.1 11.3 3.1"/><polygon class="cls-5" points="11.4 3.2 11.4 3.2 11.4 3.3 11.3 3.3 11.6 3.5 11.4 3.2"/><polygon class="cls-5" points="11.3 3.1 11.3 3.1 11.3 3.1 11.4 3.1 11.3 3.1"/><polygon class="cls-5" points="11.4 3.3 11.4 3.2 11.1 3.5 11.3 3.3 11.4 3.3"/><polygon class="cls-5" points="11.4 3.2 11.4 3.2 11.4 3.2 11.4 3.2 11.4 3.1 11.3 3.1 11.2 3.1 11.2 3.2 11.2 3.2 11.1 3.5 11.4 3.2"/><polygon class="cls-5" points="13.3 2.7 13.2 3 13.2 3 13.3 2.7"/><polygon class="cls-5" points="13.3 3 13.3 3 13.4 3 13.3 2.7 13.2 3 13.3 3"/><polygon class="cls-5" points="13.3 3 13.3 3.1 13.3 3.1 13.3 3.1 13.3 3.1 13.7 3 13.4 3 13.3 3"/><polygon class="cls-5" points="13.3 3.1 13.3 3.1 13.3 3.1 13.3 3.1 13.4 3.1 13.4 3.2 13.7 3 13.3 3.1"/><polygon class="cls-5" points="13.3 3.1 13.3 3.1 13.3 3.1 13.3 3.1"/><polygon class="cls-5" points="12.8 3 13.1 3.2 13.1 3.2 12.8 3"/><polygon class="cls-5" points="13.3 3.1 13.3 3.1 13.3 3.1 13.3 3.1 13.3 3.1"/><polygon class="cls-5" points="13.1 3.1 13.2 3.1 13.2 3.1 13.3 3.1 13.3 3.1 13.3 3.1 13.3 3 13.3 3 13.2 3 13.2 3 12.8 3 13.1 3.2 13.1 3.1"/><polygon class="cls-5" points="13.4 3.1 13.3 3.1 13.3 3.1 13.4 3.2 13.4 3.2 13.4 3.2 13.6 3.5 13.4 3.2 13.4 3.1"/><polygon class="cls-5" points="13.3 3.1 13.3 3.1 13.4 3.2 13.3 3.1 13.3 3.1 13.3 3.1 13.3 3.1 13.3 3.1 13.3 3.1 13.3 3.1"/><polygon class="cls-5" points="13.4 3.2 13.3 3.2 13.4 3.3 13.3 3.3 13.6 3.5 13.4 3.2"/><polygon class="cls-5" points="13.3 3.1 13.2 3.1 13.2 3.1 13.3 3.1 13.3 3.1"/><polygon class="cls-5" points="13.4 3.3 13.3 3.2 13 3.5 13.3 3.3 13.4 3.3"/><polygon class="cls-5" points="13.3 3.2 13.4 3.2 13.4 3.2 13.4 3.2 13.3 3.1 13.2 3.1 13.1 3.1 13.1 3.2 13.1 3.2 13 3.5 13.3 3.2"/><polygon class="cls-5" points="15.2 2.7 15.1 3 15.2 3 15.2 2.7"/><polygon class="cls-5" points="15.2 3 15.2 3 15.3 3 15.2 2.7 15.2 3 15.2 3"/><polygon class="cls-5" points="15.2 3 15.2 3.1 15.2 3.1 15.2 3.1 15.3 3.1 15.7 3 15.3 3 15.2 3"/><polygon class="cls-5" points="15.3 3.1 15.3 3.1 15.3 3.1 15.3 3.1 15.3 3.1 15.4 3.2 15.7 3 15.3 3.1"/><polygon class="cls-5" points="15.2 3.1 15.2 3.1 15.2 3.1 15.2 3.1"/><polygon class="cls-5" points="14.8 3 15 3.2 15.1 3.2 14.8 3"/><polygon class="cls-5" points="15.3 3.1 15.3 3.1 15.3 3.1 15.3 3.1 15.3 3.1"/><polygon class="cls-5" points="15.1 3.1 15.2 3.1 15.2 3.1 15.2 3.1 15.2 3.1 15.2 3.1 15.2 3 15.2 3 15.2 3 15.1 3 14.8 3 15.1 3.2 15.1 3.1"/><polygon class="cls-5" points="15.3 3.1 15.3 3.1 15.3 3.1 15.3 3.2 15.3 3.2 15.3 3.2 15.5 3.5 15.4 3.2 15.3 3.1"/><polygon class="cls-5" points="15.2 3.1 15.2 3.1 15.3 3.2 15.3 3.1 15.3 3.1 15.3 3.1 15.2 3.1 15.2 3.1 15.2 3.1 15.2 3.1"/><polygon class="cls-5" points="15.3 3.2 15.3 3.2 15.3 3.3 15.2 3.3 15.5 3.5 15.3 3.2"/><polygon class="cls-5" points="15.2 3.1 15.2 3.1 15.2 3.1 15.2 3.1 15.2 3.1"/><polygon class="cls-5" points="15.3 3.3 15.3 3.2 14.9 3.5 15.2 3.3 15.3 3.3"/><polygon class="cls-5" points="15.3 3.2 15.3 3.2 15.3 3.2 15.3 3.2 15.2 3.1 15.2 3.1 15.1 3.1 15.1 3.2 15 3.2 14.9 3.5 15.3 3.2"/><polygon class="cls-5" points="9.4 4.5 9.3 4.8 9.3 4.8 9.4 4.5"/><polygon class="cls-5" points="9.4 4.8 9.4 4.8 9.5 4.8 9.4 4.5 9.3 4.8 9.4 4.8"/><polygon class="cls-5" points="9.4 4.8 9.4 4.9 9.4 4.9 9.4 4.9 9.4 4.9 9.8 4.8 9.5 4.8 9.4 4.8"/><polygon class="cls-5" points="9.4 4.9 9.4 4.9 9.4 4.9 9.4 4.9 9.5 4.9 9.6 5 9.8 4.8 9.4 4.9"/><polygon class="cls-5" points="9.4 4.9 9.4 4.9 9.4 4.9 9.4 4.9"/><polygon class="cls-5" points="8.9 4.8 9.2 5 9.2 5 8.9 4.8"/><polygon class="cls-5" points="9.4 4.9 9.4 4.9 9.4 4.9 9.4 4.9 9.4 4.9"/><polygon class="cls-5" points="9.2 4.9 9.3 4.9 9.3 4.9 9.4 5 9.4 4.9 9.4 4.9 9.4 4.8 9.4 4.8 9.3 4.8 9.3 4.8 8.9 4.8 9.2 5 9.2 4.9"/><polygon class="cls-5" points="9.5 4.9 9.4 4.9 9.4 4.9 9.5 5 9.5 5 9.5 5 9.7 5.4 9.6 5 9.5 4.9"/><polygon class="cls-5" points="9.4 4.9 9.4 4.9 9.4 5 9.4 5 9.5 5 9.4 4.9 9.4 4.9 9.4 4.9 9.4 4.9 9.4 4.9"/><polygon class="cls-5" points="9.5 5 9.4 5 9.5 5.1 9.4 5.2 9.7 5.4 9.5 5"/><polygon class="cls-5" points="9.4 5 9.3 4.9 9.3 4.9 9.4 5 9.4 5"/><polygon class="cls-5" points="9.5 5.1 9.4 5 9.1 5.4 9.4 5.2 9.5 5.1"/><polygon class="cls-5" points="9.4 5 9.5 5 9.5 5 9.5 5 9.4 5 9.3 4.9 9.2 4.9 9.2 5 9.2 5 9.1 5.4 9.4 5"/><polygon class="cls-5" points="11.3 4.5 11.2 4.8 11.3 4.8 11.3 4.5"/><polygon class="cls-5" points="11.3 4.8 11.3 4.8 11.4 4.8 11.3 4.5 11.3 4.8 11.3 4.8"/><polygon class="cls-5" points="11.3 4.8 11.3 4.9 11.3 4.9 11.4 4.9 11.4 4.9 11.8 4.8 11.4 4.8 11.3 4.8"/><polygon class="cls-5" points="11.4 4.9 11.4 4.9 11.4 4.9 11.4 4.9 11.5 4.9 11.5 5 11.8 4.8 11.4 4.9"/><polygon class="cls-5" points="11.3 4.9 11.3 4.9 11.3 4.9 11.3 4.9"/><polygon class="cls-5" points="10.9 4.8 11.1 5 11.2 5 10.9 4.8"/><polygon class="cls-5" points="11.4 4.9 11.4 4.9 11.4 4.9 11.4 4.9 11.4 4.9"/><polygon class="cls-5" points="11.2 4.9 11.3 4.9 11.3 4.9 11.3 4.9 11.3 4.9 11.3 4.9 11.3 4.8 11.3 4.8 11.3 4.8 11.2 4.8 10.9 4.8 11.2 5 11.2 4.9"/><polygon class="cls-5" points="11.5 4.9 11.4 4.9 11.4 4.9 11.4 5 11.4 5 11.4 5 11.6 5.4 11.5 5 11.5 4.9"/><polygon class="cls-5" points="11.3 4.9 11.3 4.9 11.3 4.9 11.3 4.9 11.4 5 11.4 4.9 11.4 4.9 11.4 4.9 11.4 4.9 11.3 4.9"/><polygon class="cls-5" points="11.4 5 11.4 5 11.4 5.1 11.3 5.1 11.6 5.4 11.4 5"/><polygon class="cls-5" points="11.3 4.9 11.3 4.9 11.3 4.9 11.3 4.9 11.3 4.9"/><polygon class="cls-5" points="11.4 5.1 11.4 5 11 5.4 11.3 5.1 11.4 5.1"/><polygon class="cls-5" points="11.4 5 11.4 5 11.4 5 11.4 5 11.3 4.9 11.3 4.9 11.2 4.9 11.2 5 11.1 5 11 5.4 11.4 5"/><polygon class="cls-5" points="13.3 4.5 13.1 4.8 13.2 4.8 13.3 4.5"/><polygon class="cls-5" points="13.2 4.8 13.3 4.8 13.4 4.8 13.3 4.5 13.2 4.8 13.2 4.8"/><polygon class="cls-5" points="13.3 4.8 13.3 4.9 13.3 4.9 13.3 4.9 13.3 4.9 13.7 4.8 13.4 4.8 13.3 4.8"/><polygon class="cls-5" points="13.3 4.9 13.3 4.9 13.3 4.9 13.3 4.9 13.4 4.9 13.4 5 13.7 4.8 13.3 4.9"/><polygon class="cls-5" points="13.3 4.9 13.3 4.9 13.3 4.9 13.3 4.9"/><polygon class="cls-5" points="12.8 4.8 13.1 5 13.1 5 12.8 4.8"/><polygon class="cls-5" points="13.3 4.9 13.3 4.9 13.3 4.9 13.3 4.9 13.3 4.9"/><polygon class="cls-5" points="13.1 4.9 13.2 4.9 13.2 4.9 13.3 4.9 13.3 4.9 13.3 4.9 13.3 4.8 13.2 4.8 13.2 4.8 13.1 4.8 12.8 4.8 13.1 5 13.1 4.9"/><polygon class="cls-5" points="13.4 4.9 13.3 4.9 13.3 4.9 13.3 5 13.3 5 13.3 5 13.5 5.4 13.4 5 13.4 4.9"/><polygon class="cls-5" points="13.3 4.9 13.3 4.9 13.3 4.9 13.3 4.9 13.3 5 13.3 4.9 13.3 4.9 13.3 4.9 13.3 4.9 13.3 4.9"/><polygon class="cls-5" points="13.3 5 13.3 5 13.4 5.1 13.3 5.1 13.5 5.4 13.3 5"/><polygon class="cls-5" points="13.3 4.9 13.2 4.9 13.2 4.9 13.3 4.9 13.3 4.9"/><polygon class="cls-5" points="13.4 5.1 13.3 5 13 5.4 13.3 5.1 13.4 5.1"/><polygon class="cls-5" points="13.3 5 13.3 5 13.3 5 13.3 5 13.3 4.9 13.2 4.9 13.1 4.9 13.1 5 13.1 5 13 5.4 13.3 5"/><polygon class="cls-5" points="15.2 4.5 15.1 4.8 15.1 4.8 15.2 4.5"/><polygon class="cls-5" points="15.2 4.8 15.2 4.8 15.3 4.8 15.2 4.5 15.1 4.8 15.2 4.8"/><polygon class="cls-5" points="15.2 4.8 15.2 4.9 15.2 4.9 15.2 4.9 15.2 4.9 15.7 4.8 15.3 4.8 15.2 4.8"/><polygon class="cls-5" points="15.2 4.9 15.2 4.9 15.3 4.9 15.3 4.9 15.3 4.9 15.4 5 15.7 4.8 15.2 4.9"/><polygon class="cls-5" points="15.2 4.9 15.2 4.9 15.2 4.9 15.2 4.9"/><polygon class="cls-5" points="14.7 4.8 15 5 15 5 14.7 4.8"/><polygon class="cls-5" points="15.3 4.9 15.3 4.9 15.2 4.9 15.2 4.9 15.3 4.9"/><polygon class="cls-5" points="15.1 4.9 15.1 4.9 15.2 4.9 15.2 4.9 15.2 4.9 15.2 4.9 15.2 4.8 15.2 4.8 15.1 4.8 15.1 4.8 14.7 4.8 15 5 15.1 4.9"/><polygon class="cls-5" points="15.3 4.9 15.3 4.9 15.2 4.9 15.3 5 15.3 5 15.3 5 15.5 5.4 15.4 5 15.3 4.9"/><polygon class="cls-5" points="15.2 4.9 15.2 4.9 15.2 4.9 15.2 4.9 15.3 5 15.2 4.9 15.2 4.9 15.2 4.9 15.2 4.9 15.2 4.9"/><polygon class="cls-5" points="15.3 5 15.3 5 15.3 5.1 15.2 5.1 15.5 5.4 15.3 5"/><polygon class="cls-5" points="15.2 4.9 15.2 4.9 15.1 4.9 15.2 4.9 15.2 4.9"/><polygon class="cls-5" points="15.3 5.1 15.3 5 14.9 5.4 15.2 5.1 15.3 5.1"/><polygon class="cls-5" points="15.3 5 15.3 5 15.3 5 15.3 5 15.2 4.9 15.1 4.9 15.1 4.9 15 5 15 5 14.9 5.4 15.3 5"/><polygon class="cls-5" points="7.4 4.9 7.5 4.9 7.6 4.5 7.5 4.8 7.4 4.9"/><polygon class="cls-5" points="7.6 4.5 7.5 4.9 7.5 4.9 7.6 4.9 7.7 4.9 7.6 4.7 7.6 4.5"/><polygon class="cls-5" points="7.6 4.9 7.6 4.9 7.6 4.9 7.6 4.9 7.6 4.9 8 4.9 7.7 4.9 7.6 4.9"/><polygon class="cls-5" points="7.6 4.9 7.6 4.9 7.6 4.9 7.6 5 7.7 4.9 7.7 5.1 8 4.9 7.6 4.9"/><polygon class="cls-5" points="7.6 4.9 7.6 4.9 7.6 4.9 7.6 4.9"/><polygon class="cls-5" points="7.1 4.9 7.2 5 7.4 5.1 7.4 5 7.1 4.9"/><polygon class="cls-5" points="7.6 5 7.6 4.9 7.6 4.9 7.6 5 7.6 5"/><polygon class="cls-5" points="7.4 4.9 7.1 4.9 7.4 5 7.4 4.9 7.5 5 7.5 4.9 7.6 5 7.6 4.9 7.6 4.9 7.6 4.9 7.5 4.9 7.5 4.9 7.4 4.9 7.4 4.9"/><polygon class="cls-5" points="7.7 4.9 7.6 5 7.6 5 7.6 5 7.6 5 7.6 5 7.8 5.4 7.7 5.1 7.7 4.9"/><polygon class="cls-5" points="7.6 5 7.6 5 7.6 5 7.6 5 7.6 4.9 7.6 4.9 7.6 4.9 7.6 4.9 7.6 4.9 7.6 5"/><polygon class="cls-5" points="7.6 5 7.6 5.1 7.7 5.1 7.6 5.2 7.8 5.4 7.6 5"/><polygon class="cls-5" points="7.6 5 7.5 4.9 7.5 5 7.6 5 7.6 5"/><polygon class="cls-5" points="7.7 5.1 7.6 5.1 7.3 5.4 7.6 5.2 7.7 5.1"/><polygon class="cls-5" points="7.6 5.1 7.6 5 7.6 5 7.6 5 7.6 5 7.5 5 7.4 4.9 7.4 5 7.4 5.1 7.3 5.4 7.6 5.1"/></g></svg>