<svg id="Flags" xmlns="http://www.w3.org/2000/svg" viewBox="0 0 30 20"><defs><style>.cls-1{fill:#ce2931;}.cls-2{fill:#fbd632;}</style></defs><title>Artboard 61</title><path class="cls-1" d="M27.4,0H2.6A2.5,2.5,0,0,0,0,2.5v15A2.5,2.5,0,0,0,2.6,20H27.4A2.5,2.5,0,0,0,30,17.5V2.5A2.5,2.5,0,0,0,27.4,0ZM18.9,15.4,15,12.6l-3.9,2.8,1.5-4.6-4-2.9h4.9L15,3.3l1.5,4.6h4.9l-4,2.9Z"/><polygon class="cls-2" points="16.5 7.9 15 3.3 13.5 7.9 8.6 7.9 12.6 10.8 11.1 15.4 15 12.6 18.9 15.4 17.4 10.8 21.4 7.9 16.5 7.9"/></svg>