<svg xmlns="http://www.w3.org/2000/svg" viewBox="0 0 30 20"><defs><style>.cls-1{fill:#e2432d;}.cls-2{fill:#f8e132;}.cls-3{fill:#166c48;}.cls-4{fill:#2caedb;}.cls-5{fill:#f8dd11;}.cls-6{fill:none;stroke:#010101;stroke-linecap:round;stroke-linejoin:round;stroke-width:0;}</style></defs><title>et</title><g id="Layer_44" data-name="Layer 44"><path class="cls-1" d="M15,15a5,5,0,0,1-3.8-1.7H0v4.2A2.5,2.5,0,0,0,2.5,20h25A2.5,2.5,0,0,0,30,17.5V13.3H18.8A5,5,0,0,1,15,15Z"/><path class="cls-2" d="M20,10a4.6,4.6,0,0,1-1.2,3.3H30V6.7H18.8A4.6,4.6,0,0,1,20,10Z"/><path class="cls-2" d="M10,10a4.6,4.6,0,0,1,1.2-3.3H0v6.6H11.2A4.6,4.6,0,0,1,10,10Z"/><path class="cls-3" d="M27.5,0H2.5A2.5,2.5,0,0,0,0,2.5V6.7H11.2a5.1,5.1,0,0,1,7.6,0H30V2.5A2.5,2.5,0,0,0,27.5,0Z"/><path class="cls-4" d="M11.2,13.3a5.1,5.1,0,0,0,7.6,0A4.6,4.6,0,0,0,20,10a4.6,4.6,0,0,0-1.2-3.3,5.1,5.1,0,0,0-7.6,0A4.6,4.6,0,0,0,10,10,4.6,4.6,0,0,0,11.2,13.3Zm6-.6.2.5L15,11.5l-1.7,1.3v-.6L16,10.4v.3l-.8.6Zm-2.6-1.5-.8-.5-.7,2.2-.5.3.9-2.7L11.8,9.2h.6L14.9,11Zm-1.4-.6-2,.6ZM15,14v0Zm1.8-3.4,2,.6Zm-.3-.1.6,2-.4-.3-1-3h.4l.3.9,1.9-1.4h.5Zm.9-3.7L16.1,8.5Zm-2.6-.3L15,6l.9,2.7h2.2l-.5.4H14.5V8.7h1Zm-.9,2L12.6,6.8Zm.2.2.7-2v.6L14,10.2l-.3-.2.3-.9H11.6l-.4-.4Z"/><polygon class="cls-5" points="16.4 10.1 16.1 9.2 15.7 9.2 16.7 12.2 17.1 12.5 16.5 10.5 18.8 8.7 18.3 8.7 16.4 10.1"/><polygon class="cls-5" points="11.8 9.2 13.5 10.5 12.6 13.2 13.1 12.9 13.8 10.7 14.6 11.2 14.9 11 12.4 9.2 11.8 9.2"/><polygon class="cls-5" points="14.6 8.7 14.5 9.1 17.6 9.1 18.1 8.7 15.9 8.7 15 6 14.8 6.5 15.6 8.7 14.6 8.7"/><polygon class="cls-5" points="16 10.4 13.4 12.2 13.3 12.8 15 11.5 17.4 13.2 17.2 12.7 15.3 11.3 16.1 10.7 16 10.4"/><polygon class="cls-5" points="14 9.1 13.7 10 14 10.2 14.9 7.3 14.8 6.7 14.1 8.7 11.2 8.7 11.6 9.1 14 9.1"/><line class="cls-6" x1="16.1" y1="8.5" x2="17.4" y2="6.8"/><line class="cls-6" x1="16.8" y1="10.6" x2="18.8" y2="11.2"/><line class="cls-6" x1="13.2" y1="10.6" x2="11.2" y2="11.2"/><line class="cls-6" x1="13.9" y1="8.5" x2="12.6" y2="6.8"/></g></svg>