<svg xmlns="http://www.w3.org/2000/svg" viewBox="0 0 30 20"><defs><style>.cls-1{fill:#ed2f31;}.cls-2{fill:#2b3187;}.cls-3{fill:#fff;}</style></defs><title>tw</title><g id="Layer_24" data-name="Layer 24"><path class="cls-1" d="M27.5,0H15V10H0v7.5A2.5,2.5,0,0,0,2.5,20h25A2.5,2.5,0,0,0,30,17.5V2.5A2.5,2.5,0,0,0,27.5,0Z"/><path class="cls-2" d="M15,0H2.5A2.5,2.5,0,0,0,0,2.5V10H15ZM10.7,6.9,9,6.4v.2l.4,1.6L8.1,7H7.9L7.4,8.7,7,7.1H6.8L5.5,8.2,6,6.6l-.2-.2-1.6.5L5.4,5.6V5.4L3.7,5l1.6-.5c.1,0,.1-.1.1-.2L4.2,3.1l1.6.5L6,3.4,5.5,1.7,6.8,3c0-.1.1-.1.2-.1l.4-1.7.5,1.7h.2L9.3,1.7,8.9,3.4a.3.3,0,0,1,.1.2l1.7-.5L9.5,4.3v.2l1.7.5-1.7.4v.2Z"/><path class="cls-3" d="M7.9,2.9,7.4,1.2,7,2.9h.9Z"/><path class="cls-3" d="M9.5,5.4,11.2,5,9.5,4.5a.9.9,0,0,1,.1.5A.6.6,0,0,1,9.5,5.4Z"/><path class="cls-3" d="M5.3,4.5,3.7,5l1.6.4V4.5Z"/><path class="cls-3" d="M7,7.1l.4,1.6.5-1.6H7Z"/><path class="cls-3" d="M9.3,1.7,8.1,3c.3,0,.5.2.8.4Z"/><path class="cls-3" d="M4.2,3.1,5.4,4.3a1.6,1.6,0,0,1,.4-.7Z"/><path class="cls-3" d="M10.7,6.9,9.5,5.6a2.2,2.2,0,0,1-.5.8Z"/><path class="cls-3" d="M5.5,8.2,6.8,7,6,6.6Z"/><path class="cls-3" d="M9.3,8.2,8.9,6.6,8.1,7Z"/><path class="cls-3" d="M4.2,6.9l1.6-.5a2,2,0,0,1-.4-.8Z"/><path class="cls-3" d="M10.7,3.1,9,3.6a1.8,1.8,0,0,1,.5.7Z"/><path class="cls-3" d="M5.5,1.7,6,3.4A1.2,1.2,0,0,1,6.8,3Z"/><path class="cls-2" d="M9.6,5a.9.9,0,0,0-.1-.5V4.3A1.8,1.8,0,0,0,9,3.6a.3.3,0,0,0-.1-.2c-.3-.2-.5-.4-.8-.4H7c-.1,0-.2,0-.2.1a1.2,1.2,0,0,0-.8.4l-.2.2a1.6,1.6,0,0,0-.4.7c0,.1,0,.2-.1.2V5.6a2,2,0,0,0,.4.8l.2.2.8.4H8.1l.8-.4V6.4a2.2,2.2,0,0,0,.5-.8V5.4A.6.6,0,0,0,9.6,5ZM5.5,5A1.9,1.9,0,0,1,7.4,3.1,1.8,1.8,0,0,1,9.3,5,1.9,1.9,0,0,1,7.4,6.9,2,2,0,0,1,5.5,5Z"/><path class="cls-3" d="M9.3,5A1.8,1.8,0,0,0,7.4,3.1,1.9,1.9,0,0,0,5.5,5,2,2,0,0,0,7.4,6.9,1.9,1.9,0,0,0,9.3,5Z"/></g></svg>