<svg id="Layer_1" data-name="Layer 1" xmlns="http://www.w3.org/2000/svg" viewBox="0 0 200 12.3"><defs><style>.cls-1{fill:#23a2bb;}</style></defs><title>button-link</title><path class="cls-1" d="M.6,10.6,2.7.6H3.9l-2.1,10Z"/><path class="cls-1" d="M7.3.6V.8L6.6,2.3,5.6,4.1H4.7Q5.6,2,6.1.6Z"/><path class="cls-1" d="M11,10.6l1-4.7a5.6,5.6,0,0,0,.1-.9,1.2,1.2,0,0,0-.2-.7.9.9,0,0,0-.7-.3,1.8,1.8,0,0,0-1.1.4,3.6,3.6,0,0,0-1,1.2,6.8,6.8,0,0,0-.6,1.8l-.7,3.2H6.6L8.2,3.1h1L9,4.5h.1a4.3,4.3,0,0,1,1.2-1.2A2.3,2.3,0,0,1,11.5,3a1.6,1.6,0,0,1,1.2.4,2,2,0,0,1,.5,1.2h.1a4.4,4.4,0,0,1,1.3-1.3A2.5,2.5,0,0,1,15.8,3a1.8,1.8,0,0,1,1.3.5,1.8,1.8,0,0,1,.5,1.4A6.5,6.5,0,0,1,17.5,6l-1,4.6H15.3l1-4.7a6.2,6.2,0,0,0,.1-1,1,1,0,0,0-.2-.7,1,1,0,0,0-.7-.3,1.8,1.8,0,0,0-1.1.4,3.5,3.5,0,0,0-.9,1.1,6.2,6.2,0,0,0-.6,1.7l-.7,3.4Z"/><path class="cls-1" d="M26.4,3a1.9,1.9,0,0,1,1.1.3,2.2,2.2,0,0,1,.8,1h.1l.5-1.2h.9l-1.6,7.5h-.9l.2-1.4h-.1a3.4,3.4,0,0,1-2.6,1.6,1.8,1.8,0,0,1-1.5-.7,2.9,2.9,0,0,1-.5-1.9,7.1,7.1,0,0,1,.5-2.6,4.6,4.6,0,0,1,1.3-1.9A2.9,2.9,0,0,1,26.4,3ZM25.1,9.8a1.9,1.9,0,0,0,1.3-.6,4.7,4.7,0,0,0,1.1-1.6,5.4,5.4,0,0,0,.4-2,1.6,1.6,0,0,0-.4-1.1,1.3,1.3,0,0,0-1-.4,1.9,1.9,0,0,0-1.3.6,4,4,0,0,0-1,1.6,6.4,6.4,0,0,0-.3,2.1,1.8,1.8,0,0,0,.3,1.2A1.1,1.1,0,0,0,25.1,9.8Z"/><path class="cls-1" d="M35.1,10.6H34L36.3,0h1.1Z"/><path class="cls-1" d="M38.7,10.6H37.5l1.6-7.5h1.1Zm.8-9.4a.9.9,0,0,1,.2-.6l.6-.2a.5.5,0,0,1,.6.6.9.9,0,0,1-.2.6l-.5.3-.5-.2A.6.6,0,0,1,39.5,1.2Z"/><path class="cls-1" d="M45.7,10.6l1-4.7a6.3,6.3,0,0,0,.1-1,1,1,0,0,0-.2-.7,1,1,0,0,0-.8-.3,2,2,0,0,0-1.2.4,3.7,3.7,0,0,0-1,1.2,6.2,6.2,0,0,0-.7,1.8l-.7,3.2H41.1l1.6-7.5h1l-.2,1.4h.1a4.6,4.6,0,0,1,1.3-1.2A2.5,2.5,0,0,1,46.1,3a1.9,1.9,0,0,1,1.4.5A1.7,1.7,0,0,1,48,4.8,5.6,5.6,0,0,1,47.8,6l-1,4.6Z"/><path class="cls-1" d="M51,6.8l3.6-3.7H56L52.8,6.3l2,4.3H53.5L51.9,7.1l-1,.8-.6,2.7H49.2L51.4,0h1.2l-.9,4.1A24.5,24.5,0,0,1,51,6.8Z"/><path class="cls-1" d="M0,12v-.7H55.6V12Z"/></svg>