<svg id="Layer_1" data-name="Layer 1" xmlns="http://www.w3.org/2000/svg" viewBox="0 0 200 32"><defs><style>.cls-1{fill:#555;}</style></defs><title>paragraph-14px</title><path class="cls-1" d="M3.6,10.6H2.5V3.5q0-.9.1-1.7l-.3.3L.6,3.5,0,2.7,2.6.6h1Z"/><path class="cls-1" d="M14.4,8.3H13v2.3H11.9V8.3H7v-1L11.8.6H13V7.3h1.5Zm-2.6-1V4q0-1,.1-2.2h-.1l-.6,1.1L8.1,7.3Z"/><path class="cls-1" d="M23.1,10.8l-1.3-.3a2.5,2.5,0,0,1-1-.8h-.1a10.1,10.1,0,0,1,.1,1.2V14H19.6V3.1h.9l.2,1h.1a2.6,2.6,0,0,1,1-.9A3.1,3.1,0,0,1,23.1,3a2.8,2.8,0,0,1,2.3,1,4.5,4.5,0,0,1,.8,2.9,4.5,4.5,0,0,1-.8,2.9A2.8,2.8,0,0,1,23.1,10.8ZM22.9,4a2,2,0,0,0-1.7.6,3.3,3.3,0,0,0-.5,2v.3a3.7,3.7,0,0,0,.5,2.3,2,2,0,0,0,1.7.7A1.8,1.8,0,0,0,24.4,9,3.7,3.7,0,0,0,25,6.9a3.6,3.6,0,0,0-.5-2.1A1.8,1.8,0,0,0,22.9,4Z"/><path class="cls-1" d="M29.9,6.8,27.3,3.1h1.3l2,2.9,2-2.9h1.3L31.3,6.8,34,10.6H32.7l-2.1-3-2.1,3H27.2Z"/><path class="cls-1" d="M38.5,7.4v-1h3.4v1Z"/><path class="cls-1" d="M48.6,6.5v4.2H47.4V.6h2.7a4.3,4.3,0,0,1,2.7.7,2.6,2.6,0,0,1,.9,2.1,2.7,2.7,0,0,1-2,2.7l2.7,4.5H53.1L50.7,6.5Zm0-1h1.6A2.8,2.8,0,0,0,52,5a1.8,1.8,0,0,0,.6-1.5A1.7,1.7,0,0,0,52,2.1a3.2,3.2,0,0,0-1.9-.4H48.6Z"/><path class="cls-1" d="M59.1,10.8a3.4,3.4,0,0,1-2.6-1,3.9,3.9,0,0,1-1-2.8,4.3,4.3,0,0,1,.9-2.9A3,3,0,0,1,58.8,3a2.8,2.8,0,0,1,2.2.9,3.6,3.6,0,0,1,.8,2.4v.7H56.7a3,3,0,0,0,.7,2,2.3,2.3,0,0,0,1.8.7,6,6,0,0,0,2.4-.5v1l-1.1.4ZM58.8,4a1.9,1.9,0,0,0-1.4.6,2.7,2.7,0,0,0-.6,1.6h3.9a2.5,2.5,0,0,0-.5-1.6A1.7,1.7,0,0,0,58.8,4Z"/><path class="cls-1" d="M69.9,3.1v.7L68.5,4l.3.6a2.4,2.4,0,0,1,.2.9,2.2,2.2,0,0,1-.8,1.8,3,3,0,0,1-2.1.7h-.6a1.1,1.1,0,0,0-.7,1,.5.5,0,0,0,.3.5h2.2a3,3,0,0,1,1.9.5,1.8,1.8,0,0,1,.7,1.5,2.1,2.1,0,0,1-1,1.9,5.3,5.3,0,0,1-2.9.7,4,4,0,0,1-2.3-.5,1.8,1.8,0,0,1-.8-1.5,1.7,1.7,0,0,1,.4-1.2,2.2,2.2,0,0,1,1.2-.7L64,9.6a1.1,1.1,0,0,1-.2-.6,1.2,1.2,0,0,1,.2-.7l.7-.6a2,2,0,0,1-.9-.8,2.4,2.4,0,0,1-.4-1.3,2.4,2.4,0,0,1,.7-1.9A3,3,0,0,1,66.2,3h3.7Zm-6,8.8a1,1,0,0,0,.5.9,2.8,2.8,0,0,0,1.5.3,4.1,4.1,0,0,0,2.1-.4,1.3,1.3,0,0,0,.7-1.2.9.9,0,0,0-.4-.8,2.9,2.9,0,0,0-1.4-.2H65.6a1.8,1.8,0,0,0-1.2.4A1.3,1.3,0,0,0,63.9,11.9Zm.6-6.4A1.5,1.5,0,0,0,65,6.7a1.8,1.8,0,0,0,1.2.4,1.4,1.4,0,0,0,1.7-1.6,1.5,1.5,0,0,0-1.7-1.7,1.7,1.7,0,0,0-1.2.4A1.7,1.7,0,0,0,64.5,5.5Z"/><path class="cls-1" d="M72.5,3.1V8a2,2,0,0,0,.4,1.4,1.7,1.7,0,0,0,1.3.5,2.1,2.1,0,0,0,1.7-.6,3.2,3.2,0,0,0,.5-2.1V3.1h1.1v7.5h-.9l-.2-1h-.1a2.3,2.3,0,0,1-1,.8,3.2,3.2,0,0,1-1.4.3,2.9,2.9,0,0,1-2-.6A2.8,2.8,0,0,1,71.4,8V3.1Z"/><path class="cls-1" d="M81.2,10.6H80V0h1.1Z"/><path class="cls-1" d="M88.2,10.6,88,9.6h-.1a3.1,3.1,0,0,1-1.1,1,3.4,3.4,0,0,1-1.4.3,2.5,2.5,0,0,1-1.7-.6A2.1,2.1,0,0,1,83,8.6q0-2.3,3.6-2.4h1.3V5.7a1.9,1.9,0,0,0-.4-1.3A1.6,1.6,0,0,0,86.3,4a4.9,4.9,0,0,0-2.1.6l-.3-.9,1.2-.5L86.4,3a2.9,2.9,0,0,1,2,.6A2.5,2.5,0,0,1,89,5.5v5.1Zm-2.6-.8a2.3,2.3,0,0,0,1.7-.6,2.2,2.2,0,0,0,.6-1.6V7H86.7a4.1,4.1,0,0,0-2,.4,1.3,1.3,0,0,0-.6,1.2,1.2,1.2,0,0,0,.4.9A1.5,1.5,0,0,0,85.6,9.8Z"/><path class="cls-1" d="M94.8,3h.9l-.2,1.1h-.8a2,2,0,0,0-1.6.7,2.7,2.7,0,0,0-.6,1.8v4H91.4V3.1h.9V4.5h.1a3.3,3.3,0,0,1,1-1.1A2.3,2.3,0,0,1,94.8,3Z"/><path class="cls-1" d="M.1,27.4v-10H1.3v8.9H5.7v1.1Z"/><path class="cls-1" d="M13.7,23.7a4.1,4.1,0,0,1-.9,2.9,3.2,3.2,0,0,1-2.5,1,3.4,3.4,0,0,1-1.8-.5,3.1,3.1,0,0,1-1.2-1.4,4.7,4.7,0,0,1-.4-2.1,4.1,4.1,0,0,1,.9-2.9,3.2,3.2,0,0,1,2.5-1,3.2,3.2,0,0,1,2.5,1A4.1,4.1,0,0,1,13.7,23.7Zm-5.7,0a3.6,3.6,0,0,0,.6,2.2,2,2,0,0,0,1.7.8,2,2,0,0,0,1.7-.7,3.5,3.5,0,0,0,.6-2.2,3.5,3.5,0,0,0-.6-2.2,2,2,0,0,0-1.7-.7,2,2,0,0,0-1.7.7A3.5,3.5,0,0,0,7.9,23.7Z"/><path class="cls-1" d="M19.1,19.8H20l-.2,1.1H19a2,2,0,0,0-1.6.7,2.7,2.7,0,0,0-.6,1.8v4H15.6V19.9h.9v1.4h.1a3.3,3.3,0,0,1,1-1.1A2.3,2.3,0,0,1,19.1,19.8Z"/><path class="cls-1" d="M24.5,27.6a3.4,3.4,0,0,1-2.6-1,3.9,3.9,0,0,1-1-2.8,4.3,4.3,0,0,1,.9-2.9,3,3,0,0,1,2.4-1.1,2.8,2.8,0,0,1,2.2.9,3.6,3.6,0,0,1,.8,2.4v.7H22.1a3,3,0,0,0,.7,2,2.3,2.3,0,0,0,1.8.7,6,6,0,0,0,2.4-.5v1l-1.1.4Zm-.3-6.8a1.9,1.9,0,0,0-1.4.6,2.7,2.7,0,0,0-.6,1.6h3.9a2.5,2.5,0,0,0-.5-1.6A1.7,1.7,0,0,0,24.2,20.8Z"/><path class="cls-1" d="M38.8,27.4V22.6a2,2,0,0,0-.4-1.3,1.5,1.5,0,0,0-1.2-.4,1.9,1.9,0,0,0-1.6.6,2.9,2.9,0,0,0-.5,1.9v4.2H34V22.6a2,2,0,0,0-.4-1.3,1.5,1.5,0,0,0-1.2-.4,1.8,1.8,0,0,0-1.6.6,3.5,3.5,0,0,0-.5,2.1v3.9H29.2V19.9h.9l.2,1h.1a2.2,2.2,0,0,1,.9-.9,2.8,2.8,0,0,1,1.3-.3,2.2,2.2,0,0,1,2.3,1.3h.1a2.4,2.4,0,0,1,1-.9,3,3,0,0,1,1.4-.3,2.5,2.5,0,0,1,1.9.7,2.9,2.9,0,0,1,.6,2.1v4.9Z"/><path class="cls-1" d="M45.8,17.9a.8.8,0,0,1,.2-.6l.5-.2.5.2a.7.7,0,0,1,.2.6.8.8,0,0,1-.2.6l-.5.2-.5-.2A.8.8,0,0,1,45.8,17.9ZM47,27.4H45.9V19.9H47Z"/><path class="cls-1" d="M52.9,27.6l-1.3-.3a2.5,2.5,0,0,1-1-.8h-.1a10.1,10.1,0,0,1,.1,1.2v3.1H49.4V19.9h.9l.2,1h.1a2.6,2.6,0,0,1,1-.9,3.1,3.1,0,0,1,1.3-.3,2.8,2.8,0,0,1,2.3,1,4.5,4.5,0,0,1,.8,2.9,4.5,4.5,0,0,1-.8,2.9A2.8,2.8,0,0,1,52.9,27.6Zm-.2-6.8a2,2,0,0,0-1.7.6,3.3,3.3,0,0,0-.5,2v.3a3.7,3.7,0,0,0,.5,2.3,2,2,0,0,0,1.7.7,1.8,1.8,0,0,0,1.5-.8,3.7,3.7,0,0,0,.5-2.2,3.6,3.6,0,0,0-.5-2.1A1.8,1.8,0,0,0,52.7,20.8Z"/><path class="cls-1" d="M62.8,25.4A1.9,1.9,0,0,1,62,27a3.7,3.7,0,0,1-2.2.6,4.8,4.8,0,0,1-2.3-.5V26l1.2.4,1.2.2a2.7,2.7,0,0,0,1.4-.3,1,1,0,0,0,.1-1.6L59.9,24l-1.5-.7a2.1,2.1,0,0,1-.7-.7,1.7,1.7,0,0,1-.2-.9,1.7,1.7,0,0,1,.7-1.4,3.5,3.5,0,0,1,2-.5,6,6,0,0,1,2.4.5l-.4.9a5.4,5.4,0,0,0-2-.5A2.3,2.3,0,0,0,59,21a.8.8,0,0,0-.4.7.8.8,0,0,0,.2.5l.5.4,1.3.6a4.9,4.9,0,0,1,1.8,1A1.7,1.7,0,0,1,62.8,25.4Z"/><path class="cls-1" d="M65.7,19.9v4.9a2,2,0,0,0,.4,1.4,1.7,1.7,0,0,0,1.3.5,2.1,2.1,0,0,0,1.7-.6,3.2,3.2,0,0,0,.5-2.1V19.9h1.1v7.5h-.9l-.2-1h-.1a2.3,2.3,0,0,1-1,.8,3.2,3.2,0,0,1-1.4.3,2.9,2.9,0,0,1-2-.6,2.8,2.8,0,0,1-.7-2.1V19.9Z"/><path class="cls-1" d="M82.8,27.4V22.6a2,2,0,0,0-.4-1.3,1.5,1.5,0,0,0-1.2-.4,1.9,1.9,0,0,0-1.6.6,2.9,2.9,0,0,0-.5,1.9v4.2H78V22.6a2,2,0,0,0-.4-1.3,1.5,1.5,0,0,0-1.2-.4,1.8,1.8,0,0,0-1.6.6,3.5,3.5,0,0,0-.5,2.1v3.9H73.3V19.9h.9l.2,1h.1a2.2,2.2,0,0,1,.9-.9,2.8,2.8,0,0,1,1.3-.3,2.2,2.2,0,0,1,2.3,1.3H79a2.4,2.4,0,0,1,1-.9,3,3,0,0,1,1.4-.3,2.5,2.5,0,0,1,1.9.7,2.9,2.9,0,0,1,.6,2.1v4.9Z"/><path class="cls-1" d="M95,26.4H95a2.7,2.7,0,0,1-2.4,1.1,2.8,2.8,0,0,1-2.3-1,4.4,4.4,0,0,1-.8-2.9,4.5,4.5,0,0,1,.8-2.9,2.8,2.8,0,0,1,2.3-1,2.7,2.7,0,0,1,2.3,1.1H95V16.8h1.1V27.4h-.9Zm-2.3.2a2.1,2.1,0,0,0,1.7-.6,3.2,3.2,0,0,0,.5-2v-.2a3.8,3.8,0,0,0-.5-2.3,2,2,0,0,0-1.7-.7,1.7,1.7,0,0,0-1.5.8,3.9,3.9,0,0,0-.5,2.2,3.7,3.7,0,0,0,.5,2.2A1.8,1.8,0,0,0,92.8,26.6Z"/><path class="cls-1" d="M105,23.7a4.1,4.1,0,0,1-.9,2.9,3.2,3.2,0,0,1-2.5,1,3.4,3.4,0,0,1-1.8-.5,3.1,3.1,0,0,1-1.2-1.4,4.7,4.7,0,0,1-.4-2.1,4.1,4.1,0,0,1,.9-2.9,3.2,3.2,0,0,1,2.5-1,3.2,3.2,0,0,1,2.5,1A4.1,4.1,0,0,1,105,23.7Zm-5.7,0a3.6,3.6,0,0,0,.6,2.2,2.3,2.3,0,0,0,3.4,0,3.5,3.5,0,0,0,.6-2.2,3.5,3.5,0,0,0-.6-2.2,2,2,0,0,0-1.7-.7,2,2,0,0,0-1.7.7A3.5,3.5,0,0,0,99.3,23.7Z"/><path class="cls-1" d="M108.1,27.4H107V16.8h1.1Z"/><path class="cls-1" d="M117,23.7a4.1,4.1,0,0,1-.9,2.9,3.2,3.2,0,0,1-2.5,1,3.4,3.4,0,0,1-1.8-.5,3.1,3.1,0,0,1-1.2-1.4,4.7,4.7,0,0,1-.4-2.1,4.1,4.1,0,0,1,.9-2.9,3.2,3.2,0,0,1,2.5-1,3.2,3.2,0,0,1,2.5,1A4.1,4.1,0,0,1,117,23.7Zm-5.7,0a3.6,3.6,0,0,0,.6,2.2,2.3,2.3,0,0,0,3.4,0,3.5,3.5,0,0,0,.6-2.2,3.5,3.5,0,0,0-.6-2.2,2,2,0,0,0-1.7-.7,2,2,0,0,0-1.7.7A3.5,3.5,0,0,0,111.3,23.7Z"/><path class="cls-1" d="M122.4,19.8h.9l-.2,1.1h-.8a2,2,0,0,0-1.6.7,2.7,2.7,0,0,0-.6,1.8v4H119V19.9h.9v1.4h.1a3.3,3.3,0,0,1,1-1.1A2.3,2.3,0,0,1,122.4,19.8Z"/><path class="cls-1" d="M133.1,25.4a1.9,1.9,0,0,1-.8,1.6,3.7,3.7,0,0,1-2.2.6,4.8,4.8,0,0,1-2.3-.5V26l1.2.4,1.2.2a2.7,2.7,0,0,0,1.4-.3,1,1,0,0,0,.1-1.6l-1.5-.7-1.5-.7a2.1,2.1,0,0,1-.7-.7,1.7,1.7,0,0,1-.2-.9,1.7,1.7,0,0,1,.7-1.4,3.5,3.5,0,0,1,2-.5,6,6,0,0,1,2.4.5l-.4.9a5.4,5.4,0,0,0-2-.5,2.3,2.3,0,0,0-1.2.3.8.8,0,0,0-.4.7.8.8,0,0,0,.2.5l.5.4,1.3.6a4.9,4.9,0,0,1,1.8,1A1.7,1.7,0,0,1,133.1,25.4Z"/><path class="cls-1" d="M134.9,17.9a.8.8,0,0,1,.2-.6l.5-.2.5.2a.7.7,0,0,1,.2.6.8.8,0,0,1-.2.6l-.5.2-.5-.2A.8.8,0,0,1,134.9,17.9Zm1.2,9.5H135V19.9h1.1Z"/><path class="cls-1" d="M140.9,26.6h1v.9h-1.2q-2.2,0-2.2-2.3V20.8h-1.1v-.5l1.1-.5.5-1.6h.7v1.7h2.2v.9h-2.2v4.4a1.5,1.5,0,0,0,.3,1A1.1,1.1,0,0,0,140.9,26.6Z"/><path class="cls-1" d="M143.3,26.7a1,1,0,0,1,.2-.7.8.8,0,0,1,.6-.2.8.8,0,0,1,.6.2,1,1,0,0,1,.2.7,1,1,0,0,1-.2.7.8.8,0,0,1-.6.2l-.6-.2A.9.9,0,0,1,143.3,26.7Z"/><path class="cls-1" d="M147,26.7a1,1,0,0,1,.2-.7.8.8,0,0,1,.6-.2.8.8,0,0,1,.6.2,1,1,0,0,1,.2.7,1,1,0,0,1-.2.7.8.8,0,0,1-.6.2l-.6-.2A.9.9,0,0,1,147,26.7Z"/><path class="cls-1" d="M150.8,26.7a1,1,0,0,1,.2-.7.8.8,0,0,1,.6-.2.8.8,0,0,1,.6.2,1,1,0,0,1,.2.7,1,1,0,0,1-.2.7.8.8,0,0,1-.6.2l-.6-.2A.9.9,0,0,1,150.8,26.7Z"/></svg>