<?xml version="1.0" encoding="utf-8"?><svg version="1.1" id="Layer_1" xmlns="http://www.w3.org/2000/svg" xmlns:xlink="http://www.w3.org/1999/xlink" x="0px" y="0px" viewBox="0 0 96 96" style="enable-background:new 0 0 96 96;" xml:space="preserve"><title>ilust-laptop-email</title><path class="st0" style="opacity:0.34;" d="M88.1,71.7V26.3c0-2.7-2.2-4.9-4.9-4.9H12.5c-2.7,0-4.9,2.2-4.9,4.9v45.4H2.4v2.3c0,2.7,2.2,4.9,4.9,4.9h81.4 c2.7,0,4.9-2.2,4.9-4.9v-2.3H88.1z M54,75H42c-1.9,0-3.4-1.5-3.3-3.4h18.7C57.3,73.5,55.8,75,54,75z M84.1,65.7 c-0.1,1.6-1.4,2.9-3,2.9H14.6c-1.6,0-2.9-1.3-3-2.9V28.5c0.1-1.6,1.4-2.9,3-2.9h66.5c1.6,0,2.9,1.3,3,2.9L84.1,65.7z"/><path class="st1" style="opacity:0.1;enable-background:new;" d="M3.5,77.2h89.1c0.8,0,1.5,0.7,1.5,1.5v0.4c0,0.8-0.7,1.5-1.5,1.5H3.5C2.7,80.6,2,80,2,79.1v-0.4 C2,77.9,2.7,77.2,3.5,77.2z"/><path class="st2" style="opacity:0.18;" d="M47.7,24.2L41.2,8.1c-0.1-0.2-0.2-0.5-0.4-0.7l-9.7,15.4c-0.6,0.8-1.6,1.2-2.6,1L11,19.4c0,0.3,0.1,0.5,0.1,0.8 l6.5,16.1c0.4,1,1.6,1.5,2.6,1.1c0,0,0,0,0,0l26.4-10.6C47.6,26.3,48.1,25.2,47.7,24.2z"/><path class="st2" style="opacity:0.18;" d="M30.7,22l9.7-15.5c-0.6-0.6-1.4-0.8-2.2-0.5L11.9,16.7c-0.8,0.3-1.2,1-1.2,1.8L28.1,23 C29.1,23.2,30.1,22.8,30.7,22z"/><path class="st3" style="opacity:0.18;enable-background:new;" d="M90.9,31.3l-33.3-8c-0.8-0.2-1.7,0.3-1.9,1.1c0,0,0,0,0,0l-5.9,24.4c-0.2,0.8,0.3,1.7,1.2,1.9l33.3,8 c0.8,0.2,1.7-0.3,1.9-1.2l5.9-24.4C92.3,32.4,91.7,31.5,90.9,31.3C90.9,31.3,90.9,31.3,90.9,31.3z M62.3,26.1c0.4,0.1,0.7,0.6,0.6,1 c-0.1,0.4-0.6,0.7-1,0.6c-0.4-0.1-0.7-0.5-0.6-1C61.4,26.2,61.9,26,62.3,26.1C62.3,26.1,62.3,26.1,62.3,26.1z M60.2,25.5 c0.4,0.1,0.7,0.6,0.6,1c-0.1,0.4-0.6,0.7-1,0.6c-0.4-0.1-0.7-0.5-0.6-1C59.3,25.7,59.7,25.4,60.2,25.5 C60.1,25.5,60.1,25.5,60.2,25.5z M61.2,31.4c1.8,0.4,2.9,2.2,2.5,4c-0.4,1.8-2.2,2.9-4,2.5s-2.9-2.2-2.5-4c0,0,0,0,0,0 C57.6,32.1,59.4,31,61.2,31.4L61.2,31.4z M57.6,26.6c-0.4-0.1-0.7-0.6-0.6-1c0.1-0.4,0.6-0.7,1-0.6c0.4,0.1,0.7,0.5,0.6,1 C58.5,26.4,58.1,26.7,57.6,26.6C57.6,26.6,57.6,26.6,57.6,26.6z M73.8,51l-18.7-4.5c-0.6-0.1-0.9-0.7-0.8-1.2 c0.1-0.6,0.7-0.9,1.2-0.8L74.3,49c0.5,0.1,0.9,0.7,0.7,1.2C74.9,50.7,74.4,51.1,73.8,51C73.8,51,73.8,51,73.8,51z M74.5,48 l-18.7-4.5c-0.5-0.1-0.9-0.7-0.8-1.2c0,0,0,0,0,0c0.1-0.5,0.7-0.9,1.2-0.8c0,0,0,0,0,0L75,45.9c0.6,0.1,0.9,0.7,0.8,1.2 C75.6,47.7,75.1,48.1,74.5,48L74.5,48z M79.9,53.3c-1.8-0.4-2.9-2.2-2.5-4s2.2-2.9,4-2.5c1.8,0.4,2.9,2.2,2.5,4c0,0,0,0,0,0 C83.4,52.6,81.7,53.6,79.9,53.3L79.9,53.3z M84.7,43.2l-18.7-4.5c-0.5-0.1-0.9-0.6-0.8-1.2c0,0,0,0,0,0c0.1-0.5,0.6-0.9,1.2-0.8 c0,0,0,0,0.1,0l18.7,4.5c0.6,0.1,0.9,0.7,0.8,1.2C85.8,43,85.3,43.4,84.7,43.2L84.7,43.2z M85.5,40.2l-18.7-4.6 c-0.6-0.1-0.9-0.7-0.8-1.2c0.1-0.6,0.7-0.9,1.2-0.8L86,38.1c0.6,0.1,0.9,0.7,0.8,1.2c-0.1,0.6-0.7,0.9-1.2,0.8L85.5,40.2z"/>
</svg>
