<svg id="Layer_1" data-name="Layer 1" xmlns="http://www.w3.org/2000/svg" viewBox="0 0 200 109"><defs><style>.cls-1{fill:#f8f8f8;}.cls-2{fill:#babec1;}.cls-3{fill:#576673;}.cls-4{fill:#cfcfcf;}</style></defs><title>Collections-List View</title><rect class="cls-1" width="200" height="33.67"/><path class="cls-2" d="M32,30.6H29.2v-.5H32Zm-5,0H24.5v-.5H27Zm-4.7,0H19.8v-.5h2.5Zm-4.7,0H15.1v-.5h2.5Zm-4.7,0H10.4v-.5h2.5Zm-4.7,0H5.7v-.5H8.2ZM4.9,29.3H4.4V26.8h.5ZM32,27.8h-.5V25.3H32ZM4.9,24.6H4.4V22.1h.5ZM32,23.1h-.5V20.6H32ZM4.9,19.9H4.4V17.4h.5ZM32,18.4h-.5V15.9H32ZM4.9,15.2H4.4V12.7h.5ZM32,13.7h-.5V11.2H32ZM4.9,10.5H4.4V8h.5ZM32,9.1h-.5V6.6H32ZM4.9,5.8H4.4V3.3h.5ZM32,4.4h-.5V3.5H30.3V3H32Zm-3.9-.8H25.6V3h2.5Zm-4.7,0H20.9V3h2.5Zm-4.7,0H16.2V3h2.5ZM14,3.5H11.5V3H14Zm-4.7,0H6.8V3H9.3Z"/><path class="cls-3" d="M25.1,23.7H11.3V9.9H25.1Zm-13.4-.4h13v-13h-13Z"/><polygon class="cls-3" points="12.4 23.6 12.1 23.4 18.6 15.3 21.8 19.4 24.9 19.4 24.9 19.8 21.6 19.8 18.6 16 12.4 23.6"/><path class="cls-3" d="M15,15a1.4,1.4,0,1,1,1.4-1.4A1.4,1.4,0,0,1,15,15Zm0-2.4a1,1,0,1,0,1,1A1,1,0,0,0,15,12.7Z"/><rect class="cls-4" x="37" y="3.8" width="72.7" height="4.42"/><rect class="cls-4" x="37" y="11.2" width="159" height="1.47"/><rect class="cls-4" x="37" y="14.2" width="159" height="6.84"/><rect class="cls-4" x="155.1" y="24.1" width="40.9" height="5.89" transform="translate(351.1 54.1) rotate(180)"/><rect class="cls-1" y="37.7" width="200" height="33.67"/><path class="cls-2" d="M32,68.3H29.2v-.5H32Zm-5,0H24.5v-.5H27Zm-4.7,0H19.8v-.5h2.5Zm-4.7,0H15.1v-.5h2.5Zm-4.7,0H10.4v-.5h2.5Zm-4.7,0H5.7v-.5H8.2ZM4.9,66.9H4.4V64.4h.5ZM32,65.5h-.5V63H32ZM4.9,62.2H4.4V59.7h.5ZM32,60.8h-.5V58.3H32ZM4.9,57.5H4.4V55h.5ZM32,56.1h-.5V53.6H32ZM4.9,52.8H4.4V50.3h.5ZM32,51.4h-.5V48.9H32ZM4.9,48.1H4.4V45.6h.5ZM32,46.7h-.5V44.2H32ZM4.9,43.4H4.4V40.9h.5ZM32,42h-.5v-.8H30.3v-.5H32Zm-3.9-.8H25.6v-.5h2.5Zm-4.7,0H20.9v-.5h2.5Zm-4.7,0H16.2v-.5h2.5Zm-4.7,0H11.5v-.5H14Zm-4.7,0H6.8v-.5H9.3Z"/><path class="cls-3" d="M25.1,61.4H11.3V47.6H25.1ZM11.7,61h13V48h-13Z"/><polygon class="cls-3" points="12.4 61.3 12.1 61.1 18.6 53 21.8 57 24.9 57 24.9 57.4 21.6 57.4 18.6 53.6 12.4 61.3"/><path class="cls-3" d="M15,52.7a1.4,1.4,0,1,1,1.4-1.4A1.4,1.4,0,0,1,15,52.7Zm0-2.4a1,1,0,1,0,1,1A1,1,0,0,0,15,50.3Z"/><rect class="cls-4" x="37" y="41.5" width="72.7" height="4.42"/><rect class="cls-4" x="37" y="48.9" width="159" height="1.47"/><rect class="cls-4" x="37" y="51.8" width="159" height="6.84"/><rect class="cls-4" x="155.1" y="61.8" width="40.9" height="5.89" transform="translate(351.1 129.4) rotate(180)"/><rect class="cls-1" y="75.3" width="200" height="33.67"/><path class="cls-2" d="M32,106H29.2v-.5H32Zm-5,0H24.5v-.5H27Zm-4.7,0H19.8v-.5h2.5Zm-4.7,0H15.1v-.5h2.5Zm-4.7,0H10.4v-.5h2.5Zm-4.7,0H5.7v-.5H8.2Zm-3.3-1.4H4.4v-2.5h.5ZM32,103.2h-.5v-2.5H32ZM4.9,99.9H4.4V97.4h.5ZM32,98.5h-.5V96H32ZM4.9,95.2H4.4V92.7h.5ZM32,93.8h-.5V91.3H32ZM4.9,90.5H4.4V88h.5ZM32,89.1h-.5V86.6H32ZM4.9,85.8H4.4V83.3h.5ZM32,84.4h-.5V81.9H32ZM4.9,81.1H4.4V78.6h.5ZM32,79.7h-.5v-.8H30.3v-.5H32Zm-3.9-.8H25.6v-.5h2.5Zm-4.7,0H20.9v-.5h2.5Zm-4.7,0H16.2v-.5h2.5Zm-4.7,0H11.5v-.5H14Zm-4.7,0H6.8v-.5H9.3Z"/><path class="cls-3" d="M25.1,99H11.3V85.2H25.1Zm-13.4-.4h13v-13h-13Z"/><polygon class="cls-3" points="12.4 99 12.1 98.7 18.6 90.6 21.8 94.7 24.9 94.7 24.9 95.1 21.6 95.1 18.6 91.3 12.4 99"/><path class="cls-3" d="M15,90.4A1.4,1.4,0,1,1,16.4,89,1.4,1.4,0,0,1,15,90.4ZM15,88a1,1,0,1,0,1,1A1,1,0,0,0,15,88Z"/><rect class="cls-4" x="37" y="79.2" width="72.7" height="4.42"/><rect class="cls-4" x="37" y="86.5" width="159" height="1.47"/><rect class="cls-4" x="37" y="89.5" width="159" height="6.84"/><rect class="cls-4" x="155.1" y="99.4" width="40.9" height="5.89" transform="translate(351.1 204.8) rotate(180)"/></svg>