<svg id="Layer_1" data-name="Layer 1" xmlns="http://www.w3.org/2000/svg" viewBox="0 0 200 20"><defs><style>.cls-1{fill:#555;}</style></defs><title>SubtitleBold-ES</title><path class="cls-1" d="M9.3,11.4a3.7,3.7,0,0,1-1.4,3A6,6,0,0,1,4,15.5a9.1,9.1,0,0,1-4-.9V11.8l2.4.9,1.8.3a2.6,2.6,0,0,0,1.5-.4,1.3,1.3,0,0,0,.5-1.1,1.2,1.2,0,0,0-.2-.7l-.7-.6-1.9-1A8.8,8.8,0,0,1,1.6,8a4.4,4.4,0,0,1-1-1.3A3.8,3.8,0,0,1,.2,4.9a3.7,3.7,0,0,1,1.3-3A5.3,5.3,0,0,1,5,.8l2.1.3,2.1.7-1,2.4L6.4,3.5,4.9,3.4a1.9,1.9,0,0,0-1.3.4,1.3,1.3,0,0,0-.5,1,1.3,1.3,0,0,0,.2.7l.6.6,1.9,1A7.6,7.6,0,0,1,8.6,9,3.7,3.7,0,0,1,9.3,11.4Z"/><path class="cls-1" d="M19.4,15.3,19,13.9h-.2a3.1,3.1,0,0,1-1.4,1.2,4.6,4.6,0,0,1-2,.4,3.8,3.8,0,0,1-2.9-1,4.1,4.1,0,0,1-1-3V4.4h3v6.4a3.1,3.1,0,0,0,.4,1.8,1.5,1.5,0,0,0,1.3.6,2,2,0,0,0,1.8-.8,5.2,5.2,0,0,0,.6-2.8V4.4h3V15.3Z"/><path class="cls-1" d="M30.9,4.2a3.5,3.5,0,0,1,3,1.5A6.9,6.9,0,0,1,35,9.8,6.8,6.8,0,0,1,33.9,14a3.9,3.9,0,0,1-6.1.1h-.2l-.5,1.2H24.8V.1h3V3.7q0,.7-.1,2.2h.1A3.4,3.4,0,0,1,30.9,4.2Zm-1,2.4a1.9,1.9,0,0,0-1.6.7,3.9,3.9,0,0,0-.5,2.2v.3a4.6,4.6,0,0,0,.5,2.5,1.9,1.9,0,0,0,1.7.8,1.7,1.7,0,0,0,1.5-.8A4.6,4.6,0,0,0,32,9.8a4.3,4.3,0,0,0-.5-2.4A1.7,1.7,0,0,0,29.9,6.6Z"/><path class="cls-1" d="M42.1,13.1l1.9-.3V15a6.7,6.7,0,0,1-2.7.5,3.3,3.3,0,0,1-2.6-.9,3.9,3.9,0,0,1-.8-2.7V6.6H36.4V5.4l1.6-1,.9-2.3h1.9V4.4h3.1V6.6H40.8v5.3a1.2,1.2,0,0,0,.4.9A1.4,1.4,0,0,0,42.1,13.1Z"/><path class="cls-1" d="M46,3.2V2.9A27.5,27.5,0,0,0,48.3,0h3.3V.2L49.9,1.7,48,3.2Zm3.1,12.1h-3V4.4h3Z"/><path class="cls-1" d="M56.8,13.1l1.9-.3V15a6.7,6.7,0,0,1-2.7.5,3.3,3.3,0,0,1-2.6-.9,3.9,3.9,0,0,1-.8-2.7V6.6H51.1V5.4l1.6-1,.9-2.3h1.9V4.4h3.1V6.6H55.5v5.3a1.2,1.2,0,0,0,.4.9A1.4,1.4,0,0,0,56.8,13.1Z"/><path class="cls-1" d="M68.7,15.3l-.4-1.4h-.2a3.1,3.1,0,0,1-1.4,1.2,4.6,4.6,0,0,1-2,.4,3.8,3.8,0,0,1-2.9-1,4.1,4.1,0,0,1-1-3V4.4h3v6.4a3.1,3.1,0,0,0,.4,1.8,1.5,1.5,0,0,0,1.3.6,2,2,0,0,0,1.8-.8A5.2,5.2,0,0,0,68,9.5V4.4h3V15.3Z"/><path class="cls-1" d="M77.1,15.3h-3V.1h3Z"/><path class="cls-1" d="M90.1,9.8A5.9,5.9,0,0,1,88.7,14a5.1,5.1,0,0,1-3.9,1.5,5.5,5.5,0,0,1-2.8-.7,4.6,4.6,0,0,1-1.8-2,6.6,6.6,0,0,1-.6-3,5.8,5.8,0,0,1,1.4-4.2,5.1,5.1,0,0,1,3.9-1.5,5.5,5.5,0,0,1,2.8.7,4.6,4.6,0,0,1,1.8,2A6.6,6.6,0,0,1,90.1,9.8Zm-7.5,0a4.6,4.6,0,0,0,.5,2.5,1.9,1.9,0,0,0,1.7.8,1.9,1.9,0,0,0,1.7-.8,4.6,4.6,0,0,0,.5-2.5,4.5,4.5,0,0,0-.5-2.4,2.2,2.2,0,0,0-3.4,0A4.5,4.5,0,0,0,82.5,9.8Z"/><path class="cls-1" d="M110.7,15.3h-3.8L100.6,4.5h-.1q.2,2.9.2,4.1v6.7H98V1h3.8L108,11.7h.1q-.1-2.8-.1-3.9V1h2.7Z"/><path class="cls-1" d="M119,15.5a5.6,5.6,0,0,1-4.1-1.5,5.5,5.5,0,0,1-1.5-4.1,6.1,6.1,0,0,1,1.4-4.2,4.9,4.9,0,0,1,3.8-1.5,4.8,4.8,0,0,1,3.6,1.3,5,5,0,0,1,1.3,3.6v1.4h-7a2.9,2.9,0,0,0,.8,2,2.6,2.6,0,0,0,2,.7l1.9-.2,1.8-.7v2.3l-1.7.6Zm-.4-9.2a1.9,1.9,0,0,0-1.5.6,2.8,2.8,0,0,0-.6,1.7h4.2a2.5,2.5,0,0,0-.6-1.7A2,2,0,0,0,118.5,6.3Z"/><path class="cls-1" d="M135.3,4.4V5.9l-1.7.4a3,3,0,0,1,.5,1.6,3.3,3.3,0,0,1-1.2,2.7,5.3,5.3,0,0,1-3.4,1h-1a1,1,0,0,0-.5.8q0,.6,1.6.6h1.9a4.2,4.2,0,0,1,2.7.8,2.8,2.8,0,0,1,.9,2.3,3.4,3.4,0,0,1-1.6,3,8.3,8.3,0,0,1-4.6,1.1,6.3,6.3,0,0,1-3.5-.8,2.5,2.5,0,0,1-1.2-2.2,2.3,2.3,0,0,1,.6-1.7,3.5,3.5,0,0,1,1.8-.9,2,2,0,0,1-.8-.6,1.6,1.6,0,0,1,0-2l1-.8a2.9,2.9,0,0,1-1.4-1.2,3.6,3.6,0,0,1-.5-1.9,3.4,3.4,0,0,1,1.2-2.8,5,5,0,0,1,3.3-1h5.7Zm-8.4,12.5a1.1,1.1,0,0,0,.6,1,3.2,3.2,0,0,0,1.7.4,5.9,5.9,0,0,0,2.5-.4,1.3,1.3,0,0,0,.9-1.2.8.8,0,0,0-.5-.8,4.4,4.4,0,0,0-1.7-.2h-1.5a2.3,2.3,0,0,0-1.4.4A1.2,1.2,0,0,0,126.9,16.9ZM128,8a2.2,2.2,0,0,0,.4,1.4,1.5,1.5,0,0,0,1.2.5,1.4,1.4,0,0,0,1.2-.5,2.3,2.3,0,0,0,.4-1.4q0-2-1.6-2T128,8Z"/><path class="cls-1" d="M143.2,4.2h1L144,7.1h-.9a3.2,3.2,0,0,0-2.2.7,2.6,2.6,0,0,0-.8,2.1v5.6h-3V4.4h2.3l.4,1.8h.1a4.1,4.1,0,0,1,1.4-1.5A3.4,3.4,0,0,1,143.2,4.2Z"/><path class="cls-1" d="M146.1,1.6q0-1.5,1.6-1.5t1.6,1.5a1.4,1.4,0,0,1-.4,1.1,1.7,1.7,0,0,1-1.2.4Q146.1,3,146.1,1.6Zm3.1,13.7h-3V4.4h3Z"/><path class="cls-1" d="M155.3,15.3h-3V.1h3Z"/><path class="cls-1" d="M161.4,15.3h-3V.1h3Z"/><path class="cls-1" d="M171.5,15.3l-.6-1.5h-.1a4.4,4.4,0,0,1-1.5,1.3,5,5,0,0,1-2.1.4,3.4,3.4,0,0,1-2.5-.9,3.4,3.4,0,0,1-.9-2.6A2.9,2.9,0,0,1,165,9.5a7,7,0,0,1,3.7-.9h1.9V8a1.5,1.5,0,0,0-1.7-1.7,7.7,7.7,0,0,0-3.1.8l-1-2a8.9,8.9,0,0,1,4.2-1,5.2,5.2,0,0,1,3.4,1A3.5,3.5,0,0,1,173.5,8v7.3Zm-.9-5.1h-1.2a3.7,3.7,0,0,0-1.9.5,1.5,1.5,0,0,0-.6,1.3q0,1.3,1.4,1.3a2.3,2.3,0,0,0,1.7-.6,2.1,2.1,0,0,0,.6-1.6Z"/></svg>