<svg id="Layer_1" data-name="Layer 1" xmlns="http://www.w3.org/2000/svg" viewBox="0 0 200 24.3"><defs><style>.cls-1{fill:#555;}</style></defs><title>titlebold-ES</title><path class="cls-1" d="M8.3,18.4H4.7V4.3H0v-3H12.9v3H8.3Z"/><path class="cls-1" d="M15.1,3.8V3.5A33,33,0,0,0,17.9,0h4V.2L19.8,2.1,17.5,3.8Zm3.8,14.5H15.3V5.3h3.6Z"/><path class="cls-1" d="M28.1,15.8a7.7,7.7,0,0,0,2.3-.4V18a8,8,0,0,1-3.3.6A4,4,0,0,1,24,17.5a4.7,4.7,0,0,1-1-3.3V8H21.3V6.5l2-1.2,1-2.8h2.3V5.3h3.7V8H26.6v6.3a1.4,1.4,0,0,0,.4,1.1A1.7,1.7,0,0,0,28.1,15.8Z"/><path class="cls-1" d="M42.3,18.4l-.5-1.7h-.2A3.8,3.8,0,0,1,40,18.1a5.6,5.6,0,0,1-2.4.5,4.6,4.6,0,0,1-3.5-1.2A5,5,0,0,1,33,13.8V5.3h3.6v7.7a3.7,3.7,0,0,0,.5,2.1,1.8,1.8,0,0,0,1.6.7,2.4,2.4,0,0,0,2.2-1,6.2,6.2,0,0,0,.7-3.3V5.3h3.6V18.4Z"/><path class="cls-1" d="M52.4,18.4H48.8V.2h3.6Z"/><path class="cls-1" d="M68,11.8a7,7,0,0,1-1.7,5,6.1,6.1,0,0,1-4.7,1.8,6.6,6.6,0,0,1-3.3-.8,5.5,5.5,0,0,1-2.2-2.4,8,8,0,0,1-.8-3.6,7,7,0,0,1,1.7-5A6.2,6.2,0,0,1,61.7,5a6.6,6.6,0,0,1,3.3.8,5.5,5.5,0,0,1,2.2,2.4A7.9,7.9,0,0,1,68,11.8Zm-9.1,0a5.5,5.5,0,0,0,.6,2.9,2.3,2.3,0,0,0,2.1,1,2.2,2.2,0,0,0,2.1-1,5.6,5.6,0,0,0,.6-2.9,5.4,5.4,0,0,0-.6-2.9,2.7,2.7,0,0,0-4.1,0A5.4,5.4,0,0,0,59,11.8Z"/><path class="cls-1" d="M92.7,18.4H88.1l-7.5-13h-.1q.2,3.4.2,4.9v8.1H77.5V1.3h4.6l7.4,12.8h.1q-.2-3.3-.2-4.7V1.3h3.3Z"/><path class="cls-1" d="M102.7,18.6a6.8,6.8,0,0,1-4.9-1.7,6.6,6.6,0,0,1-1.8-4.9,7.3,7.3,0,0,1,1.6-5.1A5.9,5.9,0,0,1,102.1,5a5.8,5.8,0,0,1,4.3,1.6A6,6,0,0,1,108,11v1.7H99.6a3.4,3.4,0,0,0,.9,2.4,3.2,3.2,0,0,0,2.4.9l2.2-.2,2.2-.8v2.8l-2,.7Zm-.5-11a2.3,2.3,0,0,0-1.8.7,3.3,3.3,0,0,0-.7,2h5a3,3,0,0,0-.7-2A2.3,2.3,0,0,0,102.2,7.6Z"/><path class="cls-1" d="M122.3,5.3V7.1l-2.1.5a3.6,3.6,0,0,1,.6,2,4,4,0,0,1-1.5,3.3,6.4,6.4,0,0,1-4.1,1.2h-1.2a1.2,1.2,0,0,0-.6.9q0,.8,2,.8h2.2a5.1,5.1,0,0,1,3.3.9,3.3,3.3,0,0,1,1.1,2.7,4,4,0,0,1-1.9,3.6,10,10,0,0,1-5.5,1.3,7.6,7.6,0,0,1-4.2-1,3,3,0,0,1-1.4-2.7,2.8,2.8,0,0,1,.7-2,4.2,4.2,0,0,1,2.2-1.1,2.4,2.4,0,0,1-1-.8,1.9,1.9,0,0,1,0-2.4,5,5,0,0,1,1.3-1,3.5,3.5,0,0,1-1.6-1.4,4.4,4.4,0,0,1-.6-2.3,4.1,4.1,0,0,1,1.4-3.3,6,6,0,0,1,4-1.2h6.8Zm-10.1,15a1.3,1.3,0,0,0,.7,1.2,3.9,3.9,0,0,0,2,.4,7,7,0,0,0,3-.5,1.6,1.6,0,0,0,1.1-1.4,1,1,0,0,0-.6-1,5.3,5.3,0,0,0-2-.3h-1.9a2.8,2.8,0,0,0-1.6.5A1.4,1.4,0,0,0,112.2,20.2Zm1.3-10.7a2.7,2.7,0,0,0,.5,1.7,1.8,1.8,0,0,0,1.5.6,1.7,1.7,0,0,0,1.5-.6,2.7,2.7,0,0,0,.5-1.7q0-2.4-1.9-2.4T113.5,9.6Z"/><path class="cls-1" d="M131.8,5H133l-.3,3.4h-1.1a3.8,3.8,0,0,0-2.7.9,3.2,3.2,0,0,0-1,2.5v6.7h-3.6V5.3h2.7l.5,2.2h.2a4.9,4.9,0,0,1,1.6-1.8A4.1,4.1,0,0,1,131.8,5Z"/><path class="cls-1" d="M135.2,1.9q0-1.7,1.9-1.7t1.9,1.7a1.7,1.7,0,0,1-.5,1.3,2,2,0,0,1-1.5.5Q135.2,3.7,135.2,1.9Zm3.7,16.5h-3.6V5.3h3.6Z"/><path class="cls-1" d="M146.3,18.4h-3.6V.2h3.6Z"/><path class="cls-1" d="M153.6,18.4H150V.2h3.6Z"/><path class="cls-1" d="M165.7,18.4l-.7-1.8h-.1a5.3,5.3,0,0,1-1.9,1.6,6,6,0,0,1-2.5.4,4,4,0,0,1-3-1.1,4.1,4.1,0,0,1-1.1-3.1,3.5,3.5,0,0,1,1.5-3.1,8.5,8.5,0,0,1,4.4-1.1h2.3V9.7a1.8,1.8,0,0,0-2-2,9.3,9.3,0,0,0-3.7.9l-1.2-2.4a10.7,10.7,0,0,1,5-1.2,6.2,6.2,0,0,1,4,1.1,4.2,4.2,0,0,1,1.4,3.5v8.7Zm-1.1-6.1h-1.4a4.4,4.4,0,0,0-2.3.6,1.8,1.8,0,0,0-.8,1.6q0,1.5,1.7,1.5a2.7,2.7,0,0,0,2-.7,2.5,2.5,0,0,0,.7-1.9Z"/></svg>