<svg id="Layer_1" data-name="Layer 1" xmlns="http://www.w3.org/2000/svg" viewBox="0 0 200 25"><defs><style>.cls-1{fill:#555;}</style></defs><title>titleLight-ES</title><path class="cls-1" d="M6.8,18.4H5.6V2.4H0V1.3H12.3V2.4H6.8Z"/><path class="cls-1" d="M13.7,3.7l1.7-2L16.5,0h1.7V.2L16.8,1.8l-2.2,2h-.8Zm2,14.7H14.6V5.6h1.2Z"/><path class="cls-1" d="M23.4,17.6l1.9-.2v.9a6.1,6.1,0,0,1-1.9.3,3.2,3.2,0,0,1-2.5-.9,4.2,4.2,0,0,1-.8-2.8V6.7H18.2V6l1.9-.5.6-2.9h.6V5.6H25v1H21.2v8.1a3.7,3.7,0,0,0,.5,2.2A1.9,1.9,0,0,0,23.4,17.6Z"/><path class="cls-1" d="M29.1,5.6v8.3a4,4,0,0,0,.8,2.8,3.3,3.3,0,0,0,2.5.9,4.4,4.4,0,0,0,3.3-1.1,5.4,5.4,0,0,0,1.1-3.7v-7h1.1V18.4H37l-.2-1.8h-.1q-1.2,2-4.4,2T27.9,14V5.6Z"/><path class="cls-1" d="M43.4,18.4H42.2V.2h1.2Z"/><path class="cls-1" d="M58.2,12a7.2,7.2,0,0,1-1.5,4.9,5.2,5.2,0,0,1-4.2,1.8,5.4,5.4,0,0,1-3-.8,5.2,5.2,0,0,1-2-2.3,8.4,8.4,0,0,1-.7-3.5,7.2,7.2,0,0,1,1.5-4.9,5.2,5.2,0,0,1,4.1-1.7,5.1,5.1,0,0,1,4.1,1.8A7.2,7.2,0,0,1,58.2,12ZM48.1,12a6.5,6.5,0,0,0,1.2,4.1,4.4,4.4,0,0,0,6.5,0A6.5,6.5,0,0,0,57,12a6.4,6.4,0,0,0-1.2-4.1,4,4,0,0,0-3.3-1.5,3.9,3.9,0,0,0-3.3,1.4A6.5,6.5,0,0,0,48.1,12Z"/><path class="cls-1" d="M81.2,9.7q0,4.3-2.3,6.5t-6.6,2.2H68.2V1.3h4.6q4.1,0,6.2,2.1T81.2,9.7Zm-1.3,0a7.5,7.5,0,0,0-1.9-5.5,7.5,7.5,0,0,0-5.5-1.9H69.4v15h2.8Q79.9,17.3,79.9,9.7Z"/><path class="cls-1" d="M90,18.6a5.6,5.6,0,0,1-4.3-1.7,6.9,6.9,0,0,1-1.6-4.8,7.5,7.5,0,0,1,1.5-4.9,5,5,0,0,1,4-1.8A4.4,4.4,0,0,1,93.2,7a6.5,6.5,0,0,1,1.3,4.3v.9H85.4a6,6,0,0,0,1.2,4A4.3,4.3,0,0,0,90,17.6l1.9-.2,2.1-.7v1.1l-2,.6ZM89.7,6.4a3.8,3.8,0,0,0-3,1.2,5.7,5.7,0,0,0-1.3,3.5h7.9a5.6,5.6,0,0,0-1-3.5A3.2,3.2,0,0,0,89.7,6.4Z"/><path class="cls-1" d="M99.2,18.4H98.1V.2h1.2Z"/><path class="cls-1" d="M113.4,5.6v.8l-2.6.2a4.5,4.5,0,0,1,1.1,2.9,3.9,3.9,0,0,1-1.2,3,4.6,4.6,0,0,1-3.3,1.1h-1.2a3,3,0,0,0-1.1.9,1.7,1.7,0,0,0-.4,1,1,1,0,0,0,.5.9,3.2,3.2,0,0,0,1.6.3h2.2a5.2,5.2,0,0,1,3.2.8,2.9,2.9,0,0,1,1.1,2.5,3.5,3.5,0,0,1-1.6,3.1,8.3,8.3,0,0,1-4.7,1.1,6.4,6.4,0,0,1-3.7-.9,3,3,0,0,1-1.3-2.6,3.1,3.1,0,0,1,.8-2.2,4.2,4.2,0,0,1,2.2-1.2,2.2,2.2,0,0,1-.9-.7,1.7,1.7,0,0,1-.3-1,2.7,2.7,0,0,1,1.6-2.2,3.6,3.6,0,0,1-1.7-1.4,4.1,4.1,0,0,1-.6-2.2,4,4,0,0,1,1.2-3.1,4.6,4.6,0,0,1,3.3-1.2,6,6,0,0,1,1.9.2ZM103.1,20.5q0,2.6,3.9,2.6t5-3.2a1.8,1.8,0,0,0-.8-1.7,4.8,4.8,0,0,0-2.5-.5h-2.1Q103.1,17.8,103.1,20.5Zm1-10.9a2.9,2.9,0,0,0,.9,2.3,4,4,0,0,0,4.8,0,3.1,3.1,0,0,0,.8-2.3,3.2,3.2,0,0,0-.9-2.4,3.4,3.4,0,0,0-2.4-.8,3.2,3.2,0,0,0-2.4.9A3.3,3.3,0,0,0,104.1,9.6Z"/><path class="cls-1" d="M123.8,18.4l-.3-2h-.1a6,6,0,0,1-2,1.7,5.3,5.3,0,0,1-2.4.5,4.1,4.1,0,0,1-2.9-1,3.4,3.4,0,0,1-1-2.7,3.3,3.3,0,0,1,1.6-2.9,8.4,8.4,0,0,1,4.5-1.1h2.4v-.8a4.3,4.3,0,0,0-.7-2.7,2.9,2.9,0,0,0-2.4-.9,8,8,0,0,0-3.7,1l-.4-1a9.7,9.7,0,0,1,4.1-1,4.1,4.1,0,0,1,3.1,1.1,4.8,4.8,0,0,1,1,3.4v8.5Zm-4.7-.8a4.4,4.4,0,0,0,3.2-1.2,4.4,4.4,0,0,0,1.2-3.2V11.9h-2.2a8.4,8.4,0,0,0-3.8.8,2.4,2.4,0,0,0-1.1,2.2,2.4,2.4,0,0,0,.7,1.9A3,3,0,0,0,119.1,17.6Z"/><path class="cls-1" d="M133.4,5.4a5.3,5.3,0,0,1,2.4.5,4.8,4.8,0,0,1,1.8,1.7h.1q-.1-1.5-.1-2.9V.2h1.1V18.4H138l-.3-1.9h-.1a4.7,4.7,0,0,1-4.2,2.2,5,5,0,0,1-4-1.6,7.2,7.2,0,0,1-1.4-4.8,8,8,0,0,1,1.4-5.1A4.8,4.8,0,0,1,133.4,5.4Zm0,1.1a3.6,3.6,0,0,0-3.1,1.5,7.3,7.3,0,0,0-1,4.3q0,5.4,4.2,5.4a3.8,3.8,0,0,0,3.2-1.3,6.7,6.7,0,0,0,1-4.1V12a7.1,7.1,0,0,0-1-4.2A3.8,3.8,0,0,0,133.4,6.5Z"/><path class="cls-1" d="M153.6,12a7.2,7.2,0,0,1-1.5,4.9,5.2,5.2,0,0,1-4.2,1.8,5.4,5.4,0,0,1-3-.8,5.2,5.2,0,0,1-2-2.3,8.4,8.4,0,0,1-.7-3.5,7.2,7.2,0,0,1,1.5-4.9,5.2,5.2,0,0,1,4.1-1.7,5.1,5.1,0,0,1,4.1,1.8A7.2,7.2,0,0,1,153.6,12Zm-10.1,0a6.5,6.5,0,0,0,1.2,4.1,4.4,4.4,0,0,0,6.5,0,6.5,6.5,0,0,0,1.2-4.1,6.4,6.4,0,0,0-1.2-4.1,4,4,0,0,0-3.3-1.5,3.9,3.9,0,0,0-3.3,1.4A6.5,6.5,0,0,0,143.5,12Z"/></svg>