<?xml version="1.0" encoding="UTF-8" standalone="no"?>
<svg width="340px" height="131px" viewBox="0 0 340 131" version="1.1" xmlns="http://www.w3.org/2000/svg" xmlns:xlink="http://www.w3.org/1999/xlink" xmlns:sketch="http://www.bohemiancoding.com/sketch/ns">
    <!-- Generator: Sketch 3.4.4 (17249) - http://www.bohemiancoding.com/sketch -->
    <title>logo_suite</title>
    <desc>Created with Sketch.</desc>
    <defs>
        <linearGradient x1="99.5016173%" y1="50.1083916%" x2="0.0746630728%" y2="50.1083916%" id="linearGradient-1">
            <stop stop-color="#00ACA1" offset="17.03%"></stop>
            <stop stop-color="#00A89C" offset="31.97%"></stop>
            <stop stop-color="#009B8F" offset="48.51%"></stop>
            <stop stop-color="#018679" offset="65.83%"></stop>
            <stop stop-color="#02695A" offset="83.56%"></stop>
            <stop stop-color="#025747" offset="92.86%"></stop>
        </linearGradient>
        <linearGradient x1="98.7592992%" y1="-0.738084112%" x2="50.2956873%" y2="74.5766355%" id="linearGradient-2">
            <stop stop-color="#FDB822" offset="0%"></stop>
            <stop stop-color="#FBB222" offset="17.06%"></stop>
            <stop stop-color="#F5A223" offset="39.54%"></stop>
            <stop stop-color="#EB8625" offset="65.05%"></stop>
            <stop stop-color="#DD6026" offset="92.62%"></stop>
            <stop stop-color="#D95527" offset="100%"></stop>
        </linearGradient>
        <linearGradient x1="99.341779%" y1="49.9969697%" x2="-0.0805929919%" y2="49.9969697%" id="linearGradient-3">
            <stop stop-color="#00ACA1" offset="17.03%"></stop>
            <stop stop-color="#00A89C" offset="31.97%"></stop>
            <stop stop-color="#009B8F" offset="48.51%"></stop>
            <stop stop-color="#018679" offset="65.83%"></stop>
            <stop stop-color="#02695A" offset="83.56%"></stop>
            <stop stop-color="#025747" offset="92.86%"></stop>
        </linearGradient>
        <linearGradient x1="99.3077957%" y1="-0.302564103%" x2="50.2771505%" y2="74.5522145%" id="linearGradient-4">
            <stop stop-color="#D6E03F" offset="0%"></stop>
            <stop stop-color="#D0DC3F" offset="16.62%"></stop>
            <stop stop-color="#C0CF3E" offset="37.98%"></stop>
            <stop stop-color="#A6BA3D" offset="61.94%"></stop>
            <stop stop-color="#819E3C" offset="87.61%"></stop>
            <stop stop-color="#6D8E3B" offset="100%"></stop>
        </linearGradient>
        <linearGradient x1="-1.41747312%" y1="99.341958%" x2="51.4596774%" y2="22.9855478%" id="linearGradient-5">
            <stop stop-color="#00ACA1" offset="17.03%"></stop>
            <stop stop-color="#00A89C" offset="31.97%"></stop>
            <stop stop-color="#009B8F" offset="48.51%"></stop>
            <stop stop-color="#018679" offset="65.83%"></stop>
            <stop stop-color="#02695A" offset="83.56%"></stop>
            <stop stop-color="#025747" offset="92.86%"></stop>
        </linearGradient>
        <linearGradient x1="-0.122849462%" y1="50.1142191%" x2="99.9083333%" y2="50.1142191%" id="linearGradient-6">
            <stop stop-color="#D6E03F" offset="0%"></stop>
            <stop stop-color="#D0DC3F" offset="16.62%"></stop>
            <stop stop-color="#C0CF3E" offset="37.98%"></stop>
            <stop stop-color="#A6BA3D" offset="61.94%"></stop>
            <stop stop-color="#819E3C" offset="87.61%"></stop>
            <stop stop-color="#6D8E3B" offset="100%"></stop>
        </linearGradient>
    </defs>
    <g id="Login" stroke="none" stroke-width="1" fill="none" fill-rule="evenodd" sketch:type="MSPage">
        <g id="Until-Dawn-Copy" sketch:type="MSArtboardGroup" transform="translate(-1105.000000, -256.000000)">
            <g id="logo_suite" sketch:type="MSLayerGroup" transform="translate(1106.000000, 256.000000)">
                <g id="Layer_1" sketch:type="MSShapeGroup">
                    <g id="Group">
                        <path d="M32.0075758,73.5556291 L0.341414141,55.2735099 L32.0075758,36.9059603 L32.0075758,73.5556291 Z" id="Shape" fill="url(#linearGradient-1)"></path>
                        <path d="M32.0075758,36.9059603 L0.341414141,18.6238411 L32.0075758,0.341721854 L32.0075758,36.9059603 Z" id="Shape" fill="url(#linearGradient-2)"></path>
                        <path d="M32.0075758,36.9059603 L0.341414141,55.2735099 L0.341414141,18.6238411 L32.0075758,36.9059603 Z" id="Shape" fill="url(#linearGradient-3)"></path>
                        <path d="M63.7590909,55.2735099 L32.0075758,36.9059603 L63.7590909,18.6238411 L63.7590909,55.2735099 Z" id="Shape" fill="url(#linearGradient-4)"></path>
                        <path d="M63.7590909,55.2735099 L32.0075758,73.5556291 L32.0075758,36.9059603 L63.7590909,55.2735099 Z" id="Shape" fill="url(#linearGradient-5)"></path>
                        <path d="M63.7590909,18.6238411 L32.0075758,36.9059603 L32.0075758,0.256291391 L63.7590909,18.6238411 Z" id="Shape" fill="url(#linearGradient-6)"></path>
                    </g>
                    <g id="Group" transform="translate(94.742424, 29.046358)" fill="#FFFFFF">
                        <path d="M241.635859,20.8450331 C240.95303,20.1615894 240.014141,19.7344371 238.989899,19.7344371 L232.673737,19.7344371 C231.990909,19.7344371 231.393434,20.3324503 231.393434,21.015894 L231.393434,64.5 C231.393434,65.5251656 231.820202,66.3794702 232.50303,67.0629139 C233.185859,67.7463576 234.124747,68.1735099 235.063636,68.1735099 L241.379798,68.1735099 C242.062626,68.1735099 242.574747,67.5754967 242.574747,66.892053 L242.574747,23.4933775 C242.660101,22.4682119 242.318687,21.6139073 241.635859,20.8450331 L241.635859,20.8450331 Z" id="Shape"></path>
                        <path d="M65.9782828,19.8198675 L59.7474747,19.8198675 C59.0646465,19.8198675 58.5525253,20.4178808 58.5525253,21.1013245 L58.5525253,64.5854305 C58.5525253,65.610596 58.9792929,66.4649007 59.6621212,67.1483444 C60.3449495,67.8317881 61.2838384,68.2589404 62.2227273,68.2589404 L68.5388889,68.2589404 C69.2217172,68.2589404 69.8191919,67.6609272 69.8191919,66.9774834 L69.8191919,23.4933775 C69.8191919,22.4682119 69.3924242,21.6139073 68.709596,20.9304636 C67.9414141,20.1615894 67.0025253,19.8198675 65.9782828,19.8198675 L65.9782828,19.8198675 Z" id="Shape"></path>
                        <path d="M44.2131313,26.8251656 C39.1772727,22.1264901 33.1171717,19.8198675 26.2035354,19.8198675 C21.2530303,19.8198675 17.4121212,21.2721854 14.9368687,22.5536424 C13.9126263,23.1516556 12.3762626,24.1768212 12.2909091,24.1768212 C12.2055556,24.2622517 12.2909091,24.3476821 12.3762626,24.2622517 C15.1075758,22.8099338 17.5828283,22.1264901 19.4606061,21.9556291 C19.5459596,21.9556291 19.5459596,22.0410596 19.4606061,22.0410596 C18.5217172,22.2119205 15.1929293,23.1516556 12.3762626,25.0311258 C12.2909091,25.1165563 12.3762626,25.2019868 12.4616162,25.1165563 C15.1929293,23.9205298 17.2414141,23.3225166 19.5459596,23.1516556 C19.6313131,23.1516556 19.6313131,23.2370861 19.5459596,23.2370861 C18.6070707,23.407947 15.1075758,24.1768212 12.3762626,25.8854305 C12.2909091,25.9708609 12.3762626,26.0562914 12.3762626,25.9708609 C15.0222222,24.9456954 16.8146465,24.518543 19.5459596,24.4331126 C19.6313131,24.4331126 19.6313131,24.518543 19.5459596,24.518543 C18.6924242,24.689404 14.9368687,25.3728477 12.2909091,26.7397351 C12.2055556,26.8251656 12.2909091,26.910596 12.2909091,26.8251656 C14.8515152,26.0562914 16.3878788,25.7145695 19.5459596,25.7145695 C19.6313131,25.7145695 19.6313131,25.8 19.5459596,25.8 C18.6924242,25.9708609 14.7661616,26.4834437 12.2909091,27.6794702 C12.2055556,27.6794702 12.2909091,27.8503311 12.2909091,27.7649007 C14.7661616,27.2523179 16.0464646,26.9960265 19.6313131,26.9960265 C19.6313131,26.9960265 19.7166667,27.081457 19.6313131,27.081457 C18.7777778,27.1668874 14.6808081,27.6794702 12.2909091,28.6192053 C12.2055556,28.6192053 12.2055556,28.7046358 12.2909091,28.7046358 C14.6808081,28.3629139 15.7050505,28.192053 19.7166667,28.2774834 C19.8020202,28.2774834 19.8020202,28.3629139 19.7166667,28.3629139 C18.8631313,28.4483444 14.510101,28.8754967 12.2909091,29.5589404 C12.2055556,29.5589404 12.2055556,29.6443709 12.2909091,29.6443709 C14.510101,29.5589404 15.3636364,29.5589404 19.2045455,29.6443709 L26.0328283,29.6443709 C29.9590909,29.6443709 33.3732323,31.0112583 36.1045455,33.7450331 C38.8358586,36.4788079 40.2868687,39.810596 40.2868687,43.5695364 C40.2868687,47.4139073 38.9212121,50.7456954 36.189899,53.4794702 C33.4585859,56.213245 30.0444444,57.5801325 26.0328283,57.5801325 C22.0212121,57.5801325 18.6924242,56.213245 15.9611111,53.4794702 C13.229798,50.7456954 11.8641414,47.4139073 11.8641414,43.5695364 L11.8641414,4.18609272 C11.8641414,3.16092715 11.5227273,2.22119205 10.7545455,1.53774834 C10.0717172,0.854304636 9.13282828,0.512582781 8.10858586,0.512582781 L1.79242424,0.512582781 C1.10959596,0.512582781 0.512121212,1.11059603 0.512121212,1.70860927 L0.512121212,43.9112583 C0.512121212,50.5748344 3.07272727,56.2986755 8.02323232,60.997351 C12.9737374,65.6960265 19.0338384,68.0880795 26.0328283,68.0880795 C33.0318182,68.0880795 39.0919192,65.6960265 44.0424242,60.997351 C48.9929293,56.2986755 51.5535354,50.489404 51.5535354,43.9112583 C51.7242424,37.2476821 49.1636364,31.5238411 44.2131313,26.8251656 L44.2131313,26.8251656 Z" id="Shape"></path>
                        <path d="M161.659596,26.910596 C156.709091,22.2119205 150.64899,19.8198675 143.65,19.8198675 C136.65101,19.8198675 130.676263,22.2119205 125.725758,26.910596 C120.689899,31.6092715 118.214646,37.418543 118.214646,43.9966887 C118.214646,50.6602649 120.689899,56.384106 125.725758,61.0827815 C130.676263,65.781457 136.736364,68.1735099 143.65,68.1735099 C147.149495,68.1735099 149.966162,67.5754967 152.185354,66.7211921 C153.721717,66.1231788 154.831313,65.781457 157.391919,63.9874172 C157.477273,63.9019868 157.391919,63.8165563 157.306566,63.9019868 C154.575253,65.2688742 152.526768,65.9523179 150.307576,66.1231788 C150.222222,66.1231788 150.222222,66.0377483 150.307576,66.0377483 C151.161111,65.8668874 154.916667,64.6708609 157.391919,63.0476821 C157.477273,62.9622517 157.391919,62.8768212 157.306566,62.9622517 C154.660606,64.1582781 152.868182,64.7562914 150.222222,64.9271523 C150.136869,64.9271523 150.136869,64.8417219 150.222222,64.8417219 C151.075758,64.6708609 154.916667,63.5602649 157.306566,62.107947 C157.391919,62.107947 157.306566,61.9370861 157.306566,62.0225166 C154.660606,63.0476821 153.124242,63.4748344 150.136869,63.6456954 C150.051515,63.6456954 150.051515,63.5602649 150.136869,63.5602649 C150.990404,63.389404 154.916667,62.4496689 157.306566,61.1682119 C157.391919,61.1682119 157.306566,61.0827815 157.306566,61.0827815 C154.660606,61.9370861 153.380303,62.2788079 150.136869,62.3642384 C150.051515,62.3642384 150.051515,62.2788079 150.136869,62.2788079 C150.990404,62.107947 155.00202,61.3390728 157.391919,60.2284768 C157.477273,60.2284768 157.391919,60.0576159 157.391919,60.1430464 C154.831313,60.7410596 153.721717,61.0827815 150.136869,61.0827815 C150.051515,61.0827815 150.051515,60.997351 150.136869,60.997351 C150.990404,60.9119205 155.172727,60.1430464 157.391919,59.3741722 C157.477273,59.3741722 157.477273,59.2887417 157.391919,59.2887417 C154.831313,59.715894 153.977778,59.886755 150.136869,59.886755 C150.051515,59.886755 150.051515,59.8013245 150.136869,59.8013245 C151.075758,59.715894 155.258081,59.0324503 157.391919,58.5198675 C157.477273,58.5198675 157.477273,58.4344371 157.391919,58.4344371 C153.209596,58.7761589 151.246465,58.5198675 148.344444,58.5198675 L143.65,58.5198675 C139.723737,58.5198675 136.309596,57.1529801 133.663636,54.4192053 C130.932323,51.6854305 129.481313,48.3536424 129.481313,44.594702 C129.481313,40.7503311 130.84697,37.418543 133.663636,34.6847682 C136.394949,31.8655629 139.809091,30.4986755 143.735354,30.4986755 C147.74697,30.4986755 151.161111,31.8655629 153.892424,34.6847682 C156.623737,37.418543 158.074747,40.7503311 158.074747,44.594702 L158.074747,67.4046358 C158.074747,67.7463576 158.245455,68.0880795 158.416162,68.3443709 C158.672222,68.6006623 159.013636,68.6860927 159.355051,68.6860927 L168.146465,68.6860927 C168.829293,68.6860927 169.426768,68.0880795 169.426768,67.4046358 L169.426768,44.5092715 C169.170707,37.418543 166.695455,31.6092715 161.659596,26.910596 L161.659596,26.910596 Z" id="Shape"></path>
                        <path d="M80.3176768,30.1569536 L92.4378788,30.1569536 C93.8035354,30.1569536 93.2914141,30.1569536 96.7909091,29.9860927 C99.8636364,29.8152318 101.826768,28.8754967 104.30202,28.7046358 C104.387374,28.7046358 104.387374,28.6192053 104.30202,28.6192053 C101.912121,28.5337748 98.4979798,28.8754967 97.729798,28.9609272 C97.6444444,28.9609272 97.6444444,28.8754967 97.729798,28.8754967 C100.802525,28.192053 102.85101,27.8503311 105.326263,27.6794702 C105.411616,27.6794702 105.411616,27.5940397 105.326263,27.5940397 C102.936364,27.4231788 99.4368687,27.7649007 98.7540404,27.8503311 C98.6686869,27.8503311 98.6686869,27.7649007 98.7540404,27.7649007 C101.741414,26.9960265 103.704545,26.7397351 106.350505,26.6543046 C106.435859,26.6543046 106.435859,26.5688742 106.350505,26.5688742 C103.789899,26.3980132 100.461111,26.7397351 99.6075758,26.8251656 C99.5222222,26.8251656 99.5222222,26.7397351 99.6075758,26.7397351 C102.338889,26.1417219 104.472727,25.8 107.118687,25.7145695 C107.20404,25.7145695 107.20404,25.6291391 107.118687,25.6291391 C104.558081,25.2874172 101.229293,25.6291391 100.375758,25.7145695 C100.290404,25.7145695 100.290404,25.6291391 100.375758,25.6291391 C102.85101,25.0311258 104.728788,24.7748344 107.716162,24.7748344 C107.801515,24.7748344 107.801515,24.689404 107.716162,24.689404 C105.070202,24.2622517 101.826768,24.6039735 100.973232,24.689404 C100.887879,24.689404 100.887879,24.6039735 100.973232,24.6039735 C103.277778,24.0913907 105.155556,23.7496689 108.142929,23.8350993 C108.228283,23.8350993 108.228283,23.7496689 108.142929,23.7496689 C105.326263,23.2370861 102.253535,23.4933775 101.4,23.6642384 C101.314646,23.6642384 101.314646,23.5788079 101.4,23.5788079 C103.448485,23.0662252 105.240909,22.8953642 108.228283,22.9807947 C108.313636,22.9807947 108.313636,22.8953642 108.228283,22.8953642 C105.240909,22.2119205 102.424242,22.5536424 101.485354,22.6390728 C101.4,22.6390728 101.4,22.5536424 101.485354,22.5536424 C103.277778,22.1264901 104.472727,21.8701987 107.801515,21.9556291 C107.886869,21.9556291 107.886869,21.8701987 107.801515,21.8701987 C104.643434,21.015894 102.168182,21.3576159 101.143939,21.5284768 C101.058586,21.5284768 101.058586,21.4430464 101.143939,21.4430464 C102.680303,21.1013245 104.558081,20.8450331 106.94798,21.015894 C107.033333,21.015894 107.033333,20.9304636 106.94798,20.9304636 C106.094444,20.6741722 104.899495,20.5033113 103.960606,20.5033113 L77.8424242,20.5033113 C77.159596,20.5033113 76.5621212,21.1013245 76.5621212,21.7847682 L76.5621212,26.4834437 C76.5621212,27.5086093 76.9888889,28.4483444 77.6717172,29.1317881 C78.3545455,29.8152318 79.2934343,30.1569536 80.3176768,30.1569536 L80.3176768,30.1569536 Z" id="Shape"></path>
                        <path d="M110.447475,57.7509934 L98.3272727,57.7509934 C96.9616162,57.7509934 97.4737374,57.7509934 93.9742424,57.9218543 C90.8161616,58.0927152 88.8530303,59.0324503 86.4631313,59.2033113 C86.3777778,59.2033113 86.3777778,59.2887417 86.4631313,59.2887417 C88.8530303,59.3741722 92.2671717,59.0324503 93.0353535,58.9470199 C93.1207071,58.9470199 93.1207071,59.0324503 93.0353535,59.0324503 C89.9626263,59.715894 87.8287879,60.0576159 85.4388889,60.2284768 C85.3535354,60.2284768 85.3535354,60.3139073 85.4388889,60.3139073 C87.8287879,60.4847682 91.2429293,60.1430464 92.0111111,60.0576159 C92.0964646,60.0576159 92.0964646,60.1430464 92.0111111,60.1430464 C89.0237374,60.9119205 86.9752525,61.1682119 84.4146465,61.2536424 C84.3292929,61.2536424 84.3292929,61.3390728 84.4146465,61.3390728 C86.889899,61.5953642 90.3040404,61.1682119 91.0722222,61.0827815 C91.1575758,61.0827815 91.1575758,61.1682119 91.0722222,61.1682119 C88.3409091,61.7662252 86.2070707,62.1933775 83.5611111,62.1933775 C83.4757576,62.1933775 83.4757576,62.2788079 83.5611111,62.2788079 C86.1217172,62.6205298 89.4505051,62.2788079 90.3040404,62.1933775 C90.3893939,62.1933775 90.3893939,62.2788079 90.3040404,62.2788079 C87.8287879,62.8768212 85.9510101,63.1331126 82.9636364,63.1331126 C82.8782828,63.1331126 82.8782828,63.218543 82.9636364,63.218543 C85.6949495,63.6456954 88.8530303,63.3039735 89.7065657,63.218543 C89.7919192,63.218543 89.7919192,63.3039735 89.7065657,63.3039735 C87.3166667,63.8165563 85.5242424,64.1582781 82.5368687,64.0728477 C82.4515152,64.0728477 82.4515152,64.1582781 82.5368687,64.1582781 C85.3535354,64.7562914 88.4262626,64.4145695 89.279798,64.2437086 C89.3651515,64.2437086 89.3651515,64.3291391 89.279798,64.3291391 C87.2313131,64.8417219 85.4388889,65.0125828 82.4515152,64.9271523 C82.3661616,64.9271523 82.3661616,65.0125828 82.4515152,65.0125828 C85.4388889,65.610596 88.2555556,65.3543046 89.1944444,65.1834437 C89.279798,65.1834437 89.279798,65.2688742 89.1944444,65.2688742 C87.4020202,65.6960265 86.2070707,65.9523179 82.7929293,65.8668874 C82.7075758,65.8668874 82.7075758,65.9523179 82.7929293,65.9523179 C86.0363636,66.8066225 88.5116162,66.4649007 89.4505051,66.2940397 C89.5358586,66.2940397 89.5358586,66.3794702 89.4505051,66.3794702 C87.9141414,66.7211921 86.0363636,66.9774834 83.6464646,66.8066225 C83.5611111,66.8066225 83.5611111,66.892053 83.6464646,66.892053 C84.5,67.1483444 85.6949495,67.3192053 86.5484848,67.3192053 L112.666667,67.3192053 C113.349495,67.3192053 113.94697,66.8066225 113.94697,66.0377483 L113.94697,61.5099338 C113.94697,60.4847682 113.520202,59.5450331 112.837374,58.8615894 C112.410606,58.1781457 111.471717,57.7509934 110.447475,57.7509934 L110.447475,57.7509934 Z" id="Shape"></path>
                        <path d="M87.4020202,57.7509934 L111.215657,36.9059603 C112.922727,35.0264901 114.032323,32.6344371 114.032323,29.9006623 C114.032323,25.7145695 111.471717,22.0410596 107.801515,20.5033113 C107.716162,20.5033113 107.716162,20.5033113 107.716162,20.5887417 C110.020707,22.8099338 107.033333,26.5688742 104.728788,28.7900662 L79.5494949,50.9165563 C77.8424242,52.7960265 76.7328283,55.2735099 76.7328283,57.9218543 C76.7328283,61.9370861 78.8666667,65.3543046 82.5368687,67.1483444 L82.5368687,67.1483444 C80.4030303,63.8165563 87.4020202,57.7509934 87.4020202,57.7509934 L87.4020202,57.7509934 Z" id="Shape"></path>
                        <path d="M217.05404,26.910596 C212.018182,22.2119205 205.958081,19.8198675 198.959091,19.8198675 C191.960101,19.8198675 185.9,22.2119205 180.949495,26.910596 C175.99899,31.6092715 173.438384,37.418543 173.438384,43.9966887 C173.438384,50.6602649 175.913636,56.384106 180.864141,61.0827815 C185.814646,65.781457 191.874747,68.1735099 198.873737,68.1735099 L199.129798,68.1735099 L200.495455,68.1735099 L200.495455,68.1735099 C203.226768,68.002649 205.531313,67.4900662 207.494444,66.7211921 C209.030808,66.1231788 210.140404,65.781457 212.615657,63.9874172 C212.70101,63.9019868 212.615657,63.8165563 212.530303,63.9019868 C209.79899,65.2688742 207.835859,65.9523179 205.531313,66.1231788 C205.44596,66.1231788 205.44596,66.0377483 205.531313,66.0377483 C206.384848,65.8668874 210.140404,64.6708609 212.615657,63.0476821 C212.70101,62.9622517 212.615657,62.8768212 212.530303,62.9622517 C209.884343,64.1582781 208.091919,64.7562914 205.44596,64.9271523 C205.360606,64.9271523 205.360606,64.8417219 205.44596,64.8417219 C206.299495,64.6708609 210.140404,63.5602649 212.530303,62.107947 C212.615657,62.107947 212.530303,61.9370861 212.530303,62.0225166 C209.884343,63.0476821 208.34798,63.4748344 205.360606,63.6456954 C205.275253,63.6456954 205.275253,63.5602649 205.360606,63.5602649 C206.214141,63.389404 210.225758,62.4496689 212.530303,61.1682119 C212.615657,61.1682119 212.530303,61.0827815 212.530303,61.0827815 C209.884343,61.9370861 208.689394,62.2788079 205.360606,62.3642384 C205.275253,62.3642384 205.275253,62.2788079 205.360606,62.2788079 C206.214141,62.107947 210.225758,61.3390728 212.615657,60.2284768 C212.70101,60.2284768 212.615657,60.0576159 212.615657,60.1430464 C210.055051,60.7410596 208.945455,61.0827815 205.360606,61.0827815 C205.275253,61.0827815 205.275253,60.997351 205.360606,60.997351 C206.214141,60.9119205 210.396465,60.1430464 212.615657,59.3741722 C212.70101,59.3741722 212.70101,59.2887417 212.615657,59.2887417 C210.055051,59.715894 209.201515,59.886755 205.360606,59.886755 C205.275253,59.886755 205.275253,59.8013245 205.360606,59.8013245 C206.299495,59.715894 210.481818,59.0324503 212.615657,58.5198675 C212.70101,58.5198675 212.70101,58.4344371 212.615657,58.4344371 C208.433333,58.7761589 206.470202,58.5198675 203.568182,58.5198675 L199.129798,58.5198675 L199.129798,58.5198675 L198.873737,58.5198675 C194.947475,58.5198675 191.533333,57.1529801 188.80202,54.4192053 C185.985354,51.6854305 184.619697,48.3536424 184.619697,44.594702 C184.619697,40.7503311 185.985354,37.418543 188.80202,34.6847682 C191.533333,31.9509934 194.947475,30.4986755 198.959091,30.4986755 C202.885354,30.4986755 206.299495,31.8655629 209.030808,34.6847682 C211.762121,37.418543 213.127778,40.7503311 213.127778,44.594702 C213.127778,44.594702 213.298485,66.5503311 213.213131,66.8066225 C213.042424,70.0529801 211.335354,72.9576159 208.945455,75.2642384 C206.128788,77.9125828 202.8,79.1940397 198.959091,79.1940397 L187.607071,79.1940397 C186.582828,79.1940397 185.643939,79.6211921 184.961111,80.3046358 C184.278283,80.9880795 183.936869,81.9278146 183.936869,82.9529801 L183.936869,88.1642384 C183.936869,88.8476821 184.44899,89.4456954 185.131818,89.4456954 L198.959091,89.4456954 C205.958081,89.4456954 211.932828,87.0536424 216.968687,82.4403974 C221.919192,77.7417219 224.479798,72.0178808 224.479798,65.3543046 L224.479798,44.7655629 C224.565152,37.418543 222.004545,31.6092715 217.05404,26.910596 L217.05404,26.910596 Z" id="Shape"></path>
                    </g>
                    <g id="Group" transform="translate(94.742424, 106.788079)" fill="#FFFFFF">
                        <path d="M12.6323232,2.73377483 C12.6323232,2.73377483 8.62070707,2.22119205 6.91363636,2.22119205 C3.92626263,2.22119205 2.21919192,3.33178808 2.21919192,5.80927152 C2.21919192,8.79933775 3.75555556,9.22649007 7.34040404,9.90993377 C11.2666667,10.6788079 13.229798,11.618543 13.229798,15.2066225 C13.229798,19.7344371 10.839899,21.3576159 6.91363636,21.3576159 C4.60909091,21.3576159 0.597474747,20.8450331 0.597474747,20.8450331 L0.768181818,19.3072848 C0.768181818,19.3072848 4.77979798,19.8198675 6.82828283,19.8198675 C9.81565657,19.8198675 11.4373737,18.5384106 11.4373737,15.3774834 C11.4373737,12.8145695 10.1570707,12.2165563 6.74292929,11.618543 C2.6459596,10.8496689 0.426767677,9.99536424 0.426767677,5.89470199 C0.426767677,2.05033113 2.9020202,0.598013245 6.82828283,0.598013245 C9.21818182,0.598013245 12.8030303,1.11059603 12.8030303,1.11059603 L12.6323232,2.73377483 L12.6323232,2.73377483 Z" id="Shape"></path>
                        <path d="M26.9717172,6.66357616 L26.9717172,21.2721854 L25.2646465,21.2721854 L25.2646465,20.1615894 C25.2646465,20.1615894 23.0454545,21.5284768 20.7409091,21.5284768 C16.7292929,21.5284768 15.8757576,19.7344371 15.8757576,14.2668874 L15.8757576,6.66357616 L17.5828283,6.66357616 L17.5828283,14.2668874 C17.5828283,18.6238411 18.009596,19.9907285 20.9116162,19.9907285 C23.2161616,19.9907285 25.1792929,18.794702 25.1792929,18.794702 L25.1792929,6.74900662 L26.9717172,6.74900662 L26.9717172,6.66357616 Z" id="Shape"></path>
                        <path d="M30.6419192,0.854304636 L32.3489899,0.854304636 L32.3489899,3.07549669 L30.6419192,3.07549669 L30.6419192,0.854304636 L30.6419192,0.854304636 Z M30.6419192,6.66357616 L32.3489899,6.66357616 L32.3489899,21.2721854 L30.6419192,21.2721854 L30.6419192,6.66357616 L30.6419192,6.66357616 Z" id="Shape"></path>
                        <path d="M38.4944444,8.2013245 L38.4944444,15.3774834 C38.4944444,19.0509934 38.7505051,19.9907285 40.7989899,19.9907285 C41.6525253,19.9907285 43.4449495,19.8198675 43.4449495,19.8198675 L43.530303,21.2721854 C43.530303,21.2721854 41.5671717,21.5284768 40.6282828,21.5284768 C37.7262626,21.5284768 36.7020202,20.4178808 36.7020202,16.2317881 L36.7020202,8.2013245 L34.5681818,8.2013245 L34.5681818,6.66357616 L36.7020202,6.66357616 L36.7020202,2.05033113 L38.4090909,2.05033113 L38.4090909,6.66357616 L43.2742424,6.66357616 L43.2742424,8.2013245 L38.4944444,8.2013245 L38.4944444,8.2013245 Z" id="Shape"></path>
                        <path d="M55.9065657,19.6490066 L55.9919192,21.1013245 C55.9919192,21.1013245 52.6631313,21.5284768 50.4439394,21.5284768 C46.0909091,21.5284768 44.8106061,18.8801325 44.8106061,14.010596 C44.8106061,8.37218543 47.2858586,6.40728477 50.7853535,6.40728477 C54.5409091,6.40728477 56.5040404,8.45761589 56.5040404,13.3271523 L56.4186869,14.6940397 L46.5176768,14.6940397 C46.5176768,18.1112583 47.5419192,19.9907285 50.5292929,19.9907285 C52.6631313,19.9907285 55.9065657,19.6490066 55.9065657,19.6490066 L55.9065657,19.6490066 Z M54.7116162,13.2417219 C54.7116162,9.31192053 53.4313131,7.94503311 50.7,7.94503311 C48.0540404,7.94503311 46.5176768,9.39735099 46.5176768,13.2417219 L54.7116162,13.2417219 L54.7116162,13.2417219 Z" id="Shape"></path>
                    </g>
                </g>
            </g>
        </g>
    </g>
</svg>