<?xml version="1.0" encoding="utf-8"?>
<!-- Generator: Adobe Illustrator 25.2.1, SVG Export Plug-In . SVG Version: 6.00 Build 0)  -->
<svg version="1.1" id="Backgrounds" xmlns="http://www.w3.org/2000/svg" xmlns:xlink="http://www.w3.org/1999/xlink" x="0px"
	 y="0px" viewBox="0 0 108 19" style="enable-background:new 0 0 108 19;" xml:space="preserve">
<style type="text/css">
	.st0{fill:#757575;}
</style>
<g id="Logos">
	<g>
		<path class="st0" d="M58,9.3V0.8h1.8v5.6c0.7-1.2,1.9-1.9,3.4-1.9c2.4,0,4.7,1.7,4.7,4.8c0,2.9-2,4.9-5,4.9
			C60,14.3,58,12.4,58,9.3z M66.1,9.4c0-1.9-1.3-3.2-3.2-3.2c-1.9,0-3.1,1.3-3.1,3.2s1.3,3.2,3.1,3.2C64.8,12.6,66.1,11.3,66.1,9.4
			L66.1,9.4z"/>
		<path class="st0" d="M69.6,4.8h1.8V14h-1.8V4.8z"/>
		<path class="st0" d="M73.3,12.6l5.9-6.2h-5.6V4.8h8v1.5l-5.9,6.2h6.1V14h-8.5L73.3,12.6L73.3,12.6z"/>
		<path class="st0" d="M82.9,9.5c0-2.9,2-4.9,5-4.9c2.9,0,4.9,2,4.9,4.9V14h-1.6v-2c-0.6,1.5-2,2.3-3.6,2.3
			C85.2,14.3,82.9,12.5,82.9,9.5z M91,9.4c0-1.9-1.3-3.2-3.2-3.2s-3.2,1.3-3.2,3.2s1.3,3.2,3.2,3.2S91,11.3,91,9.4L91,9.4z"/>
		<path class="st0" d="M94.6,15.1h1.8c0.4,1.1,1.5,1.5,2.9,1.5c1.9,0,3.1-0.9,3.1-3.3v-1.1c-0.6,1.2-1.9,1.9-3.5,1.9
			c-2.4,0-4.7-1.6-4.7-4.8c0-2.8,2-4.8,5-4.8c2.9,0,4.9,2,4.9,4.9v3.8c0,3.5-2.2,4.9-4.9,4.9C97,18.2,95.2,17.2,94.6,15.1z
			 M102.3,9.4c0-1.9-1.3-3.2-3.2-3.2c-1.9,0-3.2,1.3-3.2,3.2s1.3,3.1,3.2,3.1C101.1,12.5,102.3,11.3,102.3,9.4L102.3,9.4z"/>
		<path class="st0" d="M106.2,4.8h1.8V14h-1.8V4.8z"/>
	</g>
</g>
<g>
	<path class="st0" d="M5.7,8.6c0,0.7-0.2,1.3-0.7,1.7s-1.2,0.6-2.1,0.6H2.1v2.7H0.9V6.4H3c0.9,0,1.6,0.2,2,0.5S5.7,7.9,5.7,8.6z
		 M2.1,9.9h0.6c0.6,0,1-0.1,1.3-0.3s0.4-0.5,0.4-1c0-0.4-0.1-0.7-0.4-0.9S3.5,7.4,2.9,7.4H2.1V9.9z"/>
	<path class="st0" d="M11.6,10.9c0,0.9-0.2,1.6-0.7,2.1S9.8,13.7,9,13.7c-0.5,0-1-0.1-1.3-0.3s-0.7-0.6-0.9-1s-0.3-0.9-0.3-1.5
		c0-0.9,0.2-1.6,0.7-2.1S8.2,8.1,9,8.1c0.8,0,1.4,0.3,1.9,0.8S11.6,10,11.6,10.9z M7.6,10.9c0,1.2,0.5,1.9,1.4,1.9
		c0.9,0,1.4-0.6,1.4-1.9C10.4,9.6,9.9,9,9,9C8.5,9,8.2,9.2,8,9.5S7.6,10.3,7.6,10.9z"/>
	<path class="st0" d="M17.1,13.6L16.4,11c-0.1-0.3-0.2-0.9-0.5-1.9h0c-0.2,0.9-0.3,1.5-0.4,1.9l-0.7,2.5h-1.3L12,8.2h1.2l0.7,2.7
		c0.2,0.7,0.3,1.2,0.3,1.7h0c0-0.2,0.1-0.5,0.1-0.8s0.1-0.5,0.2-0.7l0.8-2.8h1.3l0.8,2.8c0,0.2,0.1,0.4,0.2,0.7s0.1,0.6,0.1,0.8h0
		c0-0.4,0.2-1,0.3-1.7l0.7-2.7h1.2l-1.5,5.4H17.1z"/>
	<path class="st0" d="M23,13.7c-0.8,0-1.5-0.2-2-0.7s-0.7-1.2-0.7-2c0-0.9,0.2-1.6,0.7-2.1s1-0.8,1.8-0.8c0.7,0,1.3,0.2,1.7,0.6
		s0.6,1,0.6,1.8v0.6h-3.6c0,0.5,0.2,0.9,0.4,1.2s0.6,0.4,1.1,0.4c0.3,0,0.6,0,0.9-0.1s0.6-0.2,0.9-0.3v0.9c-0.3,0.1-0.6,0.2-0.8,0.3
		S23.4,13.7,23,13.7z M22.8,8.9c-0.4,0-0.7,0.1-0.9,0.3s-0.4,0.6-0.4,1H24c0-0.4-0.1-0.8-0.3-1S23.2,8.9,22.8,8.9z"/>
	<path class="st0" d="M29,8.1c0.2,0,0.4,0,0.6,0l-0.1,1.1c-0.2,0-0.3-0.1-0.5-0.1c-0.5,0-0.8,0.1-1.1,0.4s-0.4,0.7-0.4,1.2v2.8h-1.1
		V8.2h0.9l0.2,1h0.1c0.2-0.3,0.4-0.6,0.7-0.8S28.6,8.1,29,8.1z"/>
	<path class="st0" d="M32.7,13.7c-0.8,0-1.5-0.2-2-0.7s-0.7-1.2-0.7-2c0-0.9,0.2-1.6,0.7-2.1s1-0.8,1.8-0.8c0.7,0,1.3,0.2,1.7,0.6
		s0.6,1,0.6,1.8v0.6h-3.6c0,0.5,0.2,0.9,0.4,1.2s0.6,0.4,1.1,0.4c0.3,0,0.6,0,0.9-0.1s0.6-0.2,0.9-0.3v0.9c-0.3,0.1-0.6,0.2-0.8,0.3
		S33,13.7,32.7,13.7z M32.5,8.9c-0.4,0-0.7,0.1-0.9,0.3s-0.4,0.6-0.4,1h2.5c0-0.4-0.1-0.8-0.3-1S32.8,8.9,32.5,8.9z"/>
	<path class="st0" d="M37.7,13.7c-0.7,0-1.2-0.2-1.6-0.7s-0.6-1.2-0.6-2.1c0-0.9,0.2-1.6,0.6-2.1s0.9-0.7,1.6-0.7
		c0.7,0,1.2,0.3,1.6,0.8h0.1c-0.1-0.4-0.1-0.7-0.1-0.9V6h1.2v7.6h-0.9l-0.2-0.7h-0.1C39,13.4,38.4,13.7,37.7,13.7z M38,12.7
		c0.5,0,0.8-0.1,1-0.4s0.3-0.7,0.3-1.3v-0.2c0-0.7-0.1-1.2-0.3-1.5S38.5,9,38,9c-0.4,0-0.7,0.2-0.9,0.5s-0.3,0.8-0.3,1.4
		c0,0.6,0.1,1.1,0.3,1.4S37.6,12.7,38,12.7z"/>
	<path class="st0" d="M47.1,8.1c0.7,0,1.2,0.2,1.6,0.7s0.6,1.2,0.6,2.1c0,0.9-0.2,1.6-0.6,2.1s-0.9,0.7-1.6,0.7
		c-0.7,0-1.2-0.2-1.6-0.7h-0.1l-0.2,0.6h-0.9V6h1.1v1.8c0,0.1,0,0.3,0,0.6s0,0.4,0,0.5h0C45.8,8.3,46.4,8.1,47.1,8.1z M46.8,9
		c-0.5,0-0.8,0.1-1,0.4s-0.3,0.7-0.3,1.4v0.1c0,0.7,0.1,1.1,0.3,1.4s0.5,0.4,1,0.4c0.4,0,0.7-0.2,0.9-0.5s0.3-0.8,0.3-1.4
		C48,9.6,47.6,9,46.8,9z"/>
	<path class="st0" d="M49.5,8.2h1.2l1.1,3.1c0.2,0.4,0.3,0.8,0.3,1.2h0c0-0.2,0.1-0.4,0.2-0.7s0.5-1.5,1.2-3.6h1.2l-2.3,6.1
		c-0.4,1.1-1.1,1.7-2.1,1.7c-0.3,0-0.5,0-0.7-0.1V15c0.2,0,0.4,0.1,0.6,0.1c0.6,0,0.9-0.3,1.2-1l0.2-0.5L49.5,8.2z"/>
</g>
</svg>
