<svg xmlns="http://www.w3.org/2000/svg" viewBox="0 0 121.18 32"><defs><style>.cls-1{fill:#fff;}.cls-2{fill:#f08b1d;}.cls-3{fill:#92c82d;}.cls-4{fill:#33bfc1;}</style></defs><g id="Logos"><path class="cls-1" d="M29.25,15.75V.06H32.5V10.42A7,7,0,0,1,38.79,7a8.42,8.42,0,0,1,8.58,8.79c0,5.3-3.76,9-9.13,9S29.25,21.26,29.25,15.75Zm14.84.14A5.58,5.58,0,0,0,38.28,10a5.57,5.57,0,0,0-5.78,5.88,5.57,5.57,0,0,0,5.78,5.88A5.58,5.58,0,0,0,44.09,15.89Z"/><path class="cls-1" d="M50.66,7.44h3.25v16.9H50.66Z"/><path class="cls-1" d="M57.43,21.67,68.3,10.35H57.94V7.44H72.65v2.67L61.77,21.43H73v2.91H57.43Z"/><path class="cls-1" d="M75,16a8.7,8.7,0,0,1,9.13-9c5.31,0,9,3.62,9,9v8.31h-3v-3.7a6.72,6.72,0,0,1-6.56,4.14A8.41,8.41,0,0,1,75,16ZM90,15.89a5.81,5.81,0,1,0-11.62,0,5.81,5.81,0,1,0,11.62,0Z"/><path class="cls-1" d="M96.45,26.36h3.32c.79,1.95,2.77,2.8,5.23,2.8,3.46,0,5.75-1.64,5.75-6.05V21.16a6.93,6.93,0,0,1-6.36,3.49,8.31,8.31,0,0,1-8.55-8.76A8.67,8.67,0,0,1,104.93,7c5.34,0,9,3.59,9,9V23c0,6.5-4,9-9,9C100.86,32,97.61,30.26,96.45,26.36Zm14.3-10.47a5.82,5.82,0,1,0-11.63,0,5.82,5.82,0,0,0,11.63,0Z"/><path class="cls-1" d="M117.93,7.44h3.25v16.9h-3.25Z"/><polygon class="cls-2" points="10.66 0.89 10.66 12.46 0.89 6.24 10.66 0.89"/><polygon class="cls-3" points="10.66 0.89 20.42 6.24 20.42 18.68 10.66 12.46 10.66 0.89"/><polygon class="cls-4" points="0.89 6.24 20.42 18.68 10.66 23.96 0.89 18.68 0.89 6.24"/><path class="cls-1" d="M20.85,5.46,11.08.11a.86.86,0,0,0-.85,0L.46,5.46A.91.91,0,0,0,0,6.24V18.68a.9.9,0,0,0,.47.78l9.76,5.28a.94.94,0,0,0,.43.1.9.9,0,0,0,.42-.1l9.77-5.28a.91.91,0,0,0,.46-.78V6.24A.89.89,0,0,0,20.85,5.46Zm-1.31,11.6-8-5.09V2.39l8,4.38ZM9.77,10.84,2.64,6.3,9.77,2.39ZM10.66,23l-8.88-4.8V7.85L18.67,18.62Z"/></g></svg>