<?xml version="1.0" encoding="UTF-8"?>
<svg width="615px" height="768px" viewBox="0 0 615 768" version="1.1" xmlns="http://www.w3.org/2000/svg" xmlns:xlink="http://www.w3.org/1999/xlink">
    <title>71FF61C2-92EB-4A43-8E7D-CE4B7696314C</title>
    <defs>
        <linearGradient x1="82.0625305%" y1="100%" x2="17.9374695%" y2="0%" id="linearGradient-1">
            <stop stop-color="#33BFC1" offset="0%"></stop>
            <stop stop-color="#1A6061" offset="61.8612753%"></stop>
            <stop stop-color="#114040" offset="100%"></stop>
        </linearGradient>
        <rect id="path-2" x="0" y="0" width="615" height="768"></rect>
        <linearGradient x1="26.6420593%" y1="11.2040695%" x2="64.6207055%" y2="67.5256343%" id="linearGradient-4">
            <stop stop-color="#FFFFFF" stop-opacity="0.61994646" offset="0%"></stop>
            <stop stop-color="#FFFFFF" stop-opacity="0" offset="100%"></stop>
        </linearGradient>
        <linearGradient x1="26.5358325%" y1="11.3544451%" x2="76.3558817%" y2="84.6170171%" id="linearGradient-5">
            <stop stop-color="#FFFFFF" stop-opacity="0.61994646" offset="0%"></stop>
            <stop stop-color="#FFFFFF" stop-opacity="0" offset="76.5783361%"></stop>
        </linearGradient>
        <linearGradient x1="26.5358325%" y1="11.3544451%" x2="64.6871972%" y2="67.4577038%" id="linearGradient-6">
            <stop stop-color="#FFFFFF" stop-opacity="0.61994646" offset="0%"></stop>
            <stop stop-color="#FFFFFF" stop-opacity="0" offset="100%"></stop>
        </linearGradient>
        <linearGradient x1="26.5358325%" y1="36.8571713%" x2="76.3558817%" y2="61.7727777%" id="linearGradient-7">
            <stop stop-color="#FFFFFF" stop-opacity="0.61994646" offset="0%"></stop>
            <stop stop-color="#FFFFFF" stop-opacity="0" offset="76.5783361%"></stop>
        </linearGradient>
        <linearGradient x1="26.5358325%" y1="36.9316786%" x2="76.3558817%" y2="61.7060373%" id="linearGradient-8">
            <stop stop-color="#FFFFFF" stop-opacity="0.61994646" offset="0%"></stop>
            <stop stop-color="#FFFFFF" stop-opacity="0" offset="76.5783361%"></stop>
        </linearGradient>
        <linearGradient x1="26.5358325%" y1="36.884015%" x2="76.3558817%" y2="61.7487323%" id="linearGradient-9">
            <stop stop-color="#FFFFFF" stop-opacity="0.61994646" offset="0%"></stop>
            <stop stop-color="#FFFFFF" stop-opacity="0" offset="76.5783361%"></stop>
        </linearGradient>
        <linearGradient x1="26.5358325%" y1="11.2040695%" x2="76.3558817%" y2="84.7517171%" id="linearGradient-10">
            <stop stop-color="#FFFFFF" stop-opacity="0.61994646" offset="0%"></stop>
            <stop stop-color="#FFFFFF" stop-opacity="0" offset="76.5783361%"></stop>
        </linearGradient>
        <linearGradient x1="26.6106004%" y1="11.2040695%" x2="76.2718995%" y2="84.7517171%" id="linearGradient-11">
            <stop stop-color="#FFFFFF" stop-opacity="0.61994646" offset="0%"></stop>
            <stop stop-color="#FFFFFF" stop-opacity="0" offset="76.5783361%"></stop>
        </linearGradient>
        <linearGradient x1="26.8455871%" y1="11.2040695%" x2="76.0079531%" y2="84.7517171%" id="linearGradient-12">
            <stop stop-color="#FFFFFF" stop-opacity="0.61994646" offset="0%"></stop>
            <stop stop-color="#FFFFFF" stop-opacity="0" offset="76.5783361%"></stop>
        </linearGradient>
        <linearGradient x1="26.9665372%" y1="11.2040695%" x2="75.8720972%" y2="84.7517171%" id="linearGradient-13">
            <stop stop-color="#FFFFFF" stop-opacity="0.61994646" offset="0%"></stop>
            <stop stop-color="#FFFFFF" stop-opacity="0" offset="76.5783361%"></stop>
        </linearGradient>
        <linearGradient x1="26.5358325%" y1="11.259881%" x2="76.3558817%" y2="84.7017236%" id="linearGradient-14">
            <stop stop-color="#FFFFFF" stop-opacity="0.61994646" offset="0%"></stop>
            <stop stop-color="#FFFFFF" stop-opacity="0" offset="76.5783361%"></stop>
        </linearGradient>
        <linearGradient x1="26.5358325%" y1="11.259881%" x2="76.3558817%" y2="84.7017236%" id="linearGradient-15">
            <stop stop-color="#FFFFFF" stop-opacity="0.61994646" offset="0%"></stop>
            <stop stop-color="#FFFFFF" stop-opacity="0" offset="76.5783361%"></stop>
        </linearGradient>
        <linearGradient x1="26.7067913%" y1="11.2040695%" x2="76.163854%" y2="84.7517171%" id="linearGradient-16">
            <stop stop-color="#FFFFFF" stop-opacity="0.61994646" offset="0%"></stop>
            <stop stop-color="#FFFFFF" stop-opacity="0" offset="76.5783361%"></stop>
        </linearGradient>
    </defs>
    <g id="2.-Forgot-password-2.0.2." stroke="none" stroke-width="1" fill="none" fill-rule="evenodd">
        <g id="01-desktop-responsive-Create-account" transform="translate(0.000000, -77.000000)">
            <g id="texture-abstract-multiple" transform="translate(0.000000, 77.000000)">
                <mask id="mask-3" fill="white">
                    <use xlink:href="#path-2"></use>
                </mask>
                <use id="Rectangle" fill="url(#linearGradient-1)" opacity="0" xlink:href="#path-2"></use>
                <g id="lines-texture" mask="url(#mask-3)" fill-opacity="0.05">
                    <g transform="translate(-330.000000, -152.000000)">
                        <g id="Group-Copy-7" opacity="0.3" transform="translate(270.000000, 321.000000)">
                            <polygon id="Polygon" stroke="url(#linearGradient-4)" fill="#FFFFFF" points="221.446307 0.189189047 412.434991 110.707009 412.434991 331.742648 221.446307 442.260468 30.4576222 331.742648 30.4576222 110.707009"></polygon>
                            <polygon id="Polygon-Copy-2" stroke="url(#linearGradient-5)" fill="#FFFFFF" points="221.823709 65.2732519 357.611023 143.518011 357.611023 300.007529 221.823709 378.252288 86.0363957 300.007529 86.0363957 143.518011"></polygon>
                            <polygon id="Polygon-Copy-3" stroke="url(#linearGradient-6)" fill="#FFFFFF" points="223.063267 130.473224 300.828702 175.28402 300.828702 264.905613 223.063267 309.71641 145.297832 264.905613 145.297832 175.28402"></polygon>
                        </g>
                        <g id="Line-2" transform="translate(245.000000, 87.000000)">
                            <line x1="0" y1="0" x2="579" y2="337" id="Line" stroke="url(#linearGradient-7)" fill="#FFFFFF"></line>
                        </g>
                        <g id="Line-2-Copy-2" transform="translate(0.000000, 255.000000)">
                            <line x1="0" y1="0" x2="1244" y2="722" id="Line" stroke="url(#linearGradient-8)" fill="#FFFFFF"></line>
                        </g>
                        <g id="Line-2-Copy" transform="translate(194.000000, 622.000000)">
                            <line x1="0" y1="0" x2="485" y2="282" id="Line" stroke="url(#linearGradient-9)" fill="#FFFFFF"></line>
                        </g>
                        <g id="Group-Copy" opacity="0.3" transform="translate(161.000000, 297.000000)">
                            <polygon id="Polygon" stroke="url(#linearGradient-10)" fill="#FFFFFF" points="122.5 0 228.588112 61.25 228.588112 183.75 122.5 245 16.411888 183.75 16.411888 61.25"></polygon>
                            <polygon id="Polygon-Copy-2" stroke="url(#linearGradient-11)" fill="#FFFFFF" points="123.431559 36.1931818 198.056276 79.3465909 198.056276 165.653409 123.431559 208.806818 48.8068414 165.653409 48.8068414 79.3465909"></polygon>
                        </g>
                        <g id="Group-Copy-5" opacity="0.3" transform="translate(212.000000, 732.000000)">
                            <polygon id="Polygon" stroke="url(#linearGradient-10)" fill="#FFFFFF" points="122.5 0 228.588112 61.25 228.588112 183.75 122.5 245 16.411888 183.75 16.411888 61.25"></polygon>
                            <polygon id="Polygon-Copy-2" stroke="url(#linearGradient-11)" fill="#FFFFFF" points="123.431559 36.1931818 198.056276 79.3465909 198.056276 165.653409 123.431559 208.806818 48.8068414 165.653409 48.8068414 79.3465909"></polygon>
                        </g>
                        <g id="Group-Copy-8" opacity="0.3" transform="translate(559.000000, 770.000000)">
                            <polygon id="Polygon" stroke="url(#linearGradient-12)" fill="#FFFFFF" points="75 0 139.951905 37.75 139.951905 113.25 75 151 10.0480947 113.25 10.0480947 37.75"></polygon>
                            <polygon id="Polygon-Copy-2" stroke="url(#linearGradient-13)" fill="#FFFFFF" points="75.931677 22.3703704 121.519039 48.9351852 121.519039 102.064815 75.931677 128.62963 30.3443149 102.064815 30.3443149 48.9351852"></polygon>
                        </g>
                        <g id="Group-Copy-9" opacity="0.3" transform="translate(307.000000, 176.000000)">
                            <polygon id="Polygon" stroke="url(#linearGradient-12)" fill="#FFFFFF" points="75 0 139.951905 37.75 139.951905 113.25 75 151 10.0480947 113.25 10.0480947 37.75"></polygon>
                            <polygon id="Polygon-Copy-2" stroke="url(#linearGradient-13)" fill="#FFFFFF" points="75.931677 22.3703704 121.519039 48.9351852 121.519039 102.064815 75.931677 128.62963 30.3443149 102.064815 30.3443149 48.9351852"></polygon>
                        </g>
                        <g id="Group" opacity="0.3" transform="translate(634.000000, 606.000000)">
                            <polygon id="Polygon" stroke="url(#linearGradient-10)" fill="#FFFFFF" points="47.9154711 0.127811012 89.0811059 23.8948013 89.0811059 71.4287819 47.9154711 95.1957722 6.74983641 71.4287819 6.74983641 23.8948013"></polygon>
                            <polygon id="Polygon-Copy-2" stroke="url(#linearGradient-10)" fill="#FFFFFF" points="47.9154711 14.1083935 76.9735662 30.8850926 76.9735662 64.4384906 47.9154711 81.2151897 18.857376 64.4384906 18.857376 30.8850926"></polygon>
                        </g>
                        <g id="Group-Copy-3" opacity="0.3" transform="translate(456.000000, 288.000000)">
                            <polygon id="Polygon" stroke="url(#linearGradient-10)" fill="#FFFFFF" points="34.5 0 64.3778764 17.25 64.3778764 51.75 34.5 69 4.62212357 51.75 4.62212357 17.25"></polygon>
                            <polygon id="Polygon-Copy-2" stroke="url(#linearGradient-10)" fill="#FFFFFF" points="34.5 10.2567568 55.4952645 22.3783784 55.4952645 46.6216216 34.5 58.7432432 13.5047355 46.6216216 13.5047355 22.3783784"></polygon>
                        </g>
                        <g id="Group-Copy-6" opacity="0.3" transform="translate(648.000000, 217.000000)">
                            <polygon id="Polygon" stroke="url(#linearGradient-10)" fill="#FFFFFF" points="34.5 0 64.3778764 17.25 64.3778764 51.75 34.5 69 4.62212357 51.75 4.62212357 17.25"></polygon>
                            <polygon id="Polygon-Copy-2" stroke="url(#linearGradient-10)" fill="#FFFFFF" points="34.5 10.2567568 55.4952645 22.3783784 55.4952645 46.6216216 34.5 58.7432432 13.5047355 46.6216216 13.5047355 22.3783784"></polygon>
                        </g>
                        <g id="Group-Copy-4" opacity="0.3" transform="translate(380.000000, 654.000000)">
                            <polygon id="Polygon" stroke="url(#linearGradient-10)" fill="#FFFFFF" points="110.5 0 206.195807 55.25 206.195807 165.75 110.5 221 14.8041929 165.75 14.8041929 55.25"></polygon>
                            <polygon id="Polygon-Copy-2" stroke="url(#linearGradient-10)" fill="#FFFFFF" points="111.428571 33.4285714 178.978553 72.4285714 178.978553 150.428571 111.428571 189.428571 43.8785899 150.428571 43.8785899 72.4285714"></polygon>
                        </g>
                        <g id="Group-Copy" opacity="0.3" transform="translate(672.000000, 225.000000)">
                            <polygon id="Polygon" stroke="url(#linearGradient-14)" fill="#FFFFFF" points="51 0 94.7657747 25.25 94.7657747 75.75 51 101 7.23422528 75.75 7.23422528 25.25"></polygon>
                            <polygon id="Polygon-Copy-2" stroke="url(#linearGradient-15)" fill="#FFFFFF" points="51 14.8256881 81.9171069 32.662844 81.9171069 68.337156 51 86.1743119 20.0828931 68.337156 20.0828931 32.662844"></polygon>
                        </g>
                        <g id="Group-Copy-2" opacity="0.3" transform="translate(425.000000, 0.000000)">
                            <polygon id="Polygon" stroke="url(#linearGradient-16)" fill="#FFFFFF" points="127.571043 0 237.586295 63.75 237.586295 191.25 127.571043 255 17.5557898 191.25 17.5557898 63.75"></polygon>
                            <polygon id="Polygon-Copy-2" stroke="url(#linearGradient-10)" fill="#FFFFFF" points="128.036371 37.2262774 206.215708 82.3631387 206.215708 172.636861 128.036371 217.773723 49.8570339 172.636861 49.8570339 82.3631387"></polygon>
                            <polygon id="Polygon-Copy-3" stroke="url(#linearGradient-10)" fill="#FFFFFF" points="128.501699 75.3832117 173.233176 101.208942 173.233176 152.860401 128.501699 178.686131 83.7702231 152.860401 83.7702231 101.208942"></polygon>
                        </g>
                    </g>
                </g>
            </g>
        </g>
    </g>
</svg>