<?xml version="1.0" standalone="no"?> 
<!DOCTYPE svg PUBLIC "-//W3C//DTD SVG 1.1//EN" "http://www.w3.org/Graphics/SVG/1.1/DTD/svg11.dtd" >
<svg xmlns="http://www.w3.org/2000/svg">
<defs>
  <font id="workportal-icons" horiz-adv-x="32">
    <font-face font-family="workportal-icons"
      units-per-em="512" ascent="448"
      descent="64" />
    <missing-glyph horiz-adv-x="0" />
    <glyph glyph-name="1-point"
      unicode="&#xF101;"
      horiz-adv-x="512" d=" M32 368C32 341.4903320081219 53.49033200812191 320 80 320C106.50966799187809 320 128 341.4903320081219 128 368C128 394.5096679918781 106.50966799187809 416 80 416C53.49033200812191 416 32 394.5096679918781 32 368z" />
    <glyph glyph-name="2-point"
      unicode="&#xF102;"
      horiz-adv-x="512" d=" M32 208C32 181.49033200812192 53.49033200812191 160 80 160C106.50966799187809 160 128 181.49033200812192 128 208C128 234.50966799187808 106.50966799187809 256 80 256C53.49033200812191 256 32 234.50966799187808 32 208z" />
    <glyph glyph-name="3-point"
      unicode="&#xF103;"
      horiz-adv-x="512" d=" M32 48C32 21.490332008121925 53.49033200812191 0 80 0C106.50966799187809 0 128 21.490332008121925 128 48C128 74.50966799187808 106.50966799187809 96 80 96C53.49033200812191 96 32 74.50966799187808 32 48z" />
    <glyph glyph-name="accessibility"
      unicode="&#xF104;"
      horiz-adv-x="512" d=" M80 256H134.4L214.4 32H160L144 76.80000000000001H64L48 32H0L80 256zM76.8 115.19999999999999H134.4L105.6 204.8L76.8 115.19999999999999z M323.2 352H400L512 32H438.4L416 99.19999999999999H300.8L278.4 32H208L323.2 352zM320 153.60000000000002H403.2L361.59999999999997 278.40000000000003L320 153.60000000000002z" />
    <glyph glyph-name="activity"
      unicode="&#xF105;"
      horiz-adv-x="512" d=" M51.2 224L160 332.8L352 140.8L435.2 224H480V384C480 403.2 467.2 416 448 416H64C44.8 416 32 403.2 32 384V224H51.2z M460.8 160L352 51.19999999999999L160 243.2L76.8 160H32V0C32 -19.19999999999999 44.8 -32 64 -32H448C467.2 -32 480 -19.19999999999999 480 0V160H460.8z" />
    <glyph glyph-name="alarm"
      unicode="&#xF106;"
      horiz-adv-x="512" d=" M256 -38.39999999999998C147.2 -38.39999999999998 57.599999999999994 51.200000000000045 57.599999999999994 160S147.2 358.4 256 358.4S454.4 268.8 454.4 160S364.8 -38.39999999999998 256 -38.39999999999998zM256 297.6C179.2 297.6 118.4 236.8 118.4 160S179.2 22.399999999999977 256 22.399999999999977S393.6 83.19999999999999 393.6 160S332.8 297.6 256 297.6z M256 137.60000000000002L179.2 211.2C172.79999999999998 217.6 172.79999999999998 227.2 179.2 233.6S195.2 240 201.6 233.6L256 182.39999999999998L307.2 233.59999999999997C313.59999999999997 239.99999999999997 323.2 239.99999999999997 329.59999999999997 233.59999999999997S335.99999999999994 217.59999999999997 329.59999999999997 211.19999999999996L256 137.60000000000002z M329.6 377.6C364.8 422.4 432 428.8 473.6 390.4S524.8000000000001 288 486.40000000000003 246.39999999999998L329.6 377.6z M182.4 377.6C147.2 422.4 80 428.8 38.4 393.6S-12.800000000000004 291.2 25.599999999999998 249.6L182.4 377.6z" />
    <glyph glyph-name="asynchronous"
      unicode="&#xF107;"
      horiz-adv-x="512" d=" M480 352L192 352L192 416L112 368L32 320L112 272L192 224L192 288L480 288z M400 112L320 160L320 96L32 96L32 32L320 32L320 -32L400 16L480 64z" />
    <glyph glyph-name="authentication"
      unicode="&#xF108;"
      horiz-adv-x="512" d=" M384 224C339.2 268.8 268.8 268.8 224 224C179.2 179.2 179.2 108.80000000000001 224 64C262.4 25.600000000000023 323.2 19.19999999999999 368 51.19999999999999L451.2 -32L480 -3.1999999999999886L396.8 80C428.8 121.60000000000002 425.6 182.39999999999998 384 224zM355.2 92.80000000000001C326.4 64 281.6 64 252.79999999999998 92.80000000000001C223.99999999999997 121.60000000000002 223.99999999999997 166.39999999999998 252.79999999999998 195.20000000000002C281.59999999999997 224.00000000000003 326.4 224.00000000000003 355.2 195.20000000000002C384 166.39999999999998 384 121.60000000000002 355.2 92.80000000000001z M448 352L390.4 416C390.4 416 326.4 358.4 255.99999999999997 416C185.6 358.4 121.6 416 121.6 416L64 352C64 352 108.8 320 83.2 249.6C54.4 169.60000000000002 44.8 51.19999999999999 256 -32C268.8 -25.600000000000023 278.4 -22.399999999999977 288 -16C252.8 -12.800000000000011 217.6 0 192 28.80000000000001C160 60.80000000000001 144 99.20000000000005 144 144C144 185.60000000000002 160 227.2 192 256C220.8 288 262.4 304 307.2 304C348.8 304 390.4 288 422.4 256C422.4 256 422.4 256 422.4 256C425.59999999999997 252.8 428.79999999999995 249.6 432 243.2C432 246.39999999999998 432 246.39999999999998 428.8 249.6C403.2 320 448 352 448 352z" />
    <glyph glyph-name="back"
      unicode="&#xF109;"
      horiz-adv-x="512" d=" M480 192L512 160L64 160L32 192z M480 192L512 160L204.8 160L172.8 192z M195.2 28.80000000000001L195.2 355.2L32 192z" />
    <glyph glyph-name="bell"
      unicode="&#xF10A;"
      horiz-adv-x="512" d=" M435.2 129.60000000000002V233.60000000000002C435.2 313.6 380.8 388.8 299.2 408C299.2 408 296 448 256 448C216 448 212.8 409.6 212.8 409.6C131.20000000000002 390.40000000000003 76.80000000000001 313.6 76.80000000000001 233.60000000000002V132.8C76.80000000000001 83.19999999999999 44.80000000000001 75.19999999999999 6.400000000000006 35.200000000000045H504C467.2 75.19999999999999 435.2 80 435.2 129.60000000000002zM256 -64C299.2 -64 336 -28.80000000000001 345.6 16H166.4C176 -28.80000000000001 212.8 -64 256 -64z" />
    <glyph glyph-name="box"
      unicode="&#xF10B;"
      horiz-adv-x="512" d=" M32 416H480V288H32z M64 256V-32H448V256H64zM355.2 144C355.2 134.39999999999998 348.8 128 339.2 128H176C166.4 128 160 134.39999999999998 160 140.8V176C160 185.60000000000002 166.4 192 176 192H336C345.6 192 352 185.60000000000002 355.2 176V144z" />
    <glyph glyph-name="calendar"
      unicode="&#xF10C;"
      horiz-adv-x="512" d=" M448 451.2H64C28.799999999999997 451.2 0 422.4 0 387.2V0C0 -35.19999999999999 28.8 -64 64 -64H348.8C361.6 -64 380.8 -57.60000000000002 393.6 -48L492.8 44.80000000000001C505.6 57.60000000000002 512 73.60000000000002 512 92.80000000000001V387.2C512 422.4 483.2 451.2 448 451.2zM384 422.4C403.2 422.4 422.4 406.4 422.4 384S403.2 345.6 384 345.6S345.6 364.8 345.6 384S364.8 422.4 384 422.4zM124.8 422.4C144 422.4 160 406.4 160 384S147.2 345.6 124.8 345.6C105.6 345.6 89.6 364.8 89.6 384S105.6 422.4 124.8 422.4zM467.2 115.19999999999999C467.2 105.59999999999997 457.59999999999997 96 448 96H374.4C364.79999999999995 96 355.2 86.39999999999998 355.2 76.80000000000001V-9.600000000000023L348.8 -16H70.4C60.800000000000004 -16 51.2 -6.399999999999977 51.2 3.1999999999999886V268.8C51.2 278.4 60.800000000000004 288 70.4 288H444.79999999999995C454.4 288 463.99999999999994 278.4 463.99999999999994 268.8V115.19999999999999z M332.8 272C316.8 281.6 297.6 275.2 288 259.2L217.6 128L192 156.8C179.2 169.60000000000002 156.8 169.60000000000002 144 160C131.2 147.2 131.2 128 140.8 115.19999999999999L201.60000000000002 51.19999999999999C208.00000000000003 44.80000000000001 217.60000000000002 41.599999999999966 224.00000000000003 41.599999999999966C224.00000000000003 41.599999999999966 227.20000000000002 41.599999999999966 227.20000000000002 41.599999999999966C236.8 41.599999999999966 246.4 47.99999999999994 252.8 57.599999999999966L342.4 230.39999999999998C355.2 243.2 348.8 262.4 332.8 272z" />
    <glyph glyph-name="case-recent"
      unicode="&#xF10D;"
      horiz-adv-x="512" d=" M467.2 336H364.79999999999995V371.2C364.79999999999995 403.2 339.19999999999993 425.6 310.4 425.6H201.6C169.6 425.6 147.2 400 147.2 371.2V336H44.8C19.2 336 0 313.6 0 288V51.19999999999999C0 25.599999999999966 19.2 6.399999999999977 44.8 6.399999999999977H163.2C150.4 32 144 64 144 96C144 211.2 236.8 304 352 304C416 304 473.6 275.2 512 227.2V288C512 313.6 492.8 336 467.2 336zM329.6 336H182.4L182.4 364.8C182.4 380.8 192 396.8 208 396.8H304C316.8 396.8 329.6 384 329.6 364.8L329.6 336z M352 256C262.4 256 192 185.60000000000002 192 96S262.4 -64 352 -64S512 6.399999999999977 512 96S441.6 256 352 256zM352 -16C291.2 -16 240 35.19999999999999 240 96C240 156.8 291.2 208 352 208C412.8 208 464 156.8 464 96C464 35.19999999999999 412.8 -16 352 -16z M380.8 147.2L352 118.39999999999998L304 166.39999999999998C297.6 172.8 288 172.8 281.6 166.39999999999998S275.20000000000005 150.39999999999998 281.6 144L352 73.60000000000002L403.2 124.80000000000001C409.59999999999997 131.2 409.59999999999997 140.8 403.2 147.2S387.2 153.60000000000002 380.8 147.2z" />
    <glyph glyph-name="case"
      unicode="&#xF10E;"
      horiz-adv-x="512" d=" M441.6 320L352 320V352C352 377.6 329.6 400 304 400H208C182.4 400 160 377.6 160 352V320L70.4 320C51.2 320 32 300.8 32 281.6V73.60000000000002C32 51.19999999999999 51.2 32 70.4 32H438.4C460.79999999999995 32 476.79999999999995 51.19999999999999 476.79999999999995 70.39999999999998V281.6C480 300.8 460.8 320 441.6 320zM208 336C208 345.6 214.4 352 224 352H288C297.6 352 304 345.6 304 336L304 320H208L208 336z" />
    <glyph glyph-name="checklist"
      unicode="&#xF10F;"
      horiz-adv-x="512" d=" M160 416H480V320H160z M160 256H480V160H160z M160 96H480V0H160z M32 368C32 341.4903320081219 53.49033200812191 320 80 320C106.50966799187809 320 128 341.4903320081219 128 368C128 394.5096679918781 106.50966799187809 416 80 416C53.49033200812191 416 32 394.5096679918781 32 368z M32 208C32 181.49033200812192 53.49033200812191 160 80 160C106.50966799187809 160 128 181.49033200812192 128 208C128 234.50966799187808 106.50966799187809 256 80 256C53.49033200812191 256 32 234.50966799187808 32 208z M32 48C32 21.490332008121925 53.49033200812191 0 80 0C106.50966799187809 0 128 21.490332008121925 128 48C128 74.50966799187808 106.50966799187809 96 80 96C53.49033200812191 96 32 74.50966799187808 32 48z" />
    <glyph glyph-name="clip"
      unicode="&#xE001;"
      horiz-adv-x="512" d=" M304 448C236.8 448 185.6 393.6 185.6 329.6V105.60000000000002C185.6 64 217.6 32 256 32S329.6 64 329.6 105.60000000000002V307.2H281.6V105.60000000000002C281.6 92.80000000000001 272 80 256 80S230.4 89.60000000000002 230.4 105.60000000000002V329.6C230.4 368 262.4 403.20000000000005 304 403.20000000000005S377.6 371.20000000000005 377.6 329.6V105.60000000000002C377.6 38.400000000000034 323.20000000000005 -16 256 -16S134.4 38.39999999999998 134.4 105.60000000000002V297.6H89.6V105.60000000000002C89.6 12.800000000000011 163.2 -64 256 -64S425.6 12.800000000000011 425.6 105.60000000000002V329.6C425.6 393.6 371.2 448 304 448z" />
    <glyph glyph-name="cog"
      unicode="&#xF110;"
      horiz-adv-x="512" d=" M512 160V224H444.8C438.40000000000003 252.8 428.8 281.6 412.8 304L460.8 352L416 396.8L368 348.8C345.6 364.8 316.8 377.6 288 380.8V448H224V380.8C195.2 374.4 169.6 364.8 144 348.8L96 396.8L51.2 348.8L99.2 300.8C83.2 278.4 70.4 252.8 67.2 224H0V160H67.2C73.60000000000001 131.2 83.2 105.60000000000002 99.2 80L51.2 32L96 -12.800000000000011L144 35.19999999999999C166.4 19.19999999999999 195.2 6.399999999999977 224 3.1999999999999886V-64H288V3.1999999999999886C316.8 6.399999999999977 345.6 19.19999999999999 368 35.19999999999999L416 -12.800000000000011L460.8 32L412.8 80C428.8 102.39999999999998 441.6 131.2 444.8 160H512zM256 64C185.6 64 128 121.60000000000002 128 192C128 262.4 185.6 320 256 320C326.4 320 384 262.4 384 192C384 121.60000000000002 326.4 64 256 64z M192 192C192 156.65377601082923 220.6537760108292 128 256 128C291.34622398917077 128 320 156.65377601082923 320 192C320 227.3462239891708 291.34622398917077 256 256 256C220.6537760108292 256 192 227.3462239891708 192 192z" />
    <glyph glyph-name="cogs"
      unicode="&#xF111;"
      horiz-adv-x="512" d=" M358.4 246.4V291.2H310.4C307.2 310.4 300.8 329.6 288 345.6L320 377.6L288 409.6L256 377.6C240 390.4 220.8 396.8 201.6 400V448H156.8V400C134.4 396.8 118.4 390.4 102.4 377.6L70.4 409.6L38.400000000000006 377.6L70.4 345.6C57.6 329.6 51.2 310.4 48 291.2H0V246.39999999999998H48C51.2 227.2 57.6 208 70.4 192L38.400000000000006 160L70.4 128L102.4 160C118.4 147.2 137.60000000000002 140.8 156.8 137.60000000000002V89.60000000000002H201.60000000000002V134.39999999999998C220.8 137.60000000000002 240 147.2 256 160L288 128L320 160L288 192C300.8 208 307.2 224 310.4 246.4H358.4zM179.2 179.2C131.2 179.2 89.6 220.79999999999998 89.6 268.79999999999995C89.6 316.79999999999995 131.2 358.4 179.2 358.4C227.2 358.4 268.79999999999995 316.79999999999995 268.79999999999995 268.79999999999995C268.8 217.6 227.2 179.2 179.2 179.2z M134.39999999999998 268.8C134.39999999999998 244.05764320758047 154.45764320758045 224 179.2 224C203.94235679241953 224 224 244.05764320758047 224 268.8C224 293.5423567924196 203.94235679241953 313.6 179.2 313.6C154.45764320758045 313.6 134.39999999999998 293.5423567924196 134.39999999999998 268.8z M508.8 92.80000000000001L496 121.60000000000002L467.2 108.80000000000001C460.8 121.60000000000002 448 131.2 438.4 137.60000000000002L448 169.60000000000002L419.2 182.40000000000003L406.4 153.60000000000002C393.59999999999997 156.8 377.59999999999997 156.8 364.79999999999995 153.60000000000002L351.99999999999994 182.40000000000003L323.19999999999993 169.60000000000002L335.99999999999994 140.8C323.19999999999993 134.40000000000003 313.59999999999997 121.60000000000002 307.19999999999993 112L278.3999999999999 124.80000000000001L265.5999999999999 96L294.3999999999999 83.19999999999999C291.19999999999993 70.39999999999998 291.19999999999993 54.39999999999998 294.3999999999999 41.599999999999966L265.5999999999999 28.799999999999955L278.3999999999999 -5.684341886080802e-14L307.19999999999993 12.799999999999955C313.5999999999999 -5.684341886080802e-14 326.3999999999999 -9.600000000000023 335.99999999999994 -16.000000000000057L323.19999999999993 -44.80000000000007L351.99999999999994 -57.60000000000008L364.79999999999995 -28.800000000000068C377.59999999999997 -32.00000000000006 393.59999999999997 -32.00000000000006 406.4 -28.800000000000068L419.2 -57.60000000000008L448 -44.80000000000007L435.2 -16.000000000000057C448 -9.60000000000008 457.59999999999997 3.199999999999932 464 12.799999999999955L492.8 -5.684341886080802e-14L505.6 28.799999999999955L480 38.39999999999998C483.2 51.19999999999999 483.2 67.19999999999999 480 80L508.8 92.80000000000001zM412.8 3.1999999999999886C380.8 -9.600000000000023 345.6 3.1999999999999886 332.8 35.19999999999999C320 67.19999999999999 332.8 102.39999999999998 364.8 115.19999999999999C396.8 128 432 115.19999999999999 444.8 83.19999999999999C457.6 54.39999999999998 444.8 16 412.8 3.1999999999999886z M355.2 60.80000000000001C355.2 43.12688800541463 369.5268880054146 28.80000000000001 387.2 28.80000000000001C404.8731119945854 28.80000000000001 419.2 43.12688800541463 419.2 60.80000000000001C419.2 78.4731119945854 404.8731119945854 92.80000000000001 387.2 92.80000000000001C369.5268880054146 92.80000000000001 355.2 78.4731119945854 355.2 60.80000000000001z" />
    <glyph glyph-name="comment"
      unicode="&#xF112;"
      horiz-adv-x="512" d=" M512 211.2C512 307.2 425.6 387.2 320 387.2S128 310.4 128 211.2C128 144 169.6 86.39999999999998 230.4 57.60000000000002C227.2 41.60000000000002 217.6 3.1999999999999886 192 0C163.2 -6.399999999999977 310.4 -3.1999999999999886 358.4 41.60000000000002C448 57.60000000000002 512 128 512 211.2z M96 211.2C96 265.6 118.4 316.79999999999995 156.8 355.2C70.4 355.2 0 288 0 208C0 153.60000000000002 35.2 102.39999999999998 83.2 80C80 67.19999999999999 73.60000000000001 35.19999999999999 51.2 32C32 28.80000000000001 121.60000000000001 28.80000000000001 172.8 54.39999999999998C124.8 92.80000000000001 96 150.39999999999998 96 211.2z" />
    <glyph glyph-name="database"
      unicode="&#xF113;"
      horiz-adv-x="512" d=" M480 320V192C480 156.8 380.8 128 256 128C131.2 128 32 156.8 32 192V320C32 284.8 131.2 256 256 256C380.8 256 480 284.8 480 320z M480 128V0C480 -35.19999999999999 380.8 -64 256 -64C131.2 -64 32 -35.19999999999999 32 0V128C32 92.80000000000001 131.2 64 256 64C380.8 64 480 92.80000000000001 480 128z M32 368C32 341.4903320081219 132.28821603790226 320 256 320C379.71178396209774 320 480 341.4903320081219 480 368C480 394.5096679918781 379.71178396209774 416 256 416C132.28821603790226 416 32 394.5096679918781 32 368z" />
    <glyph glyph-name="diagram"
      unicode="&#xF114;"
      horiz-adv-x="512" d=" M480 160H288C268.8 160 256 147.2 256 128V-32C256 -51.19999999999999 268.8 -64 288 -64H480C499.2 -64 512 -51.19999999999999 512 -32V128C512 147.2 499.2 160 480 160z M198.4 64H128V227.2C182.4 233.6 224 281.6 224 336C224 396.8 172.8 448 112 448S0 396.8 0 336C0 278.4 41.6 233.6 96 227.2V32H198.4V-9.600000000000023L256 48L198.4 105.60000000000002V64z" />
    <glyph glyph-name="dimension"
      unicode="&#xF115;"
      horiz-adv-x="512" d=" M435.2 94.39999999999998L401.59999999999997 60.799999999999955L289.59999999999997 172.79999999999995V326.4H337.59999999999997C347.2 326.4 351.99999999999994 337.6 343.99999999999994 344L308.79999999999995 377.6L260.79999999999995 422.4C255.99999999999994 425.59999999999997 251.19999999999996 425.59999999999997 246.39999999999995 422.4L198.39999999999995 377.6L163.19999999999993 344C156.79999999999993 337.6 161.59999999999994 326.4 169.59999999999994 326.4H217.59999999999994V171.20000000000005L105.59999999999994 59.200000000000045L71.99999999999994 92.80000000000007C65.59999999999994 99.20000000000005 54.39999999999994 94.40000000000009 54.39999999999994 84.80000000000007L55.99999999999994 36.80000000000007L57.599999999999945 -28.799999999999955C57.599999999999945 -33.599999999999966 62.39999999999994 -38.39999999999998 67.19999999999995 -38.39999999999998L132.79999999999995 -40L180.79999999999995 -41.60000000000002C190.39999999999995 -41.60000000000002 195.19999999999996 -30.400000000000034 188.79999999999995 -24L155.19999999999996 9.600000000000023L252.79999999999995 107.20000000000005L350.4 9.600000000000023L316.79999999999995 -24C310.4 -30.399999999999977 315.19999999999993 -41.60000000000002 324.79999999999995 -41.60000000000002L372.79999999999995 -40L438.4 -38.39999999999998C443.2 -38.39999999999998 448 -33.599999999999966 448 -28.799999999999955L449.6 36.80000000000007L451.20000000000005 84.80000000000007C454.4 96 443.2 100.80000000000001 435.2 94.39999999999998z" />
    <glyph glyph-name="down"
      unicode="&#xF116;"
      horiz-adv-x="512" d=" M379.2 312L379.2 312C374.4 320 364.8 320 360 320H152C147.2 320 137.6 318.4 132.8 312L132.8 312C126.4 300.8 126.4 283.2 132.8 272L244.8 73.60000000000002C251.20000000000002 62.400000000000034 260.8 62.400000000000034 267.2 73.60000000000002L267.2 75.20000000000005L377.6 273.6C385.6 281.6 385.6 300.8 379.2 312z" />
    <glyph glyph-name="edit"
      unicode="&#xF117;"
      horiz-adv-x="512" d=" M464 320C486.4 342.4 486.4 377.6 464 400C441.6 422.4 406.4 422.4 384 400L364.8 380.8L444.8 300.8L464 320z M406.4 262.4L175.99999999999997 35.200000000000045L137.59999999999997 -3.199999999999932L63.99999999999997 -28.799999999999955C44.79999999999997 -35.19999999999993 25.599999999999973 -15.999999999999943 31.99999999999997 3.2000000000000455L57.59999999999997 76.80000000000007L95.99999999999997 115.20000000000005L323.19999999999993 345.6L406.4 262.4z" />
    <glyph glyph-name="eye"
      unicode="&#xF118;"
      horiz-adv-x="512" d=" M256 288C320 288 387.2 236.8 425.6 192C387.2 150.39999999999998 320 96 256 96C192 96 124.80000000000001 147.2 86.4 192C124.8 233.6 192 288 256 288M256 352C115.2 352 0 192 0 192S115.2 32 256 32C396.8 32 512 192 512 192S396.8 352 256 352L256 352z M256 252.8C220.8 252.8 195.2 224 195.2 192S220.8 131.2 256 131.2C291.2 131.2 316.8 160 316.8 192S291.2 252.8 256 252.8z" />
    <glyph glyph-name="filter"
      unicode="&#xF119;"
      horiz-adv-x="512" d=" M32 409.6C32 409.6 32 336 32 336S217.6 105.60000000000002 217.6 105.60000000000002V-32H288V96L480 332.8L480 406.4H32z" />
    <glyph glyph-name="folder"
      unicode="&#xF11A;"
      horiz-adv-x="512" d=" M480 0H32C12.8 0 0 12.800000000000011 0 32V288C0 307.2 12.8 320 32 320H480C499.2 320 512 307.2 512 288V32C512 12.800000000000011 499.2 0 480 0z M256 352H32V384C32 403.2 44.8 416 64 416H192C227.2 416 256 387.2 256 352L256 352z" />
    <glyph glyph-name="form"
      unicode="&#xF11B;"
      horiz-adv-x="512" d=" M416 416H96C80 416 64 400 64 384V0C64 -16 80 -32 96 -32H416C432 -32 448 -16 448 0V384C448 400 432 416 416 416zM192 64H128V96H192V64zM192 128H128V160H192V128zM192 192H128V224H192V192zM192 256H128V288H192V256zM192 320H128V352H192V320zM384 64H224V96H384V64zM384 128H224V160H384V128zM384 192H224V224H384V192zM384 256H224V288H384V256zM384 320H224V352H384V320z" />
    <glyph glyph-name="hide"
      unicode="&#xF11C;"
      horiz-adv-x="512" d=" M131.2 131.2L259.2 288L281.59999999999997 316.8C275.2 316.8 265.6 316.8 256 316.8C131.2 316.8 32 182.39999999999998 32 182.39999999999998S60.8 140.79999999999995 112 105.59999999999997L131.2 131.2zM80 182.39999999999998C105.6 211.2 150.4 249.59999999999997 198.4 268.79999999999995L105.6 156.8C96 166.39999999999998 86.4 176 80 182.39999999999998z M358.4 288L400 339.2L368 364.8L102.4 44.80000000000001L134.4 19.19999999999999L176 67.19999999999999C201.6 57.599999999999966 227.2 48 256 48C380.8 48 480 182.39999999999998 480 182.39999999999998S432 249.6 358.4 288zM256 86.39999999999998C249.6 86.39999999999998 240 86.39999999999998 230.4 89.59999999999997L252.8 115.19999999999999L265.6 131.2C291.20000000000005 134.39999999999998 310.40000000000003 156.8 310.40000000000003 185.59999999999997C310.40000000000003 185.59999999999997 310.40000000000003 188.79999999999995 310.40000000000003 188.79999999999995L320 198.4L345.6 230.4L358.40000000000003 246.4C387.20000000000005 227.20000000000002 416.00000000000006 198.4 432 182.39999999999998C396.8 144 326.4 86.39999999999998 256 86.39999999999998z" />
    <glyph glyph-name="home"
      unicode="&#xF11D;"
      horiz-adv-x="512" d=" M256 416L64 224L64 -32L192 -32L192 96L320 96L320 -32L448 -32L448 224z" />
    <glyph glyph-name="inbox"
      unicode="&#xF11E;"
      horiz-adv-x="512" d=" M416 416H96L32 160V-32H480V160L416 416zM336 160C336 115.19999999999999 300.8 80 256 80S176 115.19999999999999 176 160H99.2L147.2 352H368L416 160H336z M99.2 160 M412.8 160" />
    <glyph glyph-name="info"
      unicode="&#xF11F;"
      horiz-adv-x="512" d=" M297.6 294.4C297.6 284.8 294.40000000000003 275.20000000000005 284.8 265.6C275.2 259.2 265.6 252.8 256 252.8C243.2 252.8 233.6 256 227.2 265.6C220.8 275.2 214.4 284.8 214.4 294.4C214.4 307.20000000000005 217.6 313.6 227.20000000000002 323.2C236.8 332.8 246.4 336 256 336C268.8 336 278.4 332.8 284.8 323.2C291.2 316.8 297.6 307.2 297.6 294.4zM291.2 48H220.8V236.8H291.20000000000005V48z M259.2 -51.19999999999999C128 -51.19999999999999 19.19999999999999 57.60000000000002 19.19999999999999 188.8S128 428.8 259.2 428.8S499.2 320 499.2 188.8S393.6 -51.19999999999999 259.2 -51.19999999999999zM259.2 364.8C163.2 364.8 83.19999999999999 284.8 83.19999999999999 188.8S163.2 12.800000000000011 259.2 12.800000000000011S435.2 92.80000000000001 435.2 188.8S358.4 364.8 259.2 364.8z" />
    <glyph glyph-name="license"
      unicode="&#xF120;"
      horiz-adv-x="512" d=" M433.6 248L451.20000000000005 276.8C459.20000000000005 291.20000000000005 454.40000000000003 312 440.00000000000006 320L411.20000000000005 337.6L411.20000000000005 371.20000000000005C411.20000000000005 388.8 396.80000000000007 403.20000000000005 380.80000000000007 403.20000000000005H347.20000000000005L328 432C320 448 300.8 452.8 284.8 443.2L256 427.2L227.2 444.8C222.39999999999998 448 217.6 449.6 211.2 449.6C200 449.6 190.39999999999998 443.2 184 433.6L166.4 404.8L132.8 404.8C115.20000000000002 404.8 102.4 390.4 102.4 372.8L102.4 339.2L72 320C57.6 312 51.2 292.8 60.8 276.8L78.4 248L60.800000000000004 219.2C52.800000000000004 204.79999999999998 57.6 184 72 176L100.8 158.39999999999998L100.8 124.79999999999995C100.8 107.19999999999993 115.2 92.79999999999995 131.2 92.79999999999995L164.79999999999998 92.79999999999995L182.39999999999998 63.99999999999994C190.39999999999998 49.599999999999966 209.59999999999997 43.19999999999993 225.59999999999997 52.799999999999955L254.39999999999998 70.39999999999998L283.2 52.799999999999955C297.59999999999997 44.799999999999955 316.8 49.599999999999966 326.4 63.99999999999994L344 92.79999999999995L377.6 92.79999999999995C395.20000000000005 92.79999999999995 408 107.19999999999993 408 124.79999999999995L408 158.39999999999998L436.8 176C451.2 184 457.6 203.2 448 219.2L433.6 248zM363.2 315.2L276.79999999999995 150.39999999999998C271.99999999999994 140.79999999999995 263.99999999999994 136 252.79999999999995 134.39999999999998C251.19999999999996 134.39999999999998 249.59999999999997 134.39999999999998 247.99999999999994 134.39999999999998C239.99999999999994 134.39999999999998 231.99999999999994 137.59999999999997 225.59999999999994 144L167.99999999999994 206.4C156.79999999999995 219.20000000000002 156.79999999999995 238.4 169.59999999999994 249.60000000000002C182.39999999999995 260.8 201.59999999999994 260.8 212.79999999999995 248.00000000000003L241.59999999999997 217.60000000000002L308.79999999999995 344C316.79999999999995 358.40000000000003 335.99999999999994 364.8 350.4 356.8C364.8 350.4 371.2 331.2 363.2 315.2z M422.4 -20.80000000000001L384 -25.600000000000023C382.4 -25.600000000000023 380.8 -27.200000000000045 380.8 -28.80000000000001L364.8 -60.80000000000001C364.8 -64 360 -64 358.40000000000003 -62.400000000000034L292.8 32C299.2 30.399999999999977 307.2 30.399999999999977 313.6 32C326.40000000000003 35.19999999999999 336 43.19999999999999 342.40000000000003 54.39999999999998L355.20000000000005 75.19999999999999H360.00000000000006L425.6 -17.600000000000023C427.2 -17.600000000000023 425.6 -20.80000000000001 422.4 -20.80000000000001z M219.2 32L152 -62.39999999999998C150.4 -64 147.2 -64 145.6 -60.799999999999955L129.6 -28.799999999999955C129.6 -27.199999999999932 128 -25.599999999999966 126.39999999999999 -25.599999999999966L88 -20.799999999999955C84.8 -20.799999999999955 83.2 -17.599999999999966 84.8 -15.999999999999943L150.39999999999998 76.80000000000007H155.2L168 56.00000000000006C174.4 44.80000000000007 184 36.80000000000007 196.8 33.60000000000008C201.60000000000002 32.00000000000006 204.8 32.00000000000006 209.60000000000002 32.00000000000006C214.4 32 217.6 32 219.2 32z" />
    <glyph glyph-name="lock"
      unicode="&#xF121;"
      horiz-adv-x="512" d=" M448 256H368L368 320C368 326.4 368 380.8 332.8 419.2C313.6 438.4 288 448 256 448S198.4 438.4 176 416C140.8 380.8 144 323.2 144 320V256H64C48 256 32 240 32 224V0C32 -19.19999999999999 48 -32 64 -32H448C467.2 -32 480 -16 480 0V224C480 240 464 256 448 256zM208 320C208 329.6 211.2 355.2 224 371.2C233.6 380.8 243.2 384 256 384S278.4 380.8 288 374.4C300.8 358.4 304 329.6 304 320V256H208L208 320zM256 80C230.4 80 211.2 99.19999999999999 211.2 124.80000000000001S230.4 169.60000000000002 256 169.60000000000002S300.8 150.40000000000003 300.8 124.80000000000001S281.6 80 256 80z" />
    <glyph glyph-name="log"
      unicode="&#xF122;"
      horiz-adv-x="512" d=" M416 416H128C108.8 416 96 403.2 96 384V352H64C44.8 352 32 339.2 32 320S44.8 288 64 288H96V224H64C44.8 224 32 211.2 32 192C32 172.8 44.8 160 64 160H96V96H64C44.8 96 32 83.19999999999999 32 64C32 44.80000000000001 44.8 32 64 32H96V0C96 -19.19999999999999 108.8 -32 128 -32H416C435.2 -32 448 -19.19999999999999 448 0V384C448 403.2 435.2 416 416 416zM160 32C140.8 32 128 44.80000000000001 128 64C128 83.19999999999999 140.8 96 160 96C179.2 96 192 83.19999999999999 192 64C192 44.80000000000001 179.2 32 160 32zM160 160C140.8 160 128 172.8 128 192C128 211.2 140.8 224 160 224C179.2 224 192 211.2 192 192C192 172.8 179.2 160 160 160zM160 288C140.8 288 128 300.8 128 320S140.8 352 160 352C179.2 352 192 339.2 192 320S179.2 288 160 288z" />
    <glyph glyph-name="menu"
      unicode="&#xF123;"
      horiz-adv-x="512" d=" M32 384H480V288H32z M32 224H480V128H32z M32 64H480V-32H32z" />
    <glyph glyph-name="new"
      unicode="&#xF124;"
      horiz-adv-x="512" d=" M99.2 160 M412.8 160 M256 384C361.6 384 448 297.6 448 192S361.6 0 256 0S64 86.39999999999998 64 192S150.4 384 256 384M256 448C115.2 448 0 332.8 0 192S115.2 -64 256 -64S512 51.19999999999999 512 192S396.8 448 256 448L256 448z M224 288H288V96H224z M160 224H352V160H160z" />
    <glyph glyph-name="next"
      unicode="&#xE002;"
      horiz-adv-x="512" d=" M214.4 406.4L169.6 361.6L339.2 192L169.6 22.399999999999977L214.4 -22.399999999999977L428.8 192z" />
    <glyph glyph-name="open"
      unicode="&#xF125;"
      horiz-adv-x="512" d=" M233.6 214.4L278.4 169.60000000000002L412.8 304L480 233.6L480 416L297.6 416L368 348.8z M416 32H96V352H256V416H96C60.8 416 32 387.2 32 352V32C32 -3.1999999999999886 60.8 -32 96 -32H416C451.2 -32 480 -3.1999999999999886 480 32V192H416V32z" />
    <glyph glyph-name="order-ascendant"
      unicode="&#xF126;"
      horiz-adv-x="512" d=" M32 416H256V352H32z M32 288H224V224H32z M32 160H192V96H32z M32 32H160V-32H32z M432 336L384 416L336 336L288 256L352 256L352 -32L416 -32L416 256L480 256z" />
    <glyph glyph-name="order-descendant"
      unicode="&#xF127;"
      horiz-adv-x="512" d=" M32 32H256V-32H32z M64 160H256V96H64z M96 288H256V224H96z M128 416H256V352H128z M416 128L416 416L352 416L352 128L288 128L336 48L384 -32L432 48L480 128z" />
    <glyph glyph-name="order"
      unicode="&#xF128;"
      horiz-adv-x="512" d=" M352 352L304 400L256 448L208 400L160 352L256 352z M160 32L208 -16L256 -64L304 -16L352 32L256 32z M220.8 64H278.40000000000003L188.8 323.2H121.6L32 64H89.6L108.8 124.80000000000001H201.6L220.8 64zM121.6 169.60000000000002C140.79999999999998 227.20000000000002 150.4 265.6 153.6 281.6C156.8 278.4 160 272 160 265.6C163.2 256 172.8 227.2 188.8 169.60000000000002H121.6z M352 108.80000000000001L476.8 284.8L476.8 320L291.2 320L291.2 275.2L412.8 275.2L288 99.19999999999999L288 64L480 64L480 108.80000000000001z" />
    <glyph glyph-name="overview"
      unicode="&#xF129;"
      horiz-adv-x="512" d=" M416 416H96C80 416 64 400 64 384V6.399999999999977C64 -16 80 -32 96 -32H416C432 -32 448 -16 448 6.399999999999977V384C448 400 432 416 416 416zM384 64H128V96H384V64zM384 128H128V160H384V128zM384 192H128V224H384V192zM384 256H128V288H384V256zM384 320H128V352H384V320z" />
    <glyph glyph-name="paint"
      unicode="&#xF12A;"
      horiz-adv-x="512" d=" M448 323.2L188.8 444.8C182.4 448 176 448 172.8 448C156.8 448 144 438.4 137.6 425.6L3.1999999999999886 137.60000000000002C-3.2000000000000117 121.60000000000002 3.1999999999999886 99.20000000000005 19.19999999999999 92.80000000000001L281.59999999999997 -28.799999999999955C288 -32 291.2 -32 297.6 -32C310.40000000000003 -32 323.20000000000005 -25.600000000000023 329.6 -12.800000000000011L467.20000000000005 278.4C470.4 294.4 464 316.8 448 323.2zM182.4 377.6L380.8 284.8L121.6 246.4L182.4 377.6z M512 6.399999999999977C512 -32 480 -64 441.6 -64S371.20000000000005 -32 371.20000000000005 6.399999999999977S428.80000000000007 144 441.6 144C457.6 144 512 44.80000000000001 512 6.399999999999977z" />
    <glyph glyph-name="path"
      unicode="&#xF12B;"
      horiz-adv-x="512" d=" M0 192C0 156.65377601082923 28.653776010829212 128 64 128C99.3462239891708 128 128 156.65377601082923 128 192C128 227.3462239891708 99.3462239891708 256 64 256C28.653776010829212 256 0 227.3462239891708 0 192z M345.6 240H480C496 240 512 252.8 512 272V352C512 368 499.2 384 480 384H345.6C329.6 384 313.6 371.2 313.6 352V272C313.6 256 329.6 240 345.6 240z M345.6 -3.1999999999999886H480C496 -3.1999999999999886 512 9.600000000000023 512 28.80000000000001V108.80000000000001C512 124.80000000000001 499.2 140.8 480 140.8H345.6C329.6 140.8 313.6 128 313.6 108.80000000000001V28.80000000000001C313.6 12.800000000000011 329.6 -3.1999999999999886 345.6 -3.1999999999999886z M272 192L272 297.6L313.6 297.6L313.6 326.4L243.2 326.4L243.2 214.4L201.6 214.4L201.6 243.2L163.2 220.8L128 201.6L163.2 179.2L201.6 156.8L201.6 185.60000000000002L243.2 185.60000000000002L243.2 48L313.6 48L313.6 73.60000000000002L272 73.60000000000002L272 185.60000000000002z" />
    <glyph glyph-name="plan-activities"
      unicode="&#xF12C;"
      horiz-adv-x="512" d=" M448 256H304C294.4 256 288 262.4 288 272V416L448 256z M304 224C278.4 224 256 246.4 256 272V416H96C80 416 64 400 64 384V0C64 -16 80 -32 96 -32H416C432 -32 448 -16 448 0V224H304zM160 64H128V96H160V64zM160 128H128V160H160V128zM160 192H128V224H160V192zM160 256H128V288H160V256zM160 320H128V352H160V320zM224 64H192V96H224V64zM224 128H192V160H224V128zM224 192H192V224H224V192zM224 256H192V288H224V256zM224 320H192V352H224V320zM288 64H256V96H288V64zM288 128H256V160H288V128zM352 64H320V96H352V64zM352 128H320V160H352V128z" />
    <glyph glyph-name="plan-closed"
      unicode="&#xF12D;"
      horiz-adv-x="512" d=" M256 272V416H96C80 416 64 400 64 384V0C64 -16 80 -32 96 -32H416C432 -32 448 -16 448 0V224H304C278.4 224 256 246.4 256 272zM320 176C320 169.60000000000002 320 166.39999999999998 316.8 160L243.20000000000002 25.600000000000023C240.00000000000003 19.200000000000045 233.60000000000002 9.600000000000023 227.20000000000002 9.600000000000023L227.20000000000002 9.600000000000023C217.60000000000002 9.600000000000023 214.4 16 211.20000000000002 22.400000000000034L211.20000000000002 22.400000000000034L172.8 80.00000000000006C169.60000000000002 83.20000000000005 169.60000000000002 89.60000000000008 169.60000000000002 96.00000000000006C169.60000000000002 102.40000000000003 172.8 105.60000000000008 179.20000000000002 108.80000000000007C188.8 115.20000000000005 201.60000000000002 112.00000000000006 208.00000000000003 102.40000000000009L224 80L281.6 182.39999999999998C288 192 300.8 195.2 310.4 188.8C313.6 185.60000000000002 316.8 182.39999999999998 320 176z M304 256H448L288 416V272C288 262.4 294.4 256 304 256z" />
    <glyph glyph-name="plan-enable"
      unicode="&#xF12E;"
      horiz-adv-x="512" d=" M256 272V416H96C80 416 64 400 64 384V0C64 -16 80 -32 96 -32H416C432 -32 448 -16 448 0V224H304C278.4 224 256 246.4 256 272zM345.6 118.39999999999998L198.40000000000003 35.19999999999999C188.80000000000004 28.80000000000001 176.00000000000003 35.19999999999999 176.00000000000003 48V214.4C176.00000000000003 227.20000000000002 188.80000000000004 233.6 198.40000000000003 227.20000000000002L345.6 144C355.2 137.60000000000002 355.2 124.80000000000001 345.6 118.39999999999998z M304 256H448L288 416V272C288 262.4 294.4 256 304 256z" />
    <glyph glyph-name="plan-progress"
      unicode="&#xF12F;"
      horiz-adv-x="512" d=" M48 99.19999999999999H80V67.19999999999999H48z M48 35.19999999999999H80V3.1999999999999886H48z M112 432H144V400H112z M140.8 -16H172.8V-48H140.8z M86.4 -12.800000000000011L67.2 -38.400000000000034C76.8 -44.80000000000001 86.4 -48.00000000000006 96 -48.00000000000006H108.8V-16.000000000000057H96C92.8 -16 89.6 -16 86.4 -12.800000000000011z M89.6 396.8L73.6 425.6C57.6 419.2 48 403.2 48 387.2L80 384C80 390.4 83.2 396.8 89.6 396.8z M240 368H272V336H240z M48 227.2H80V195.2H48z M176 432H208V400H176z M240 432H272V400H240z M48 355.2H80V323.2H48z M48 291.2H80V259.2H48z M48 163.2H80V131.2H48z M432 0C432 0 432 -3.1999999999999886 432 0L464 -9.600000000000023C464 -6.400000000000034 464 -3.2000000000000455 464 0V25.600000000000023H432V0z M390.4 240H422.4V208H390.4z M416 -16H396.8V-48H416C422.4 -48 428.8 -48 432 -44.80000000000001L419.2 -16C419.2 -16 419.2 -16 416 -16z M432 89.60000000000002H464V57.60000000000002H432z M432 217.6H464V185.60000000000002H432z M432 153.60000000000002H464V121.60000000000002H432z M272 304L240 304L240 268.8L272 272z M297.6 240C291.20000000000005 240 284.8 246.4 278.40000000000003 249.6L256 230.4C265.6 220.8 278.4 211.20000000000002 291.2 208L297.6 240z M268.8 -16H300.8V-48H268.8z M326.4 240H358.4V208H326.4z M332.8 -16H364.8V-48H332.8z M204.8 -16H236.8V-48H204.8z M288 416V272C288 262.4 294.4 256 304 256H448L288 416z" />
    <glyph glyph-name="plan"
      unicode="&#xF130;"
      horiz-adv-x="512" d=" M448 256H304C294.4 256 288 262.4 288 272V416L448 256z M448 256H304C294.4 256 288 262.4 288 272V416L448 256z M304 224H448V0C448 -16 432 -32 416 -32H96C80 -32 64 -16 64 0V384C64 400 80 416 96 416H256V272C256 246.4 278.4 224 304 224z M448 256H304C294.4 256 288 262.4 288 272V416L448 256z" />
    <glyph glyph-name="play"
      unicode="&#xF131;"
      horiz-adv-x="512" d=" M140.8 315.2L140.8 315.2C132.8 310.4 132.8 300.8 132.8 296V88C132.8 83.19999999999999 134.4 73.60000000000002 140.8 68.80000000000001L140.8 68.80000000000001C152 62.400000000000034 168 62.400000000000034 179.20000000000002 68.80000000000001L371.20000000000005 180.8C382.40000000000003 187.2 382.40000000000003 196.8 371.20000000000005 203.20000000000002H369.6L177.60000000000002 313.6C169.6 321.6 152 321.6 140.8 315.2z" />
    <glyph glyph-name="point"
      unicode="&#xF132;"
      horiz-adv-x="512" d=" M32 192C32 68.28821603790226 132.28821603790226 -32 256 -32C379.71178396209774 -32 480 68.28821603790226 480 192C480 315.71178396209774 379.71178396209774 416 256 416C132.28821603790226 416 32 315.71178396209774 32 192z" />
    <glyph glyph-name="policy"
      unicode="&#xF133;"
      horiz-adv-x="512" d=" M448 352L390.4 416C390.4 416 326.4 358.4 255.99999999999997 416C185.6 358.4 121.6 416 121.6 416L64 352C64 352 108.8 323.2 83.2 249.6C54.4 169.60000000000002 44.8 51.19999999999999 256 -32C467.2 51.19999999999999 457.6 169.60000000000002 428.8 249.60000000000002C403.2 323.2 448 352 448 352zM348.8 256L272 108.80000000000001C268.8 102.39999999999998 259.2 96 249.6 96C249.6 96 246.4 96 246.4 96C240 96 230.4 99.19999999999999 227.20000000000002 105.60000000000002L176 160C166.4 169.60000000000002 166.4 188.8 176 198.4C185.6 208 204.8 208 214.4 198.4L240 172.8L300.8 284.8C307.2 297.6 323.2 304 339.2 297.6C352 288 355.2 272 348.8 256z" />
    <glyph glyph-name="prev"
      unicode="&#xE003;"
      horiz-adv-x="512" d=" M342.4 361.6L297.6 406.4L83.2 192L297.6 -22.399999999999977L342.4 22.399999999999977L172.8 192z" />
    <glyph glyph-name="print"
      unicode="&#xF134;"
      horiz-adv-x="512" d=" M384 416V256H121.6V416H384M400 448H105.6C96 448 89.6 441.6 89.6 432V240C89.6 230.4 96 224 105.6 224H400C409.6 224 416 230.4 416 240V432C416 441.6 409.6 448 400 448L400 448z M384 128V-32H121.6V128H384M400 160H105.6C96 160 89.6 153.60000000000002 89.6 144V-48C89.6 -57.60000000000002 96 -64 105.6 -64H400C409.6 -64 416 -57.60000000000002 416 -48V144C416 153.60000000000002 409.6 160 400 160L400 160z M464 313.6H48C22.4 313.6 0 291.2 0 265.6V105.60000000000002C0 80 22.4 57.60000000000002 48 57.60000000000002H89.6V144C89.6 153.60000000000002 96 160 105.6 160H400C409.6 160 416 153.60000000000002 416 144V57.60000000000002H464C489.6 57.60000000000002 512 80 512 105.60000000000002V265.6C512 291.2 489.6 313.6 464 313.6zM432 224C422.4 224 416 230.4 416 240S422.4 256 432 256S448 249.6 448 240S441.6 224 432 224z M160 112H352V80H160z M160 48H352V16H160z" />
    <glyph glyph-name="reload"
      unicode="&#xF135;"
      horiz-adv-x="512" d=" M444.8 316.8C403.2 377.6 332.8 416 259.2 416C134.39999999999998 416 35.19999999999999 316.8 35.19999999999999 192S134.39999999999998 -32 259.2 -32C345.6 -32 422.4 16 460.79999999999995 92.80000000000001L406.4 118.40000000000003C377.59999999999997 60.80000000000001 323.2 25.600000000000023 259.2 25.600000000000023C169.6 25.600000000000023 96 99.20000000000005 96 188.8S169.6 352 259.2 352C313.59999999999997 352 361.6 326.4 393.6 284.8L329.6 249.60000000000002L403.20000000000005 211.20000000000002L476.80000000000007 172.8L476.8 256L480 339.2L444.8 316.8z" />
    <glyph glyph-name="reports"
      unicode="&#xF136;"
      horiz-adv-x="512" d=" M131.2 160 M444.8 160 M0 0H512V-64H0z M0 448H64V-64H0z M128 192H192V-64H128z M256 256H320V-64H256z M384 320H448V-64H384z" />
    <glyph glyph-name="rules"
      unicode="&#xF137;"
      horiz-adv-x="512" d=" M192 428.8V275.20000000000005H235.84V338.56C235.84 347.23199999999997 242.88 354.56 251.84 354.56C260.48 354.56 267.84000000000003 347.23199999999997 267.84000000000003 338.56V275.23199999999997H321.6V320.96C321.6 329.6 328.64000000000004 336.96 337.6 336.96S353.6 329.6 353.6 320.96V275.2H407.39200000000005V338.56C407.39200000000005 347.23199999999997 414.72 354.56 423.39200000000005 354.56C432.32000000000005 354.56 439.39200000000005 347.23199999999997 439.39200000000005 338.56V275.23199999999997H492.83200000000005V428.8H192z M19.2 -44.80000000000001H172.79999999999998V0.06399999999996453H109.536C100.70400000000001 0.06399999999996453 93.536 7.263999999999953 93.536 16.063999999999965S100.70400000000001 32.063999999999965 109.536 32.063999999999965H172.8V85.95199999999994H127.104C118.27199999999999 85.95199999999994 111.104 93.11999999999995 111.104 101.95199999999994C111.104 110.75199999999995 118.272 117.95199999999994 127.104 117.95199999999994H172.8V171.74400000000003H109.536C100.70400000000001 171.74400000000003 93.536 178.91200000000003 93.536 187.74400000000003S100.70400000000001 203.74400000000003 109.536 203.74400000000003H172.8V257.6H127.104C118.27199999999999 257.6 111.104 264.79999999999995 111.104 273.6C111.104 282.432 118.272 289.6 127.104 289.6H172.8V343.424H109.536C100.70400000000001 343.424 93.536 350.592 93.536 359.424C93.536 368.224 100.70400000000001 375.424 109.536 375.424H172.8V428.8H19.2V-44.80000000000001z" />
    <glyph glyph-name="search"
      unicode="&#xF138;"
      horiz-adv-x="512" d=" M332.8 364.8C265.6 432 153.60000000000002 432 83.20000000000002 364.8C16.000000000000014 297.6 16.000000000000014 185.60000000000002 83.20000000000002 115.19999999999999C144 54.39999999999998 240.00000000000003 48 307.20000000000005 96L435.20000000000005 -32L480.00000000000006 12.800000000000011L352.00000000000006 140.8C400 208 393.6 304 332.8 364.8zM288 160C243.2 118.39999999999998 172.8 118.39999999999998 128 160S86.4 275.2 128 320C172.8 361.6 243.2 361.6 288 320S329.6 204.8 288 160z" />
    <glyph glyph-name="sheet-pencil"
      unicode="&#xF139;"
      horiz-adv-x="512" d=" M470.4 406.4C454.4 422.4 428.79999999999995 422.4 412.79999999999995 406.4L399.99999999999994 393.6L457.59999999999997 336L470.4 348.8C486.4 364.8 486.4 390.4 470.4 406.4z M208 201.6L179.2 172.8L163.2 121.60000000000002C156.79999999999998 108.80000000000001 172.79999999999998 92.80000000000001 185.6 99.20000000000005L236.8 115.20000000000005L262.40000000000003 144.00000000000006L425.6 307.20000000000005L368 364.80000000000007L208 201.6z M384 128L288 128L288 32L128 32L128 352L313.6 352L371.2 409.6L377.6 416L64 416L64 -32L352 -32L448 64L448 281.6L384 217.6z" />
    <glyph glyph-name="sheet"
      unicode="&#xF13A;"
      horiz-adv-x="512" d=" M448 -32V416H160L64 320V-32H448zM192 288V352H384V32H128V288H192z" />
    <glyph glyph-name="sign-out"
      unicode="&#xF13B;"
      horiz-adv-x="512" d=" M288 192H224V448H288V192z M320 403.2V336C377.6 313.6 419.2 256 419.2 188.8C419.2 99.20000000000005 348.79999999999995 28.80000000000001 259.2 28.80000000000001S99.19999999999999 99.20000000000005 99.19999999999999 188.8C99.19999999999999 252.8 137.6 307.20000000000005 192 332.8V400C102.4 371.2 35.2 288 35.2 188.8C35.2 64 134.4 -35.19999999999999 259.2 -35.19999999999999S483.2 64 483.2 188.8C483.2 291.2 416 377.6 320 403.2z" />
    <glyph glyph-name="star-outline"
      unicode="&#xF13C;"
      horiz-adv-x="512" d=" M256 316.8L291.2 244.8L299.2 230.4L315.2 227.20000000000002L395.2 216.00000000000003L337.6 160L324.8 148.8L328 132.8L340.8 54.39999999999998L270.4 91.19999999999999L256 97.60000000000002L241.6 89.60000000000002L171.2 52.80000000000001L184 131.20000000000005L187.2 147.20000000000005L174.4 160L116.80000000000001 216L196.8 227.2L212.8 230.39999999999998L220.8 244.79999999999998L256 316.8M256 388.8L192 259.2L48 238.39999999999998L152 137.59999999999997L128 -4.800000000000011L256 62.39999999999998L384 -4.800000000000011L360 137.60000000000002L464 238.40000000000003L320 259.20000000000005L256 388.8L256 388.8z" />
    <glyph glyph-name="star"
      unicode="&#xF13D;"
      horiz-adv-x="512" d=" M256 388.8L320 259.2L464 238.4L360 137.60000000000002L384 -4.800000000000011L256 62.39999999999998L128 -4.800000000000011L152 137.60000000000002L48 238.4L192 259.2z" />
    <glyph glyph-name="tag"
      unicode="&#xF13E;"
      horiz-adv-x="512" d=" M502.4 121.60000000000002L185.6 438.4C179.2 444.8 172.8 448 163.2 448L28.8 448C22.4 448 12.8 444.8 9.6 438.4C3.2 435.2 0 425.6 0 419.2L0 284.79999999999995C0 278.4 3.2 268.79999999999995 9.6 262.4L326.40000000000003 -54.400000000000034C339.20000000000005 -67.20000000000005 355.20000000000005 -67.20000000000005 368.00000000000006 -54.400000000000034L435.20000000000005 12.799999999999955L502.40000000000003 79.99999999999994C515.2 92.80000000000001 515.2 108.80000000000001 502.4 121.60000000000002zM137.6 310.4C118.39999999999999 291.20000000000005 92.8 291.20000000000005 73.6 310.4C54.39999999999999 329.6 54.39999999999999 355.2 73.6 374.4C92.8 393.6 118.39999999999999 393.6 137.6 374.4C153.6 358.4 153.6 329.6 137.6 310.4z" />
    <glyph glyph-name="trash"
      unicode="&#xF13F;"
      horiz-adv-x="512" d=" M32 288L32 224L73.6 224L160 -64L352 -64L438.4 224L480 224L480 288z M272 320H448V384H320C310.4 403.2 294.4 416 272 416H240C220.8 416 201.6 403.2 195.2 384H64V320H240H272z" />
    <glyph glyph-name="unlock"
      unicode="&#xF140;"
      horiz-adv-x="512" d=" M448 256H368L368 320C368 326.4 368 380.8 332.8 419.2C313.6 438.4 288 448 256 448C204.8 448 179.2 422.4 163.2 400C140.8 364.8 144 323.2 144 320L208 323.2C208 323.2 208 348.8 217.6 368C224 374.4 233.6 384 256 384C268.8 384 278.4 380.8 288 374.4C300.8 358.4 304 329.6 304 320V256H64C48 256 32 240 32 224V0C32 -19.19999999999999 48 -32 64 -32H448C467.2 -32 480 -16 480 0V224C480 240 464 256 448 256zM256 80C230.4 80 211.2 99.19999999999999 211.2 124.80000000000001S230.4 169.60000000000002 256 169.60000000000002S300.8 150.40000000000003 300.8 124.80000000000001S281.6 80 256 80z" />
    <glyph glyph-name="user-data"
      unicode="&#xF141;"
      horiz-adv-x="512" d=" M310.944 -16.672000000000025C302.976 -8.704000000000065 289.568 -4.896000000000072 257.728 5.759999999999991C204.608 24.319999999999936 207.264 16.384000000000015 207.264 50.879999999999995C207.264 74.78399999999999 217.888 61.47199999999998 225.824 104C228.48 122.55999999999995 228.48 119.87199999999996 231.168 133.18399999999997C233.824 146.43200000000002 236.448 154.39999999999998 236.448 162.36799999999994C236.448 170.36799999999994 236.448 175.61599999999999 239.104 188.92799999999988C241.76 207.51999999999987 223.2 252.6079999999999 164.8 252.6079999999999C106.368 252.6079999999999 90.464 207.51999999999987 93.088 188.92799999999988C93.088 175.61599999999987 95.744 167.6479999999999 95.744 162.36799999999994C95.744 154.39999999999998 98.4 146.4319999999999 101.088 135.808C101.088 122.55999999999995 101.088 122.55999999999995 103.744 106.62400000000002C111.68 61.47199999999998 122.304 74.78399999999999 122.304 53.53600000000006C122.304 19.040000000000077 124.96000000000001 27.008000000000038 71.87200000000001 8.416000000000054C40 -2.175999999999931 3.4560000000000173 -12.70399999999995 0.03200000000001069 -31.39199999999994V-65.91999999999996H321.376V-34.07999999999993C321.952 -28 316.256 -21.951999999999998 310.944 -16.672000000000025z M497.984 252.67200000000003H376.32C370.976 252.67200000000003 366.656 248.35200000000003 366.656 243.04000000000002C366.656 240.288 367.84 237.88800000000003 369.6 236.06400000000002L455.296 150.43200000000002H455.328C457.08799999999997 148.54399999999998 459.584 147.32799999999997 462.368 147.32799999999997C465.696 147.32799999999997 468.64 149.024 470.4 151.61599999999999C491.456 176.03200000000004 504.992 207.10400000000004 507.424 241.27999999999997C507.55199999999996 241.856 507.616 242.39999999999998 507.616 243.03999999999996C507.616 248.35199999999998 503.296 252.67200000000003 497.984 252.67200000000003z M359.072 287.456H494.304L494.304 287.456C494.304 287.456 494.304 287.456 494.336 287.456C499.68 287.456 503.968 291.776 503.968 297.088L503.968 297.088C499.2 374.944 436.89599999999996 437.216 359.072 441.984L359.04 441.984C353.728 441.952 349.44 437.664 349.44 432.352V297.08799999999997C349.408 291.776 353.728 287.456 359.072 287.456z M426.56 138.88C426.56 136 425.28 133.43999999999994 423.36 131.51999999999998C396.16 107.84000000000003 360.32000000000005 93.43999999999994 321.28000000000003 93.43999999999994C304.64 93.43999999999994 288.96000000000004 95.99999999999989 273.92 100.79999999999995C273.92 100.79999999999995 273.92 100.79999999999995 273.92 101.12C274.88 108.79999999999995 275.20000000000005 110.72000000000003 276.16 114.24000000000001L280.32000000000005 133.44000000000005C282.24 142.4000000000001 284.48 151.36 284.48 162.56000000000006C284.48 169.2800000000001 284.48 170.8800000000001 286.72 182.08000000000004C290.24 207.36 280.32000000000005 237.12000000000006 260.8 259.52000000000004C240 283.52 210.24 297.92 176 300.16C183.04 320.64000000000004 194.24 339.20000000000005 208.96 354.56C234.88 382.08 271.36 400 311.68 402.56C317.12 402.56 321.28 398.4 321.28 393.28000000000003V252.16000000000003H321.6C321.6 249.60000000000002 322.56 247.36 324.15999999999997 245.44L424 145.91999999999996V145.5999999999999C425.6 144 426.56 141.44000000000005 426.56 138.88z" />
    <glyph glyph-name="user-manage"
      unicode="&#xF142;"
      horiz-adv-x="512" d=" M182.4 137.60000000000002C156.8 128 144 121.60000000000002 134.4 115.20000000000005C131.2 112 128 108.80000000000001 128 105.60000000000002V80H384V105.60000000000002C384 108.80000000000001 380.8 112 377.6 115.20000000000005C371.20000000000005 121.60000000000002 355.20000000000005 128.00000000000006 329.6 137.60000000000002C288 153.60000000000002 288 147.2 288 176C288 192 297.6 182.39999999999998 304 217.6C307.2 230.4 307.2 230.4 307.2 240C307.2 249.6 310.4 256 310.4 262.4C310.4 268.8 310.4 272 313.59999999999997 284.8C313.59999999999997 297.6 300.79999999999995 336 255.99999999999997 336C207.99999999999997 336 195.2 297.6 198.39999999999998 284.8C198.39999999999998 272 201.59999999999997 268.8 201.59999999999997 262.4C201.59999999999997 256 204.79999999999995 249.6 204.79999999999995 240C204.79999999999995 230.4 207.99999999999994 230.4 207.99999999999994 217.6C214.4 182.39999999999998 224 192 224 176C224 147.2 224 153.60000000000002 182.4 137.60000000000002z M256 377.6C304 377.6 345.6 361.6 377.6 332.8L425.6 380.8C384 422.4 323.2 448 256 448C188.8 448 128 422.4 83.2 380.8L131.2 332.8C166.4 361.6 208 377.6 256 377.6z M444.8 364.8L396.8 316.8C425.6 284.8 441.6 240 441.6 195.20000000000002C441.6 147.20000000000005 425.6 105.60000000000002 396.8 73.60000000000002L444.8 25.600000000000023C486.4 64 512 124.80000000000001 512 192S486.4 320 444.8 364.8z M256 6.399999999999977C208 6.399999999999977 166.4 22.399999999999977 134.4 51.19999999999999L86.4 3.1999999999999886C128 -38.39999999999998 188.8 -64 256 -64C323.2 -64 384 -38.39999999999998 428.8 3.1999999999999886L380.8 51.19999999999999C345.6 22.399999999999977 304 6.399999999999977 256 6.399999999999977z M70.4 192C70.4 240 86.4 281.6 115.2 313.6L67.2 364.8C25.6 320 0 259.2 0 192S25.6 64 67.2 19.19999999999999L115.2 67.19999999999999C86.4 102.39999999999998 70.4 144 70.4 192z" />
    <glyph glyph-name="user"
      unicode="&#xF143;"
      horiz-adv-x="512" d=" M467.2 28.80000000000001C454.4 38.400000000000034 428.8 51.19999999999999 384 67.19999999999999C310.4 96 313.6 80 313.6 131.2C313.6 163.2 329.6 144 342.40000000000003 208C345.6 233.6 345.6 233.6 348.8 246.4C352 265.6 355.2 278.4 355.2 288C355.2 297.6 358.4 307.2 358.4 326.4C361.6 352 339.2 416 256 416C172.8 416 150.4 352 153.6 326.4C153.6 307.2 156.8 297.6 156.8 288C156.8 278.4 160 262.4 163.20000000000002 249.6C166.4 233.6 166.4 233.6 169.60000000000002 211.2C179.20000000000002 150.39999999999998 198.40000000000003 169.59999999999997 198.40000000000003 134.39999999999998C198.40000000000003 83.19999999999999 201.60000000000002 96 128.00000000000003 70.39999999999998C83.20000000000003 54.39999999999998 57.60000000000002 41.599999999999966 44.800000000000026 32C35.2 22.399999999999977 32 16 32 12.800000000000011V-32H480V12.800000000000011C480 16 476.8 22.399999999999977 467.2 28.80000000000001z" />
    <glyph glyph-name="users"
      unicode="&#xF144;"
      horiz-adv-x="512" d=" M185.6 70.39999999999998C198.4 73.59999999999997 208 76.79999999999995 214.4 80C224 83.19999999999999 230.4 86.39999999999998 233.6 86.39999999999998V99.19999999999999C227.2 102.39999999999998 217.6 105.59999999999997 204.79999999999998 112C166.39999999999998 124.80000000000001 169.59999999999997 118.39999999999998 169.59999999999997 144C169.59999999999997 160 179.19999999999996 150.39999999999998 182.39999999999998 182.39999999999998C185.59999999999997 195.2 185.59999999999997 195.2 185.59999999999997 201.59999999999997C192 211.2 192 217.6 192 224C192 230.4 192 233.6 195.2 243.2C195.2 256 185.6 288 144 288C102.4 288 89.6 256 92.8 243.2C92.8 233.6 92.8 227.2 96 224C92.8 217.6 96 211.2 96 204.8C96 198.4 96 198.4 99.2 185.60000000000002C105.60000000000001 153.60000000000002 112 163.20000000000005 112 147.20000000000005C112 121.60000000000002 115.2 128.00000000000006 76.8 115.20000000000005C54.4 105.60000000000002 41.599999999999994 99.20000000000005 35.199999999999996 96.00000000000006C32 89.60000000000002 32 86.39999999999998 32 86.39999999999998V64H166.4C172.8 64 179.2 67.19999999999999 185.6 70.39999999999998z M483.2 22.399999999999977C473.59999999999997 32 451.2 41.599999999999966 412.79999999999995 54.39999999999998C348.79999999999995 76.79999999999995 351.99999999999994 67.19999999999999 351.99999999999994 108.79999999999995C351.99999999999994 137.59999999999997 364.79999999999995 121.59999999999997 374.3999999999999 172.79999999999995C377.5999999999999 195.19999999999996 377.5999999999999 191.99999999999994 380.7999999999999 207.99999999999994C384 224 387.2 233.6 387.2 243.2C387.2 252.79999999999998 387.2 259.2 390.4 275.2C393.6 297.6 371.2 352 300.8 352C230.4 352 211.2 297.6 214.4 275.2C214.4 259.2 217.6 249.6 217.6 243.2C217.6 233.6 220.8 224 224 211.2C224 195.2 224 195.2 227.2 176C236.79999999999998 121.60000000000002 249.6 137.60000000000002 249.6 112C249.6 70.39999999999998 252.79999999999998 80 188.8 57.60000000000002C150.4 44.80000000000001 128 32 118.4 25.600000000000023C112 19.200000000000045 108.80000000000001 12.800000000000011 105.60000000000001 9.600000000000023V-32H489.6V6.399999999999977C492.8 9.600000000000023 489.6 16 483.2 22.399999999999977z" />
    <glyph glyph-name="watch-close"
      unicode="&#xF145;"
      horiz-adv-x="512" d=" M256 448C115.2 448 0 332.8 0 192S115.2 -64 256 -64S512 51.19999999999999 512 192S396.8 448 256 448zM256 -32C131.2 -32 32 67.19999999999999 32 192S131.2 416 256 416S480 316.8 480 192S380.8 -32 256 -32z M256 384C150.4 384 64 297.6 64 192S150.4 0 256 0S448 86.39999999999998 448 192S361.6 384 256 384zM348.8 278.4C348.8 278.4 246.4 96 246.4 96C243.20000000000002 89.60000000000002 240 86.39999999999998 236.8 83.19999999999999C233.60000000000002 80 227.20000000000002 76.80000000000001 220.8 80C214.4 83.19999999999999 211.20000000000002 89.60000000000002 204.8 96L150.4 172.8C147.2 179.2 144 185.60000000000002 147.2 195.2C147.2 201.6 153.6 208 160 214.39999999999998C172.8 224 188.8 220.8 198.4 208L224 169.60000000000002L304 310.40000000000003C310.4 323.20000000000005 329.6 326.40000000000003 342.4 320C348.79999999999995 316.80000000000007 352 310.40000000000003 355.2 304C358.4 294.4 352 284.8 348.8 278.4z" />
    <glyph glyph-name="watch-progress"
      unicode="&#xF146;"
      horiz-adv-x="512" d=" M275.2 -64L272 -32C300.8 -28.80000000000001 329.6 -22.399999999999977 358.4 -6.399999999999977L374.4 -35.19999999999999C342.4 -51.19999999999999 310.4 -60.80000000000001 275.2 -64zM428.8 3.1999999999999886L406.40000000000003 25.599999999999966C428.8 44.799999999999955 444.8 70.39999999999998 457.6 96L486.40000000000003 83.19999999999999C473.6 54.39999999999998 454.4 25.600000000000023 428.8 3.1999999999999886zM508.8 150.39999999999998L476.8 156.79999999999995C480 166.39999999999998 480 179.2 480 192C480 211.2 476.8 227.2 473.6 246.4L505.6 252.8C508.8 233.6 512 211.2 512 192C512 179.2 512 163.2 508.8 150.39999999999998zM451.2 300.8C435.2 326.4 416 348.8 393.59999999999997 368L412.79999999999995 393.6C438.4 371.20000000000005 460.79999999999995 345.6 479.99999999999994 316.8L451.2 300.8zM342.4 396.8C316.8 409.6 284.8 416 256 416V448C291.2 448 323.2 441.6 355.2 428.8L342.4 396.8z M256 384C150.4 384 64 297.6 64 192S150.4 0 256 0S448 86.39999999999998 448 192S361.6 384 256 384zM332.8 243.2L256 169.60000000000002L147.2 275.2C140.79999999999998 281.6 140.79999999999998 291.2 147.2 297.6S163.2 304 169.6 297.6L256 214.4L307.2 265.6C313.59999999999997 272 323.2 272 329.59999999999997 265.6S336 249.6 332.8 243.2z M256 -64C115.19999999999999 -64 0 51.19999999999999 0 192S115.2 448 256 448V416C131.2 416 32 316.8 32 192S131.2 -32 256 -32V-64z" />
    <glyph glyph-name="watch"
      unicode="&#xF147;"
      horiz-adv-x="512" d=" M256 448C115.2 448 0 332.8 0 192S115.2 -64 256 -64S512 51.19999999999999 512 192S396.8 448 256 448zM256 -32C131.2 -32 32 67.19999999999999 32 192S131.2 416 256 416S480 316.8 480 192S380.8 -32 256 -32z M256 384C150.4 384 64 297.6 64 192S150.4 0 256 0S448 86.39999999999998 448 192S361.6 384 256 384zM332.8 243.2L256 169.60000000000002L147.2 275.2C140.79999999999998 281.6 140.79999999999998 291.2 147.2 297.6S163.2 304 169.6 297.6L256 214.4L307.2 265.6C313.59999999999997 272 323.2 272 329.59999999999997 265.6S336 249.6 332.8 243.2z" />
    <glyph glyph-name="world"
      unicode="&#xF148;"
      horiz-adv-x="512" d=" M198.4 160C201.6 105.60000000000002 217.6 44.80000000000001 256 -12.800000000000011C294.4 48 310.4 105.60000000000002 313.6 160H198.4z M256 396.8C236.8 361.6 198.4 284.8 195.2 192H313.6C313.6 284.8 275.2 361.6 256 396.8z M345.6 192H480C480 313.6 390.4 416 275.2 425.6C294.4 396.8 342.4 307.2 345.6 192z M345.6 160C342.40000000000003 96 323.20000000000005 28.80000000000001 275.20000000000005 -41.60000000000002C380.80000000000007 -32 464.00000000000006 51.19999999999999 476.80000000000007 160H345.6z M236.8 425.6C121.6 416 32 313.6 32 192H166.4C169.6 307.2 217.6 396.8 236.8 425.6z M166.4 160H35.2C48 51.19999999999999 131.2 -32 236.8 -41.60000000000002C188.8 28.80000000000001 169.6 96 166.4 160z" />
    <glyph glyph-name="zoom"
      unicode="&#xF149;"
      horiz-adv-x="512" d=" M332.8 364.8C265.6 432 153.60000000000002 432 83.20000000000002 364.8C16.000000000000014 297.6 16.000000000000014 185.60000000000002 83.20000000000002 115.19999999999999C144 54.39999999999998 240.00000000000003 48 307.20000000000005 96L435.20000000000005 -32L480.00000000000006 12.800000000000011L352.00000000000006 140.8C400 208 393.6 304 332.8 364.8zM288 160C243.2 118.39999999999998 172.8 118.39999999999998 128 160S86.4 275.2 128 320C172.8 361.6 243.2 361.6 288 320S329.6 204.8 288 160z M288 256L224 256L224 320L192 320L192 256L128 256L128 224L192 224L192 160L224 160L224 224L288 224z" />
  </font>
</defs>
</svg>
