<svg id="Layer_1" data-name="Layer 1" xmlns="http://www.w3.org/2000/svg" viewBox="0 0 200 73.7"><defs><style>.cls-1{fill:#e2e2e2;}.cls-2{fill:#cfcfcf;}.cls-3{fill:#babec1;}.cls-4{fill:#e5e5e5;}.cls-5{fill:#576673;}</style></defs><title>Media-image</title><rect class="cls-1" x="-1.2" y="4.2" width="11.4" height="0.69" transform="translate(-1.9 4.5) rotate(-45)"/><rect class="cls-1" x="111.7" y="36.2" width="103.5" height="0.69" transform="translate(22 126.3) rotate(-45)"/><rect class="cls-1" x="103.7" y="36.2" width="103.5" height="0.69" transform="translate(19.7 120.6) rotate(-45)"/><rect class="cls-1" x="96.3" y="36.2" width="103.5" height="0.69" transform="translate(17.5 115.4) rotate(-45)"/><rect class="cls-1" x="88.3" y="36.2" width="103.5" height="0.69" transform="translate(15.2 109.8) rotate(-45)"/><rect class="cls-1" x="80.3" y="36.2" width="103.5" height="0.69" transform="translate(12.8 104.1) rotate(-45)"/><rect class="cls-1" x="72" y="36.2" width="103.5" height="0.69" transform="translate(10.4 98.2) rotate(-45)"/><rect class="cls-1" x="64" y="36.2" width="103.5" height="0.69" transform="translate(8 92.6) rotate(-45)"/><rect class="cls-1" x="179.5" y="64.3" width="24.2" height="0.69" transform="translate(10.4 154.4) rotate(-45)"/><rect class="cls-2" x="193.6" y="70.4" width="7.3" height="0.69" transform="translate(7.7 160.2) rotate(-45)"/><rect class="cls-1" x="170.1" y="60.9" width="33.7" height="0.69" transform="translate(11.4 150.1) rotate(-45)"/><rect class="cls-1" x="161.1" y="57" width="44.6" height="0.69" transform="translate(13.2 146.5) rotate(-45)"/><rect class="cls-1" x="151.5" y="53" width="56" height="0.69" transform="translate(14.8 142.5) rotate(-45)"/><rect class="cls-1" x="141.8" y="49" width="67.4" height="0.69" transform="translate(16.5 138.5) rotate(-45)"/><rect class="cls-1" x="131.8" y="44.9" width="79" height="0.69" transform="translate(18.2 134.3) rotate(-45)"/><rect class="cls-1" x="122.1" y="40.9" width="90.3" height="0.69" transform="translate(19.8 130.4) rotate(-45)"/><rect class="cls-1" x="56" y="36.2" width="103.5" height="0.69" transform="translate(5.7 86.9) rotate(-45)"/><rect class="cls-1" x="48.7" y="36.2" width="103.5" height="0.69" transform="translate(3.5 81.7) rotate(-45)"/><rect class="cls-1" x="40.7" y="36.2" width="103.5" height="0.69" transform="translate(1.2 76.1) rotate(-45)"/><rect class="cls-1" x="32.7" y="36.2" width="103.5" height="0.69" transform="translate(-1.1 70.4) rotate(-45)"/><rect class="cls-1" x="24.3" y="36.2" width="103.5" height="0.69" transform="translate(-3.6 64.5) rotate(-45)"/><rect class="cls-1" x="16" y="36.2" width="103.5" height="0.69" transform="translate(-6 58.6) rotate(-45)"/><rect class="cls-1" x="8" y="36.2" width="103.5" height="0.69" transform="translate(-8.4 53) rotate(-45)"/><rect class="cls-1" x="0.7" y="36.2" width="103.5" height="0.69" transform="translate(-10.5 47.8) rotate(-45)"/><rect class="cls-1" x="-7.3" y="36.2" width="103.5" height="0.69" transform="translate(-12.9 42.1) rotate(-45)"/><rect class="cls-1" x="-15.3" y="36.2" width="103.5" height="0.69" transform="translate(-15.2 36.5) rotate(-45)"/><rect class="cls-1" x="-13.1" y="32" width="91.2" height="0.69" transform="translate(-13.3 32.5) rotate(-45.1)"/><rect class="cls-1" x="-11.4" y="28.1" width="79.9" height="0.69" transform="translate(-11.7 28.5) rotate(-45)"/><rect class="cls-1" x="-10" y="24" width="68.2" height="0.69" transform="translate(-10.2 24.2) rotate(-45)"/><rect class="cls-1" x="-8" y="20.2" width="56.8" height="0.69" transform="translate(-8.6 20.5) rotate(-45)"/><rect class="cls-1" x="-6.2" y="16.5" width="44.7" height="0.69" transform="translate(-7.2 16.4) rotate(-45)"/><rect class="cls-1" x="-4.4" y="12.5" width="34.1" height="0.69" transform="translate(-5.3 12.7) rotate(-45)"/><rect class="cls-1" x="-3.5" y="8.7" width="25" height="0.69" transform="translate(-3.7 9) rotate(-45)"/><path class="cls-3" d="M192,0h-4V1h4V0Zm-8,0h-4V1h4V0Zm-8,0h-4V1h4V0Zm-8,0h-4V1h4V0Zm-8,0h-4V1h4V0Zm-8,0h-4V1h4V0Zm-8,0h-4V1h4V0Zm-8,0h-4V1h4V0Zm-8,0h-4V1h4V0Zm-8,0h-4V1h4V0Zm-8,0h-4V1h4V0Zm-8,0h-4V1h4V0ZM96,0H92V1h4V0ZM88,0H84V1h4V0ZM80,0H76V1h4V0ZM72,0H68V1h4V0ZM64,0H60V1h4V0ZM56,0H52V1h4V0ZM48,0H44V1h4V0ZM40,0H36V1h4V0ZM32,0H28V1h4V0ZM24,0H20V1h4V0ZM16,0H12V1h4V0ZM8,0H4V1H8V0ZM1,0H0V4H1V0ZM1,8.1H0v4H1v-4Zm0,8.1H0v4H1v-4Zm0,8.1H0v4H1v-4Zm0,8.1H0v4H1v-4Zm0,8.1H0v4H1v-4Zm0,8.1H0v4H1v-4Zm0,8.1H0v4H1v-4Zm0,8.1H0v4H1v-4Zm2,8.1H0v1H3v-1Zm8,0H7v1h4v-1Zm8,0H15v1h4v-1Zm8,0H23v1h4v-1Zm8,0H31v1h4v-1Zm8,0H39v1h4v-1Zm8,0H47v1h4v-1Zm8,0H55v1h4v-1Zm8,0H63v1h4v-1Zm8,0H71v1h4v-1Zm8,0H79v1h4v-1Zm8,0H87v1h4v-1Zm8,0H95v1h4v-1Zm8,0h-4v1h4v-1Zm8,0h-4v1h4v-1Zm8,0h-4v1h4v-1Zm8,0h-4v1h4v-1Zm8,0h-4v1h4v-1Zm8,0h-4v1h4v-1Zm8,0h-4v1h4v-1Zm8,0h-4v1h4v-1Zm8,0h-4v1h4v-1Zm8,0h-4v1h4v-1Zm8,0h-4v1h4v-1Zm8,0h-4v1h4v-1Zm5-2h-1v2h0v1h1v-3Zm0-8.1h-1v4h1v-4Zm0-8.1h-1v4h1v-4Zm0-8.1h-1v4h1v-4Zm0-8.1h-1v4h1v-4Zm0-8.1h-1v4h1v-4Zm0-8.1h-1v4h1v-4Zm0-8.1h-1v4h1v-4Zm0-8.1h-1v4h1v-4ZM200,0h-4V1h3V2h1V0Z"/><rect class="cls-4" x="83" y="19.8" width="34" height="34" rx="4.1" ry="4.1"/><path class="cls-5" d="M87.5,24.3v25h25v-25Zm.9,1h23.2V43.1h-2.5l-8.8-10.5L89.8,48.4H88.4Zm2.5,23.1,9.5-14.2,8.3,9.9h2.9v4.3Z"/><path class="cls-5" d="M93.8,33a2.9,2.9,0,1,0-2.7-2.9A2.8,2.8,0,0,0,93.8,33Zm0-4.8A1.9,1.9,0,1,1,92,30.1,1.9,1.9,0,0,1,93.8,28.2Z"/></svg>