<svg id="Layer_1" data-name="Layer 1" xmlns="http://www.w3.org/2000/svg" viewBox="0 0 200 24"><defs><style>.cls-1{fill:#f8f8f8;}.cls-2{fill:#babec1;}.cls-3{fill:#576673;}.cls-4{fill:#cfcfcf;}</style></defs><title>Collections-Card Link</title><rect class="cls-1" width="61.8" height="24"/><path class="cls-2" d="M20.8,21.4H18.9V21h1.9Zm-3.4,0H15.7V21h1.7Zm-3.2,0H12.4V21h1.7Zm-3.2,0H9.2V21h1.7Zm-3.2,0H6V21H7.7Zm-3.2,0H2.7V21H4.4Zm-2.3-.9H1.8V18.7h.4Zm18.6-1h-.4V17.7h.4ZM2.2,17.2H1.8V15.5h.4Zm18.6-1h-.4V14.5h.4ZM2.2,14H1.8V12.3h.4Zm18.6-1h-.4V11.3h.4ZM2.2,10.7H1.8V9h.4Zm18.6-1h-.4V8h.4ZM2.2,7.5H1.8V5.8h.4Zm18.6-1h-.4V4.8h.4ZM2.2,4.3H1.8V2.6h.4Zm18.6-1h-.4V2.7h-.8V2.4h1.2Zm-2.7-.6H16.4V2.4h1.7Zm-3.2,0H13.2V2.4h1.7Zm-3.2,0H9.9V2.4h1.7Zm-3.2,0H6.7V2.4H8.4Zm-3.2,0H3.5V2.4H5.2Z"/><path class="cls-3" d="M16,16.6H6.5V7.1H16Zm-9.2-.3h9v-9h-9Z"/><polygon class="cls-3" points="7.3 16.6 7.1 16.4 11.6 10.8 13.8 13.6 15.9 13.6 15.9 13.9 13.7 13.9 11.6 11.3 7.3 16.6"/><path class="cls-3" d="M9.1,10.7a1,1,0,1,1,.9-1A1,1,0,0,1,9.1,10.7ZM9.1,9a.7.7,0,1,0,.7.7A.7.7,0,0,0,9.1,9Z"/><rect class="cls-4" x="24" y="3" width="16" height="3"/><rect class="cls-4" x="24" y="8" width="35" height="1"/><rect class="cls-4" x="24" y="10" width="35" height="6"/><rect class="cls-4" x="50" y="18" width="9" height="4" transform="translate(109 40) rotate(180)"/><rect class="cls-1" x="69.1" width="61.8" height="24"/><path class="cls-2" d="M89.9,21.4H88V21h1.9Zm-3.4,0H84.8V21h1.7Zm-3.2,0H81.6V21h1.7Zm-3.2,0H78.3V21H80Zm-3.2,0H75.1V21h1.7Zm-3.2,0H71.9V21h1.7Zm-2.3-.9h-.4V18.7h.4Zm18.6-1h-.4V17.7h.4ZM71.3,17.2h-.4V15.5h.4Zm18.6-1h-.4V14.5h.4ZM71.3,14h-.4V12.3h.4Zm18.6-1h-.4V11.3h.4ZM71.3,10.7h-.4V9h.4Zm18.6-1h-.4V8h.4ZM71.3,7.5h-.4V5.8h.4Zm18.6-1h-.4V4.8h.4ZM71.3,4.3h-.4V2.6h.4Zm18.6-1h-.4V2.7h-.8V2.4h1.2Zm-2.7-.6H85.5V2.4h1.7ZM84,2.7H82.3V2.4H84Zm-3.2,0H79.1V2.4h1.7Zm-3.2,0H75.8V2.4h1.7Zm-3.2,0H72.6V2.4h1.7Z"/><path class="cls-3" d="M85.2,16.6H75.7V7.1h9.5Zm-9.2-.3h9v-9h-9Z"/><polygon class="cls-3" points="76.5 16.6 76.2 16.4 80.7 10.8 82.9 13.6 85 13.6 85 13.9 82.8 13.9 80.7 11.3 76.5 16.6"/><path class="cls-3" d="M78.2,10.7a1,1,0,1,1,1-1A1,1,0,0,1,78.2,10.7Zm0-1.6a.7.7,0,1,0,.7.7A.7.7,0,0,0,78.2,9Z"/><rect class="cls-4" x="93.1" y="3" width="16" height="3"/><rect class="cls-4" x="93.1" y="8" width="35" height="1"/><rect class="cls-4" x="93.1" y="10" width="35" height="6"/><rect class="cls-4" x="119.1" y="18" width="9" height="4" transform="translate(247.3 40) rotate(180)"/><rect class="cls-1" x="138.3" width="61.8" height="24"/><path class="cls-2" d="M159.1,21.4h-1.9V21h1.9Zm-3.4,0h-1.7V21h1.7Zm-3.2,0h-1.7V21h1.7Zm-3.2,0h-1.7V21h1.7Zm-3.2,0h-1.7V21h1.7Zm-3.2,0H141V21h1.7Zm-2.3-.9H140V18.7h.4Zm18.6-1h-.4V17.7h.4Zm-18.6-2.2H140V15.5h.4Zm18.6-1h-.4V14.5h.4ZM140.4,14H140V12.3h.4Zm18.6-1h-.4V11.3h.4Zm-18.6-2.2H140V9h.4Zm18.6-1h-.4V8h.4ZM140.4,7.5H140V5.8h.4Zm18.6-1h-.4V4.8h.4ZM140.4,4.3H140V2.6h.4Zm18.6-1h-.4V2.7h-.8V2.4h1.2Zm-2.7-.6h-1.7V2.4h1.7Zm-3.2,0h-1.7V2.4h1.7Zm-3.2,0h-1.7V2.4h1.7Zm-3.2,0H145V2.4h1.7Zm-3.2,0h-1.7V2.4h1.7Z"/><path class="cls-3" d="M154.3,16.6h-9.5V7.1h9.5Zm-9.2-.3h9v-9h-9Z"/><polygon class="cls-3" points="145.6 16.6 145.4 16.4 149.8 10.8 152 13.6 154.2 13.6 154.2 13.9 151.9 13.9 149.8 11.3 145.6 16.6"/><path class="cls-3" d="M147.4,10.7a1,1,0,1,1,.9-1A1,1,0,0,1,147.4,10.7Zm0-1.6a.7.7,0,1,0,.7.7A.7.7,0,0,0,147.4,9Z"/><rect class="cls-4" x="162.3" y="3" width="16" height="3"/><rect class="cls-4" x="162.3" y="8" width="35" height="1"/><rect class="cls-4" x="162.3" y="10" width="35" height="6"/><rect class="cls-4" x="188.3" y="18" width="9" height="4" transform="translate(385.5 40) rotate(180)"/></svg>