<svg id="Layer_1" data-name="Layer 1" xmlns="http://www.w3.org/2000/svg" viewBox="0 0 200 19"><defs><style>.cls-1{fill:#555;}</style></defs><title>TitleBold-EN</title><path class="cls-1" d="M7.8,18.2H5V3.5H0V1.1H12.9V3.5h-5Z"/><path class="cls-1" d="M15,1.8A1.5,1.5,0,0,1,15.5.7,1.6,1.6,0,0,1,16.6.3a1.5,1.5,0,0,1,1.1.4,1.5,1.5,0,0,1,.4,1.1,1.5,1.5,0,0,1-.4,1.1,1.5,1.5,0,0,1-1.1.4,1.6,1.6,0,0,1-1.2-.4A1.5,1.5,0,0,1,15,1.8ZM18,18.2H15.2V5.3H18Z"/><path class="cls-1" d="M26.7,16.2a6.7,6.7,0,0,0,2-.3V18l-1.2.3H26.1q-3.9,0-3.9-4.1v-7H20.4V6.1l1.9-1,.9-2.7h1.7V5.3h3.7V7.4H24.9v6.9a1.9,1.9,0,0,0,.5,1.5A1.8,1.8,0,0,0,26.7,16.2Z"/><path class="cls-1" d="M34.1,18.2H31.3V0h2.8Z"/><path class="cls-1" d="M43.7,18.5A6.3,6.3,0,0,1,39,16.7a6.7,6.7,0,0,1-1.7-4.9,7.3,7.3,0,0,1,1.6-5A5.5,5.5,0,0,1,43.2,5a5.3,5.3,0,0,1,4.1,1.6,6,6,0,0,1,1.5,4.3v1.5H40.1a4.3,4.3,0,0,0,1,2.9,3.6,3.6,0,0,0,2.7,1l2.1-.2,2.1-.7v2.2l-2,.7ZM43.2,7.1a2.8,2.8,0,0,0-2.1.8,4,4,0,0,0-.9,2.4H46A3.6,3.6,0,0,0,45.2,8,2.6,2.6,0,0,0,43.2,7.1Z"/><path class="cls-1" d="M58.4,1.1h5.1a9.7,9.7,0,0,1,5.1,1,3.6,3.6,0,0,1,1.6,3.3,3.9,3.9,0,0,1-.8,2.5,3.5,3.5,0,0,1-2.2,1.3h0a4.4,4.4,0,0,1,2.7,1.3,4.1,4.1,0,0,1,.8,2.7,4.4,4.4,0,0,1-1.6,3.6,6.9,6.9,0,0,1-4.5,1.3H58.4Zm2.8,7.1h2.7a4.6,4.6,0,0,0,2.6-.6,2.1,2.1,0,0,0,.8-1.9A1.9,1.9,0,0,0,66.4,4a5.5,5.5,0,0,0-2.8-.5H61.2Zm0,2.3v5.4h3a4.4,4.4,0,0,0,2.7-.7,2.5,2.5,0,0,0,.9-2.1,2.3,2.3,0,0,0-.9-2,4.8,4.8,0,0,0-2.8-.6Z"/><path class="cls-1" d="M85.4,11.7a7.1,7.1,0,0,1-1.6,5,5.8,5.8,0,0,1-4.5,1.8,6.2,6.2,0,0,1-3.2-.8,5.4,5.4,0,0,1-2.1-2.4,8,8,0,0,1-.7-3.6,7,7,0,0,1,1.6-4.9A5.9,5.9,0,0,1,79.3,5a5.7,5.7,0,0,1,4.5,1.8A7,7,0,0,1,85.4,11.7Zm-9.4,0q0,4.5,3.3,4.5t3.3-4.5q0-4.4-3.3-4.4a2.8,2.8,0,0,0-2.5,1.1A5.8,5.8,0,0,0,76,11.7Z"/><path class="cls-1" d="M91.3,18.2H88.6V0h2.8Z"/><path class="cls-1" d="M99.7,18.5a4.5,4.5,0,0,1-3.8-1.8,7.9,7.9,0,0,1-1.4-4.9,7.9,7.9,0,0,1,1.4-5A4.6,4.6,0,0,1,99.7,5a4.5,4.5,0,0,1,3.9,1.9h.1a16.5,16.5,0,0,1-.2-2.2V0h2.8V18.2h-2.2l-.5-1.7h-.1A4.4,4.4,0,0,1,99.7,18.5Zm.7-2.2a3,3,0,0,0,2.5-1,5,5,0,0,0,.8-3.1v-.4a5.8,5.8,0,0,0-.8-3.5,3,3,0,0,0-2.5-1,2.5,2.5,0,0,0-2.2,1.2,6,6,0,0,0-.8,3.4,5.9,5.9,0,0,0,.8,3.3A2.6,2.6,0,0,0,100.4,16.2Z"/></svg>