<svg id="Layer_1" data-name="Layer 1" xmlns="http://www.w3.org/2000/svg" viewBox="0 0 200 24"><defs><style>.cls-1{fill:#555;}</style></defs><title>titleLight-EN</title><path class="cls-1" d="M6.8,18.2H5.6V2.2H0V1.1H12.3V2.2H6.8Z"/><path class="cls-1" d="M14.4,2q0-1.1.7-1.1a.7.7,0,0,1,.6.3,1.4,1.4,0,0,1,.2.8,1.5,1.5,0,0,1-.2.8.6.6,0,0,1-.6.3Q14.4,3.1,14.4,2Zm1.3,16.3H14.6V5.5h1.2Z"/><path class="cls-1" d="M23.4,17.4l1.9-.2v.9a6.1,6.1,0,0,1-1.9.3,3.2,3.2,0,0,1-2.5-.9,4.2,4.2,0,0,1-.8-2.8V6.5H18.2V5.8l1.9-.5.6-2.9h.6V5.5H25v1H21.2v8.1a3.7,3.7,0,0,0,.5,2.2A1.9,1.9,0,0,0,23.4,17.4Z"/><path class="cls-1" d="M29.2,18.2H28.1V0h1.2Z"/><path class="cls-1" d="M38.6,18.5a5.6,5.6,0,0,1-4.3-1.7A6.9,6.9,0,0,1,32.7,12a7.5,7.5,0,0,1,1.5-4.9,5,5,0,0,1,4-1.8,4.4,4.4,0,0,1,3.6,1.6,6.5,6.5,0,0,1,1.3,4.3V12H34a6,6,0,0,0,1.2,4,4.3,4.3,0,0,0,3.4,1.4l1.9-.2,2.1-.7v1.1l-2,.6ZM38.3,6.3a3.8,3.8,0,0,0-3,1.2A5.7,5.7,0,0,0,34,11h7.9a5.6,5.6,0,0,0-1-3.5A3.2,3.2,0,0,0,38.3,6.3Z"/><path class="cls-1" d="M53.2,18.2V1.1h1.2v16h8.2v1.1Z"/><path class="cls-1" d="M65,2q0-1.1.7-1.1a.7.7,0,0,1,.6.3,1.4,1.4,0,0,1,.2.8,1.5,1.5,0,0,1-.2.8.6.6,0,0,1-.6.3Q65,3.1,65,2Zm1.3,16.3H65.2V5.5h1.2Z"/><path class="cls-1" d="M80.6,5.5v.8l-2.6.2A4.5,4.5,0,0,1,79,9.4a3.9,3.9,0,0,1-1.2,3,4.6,4.6,0,0,1-3.3,1.1H73.3a3,3,0,0,0-1.1.9,1.7,1.7,0,0,0-.4,1,1,1,0,0,0,.5.9,3.2,3.2,0,0,0,1.6.3h2.2a5.2,5.2,0,0,1,3.2.8,2.9,2.9,0,0,1,1.1,2.5,3.5,3.5,0,0,1-1.6,3.1A8.3,8.3,0,0,1,74.1,24a6.4,6.4,0,0,1-3.7-.9A3,3,0,0,1,69,20.5a3.1,3.1,0,0,1,.8-2.2A4.2,4.2,0,0,1,72,17.1a2.2,2.2,0,0,1-.9-.7,1.7,1.7,0,0,1-.3-1,2.7,2.7,0,0,1,1.6-2.2,3.6,3.6,0,0,1-1.7-1.4,4.1,4.1,0,0,1-.6-2.2,4,4,0,0,1,1.2-3.1,4.6,4.6,0,0,1,3.3-1.2,6,6,0,0,1,1.9.2ZM70.3,20.4q0,2.6,3.9,2.6t5-3.2a1.8,1.8,0,0,0-.8-1.7,4.8,4.8,0,0,0-2.5-.5H73.8Q70.3,17.6,70.3,20.4Zm1-10.9a2.9,2.9,0,0,0,.9,2.3,4,4,0,0,0,4.8,0,3.1,3.1,0,0,0,.8-2.3A3.2,3.2,0,0,0,76.9,7a3.4,3.4,0,0,0-2.4-.8,3.2,3.2,0,0,0-2.4.9A3.3,3.3,0,0,0,71.2,9.5Z"/><path class="cls-1" d="M92.1,18.2V10a4,4,0,0,0-.8-2.8,3.3,3.3,0,0,0-2.5-.9,4.3,4.3,0,0,0-3.3,1.2,5.4,5.4,0,0,0-1.1,3.7v7H83.2V0h1.2V7.4h.1a4.3,4.3,0,0,1,1.8-1.7,6.3,6.3,0,0,1,2.7-.5q4.3,0,4.3,4.7v8.3Z"/><path class="cls-1" d="M100.7,17.4l1.9-.2v.9a6.1,6.1,0,0,1-1.9.3,3.2,3.2,0,0,1-2.5-.9,4.2,4.2,0,0,1-.8-2.8V6.5H95.5V5.8l1.9-.5L98,2.4h.6V5.5h3.7v1H98.6v8.1a3.7,3.7,0,0,0,.5,2.2A1.9,1.9,0,0,0,100.7,17.4Z"/></svg>