<svg id="Layer_1" data-name="Layer 1" xmlns="http://www.w3.org/2000/svg" viewBox="0 0 300 79"><defs><style>.cls-1{fill:#fff;}.cls-2{fill:#f08b1d;}.cls-3{fill:#92c82d;}.cls-4{fill:#33bfc1;}</style></defs><g id="Logos"><path class="cls-1" d="M91.23,39.35V9.91h6.09V29.34c2.31-4.1,6.67-6.41,11.8-6.41,8.27,0,16.1,6,16.1,16.48,0,9.94-7,16.87-17.12,16.87C98.28,56.28,91.23,49.67,91.23,39.35Zm27.83.25c0-6.41-4.36-11-10.9-11s-10.83,4.62-10.83,11,4.36,11,10.83,11S119.06,46,119.06,39.6Z"/><path class="cls-1" d="M131.37,23.76h6.1V55.44h-6.1Z"/><path class="cls-1" d="M144.07,50.44l20.39-21.23H145V23.76h27.58v5L152.22,50h21v5.45H144.07Z"/><path class="cls-1" d="M177.1,39.86c0-9.94,7.05-16.93,17.12-16.93s16.87,6.8,16.87,16.93V55.45h-5.58V48.52c-2.12,5.13-6.8,7.76-12.32,7.76C184.92,56.28,177.1,50.31,177.1,39.86Zm28-.26c0-6.41-4.36-11-10.9-11s-10.9,4.62-10.9,11,4.36,11,10.9,11S205.06,46,205.06,39.6Z"/><path class="cls-1" d="M217.24,59.23h6.22c1.48,3.65,5.2,5.26,9.81,5.26,6.48,0,10.78-3.08,10.78-11.36V49.48c-2.18,4.1-6.61,6.54-11.93,6.54-8.2,0-16-5.64-16-16.42,0-9.62,7-16.67,17-16.67s16.94,6.73,16.94,16.93v13c0,12.19-7.44,16.93-16.81,16.93C225.51,69.81,219.42,66.54,217.24,59.23ZM244.05,39.6c0-6.41-4.36-11-10.9-11s-10.9,4.62-10.9,11,4.37,10.71,10.9,10.71S244.05,46,244.05,39.6Z"/><path class="cls-1" d="M257.51,23.76h6.1V55.44h-6.1Z"/><polygon class="cls-2" points="56.37 11.47 56.38 33.17 38.06 21.51 56.37 11.47"/><polygon class="cls-3" points="56.37 11.47 74.69 21.51 74.69 44.83 56.38 33.17 56.37 11.47"/><polygon class="cls-4" points="38.06 21.51 74.69 44.83 56.37 54.73 38.06 44.83 38.06 21.51"/><path class="cls-1" d="M75.49,20.05,57.17,10a1.68,1.68,0,0,0-1.6,0l-18.31,10a1.65,1.65,0,0,0-.87,1.46V44.83a1.68,1.68,0,0,0,.88,1.47l18.31,9.89a1.64,1.64,0,0,0,1.58,0l18.32-9.9a1.65,1.65,0,0,0,.87-1.46V21.51A1.66,1.66,0,0,0,75.49,20.05ZM73,41.8,58,32.25s0-.08,0-.13V14.28L73,22.5ZM54.71,30.13,41.34,21.61l13.37-7.33Zm1.66,22.7-16.65-9V24.53L71.4,44.71Z"/></g></svg>