<svg id="Layer_1" data-name="Layer 1" xmlns="http://www.w3.org/2000/svg" viewBox="0 0 300 79"><defs><style>.cls-1{fill:#f08b1d;}.cls-2{fill:#92c82d;}.cls-3{fill:#33bfc1;}.cls-4{fill:#fff;}.cls-5{fill:#595959;}</style></defs><polygon class="cls-1" points="56.47 11.48 56.48 33.17 38.17 21.51 56.47 11.48"/><polygon class="cls-2" points="56.47 11.48 74.78 21.51 74.78 44.82 56.48 33.17 56.47 11.48"/><polygon class="cls-3" points="38.17 21.51 74.78 44.82 56.47 54.71 38.17 44.82 38.17 21.51"/><path class="cls-4" d="M75.58,20.05,57.27,10a1.68,1.68,0,0,0-1.6,0l-18.3,10a1.66,1.66,0,0,0-.87,1.46V44.82a1.66,1.66,0,0,0,.88,1.46l18.3,9.9a1.72,1.72,0,0,0,.79.2,1.66,1.66,0,0,0,.79-.2l18.31-9.9a1.65,1.65,0,0,0,.87-1.46V21.51A1.67,1.67,0,0,0,75.58,20.05ZM73.12,41.79l-15-9.55s0-.08,0-.13V14.29l15,8.21ZM54.81,30.13,41.44,21.61l13.37-7.32Zm1.66,22.69-16.64-9V24.53L71.49,44.7Z"/><path class="cls-5" d="M78.34,18.55,57.26,7.22a1.68,1.68,0,0,0-1.57,0L34.61,18.55A1.66,1.66,0,0,0,33.73,20V46.33a1.66,1.66,0,0,0,.88,1.47L55.69,59a1.71,1.71,0,0,0,.78.2,1.65,1.65,0,0,0,.78-.2L78.33,47.8a1.65,1.65,0,0,0,.89-1.47V20A1.66,1.66,0,0,0,78.34,18.55Zm-1.9,26.27a1.65,1.65,0,0,1-.87,1.46l-18.31,9.9a1.66,1.66,0,0,1-.79.2,1.72,1.72,0,0,1-.79-.2l-18.3-9.9a1.66,1.66,0,0,1-.88-1.46V21.51a1.66,1.66,0,0,1,.87-1.46l18.3-10a1.68,1.68,0,0,1,1.6,0l18.31,10a1.67,1.67,0,0,1,.86,1.46Z"/><path class="cls-5" d="M91.31,39.34V9.92H97.4V29.34c2.31-4.1,6.67-6.41,11.8-6.41,8.27,0,16.09,6,16.09,16.47,0,9.94-7.06,16.86-17.12,16.86C98.36,56.26,91.31,49.66,91.31,39.34Zm27.82.26c0-6.41-4.36-11-10.89-11S97.4,33.19,97.4,39.6s4.36,11,10.84,11S119.13,46,119.13,39.6Z"/><path class="cls-5" d="M131.44,23.76h6.09V55.43h-6.09Z"/><path class="cls-5" d="M144.13,50.43l20.38-21.22H145.09V23.76h27.56v5L152.27,50h21v5.45H144.13Z"/><path class="cls-5" d="M177.14,39.85c0-9.93,7.05-16.92,17.11-16.92s16.86,6.8,16.86,16.92V55.43h-5.57V48.51c-2.12,5.12-6.8,7.75-12.31,7.75C185,56.26,177.14,50.3,177.14,39.85Zm28-.25c0-6.41-4.36-11-10.9-11s-10.9,4.62-10.9,11,4.36,11,10.9,11S205.09,46,205.09,39.6Z"/><path class="cls-5" d="M217.26,59.21h6.22c1.48,3.65,5.19,5.26,9.81,5.26,6.47,0,10.77-3.08,10.77-11.35V49.47c-2.18,4.1-6.6,6.54-11.92,6.54-8.21,0-16-5.65-16-16.41,0-9.62,7-16.67,17-16.67s16.92,6.73,16.92,16.92v13c0,12.18-7.43,16.93-16.79,16.93C225.53,69.79,219.44,66.52,217.26,59.21Zm26.8-19.61c0-6.41-4.36-11-10.9-11s-10.9,4.62-10.9,11,4.36,10.7,10.9,10.7S244.06,46,244.06,39.6Z"/><path class="cls-5" d="M257.52,23.76h6.09V55.43h-6.09Z"/></svg>