<svg xmlns="http://www.w3.org/2000/svg" viewBox="0 0 117.2 32"><defs><style>.cls-1{fill:#f08b1d;}.cls-2{fill:#92c82d;}.cls-3{fill:#33bfc1;}.cls-4{fill:#fff;}.cls-5{fill:#595959;}</style></defs><g id="Logos"><polygon class="cls-1" points="11.6 2.27 11.6 13.33 2.26 7.39 11.6 2.27"/><polygon class="cls-2" points="11.6 2.27 20.93 7.39 20.93 19.27 11.6 13.33 11.6 2.27"/><polygon class="cls-3" points="2.26 7.39 20.93 19.27 11.6 24.31 2.26 19.27 2.26 7.39"/><path class="cls-4" d="M21.34,6.64,12,1.53a.83.83,0,0,0-.81,0L1.85,6.64a.86.86,0,0,0-.44.75V19.27a.85.85,0,0,0,.45.75l9.33,5a.86.86,0,0,0,.41.1.85.85,0,0,0,.4-.1l9.33-5a.85.85,0,0,0,.45-.75V7.39A.86.86,0,0,0,21.34,6.64ZM20.08,17.72l-7.64-4.86V3.7l7.64,4.19Zm-9.33-5.94L3.93,7.44,10.75,3.7Zm.85,11.57L3.11,18.76V8.93L19.25,19.21Z"/><path class="cls-5" d="M22.75,5.88,12,.1a.89.89,0,0,0-.81,0L.45,5.88A.84.84,0,0,0,0,6.62V20a.84.84,0,0,0,.45.75l10.75,5.7a.83.83,0,0,0,.79,0l10.75-5.7a.84.84,0,0,0,.45-.75V6.62A.85.85,0,0,0,22.75,5.88Zm-1,13.39a.85.85,0,0,1-.45.75l-9.33,5a.85.85,0,0,1-.4.1.86.86,0,0,1-.41-.1L1.86,20a.85.85,0,0,1-.45-.75V7.39a.86.86,0,0,1,.44-.75l9.34-5.11a.83.83,0,0,1,.81,0l9.34,5.11a.86.86,0,0,1,.44.75Z"/><path class="cls-5" d="M29.36,16.48v-15h3.1v9.9a6.67,6.67,0,0,1,6-3.27,8,8,0,0,1,8.2,8.4c0,5.06-3.59,8.59-8.73,8.59S29.36,21.74,29.36,16.48Zm14.18.13A5.33,5.33,0,0,0,38,11a5.33,5.33,0,0,0-5.53,5.62A5.33,5.33,0,0,0,38,22.23,5.33,5.33,0,0,0,43.54,16.61Z"/><path class="cls-5" d="M49.82,8.54h3.1V24.68h-3.1Z"/><path class="cls-5" d="M56.29,22.13,66.68,11.31h-9.9V8.54h14v2.54L60.44,21.9H71.16v2.78H56.29Z"/><path class="cls-5" d="M73.12,16.74a8.31,8.31,0,0,1,8.72-8.63,8.19,8.19,0,0,1,8.6,8.63v7.94H87.6V21.15a6.45,6.45,0,0,1-6.28,4A8,8,0,0,1,73.12,16.74Zm14.25-.13a5.56,5.56,0,1,0-11.11,0,5.56,5.56,0,1,0,11.11,0Z"/><path class="cls-5" d="M93.58,26.61h3.17c.75,1.86,2.64,2.68,5,2.68,3.3,0,5.49-1.57,5.49-5.79V21.64A6.65,6.65,0,0,1,101.16,25,7.93,7.93,0,0,1,93,16.61a8.29,8.29,0,0,1,8.69-8.5c5.1,0,8.63,3.43,8.63,8.63v6.63c0,6.21-3.79,8.63-8.56,8.63C97.79,32,94.69,30.33,93.58,26.61Zm13.66-10a5.56,5.56,0,1,0-11.12,0,5.56,5.56,0,0,0,11.12,0Z"/><path class="cls-5" d="M114.1,8.54h3.1V24.68h-3.1Z"/></g></svg>