<svg id="Layer_1" data-name="Layer 1" xmlns="http://www.w3.org/2000/svg" viewBox="0 0 200 32.3"><defs><style>.cls-1{fill:#f6f6f6;}.cls-2{fill:#cfcfcf;}.cls-3{fill:#686868;}</style></defs><title>Button-Boton-ES</title><rect class="cls-1" x="0.5" y="0.5" width="111.2" height="31" rx="3.5" ry="3.5"/><path class="cls-2" d="M108.2,1a3,3,0,0,1,3,3V28a3,3,0,0,1-3,3H4a3,3,0,0,1-3-3V4A3,3,0,0,1,4,1H108.2m0-1H4A4,4,0,0,0,0,4V28a4,4,0,0,0,4,4H108.2a4,4,0,0,0,4-4V4a4,4,0,0,0-4-4Z"/><path class="cls-3" d="M34.8,13.5a1.1,1.1,0,0,1-.3.8,1,1,0,0,1-.8.3,1,1,0,0,1-.8-.3,1.1,1.1,0,0,1-.3-.8,1.1,1.1,0,0,1,.3-.8,1,1,0,0,1,.8-.3,1,1,0,0,1,.8.3A1.1,1.1,0,0,1,34.8,13.5Zm-1.6,2.2h1.2l.3,6.9H32.8Z"/><path class="cls-3" d="M37,10.1h3a5.6,5.6,0,0,1,3,.6,2.1,2.1,0,0,1,.9,1.9,2.3,2.3,0,0,1-.5,1.5,2,2,0,0,1-1.3.7h0a2.6,2.6,0,0,1,1.5.8,2.4,2.4,0,0,1,.5,1.6,2.6,2.6,0,0,1-.9,2.1,4,4,0,0,1-2.6.8H37Zm1.6,4.1h1.6a2.7,2.7,0,0,0,1.5-.3,1.2,1.2,0,0,0,.5-1.1,1.1,1.1,0,0,0-.5-1,3.2,3.2,0,0,0-1.6-.3H38.7Zm0,1.3v3.2h1.7a2.6,2.6,0,0,0,1.5-.4,1.5,1.5,0,0,0,.5-1.2,1.3,1.3,0,0,0-.5-1.2,2.8,2.8,0,0,0-1.6-.4Z"/><path class="cls-3" d="M52.8,16.3a4.1,4.1,0,0,1-1,2.9,3.4,3.4,0,0,1-2.6,1,3.6,3.6,0,0,1-1.9-.5,3.2,3.2,0,0,1-1.3-1.4,4.7,4.7,0,0,1-.4-2.1,4.1,4.1,0,0,1,.9-2.9,3.4,3.4,0,0,1,2.7-1,3.3,3.3,0,0,1,2.6,1.1A4.1,4.1,0,0,1,52.8,16.3Zm-5.5,0q0,2.6,1.9,2.6t1.9-2.6q0-2.6-1.9-2.6a1.6,1.6,0,0,0-1.5.7A3.4,3.4,0,0,0,47.3,16.3Z"/><path class="cls-3" d="M57.5,18.9l1.2-.2V20l-.7.2h-.9q-2.3,0-2.3-2.4V13.8h-1V13l1.1-.6.5-1.6h1v1.7h2.2v1.2H56.4v4a1.1,1.1,0,0,0,.3.9A1.1,1.1,0,0,0,57.5,18.9Z"/><path class="cls-3" d="M66.9,16.3a4.1,4.1,0,0,1-1,2.9,3.4,3.4,0,0,1-2.6,1,3.6,3.6,0,0,1-1.9-.5,3.2,3.2,0,0,1-1.3-1.4,4.7,4.7,0,0,1-.4-2.1,4.1,4.1,0,0,1,.9-2.9,3.4,3.4,0,0,1,2.7-1,3.3,3.3,0,0,1,2.6,1.1A4.1,4.1,0,0,1,66.9,16.3Zm-5.5,0q0,2.6,1.9,2.6t1.9-2.6q0-2.6-1.9-2.6a1.6,1.6,0,0,0-1.5.7A3.4,3.4,0,0,0,61.4,16.3Zm.9-4.7v-.2l.8-1.1.7-1h1.9l-1.1,1.1-1.2,1Z"/><path class="cls-3" d="M75.4,20.1H73.8V15.4a2,2,0,0,0-.4-1.3,1.4,1.4,0,0,0-1.1-.4,1.8,1.8,0,0,0-1.5.6,3.3,3.3,0,0,0-.5,2v3.8H68.7V12.5H70l.2,1h.1a2.2,2.2,0,0,1,1-.8,3.2,3.2,0,0,1,1.4-.3q2.7,0,2.7,2.8Z"/><path class="cls-3" d="M77.4,19.2a.9.9,0,0,1,1-1,1,1,0,0,1,.7.3,1.1,1.1,0,0,1,.3.8,1.1,1.1,0,0,1-.3.8,1,1,0,0,1-.7.3,1,1,0,0,1-.8-.3A1.1,1.1,0,0,1,77.4,19.2ZM79,17.1H77.8l-.4-7h1.9Z"/></svg>