<?xml version="1.0" encoding="utf-8"?>
<!-- Generator: Adobe Illustrator 21.1.0, SVG Export Plug-In . SVG Version: 6.00 Build 0)  -->
<svg version="1.1" baseProfile="tiny" id="Layer_1" xmlns="http://www.w3.org/2000/svg" xmlns:xlink="http://www.w3.org/1999/xlink"
	 x="0px" y="0px" viewBox="0 0 58 57" xml:space="preserve">
<g>
	<path fill="#BABEC1" d="M39,5h2c0.6,0,1-0.4,1-1h-4C38,4.6,38.4,5,39,5z"/>
	<path fill="#BABEC1" d="M53,7v2c0,0.6,0.4,1,1,1V6C53.4,6,53,6.4,53,7z"/>
	<path fill="#BABEC1" d="M48,5h2c0.6,0,1-0.4,1-1h-4C47,4.6,47.4,5,48,5z"/>
	<path fill="#BABEC1" d="M54,33c-0.6,0-1,0.4-1,1v2c0,0.6,0.4,1,1,1V33z"/>
	<path fill="#BABEC1" d="M53,27c0,0.6,0.4,1,1,1v-4c-0.6,0-1,0.4-1,1V27z"/>
	<path fill="#BABEC1" d="M53,16v2c0,0.6,0.4,1,1,1v-4C53.4,15,53,15.4,53,16z"/>
	<path fill="#BABEC1" d="M30,5h2c0.6,0,1-0.4,1-1h-4C29,4.6,29.4,5,30,5z"/>
	<path fill="#BABEC1" d="M54,51c-0.6,0-1,0.4-1,1v1h-1c-0.6,0-1,0.4-1,1h3V51z"/>
	<path fill="#BABEC1" d="M5,50v-2c0-0.6-0.4-1-1-1v4C4.6,51,5,50.6,5,50z"/>
	<path fill="#BABEC1" d="M4,6c0.6,0,1-0.4,1-1c0.6,0,1-0.4,1-1H4V6z"/>
	<path fill="#BABEC1" d="M12,5h2c0.6,0,1-0.4,1-1h-4C11,4.6,11.4,5,12,5z"/>
	<path fill="#BABEC1" d="M5,14v-2c0-0.6-0.4-1-1-1v4C4.6,15,5,14.6,5,14z"/>
	<path fill="#BABEC1" d="M18,53h-2c-0.6,0-1,0.4-1,1h4C19,53.4,18.6,53,18,53z"/>
	<path fill="#BABEC1" d="M27,53h-2c-0.6,0-1,0.4-1,1h4C28,53.4,27.6,53,27,53z"/>
	<path fill="#BABEC1" d="M9,53H7c-0.6,0-1,0.4-1,1h4C10,53.4,9.6,53,9,53z"/>
	<path fill="#BABEC1" d="M36,53h-2c-0.6,0-1,0.4-1,1h4C37,53.4,36.6,53,36,53z"/>
	<path fill="#BABEC1" d="M45,53h-2c-0.6,0-1,0.4-1,1h4C46,53.4,45.6,53,45,53z"/>
	<path fill="#BABEC1" d="M53,43v2c0,0.6,0.4,1,1,1v-4C53.4,42,53,42.4,53,43z"/>
	<path fill="#BABEC1" d="M21,5h2c0.6,0,1-0.4,1-1h-4C20,4.6,20.4,5,21,5z"/>
	<path fill="#BABEC1" d="M5,41v-2c0-0.6-0.4-1-1-1v4C4.6,42,5,41.6,5,41z"/>
	<path fill="#BABEC1" d="M5,23v-2c0-0.6-0.4-1-1-1v4C4.6,24,5,23.6,5,23z"/>
	<path fill="#BABEC1" d="M5,32v-2c0-0.6-0.4-1-1-1v4C4.6,33,5,32.6,5,32z"/>
</g>
<g>
	<path fill="#576673" d="M20,20v16h16V20H20z M20.6,20.6h14.9V32h-1.6l-5.6-6.7l-6.7,10.1h-0.9V20.6z M22.2,35.4l6.1-9.1l5.3,6.3
		h1.9v2.8H22.2z"/>
	<path fill="#576673" d="M24,25.5c0.9,0,1.7-0.8,1.7-1.8c0-1-0.8-1.8-1.7-1.8s-1.7,0.8-1.7,1.8C22.3,24.7,23.1,25.5,24,25.5z
		 M24,22.5c0.6,0,1.1,0.6,1.1,1.2c0,0.7-0.5,1.2-1.1,1.2s-1.1-0.6-1.1-1.2C22.9,23,23.4,22.5,24,22.5z"/>
</g>
</svg>
