<svg id="Layer_1" data-name="Layer 1" xmlns="http://www.w3.org/2000/svg" viewBox="0 0 200 14"><defs><style>.cls-1{fill:#23a2bb;}</style></defs><title>Button-Link-ES</title><path class="cls-1" d="M6.2,7.7a2.7,2.7,0,0,1-1,2.2,4.1,4.1,0,0,1-2.7.8H1.3l-1-.3V9.2a5,5,0,0,0,2.3.6,2.7,2.7,0,0,0,1.8-.5A1.7,1.7,0,0,0,5,7.8a1.4,1.4,0,0,0-.4-.9l-1.3-1A4.3,4.3,0,0,1,1.9,4.8a2.4,2.4,0,0,1-.4-1.4,2.7,2.7,0,0,1,.9-2.1A3.4,3.4,0,0,1,4.7.5H6l1.2.4-.5,1-1-.4-1-.2A2.2,2.2,0,0,0,3.3,2a1.6,1.6,0,0,0-.6,1.3,1.6,1.6,0,0,0,.1.6l.4.5,1,.6L5.5,6a2.2,2.2,0,0,1,.7,1.7Z"/><path class="cls-1" d="M11.4,3a2.7,2.7,0,0,1,2.1.8,2.9,2.9,0,0,1,.8,2.1,6.1,6.1,0,0,1-.5,2.4,4.2,4.2,0,0,1-1.3,1.8,3.1,3.1,0,0,1-1.9.6A2.7,2.7,0,0,1,8.4,10a2.9,2.9,0,0,1-.7-2.1,6,6,0,0,1,.5-2.4A4.1,4.1,0,0,1,9.5,3.7,3.1,3.1,0,0,1,11.4,3ZM13,5.8a1.9,1.9,0,0,0-.4-1.3A1.5,1.5,0,0,0,11.5,4a2,2,0,0,0-1.3.5,3.3,3.3,0,0,0-.9,1.4,5.9,5.9,0,0,0-.3,2,2,2,0,0,0,.4,1.4,1.6,1.6,0,0,0,1.2.5,1.9,1.9,0,0,0,1.3-.5,3.3,3.3,0,0,0,.9-1.4A6.5,6.5,0,0,0,13,5.8Z"/><path class="cls-1" d="M15.6,3.1h1.1l.5,3.7q.1.5.1,1.4t.1,1.5h0L18,8.4l.5-1.1,2.2-4.2H22l-4.8,8.8A4.9,4.9,0,0,1,16,13.5a2.5,2.5,0,0,1-1.5.5h-1v-.9h.9a1.4,1.4,0,0,0,1-.3,3.8,3.8,0,0,0,.8-1l.5-.9Z"/><path class="cls-1" d="M28.1,3.1,27,7.9a5.1,5.1,0,0,0-.1,1,.9.9,0,0,0,1,1,2,2,0,0,0,1.2-.4,3.6,3.6,0,0,0,1-1.2,6.3,6.3,0,0,0,.7-1.8l.7-3.2h1.1L31,10.6h-1l.2-1.4h-.1a4.5,4.5,0,0,1-1.3,1.2,2.6,2.6,0,0,1-1.3.3,1.9,1.9,0,0,1-1.4-.5,1.8,1.8,0,0,1-.5-1.4,6.4,6.4,0,0,1,.2-1.2l1-4.6Z"/><path class="cls-1" d="M38,10.6l1-4.7a6.3,6.3,0,0,0,.1-1,1,1,0,0,0-.2-.7,1,1,0,0,0-.8-.3,2,2,0,0,0-1.2.4,3.7,3.7,0,0,0-1,1.2,6.2,6.2,0,0,0-.7,1.8l-.7,3.2H33.5l1.6-7.5h1l-.2,1.4h.1a4.6,4.6,0,0,1,1.3-1.2A2.5,2.5,0,0,1,38.5,3a1.9,1.9,0,0,1,1.4.5,1.7,1.7,0,0,1,.5,1.3A5.6,5.6,0,0,1,40.2,6l-1,4.6Z"/><path class="cls-1" d="M46.3,10.6H45.2L47.4,0h1.1Z"/><path class="cls-1" d="M49.9,10.6H48.7l1.6-7.5h1.1Zm.8-9.4a.9.9,0,0,1,.2-.6l.6-.2A.5.5,0,0,1,52,1a.9.9,0,0,1-.2.6l-.5.3-.5-.2A.6.6,0,0,1,50.7,1.2Z"/><path class="cls-1" d="M56.9,10.6l1-4.7a6.3,6.3,0,0,0,.1-1,1,1,0,0,0-.2-.7A1,1,0,0,0,57,4a2,2,0,0,0-1.2.4,3.7,3.7,0,0,0-1,1.2,6.2,6.2,0,0,0-.7,1.8l-.7,3.2H52.3l1.6-7.5h1l-.2,1.4h.1A4.6,4.6,0,0,1,56,3.4,2.5,2.5,0,0,1,57.3,3a1.9,1.9,0,0,1,1.4.5,1.7,1.7,0,0,1,.5,1.3A5.6,5.6,0,0,1,59,6l-1,4.6Z"/><path class="cls-1" d="M62.2,6.8l3.6-3.7h1.4L64,6.3l2,4.3H64.7L63.1,7.1l-1,.8-.6,2.7H60.4L62.6,0h1.2l-.9,4.1a24.5,24.5,0,0,1-.7,2.7Z"/><path class="cls-1" d="M0,12v-.7H66.8V12Z"/></svg>