<svg id="Layer_1" data-name="Layer 1" xmlns="http://www.w3.org/2000/svg" viewBox="0 0 200 16"><defs><style>.cls-1{fill:#555;}</style></defs><title>SubtitleRegular-ES</title><path class="cls-1" d="M9,11.5a3.5,3.5,0,0,1-1.4,2.9,5.9,5.9,0,0,1-3.7,1.1A9.3,9.3,0,0,1,0,14.9V13.3l1.9.6,2.1.2a4.1,4.1,0,0,0,2.5-.6,2.1,2.1,0,0,0,.8-1.8A2.3,2.3,0,0,0,7,10.5a2.8,2.8,0,0,0-1-.9L3.9,8.7A6.8,6.8,0,0,1,1,7,3.7,3.7,0,0,1,.2,4.4,3.2,3.2,0,0,1,1.4,1.8,5.2,5.2,0,0,1,4.7.8a9.7,9.7,0,0,1,3.9.8L8.1,3.1a8.8,8.8,0,0,0-3.4-.7,3.3,3.3,0,0,0-2.1.6,1.9,1.9,0,0,0-.7,1.6,2.4,2.4,0,0,0,.3,1.2,2.6,2.6,0,0,0,.9.9l2,.9A7.9,7.9,0,0,1,8.1,9.1,3.4,3.4,0,0,1,9,11.5Z"/><path class="cls-1" d="M13.2,4.6v6.9a2.8,2.8,0,0,0,.6,2,2.4,2.4,0,0,0,1.9.6,3,3,0,0,0,2.5-.9,4.6,4.6,0,0,0,.8-3V4.6h1.6V15.3H19.2l-.2-1.4h-.1a3.2,3.2,0,0,1-1.4,1.2,4.6,4.6,0,0,1-2,.4,4.1,4.1,0,0,1-2.9-.9,4,4,0,0,1-1-3v-7Z"/><path class="cls-1" d="M28.9,4.4a4,4,0,0,1,3.3,1.4A6.3,6.3,0,0,1,33.4,10a6.4,6.4,0,0,1-1.2,4.1,4,4,0,0,1-3.3,1.5,4.6,4.6,0,0,1-1.9-.4,3.6,3.6,0,0,1-1.5-1.2h-.1l-.3,1.4H23.9V.1h1.6V3.8q0,1.2-.1,2.2h.1A3.8,3.8,0,0,1,28.9,4.4Zm-.2,1.4a2.8,2.8,0,0,0-2.4,1,5.4,5.4,0,0,0-.7,3.2,5.4,5.4,0,0,0,.8,3.2,2.9,2.9,0,0,0,2.4,1,2.5,2.5,0,0,0,2.2-1.1,5.6,5.6,0,0,0,.7-3.1,5.4,5.4,0,0,0-.7-3.1A2.6,2.6,0,0,0,28.7,5.8Z"/><path class="cls-1" d="M39.6,14.2h1.5v1.2l-.8.2h-.9q-3.1,0-3.1-3.3V5.9H34.8V5.1l1.5-.7L37,2.1h.9V4.6H41V5.9H37.9v6.3a2.2,2.2,0,0,0,.5,1.5A1.6,1.6,0,0,0,39.6,14.2Z"/><path class="cls-1" d="M43.2,3l1-1.5L45,0h2V.2L45.7,1.8,44.3,3.2H43.2Zm1.7,12.4H43.3V4.6h1.6Z"/><path class="cls-1" d="M51.8,14.2h1.5v1.2l-.8.2h-.9q-3.1,0-3.1-3.3V5.9H46.9V5.1l1.5-.7.7-2.3H50V4.6h3.1V5.9H50v6.3a2.2,2.2,0,0,0,.5,1.5A1.6,1.6,0,0,0,51.8,14.2Z"/><path class="cls-1" d="M56.9,4.6v6.9a2.8,2.8,0,0,0,.6,2,2.4,2.4,0,0,0,1.9.6,3,3,0,0,0,2.5-.9,4.6,4.6,0,0,0,.8-3V4.6h1.6V15.3H62.9l-.2-1.4h-.1a3.2,3.2,0,0,1-1.4,1.2,4.6,4.6,0,0,1-2,.4,4.1,4.1,0,0,1-2.9-.9,4,4,0,0,1-1-3v-7Z"/><path class="cls-1" d="M69.3,15.3H67.6V.1h1.6Z"/><path class="cls-1" d="M81.9,10A5.9,5.9,0,0,1,80.6,14,4.6,4.6,0,0,1,77,15.5a4.8,4.8,0,0,1-2.5-.7,4.4,4.4,0,0,1-1.7-1.9,6.7,6.7,0,0,1-.6-2.9,5.9,5.9,0,0,1,1.3-4.1,4.6,4.6,0,0,1,3.6-1.5,4.5,4.5,0,0,1,3.6,1.5A5.9,5.9,0,0,1,81.9,10Zm-8.2,0a5.1,5.1,0,0,0,.8,3.1,3.3,3.3,0,0,0,4.8,0,5.1,5.1,0,0,0,.8-3.1,5,5,0,0,0-.8-3.1A2.9,2.9,0,0,0,77,5.8a2.9,2.9,0,0,0-2.4,1A5,5,0,0,0,73.8,10Z"/><path class="cls-1" d="M101.4,15.3H99.5l-7.8-12h-.1q.2,2.1.2,3.9v8.1H90.2V1h1.9L99.9,13h.1V11.3q-.1-1.4,0-2V1h1.6Z"/><path class="cls-1" d="M114.3,10A5.9,5.9,0,0,1,113,14a4.6,4.6,0,0,1-3.6,1.5,4.8,4.8,0,0,1-2.5-.7,4.4,4.4,0,0,1-1.7-1.9,6.7,6.7,0,0,1-.6-2.9,5.9,5.9,0,0,1,1.3-4.1,4.6,4.6,0,0,1,3.6-1.5A4.5,4.5,0,0,1,113,5.9,5.9,5.9,0,0,1,114.3,10Zm-8.2,0a5.1,5.1,0,0,0,.8,3.1,3.3,3.3,0,0,0,4.8,0,5.1,5.1,0,0,0,.8-3.1,5,5,0,0,0-.8-3.1,2.9,2.9,0,0,0-2.4-1.1,2.9,2.9,0,0,0-2.4,1A5,5,0,0,0,106.1,10Z"/><path class="cls-1" d="M122,4.4h1.3L123.1,6h-1.2A2.9,2.9,0,0,0,119.7,7a3.8,3.8,0,0,0-.9,2.6v5.7h-1.6V4.6h1.3l.2,2h.1A4.7,4.7,0,0,1,120.2,5,3.2,3.2,0,0,1,122,4.4Z"/><path class="cls-1" d="M138.9,15.3v-7a2.9,2.9,0,0,0-.5-1.9,2.1,2.1,0,0,0-1.7-.6,2.7,2.7,0,0,0-2.2.9,4.1,4.1,0,0,0-.7,2.7v6h-1.6v-7a2.9,2.9,0,0,0-.5-1.9,2.1,2.1,0,0,0-1.7-.6,2.6,2.6,0,0,0-2.2.9,4.9,4.9,0,0,0-.7,3v5.6h-1.6V4.6h1.3l.3,1.5h.1a3.2,3.2,0,0,1,1.3-1.2,4,4,0,0,1,1.9-.4q2.5,0,3.3,1.8h.1a3.4,3.4,0,0,1,1.4-1.3,4.3,4.3,0,0,1,2.1-.5,3.6,3.6,0,0,1,2.7.9,4.2,4.2,0,0,1,.9,3v7Z"/><path class="cls-1" d="M150.5,15.3l-.3-1.5h-.1a4.5,4.5,0,0,1-1.6,1.4,4.9,4.9,0,0,1-2,.4,3.6,3.6,0,0,1-2.5-.8,3,3,0,0,1-.9-2.3q0-3.2,5.2-3.4h1.8V8.2a2.7,2.7,0,0,0-.5-1.9,2.2,2.2,0,0,0-1.7-.6,7.1,7.1,0,0,0-3,.8l-.5-1.2,1.7-.7,1.9-.2a4.1,4.1,0,0,1,2.8.8,3.5,3.5,0,0,1,.9,2.7v7.3Zm-3.7-1.1a3.3,3.3,0,0,0,2.4-.8,3.1,3.1,0,0,0,.9-2.3v-1h-1.6a5.9,5.9,0,0,0-2.8.6,1.8,1.8,0,0,0-.9,1.7,1.7,1.7,0,0,0,.5,1.3A2.2,2.2,0,0,0,146.8,14.2Z"/><path class="cls-1" d="M156.7,15.3H155V.1h1.6Z"/></svg>