<svg id="Layer_1" data-name="Layer 1" xmlns="http://www.w3.org/2000/svg" viewBox="0 0 200 32.3"><defs><style>.cls-1{fill:#f6f6f6;}.cls-2{fill:#cfcfcf;}.cls-3{fill:#686868;}</style></defs><title>button-Button</title><rect class="cls-1" x="0.5" y="0.5" width="111.2" height="31" rx="3.5" ry="3.5"/><path class="cls-2" d="M108.2,1a3,3,0,0,1,3,3V28a3,3,0,0,1-3,3H4a3,3,0,0,1-3-3V4A3,3,0,0,1,4,1H108.2m0-1H4A4,4,0,0,0,0,4V28a4,4,0,0,0,4,4H108.2a4,4,0,0,0,4-4V4a4,4,0,0,0-4-4Z"/><path class="cls-3" d="M14.1,20.9v-10h1.6v10Z"/><path class="cls-3" d="M19.5,10.9v.2a19.8,19.8,0,0,1-1.2,3.3H17.2q.5-2,.7-3.4Z"/><path class="cls-3" d="M27.3,20.9H25.7V16.2a2.1,2.1,0,0,0-.3-1.3,1.2,1.2,0,0,0-1-.4,1.6,1.6,0,0,0-1.4.6,3.5,3.5,0,0,0-.4,2v3.8H20.9V13.3h1.3l.2,1h.1a2.1,2.1,0,0,1,.9-.8,2.9,2.9,0,0,1,1.3-.3A2.3,2.3,0,0,1,27,14.4h.1a2.3,2.3,0,0,1,.9-.9,3,3,0,0,1,1.4-.3,2.5,2.5,0,0,1,2,.7,3,3,0,0,1,.6,2.1v4.9H30.4V16.2a2.1,2.1,0,0,0-.3-1.3,1.2,1.2,0,0,0-1-.4,1.6,1.6,0,0,0-1.4.6,3,3,0,0,0-.4,1.8Z"/><path class="cls-3" d="M42.7,20.9l-.3-1.1h-.1a3.1,3.1,0,0,1-1.1.9,3.5,3.5,0,0,1-1.4.3,2.4,2.4,0,0,1-1.7-.6,2.3,2.3,0,0,1-.6-1.7,2,2,0,0,1,.9-1.8,5,5,0,0,1,2.6-.6h1.3v-.4a1.5,1.5,0,0,0-.3-1.1,1.4,1.4,0,0,0-1-.4l-1.1.2-1,.4-.5-1.1,1.3-.5,1.4-.2a3.3,3.3,0,0,1,2.2.6,2.5,2.5,0,0,1,.7,2v5.1Zm-2.4-1.1a2,2,0,0,0,1.4-.5,1.8,1.8,0,0,0,.5-1.4v-.7h-1a3.3,3.3,0,0,0-1.7.4,1.2,1.2,0,0,0-.5,1,1,1,0,0,0,.3.8A1.3,1.3,0,0,0,40.3,19.8Z"/><path class="cls-3" d="M49.9,10.9h3a5.6,5.6,0,0,1,3,.6,2.1,2.1,0,0,1,.9,1.9,2.3,2.3,0,0,1-.5,1.5,2,2,0,0,1-1.3.7h0a2.6,2.6,0,0,1,1.5.8A2.4,2.4,0,0,1,57,18a2.6,2.6,0,0,1-.9,2.1,4,4,0,0,1-2.6.8H49.9ZM51.5,15h1.6a2.7,2.7,0,0,0,1.5-.3,1.2,1.2,0,0,0,.5-1.1,1.1,1.1,0,0,0-.5-1,3.2,3.2,0,0,0-1.6-.3H51.5Zm0,1.3v3.2h1.7a2.6,2.6,0,0,0,1.5-.4,1.5,1.5,0,0,0,.5-1.2,1.3,1.3,0,0,0-.5-1.2,2.8,2.8,0,0,0-1.6-.4Z"/><path class="cls-3" d="M64.3,20.9l-.2-1H64a2.3,2.3,0,0,1-1,.8,3.2,3.2,0,0,1-1.4.3,2.8,2.8,0,0,1-2.1-.7,2.8,2.8,0,0,1-.7-2.1V13.3h1.6V18a2,2,0,0,0,.4,1.3,1.4,1.4,0,0,0,1.1.4,1.8,1.8,0,0,0,1.5-.6,3.3,3.3,0,0,0,.5-2V13.3h1.6v7.6Z"/><path class="cls-3" d="M70.6,19.7l1.2-.2v1.2l-.7.2h-.9Q68,21,68,18.6V14.6h-1v-.7l1.1-.6.5-1.6h1v1.7h2.2v1.2H69.6v4a1.1,1.1,0,0,0,.3.9A1.1,1.1,0,0,0,70.6,19.7Z"/><path class="cls-3" d="M76.1,19.7l1.2-.2v1.2l-.7.2h-.9q-2.3,0-2.3-2.4V14.6h-1v-.7l1.1-.6.5-1.6h1v1.7h2.2v1.2H75.1v4a1.1,1.1,0,0,0,.3.9A1.1,1.1,0,0,0,76.1,19.7Z"/><path class="cls-3" d="M85.5,17.1a4.1,4.1,0,0,1-1,2.9,3.4,3.4,0,0,1-2.6,1,3.6,3.6,0,0,1-1.9-.5,3.2,3.2,0,0,1-1.3-1.4,4.7,4.7,0,0,1-.4-2.1,4.1,4.1,0,0,1,.9-2.9,3.4,3.4,0,0,1,2.7-1,3.3,3.3,0,0,1,2.6,1.1A4.1,4.1,0,0,1,85.5,17.1Zm-5.5,0q0,2.6,1.9,2.6t1.9-2.6q0-2.6-1.9-2.6a1.6,1.6,0,0,0-1.5.7A3.4,3.4,0,0,0,80,17.1Z"/><path class="cls-3" d="M94,20.9H92.4V16.2a2,2,0,0,0-.4-1.3,1.4,1.4,0,0,0-1.1-.4,1.8,1.8,0,0,0-1.5.6,3.3,3.3,0,0,0-.5,2v3.8H87.4V13.3h1.3l.2,1h.1a2.2,2.2,0,0,1,1-.8,3.2,3.2,0,0,1,1.4-.3Q94,13.2,94,16Z"/><path class="cls-3" d="M96,20a.9.9,0,0,1,1-1,1,1,0,0,1,.7.3,1.1,1.1,0,0,1,.3.8,1.1,1.1,0,0,1-.3.8,1,1,0,0,1-.7.3,1,1,0,0,1-.8-.3A1.1,1.1,0,0,1,96,20Zm1.6-2.2H96.5l-.4-7H98Z"/></svg>